<svg contentScriptType="text/ecmascript" width="200" xmlns:xlink="http://www.w3.org/1999/xlink" zoomAndPan="magnify" contentStyleType="text/css" viewBox="0 0 200 200" height="200" preserveAspectRatio="xMidYMid meet" xmlns="http://www.w3.org/2000/svg" version="1.0">
<defs/>
<rect x="278" y="234" width="127" style="stroke:#000000;fill:#f8f8f8;fill-opacity:0;" rx="8.0" height="69" id="0"/>
<rect x="278" y="234" width="127" style="stroke:#000000;fill:#f8f8f8;fill-opacity:0;" rx="8.0" height="69" id="1"/>
<rect x="278" y="234" transform="matrix( 0.3828125, 0, 0, 0.5, 171.26953125, 116.75)" width="127" style="stroke:#000000;fill:#f8f8f8;fill-opacity:0;" rx="8.0" height="69" id="2"/>
<rect x="278" y="234" transform="matrix( 0.3828125, 0, 0, 0.5, 171.26953125, 116.75)" width="127" style="stroke:#000000;fill:#f8f8f8;fill-opacity:0;" rx="8.0" height="69" id="3"/>
<rect x="9" y="22" transform="matrix( 1.5542168674698795, 0, 0, 1.5964912280701755, 30.289156626506013, 31.175438596491233)" width="82" style="stroke:#000000;fill:white;fill-opacity:0;" rx="9.0" height="56"/>
<polyline style="stroke:black;fill:none;" points="59,65 59,45 96,45 96,66 "/>
<text x="67" y="54" style="font-size:12pt;fill:#000000;" transform="matrix( 1, 0, 0, 1, 4, 6)">
S</text>
</svg>
