<svg contentScriptType="text/ecmascript" width="200" xmlns:xlink="http://www.w3.org/1999/xlink" zoomAndPan="magnify" contentStyleType="text/css" viewBox="0 0 200 200" height="200" preserveAspectRatio="xMidYMid meet" xmlns="http://www.w3.org/2000/svg" version="1.0">
<defs/>
<rect x="278" y="234" width="127" style="stroke:#000000;fill:#f8f8f8;fill-opacity:0;" rx="8.0" height="69" id="0"/>
<rect x="278" y="234" width="127" style="stroke:#000000;fill:#f8f8f8;fill-opacity:0;" rx="8.0" height="69" id="1"/>
<rect x="278" y="234" transform="matrix( 0.3828125, 0, 0, 0.5, 171.26953125, 116.75)" width="127" style="stroke:#000000;fill:#f8f8f8;fill-opacity:0;" rx="8.0" height="69" id="2"/>
<rect x="278" y="234" transform="matrix( 0.3828125, 0, 0, 0.5, 171.26953125, 116.75)" width="127" style="stroke:#000000;fill:#f8f8f8;fill-opacity:0;" rx="8.0" height="69" id="3"/>
<rect x="9" y="22" transform="matrix( 2.0000000527295474, 0, 0, 2.2280701754385963, -6.5000004482011775, -32.40350877192981)" width="82" style="stroke:#000000;fill:white;fill-opacity:0;" rx="9.0" height="56"/>
<circle transform="matrix( -0.7200000000000001, -0, -0, -0.68, 303.9599959470726, 194.15999310712277)" style="fill:#000000;" r="12.5" cx="180.5" cy="174.5" id="4"/>
<circle transform="matrix( 1, 0, 0, 1, 115, 54)" style="fill:#000000;" r="0" cx="29" cy="34" id="4"/>
<circle transform="matrix( 0.6744185701513258, 0, 0, 0.6511627355148661, 137.5813964700819, 39.03488527482219)" style="stroke:#000000;fill:white;fill-opacity:0;" r="21" cx="54" cy="56" id="4"/>
</svg>
