<?xml version="1.0" encoding="iso-8859-1"?>
<!-- Generator: Adobe Illustrator 18.0.0, SVG Export Plug-In . SVG Version: 6.00 Build 0)  -->
<!DOCTYPE svg PUBLIC "-//W3C//DTD SVG 1.1//EN" "http://www.w3.org/Graphics/SVG/1.1/DTD/svg11.dtd">
<svg version="1.1" id="Capa_1" xmlns="http://www.w3.org/2000/svg" xmlns:xlink="http://www.w3.org/1999/xlink" x="0px" y="0px"
	 viewBox="0 0 477.684 477.684" style="enable-background:new 0 0 477.684 477.684;" xml:space="preserve">
<g>
	<path d="M462.844,88.908c-4.224-4.232-11.065-4.232-15.288,0l-42.969,42.947c-7.549,7.555-19.777,7.555-27.325,0l-31.448-31.447
		c-3.634-3.611-5.668-8.533-5.668-13.658c0-5.125,2.034-10.04,5.661-13.674l42.961-42.954c4.232-4.224,4.232-11.073,0-15.289
		c-17.424-17.432-44.857-19.777-64.983-5.559l-23.349,16.492c-22.184,15.669-35.958,40.633-37.41,67.755l-2.772,51.644l-40.501,40.5
		l72.258,72.267l40.517-40.517l51.628-2.764c27.115-1.452,52.078-15.226,67.746-37.412l16.5-23.355
		C482.621,133.757,480.268,106.332,462.844,88.908z"/>
	<path d="M169.874,235.552L14.976,390.458c-19.956,19.964-19.956,52.296,0,72.251c19.962,19.964,52.286,19.964,72.25,0.008
		l154.906-154.906L169.874,235.552z M54.481,444.54c-11.739,0-21.252-9.511-21.252-21.244c0-11.741,9.513-21.252,21.252-21.252
		c11.733,0,21.245,9.511,21.245,21.252C75.727,435.029,66.214,444.54,54.481,444.54z"/>
	<path d="M343.384,286.924c7.571-7.563,7.571-19.824,0-27.387c-3.774-3.788-8.735-5.675-13.689-5.675
		c-4.961,0-9.917,1.888-13.698,5.675l-22.432,22.433L124.589,112.987c3.898-8.728,2.392-19.28-4.775-26.454L60.158,26.884
		L11.07,75.949l59.655,59.656c4.613,4.605,10.615,6.872,16.64,6.872c3.347,0,6.701-0.699,9.831-2.089l168.975,168.975
		l-22.432,22.433c-7.563,7.571-7.563,19.824,0,27.385c3.782,3.781,8.735,5.677,13.689,5.677c4.955,0,9.909-1.896,13.698-5.677
		l103.526,103.536c9.979,9.977,23.053,14.962,36.13,14.962c13.084,0,26.159-4.985,36.138-14.962
		c19.954-19.956,19.954-52.296,0-72.259L343.384,286.924z"/>
</g>
<g>
</g>
<g>
</g>
<g>
</g>
<g>
</g>
<g>
</g>
<g>
</g>
<g>
</g>
<g>
</g>
<g>
</g>
<g>
</g>
<g>
</g>
<g>
</g>
<g>
</g>
<g>
</g>
<g>
</g>
</svg>
