<?xml version="1.0" encoding="iso-8859-1"?>
<!-- Generator: Adobe Illustrator 19.1.0, SVG Export Plug-In . SVG Version: 6.00 Build 0)  -->
<svg version="1.1" id="Capa_1" xmlns="http://www.w3.org/2000/svg" xmlns:xlink="http://www.w3.org/1999/xlink" x="0px" y="0px"
	 viewBox="0 0 134.575 134.575" style="enable-background:new 0 0 134.575 134.575;" xml:space="preserve">
<g id="che_guevara">
	<path id="XMLID_287_" d="M112.317,122.812c-0.355,0.255-0.513,0.467-0.68,0.473c-3.998,0.162-7.07,0.324-8.219,5.864
		c-0.794,3.827-6.189,5.641-10.276,5.405c-8.381-0.483-16.204-2.788-20.778-10.921c-0.774-1.376-0.811-3.204-2.377-4.138
		c-0.196,0.168-0.409,0.263-0.47,0.418c-0.459,1.171,0.934,2.916-0.753,3.583c-1.478,0.584-2.823-0.546-3.804-1.53
		c-3.588-3.603-8.042-2.366-12.245-2.277c-1.621,0.034-0.983,1.067-0.294,1.859c0.63,0.724,1.854,1.343,1.056,2.536
		c-0.661,0.99-1.827,0.757-2.839,0.584c-5.212-0.892-10.114-2.695-14.608-5.45c-3.4-2.084-5.465-5.011-5.637-9.284
		c-0.146-3.619-0.709-3.745-3.754-1.915c-0.613,0.368-1.254,0.716-1.924,0.956c-0.935,0.335-2.025,1.065-2.87,0.2
		c-0.763-0.782,0.115-1.718,0.396-2.544c1.226-3.597,1.242-3.591-2.461-3.793c-3.446-0.188-4.841-1.901-6.171-7.735
		c1.813,0,2.838,2.155,4.697,1.669c-4.585-4.366-5.118-6.421-2.77-10.775c-1.49-0.296-3-0.483-4.439-0.91
		c-1.918-0.57-2.774-2.057-2.71-3.991c0.038-1.137,0.341-2.548,1.605-2.676c1.428-0.145,0.714,1.369,0.987,2.117
		c0.758,2.073,2.122,2.067,3.603,0.997c1.007-0.728,1.657-1.872,1.597-3.19c-0.126-2.756-0.321-5.51-0.519-8.262
		c-0.084-1.176-0.972-1.718-1.882-2.248c-1.114-0.648-2.322-1.249-2.487-3.081c1.227,0.212,2.986,1.998,2.828-1.092
		c-0.048-0.942,1.251,1.154,2.171,0.377c-1.361-4.349-3.253-5.213-7.468-3.404c-1.287,0.552-2.552,1.426-4.37,0.206
		c1.993-1.061,3.699-2.403,5.623-2.894c3.159-0.807,5.786-2.594,8.646-3.938c4.094-1.924,6.093-5.592,7.612-9.613
		c0.471-1.246-0.214-2.189-0.697-3.18c-1.949-4.001-3.275-8.01-0.588-12.246c0.248-0.391,0.284-0.997,0.235-1.486
		c-0.647-6.56,2.925-11.001,7.097-15.492c7.7-8.29,17.761-11.022,28.244-11.823c6.453-0.493,13.292-0.054,19.363,3.359
		c4.078,2.293,8.813,2.658,13.14,4.217c6.659,2.4,12.969,5.319,15.619,12.711c0.234,0.654,0.658,1.325,1.178,1.777
		c6.46,5.618,8.577,12.925,8.292,21.167c-0.045,1.313,0.574,1.796,1.786,1.981c1.205,0.184,2.384,0.555,3.564,0.881
		c0.139,0.038,0.214,0.309,0.567,0.856c-1.841,0.155-3.501,0.214-5.135,0.457c-1.295,0.192-2.18,0.6-0.928,2.166
		c0.94,1.175,1.268,2.714,1.036,4.411c-1.866-0.031-1.321-2.641-3.718-2.578c1.376,1.793,1.164,4.685,4.511,3.164
		c0.659-0.3,1.051-0.072,1.092,0.505c0.164,2.298,2.021,2.482,3.614,3.158c1.913,0.812,3.42,1.919,3.73,4.4
		c0.197,1.577,1.418,3.026,1.788,4.886c-1.062-0.997-2.09-2.035-3.199-2.977c-0.847-0.72-1.78-1.621-3.001-0.99
		c-1.108,0.573-0.896,1.782-0.81,2.77c0.204,2.346,0.454,4.694,0.812,7.021c0.648,4.207-0.03,8.222-1.976,11.929
		c-1.451,2.764-1.676,5.542-1.515,8.579c0.251,4.742-2.326,8.581-4.822,12.297c-0.774,1.152-2.304,1.927-4.071,1.561
		c2.129-4.306,1.951-4.574-4.947-6.837c1.759,1.493,2.816,2.714,2.777,4.375c-0.046,1.932-1.581,2.736-3.001,3.584
		c-0.554,0.331-0.872,0.784-0.949,1.471c-0.586,5.244,1.57,9.221,6.397,11.758C111.977,122.311,112.072,122.519,112.317,122.812z
		 M57.223,80.325c3.613-2.236,7.278-4.332,12.733-3.729c-2.234-2.195-2.41-3.805-1.4-5.495c0.407-0.681,0.438-1.319,0.005-2.014
		c-0.35-0.561-0.507-1.194,0.33-1.483c0.801-0.276,1.644,0.071,1.726,0.812c0.222,1.985,1.78,3.084,3.142,3.439
		c4.427,1.152,8.061,5.646,13.349,3.315c0.308-0.136,0.797,0.095,1.19,0.201c0.889,0.24,1.844,0.689,2.578-0.181
		c0.761-0.901,0-1.726-0.352-2.548c-0.363-0.848-0.683-1.716-1.088-2.543c-1.369-2.796-0.936-5.07,1.67-6.976
		c1.872-1.369,2.932-3.407,3.682-5.571c0.34-0.982,0.64-2.082-0.597-2.686c-3.406-1.663-7.063-2.849-10.784-2.923
		c-2.38-0.047-4.35,0.245-5.815-2.092c-1.087-1.734-2.799-0.509-4.241-0.486c-0.77,0.012-1.11,0.455-0.955,1.212
		c0.464,2.255-1.472,3.209-2.513,4.644c-0.353,0.487-0.772,1.161-1.453,0.88c-0.72-0.297-0.9-1.116-0.867-1.838
		c0.071-1.52,0.499-2.982,0.155-4.567c-1.207-5.56,1.059-8.697,6.707-9.489c1.319-0.185,2.702-0.141,3.957-0.524
		c5.932-1.815,11.411-1.834,15.793,3.43c0.319,0.383,0.869,0.622,1.384,0.263c0.468-0.326,0.604-0.864,0.413-1.369
		c-1.649-4.355-2.629-8.91-7.977-10.896c-11.533-4.284-23.313-5.411-35.394-3.798c-4.372,0.584-8.635,1.751-12.281,4.535
		c-2.016,1.539-3.395,3.538-4.684,5.638c-1.134,1.848,1.61,1.819,1.571,3.161c-0.018,0.611,0.076,1.232,0.006,1.835
		c-0.202,1.731-0.525,3.449-0.686,5.182c-0.573,6.169-2.678,12.331-0.212,18.527c1.179,2.964,2.035,6.019,2.749,9.119
		c0.816,3.546,2.691,6.385,5.579,8.583c0.892,0.679,2.199,1.413,1.92,2.583c-0.567,2.376,1.356,4.54,0.313,6.912
		c-0.287,0.653,0.116,1.488,0.872,1.769c0.792,0.294,0.959-0.516,1.319-0.979c1.801-2.312,2.475-2.245,3.516,0.584
		c0.959,2.607,3.026,4.083,5.42,4.513c5.43,0.977,10.989,0.616,15.786-2.141c2.102-1.208,4.815-2.43,5.867-5.143
		c0.256-0.66,0.693-1.357,0.252-2.049c-0.5-0.785-1.272-0.348-1.96-0.268c-5.218,0.61-10.338-0.896-15.547-0.77
		c-0.966,0.023-2.004-0.934-2.92-1.569c-0.654-0.453-1.382-1.095-0.956-2.035c0.362-0.8,1.236-0.626,1.914-0.567
		c3.306,0.288,6.56-0.101,9.785-0.74c2.725-0.54,5.407-1.257,8.089,0.226c0.812,0.449,1.715,0.319,1.777-0.864
		c0.054-1.032-0.71-1.502-1.632-1.366c-4.081,0.601-8.03-1.219-12.215-0.346c-2.753,0.574-5.685,0.353-8.47,1.236
		c-1.169,0.37-2.935,0.813-2.117-1.663C56.18,80.917,56.702,80.621,57.223,80.325z M17.168,87.43
		c-0.122,2.261,0.853,3.755,2.816,3.844c1.981,0.09,3.168-1.813,3.209-3.356c0.043-1.591-1.14-3.529-3.033-3.642
		C18.224,84.161,17.035,85.52,17.168,87.43z"/>
	<path id="XMLID_286_" d="M55.658,81.213c-2.659,0.429-2.271,2.758-2.767,4.504c-0.371,1.307-0.068,3.287-2.001,3.227
		c-1.669-0.051-1.904-1.792-2.22-3.231c-1.105-5.041,3.872-10.693,8.938-10.084c1.135,0.136,1.467,0.698,0.756,1.629
		c-0.703,0.921-1.255,1.86-1.141,3.066C56.702,80.621,56.18,80.917,55.658,81.213z"/>
	<path id="XMLID_285_" d="M45.386,47.057c-1.762,0.101-2.641,0.866-3.652,1.331c-1.266,0.582-2.418,0.295-3.259-0.853
		c-0.807-1.102-0.464-2.06,0.36-3.036c1.774-2.103,3.72-3.255,6.694-2.553c3.408,0.804,6.933,0.125,10.402,0.084
		c2.077-0.025,3.339,0.849,4.066,2.594c0.533,1.28,1.41,2.787-0.041,3.951c-1.418,1.137-2.731,2.952-5.054,1.457
		c-1.056-0.68-2.049-0.459-2.783,0.854c-1.014,1.814-2.61,2.159-4.444,1.15c-0.464-0.255-0.943-0.559-1.366-0.073
		c-0.532,0.612-0.223,0.945,0.404,1.402c1.337,0.974,0.197,1.448-0.564,1.338c-1.753-0.253-3.398-0.146-5.104,0.327
		c-0.807,0.224-1.577-0.403-1.955-1.209c-0.51-1.088-0.161-2.045,0.734-2.729C41.517,49.801,43.269,48.585,45.386,47.057z"/>
	<path id="XMLID_284_" d="M73.711,68.834c-0.98-0.013-1.781-0.173-2.406-0.767c-1.431-1.36-2.883-1.751-4.581-0.392
		c-0.894,0.715-1.845,0.428-2.858-0.049c-1.617-0.762-3.869-0.067-4.685,1.433c-0.551,1.013-1.088,0.674-1.688,0.232
		c-1.564-1.154-1.365-3.525,0.371-4.665c0.82-0.538,15.891-1.453,16.709-0.961c1.256,0.755,2.488,1.654,2.145,3.347
		C76.383,68.67,74.895,68.694,73.711,68.834z"/>
</g>
<g>
</g>
<g>
</g>
<g>
</g>
<g>
</g>
<g>
</g>
<g>
</g>
<g>
</g>
<g>
</g>
<g>
</g>
<g>
</g>
<g>
</g>
<g>
</g>
<g>
</g>
<g>
</g>
<g>
</g>
</svg>
