<?xml version="1.0" encoding="iso-8859-1"?>
<!-- Generator: Adobe Illustrator 18.0.0, SVG Export Plug-In . SVG Version: 6.00 Build 0)  -->
<!DOCTYPE svg PUBLIC "-//W3C//DTD SVG 1.1//EN" "http://www.w3.org/Graphics/SVG/1.1/DTD/svg11.dtd">
<svg version="1.1" id="Capa_1" xmlns="http://www.w3.org/2000/svg" xmlns:xlink="http://www.w3.org/1999/xlink" x="0px" y="0px"
	 viewBox="0 0 188.577 188.577" style="enable-background:new 0 0 188.577 188.577;" xml:space="preserve">
<path d="M188.577,86.409c0-10.8-2.922-22.243-24.589-25.236c-0.636-0.087-1.263-0.083-1.872-0.015
	c0.564-7.447,0.438-12.401,0.414-13.126c-0.132-4.045-3.504-7.256-7.551-7.256H7.501c-2.508,0-4.85,1.254-6.24,3.34
	c-0.96,1.439-1.379,3.144-1.23,4.822c-0.165,7.133-0.142,53.169,26.168,83.863H7.5c-4.143,0-7.5,3.357-7.5,7.5s3.357,7.5,7.5,7.5
	h38.204h71.182h38.167c4.143,0,7.5-3.357,7.5-7.5s-3.357-7.5-7.5-7.5h-18.785c1.535-1.803,2.981-3.659,4.343-5.56
	C165.036,124.709,188.577,100.351,188.577,86.409z M160.392,75.646c0.49,0.179,1.006,0.311,1.544,0.386
	c11.642,1.607,11.642,4.538,11.642,10.369c-0.13,4.143-10.107,16.14-22.59,22.308C155.915,97.313,158.759,85.662,160.392,75.646z
	 M48.076,132.801c-28.083-20.536-32.43-60.699-33-77.025h132.316c-0.82,16.514-5.665,56.998-32.939,77.025H48.076z"/>
<g>
</g>
<g>
</g>
<g>
</g>
<g>
</g>
<g>
</g>
<g>
</g>
<g>
</g>
<g>
</g>
<g>
</g>
<g>
</g>
<g>
</g>
<g>
</g>
<g>
</g>
<g>
</g>
<g>
</g>
</svg>
