<?xml version="1.0" encoding="UTF-8"?>
<!DOCTYPE svg PUBLIC "-//W3C//DTD SVG 1.1//EN" "http://www.w3.org/Graphics/SVG/1.1/DTD/svg11.dtd">
<!-- Creator: CorelDRAW -->
<svg xmlns="http://www.w3.org/2000/svg" xml:space="preserve" width="450mm" height="210mm" style="shape-rendering:geometricPrecision; text-rendering:geometricPrecision; image-rendering:optimizeQuality; fill-rule:evenodd; clip-rule:evenodd"
viewBox="0 0 450 210"
 xmlns:xlink="http://www.w3.org/1999/xlink">
 <defs>
  <style type="text/css">
   <![CDATA[
    .str2 {stroke:#2B2A29;stroke-width:0.2}
    .str1 {stroke:#2B2A29;stroke-width:1.5}
    .str3 {stroke:#2B2A29;stroke-width:2}
    .str0 {stroke:#2B2A29;stroke-width:5}
    .fil5 {fill:none}
    .fil3 {fill:#2B2A29}
    .fil7 {fill:#7688A1}
    .fil8 {fill:#D9DADA}
    .fil4 {fill:#AAFA20}
    .fil1 {fill:#2B2A29}
    .fil6 {fill:#2B2A29;fill-rule:nonzero}
    .fil0 {fill:#9CF00C;fill-rule:nonzero}
    .fil2 {fill:#AAFA20;fill-rule:nonzero}
   ]]>
  </style>
 </defs>
 <g id="Layer_x0020_1">
  <metadata id="CorelCorpID_0Corel-Layer"/>
  <g id="_228424160">
   <path id="_228424712" class="fil0 str0" d="M173.037 43.3095l0 64.4294c7.0247,0 14.0493,0 21.0741,0l0 -64.4294 20.3596 0c0,-3.2215 0,-6.423 0,-9.5849 0,-3.1817 0,-6.3435 0,-9.5053l-61.9123 0c0,3.1618 0,6.3236 0,9.5053 0,3.1619 0,6.3634 0,9.5849l20.4786 0zm10.0013 56.4354l0 -65.5032 -22.5028 0 0 -1.0739 45.839 0 0 1.0739 -22.3837 0c0.0594,10.9172 0.119,21.8145 0.1587,32.7118 0.0595,10.8973 0.0794,21.8145 0.0794,32.7914l-1.1906 0zm81.2003 -65.3839l-25.5983 0 0 38.5383 25.5983 0c3.1354,-0.0199 5.8738,-0.5767 8.2352,-1.6505 2.3416,-1.0937 4.2862,-2.5454 5.8538,-4.3748 1.5479,-1.8295 2.7186,-3.8777 3.4727,-6.1646 0.7739,-2.2868 1.151,-4.6532 1.151,-7.0793 -0.0199,-2.426 -0.4167,-4.7924 -1.2106,-7.0792 -0.7937,-2.2869 -1.9644,-4.3351 -3.5122,-6.1646 -1.5677,-1.8295 -3.5124,-3.301 -5.854,-4.3748 -2.3217,-1.0738 -5.0402,-1.6306 -8.1359,-1.6505zm-25.5983 39.8508l0 25.5331 -1.1907 0 0 -66.4577 26.789 0c3.175,0.0198 5.9929,0.5568 8.3939,1.5908 2.421,1.0341 4.445,2.4459 6.092,4.2158 1.647,1.7897 2.917,3.7981 3.8101,6.0452 0.8929,2.2471 1.4088,4.5936 1.5477,7.0395 0.1389,2.4459 -0.0992,4.8521 -0.7143,7.2185 -0.6152,2.3664 -1.5875,4.5538 -2.9369,6.5622 -1.3493,2.0085 -3.0758,3.6987 -5.1594,5.0907 -2.0836,1.392 -4.5243,2.3267 -7.3422,2.8039l3.572 6.3236 12.0252 19.6868 -1.4287 0 -15.4781 -25.7718c-0.3572,0 -0.7343,0.0199 -1.151,0.0597 -0.3968,0.0398 -0.8136,0.0597 -1.2303,0.0597l-25.5983 0zm43.1004 3.9373c3.0164,-2.0681 5.477,-4.5737 7.3819,-7.4969 1.905,-2.9033 3.2544,-6.0651 4.0679,-9.4456 0.8136,-3.3607 1.0717,-6.8009 0.774,-10.261 -0.2977,-3.4601 -1.1311,-6.781 -2.5202,-9.9627 -1.4089,-3.1817 -3.3337,-6.0254 -5.834,-8.5309 -2.4805,-2.5056 -5.5166,-4.4942 -9.1083,-5.9657 -3.5718,-1.4716 -7.6993,-2.2272 -12.3824,-2.267 -6.0921,0 -12.1841,0 -18.3157,0 -6.1318,0 -12.2039,0 -18.2364,0 0,13.9597 0,27.8995 0,41.7996 0,13.9199 0,27.82 0,41.72 3.4727,0 6.9849,0 10.5767,0 3.5718,0 7.1635,0 10.7355,0l0 -24.5786 11.0727 0 14.2875 24.5786 23.8124 0 0 -3.1022 -16.3116 -26.4876zm-17.6211 -14.1983l-15.2399 0c0,-3.3607 0,-6.781 0,-10.2809 0,-3.48 0,-6.9401 0,-10.3604 2.5002,-0.0199 5.0402,-0.0199 7.6199,-0.0398 2.5599,-0.0397 5.0998,-0.0199 7.62,0.0398 2.024,0.0398 3.6909,0.5767 5.0205,1.571 1.3295,0.9942 2.3018,2.2669 2.9368,3.8379 0.6549,1.5511 0.9525,3.2016 0.9327,4.9515 -0.0397,1.7499 -0.3771,3.4005 -1.0518,4.9515 -0.6747,1.5511 -1.6669,2.8238 -2.9765,3.8181 -1.3097,0.9744 -2.9369,1.4715 -4.8617,1.5113z"/>
   <path id="_228424616" class="fil1 str1" d="M237.452 33.2855l0 66.4592 1.1907 0 0 -25.5337 25.599 0c0.4167,0 0.8334,-0.0199 1.2302,-0.0597 0.4168,-0.0397 0.7938,-0.0596 1.151,-0.0596l15.4785 25.7723 1.4287 0 -12.0255 -19.6872 -3.572 -6.3238c2.8179,-0.4772 5.2587,-1.4119 7.3424,-2.8039 2.0836,-1.392 3.81,-3.0823 5.1594,-5.0908 1.3495,-2.0085 2.3218,-4.196 2.937,-6.5624 0.6152,-2.3664 0.8533,-4.7727 0.7144,-7.2186 -0.1389,-2.446 -0.6549,-4.7926 -1.5478,-7.0397 -0.8931,-2.2472 -2.1631,-4.2556 -3.8101,-6.0454 -1.6471,-1.7699 -3.6712,-3.1818 -6.0922,-4.2158 -2.4011,-1.0341 -5.2189,-1.571 -8.394,-1.5909l-26.7897 0zm1.1907 39.613l0 -38.5391 25.599 0c3.0957,0.0198 5.8143,0.5766 8.1361,1.6505 2.3416,1.0738 4.2863,2.5454 5.8539,4.3749 1.5479,1.8295 2.7187,3.8778 3.5125,6.1647 0.7938,2.2869 1.1906,4.6534 1.2105,7.0794 0,2.4261 -0.3771,4.7926 -1.151,7.0795 -0.7541,2.2868 -1.9249,4.3351 -3.4727,6.1647 -1.5677,1.8295 -3.5124,3.2811 -5.854,4.3749 -2.3615,1.0738 -5.1,1.6306 -8.2353,1.6505l-25.599 0z"/>
   <path id="_228424472" class="fil0 str0" d="M331.639 97.8675l0 -63.5942 -11.5734 0 0 -1.1932 24.2206 0 0 1.1932 -11.4541 0 0 63.5942 12.4087 0 0 1.1931 -26.2491 0 0 -1.1931 12.6473 0zm11.0962 -8.8293l0 -46.1744 9.7837 0 0 -18.6129 -40.686 0 0 18.6129 9.7837 0 0 46.1744 -10.6189 0 0 18.7323 42.3564 0 0 -18.7323 -10.6189 0zm36.2714 -22.5502l0 33.0499 -1.5511 0 0 -67.1737 1.5511 0 0 33.1693c1.8493,0 3.7782,0 5.7668,0 1.9886,0 4.0169,0 6.0452,0 3.1419,-0.0199 6.1248,-0.3978 8.9485,-1.1136 2.8437,-0.7358 5.3493,-1.6704 7.5168,-2.8238 4.9118,-2.6647 8.5111,-6.4628 10.7581,-11.4342 2.2471,-4.9714 3.3607,-10.8973 3.3209,-17.7977l1.1932 0c0.0397,3.5397 -0.2387,6.96 -0.875,10.2411 -0.6165,3.301 -1.6505,6.3634 -3.122,9.2071 -1.4517,2.8436 -3.4204,5.3293 -5.9061,7.4969 -2.4658,2.1675 -5.5282,3.8776 -9.1871,5.1503l21.4764 35.0783 -1.4317 0 -21.1186 -34.601c-1.1533,0.3182 -2.4061,0.5966 -3.7186,0.8153 -1.3124,0.2386 -2.6249,0.4176 -3.9373,0.5369 -1.3324,0.1392 -2.5851,0.1989 -3.7982,0.1989 -2.0482,0 -4.0765,0 -6.1049,0 -2.0283,0 -3.9572,0 -5.8264,0zm10.1416 41.2825l0 -31.8568c1.3721,0 2.7244,-0.0198 4.0766,-0.0596 1.3522,-0.0597 2.7243,-0.1989 4.1561,-0.4176l18.3743 32.334 23.7434 0 0 -3.3408 -22.6696 -36.7486c3.301,-2.1278 5.9856,-4.4544 8.0537,-6.96 2.0681,-2.5056 3.6589,-5.1702 4.7725,-7.994 1.1335,-2.8436 1.9289,-5.7867 2.3863,-8.869 0.4574,-3.1021 0.7358,-6.2838 0.8153,-9.565 0.0796,-3.2811 0.0994,-6.6219 0.0796,-10.0422 -3.6988,0 -7.3776,0 -11.0167,0 -3.6589,0 -7.298,0 -10.9371,0 0.0398,3.1419 0.0199,6.2441 -0.0596,9.2866 -0.0597,3.0425 -0.3779,5.906 -0.9346,8.5906 -0.537,2.6845 -1.5114,5.0509 -2.9232,7.119 -1.392,2.0483 -3.4204,3.659 -6.0453,4.8322 -2.6447,1.1733 -6.085,1.7699 -10.3206,1.7897l-1.5511 0 0 -31.6181c-3.6987,0 -7.3378,0 -10.9371,0 -3.6191,0 -7.1986,0 -10.778,0l0 83.5196c3.5794,0 7.1589,0 10.778,0 3.5993,0 7.2384,0 10.9371,0z"/>
   <path id="_224817184" class="fil2 str1" d="M173.037 43.3737l0 64.4294c7.0247,0 14.0493,0 21.0741,0l0 -64.4294 20.3596 0c0,-3.2215 0,-6.423 0,-9.5849 0,-3.1817 0,-6.3435 0,-9.5053l-61.9123 0c0,3.1618 0,6.3236 0,9.5053 0,3.1619 0,6.3634 0,9.5849l20.4786 0zm10.0013 56.4354l0 -65.5032 -22.5028 0 0 -1.0739 45.839 0 0 1.0739 -22.3837 0c0.0594,10.9172 0.119,21.8145 0.1587,32.7118 0.0595,10.8973 0.0794,21.8145 0.0794,32.7914l-1.1906 0zm81.2003 -65.3839l-25.5983 0 0 38.5383 25.5983 0c3.1354,-0.0199 5.8738,-0.5767 8.2352,-1.6505 2.3416,-1.0937 4.2862,-2.5454 5.8538,-4.3748 1.5479,-1.8295 2.7186,-3.8777 3.4727,-6.1646 0.7739,-2.2868 1.151,-4.6532 1.151,-7.0793 -0.0199,-2.426 -0.4167,-4.7924 -1.2106,-7.0792 -0.7937,-2.2869 -1.9644,-4.3351 -3.5122,-6.1646 -1.5677,-1.8295 -3.5124,-3.301 -5.854,-4.3748 -2.3217,-1.0738 -5.0402,-1.6306 -8.1359,-1.6505zm-25.5983 39.8508l0 25.5331 -1.1907 0 0 -66.4577 26.789 0c3.175,0.0198 5.9929,0.5568 8.3939,1.5908 2.421,1.0341 4.445,2.4459 6.092,4.2158 1.647,1.7897 2.917,3.7981 3.8101,6.0452 0.8929,2.2471 1.4088,4.5936 1.5477,7.0395 0.1389,2.4459 -0.0992,4.8521 -0.7143,7.2185 -0.6152,2.3664 -1.5875,4.5538 -2.9369,6.5622 -1.3493,2.0085 -3.0758,3.6987 -5.1594,5.0907 -2.0836,1.392 -4.5243,2.3267 -7.3422,2.8039l3.572 6.3236 12.0252 19.6868 -1.4287 0 -15.4781 -25.7718c-0.3572,0 -0.7343,0.0199 -1.151,0.0597 -0.3968,0.0398 -0.8136,0.0597 -1.2303,0.0597l-25.5983 0zm43.1004 3.9373c3.0164,-2.0681 5.477,-4.5737 7.3819,-7.4969 1.905,-2.9033 3.2544,-6.0651 4.0679,-9.4456 0.8136,-3.3607 1.0717,-6.8009 0.774,-10.261 -0.2977,-3.4601 -1.1311,-6.781 -2.5202,-9.9627 -1.4089,-3.1817 -3.3337,-6.0254 -5.834,-8.5309 -2.4805,-2.5056 -5.5166,-4.4942 -9.1083,-5.9657 -3.5718,-1.4716 -7.6993,-2.2272 -12.3824,-2.267 -6.0921,0 -12.1841,0 -18.3157,0 -6.1318,0 -12.2039,0 -18.2364,0 0,13.9597 0,27.8995 0,41.7996 0,13.9199 0,27.82 0,41.72 3.4727,0 6.9849,0 10.5767,0 3.5718,0 7.1635,0 10.7355,0l0 -24.5786 11.0727 0 14.2875 24.5786 23.8124 0 0 -3.1022 -16.3116 -26.4876zm-17.6211 -14.1983l-15.2399 0c0,-3.3607 0,-6.781 0,-10.2809 0,-3.48 0,-6.9401 0,-10.3604 2.5002,-0.0199 5.0402,-0.0199 7.6199,-0.0398 2.5599,-0.0397 5.0998,-0.0199 7.62,0.0398 2.024,0.0398 3.6909,0.5767 5.0205,1.571 1.3295,0.9942 2.3018,2.2669 2.9368,3.8379 0.6549,1.5511 0.9525,3.2016 0.9327,4.9515 -0.0397,1.7499 -0.3771,3.4005 -1.0518,4.9515 -0.6747,1.5511 -1.6669,2.8238 -2.9765,3.8181 -1.3097,0.9744 -2.9369,1.4715 -4.8617,1.5113z"/>
   <path id="_228424208" class="fil2 str1" d="M331.639 97.8675l0 -63.5942 -11.5734 0 0 -1.1932 24.2206 0 0 1.1932 -11.4541 0 0 63.5942 12.4087 0 0 1.1931 -26.2491 0 0 -1.1931 12.6473 0zm11.0962 -8.8293l0 -46.1744 9.7837 0 0 -18.6129 -40.686 0 0 18.6129 9.7837 0 0 46.1744 -10.6189 0 0 18.7323 42.3564 0 0 -18.7323 -10.6189 0zm36.2714 -22.5502l0 33.0499 -1.5511 0 0 -67.1737 1.5511 0 0 33.1693c1.8493,0 3.7782,0 5.7668,0 1.9886,0 4.0169,0 6.0452,0 3.1419,-0.0199 6.1248,-0.3978 8.9485,-1.1136 2.8437,-0.7358 5.3493,-1.6704 7.5168,-2.8238 4.9118,-2.6647 8.5111,-6.4628 10.7581,-11.4342 2.2471,-4.9714 3.3607,-10.8973 3.3209,-17.7977l1.1932 0c0.0397,3.5397 -0.2387,6.96 -0.875,10.2411 -0.6165,3.301 -1.6505,6.3634 -3.122,9.2071 -1.4517,2.8436 -3.4204,5.3293 -5.9061,7.4969 -2.4658,2.1675 -5.5282,3.8776 -9.1871,5.1503l21.4764 35.0783 -1.4317 0 -21.1186 -34.601c-1.1533,0.3182 -2.4061,0.5966 -3.7186,0.8153 -1.3124,0.2386 -2.6249,0.4176 -3.9373,0.5369 -1.3324,0.1392 -2.5851,0.1989 -3.7982,0.1989 -2.0482,0 -4.0765,0 -6.1049,0 -2.0283,0 -3.9572,0 -5.8264,0zm10.1416 41.2825l0 -31.8568c1.3721,0 2.7244,-0.0198 4.0766,-0.0596 1.3522,-0.0597 2.7243,-0.1989 4.1561,-0.4176l18.3743 32.334 23.7434 0 0 -3.3408 -22.6696 -36.7486c3.301,-2.1278 5.9856,-4.4544 8.0537,-6.96 2.0681,-2.5056 3.6589,-5.1702 4.7725,-7.994 1.1335,-2.8436 1.9289,-5.7867 2.3863,-8.869 0.4574,-3.1021 0.7358,-6.2838 0.8153,-9.565 0.0796,-3.2811 0.0994,-6.6219 0.0796,-10.0422 -3.6988,0 -7.3776,0 -11.0167,0 -3.6589,0 -7.298,0 -10.9371,0 0.0398,3.1419 0.0199,6.2441 -0.0596,9.2866 -0.0597,3.0425 -0.3779,5.906 -0.9346,8.5906 -0.537,2.6845 -1.5114,5.0509 -2.9232,7.119 -1.392,2.0483 -3.4204,3.659 -6.0453,4.8322 -2.6447,1.1733 -6.085,1.7699 -10.3206,1.7897l-1.5511 0 0 -31.6181c-3.6987,0 -7.3378,0 -10.9371,0 -3.6191,0 -7.1986,0 -10.778,0l0 83.5196c3.5794,0 7.1589,0 10.778,0 3.5993,0 7.2384,0 10.9371,0z"/>
  </g>
  <g id="_227887848">
   <path id="_228424064" class="fil3 str2" d="M74.5232 148.74c-1.9829,5.5367 -2.0585,7.8293 -1.535,13.6087l0.0286 0.0474c0.1877,0.3116 0.5044,0.7118 0.84,0.9539 0.1528,-0.0784 0.3077,-0.1576 0.4652,-0.2379 -0.4247,-1.3267 -0.6922,-2.2888 -0.8926,-3.6685l0.0105 0.222c-0.125,-2.3476 -0.0446,-4.0989 0.2278,-6.4505 0.2428,-1.3657 0.46,-2.6194 0.7919,-3.9768l0.4655 -1.2623c-0.0223,-0.0099 -0.0448,-0.0198 -0.0674,-0.0298 -0.1164,0.2715 -0.2241,0.4857 -0.3345,0.7938z"/>
   <path id="_228423968" class="fil3 str2" d="M126.599 146.924c1.0812,2.6892 1.729,8.9792 1.7546,10.0236 0.07,2.8666 -0.8002,6.552 -1.7523,9.4229 0.524,-0.0042 1.4025,-0.0851 1.8014,-0.1108l0.0846 0.0892 0.0663 0.0699 0.0025 0.0026c0.0029,-0.0028 0.0101,-0.014 0.0205,-0.0316 0.0904,-0.1523 0.43,-0.7899 0.4338,-0.7954 0.2411,-0.338 0.2587,-1.4832 0.4354,-1.9065 0.1302,-0.3121 0.5158,-2.9163 0.6392,-3.496 0.1926,-0.9051 0.0447,-1.6398 0.0921,-2.4903 0.0612,-1.0969 0.0014,-2.834 -0.1104,-3.8966 -0.1173,-1.1155 -0.1973,-1.6322 -0.3969,-2.7213 -0.1267,-0.6912 -0.3677,-1.3034 -0.464,-1.828 -0.1542,-0.8405 -0.3199,-1.0175 -0.5449,-1.7195 -0.0155,-0.0484 -0.1083,-0.1943 -0.1085,-0.1953 -0.0443,-0.2956 -0.3893,-0.855 -0.6111,-1.2365 -0.0897,-0.1542 -0.1592,-0.2793 -0.1807,-0.3463 -0.0284,-0.0887 -0.0986,-0.017 -0.0236,-0.2525l-0.1353 -0.0455 -0.0882 -0.0297c-0.009,0.0311 -0.0176,0.0613 -0.0249,0.0906 -0.0318,0.129 -0.0374,0.2425 0.0686,0.3537 0.0589,0.1182 0.1165,0.2369 0.173,0.356 -0.3823,0.2301 -0.7495,0.4574 -1.1312,0.6933zm0.9548 -1.0563c-0.0063,-0.0093 -0.0104,-0.0183 -0.0165,-0.0337l0.0165 0.0337z"/>
   <path id="_228423872" class="fil3 str2" d="M109.466 185.216c-0.8786,-0.0363 -2.0453,-0.2302 -2.9529,-0.5436 0.1063,2.2682 0.6132,5.4612 0.3975,7.4278 -0.0695,0.0261 -0.1397,0.0517 -0.2109,0.0767 -0.0336,0.0118 -0.0674,0.0236 -0.1014,0.0351 -0.0645,0.0221 -0.1297,0.0437 -0.1958,0.0648 -0.0892,0.0287 -0.1798,0.0565 -0.2719,0.0836l0.0675 0.2269 0.0092 0.0312c0.1174,-0.0318 0.2212,-0.0622 0.3217,-0.0933 0.099,-0.0306 0.1949,-0.0618 0.2972,-0.0955 0.0137,-0.0045 0.0276,-0.009 0.0416,-0.0137 0.0345,-0.0113 0.0699,-0.023 0.1065,-0.0351 0.6491,-0.2136 3.1363,-1.6127 3.594,-2.0614 0.0307,-0.0302 0.2131,-0.2103 0.3944,-0.3846 0.0688,-0.0661 0.1373,-0.1313 0.1975,-0.1872 0.0985,-0.0918 0.1744,-0.1585 0.1908,-0.1627l-0.0572 -0.2015c-0.0067,-0.0181 -0.0133,-0.0363 -0.02,-0.0545 -0.0701,0.0573 -0.1397,0.114 -0.2089,0.1702 -0.0684,0.0557 -0.1365,0.1109 -0.2043,0.1656 -0.5021,-1.349 -1.0555,-3.1326 -1.3946,-4.4488z"/>
   <path id="_228423776" class="fil3 str2" d="M73.401 163.597c-0.2009,-0.175 -0.3847,-0.3818 -0.5388,-0.5902 -0.0017,0.0007 -0.0035,0.0014 -0.0053,0.002 -0.0242,0.0089 -0.0487,0.0153 -0.0731,0.0192 -2.0721,1.2812 -3.0964,1.7909 -5.1525,3.2901 -0.4433,0.3233 -0.8959,0.6387 -1.3758,0.905 -0.1441,0.099 -0.173,0.1231 -0.2137,0.1455l0.3063 0.2113 0.4587 0.3163c2.3933,-1.9977 4.2384,-3.0776 6.5942,-4.2992z"/>
   <path id="_228423680" class="fil3 str2" d="M92.8003 182.894c-5.0405,-1.8112 -9.0162,-4.6369 -12.7321,-8.3501 -0.2856,0.2594 -0.854,0.6588 -1.5692,1.1231 -0.1108,0.0719 -0.225,0.1454 -0.3423,0.22 0.2974,0.3708 0.3875,0.5263 0.8857,0.9861 0.5918,0.5463 1.0206,1.2776 1.7246,1.839l0.1023 0.0816c0.5678,0.4528 0.72,0.7431 1.4561,1.2456 1.082,0.7385 1.0037,0.8763 2.3438,1.5545 1.3111,0.6635 1.9823,1.0734 3.3985,1.55 0.4972,0.1674 1.7788,0.8421 2.453,1.0902l0.2615 0.0963c0.2668,0.0982 1.0658,0.3603 1.631,0.4883 0.0968,0.0219 0.2247,0.0479 0.3647,0.0761 0.1966,0.0395 0.4171,0.0832 0.6087,0.1258 0.1525,0.0338 0.2868,0.0669 0.3764,0.0964l0.1231 -0.373c-0.1732,-0.0415 -0.3409,-0.0803 -0.5048,-0.118 -0.2037,-0.0467 -0.4015,-0.0915 -0.5967,-0.1368 0.0083,-0.5376 0.0143,-1.0708 0.0157,-1.5951z"/>
   <path id="_228423584" class="fil3 str2" d="M119.041 178.069l0.0573 -0.0404 -0.1236 0.0996 0.0663 -0.0592zm-4.2875 2.7796c-1.9556,1.3288 -3.0714,1.7751 -5.4706,2.708l0.1781 -0.0555c-1.533,0.5668 -1.6652,0.6354 -2.1171,0.7688 0.8333,0.2269 1.8064,0.3549 2.4702,0.3503 0.0182,-0.0001 0.0361,-0.0004 0.0539,-0.0007l0.0122 0.1944 0.0026 0.0425c0.0098,-0.001 0.0197,-0.0021 0.03,-0.0033 0.832,-0.1001 3.1877,-1.0609 3.821,-1.4455l0.0607 -0.0368c0.7262,-0.4408 1.4202,-0.8649 2.2866,-1.2563 1.2123,-0.5475 2.761,-1.668 3.7463,-2.5692 0.0731,-0.0669 0.7883,-0.6054 1.237,-0.938 0.2046,-0.1516 0.3537,-0.2604 0.3615,-0.2623l-0.0493 -0.2044 -0.0076 -0.0314 -0.0211 0.0151 -0.5042 0.3573c-0.5113,-0.2911 -0.9938,-0.5666 -1.4148,-0.8076l-0.0857 0.1251 -0.3022 0.2699c-1.3707,0.964 -2.8511,1.9183 -4.2875,2.7796z"/>
   <path id="_228423488" class="fil3 str2" d="M127.42 167.042c2.0262,1.0475 4.452,2.4095 5.6709,3.2738 0.1783,-0.2943 0.2572,-0.3107 0.3237,-0.8799 -1.5678,-0.6984 -3.3588,-1.7169 -4.8828,-2.5254 -0.3644,0.082 -0.7375,0.1195 -1.1118,0.1315z"/>
   <path id="_228423392" class="fil3 str2" d="M98.2972 150.889c4.7471,-0.9495 9.5152,0.384 12.4613,4.2019 -1.1251,-4.6094 -5.2496,-8.06 -10.2144,-8.1304 -5.892,-0.0837 -10.7361,4.6249 -10.8198,10.5169 -0.0053,0.3712 0.0085,0.7382 0.0404,1.1002 1.0965,-3.589 5.0937,-7.0008 8.5325,-7.6886z"/>
   <path id="_228423272" class="fil4 str2" d="M100.544 146.961c5.892,0.0836 10.6005,4.9278 10.5169,10.8198 -0.0836,5.8919 -4.9278,10.6006 -10.8198,10.5169 -5.892,-0.0836 -10.6005,-4.9278 -10.5169,-10.8198 0.0837,-5.892 4.9278,-10.6006 10.8198,-10.5169zm-24.3582 1.5588c-0.0041,-0.0016 0.6681,-1.1475 0,0zm29.4013 34.5107c4.8678,-1.646 8.1962,-3.2109 12.2985,-6.2541l0.1236 -0.0996 0.1017 -0.1107 -0.0094 0.0587 0.1828 -0.2226 0.341 -0.4152c2.5039,1.4614 5.1255,2.9222 7.6707,4.3553 0.1547,0.0871 0.3091,0.1741 0.4631,0.2609 0.0532,0.0134 0.1028,0.0319 0.1481,0.0553 0.1314,-0.1207 0.2492,-0.2479 0.3541,-0.3423l0.0969 -0.0871c0.4541,-0.4086 0.427,-0.4847 0.7855,-0.9455 0.688,-0.8844 1.9208,-2.6819 2.3953,-3.6624 0.2281,-0.4711 0.548,-1.1034 0.7438,-1.565l0.018 -0.0424c0.167,-0.3935 0.3966,-0.8435 0.5796,-1.2178 0.1248,-0.2554 0.4808,-0.8637 0.7453,-1.4027 0.0947,-0.1929 0.1777,-0.377 0.2341,-0.5327 0.0245,-0.0675 0.0439,-0.1296 0.0572,-0.1849 -0.0197,0.0061 -0.0336,0.0127 -0.0572,0.0322 0.0233,-0.0243 0.0379,-0.0434 0.0598,-0.0708 0.0035,-0.006 0.0064,-0.0122 0.0093,-0.0183 0.005,-0.0291 0.0079,-0.0558 0.0082,-0.0797l-0.6185 -0.0087c-0.0019,0.0043 -0.0038,0.0086 -0.0057,0.0128 -0.0799,0.1785 -0.165,0.3672 -0.2551,0.5645 -2.4145,-1.237 -4.7714,-2.7159 -7.1887,-3.9654l0.0046 -0.0411 0.0665 -0.5974 0.071 -0.6385c0.2273,0.1006 0.4894,0.2223 0.7778,0.3607 0.2279,-0.616 0.4591,-1.2852 0.4455,-1.549 -0.0067,-0.1307 0.705,-2.7088 0.8089,-2.8968 0.0945,-0.1707 0.2928,-1.5807 0.2813,-1.8041l0.0561 -0.7398c0.0711,-0.894 0.1162,-1.3353 0.1297,-2.2874 0.0159,-1.1202 -0.4238,-3.5765 -0.3888,-4.472 0.0141,-0.3593 -0.5201,-2.8419 -0.6471,-3.0317 -0.0083,-0.0124 -0.4243,-1.3809 -0.4548,-1.4929 -0.0027,-0.0098 -0.1238,-0.2722 -0.2409,-0.5233 -0.101,-0.2168 -0.1991,-0.4251 -0.2152,-0.455 -0.0197,-0.0367 -0.0622,-0.1018 -0.1147,-0.1789 -0.1406,-0.2061 -0.3531,-0.4977 -0.3965,-0.5598 -0.0049,-0.0071 -0.0076,-0.0112 -0.0079,-0.0119l0.1203 -0.0558c1.3971,-0.8408 4.5003,-2.6979 6.0237,-3.5542 0.1038,0.2156 0.2073,0.4314 0.3106,0.6473 0.057,0.1192 -0.2599,-0.5422 -0.2028,-0.423l0.3675 0.7604 0.5488 -0.1301c-0.0096,-0.0386 -0.8951,-0.5973 -0.9163,-0.6303 -0.0626,-0.0972 0.734,0.2928 0.6629,0.1527 -0.094,-0.1853 -0.1946,-0.4026 -0.2996,-0.6368 -0.3994,-0.8916 -0.8614,-2.0291 -1.2602,-2.5889l-0.0483 -0.0678c-0.6633,-0.931 -0.8857,-1.7504 -1.5983,-2.7387l-0.0673 -0.0934c-1.0707,-1.485 -1.3577,-2.0454 -2.56,-3.3749 -0.2253,-0.249 -1.1518,-0.9641 -1.5577,-1.3232 -0.1168,-0.1032 -0.1904,-0.1771 -0.1919,-0.2018l-0.1151 0.0063 -0.4487 0.025c0.049,0.0543 0.0972,0.1075 0.1447,0.1596 0.0783,0.086 0.1548,0.1692 0.2295,0.2499 -1.8637,1.1562 -6.0163,3.6156 -6.4448,4.2086 0.0153,-0.0363 0.0231,-0.0649 0.0256,-0.0923l-0.2413 -0.0483 -0.196 0.241c-0.1504,-0.0952 0.0532,-0.2115 -0.0993,-0.3062l0.0756 -0.069c-0.0027,-0.0129 -0.0195,0.1426 -0.0208,0.1292 -0.0122,-0.1232 -0.3111,-0.1249 -0.2122,-0.2799 -1.0423,-0.6942 -4.1006,-2.4908 -4.8003,-2.6894 -1.0281,-0.2918 -3.464,-1.4021 -4.0648,-1.557l-0.1244 -0.032c-0.6331,-0.2972 -1.1087,-0.3287 -1.5488,-0.5086 -0.3547,-0.1452 -0.9816,-0.2806 -1.5981,-0.3801 -0.235,-0.0379 -0.4685,-0.0707 -0.6848,-0.0968 -0.2648,-0.0319 -0.5038,-0.0538 -0.6885,-0.0631l-0.0146 0.2758c-0.0812,-3.0927 -0.2188,-4.8718 -0.7169,-7.8697 -4.8295,0.1888 -6.5136,0.3487 -11.0866,1.1406 0.091,2.7628 0.117,4.7172 0.649,7.5205l0.2026 0.6252c-2.7231,1.2422 -5.1495,2.6891 -7.582,4.4113 -0.6616,0.5574 -2.519,1.3548 -2.7479,1.6847 0.0196,-0.038 0.1443,0.1079 0.1501,0.0799l-0.0348 0.4193 -0.3239 0.2652c-2.1078,-0.5281 -5.8654,-2.6755 -8.2159,-3.9287 -0.8796,1.1918 -1.9143,2.5013 -2.6341,3.7072l0.0438 -0.0664c-0.76,1.4112 -1.7198,2.9949 -2.5926,4.4449 1.7781,0.9778 5.3634,2.9952 7.0388,3.7695l0.4112 0.0459 0 0c-0.049,0.1494 -0.15,0.1097 -0.2275,0.2844 -0.0846,0.1905 -0.1802,0.3937 -0.2739,0.6049 -0.1612,0.3631 -0.3168,0.7497 -0.4011,1.1351 -0.1896,0.8675 -0.3154,1.1929 -0.4485,2.164 -0.0664,0.4839 -0.2214,1.1536 -0.3034,1.7506 -0.1557,1.1326 -0.2764,2.3035 -0.2468,3.4785 0.0225,0.8938 -0.1563,1.7683 0.0184,2.715 -0.0038,0.0407 0.1562,0.7936 0.1785,0.9114 0.0713,0.3773 0.3856,1.7884 0.5786,2.3579 0.184,-0.0934 0.3715,-0.1885 0.5632,-0.2858l0.2812 0.5056 0.2358 0.424 0.0454 0.0817c-3.8,1.9344 -3.3743,1.6236 -7.4196,4.3681 -1.3061,0.8862 -0.6328,0.5453 -1.2513,0.8291 1.3536,3.7283 2.2116,5.9028 4.4527,9.1193 2.1855,-1.1254 5.1801,-2.994 7.2339,-4.3911l0.4798 -0.1839 -0.0835 -0.088c0.1059,-0.0732 0.2085,-0.1448 0.3076,-0.2144l0.1671 0.6751c0.3963,0.3511 0.8519,0.7068 1.2553,1.1577 0.8188,0.9153 2.6482,2.6915 3.6567,3.3286l0.1354 0.0856c0.9202,0.5814 2.6573,1.5692 3.5823,2.1891l0.1589 0.1065c1.2014,0.8052 1.803,0.9469 3.1438,1.4497 0.2244,0.0842 0.5452,0.2314 0.871,0.3691 0.1838,0.0776 0.3691,0.1521 0.5397,0.2107 0.1483,0.0508 0.2855,0.0895 0.4007,0.1075l0.091 -0.549 0.0545 0.0008c0.0262,3.1116 0.1117,6.2441 -0.185,9.3407 -0.0203,0.2116 -0.0424,0.4231 -0.0663,0.6343 0.4903,0.1111 1.0499,0.249 1.6787,0.3017 0.8661,0.0726 1.1184,0.2386 2.1957,0.2335 1.4375,-0.0067 2.5118,0.1608 4.1074,0.0841 1.1062,-0.0532 2.55,-0.0819 3.5933,-0.2521 0.3559,-0.0581 0.2201,0.0078 0.6956,-0.1497l0.0173 -0.0057 0.0387 -0.0128c0.1412,-0.0141 0.3187,-0.0121 0.4543,-0.0982 0.0255,-0.0163 0.0495,-0.0356 0.0715,-0.0588l-0.0642 -0.0606 -0.3993 -0.3771c0.0394,-0.0341 0.0416,-0.0409 0.0886,-0.0601 -0.053,0.0113 -0.096,0.0147 -0.1377,0.0175 0.1069,-2.1199 -0.3081,-4.7447 -0.4091,-6.8481 -0.0009,0.0003 -0.0018,0.0005 -0.0028,0.0008l0.0007 -0.046c-0.0285,-0.6194 -0.0291,-1.1926 0.0199,-1.6931l0.0041 0.0005 0.0001 -0.0051z"/>
   <g>
    <path id="_228423200" class="fil3" d="M91.7235 123.766c0.1147,3.1891 0.0981,5.2448 0.7138,8.3835l-1.3258 0.4378c-0.6754,-3.3579 -0.6672,-5.4293 -0.784,-8.8412l1.396 0.0199z"/>
   </g>
   <path id="_228422936" class="fil5" d="M91.0255 123.756c-0.0036,0.2547 0.2256,5.4984 0.2384,5.5657 0.1926,1.019 0.2162,2.1557 0.5105,3.0467"/>
   <g>
    <path id="_228422864" class="fil3" d="M104.083 122.333c0.6176,3.5418 0.7816,5.424 0.8592,8.9058l-1.3929 -0.1012c-0.0856,-3.2603 -0.2338,-5.0608 -0.8012,-8.3684l1.3349 -0.4362z"/>
   </g>
   <path id="_228422600" class="fil5" d="M103.415 122.551c0.3026,1.051 0.7409,4.4985 0.7352,5.6965 -0.0032,0.6842 0.1326,2.3585 0.095,2.9406"/>
   <g>
    <path id="_228422528" class="fil3" d="M90.3462 123.748c2.064,-0.3675 1.052,-0.1806 3.0367,-0.5594l-0.1342 0.0433c3.3301,-0.5943 7.4611,-0.7677 10.8314,-0.8912l0.0621 0.8773c-6.2102,0.2277 -7.598,0.3434 -13.2866,1.3456l-0.5094 -0.8156z"/>
   </g>
   <path id="_228422264" class="fil5" d="M90.6009 124.156c1.0152,-0.236 1.9161,-0.2758 3.0586,-0.5647 0.3286,-0.1315 3.283,-0.2595 4.0559,-0.4925 0.4753,-0.1433 5.322,-0.2671 6.3958,-0.3192"/>
   <g>
    <path id="_228422192" class="fil3" d="M104.077 122.326c0.8973,0.1193 1.1424,0.1465 2.0194,0.4061l-0.0158 1.1099c-0.9836,-0.1597 -1.3292,-0.2974 -2.3619,-0.4351l0.3583 -1.0809z"/>
   </g>
   <path id="_228421928" class="fil5" d="M103.898 122.866c0.5949,0.093 0.7978,0.0592 1.3562,0.232 0.1522,0.0471 0.6894,0.1866 0.8345,0.1886"/>
   <g>
    <path id="_228421856" class="fil3" d="M106.073 122.735c0.6088,2.6844 0.6206,3.3305 0.756,6.1782 0.0371,0.7824 0.1138,1.5825 0.1028,2.3593l-0.4703 -0.0067c0.0176,-1.2363 -0.1241,-3.0789 -0.2103,-4.35 -0.1738,-2.5626 -0.2603,-2.1664 -0.6482,-4.2008l0.47 0.02z"/>
   </g>
   <path id="_228421592" class="fil5" d="M105.838 122.725c-0.0146,0.364 0.4996,1.1849 0.4632,1.8899 -0.0177,0.3424 0.2221,1.5946 0.1848,2.3139 -0.0187,0.3609 0.1461,1.282 0.1082,1.9705 -0.0221,0.4001 0.1162,1.3997 0.1065,2.0845 -0.0014,0.0952 -0.0027,0.1903 -0.0041,0.2854"/>
   <g>
    <path id="_228421520" class="fil3" d="M103.585 130.443c2.0563,0.2482 2.8339,0.434 4.7013,1.0937l-0.0747 -0.027c3.062,0.7895 7.2125,3.0722 9.8289,4.7932l-0.5397 0.649c-4.098,-2.5959 -9.0188,-5.0688 -13.9587,-5.6687l0.0429 -0.8402z"/>
   </g>
   <path id="_228421256" class="fil5" d="M103.564 130.863c0.7344,0.037 2.3267,0.2732 2.9853,0.5426 0.4421,0.1809 0.9199,0.2126 1.556,0.5112l0.125 0.0322c0.6036,0.1557 3.0509,1.2715 4.0838,1.5647 0.7552,0.2144 4.2448,2.2822 5.0207,2.8388 0.1132,0.0812 0.3256,0.1843 0.4362,0.2748"/>
   <g>
    <path id="_228421184" class="fil3" d="M117.176 136.504c-0.2622,-1.2243 6.2281,-4.4515 6.973,-4.8153l0.7914 0.2279c-0.9555,0.6628 -6.4978,3.8746 -6.9896,4.5551 0.0369,-0.0872 0.0288,-0.1288 0.009,-0.2204l-0.7838 0.2527z"/>
   </g>
   <path id="_228420920" class="fil5" d="M117.568 136.377c-0.096,-0.2923 1.7501,-1.4353 2.1369,-1.6976 0.6548,-0.4441 1.3664,-0.9346 2.1259,-1.2632 0.2288,-0.0989 2.7138,-1.6134 2.714,-1.6141"/>
   <g>
    <path id="_228420848" class="fil3" d="M124.501 146.568c0.6136,-0.3736 7.2305,-4.3577 7.5537,-4.4033l-0.1401 0.083 0.8809 1.0972c-0.2196,0.1254 -0.1738,0.1168 -0.3376,0.1672 -1.2047,0.7229 -2.4207,1.3743 -3.6416,2.0628l0.2092 -0.0949c-1.3729,0.7638 -2.3078,1.3866 -3.6628,2.2003l-0.8617 -1.1123z"/>
   </g>
   <path id="_228420584" class="fil5" d="M124.932 147.124c0.3907,-0.3027 2.2228,-1.258 2.3788,-1.5001 0.0185,-0.0286 1.1324,-0.6008 1.3237,-0.7289 0.1243,-0.0332 0.9013,-0.6147 1.2806,-0.7095 0.0103,-0.0026 2.0083,-1.1731 2.1628,-1.2659l0.0612 -0.0368c0.0658,-0.0395 0.1707,-0.0501 0.2162,-0.0867"/>
   <g>
    <path id="_228420512" class="fil3" d="M125.745 145.731c1.5868,0.5487 2.5767,9.9206 2.6084,11.2166 0.082,3.3551 -1.1242,7.8324 -2.2422,10.8121l-1.6374 -0.6921c0.5159,-1.3857 1.7069,-5.0817 1.8556,-6.3192 0.5733,-4.7694 0.2642,-10.3061 -2.2123,-14.2781l1.6279 -0.7393z"/>
   </g>
   <path id="_228420248" class="fil5" d="M124.932 146.101c0.0029,0.009 0.4554,0.611 0.5365,0.7583 0.036,0.0652 0.4663,0.9699 0.4715,0.9883 0.0316,0.1132 0.4618,1.4957 0.4703,1.5081 0.1313,0.1917 0.684,2.6996 0.6696,3.0626 -0.0359,0.9044 0.4192,3.3857 0.4031,4.5172 -0.0136,0.9618 -0.06,1.4074 -0.1332,2.3104 -0.0051,0.0621 -0.0577,0.7473 -0.0577,0.7474 0.0119,0.2256 -0.1925,1.6498 -0.2901,1.8222 -0.1073,0.1898 -0.8417,2.7937 -0.8347,2.9257 0.0247,0.4645 -0.7191,2.1735 -0.874,2.6728"/>
   <g>
    <path id="_228420176" class="fil3" d="M80.9766 138.9c0.2832,-1.9357 7.382,-5.8386 8.6508,-6.591l-0.1818 0.135c1.7406,-0.9738 0.8391,-0.5265 2.6784,-1.3508l0.4731 1.4603c-2.7231,1.2422 -5.1495,2.6891 -7.582,4.4113 -0.6616,0.5574 -2.3265,1.8556 -2.5554,2.1854 0.0434,-0.0843 0.0371,-0.1156 0.0516,-0.2197l-1.5347 -0.0305z"/>
   </g>
   <path id="_228419912" class="fil5" d="M81.744 138.916c0.01,-0.5029 2.3874,-2.0315 2.8525,-2.5896 0.4369,-0.247 0.9926,-0.9123 1.5608,-1.1016 0.3424,-0.1142 3.1342,-1.8653 3.8319,-2.2383 0.157,-0.1575 2.099,-1.0742 2.3713,-1.1625"/>
   <g>
    <path id="_228419840" class="fil3" d="M67.0651 144.084c0.7455,-1.6095 2.3784,-4.3861 3.2703,-5.8215l-0.0841 0.1407c1.0072,-1.5052 1.9368,-2.7593 2.9698,-4.1908l0.9236 0.8596c-0.9348,1.2971 -2.132,2.7737 -2.936,4.1208l0.0437 -0.0664c-0.8831,1.6398 -2.0359,3.5125 -3.0087,5.1377l-1.1786 -0.1801z"/>
   </g>
   <path id="_228419600" class="fil5" d="M67.6544 144.174c0.0359,-0.2547 0.7766,-1.3953 0.9339,-1.7094 0.0381,-0.0761 0.4641,-0.7136 0.5676,-0.9275 0.1933,-0.3999 1.2831,-2.2338 1.5758,-2.7373 0.0074,-0.0126 0.0272,-0.0548 0.0403,-0.0722 0.0969,-0.2096 1.7232,-2.5049 1.973,-2.8299 0.3154,-0.4105 0.643,-0.8133 0.9379,-1.2555"/>
   <g>
    <path id="_228101192" class="fil3" d="M73.2981 134.294c3.1628,1.5218 5.5083,2.8323 8.8302,4.2816l0.578 0.3082 -0.6476 0.5303c-2.3346,-0.5848 -6.693,-3.1561 -8.9218,-4.2988l0.1612 -0.8213z"/>
   </g>
   <path id="_228100928" class="fil5" d="M73.2175 134.705c0.2872,0.0563 1.7281,0.8987 2.0048,1.1194 0.3123,0.249 1.9825,0.9673 2.5273,1.2225l0.0809 0.038c0.85,0.3981 1.6564,0.8731 2.5349,1.2205 0.2398,0.0948 0.9628,0.4693 1.1882,0.5091 0.0666,0.0118 0.7841,0.2801 0.8289,0.3348"/>
   <g>
    <path id="_228100856" class="fil3" d="M67.8551 143.074l0.0474 0.0431c0.7531,0.6834 7.1754,3.4554 8.7411,4.2047l-0.2641 1.2761c-1.689,-0.6759 -8.5896,-3.8265 -9.3941,-4.5566l0.8697 -0.9673z"/>
   </g>
   <path id="_228100592" class="fil5" d="M67.4202 143.558l0.0948 0.086c0.5438,0.4936 4.2735,2.1831 4.9978,2.5227l0.0662 0.031c1.0045,0.471 2.0722,0.8023 3.1373,1.4197 0.0272,0.0157 0.7942,0.3426 0.7952,0.3429"/>
   <g>
    <path id="_228100520" class="fil3" d="M77.012 147.363c-1.0699,3.1477 -1.6099,4.2198 -1.8701,7.751 -0.1286,1.7457 -0.2214,3.4716 0.1398,5.1675l0 0.0001c0.2364,1.012 0.6483,2.1911 0.7865,3.1509l-1.6842 -0.0239c-0.0408,-0.0586 -0.0161,-0.0014 -0.0678,-0.2638l0.0952 0.2458c-0.4772,-1.4748 -0.7679,-2.4722 -0.982,-3.9463l0.0104 0.222c-0.1249,-2.3476 -0.0445,-4.0989 0.2279,-6.4504l0 -0.0001c0.2427,-1.3657 0.46,-2.6194 0.7919,-3.9768l0.4999 -1.3556 0.4262 -0.9507 0.025 -0.0736 1.6013 0.5039z"/>
   </g>
   <path id="_228100256" class="fil5" d="M76.2114 147.111l-0.0251 0.0737c-0.2016,0.5924 -0.7188,1.4124 -0.9039,2.2276 -0.1969,0.8673 -0.3275,1.1927 -0.4656,2.1637 -0.0688,0.4839 -0.2297,1.1536 -0.3147,1.7504 -0.1614,1.1326 -0.2863,2.3035 -0.2548,3.4784 0.0239,0.8938 -0.1618,1.7683 0.0207,2.7151 -0.004,0.0408 0.163,0.7936 0.1862,0.9115 0.0863,0.4373 0.5133,2.2637 0.6885,2.5586 0.0144,0.0705 0.0835,0.4238 0.0834,0.4305"/>
   <g>
    <path id="_228100184" class="fil3" d="M125.132 165.951c1.8996,0.8413 6.2655,3.1716 7.9991,4.4126l-0.0179 1.2656c-2.7454,-1.3048 -5.3943,-3.0108 -8.1212,-4.4202l0.14 -1.258z"/>
   </g>
   <path id="_228099920" class="fil5" d="M125.062 166.58c0.4522,0.0502 5.3974,2.9861 6.2889,3.4144 0.2877,0.1382 1.6625,1.0005 1.7713,1.002"/>
   <g>
    <path id="_228099848" class="fil3" d="M133.556 170.547c-1.1067,2.986 -4.3842,9.6706 -7.0393,11.1073l-0.2918 -1.2023 -0.1492 0.0563c2.3306,-1.6523 4.9662,-7.1229 6.2433,-9.9788l1.237 0.0175z"/>
   </g>
   <path id="_228099584" class="fil5" d="M132.937 170.539c-0.0062,0.438 -0.8497,1.8333 -1.0567,2.2569 -0.1829,0.3743 -0.4126,0.8243 -0.5796,1.2179l-0.018 0.0424c-0.1958,0.4615 -0.5157,1.0938 -0.7438,1.5649 -0.4746,0.9806 -1.7073,2.778 -2.3953,3.6624 -0.3585,0.4608 -0.3313,0.5369 -0.7855,0.9456l-0.0969 0.087c-0.1896,0.1706 -0.4217,0.4487 -0.6989,0.6011 -0.0507,0.0279 -0.1558,0.128 -0.192,0.1367"/>
   <g>
    <path id="_228099512" class="fil3" d="M126.403 166.368c0.5366,0.0264 1.8922,-0.1125 2.1612,-0.1155l-0.0712 0.0055 0.2302 0.614c-0.0745,0.0243 -0.1093,0.0385 -0.1782,0.0352 -0.7022,0.1603 -1.4367,0.154 -2.1514,0.1185l0.0094 -0.6577zm2.1612 -0.1155c0.0166,-0.0002 0.0293,0.0002 0.0372,0.0011l-0.0202 -0.0024 -0.017 0.0013z"/>
   </g>
   <path id="_228099248" class="fil5" d="M126.399 166.697c0.3487,0.005 1.0948,0.0917 1.3996,-0.0061 0.1432,-0.046 0.4294,-0.016 0.7127,-0.1118 0.0588,-0.008 0.0227,0.0131 0.0971,-0.0148"/>
   <g>
    <path id="_228099176" class="fil3" d="M128.489 166.345c1.8317,0.9537 3.6055,1.8847 5.4555,2.8097l-0.0717 0.4785c-1.741,-0.7218 -3.8389,-1.9334 -5.5556,-2.836l0.1718 -0.4522z"/>
   </g>
   <path id="_228098912" class="fil5" d="M128.403 166.571c0.2882,0.1095 1.135,0.6319 1.5048,0.7963 0.4635,0.2062 1.1838,0.6046 1.6305,0.8678 0.587,0.346 1.2934,0.6115 1.9253,0.9342 0.1027,0.0525 0.3411,0.209 0.4449,0.2246"/>
   <g>
    <path id="_228098840" class="fil3" d="M133.944 169.21c-0.0755,0.8283 -0.125,0.9584 -0.5647,1.6382 -0.0744,0.1539 -0.1753,0.2571 -0.3353,0.3106l-0.0706 -0.5007c-0.0612,0.0201 -0.0731,0.0158 -0.1135,0.0491 0.0233,-0.0243 0.0379,-0.0434 0.0598,-0.0708l-0.0067 0.0157c0.3397,-0.7293 0.4344,-0.4445 0.5255,-1.4493l0.5055 0.0072z"/>
   </g>
   <path id="_228098576" class="fil5" d="M133.691 169.207c-0.0082,0.5803 -0.1851,1.0517 -0.535,1.5223l-0.0137 0.0295c-0.0085,0.018 -0.1101,0.1468 -0.1338,0.1503"/>
   <g>
    <path id="_228098504" class="fil3" d="M118.625 175.987c2.6561,1.5502 5.4446,3.0998 8.1338,4.6163 0.0532,0.0133 0.1029,0.0318 0.1482,0.0552 -0.0114,-0.0055 -0.0231,-0.0108 -0.0353,-0.016l-0.359 0.9957c-0.0445,-0.0195 -0.1166,-0.0551 -0.2128,-0.1049 0.0579,0.0505 0.1287,0.0888 0.2106,0.1111l-0.0033 0.0091c-0.098,-0.0398 -0.1711,-0.082 -0.2255,-0.1297 -1.4193,-0.737 -7.7209,-4.337 -8.3387,-4.7063l0.682 -0.8305zm8.282 4.6715c0.0935,0.0483 0.1683,0.1177 0.2174,0.2051 -0.0387,-0.0813 -0.1051,-0.1506 -0.2174,-0.2051zm0.2174 0.2051c0.0599,0.1069 0.0811,0.2408 0.0504,0.3969 0.0038,-0.1498 0.003,-0.2847 -0.0504,-0.3969zm-0.6117 0.7746l-0.0022 0.0062c0.0165,0.0044 0.0334,0.0083 0.0508,0.0114 -0.0071,-0.0006 -0.0241,-0.0069 -0.0486,-0.0176zm-0.3528 -0.3048c-0.027,-0.091 -0.0304,-0.2002 -0.0269,-0.3366 -0.0233,0.1198 -0.0127,0.2358 0.0269,0.3366z"/>
   </g>
   <path id="_228098240" class="fil5" d="M118.284 176.402c0.3031,0.2489 1.5914,0.8932 2.0548,1.1497 0.2745,0.1518 2.5644,1.4629 2.5882,1.4716 0.4415,0.1598 1.5826,1.0159 1.974,1.1577 0.3874,0.1403 1.3355,0.8133 1.6959,0.9374 0.109,0.0144 0.0127,0.0005 0.0925,0.0294"/>
   <g>
    <path id="_228098168" class="fil3" d="M105.587 183.03c4.8678,-1.646 8.1961,-3.2109 12.2985,-6.2541l0.1236 -0.0996 0.1017 -0.1107 -0.0303 0.1899 1.6937 0.4152 -0.4311 0.6287 -0.3021 0.2699c-1.3706,0.964 -2.8512,1.9183 -4.2875,2.7796 -1.9556,1.3287 -3.0714,1.7751 -5.4706,2.708l0.1781 -0.0555c-2.5367,0.9379 -1.2378,0.5116 -3.8988,1.2723l0.0248 -1.7437zm13.454 -4.9607l-0.0663 0.0592 0.1236 -0.0996 -0.0573 0.0404z"/>
   </g>
   <path id="_228097904" class="fil5" d="M105.575 183.902c0.2955,0.0042 3.1079,-1.0133 3.5394,-1.2004 0.336,-0.0664 2.9136,-1.184 3.2153,-1.3999 0.3767,-0.2695 0.7997,-0.2722 1.2536,-0.7134 0.0368,-0.0357 0.5704,-0.3705 0.6632,-0.4452 0.2928,-0.1326 2.3948,-1.4555 2.5332,-1.6049 0.1364,-0.1474 1.2484,-0.6864 1.7126,-1.1357 0.055,-0.0365 0.4267,-0.4035 0.4355,-0.4393"/>
   <g>
    <path id="_228097832" class="fil3" d="M106.531 183.166c-0.2258,2.2189 0.7796,7.0486 0.321,9.3874 0.0024,-0.03 0.0026,-0.0589 0.0004,-0.0868l-0.9243 0.1713c0.029,0.1039 0.0679,0.1613 0.1503,0.231 -0.1455,-0.1194 -0.1975,-0.2678 -0.1743,-0.4454 0.369,-2.8242 -0.5585,-6.961 -0.3209,-9.3886l0.9478 0.1311zm0.1848 9.0194c-0.0099,-0.0095 -0.0202,-0.0187 -0.0312,-0.0277 0.0112,0.0094 0.0216,0.0187 0.0312,0.0277z"/>
   </g>
   <path id="_228097568" class="fil5" d="M106.057 183.1c-0.1408,0.9471 0.0425,0.7276 0.083,1.3838 0.0312,0.5064 0.0458,1.3804 0.0974,1.8306 0.0992,0.8643 -0.0043,1.9887 0.146,2.8933 0.0713,0.4293 0.0958,2.7482 -0.0015,3.2579 -0.0142,0.0745 0.0029,0.0195 0.016,0.0847"/>
   <g>
    <path id="_228097496" class="fil3" d="M92.7831 191.271c3.1929,0.5773 10.1236,1.3302 12.9483,0.3926 0.1688,-0.056 0.2383,-0.0298 0.3805,-0.06 -0.0469,0.0192 -0.0491,0.026 -0.0884,0.06l0.9268 0.8756c-0.3184,0.2753 -0.4741,0.3137 -0.8643,0.3475 -3.0996,0.9799 -10.034,0.2847 -13.3827,-0.345l0.0798 -1.2707z"/>
   </g>
   <path id="_228097232" class="fil5" d="M92.7432 191.906c0.6638,0.0415 1.5204,0.3668 2.5699,0.4548 0.8661,0.0726 1.1184,0.2386 2.1956,0.2335 1.4376,-0.0068 2.5119,0.1609 4.1075,0.0841 1.1062,-0.0532 2.55,-0.0819 3.5933,-0.2521 0.3559,-0.058 0.2201,0.0078 0.6955,-0.1496l0.056 -0.0186c0.1679,-0.0168 0.387,-0.0108 0.5259,-0.157"/>
   <g>
    <path id="_228097160" class="fil3" d="M109.902 184.815c0.4225,1.4931 1.015,3.4679 1.6084,4.9827l-0.4695 0.1969c-0.5951,-1.5194 -1.2968,-3.7685 -1.6449,-5.2037l0.506 0.0241z"/>
   </g>
   <path id="_228096896" class="fil5" d="M109.649 184.803c-0.0122,0.2679 1.037,3.134 1.1744,3.753l0.0128 0.0577c0.0443,0.1994 0.1209,0.4227 0.1799,0.5942l0.0148 0.043c0.0747,0.2173 0.1596,0.4282 0.2448,0.6452"/>
   <g>
    <path id="_228096824" class="fil3" d="M106.131 192.36c2.18,-0.6333 3.5498,-1.6971 5.2052,-3.0335l0.1488 0.518c-1.2665,1.3353 -3.3878,2.5058 -5.1987,3.0318l-0.1553 -0.5163z"/>
   </g>
   <path id="_228096560" class="fil5" d="M106.209 192.618c0.29,-0.0775 0.4982,-0.1473 0.7757,-0.2375 0.6566,-0.2134 3.1719,-1.6121 3.6348,-2.0608 0.0622,-0.0603 0.738,-0.7206 0.7915,-0.7343"/>
   <g>
    <path id="_228096488" class="fil3" d="M109.814 184.619c4.5981,-1.3818 6.78,-3.0144 10.6978,-5.9015l0.8572 -0.6077 0.1138 0.4715c-4.0892,3.1516 -6.746,5.0822 -11.6464,6.5222l-0.0224 -0.4845z"/>
   </g>
   <path id="_228096224" class="fil5" d="M109.825 184.861c0.7392,-0.0342 3.2514,-1.0538 3.9086,-1.453l0.0607 -0.0368c0.7262,-0.4408 1.4201,-0.865 2.2866,-1.2563 1.2123,-0.5475 2.7609,-1.668 3.7463,-2.5693 0.1064,-0.0972 1.5736,-1.1942 1.5985,-1.2002"/>
   <g>
    <path id="_228096152" class="fil3" d="M93.8857 182.084c0.0292,3.4599 0.1316,6.9458 -0.2997,10.3795l-0.8262 -0.7956c-0.1299,-2.9518 0.0643,-6.4814 0.0384,-9.5994l1.0875 0.0155z"/>
   </g>
   <path id="_228095888" class="fil5" d="M93.3419 182.077c-0.0135,0.9506 0.0301,1.8227 0.0433,2.7895 0.0155,1.149 -0.0727,3.121 -0.0899,4.331 -0.0044,0.3101 -0.0482,2.7707 -0.1224,2.8689"/>
   <g>
    <path id="_228095816" class="fil3" d="M76.1926 163.47c-3.831,1.9502 -3.4019,1.6369 -7.4801,4.4038 -1.5262,1.0354 -0.3716,0.4091 -1.6712,1.0275l-1.0968 -0.268c3.5781,-3.1417 5.8293,-4.2263 9.681,-6.1829l0.5671 1.0196z"/>
   </g>
   <path id="_228095552" class="fil5" d="M75.909 162.96c-0.8785,0.5375 -1.5638,0.5361 -2.583,1.1971 -0.5372,0.3484 -0.8165,0.3625 -1.4579,0.8838 -0.7003,0.569 -2.6515,1.9031 -3.4093,2.3059 -0.0111,0.0058 -1.9654,1.4182 -1.9659,1.4203"/>
   <g>
    <path id="_228095480" class="fil3" d="M72.9723 162.91c-2.1377,1.3228 -3.1853,1.842 -5.2974,3.3821 -0.4535,0.3306 -0.9164,0.6533 -1.4073,0.9256 -0.2819,0.1938 -0.1325,0.1069 -0.462,0.2648l-0.0749 -0.4753c0.5259,-0.3823 1.1222,-0.7089 1.6973,-1.128 2.1046,-1.5339 3.1082,-2.0333 5.2416,-3.3431l0.3027 0.3739z"/>
   </g>
   <path id="_228095216" class="fil5" d="M72.821 162.723c-0.3703,0.2998 -1.2771,0.7285 -1.7599,1.047 -0.4953,0.3268 -1.2924,0.6752 -1.7204,0.9495 -0.5494,0.3519 -1.1552,0.9869 -1.7892,1.3661 -0.2902,0.1736 -0.8036,0.6138 -1.0696,0.7263 -0.0239,0.0101 -0.335,0.2285 -0.382,0.2369 -0.0223,0.0247 -0.306,0.192 -0.3317,0.1961"/>
   <g>
    <path id="_228095144" class="fil3" d="M66.9521 167.997l0.267 0.1078c1.5165,4.1909 2.3459,6.429 4.8186,9.9343l-0.0098 -0.0156c0.1976,0.2316 0.2301,0.2894 0.3183,0.6077 -0.29,-0.3802 -0.2989,-0.5972 -0.5993,-0.6215l-0.0399 1.5939 0.0367 -0.001c-0.3538,0.0183 -0.5717,-0.1293 -0.7118,-0.4272 -2.2664,-2.6445 -4.9579,-8.4997 -5.2878,-12.0114l1.208 0.833zm4.0753 11.1688c-0.0282,-0.0612 -0.0531,-0.1286 -0.0754,-0.2021 0.024,0.087 0.0326,0.1363 0.0754,0.2021z"/>
   </g>
   <path id="_228094880" class="fil5" d="M66.3481 167.58c-0.118,0.2141 1.6075,4.5692 1.8085,4.9616 0.1362,0.2661 1.2819,2.7873 1.3693,3.0293 0.0929,0.2576 0.5456,1.0263 0.7415,1.2572 0.0148,0.0174 1.1668,1.6418 1.1898,1.6779 0.0633,0.0997 0.1707,0.1733 0.1919,0.2909 0.0361,0.0151 0.0362,0.0062 0.0779,0.0071"/>
   <g>
    <path id="_228094808" class="fil3" d="M79.9065 172.745c4.0685,4.2891 8.2535,7.3753 13.9253,9.3343l-0.1832 1.1058c-5.9193,-1.9479 -10.3792,-5.2395 -14.5942,-9.6831l0.8521 -0.757z"/>
   </g>
   <path id="_228094544" class="fil5" d="M79.4804 173.124l0.1248 0.1315c0.4605,0.4853 1.1012,0.9209 1.6464,1.5304 0.8188,0.9153 2.6483,2.6914 3.6568,3.3286l0.1354 0.0856c0.9202,0.5814 2.6574,1.5692 3.5823,2.1891l0.1589 0.1065c1.2014,0.8052 1.803,0.9468 3.1438,1.4497 0.4611,0.173 1.3288,0.612 1.8114,0.6873"/>
   <g>
    <path id="_228094472" class="fil3" d="M78.0836 175.188c3.9753,4.6266 6.7431,6.5302 12.7036,8.725 1.0998,0.405 1.9871,0.5641 3.0989,0.8304l-0.2462 0.746c-1.1263,-0.2653 -2.0069,-0.4277 -3.1242,-0.8391 -6.0789,-2.2385 -8.968,-4.2252 -13.028,-8.9502l0.5959 -0.5121z"/>
   </g>
   <path id="_228094208" class="fil5" d="M77.7856 175.444l0.1048 0.1219c0.5441,0.6332 0.5312,0.7336 1.152,1.3066 0.5918,0.5463 1.0206,1.2776 1.7246,1.839l0.1023 0.0816c0.5678,0.4528 0.72,0.7431 1.4561,1.2456 1.082,0.7385 1.0037,0.8763 2.3438,1.5545 1.3111,0.6635 1.9823,1.0734 3.3985,1.55 0.4972,0.1674 1.7788,0.8421 2.453,1.0902l0.2615 0.0963c0.2668,0.0982 1.0658,0.3603 1.631,0.4883 0.3407,0.0771 1.0673,0.2051 1.3498,0.2983"/>
   <g>
    <path id="_228094136" class="fil3" d="M71.0442 178.247c2.4303,-1.1316 6.521,-3.7033 8.7852,-5.2945l0.363 1.4665c-0.7721,0.8836 -7.0998,4.5408 -8.5105,5.1976l-0.6377 -1.3696z"/>
   </g>
   <path id="_228093872" class="fil5" d="M71.3631 178.932l0.3806 -0.1773c0.8728,-0.4062 1.7588,-1.2157 2.961,-1.7357 1.3828,-0.5981 2.6451,-1.5589 4.0065,-2.3212 0.2299,-0.1288 1.2948,-1.0106 1.2997,-1.0119"/>
   <g>
    <path id="_228093800" class="fil3" d="M72.9816 162.338l0.0352 0.0584c0.235,0.3902 0.6723,0.9192 1.0957,1.1028l-0.1658 0.4609c-0.5435,-0.2385 -1.05,-0.8139 -1.3495,-1.3108l-0.0352 -0.0584 0.4196 -0.2529z"/>
   </g>
   <path id="_228093536" class="fil5" d="M72.7718 162.464l0.0704 0.1169c0.365,0.6058 0.3143,0.4552 0.8187,0.8965 0.1352,0.1182 0.1883,0.1869 0.3687,0.2519"/>
   <g>
    <path id="_228093464" class="fil3" d="M124.94 131.933c2.6919,1.3844 6.7826,8.4324 7.8216,11.4044l-1.0975 0.2602 0.0063 0.0202c-1.0334,-2.1605 -2.0643,-4.3255 -3.3787,-6.3419 -1.7612,-2.7019 -2.5656,-3.1574 -4.4792,-5.2802l1.1275 -0.0627zm6.7304 11.6848c0.0038,0.0123 0.0027,0.0087 0.0122,0.0253l-0.0122 -0.0253z"/>
   </g>
   <path id="_228093224" class="fil5" d="M124.376 131.964c0.0065,0.1108 1.4595,1.2043 1.7496,1.525 1.2022,1.3295 1.4893,1.8899 2.56,3.3749l0.0673 0.0934c0.7126,0.9883 0.935,1.8077 1.5983,2.7388l0.0483 0.0678c0.5827,0.8179 1.3004,2.8696 1.7607,3.5848 0.0213,0.033 0.0429,0.0798 0.0524,0.1184"/>
   <g>
    <path id="_228093104" class="fil3" d="M89.5902 159.271c0.7551,-3.8326 5.0472,-7.6497 8.707,-8.3818 4.8143,-0.963 9.6501,0.4222 12.5853,4.3655 0.1266,0.17 0.1145,0.173 0.2083,0.4453 -2.1332,-1.4941 -2.9713,-2.6382 -5.6914,-3.5844 -2.3162,-0.8057 -6.0033,-0.6556 -8.0927,0.0926 -4.2649,1.5274 -5.5983,3.9034 -7.7165,7.0628z"/>
   </g>
   <path id="_227888832" class="fil5" d="M89.5902 159.271c0.4299,-0.9363 0.3412,-1.1339 1.0359,-2.2074l0.21 -0.3245c1.3626,-2.1057 3.9559,-3.9008 6.2349,-4.983 1.0078,-0.4786 5.6345,-0.929 6.9647,-0.4961l0.2135 0.0695c0.7951,0.2588 1.8166,0.5161 2.4991,0.9562 0.5182,0.3343 0.9038,0.4278 1.5587,0.9335 0.9242,0.714 1.7421,1.1894 2.4878,2.1008 0.1326,0.1621 0.1779,0.2235 0.296,0.38"/>
   <g>
    <path id="_227888760" class="fil3" d="M105.963 183.747c0.9458,0.528 2.8333,0.8484 3.9021,0.8286l0.0406 0.6463c-1.1576,0.0225 -3.1505,-0.3153 -4.1761,-0.8878l0.2334 -0.5871z"/>
   </g>
   <path id="_227888520" class="fil5" d="M105.847 184.04l0.1152 0.0644c1.3246,0.7395 1.9184,0.4026 2.7387,0.7279 0.2339,0.0928 0.9095,0.0921 1.1852,0.066"/>
   <path id="_227888400" class="fil3 str2" d="M104.927 130.627c0.5637,0.0905 1.0382,0.1904 1.5358,0.3253 -0.0064,-1.2192 -0.1323,-2.8689 -0.2115,-4.0365 -0.1338,-1.9729 -0.2159,-2.1921 -0.4236,-3.1169 -0.619,-0.1098 -0.9811,-0.2097 -1.5496,-0.3073 0.4276,2.6434 0.5752,4.4117 0.6489,7.1354z"/>
   <g>
    <path id="_227888328" class="fil3" d="M72.005 162.993c-0.4995,-5.1343 -0.1282,-9.9546 2.283,-14.499 0.2459,-0.4634 0.4444,-0.6638 0.7597,-1.0368 -0.1953,0.5643 -0.3568,0.8157 -0.5244,1.2837 -2.0166,5.6303 -2.0606,7.906 -1.508,13.905l-1.0103 0.3471z"/>
   </g>
   <path id="_227888088" class="fil5" d="M72.5101 162.819c-0.0833,-0.3262 0.0579,-0.9633 -0.1026,-1.5808 -0.3569,-1.3738 -0.3212,-4.8769 0.0553,-6.2279 0.1815,-0.6511 0.3961,-1.5747 0.5792,-2.2852l0.0374 -0.1452c0.3404,-1.3208 0.7516,-2.7076 1.3051,-3.9229l0.0754 -0.1655c0.058,-0.1274 0.5873,-0.9961 0.5878,-1.0347"/>
   <path id="_227887992" class="fil5" d="M127.737 145.506c-0.075,0.2356 -0.0048,0.1639 0.0236,0.2526 0.0746,0.2327 0.7296,1.1677 0.7918,1.5828 0.0002,0.001 0.093,0.1469 0.1085,0.1953 0.225,0.702 0.3907,0.879 0.5449,1.7195 0.0963,0.5246 0.3373,1.1368 0.464,1.828 0.1996,1.0891 0.2796,1.6058 0.3969,2.7213 0.1118,1.0626 0.1716,2.7997 0.1104,3.8966 -0.0474,0.8504 0.1005,1.5851 -0.0921,2.4903 -0.1234,0.5797 -0.509,3.1839 -0.6392,3.4961 -0.1767,0.4233 -0.1943,1.5684 -0.4354,1.9064 -0.0043,0.0061 -0.4266,0.7993 -0.4543,0.827"/>
   <circle id="_227887896" class="fil5 str1" transform="matrix(0.614032 0.00871642 -0.00871642 0.614032 100.393 157.629)" r="17.3743"/>
  </g>
  <path class="fil6 str3" d="M154.459 183.544c-0.3082,0 -0.5602,0.1029 -0.7703,0.3087 -0.2101,0.2058 -0.3082,0.4851 -0.3222,0.8379l0 6.4382 32.1852 0c1.9608,-0.0147 3.7814,-0.3675 5.4481,-1.0877 1.6668,-0.7056 3.1234,-1.7051 4.3698,-2.9987 1.2465,-1.2788 2.213,-2.7928 2.9132,-4.542 0.6863,-1.7492 1.0365,-3.6601 1.0505,-5.7474l0 -9.4368c0,-0.9555 -0.1961,-1.8962 -0.5743,-2.8223 -0.3782,-0.926 -0.8824,-1.7345 -1.5406,-2.4401 -0.6583,-0.7055 -1.4006,-1.22 -2.2549,-1.5287l-32.2692 -11.2007c-0.4341,-0.147 -0.7843,-0.4263 -1.0784,-0.8379 -0.2801,-0.4116 -0.4202,-0.8672 -0.4342,-1.367l0 -8.5549c0.014,-1.2494 0.3081,-2.3225 0.8964,-3.2191 0.5742,-0.9114 1.3585,-1.6169 2.3249,-2.1167 0.9804,-0.4998 2.0589,-0.7497 3.2493,-0.7497l28.8238 0c0.3361,-0.0147 0.6022,-0.1323 0.7983,-0.3381 0.1961,-0.2204 0.2942,-0.4997 0.2942,-0.8084l0 -6.4382 -29.9163 0c-1.9887,0 -3.8375,0.3086 -5.5602,0.9113 -1.7227,0.6027 -3.2353,1.4846 -4.5379,2.6312 -1.3165,1.1612 -2.3249,2.5576 -3.0672,4.1892 -0.7283,1.6463 -1.1065,3.5131 -1.1205,5.5857l0 10.4952c0.014,0.9555 0.2241,1.8815 0.6443,2.7928 0.4061,0.9114 0.9664,1.7199 1.6527,2.4107 0.7002,0.6909 1.4706,1.1906 2.3249,1.4993l32.2692 11.289c0.4342,0.147 0.7842,0.4263 1.0784,0.8231 0.2801,0.4116 0.4202,0.8379 0.4342,1.2936l0 8.0257c-0.014,1.2494 -0.2802,2.3813 -0.8263,3.3808 -0.5463,1.0143 -1.2746,1.808 -2.213,2.4107 -0.9244,0.5879 -1.9888,0.8966 -3.1792,0.9113l-31.0927 0zm51.4289 -58.6496c-0.3081,0.0147 -0.5602,0.1176 -0.7703,0.338 -0.2101,0.2205 -0.3082,0.4851 -0.3222,0.8085l0 6.4382 18.8237 0 0 58.6497 6.8068 0c0.3362,-0.0147 0.6022,-0.1176 0.7983,-0.3381 0.1961,-0.2205 0.2941,-0.4851 0.2941,-0.8084l0 -57.5032 17.9833 0c0.3081,-0.0147 0.5603,-0.1323 0.7704,-0.3381 0.2101,-0.2204 0.3081,-0.4997 0.3221,-0.8084l0 -6.4382 -44.7062 0zm65.5466 66.5872l18.9918 0c1.9748,-0.0147 3.8096,-0.4116 5.5323,-1.176 1.7227,-0.779 3.2353,-1.8373 4.5378,-3.2191 1.3165,-1.367 2.339,-2.9545 3.0812,-4.7625 0.7424,-1.808 1.1205,-3.7483 1.1346,-5.8356l0 -51.594 -6.8068 0c-0.2942,0.0147 -0.5603,0.1176 -0.7704,0.338 -0.1961,0.2205 -0.3081,0.4851 -0.3221,0.8085l0 51.1531c-0.014,1.2494 -0.3081,2.3813 -0.8683,3.3808 -0.5743,1.0142 -1.3306,1.808 -2.297,2.4107 -0.9524,0.5879 -2.0309,0.8966 -3.2213,0.9113l-18.9918 0c-1.1904,-0.0147 -2.2688,-0.3234 -3.2213,-0.9113 -0.9663,-0.6027 -1.7227,-1.3965 -2.2968,-2.4107 -0.5603,-0.9995 -0.8544,-2.1314 -0.8685,-3.3808l0 -51.1531c-0.014,-0.3234 -0.112,-0.588 -0.3221,-0.8085 -0.21,-0.2204 -0.4621,-0.3233 -0.7703,-0.338l-6.8067 0 0 51.594c0.014,2.0873 0.3921,4.0276 1.1204,5.8356 0.7423,1.808 1.7507,3.3955 3.0672,4.7625 1.3026,1.3818 2.8152,2.4401 4.5379,3.2191 1.7227,0.7644 3.5715,1.1613 5.5602,1.176zm48.5719 -0.3528l26.975 0c1.9888,-0.0147 3.8376,-0.4116 5.5603,-1.1906 1.7227,-0.7791 3.2353,-1.8521 4.5518,-3.2338 1.3025,-1.3671 2.325,-2.9546 3.0532,-4.7626 0.7284,-1.808 1.1064,-3.7483 1.1204,-5.8061l0 -36.2482c-0.014,-2.0873 -0.392,-4.0276 -1.1204,-5.8356 -0.7282,-1.808 -1.7507,-3.3955 -3.0532,-4.7772 -1.3165,-1.367 -2.8291,-2.4401 -4.5518,-3.2044 -1.7227,-0.7644 -3.5715,-1.1612 -5.5603,-1.1759l-26.975 0c-0.9103,0.0147 -1.7227,0.2498 -2.4651,0.6908 -0.7282,0.4557 -1.3025,1.0731 -1.7367,1.8374 -0.4341,0.7791 -0.6582,1.6316 -0.6722,2.5871l0 56.0038c0.014,0.9554 0.2381,1.808 0.6722,2.587 0.4342,0.7644 1.0085,1.3671 1.7367,1.8227 0.7424,0.4557 1.5548,0.6909 2.4651,0.7056zm4.6218 -7.5848c-0.4761,-0.0147 -0.8543,-0.1764 -1.1484,-0.4997 -0.2941,-0.3234 -0.4342,-0.7203 -0.4482,-1.176l0 -47.7135c0.014,-0.4997 0.1541,-0.8966 0.4482,-1.2053 0.2941,-0.3087 0.6723,-0.4704 1.1484,-0.4704l22.3532 0c1.1904,0.0147 2.2689,0.3234 3.2213,0.9114 0.9663,0.6026 1.7227,1.3964 2.2969,2.4106 0.5602,0.9996 0.8543,2.1314 0.8684,3.3808l0 37.6593c-0.0141,1.2494 -0.3082,2.3813 -0.8684,3.3808 -0.5742,1.0143 -1.3306,1.808 -2.2969,2.4107 -0.9524,0.5879 -2.0309,0.8966 -3.2213,0.9113l-22.3532 0zm49.4961 7.5848l6.8068 0 0 -65.0879c-0.014,-0.3234 -0.112,-0.588 -0.3221,-0.8085 -0.21,-0.2204 -0.4622,-0.3233 -0.7703,-0.338l-6.8068 0 0 65.0879c0.014,0.3233 0.1121,0.5879 0.3222,0.8084 0.2101,0.2205 0.4621,0.3234 0.7702,0.3381zm51.4289 0.3528c1.9749,-0.0147 3.8096,-0.4116 5.5323,-1.176 1.7227,-0.779 3.2353,-1.8373 4.5378,-3.2191 1.3165,-1.367 2.339,-2.9545 3.0813,-4.7625 0.7423,-1.808 1.1205,-3.7483 1.1345,-5.8356l0 -36.9537c-0.014,-2.0873 -0.3922,-4.0275 -1.1345,-5.8355 -0.7423,-1.808 -1.7648,-3.3955 -3.0813,-4.7773 -1.3025,-1.367 -2.8151,-2.44 -4.5378,-3.2044 -1.7227,-0.7643 -3.5574,-1.1612 -5.5323,-1.1759l-18.9916 0c-1.9889,0.0147 -3.8376,0.4116 -5.5603,1.1759 -1.7227,0.7644 -3.2353,1.8374 -4.5378,3.2044 -1.3167,1.3818 -2.325,2.9693 -3.0674,4.7773 -0.7282,1.808 -1.1064,3.7482 -1.1204,5.8355l0 36.9537c0.014,2.0873 0.3922,4.0276 1.1204,5.8356 0.7424,1.808 1.7507,3.3955 3.0674,4.7625 1.3025,1.3818 2.8151,2.4401 4.5378,3.2191 1.7227,0.7644 3.5714,1.1613 5.5603,1.176l18.9916 0zm-18.9916 -59.3553l18.9916 0c1.1906,0.0147 2.269,0.3234 3.2213,0.9114 0.9665,0.6027 1.7227,1.3964 2.297,2.4107 0.5603,0.9995 0.8543,2.1313 0.8683,3.3808l0 38.3648c-0.014,1.2494 -0.308,2.3813 -0.8683,3.3808 -0.5743,1.0142 -1.3305,1.808 -2.297,2.4107 -0.9523,0.5879 -2.0307,0.8966 -3.2213,0.9113l-18.9916 0c-1.1906,-0.0147 -2.269,-0.3234 -3.2214,-0.9113 -0.9664,-0.6027 -1.7227,-1.3965 -2.2969,-2.4107 -0.5603,-0.9995 -0.8544,-2.1314 -0.8684,-3.3808l0 -38.3648c0.014,-1.2495 0.3081,-2.3813 0.8684,-3.3808 0.5742,-1.0143 1.3305,-1.808 2.2969,-2.4107 0.9524,-0.588 2.0308,-0.8967 3.2214,-0.9114z"/>
  <g id="_227327072">
   <path id="_227887608" class="fil7 str2" d="M29.1329 46.3041c-4.268,9.0199 -4.7765,12.8786 -4.8524,22.7246l0.0404 0.0849c0.2653,0.5574 0.7335,1.2857 1.2601,1.7502 0.2709,-0.107 0.5457,-0.2151 0.825,-0.3245 -0.4968,-2.3108 -0.7887,-3.9798 -0.898,-6.3427l-0.0191 0.3766c0.1789,-3.9849 0.6056,-6.9289 1.456,-10.8545 0.6368,-2.2658 1.2119,-4.3467 1.9977,-6.5838l0.9957 -2.0542c-0.036,-0.0203 -0.0723,-0.0408 -0.1088,-0.0613 -0.2417,0.439 -0.4591,0.7828 -0.6966,1.2847z"/>
   <path id="_227887512" class="fil7 str2" d="M117.37 51.8869c1.379,4.7206 1.4283,15.4495 1.2979,17.2173 -0.3578,4.852 -2.4394,10.9307 -4.5239,15.6204 0.8855,0.0799 2.3823,0.0892 3.0602,0.1121l0.128 0.1646 0.1004 0.129 0.0038 0.005c0.0054,-0.0044 0.0193,-0.022 0.0398,-0.0501 0.1779,-0.2422 0.8573,-1.2623 0.8647,-1.271 0.4633,-0.5308 0.6832,-2.4615 1.0517,-3.1469 0.2718,-0.5054 1.3555,-4.8389 1.6601,-5.7973 0.4755,-1.4964 0.3478,-2.7616 0.5692,-4.1897 0.2855,-1.8421 0.4731,-4.7854 0.4608,-6.5981 -0.0128,-1.9032 -0.0621,-2.789 -0.2183,-4.6612 -0.099,-1.1882 -0.4044,-2.262 -0.4798,-3.1638 -0.1208,-1.4448 -0.3712,-1.7712 -0.6346,-2.994 -0.0181,-0.0843 -0.1506,-0.3461 -0.1507,-0.3478 -0.0257,-0.5066 -0.5154,-1.5084 -0.8266,-2.1895 -0.1258,-0.2753 -0.2224,-0.4981 -0.2475,-0.6147 -0.0333,-0.1546 -0.1638,-0.0452 0.002,-0.4304l-0.2209 -0.0993 -0.144 -0.0647c-0.0203,0.051 -0.0399,0.1005 -0.057,0.1489 -0.0752,0.2124 -0.1036,0.4031 0.0571,0.6086 0.0797,0.2093 0.1573,0.4193 0.2329,0.6298 -0.6838,0.3251 -1.3416,0.6479 -2.0253,0.9828zm1.7878 -1.625c-0.0091,-0.0167 -0.0146,-0.0327 -0.0224,-0.0597l0.0224 0.0597z"/>
   <path id="_227887416" class="fil7 str2" d="M82.0794 113.7c-1.4775,-0.2071 -3.4154,-0.7284 -4.8959,-1.4082 -0.1973,3.8477 0.1284,9.3235 -0.5626,12.6085 -0.1216,0.0326 -0.2445,0.064 -0.3688,0.0945 -0.0587,0.0144 -0.1177,0.0286 -0.177,0.0424 -0.1126,0.0266 -0.2264,0.0522 -0.3414,0.077 -0.1554,0.0335 -0.3131,0.0654 -0.473,0.0959l0.0762 0.3943 0.0103 0.0542c0.2035,-0.0341 0.3839,-0.0683 0.5588,-0.1041 0.1723,-0.0352 0.3393,-0.072 0.5177,-0.1118 0.0239,-0.0054 0.0481,-0.0107 0.0724,-0.0162 0.0602,-0.0135 0.1219,-0.0274 0.1857,-0.0416 1.1317,-0.2529 5.5638,-2.2023 6.4113,-2.884 0.0569,-0.0459 0.3947,-0.3197 0.7299,-0.5839 0.1271,-0.1002 0.2536,-0.199 0.3644,-0.2833 0.1817,-0.1386 0.3209,-0.2386 0.3493,-0.2431l-0.0631 -0.3498c-0.0083,-0.0317 -0.0165,-0.0635 -0.0248,-0.0953 -0.1278,0.0851 -0.2548,0.1693 -0.3809,0.2528 -0.1249,0.0827 -0.249,0.1646 -0.3725,0.2456 -0.6238,-2.3614 -1.262,-5.4649 -1.616,-7.7439z"/>
   <path id="_227887320" class="fil7 str2" d="M24.7703 71.205c-0.3102,-0.3289 -0.5862,-0.7086 -0.8118,-1.0861 -0.0031,0.001 -0.0062,0.0018 -0.0094,0.0026 -0.0422,0.0109 -0.0846,0.0176 -0.1265,0.0203 -3.7118,1.8191 -5.526,2.5096 -9.2469,4.6998 -0.8024,0.4722 -1.619,0.9297 -2.4736,1.2995 -0.2597,0.1434 -0.3125,0.1792 -0.3849,0.2103l0.4821 0.4076 0.722 0.6104c4.373,-2.9758 7.668,-4.4928 11.849,-6.1644z"/>
   <path id="_227887224" class="fil7 str2" d="M54.3229 107.011c-8.2106,-3.8957 -14.4547,-9.3275 -20.1126,-16.2147 -0.5253,0.3906 -1.5513,0.9706 -2.8362,1.6359 -0.199,0.103 -0.404,0.208 -0.6145,0.3147 0.4405,0.6754 0.5668,0.9529 1.3317,1.8122 0.9086,1.0207 1.5113,2.3268 2.6067,3.3916l0.1592 0.1548c0.8836,0.8589 1.0924,1.3745 2.2519,2.3452 1.7044,1.4268 1.5493,1.6465 3.6995,3.0143 2.1037,1.3381 3.1691,2.1418 5.4813,3.1818 0.8118,0.3652 2.8638,1.7173 3.961,2.2483l0.4257 0.2061c0.4341,0.21 1.7399,0.7853 2.6729,1.0953 0.1598,0.0531 0.3715,0.1182 0.6033,0.189 0.3254,0.0994 0.6903,0.2099 1.0069,0.3136 0.2519,0.0824 0.4732,0.1606 0.6195,0.2253l0.2698 -0.6094c-0.2856,-0.0988 -0.5622,-0.1922 -0.8327,-0.283 -0.3363,-0.1127 -0.6629,-0.2212 -0.9849,-0.3302 0.1033,-0.9063 0.2021,-1.8057 0.2915,-2.6908z"/>
   <path id="_227887128" class="fil7 str2" d="M99.4343 103.223l0.1035 -0.0586 -0.2252 0.1476 0.1217 -0.089zm-7.7015 3.9815c-3.5228,1.919 -5.4812,2.4874 -9.6874,3.6642l0.31 -0.0642c-2.6828,0.7025 -2.9173,0.7963 -3.7027,0.9465 1.3695,0.5217 2.9913,0.8995 4.1131,1.0019 0.0306,0.0028 0.061,0.0054 0.091,0.0078l-0.0116 0.3303 -0.0027 0.0721c0.0167,-0.0001 0.0337,-0.0003 0.0512,-0.0006 1.4215,-0.0307 5.5589,-1.2619 6.6923,-1.8061l0.1085 -0.0521c1.2995,-0.6238 2.5418,-1.2247 4.0698,-1.7416 2.138,-0.7231 4.9392,-2.358 6.7528,-3.7162 0.1345,-0.1008 1.4316,-0.8914 2.2446,-1.3784 0.3706,-0.2221 0.6405,-0.381 0.654,-0.3829l-0.0494 -0.3532 -0.0076 -0.0543 -0.0382 0.0218 -0.9107 0.5197c-0.8149,-0.5764 -1.5839,-1.1219 -2.2548,-1.5987l-0.1656 0.1971 -0.5551 0.4054c-2.4746,1.4003 -5.133,2.7658 -7.7015,3.9815z"/>
   <path id="_227887032" class="fil7 str2" d="M115.414 85.993c3.2475,2.1053 7.1175,4.8082 9.0321,6.47 0.35,-0.4672 0.486,-0.4818 0.6928,-1.432 -2.5314,-1.4396 -5.3865,-3.4569 -7.8256,-5.0753 -0.629,0.0779 -1.2651,0.0792 -1.8993,0.0373z"/>
   <path id="_227886936" class="fil7 str2" d="M68.9206 53.881c8.1736,-0.8149 16.0035,2.2287 20.3442,9.1651 -1.1343,-7.9703 -7.5258,-14.482 -15.8976,-15.4257 -9.9353,-1.1198 -18.8972,6.0264 -20.017,15.9617 -0.0706,0.626 -0.1083,1.248 -0.1146,1.8645 2.4477,-5.8782 9.7639,-10.9754 15.685,-11.5656z"/>
   <path id="_227886816" class="fil8 str2" d="M73.3672 47.6204c9.9353,1.1199 17.0816,10.0818 15.9617,20.0171 -1.1198,9.9353 -10.0817,17.0816 -20.017,15.9618 -9.9353,-1.1199 -17.0816,-10.0819 -15.9617,-20.0172 1.1198,-9.9353 10.0817,-17.0815 20.017,-15.9617zm-41.39 -1.4134c-0.0067,-0.0034 1.3187,-1.8267 0,0zm43.9148 63.1579c8.4932,-1.9709 14.3734,-4.0606 21.806,-8.518l0.2252 -0.1476 0.1902 -0.1701 -0.0256 0.0976 0.3456 -0.3455 0.6448 -0.6445c3.9854,2.8835 8.1695,5.7858 12.2292,8.6284 0.2468,0.1727 0.493,0.3452 0.7388,0.5175 0.0876,0.0314 0.1683,0.0709 0.2409,0.1179 0.2418,-0.1819 0.462,-0.3772 0.6547,-0.5191l0.1781 -0.1309c0.8347,-0.6146 0.8016,-0.7477 1.4835,-1.4663 1.3085,-1.379 3.6888,-4.2095 4.6529,-5.7863 0.4635,-0.7577 1.1087,-1.7723 1.516,-2.5191l0.0374 -0.0686c0.3474,-0.6369 0.8099,-1.3586 1.181,-1.9603 0.2531,-0.4104 0.9553,-1.3785 1.4914,-2.2447 0.192,-0.31 0.3627,-0.6071 0.4838,-0.8607 0.0526,-0.1099 0.0958,-0.2116 0.1273,-0.3027 -0.0343,0.007 -0.0588,0.016 -0.1019,0.045 0.0434,-0.0373 0.0711,-0.0672 0.1127,-0.1097 0.0069,-0.0096 0.0128,-0.0195 0.0187,-0.0293 0.0134,-0.0485 0.0226,-0.093 0.0271,-0.1332l-1.0428 -0.1176c-0.004,0.007 -0.0079,0.0139 -0.0119,0.0208 -0.1645,0.2882 -0.3396,0.5926 -0.5244,0.9107 -3.8716,-2.4897 -7.6059,-5.3785 -11.4802,-7.8898l0.0146 -0.0687 0.2114 -0.9977 0.2261 -1.0665c0.367,0.2078 0.7894,0.4567 1.2533,0.7383 0.4872,-1.0023 0.9888,-2.0939 1.0097,-2.5416 0.0103,-0.2218 1.6402,-4.457 1.8469,-4.7571 0.188,-0.2725 0.7571,-2.6205 0.7747,-2.9996l0.2176 -1.2401c0.2686,-1.4978 0.418,-2.2353 0.599,-3.8409 0.2129,-1.8889 -0.1217,-6.1097 0.0862,-7.6159 0.0836,-0.6044 -0.4063,-4.8853 -0.5892,-5.2268 -0.0119,-0.0223 -0.487,-2.4022 -0.52,-2.5965 -0.0029,-0.0169 -0.1638,-0.4801 -0.3198,-0.9236 -0.1346,-0.3829 -0.2655,-0.7509 -0.2878,-0.8041 -0.0272,-0.0652 -0.0881,-0.1821 -0.164,-0.3211 -0.2031,-0.3714 -0.5136,-0.8991 -0.5765,-1.0111 -0.0072,-0.0128 -0.0111,-0.0202 -0.0114,-0.0214l0.2124 -0.0742c2.4988,-1.1878 8.0472,-3.8083 10.7618,-5.0012 0.1396,0.3814 0.2785,0.7629 0.417,1.1446 0.0765,0.2107 -0.3487,-0.9586 -0.2722,-0.7479l0.4943 1.3451 0.9483 -0.1286c-0.0098,-0.0667 -1.4122,-1.1572 -1.4426,-1.2165 -0.0894,-0.1745 1.1908,0.6163 1.094,0.3679 -0.1279,-0.3286 -0.2617,-0.7121 -0.4,-1.125 -0.5264,-1.5719 -1.1176,-3.5695 -1.6979,-4.5809l-0.0704 -0.1225c-0.9654,-1.6823 -1.2049,-3.1029 -2.244,-4.8901l-0.0982 -0.1688c-1.5612,-2.6855 -1.9529,-3.6795 -3.7622,-6.1241 -0.339,-0.4579 -1.7849,-1.8194 -2.4105,-2.493 -0.1801,-0.1938 -0.2922,-0.3307 -0.2905,-0.3728l-0.1954 -0.0083 -0.7618 -0.0324c0.0736,0.0997 0.1461,0.1976 0.2177,0.2936 0.118,0.1582 0.2333,0.3113 0.346,0.46 -3.339,1.6428 -10.7595,5.106 -11.5816,6.0362 0.0319,-0.0587 0.0498,-0.1057 0.0586,-0.1516l-0.3995 -0.1216 -0.3711 0.3744c-0.238,-0.1857 0.1251,-0.3483 -0.1168,-0.5337l0.1393 -0.1038c-0.0026,-0.0223 -0.0566,0.2375 -0.0566,0.2148 -0.0001,-0.2101 -0.5047,-0.2628 -0.3119,-0.508 -1.6447,-1.3453 -6.5105,-4.887 -7.659,-5.3387 -1.6877,-0.6634 -5.6164,-2.9428 -6.6052,-3.3042l-0.2047 -0.0747c-1.0198,-0.6069 -1.8176,-0.7391 -2.5309,-1.1161 -0.5749,-0.304 -1.611,-0.6367 -2.6355,-0.9072 -0.3905,-0.1031 -0.7794,-0.1972 -1.1403,-0.2772 -0.4418,-0.0978 -0.8417,-0.1745 -1.152,-0.2209l-0.0704 0.4633c0.3765,-5.2357 0.4397,-8.2628 0.0964,-13.4078 -8.1864,-0.4834 -11.0567,-0.493 -18.9101,0.0846 -0.3052,4.6803 -0.5859,7.9849 -0.1532,12.8068l0.2382 1.0894c-4.8045,1.6453 -9.1421,3.6855 -13.5356,6.1896 -1.2097,0.8313 -4.4786,1.8694 -4.92,2.3883 0.0395,-0.0609 0.2258,0.2063 0.2402,0.16l-0.1284 0.7022 -0.5908 0.3939c-3.4716,-1.2418 -9.46,-5.4919 -13.2209,-7.9985 -1.6832,1.8663 -3.6479,3.9058 -5.0636,5.8225l0.0849 -0.1049c-1.5176,2.2567 -3.4014,4.7715 -5.1161,7.075 2.8401,1.9465 8.5592,5.9485 11.2595,7.5342l0.6868 0.1458 0 0c-0.1075,0.2442 -0.2715,0.1605 -0.4314,0.4426 -0.1745,0.3076 -0.3696,0.6348 -0.563,0.9759 -0.3325,0.5863 -0.6594,1.2133 -0.8658,1.8501 -0.4643,1.4333 -0.7307,1.9619 -1.1168,3.5796 -0.1925,0.806 -0.5654,1.9113 -0.803,2.9056 -0.4511,1.8867 -0.8494,3.8439 -0.9945,5.8328 -0.1105,1.5129 -0.5577,2.96 -0.4199,4.5876 -0.0132,0.0682 0.1319,1.366 0.15,1.5687 0.0577,0.6489 0.3542,3.0838 0.5854,4.0776 0.3262,-0.1272 0.6588,-0.2566 0.9985,-0.3892l0.3909 0.9006 0.3278 0.7552 0.0631 0.1454c-6.738,2.6352 -5.9675,2.1812 -13.2542,6.1437 -2.3527,1.2794 -1.1593,0.8156 -2.2507,1.192 1.6664,6.5205 2.754,10.3349 6.0042,16.1384 3.8773,-1.5373 9.2443,-4.1953 12.9444,-6.2133l0.8407 -0.2308 -0.1264 -0.1624c0.191,-0.1061 0.3761,-0.2099 0.5551,-0.311l0.17 1.1677c0.6108,0.6587 1.3211,1.3351 1.9273,2.1635 1.2306,1.6815 4.0248,4.9846 5.6219,6.228l0.2144 0.1669c1.4573,1.1347 4.2266,3.0912 5.6855,4.2916l0.2506 0.2061c1.8949,1.5593 2.8873,1.8984 5.0678,2.9703 0.365,0.1794 0.8823,0.4812 1.4095,0.7678 0.2974,0.1616 0.598,0.3182 0.8763,0.4454 0.242,0.1105 0.4672,0.1986 0.6588,0.2481l0.2448 -0.9118 0.0919 0.0103c-0.4725,5.2586 -0.8485,10.5623 -1.8637,15.742 -0.0695,0.354 -0.1419,0.7074 -0.2174,1.06 0.8095,0.269 1.7315,0.5949 2.7846,0.7883 1.4504,0.2664 1.8489,0.5887 3.6688,0.759 2.4286,0.2273 4.2147,0.6888 6.9217,0.8242 1.8769,0.0938 4.3196,0.2852 6.1096,0.1712 0.6105,-0.039 0.3704,0.0496 1.1993,-0.1373l0.0302 -0.0068 0.0675 -0.0153c0.2408,-0.0002 0.5403,0.0326 0.7834,-0.0903 0.0459,-0.0232 0.0897,-0.0519 0.1307,-0.0873l-0.0985 -0.1131 -0.6115 -0.7031c0.0721,-0.051 0.0769,-0.0621 0.1595,-0.0866 -0.0914,0.0102 -0.1645,0.0088 -0.2354,0.0065 0.5326,-3.5618 0.2677,-8.0629 0.4466,-11.6315 -0.0016,0.0003 -0.0032,0.0005 -0.0048,0.0009l0.0087 -0.0775c0.0548,-1.0507 0.1491,-2.0188 0.315,-2.8558l0.0067 0.0016 0.001 -0.0086z"/>
   <g>
    <path id="_227886744" class="fil3" d="M62.3252 6.99c-0.336,5.4041 -0.7056,8.8726 -0.1872,14.2748l-2.3114 0.5192c-0.5828,-5.7824 -0.2249,-9.2787 0.1446,-15.0594l2.354 0.2654z"/>
   </g>
   <path id="_227886480" class="fil5" d="M61.1482 6.8573c-0.0484,0.4294 -0.5323,9.322 -0.5219,9.4378 0.156,1.7526 0.007,3.6758 0.356,5.2293"/>
   <g>
    <path id="_227886408" class="fil3" d="M83.433 6.6215c0.4546,6.0832 0.419,9.2888 -0.0283,15.1809l-2.3352 -0.4022c0.3969,-5.5194 0.4456,-8.5844 0.037,-14.2638l2.3265 -0.5149z"/>
   </g>
   <path id="_227886144" class="fil5" d="M82.2698 6.8789c0.3365,1.8251 0.5039,7.7192 0.2954,9.7413 -0.1191,1.1547 -0.1679,4.0046 -0.3281,4.9811"/>
   <g>
    <path id="_227886072" class="fil3" d="M60.0026 6.7302c3.5462,-0.2777 1.8063,-0.1302 5.2206,-0.4402l-0.2338 0.0508c5.7219,-0.4504 12.7262,-0.0571 18.4379,0.2942l-0.041 1.4916c-10.5242,-0.6468 -12.8869,-0.6821 -22.659,0.0654l-0.7247 -1.4618z"/>
   </g>
   <path id="_227885808" class="fil5" d="M60.3649 7.4611c1.7534,-0.2298 3.2812,-0.1474 5.2585,-0.4455 0.5767,-0.1675 5.5868,0.107 6.9305,-0.158 0.8265,-0.1631 9.0312,0.4329 10.8529,0.5232"/>
   <g>
    <path id="_227885736" class="fil3" d="M83.4245 6.6087c1.4954,0.3505 1.9048,0.4372 3.3425,1.0212l-0.2109 1.8715c-1.6344,-0.4329 -2.1952,-0.7229 -3.9162,-1.127l0.7846 -1.7657z"/>
   </g>
   <path id="_227885472" class="fil5" d="M83.0322 7.4916c0.989,0.2558 1.3373,0.2323 2.2516,0.6169 0.2492,0.1049 1.1331,0.4296 1.3778,0.4572"/>
   <g>
    <path id="_227885400" class="fil3" d="M86.727 7.6311c0.5821,4.634 0.4948,5.727 0.2504,10.558 -0.0672,1.3274 -0.0706,2.6911 -0.2183,4.001l-0.793 -0.0894c0.235,-2.0848 0.3019,-5.2196 0.3675,-7.3803 0.1321,-4.356 -0.0799,-3.7015 -0.3969,-7.2011l0.7903 0.1118z"/>
   </g>
   <path id="_227885136" class="fil5" d="M86.3318 7.5752c-0.085,0.6123 0.647,2.0838 0.4683,3.2681 -0.0868,0.5753 0.1102,2.7297 -0.0722,3.9381 -0.0915,0.6061 0.0337,2.189 -0.1447,3.3452 -0.1036,0.672 -0.0362,2.383 -0.1663,3.5377 -0.0181,0.1604 -0.0362,0.3207 -0.0543,0.4811"/>
   <g>
    <path id="_227885064" class="fil3" d="M81.2456 20.2347c3.431,0.7606 4.7132,1.2036 7.757,2.6276l-0.1218 -0.0579c5.0394,1.8417 11.6689,6.3856 15.8009,9.7263l-1.0191 1.0063c-6.4886,-5.0641 -14.3871,-10.0571 -22.6289,-11.8906l0.2119 -1.4117z"/>
   </g>
   <path id="_227884800" class="fil5" d="M81.1396 20.9405c1.234,0.1845 3.8835,0.8477 4.9509,1.4122 0.7165,0.3789 1.5181,0.5117 2.5426,1.1215l0.2057 0.0752c0.9934,0.3632 4.9406,2.6538 6.6361,3.3205 1.2395,0.4875 6.7886,4.5586 8.0063,5.6274 0.1776,0.156 0.5192,0.3654 0.691,0.5365"/>
   <g>
    <path id="_227884728" class="fil3" d="M103.188 32.7255c-0.2394,-2.1108 11.256,-6.4822 12.5743,-6.9729l1.2985 0.5164c-1.7234,0.9605 -11.6156,5.4634 -12.5591,6.5307 0.0767,-0.1411 0.0699,-0.2126 0.0518,-0.3706l-1.3655 0.2964z"/>
   </g>
   <path id="_227884464" class="fil5" d="M103.871 32.5773c-0.1136,-0.5096 3.1935,-2.1331 3.8903,-2.5118 1.1794,-0.641 2.4625,-1.3511 3.7996,-1.7798 0.4028,-0.1291 4.8504,-2.2737 4.8509,-2.2749"/>
   <g>
    <path id="_227884392" class="fil3" d="M113.886 50.9369c1.0982,-0.529 12.9332,-6.1573 13.4866,-6.1808l-0.2504 0.117 1.3053 1.999c-0.3916,0.1752 -0.3129,0.1683 -0.5978,0.2262 -2.1545,1.0207 -4.3159,1.9186 -6.4919,2.8784l0.3691 -0.1255c-2.4452,1.0617 -4.1273,1.9582 -6.5505,3.1071l-1.2704 -2.0214z"/>
   </g>
   <path id="_227884128" class="fil5" d="M114.521 51.9476c0.71,-0.4462 3.9622,-1.755 4.266,-2.1379 0.0359,-0.0452 2.0119,-0.8264 2.3563,-1.0108 0.2153,-0.0356 1.6239,-0.8883 2.2802,-0.9855 0.0178,-0.0027 3.586,-1.6473 3.8624,-1.7783l0.1093 -0.052c0.1177,-0.0558 0.2966,-0.0563 0.3795,-0.1105"/>
   <g>
    <path id="_227884056" class="fil3" d="M116.126 49.7309c2.5883,1.1899 2.7032,17.1797 2.5415,19.3734 -0.4189,5.6791 -3.1993,13.0391 -5.5821,17.8849l-2.6499 -1.4406c1.1013,-2.2543 3.7263,-8.2975 4.183,-10.3625 1.7602,-7.9583 2.1578,-17.3589 -1.3642,-24.4773l2.8717 -0.9779z"/>
   </g>
   <path id="_227883792" class="fil5" d="M114.69 50.2199c0.0035,0.0157 0.6675,1.1074 0.78,1.3695 0.0499,0.1162 0.6264,1.7153 0.632,1.7472 0.0346,0.1964 0.5314,2.6023 0.5438,2.6247 0.1898,0.3455 0.7066,4.6722 0.622,5.2826 -0.2109,1.5214 0.1455,5.7868 -0.0696,7.6948 -0.1828,1.6217 -0.3352,2.3666 -0.6088,3.8792 -0.0188,0.1039 -0.2215,1.2523 -0.2215,1.2524 -0.0173,0.383 -0.5991,2.7539 -0.7925,3.0288 -0.2127,0.3027 -1.8853,4.5776 -1.8954,4.8017 -0.0355,0.7885 -1.5752,3.5507 -1.9197,4.3681"/>
   <g>
    <path id="_227883720" class="fil3" d="M41.6645 30.7599c0.7996,-3.2216 13.4349,-8.6329 15.7023,-9.6927l-0.3294 0.1978c3.1009,-1.3552 1.5043,-0.7498 4.7471,-1.8361l0.5563 2.5443c-4.8045,1.6454 -9.1421,3.6857 -13.5356,6.1897 -1.2097,0.8313 -4.2366,2.7469 -4.6781,3.2657 0.0873,-0.135 0.0819,-0.189 0.1238,-0.3623l-2.5864 -0.3064z"/>
   </g>
   <path id="_227883456" class="fil5" d="M42.9577 30.9131c0.1004,-0.8475 4.3687,-3.0337 5.2468,-3.899 0.7788,-0.3445 1.8277,-1.3755 2.8185,-1.6008 0.5972,-0.136 5.6022,-2.6292 6.8424,-3.1431 0.2911,-0.2399 3.7227,-1.4654 4.1972,-1.5692"/>
   <g>
    <path id="_227883384" class="fil3" d="M17.3125 37.2023c1.5263,-2.594 4.7447,-7.0113 6.4892,-9.287l-0.1653 0.2236c1.9506,-2.3743 3.7287,-4.3376 5.7108,-6.5833l1.4167 1.605c-1.7939,2.0349 -4.0606,4.3295 -5.6422,6.4707l0.0849 -0.1049c-1.7634,2.6223 -4.0213,5.5931 -5.9338,8.1757l-1.9603 -0.4998z"/>
   </g>
   <path id="_227883120" class="fil5" d="M18.2927 37.4522c0.1029,-0.4242 1.5432,-2.2272 1.8609,-2.7314 0.077,-0.1222 0.9023,-1.1279 1.1125,-1.472 0.3928,-0.6431 2.5376,-3.5588 3.1156,-4.3604 0.0145,-0.0201 0.055,-0.088 0.08,-0.1151 0.1985,-0.338 3.3259,-3.9436 3.8016,-4.451 0.6007,-0.6407 1.2208,-1.2664 1.7922,-1.9642"/>
   <g>
    <path id="_227883048" class="fil3" d="M29.4635 21.7063c5.088,3.0951 8.831,5.6976 14.1995,8.6966l0.9248 0.6165 -1.1816 0.7879c-3.845,-1.3754 -10.7774,-6.441 -14.3512,-8.7408l0.4085 -1.3602z"/>
   </g>
   <path id="_227882784" class="fil5" d="M29.2593 22.3864c0.4757,0.1429 2.7687,1.8046 3.1993,2.2232 0.486,0.4725 3.187,1.9628 4.0646,2.4842l0.1303 0.0775c1.3692,0.8136 2.652,1.7495 4.0777,2.4821 0.3892,0.1999 1.5478,0.9523 1.9218,1.0569 0.1105,0.031 1.2775,0.6032 1.344,0.703"/>
   <g>
    <path id="_227882712" class="fil3" d="M44.5172 23.6716c-0.79,-1.3924 7.1291,-4.2164 7.3289,-4.265 0,-0.0001 2.2887,-0.6812 2.8727,-0.5157 0.0723,0.1082 -0.4008,0.3198 -0.4459,0.3387 -3.9042,1.6437 -6.1696,2.7297 -9.7557,4.442z"/>
   </g>
   <path id="_227882448" class="fil5" d="M44.5172 23.6716c0.0314,-0.386 2.3383,-1.7271 2.4995,-1.7633 0.1283,-0.0289 1.9994,-1.16 2.7128,-1.3901 1.5512,-0.5003 2.9046,-1.0646 4.5079,-1.439 0.058,-0.0136 0.4632,-0.1368 0.4814,-0.1883"/>
   <g>
    <path id="_227882376" class="fil3" d="M16.6474 35.8506c1.2318,-6.3107 4.9886,-10.9228 10.8396,-13.6175 -5.8337,5.5609 -6.9035,6.6298 -10.8396,13.6175z"/>
   </g>
   <path id="_227882112" class="fil5" d="M16.6474 35.8506c0.1653,-1.0059 1.3982,-3.3751 1.4099,-3.514 0.0083,-0.0975 1.4295,-2.1921 1.4353,-2.2612 0.0477,-0.5653 1.9908,-2.7515 2.453,-3.2923 0.6334,-0.7412 1.3946,-1.3341 2.0347,-1.9606 0.3945,-0.3863 3.1748,-2.5323 3.5067,-2.5894"/>
   <g>
    <path id="_227882040" class="fil3" d="M18.8142 35.6289l0.0728 0.0805c1.1582,1.2791 11.5426,7.0266 14.0619,8.5521l-0.658 2.1108c-2.7397,-1.4218 -13.8688,-7.888 -15.1059,-9.2546l1.6292 -1.4888z"/>
   </g>
   <path id="_227881776" class="fil5" d="M17.9996 36.3733l0.1457 0.1609c0.8363,0.9239 6.8536,4.3961 8.0202,5.0899l0.1066 0.0634c1.618,0.9622 3.3659,1.699 5.062,2.9184 0.0432,0.031 1.284,0.7104 1.2858,0.711"/>
   <g>
    <path id="_227881704" class="fil3" d="M33.5642 44.3911c-2.3295,5.1375 -3.4193,6.8581 -4.4451,12.7777 -0.5071,2.9264 -0.9506,5.8253 -0.6224,8.7491l0 0.0002c0.2311,1.7481 0.7309,3.8075 0.8047,5.4511l-2.8399 -0.3201c-0.0591,-0.1057 -0.0269,-0.005 -0.0706,-0.4567l0.12 0.4309c-0.5609,-2.5696 -0.8862,-4.302 -1.0029,-6.8268l-0.0192 0.3766c0.179,-3.9849 0.6057,-6.9287 1.4562,-10.8543l0 -0.0001c0.6367,-2.2658 1.2118,-4.3467 1.9977,-6.5838l1.0693 -2.2059 0.8775 -1.5346 0.0545 -0.1202 2.6202 1.1169z"/>
   </g>
   <path id="_227881440" class="fil5" d="M32.2541 43.8327l-0.0545 0.1202c-0.4389,0.9668 -1.4485,2.2656 -1.8963,3.6114 -0.4766,1.4319 -0.7512,1.9596 -1.1456,3.5763 -0.1965,0.8056 -0.5795,1.9097 -0.8222,2.9035 -0.4606,1.8856 -0.8661,3.842 -1.008,5.8312 -0.108,1.5132 -0.5668,2.959 -0.416,4.5881 -0.0134,0.0682 0.1435,1.3672 0.1631,1.5702 0.0731,0.7527 0.4907,3.9076 0.7376,4.4347 0.0126,0.1214 0.0705,0.7296 0.0693,0.7409"/>
   <g>
    <path id="_227881368" class="fil3" d="M111.732 83.7712c3.0681,1.7363 10.0533,6.3963 12.7745,8.7797l-0.2406 2.1343c-4.419,-2.6594 -8.6086,-5.9801 -12.9791,-8.8129l0.4452 -2.1011z"/>
   </g>
   <path id="_227881104" class="fil5" d="M111.51 84.8218c0.7553,0.1599 8.618,5.9388 10.0523,6.8101 0.4628,0.2812 2.6411,1.9655 2.8245,1.9862"/>
   <g>
    <path id="_227881032" class="fil3" d="M125.193 92.9322c-2.3648,4.8582 -9.0093,15.6015 -13.7313,17.5865l-0.2931 -2.0786 -0.2613 0.0703c4.2099,-2.403 9.5689,-11.2029 12.1998,-15.8133l2.0859 0.2351z"/>
   </g>
   <path id="_227335064" class="fil5" d="M124.15 92.8147c-0.0833,0.7386 -1.7393,2.9545 -2.1592,3.6353 -0.3711,0.6017 -0.8336,1.3235 -1.181,1.9603l-0.0375 0.0686c-0.4072,0.7468 -1.0525,1.7614 -1.5158,2.5191 -0.9643,1.5769 -3.3445,4.4073 -4.653,5.7863 -0.6819,0.7187 -0.6487,0.8517 -1.4835,1.4663l-0.1781 0.1309c-0.3485,0.2566 -0.7866,0.6876 -1.28,0.8988 -0.0901,0.0387 -0.2844,0.1903 -0.3468,0.1991"/>
   <g>
    <path id="_227334992" class="fil3" d="M113.81 84.6863c0.9017,0.1338 3.2138,0.1244 3.6686,0.1641l-0.1211 -0.0026 0.2866 1.0751c-0.1298,0.0286 -0.1909,0.0468 -0.3068,0.0298 -1.2123,0.154 -2.4515,0.0213 -3.6523,-0.1573l0.125 -1.1091zm3.6686 0.1641c0.0281,0.0025 0.0494,0.0051 0.0626,0.008l-0.0337 -0.0074 -0.0289 -0.0006z"/>
   </g>
   <path id="_227334728" class="fil5" d="M113.747 85.2409c0.588,0.0662 1.8333,0.3366 2.3643,0.2221 0.2495,-0.0539 0.7278,0.0444 1.222,-0.0704 0.1007,-0.0038 0.0363,0.0258 0.1665,-0.0089"/>
   <g>
    <path id="_227334656" class="fil3" d="M117.336 84.9937c2.9345,1.9147 5.7752,3.7814 8.7454,5.6506l-0.2006 0.7961c-2.8199,-1.5081 -6.1612,-3.9024 -8.91,-5.7117l0.3652 -0.735z"/>
   </g>
   <path id="_227334392" class="fil5" d="M117.153 85.3612c0.4684,0.2328 1.8115,1.2556 2.4086,1.5947 0.7486,0.4252 1.8987,1.2175 2.6092,1.7361 0.9338,0.6817 2.0825,1.2474 3.0959,1.8973 0.1647,0.1056 0.5412,0.4095 0.714,0.4531"/>
   <g>
    <path id="_227334320" class="fil3" d="M119.892 49.8448l-0.0183 0.0454c0.3681,0.6313 1.0143,2.5549 1.1247,3.0155l0.0297 -0.0265c2.8422,7.4567 1.1522,20.5633 -1.2866,27.9851 -0.8566,2.6068 -0.3799,2.2626 -2.0566,4.5906l-0.4971 -0.6393c0.3475,-0.5227 0.8746,-1.1957 1.0847,-1.7553 3.9028,-10.3963 4.8595,-22.3524 0.8898,-32.786 -0.1972,-0.2523 -0.1096,-0.4823 -0.0001,-0.7576l0.6484 0.2915c-0.0102,-0.0197 -0.0221,-0.0399 -0.0347,-0.0621 0.0163,0.019 0.0334,0.0423 0.0516,0.0697l0.0645 0.029zm-0.7343 0.4171l-0.0224 -0.0596c0.0078,0.0269 0.0133,0.0428 0.0224,0.0596z"/>
   </g>
   <path id="_227334056" class="fil5" d="M119.527 49.6808c-0.1658,0.3853 -0.0353,0.2758 -0.002,0.4303 0.0873,0.4054 1.0379,2.093 1.0741,2.8043 0.0001,0.0017 0.1326,0.2635 0.1507,0.3478 0.2634,1.2228 0.5138,1.5491 0.6346,2.994 0.0754,0.9018 0.3808,1.9756 0.4798,3.1639 0.1562,1.8721 0.2055,2.7579 0.2183,4.6611 0.0123,1.8127 -0.1753,4.756 -0.4608,6.5981 -0.2214,1.4281 -0.0937,2.6933 -0.5692,4.1897 -0.3046,0.9585 -1.3883,5.2919 -1.6601,5.7973 -0.3685,0.6855 -0.5884,2.6161 -1.0517,3.1469 -0.0083,0.0096 -0.8532,1.2788 -0.9045,1.3211"/>
   <g>
    <path id="_227333984" class="fil3" d="M99.0782 99.6368c4.2276,3.0588 8.6788,6.1386 12.968,9.146 0.0876,0.0313 0.1683,0.0708 0.2409,0.1178 -0.0182,-0.0111 -0.0371,-0.0221 -0.0569,-0.0328l-0.7715 1.6216c-0.0719,-0.0402 -0.1878,-0.1123 -0.3419,-0.2123 0.0894,0.0948 0.2025,0.1713 0.3372,0.2224l-0.0071 0.0149c-0.1589,-0.0835 -0.2754,-0.1669 -0.3594,-0.2564 -2.2741,-1.4802 -12.3171,-8.6059 -13.2989,-9.3321l1.2896 -1.2891zm13.2089 9.2638c0.15,0.0972 0.2648,0.2267 0.3331,0.3825 -0.0518,-0.1436 -0.1525,-0.2718 -0.3331,-0.3825zm0.3331 0.3825c0.0834,0.1904 0.0971,0.4201 0.0192,0.6786 0.0314,-0.2524 0.0525,-0.4803 -0.0192,-0.6786zm-1.1615 1.2063l-0.0047 0.0101c0.027,0.0103 0.055,0.0197 0.0839,0.0278 -0.012,-0.0022 -0.0396,-0.0157 -0.0792,-0.0379zm-0.5452 -0.5732c-0.0305,-0.1582 -0.018,-0.343 0.0105,-0.5728 -0.0592,0.1984 -0.0607,0.396 -0.0105,0.5728z"/>
   </g>
   <path id="_227333720" class="fil5" d="M98.4334 100.281c0.4705,0.4706 2.5388,1.7725 3.2788,2.2826 0.4382,0.3019 4.0872,2.8962 4.126,2.9147 0.719,0.3433 2.5035,1.9784 3.141,2.2828 0.6309,0.3013 2.1199,1.5952 2.708,1.8646 0.1816,0.0424 0.0214,0.003 0.1513,0.065"/>
   <g>
    <path id="_227333648" class="fil3" d="M75.892 109.365c8.4932,-1.971 14.3733,-4.0606 21.806,-8.518l0.2253 -0.1476 0.19 -0.1701 -0.0826 0.3156 2.791 0.9826 -0.8323 0.9899 -0.555 0.4056c-2.4746,1.4002 -5.1331,2.7657 -7.7016,3.9814 -3.5228,1.919 -5.4812,2.4874 -9.6873,3.6641l0.3098 -0.0641c-4.4391,1.1625 -2.175,0.6583 -6.7947,1.5009l0.3314 -2.9403zm23.5424 -6.142l-0.1218 0.0889 0.2252 -0.1476 -0.1034 0.0587z"/>
   </g>
   <path id="_227333384" class="fil5" d="M75.7263 110.835c0.4982,0.0562 5.4163,-1.1947 6.1761,-1.4391 0.5782,-0.0562 5.1164,-1.5153 5.6618,-1.8297 0.6809,-0.3926 1.3956,-0.3269 2.2353,-0.9965 0.068,-0.0542 1.0246,-0.5309 1.1937,-0.6416 0.5165,-0.1752 4.2857,-2.06 4.5442,-2.2893 0.2549,-0.2263 2.2221,-0.9517 3.0805,-1.6332 0.0989,-0.0526 0.7876,-0.6105 0.8083,-0.6695"/>
   <g>
    <path id="_227333312" class="fil3" d="M77.4629 109.751c-0.7499,3.7093 0.1458,12.0317 -1.0171,15.9047 0.009,-0.0502 0.0141,-0.0989 0.015,-0.1464l-1.5892 0.1357c0.0318,0.1803 0.0878,0.2837 0.2154,0.415 -0.2258,-0.2257 -0.2889,-0.4849 -0.2203,-0.781 1.0921,-4.7077 0.2132,-11.8471 1.0176,-15.9067l1.5786 0.3787zm-1.186 15.2607c-0.0151,-0.0175 -0.031,-0.0348 -0.0481,-0.0519 0.0173,0.0178 0.0333,0.0351 0.0481,0.0519z"/>
   </g>
   <path id="_227333048" class="fil5" d="M76.6736 109.561c-0.3951,1.576 -0.0491,1.2357 -0.0898,2.3506 -0.0313,0.8602 -0.1519,2.3384 -0.1395,3.1072 0.0239,1.476 -0.3376,3.3575 -0.234,4.91 0.0491,0.7366 -0.2948,4.6563 -0.5437,5.5009 -0.0363,0.1234 0.0016,0.0335 0.013,0.1457"/>
   <g>
    <path id="_227332976" class="fil3" d="M52.9023 121.154c5.2957,1.5052 16.8738,3.9277 21.7994,2.8136 0.2942,-0.0666 0.4072,-0.0107 0.6524,-0.0381 -0.0824,0.0246 -0.0873,0.0357 -0.1593,0.0867l1.4197 1.6324c-0.5835,0.412 -0.8528,0.4509 -1.5173,0.4433 -5.3966,1.1397 -16.9906,-1.1859 -22.5406,-2.8055l0.3457 -2.1324z"/>
   </g>
   <path id="_227332712" class="fil5" d="M52.7294 122.22c1.114,0.1803 2.5065,0.8719 4.2641,1.1948 1.4503,0.2664 1.8489,0.5887 3.6687,0.759 2.4286,0.2273 4.2148,0.6888 6.9218,0.8242 1.8769,0.0939 4.3196,0.2852 6.1096,0.1712 0.6106,-0.039 0.3704,0.0496 1.1993,-0.1372l0.0976 -0.0221c0.2862,-0.0004 0.6553,0.046 0.9141,-0.1777"/>
   <g>
    <path id="_227332640" class="fil3" d="M82.8819 113.096c0.4654,2.5914 1.1379,6.0246 1.8884,8.6809l-0.8256 0.2545c-0.7526,-2.6644 -1.5639,-6.5788 -1.9133,-9.0601l0.8505 0.1247z"/>
   </g>
   <path id="_227332376" class="fil5" d="M82.4566 113.034c-0.065,0.4504 1.2306,5.4644 1.3598,6.5325l0.0121 0.0994c0.0416,0.3441 0.1338,0.7339 0.2049,1.0333l0.0179 0.075c0.09,0.3794 0.1983,0.7496 0.3062,1.1303"/>
   <g>
    <path id="_227332304" class="fil3" d="M75.2606 125.21c3.7864,-0.7072 6.2761,-2.276 9.2934,-4.2578l0.1652 0.8995c-2.3604,2.0445 -6.1369,3.6686 -9.2822,4.2559l-0.1764 -0.8976z"/>
   </g>
   <path id="_227332040" class="fil5" d="M75.3488 125.659c0.5026,-0.0827 0.8658,-0.166 1.3492,-0.2722 1.1442,-0.2513 5.6239,-2.1954 6.4801,-2.8761 0.115,-0.0915 1.3658,-1.0943 1.4585,-1.1085"/>
   <g>
    <path id="_227331968" class="fil3" d="M82.7659 112.75c7.9938,-1.5696 11.9493,-3.964 19.0444,-8.1885l1.5484 -0.8836 0.1138 0.8151c-7.4283,4.6425 -12.2353,7.4611 -20.7492,9.0788l0.0426 -0.8218z"/>
   </g>
   <path id="_227331704" class="fil5" d="M82.7446 113.161c1.2538,0.0649 5.6652,-1.2395 6.8414,-1.8043l0.1085 -0.0521c1.2994,-0.6238 2.5417,-1.2247 4.0698,-1.7416 2.138,-0.7232 4.9392,-2.358 6.7528,-3.7162 0.1957,-0.1466 2.8555,-1.7553 2.8985,-1.7613"/>
   <g>
    <path id="_227331632" class="fil3" d="M56.29 105.824c-0.5254,5.8473 -0.9314,11.7505 -2.2299,17.4769l-1.2631 -1.4805c0.271,-5.006 1.1852,-10.9339 1.6593,-16.2031l1.8337 0.2067z"/>
   </g>
   <path id="_227331368" class="fil5" d="M55.3731 105.721c-0.1807,1.603 -0.2519,3.0829 -0.3903,4.7177 -0.1646,1.9426 -0.6411,5.258 -0.8711,7.2984 -0.0589,0.5228 -0.5416,4.6706 -0.6832,4.824"/>
   <g>
    <path id="_227331296" class="fil3" d="M29.5052 71.4537c-6.7929,2.6568 -6.0161,2.1991 -13.3622,6.1938 -2.7491,1.4949 -0.6954,0.6291 -2.9926,1.4575l-1.8076 -0.6346c6.5637,-4.7108 10.5453,-6.1684 17.3743,-8.8325l0.7881 1.8158z"/>
   </g>
   <path id="_227331032" class="fil5" d="M29.1111 70.5458c-1.5727,0.7618 -2.7296,0.6455 -4.5606,1.5924 -0.9649,0.499 -1.4389,0.4765 -2.6085,1.2501 -1.277,0.8447 -4.7933,2.7732 -6.1399,3.3275 -0.0197,0.0081 -3.5543,2.0684 -3.5555,2.0719"/>
   <g>
    <path id="_227330960" class="fil3" d="M24.1606 69.9729c-3.8295,1.8786 -5.6847,2.5813 -9.5069,4.8311 -0.8207,0.4829 -1.6559,0.9509 -2.5301,1.3292 -0.5082,0.2805 -0.2415,0.1585 -0.8242,0.3704l-0.0474 -0.8149c0.9514,-0.5582 2.0126,-1.0107 3.0533,-1.623 3.8086,-2.2404 5.5863,-2.917 9.4063,-4.7745l0.449 0.6817z"/>
   </g>
   <path id="_227330720" class="fil5" d="M23.9361 69.632c-0.6751,0.4447 -2.2774,1.018 -3.1456,1.4756 -0.8906,0.4697 -2.2945,0.9256 -3.0628,1.3176 -0.9862,0.5031 -2.1145,1.4747 -3.2482,2.0097 -0.5188,0.2448 -1.4588,0.903 -1.9267,1.0487 -0.0421,0.013 -0.6037,0.3301 -0.6844,0.3367 -0.0418,0.0379 -0.5485,0.2733 -0.5927,0.2759"/>
   <circle id="_227330600" class="fil5 str1" transform="matrix(1.0354 0.116705 -0.116705 1.0354 71.3395 65.6098)" r="17.3743"/>
   <g>
    <path id="_227330528" class="fil3" d="M13.15 77.5627l0.4328 0.2264c1.8648,7.3286 2.8935,11.2456 6.4868,17.5754l-0.014 -0.028c0.2953,0.4238 0.3404,0.5269 0.4365,1.079 -0.4264,-0.6902 -0.4054,-1.0581 -0.9087,-1.1491l-0.3321 2.6848 0.0621 0.0045c-0.6004,-0.0279 -0.9439,-0.3134 -1.131,-0.8396 -3.3877,-4.842 -6.9601,-15.176 -6.9338,-21.1607l1.9014 1.6073zm5.0265 19.5365c-0.0375,-0.1081 -0.0684,-0.226 -0.0938,-0.3539 0.0261,0.151 0.0324,0.2357 0.0938,0.3539z"/>
   </g>
   <path id="_227330264" class="fil5" d="M12.1993 76.759c-0.2348,0.342 1.9555,7.9826 2.2296,8.6785 0.1859,0.4721 1.7017,4.9195 1.8091,5.3429 0.1142,0.4503 0.7509,1.8236 1.0433,2.246 0.0221,0.0319 1.6976,2.9661 1.7304,3.0308 0.0903,0.179 0.2595,0.321 0.2757,0.5232 0.0585,0.0314 0.0601,0.0164 0.1304,0.0249"/>
   <g>
    <path id="_227330192" class="fil3" d="M34.236 87.7327c6.1577,7.9185 12.7117,13.8249 21.9639,18.0749l-0.4931 1.8368c-9.6718,-4.2725 -16.656,-10.5713 -23.0355,-18.7749l1.5647 -1.1368z"/>
   </g>
   <path id="_227329928" class="fil5" d="M33.4537 88.3011l0.1888 0.2429c0.697,0.8959 1.7065,1.7379 2.526,2.8577 1.2306,1.6815 4.0248,4.9845 5.6219,6.228l0.2144 0.1669c1.4573,1.1347 4.2266,3.0911 5.6854,4.2916l0.2507 0.2062c1.8949,1.5591 2.8873,1.8983 5.0679,2.9702 0.7498,0.3687 2.1422,1.254 2.9445,1.4614"/>
   <g>
    <path id="_227329856" class="fil3" d="M30.7521 91.5548c5.9443,8.4727 10.3017,12.1469 20.0021,16.843 1.7899,0.8666 3.2617,1.2825 5.0948,1.9168l-0.5396 1.2189c-1.8578,-0.6351 -3.3178,-1.0556 -5.1361,-1.9359 -9.8931,-4.7895 -14.4416,-8.6242 -20.5125,-17.2771l1.0913 -0.7657z"/>
   </g>
   <path id="_227329592" class="fil5" d="M30.2064 91.9376l0.1568 0.2234c0.8135,1.1595 0.775,1.327 1.7281,2.3977 0.9086,1.0207 1.5113,2.3268 2.6067,3.3916l0.1592 0.1548c0.8836,0.8589 1.0924,1.3745 2.2519,2.3452 1.7044,1.4268 1.5493,1.6465 3.6995,3.0143 2.1037,1.3381 3.1691,2.1418 5.4813,3.1818 0.8118,0.3652 2.8638,1.7173 3.961,2.2483l0.4257 0.2061c0.4341,0.21 1.7399,0.7853 2.6729,1.0953 0.5625,0.1868 1.7682,0.5236 2.2297,0.7279"/>
   <g>
    <path id="_227329520" class="fil3" d="M18.3574 95.5516c4.2916,-1.507 11.6264,-5.1702 15.7138,-7.4811l0.3694 2.5367c-1.4504,1.3638 -12.7427,6.4883 -15.234,7.3631l-0.8492 -2.4187z"/>
   </g>
   <path id="_227329256" class="fil5" d="M18.782 96.7609l0.6722 -0.236c1.5412,-0.5411 3.1718,-1.7609 5.2882,-2.4392 2.4344,-0.7803 4.7255,-2.1931 7.1509,-3.2542 0.4096,-0.1792 2.3542,-1.4914 2.3626,-1.4927"/>
   <g>
    <path id="_227329184" class="fil3" d="M24.2711 69.0091l0.0498 0.1045c0.3321,0.6978 0.9826,1.6637 1.6671,2.0441l-0.3566 0.7508c-0.8781,-0.4931 -1.6379,-1.5487 -2.061,-2.4376l-0.0497 -0.1045 0.7504 -0.3573z"/>
   </g>
   <path id="_227328920" class="fil5" d="M23.8959 69.1877l0.0995 0.209c0.5158,1.0837 0.4551,0.821 1.2336,1.6498 0.2086,0.2222 0.2869,0.3469 0.5807,0.4866"/>
   <g>
    <path id="_227328848" class="fil3" d="M117.058 26.2972c4.3155,2.7847 10.0525,15.3653 11.3132,20.5565l-1.8963 0.257 0.0073 0.0351c-1.3862,-3.8197 -2.7674,-7.6468 -4.6519,-11.27 -2.5252,-4.855 -3.8078,-5.7577 -6.6867,-9.6602l1.9144 0.0816zm9.4242 20.8486c0.0044,0.0215 0.0031,0.0151 0.0163,0.0449l-0.0163 -0.0449z"/>
   </g>
   <path id="_227328584" class="fil5" d="M116.101 26.2564c-0.0074,0.1882 2.2644,2.2761 2.701,2.8658 1.8093,2.4446 2.2009,3.4386 3.7622,6.124l0.0982 0.1689c1.0391,1.7872 1.2786,3.2078 2.244,4.8902l0.0703 0.1224c0.8481,1.478 1.7192,5.0617 2.3777,6.3458 0.0304,0.0593 0.0591,0.142 0.0689,0.2087"/>
   <g>
    <path id="_227328512" class="fil3" d="M52.8258 66.5883c1.9116,-6.3463 9.7934,-12.0791 16.0948,-12.7073 8.2893,-0.8265 16.2249,2.3157 20.5263,9.4618 0.1856,0.3081 0.1647,0.3112 0.2779,0.7865 -3.354,-2.8773 -4.5792,-4.9482 -9.0152,-6.9978 -3.7773,-1.7452 -10.0282,-2.1042 -13.6806,-1.1878 -7.4554,1.8707 -10.1016,5.6614 -14.2032,10.6446z"/>
   </g>
   <path id="_227328248" class="fil5" d="M52.8258 66.5883c0.8814,-1.5097 0.7646,-1.8582 2.1159,-3.5553l0.4085 -0.5132c2.6506,-3.3294 7.3278,-5.9298 11.3559,-7.3787 1.7812,-0.6408 9.6687,-0.6329 11.8428,0.319l0.349 0.1529c1.2998,0.5691 2.982,1.1732 4.0612,2.0298 0.8195,0.6505 1.4552,0.8724 2.4769,1.8351 1.4421,1.3591 2.7442,2.2978 3.8521,3.9607 0.197,0.2957 0.2632,0.4069 0.4367,0.6907"/>
   <g>
    <path id="_227328176" class="fil3" d="M76.408 110.638c1.5095,1.0487 4.6434,1.9033 6.4515,2.0474l-0.0388 1.098c-1.9585,-0.1542 -5.2674,-1.0556 -6.9042,-2.1928l0.4915 -0.9526z"/>
   </g>
   <path id="_227327936" class="fil5" d="M76.1623 111.114l0.1838 0.1278c2.1139,1.4688 3.1726,0.9985 4.5036,1.684 0.3796,0.1955 1.5205,0.3067 1.9904,0.3083"/>
   <path id="_227327816" class="fil7 str2" d="M83.4809 20.7671c0.9369,0.2464 1.7216,0.494 2.5394,0.8044 0.1917,-2.0597 0.253,-4.8663 0.3132,-6.8511 0.1017,-3.3537 -0.0005,-3.7374 -0.1975,-5.3335 -1.0271,-0.2883 -1.622,-0.5171 -2.5657,-0.7764 0.283,4.5347 0.2385,7.5451 -0.0894,12.1566z"/>
   <g>
    <path id="_227327744" class="fil3" d="M22.5134 69.9518c0.0094,-8.7527 1.4369,-16.8306 6.2633,-24.1037 0.4922,-0.7416 0.8606,-1.0471 1.455,-1.6245 -0.4235,0.9204 -0.738,1.3181 -1.0987,2.0805 -4.3403,9.1725 -4.7927,13.0077 -4.856,23.2294l-1.7636 0.4183z"/>
   </g>
   <path id="_227327480" class="fil5" d="M23.3952 69.7427c-0.0866,-0.5647 0.2577,-1.6171 0.0893,-2.6863 -0.3745,-2.3792 0.2676,-8.2886 1.1278,-10.5073 0.4146,-1.0694 0.9304,-2.5933 1.3576,-3.7626l0.0873 -0.239c0.794,-2.1737 1.7188,-4.4472 2.8552,-6.4074l0.1548 -0.267c0.1192,-0.2055 1.1572,-1.5844 1.1645,-1.6495"/>
   <g>
    <path id="_227327408" class="fil3" d="M126.071 90.7386c-0.265,1.3862 -0.3703,1.5976 -1.2257,2.6726 -0.1512,0.2475 -0.3386,0.4049 -0.6177,0.4687l-0.0362 -0.8571c-0.1066,0.0238 -0.126,0.0145 -0.1997,0.064 0.0434,-0.0372 0.0711,-0.0671 0.1127,-0.1096l-0.0139 0.0254c0.6948,-1.1751 0.8074,-0.6784 1.128,-2.36l0.8525 0.096z"/>
   </g>
   <path id="_227327192" class="fil5" d="M125.644 90.6906c-0.1103,0.9785 -0.4873,1.7453 -1.1562,2.4817l-0.0282 0.0476c-0.0172,0.029 -0.2102,0.2296 -0.2508,0.2315"/>
  </g>
 </g>
</svg>
