<?xml version="1.0" encoding="UTF-8"?>
<!DOCTYPE svg PUBLIC "-//W3C//DTD SVG 1.1//EN" "http://www.w3.org/Graphics/SVG/1.1/DTD/svg11.dtd">
<svg version="1.1" width="210" height="297" viewBox="0 0 21000 29700" preserveAspectRatio="xMidYMid" fill-rule="evenodd" xmlns="http://www.w3.org/2000/svg" xmlns:xlink="http://www.w3.org/1999/xlink"><g visibility="visible" id="Обычный"><desc>Master slide</desc></g><g visibility="visible" id="page1"><desc>Slide</desc><g><desc>Drawing</desc><g><g style="stroke:none;fill:rgb(153,204,255)"><path d="M 1000,28700 L 20000,28700 20000,10336 13596,1000 1000,1000 1000,28700 Z"/></g><g style="stroke:none;fill:rgb(0,0,0)"><path d="M 1000,28600 L 20000,28600 20000,28700 20000,28800 1000,28800 1000,28700 1000,28600 Z"/><path d="M 20000,28700 L 20100,28700 20098,28717 20094,28734 20087,28750 20077,28764 20064,28777 20050,28787 20034,28794 20017,28798 20000,28800 20000,28800 20000,28700 Z"/><path d="M 19900,28700 L 19900,10336 20000,10336 20100,10336 20100,28700 20000,28700 19900,28700 Z"/><path d="M 20000,10336 L 20082,10279 20091,10295 20097,10311 20100,10328 20100,10336 20000,10336 Z"/><path d="M 19918,10393 L 13514,1057 13596,1000 13678,943 20082,10279 20000,10336 19918,10393 Z"/><path d="M 13596,1000 L 13596,900 13613,902 13630,906 13646,913 13660,923 13673,936 13678,943 13596,1000 Z"/><path d="M 13596,1100 L 1000,1100 1000,1000 1000,900 13596,900 13596,1000 13596,1100 Z"/><path d="M 1000,1000 L 900,1000 902,983 906,966 913,950 923,936 936,923 950,913 966,906 983,902 1000,900 1000,900 1000,1000 Z"/><path d="M 1100,1000 L 1100,28700 1000,28700 900,28700 900,1000 1000,1000 1100,1000 Z"/><path d="M 1000,28700 L 1000,28800 983,28798 966,28794 950,28787 936,28777 923,28764 913,28750 906,28734 902,28717 900,28700 900,28700 1000,28700 Z"/></g><g style="stroke:none;fill:rgb(131,175,219)"><path d="M 13596,1000 L 15257,10336 15539,10110 15789,9929 16015,9791 16223,9691 16422,9627 16617,9596 16817,9594 17028,9617 20000,10336 13596,1000 Z"/></g><g style="stroke:none;fill:rgb(0,0,0)"><path d="M 13694,982 L 15355,10318 15257,10336 15159,10354 13498,1018 13596,1000 13694,982 Z"/><path d="M 15257,10336 L 15320,10414 15305,10424 15289,10431 15272,10435 15255,10436 15237,10434 15221,10429 15205,10421 15191,10411 15179,10399 15169,10384 15162,10368 15159,10354 15257,10336 Z"/><path d="M 15194,10258 L 15476,10032 15539,10110 15602,10188 15320,10414 15257,10336 15194,10258 Z"/><path d="M 15539,10110 L 15476,10032 15480,10029 15539,10110 Z"/><path d="M 15480,10029 L 15731,9848 15789,9929 15848,10010 15597,10191 15539,10110 15480,10029 Z"/><path d="M 15789,9929 L 15731,9848 15737,9844 15789,9929 Z"/><path d="M 15737,9844 L 15963,9705 16015,9791 16067,9876 15841,10014 15789,9929 15737,9844 Z"/><path d="M 16015,9791 L 15963,9705 15972,9700 16015,9791 Z"/><path d="M 15972,9700 L 16180,9601 16223,9691 16266,9781 16058,9881 16015,9791 15972,9700 Z"/><path d="M 16223,9691 L 16180,9601 16193,9596 16223,9691 Z"/><path d="M 16193,9596 L 16391,9532 16422,9627 16452,9723 16254,9786 16223,9691 16193,9596 Z"/><path d="M 16422,9627 L 16391,9532 16406,9529 16422,9627 Z"/><path d="M 16406,9529 L 16601,9497 16617,9596 16633,9695 16437,9726 16422,9627 16406,9529 Z"/><path d="M 16617,9596 L 16601,9497 16616,9496 16617,9596 Z"/><path d="M 16616,9496 L 16816,9494 16817,9594 16818,9694 16618,9696 16617,9596 16616,9496 Z"/><path d="M 16817,9594 L 16816,9494 16828,9494 16817,9594 Z"/><path d="M 16828,9494 L 17039,9518 17028,9617 17017,9717 16806,9693 16817,9594 16828,9494 Z"/><path d="M 17028,9617 L 17039,9518 17052,9520 17028,9617 Z"/><path d="M 17052,9520 L 20024,10239 20000,10336 19976,10433 17005,9714 17028,9617 17052,9520 Z"/><path d="M 20000,10336 L 20082,10279 20091,10295 20097,10311 20100,10328 20100,10346 20096,10363 20090,10379 20081,10394 20070,10407 20057,10418 20041,10427 20025,10433 20008,10436 19990,10436 19976,10433 20000,10336 Z"/><path d="M 19918,10393 L 13514,1057 13596,1000 13678,943 20082,10279 20000,10336 19918,10393 Z"/><path d="M 13596,1000 L 13498,1018 13496,1000 13497,983 13502,966 13509,950 13519,936 13532,923 13546,913 13562,906 13578,902 13596,900 13613,901 13630,906 13646,913 13660,923 13673,936 13678,943 13596,1000 Z"/></g><g/></g></g></g></svg>