<?xml version="1.0" encoding="UTF-8"?>
<!DOCTYPE svg PUBLIC "-//W3C//DTD SVG 1.1//EN" "http://www.w3.org/Graphics/SVG/1.1/DTD/svg11.dtd">
<svg xmlns="http://www.w3.org/2000/svg" xml:space="preserve" width="210mm" height="297mm" style="shape-rendering:geometricPrecision; text-rendering:geometricPrecision; image-rendering:optimizeQuality; fill-rule:evenodd; clip-rule:evenodd"
viewBox="25 60 160 175"
 xmlns:xlink="http://www.w3.org/1999/xlink">
 <defs>
  <style type="text/css">
   <![CDATA[
    .fil1 {fill:black}
    .fil2 {fill:#000059}
    .fil0 {fill:#1F1F1F}
    .fil4 {fill:#222323}
    .fil7 {fill:#2B2A29}
    .fil6 {fill:#303030}
    .fil5 {fill:#ACACAC}
    .fil3 {fill:#9CF00C;fill-rule:nonzero}
   ]]>
  </style>
 </defs>
 <g id="Layer_x0020_1">
  <metadata id="CorelCorpID_0Corel-Layer"/>
  <path class="fil0" d="M186.504 99.0857l0 98.4863c0,4.5596 -2.9768,8.2571 -6.6475,8.2571l-150.206 -0.0001c-3.6705,0.0001 -6.6473,-3.6974 -6.6473,-8.2569l-0.0002 -98.4863c0.0002,-4.5593 2.977,-8.2568 6.6477,-8.2568l150.205 -0.0002c3.6707,0.0002 6.6475,3.6977 6.6475,8.2572z"/>
  <rect class="fil1" transform="matrix(2.64845E-014 1 -1 2.64845E-014 180.504 96.8287)" width="103" height="151.5"/>
  <rect class="fil2" transform="matrix(2.64788E-014 1 -1 2.64788E-014 149.922 121.129)" width="54.3984" height="76.8351"/>
  <path class="fil3" d="M83.2113 142.966l0 15.24c1.6651,0 3.3302,0 4.9953,0l0 -15.24 4.826 0c0,-0.762 0,-1.5193 0,-2.2672 0,-0.7526 0,-1.5005 0,-2.2483l-14.6756 0c0,0.7478 0,1.4957 0,2.2483 0,0.7479 0,1.5052 0,2.2672l4.8543 0zm25.7669 8.2409c0.7149,-0.4892 1.2982,-1.0819 1.7497,-1.7733 0.4516,-0.6867 0.7714,-1.4346 0.9643,-2.2343 0.1928,-0.7949 0.254,-1.6086 0.1834,-2.4271 -0.0705,-0.8184 -0.2681,-1.6039 -0.5973,-2.3565 -0.334,-0.7526 -0.7903,-1.4252 -1.3829,-2.0179 -0.588,-0.5927 -1.3077,-1.063 -2.159,-1.4111 -0.8467,-0.3481 -1.8251,-0.5268 -2.9351,-0.5362 -1.4441,0 -2.8881,0 -4.3415,0 -1.4535,0 -2.8928,0 -4.3227,0 0,3.302 0,6.5993 0,9.8871 0,3.2926 0,6.5805 0,9.8684 0.8231,0 1.6557,0 2.507,0 0.8467,0 1.6981,0 2.5447,0l0 -5.8138 2.6247 0 3.3867 5.8138 5.6444 0 0 -0.7338 -3.8664 -6.2653zm-4.1769 -3.302l-3.6125 0c0,-0.7949 0,-1.6181 0,-2.46 0,-0.842 0,-1.6699 0,-2.4789 0.5927,-0.0047 1.1948,-0.0047 1.8062,-0.0094 0.6068,-0.0094 1.2089,-0.0047 1.8063,0.0094 0.4797,0.0094 0.8749,0.1364 1.19,0.3763 0.3152,0.2352 0.5456,0.5409 0.6962,0.9172 0.1552,0.3716 0.2257,0.7667 0.221,1.1854 -0.0094,0.4186 -0.0893,0.8137 -0.2493,1.1853 -0.1599,0.3716 -0.3951,0.6773 -0.7055,0.9125 -0.3105,0.2352 -0.6962,0.3528 -1.1524,0.3622zm16.9615 5.8702l0 -10.922 2.3142 0 0 -4.4026 -9.6238 0 0 4.4026 2.3143 0 0 10.922 -2.5118 0 0 4.4309 10.0189 0 0 -4.4309 -2.5118 0zm10.9784 4.4309l0 -7.5353c0.3246,0 0.6444,-0.0047 0.9643,-0.0141 0.3198,-0.0141 0.6444,-0.0471 0.9831,-0.0988l4.3462 7.6482 5.6162 0 0 -0.7902 -5.3622 -8.6925c0.7808,-0.5033 1.4158,-1.0536 1.905,-1.6463 0.4892,-0.5926 0.8655,-1.2229 1.1289,-1.8908 0.2681,-0.6727 0.4562,-1.3688 0.5644,-2.0979 0.1082,-0.7338 0.1741,-1.4864 0.1929,-2.2625 0.0188,-0.7761 0.0235,-1.5663 0.0188,-2.3753 -0.8749,0 -1.7451,0 -2.6059,0 -0.8654,0 -1.7262,0 -2.587,0 0.0094,0.7431 0.0047,1.4769 -0.0141,2.1966 -0.0141,0.7197 -0.0894,1.397 -0.2211,2.032 -0.127,0.635 -0.3575,1.1947 -0.6914,1.6839 -0.3293,0.4845 -0.8091,0.8655 -1.43,1.143 -0.6255,0.2775 -1.4393,0.4186 -2.4412,0.4233l-0.3669 0 0 -7.4788c-0.8748,0 -1.7356,0 -2.587,0 -0.8561,0 -1.7027,0 -2.5494,0l0 19.7555c0.8467,0 1.6933,0 2.5494,0 0.8514,0 1.7122,0 2.587,0z"/>
  <g id="_395079184">
    <metadata id="CorelCorpID_1">
     <odm name="Name" value="_395079184" type="0"/>
    </metadata>
   <path id="_248793704" class="fil4" d="M117.704 104.585l0 5.5211c0,1.7817 -1.4578,3.2394 -3.2395,3.2394l-5.5211 0c-1.7817,0 -3.2394,-1.4577 -3.2394,-3.2394l0 -5.5211c0,-1.7817 1.4577,-3.2395 3.2394,-3.2395l5.5211 0c1.7817,0 3.2395,1.4578 3.2395,3.2395z">
    <metadata id="CorelCorpID_2">
     <odm name="Name" value="_248793704" type="0"/>
    </metadata>
   </path>
   <path id="_248793464" class="fil5" d="M116.304 103.135l0 5.5211c0,1.7817 -1.4578,3.2394 -3.2395,3.2394l-5.5211 0c-1.7817,0 -3.2394,-1.4577 -3.2394,-3.2394l0 -5.5211c0,-1.7817 1.4577,-3.2395 3.2394,-3.2395l5.5211 0c1.7817,0 3.2395,1.4578 3.2395,3.2395z">
    <metadata id="CorelCorpID_3">
     <odm name="Name" value="_248793464" type="0"/>
    </metadata>
   </path>
  </g>
  <path class="fil6" d="M117.004 104.119l0 5.0033c0,1.9319 -1.5666,3.4985 -3.4984,3.4985l-5.0032 -0.0002c-1.9318,0.0002 -3.4984,-1.5664 -3.4984,-3.4981l0.0001 -5.0035c-0.0001,-1.9316 1.5665,-3.4981 3.4982,-3.4981l5.0034 -0.0002c1.9317,0.0002 3.4983,1.5667 3.4983,3.4985z"/>
  <g id="_395078896">
    <metadata id="CorelCorpID_4">
     <odm name="Name" value="_395078896" type="0"/>
    </metadata>
   <path id="_248794832" class="fil4" d="M117.704 188.143l0 5.5211c0,1.7817 -1.4578,3.2394 -3.2395,3.2394l-5.5211 0c-1.7817,0 -3.2394,-1.4577 -3.2394,-3.2394l0 -5.5211c0,-1.7817 1.4577,-3.2395 3.2394,-3.2395l5.5211 0c1.7817,0 3.2395,1.4578 3.2395,3.2395z">
    <metadata id="CorelCorpID_5">
     <odm name="Name" value="_248794832" type="0"/>
    </metadata>
   </path>
   <path id="_248795072" class="fil5" d="M116.304 186.693l0 5.5211c0,1.7817 -1.4578,3.2394 -3.2395,3.2394l-5.5211 0c-1.7817,0 -3.2394,-1.4577 -3.2394,-3.2394l0 -5.5211c0,-1.7817 1.4577,-3.2395 3.2394,-3.2395l5.5211 0c1.7817,0 3.2395,1.4578 3.2395,3.2395z">
    <metadata id="CorelCorpID_6">
     <odm name="Name" value="_248795072" type="0"/>
    </metadata>
   </path>
  </g>
  <path class="fil6" d="M117.004 187.677l0 5.0033c0,1.9318 -1.5666,3.4984 -3.4984,3.4984l-5.0032 -0.0001c-1.9318,0.0001 -3.4984,-1.5665 -3.4984,-3.4982l0.0001 -5.0034c-0.0001,-1.9317 1.5665,-3.4982 3.4982,-3.4982l5.0034 -0.0001c1.9317,0.0001 3.4983,1.5666 3.4983,3.4984z"/>
  <g id="_395078608">
    <metadata id="CorelCorpID_7">
     <odm name="Name" value="_395078608" type="0"/>
    </metadata>
   <path id="_248794520" class="fil4" d="M102.704 188.143l0 5.5211c0,1.7817 -1.4578,3.2394 -3.2395,3.2394l-5.5211 0c-1.7817,0 -3.2394,-1.4577 -3.2394,-3.2394l0 -5.5211c0,-1.7817 1.4577,-3.2395 3.2394,-3.2395l5.5211 0c1.7817,0 3.2395,1.4578 3.2395,3.2395z">
    <metadata id="CorelCorpID_8">
     <odm name="Name" value="_248794520" type="0"/>
    </metadata>
   </path>
   <path id="_248794760" class="fil5" d="M101.304 186.693l0 5.5211c0,1.7817 -1.4578,3.2394 -3.2395,3.2394l-5.5211 0c-1.7817,0 -3.2394,-1.4577 -3.2394,-3.2394l0 -5.5211c0,-1.7817 1.4577,-3.2395 3.2394,-3.2395l5.5211 0c1.7817,0 3.2395,1.4578 3.2395,3.2395z">
    <metadata id="CorelCorpID_9">
     <odm name="Name" value="_248794760" type="0"/>
    </metadata>
   </path>
  </g>
  <path class="fil6" d="M102.004 187.677l0 5.0033c0.0001,1.9318 -1.5665,3.4984 -3.4983,3.4984l-5.0033 -0.0001c-1.9317,0.0001 -3.4983,-1.5665 -3.4983,-3.4982l0 -5.0034c0,-1.9317 1.5666,-3.4982 3.4983,-3.4982l5.0033 -0.0001c1.9318,0.0001 3.4984,1.5666 3.4984,3.4984z"/>
  <g id="_395078320">
    <metadata id="CorelCorpID_10">
     <odm name="Name" value="_395078320" type="0"/>
    </metadata>
   <path id="_248794208" class="fil4" d="M87.7042 188.143l0 5.5211c0,1.7817 -1.4578,3.2394 -3.2395,3.2394l-5.5211 0c-1.7817,0 -3.2394,-1.4577 -3.2394,-3.2394l0 -5.5211c0,-1.7817 1.4577,-3.2395 3.2394,-3.2395l5.5211 0c1.7817,0 3.2395,1.4578 3.2395,3.2395z">
    <metadata id="CorelCorpID_11">
     <odm name="Name" value="_248794208" type="0"/>
    </metadata>
   </path>
   <path id="_248794448" class="fil5" d="M86.3038 186.693l0 5.5211c0,1.7817 -1.4578,3.2394 -3.2395,3.2394l-5.5211 0c-1.7817,0 -3.2394,-1.4577 -3.2394,-3.2394l0 -5.5211c0,-1.7817 1.4577,-3.2395 3.2394,-3.2395l5.5211 0c1.7817,0 3.2395,1.4578 3.2395,3.2395z">
    <metadata id="CorelCorpID_12">
     <odm name="Name" value="_248794448" type="0"/>
    </metadata>
   </path>
  </g>
  <path class="fil6" d="M87.004 187.677l0 5.0033c0.0001,1.9318 -1.5665,3.4984 -3.4983,3.4984l-5.0033 -0.0001c-1.9317,0.0001 -3.4983,-1.5665 -3.4983,-3.4982l0 -5.0034c0,-1.9317 1.5666,-3.4982 3.4983,-3.4982l5.0033 -0.0001c1.9318,0.0001 3.4984,1.5666 3.4984,3.4984z"/>
  <g id="_395078032">
    <metadata id="CorelCorpID_13">
     <odm name="Name" value="_395078032" type="0"/>
    </metadata>
   <path id="_248795144" class="fil4" d="M140.704 188.143l0 5.5211c0,1.7817 -1.4578,3.2394 -3.2395,3.2394l-5.5211 0c-1.7817,0 -3.2394,-1.4577 -3.2394,-3.2394l0 -5.5211c0,-1.7817 1.4577,-3.2395 3.2394,-3.2395l5.5211 0c1.7817,0 3.2395,1.4578 3.2395,3.2395z">
    <metadata id="CorelCorpID_14">
     <odm name="Name" value="_248795144" type="0"/>
    </metadata>
   </path>
   <path id="_248795384" class="fil5" d="M139.304 186.693l0 5.5211c0,1.7817 -1.4578,3.2394 -3.2395,3.2394l-5.5211 0c-1.7817,0 -3.2394,-1.4577 -3.2394,-3.2394l0 -5.5211c0,-1.7817 1.4577,-3.2395 3.2394,-3.2395l5.5211 0c1.7817,0 3.2395,1.4578 3.2395,3.2395z">
    <metadata id="CorelCorpID_15">
     <odm name="Name" value="_248795384" type="0"/>
    </metadata>
   </path>
  </g>
  <path class="fil6" d="M140.004 187.677l0 5.0033c0,1.9318 -1.5666,3.4984 -3.4984,3.4984l-5.0032 -0.0001c-1.9318,0.0001 -3.4984,-1.5665 -3.4984,-3.4982l0.0001 -5.0034c-0.0001,-1.9317 1.5665,-3.4982 3.4982,-3.4982l5.0034 -0.0001c1.9317,0.0001 3.4983,1.5666 3.4983,3.4984z"/>
  <g id="_395077744">
    <metadata id="CorelCorpID_16">
     <odm name="Name" value="_395077744" type="0"/>
    </metadata>
   <path id="_248793320" class="fil4" d="M87.7042 104.585l0 5.5211c0,1.7817 -1.4578,3.2394 -3.2395,3.2394l-5.5211 0c-1.7817,0 -3.2394,-1.4577 -3.2394,-3.2394l0 -5.5211c0,-1.7817 1.4577,-3.2395 3.2394,-3.2395l5.5211 0c1.7817,0 3.2395,1.4578 3.2395,3.2395z">
    <metadata id="CorelCorpID_17">
     <odm name="Name" value="_248793320" type="0"/>
    </metadata>
   </path>
   <path id="_248794088" class="fil5" d="M86.3038 103.135l0 5.5211c0,1.7817 -1.4578,3.2394 -3.2395,3.2394l-5.5211 0c-1.7817,0 -3.2394,-1.4577 -3.2394,-3.2394l0 -5.5211c0,-1.7817 1.4577,-3.2395 3.2394,-3.2395l5.5211 0c1.7817,0 3.2395,1.4578 3.2395,3.2395z">
    <metadata id="CorelCorpID_18">
     <odm name="Name" value="_248794088" type="0"/>
    </metadata>
   </path>
  </g>
  <path class="fil6" d="M87.004 104.119l0 5.0034c0.0001,1.9319 -1.5665,3.4985 -3.4983,3.4985l-5.0034 -0.0001c-1.9317,0.0001 -3.4983,-1.5665 -3.4983,-3.4982l-0.0001 -5.0036c0.0001,-1.9316 1.5667,-3.4981 3.4984,-3.4981l5.0034 -0.0002c1.9318,0.0002 3.4984,1.5667 3.4984,3.4985z"/>
  <g id="_395077456">
    <metadata id="CorelCorpID_19">
     <odm name="Name" value="_395077456" type="0"/>
    </metadata>
   <path id="_248793920" class="fil4" d="M102.704 104.585l0 5.5211c0,1.7817 -1.4578,3.2394 -3.2395,3.2394l-5.5211 0c-1.7817,0 -3.2394,-1.4577 -3.2394,-3.2394l0 -5.5211c0,-1.7817 1.4577,-3.2395 3.2394,-3.2395l5.5211 0c1.7817,0 3.2395,1.4578 3.2395,3.2395z">
    <metadata id="CorelCorpID_20">
     <odm name="Name" value="_248793920" type="0"/>
    </metadata>
   </path>
   <path id="_248793776" class="fil5" d="M101.304 103.135l0 5.5211c0,1.7817 -1.4578,3.2394 -3.2395,3.2394l-5.5211 0c-1.7817,0 -3.2394,-1.4577 -3.2394,-3.2394l0 -5.5211c0,-1.7817 1.4577,-3.2395 3.2394,-3.2395l5.5211 0c1.7817,0 3.2395,1.4578 3.2395,3.2395z">
    <metadata id="CorelCorpID_21">
     <odm name="Name" value="_248793776" type="0"/>
    </metadata>
   </path>
  </g>
  <path class="fil6" d="M102.004 104.119l0 5.0034c0.0001,1.9319 -1.5665,3.4985 -3.4983,3.4985l-5.0034 -0.0001c-1.9317,0.0001 -3.4983,-1.5665 -3.4983,-3.4982l-0.0001 -5.0036c0.0001,-1.9316 1.5667,-3.4981 3.4984,-3.4981l5.0034 -0.0002c1.9318,0.0002 3.4984,1.5667 3.4984,3.4985z"/>
  <path class="fil6" d="M38.2157 210.079l38.8216 0c5.8473,-0.0001 10.5892,4.7418 10.5892,10.5891l0 4.8217c0,5.8472 -4.7419,10.5891 -10.5892,10.5891l-38.8216 0.0001c-5.8473,-0.0001 -10.5892,-4.742 -10.5892,-10.5893l0 -4.8215c0,-5.8474 4.7419,-10.5893 10.5892,-10.5893z"/>
  <path class="fil6" d="M38.2157 60.5787l38.8216 0c5.8473,0.0001 10.5892,4.742 10.5892,10.5893l0 4.8215c0,5.8474 -4.7419,10.5893 -10.5892,10.5893l-38.8216 -0.0001c-5.8473,0.0001 -10.5892,-4.7418 -10.5892,-10.5891l0 -4.8217c0,-5.8472 4.7419,-10.5891 10.5892,-10.5891z"/>
  <rect class="fil7" x="55.1265" y="86.5537" width="5" height="4.3"/>
  <rect class="fil7" x="55.1265" y="205.779" width="5" height="4.3"/>
 </g>
</svg>
