<?xml version="1.0" encoding="UTF-8"?>
<!DOCTYPE svg PUBLIC "-//W3C//DTD SVG 1.1//EN" "http://www.w3.org/Graphics/SVG/1.1/DTD/svg11.dtd">
<!-- Creator: CorelDRAW -->
<svg xmlns="http://www.w3.org/2000/svg" xml:space="preserve" width="163.5mm" height="175.5mm" style="shape-rendering:geometricPrecision; text-rendering:geometricPrecision; image-rendering:optimizeQuality; fill-rule:evenodd; clip-rule:evenodd"
viewBox="0 0 163.5 175.5"
 xmlns:xlink="http://www.w3.org/1999/xlink">
 <defs>
  <style type="text/css">
   <![CDATA[
    .fil7 {fill:#2B2A29}
    .fil1 {fill:black}
    .fil2 {fill:#000059}
    .fil0 {fill:#1F1F1F}
    .fil4 {fill:#222323}
    .fil6 {fill:#303030}
    .fil5 {fill:#ACACAC}
    .fil3 {fill:#9CF00C;fill-rule:nonzero}
   ]]>
  </style>
 </defs>
 <g id="Layer_x0020_1">
  <metadata id="CorelCorpID_0Corel-Layer"/>
  <rect class="fil0" transform="matrix(4.36318E-014 1.65139 -1.3295 3.5083E-014 163.254 30.0788)" width="69.6384" height="122.979" rx="5" ry="5"/>
  <rect class="fil1" transform="matrix(3.91909E-014 1.47907 -1.23192 3.26406E-014 157.254 36.0787)" width="69.6384" height="122.979"/>
  <rect class="fil2" transform="matrix(2.64788E-014 1 -1 2.64788E-014 126.672 60.3795)" width="54.3984" height="76.8351"/>
  <path class="fil3" d="M59.9613 82.2164l0 15.24c1.6651,0 3.3302,0 4.9953,0l0 -15.24 4.826 0c0,-0.762 0,-1.5193 0,-2.2672 0,-0.7526 0,-1.5005 0,-2.2483l-14.6756 0c0,0.7478 0,1.4957 0,2.2483 0,0.7479 0,1.5052 0,2.2672l4.8543 0zm25.7669 8.2409c0.7149,-0.4892 1.2982,-1.0819 1.7497,-1.7733 0.4516,-0.6867 0.7714,-1.4346 0.9643,-2.2343 0.1928,-0.7949 0.254,-1.6086 0.1834,-2.4271 -0.0705,-0.8184 -0.2681,-1.6039 -0.5973,-2.3565 -0.334,-0.7526 -0.7903,-1.4252 -1.3829,-2.0179 -0.588,-0.5927 -1.3077,-1.063 -2.159,-1.4111 -0.8467,-0.3481 -1.8251,-0.5268 -2.9351,-0.5362 -1.4441,0 -2.8881,0 -4.3415,0 -1.4535,0 -2.8928,0 -4.3227,0 0,3.302 0,6.5993 0,9.8871 0,3.2926 0,6.5805 0,9.8684 0.8231,0 1.6557,0 2.507,0 0.8467,0 1.6981,0 2.5447,0l0 -5.8138 2.6247 0 3.3867 5.8138 5.6444 0 0 -0.7338 -3.8664 -6.2653zm-4.1769 -3.302l-3.6125 0c0,-0.7949 0,-1.6181 0,-2.46 0,-0.842 0,-1.6699 0,-2.4789 0.5927,-0.0047 1.1948,-0.0047 1.8062,-0.0094 0.6068,-0.0094 1.2089,-0.0047 1.8063,0.0094 0.4797,0.0094 0.8749,0.1364 1.19,0.3763 0.3152,0.2352 0.5456,0.5409 0.6962,0.9172 0.1552,0.3716 0.2257,0.7667 0.221,1.1854 -0.0094,0.4186 -0.0893,0.8137 -0.2493,1.1853 -0.1599,0.3716 -0.3951,0.6773 -0.7055,0.9125 -0.3105,0.2352 -0.6962,0.3528 -1.1524,0.3622zm16.9615 5.8702l0 -10.922 2.3142 0 0 -4.4026 -9.6238 0 0 4.4026 2.3143 0 0 10.922 -2.5118 0 0 4.4309 10.0189 0 0 -4.4309 -2.5118 0zm10.9784 4.4309l0 -7.5353c0.3246,0 0.6444,-0.0047 0.9643,-0.0141 0.3198,-0.0141 0.6444,-0.0471 0.9831,-0.0988l4.3462 7.6482 5.6162 0 0 -0.7902 -5.3622 -8.6925c0.7808,-0.5033 1.4158,-1.0536 1.905,-1.6463 0.4892,-0.5926 0.8655,-1.2229 1.1289,-1.8908 0.2681,-0.6727 0.4562,-1.3688 0.5644,-2.0979 0.1082,-0.7338 0.1741,-1.4864 0.1929,-2.2625 0.0188,-0.7761 0.0235,-1.5663 0.0188,-2.3753 -0.8749,0 -1.7451,0 -2.6059,0 -0.8654,0 -1.7262,0 -2.587,0 0.0094,0.7431 0.0047,1.4769 -0.0141,2.1966 -0.0141,0.7197 -0.0894,1.397 -0.2211,2.032 -0.127,0.635 -0.3575,1.1947 -0.6914,1.6839 -0.3293,0.4845 -0.8091,0.8655 -1.43,1.143 -0.6255,0.2775 -1.4393,0.4186 -2.4412,0.4233l-0.3669 0 0 -7.4788c-0.8748,0 -1.7356,0 -2.587,0 -0.8561,0 -1.7027,0 -2.5494,0l0 19.7555c0.8467,0 1.6933,0 2.5494,0 0.8514,0 1.7122,0 2.587,0z"/>
  <g id="_395079184">
   <path id="_248793704" class="fil4" d="M94.4542 43.8352l0 5.5211c0,1.7817 -1.4578,3.2394 -3.2395,3.2394l-5.5211 0c-1.7817,0 -3.2394,-1.4577 -3.2394,-3.2394l0 -5.5211c0,-1.7817 1.4577,-3.2395 3.2394,-3.2395l5.5211 0c1.7817,0 3.2395,1.4578 3.2395,3.2395z"/>
   <path id="_248793464" class="fil5" d="M93.0538 42.3852l0 5.5211c0,1.7817 -1.4578,3.2394 -3.2395,3.2394l-5.5211 0c-1.7817,0 -3.2394,-1.4577 -3.2394,-3.2394l0 -5.5211c0,-1.7817 1.4577,-3.2395 3.2394,-3.2395l5.5211 0c1.7817,0 3.2395,1.4578 3.2395,3.2395z"/>
  </g>
  <rect class="fil6" transform="matrix(2.85327E-014 1.07986 -1.07986 2.85327E-014 93.754 39.8707)" width="11.1125" height="11.1125" rx="3.2396" ry="3.2396"/>
  <g id="_395078896">
   <path id="_248794832" class="fil4" d="M94.4542 127.393l0 5.5211c0,1.7817 -1.4578,3.2394 -3.2395,3.2394l-5.5211 0c-1.7817,0 -3.2394,-1.4577 -3.2394,-3.2394l0 -5.5211c0,-1.7817 1.4577,-3.2395 3.2394,-3.2395l5.5211 0c1.7817,0 3.2395,1.4578 3.2395,3.2395z"/>
   <path id="_248795072" class="fil5" d="M93.0538 125.943l0 5.5211c0,1.7817 -1.4578,3.2394 -3.2395,3.2394l-5.5211 0c-1.7817,0 -3.2394,-1.4577 -3.2394,-3.2394l0 -5.5211c0,-1.7817 1.4577,-3.2395 3.2394,-3.2395l5.5211 0c1.7817,0 3.2395,1.4578 3.2395,3.2395z"/>
  </g>
  <rect class="fil6" transform="matrix(2.85327E-014 1.07986 -1.07986 2.85327E-014 93.754 123.429)" width="11.1125" height="11.1125" rx="3.2396" ry="3.2396"/>
  <g id="_395078608">
   <path id="_248794520" class="fil4" d="M79.4542 127.393l0 5.5211c0,1.7817 -1.4578,3.2394 -3.2395,3.2394l-5.5211 0c-1.7817,0 -3.2394,-1.4577 -3.2394,-3.2394l0 -5.5211c0,-1.7817 1.4577,-3.2395 3.2394,-3.2395l5.5211 0c1.7817,0 3.2395,1.4578 3.2395,3.2395z"/>
   <path id="_248794760" class="fil5" d="M78.0538 125.943l0 5.5211c0,1.7817 -1.4578,3.2394 -3.2395,3.2394l-5.5211 0c-1.7817,0 -3.2394,-1.4577 -3.2394,-3.2394l0 -5.5211c0,-1.7817 1.4577,-3.2395 3.2394,-3.2395l5.5211 0c1.7817,0 3.2395,1.4578 3.2395,3.2395z"/>
  </g>
  <rect class="fil6" transform="matrix(2.85327E-014 1.07986 -1.07986 2.85327E-014 78.754 123.429)" width="11.1125" height="11.1125" rx="3.2396" ry="3.2396"/>
  <g id="_395078320">
   <path id="_248794208" class="fil4" d="M64.4542 127.393l0 5.5211c0,1.7817 -1.4578,3.2394 -3.2395,3.2394l-5.5211 0c-1.7817,0 -3.2394,-1.4577 -3.2394,-3.2394l0 -5.5211c0,-1.7817 1.4577,-3.2395 3.2394,-3.2395l5.5211 0c1.7817,0 3.2395,1.4578 3.2395,3.2395z"/>
   <path id="_248794448" class="fil5" d="M63.0538 125.943l0 5.5211c0,1.7817 -1.4578,3.2394 -3.2395,3.2394l-5.5211 0c-1.7817,0 -3.2394,-1.4577 -3.2394,-3.2394l0 -5.5211c0,-1.7817 1.4577,-3.2395 3.2394,-3.2395l5.5211 0c1.7817,0 3.2395,1.4578 3.2395,3.2395z"/>
  </g>
  <rect class="fil6" transform="matrix(2.85327E-014 1.07986 -1.07986 2.85327E-014 63.754 123.429)" width="11.1125" height="11.1125" rx="3.2396" ry="3.2396"/>
  <g id="_395078032">
   <path id="_248795144" class="fil4" d="M117.454 127.393l0 5.5211c0,1.7817 -1.4578,3.2394 -3.2395,3.2394l-5.5211 0c-1.7817,0 -3.2394,-1.4577 -3.2394,-3.2394l0 -5.5211c0,-1.7817 1.4577,-3.2395 3.2394,-3.2395l5.5211 0c1.7817,0 3.2395,1.4578 3.2395,3.2395z"/>
   <path id="_248795384" class="fil5" d="M116.054 125.943l0 5.5211c0,1.7817 -1.4578,3.2394 -3.2395,3.2394l-5.5211 0c-1.7817,0 -3.2394,-1.4577 -3.2394,-3.2394l0 -5.5211c0,-1.7817 1.4577,-3.2395 3.2394,-3.2395l5.5211 0c1.7817,0 3.2395,1.4578 3.2395,3.2395z"/>
  </g>
  <rect class="fil6" transform="matrix(2.85327E-014 1.07986 -1.07986 2.85327E-014 116.754 123.429)" width="11.1125" height="11.1125" rx="3.2396" ry="3.2396"/>
  <g id="_395077744">
   <path id="_248793320" class="fil4" d="M64.4542 43.8352l0 5.5211c0,1.7817 -1.4578,3.2394 -3.2395,3.2394l-5.5211 0c-1.7817,0 -3.2394,-1.4577 -3.2394,-3.2394l0 -5.5211c0,-1.7817 1.4577,-3.2395 3.2394,-3.2395l5.5211 0c1.7817,0 3.2395,1.4578 3.2395,3.2395z"/>
   <path id="_248794088" class="fil5" d="M63.0538 42.3852l0 5.5211c0,1.7817 -1.4578,3.2394 -3.2395,3.2394l-5.5211 0c-1.7817,0 -3.2394,-1.4577 -3.2394,-3.2394l0 -5.5211c0,-1.7817 1.4577,-3.2395 3.2394,-3.2395l5.5211 0c1.7817,0 3.2395,1.4578 3.2395,3.2395z"/>
  </g>
  <rect class="fil6" transform="matrix(2.85327E-014 1.07987 -1.07987 2.85327E-014 63.754 39.8707)" width="11.1125" height="11.1125" rx="3.2396" ry="3.2396"/>
  <g id="_395077456">
   <path id="_248793920" class="fil4" d="M79.4542 43.8352l0 5.5211c0,1.7817 -1.4578,3.2394 -3.2395,3.2394l-5.5211 0c-1.7817,0 -3.2394,-1.4577 -3.2394,-3.2394l0 -5.5211c0,-1.7817 1.4577,-3.2395 3.2394,-3.2395l5.5211 0c1.7817,0 3.2395,1.4578 3.2395,3.2395z"/>
   <path id="_248793776" class="fil5" d="M78.0538 42.3852l0 5.5211c0,1.7817 -1.4578,3.2394 -3.2395,3.2394l-5.5211 0c-1.7817,0 -3.2394,-1.4577 -3.2394,-3.2394l0 -5.5211c0,-1.7817 1.4577,-3.2395 3.2394,-3.2395l5.5211 0c1.7817,0 3.2395,1.4578 3.2395,3.2395z"/>
  </g>
  <rect class="fil6" transform="matrix(2.85327E-014 1.07987 -1.07987 2.85327E-014 78.754 39.8707)" width="11.1125" height="11.1125" rx="3.2396" ry="3.2396"/>
  <rect class="fil6" x="103.219" y="149.329" width="60" height="26" rx="10.5892" ry="10.5892"/>
  <rect class="fil6" x="103.219" y="-0.171253" width="60" height="26" rx="10.5892" ry="10.5892"/>
  <rect class="fil7" x="130.719" y="25.8037" width="5" height="4.3"/>
  <rect class="fil7" x="130.719" y="145.029" width="5" height="4.3"/>
 </g>
</svg>
