<?xml version="1.0" encoding="UTF-8"?>
<!DOCTYPE svg PUBLIC "-//W3C//DTD SVG 1.1//EN" "http://www.w3.org/Graphics/SVG/1.1/DTD/svg11.dtd">
<!-- Creator: CorelDRAW X6 -->
<svg xmlns="http://www.w3.org/2000/svg" xml:space="preserve" width="150px" height="150px" version="1.1" style="shape-rendering:geometricPrecision; text-rendering:geometricPrecision; image-rendering:optimizeQuality; fill-rule:evenodd; clip-rule:evenodd"
viewBox="0 0 150 150"
 xmlns:xlink="http://www.w3.org/1999/xlink">
 <defs>
  <style type="text/css">
   <![CDATA[
    .str0 {stroke:#333333;stroke-width:0.79}
    .str1 {stroke:#1A1A1A;stroke-width:1.27}
    .str2 {stroke:#333333;stroke-width:1.27}
    .str3 {stroke:#666666;stroke-width:1.27}
    .str4 {stroke:#666666;stroke-width:1.58}
    .fil3 {fill:none}
    .fil2 {fill:#999999}
    .fil0 {fill:url(#id0)}
    .fil1 {fill:url(#id1)}
   ]]>
  </style>
  <linearGradient id="id0" gradientUnits="objectBoundingBox" x1="50%" y1="100%" x2="50%" y2="0%">
   <stop offset="0" style="stop-color:#999999"/>
   <stop offset="0.501961" style="stop-color:#E6E6E6"/>
   <stop offset="1" style="stop-color:#999999"/>
  </linearGradient>
  <linearGradient id="id1" gradientUnits="userSpaceOnUse" x1="22.44" y1="117.48" x2="22.45" y2="34.83">
   <stop offset="0" style="stop-color:#333333"/>
   <stop offset="0.301961" style="stop-color:#999999"/>
   <stop offset="0.501961" style="stop-color:#B3B3B3"/>
   <stop offset="0.701961" style="stop-color:#999999"/>
   <stop offset="1" style="stop-color:#333333"/>
  </linearGradient>
 </defs>
 <g id="Layer_x0020_1">
  <metadata id="CorelCorpID_0Corel-Layer"/>
  <rect class="fil0 str0" x="39.18" y="42.85" width="8.64" height="26.22"/>
  <rect class="fil0 str0" x="39.18" y="83.57" width="8.64" height="26.22"/>
  <rect class="fil1 str1" x="5.25" y="34.83" width="34.40" height="82.65" rx="2.07" ry="2.39"/>
  <g id="_133838648">
   <path class="fil3 str3" d="M54 50c6,-3 6,9 2,9"/>
   <path class="fil3 str3" d="M66 46c12,-6 12,18 4,18"/>
   <path class="fil3 str4" d="M84 39c17,-10 17,30 6,31"/>
   <path class="fil3 str4" d="M106 35c22,-12 21,36 8,36"/>
   <path class="fil3 str3" d="M54 94c6,-3 6,9 2,9"/>
   <path class="fil3 str3" d="M66 90c12,-6 12,18 4,18"/>
   <path class="fil3 str4" d="M84 83c17,-10 17,30 6,31"/>
   <path class="fil3 str4" d="M106 79c22,-12 21,36 8,36"/>
  </g>
 </g>
</svg>
