<?xml version="1.0" encoding="UTF-8"?>
<!DOCTYPE svg PUBLIC "-//W3C//DTD SVG 1.1//EN" "http://www.w3.org/Graphics/SVG/1.1/DTD/svg11.dtd">
<!-- Creator: CorelDRAW -->
<svg xmlns="http://www.w3.org/2000/svg" xml:space="preserve" width="32px" height="32px" style="shape-rendering:geometricPrecision; text-rendering:geometricPrecision; image-rendering:optimizeQuality; fill-rule:evenodd; clip-rule:evenodd"
viewBox="0 0 32 32"
 xmlns:xlink="http://www.w3.org/1999/xlink">
 <defs>
  <style type="text/css">
   <![CDATA[
    .str1 {stroke:#366F9E;stroke-width:1.28}
    .str0 {stroke:#4E8DBF;stroke-width:1.28}
    .fil0 {fill:none}
    .fil2 {fill:#FEFEFE;fill-rule:nonzero}
    .fil1 {fill:url(#id0)}
   ]]>
  </style>
  <linearGradient id="id0" gradientUnits="userSpaceOnUse" x1="16" y1="30.208" x2="16" y2="1.792">
   <stop offset="0" style="stop-color:#69A7D6"/>
   <stop offset="1" style="stop-color:#2B699C"/>
  </linearGradient>
 </defs>
 <g id="Layer_x0020_1">
  <metadata id="CorelCorpID_0Corel-Layer"/>
  <circle class="fil0 str0" cx="16" cy="16" r="15.36"/>
  <circle class="fil1 str1" cx="16" cy="16" r="14.208"/>
  <path class="fil2" d="M14.0983 19.7443l0 2.05837 -7.92896 0c0.087936,-0.7776 0.343424,-1.51488 0.774784,-2.21184 0.428672,-0.696832 1.27744,-1.61984 2.54131,-2.77146 1.02195,-0.928256 1.6457,-1.56058 1.87648,-1.89158 0.3104,-0.457472 0.466944,-0.90944 0.466944,-1.35616 0,-0.492416 -0.134656,-0.871808 -0.406528,-1.13818 -0.272,-0.266368 -0.645632,-0.398208 -1.12358,-0.398208 -0.472576,0 -0.846208,0.139904 -1.12653,0.417024 -0.277376,0.279936 -0.439552,0.742656 -0.483456,1.38842l-2.25293 -0.220544c0.134528,-1.21894 0.555008,-2.09344 1.26374,-2.62618 0.708864,-0.530176 1.5936,-0.796544 2.65677,-0.796544 1.16493,0 2.07974,0.309504 2.74458,0.923008 0.66496,0.616192 0.997376,1.38035 0.997376,2.29517 0,0.519296 -0.096256,1.0144 -0.285696,1.48531 -0.189568,0.470912 -0.491904,0.963328 -0.903936,1.47725 -0.274688,0.341632 -0.76928,0.834048 -1.48083,1.47443 -0.71424,0.640512 -1.16762,1.06829 -1.35718,1.27821 -0.189568,0.209792 -0.34624,0.414336 -0.464384,0.613504l4.49203 0z"/>
  <path id="1" class="fil2" d="M16.3493 10.2459l4.35456 0c0.980864,0 1.72813,0.072576 2.24474,0.220544 0.692224,0.199168 1.28576,0.554368 1.77754,1.0656 0.494464,0.508544 0.870912,1.1328 1.12922,1.87008 0.255488,0.739968 0.384512,1.64941 0.384512,2.73382 0,0.94976 -0.120832,1.7705 -0.362624,2.45926 -0.293888,0.839552 -0.714368,1.52038 -1.26374,2.03968 -0.41216,0.39552 -0.969984,0.702208 -1.67322,0.92288 -0.524672,0.164096 -1.22816,0.244864 -2.11008,0.244864l-4.4809 0 0 -11.5567zm2.38208 1.9561l0 7.65248 1.77754 0c0.664832,0 1.1456,-0.034944 1.4423,-0.110208 0.38464,-0.094208 0.706176,-0.252928 0.961664,-0.478976 0.255488,-0.226048 0.46144,-0.600064 0.623616,-1.11667 0.15936,-0.516608 0.241664,-1.22432 0.241664,-2.11763 0,-0.893312 -0.082304,-1.57683 -0.241664,-2.05581 -0.162176,-0.478848 -0.387328,-0.852864 -0.675968,-1.11923 -0.2912,-0.269184 -0.659328,-0.449408 -1.10426,-0.543616 -0.332544,-0.075264 -0.98368,-0.110336 -1.95622,-0.110336l-1.06867 0z"/>
 </g>
</svg>
