<?xml version="1.0" encoding="iso-8859-1"?>
<!-- Generator: Adobe Illustrator 19.0.0, SVG Export Plug-In . SVG Version: 6.00 Build 0)  -->
<svg version="1.1" id="Capa_1" xmlns="http://www.w3.org/2000/svg" xmlns:xlink="http://www.w3.org/1999/xlink" x="0px" y="0px"
	 viewBox="0 0 224.803 224.803" style="enable-background:new 0 0 224.803 224.803;" xml:space="preserve">
<path d="M171.465,68.035L150.628,88.34v62.066l-2.997,1.232c-5.308-21.694-16.464-46.5-31.152-60.77
	c13.916-8.419,23.281-23.698,23.281-41.116c0-2.927-0.257-5.788-0.761-8.572L146.737,0l-34.065,6.524
	c-6.321-3.068-13.408-4.792-20.893-4.792c-7.485,0-14.573,1.724-20.894,4.792L36.815,0l7.728,41.182
	c-0.504,2.783-0.781,5.645-0.781,8.571c0,17.418,9.323,32.697,23.239,41.116c-20.735,20.145-34.603,61.294-34.603,85.03
	c0,30.165,22.755,48.904,59.384,48.904c33.794,0,55.596-15.959,58.797-42.116l30.05-11.77v-69.992l11.777-11.486L171.465,68.035z"/>
<g>
</g>
<g>
</g>
<g>
</g>
<g>
</g>
<g>
</g>
<g>
</g>
<g>
</g>
<g>
</g>
<g>
</g>
<g>
</g>
<g>
</g>
<g>
</g>
<g>
</g>
<g>
</g>
<g>
</g>
</svg>
