<?xml version="1.0" encoding="iso-8859-1"?>
<!-- Generator: Adobe Illustrator 19.0.0, SVG Export Plug-In . SVG Version: 6.00 Build 0)  -->
<svg version="1.1" id="Capa_1" xmlns="http://www.w3.org/2000/svg" xmlns:xlink="http://www.w3.org/1999/xlink" x="0px" y="0px"
	 viewBox="0 0 294.842 294.842" style="enable-background:new 0 0 294.842 294.842;" xml:space="preserve">
<g>
	<path d="M288.842,0H6C2.687,0,0,2.687,0,6v282.842c0,3.313,2.687,6,6,6h240.421c3.313,0,6-2.687,6-6s-2.687-6-6-6H12V12h270.842
		v276.842c0,3.313,2.687,6,6,6s6-2.687,6-6V6C294.842,2.687,292.155,0,288.842,0z"/>
	<path d="M65.815,62.421c-12.683,0-23,10.317-23,23s10.317,23,23,23s23-10.317,23-23S78.498,62.421,65.815,62.421z M65.815,96.421
		c-6.065,0-11-4.935-11-11s4.935-11,11-11s11,4.935,11,11S71.881,96.421,65.815,96.421z"/>
	<path d="M246.815,79.421h-140c-3.313,0-6,2.687-6,6s2.687,6,6,6h140c3.313,0,6-2.687,6-6S250.129,79.421,246.815,79.421z"/>
	<path d="M65.815,124.421c-3.313,0-6,2.687-6,6s2.687,6,6,6c6.065,0,11,4.935,11,11s-4.935,11-11,11s-11-4.935-11-11
		c0-3.313-2.687-6-6-6s-6,2.687-6,6c0,12.683,10.317,23,23,23s23-10.317,23-23S78.498,124.421,65.815,124.421z"/>
	<path d="M246.815,141.421h-140c-3.313,0-6,2.687-6,6s2.687,6,6,6h140c3.313,0,6-2.687,6-6S250.129,141.421,246.815,141.421z"/>
	<path d="M65.815,186.421c-12.683,0-23,10.317-23,23s10.317,23,23,23s23-10.317,23-23S78.498,186.421,65.815,186.421z
		 M65.815,220.421c-6.065,0-11-4.935-11-11s4.935-11,11-11s11,4.935,11,11S71.881,220.421,65.815,220.421z"/>
	<path d="M246.815,203.421h-140c-3.313,0-6,2.687-6,6s2.687,6,6,6h140c3.313,0,6-2.687,6-6S250.129,203.421,246.815,203.421z"/>
</g>
<g>
</g>
<g>
</g>
<g>
</g>
<g>
</g>
<g>
</g>
<g>
</g>
<g>
</g>
<g>
</g>
<g>
</g>
<g>
</g>
<g>
</g>
<g>
</g>
<g>
</g>
<g>
</g>
<g>
</g>
</svg>
