<?xml version="1.0" encoding="iso-8859-1"?>
<!-- Generator: Adobe Illustrator 19.0.0, SVG Export Plug-In . SVG Version: 6.00 Build 0)  -->
<svg version="1.1" id="Capa_1" xmlns="http://www.w3.org/2000/svg" xmlns:xlink="http://www.w3.org/1999/xlink" x="0px" y="0px"
	 viewBox="0 0 465.847 465.847" style="enable-background:new 0 0 465.847 465.847;" xml:space="preserve">
<path id="XMLID_187_" d="M226.578,95.626c-5.569,6.247-8.134,14.055-7.222,21.986l11.2,97.289
	c2.066,17.967,15.514,31.007,31.976,31.007h46.216c16.461,0,29.909-13.04,31.976-31.006l11.2-97.291
	c0.912-7.93-1.653-15.737-7.223-21.984c-6.184-6.937-15.438-11.078-24.752-11.078H251.33
	C242.015,84.549,232.762,88.689,226.578,95.626z M331.265,107.605c1.491,1.672,3.184,4.409,2.776,7.948l-11.2,97.291
	c-0.835,7.255-5.601,15.063-14.094,15.063h-14.108V198.86h4.371c4.971,0,9-4.029,9-9s-4.029-9-9-9h-13.313
	c-0.02,0-0.038-0.003-0.058-0.003s-0.038,0.003-0.058,0.003h-13.312c-4.971,0-9,4.029-9,9s4.029,9,9,9h4.37v29.048h-14.107
	c-8.493,0-13.26-7.809-14.094-15.064l-11.2-97.289c-0.407-3.541,1.285-6.277,2.776-7.95c2.78-3.118,7.117-5.056,11.317-5.056h68.618
	C324.148,102.549,328.485,104.486,331.265,107.605z M256.489,135.124c0-4.971,4.029-9,9-9h2.046c4.971,0,9,4.029,9,9s-4.029,9-9,9
	h-2.046C260.518,144.124,256.489,140.095,256.489,135.124z M293.651,135.124c0-4.971,4.029-9,9-9h2.046c4.971,0,9,4.029,9,9
	s-4.029,9-9,9h-2.046C297.68,144.124,293.651,140.095,293.651,135.124z M432.033,403.527l-15.346-173.488
	c11.356-21.009,17.811-45.04,17.811-70.552c0-82.081-66.778-148.859-148.859-148.859c-4.793,0-9.637,0.231-14.396,0.688
	c-4.948,0.476-8.574,4.871-8.099,9.819c0.476,4.947,4.869,8.574,9.819,8.099c4.189-0.402,8.454-0.606,12.676-0.606
	c72.156,0,130.859,58.703,130.859,130.859c0,72.155-58.703,130.858-130.859,130.858c-72.156,0-130.859-58.703-130.859-130.858
	c0-26.798,8.044-52.558,23.263-74.493c2.833-4.084,1.82-9.691-2.264-12.524s-9.691-1.819-12.525,2.265
	c-17.319,24.963-26.474,54.271-26.474,84.753c0,25.513,6.455,49.545,17.813,70.556l-15.343,173.481
	c-5.212,5.077-9.104,11.495-11.122,18.693c-13.7-5.645-22.457-19.228-20.417-33.553l21.588-151.573
	c3.355-23.561-10.207-56.629-31.355-77.825c4.883-17.687,0.566-36.55-11.893-50.476C72.178,93.285,51.102,87.128,31.049,92.715
	c-2.694,0.752-4.887,2.713-5.932,5.308c-7.777,19.313-3.991,40.941,9.881,56.445c10.487,11.722,25.089,18.101,40.258,18.101
	c3.204,0,6.434-0.291,9.655-0.87c17.17,17.074,29.128,44.873,26.566,62.855L89.89,386.126c-3.485,24.471,12.552,47.504,36.68,54.61
	v16.111c0,4.971,4.029,9,9,9h57.321h65.748c4.971,0,9-4.029,9-9v-0.298h36.001v0.298c0,4.971,4.029,9,9,9h65.748h57.323
	c4.971,0,9-4.029,9-9v-23.345C444.71,421.76,439.845,411.138,432.033,403.527z M48.413,142.466
	c-8.239-9.208-11.151-21.651-8.046-33.368c11.986-1.788,24.03,2.484,32.27,11.694c8.239,9.209,11.152,21.651,8.046,33.365
	C68.691,155.944,56.651,151.673,48.413,142.466z M298.831,307.754l-13.193,22.083l-13.191-22.083
	c4.348,0.384,8.746,0.591,13.192,0.591C290.085,308.346,294.483,308.138,298.831,307.754z M144.57,433.502
	c0-7.34,3.332-13.914,8.561-18.297c0.291-0.209,0.574-0.429,0.839-0.67c4.019-3.074,9.036-4.906,14.476-4.906
	c7.118,0,13.813,3.236,18.324,8.648c-1.85,4.723-2.878,9.854-2.878,15.225v14.345h-10.545v-8.352c0-4.971-4.029-9-9-9s-9,4.029-9,9
	v8.352H144.57V433.502z M249.638,447.847h-14.875v-8.352c0-4.971-4.029-9-9-9s-9,4.029-9,9v8.352h-14.873v-14.345
	c0-4.048,1.016-7.862,2.801-11.205c0.176-0.277,0.337-0.562,0.481-0.854c4.151-7.061,11.825-11.814,20.593-11.814
	c3.402,0,6.637,0.72,9.568,2.008c0.812,0.614,1.729,1.103,2.734,1.415c6.928,4.183,11.57,11.784,11.57,20.451V447.847z
	 M267.638,438.549v-5.047c0-13.934-6.847-26.291-17.347-33.907l5.323-52.18c0.504-4.944-3.095-9.362-8.04-9.866
	c-4.941-0.517-9.363,3.095-9.867,8.04l-4.761,46.669c-2.336-0.405-4.733-0.629-7.183-0.629c-7.543,0-14.621,2.016-20.74,5.521
	l8.033-90.814c0.438-4.951-3.221-9.32-8.172-9.758c-4.963-0.455-9.32,3.221-9.758,8.172l-8.074,91.28
	c-5.698-2.844-12.051-4.4-18.609-4.4c-3.512,0-6.921,0.44-10.183,1.258l12.301-139.082c19.892,24.227,47.269,42.081,78.562,50.002
	l28.789,48.194c1.625,2.72,4.559,4.385,7.727,4.385s6.102-1.665,7.727-4.385l28.791-48.194
	c31.294-7.921,58.671-25.777,78.564-50.005l12.303,139.084c-3.262-0.818-6.673-1.259-10.186-1.259c-6.557,0-12.909,1.557-18.607,4.4
	l-8.075-91.28c-0.438-4.951-4.808-8.627-9.758-8.172c-4.951,0.438-8.61,4.807-8.172,9.758l8.034,90.817
	c-6.121-3.507-13.2-5.523-20.746-5.523c-2.449,0-4.845,0.223-7.18,0.629l-4.761-46.669c-0.504-4.944-4.914-8.55-9.867-8.04
	c-4.945,0.504-8.544,4.922-8.04,9.866l5.323,52.179c-10.5,7.616-17.348,19.974-17.348,33.908v5.047H267.638z M321.639,433.502
	c0-8.667,4.643-16.268,11.571-20.451c1.005-0.312,1.921-0.8,2.734-1.414c2.932-1.288,6.167-2.008,9.57-2.008
	c8.766,0,16.438,4.752,20.59,11.812c0.145,0.295,0.308,0.583,0.486,0.863c1.783,3.342,2.797,7.153,2.797,11.198v14.345h-14.874
	v-8.352c0-4.971-4.029-9-9-9s-9,4.029-9,9v8.352h-14.874V433.502z M426.71,447.847h-11.77v-8.352c0-4.971-4.029-9-9-9s-9,4.029-9,9
	v8.352h-9.554v-14.345c0-5.369-1.027-10.5-2.876-15.221c4.512-5.415,11.208-8.652,18.326-8.652c5.438,0,10.455,1.832,14.473,4.905
	c0.266,0.243,0.55,0.465,0.844,0.675c5.226,4.383,8.556,10.955,8.556,18.293V447.847z M193.217,79.608l-0.145,0.084
	c-4.297,2.498-5.755,8.007-3.256,12.304c1.671,2.874,4.688,4.479,7.789,4.479c1.536,0,3.092-0.394,4.516-1.222l6.74-3.919
	c0.034-0.021,0.07-0.04,0.103-0.061l53.191-30.928c0.045-0.025,0.09-0.053,0.135-0.078l6.717-3.906
	c4.297-2.498,5.755-8.007,3.256-12.305c-2.498-4.296-8.008-5.756-12.304-3.256l-0.144,0.084L227.599,3.157
	c-2.825-3.309-7.609-4.123-11.368-1.937l-35.926,20.89c-3.759,2.186-5.418,6.747-3.941,10.838L193.217,79.608z M218.787,20.556
	l25.211,29.524l-34.964,20.33l-13.188-36.515L218.787,20.556z"/>
<g>
</g>
<g>
</g>
<g>
</g>
<g>
</g>
<g>
</g>
<g>
</g>
<g>
</g>
<g>
</g>
<g>
</g>
<g>
</g>
<g>
</g>
<g>
</g>
<g>
</g>
<g>
</g>
<g>
</g>
</svg>
