<?xml version="1.0" encoding="iso-8859-1"?>
<!-- Generator: Adobe Illustrator 18.0.0, SVG Export Plug-In . SVG Version: 6.00 Build 0)  -->
<!DOCTYPE svg PUBLIC "-//W3C//DTD SVG 1.1//EN" "http://www.w3.org/Graphics/SVG/1.1/DTD/svg11.dtd">
<svg version="1.1" id="Capa_1" xmlns="http://www.w3.org/2000/svg" xmlns:xlink="http://www.w3.org/1999/xlink" x="0px" y="0px"
	 viewBox="0 0 197.723 197.723" style="enable-background:new 0 0 197.723 197.723;" xml:space="preserve">
<path d="M170.992,56.286l-3.45-25.617c-0.501-3.722-3.678-6.499-7.433-6.499h-9.838V7.5c0-4.142-3.357-7.5-7.5-7.5h-87.82
	c-4.143,0-7.5,3.358-7.5,7.5v16.67h-9.838c-3.755,0-6.932,2.777-7.433,6.499l-3.45,25.617c-0.289,2.144,0.362,4.309,1.786,5.938
	c1.425,1.629,3.482,2.564,5.646,2.564h2.178l12.157,126.155c0.371,3.846,3.603,6.781,7.466,6.781h85.795
	c0.171,0,0.341-0.006,0.509-0.017c0.172,0.012,0.343,0.018,0.513,0.018c3.842-0.001,7.115-2.937,7.462-6.837l11.191-126.099h2.126
	c2.164,0,4.222-0.935,5.646-2.564C170.63,60.595,171.281,58.43,170.992,56.286z M62.451,15h72.82v9.17h-72.82V15z M44.171,39.17
	h10.78h87.82h10.78l1.43,10.617h-0.412H43.154h-0.412L44.171,39.17z M135.907,182.723H62.776L51.411,64.787h94.963L135.907,182.723z
	"/>
<g>
</g>
<g>
</g>
<g>
</g>
<g>
</g>
<g>
</g>
<g>
</g>
<g>
</g>
<g>
</g>
<g>
</g>
<g>
</g>
<g>
</g>
<g>
</g>
<g>
</g>
<g>
</g>
<g>
</g>
</svg>
