<?xml version="1.0" encoding="iso-8859-1"?>
<!-- Generator: Adobe Illustrator 19.0.0, SVG Export Plug-In . SVG Version: 6.00 Build 0)  -->
<svg version="1.1" id="Capa_1" xmlns="http://www.w3.org/2000/svg" xmlns:xlink="http://www.w3.org/1999/xlink" x="0px" y="0px"
	 viewBox="0 0 482.85 482.85" style="enable-background:new 0 0 482.85 482.85;" xml:space="preserve">
<path id="XMLID_167_" d="M118.569,121.551c0,0,0.001,0,0.001-0.001c0.001-0.001,0.001-0.001,0.002-0.002
	c0.172-0.172,0.343-0.353,0.511-0.537c12.792-13.061,19.839-30.282,19.839-48.593c0-18.559-7.228-36.007-20.351-49.131
	c-13.123-13.123-30.571-20.35-49.13-20.35c-18.314,0-35.537,7.048-48.6,19.844c-0.166,0.152-0.327,0.306-0.483,0.46
	c-0.016,0.016-0.032,0.03-0.048,0.046c-0.014,0.014-0.026,0.028-0.04,0.042c-0.161,0.162-0.321,0.331-0.479,0.504
	C-6.765,50.968-6.6,94.637,20.311,121.549c13.124,13.123,30.572,20.351,49.131,20.351C88,141.899,105.447,134.673,118.569,121.551z
	 M33.252,36.228c4.886-0.415,22.725,6.553,44.275,28.104c21.553,21.554,28.494,39.388,28.105,44.275
	c-4.91,0.388-22.724-6.554-44.276-28.105C39.803,58.951,32.863,41.117,33.252,36.228z M105.843,36.016
	c9.724,9.724,15.079,22.651,15.079,36.402c0,5.712-0.937,11.277-2.715,16.535c-0.082-0.169-0.158-0.333-0.242-0.503
	c-5.771-11.66-15.613-24.746-27.711-36.845C78.157,39.507,65.072,29.666,53.41,23.893c-0.17-0.084-0.334-0.16-0.503-0.242
	c5.257-1.777,10.823-2.714,16.534-2.714C83.193,20.937,96.121,26.292,105.843,36.016z M20.692,55.919
	c0.076,0.157,0.146,0.31,0.225,0.468c5.771,11.661,15.613,24.746,27.71,36.844c12.099,12.098,25.184,21.939,36.845,27.711
	c0.17,0.084,0.335,0.161,0.503,0.243c-5.257,1.777-10.823,2.714-16.535,2.714c-13.751,0-26.679-5.354-36.403-15.079
	C18.755,94.537,14.646,73.88,20.692,55.919z M482.777,280.881c-0.129-2.794-1.55-5.37-3.845-6.969
	c-20.992-14.629-47.876-16.2-70.381-4.181c-10.091-23.431-32.085-38.969-57.622-40.628c-2.79-0.188-5.509,0.946-7.353,3.051
	c-17.069,19.482-21.514,46.437-11.599,70.344c1.837,4.43,4.124,8.632,6.825,12.544c-6.128,17.14-20.262,30.507-38.463,36.147
	c-20.264,6.281-41.678,1.796-58.824-12.296c-14.72-14.872-22.822-34.435-22.822-55.133v-59.965
	c0.004-25.693-11.239-46.273-31.657-57.95c-19.69-11.26-44.611-12.015-65.102-2.35c-3.146-1.615-7.166-2.904-12.065-3.846
	c-5.409-1.04-16.041-2.337-26.476,0.673c-16.356,4.718-24.466,17.726-22.322,35.726c-3.509,16.918,6.107,34.925,26.333,49.323
	v40.474c0,33.88,9.333,66.376,26.769,94.599c-8.666,3.308-16.506,8.655-22.754,15.638c-14.955,16.714-19.037,40.028-10.652,60.845
	c1.045,2.595,3.237,4.557,5.932,5.308c5.275,1.47,10.613,2.186,15.89,2.186c16.351-0.001,32.097-6.879,43.401-19.513
	c4.521-5.055,8.081-10.771,10.588-16.93c4.026,3.176,8.182,6.181,12.454,9.003c2.356,8.504,6.669,16.525,12.839,23.422
	c11.305,12.635,27.049,19.512,43.401,19.512c5.276,0,10.616-0.716,15.891-2.186c2.694-0.751,4.887-2.713,5.933-5.308
	c8.384-20.815,4.302-44.13-10.653-60.844c-4.411-4.93-9.56-9.037-15.302-12.207c-4.353-2.404-9.827-0.822-12.229,3.529
	s-0.822,9.826,3.53,12.229c3.967,2.19,7.529,5.033,10.587,8.451c9.325,10.423,12.541,24.556,8.841,37.793
	c-13.567,2.207-27.26-2.551-36.583-12.971c-4.836-5.407-8.005-11.816-9.443-18.575c-0.036-0.196-0.075-0.391-0.123-0.583
	c-1.484-7.534-0.817-15.479,2.197-22.963c1.857-4.61-0.375-9.854-4.986-11.711c-4.61-1.856-9.854,0.375-11.71,4.986
	c-1.856,4.608-3.099,9.339-3.75,14.094c-4.967-3.936-9.716-8.153-14.199-12.636c-30.868-30.866-47.868-71.768-47.868-115.167
	v-37.039c13.141-2.308,25.146-9.585,33.22-20.44c2.966-3.988,2.138-9.626-1.851-12.593c-3.988-2.967-9.626-2.138-12.593,1.851
	c-6.088,8.186-15.169,13.143-25.205,13.87c-10.581-7.282-17.476-15.511-19.75-23.222c2.781,0.532,5.552,0.804,8.288,0.804
	c18.187,0,34.733-11.368,41.047-28.792c15.294-7.621,34.784-7.25,49.538,1.189c14.572,8.333,22.595,23.363,22.592,42.323v59.966
	c0,25.643,10.081,49.847,28.386,68.154c0.195,0.195,0.398,0.381,0.611,0.558c21.971,18.266,49.662,24.066,75.978,15.91
	c25.167-7.8,44.389-27.089,51.496-51.649l0.047-0.123c1.143-2.993,0.607-6.369-1.404-8.862c-2.956-3.662-5.379-7.748-7.202-12.146
	c-6.687-16.122-4.467-34.135,5.673-48.04c17.003,2.646,31.32,13.799,38.009,29.922c1.103,2.659,1.976,5.41,2.594,8.176
	c0.679,3.033,2.874,5.502,5.808,6.53c2.936,1.028,6.189,0.468,8.613-1.479c2.218-1.782,4.616-3.39,7.125-4.774
	c15.287-8.431,33.436-8.219,48.377,0.315c-0.747,17.194-10.246,32.66-25.53,41.091c-4.043,2.231-8.353,3.883-12.809,4.908
	c-3.114,0.716-5.614,3.029-6.57,6.078c-0.159,0.507-0.329,1.012-0.501,1.483c-11.581,31.356-32.337,58.158-60.022,77.508
	c-26.948,18.834-58.335,29.021-90.769,29.461c-4.97,0.067-8.944,4.151-8.877,9.121c0.066,4.929,4.083,8.878,8.996,8.878
	c0.042,0,0.083,0,0.125-0.001c36.053-0.488,70.921-11.798,100.836-32.705c29.983-20.956,52.645-49.808,65.678-83.595
	c4.359-1.354,8.583-3.154,12.608-5.376C470.632,330.602,483.97,306.76,482.777,280.881z M141.837,414.995
	c-1.515,6.633-4.659,12.767-9.259,17.91c-9.324,10.421-23.018,15.182-36.584,12.973c-3.701-13.237-0.485-27.371,8.841-37.794
	c5.333-5.961,12.341-10.197,20.03-12.186C129.665,402.121,141.408,414.575,141.837,414.995z M82.099,190.503
	c-1.146-0.243-2.268-0.56-3.36-0.95c0.252-6.254,3.093-8.771,5.407-10.153c7.183-4.289,18.968-3.186,25.692-1.335
	C104.427,187.593,93.329,192.88,82.099,190.503z M171.476,207.465c-1.741,1.652-3.97,2.473-6.194,2.473
	c-2.382,0-4.76-0.939-6.529-2.804l-1.432-1.509c-3.422-3.605-3.273-9.302,0.332-12.724c3.604-3.422,9.301-3.275,12.724,0.331
	l1.432,1.509C175.23,198.347,175.082,204.043,171.476,207.465z M290.049,427.273c-1.085-4.851,1.968-9.663,6.818-10.748
	c16.323-3.65,31.649-10.43,45.553-20.147c21.84-15.263,40.522-39.633,47.597-62.085c1.493-4.74,6.543-7.373,11.289-5.879
	c4.74,1.494,7.373,6.548,5.879,11.289c-8.318,26.397-29.183,53.768-54.453,71.429c-15.837,11.069-33.311,18.794-51.935,22.96
	c-0.662,0.147-1.322,0.219-1.974,0.219C294.703,434.31,290.986,431.462,290.049,427.273z M260.291,428.565c0-4.971,4.029-9,9-9
	c0.706,0,1.412-0.006,2.115-0.018c0.051-0.001,0.103-0.001,0.154-0.001c4.9,0,8.913,3.93,8.996,8.849
	c0.084,4.97-3.878,9.066-8.848,9.15c-0.803,0.014-1.61,0.02-2.418,0.02C264.32,437.565,260.291,433.536,260.291,428.565z
	 M141.04,291.314c0,28.682,9.343,55.844,27.019,78.55c3.054,3.922,2.349,9.576-1.573,12.63c-1.643,1.279-3.59,1.898-5.522,1.898
	c-2.681,0-5.333-1.192-7.108-3.472c-20.16-25.896-30.816-56.881-30.816-89.606c0-4.971,4.029-9,9-9
	C137.01,282.314,141.04,286.344,141.04,291.314z"/>
<g>
</g>
<g>
</g>
<g>
</g>
<g>
</g>
<g>
</g>
<g>
</g>
<g>
</g>
<g>
</g>
<g>
</g>
<g>
</g>
<g>
</g>
<g>
</g>
<g>
</g>
<g>
</g>
<g>
</g>
</svg>
