<?xml version="1.0" encoding="iso-8859-1"?>
<!-- Generator: Adobe Illustrator 18.0.0, SVG Export Plug-In . SVG Version: 6.00 Build 0)  -->
<!DOCTYPE svg PUBLIC "-//W3C//DTD SVG 1.1//EN" "http://www.w3.org/Graphics/SVG/1.1/DTD/svg11.dtd">
<svg version="1.1" id="Capa_1" xmlns="http://www.w3.org/2000/svg" xmlns:xlink="http://www.w3.org/1999/xlink" x="0px" y="0px"
	 viewBox="0 0 206.622 206.622" style="enable-background:new 0 0 206.622 206.622;" xml:space="preserve">
<g>
	<path d="M184.69,115.844h-5.012c-0.837-3.736-2.307-7.354-4.411-10.687l3.531-3.531c2.929-2.929,2.929-7.678,0-10.607
		c-2.929-2.929-7.678-2.929-10.606,0l-3.523,3.523c-3.287-2.085-6.895-3.579-10.694-4.43v-4.988c0-4.142-3.358-7.5-7.5-7.5
		s-7.5,3.358-7.5,7.5v4.987c-3.799,0.85-7.406,2.344-10.693,4.429l-3.524-3.526c-2.927-2.93-7.676-2.931-10.606-0.003
		c-2.93,2.928-2.931,7.677-0.003,10.606l3.532,3.534c-4.182,6.616-5.864,14.366-5.045,21.899c-1.225-0.134-2.468-0.208-3.728-0.208
		c-6.681,0-12.914,1.941-18.179,5.278l-3.541-3.54c-2.929-2.929-7.678-2.929-10.606,0c-2.929,2.929-2.929,7.678,0,10.606l3.541,3.54
		c-2.049,3.234-3.567,6.833-4.435,10.678H70.69c-4.142,0-7.5,3.358-7.5,7.5s3.358,7.5,7.5,7.5h4.996
		c0.868,3.845,2.386,7.444,4.436,10.678l-3.54,3.54c-2.929,2.929-2.928,7.678,0.001,10.607c1.465,1.464,3.384,2.196,5.303,2.196
		c1.92,0,3.839-0.732,5.304-2.197l3.54-3.54c3.234,2.049,6.833,3.568,10.678,4.436l-0.001,4.994
		c-0.001,4.143,3.356,7.501,7.499,7.501c0,0,0.001,0,0.001,0c4.142,0,7.499-3.357,7.5-7.498l0.001-4.997
		c3.845-0.868,7.444-2.386,10.678-4.435l3.542,3.542c1.465,1.464,3.384,2.196,5.303,2.196c1.919,0,3.839-0.732,5.304-2.197
		c2.929-2.929,2.928-7.678-0.001-10.607l-3.542-3.542c3.337-5.265,5.278-11.498,5.278-18.179c0-1.253-0.073-2.489-0.206-3.707
		c1.224,0.131,2.461,0.205,3.71,0.205c6.543,0,12.799-1.841,18.193-5.263l3.528,3.526c1.464,1.464,3.383,2.196,5.302,2.196
		c1.92,0,3.84-0.733,5.304-2.198c2.928-2.929,2.928-7.678-0.002-10.607l-3.533-3.532c2.104-3.331,3.574-6.949,4.411-10.684h5.013
		c4.142,0,7.5-3.358,7.5-7.5C192.19,119.202,188.832,115.844,184.69,115.844z M127.969,160.906c0,10.511-8.551,19.063-19.062,19.063
		c-10.512,0-19.064-8.551-19.064-19.063s8.551-19.063,19.063-19.063C119.417,141.844,127.969,150.395,127.969,160.906z
		 M132.992,136.823c-7.424-7.427-7.431-19.501-0.023-26.934c0.008-0.008,0.017-0.015,0.025-0.023
		c0.008-0.008,0.015-0.018,0.023-0.026c3.592-3.58,8.359-5.554,13.432-5.561c0.009,0,0.017,0.001,0.025,0.001
		c0.008,0,0.016-0.001,0.024-0.001c5.074,0.007,9.843,1.982,13.434,5.563c0.007,0.007,0.013,0.015,0.021,0.022
		c0.006,0.006,0.012,0.011,0.018,0.017c7.41,7.436,7.404,19.515-0.018,26.94c-3.6,3.6-8.387,5.583-13.479,5.583
		C141.38,142.404,136.591,140.421,132.992,136.823z"/>
	<path d="M67.647,121.5l0.001-4.997c3.846-0.868,7.445-2.386,10.679-4.436l3.545,3.543c1.464,1.463,3.382,2.195,5.301,2.195
		c1.92,0,3.841-0.733,5.305-2.199c2.928-2.93,2.926-7.679-0.004-10.606l-3.542-3.539c3.336-5.265,5.276-11.496,5.276-18.177
		c0-1.253-0.073-2.49-0.206-3.708c1.225,0.132,2.462,0.205,3.711,0.205c6.543,0,12.799-1.841,18.192-5.263l3.529,3.527
		c1.465,1.464,3.383,2.195,5.302,2.195c1.92,0,3.84-0.733,5.305-2.198c2.928-2.93,2.927-7.679-0.002-10.607l-3.533-3.532
		c2.104-3.331,3.575-6.949,4.412-10.684h5.011c4.142,0,7.5-3.358,7.5-7.5s-3.358-7.5-7.5-7.5h-5.01
		c-0.837-3.735-2.308-7.354-4.412-10.686l3.532-3.531c2.929-2.928,2.93-7.677,0.001-10.606c-2.928-2.929-7.677-2.931-10.606-0.001
		l-3.525,3.524c-3.287-2.086-6.895-3.58-10.694-4.43V7.5c0-4.142-3.358-7.5-7.5-7.5s-7.5,3.358-7.5,7.5v4.986
		c-3.799,0.85-7.407,2.344-10.694,4.429l-3.525-3.526c-2.928-2.929-7.677-2.931-10.606-0.001c-2.929,2.928-2.93,7.677-0.001,10.606
		l3.531,3.532c-4.181,6.616-5.863,14.367-5.044,21.9c-1.225-0.134-2.468-0.208-3.729-0.208c-6.681,0-12.914,1.941-18.179,5.278
		l-3.541-3.54c-2.929-2.929-7.678-2.928-10.606,0.001c-2.929,2.929-2.928,7.678,0.001,10.606l3.54,3.54
		c-2.049,3.233-3.567,6.833-4.435,10.678h-4.995c-4.142,0-7.5,3.358-7.5,7.5c0,4.142,3.358,7.5,7.5,7.5h4.995
		c0.868,3.845,2.386,7.444,4.436,10.678l-3.539,3.539c-2.929,2.929-2.929,7.678,0,10.607c1.465,1.464,3.384,2.197,5.304,2.197
		c1.92,0,3.838-0.732,5.303-2.196l3.54-3.539c3.234,2.049,6.833,3.568,10.678,4.435l-0.001,4.994c0,4.143,3.357,7.501,7.499,7.501
		h0.001C64.288,128.998,67.646,125.641,67.647,121.5z M84.233,59.198c-7.422-7.426-7.43-19.498-0.027-26.931
		c0.01-0.01,0.021-0.018,0.031-0.028c0.01-0.01,0.018-0.021,0.027-0.03c3.592-3.576,8.356-5.549,13.426-5.555
		c0.009,0,0.017,0.001,0.025,0.001c0.008,0,0.016-0.001,0.024-0.001c5.079,0.007,9.853,1.985,13.445,5.575
		c0.003,0.003,0.005,0.006,0.008,0.009c0.002,0.002,0.004,0.003,0.006,0.005c7.424,7.434,7.422,19.523-0.006,26.953
		c-3.599,3.6-8.385,5.582-13.478,5.582C92.622,64.779,87.832,62.796,84.233,59.198z M79.209,83.282
		c0,10.511-8.55,19.063-19.061,19.063c-10.512,0-19.065-8.551-19.065-19.063c0-10.512,8.551-19.063,19.063-19.063
		C70.658,64.219,79.209,72.771,79.209,83.282z"/>
</g>
<g>
</g>
<g>
</g>
<g>
</g>
<g>
</g>
<g>
</g>
<g>
</g>
<g>
</g>
<g>
</g>
<g>
</g>
<g>
</g>
<g>
</g>
<g>
</g>
<g>
</g>
<g>
</g>
<g>
</g>
</svg>
