<?xml version="1.0" encoding="iso-8859-1"?>
<!-- Generator: Adobe Illustrator 19.0.0, SVG Export Plug-In . SVG Version: 6.00 Build 0)  -->
<svg version="1.1" id="Capa_1" xmlns="http://www.w3.org/2000/svg" xmlns:xlink="http://www.w3.org/1999/xlink" x="0px" y="0px"
	 viewBox="0 0 457.481 457.481" style="enable-background:new 0 0 457.481 457.481;" xml:space="preserve">
<path id="XMLID_168_" d="M311.145,109.872H146.297v-0.97c0-15.63-9.884-28.994-23.729-34.172
	c5.193-12.566,15.178-26.948,29.503-24.084c4.876,0.975,9.616-2.186,10.591-7.06s-2.186-9.616-7.06-10.591
	c-11.426-2.284-21.442,0.734-29.743,7c5.241-11.762,13.088-20.818,24.12-22.049c4.94-0.551,8.498-5.002,7.947-9.941
	c-0.55-4.939-4.999-8.509-9.941-7.947c-34.165,3.81-46.173,45.223-48.372,73.833c-15.152,4.428-26.251,18.447-26.251,35.011v4.462
	c-42.229,11.521-73.36,50.215-73.36,96.045v205.709c0,4.971,4.029,9,9,9H36.47c4.218,0,7.87-2.929,8.785-7.046l24.019-108.005
	l10.623,0.071c43.468,2.769,78.616,36.13,84.145,78.79c0.264,2.035,0.766,13.482,0.766,13.482v47.071c0,4.971,4.029,9,9,9h82.401
	c4.971,0,9-4.029,9-9v-120.82h45.094c24.863,0,45.091,20.228,45.091,45.091v33.848c0,0.029,0,0.059,0,0.088v41.794
	c0,4.971,4.029,9,9,9h84.086c4.971,0,9-4.029,9-9V256.209C457.48,175.518,391.834,109.872,311.145,109.872z M265.209,127.872h36.936
	v0.97c0,10.183-8.284,18.467-18.468,18.467s-18.468-8.284-18.468-18.467V127.872z M237.741,127.872h9.468v0.97
	c0,20.107,16.359,36.467,36.469,36.467c20.107,0,36.467-16.359,36.467-36.467v-0.657c3.192,0.222,6.342,0.56,9.467,1.013v73.386
	c0,9.462-7.697,17.159-17.159,17.159H254.9c-9.461,0-17.158-7.697-17.158-17.159V127.872z M91.362,108.902
	c0-9.722,7.552-17.713,17.098-18.416c0.207-0.005,0.412-0.017,0.615-0.035c0.173-0.008,0.348-0.012,0.522-0.015
	c0.601,0.083,1.199,0.103,1.785,0.063c9.459,0.791,16.915,8.742,16.915,18.402v0.97H99.538c-2.754,0-5.479,0.112-8.177,0.333
	V108.902z M182.808,439.481v-22.617c10.901,3.108,19.509,11.716,22.617,22.617H182.808z M373.394,439.481V416.43
	c5.784,1.307,11.112,4.164,15.502,8.388c4.26,4.1,7.263,9.133,8.82,14.663H373.394z M439.48,439.481h-23.313
	c-1.853-10.492-6.944-20.084-14.79-27.634c-7.796-7.501-17.501-12.216-27.982-13.714v-25.382c0-34.788-28.303-63.091-63.091-63.091
	h-54.094c-4.971,0-9,4.029-9,9v120.82H223.88c-3.737-20.852-20.221-37.335-41.072-41.072c0,0-0.122-6.562-0.349-7.352
	c-4.242-53.812-47.634-96.6-101.704-99.9c-0.163-0.01-0.326-0.016-0.488-0.017l-6.996-0.047l10.268-46.171
	c1.079-4.853-1.979-9.66-6.831-10.739c-4.851-1.082-9.66,1.979-10.739,6.831L29.251,406.118h-11.25V209.409
	c0-44.96,36.577-81.537,81.537-81.537h39.495c22.229,0,40.313,18.084,40.313,40.313v80.38c0,14.191-11.545,25.737-25.736,25.737
	s-25.737-11.546-25.737-25.737v-80.38c0-4.971-4.029-9-9-9s-9,4.029-9,9v80.38c0,24.117,19.62,43.737,43.737,43.737
	c24.116,0,43.736-19.62,43.736-43.737v-80.38c0-15.623-6.178-29.833-16.217-40.313h38.612v74.711
	c0,19.387,15.771,35.159,35.158,35.159h57.553c19.387,0,35.159-15.772,35.159-35.159v-69.435
	c53.057,15.751,91.868,64.959,91.868,123.061V439.481z M82.642,176.597c0,4.971-4.029,9-9,9h-2.146c-4.971,0-9-4.029-9-9
	s4.029-9,9-9h2.146C78.613,167.597,82.642,171.627,82.642,176.597z"/>
<g>
</g>
<g>
</g>
<g>
</g>
<g>
</g>
<g>
</g>
<g>
</g>
<g>
</g>
<g>
</g>
<g>
</g>
<g>
</g>
<g>
</g>
<g>
</g>
<g>
</g>
<g>
</g>
<g>
</g>
</svg>
