<?xml version="1.0" encoding="iso-8859-1"?>
<!-- Generator: Adobe Illustrator 18.0.0, SVG Export Plug-In . SVG Version: 6.00 Build 0)  -->
<!DOCTYPE svg PUBLIC "-//W3C//DTD SVG 1.1//EN" "http://www.w3.org/Graphics/SVG/1.1/DTD/svg11.dtd">
<svg version="1.1" id="Capa_1" xmlns="http://www.w3.org/2000/svg" xmlns:xlink="http://www.w3.org/1999/xlink" x="0px" y="0px"
	 viewBox="0 0 188.27 188.27" style="enable-background:new 0 0 188.27 188.27;" xml:space="preserve">
<g>
	<path d="M104.299,77.94c0-7.014-5.687-12.698-12.702-12.698c-7.013,0-12.7,5.685-12.7,12.698c0,7.017,5.688,12.702,12.7,12.702
		C98.612,90.642,104.299,84.957,104.299,77.94z"/>
	<circle cx="72.767" cy="107.786" r="10.161"/>
	<path d="M110.43,92.544c-8.421,0-15.241,6.821-15.241,15.24c0,8.42,6.82,15.242,15.241,15.242c8.415,0,15.239-6.822,15.239-15.242
		C125.669,99.366,118.845,92.544,110.43,92.544z"/>
	<path d="M180.77,71.407c-4.142,0-7.5,3.358-7.5,7.5v7.729h-12.944c-1.436-12.757-6.49-24.429-14.109-33.975l9.177-9.178
		l5.465,5.465c1.464,1.465,3.384,2.197,5.303,2.197c1.92,0,3.839-0.732,5.303-2.197c2.929-2.929,2.929-7.677,0-10.606
		l-21.536-21.537c-2.929-2.93-7.678-2.929-10.606,0c-2.929,2.929-2.929,7.677,0,10.607l5.464,5.464l-9.178,9.179
		c-9.546-7.617-21.217-12.67-33.973-14.106V15h7.729c4.142,0,7.5-3.358,7.5-7.5s-3.358-7.5-7.5-7.5H78.906
		c-4.142,0-7.5,3.358-7.5,7.5s3.358,7.5,7.5,7.5h7.729v12.947c-12.757,1.437-24.428,6.49-33.975,14.108l-9.179-9.181l5.465-5.465
		c2.929-2.929,2.929-7.678,0-10.607c-2.929-2.93-7.678-2.929-10.606,0L16.804,38.341c-2.929,2.929-2.929,7.678,0,10.606
		c1.464,1.465,3.384,2.197,5.303,2.197c1.919,0,3.839-0.732,5.303-2.197l5.465-5.465l9.179,9.18
		c-7.618,9.546-12.671,21.217-14.107,33.973H15.001v-7.726c0-4.142-3.357-7.5-7.5-7.5c-4.142,0-7.5,3.358-7.5,7.5L0,109.364
		c0,4.142,3.358,7.5,7.5,7.5c4.142,0,7.5-3.358,7.5-7.5v-7.729h12.947c1.437,12.756,6.49,24.427,14.107,33.973l-9.179,9.18
		l-5.465-5.465c-2.929-2.93-7.678-2.929-10.607,0c-2.929,2.929-2.929,7.677,0,10.606l21.536,21.537
		c1.464,1.465,3.384,2.197,5.303,2.197s3.839-0.732,5.303-2.197c2.929-2.929,2.929-7.677,0-10.606l-5.465-5.465l9.18-9.181
		c9.546,7.617,21.217,12.67,33.974,14.106v12.948h-7.729c-4.142,0-7.5,3.358-7.5,7.5c0,4.142,3.358,7.5,7.5,7.5h30.456
		c4.142,0,7.5-3.358,7.5-7.5c0-4.142-3.358-7.5-7.5-7.5h-7.726v-12.948c12.756-1.436,24.427-6.488,33.973-14.105l9.178,9.179
		l-5.464,5.464c-2.929,2.929-2.929,7.677,0,10.607c1.464,1.465,3.384,2.197,5.303,2.197c1.919,0,3.839-0.732,5.303-2.197
		l21.536-21.535c2.929-2.929,2.929-7.677,0-10.606c-2.929-2.93-7.678-2.929-10.606,0l-5.465,5.465l-9.178-9.179
		c7.619-9.546,12.672-21.217,14.109-33.974h12.943v7.727c0,4.142,3.357,7.5,7.5,7.5c4.142,0,7.5-3.358,7.5-7.5l0.001-30.455
		C188.27,74.765,184.912,71.407,180.77,71.407z M145.744,94.728c-0.158,13.903-5.833,26.502-14.943,35.703
		c-0.064,0.06-0.131,0.113-0.194,0.175c-0.062,0.062-0.115,0.129-0.175,0.193c-9.21,9.117-21.824,14.793-35.742,14.941
		c-0.184-0.013-0.367-0.028-0.554-0.028c-0.187,0-0.37,0.015-0.553,0.028c-28.119-0.299-50.917-23.183-51.062-51.336
		c0.003-0.091,0.014-0.18,0.014-0.271c0-0.091-0.01-0.18-0.014-0.27c0.147-28.256,23.11-51.21,51.371-51.343
		c0.082,0.003,0.162,0.012,0.244,0.012c0.082,0,0.163-0.01,0.245-0.012c14.04,0.066,26.771,5.763,36.049,14.947
		c0.061,0.065,0.114,0.133,0.177,0.196c0.063,0.063,0.132,0.117,0.196,0.178c9.109,9.201,14.783,21.799,14.94,35.702
		c-0.015,0.196-0.03,0.393-0.03,0.592S145.729,94.532,145.744,94.728z"/>
</g>
<g>
</g>
<g>
</g>
<g>
</g>
<g>
</g>
<g>
</g>
<g>
</g>
<g>
</g>
<g>
</g>
<g>
</g>
<g>
</g>
<g>
</g>
<g>
</g>
<g>
</g>
<g>
</g>
<g>
</g>
</svg>
