<?xml version="1.0" encoding="iso-8859-1"?>
<!-- Generator: Adobe Illustrator 18.0.0, SVG Export Plug-In . SVG Version: 6.00 Build 0)  -->
<!DOCTYPE svg PUBLIC "-//W3C//DTD SVG 1.1//EN" "http://www.w3.org/Graphics/SVG/1.1/DTD/svg11.dtd">
<svg version="1.1" id="Capa_1" xmlns="http://www.w3.org/2000/svg" xmlns:xlink="http://www.w3.org/1999/xlink" x="0px" y="0px"
	 viewBox="0 0 210.662 210.662" style="enable-background:new 0 0 210.662 210.662;" xml:space="preserve">
<g>
	<path d="M188.535,83.205c-9.566,0.003-17.732,6.108-20.812,14.627h-8.619c-1.301-9.375-4.997-17.992-10.459-25.207l6.117-6.118
		c2.908,1.369,6.095,2.115,9.404,2.115c5.91,0,11.466-2.301,15.644-6.48c4.18-4.179,6.482-9.735,6.482-15.645
		c0-5.91-2.302-11.466-6.481-15.646c-4.179-4.179-9.735-6.48-15.645-6.48c-5.91,0-11.466,2.301-15.646,6.481
		c-6.761,6.763-8.196,16.841-4.357,25.041l-6.126,6.125c-7.216-5.461-15.832-9.157-25.207-10.458v-8.622
		c8.518-3.08,14.624-11.246,14.626-20.813C127.455,9.925,117.53,0,105.332,0c-12.2,0-22.126,9.926-22.126,22.126
		c0,5.91,2.3,11.466,6.48,15.645c2.34,2.34,5.122,4.066,8.145,5.155v8.635c-9.374,1.302-17.991,4.997-25.206,10.459l-6.126-6.127
		c3.839-8.199,2.403-18.278-4.357-25.042c-4.179-4.179-9.736-6.48-15.645-6.48c-5.91,0-11.466,2.301-15.645,6.481
		c-8.626,8.627-8.625,22.664,0,31.289c4.179,4.18,9.735,6.481,15.645,6.481c3.309,0,6.496-0.746,9.404-2.115l6.119,6.119
		c-5.461,7.216-9.157,15.832-10.458,25.205l-8.621,0.001c-3.08-8.519-11.246-14.625-20.817-14.625
		c-5.91,0-11.466,2.302-15.645,6.482c-4.179,4.18-6.479,9.737-6.477,15.642c-0.002,12.198,9.922,22.125,22.122,22.128
		c0.001,0,0.001,0,0.002,0c9.567,0,17.734-6.106,20.814-14.626l8.622-0.001c1.301,9.374,4.996,17.991,10.458,25.206l-6.119,6.12
		c-2.908-1.369-6.095-2.115-9.404-2.115c-5.91,0-11.466,2.301-15.645,6.48c-4.179,4.179-6.48,9.735-6.48,15.646
		c0,5.912,2.302,11.468,6.479,15.642c4.179,4.18,9.735,6.482,15.646,6.482c5.91,0,11.466-2.301,15.645-6.48
		c6.763-6.762,8.199-16.841,4.358-25.042l6.127-6.128c7.215,5.462,15.832,9.157,25.206,10.458v8.622
		c-8.519,3.079-14.625,11.246-14.625,20.813c0,5.911,2.301,11.467,6.479,15.646c4.179,4.179,9.735,6.48,15.643,6.48
		c0.001,0,0.008,0,0.009,0c5.908,0,11.463-2.302,15.642-6.482c4.178-4.179,6.478-9.735,6.477-15.644
		c0-9.565-6.105-17.731-14.625-20.811v-8.623c9.374-1.301,17.991-4.995,25.207-10.457l6.125,6.126
		c-3.84,8.2-2.405,18.278,4.358,25.04c4.18,4.18,9.736,6.481,15.646,6.481c5.91,0,11.466-2.302,15.642-6.479
		c4.181-4.178,6.484-9.734,6.484-15.646c0-5.911-2.302-11.467-6.481-15.646c-4.178-4.178-9.733-6.48-15.643-6.48
		c-3.309,0-6.497,0.746-9.405,2.115l-6.118-6.119c5.462-7.215,9.158-15.833,10.459-25.207h8.618
		c3.079,8.519,11.245,14.624,20.81,14.624h0.003c12.2,0,22.126-9.925,22.126-22.125C210.662,93.132,200.737,83.207,188.535,83.205z
		 M133.254,132.957c-0.051,0.048-0.106,0.091-0.156,0.141c-0.05,0.05-0.092,0.104-0.141,0.155
		c-7.008,6.933-16.602,11.251-27.189,11.367c-0.146-0.008-0.29-0.022-0.438-0.022c-0.148,0-0.292,0.014-0.438,0.022
		c-21.4-0.236-38.747-17.655-38.858-39.083c0.002-0.069,0.01-0.137,0.01-0.207c0-0.069-0.008-0.136-0.01-0.206
		c0.112-21.506,17.583-38.978,39.09-39.089c0.069,0.002,0.136,0.01,0.206,0.01c0.07,0,0.137-0.009,0.207-0.011
		c10.677,0.056,20.359,4.389,27.417,11.372c0.049,0.052,0.092,0.107,0.143,0.158c0.051,0.051,0.107,0.094,0.159,0.144
		c6.924,6.999,11.239,16.577,11.365,27.146c-0.01,0.158-0.024,0.315-0.024,0.477c0,0.161,0.014,0.318,0.024,0.477
		C144.495,116.379,140.18,125.959,133.254,132.957z M159.127,41.458c1.347-1.346,3.136-2.087,5.04-2.087
		c1.903,0,3.692,0.741,5.038,2.087c1.346,1.347,2.088,3.136,2.088,5.039c0,1.902-0.741,3.691-2.088,5.039
		c-1.346,1.346-3.134,2.086-5.038,2.086c-1.903,0-3.693-0.741-5.039-2.086C156.35,48.757,156.35,44.236,159.127,41.458z M105.332,15
		c3.928,0,7.124,3.197,7.125,7.124c-0.001,3.929-3.198,7.125-7.127,7.127c-1.903,0-3.692-0.741-5.038-2.087
		c-1.345-1.345-2.086-3.134-2.086-5.037C98.206,18.197,101.402,15,105.332,15z M41.457,51.535c-2.778-2.778-2.778-7.299,0-10.078
		c1.346-1.346,3.134-2.086,5.038-2.086c1.903,0,3.693,0.741,5.038,2.085c2.778,2.779,2.778,7.301,0.002,10.078
		c-1.347,1.346-3.136,2.087-5.04,2.087C44.592,53.622,42.803,52.881,41.457,51.535z M22.126,112.458
		c-3.93-0.002-7.126-3.197-7.125-7.129c-0.001-1.901,0.74-3.689,2.085-5.035c1.346-1.346,3.134-2.087,5.044-2.087
		c3.926,0,7.121,3.197,7.122,7.124C29.25,109.261,26.054,112.458,22.126,112.458z M51.535,169.205
		c-1.347,1.346-3.136,2.087-5.04,2.087c-1.903,0-3.691-0.741-5.04-2.09c-1.345-1.344-2.085-3.132-2.085-5.035
		c0-1.904,0.741-3.693,2.087-5.04c1.346-1.346,3.134-2.087,5.038-2.087c1.903,0,3.693,0.741,5.038,2.086
		C54.312,161.907,54.313,166.428,51.535,169.205z M110.369,193.575c-1.345,1.346-3.132,2.087-5.034,2.087l0,7.5l-0.007-7.5
		c-3.928,0-7.123-3.197-7.123-7.126c0-3.928,3.196-7.124,7.123-7.124c3.93,0.001,7.127,3.197,7.127,7.125
		C112.456,190.44,111.715,192.229,110.369,193.575z M169.205,159.129c1.346,1.346,2.087,3.136,2.087,5.039
		c0,1.902-0.741,3.69-2.088,5.037c-1.346,1.346-3.135,2.087-5.038,2.087c-1.903,0-3.692-0.742-5.039-2.088
		c-2.778-2.778-2.777-7.298-0.002-10.074c1.348-1.347,3.139-2.088,5.043-2.088C166.07,157.042,167.859,157.784,169.205,159.129z
		 M188.534,112.456l-0.001,7.5v-7.5c-3.926,0-7.121-3.196-7.122-7.123c0-3.929,3.198-7.127,7.125-7.128
		c3.929,0,7.126,3.197,7.126,7.126S192.465,112.456,188.534,112.456z"/>
	<circle cx="105.332" cy="93.019" r="8.044"/>
	<circle cx="93.425" cy="113.644" r="8.043"/>
	<circle cx="117.24" cy="113.644" r="8.043"/>
</g>
<g>
</g>
<g>
</g>
<g>
</g>
<g>
</g>
<g>
</g>
<g>
</g>
<g>
</g>
<g>
</g>
<g>
</g>
<g>
</g>
<g>
</g>
<g>
</g>
<g>
</g>
<g>
</g>
<g>
</g>
</svg>
