<?xml version="1.0" encoding="iso-8859-1"?>
<!-- Generator: Adobe Illustrator 19.0.0, SVG Export Plug-In . SVG Version: 6.00 Build 0)  -->
<svg version="1.1" id="Capa_1" xmlns="http://www.w3.org/2000/svg" xmlns:xlink="http://www.w3.org/1999/xlink" x="0px" y="0px"
	 viewBox="0 0 294.843 294.843" style="enable-background:new 0 0 294.843 294.843;" xml:space="preserve">
<g>
	<path d="M288.842,0H6C2.687,0,0,2.687,0,6v282.843c0,3.313,2.687,6,6,6s6-2.687,6-6V63.992h241.421c3.313,0,6-2.686,6-6
		s-2.687-6-6-6H12V12h270.842v270.843H66.421c-3.313,0-6,2.687-6,6s2.687,6,6,6h222.421c3.313,0,6-2.687,6-6V6
		C294.842,2.687,292.156,0,288.842,0z"/>
	<path d="M27.681,27.751c-1.11,1.12-1.75,2.67-1.75,4.25c0,1.58,0.64,3.12,1.75,4.24c1.12,1.11,2.66,1.75,4.24,1.75
		s3.13-0.64,4.25-1.75c1.109-1.12,1.75-2.66,1.75-4.24c0-1.58-0.641-3.13-1.75-4.25c-1.12-1.11-2.67-1.75-4.25-1.75
		C30.351,26.001,28.801,26.641,27.681,27.751z"/>
	<path d="M47.681,27.751c-1.12,1.12-1.76,2.67-1.76,4.25c0,1.57,0.64,3.12,1.76,4.24c1.11,1.11,2.66,1.75,4.24,1.75
		s3.13-0.64,4.24-1.75c1.119-1.12,1.76-2.66,1.76-4.24c0-1.58-0.641-3.13-1.76-4.25c-1.11-1.11-2.66-1.75-4.24-1.75
		S48.792,26.641,47.681,27.751z"/>
	<path d="M67.671,27.751c-1.11,1.12-1.75,2.67-1.75,4.25c0,1.57,0.64,3.12,1.75,4.24c1.12,1.11,2.66,1.76,4.24,1.76
		c1.579,0,3.13-0.65,4.25-1.76c1.119-1.12,1.76-2.67,1.76-4.24c0-1.58-0.641-3.13-1.76-4.25c-1.12-1.11-2.671-1.76-4.25-1.76
		C70.332,25.991,68.792,26.641,67.671,27.751z"/>
</g>
<g>
</g>
<g>
</g>
<g>
</g>
<g>
</g>
<g>
</g>
<g>
</g>
<g>
</g>
<g>
</g>
<g>
</g>
<g>
</g>
<g>
</g>
<g>
</g>
<g>
</g>
<g>
</g>
<g>
</g>
</svg>
