<?xml version="1.0" encoding="UTF-8"?>
<!DOCTYPE svg PUBLIC "-//W3C//DTD SVG 1.1//EN" "http://www.w3.org/Graphics/SVG/1.1/DTD/svg11.dtd">
<!-- Creator: CorelDRAW X6 -->
<svg xmlns="http://www.w3.org/2000/svg" xml:space="preserve" width="150px" height="150px" version="1.1" style="shape-rendering:geometricPrecision; text-rendering:geometricPrecision; image-rendering:optimizeQuality; fill-rule:evenodd; clip-rule:evenodd"
viewBox="0 0 15000 15000"
 xmlns:xlink="http://www.w3.org/1999/xlink">
 <defs>
  <style type="text/css">
   <![CDATA[
    .fil0 {fill:url(#id0)}
    .fil3 {fill:url(#id1)}
    .fil1 {fill:url(#id2)}
    .fil2 {fill:url(#id3)}
   ]]>
  </style>
  <linearGradient id="id0" gradientUnits="userSpaceOnUse" x1="7367.8" y1="12313.5" x2="7367.8" y2="2470.97">
   <stop offset="0" style="stop-color:#4D4D4D"/>
   <stop offset="1" style="stop-color:#B3B3B3"/>
  </linearGradient>
  <linearGradient id="id1" gradientUnits="userSpaceOnUse" x1="9192.01" y1="5370.07" x2="11967.1" y2="12994.6">
   <stop offset="0" style="stop-color:#75A83A"/>
   <stop offset="1" style="stop-color:#CCFF66"/>
  </linearGradient>
  <linearGradient id="id2" gradientUnits="userSpaceOnUse" x1="7367.85" y1="11567.4" x2="7367.85" y2="8085.43">
   <stop offset="0" style="stop-color:#CCCCCC"/>
   <stop offset="1" style="stop-color:#FEFEFE"/>
  </linearGradient>
  <linearGradient id="id3" gradientUnits="userSpaceOnUse" x1="7169.4" y1="5730.63" x2="7169.4" y2="3285.88">
   <stop offset="0" style="stop-color:#B3B3B3"/>
   <stop offset="1" style="stop-color:#E6E6E6"/>
  </linearGradient>
 </defs>
 <g id="Layer_x0020_1">
  <metadata id="CorelCorpID_0Corel-Layer"/>
  <path class="fil0" d="M2896 2471l8109 0c1099,0 1235,860 1283,1098l0 8295c0,247 -202,450 -450,450l-8943 0c-247,0 -450,-202 -450,-450l0 -8943c0,-247 202,-450 450,-450z"/>
  <rect class="fil1" x="3743" y="7339" width="7250" height="4974" rx="344" ry="346"/>
  <path class="fil2" d="M4299 2471l5741 0 0 4075 -5741 0 0 -4075zm3493 794l1376 0 0 2381 -1376 0 0 -2381z"/>
  <path class="fil3" d="M9725 5573l1640 0c146,0 265,119 265,265l0 4275 1416 -13c144,0 235,236 114,350 -699,651 -1420,1278 -2096,1953 -387,387 -464,391 -861,23 -715,-662 -1455,-1300 -2146,-1990 -178,-178 70,-316 193,-316l1211 1 0 -4281c0,-146 119,-265 265,-265z"/>
 </g>
</svg>
