<?xml version="1.0" encoding="utf-8"?>
<!-- Generator: Adobe Illustrator 17.0.2, SVG Export Plug-In . SVG Version: 6.00 Build 0)  -->
<!DOCTYPE svg PUBLIC "-//W3C//DTD SVG 1.1//EN" "http://www.w3.org/Graphics/SVG/1.1/DTD/svg11.dtd">
<svg version="1.1" id="Layer_1" xmlns="http://www.w3.org/2000/svg" xmlns:xlink="http://www.w3.org/1999/xlink" x="0px" y="0px"
	 width="122px" height="120.249px" viewBox="0 0 122 120.249" enable-background="new 0 0 122 120.249" xml:space="preserve">
<g>
	<path fill="#808285" d="M118.954,90.294L93.808,65.148c-0.781-0.781-2.047-0.781-2.828,0c-0.781,0.781-0.781,2.047,0,2.828
		l25.146,25.146c0.774,0.775,0.774,2.035,0,2.81l-19.735,19.735c-0.748,0.75-2.057,0.751-2.811,0l-4.839-4.839l14.092-14.092
		c0.781-0.781,0.781-2.047,0-2.828c-0.781-0.781-2.047-0.781-2.828,0L85.913,108l-7.92-7.92l5.634-5.634
		c0.781-0.781,0.781-2.047,0-2.828c-0.781-0.781-2.047-0.781-2.828,0l-5.634,5.634l-6.481-6.481c-0.781-0.781-2.047-0.781-2.828,0
		c-0.781,0.781-0.781,2.047,0,2.828l24.896,24.897c1.131,1.13,2.635,1.753,4.233,1.753c1.6,0,3.104-0.623,4.233-1.754l19.735-19.735
		C121.288,96.426,121.288,92.628,118.954,90.294z"/>
	<path fill="#808285" d="M27.896,55.639c0.391,0.391,0.902,0.586,1.414,0.586s1.023-0.195,1.414-0.586
		c0.781-0.781,0.781-2.047,0-2.828l-6.473-6.473l5.634-5.634c0.781-0.781,0.781-2.047,0-2.828c-0.781-0.781-2.047-0.781-2.828,0
		l-5.634,5.634l-7.891-7.891l14.092-14.092c0.781-0.781,0.781-2.047,0-2.828c-0.781-0.781-2.047-0.781-2.828,0L10.704,32.791
		L5.04,27.127c-0.774-0.775-0.774-2.036,0-2.811L24.775,4.582c0.75-0.75,2.06-0.751,2.81,0l25.933,25.932
		c0.781,0.781,2.047,0.781,2.828,0c0.781-0.781,0.781-2.047,0-2.828L30.413,1.754C29.283,0.623,27.779,0,26.181,0
		c-1.6,0-3.104,0.623-4.233,1.754L2.212,21.488c-2.334,2.334-2.334,6.132,0,8.467L27.896,55.639z"/>
	<path fill="#808285" d="M100.164,1.806c-1.127-1.127-2.625-1.748-4.218-1.748c-1.594,0-3.092,0.621-4.219,1.748L77.706,15.827
		c-0.122,0.122-0.22,0.262-0.306,0.409L13.617,80.02c-0.509,0.297-0.885,0.807-0.975,1.437c-0.014,0.1-0.013,0.198-0.012,0.296
		L1.598,117.607c-0.219,0.708-0.027,1.479,0.497,2.002c0.381,0.381,0.892,0.586,1.414,0.586c0.196,0,0.395-0.029,0.588-0.088
		l36.456-11.217c0.312-0.096,0.596-0.267,0.826-0.498l64.498-64.499c0.123-0.123,0.221-0.264,0.307-0.411l13.61-13.61
		c2.326-2.326,2.326-6.111,0-8.437L100.164,1.806z M81.901,22.85L23.729,81.021l-4.774-0.682l60.217-60.217L81.901,22.85z
		 M84.729,25.679l11.193,11.193L37.781,95.013l-9.515-1.679l-1.678-9.514L84.729,25.679z M40.579,97.871L98.75,39.7l2.833,2.833
		l-60.295,60.296L40.579,97.871z M16.13,83.976l6.588,0.941l1.851,10.491c0.146,0.828,0.794,1.476,1.622,1.622l10.492,1.852
		l0.96,6.719l-31.112,9.573L16.13,83.976z M116.966,27.045L104.41,39.599L82,17.189L94.556,4.634c0.742-0.741,2.038-0.743,2.78,0
		l19.63,19.63C117.732,25.031,117.732,26.278,116.966,27.045z"/>
</g>
</svg>
