<?xml version="1.0" encoding="utf-8"?>
<!-- Generator: Adobe Illustrator 17.0.2, SVG Export Plug-In . SVG Version: 6.00 Build 0)  -->
<!DOCTYPE svg PUBLIC "-//W3C//DTD SVG 1.1//EN" "http://www.w3.org/Graphics/SVG/1.1/DTD/svg11.dtd">
<svg version="1.1" id="Layer_1" xmlns="http://www.w3.org/2000/svg" xmlns:xlink="http://www.w3.org/1999/xlink" x="0px" y="0px"
	 width="160px" height="120px" viewBox="0 0 160 120" enable-background="new 0 0 160 120" xml:space="preserve">
<g>
	<path fill="#808285" d="M26.045,106H94c3.309,0,6-2.691,6-6V30c0-0.128-0.015-0.251-0.038-0.372
		c-0.001-0.007-0.001-0.014-0.002-0.021c-0.035-0.173-0.098-0.335-0.174-0.489c-0.018-0.037-0.038-0.071-0.058-0.107
		c-0.089-0.155-0.19-0.301-0.315-0.426L71.415,0.587c-0.125-0.126-0.272-0.227-0.427-0.316c-0.035-0.02-0.069-0.039-0.104-0.057
		c-0.154-0.076-0.316-0.14-0.49-0.174c-0.008-0.002-0.017-0.001-0.025-0.003C70.249,0.015,70.126,0,70,0H26.022
		C22.702,0,20,2.691,20,6v94C20,103.309,22.712,106,26.045,106z M72,6.829L93.172,28H74c-1.103,0-2-0.897-2-2V6.829z M24,6
		c0-1.103,0.907-2,2.022-2H68v22c0,3.309,2.691,6,6,6h22v68c0,1.103-0.897,2-2,2H26.045c-1.128,0-2.045-0.897-2.045-2V6z"/>
	<path fill="#808285" d="M36,50h48c1.104,0,2-0.896,2-2s-0.896-2-2-2H36c-1.104,0-2,0.896-2,2S34.896,50,36,50z"/>
	<path fill="#808285" d="M36,68h48c1.104,0,2-0.896,2-2s-0.896-2-2-2H36c-1.104,0-2,0.896-2,2S34.896,68,36,68z"/>
	<path fill="#808285" d="M36,32h21c1.104,0,2-0.896,2-2s-0.896-2-2-2H36c-1.104,0-2,0.896-2,2S34.896,32,36,32z"/>
	<path fill="#808285" d="M36,86h48c1.104,0,2-0.896,2-2s-0.896-2-2-2H36c-1.104,0-2,0.896-2,2S34.896,86,36,86z"/>
	<path fill="#808285" d="M93,18h16v22c0,3.309,2.691,6,6,6h22v68c0,1.103-0.897,2-2,2H67.045c-1.128,0-2.045-0.897-2.045-2v-2
		c0-1.104-0.896-2-2-2s-2,0.896-2,2v2c0,3.309,2.712,6,6.045,6H135c3.309,0,6-2.691,6-6V44c0-0.128-0.015-0.251-0.038-0.372
		c-0.001-0.007-0.001-0.014-0.002-0.021c-0.035-0.173-0.098-0.335-0.174-0.489c-0.018-0.037-0.038-0.071-0.058-0.107
		c-0.089-0.155-0.19-0.301-0.315-0.426l-27.998-27.997c-0.125-0.125-0.271-0.227-0.426-0.316c-0.036-0.02-0.07-0.04-0.107-0.058
		c-0.153-0.076-0.314-0.139-0.487-0.173c-0.011-0.002-0.022-0.001-0.033-0.003C111.244,14.015,111.124,14,111,14H93
		c-1.104,0-2,0.896-2,2S91.896,18,93,18z M115,42c-1.103,0-2-0.897-2-2V20.829L134.172,42H115z"/>
	<path fill="#808285" d="M106,64h19c1.104,0,2-0.896,2-2s-0.896-2-2-2h-19c-1.104,0-2,0.896-2,2S104.896,64,106,64z"/>
	<path fill="#808285" d="M106,82h19c1.104,0,2-0.896,2-2s-0.896-2-2-2h-19c-1.104,0-2,0.896-2,2S104.896,82,106,82z"/>
	<path fill="#808285" d="M106,100h19c1.104,0,2-0.896,2-2s-0.896-2-2-2h-19c-1.104,0-2,0.896-2,2S104.896,100,106,100z"/>
</g>
</svg>
