<?xml version="1.0" encoding="iso-8859-1"?>
<!-- Generator: Adobe Illustrator 16.0.0, SVG Export Plug-In . SVG Version: 6.00 Build 0)  -->
<!DOCTYPE svg PUBLIC "-//W3C//DTD SVG 1.1//EN" "http://www.w3.org/Graphics/SVG/1.1/DTD/svg11.dtd">
<svg version="1.1" id="Capa_1" xmlns="http://www.w3.org/2000/svg" xmlns:xlink="http://www.w3.org/1999/xlink" x="0px" y="0px"
	 width="600.759px" height="600.759px" viewBox="0 0 600.759 600.759" style="enable-background:new 0 0 600.759 600.759;"
	 xml:space="preserve">
<g>
	<g>
		<path d="M203.993,295.287c21.001,0,38.024,17.023,38.024,38.018s-17.023,38.024-38.024,38.024
			c-20.998,0-38.021-17.029-38.021-38.024S182.995,295.287,203.993,295.287z"/>
		<path d="M574.267,325.822l25.782-203.262L415.113,52.378L193.279,158.337L0,76.71l26.099,216.848L1.085,507.093l205.36,38.521
			l209.46-39.892l184.854,42.658L574.267,325.822z M414.428,73.909l163.811,61.731l-11.277,88.88l-163.273-41.301L414.428,73.909z
			 M392.759,85.192l-8.642,93.06l-0.142-0.033L270.929,192.8l-0.677,2.494c-0.142,0.538-13.258,48.995-27.08,71.033
			c-8.946-5.261-19.006-8.784-29.755-10.09l-9.164-81.028L392.759,85.192z M375.476,292.766l-98.251,14.815
			c-5.291-14.969-14.999-27.825-27.606-37.022c12.862-20.531,24.471-60.278,27.394-70.77l106.361-13.728L375.476,292.766z
			 M184.269,176.197l9.079,80.236c-29.864,4.113-54.358,25.2-63.336,53.217l-83.779-12.968l-8.045-77.706
			c27.769-1.838,48.599-10.875,61.948-27c12.034-14.514,15.495-31.685,16.157-44.484L184.269,176.197z M24.187,108.596
			l84.465,35.668c-0.242,11.777-2.905,28.865-14.443,42.791c-12.037,14.514-31.182,22.632-56.998,24.261L24.187,108.596z
			 M23.097,490.921l20.779-174.402l82.626,12.803c-0.062,1.324-0.195,2.636-0.195,3.989c0,18.164,6.307,34.856,16.807,48.108
			l-42.912,34.459l-13.521,86.959L23.097,490.921z M184.975,521.279l-90.721-17.017l13.104-84.252l40.837-32.781
			c12.528,12.95,29.48,21.593,48.421,23.377L184.975,521.279z M141.729,333.311c0-34.348,27.935-62.281,62.264-62.281
			c34.347,0,62.282,27.934,62.282,62.281c0,34.33-27.935,62.265-62.282,62.265C169.663,395.582,141.729,367.641,141.729,333.311z
			 M206.419,525.298l-1.75-0.33l12.12-115.119c36.756-6.135,64.9-38.076,64.9-76.556c0-2.081-0.15-4.114-0.313-6.159l96.038-14.481
			l8.016,81.911c-42.132,1.98-73.625,14.932-93.449,38.857c-23.114,27.923-24.205,62.737-23.008,79.949L206.419,525.298z
			 M276.666,511.917c-0.931-16.337,0.419-48.397,21.264-73.565c18.438-22.26,48.182-34.271,88.244-36.091l8.535,87.154
			L276.666,511.917z M402.973,190.971l163.03,41.225l-9.776,77.017l-160.974-19.431L402.973,190.971z M534.056,375.745
			l-74.175-8.819l13.584,131.58l-59.428-12.773l-16.852-176.034l1.732-0.272l155.612,19.754l23.022,193.354l-96.298-22.213
			l-12.714-124.599l66.111,7.672L534.056,375.745z"/>
	</g>
</g>
<g>
</g>
<g>
</g>
<g>
</g>
<g>
</g>
<g>
</g>
<g>
</g>
<g>
</g>
<g>
</g>
<g>
</g>
<g>
</g>
<g>
</g>
<g>
</g>
<g>
</g>
<g>
</g>
<g>
</g>
</svg>
