<?xml version="1.0" encoding="UTF-8" standalone="no"?>
<!-- Created with Inkscape (http://www.inkscape.org/) -->

<svg
   xmlns:dc="http://purl.org/dc/elements/1.1/"
   xmlns:cc="http://creativecommons.org/ns#"
   xmlns:rdf="http://www.w3.org/1999/02/22-rdf-syntax-ns#"
   xmlns:svg="http://www.w3.org/2000/svg"
   xmlns="http://www.w3.org/2000/svg"
   xmlns:xlink="http://www.w3.org/1999/xlink"
   xmlns:sodipodi="http://sodipodi.sourceforge.net/DTD/sodipodi-0.dtd"
   xmlns:inkscape="http://www.inkscape.org/namespaces/inkscape"
   width="25mm"
   height="25mm"
   viewBox="0 0 50 50"
   version="1.1"
   id="svg8"
   inkscape:version="0.92.1 r15371"
   sodipodi:docname="2d_can.svg">
  <defs
     id="defs2">
    <linearGradient
       inkscape:collect="always"
       id="linearGradient5958">
      <stop
         style="stop-color:#3099c3;stop-opacity:1"
         offset="0"
         id="stop5954" />
      <stop
         style="stop-color:#010101;stop-opacity:0;"
         offset="1"
         id="stop5956" />
    </linearGradient>
    <linearGradient
       inkscape:collect="always"
       xlink:href="#linearGradient5958"
       id="linearGradient5960"
       x1="0.85159564"
       y1="49.378296"
       x2="33.123371"
       y2="15.276637"
       gradientUnits="userSpaceOnUse" />
  </defs>
  <sodipodi:namedview
     id="base"
     pagecolor="#ffffff"
     bordercolor="#666666"
     borderopacity="1.0"
     inkscape:pageopacity="0.0"
     inkscape:pageshadow="2"
     inkscape:zoom="2.8"
     inkscape:cx="-3.3087821"
     inkscape:cy="45.096589"
     inkscape:document-units="mm"
     inkscape:current-layer="layer1"
     showgrid="false"
     inkscape:window-width="1920"
     inkscape:window-height="1031"
     inkscape:window-x="0"
     inkscape:window-y="0"
     inkscape:window-maximized="1" />
  <metadata
     id="metadata5">
    <rdf:RDF>
      <cc:Work
         rdf:about="">
        <dc:format>image/svg+xml</dc:format>
        <dc:type
           rdf:resource="http://purl.org/dc/dcmitype/StillImage" />
        <dc:title />
      </cc:Work>
    </rdf:RDF>
  </metadata>
  <g
     inkscape:label="Layer 1"
     inkscape:groupmode="layer"
     id="layer1">
    <circle
       style="display:inline;opacity:1;fill:url(#linearGradient5960);fill-opacity:1;stroke-width:0.52916664"
       id="path3684"
       cx="24.922882"
       cy="24.809845"
       r="21.047476" />
    <g
       id="g3691"
       transform="matrix(0.28209182,0.16456082,-0.16415743,0.28278501,16.091759,-9.4181309)"
       style="display:inline">
      <path
         style="display:none;fill:#6e7c8f;fill-opacity:1;stroke-width:0.35277778"
         d="M 70.883132,151.36226 C 60.924706,150.55857 41.868104,145.34398 31.79564,137.40818 18.531439,126.34693 10.424014,114.51582 11.866538,109.69099 c 1.442524,-4.82482 19.165867,5.46934 44.06062,26.9681 20.170661,17.4191 61.675602,-0.0202 75.400522,-29.58746 C 142.75761,82.81051 145.30477,58.845618 128.97835,36.616893 122.20434,27.393952 117.65705,19.143773 107.73139,13.94749 82.047371,0.5013868 57.000601,3.872161 33.347541,21.877702 17.870213,33.659589 11.247,49.179606 8.7849199,69.520688 8.2143375,78.216157 14.549605,108.27316 16.650084,115.57381 19.569269,125.72004 19.540861,129.28016 5.0521598,100.92332 4.0462298,98.954545 -0.42484998,83.273832 1.3449119,68.378992 5.821558,33.634193 33.139763,5.5004706 67.568076,1.4946153 107.19074,-3.115621 143.01167,23.526467 150.47371,63.156306 c 1.07312,5.69915 1.30718,16.130993 0.50412,22.467877 -10.52833,38.770367 -36.59207,64.656017 -72.686365,65.743187 -3.104444,0.0755 -6.438194,0.0732 -7.408333,-0.005 z m 0,-3.18639 c -0.582083,-0.0679 -2.550086,-0.29661 -4.373337,-0.50834 C 57.932582,146.6715 47.714137,143.19717 39.64709,138.53405 18.083404,125.01982 4.998891,101.94944 4.1291465,79.064238 3.9184976,71.917605 4.3042033,67.461581 5.6648511,61.322376 9.7733237,42.785062 20.82375,26.552298 36.390665,16.187022 c 1.596091,-1.062761 2.823814,-2.05877 2.728274,-2.213354 -0.09554,-0.154584 0.01217,-0.395934 0.239335,-0.536334 0.257959,-0.159429 0.318531,-0.102354 0.161322,0.152012 -0.138444,0.224007 -0.155088,0.407285 -0.03699,0.407285 0.354334,0 2.296358,-1.06236 2.296358,-1.256193 0,-0.09886 -0.307065,-0.01541 -0.682364,0.185448 -0.375299,0.200854 -0.811862,0.358834 -0.970139,0.351065 -0.158277,-0.0078 0.152552,-0.252936 0.690728,-0.544816 0.538177,-0.291881 1.137423,-0.432475 1.331659,-0.312432 0.194232,0.120043 0.309531,0.02787 0.256219,-0.204836 -0.05331,-0.232703 0.123599,-0.503223 0.393143,-0.601155 0.297712,-0.108168 0.394373,-0.02321 0.24626,0.216445 -0.155029,0.250839 -0.04518,0.318278 0.301646,0.18519 0.300006,-0.115123 0.454875,-0.355888 0.344156,-0.535034 -0.451147,-0.729971 9.004145,-4.4189828 15.198414,-5.9297095 6.982947,-1.703078 9.282332,-1.9534613 17.815278,-1.93993 8.620961,0.013671 11.169478,0.3278527 18.62351,2.2959127 9.827246,2.5946517 19.802136,7.8068498 27.766766,14.5090228 4.03337,3.394046 7.45122,6.887595 7.08502,7.241935 -0.15564,0.150595 -0.52311,-0.08338 -0.81661,-0.519941 -0.2935,-0.436562 -0.69474,-0.79375 -0.89165,-0.79375 -0.19692,0 0.34241,0.754063 1.19851,1.675695 3.90122,4.199892 7.67641,9.880917 10.72516,16.139583 5.41077,11.107575 7.95197,23.328827 7.44545,35.806944 -0.12208,3.007431 -0.29008,5.864931 -0.37332,6.35 -0.0832,0.48507 -0.33431,2.07257 -0.55794,3.527778 -0.56699,3.689731 -1.86899,8.81245 -3.4362,12.523607 -10.66567,25.25626 -49.089844,37.74181 -60.367878,45.66908 -3.420706,0.34496 -9.830876,0.41804 -12.221651,0.13933 z m -21.90854,-32.80543 c 0.149578,0 -0.13843,-0.59531 -0.640013,-1.32292 m -0.853224,-0.44862 c -1.342711,-1.94775 -5.039616,-6.65353 -6.350965,-10.55107 -1.106456,-3.288552 -2.115737,-6.247432 -2.115737,-6.247432 -0.795948,-2.02114 -1.625619,-3.30212 -1.247804,-12.214455 2.022976,-8.988076 2.236337,-14.631824 1.461107,-23.457531 -0.180587,-2.055921 6.606543,-9.017587 7.325147,-8.299321 0.340731,0.340572 -1.84268,8.802747 -1.84268,13.867789 0,6.095908 -0.105128,7.302938 -1.05083,12.065215 -0.923579,4.650874 -1.049072,6.017899 -1.036327,11.288889 0.01753,7.253664 0.397577,8.890574 4.033732,17.374296 1.35473,3.1608 3.316371,6.44088 3.316371,6.74076 m 0,0 c 0,0.29987 -0.168306,0.85971 -0.374015,1.24408 m 19.021608,16.33409 c 0,0 -1.374686,-1.27797 -6.858739,-4.63124 -4.811211,-3.0293 -7.198476,-7.63614 -8.301263,-15.37429 -1.235475,-3.46564 -2.411491,-3.06308 -1.372953,-2.33565 0.431225,0.30204 0.947163,0.54674 1.146528,0.54377 0.199362,-0.003 0.125677,-0.15512 -0.163742,-0.33809 -0.448162,-0.28334 -0.453566,-0.40028 -0.03644,-0.78835 0.356225,-0.33141 0.422572,-0.33652 0.243315,-0.0187 -0.166974,0.296 -0.06497,0.36728 0.316251,0.22099 0.504846,-0.19373 0.49766,-0.29246 -0.06987,-0.96002 -0.576848,-0.67851 -0.578189,-0.70195 -0.01524,-0.26599 0.706271,0.54694 0.839646,0.0629 0.176389,-0.64018 -0.355212,-0.37653 -0.34235,-0.43742 0.06614,-0.31309 0.278914,0.0849 0.659906,0.62066 0.846646,1.19062 0.186743,0.56996 0.514163,1.14956 0.727604,1.28801 0.213441,0.13844 0.395566,0.37656 0.404721,0.52916 0.02727,0.45439 1.885262,3.91627 2.209394,4.11659 0.16455,0.1017 -1.44e-4,-0.70173 -0.365982,-1.78538 -0.658347,-1.95012 -0.635131,-2.9357 0.06916,-2.9357 0.200117,0 0.363848,0.24265 0.363848,0.53923 0,0.98425 2.051523,4.62256 4.256553,7.54885 4.058469,5.386 8.49823,7.82612 14.239519,7.82612 4.384082,0 8.107511,-1.60692 11.831249,-5.10601 1.060793,-0.9968 1.618037,-1.41548 1.238325,-0.93041 -1.043196,1.33264 -3.717985,3.96896 -5.107313,5.03386 l -1.234722,0.9464 1.049814,-0.18926 c 1.537166,-0.27711 5.835142,-2.77545 7.929803,-4.60781 9.023843,-10.09624 9.188333,-16.15919 10.235283,-15.01951 0.92926,1.01156 -1.38778,11.29134 -13.035747,21.77107 -3.61727,1.89439 -10.502276,4.09563 -14.577304,4.38882 l -6.211227,0.29619 c -1.823103,0.0869 7.351624,1.50851 9.578024,1.5434 2.2264,0.0349 8.911076,-0.11214 11.326334,-2.36943 0.948143,-0.88612 3.779545,-0.41875 5.305725,-0.48634 24.560165,-8.14407 24.003895,-29.62355 41.092035,-44.209277 0.22205,-0.02858 0.39766,0.204467 0.59649,0.306701 -0.63638,-0.22595 -0.64517,-0.197922 -0.12204,0.389054 0.59875,0.671823 0.47154,2.411247 -0.41794,5.714527 -0.37283,1.384579 -0.25278,2.556062 0.14415,1.406702 2.02372,-5.859865 3.04907,-15.880994 2.34238,-22.892854 C 136.48627,51.5022 126.71327,34.807463 111.08888,24.379411 93.520148,12.653669 71.886919,10.538327 52.177344,18.618922 44.465456,21.780666 38.320035,25.922226 32.077576,32.164687 22.498888,41.743376 16.886136,52.68783 14.568342,66.30641 c -0.981928,5.76948 -0.797073,16.483362 0.378719,21.949943 6.332132,23.887657 13.655908,22.612147 25.891247,33.135087 m 59.777662,1.41905 c -0.1162,-0.1162 0.63942,-1.90592 1.67915,-3.97715 1.03974,-2.07123 2.40469,-5.274 3.03322,-7.11727 1.11935,-3.2826 1.14305,-3.48172 1.1551,-9.70138 0.0111,-5.71548 -0.1032,-6.966328 -1.1436,-12.517861 -1.38625,-7.396953 -1.56331,-13.443133 -0.54255,-18.526587 0.0779,-0.388056 0.23151,-1.261181 0.34131,-1.940278 0.35029,-2.166606 4.24517,-7.752036 3.99061,-5.58543 -0.68354,5.817595 -0.10206,14.272692 0.65838,18.695392 2.01716,11.731703 1.53709,14.033538 1.32898,18.200564 -0.11144,2.23132 -0.66813,7.11175 -1.05435,8.697 -1.41302,5.79971 -8.58857,14.63067 -9.44625,13.773 z m -33.437005,-1.95948 c -3.777699,-2.2647 -7.835484,-8.15808 -8.972257,-13.03098 -0.445922,-1.9115 -0.444285,-3.73834 0.0037,-4.18638 0.322538,-0.32253 0.768051,0.53774 1.171223,2.26159 1.077813,4.60844 4.350755,8.87497 7.860198,12.63285 2.584687,2.76766 16.33512,3.96774 4.450059,4.48143 z m 5.204513,-0.32219 c -0.92106,-0.5784 -1.279396,-0.81629 -1.542688,-0.81629 -0.722221,0 -5.810217,-4.83268 -5.543129,-5.30002 0.126792,-0.22186 0.112039,-0.29711 -0.03277,-0.16722 -0.261958,0.23494 -2.37914,-1.88135 -2.130696,-2.1298 0.07163,-0.0716 1.050699,0.62368 2.175707,1.54512 1.125008,0.92145 1.489844,1.1578 0.810747,0.52523 -3.837496,-3.57459 -4.586111,-4.3359 -4.586111,-4.66383 0,-0.20055 0.275124,-0.146 0.617361,0.1224 0.57168,0.44834 0.578704,0.43196 0.09493,-0.22139 -0.287334,-0.38806 -0.896179,-1.09792 -1.35298,-1.57748 -0.492626,-0.51716 -0.668797,-0.92584 -0.432986,-1.00444 0.274959,-0.0917 0.285888,-0.2671 0.03544,-0.56887 -0.199172,-0.23998 -0.418818,-1.38245 -0.488107,-2.5388 -0.135245,-2.25711 -1.067008,-4.175111 -1.877226,-3.864201 -0.590744,0.226691 -0.627969,-0.561058 -0.05365,-1.135376 0.800163,-0.800164 2.527335,-0.419943 6.075662,1.337507 4.543189,2.2502 8.156025,3.17805 12.374601,3.17805 4.228222,0 7.592434,-0.87746 12.168301,-3.17373 3.524807,-1.768829 5.326426,-2.226823 6.022315,-1.530934 0.448211,0.448211 1.08023,2.657114 0.691526,2.416874 -0.362864,-0.22426 -1.522842,5.75021 -1.560504,6.60908 -1.539154,8.89489 -14.494458,15.98365 -21.465743,12.95812 z m -1.323957,-9.29872 c 0,-0.0732 -0.277813,-0.35106 -0.617361,-0.61736 -0.559527,-0.43881 -0.572005,-0.42633 -0.133195,0.1332 0.460858,0.58764 0.750556,0.77451 0.750556,0.48416 z m -6.912684,-2.72789 c -0.369623,-0.40943 -1.307038,-1.2198 -2.08315,-1.80082 -1.000626,-0.7491 -0.846695,-0.53581 0.529167,0.73319 2.033923,1.87597 2.691663,2.32785 1.553983,1.06763 z m 0.562684,-2.56377 c 0,-0.0733 -0.277813,-0.35107 -0.617361,-0.61737 -0.559527,-0.43881 -0.572005,-0.42633 -0.133195,0.1332 0.460858,0.58764 0.750556,0.77452 0.750556,0.48417 z m 10.759722,-1.27553 c -1.74625,-0.13424 -3.730625,-0.36699 -4.409722,-0.51722 -0.679097,-0.15023 -1.137582,-0.17069 -1.018858,-0.0455 0.411583,0.4341 3.324903,0.8357 5.957747,0.82127 l 2.645833,-0.0145 z m -7.925079,-1.5913 c -1.254347,-0.46562 -2.3371,-0.79012 -2.406113,-0.7211 -0.176241,0.17624 3.513945,1.56769 4.157581,1.56769 0.291042,0 -0.497117,-0.38096 -1.751468,-0.84659 z m 21.109595,-0.68106 c 1.254954,-0.64896 2.25951,-2.09833 1.199342,-1.7304 -1.078537,0.3743 -5.035247,2.26594 -5.035247,2.40728 0,0.33222 2.860693,-0.17257 3.835905,-0.67688 z m 13.314941,3.3283 c -35.493867,50.6951 -17.746934,25.34755 0,0 z m -4.798021,-1.5875 c -0.06602,-1.60543 -0.173087,-2.34655 -0.75437,-5.221909 -0.290272,-1.435862 -0.302687,-2.158023 -0.04159,-2.419121 1.019094,-1.019094 1.97841,5.17034 1.211644,7.81742 l -0.357653,1.23472 z m 4.647231,1.02599 c 0.13346,-1.91139 -0.0686,-10.02713 -0.81943,-13.020432 -0.76852,-3.063628 -2.048235,-5.601807 -3.010525,-5.97107 -0.548012,-0.210295 -0.544403,-0.163813 0.03718,0.478832 0.680155,0.751561 1.031296,3.199183 0.45896,3.199183 -0.184894,0 -0.247897,0.230039 -0.140007,0.5112 0.124718,0.325003 0.0266,0.446133 -0.269374,0.332556 -0.259877,-0.09972 -0.946785,0.428978 -1.554893,1.196774 -0.825591,1.042395 -0.990395,1.474375 -0.68066,1.78411 0.309739,0.309739 0.199422,0.410002 -0.455612,0.414094 -1.008525,0.0063 -1.427794,0.26652 -1.948455,1.209294 -0.581219,1.052432 -5.79416,3.877719 -9.237,5.006229 -2.800078,0.91782 -3.539684,1.01102 -8.023295,1.01102 -4.283188,0 -5.26674,-0.11192 -7.408334,-0.843 -4.127846,-1.40914 -6.967012,-2.945416 -8.708348,-4.712096 -0.909034,-0.922267 -1.783094,-1.676848 -1.942352,-1.676848 -0.159261,0 -0.50111,-0.477908 -0.759661,-1.06202 -0.258554,-0.584112 -1.110512,-1.728565 -1.893242,-2.543228 -0.782725,-0.814666 -1.261787,-1.534992 -1.064581,-1.600729 0.19721,-0.06574 0.277301,-0.430255 0.177987,-0.810038 -0.09932,-0.379786 0.01954,-0.931636 0.264111,-1.226333 0.86191,-1.038539 -0.04478,-0.998223 -1.091533,0.04854 -0.624862,0.624861 -1.404134,2.066173 -1.897585,3.509687 -0.796558,2.330228 -0.834535,2.378152 -0.780493,0.985008 0.03126,-0.80542 0.202848,-1.37469 0.381343,-1.265047 0.178495,0.109644 0.223163,-0.06482 0.09926,-0.387688 -0.123895,-0.32287 -0.07547,-0.587037 0.107619,-0.587037 0.185645,0 0.234025,-0.494308 0.109378,-1.117543 -0.194885,-0.974425 -0.142187,-1.086337 0.411498,-0.873866 0.536878,0.206019 0.566032,0.16057 0.188669,-0.294125 -0.36202,-0.43621 -0.329858,-1.137458 0.170258,-3.712242 0.339121,-1.745946 0.729184,-3.174446 0.866803,-3.174446 0.137619,0 0.276613,-0.198437 0.308875,-0.440972 0.119665,-0.899633 -0.337514,-5.334172 -0.162847,-9.814609 0.09902,-2.539943 0.102294,-4.367201 0.01971,-6.531517 -0.08259,-2.164316 -0.575275,-4.000335 -0.689861,-5.150937 -0.462753,-4.646778 -0.253876,-5.864721 -0.401361,-7.301116 -0.08467,-0.824618 0.776925,-1.452515 0.960139,-1.452515 0.183237,0 2.210931,0.486482 2.210938,1.117072 7e-6,0.630591 1.084271,1.647473 1.592977,5.334001 0.787555,5.707338 1.240101,10.827002 1.428787,21.190322 0.245953,13.508408 -2.641482,13.399575 -0.09375,15.750271 l 1.33822,1.234722 -1.308121,-1.500321 c -0.719466,-0.825179 -1.308118,-1.645631 -1.308118,-1.82323 0,-0.177602 -0.103445,-0.592487 -0.22988,-0.921971 -0.194882,-0.507855 -0.12138,-0.540991 0.482783,-0.217653 0.391965,0.209772 0.838363,0.267931 0.991994,0.129237 0.153634,-0.138695 0.175122,-0.06989 0.04775,0.152901 -0.250028,0.437338 3.169514,2.835077 3.529651,2.474944 0.115146,-0.11515 0.545673,-0.03309 0.956723,0.182337 l 0.747366,0.391699 -0.705555,-0.808221 -0.705556,-0.80822 0.77234,0.405066 c 0.506437,0.265606 0.847609,0.283281 0.99096,0.05133 0.120241,-0.19455 0.09455,-0.35373 -0.05709,-0.35373 -0.151638,0 0.116601,-0.274779 0.596078,-0.61062 0.479482,-0.33584 1.110118,-0.613653 1.401414,-0.617361 0.291295,-0.0037 0.495243,-0.189272 0.453217,-0.412365 -0.05553,-0.294774 1.197755,-0.366924 4.586111,-0.264012 2.564388,0.07789 4.900648,0.175518 5.191689,0.216955 0.291042,0.04144 2.248761,-0.05805 4.350488,-0.221075 2.826981,-0.219287 4.031008,-0.184193 4.627167,0.134859 0.443216,0.237201 1.208702,0.455493 1.701077,0.485088 0.492376,0.0296 0.832453,0.155508 0.755724,0.279805 -0.166141,0.269134 1.258803,1.242279 2.522605,1.722776 0.642249,0.244179 0.831,0.230622 0.6592,-0.04736 -0.160838,-0.260244 0.0025,-0.312296 0.492309,-0.156848 0.609413,0.193421 0.708469,0.105096 0.587368,-0.523734 -0.103421,-0.537012 -0.0028,-0.701594 0.346681,-0.567457 0.270796,0.103911 0.551667,0.01101 0.62416,-0.206488 0.146353,-0.43906 0.972111,-0.0615 0.972111,0.444479 0,0.176308 -0.922624,1.278188 -2.050274,2.448623 -1.127651,1.170436 -1.942808,2.128065 -1.811465,2.128065 0.339362,0 2.043427,-1.312298 3.626231,-2.79255 2.488696,-2.327448 2.432311,-1.974998 2.512949,-15.707804 0.05561,-9.470651 0.214041,-13.359331 0.676346,-16.601034 1.30719,-9.166134 1.610741,-12.572147 1.621321,-18.192221 0.01528,-8.116945 -0.793648,-10.604466 -4.075741,-12.533223 -3.649391,-2.144605 -8.792242,-2.77124 -20.583896,-2.508061 -9.079575,0.202647 -11.733357,0.557902 -15.151297,2.02826 -2.110666,0.907984 -4.28568,4.09152 -4.894969,5.990661 -0.237839,0.741337 0.527061,3.031548 0.40107,6.815089 -0.211053,6.337985 -0.478136,2.548619 -1.327559,-0.121339 -1.245162,-3.913867 -0.507055,-12.645305 1.509666,-14.526411 1.315904,-1.227416 6.925617,-2.812199 10.364513,-3.492516 4.616439,-0.913271 21.439941,-1.196391 26.239783,-0.29052 3.796351,0.716486 6.776635,5.836881 7.716016,7.484938 2.184167,3.831921 1.494587,3.439414 1.861537,5.4223 0.35861,1.937865 -0.35805,12.842244 -0.689272,15.255 -0.331283,2.413198 0.154382,5.37174 -0.0049,7.249559 -0.06583,0.776111 -0.357218,2.852698 -0.488761,4.016864 -0.345885,3.061021 0.31367,6.800901 0.293881,8.537141 -0.01979,1.73624 -0.394322,2.681669 0.012,5.918378 0.406322,3.23671 -0.258651,3.724878 -0.190554,4.233365 0.06809,0.508483 0.250814,1.006863 0.406043,1.107514 0.155233,0.100647 0.387493,0.520576 0.516123,0.933178 0.43792,1.404648 1.91127,6.81494 2.12875,8.996398 0.88947,2.04103 0.10036,14.357075 -0.32876,14.357075 -0.19105,0 -0.50497,-1.28041 -0.46094,-1.91101 z M 50.273484,95.282511 c 0.01693,-0.410968 0.10052,-0.494559 0.213134,-0.213137 0.101907,0.254659 0.08938,0.558934 -0.02783,0.676158 -0.117228,0.117225 -0.200604,-0.09114 -0.185286,-0.463021 z M 50.626261,93.8714 c 0.01693,-0.410968 0.100521,-0.494559 0.213135,-0.213137 0.101906,0.254659 0.08938,0.558934 -0.02784,0.676158 -0.117228,0.117225 -0.200603,-0.09114 -0.185286,-0.463021 z m 12.496038,-8.260429 c -0.417851,-0.676099 -0.589654,-15.31838 -0.192009,-16.364267 0.208788,-0.549152 1.180412,-1.814756 2.159165,-2.812458 1.562196,-1.592442 1.705653,-1.857092 1.174532,-2.166782 C 65.03801,63.552616 63.29841,61.887407 63.29841,61.4287 c 0,-0.259941 -0.357188,-0.739277 -0.79375,-1.065195 -0.535824,-0.400021 -0.593143,-0.524753 -0.176389,-0.383854 0.881673,0.298087 0.762607,-0.0825 -0.283161,-0.905104 -0.495289,-0.389594 -0.81244,-0.796435 -0.704786,-0.904088 0.107653,-0.107657 -0.07181,-0.491374 -0.398816,-0.85271 -0.550005,-0.607748 -0.551388,-0.70013 -0.01848,-1.233046 0.473537,-0.473534 0.672726,-0.495861 1.119064,-0.125434 0.298644,0.247851 0.440831,0.615929 0.315976,0.817954 -0.135689,0.219551 -0.05498,0.260988 0.200635,0.103011 0.243773,-0.150661 1.040942,0.141559 1.854031,0.679633 2.64729,1.751895 4.731399,2.110748 12.291226,2.116371 5.865713,0.0044 7.05606,-0.08583 8.079895,-0.612246 0.6604,-0.339549 1.493837,-0.617361 1.852083,-0.617361 0.358246,0 0.651355,-0.15875 0.651355,-0.352778 0,-0.194028 0.32687,-0.352778 0.726377,-0.352778 0.399506,0 0.628678,-0.158076 0.509273,-0.351278 -0.119405,-0.193202 0.188726,-0.536184 0.684735,-0.76218 0.496012,-0.225997 2.570059,-2.565927 3.484335,-1.521072 0.914277,1.044856 -0.753945,3.08307 -1.19407,3.361567 -0.278568,0.176269 -0.379243,0.322922 -0.223725,0.325893 0.155519,0.0028 -0.102651,0.362588 -0.573712,0.799151 -0.471057,0.436562 -0.895131,0.9525 -0.942382,1.146527 -0.04725,0.194028 -0.205761,0.670278 -0.352245,1.058334 -0.14648,0.388055 -0.377441,1.367807 -0.513242,2.177224 -0.253655,1.511854 -0.82198,2.022807 -1.822771,1.638766 -0.481584,-0.184799 -0.508907,-0.104264 -0.175797,0.51816 0.848907,1.586191 1.474174,13.637937 0.79671,15.356226 -0.242076,0.613999 -0.277407,0.612831 -0.857684,-0.02836 -0.48339,-0.534141 -1.234935,0.09056 -1.058849,-1.436526 0.121253,-1.051549 -0.08333,-5.096294 -0.08239,-7.469197 0.0025,-5.883232 0.53585,-6.447219 -3.71006,-6.881654 -1.248639,-0.127759 -2.388055,-0.305097 -2.532034,-0.394078 -0.143979,-0.08898 -0.551427,-0.0068 -0.905443,0.182686 -0.354013,0.189463 -0.840236,0.222987 -1.080492,0.0745 -0.240259,-0.148488 -1.111807,-0.167545 -1.936774,-0.04234 -0.824968,0.125197 -1.91703,0.116085 -2.426808,-0.02025 -1.183887,-0.316621 -3.603548,0.692335 -4.855087,1.512378 -0.528913,0.346555 -1.106516,0.966885 -1.121361,1.284117 -0.01485,0.317232 -0.05022,0.868546 -0.132678,1.256602 -0.144876,0.6818 0.359995,7.755982 0.4901,8.113755 0.299949,0.824801 -0.556588,3.256356 -0.952839,3.901382 -0.271554,0.442041 0.02822,1.182287 0.144746,1.370836 0.340392,0.550768 22.291139,0.455066 22.51437,-0.09816 0.09786,-0.242535 -1.237822,-0.217599 -1.222504,0.194711 0.01531,0.412309 0.12707,1.245746 0.248338,1.852083 0.142416,0.712089 0.07996,1.10243 -0.176389,1.10243 -0.218281,0 -0.396886,-0.198437 -0.396896,-0.440972 -1.8e-5,-0.343697 -2.519292,-0.440972 -11.420387,-0.440972 -8.991367,0 -11.384368,0.09379 -11.251124,0.440972 0.204942,0.534 -1.51982,0.616814 -1.846245,0.08865 z m 10.94624,-3.800136 c -1.308287,-0.455154 -2.012876,-0.98141 -2.775155,-2.07276 -2.799637,-4.008237 -0.0091,-9.728595 4.687447,-9.608855 1.643031,0.04189 1.478079,0.850519 -0.863889,1.233565 -2.943338,0.481401 -4.357622,3.685532 -3.442692,6.3101 0.422825,1.21292 1.616548,2.589922 3.12952,2.850847 0.560038,0.09658 1.315942,0.265751 1.989374,0.187828 0.673432,-0.07792 1.388166,-0.238492 1.978127,-0.543573 1.295429,-0.669889 1.184411,-0.880962 1.806257,-1.649436 0.570421,-1.072703 1.307682,-2.130814 0.534164,-3.143501 -0.440101,-1.634409 -2.123432,-3.496268 -3.240073,-3.850675 -0.390726,-0.124012 -0.08591,-0.871531 0.0077,-0.965133 0.316272,-0.316273 2.262314,0.907616 3.183068,2.001869 2.45365,2.915997 1.737201,7.311757 -1.458236,8.94698 -1.669923,0.854559 -3.639809,0.962294 -5.535612,0.302744 z m -1.06287,-25.152251 c -3.975121,-0.609815 -8.658536,-2.420426 -9.975159,-3.856398 -1.153745,-1.258333 -2.126654,-3.206929 -2.554601,-5.116516 -0.292732,-1.30623 -0.248345,-2.138094 0.213384,-3.999039 1.08512,-4.373443 2.608245,-6.365547 6.313283,-8.257169 1.164167,-0.59437 1.901899,-1.154207 1.639405,-1.244081 -0.53575,-0.183431 -5.229818,1.566792 -5.537557,2.064723 -0.108948,0.176283 -0.546431,0.50069 -0.972188,0.720908 -1.416287,0.732561 1.184275,-1.778773 3.162642,-3.054131 3.756409,-2.421578 8.370203,-3.238828 14.489031,-2.56647 3.490479,0.383546 5.742679,1.215114 8.561723,3.161202 1.809775,1.249353 4.343718,4.53224 3.498272,4.53224 -0.200699,0 -0.27358,0.147782 -0.16195,0.328401 0.111633,0.180622 0.04162,0.428117 -0.155568,0.549988 -0.197192,0.12187 -0.358532,0.08853 -0.358532,-0.0741 0,-0.588578 -2.659514,-3.015329 -4.396316,-4.011552 -2.603994,-1.493634 -2.761446,-1.249436 -0.243653,0.377892 2.363304,1.527478 3.687547,3.252417 3.465025,4.513491 -0.07785,0.441191 -0.0014,0.888725 0.169676,0.994516 0.171171,0.105788 0.215589,0.347077 0.09871,0.536198 -0.116882,0.18912 -7.06e-4,0.598865 0.257796,0.910544 0.722147,0.870133 0.609208,4.948036 -0.18106,6.53747 -1.591606,3.20114 -4.483915,5.429031 -8.383647,6.457763 -2.471911,0.652077 -6.477381,0.873248 -8.948713,0.494125 z m 1.216409,-1.218255 c 0.582108,0.359763 2.812708,0.433959 2.597912,0.08641 -0.09633,-0.155864 0.235035,-0.180442 0.73636,-0.05462 0.501329,0.125825 0.911504,0.08744 0.911504,-0.0853 0,-0.297099 0.954483,-0.507291 2.734028,-0.602079 0.436562,-0.02325 0.79375,-0.161339 0.79375,-0.30686 0,-0.145521 0.30813,-0.264583 0.684735,-0.264583 0.376604,0 0.789537,-0.169574 0.917628,-0.376827 0.128093,-0.207257 0.446877,-0.294718 0.708409,-0.194356 0.322037,0.123578 0.405035,-0.0011 0.257143,-0.386599 -0.151874,-0.395784 -0.08411,-0.486092 0.22255,-0.296569 0.271925,0.16806 0.642186,-0.01485 0.966033,-0.477196 0.290445,-0.414672 0.711387,-0.642962 0.941945,-0.51085 0.229259,0.131367 0.300355,0.110144 0.157988,-0.04716 -0.142364,-0.157304 0.09576,-0.627818 0.529166,-1.045588 0.433409,-0.41777 0.839608,-0.989206 1.040706,-4.200336 0.201098,-3.211131 0.199298,-3.462791 -0.415869,-4.668801 -0.615165,-1.206009 -4.560849,-1.769176 -4.560849,-1.769176 -2.055344,0.564136 -2.758741,-0.04201 -6.197079,-0.240762 -7.66625,-0.443134 -12.721226,-1.754315 -14.0865,2.906035 -0.433501,1.479754 -0.448483,2.127543 -0.106507,4.605408 0.184996,1.340446 1.54711,3.771896 2.765111,4.935883 1.11876,1.069146 3.674057,2.726528 3.319709,2.153179 -0.108938,-0.176265 0.125945,-0.235754 0.521963,-0.132193 0.396021,0.103562 0.619457,0.287197 0.496524,0.408072 -0.122929,0.12088 0.545462,0.390642 1.485315,0.599469 1.076116,0.239105 1.792185,0.255026 1.933966,0.043 0.123825,-0.18518 0.413787,-0.220102 0.644359,-0.0776 z M 57.839876,34.825927 c -0.114678,-0.185554 -0.481235,-0.243572 -0.814571,-0.128929 -0.470475,0.16181 -0.448339,0.08589 0.09894,-0.339341 0.387748,-0.301281 0.601973,-0.650812 0.476049,-0.776736 -0.276088,-0.276087 1.635424,-2.298179 2.1725,-2.298179 0.208298,0 0.995613,-0.314714 1.749591,-0.699364 1.420298,-0.724583 3.463512,-1.113049 6.594221,-1.253728 1.000771,-0.04497 1.989677,-0.186887 2.197569,-0.315372 0.207892,-0.128484 0.659081,-0.08317 1.002637,0.100696 0.605042,0.323808 0.882753,0.403879 1.400764,0.403879 0.13582,0 0.05645,0.1905 -0.176389,0.423334 -0.29556,0.295562 -0.535093,0.311574 -0.793612,0.05305 -0.258523,-0.258521 -1.349901,-0.02858 -3.615972,0.761842 -4.13971,1.443963 -6.94986,2.655282 -6.94986,2.995748 0,0.146595 -0.485084,0.467464 -1.077958,0.713042 -0.809301,0.335222 -1.178578,0.345889 -1.481667,0.0428 -0.597856,-0.597855 -1.126264,-0.490125 -0.615375,0.12546 0.241543,0.291042 0.349726,0.529167 0.240404,0.529167 -0.109319,0 -0.29259,-0.151817 -0.407271,-0.337371 z m 33.636818,-1.040443 c -1.951447,-1.125919 -6.758238,-3.102577 -8.137152,-3.346176 -0.254081,-0.04489 -0.837981,-0.207649 -1.297555,-0.361696 -0.459574,-0.154047 -1.933131,-0.316155 -3.274568,-0.360241 -3.142961,-0.103292 -3.979425,-0.775016 -1.023712,-0.822093 1.16786,-0.0186 2.214799,0.114094 2.326531,0.294878 0.111728,0.180784 0.361893,0.328697 0.555921,0.328697 0.194028,0 0.274119,-0.127275 0.177977,-0.282834 -0.195933,-0.31703 3.694331,-0.218108 6.130385,0.155883 0.873125,0.134045 1.74625,0.265803 1.940278,0.292794 1.594287,0.221786 4.644732,1.972969 6.099633,3.501645 0.719783,0.756285 1.110263,1.262996 0.867728,1.126024 -0.255002,-0.144014 -0.441078,-0.05429 -0.441223,0.212752 -3.53e-4,0.872487 -1.678164,0.556279 -3.924243,-0.739633 z M 74.251366,29.536729 c -0.281778,-0.178254 -0.663494,-0.230671 -0.848258,-0.11648 -0.184764,0.11419 -0.222662,0.02434 -0.08422,-0.199666 0.341079,-0.551877 0.995006,-0.51208 1.818343,0.110662 0.519557,0.392973 0.557107,0.519351 0.155621,0.523765 -0.291042,0.0032 -0.75971,-0.140027 -1.041488,-0.318281 z m -21.53629,80.965441 c 0,-0.0856 -0.15875,-0.25368 -0.352778,-0.3736 -0.194027,-0.11991 -0.352777,-0.0499 -0.352777,0.15557 0,0.20548 0.15875,0.3736 0.352777,0.3736 0.194028,0 0.352778,-0.07 0.352778,-0.15557 z M 128.20952,25.857833 c 0,-0.07326 -0.27781,-0.351069 -0.61736,-0.617362 -0.55953,-0.43881 -0.572,-0.426332 -0.13319,0.133193 0.46085,0.587639 0.75055,0.774517 0.75055,0.484169 z m 11.45077,15.279217 c -0.12789,-0.206936 -0.15687,-0.451909 -0.0644,-0.544382 0.0925,-0.09247 0.26214,0.07684 0.37703,0.376248 0.23855,0.621633 0.0353,0.730976 -0.31263,0.168134 z m -2.74109,-4.474447 c -1.26456,-1.891771 -3.28158,-4.600711 -4.48226,-6.019866 -1.20068,-1.419156 -2.07878,-2.684558 -1.95134,-2.812006 0.12745,-0.127447 0.34216,-0.06728 0.47713,0.133701 0.13497,0.200983 1.304,1.710718 2.59784,3.354968 2.14596,2.727148 6.14615,8.782787 5.80167,8.782787 -0.0791,0 -1.17848,-1.547813 -2.44304,-3.439584 z"
         id="path3705"
         inkscape:connector-curvature="0"
         sodipodi:nodetypes="ccsscssscsscscccccccccsssccssccsccccccssssccscssccscccccccccscsscscccccccccccscccccccccsscsccccccsccscccccccccssssccccccscccsccccscsscccscccccscccccsccssssccccscccccccsccccscscsccssccscccccccccssccscccsscssccsccccccccccsscccscsccssssscccssccccccccccscccccccccccccccsssssssssssssssssssccccccccscccccccccccccscsccccccccccccssssscscccccccccscscccccccccsscccscssccccscccccscccsccccssscccssssccscsscccssccsscscssccccccccsccsscscsccccscsccscsccsccsscsssccccssscscscccccscccscsccssccsccsscsssccsss" />
      <path
         style="display:inline;fill:#010101;fill-opacity:1;stroke-width:0.35277778"
         d="m 61.791756,149.25016 c -0.117228,-0.11723 -0.421499,-0.12976 -0.676159,-0.0278 -0.281421,0.11262 -0.197831,0.19621 0.213138,0.21314 0.371884,0.0153 0.580245,-0.0681 0.463021,-0.18529 z m 8.492529,-1.23507 C 31.007894,143.48681 3.4903269,108.71434 4.1475777,74.321631 4.9293249,53.740713 14.419943,34.158122 29.912453,21.159338 35.699884,16.303471 44.17838,11.241654 50.205345,9.0441135 c 1.178789,-0.4298079 2.066741,-0.9052673 1.973227,-1.0565762 -0.09352,-0.1513088 0.172519,-0.1855297 0.591181,-0.076047 0.554331,0.1449603 0.686269,0.077809 0.485475,-0.2470827 -0.205397,-0.332341 -0.07322,-0.3818685 0.518182,-0.1941654 0.576654,0.1830226 0.721462,0.1347523 0.529166,-0.1763888 -0.192295,-0.3111412 -0.04749,-0.3594115 0.529167,-0.1763889 0.576654,0.1830225 0.721462,0.1347523 0.529167,-0.1763889 -0.192296,-0.3111412 -0.04749,-0.3594114 0.529166,-0.1763889 0.555018,0.176156 0.718647,0.1301972 0.543786,-0.1527344 -0.176223,-0.2851355 0.04525,-0.3399875 0.749572,-0.1856493 0.681072,0.1492429 0.848162,0.1122122 0.524245,-0.1161853 -0.546132,-0.3850834 2.540596,-1.167923 8.236564,-2.088914 5.632298,-0.9106963 16.44637,-0.8083035 22.204038,0.2102382 12.358699,2.1862758 23.372679,7.0274131 32.901249,14.4615661 1.39777,1.090534 2.54871,2.108987 2.55764,2.263227 0.009,0.154241 -1.21407,-0.647935 -2.71779,-1.782614 -3.47591,-2.622865 -5.02708,-3.703412 -5.02708,-3.50187 0,0.0876 1.37297,1.156809 3.05106,2.376016 19.16738,13.926031 30.58059,39.183195 28.7168,63.54962 -0.83543,10.922081 -2.76503,18.204583 -7.11945,26.869643 -3.44875,6.8628 -7.15244,11.99223 -12.9919,17.99314 -12.22166,12.55957 -28.032353,19.96211 -45.662603,21.37915 -5.012633,0.4029 -6.050019,0.40072 -11.571922,-0.0242 z M 54.213321,15.279456 C 44.114863,20.092917 29.214617,28.840165 23.061643,38.050199 13.624623,52.175932 8.8008061,71.574592 12.230234,88.124265 c 3.006032,15.807505 12.578655,31.495695 29.995825,42.861425 33.108522,15.41855 56.931525,9.43371 69.943601,-0.6319 15.80517,-12.22622 26.0128,-33.331954 28.68655,-46.416022 5.49564,-26.893005 -25.4372,-90.584939 -86.642889,-68.658312 z m 1.364412,108.463174 -2.247602,19.03744 c -0.392438,3.324 -0.463791,3.92836 -0.321086,2.71964 l 0.963258,-8.15891 c 0.463791,-3.92836 1.03461,-8.76327 1.60543,-13.59817 z M 36.530466,107.92919 c -4.788997,-11.938542 2.480036,-29.70174 2.480036,-29.70174 5.210076,-4.644871 10.979777,5.309443 6.407227,11.706886 -3.706648,20.645284 0.108189,22.097724 9.566567,27.766294 11.342307,4.44571 15.269839,3.17595 20.617149,3.16874 7.267502,-0.01 -8.989246,6.64853 -8.899155,7.24033 -6.337475,-0.79173 -8.131657,-1.37867 -12.486809,-2.82258 -12.191166,-5.95015 -14.260416,-8.97227 -17.685015,-17.35802 z m 32.937194,11.15829 c -5.73345,-0.85382 -8.142746,-3.5685 -9.64167,-6.59781 -1.582131,-3.19746 -2.852206,-9.88401 -2.330846,-11.05242 0.285425,-0.63966 2.170288,2.49181 3.118566,5.45153 1.375935,4.29449 8.314179,7.74517 12.707132,7.78057 4.826177,0.0389 21.820755,-1.73621 20.746803,-0.81787 -0.357787,0.30595 -15.464628,5.34944 -24.599985,5.236 z m -3.827732,-12.78136 c -3.160127,-1.38975 -3.42446,-1.94993 -4.646191,-3.46699 -1.221731,-1.51707 -2.281439,-3.963626 -2.281439,-4.164106 0,-0.7522 5.945811,6.081026 16.336404,7.883596 12.226021,-2.57349 18.665393,-8.287954 19.264265,-7.745981 0.57742,0.522559 0.622176,0.780672 0.300267,1.731681 -0.208062,0.61467 -0.68701,1.56073 -1.064327,2.10235 -0.534085,0.76665 -1.175582,1.1797 -1.175582,1.1797 -1.088881,0.99349 -0.612828,0.36653 -2.995937,1.47485 -2.383109,1.10832 -3.674925,1.5838 -4.603536,1.96627 -0.928612,0.38248 -2.882023,1.52507 -5.370789,2.2542 -2.488765,0.72913 -7.668036,-0.67069 -8.881497,-0.94634 -1.213461,-0.27566 -4.881638,-2.26923 -4.881638,-2.26923 z M 109.98409,89.460017 c -1.31607,-7.488552 -8.86621,-11.734031 -8.8462,-14.048687 0.0224,-2.585988 -0.90052,-6.366508 2.65738,-6.057958 4.3945,0.381101 13.46224,8.472814 14.95517,16.968927 1.33966,24.702551 -11.82315,35.815451 -23.706958,41.075161 -9.445071,3.0735 -18.85586,3.56489 -28.341192,0.71224 -1.146353,-1.07517 8.899155,-7.24033 8.899155,-7.24033 13.700764,0.43312 18.55862,-2.52331 26.628525,-7.21642 4.70602,-3.51598 9.21481,-15.795727 7.75412,-24.192933 z M 70.530354,100.79466 C 64.928857,99.315761 62.569225,98.038586 59.484187,94.815802 56.635242,91.839656 55.171254,90.264873 55.092124,87.407332 55.012994,84.549791 53.320318,77.384101 52.609323,66.886035 51.742739,54.090637 45.376515,42.737631 45.376515,42.737631 c -1.743148,-10.028547 3.353337,-9.653066 11.463489,8.916116 1.77428,4.062428 1.800629,9.052517 1.803349,11.59094 0.0076,7.090533 -0.0635,20.898115 1.050538,24.405651 0.573565,0.54362 0.283739,2.234066 2.274724,3.500189 1.990984,1.266124 5.835526,3.971657 5.835526,3.971657 2.618055,1.817917 5.095948,1.763412 8.220464,1.581355 7.668512,-1.21693 10.379401,-0.644837 13.181974,-3.156487 2.71088,-2.496901 2.267742,-2.959213 3.102531,-4.595534 0.669882,-1.313074 0.237668,0.41084 0.611926,-6.662955 C 93.288039,75.35187 91.840267,71.744793 92.681847,64.148415 93.847172,55.490756 101.5545,37.194481 96.401415,34.332097 91.600288,23.999246 76.757038,26.696519 65.41204,28.321183 54.688149,28.961642 53.610836,44.823617 55.521224,48.776707 c 3.498849,7.24003 -5.429293,6.525097 -10.131713,-6.036439 -2.052492,-4.888084 1.622818,-15.084726 2.582271,-16.118585 2.258604,-5.82524 15.513686,-9.363136 28.65737,-6.986549 9.512902,0.126793 25.726088,-0.833192 28.645478,8.755209 4.32934,16.149767 -6.506245,18.929585 -6.15878,33.298902 -2.368938,11.227929 1.75203,22.569417 -2.039655,28.574424 -3.791685,6.005008 -11.241773,9.760321 -15.737609,10.713251 -3.230326,0.6847 -7.817548,0.60734 -10.808243,-0.18226 z M 62.971198,78.448457 c -0.05654,-5.349649 -0.381732,-6.783058 0.08588,-8.19092 0.318883,-0.960067 0.05041,-2.139038 0.778949,-3.099566 0.728538,-0.960528 2.084093,-1.55349 2.668692,-1.923631 L 67.56762,64.561356 65.501446,64.12715 c -0.760688,-0.503399 -1.875889,-1.549118 -2.791131,-3.158157 -3.816521,-6.019031 -0.578649,-2.788289 4.312945,-1.22684 3.012052,0.274353 6.843508,0.483952 12.943699,0.394333 3.831939,-0.0563 7.22894,-5.566954 10.55671,-2.833827 0.843829,0.398071 -1.820289,4.178338 -4.014205,5.995206 -1.139775,1.901741 -10.549518,1.922389 -10.549518,1.922389 -7.777367,0.09822 -7.498042,0.805221 -8.226242,1.461949 -0.430287,0.388055 -1.094818,0.539801 -1.293697,1.024871 -0.198878,0.485069 0.0078,4.048532 -0.03611,8.062638 l -0.182476,7.121866 2.680565,0.379846 c 4.623259,0.214669 3.487177,0.214729 11.903273,-7.06e-4 0,0 8.418692,-2.213329 7.769856,0.792899 0.118573,1.050543 -0.446873,1.521211 -10.909309,2.460871 C 67.203369,87.464147 64.442582,86.95831 63.330957,86.188009 62.219332,85.417707 63.009753,82.09655 62.971198,78.448457 Z m 10.910545,3.238916 c -0.973772,-0.387152 -3.061785,-2.623195 -3.061785,-3.102362 -0.341718,-0.689006 -1.042698,-2.600046 -0.352952,-4.116305 2.32362,-5.107984 6.391877,-4.981045 5.690098,-4.153383 -0.951857,1.122597 -2.740218,2.08799 -3.430032,3.279152 -0.689814,1.191163 -0.709898,2.204531 -0.555012,3.459799 0.309773,2.510535 2.960615,3.104547 4.027123,2.971295 2.116448,-0.264431 3.344546,-0.626899 4.337642,-2.255956 0.365716,-0.599914 1.455346,0.144368 1.456634,0.493699 0.0032,0.880618 -1.74547,2.79031 -3.05683,3.33823 -1.326755,0.554355 -3.772024,0.595874 -5.054886,0.08583 z m 12.829273,-2.799701 c 0,-0.242535 -2.100259,-12.966751 -0.427301,-12.972977 2.861983,-0.01065 2.397078,3.178691 3.556873,7.979112 0.09786,0.242535 0.347243,7.265194 -2.665061,7.144155 -2.951618,0.696646 -0.464511,-1.665217 -0.464511,-2.15029 z M 81.88521,76.387737 c 0,-0.679097 0.264866,-0.906349 0.353602,-0.566801 0.08873,0.339549 0.08873,0.895174 0,1.234722 -0.08873,0.339549 -0.353602,0.01118 -0.353602,-0.667921 z m -2.107915,-3.800042 c -1.577535,-1.466915 -2.219604,-1.455372 -1.69642,-2.074583 0.513119,-0.898573 3.075044,1.146085 3.975843,2.981854 1.068195,2.647469 0.226921,1.231532 -0.451086,1.415279 -0.550456,0.279787 -0.176334,-0.786389 -1.828337,-2.32255 z M 70.752908,56.139111 c -2.376534,-0.515665 -5.032137,-0.04822 -8.019108,-2.22495 -0.401581,-0.354002 -1.359435,-1.310085 -1.927993,-2.277448 -0.874853,-1.48851 -2.199933,-3.260416 -2.167685,-5.201036 0.06413,-3.859201 1.265958,-6.827527 4.039864,-8.943255 2.618757,-1.997392 7.667918,-3.47259 12.438479,-3.59248 2.328334,-0.05851 5.027084,0.06209 5.997223,0.268021 2.457979,0.521742 5.781488,2.125264 7.14375,3.446703 1.87235,1.816244 2.577671,6.839946 0.510414,5.263171 -0.625831,-0.477344 -4.369104,-2.873886 -6.011678,-3.124285 -1.755864,-0.04937 -1.391038,-0.126777 -5.498409,-0.25263 -5.320351,-0.163019 -10.768644,-2.069641 -13.099004,5.779617 -0.891228,4.422083 3.305968,5.222775 8.700276,6.006992 5.383485,0.782644 6.818304,1.086131 10.440962,-1.538109 1.714013,-1.241626 2.485867,-2.397613 3.623297,-5.163549 0.524298,-1.27495 3.878156,2.342959 3.883406,2.847784 0.02205,2.119958 -3.045175,6.163419 -5.704474,7.520093 -3.264087,1.665213 -9.691056,2.19613 -14.34932,1.185361 z M 88.465534,36.909555 c -1.266066,-0.971551 -3.180337,-2.014257 -4.586111,-2.498061 -2.139449,-0.736302 -3.052752,-0.830729 -8.057402,-0.833063 -3.104445,-0.0014 -6.674065,0.117908 -7.932491,0.265236 -2.163434,0.25328 -2.244044,0.237048 -1.480118,-0.298029 2.862743,-2.005142 10.596891,-2.887892 15.398888,-1.757577 3.930551,0.925189 7.16135,2.961188 8.802867,5.547431 0.961225,1.514429 0.181124,1.359566 -2.145633,-0.425937 z m 44.990656,-5.185841 c -0.43881,-0.559525 -0.42633,-0.572003 0.13319,-0.133193 0.58764,0.460858 0.77452,0.750554 0.48417,0.750554 -0.0733,0 -0.35107,-0.277812 -0.61736,-0.617361 z m -6.81751,-7.386848 c -1.73709,-1.671115 -2.98475,-2.974743 -2.77258,-2.896951 0.63755,0.233751 6.52654,5.985534 6.09071,5.948806 -0.0879,-0.0074 -1.58104,-1.380741 -3.31813,-3.051855 z"
         id="path3703"
         inkscape:connector-curvature="0"
         sodipodi:nodetypes="cccccccsscccsccccssssssccscscsccccsccssccsssccsccscccccsssscccssccccccccccssccccccsccssscsccccssscccscccccccscsccccccccccsscsccccscsssssscssccscccsccsccscccscccssccsscsscsccsccscscsccsscsssss" />
    </g>
  </g>
</svg>
