<?xml version="1.0" encoding="iso-8859-1"?>
<!-- Generator: Adobe Illustrator 19.1.0, SVG Export Plug-In . SVG Version: 6.00 Build 0)  -->
<svg version="1.1" id="Capa_1" xmlns="http://www.w3.org/2000/svg" xmlns:xlink="http://www.w3.org/1999/xlink" x="0px" y="0px"
	 viewBox="0 0 31.058 31.058" style="enable-background:new 0 0 31.058 31.058;" xml:space="preserve">
<g>
	<g>
		<path style="fill:#010002;" d="M30.171,31.058H0.887C0.397,31.058,0,30.661,0,30.171V0.888C0,0.398,0.397,0,0.887,0h29.284
			c0.49,0,0.887,0.398,0.887,0.888v29.283C31.058,30.661,30.661,31.058,30.171,31.058z M1.775,29.285h27.509V1.775H1.775V29.285z"/>
	</g>
	<g>
		<path style="fill:#010002;" d="M0.887,31.058c-0.211,0-0.423-0.074-0.593-0.227c-0.364-0.327-0.394-0.889-0.067-1.253l8.874-9.88
			c0.16-0.178,0.384-0.283,0.623-0.293c0.233-0.012,0.471,0.076,0.645,0.238l2.308,2.166l6.991-6.912
			c0.335-0.33,0.87-0.342,1.218-0.027l9.88,8.903c0.187,0.168,0.293,0.407,0.293,0.659v5.738c0,0.49-0.397,0.887-0.887,0.887h-9.88
			c-0.226,0-0.442-0.086-0.607-0.24L9.815,21.56l-8.268,9.204C1.372,30.959,1.13,31.058,0.887,31.058z M20.642,29.285h8.642v-4.457
			l-8.964-8.078l-6.348,6.275L20.642,29.285z"/>
	</g>
	<g>
		<path style="fill:#010002;" d="M10.028,15.796c-2.349,0-4.26-1.912-4.26-4.26c0-2.349,1.911-4.26,4.26-4.26
			s4.259,1.911,4.259,4.26C14.287,13.884,12.376,15.796,10.028,15.796z M10.028,9.052c-1.37,0-2.485,1.114-2.485,2.484
			c0,1.369,1.115,2.484,2.485,2.484c1.37,0,2.484-1.115,2.484-2.484C12.512,10.166,11.397,9.052,10.028,9.052z"/>
	</g>
</g>
<g>
</g>
<g>
</g>
<g>
</g>
<g>
</g>
<g>
</g>
<g>
</g>
<g>
</g>
<g>
</g>
<g>
</g>
<g>
</g>
<g>
</g>
<g>
</g>
<g>
</g>
<g>
</g>
<g>
</g>
</svg>
