<?xml version="1.0" encoding="UTF-8"?>
<!DOCTYPE svg PUBLIC "-//W3C//DTD SVG 1.1//EN" "http://www.w3.org/Graphics/SVG/1.1/DTD/svg11.dtd">
<!-- Creator: CorelDRAW -->
<svg xmlns="http://www.w3.org/2000/svg" xml:space="preserve" width="50px" height="50px" style="shape-rendering:geometricPrecision; text-rendering:geometricPrecision; image-rendering:optimizeQuality; fill-rule:evenodd; clip-rule:evenodd"
viewBox="0 0 50 50"
 xmlns:xlink="http://www.w3.org/1999/xlink">
 <defs>
  <style type="text/css">
   <![CDATA[
    .str1 {stroke:#898989;stroke-width:1.5}
    .str0 {stroke:#C8C8C8;stroke-width:5}
    .fil1 {fill:#B2B3B3}
    .fil0 {fill:#D2D2D2}
   ]]>
  </style>
 </defs>
 <g id="Layer_x0020_1">
  <metadata id="CorelCorpID_0Corel-Layer"/>
  <rect class="fil0 str0" x="2.5" y="2.5" width="45" height="45" rx="9.4488" ry="9.4488"/>
  <path class="fil1 str1" d="M25.711 11.556c1.9008,0.0998 3.7356,0.6046 5.3928,1.4486l3.3242 -3.3244c1.2294,0.6262 2.383,1.4522 3.4112,2.4806 1.0284,1.0282 1.8548,2.182 2.481,3.4114l-3.322 3.3218c0.4166,0.8212 0.7554,1.6972 1.0032,2.6222 0.248,0.9252 0.3928,1.8534 0.4422,2.773l4.5376 1.2158c0.0726,1.3778 -0.066,2.7898 -0.4424,4.1946 -0.3764,1.4046 -0.9624,2.6972 -1.714,3.854l-4.5416 -1.2166c-1.0136,1.5592 -2.3496,2.9132 -3.9458,3.9504l1.2158 4.5374c-1.1566,0.7518 -2.449,1.3376 -3.8536,1.714 -1.4048,0.3764 -2.8172,0.5152 -4.1948,0.4426l-1.2156 -4.5366c-1.9008,-0.1004 -3.7356,-0.6046 -5.3934,-1.449l-3.3238 3.324c-1.2294,-0.6262 -2.383,-1.4522 -3.4112,-2.4806 -1.0284,-1.0282 -1.8548,-2.182 -2.481,-3.4114l3.3222 -3.3222c-0.4166,-0.8212 -0.7556,-1.6972 -1.0034,-2.6218 -0.248,-0.9252 -0.3928,-1.8534 -0.4422,-2.773l-4.5376 -1.2158c-0.0726,-1.3778 0.066,-2.7898 0.4424,-4.1946 0.3764,-1.4046 0.9624,-2.6972 1.714,-3.854l4.5416 1.2166c1.0136,-1.5592 2.3496,-2.9132 3.9458,-3.9504l-1.2158 -4.5374c1.1566,-0.7518 2.449,-1.3376 3.8536,-1.714 1.4048,-0.3764 2.8172,-0.5152 4.1948,-0.4426l1.2158 4.5374zm-2.535 6.6368c3.7596,-1.0074 7.6238,1.2236 8.6312,4.9832 1.0074,3.7596 -1.2236,7.6238 -4.9832,8.6312 -3.7596,1.0074 -7.6238,-1.2236 -8.6312,-4.9832 -1.0074,-3.7596 1.2236,-7.6238 4.9832,-8.6312z"/>
 </g>
</svg>
