<?xml version="1.0" encoding="UTF-8"?>
<!DOCTYPE svg PUBLIC "-//W3C//DTD SVG 1.1//EN" "http://www.w3.org/Graphics/SVG/1.1/DTD/svg11.dtd"><svg version="1.1" width="60" height="100"  viewBox="0 0 21000 29700" preserveAspectRatio="xMidYMid" fill-rule="evenodd" xmlns="http://www.w3.org/2000/svg" xmlns:xlink="http://www.w3.org/1999/xlink"><g visibility="visible" id="Обычный"><desc>Master slide</desc></g><g visibility="visible" id="page1"><desc>Slide</desc><g><desc>Drawing</desc><g><g style="stroke:none;fill:rgb(0,0,0)"><path d="M 10600,11500 L 10600,20500 10400,20500 10400,11500 10600,11500 Z"/></g><g/></g></g><g><desc>Drawing</desc><g><g style="stroke:none;fill:rgb(0,0,0)"><path d="M 10574,20567 L 6074,25567 5926,25433 10426,20433 10574,20567 Z"/></g><g/></g></g><g><desc>Drawing</desc><g><g style="stroke:none;fill:rgb(0,0,0)"><path d="M 15924,27065 L 10424,20565 10576,20435 16076,26935 15924,27065 Z"/></g><g/></g></g><g><desc>Drawing</desc><g><g style="stroke:none;fill:rgb(230,230,76)"><path d="M 10749,3000 L 11246,3021 11726,3084 12187,3186 12627,3325 13044,3500 13435,3709 13799,3950 14134,4221 14437,4520 14706,4846 14940,5196 15136,5569 15291,5962 15405,6375 15475,6804 15499,7249 15475,7694 15405,8123 15291,8536 15136,8929 14940,9302 14706,9652 14437,9978 14134,10277 13799,10548 13435,10789 13044,10998 12627,11174 12187,11313 11726,11415 11246,11478 10749,11499 10252,11478 9772,11415 9311,11313 8871,11174 8454,10998 8063,10789 7699,10548 7365,10277 7062,9978 6793,9652 6559,9302 6363,8929 6207,8536 6094,8123 6024,7694 6000,7249 6024,6804 6094,6375 6207,5962 6363,5569 6559,5196 6793,4846 7062,4520 7365,4221 7699,3950 8063,3709 8454,3500 8871,3325 9311,3186 9772,3084 10252,3021 10749,3000 Z"/></g><g style="stroke:none;fill:rgb(0,0,0)"><path d="M 10753,2900 L 11250,2921 11246,3021 11242,3121 10745,3100 10749,3000 10753,2900 Z"/><path d="M 11246,3021 L 11250,2921 11259,2922 11246,3021 Z"/><path d="M 11259,2922 L 11739,2985 11726,3084 11713,3183 11233,3120 11246,3021 11259,2922 Z"/><path d="M 11726,3084 L 11739,2985 11748,2986 11726,3084 Z"/><path d="M 11748,2986 L 12209,3088 12187,3186 12166,3283 11705,3181 11726,3084 11748,2986 Z"/><path d="M 12187,3186 L 12209,3088 12218,3090 12187,3186 Z"/><path d="M 12218,3090 L 12658,3230 12627,3325 12597,3420 12157,3281 12187,3186 12218,3090 Z"/><path d="M 12627,3325 L 12658,3230 12666,3233 12627,3325 Z"/><path d="M 12666,3233 L 13083,3408 13044,3500 13005,3592 12589,3417 12627,3325 12666,3233 Z"/><path d="M 13044,3500 L 13083,3408 13091,3412 13044,3500 Z"/><path d="M 13091,3412 L 13482,3621 13435,3709 13388,3797 12997,3588 13044,3500 13091,3412 Z"/><path d="M 13435,3709 L 13482,3621 13491,3626 13435,3709 Z"/><path d="M 13491,3626 L 13855,3867 13799,3950 13744,4034 13380,3793 13435,3709 13491,3626 Z"/><path d="M 13799,3950 L 13855,3867 13862,3872 13799,3950 Z"/><path d="M 13862,3872 L 14197,4143 14134,4221 14071,4299 13736,4028 13799,3950 13862,3872 Z"/><path d="M 14134,4221 L 14197,4143 14204,4150 14134,4221 Z"/><path d="M 14204,4150 L 14507,4449 14437,4520 14367,4591 14064,4292 14134,4221 14204,4150 Z"/><path d="M 14437,4520 L 14507,4449 14514,4457 14437,4520 Z"/><path d="M 14514,4457 L 14783,4782 14706,4846 14629,4910 14360,4584 14437,4520 14514,4457 Z"/><path d="M 14706,4846 L 14783,4782 14789,4790 14706,4846 Z"/><path d="M 14789,4790 L 15023,5141 14940,5196 14857,5252 14623,4901 14706,4846 14789,4790 Z"/><path d="M 14940,5196 L 15023,5141 15028,5150 14940,5196 Z"/><path d="M 15028,5150 L 15224,5522 15136,5569 15047,5615 14851,5243 14940,5196 15028,5150 Z"/><path d="M 15136,5569 L 15224,5522 15228,5532 15136,5569 Z"/><path d="M 15228,5532 L 15384,5925 15291,5962 15198,5999 15043,5606 15136,5569 15228,5532 Z"/><path d="M 15291,5962 L 15384,5925 15388,5936 15291,5962 Z"/><path d="M 15388,5936 L 15502,6348 15405,6375 15309,6401 15195,5989 15291,5962 15388,5936 Z"/><path d="M 15405,6375 L 15502,6348 15504,6359 15405,6375 Z"/><path d="M 15504,6359 L 15574,6788 15475,6804 15377,6820 15307,6391 15405,6375 15504,6359 Z"/><path d="M 15475,6804 L 15574,6788 15575,6799 15475,6804 Z"/><path d="M 15575,6799 L 15599,7244 15499,7249 15399,7254 15375,6810 15475,6804 15575,6799 Z"/><path d="M 15499,7249 L 15599,7244 15599,7254 15499,7249 Z"/><path d="M 15599,7254 L 15575,7699 15475,7694 15375,7688 15399,7244 15499,7249 15599,7254 Z"/><path d="M 15475,7694 L 15575,7699 15574,7710 15475,7694 Z"/><path d="M 15574,7710 L 15504,8139 15405,8123 15307,8107 15377,7678 15475,7694 15574,7710 Z"/><path d="M 15405,8123 L 15504,8139 15502,8150 15405,8123 Z"/><path d="M 15502,8150 L 15388,8562 15291,8536 15195,8509 15309,8097 15405,8123 15502,8150 Z"/><path d="M 15291,8536 L 15388,8562 15384,8573 15291,8536 Z"/><path d="M 15384,8573 L 15228,8966 15136,8929 15043,8893 15198,8499 15291,8536 15384,8573 Z"/><path d="M 15136,8929 L 15228,8966 15224,8976 15136,8929 Z"/><path d="M 15224,8976 L 15028,9349 14940,9302 14851,9256 15047,8883 15136,8929 15224,8976 Z"/><path d="M 14940,9302 L 15028,9349 15023,9358 14940,9302 Z"/><path d="M 15023,9358 L 14789,9708 14706,9652 14623,9597 14857,9247 14940,9302 15023,9358 Z"/><path d="M 14706,9652 L 14789,9708 14783,9716 14706,9652 Z"/><path d="M 14783,9716 L 14514,10042 14437,9978 14360,9914 14629,9589 14706,9652 14783,9716 Z"/><path d="M 14437,9978 L 14514,10042 14507,10049 14437,9978 Z"/><path d="M 14507,10049 L 14204,10349 14134,10277 14064,10206 14367,9907 14437,9978 14507,10049 Z"/><path d="M 14134,10277 L 14204,10349 14197,10355 14134,10277 Z"/><path d="M 14197,10355 L 13862,10626 13799,10548 13736,10471 14071,10200 14134,10277 14197,10355 Z"/><path d="M 13799,10548 L 13862,10626 13855,10632 13799,10548 Z"/><path d="M 13855,10632 L 13491,10873 13435,10789 13380,10706 13744,10465 13799,10548 13855,10632 Z"/><path d="M 13435,10789 L 13491,10873 13482,10878 13435,10789 Z"/><path d="M 13482,10878 L 13091,11087 13044,10998 12997,10910 13388,10701 13435,10789 13482,10878 Z"/><path d="M 13044,10998 L 13091,11087 13083,11091 13044,10998 Z"/><path d="M 13083,11091 L 12666,11266 12627,11174 12589,11082 13005,10906 13044,10998 13083,11091 Z"/><path d="M 12627,11174 L 12666,11266 12658,11269 12627,11174 Z"/><path d="M 12658,11269 L 12218,11409 12187,11313 12157,11218 12597,11078 12627,11174 12658,11269 Z"/><path d="M 12187,11313 L 12218,11409 12209,11411 12187,11313 Z"/><path d="M 12209,11411 L 11748,11513 11726,11415 11705,11318 12166,11216 12187,11313 12209,11411 Z"/><path d="M 11726,11415 L 11748,11513 11739,11514 11726,11415 Z"/><path d="M 11739,11514 L 11259,11577 11246,11478 11233,11379 11713,11316 11726,11415 11739,11514 Z"/><path d="M 11246,11478 L 11259,11577 11250,11578 11246,11478 Z"/><path d="M 11250,11578 L 10753,11599 10749,11499 10745,11399 11242,11378 11246,11478 11250,11578 Z"/><path d="M 10749,11499 L 10753,11599 10745,11599 10749,11499 Z"/><path d="M 10745,11599 L 10248,11578 10252,11478 10256,11378 10753,11399 10749,11499 10745,11599 Z"/><path d="M 10252,11478 L 10248,11578 10239,11577 10252,11478 Z"/><path d="M 10239,11577 L 9759,11514 9772,11415 9785,11316 10265,11379 10252,11478 10239,11577 Z"/><path d="M 9772,11415 L 9759,11514 9750,11513 9772,11415 Z"/><path d="M 9750,11513 L 9289,11411 9311,11313 9332,11216 9793,11318 9772,11415 9750,11513 Z"/><path d="M 9311,11313 L 9289,11411 9280,11409 9311,11313 Z"/><path d="M 9280,11409 L 8841,11269 8871,11174 8901,11078 9341,11218 9311,11313 9280,11409 Z"/><path d="M 8871,11174 L 8841,11269 8832,11266 8871,11174 Z"/><path d="M 8832,11266 L 8415,11091 8454,10998 8493,10906 8910,11082 8871,11174 8832,11266 Z"/><path d="M 8454,10998 L 8415,11091 8407,11087 8454,10998 Z"/><path d="M 8407,11087 L 8016,10878 8063,10789 8110,10701 8501,10910 8454,10998 8407,11087 Z"/><path d="M 8063,10789 L 8016,10878 8008,10873 8063,10789 Z"/><path d="M 8008,10873 L 7644,10632 7699,10548 7754,10465 8118,10706 8063,10789 8008,10873 Z"/><path d="M 7699,10548 L 7644,10632 7636,10626 7699,10548 Z"/><path d="M 7636,10626 L 7302,10355 7365,10277 7428,10200 7762,10471 7699,10548 7636,10626 Z"/><path d="M 7365,10277 L 7302,10355 7294,10348 7365,10277 Z"/><path d="M 7294,10348 L 6991,10049 7062,9978 7132,9907 7435,10206 7365,10277 7294,10348 Z"/><path d="M 7062,9978 L 6991,10049 6985,10042 7062,9978 Z"/><path d="M 6985,10042 L 6715,9716 6793,9652 6870,9589 7139,9914 7062,9978 6985,10042 Z"/><path d="M 6793,9652 L 6715,9716 6709,9708 6793,9652 Z"/><path d="M 6709,9708 L 6476,9358 6559,9302 6642,9247 6876,9597 6793,9652 6709,9708 Z"/><path d="M 6559,9302 L 6476,9358 6470,9349 6559,9302 Z"/><path d="M 6470,9349 L 6275,8976 6363,8929 6452,8883 6648,9256 6559,9302 6470,9349 Z"/><path d="M 6363,8929 L 6275,8976 6270,8966 6363,8929 Z"/><path d="M 6270,8966 L 6115,8573 6207,8536 6300,8499 6456,8893 6363,8929 6270,8966 Z"/><path d="M 6207,8536 L 6115,8573 6111,8562 6207,8536 Z"/><path d="M 6111,8562 L 5997,8150 6094,8123 6190,8097 6304,8509 6207,8536 6111,8562 Z"/><path d="M 6094,8123 L 5997,8150 5995,8139 6094,8123 Z"/><path d="M 5995,8139 L 5925,7710 6024,7694 6122,7678 6192,8107 6094,8123 5995,8139 Z"/><path d="M 6024,7694 L 5925,7710 5924,7699 6024,7694 Z"/><path d="M 5924,7699 L 5900,7254 6000,7249 6100,7244 6124,7688 6024,7694 5924,7699 Z"/><path d="M 6000,7249 L 5900,7254 5900,7244 6000,7249 Z"/><path d="M 5900,7244 L 5924,6799 6024,6804 6124,6810 6100,7254 6000,7249 5900,7244 Z"/><path d="M 6024,6804 L 5924,6799 5925,6788 6024,6804 Z"/><path d="M 5925,6788 L 5995,6359 6094,6375 6192,6391 6122,6820 6024,6804 5925,6788 Z"/><path d="M 6094,6375 L 5995,6359 5997,6348 6094,6375 Z"/><path d="M 5997,6348 L 6111,5936 6207,5962 6304,5989 6190,6401 6094,6375 5997,6348 Z"/><path d="M 6207,5962 L 6111,5936 6115,5926 6207,5962 Z"/><path d="M 6115,5926 L 6270,5532 6363,5569 6456,5606 6300,5999 6207,5962 6115,5926 Z"/><path d="M 6363,5569 L 6270,5532 6275,5522 6363,5569 Z"/><path d="M 6275,5522 L 6471,5150 6559,5196 6648,5243 6452,5615 6363,5569 6275,5522 Z"/><path d="M 6559,5196 L 6471,5150 6476,5141 6559,5196 Z"/><path d="M 6476,5141 L 6709,4790 6793,4846 6876,4901 6642,5252 6559,5196 6476,5141 Z"/><path d="M 6793,4846 L 6709,4790 6715,4782 6793,4846 Z"/><path d="M 6715,4782 L 6985,4457 7062,4520 7139,4584 6870,4910 6793,4846 6715,4782 Z"/><path d="M 7062,4520 L 6985,4457 6991,4449 7062,4520 Z"/><path d="M 6991,4449 L 7294,4150 7365,4221 7435,4292 7132,4591 7062,4520 6991,4449 Z"/><path d="M 7365,4221 L 7294,4150 7302,4143 7365,4221 Z"/><path d="M 7302,4143 L 7636,3872 7699,3950 7762,4028 7428,4299 7365,4221 7302,4143 Z"/><path d="M 7699,3950 L 7636,3872 7644,3867 7699,3950 Z"/><path d="M 7644,3867 L 8008,3626 8063,3709 8118,3793 7754,4034 7699,3950 7644,3867 Z"/><path d="M 8063,3709 L 8008,3626 8016,3621 8063,3709 Z"/><path d="M 8016,3621 L 8407,3412 8454,3500 8501,3588 8110,3797 8063,3709 8016,3621 Z"/><path d="M 8454,3500 L 8407,3412 8415,3408 8454,3500 Z"/><path d="M 8415,3408 L 8832,3233 8871,3325 8910,3417 8493,3592 8454,3500 8415,3408 Z"/><path d="M 8871,3325 L 8832,3233 8841,3230 8871,3325 Z"/><path d="M 8841,3230 L 9281,3090 9311,3186 9341,3281 8901,3420 8871,3325 8841,3230 Z"/><path d="M 9311,3186 L 9281,3090 9289,3088 9311,3186 Z"/><path d="M 9289,3088 L 9750,2986 9772,3084 9793,3181 9332,3283 9311,3186 9289,3088 Z"/><path d="M 9772,3084 L 9750,2986 9759,2985 9772,3084 Z"/><path d="M 9759,2985 L 10239,2922 10252,3021 10265,3120 9785,3183 9772,3084 9759,2985 Z"/><path d="M 10252,3021 L 10239,2922 10248,2921 10252,3021 Z"/><path d="M 10248,2921 L 10745,2900 10749,3000 10753,3100 10256,3121 10252,3021 10248,2921 Z"/><path d="M 10749,3000 L 10745,2900 10753,2900 10749,3000 Z"/></g><g style="stroke:none;fill:rgb(197,197,65)"><path d="M 9211,5498 L 9265,5500 9316,5507 9366,5518 9413,5533 9458,5552 9500,5575 9540,5601 9576,5630 9608,5662 9637,5697 9663,5735 9684,5775 9701,5818 9713,5862 9720,5908 9723,5956 9720,6004 9713,6050 9701,6094 9684,6137 9663,6177 9637,6215 9608,6250 9576,6282 9540,6311 9500,6337 9458,6360 9413,6379 9366,6394 9316,6405 9265,6412 9211,6414 9157,6412 9106,6405 9056,6394 9009,6379 8964,6360 8922,6337 8883,6311 8847,6282 8814,6250 8785,6215 8760,6177 8739,6137 8722,6094 8710,6050 8703,6004 8700,5956 8703,5908 8710,5862 8722,5818 8739,5775 8760,5735 8785,5697 8814,5662 8847,5630 8883,5601 8922,5575 8964,5552 9009,5533 9056,5518 9106,5507 9157,5500 9211,5498 Z"/></g><g style="stroke:none;fill:rgb(0,0,0)"><path d="M 9215,5398 L 9269,5400 9265,5500 9260,5600 9207,5598 9211,5498 9215,5398 Z"/><path d="M 9265,5500 L 9269,5400 9277,5401 9265,5500 Z"/><path d="M 9277,5401 L 9329,5408 9316,5507 9303,5606 9252,5599 9265,5500 9277,5401 Z"/><path d="M 9316,5507 L 9329,5408 9338,5409 9316,5507 Z"/><path d="M 9338,5409 L 9388,5420 9366,5518 9344,5616 9295,5605 9316,5507 9338,5409 Z"/><path d="M 9366,5518 L 9388,5420 9396,5423 9366,5518 Z"/><path d="M 9396,5423 L 9444,5438 9413,5533 9383,5628 9336,5613 9366,5518 9396,5423 Z"/><path d="M 9413,5533 L 9444,5438 9452,5441 9413,5533 Z"/><path d="M 9452,5441 L 9497,5460 9458,5552 9419,5644 9375,5625 9413,5533 9452,5441 Z"/><path d="M 9458,5552 L 9497,5460 9505,5464 9458,5552 Z"/><path d="M 9505,5464 L 9548,5486 9500,5575 9453,5663 9411,5640 9458,5552 9505,5464 Z"/><path d="M 9500,5575 L 9548,5486 9556,5491 9500,5575 Z"/><path d="M 9556,5491 L 9595,5517 9540,5601 9484,5684 9445,5658 9500,5575 9556,5491 Z"/><path d="M 9540,5601 L 9595,5517 9603,5523 9540,5601 Z"/><path d="M 9603,5523 L 9639,5552 9576,5630 9513,5708 9477,5678 9540,5601 9603,5523 Z"/><path d="M 9576,5630 L 9639,5552 9646,5559 9576,5630 Z"/><path d="M 9646,5559 L 9679,5591 9608,5662 9538,5733 9505,5701 9576,5630 9646,5559 Z"/><path d="M 9608,5662 L 9679,5591 9685,5598 9608,5662 Z"/><path d="M 9685,5598 L 9715,5634 9637,5697 9560,5761 9531,5726 9608,5662 9685,5598 Z"/><path d="M 9637,5697 L 9715,5634 9721,5642 9637,5697 Z"/><path d="M 9721,5642 L 9746,5679 9663,5735 9579,5791 9554,5753 9637,5697 9721,5642 Z"/><path d="M 9663,5735 L 9746,5679 9751,5688 9663,5735 Z"/><path d="M 9751,5688 L 9772,5729 9684,5775 9595,5822 9574,5782 9663,5735 9751,5688 Z"/><path d="M 9684,5775 L 9772,5729 9777,5738 9684,5775 Z"/><path d="M 9777,5738 L 9794,5781 9701,5818 9608,5854 9591,5812 9684,5775 9777,5738 Z"/><path d="M 9701,5818 L 9794,5781 9797,5791 9701,5818 Z"/><path d="M 9797,5791 L 9809,5835 9713,5862 9617,5889 9604,5844 9701,5818 9797,5791 Z"/><path d="M 9713,5862 L 9809,5835 9812,5846 9713,5862 Z"/><path d="M 9812,5846 L 9819,5892 9720,5908 9622,5924 9614,5878 9713,5862 9812,5846 Z"/><path d="M 9720,5908 L 9819,5892 9820,5903 9720,5908 Z"/><path d="M 9820,5903 L 9823,5951 9723,5956 9623,5961 9621,5914 9720,5908 9820,5903 Z"/><path d="M 9723,5956 L 9823,5951 9823,5961 9723,5956 Z"/><path d="M 9823,5961 L 9820,6009 9720,6004 9621,5998 9623,5951 9723,5956 9823,5961 Z"/><path d="M 9720,6004 L 9820,6009 9819,6020 9720,6004 Z"/><path d="M 9819,6020 L 9812,6066 9713,6050 9614,6034 9622,5988 9720,6004 9819,6020 Z"/><path d="M 9713,6050 L 9812,6066 9809,6077 9713,6050 Z"/><path d="M 9809,6077 L 9797,6121 9701,6094 9604,6068 9617,6023 9713,6050 9809,6077 Z"/><path d="M 9701,6094 L 9797,6121 9794,6131 9701,6094 Z"/><path d="M 9794,6131 L 9777,6174 9684,6137 9591,6100 9608,6058 9701,6094 9794,6131 Z"/><path d="M 9684,6137 L 9777,6174 9772,6183 9684,6137 Z"/><path d="M 9772,6183 L 9751,6224 9663,6177 9574,6130 9595,6090 9684,6137 9772,6183 Z"/><path d="M 9663,6177 L 9751,6224 9746,6233 9663,6177 Z"/><path d="M 9746,6233 L 9721,6270 9637,6215 9554,6159 9579,6121 9663,6177 9746,6233 Z"/><path d="M 9637,6215 L 9721,6270 9715,6278 9637,6215 Z"/><path d="M 9715,6278 L 9685,6314 9608,6250 9531,6186 9560,6151 9637,6215 9715,6278 Z"/><path d="M 9608,6250 L 9685,6314 9679,6321 9608,6250 Z"/><path d="M 9679,6321 L 9646,6353 9576,6282 9505,6211 9538,6179 9608,6250 9679,6321 Z"/><path d="M 9576,6282 L 9646,6353 9639,6360 9576,6282 Z"/><path d="M 9639,6360 L 9603,6389 9540,6311 9477,6234 9513,6204 9576,6282 9639,6360 Z"/><path d="M 9540,6311 L 9603,6389 9595,6395 9540,6311 Z"/><path d="M 9595,6395 L 9556,6421 9500,6337 9445,6254 9484,6228 9540,6311 9595,6395 Z"/><path d="M 9500,6337 L 9556,6421 9548,6426 9500,6337 Z"/><path d="M 9548,6426 L 9505,6448 9458,6360 9411,6272 9453,6249 9500,6337 9548,6426 Z"/><path d="M 9458,6360 L 9505,6448 9497,6452 9458,6360 Z"/><path d="M 9497,6452 L 9452,6471 9413,6379 9375,6287 9419,6268 9458,6360 9497,6452 Z"/><path d="M 9413,6379 L 9452,6471 9444,6474 9413,6379 Z"/><path d="M 9444,6474 L 9396,6489 9366,6394 9336,6299 9383,6284 9413,6379 9444,6474 Z"/><path d="M 9366,6394 L 9396,6489 9388,6492 9366,6394 Z"/><path d="M 9388,6492 L 9338,6503 9316,6405 9295,6307 9344,6296 9366,6394 9388,6492 Z"/><path d="M 9316,6405 L 9338,6503 9329,6504 9316,6405 Z"/><path d="M 9329,6504 L 9277,6511 9265,6412 9252,6313 9303,6306 9316,6405 9329,6504 Z"/><path d="M 9265,6412 L 9277,6511 9269,6512 9265,6412 Z"/><path d="M 9269,6512 L 9215,6514 9211,6414 9207,6314 9260,6312 9265,6412 9269,6512 Z"/><path d="M 9211,6414 L 9215,6514 9207,6514 9211,6414 Z"/><path d="M 9207,6514 L 9153,6512 9157,6412 9162,6312 9215,6314 9211,6414 9207,6514 Z"/><path d="M 9157,6412 L 9153,6512 9145,6511 9157,6412 Z"/><path d="M 9145,6511 L 9093,6504 9106,6405 9119,6306 9170,6313 9157,6412 9145,6511 Z"/><path d="M 9106,6405 L 9093,6504 9084,6503 9106,6405 Z"/><path d="M 9084,6503 L 9034,6492 9056,6394 9078,6296 9127,6307 9106,6405 9084,6503 Z"/><path d="M 9056,6394 L 9034,6492 9026,6489 9056,6394 Z"/><path d="M 9026,6489 L 8978,6474 9009,6379 9039,6284 9086,6299 9056,6394 9026,6489 Z"/><path d="M 9009,6379 L 8978,6474 8970,6471 9009,6379 Z"/><path d="M 8970,6471 L 8925,6452 8964,6360 9003,6268 9048,6287 9009,6379 8970,6471 Z"/><path d="M 8964,6360 L 8925,6452 8917,6448 8964,6360 Z"/><path d="M 8917,6448 L 8875,6426 8922,6337 8969,6249 9011,6272 8964,6360 8917,6448 Z"/><path d="M 8922,6337 L 8875,6426 8867,6421 8922,6337 Z"/><path d="M 8867,6421 L 8827,6395 8883,6311 8938,6228 8977,6254 8922,6337 8867,6421 Z"/><path d="M 8883,6311 L 8827,6395 8820,6389 8883,6311 Z"/><path d="M 8820,6389 L 8784,6360 8847,6282 8910,6205 8946,6234 8883,6311 8820,6389 Z"/><path d="M 8847,6282 L 8784,6360 8776,6353 8847,6282 Z"/><path d="M 8776,6353 L 8744,6321 8814,6250 8885,6179 8917,6211 8847,6282 8776,6353 Z"/><path d="M 8814,6250 L 8744,6321 8737,6313 8814,6250 Z"/><path d="M 8737,6313 L 8708,6278 8785,6215 8862,6151 8891,6186 8814,6250 8737,6313 Z"/><path d="M 8785,6215 L 8708,6278 8702,6270 8785,6215 Z"/><path d="M 8702,6270 L 8677,6232 8760,6177 8843,6122 8868,6159 8785,6215 8702,6270 Z"/><path d="M 8760,6177 L 8677,6232 8672,6223 8760,6177 Z"/><path d="M 8672,6223 L 8650,6183 8739,6137 8828,6090 8849,6131 8760,6177 8672,6223 Z"/><path d="M 8739,6137 L 8650,6183 8646,6174 8739,6137 Z"/><path d="M 8646,6174 L 8629,6131 8722,6094 8815,6058 8832,6100 8739,6137 8646,6174 Z"/><path d="M 8722,6094 L 8629,6131 8626,6121 8722,6094 Z"/><path d="M 8626,6121 L 8614,6077 8710,6050 8806,6023 8819,6068 8722,6094 8626,6121 Z"/><path d="M 8710,6050 L 8614,6077 8611,6066 8710,6050 Z"/><path d="M 8611,6066 L 8604,6020 8703,6004 8801,5988 8809,6034 8710,6050 8611,6066 Z"/><path d="M 8703,6004 L 8604,6020 8603,6009 8703,6004 Z"/><path d="M 8603,6009 L 8600,5961 8700,5956 8800,5951 8802,5998 8703,6004 8603,6009 Z"/><path d="M 8700,5956 L 8600,5961 8600,5951 8700,5956 Z"/><path d="M 8600,5951 L 8603,5903 8703,5908 8802,5914 8800,5961 8700,5956 8600,5951 Z"/><path d="M 8703,5908 L 8603,5903 8604,5892 8703,5908 Z"/><path d="M 8604,5892 L 8611,5846 8710,5862 8809,5878 8801,5924 8703,5908 8604,5892 Z"/><path d="M 8710,5862 L 8611,5846 8614,5835 8710,5862 Z"/><path d="M 8614,5835 L 8626,5791 8722,5818 8819,5844 8806,5889 8710,5862 8614,5835 Z"/><path d="M 8722,5818 L 8626,5791 8629,5781 8722,5818 Z"/><path d="M 8629,5781 L 8646,5738 8739,5775 8832,5812 8815,5854 8722,5818 8629,5781 Z"/><path d="M 8739,5775 L 8646,5738 8650,5729 8739,5775 Z"/><path d="M 8650,5729 L 8672,5689 8760,5735 8849,5781 8828,5822 8739,5775 8650,5729 Z"/><path d="M 8760,5735 L 8672,5689 8677,5680 8760,5735 Z"/><path d="M 8677,5680 L 8702,5642 8785,5697 8868,5753 8843,5790 8760,5735 8677,5680 Z"/><path d="M 8785,5697 L 8702,5642 8708,5634 8785,5697 Z"/><path d="M 8708,5634 L 8737,5599 8814,5662 8891,5726 8862,5761 8785,5697 8708,5634 Z"/><path d="M 8814,5662 L 8737,5599 8744,5591 8814,5662 Z"/><path d="M 8744,5591 L 8776,5559 8847,5630 8917,5701 8885,5733 8814,5662 8744,5591 Z"/><path d="M 8847,5630 L 8776,5559 8784,5552 8847,5630 Z"/><path d="M 8784,5552 L 8820,5523 8883,5601 8946,5678 8910,5707 8847,5630 8784,5552 Z"/><path d="M 8883,5601 L 8820,5523 8827,5517 8883,5601 Z"/><path d="M 8827,5517 L 8867,5491 8922,5575 8977,5658 8938,5684 8883,5601 8827,5517 Z"/><path d="M 8922,5575 L 8867,5491 8875,5486 8922,5575 Z"/><path d="M 8875,5486 L 8917,5464 8964,5552 9011,5640 8969,5663 8922,5575 8875,5486 Z"/><path d="M 8964,5552 L 8917,5464 8925,5460 8964,5552 Z"/><path d="M 8925,5460 L 8970,5441 9009,5533 9048,5625 9003,5644 8964,5552 8925,5460 Z"/><path d="M 9009,5533 L 8970,5441 8978,5438 9009,5533 Z"/><path d="M 8978,5438 L 9026,5423 9056,5518 9086,5613 9039,5628 9009,5533 8978,5438 Z"/><path d="M 9056,5518 L 9026,5423 9034,5420 9056,5518 Z"/><path d="M 9034,5420 L 9084,5409 9106,5507 9127,5605 9078,5616 9056,5518 9034,5420 Z"/><path d="M 9106,5507 L 9084,5409 9093,5408 9106,5507 Z"/><path d="M 9093,5408 L 9145,5401 9157,5500 9170,5599 9119,5606 9106,5507 9093,5408 Z"/><path d="M 9157,5500 L 9145,5401 9153,5400 9157,5500 Z"/><path d="M 9153,5400 L 9207,5398 9211,5498 9215,5598 9162,5600 9157,5500 9153,5400 Z"/><path d="M 9211,5498 L 9207,5398 9215,5398 9211,5498 Z"/></g><g style="stroke:none;fill:rgb(197,197,65)"><path d="M 12285,5498 L 12339,5500 12390,5507 12440,5518 12487,5533 12532,5552 12574,5575 12614,5601 12650,5630 12682,5662 12711,5697 12737,5735 12758,5775 12775,5818 12787,5862 12794,5908 12797,5956 12794,6004 12787,6050 12775,6094 12758,6137 12737,6177 12711,6215 12682,6250 12650,6282 12614,6311 12574,6337 12532,6360 12487,6379 12440,6394 12390,6405 12339,6412 12285,6414 12231,6412 12180,6405 12130,6394 12083,6379 12038,6360 11996,6337 11957,6311 11921,6282 11888,6250 11859,6215 11834,6177 11813,6137 11796,6094 11784,6050 11777,6004 11774,5956 11777,5908 11784,5862 11796,5818 11813,5775 11834,5735 11859,5697 11888,5662 11921,5630 11957,5601 11996,5575 12038,5552 12083,5533 12130,5518 12180,5507 12231,5500 12285,5498 Z"/></g><g style="stroke:none;fill:rgb(0,0,0)"><path d="M 12289,5398 L 12343,5400 12339,5500 12334,5600 12281,5598 12285,5498 12289,5398 Z"/><path d="M 12339,5500 L 12343,5400 12351,5401 12339,5500 Z"/><path d="M 12351,5401 L 12403,5408 12390,5507 12377,5606 12326,5599 12339,5500 12351,5401 Z"/><path d="M 12390,5507 L 12403,5408 12412,5409 12390,5507 Z"/><path d="M 12412,5409 L 12462,5420 12440,5518 12418,5616 12369,5605 12390,5507 12412,5409 Z"/><path d="M 12440,5518 L 12462,5420 12470,5423 12440,5518 Z"/><path d="M 12470,5423 L 12518,5438 12487,5533 12457,5628 12410,5613 12440,5518 12470,5423 Z"/><path d="M 12487,5533 L 12518,5438 12526,5441 12487,5533 Z"/><path d="M 12526,5441 L 12571,5460 12532,5552 12493,5644 12449,5625 12487,5533 12526,5441 Z"/><path d="M 12532,5552 L 12571,5460 12579,5464 12532,5552 Z"/><path d="M 12579,5464 L 12622,5486 12574,5575 12527,5663 12485,5640 12532,5552 12579,5464 Z"/><path d="M 12574,5575 L 12622,5486 12630,5491 12574,5575 Z"/><path d="M 12630,5491 L 12669,5517 12614,5601 12558,5684 12519,5658 12574,5575 12630,5491 Z"/><path d="M 12614,5601 L 12669,5517 12677,5523 12614,5601 Z"/><path d="M 12677,5523 L 12713,5552 12650,5630 12587,5708 12551,5678 12614,5601 12677,5523 Z"/><path d="M 12650,5630 L 12713,5552 12720,5559 12650,5630 Z"/><path d="M 12720,5559 L 12753,5591 12682,5662 12612,5733 12579,5701 12650,5630 12720,5559 Z"/><path d="M 12682,5662 L 12753,5591 12759,5598 12682,5662 Z"/><path d="M 12759,5598 L 12789,5634 12711,5697 12634,5761 12605,5726 12682,5662 12759,5598 Z"/><path d="M 12711,5697 L 12789,5634 12795,5642 12711,5697 Z"/><path d="M 12795,5642 L 12820,5679 12737,5735 12653,5791 12628,5753 12711,5697 12795,5642 Z"/><path d="M 12737,5735 L 12820,5679 12825,5688 12737,5735 Z"/><path d="M 12825,5688 L 12846,5729 12758,5775 12669,5822 12648,5782 12737,5735 12825,5688 Z"/><path d="M 12758,5775 L 12846,5729 12851,5738 12758,5775 Z"/><path d="M 12851,5738 L 12868,5781 12775,5818 12682,5854 12665,5812 12758,5775 12851,5738 Z"/><path d="M 12775,5818 L 12868,5781 12871,5791 12775,5818 Z"/><path d="M 12871,5791 L 12883,5835 12787,5862 12691,5889 12678,5844 12775,5818 12871,5791 Z"/><path d="M 12787,5862 L 12883,5835 12886,5846 12787,5862 Z"/><path d="M 12886,5846 L 12893,5892 12794,5908 12696,5924 12688,5878 12787,5862 12886,5846 Z"/><path d="M 12794,5908 L 12893,5892 12894,5903 12794,5908 Z"/><path d="M 12894,5903 L 12897,5951 12797,5956 12697,5961 12695,5914 12794,5908 12894,5903 Z"/><path d="M 12797,5956 L 12897,5951 12897,5961 12797,5956 Z"/><path d="M 12897,5961 L 12894,6009 12794,6004 12695,5998 12697,5951 12797,5956 12897,5961 Z"/><path d="M 12794,6004 L 12894,6009 12893,6020 12794,6004 Z"/><path d="M 12893,6020 L 12886,6066 12787,6050 12688,6034 12696,5988 12794,6004 12893,6020 Z"/><path d="M 12787,6050 L 12886,6066 12883,6077 12787,6050 Z"/><path d="M 12883,6077 L 12871,6121 12775,6094 12678,6068 12691,6023 12787,6050 12883,6077 Z"/><path d="M 12775,6094 L 12871,6121 12868,6131 12775,6094 Z"/><path d="M 12868,6131 L 12851,6174 12758,6137 12665,6100 12682,6058 12775,6094 12868,6131 Z"/><path d="M 12758,6137 L 12851,6174 12846,6183 12758,6137 Z"/><path d="M 12846,6183 L 12825,6224 12737,6177 12648,6130 12669,6090 12758,6137 12846,6183 Z"/><path d="M 12737,6177 L 12825,6224 12820,6233 12737,6177 Z"/><path d="M 12820,6233 L 12795,6270 12711,6215 12628,6159 12653,6121 12737,6177 12820,6233 Z"/><path d="M 12711,6215 L 12795,6270 12789,6278 12711,6215 Z"/><path d="M 12789,6278 L 12759,6314 12682,6250 12605,6186 12634,6151 12711,6215 12789,6278 Z"/><path d="M 12682,6250 L 12759,6314 12753,6321 12682,6250 Z"/><path d="M 12753,6321 L 12720,6353 12650,6282 12579,6211 12612,6179 12682,6250 12753,6321 Z"/><path d="M 12650,6282 L 12720,6353 12713,6360 12650,6282 Z"/><path d="M 12713,6360 L 12677,6389 12614,6311 12551,6234 12587,6204 12650,6282 12713,6360 Z"/><path d="M 12614,6311 L 12677,6389 12669,6395 12614,6311 Z"/><path d="M 12669,6395 L 12630,6421 12574,6337 12519,6254 12558,6228 12614,6311 12669,6395 Z"/><path d="M 12574,6337 L 12630,6421 12622,6426 12574,6337 Z"/><path d="M 12622,6426 L 12579,6448 12532,6360 12485,6272 12527,6249 12574,6337 12622,6426 Z"/><path d="M 12532,6360 L 12579,6448 12571,6452 12532,6360 Z"/><path d="M 12571,6452 L 12526,6471 12487,6379 12449,6287 12493,6268 12532,6360 12571,6452 Z"/><path d="M 12487,6379 L 12526,6471 12518,6474 12487,6379 Z"/><path d="M 12518,6474 L 12470,6489 12440,6394 12410,6299 12457,6284 12487,6379 12518,6474 Z"/><path d="M 12440,6394 L 12470,6489 12462,6492 12440,6394 Z"/><path d="M 12462,6492 L 12412,6503 12390,6405 12369,6307 12418,6296 12440,6394 12462,6492 Z"/><path d="M 12390,6405 L 12412,6503 12403,6504 12390,6405 Z"/><path d="M 12403,6504 L 12351,6511 12339,6412 12326,6313 12377,6306 12390,6405 12403,6504 Z"/><path d="M 12339,6412 L 12351,6511 12343,6512 12339,6412 Z"/><path d="M 12343,6512 L 12289,6514 12285,6414 12281,6314 12334,6312 12339,6412 12343,6512 Z"/><path d="M 12285,6414 L 12289,6514 12281,6514 12285,6414 Z"/><path d="M 12281,6514 L 12227,6512 12231,6412 12236,6312 12289,6314 12285,6414 12281,6514 Z"/><path d="M 12231,6412 L 12227,6512 12219,6511 12231,6412 Z"/><path d="M 12219,6511 L 12167,6504 12180,6405 12193,6306 12244,6313 12231,6412 12219,6511 Z"/><path d="M 12180,6405 L 12167,6504 12158,6503 12180,6405 Z"/><path d="M 12158,6503 L 12108,6492 12130,6394 12152,6296 12201,6307 12180,6405 12158,6503 Z"/><path d="M 12130,6394 L 12108,6492 12100,6489 12130,6394 Z"/><path d="M 12100,6489 L 12052,6474 12083,6379 12113,6284 12160,6299 12130,6394 12100,6489 Z"/><path d="M 12083,6379 L 12052,6474 12044,6471 12083,6379 Z"/><path d="M 12044,6471 L 11999,6452 12038,6360 12077,6268 12122,6287 12083,6379 12044,6471 Z"/><path d="M 12038,6360 L 11999,6452 11991,6448 12038,6360 Z"/><path d="M 11991,6448 L 11949,6426 11996,6337 12043,6249 12085,6272 12038,6360 11991,6448 Z"/><path d="M 11996,6337 L 11949,6426 11941,6421 11996,6337 Z"/><path d="M 11941,6421 L 11901,6395 11957,6311 12012,6228 12051,6254 11996,6337 11941,6421 Z"/><path d="M 11957,6311 L 11901,6395 11894,6389 11957,6311 Z"/><path d="M 11894,6389 L 11858,6360 11921,6282 11984,6205 12020,6234 11957,6311 11894,6389 Z"/><path d="M 11921,6282 L 11858,6360 11850,6353 11921,6282 Z"/><path d="M 11850,6353 L 11818,6321 11888,6250 11959,6179 11991,6211 11921,6282 11850,6353 Z"/><path d="M 11888,6250 L 11818,6321 11811,6313 11888,6250 Z"/><path d="M 11811,6313 L 11782,6278 11859,6215 11936,6151 11965,6186 11888,6250 11811,6313 Z"/><path d="M 11859,6215 L 11782,6278 11776,6270 11859,6215 Z"/><path d="M 11776,6270 L 11751,6232 11834,6177 11917,6122 11942,6159 11859,6215 11776,6270 Z"/><path d="M 11834,6177 L 11751,6232 11746,6223 11834,6177 Z"/><path d="M 11746,6223 L 11724,6183 11813,6137 11902,6090 11923,6131 11834,6177 11746,6223 Z"/><path d="M 11813,6137 L 11724,6183 11720,6174 11813,6137 Z"/><path d="M 11720,6174 L 11703,6131 11796,6094 11889,6058 11906,6100 11813,6137 11720,6174 Z"/><path d="M 11796,6094 L 11703,6131 11700,6121 11796,6094 Z"/><path d="M 11700,6121 L 11688,6077 11784,6050 11880,6023 11893,6068 11796,6094 11700,6121 Z"/><path d="M 11784,6050 L 11688,6077 11685,6066 11784,6050 Z"/><path d="M 11685,6066 L 11678,6020 11777,6004 11875,5988 11883,6034 11784,6050 11685,6066 Z"/><path d="M 11777,6004 L 11678,6020 11677,6009 11777,6004 Z"/><path d="M 11677,6009 L 11674,5961 11774,5956 11874,5951 11876,5998 11777,6004 11677,6009 Z"/><path d="M 11774,5956 L 11674,5961 11674,5951 11774,5956 Z"/><path d="M 11674,5951 L 11677,5903 11777,5908 11876,5914 11874,5961 11774,5956 11674,5951 Z"/><path d="M 11777,5908 L 11677,5903 11678,5892 11777,5908 Z"/><path d="M 11678,5892 L 11685,5846 11784,5862 11883,5878 11875,5924 11777,5908 11678,5892 Z"/><path d="M 11784,5862 L 11685,5846 11688,5835 11784,5862 Z"/><path d="M 11688,5835 L 11700,5791 11796,5818 11893,5844 11880,5889 11784,5862 11688,5835 Z"/><path d="M 11796,5818 L 11700,5791 11703,5781 11796,5818 Z"/><path d="M 11703,5781 L 11720,5738 11813,5775 11906,5812 11889,5854 11796,5818 11703,5781 Z"/><path d="M 11813,5775 L 11720,5738 11724,5729 11813,5775 Z"/><path d="M 11724,5729 L 11746,5689 11834,5735 11923,5781 11902,5822 11813,5775 11724,5729 Z"/><path d="M 11834,5735 L 11746,5689 11751,5680 11834,5735 Z"/><path d="M 11751,5680 L 11776,5642 11859,5697 11942,5753 11917,5790 11834,5735 11751,5680 Z"/><path d="M 11859,5697 L 11776,5642 11782,5634 11859,5697 Z"/><path d="M 11782,5634 L 11811,5599 11888,5662 11965,5726 11936,5761 11859,5697 11782,5634 Z"/><path d="M 11888,5662 L 11811,5599 11818,5591 11888,5662 Z"/><path d="M 11818,5591 L 11850,5559 11921,5630 11991,5701 11959,5733 11888,5662 11818,5591 Z"/><path d="M 11921,5630 L 11850,5559 11858,5552 11921,5630 Z"/><path d="M 11858,5552 L 11894,5523 11957,5601 12020,5678 11984,5707 11921,5630 11858,5552 Z"/><path d="M 11957,5601 L 11894,5523 11901,5517 11957,5601 Z"/><path d="M 11901,5517 L 11941,5491 11996,5575 12051,5658 12012,5684 11957,5601 11901,5517 Z"/><path d="M 11996,5575 L 11941,5491 11949,5486 11996,5575 Z"/><path d="M 11949,5486 L 11991,5464 12038,5552 12085,5640 12043,5663 11996,5575 11949,5486 Z"/><path d="M 12038,5552 L 11991,5464 11999,5460 12038,5552 Z"/><path d="M 11999,5460 L 12044,5441 12083,5533 12122,5625 12077,5644 12038,5552 11999,5460 Z"/><path d="M 12083,5533 L 12044,5441 12052,5438 12083,5533 Z"/><path d="M 12052,5438 L 12100,5423 12130,5518 12160,5613 12113,5628 12083,5533 12052,5438 Z"/><path d="M 12130,5518 L 12100,5423 12108,5420 12130,5518 Z"/><path d="M 12108,5420 L 12158,5409 12180,5507 12201,5605 12152,5616 12130,5518 12108,5420 Z"/><path d="M 12180,5507 L 12158,5409 12167,5408 12180,5507 Z"/><path d="M 12167,5408 L 12219,5401 12231,5500 12244,5599 12193,5606 12180,5507 12167,5408 Z"/><path d="M 12231,5500 L 12219,5401 12227,5400 12231,5500 Z"/><path d="M 12227,5400 L 12281,5398 12285,5498 12289,5598 12236,5600 12231,5500 12227,5400 Z"/><path d="M 12285,5498 L 12281,5398 12289,5398 12285,5498 Z"/><path d="M 8182,9012 L 8498,9152 8458,9243 8418,9335 8102,9196 8142,9104 8182,9012 Z"/><path d="M 8458,9243 L 8423,9337 8418,9335 8458,9243 Z"/><path d="M 8493,9149 L 8814,9270 8778,9364 8743,9457 8423,9337 8458,9243 8493,9149 Z"/><path d="M 8778,9364 L 8748,9459 8743,9457 8778,9364 Z"/><path d="M 8808,9268 L 9132,9370 9102,9466 9072,9561 8748,9459 8778,9364 8808,9268 Z"/><path d="M 9102,9466 L 9077,9562 9072,9561 9102,9466 Z"/><path d="M 9127,9369 L 9453,9452 9428,9549 9403,9646 9077,9562 9102,9466 9127,9369 Z"/><path d="M 9428,9549 L 9409,9647 9403,9646 9428,9549 Z"/><path d="M 9447,9451 L 9776,9516 9757,9614 9737,9712 9409,9647 9428,9549 9447,9451 Z"/><path d="M 9757,9614 L 9743,9713 9737,9712 9757,9614 Z"/><path d="M 9771,9515 L 10101,9561 10087,9660 10073,9759 9743,9713 9757,9614 9771,9515 Z"/><path d="M 10087,9660 L 10078,9760 10073,9759 10087,9660 Z"/><path d="M 10095,9561 L 10426,9588 10418,9688 10410,9788 10078,9760 10087,9660 10095,9561 Z"/><path d="M 10418,9688 L 10415,9788 10410,9788 10418,9688 Z"/><path d="M 10421,9588 L 10753,9597 10750,9697 10747,9797 10415,9788 10418,9688 10421,9588 Z"/><path d="M 10750,9697 L 10753,9797 10747,9797 10750,9697 Z"/><path d="M 10747,9597 L 11079,9588 11082,9688 11085,9788 10753,9797 10750,9697 10747,9597 Z"/><path d="M 11082,9688 L 11090,9788 11085,9788 11082,9688 Z"/><path d="M 11074,9588 L 11405,9561 11413,9660 11422,9760 11090,9788 11082,9688 11074,9588 Z"/><path d="M 11413,9660 L 11427,9759 11422,9760 11413,9660 Z"/><path d="M 11399,9561 L 11729,9515 11743,9614 11757,9713 11427,9759 11413,9660 11399,9561 Z"/><path d="M 11743,9614 L 11763,9712 11757,9713 11743,9614 Z"/><path d="M 11724,9516 L 12053,9451 12072,9549 12091,9647 11763,9712 11743,9614 11724,9516 Z"/><path d="M 12072,9549 L 12097,9646 12091,9647 12072,9549 Z"/><path d="M 12047,9452 L 12373,9369 12398,9466 12423,9562 12097,9646 12072,9549 12047,9452 Z"/><path d="M 12398,9466 L 12428,9561 12423,9562 12398,9466 Z"/><path d="M 12368,9370 L 12692,9268 12722,9364 12752,9459 12428,9561 12398,9466 12368,9370 Z"/><path d="M 12722,9364 L 12757,9457 12752,9459 12722,9364 Z"/><path d="M 12686,9270 L 13007,9149 13042,9243 13077,9337 12757,9457 12722,9364 12686,9270 Z"/><path d="M 13042,9243 L 13082,9335 13077,9337 13042,9243 Z"/><path d="M 13002,9152 L 13318,9012 13358,9104 13398,9196 13082,9335 13042,9243 13002,9152 Z"/></g><g/></g></g><g><desc>Drawing</desc><g><g style="stroke:none;fill:rgb(0,0,0)"><path d="M 4187,10042 L 4418,10625 4325,10662 4232,10699 4001,10116 4094,10079 4187,10042 Z"/><path d="M 4325,10662 L 4233,10702 4232,10699 4325,10662 Z"/><path d="M 4416,10621 L 4543,10909 4452,10949 4360,10990 4233,10702 4325,10662 4416,10621 Z"/><path d="M 4452,10949 L 4362,10993 4360,10990 4452,10949 Z"/><path d="M 4542,10905 L 4679,11188 4589,11232 4499,11276 4362,10993 4452,10949 4542,10905 Z"/><path d="M 4589,11232 L 4502,11280 4499,11276 4589,11232 Z"/><path d="M 4677,11184 L 4828,11460 4740,11508 4652,11556 4502,11280 4589,11232 4677,11184 Z"/><path d="M 4740,11508 L 4655,11561 4652,11556 4740,11508 Z"/><path d="M 4825,11456 L 4991,11724 4906,11777 4820,11829 4655,11561 4740,11508 4825,11456 Z"/><path d="M 4906,11777 L 4824,11834 4820,11829 4906,11777 Z"/><path d="M 4987,11719 L 5170,11978 5089,12036 5007,12093 4824,11834 4906,11777 4987,11719 Z"/><path d="M 5089,12036 L 5011,12099 5007,12093 5089,12036 Z"/><path d="M 5166,11973 L 5368,12221 5291,12284 5214,12347 5011,12099 5089,12036 5166,11973 Z"/><path d="M 5291,12284 L 5215,12349 5214,12347 5291,12284 Z"/><path d="M 5367,12219 L 6312,13334 6235,13399 6159,13464 5215,12349 5291,12284 5367,12219 Z"/><path d="M 6235,13399 L 6162,13467 6159,13464 6235,13399 Z"/><path d="M 6309,13331 L 6556,13598 6482,13666 6409,13734 6162,13467 6235,13399 6309,13331 Z"/><path d="M 6482,13666 L 6412,13737 6409,13734 6482,13666 Z"/><path d="M 6552,13594 L 6810,13847 6741,13918 6671,13990 6412,13737 6482,13666 6552,13594 Z"/><path d="M 6741,13918 L 6676,13995 6671,13990 6741,13918 Z"/><path d="M 6806,13842 L 7079,14076 7014,14152 6949,14228 6676,13995 6741,13918 6806,13842 Z"/><path d="M 7014,14152 L 6956,14234 6949,14228 7014,14152 Z"/><path d="M 7073,14071 L 7365,14282 7307,14363 7249,14444 6956,14234 7014,14152 7073,14071 Z"/><path d="M 7307,14363 L 7250,14445 7249,14444 7307,14363 Z"/><path d="M 7364,14281 L 7791,14577 7734,14659 7677,14741 7250,14445 7307,14363 7364,14281 Z"/><path d="M 7734,14659 L 7678,14742 7677,14741 7734,14659 Z"/><path d="M 7790,14576 L 8007,14724 7950,14806 7894,14889 7678,14742 7734,14659 7790,14576 Z"/><path d="M 7950,14806 L 7899,14892 7894,14889 7950,14806 Z"/><path d="M 8002,14721 L 8225,14856 8173,14941 8121,15027 7899,14892 7950,14806 8002,14721 Z"/><path d="M 8173,14941 L 8127,15030 8121,15027 8173,14941 Z"/><path d="M 8220,14853 L 8335,14913 8288,15001 8242,15090 8127,15030 8173,14941 8220,14853 Z"/><path d="M 8288,15001 L 8247,15092 8242,15090 8288,15001 Z"/><path d="M 8330,14910 L 8447,14964 8406,15055 8364,15146 8247,15092 8288,15001 8330,14910 Z"/><path d="M 8406,15055 L 8370,15148 8364,15146 8406,15055 Z"/><path d="M 8442,14962 L 8563,15008 8527,15101 8491,15195 8370,15148 8406,15055 8442,14962 Z"/><path d="M 8527,15101 L 8498,15197 8491,15195 8527,15101 Z"/><path d="M 8556,15006 L 8681,15043 8652,15139 8623,15235 8498,15197 8527,15101 8556,15006 Z"/><path d="M 8652,15139 L 8631,15237 8623,15235 8652,15139 Z"/><path d="M 8673,15041 L 8802,15069 8781,15167 8760,15265 8631,15237 8652,15139 8673,15041 Z"/><path d="M 8781,15167 L 8768,15266 8760,15265 8781,15167 Z"/><path d="M 8794,15068 L 8927,15085 8914,15184 8902,15283 8768,15266 8781,15167 8794,15068 Z"/><path d="M 8914,15184 L 8911,15284 8902,15283 8914,15184 Z"/><path d="M 8918,15084 L 9057,15090 9053,15190 9049,15290 8911,15284 8914,15184 8918,15084 Z"/><path d="M 9053,15190 L 9058,15289 9049,15290 9053,15190 Z"/><path d="M 9048,15090 L 9192,15082 9197,15182 9202,15282 9058,15289 9053,15190 9048,15090 Z"/><path d="M 9197,15182 L 9204,15282 9202,15282 9197,15182 Z"/><path d="M 9190,15082 L 9480,15062 9487,15162 9494,15262 9204,15282 9197,15182 9190,15082 Z"/><path d="M 9487,15162 L 9480,15062 9485,15062 9487,15162 Z"/><path d="M 9485,15062 L 9776,15056 9778,15156 9780,15256 9489,15262 9487,15162 9485,15062 Z"/><path d="M 9778,15156 L 9776,15056 9781,15056 9778,15156 Z"/><path d="M 9781,15056 L 10364,15069 10362,15169 10360,15268 9776,15256 9778,15156 9781,15056 Z"/><path d="M 10362,15169 L 10364,15069 10365,15069 10362,15169 Z"/><path d="M 10365,15069 L 10949,15088 10946,15188 10942,15288 10358,15268 10362,15169 10365,15069 Z"/><path d="M 10946,15188 L 10945,15288 10942,15288 10946,15188 Z"/><path d="M 10946,15088 L 11238,15090 11237,15190 11236,15290 10945,15288 10946,15188 10946,15088 Z"/><path d="M 11237,15190 L 11240,15290 11236,15290 11237,15190 Z"/><path d="M 11234,15090 L 11525,15082 11528,15182 11531,15282 11240,15290 11237,15190 11234,15090 Z"/><path d="M 11528,15182 L 11538,15282 11531,15282 11528,15182 Z"/><path d="M 11518,15082 L 11857,15050 11867,15149 11877,15249 11538,15282 11528,15182 11518,15082 Z"/><path d="M 11867,15149 L 11884,15248 11877,15249 11867,15149 Z"/><path d="M 11850,15051 L 12184,14993 12201,15092 12218,15190 11884,15248 11867,15149 11850,15051 Z"/><path d="M 12201,15092 L 12224,15189 12218,15190 12201,15092 Z"/><path d="M 12179,14994 L 12510,14917 12532,15015 12555,15112 12224,15189 12201,15092 12179,14994 Z"/><path d="M 12532,15015 L 12559,15111 12555,15112 12532,15015 Z"/><path d="M 12506,14918 L 12835,14828 12861,14925 12888,15021 12559,15111 12532,15015 12506,14918 Z"/><path d="M 12861,14925 L 12890,15021 12888,15021 12861,14925 Z"/><path d="M 12832,14829 L 13487,14633 13516,14729 13544,14825 12890,15021 12861,14925 12832,14829 Z"/><path d="M 13516,14729 L 13487,14633 13488,14633 13516,14729 Z"/><path d="M 13488,14633 L 13816,14539 13844,14635 13871,14731 13543,14825 13516,14729 13488,14633 Z"/><path d="M 13844,14635 L 13816,14539 13819,14538 13844,14635 Z"/><path d="M 13819,14538 L 14150,14455 14174,14552 14198,14649 13868,14732 13844,14635 13819,14538 Z"/><path d="M 14174,14552 L 14200,14649 14198,14649 14174,14552 Z"/><path d="M 14148,14455 L 14292,14417 14318,14513 14344,14610 14200,14649 14174,14552 14148,14455 Z"/><path d="M 14318,14513 L 14350,14608 14344,14610 14318,14513 Z"/><path d="M 14285,14419 L 14424,14371 14457,14466 14489,14560 14350,14608 14318,14513 14285,14419 Z"/><path d="M 14457,14466 L 14495,14558 14489,14560 14457,14466 Z"/><path d="M 14418,14373 L 14553,14317 14592,14409 14630,14502 14495,14558 14457,14466 14418,14373 Z"/><path d="M 14592,14409 L 14636,14499 14630,14502 14592,14409 Z"/><path d="M 14548,14320 L 14679,14256 14722,14345 14766,14435 14636,14499 14592,14409 14548,14320 Z"/><path d="M 14722,14345 L 14773,14432 14766,14435 14722,14345 Z"/><path d="M 14672,14259 L 14923,14112 14974,14198 15024,14284 14773,14432 14722,14345 14672,14259 Z"/><path d="M 14974,14198 L 15031,14280 15024,14284 14974,14198 Z"/><path d="M 14917,14116 L 15157,13948 15214,14030 15271,14112 15031,14280 14974,14198 14917,14116 Z"/><path d="M 15214,14030 L 15277,14108 15271,14112 15214,14030 Z"/><path d="M 15151,13953 L 16064,13214 16127,13292 16190,13370 15277,14108 15214,14030 15151,13953 Z"/><path d="M 16127,13292 L 16205,13354 16193,13367 16190,13370 16127,13292 Z"/><path d="M 16049,13230 L 16553,12600 16631,12662 16709,12724 16205,13354 16127,13292 16049,13230 Z"/><path d="M 16631,12662 L 16729,12682 16724,12698 16716,12714 16709,12724 16631,12662 Z"/><path d="M 16533,12642 L 16596,12327 16694,12347 16792,12367 16729,12682 16631,12662 16533,12642 Z"/></g><g/></g></g><g><desc>Drawing</desc><g><g style="stroke:none;fill:rgb(230,230,76)"><path d="M 5000,14500 L 7190,13500 7190,14000 13810,14000 13810,13500 16001,14500 13810,15501 13810,15000 7190,15000 7190,15501 5000,14500 Z"/></g><g style="stroke:rgb(0,0,0);fill:none"><path style="fill:none" d="M 5000,14500 L 7190,13500 7190,14000 13810,14000 13810,13500 16001,14500 13810,15501 13810,15000 7190,15000 7190,15501 5000,14500"/></g><g/></g></g></g></svg>