<?xml version="1.0" encoding="UTF-8" standalone="no"?>
<!-- Created with Inkscape (http://www.inkscape.org/) -->

<svg
   xmlns:dc="http://purl.org/dc/elements/1.1/"
   xmlns:cc="http://creativecommons.org/ns#"
   xmlns:rdf="http://www.w3.org/1999/02/22-rdf-syntax-ns#"
   xmlns:svg="http://www.w3.org/2000/svg"
   xmlns="http://www.w3.org/2000/svg"
   xmlns:sodipodi="http://sodipodi.sourceforge.net/DTD/sodipodi-0.dtd"
   xmlns:inkscape="http://www.inkscape.org/namespaces/inkscape"
   width="641.51953mm"
   height="343.48431mm"
   viewBox="0 0 2092.174 1120.1981"
   id="svg2"
   version="1.1"
   inkscape:version="0.92.1 r15371"
   sodipodi:docname="field8.svg">
  <defs
     id="defs4">
    <filter
       inkscape:label="Black Light"
       inkscape:menu="Color"
       inkscape:menu-tooltip="Light areas turn to black"
       style="color-interpolation-filters:sRGB"
       id="filter3349">
      <feColorMatrix
         type="luminanceToAlpha"
         result="result2"
         id="feColorMatrix3351" />
      <feComposite
         in2="SourceGraphic"
         operator="arithmetic"
         in="result2"
         k3="2"
         result="result4"
         id="feComposite3353"
         k1="0"
         k2="0"
         k4="0" />
      <feBlend
         in="result4"
         mode="multiply"
         result="result3"
         in2="result2"
         id="feBlend3355" />
      <feComposite
         in2="SourceGraphic"
         operator="in"
         in="result3"
         id="feComposite3357" />
    </filter>
  </defs>
  <sodipodi:namedview
     id="base"
     pagecolor="#ffffff"
     bordercolor="#666666"
     borderopacity="1.0"
     inkscape:pageopacity="0.0"
     inkscape:pageshadow="2"
     inkscape:zoom="0.7"
     inkscape:cx="1111.317"
     inkscape:cy="1098.2555"
     inkscape:document-units="px"
     inkscape:current-layer="layer1"
     showgrid="false"
     inkscape:window-width="1920"
     inkscape:window-height="1031"
     inkscape:window-x="0"
     inkscape:window-y="0"
     inkscape:window-maximized="1"
     scale-x="0.86288"
     fit-margin-top="0"
     fit-margin-left="0"
     fit-margin-right="0"
     fit-margin-bottom="0" />
  <metadata
     id="metadata7">
    <rdf:RDF>
      <cc:Work
         rdf:about="">
        <dc:format>image/svg+xml</dc:format>
        <dc:type
           rdf:resource="http://purl.org/dc/dcmitype/StillImage" />
        <dc:title></dc:title>
      </cc:Work>
    </rdf:RDF>
  </metadata>
  <g
     inkscape:label="Layer 1"
     inkscape:groupmode="layer"
     id="layer1"
     transform="translate(661.08086,38.268841)">
    <path
       style="fill:#000000;filter:url(#filter3349)"
       d="M -486.73302,521.8302 V 55.080997 h 871.7392 871.73922 V 521.8302 988.5794 h -871.73922 -871.7392 z m 1729.58612,3.57206 V 86.038852 H 389.63693 -463.57926 V 523.81467 c 0,240.77672 0.69461,438.49025 1.54359,439.3634 0.84897,0.87318 384.796244,1.58759 853.21619,1.58759 h 851.67258 z m -1520.971,334.46862 c -22.65453,-6.10172 -35.29487,-13.8715 -53.56446,-32.92506 -15.03918,-15.68456 -22.71694,-28.87835 -28.17902,-48.42402 -2.13533,-7.64113 -3.16598,-68.19756 -4.08511,-240.02199 l -1.22927,-229.80254 -45.72869,-0.64568 -45.72868,-0.64569 V 199.10375 90.801599 h 103.03425 103.03425 V 199.10578 307.40995 l -48.04406,0.64366 -48.04406,0.64366 -0.59073,224.93387 c -0.58483,222.68576 -0.54222,225.08964 4.26344,240.51872 8.38991,26.93674 28.41456,51.55348 50.50532,62.08727 3.31196,1.57928 7.78309,3.78726 9.93584,4.9066 2.15275,1.11937 10.5058,3.11824 18.56231,4.44195 33.8314,5.55865 69.84245,-9.26885 91.75448,-37.7798 8.03368,-10.45308 11.17565,-17.37473 18.54913,-40.86329 1.94119,-6.18374 2.67433,-72.45517 2.6872,-242.9001 0.0162,-221.8467 0.24872,-235.17751 4.33295,-248.98919 11.04527,-37.35197 37.34702,-65.32214 73.820773,-78.50353 14.918317,-5.39138 44.334803,-7.05669 60.424215,-3.4207 17.1081071,3.8662 41.6962,17.20171 54.432206,29.52167 10.593379,10.24733 26.932921,34.64159 26.932921,40.20977 0,1.7656 0.900264,4.22821 2.000577,5.47248 6.650572,7.52064 7.261183,29.13913 7.273848,257.52844 0.0093,155.98116 0.821125,236.06179 2.45974,242.44092 4.993016,19.43768 14.143986,35.76699 27.5963,49.24383 15.46512,15.49333 32.87693,24.57813 53.79872,28.07011 19.38127,3.23483 223.5271,3.23723 241.5963,0.002 65.35402,-11.69843 100.02836,-81.01235 72.51124,-144.9498 -1.74695,-4.05867 -6.02217,-10.87836 -6.02217,-10.87836 0,0 -21.05511,-23.53844 -33.61617,-30.9383 -13.8817,-8.17787 -31.75302,-13.1022 -48.07645,-13.24715 -35.86321,-0.31851 -69.75129,-18.3104 -93.33481,-49.55343 -8.24086,-10.91736 -17.56609,-35.21306 -19.97968,-52.05454 -3.26985,-22.81636 -3.25998,-228.79324 0.0116,-251.51328 1.35651,-9.41917 3.96131,-20.60853 5.78844,-24.86523 8.43652,-19.65355 10.93951,-24.40908 12.84787,-24.40908 1.12835,0 2.05156,-1.37747 2.05156,-3.06104 0,-1.68357 6.75474,-9.61312 15.01054,-17.6212 10.85534,-10.52963 19.98873,-16.75637 32.99411,-22.49387 16.89806,-7.45482 19.59079,-7.9344 44.6104,-7.94515 24.77981,-0.0107 27.79751,0.50976 43.50352,7.50239 43.32537,19.28935 72.03881,62.76579 72.20501,109.32918 0.0986,27.63646 12.91049,57.84871 31.7433,74.85545 20.63327,18.63263 54.89662,28.97498 80.14201,24.19073 47.39591,-8.98197 82.30269,-49.86574 82.72286,-96.88734 0.29942,-33.5071 14.26066,-66.57217 37.89329,-89.74454 10.61104,-10.40438 36.43631,-24.18831 52.35012,-27.94125 33.37312,-7.87034 74.94781,2.84266 100.02674,25.77497 12.92589,11.8195 29.81922,37.63216 34.43648,52.61815 4.94122,16.0376 4.86759,277.23429 -0.0827,292.90894 -8.26585,26.17365 -31.97537,54.36323 -56.45085,67.11751 -18.21708,9.49301 -25.18738,11.24951 -54.29145,13.68133 -19.92907,1.66519 -26.36815,3.27669 -39.3614,9.8509 -21.05751,10.65451 -37.76068,27.38632 -46.99644,47.07697 -9.731,20.7465 -12.02317,51.48594 -5.46883,73.33985 11.2252,37.42774 41.29235,63.57177 80.471,69.9713 11.39251,1.86088 52.52853,2.45915 130.11297,1.89231 125.8487,-0.91947 122.3387,-0.5054 148.13,-17.47418 22.1622,-14.5811 37.1651,-37.51154 42.8034,-65.42062 1.9046,-9.42788 2.4494,-75.14833 1.9444,-234.56529 l -0.7015,-221.46773 -48.044,-0.64366 -48.0441,-0.64366 V 199.1054 90.801219 h 106.5073 106.5073 V 199.10635 307.41147 l -49.2017,0.64271 -49.2018,0.64271 -1.1576,232.18392 c -1.2268,246.0295 -0.704,234.86043 -12.1186,258.93814 -5.5424,11.6909 -22.3718,32.6336 -32.7817,40.79378 -11.1051,8.70516 -33.6472,18.65718 -48.7749,21.53341 -8.7161,1.65717 -55.41605,2.60146 -128.65585,2.60146 -105.661,0 -116.36281,-0.36862 -132.13006,-4.55095 -22.77763,-6.04193 -37.38052,-14.73851 -54.32422,-32.35224 -30.17319,-31.36638 -40.08926,-74.34465 -27.19902,-117.88609 2.1326,-7.20365 4.47347,-13.63336 5.20188,-14.28824 0.72844,-0.65488 3.3983,-5.45623 5.93302,-10.66965 14.94538,-30.73972 57.09171,-55.95649 93.6582,-56.03707 39.72507,-0.0876 75.35654,-23.0231 92.44538,-59.50607 0,0 5.32871,-9.94156 7.58985,-18.60009 0.0969,-19.41125 1.45785,-126.66369 1.45785,-126.66369 0.73756,-87.53773 -0.12132,-130.71738 -1.88499,-137.99455 -9.18459,-37.89673 -35.54941,-65.19465 -72.88888,-75.46855 -29.30674,-8.0637 -63.3233,1.00284 -88.26402,23.52527 -18.03181,16.28339 -30.97786,45.50767 -30.97786,69.92901 0,19.0182 -4.17141,35.8997 -14.13693,57.21145 -29.27645,62.60924 -106.35975,84.26673 -164.15625,46.12168 -11.58399,-7.64531 -34.72145,-31.68577 -34.72145,-36.07655 0,-1.29775 -1.53556,-3.93888 -3.41235,-5.86918 -6.02952,-6.20138 -13.334,-34.76088 -15.15567,-59.25657 -1.7542,-23.58836 -7.71101,-43.73302 -16.12053,-54.51616 -17.88436,-22.93229 -34.05724,-34.41203 -57.10302,-40.53256 -17.30273,-4.59528 -30.65549,-4.75107 -45.97332,-0.53639 -35.53121,9.77635 -61.17607,34.9621 -71.41211,70.13368 -3.50597,12.04665 -3.5573,262.63068 -0.0563,274.30496 13.84595,46.16873 48.50204,71.31211 102.72589,74.52879 28.4594,1.68828 54.0401,13.53961 72.7316,33.69596 10.28013,11.0858 23.12815,32.5324 26.55551,44.32786 1.68942,5.81432 4.00512,13.03302 5.14595,16.0416 3.71467,9.79621 2.32357,37.00319 -2.71378,53.07555 -3.01366,11.78527 -7.45554,25.2308 -12.79899,32.70619 -5.92752,12.45922 -29.31227,32.81857 -44.32545,40.60725 -27.17883,14.10007 -31.79963,14.52143 -159.67078,14.56015 -76.19751,0.0238 -120.45994,-0.87306 -128.50339,-2.60165 -31.68042,-6.80835 -62.331785,-29.34478 -77.647815,-57.09057 -15.163423,-27.46931 -14.50236,-15.14616 -14.50236,-270.34335 0,-162.59902 -0.776716,-235.34781 -2.607854,-244.25391 -5.751673,-27.97455 -23.680489,-54.81715 -45.329165,-67.86575 -13.32140238,-8.02939 -36.467849,-15.02822 -49.774665,-15.05046 -42.353605,-0.0708 -82.686161,31.15797 -95.319881,73.80439 -1.63602,5.52252 -2.94661,89.08756 -3.88425,247.66284 -0.77834,131.63042 -2.26332,243.02745 -3.30003,247.54899 -6.3342,27.62648 -31.98515,60.38241 -57.86478,73.89266 -27.33022,14.2675 -53.1383,17.2415 -82.04845,9.45491 z m 11.34563,-660.71679 v -91.68288 h -89.14199 -89.14199 v 91.68288 91.68288 h 89.14199 89.14199 z m 1488.78697,-0.0283 v -91.71117 l -88.5631,0.62364 -88.5632,0.62363 -0.6079,88.10139 c -0.3344,48.45577 -0.1065,89.44517 0.5062,91.08753 0.8661,2.32151 20.7132,2.98615 89.1711,2.98615 h 88.0569 z"
       id="path3347"
       inkscape:connector-curvature="0"
       sodipodi:nodetypes="cccccccccccccscscccssscccccccccccsssssssssssssssssscccssssccssssssssssssssssssssssssscccccccccccsssssssscssscsssssssssssssssssssccsssssssssssscccccccccccccccscscc" />
  </g>
</svg>
