<?xml version="1.0" encoding="UTF-8" standalone="no"?>
<svg
   xmlns:dc="http://purl.org/dc/elements/1.1/"
   xmlns:cc="http://creativecommons.org/ns#"
   xmlns:rdf="http://www.w3.org/1999/02/22-rdf-syntax-ns#"
   xmlns:svg="http://www.w3.org/2000/svg"
   xmlns="http://www.w3.org/2000/svg"
   xmlns:sodipodi="http://sodipodi.sourceforge.net/DTD/sodipodi-0.dtd"
   xmlns:inkscape="http://www.inkscape.org/namespaces/inkscape"
   width="98000"
   height="58000"
   version="1.1"
   id="svg28"
   sodipodi:docname="field4.svg"
   inkscape:version="0.92.1 r15371">
  <metadata
     id="metadata32">
    <rdf:RDF>
      <cc:Work
         rdf:about="">
        <dc:format>image/svg+xml</dc:format>
        <dc:type
           rdf:resource="http://purl.org/dc/dcmitype/StillImage" />
      </cc:Work>
    </rdf:RDF>
  </metadata>
  <sodipodi:namedview
     pagecolor="#ffffff"
     bordercolor="#666666"
     borderopacity="1"
     objecttolerance="10"
     gridtolerance="10"
     guidetolerance="10"
     inkscape:pageopacity="0"
     inkscape:pageshadow="2"
     inkscape:window-width="1920"
     inkscape:window-height="1031"
     id="namedview30"
     showgrid="false"
     inkscape:zoom="0.01"
     inkscape:cx="59997.59"
     inkscape:cy="20160.08"
     inkscape:window-x="0"
     inkscape:window-y="0"
     inkscape:window-maximized="1"
     inkscape:current-layer="svg28" />
  <defs
     id="defs8">
    <style
       type="text/css"
       id="style2"><![CDATA[
    .str2 {stroke:#000000;stroke-width:2.98425}
    .str5 {stroke:#000000;stroke-width:3}
    .str0 {stroke:#000000;stroke-width:3}
    .str3 {stroke:#000000;stroke-width:3}
    .str4 {stroke:black;stroke-width:13}
    .str1 {stroke:#000000;stroke-width:78.7402}
    .fil1 {fill:none}
    .fil5 {fill:#000000}
    .fil3 {fill:#000000}
    .fil0 {fill:#000000}
    .fil2 {fill:#FFFFFF}
    .fil4 {fill:#000000}
    .fil6 {fill:white}
   ]]></style>
    <clipPath
       id="id0">
      <path
         id="svg_1"
         d="m114757,93454c-141,464 -367,882 -657,1241c172,459 254,957 230,1465c680,195 1275,637 1656,1246c348,-313 1762,-598 1265,-662l-111,-14c-313,-40 84,-132 103,-163l-321,-207c-545,-254 -571,-829 -800,-1795l-13,-53c-543,-206 -1018,-573 -1353,-1058l1,0z" />
    </clipPath>
    <clipPath
       id="id1">
      <path
         id="svg_2"
         d="m3070,4971c141,-464 367,-882 657,-1241c-172,-459 -254,-957 -230,-1465c-680,-195 -1275,-637 -1656,-1246c-348,313 -1762,598 -1265,662l111,14c313,40 -84,132 -103,163l321,207c545,254 571,829 800,1795l13,53c543,206 1018,573 1353,1058l-1,0z" />
    </clipPath>
  </defs>
  <g
     id="g13">
    <title
       id="title10">background</title>
    <rect
       fill="none"
       id="canvas_background"
       height="402"
       width="582"
       y="-1"
       x="-1" />
  </g>
  <g
     id="g26"
     transform="translate(-10600,-20200)">
    <title
       id="title15">Layer 1</title>
    <g
       id="Слой_x0020_1">
      <metadata
         id="CorelCorpID_0Corel-Layer" />
      <g
         id="_257927488">
        <g
           id="svg_3">
          <path
             id="svg_4"
             d="m 30511,50197 c -7609,0 -13780,-6171 -13780,-13780 0,-7609 6171,-13780 13780,-13780 v 1969 c -6522,0 -11811,5289 -11811,11811 0,6522 5289,11811 11811,11811 z"
             class="fil0 str0"
             inkscape:connector-curvature="0"
             style="fill:#000000;stroke:#000000;stroke-width:3" />
          <rect
             id="svg_5"
             height="1969"
             width="70866"
             y="22638"
             x="30511"
             class="fil0 str0"
             style="fill:#000000;stroke:#000000;stroke-width:3" />
          <path
             id="svg_6"
             d="m 87598,48228 c 7609,0 13780,6171 13780,13780 0,7609 -6171,13780 -13780,13780 v -1969 c 6522,0 11811,-5289 11811,-11811 0,-6522 -5289,-11811 -11811,-11811 z"
             class="fil0 str0"
             inkscape:connector-curvature="0"
             style="fill:#000000;stroke:#000000;stroke-width:3" />
          <rect
             id="svg_7"
             height="1969"
             width="57087"
             y="48228"
             x="30511"
             class="fil0 str0"
             style="fill:#000000;stroke:#000000;stroke-width:3" />
          <rect
             id="svg_8"
             height="1969"
             width="70866"
             y="73819"
             x="16732"
             class="fil0 str0"
             style="fill:#000000;stroke:#000000;stroke-width:3" />
        </g>
      </g>
    </g>
  </g>
</svg>
