<?xml version="1.0" encoding="UTF-8" standalone="no"?>
<!-- Created with Inkscape (http://www.inkscape.org/) -->

<svg
   xmlns:dc="http://purl.org/dc/elements/1.1/"
   xmlns:cc="http://creativecommons.org/ns#"
   xmlns:rdf="http://www.w3.org/1999/02/22-rdf-syntax-ns#"
   xmlns:svg="http://www.w3.org/2000/svg"
   xmlns="http://www.w3.org/2000/svg"
   xmlns:sodipodi="http://sodipodi.sourceforge.net/DTD/sodipodi-0.dtd"
   xmlns:inkscape="http://www.inkscape.org/namespaces/inkscape"
   width="481.88904mm"
   height="189.27589mm"
   viewBox="0 0 2117.9684 831.89347"
   id="svg3378"
   version="1.1"
   inkscape:version="0.92.1 r15371"
   sodipodi:docname="field9.svg">
  <defs
     id="defs3380" />
  <sodipodi:namedview
     id="base"
     pagecolor="#ffffff"
     bordercolor="#666666"
     borderopacity="1.0"
     inkscape:pageopacity="0.0"
     inkscape:pageshadow="2"
     inkscape:zoom="0.98994949"
     inkscape:cx="1094.1665"
     inkscape:cy="557.19248"
     inkscape:document-units="px"
     inkscape:current-layer="layer1"
     showgrid="false"
     inkscape:window-width="1920"
     inkscape:window-height="1031"
     inkscape:window-x="0"
     inkscape:window-y="0"
     inkscape:window-maximized="1"
     scale-x="1.16288"
     fit-margin-top="0"
     fit-margin-left="0"
     fit-margin-right="0"
     fit-margin-bottom="0" />
  <metadata
     id="metadata3383">
    <rdf:RDF>
      <cc:Work
         rdf:about="">
        <dc:format>image/svg+xml</dc:format>
        <dc:type
           rdf:resource="http://purl.org/dc/dcmitype/StillImage" />
        <dc:title></dc:title>
      </cc:Work>
    </rdf:RDF>
  </metadata>
  <g
     inkscape:label="Layer 1"
     inkscape:groupmode="layer"
     id="layer1"
     transform="translate(676.26031,-133.68488)">
    <path
       style="fill:#000000"
       d="M 4.3862552,964.26938 C -18.40985,958.07532 -24.37112,926.32652 -5.5219585,911.49977 12.984562,896.94253 41.653885,910.60836 41.653885,933.98709 c 0,11.49866 -3.817737,19.74095 -11.764847,25.39981 -6.073637,4.32479 -18.675796,6.73746 -25.5027828,4.88248 z M 92.055694,962.1311 C 70.481907,951.29205 70.54494,920.91113 92.164677,909.64406 120.11,895.08035 149.0818,929.67614 128.96314,953.5858 c -10.19089,12.11117 -23.62085,15.22066 -36.907365,8.5453 z M 187.7027,942.50067 c -9.64194,-3.39518 -18.63252,-13.39779 -20.37087,-22.66393 -1.73768,-9.26266 4.02648,-23.52913 11.72003,-29.00744 8.36231,-5.95448 22.78049,-7.01723 31.67402,-2.33466 11.08301,5.83538 15.25169,13.17118 15.25169,26.83908 0,10.75928 -0.62856,12.47569 -6.96128,19.00939 -3.82871,3.95023 -10.17428,8.07481 -14.10126,9.16576 -8.60469,2.39045 -7.35214,2.46382 -17.21233,-1.0082 z M -86.435582,926.53576 c -19.045088,-8.29225 -23.264388,-33.53103 -8.134839,-48.66058 12.655825,-12.65583 36.157316,-9.7859 45.512055,5.55781 15.05163,24.68777 -10.910209,54.62651 -37.377216,43.10277 z M 269.7738,893.14963 c -25.81213,-15.73784 -14.70462,-54.38641 15.63053,-54.38641 29.57305,0 40.91347,37.40323 16.32144,53.83176 -8.80074,5.87926 -22.81975,6.12263 -31.95197,0.55465 z M -106.86723,832.5941 c 0,17.74354 -17.93417,34.44202 -33.79503,31.46649 -19.0324,-3.5705 -31.36146,-32.72017 -14.13988,-52.64057 26.99886,-14.83086 47.93491,4.84786 47.93491,21.17408 z m -58.97604,-28.35769 c -3.24942,-4.83961 -7.97652,-11.33703 -10.5047,-14.43872 l -4.59669,-5.63946 -19.13743,13.49404 c -17.59054,12.40331 -28.71233,20.83456 -63.1056,47.83933 -15.83542,12.43361 -29.73338,19.43132 -53.73345,27.05513 -37.99572,12.06964 -85.52506,15.84098 -120.25185,9.5417 -72.5106,-13.15311 -128.2869,-58.68247 -171.55116,-140.03467 -12.6507,-23.78781 -25.27756,-61.12504 -29.63486,-87.62929 -4.30604,-26.19246 -2.86254,-74.11265 3.05518,-101.42341 16.76859,-77.38847 67.16739,-152.5297 138.84636,-207.01059 3.45191,-2.62368 7.78082,4.12982 -42.79248,-66.76038 -19.95811,-27.97591 -37.24857,-50.84432 -38.42327,-50.81871 -1.17469,0.0256 -21.17251,13.62435 -44.43959,30.2194 l -42.3038,30.17282 -6.59896,-7.44876 c -6.28684,-7.09644 -6.42976,-7.60735 -3.0217,-10.80199 6.22447,-5.8347 191.70585,-136.86797 193.74056,-136.86797 2.53549,0 10.28719,10.91218 10.23806,14.41224 -0.021,1.4909 -11.57893,10.81039 -25.68445,20.70998 -54.59392,38.31533 -62.88532,44.52287 -62.40412,46.72017 0.27353,1.24904 18.62753,27.69996 40.78666,58.77982 l 40.28933,56.50887 12.0868,-6.94884 c 53.88736,-30.9805 100.02847,-48.51974 154.10668,-58.57932 28.5962,-5.31942 114.05098,-5.25945 133.79643,0.0939 12.27179,3.32711 40.33653,14.28518 167.7608432,65.50338 16.8363466,6.76735 31.8743388,12.3043 33.4177428,12.3043 1.700431,0 8.612508,-13.29582 17.541571,-33.74232 21.852267,-50.0392 33.117143,-68.26445 56.341846,-91.15461 32.963377,-32.48852 72.638917,-53.00487 123.682057,-63.95637 21.16751,-4.54157 29.33976,-5.25259 60.71989,-5.2829 31.77957,-0.0307 39.37208,0.63107 61.44122,5.3552 66.67715,14.27296 120.18392,45.798 152.96646,90.12459 6.16691,8.33853 17.55813,24.54304 25.31382,36.01002 7.7557,11.46699 15.21374,21.27742 16.57342,21.80096 1.35969,0.52354 6.34549,-1.25312 11.07957,-3.94811 4.73408,-2.69501 29.00388,-16.66415 53.93291,-31.04255 88.99882,-51.33211 92.64678,-52.96732 142.75887,-63.99205 102.75088,-22.60531 221.36158,-25.3464 305.7379,-7.06558 73.1561,15.84988 129.5415,41.32236 181.9824,82.21174 26.088,20.34145 47.7645,42.6703 53.4191,55.02662 6.96,15.20912 11.1841,43.01039 12.753,83.93168 l 1.3614,35.51214 h 59.4267 59.4268 l 1.0072,-49.35443 1.0072,-49.35443 9.5688,-0.61399 9.5687,-0.61399 v 108.89157 108.89156 h -10.0359 -10.0359 l -0.54,-47.84358 -0.5401,-47.84358 h -59.4268 -59.4267 l -1.3912,120.86799 c -1.5935,138.44542 -3.3291,161.26282 -14.9272,196.23649 -23.6971,71.45811 -68.3102,86.73735 -132.7522,45.46543 -16.7018,-10.69674 -38.4011,-33.11548 -64.5067,-66.64579 -69.307,-89.01822 -118.02661,-150.08301 -127.02515,-159.21221 -8.65181,-8.77741 -12.0065,-10.74726 -21.74647,-12.76926 -12.56247,-2.60797 -25.00543,-1.34478 -34.46097,3.4984 -7.45143,3.81665 -105.41286,70.74295 -106.77575,72.94817 -1.57914,2.55511 64.38696,95.76326 67.59434,95.50875 1.58454,-0.1257 18.93638,-11.23048 38.55966,-24.67721 19.62328,-13.44675 36.55862,-24.44861 37.63406,-24.44861 2.56472,0 10.30934,10.93096 10.21111,14.41224 -0.0421,1.4909 -24.66001,19.48116 -54.70656,39.97835 -30.04653,20.4972 -67.34388,46.1061 -82.88295,56.90868 -15.53909,10.80258 -29.22116,19.63486 -30.40464,19.62729 -1.18348,-0.008 -4.38513,-3.29254 -7.11479,-7.29992 l -4.96302,-7.28613 5.86689,-4.67811 c 3.22679,-2.57294 19.70545,-14.01877 36.61923,-25.43516 16.9138,-11.4164 30.78459,-21.82044 30.82398,-23.12009 0.0395,-1.29965 -14.55251,-23.35687 -32.42647,-49.01604 -24.45367,-35.10472 -33.3457,-46.43138 -35.92222,-45.7576 -1.88327,0.4925 -32.35798,20.6975 -67.72161,44.90004 -66.74278,45.67815 -77.28894,51.45564 -107.82168,59.06787 -63.14617,15.74323 -122.35396,5.48293 -178.11945,-30.86687 -9.46509,-6.16964 -17.52148,-11.21756 -17.9031,-11.21756 -8.66107,10.12395 -11.90264,14.6272 -22.0895,24.7985 -7.83899,-3.96428 -16.72884,-13.60847 -16.72884,-13.60847 8.22431,-10.49904 19.53863,-22.77019 19.49854,-23.81683 -0.0562,-1.46911 -7.17642,-7.42775 -15.70682,-13.47293 -8.5304,-6.04519 -27.46304,-19.87571 -42.07256,-30.73451 C 313.73115,684.43305 295.1477,672.00035 287.0441,667.6636 229.7,636.97516 136.5477,626.79981 64.820249,643.38932 30.601172,651.30368 -17.86254,671.75136 -47.2389,690.66901 c -22.03502,14.19003 -112.37294,77.66482 -113.78502,79.94963 -0.67072,1.08523 8.32936,12.3985 13.61595,20.0659 m 521.50787,34.08029 c -9.129,15.61479 -35.60205,11.00396 -45.42316,2.13549 -15.04195,-13.58289 -5.72529,-34.8445 -1.00848,-39.96005 7.68488,-8.33453 27.83635,-12.38191 37.29981,-3.97373 13.74548,9.79221 13.17129,27.25499 9.13183,41.79829 z m -723.31004,35.13979 c 35.82549,-7.12816 55.73152,-16.43317 84.79139,-39.63547 11.56411,-9.23313 32.13038,-24.81406 45.70285,-34.62427 13.57246,-9.81023 24.67721,-18.64948 24.67721,-19.6428 0,-0.99329 -14.50416,-22.13909 -32.23146,-46.99061 -17.72731,-24.85155 -32.23147,-45.5742 -32.23147,-46.05036 0,-1.3526 16.11527,-12.18315 16.78647,-11.28164 6.02815,8.09675 31.03243,43.21794 45.33996,63.6848 10.23548,14.64185 19.36382,27.08744 20.28517,27.65687 0.92134,0.56943 23.77522,-14.59354 50.7864,-33.69548 C -51.337997,667.01819 -34.4975,656.97734 6.9508724,640.47131 53.168776,622.06589 91.751369,614.74393 142.37721,614.77097 c 49.42342,0.0264 87.45024,7.0215 131.94755,24.272 22.85982,8.8622 36.92217,17.63585 82.13346,51.24398 21.90632,16.28422 41.1481,29.60768 42.75949,29.60768 3.0992,0 13.84914,-13.85004 41.43437,-53.38336 21.54357,-30.87482 46.44083,-55.64196 78.97948,-78.56667 14.15146,-9.97024 26.92336,-18.39273 28.382,-18.71663 1.45863,-0.32389 5.04533,3.02756 7.97042,7.44766 l 5.31833,8.03655 -25.64249,17.56041 c -34.09416,23.34823 -47.50001,35.28864 -61.93989,55.16895 -6.62739,9.12434 -21.7068,29.7836 -33.50982,45.90947 -11.80302,16.12586 -21.0743,30.29779 -20.60283,31.49318 1.00425,2.54628 26.23602,19.05071 38.36088,25.09231 50.00989,24.91912 112.38684,27.21432 163.3646,6.01111 18.27373,-7.6006 143.37863,-91.38657 143.46507,-96.08225 0.0272,-1.47915 -7.20257,-13.30439 -16.06622,-26.27836 -8.86365,-12.97395 -16.11573,-24.57393 -16.11573,-25.77774 0,-3.36593 14.33954,-13.58419 15.83052,-11.28075 9.07296,14.01688 35.69315,50.91766 36.73197,50.91766 0.75375,0 20.2835,-12.93203 43.39944,-28.73786 73.29503,-50.11634 69.83639,-48.08934 86.00561,-50.40513 18.51538,-2.65182 30.70665,-0.73135 46.10233,7.26243 11.14617,5.78732 15.00466,9.7725 39.69785,41.00123 110.8193,140.14993 139.9664,176.22198 146.6478,181.48941 13.8053,10.88361 33.0368,22.43463 44.4803,26.71621 42.195,15.78716 68.1792,-8.87227 81.205,-77.0647 3.4606,-18.11727 4.203,-35.34478 5.9689,-138.53645 1.1091,-64.81546 1.756,-123.73861 1.4373,-130.94033 l -0.5794,-13.09403 -32.2314,-1.12024 c -30.9913,-1.07716 -34.1306,-1.59625 -81.5859,-13.49022 -150.5263,-37.72717 -231.28949,-55.74275 -266.30621,-59.40406 -39.04492,-4.08248 -73.42916,2.15804 -99.17104,17.99888 l -11.93835,7.34653 -5.68823,-6.81359 c -3.12853,-3.74747 -5.68823,-7.48414 -5.68823,-8.30375 0,-2.40285 17.3566,-13.65421 28.76342,-18.64582 21.84514,-9.55935 38.31634,-12.2572 73.97437,-12.11641 23.00758,0.0908 38.81931,1.22095 51.3689,3.67143 44.72981,8.73412 125.03607,27.27225 203.19307,46.90566 l 84.8756,21.32115 30.217,0.24567 30.217,0.24564 -0.6182,-34.24593 c -0.6712,-37.19213 -4.3559,-63.66266 -10.713,-76.96255 -4.5816,-9.58548 -31.8377,-36.27257 -53.1317,-52.02251 -60.5231,-44.76549 -122.2471,-68.03943 -214.5407,-80.89576 -38.15325,-5.31468 -122.78197,-4.7903 -167.2007,1.03602 -63.93082,8.38567 -114.12031,18.96129 -133.8071,28.19498 -10.08726,4.73123 -67.92947,36.82735 -100.87824,55.9764 -4.43183,2.57568 -16.44308,9.38738 -26.69168,15.13709 -10.2486,5.74971 -18.63382,11.75967 -18.63382,13.35547 0,1.59578 7.93197,14.34743 17.62659,28.33699 9.69462,13.98955 17.91158,26.08746 18.25993,26.88423 0.34834,0.79678 -3.1885,3.97786 -7.85965,7.06908 -7.94537,5.258 -8.63567,5.38854 -10.70568,2.02452 -5.38974,-8.759 -37.75221,-53.74879 -38.66305,-53.74879 -0.55631,0 -23.36855,12.84444 -50.6939,28.54322 -84.50607,48.54981 -134.70496,69.18109 -192.62683,79.16783 -20.23332,3.48855 -60.27097,4.00786 -73.5187,0.95355 -7.01806,-1.61802 -70.06043,-26.36556 -168.192056,-66.02448 -7.297728,-2.9493 -7.965181,-2.91381 -10.504275,0.55861 -2.732785,3.7373 -29.0427841,64.82017 -29.0427841,67.42745 0,1.5085 12.9577331,7.16456 63.4556931,27.69848 17.727305,7.20844 33.325082,14.16155 34.661712,15.45138 1.89191,1.82561 1.57334,4.25445 -1.43806,10.96403 l -3.86834,8.61894 -7.627015,-3.19748 c -4.194864,-1.75863 -25.303975,-10.49405 -46.909127,-19.41205 -21.605153,-8.918 -50.6134702,-21.00178 -64.462927,-26.85284 -13.849457,-5.85105 -42.404519,-17.66556 -63.455693,-26.25442 -21.051178,-8.58886 -39.323288,-16.43575 -40.604718,-17.43752 -1.73588,-1.35705 -1.4791,-3.88137 1.00724,-9.90161 2.85095,-6.90313 4.07073,-7.95124 8.37325,-7.19487 2.76989,0.48696 24.979382,9.24957 49.354426,19.47248 24.375044,10.22292 45.960394,18.71373 47.967448,18.86848 2.869003,0.22123 6.9214444,-7.15105 18.9547792,-34.48293 8.4180928,-19.12037 14.9193198,-35.15063 14.4471488,-35.62278 -1.012652,-1.01267 -142.688162,-58.36989 -172.231462,-69.7278 -27.25271,-10.47728 -48.92468,-13.99387 -86.17122,-13.98251 -49.00095,0.0141 -98.95505,9.03372 -140.73977,25.40937 -34.54818,13.53962 -80.08405,38.3549 -80.08405,43.6427 0,1.46997 7.50572,13.04794 16.6794,25.7288 9.17366,12.68087 22.94121,32.04132 30.59455,43.0232 l 13.91517,19.96709 -6.84848,5.71736 c -3.76667,3.14456 -7.50431,5.71738 -8.30585,5.71738 -1.42177,0 -14.75085,-18.05842 -47.17014,-63.90671 -8.79319,-12.43561 -17.26364,-22.63384 -18.82324,-22.66275 -7.43217,-0.13779 -55.14837,45.35023 -74.96133,71.46096 -44.6116,58.79192 -67.32796,127.05742 -63.46191,190.71098 2.33489,38.44343 12.07033,72.69631 30.82033,108.4373 38.61647,73.61017 94.66393,118.52151 160.8002,128.85065 15.90238,2.48362 60.54741,0.83182 79.51389,-2.94193 z m -36.24072,-158.12286 c -14.93658,-21.04165 -41.45951,-58.43518 -58.9398,-83.09675 -17.48029,-24.66156 -39.57599,-55.56333 -49.10153,-68.67062 -9.52557,-13.10729 -17.43301,-25.2651 -17.57209,-27.01736 -0.24861,-3.13213 87.86313,-68.63384 92.67041,-68.8906 2.73007,-0.14585 155.89827,214.0092 155.78264,217.81046 -0.0443,1.45873 -7.52307,7.79695 -16.61935,14.08493 -9.09626,6.28799 -30.13557,21.01878 -46.75399,32.73508 -16.61844,11.71632 -30.68637,21.3024 -31.26208,21.3024 -0.57572,0 -13.2676,-17.2159 -28.20421,-38.25754 z m 984.28987,-65.69949 c -17.54359,-25.04562 -32.2671,-47.02849 -32.71892,-48.85081 -0.59852,-2.41412 11.33576,-11.73153 43.97481,-34.33229 24.63795,-17.06044 46.19379,-31.381 47.90186,-31.8235 2.05149,-0.53143 7.07813,4.86877 14.80981,15.91048 43.74684,62.47541 53.76591,77.08302 53.76591,78.3895 0,1.73623 -91.68826,66.24412 -94.15604,66.24412 -0.92398,0 -16.03382,-20.49188 -33.57743,-45.5375 z m -865.3852,-11.41191 c -12.73419,-17.9819 -47.07288,-66.23522 -76.30821,-107.22961 -29.23533,-40.99439 -53.26382,-75.56868 -53.39666,-76.83175 -0.19657,-1.86913 99.5298,-75.26047 102.26617,-75.26047 0.44826,0 18.36037,24.68908 39.80467,54.86464 21.44429,30.17556 56.42155,79.33972 77.72726,109.25372 31.49268,44.21692 38.25492,54.87177 36.15675,56.96996 -4.72209,4.72207 -99.03387,70.87431 -101.08244,70.9013 -1.10796,0.0141 -12.43335,-14.6859 -25.16754,-32.66779 z m 990.85084,-56.36433 c -12.48725,-18.0043 -27.05702,-38.99619 -32.37727,-46.64866 -5.32024,-7.65248 -9.67316,-15.06287 -9.67316,-16.46754 0,-1.40469 17.90357,-15.00276 39.78571,-30.21792 21.88214,-15.21517 45.36641,-31.61959 52.18727,-36.45427 l 12.40156,-8.79031 25.87471,36.80608 c 37.42146,53.23103 41.50547,59.42039 40.69912,61.6797 -0.39929,1.11869 -20.66917,15.76078 -45.04422,32.53798 -60.68429,41.76864 -58.48627,40.29002 -59.89285,40.29002 -0.69122,0 -11.47361,-14.73079 -23.96087,-32.73508 z M 525.79329,530.49187 c -13.1086,-18.86812 -29.04446,-41.76128 -35.41301,-50.8737 -6.36856,-9.11242 -11.58099,-17.66792 -11.58319,-19.01225 -0.002,-1.34433 13.46246,-11.7692 29.92144,-23.16636 16.45898,-11.39717 37.08208,-25.70794 45.82911,-31.8017 8.74704,-6.09376 16.44576,-11.33581 17.10828,-11.64898 0.66254,-0.31317 10.15484,12.37797 21.09402,28.20253 10.93918,15.82457 26.94091,38.72726 35.5594,50.89488 8.61852,12.16761 15.67002,23.1466 15.67002,24.39776 0,1.70779 -76.02158,56.16065 -91.85522,65.79423 -1.70271,1.03596 -10.07882,-9.39374 -26.33085,-32.78641 z m 129.26563,-61.45156 c -5.53978,-8.2192 -21.73712,-31.81399 -35.9941,-52.43284 -14.25697,-20.61885 -25.13509,-38.18111 -24.1736,-39.0272 1.55599,-1.36928 31.02574,-21.76067 86.73573,-60.01624 l 18.51017,-12.71078 8.90316,12.62106 c 39.49911,55.99371 63.99573,92.82869 62.55607,94.06404 -3.43418,2.9468 -105.03108,72.6605 -105.73741,72.55484 -0.40022,-0.0598 -5.26024,-6.83368 -10.80002,-15.05288 z M 298.49836,417.99538 c 31.89674,-7.19025 64.69342,-18.75041 100.99102,-35.59727 22.04649,-10.23249 110.54711,-60.06271 116.33748,-65.50377 3.68871,-3.46617 3.15463,-4.48843 -19.05807,-36.4791 -32.18263,-46.34931 -53.92708,-65.86117 -95.06214,-85.30166 -35.14713,-16.61059 -77.8135,-25.70932 -120.33126,-25.66101 -68.85867,0.0782 -127.68272,22.36562 -170.08202,64.441 -22.234477,22.0646 -29.991119,35.25794 -54.445916,92.60732 -5.298873,12.42646 -9.170174,23.80308 -8.6029,25.28137 0.965594,2.5163 157.132006,66.50951 171.253096,70.17536 11.18184,2.90282 59.23875,0.49255 79.00071,-3.96224 z"
       id="path3334"
       inkscape:connector-curvature="0"
       sodipodi:nodetypes="ssssscssccsssssssssssssssssscscscssssssssssscssscssscsssssssssssssssssssscccccccccccccccsssssssscsscsscscsscsssssccscssssssccssccssssssssssssssssssscsssssscssssssssssssscsssscsssssscccsssssssssscsssssssssscscsssssssssscscsssscsssssssssssssccssssscscssssssssssscsssssscscssssscsscssssssscscsscssssssssssss" />
  </g>
</svg>
