<?xml version="1.0" encoding="utf-8"?>
<!-- Generator: Adobe Illustrator 21.1.0, SVG Export Plug-In . SVG Version: 6.00 Build 0)  -->
<svg version="1.1" id="Слой_1" xmlns="http://www.w3.org/2000/svg" xmlns:xlink="http://www.w3.org/1999/xlink" x="0px" y="0px"
	 viewBox="0 0 16046.2 6997.1" style="enable-background:new 0 0 16046.2 6997.1;" xml:space="preserve">
<style type="text/css">
	.st0{fill:none;stroke:#000000;stroke-width:45;stroke-linecap:round;stroke-linejoin:round;}
</style>
<title>108MAXex530_270</title>
<g id="Trce_Curves">
	<path class="st0" d="M14327.8,92.4c110.9-104.9,285-82.7,377.1,6.5l51.6,45.6l1183.9,1164c116.3,103.9,103.1,281.9,8.1,376.8
		c-1116.3,1115.5-1717.7,1719.1-2790,2742.5c-291.3,266.1-823.6,361.1-1432.7,381.3s-3654,118.4-4007,132.3
		c-459.6,15.6-530.4-156.1-569.4-229.5c-100.5-189.2-305.7-563.6-540.9-1006.5C5957,2504,3687.7,3020.7,4004.7,4875.8
		c32.8,192.1,153.3,591.4,180.4,716.3c54.5,251.4-1.9,365.8-334.8,476c-682.3,246.6-1895.1,636.3-2625.5,880.6
		c-367.3,120.2-420.8-210.9-445.5-301.6c-450.1-1647.7-1112.7-2268.4-525.1-3315c56.7-100.9,135-195.2,283.5-185.8l2001.6,159.1
		c145.5,5.4,217.1-43.6,300.8-196.7c187.7-339.7,18.8-36.5,171.4-315.4c123.4-225.6,65.5-389.8,45.8-569.7L2899.8,728.9
		c-37.8-316.4-37.2-472.8,339.9-550.3c146.5-32.5,228.1-41,380-53.1C4987.9,16.6,6541.3,702.1,7664.2,1578.2
		c1113.4,868.6,1732.9,1494.8,2976,1159.7c182.8-52,347.1,86,332.9,293.9l-13.1,155.8c-23.2,368.6,116.3,556.2,629.9,459.8
		c297.9-56,347.4-108.2,561-300.4c30.3-27.3,473.1-425.4,512.4-460.7c68.8-61.8,143.9-223.7-18.9-397l-170.3-181.1
		c-134.8-143.4-50.3-287.5,69-408.6l1765-1787.3l19.7-19.9L14327.8,92.4z"/>
</g>
</svg>
