<?xml version="1.0" encoding="UTF-8" standalone="no"?>
<!-- Created with Inkscape (http://www.inkscape.org/) -->

<svg
   xmlns:dc="http://purl.org/dc/elements/1.1/"
   xmlns:cc="http://creativecommons.org/ns#"
   xmlns:rdf="http://www.w3.org/1999/02/22-rdf-syntax-ns#"
   xmlns:svg="http://www.w3.org/2000/svg"
   xmlns="http://www.w3.org/2000/svg"
   xmlns:sodipodi="http://sodipodi.sourceforge.net/DTD/sodipodi-0.dtd"
   xmlns:inkscape="http://www.inkscape.org/namespaces/inkscape"
   width="1906.9072mm"
   height="967.57086mm"
   viewBox="0 0 585.55402 297.11199"
   version="1.1"
   id="svg3734"
   inkscape:version="0.92.1 r15371"
   sodipodi:docname="field13.svg">
  <defs
     id="defs3728" />
  <sodipodi:namedview
     id="base"
     pagecolor="#ffffff"
     bordercolor="#666666"
     borderopacity="1.0"
     inkscape:pageopacity="0.0"
     inkscape:pageshadow="2"
     inkscape:zoom="0.0875"
     inkscape:cx="-3982.9274"
     inkscape:cy="2710.3573"
     inkscape:document-units="mm"
     inkscape:current-layer="layer1"
     showgrid="false"
     inkscape:window-width="1920"
     inkscape:window-height="1031"
     inkscape:window-x="0"
     inkscape:window-y="0"
     inkscape:window-maximized="1"
     fit-margin-top="0"
     fit-margin-left="0"
     fit-margin-right="0"
     fit-margin-bottom="0"
     scale-x="0.30707"
     inkscape:pagecheckerboard="false" />
  <metadata
     id="metadata3731">
    <rdf:RDF>
      <cc:Work
         rdf:about="">
        <dc:format>image/svg+xml</dc:format>
        <dc:type
           rdf:resource="http://purl.org/dc/dcmitype/StillImage" />
        <dc:title></dc:title>
      </cc:Work>
    </rdf:RDF>
  </metadata>
  <g
     inkscape:label="Layer 1"
     inkscape:groupmode="layer"
     id="layer1"
     transform="translate(188.36319,-0.20552853)">
    <g
       id="g3747"
       transform="matrix(0.9452381,0,0,0.9452381,-3.2410323,-7.0628391)"
       style="display:inline">
      <path
         style="fill:#ffffff;stroke-width:0.35277778"
         d="M -195.84712,164.85196 V 7.6894569 H 113.89177 423.63066 V 164.85196 322.01447 H 113.89177 -195.84712 Z"
         inkscape:connector-curvature="0"
         id="path3763" />
      <path
         style="fill:#000000;stroke-width:0.35277778"
         d="m -121.02078,321.17765 c -0.47914,-0.57734 -0.40068,-61.71201 0.0798,-62.1929 0.16151,-0.16164 6.63057,-0.3388 14.37569,-0.39369 l 14.082039,-0.0998 7.06e-4,-21.06687 c 3.53e-4,-11.58678 0.105117,-25.22883 0.232713,-30.31567 l 0.231994,-9.2488 -14.314752,-0.0998 c -7.8731,-0.0549 -14.44689,-0.2321 -14.6084,-0.39378 -0.3839,-0.38432 -0.3839,-62.52773 0,-62.91205 0.16151,-0.16168 6.70995,-0.33883 14.55208,-0.39365 l 14.258437,-0.0997 7.06e-4,-20.00866 c 3.52e-4,-11.00477 0.105194,-24.64693 0.232967,-30.315924 l 0.232315,-10.30726 -14.491385,-0.09968 c -7.97026,-0.05483 -14.62353,-0.2318 -14.78504,-0.393276 -0.16152,-0.161474 -0.33915,-5.916162 -0.39473,-12.788195 l -0.10112,-12.494603 h -9.10122 c -5.00567,0 -18.64704,-0.105339 -30.31414,-0.234086 l -21.21293,-0.234089 -0.10007,13.963354 c -0.055,7.679846 -0.23237,14.095498 -0.39406,14.257007 -0.38338,0.382947 -6.43738,0.382654 -6.82037,-3.32e-4 -0.38431,-0.384313 -0.38431,-62.527728 0,-62.91204 0.38299,-0.382983 6.43699,-0.383283 6.82037,-3.38e-4 0.16169,0.161504 0.33901,6.471817 0.39404,14.022917 l 0.10005,13.729273 h 30.31603 30.31603 l 0.0992,-14.963952 c 0.0546,-8.230175 0.23148,-15.096112 0.39317,-15.2576399 0.38445,-0.3840623 62.527862,-0.3838555 62.91204,2.094e-4 0.161689,0.1616425 0.336226,14.1713305 0.387862,31.1326395 l 0.09388,30.838744 h 13.346716 13.346716 l 0.21053,-3.615972 c 0.474359,-8.14735 3.627081,-15.8586 8.86356,-21.679398 4.76867,-5.300789 12.9852028,-9.246729 20.4744811,-9.832746 1.36626949,-0.106907 2.8357301,-0.265314 3.2654698,-0.352016 L 2.7419623,36.257242 2.8425604,23.237104 C 2.89789,16.076028 3.0754502,10.084839 3.2371388,9.9233501 3.6216913,9.5392791 65.765102,9.5396407 66.149178,9.923717 c 0.384087,0.38409 0.384429,62.527501 3.43e-4,62.912039 -0.161499,0.161689 -6.392436,0.339066 -13.846528,0.39417 l -13.55289,0.100189 v 30.314905 30.3149 l 13.55289,0.10019 c 7.454092,0.0551 13.685029,0.23232 13.846528,0.39383 0.161501,0.1615 0.338663,6.47181 0.393693,14.02292 l 0.100054,13.72927 h 28.904057 28.904055 l 0.10006,-13.72927 c 0.055,-7.55111 0.23234,-13.86142 0.39403,-14.02292 0.38339,-0.38295 6.43739,-0.38265 6.82038,3.3e-4 0.38431,0.38432 0.38431,62.52773 0,62.91205 -0.38299,0.38298 -6.43699,0.38328 -6.82038,3.3e-4 -0.16169,-0.1615 -0.33894,-6.44698 -0.39388,-13.96773 l -0.0999,-13.67409 -28.776296,-0.25375 c -15.826962,-0.13956 -28.841355,-0.18869 -28.920871,-0.10918 -0.07952,0.0795 -0.182104,6.34695 -0.227965,13.92763 -0.04586,7.58068 -0.215642,13.91529 -0.377285,14.07691 -0.161643,0.16162 -14.091955,0.33612 -30.95625,0.38777 l -30.6623545,0.0939 v 30.32746 30.32745 l 30.6623545,0.0939 c 16.864295,0.0516 30.794607,0.22617 30.95625,0.38781 0.48066,0.48066 0.559354,61.61538 0.08005,62.1929 -0.554725,0.66841 -62.3719823,0.72794 -63.0392121,0.0607 -0.3227175,-0.32272 -0.4233333,-7.6592 -0.4233333,-30.86806 V 259.92558 H -9.5804527 -21.927675 l -0.01231,1.85208 c -0.02731,4.10986 -1.694709,10.42006 -3.919167,14.83195 -1.845783,3.66084 -3.78859,6.2789 -6.991512,9.42152 -5.739935,5.63187 -12.308378,8.61957 -21.091596,9.59365 l -3.615972,0.40103 v 12.3946 c 0,9.16988 -0.110141,12.50475 -0.423333,12.81795 -0.66723,0.66723 -62.484485,0.6077 -63.039215,-0.0607 z m 61.979472,-28.88956 c 0.119351,-2.72721 0.428642,-2.48228 -3.840981,-3.04169 -11.92282,-1.56212 -20.033167,-9.36584 -22.585416,-21.73152 -0.360941,-1.74877 -0.658343,-4.14985 -0.66089,-5.33573 l -0.0046,-2.15614 -2.348141,-0.24057 c -1.466413,-0.15024 -2.484537,-0.10419 -2.711376,0.12265 -0.552394,0.5524 0.315309,7.85645 1.370891,11.53975 2.740921,9.56405 8.160621,16.14549 16.519257,20.06024 3.335764,1.5623 6.486726,2.48094 10.222893,2.98044 3.950197,0.5281 3.918363,0.54542 4.038399,-2.19743 z m 9.587311,-4.85867 c 5.482625,-1.53639 11.01392,-5.23589 14.287422,-9.55588 3.113091,-4.10829 5.385883,-10.1585 5.980236,-15.91949 l 0.209272,-2.02847 h -14.29058 -14.290584 v 14.33979 14.33978 l 2.734028,-0.2185 c 1.503715,-0.12018 3.920307,-0.55093 5.370206,-0.95723 z M -22.69962,237.3478 c 0.0605,-11.73868 0.0028,-25.51025 -0.128185,-30.60348 l -0.238182,-9.26041 h -2.429457 -2.429453 v 30.49398 30.49398 l 1.322916,0.1463 c 0.727605,0.0805 1.878542,0.12973 2.557639,0.10949 l 1.234723,-0.0368 z m -36.6225,-9.17222 v -30.33889 h -12.876388 -12.876389 v 30.33889 30.33888 h 12.876389 12.876388 z m -26.654414,-61.89475 c 0.142819,-16.57961 0.156619,-30.31148 0.03066,-30.51528 -0.125942,-0.20379 -1.330876,-0.37053 -2.677619,-0.37053 h -2.448624 v 30.51528 30.51527 h 2.417957 2.417956 z m 56.823152,20.35516 c -0.10522,-5.19024 -0.287729,-18.76337 -0.405578,-30.1625 l -0.214274,-20.7257 h -13.892498 -13.892499 v 30.16251 30.1625 h 14.298077 14.29808 z M 2.7667696,165.9103 V 135.74779 H -9.9815645 -22.729899 l 0.216938,3.2632 c 0.119316,1.79476 0.323461,15.36788 0.453654,30.1625 l 0.236714,26.89931 H -9.5279099 2.7667696 Z m 62.4416664,-0.15106 v -2.40247 l -3.114731,-0.39945 c -10.496469,-1.34612 -18.952157,-7.81236 -22.493721,-17.20143 -1.020618,-2.70578 -1.908214,-6.88314 -1.908214,-8.9808 v -1.38007 h -2.686932 -2.686929 l 0.248063,2.38125 c 0.913493,8.76899 4.082736,15.71951 9.640041,21.14173 4.048894,3.95048 8.301799,6.38264 14.134095,8.08306 2.804075,0.81753 7.978524,1.59287 8.603745,1.28917 0.145521,-0.0707 0.264583,-1.20963 0.264583,-2.53099 z M -23.994402,116.5214 c -0.06955,-9.70138 -0.228297,-23.43326 -0.352778,-30.515274 l -0.226328,-12.876389 h -2.35203 c -1.293615,0 -2.451636,0.09969 -2.57338,0.221527 -0.244217,0.244415 0.425334,52.498566 0.739814,57.737566 l 0.196797,3.27854 2.347179,-0.10354 2.347175,-0.10354 z M -59.32212,103.64502 V 73.306126 h -12.7 -12.7 v 30.338894 30.33889 h 12.7 12.7 z m 90.66389,0 V 73.306126 H 17.936214 4.5306585 v 30.338894 30.33889 H 17.936214 31.34177 Z M -85.904765,69.467318 c -0.817178,-8.792507 -6.961628,-17.936818 -15.477055,-23.033307 -4.89006,-2.926708 -10.95592,-4.808763 -16.0087,-4.967022 l -2.78577,-0.08725 v 2.469444 2.469445 l 2.83426,0.23519 c 4.03885,0.335149 6.88728,1.144026 10.92408,3.102155 8.522791,4.134139 14.341864,11.846094 15.516116,20.56335 l 0.225725,1.675694 h 2.498485 2.498489 z M 2.7667696,57.755825 V 43.616633 L 0.38551959,43.865045 C -13.94255,45.359732 -22.122892,54.20934 -23.486529,69.690153 l -0.194219,2.204861 H -10.456989 2.7667696 Z M 37.559425,69.091705 C 37.189386,64.654638 35.793405,59.803827 33.634928,55.454716 28.48779,45.083772 19.673235,39.035019 7.7296192,37.677892 6.0788732,37.490321 4.5962399,37.468877 4.4348793,37.630238 4.2735188,37.791599 4.1893707,38.934676 4.2478824,40.17041 l 0.1063872,2.246789 3.3235512,0.443922 c 4.3849822,0.585695 6.6725162,1.276677 10.0820042,3.045424 5.238609,2.717638 10.22622,8.439821 12.497506,14.338117 1.177403,3.057599 2.142772,7.399024 2.142772,9.636408 0,0.848966 0.105833,1.649409 0.235186,1.778758 0.12935,0.129353 1.3428,0.235186 2.696553,0.235186 h 2.461369 z M 293.45566,279.85709 c -30.66038,-3.39876 -57.88625,-18.3735 -77.43687,-42.59166 -2.91741,-3.61391 -8.2984,-11.68381 -10.76576,-16.14541 -9.19551,-16.62789 -14.10293,-35.83936 -14.10293,-55.20972 0,-42.25033 23.03964,-80.794232 60.36688,-100.990013 13.31411,-7.203574 28.45968,-11.720001 44.1362,-13.161483 5.76961,-0.530528 19.86831,-0.228279 25.31915,0.542791 19.72712,2.790582 37.5582,10.086594 53.26944,21.796467 37.14359,27.683808 53.87876,74.894718 42.52648,119.969568 -6.40842,25.44504 -21.43206,47.93282 -42.52648,63.6549 -16.60027,12.37251 -35.63094,19.84219 -56.34101,22.1143 -6.02823,0.66136 -18.56796,0.67175 -24.4451,0.0202 z m 20.35369,-11.13145 c 24.2128,-1.99484 46.35327,-11.99929 63.56449,-28.7224 16.60253,-16.13172 26.81869,-35.9898 30.44525,-59.17921 0.67624,-4.32414 0.78758,-6.43215 0.78758,-14.91373 0,-11.30119 -0.51799,-15.7713 -2.93402,-25.32068 -10.02573,-39.62648 -42.8087,-69.827149 -82.93643,-76.403523 -33.15829,-5.434175 -66.29115,5.198745 -89.96317,28.870766 -37.25679,37.256807 -40.42766,96.350427 -7.38276,137.588157 1.63252,2.03729 4.95477,5.69071 7.38276,8.11871 21.37904,21.37901 51.23363,32.41729 81.0363,29.96191 z m -10.04002,-23.9621 c -1.72755,-0.40976 -3.83829,-1.94976 -4.92679,-3.59457 -1.38045,-2.086 -1.53688,-5.76761 -0.34226,-8.05451 1.53299,-2.93464 5.40268,-4.93095 8.43685,-4.35243 3.82831,0.72995 6.97964,4.36752 6.97964,8.0566 0,3.24359 -2.96594,7.093 -6.06672,7.87378 -1.83275,0.4615 -2.3937,0.47127 -4.08072,0.0711 z m 5.23617,-2.57344 c 5.39331,-3.63453 3.06272,-11.54508 -3.40134,-11.54508 -4.69215,0 -7.53413,4.87186 -5.35753,9.18421 1.05671,2.09359 2.92682,3.14938 5.59227,3.15721 1.47821,0.004 2.2763,-0.19637 3.1666,-0.79634 z m -55.41602,-18.2247 c -4.57151,-1.39059 -7.10431,-5.72349 -5.85019,-10.00805 1.0565,-3.60948 4.07497,-5.94068 7.69162,-5.94032 3.21606,3.2e-4 5.56418,1.35791 7.21201,4.16969 1.25465,2.14092 1.34112,5.23436 0.20673,7.39609 -1.80665,3.44285 -5.93161,5.39509 -9.26017,4.38259 z m 4.94118,-2.32984 c 4.17086,-2.12103 4.27168,-8.67417 0.16919,-10.99769 -2.92368,-1.65588 -6.82508,-0.6288 -8.50589,2.23924 -0.77876,1.32889 -0.89564,1.88156 -0.76874,3.63579 0.33796,4.6724 4.92082,7.25068 9.10544,5.12266 z m 94.80832,2.17719 c -5.67958,-2.11719 -7.40315,-9.26873 -3.2294,-13.39972 3.39842,-3.36363 8.62299,-3.18738 11.85418,0.39992 4.35438,4.83425 1.1375,12.7762 -5.4,13.33168 -1.15429,0.0981 -2.42115,-0.0323 -3.22478,-0.33188 z m 5.41641,-2.19269 c 2.84953,-1.44064 4.14084,-4.90082 2.92132,-7.82802 -2.14807,-5.15611 -9.17194,-5.32233 -11.46627,-0.27134 -0.85372,1.87947 -0.82874,3.50663 0.0828,5.38956 1.49102,3.08003 5.31058,4.30315 8.46219,2.7098 z M 232.4251,173.67203 c -7.74654,-2.47137 -7.57608,-13.26502 0.24568,-15.5545 5.0854,-1.48853 10.13171,2.39282 10.13171,7.79277 0,5.44726 -5.27206,9.39047 -10.37739,7.76173 z m 6.13163,-2.76691 c 1.70336,-1.29922 2.38545,-2.72739 2.38545,-4.99482 0,-3.63306 -2.15864,-5.88813 -5.82538,-6.0857 -2.6754,-0.14415 -4.57606,0.81778 -5.76552,2.91788 -1.67255,2.95315 -0.65927,6.89497 2.19908,8.55479 2.00674,1.16529 5.19871,0.98664 7.00637,-0.39215 z m 64.77671,2.76691 c -3.49032,-1.11351 -5.64445,-4.07567 -5.64445,-7.76173 0,-3.82263 2.19813,-6.71219 5.93877,-7.80691 3.07287,-0.8993 6.00791,0.0525 8.25419,2.67679 1.90112,2.22101 2.44701,4.73087 1.62539,7.47311 -1.23035,4.10662 -6.12137,6.71162 -10.1739,5.41874 z m 5.05488,-2.06932 c 3.36303,-1.40517 4.67212,-6.03157 2.57718,-9.108 -1.24689,-1.83108 -2.47643,-2.52094 -4.7916,-2.6884 -2.76465,-0.19998 -4.87977,0.93572 -5.9816,3.21177 -2.61249,5.39676 2.64531,10.90387 8.19602,8.58463 z m 65.9317,2.09766 c -3.48206,-1.12951 -5.72269,-4.17958 -5.72269,-7.79007 0,-3.83002 2.55464,-7.02701 6.34093,-7.93533 4.8061,-1.15296 9.88289,2.92338 9.88289,7.93533 0,5.24134 -5.58528,9.38468 -10.50113,7.79007 z m 4.97663,-2.09766 c 3.37189,-1.40886 4.6681,-6.0169 2.56879,-9.13204 -2.50119,-3.71154 -7.91108,-3.71517 -10.45196,-0.007 -1.24435,1.81603 -1.24626,5.07444 -0.004,6.88734 1.70307,2.48547 5.04461,3.43943 7.88723,2.2517 z M 254.00953,123.69754 c -6.39681,-1.1264 -8.82456,-9.33645 -4.06605,-13.75045 4.10609,-3.80878 10.28051,-2.7129 12.90617,2.29069 1.17672,2.2424 1.05516,5.33136 -0.29581,7.51651 -1.89,3.05701 -5.11771,4.54662 -8.54431,3.94325 z m 4.69032,-2.51482 c 3.29463,-1.86598 4.06929,-6.94419 1.48301,-9.72192 -1.78686,-1.91913 -5.24485,-2.53284 -7.55124,-1.34016 -2.97756,1.53975 -4.19425,5.72421 -2.52695,8.69075 1.69051,3.00788 5.57773,4.08032 8.59518,2.37133 z m 93.663,1.88286 c -4.2078,-2.22548 -5.71726,-6.81704 -3.60927,-10.97884 2.89366,-5.71296 10.82548,-5.99208 14.04736,-0.49432 2.4408,4.16491 0.78472,9.52756 -3.55222,11.50277 -1.88331,0.85771 -5.23544,0.8433 -6.88587,-0.0296 z m 7.3214,-2.36983 c 4.6645,-3.76817 2.19601,-11.08794 -3.76188,-11.15513 -5.47511,-0.0617 -8.26883,6.13059 -4.68651,10.3879 1.30457,1.55041 2.71713,2.09254 5.09701,1.95621 1.62637,-0.0932 2.28353,-0.32631 3.35138,-1.18898 z m -56.09911,-17.89738 c -6.44062,-1.76194 -8.07596,-10.167116 -2.76764,-14.225002 3.76438,-2.877644 8.4916,-2.148512 11.48104,1.770859 4.49139,5.888507 -1.48558,14.431433 -8.7134,12.454143 z m 5.87993,-2.801585 c 3.68134,-2.807903 3.21599,-8.541844 -0.86448,-10.651942 -1.52125,-0.786677 -4.47887,-0.649831 -6.1491,0.284512 -3.88337,2.172427 -3.91647,8.312976 -0.0576,10.679585 2.04795,1.25596 5.19755,1.11692 7.07115,-0.312155 z"
         inkscape:connector-curvature="0"
         id="path3761" />
      <path
         style="fill:#000000;stroke-width:0.35277778"
         d="m -121.02078,321.17765 c -0.47914,-0.57734 -0.40068,-61.71201 0.0798,-62.1929 0.16151,-0.16164 6.63057,-0.3388 14.37569,-0.39369 l 14.082039,-0.0998 7.06e-4,-21.06687 c 3.53e-4,-11.58678 0.105117,-25.22883 0.232713,-30.31567 l 0.231994,-9.2488 -14.314752,-0.0998 c -7.8731,-0.0549 -14.44689,-0.2321 -14.6084,-0.39378 -0.3839,-0.38432 -0.3839,-62.52773 0,-62.91205 0.16151,-0.16168 6.70995,-0.33883 14.55208,-0.39365 l 14.258437,-0.0997 7.06e-4,-20.00866 c 3.52e-4,-11.00477 0.105194,-24.64693 0.232967,-30.315924 l 0.232315,-10.30726 -14.491385,-0.09968 c -7.97026,-0.05483 -14.62353,-0.2318 -14.78504,-0.393276 -0.16152,-0.161474 -0.33915,-5.916162 -0.39473,-12.788195 l -0.10112,-12.494603 h -9.10122 c -5.00567,0 -18.64704,-0.105339 -30.31414,-0.234086 l -21.21293,-0.234089 -0.10007,13.963354 c -0.055,7.679846 -0.23237,14.095498 -0.39406,14.257007 -0.38338,0.382947 -6.43738,0.382654 -6.82037,-3.32e-4 -0.38431,-0.384313 -0.38431,-62.527728 0,-62.91204 0.38299,-0.382983 6.43699,-0.383283 6.82037,-3.38e-4 0.16169,0.161504 0.33901,6.471817 0.39404,14.022917 l 0.10005,13.729273 h 30.31603 30.31603 l 0.0992,-14.963952 c 0.0546,-8.230175 0.23148,-15.096112 0.39317,-15.2576399 0.38445,-0.3840623 62.527862,-0.3838555 62.91204,2.094e-4 0.161689,0.1616425 0.336226,14.1713305 0.387862,31.1326395 l 0.09388,30.838744 h 13.346716 13.346716 l 0.21053,-3.615972 c 0.474359,-8.14735 3.627081,-15.8586 8.86356,-21.679398 4.76867,-5.300789 12.9852028,-9.246729 20.4744811,-9.832746 1.36626949,-0.106907 2.8357301,-0.265314 3.2654698,-0.352016 L 2.7419623,36.257242 2.8425604,23.237104 C 2.89789,16.076028 3.0754502,10.084839 3.2371388,9.9233501 3.6216913,9.5392791 65.765102,9.5396407 66.149178,9.923717 c 0.384087,0.38409 0.384429,62.527501 3.43e-4,62.912039 -0.161499,0.161689 -6.392436,0.339066 -13.846528,0.39417 l -13.55289,0.100189 v 30.314905 30.3149 l 13.55289,0.10019 c 7.454092,0.0551 13.685029,0.23232 13.846528,0.39383 0.161501,0.1615 0.338663,6.47181 0.393693,14.02292 l 0.100054,13.72927 h 28.904057 28.904055 l 0.10006,-13.72927 c 0.055,-7.55111 0.23234,-13.86142 0.39403,-14.02292 0.38339,-0.38295 6.43739,-0.38265 6.82038,3.3e-4 0.38431,0.38432 0.38431,62.52773 0,62.91205 -0.38299,0.38298 -6.43699,0.38328 -6.82038,3.3e-4 -0.16169,-0.1615 -0.33894,-6.44698 -0.39388,-13.96773 l -0.0999,-13.67409 -28.776296,-0.25375 c -15.826962,-0.13956 -28.841355,-0.18869 -28.920871,-0.10918 -0.07952,0.0795 -0.182104,6.34695 -0.227965,13.92763 -0.04586,7.58068 -0.215642,13.91529 -0.377285,14.07691 -0.161643,0.16162 -14.091955,0.33612 -30.95625,0.38777 l -30.6623545,0.0939 v 30.32746 30.32745 l 30.6623545,0.0939 c 16.864295,0.0516 30.794607,0.22617 30.95625,0.38781 0.48066,0.48066 0.559354,61.61538 0.08005,62.1929 -0.554725,0.66841 -62.3719823,0.72794 -63.0392121,0.0607 -0.3227175,-0.32272 -0.4233333,-7.6592 -0.4233333,-30.86806 V 259.92558 H -9.5804527 -21.927675 l -0.01231,1.85208 c -0.02731,4.10986 -1.694709,10.42006 -3.919167,14.83195 -1.845783,3.66084 -3.78859,6.2789 -6.991512,9.42152 -5.739935,5.63187 -12.308378,8.61957 -21.091596,9.59365 l -3.615972,0.40103 v 12.3946 c 0,9.16988 -0.110141,12.50475 -0.423333,12.81795 -0.66723,0.66723 -62.484485,0.6077 -63.039215,-0.0607 z m 61.979472,-28.88956 c 0.119351,-2.72721 0.428642,-2.48228 -3.840981,-3.04169 -11.92282,-1.56212 -20.033167,-9.36584 -22.585416,-21.73152 -0.360941,-1.74877 -0.658343,-4.14985 -0.66089,-5.33573 l -0.0046,-2.15614 -2.348141,-0.24057 c -1.466413,-0.15024 -2.484537,-0.10419 -2.711376,0.12265 -0.552394,0.5524 0.315309,7.85645 1.370891,11.53975 2.740921,9.56405 8.160621,16.14549 16.519257,20.06024 3.335764,1.5623 6.486726,2.48094 10.222893,2.98044 3.950197,0.5281 3.918363,0.54542 4.038399,-2.19743 z m 9.587311,-4.85867 c 5.482625,-1.53639 11.01392,-5.23589 14.287422,-9.55588 3.113091,-4.10829 5.385883,-10.1585 5.980236,-15.91949 l 0.209272,-2.02847 h -14.29058 -14.290584 v 14.33979 14.33978 l 2.734028,-0.2185 c 1.503715,-0.12018 3.920307,-0.55093 5.370206,-0.95723 z M -22.69962,237.3478 c 0.0605,-11.73868 0.0028,-25.51025 -0.128185,-30.60348 l -0.238182,-9.26041 h -2.429457 -2.429453 v 30.49398 30.49398 l 1.322916,0.1463 c 0.727605,0.0805 1.878542,0.12973 2.557639,0.10949 l 1.234723,-0.0368 z m -36.6225,-9.17222 v -30.33889 h -12.876388 -12.876389 v 30.33889 30.33888 h 12.876389 12.876388 z m -26.654414,-61.89475 c 0.142819,-16.57961 0.156619,-30.31148 0.03066,-30.51528 -0.125942,-0.20379 -1.330876,-0.37053 -2.677619,-0.37053 h -2.448624 v 30.51528 30.51527 h 2.417957 2.417956 z m 56.823152,20.35516 c -0.10522,-5.19024 -0.287729,-18.76337 -0.405578,-30.1625 l -0.214274,-20.7257 h -13.892498 -13.892499 v 30.16251 30.1625 h 14.298077 14.29808 z M 2.7667696,165.9103 V 135.74779 H -9.9815645 -22.729899 l 0.216938,3.2632 c 0.119316,1.79476 0.323461,15.36788 0.453654,30.1625 l 0.236714,26.89931 H -9.5279099 2.7667696 Z m 62.4416664,-0.15106 v -2.40247 l -3.114731,-0.39945 c -10.496469,-1.34612 -18.952157,-7.81236 -22.493721,-17.20143 -1.020618,-2.70578 -1.908214,-6.88314 -1.908214,-8.9808 v -1.38007 h -2.686932 -2.686929 l 0.248063,2.38125 c 0.913493,8.76899 4.082736,15.71951 9.640041,21.14173 4.048894,3.95048 8.301799,6.38264 14.134095,8.08306 2.804075,0.81753 7.978524,1.59287 8.603745,1.28917 0.145521,-0.0707 0.264583,-1.20963 0.264583,-2.53099 z M -23.994402,116.5214 c -0.06955,-9.70138 -0.228297,-23.43326 -0.352778,-30.515274 l -0.226328,-12.876389 h -2.35203 c -1.293615,0 -2.451636,0.09969 -2.57338,0.221527 -0.244217,0.244415 0.425334,52.498566 0.739814,57.737566 l 0.196797,3.27854 2.347179,-0.10354 2.347175,-0.10354 z M -59.32212,103.64502 V 73.306126 h -12.7 -12.7 v 30.338894 30.33889 h 12.7 12.7 z m 90.66389,0 V 73.306126 H 17.936214 4.5306585 v 30.338894 30.33889 H 17.936214 31.34177 Z M -85.904765,69.467318 c -0.817178,-8.792507 -6.961628,-17.936818 -15.477055,-23.033307 -4.89006,-2.926708 -10.95592,-4.808763 -16.0087,-4.967022 l -2.78577,-0.08725 v 2.469444 2.469445 l 2.83426,0.23519 c 4.03885,0.335149 6.88728,1.144026 10.92408,3.102155 8.522791,4.134139 14.341864,11.846094 15.516116,20.56335 l 0.225725,1.675694 h 2.498485 2.498489 z M 2.7667696,57.755825 V 43.616633 L 0.38551959,43.865045 C -13.94255,45.359732 -22.122892,54.20934 -23.486529,69.690153 l -0.194219,2.204861 H -10.456989 2.7667696 Z M 37.559425,69.091705 C 37.189386,64.654638 35.793405,59.803827 33.634928,55.454716 28.48779,45.083772 19.673235,39.035019 7.7296192,37.677892 6.0788732,37.490321 4.5962399,37.468877 4.4348793,37.630238 4.2735188,37.791599 4.1893707,38.934676 4.2478824,40.17041 l 0.1063872,2.246789 3.3235512,0.443922 c 4.3849822,0.585695 6.6725162,1.276677 10.0820042,3.045424 5.238609,2.717638 10.22622,8.439821 12.497506,14.338117 1.177403,3.057599 2.142772,7.399024 2.142772,9.636408 0,0.848966 0.105833,1.649409 0.235186,1.778758 0.12935,0.129353 1.3428,0.235186 2.696553,0.235186 h 2.461369 z M 293.45566,279.85709 c -30.66038,-3.39876 -57.88625,-18.3735 -77.43687,-42.59166 -2.91741,-3.61391 -8.2984,-11.68381 -10.76576,-16.14541 -9.19551,-16.62789 -14.10293,-35.83936 -14.10293,-55.20972 0,-42.25033 23.03964,-80.794232 60.36688,-100.990013 13.31411,-7.203574 28.45968,-11.720001 44.1362,-13.161483 5.76961,-0.530528 19.86831,-0.228279 25.31915,0.542791 19.72712,2.790582 37.5582,10.086594 53.26944,21.796467 37.14359,27.683808 53.87876,74.894718 42.52648,119.969568 -6.40842,25.44504 -21.43206,47.93282 -42.52648,63.6549 -16.60027,12.37251 -35.63094,19.84219 -56.34101,22.1143 -6.02823,0.66136 -18.56796,0.67175 -24.4451,0.0202 z m 20.35369,-11.13145 c 24.2128,-1.99484 46.35327,-11.99929 63.56449,-28.7224 16.60253,-16.13172 26.81869,-35.9898 30.44525,-59.17921 0.67624,-4.32414 0.78758,-6.43215 0.78758,-14.91373 0,-11.30119 -0.51799,-15.7713 -2.93402,-25.32068 -10.02573,-39.62648 -42.8087,-69.827149 -82.93643,-76.403523 -33.15829,-5.434175 -66.29115,5.198745 -89.96317,28.870766 -37.25679,37.256807 -40.42766,96.350427 -7.38276,137.588157 1.63252,2.03729 4.95477,5.69071 7.38276,8.11871 21.37904,21.37901 51.23363,32.41729 81.0363,29.96191 z m -9.41758,-24.31374 c -3.70568,-0.70587 -6.35,-3.86791 -6.35,-7.59327 0,-4.22171 3.36024,-7.55869 7.62984,-7.57697 0.99494,-0.004 2.37462,0.22858 3.06596,0.51744 3.00172,1.2542 5.09813,4.99455 4.61391,8.23198 -0.61193,4.09098 -4.93324,7.1878 -8.95971,6.42082 z m 4.58611,-1.73076 c 0.6791,-0.34853 1.71097,-1.3079 2.29306,-2.13195 0.90032,-1.27458 1.05801,-1.82294 1.05628,-3.67275 -0.004,-3.4434 -1.93812,-5.81472 -5.39915,-6.6171 -2.76984,-0.64214 -6.44158,1.34047 -7.45356,4.02462 -0.20592,0.5462 -0.37441,1.70224 -0.37441,2.56897 0,5.15973 5.2009,8.22843 9.87778,5.82821 z m -55.59065,-19.22109 c -3.30595,-1.07097 -5.44594,-3.95732 -5.43214,-7.32666 0.0339,-8.23601 10.74099,-10.69388 14.52499,-3.33424 1.08214,2.10469 0.79826,5.66259 -0.61193,7.66903 -1.83328,2.60844 -5.58215,3.93095 -8.48092,2.99187 z m 4.12066,-0.98288 c 2.56042,-0.86844 4.09786,-2.65661 4.70542,-5.47277 0.5335,-2.47275 -1.4375,-6.00783 -3.93041,-7.04943 -1.36666,-0.57103 -3.91325,-0.61988 -5.28552,-0.1014 -2.42066,0.9146 -4.09251,3.44831 -4.09251,6.20231 0,4.58173 4.38249,7.85282 8.60302,6.42129 z m 96.80194,1.14279 c -3.70198,-0.92778 -6.16575,-4.04823 -6.17164,-7.81655 -0.004,-1.90732 1.67993,-4.90689 3.43577,-6.12384 1.77515,-1.23032 4.99925,-1.64285 6.88182,-0.88054 5.06511,2.05099 6.73033,8.03983 3.36931,12.11734 -1.77906,2.15828 -5.02776,3.327 -7.51526,2.70359 z m 3.44921,-1.11004 c 2.98316,-0.82843 5.1096,-4.05503 4.75361,-7.21305 -0.38167,-3.38646 -3.14681,-5.81852 -6.61532,-5.81852 -3.90571,0 -6.70278,2.80689 -6.70278,6.72633 0,2.69384 1.83208,5.22631 4.45816,6.16248 1.66715,0.59432 2.38978,0.61945 4.10633,0.14276 z M 231.54316,172.92888 c -5.87791,-3.1992 -5.89488,-10.95144 -0.0307,-13.96661 1.95675,-1.00608 5.58482,-0.79494 7.39503,0.43036 4.67738,3.16604 4.67381,9.87154 -0.007,13.04005 -1.66723,1.12859 -5.69645,1.40032 -7.35757,0.4962 z m 6.84724,-1.48254 c 2.91042,-1.77731 3.8692,-5.08435 2.40273,-8.28753 -2.38961,-5.21959 -9.52507,-5.22294 -12.20547,-0.006 -0.56074,1.09146 -0.4911,4.54839 0.11525,5.72098 0.69268,1.33946 2.81421,3.1522 3.99323,3.412 0.53005,0.11679 1.12244,0.27036 1.31646,0.34127 0.78617,0.28734 2.91278,-0.28636 4.3778,-1.18099 z m 64.06109,1.48254 c -5.87791,-3.1992 -5.89488,-10.95144 -0.0307,-13.96661 2.01609,-1.0366 5.57216,-0.79595 7.54659,0.51068 4.52896,2.99711 4.52511,9.88011 -0.007,12.87943 -1.82647,1.20871 -5.78841,1.51289 -7.50884,0.5765 z m 6.59779,-1.23417 c 0.73639,-0.37569 1.77568,-1.34303 2.30946,-2.14965 0.79449,-1.20057 0.97053,-1.85982 0.97053,-3.63476 0,-1.77495 -0.17604,-2.4342 -0.97053,-3.63477 -2.9423,-4.44612 -10.03603,-3.78943 -11.88342,1.10009 -0.51848,1.37229 -0.46962,3.91888 0.10139,5.28554 0.58839,1.40822 2.73491,3.34001 4.02777,3.6249 0.53005,0.11679 1.12243,0.27036 1.31646,0.34127 0.64988,0.23752 2.77625,-0.24284 4.12834,-0.93262 z m 64.13924,1.02879 c -5.55692,-2.86543 -5.55692,-10.76098 0,-13.62641 1.28937,-0.66486 2.01432,-0.79391 3.91446,-0.6968 2.89524,0.14796 4.76906,1.26879 6.20204,3.70975 2.01955,3.44013 0.9349,8.01136 -2.42919,10.2376 -2.05507,1.35999 -5.45631,1.52629 -7.68731,0.37586 z m 6.6977,-0.95854 c 0.67909,-0.34421 1.71097,-1.30006 2.29305,-2.12411 0.90657,-1.28343 1.05833,-1.81838 1.05833,-3.73055 0,-1.91218 -0.15176,-2.44713 -1.05833,-3.73056 -1.38331,-1.95832 -3.32659,-2.95496 -5.695,-2.92073 -2.17498,0.0314 -3.6613,0.807 -5.20372,2.71528 -0.99991,1.23711 -1.09572,1.57887 -1.09572,3.90802 0,2.25548 0.11557,2.70387 0.99363,3.85507 2.2546,2.95594 5.42142,3.69332 8.70776,2.02758 z M 252.35705,122.73175 c -6.59839,-3.05495 -5.58045,-12.62764 1.54171,-14.49846 1.97647,-0.51918 4.43223,0.0271 6.34245,1.41087 3.63245,2.63133 3.89685,8.51052 0.52662,11.70922 -2.15727,2.04748 -5.70854,2.62947 -8.41078,1.37837 z m 5.92585,-0.86613 c 1.55131,-0.64817 3.31051,-2.73523 3.78224,-4.48716 1.2706,-4.71863 -3.32006,-9.40029 -7.99225,-8.15067 -2.18853,0.58534 -3.18474,1.32113 -4.25013,3.13912 -1.0772,1.83809 -1.2405,4.61121 -0.36981,6.27942 0.6846,1.31166 2.27404,2.83965 3.43326,3.30054 1.28475,0.51079 4.08051,0.46869 5.39669,-0.0812 z m 94.80275,1.14245 c -2.62403,-1.04723 -4.94083,-4.33489 -4.94404,-7.01583 -0.007,-5.78712 6.12839,-9.7019 11.16119,-7.12166 7.25395,3.71902 4.60131,14.60805 -3.53417,14.50763 -0.99638,-0.0123 -2.20373,-0.17886 -2.68298,-0.37014 z m 6.00033,-1.37835 c 3.97588,-2.02835 4.62333,-7.89459 1.20279,-10.89786 -5.25095,-4.61041 -13.1053,0.95097 -10.60167,7.50665 1.38267,3.62048 5.81483,5.21965 9.39888,3.39121 z m -56.63449,-19.71186 c -7.35802,-3.406657 -4.90604,-14.503378 3.2209,-14.576403 4.92587,-0.04426 8.74067,4.70342 7.51932,9.358165 -1.23903,4.722228 -6.39788,7.228688 -10.74022,5.218238 z m 6.84724,-1.39317 c 3.64529,-2.194882 4.18927,-7.186201 1.11796,-10.257548 -2.55292,-2.552894 -6.36027,-2.671523 -9.08072,-0.282931 -1.561,1.370584 -2.23587,2.885115 -2.23587,5.017749 0,3.053524 1.74971,5.45278 4.63088,6.35008 1.94896,0.60697 3.59079,0.363 5.56775,-0.82735 z"
         inkscape:connector-curvature="0"
         id="path3759" />
      <path
         style="fill:#000000;stroke-width:0.35277778"
         d="m -120.82115,321.4284 c -0.13039,-0.1304 -0.23708,-14.0695 -0.23708,-30.97579 0,-23.43751 0.10055,-30.83925 0.42333,-31.16203 0.31508,-0.31508 4.01383,-0.42334 14.46389,-0.42334 h 14.040557 v -30.69166 -30.69167 h -14.040557 c -10.45006,0 -14.14881,-0.10826 -14.46389,-0.42334 -0.6135,-0.61349 -0.6135,-61.68706 0,-62.30055 0.31526,-0.31526 4.05303,-0.42334 14.64028,-0.42334 h 14.216945 l 0.07937,-27.51666 c 0.04366,-15.134172 0.08334,-28.905734 0.08819,-30.603478 l 0.0088,-3.086805 -14.256235,-0.09225 c -9.80777,-0.06346 -14.40359,-0.214541 -14.72847,-0.484169 -0.37818,-0.313863 -0.47224,-2.87769 -0.47224,-12.872336 V 47.200569 l -26.45833,-0.08141 c -14.55209,-0.04478 -28.32365,-0.08446 -30.60348,-0.0882 l -4.14514,-0.0068 -0.0924,13.727244 c -0.0634,9.416397 -0.21542,13.875488 -0.48416,14.199306 -0.50966,0.614101 -5.62667,0.65411 -6.23206,0.04873 -0.6135,-0.613498 -0.6135,-61.687058 0,-62.300557 0.5656,-0.565597 5.6433,-0.565597 6.20889,0 0.31446,0.31446 0.42334,3.883839 0.42334,13.878944 v 13.455611 l 6.61458,0.23117 c 3.63802,0.127144 17.44927,0.231619 30.69167,0.232167 l 24.07708,9.97e-4 v -14.9225 c 0,-11.136019 0.10742,-15.029919 0.42333,-15.345834 0.6135,-0.6134996 61.687061,-0.6134996 62.300559,0 0.322795,0.322795 0.423334,7.738513 0.423334,31.224977 v 30.801645 l 13.670139,-0.09234 13.670138,-0.09234 0.222346,-3.527777 c 0.646521,-10.257939 5.014979,-19.205668 12.081669,-24.746368 4.833821,-3.790004 10.7679874,-6.06719 17.94668003,-6.886891 L 3.1195474,36.517618 V 23.585204 c 0,-9.588174 0.1094705,-13.041885 0.4233333,-13.355747 0.6134982,-0.6134996 61.6870573,-0.6134996 62.3005553,0 0.656573,0.656572 0.608902,61.777935 -0.0486,62.323619 -0.323064,0.268118 -4.691049,0.420853 -13.846528,0.484169 l -13.374589,0.09249 -0.09014,30.603475 -0.09014,30.60347 h 13.540698 c 10.876954,0 13.617758,0.0929 13.932425,0.47201 0.268436,0.32344 0.420822,4.73697 0.484167,14.02291 l 0.09244,13.55092 H 95.547335 124.6515 l 0.0924,-13.55092 c 0.0633,-9.28594 0.21573,-13.69947 0.48417,-14.02291 0.50961,-0.61405 5.62666,-0.65401 6.232,-0.0487 0.32278,0.32277 0.42334,7.72191 0.42334,31.15028 0,23.42836 -0.10056,30.8275 -0.42334,31.15027 -0.56559,0.5656 -5.64329,0.5656 -6.20889,0 -0.31471,-0.31471 -0.42333,-3.93543 -0.42333,-14.11111 V 169.26168 H 95.547325 66.26677 v 13.68778 c 0,10.17568 -0.10862,13.7964 -0.423334,14.11111 -0.322756,0.32276 -7.698394,0.42334 -31.044444,0.42334 H 4.1778807 v 30.69167 30.69166 H 34.826353 c 25.400695,0 30.716605,0.0821 31.046389,0.47947 0.290219,0.34969 0.373524,8.82399 0.307781,31.30903 l -0.09014,30.82956 H 34.693159 3.2959363 L 3.2058157,290.52905 3.115695,259.5728 H -9.3843752 -21.884442 l -0.207634,1.67569 c -0.603113,4.86737 -1.05143,7.23406 -1.854426,9.78959 -4.360552,13.87745 -16.229309,23.28046 -30.770883,24.3782 l -3.185033,0.24044 -0.09249,12.91429 -0.09249,12.91429 -31.248336,0.0901 c -17.186586,0.0495 -31.355026,-0.0166 -31.485416,-0.14699 z m 61.918409,-28.86505 c 0.139545,-1.40991 0.101667,-2.6253 -0.08898,-2.85502 -0.182584,-0.22 -1.41497,-0.49079 -2.738635,-0.60176 -9.857595,-0.82643 -18.242559,-6.93948 -21.735768,-15.84644 -1.119766,-2.85518 -1.881283,-5.90433 -2.140849,-8.57205 -0.113274,-1.16417 -0.287747,-2.79136 -0.387721,-3.61598 l -0.181769,-1.4993 h -2.84233 -2.842331 l 0.249788,3.0868 c 0.927654,11.4636 4.837504,19.6224 12.256932,25.57688 4.123944,3.30968 10.609376,5.89378 16.504508,6.57616 3.857208,0.44649 3.669763,0.55331 3.947155,-2.24929 z m 8.736623,-4.63505 c 4.870277,-1.20025 10.192311,-4.28549 13.503257,-7.82799 4.366786,-4.67219 7.320347,-11.70147 7.73586,-18.41085 l 0.120159,-1.94027 -14.552083,-0.0921 -14.552083,-0.0921 v 14.69596 14.69595 l 2.717807,-0.22974 c 1.494797,-0.12635 3.756984,-0.48583 5.027083,-0.79884 z m -8.803224,-59.75702 v -30.69596 l -13.140972,0.0925 -13.140972,0.0925 -0.09014,30.60347 -0.09015,30.60347 h 13.231117 13.231114 z m 36.457421,25.34821 c 0.266182,-6.14977 0.227881,-26.34327 -0.08354,-44.04114 l -0.21416,-12.17083 h -2.645834 -2.645833 l -0.09013,30.77986 -0.09013,30.77986 h 2.769079 2.76908 z m -63.196795,-87.16822 c 0.05756,-16.7349 0.04555,-30.63185 -0.02667,-30.88212 -0.09589,-0.33223 -0.857567,-0.42744 -2.822222,-0.35278 l -2.690901,0.10226 -0.09013,30.77986 -0.09013,30.77986 h 2.807702 2.807702 z m 56.578282,-0.16281 c -0.140889,-16.63042 -0.333527,-30.36229 -0.428078,-30.51528 -0.09455,-0.15299 -6.512546,-0.27816 -14.262206,-0.27816 h -14.09029 v 30.51528 30.51527 h 14.518372 14.518368 z M 3.1195474,165.9103 V 135.39502 H -9.7849332 -22.689414 l 0.224483,29.72153 c 0.123465,16.34684 0.297882,30.07871 0.38759,30.51527 l 0.163107,0.79375 H -9.3973434 3.1195474 Z m 62.4416666,-0.12538 v -2.77121 l -2.313336,-0.21602 c -9.890193,-0.92356 -18.51938,-6.74615 -22.533145,-15.20435 -1.466815,-3.09102 -2.27838,-6.11043 -2.602325,-9.68188 l -0.244249,-2.69283 h -2.822223 -2.822222 l 0.102253,2.29305 c 0.421135,9.44393 5.329837,18.8321 12.693943,24.27788 5.369126,3.97049 12.64019,6.63963 18.336443,6.73115 l 2.204861,0.0354 z m -89.03837,-31.54505 c 0.221999,-0.222 -0.488058,-52.358986 -0.785421,-57.67055 l -0.202438,-3.615972 h -2.818028 -2.818024 l 0.224462,10.31875 c 0.123455,5.675313 0.368568,19.411992 0.5447,30.525962 0.176131,11.11396 0.427609,20.38094 0.558838,20.59327 0.236979,0.38344 4.894206,0.25024 5.295911,-0.15146 z M -58.969342,103.64502 V 72.953348 H -71.79104 -84.612737 l -0.23108,4.818278 c -0.127096,2.650052 -0.23108,16.461303 -0.23108,30.691664 v 25.87339 h 13.052777 13.052778 z m 90.663889,0 V 72.953348 H 17.936214 4.1778807 v 30.691672 30.69166 H 17.936214 31.694547 Z M -85.427675,70.998197 c 0,-3.905261 -2.125998,-10.114728 -4.921737,-14.375081 -5.948726,-9.065095 -15.491218,-14.535033 -27.217808,-15.601774 l -2.68261,-0.24403 -0.22781,1.139059 c -0.3393,1.696505 -0.27537,4.15483 0.11431,4.395667 0.18816,0.116294 1.59895,0.354786 3.13509,0.529986 4.01817,0.458283 6.84394,1.26185 10.45751,2.973821 8.506258,4.029932 14.491154,11.891998 15.531881,20.403475 l 0.248027,2.028472 h 2.781572 2.781575 z M 3.0353111,57.872097 2.9431585,43.496402 0.47371404,43.622277 c -3.50543994,0.178679 -7.29069964,1.215828 -10.72148804,2.937651 -8.052749,4.041469 -13.42898,13.434287 -13.441126,23.483003 l -0.0027,2.204861 H -10.28205 3.1274602 Z M 38.042466,71.101264 C 38.038444,68.882955 37.012655,63.222011 36.123175,60.509408 34.210283,54.675754 31.220569,49.902346 26.980459,45.912066 21.31942,40.584581 15.073133,37.920665 7.0725071,37.421729 l -3.2789813,-0.204485 0.1039812,2.786802 0.1039848,2.786801 2.8222223,0.273579 c 6.3349189,0.614094 11.8596799,2.973889 16.0539399,6.857129 5.332726,4.937291 8.383217,11.560253 9.349006,20.297765 l 0.224211,2.028472 h 2.79684 2.796837 l -0.0021,-1.146528 z M 299.45288,280.00985 c -33.8522,-1.89226 -64.64155,-18.39122 -85.28378,-45.70066 -20.33432,-26.90212 -27.55787,-62.45843 -19.44504,-95.714 5.07464,-20.80163 15.66132,-39.19129 31.39899,-54.541827 14.50915,-14.152249 31.67831,-23.834136 51.02507,-28.773639 27.64158,-7.057284 55.75236,-3.877734 81.08019,9.170808 10.35692,5.33576 19.75308,12.222131 28.19445,20.66349 14.28595,14.285937 24.40171,31.674628 29.6236,50.922008 2.69939,9.94973 3.84496,18.85062 3.84496,29.87427 0,4.26861 -0.20373,9.58673 -0.45279,11.81805 -2.49819,22.38378 -10.87674,42.57664 -24.95723,60.14861 -3.97732,4.96359 -11.90805,12.89635 -16.88814,16.89251 -11.55256,9.27008 -25.73962,16.69658 -39.86389,20.86757 -11.73385,3.46509 -25.78922,5.07081 -38.27639,4.37281 z m 13.40556,-10.91353 c 35.46602,-2.62534 66.37725,-22.38271 83.56684,-53.41299 16.91609,-30.53659 16.91609,-69.00947 0,-99.54607 C 380.85325,88.026957 354.06764,69.129036 322.24035,63.797918 295.66454,59.34643 267.00964,66.134234 245.12853,82.064272 224.58825,97.018106 210.1868,118.83801 204.77854,143.1992 c -6.13156,27.61926 -0.84299,56.45427 14.60261,79.61805 4.09172,6.13639 6.84575,9.60907 11.5147,14.51944 21.06439,22.15357 51.64638,34.00377 81.96259,31.75963 z m -8.46667,-24.68442 c -3.70568,-0.70587 -6.35,-3.86791 -6.35,-7.59327 0,-4.22171 3.36024,-7.55869 7.62984,-7.57697 0.99494,-0.004 2.37462,0.22858 3.06596,0.51744 3.00172,1.2542 5.09813,4.99455 4.61391,8.23198 -0.61193,4.09098 -4.93324,7.1878 -8.95971,6.42082 z m 4.58611,-1.73076 c 0.6791,-0.34853 1.71097,-1.3079 2.29306,-2.13195 0.90032,-1.27458 1.05801,-1.82294 1.05628,-3.67275 -0.004,-3.4434 -1.93812,-5.81472 -5.39915,-6.6171 -2.76984,-0.64214 -6.44158,1.34047 -7.45356,4.02462 -0.20592,0.5462 -0.37441,1.70224 -0.37441,2.56897 0,5.15973 5.2009,8.22843 9.87778,5.82821 z m -55.59065,-19.22109 c -3.30595,-1.07097 -5.44594,-3.95732 -5.43214,-7.32666 0.0339,-8.23601 10.74099,-10.69388 14.52499,-3.33424 1.08214,2.10469 0.79826,5.66259 -0.61193,7.66903 -1.83328,2.60844 -5.58215,3.93095 -8.48092,2.99187 z m 4.12066,-0.98288 c 2.56042,-0.86844 4.09786,-2.65661 4.70542,-5.47277 0.5335,-2.47275 -1.4375,-6.00783 -3.93041,-7.04943 -1.36666,-0.57103 -3.91325,-0.61988 -5.28552,-0.1014 -2.42066,0.9146 -4.09251,3.44831 -4.09251,6.20231 0,4.58173 4.38249,7.85282 8.60302,6.42129 z m 96.80194,1.14279 c -3.70198,-0.92778 -6.16575,-4.04823 -6.17164,-7.81655 -0.004,-1.90732 1.67993,-4.90689 3.43577,-6.12384 1.77515,-1.23032 4.99925,-1.64285 6.88182,-0.88054 5.06511,2.05099 6.73033,8.03983 3.36931,12.11734 -1.77906,2.15828 -5.02776,3.327 -7.51526,2.70359 z m 3.44921,-1.11004 c 2.98316,-0.82843 5.1096,-4.05503 4.75361,-7.21305 -0.38167,-3.38646 -3.14681,-5.81852 -6.61532,-5.81852 -3.90571,0 -6.70278,2.80689 -6.70278,6.72633 0,2.69384 1.83208,5.22631 4.45816,6.16248 1.66715,0.59432 2.38978,0.61945 4.10633,0.14276 z M 231.54316,172.92888 c -5.87791,-3.1992 -5.89488,-10.95144 -0.0307,-13.96661 1.95675,-1.00608 5.58482,-0.79494 7.39503,0.43036 4.67738,3.16604 4.67381,9.87154 -0.007,13.04005 -1.66723,1.12859 -5.69645,1.40032 -7.35757,0.4962 z m 6.84724,-1.48254 c 2.91042,-1.77731 3.8692,-5.08435 2.40273,-8.28753 -2.38961,-5.21959 -9.52507,-5.22294 -12.20547,-0.006 -0.56074,1.09146 -0.4911,4.54839 0.11525,5.72098 0.69268,1.33946 2.81421,3.1522 3.99323,3.412 0.53005,0.11679 1.12244,0.27036 1.31646,0.34127 0.78617,0.28734 2.91278,-0.28636 4.3778,-1.18099 z m 64.06109,1.48254 c -5.87791,-3.1992 -5.89488,-10.95144 -0.0307,-13.96661 2.01609,-1.0366 5.57216,-0.79595 7.54659,0.51068 4.52896,2.99711 4.52511,9.88011 -0.007,12.87943 -1.82647,1.20871 -5.78841,1.51289 -7.50884,0.5765 z m 6.59779,-1.23417 c 0.73639,-0.37569 1.77568,-1.34303 2.30946,-2.14965 0.79449,-1.20057 0.97053,-1.85982 0.97053,-3.63476 0,-1.77495 -0.17604,-2.4342 -0.97053,-3.63477 -2.9423,-4.44612 -10.03603,-3.78943 -11.88342,1.10009 -0.51848,1.37229 -0.46962,3.91888 0.10139,5.28554 0.58839,1.40822 2.73491,3.34001 4.02777,3.6249 0.53005,0.11679 1.12243,0.27036 1.31646,0.34127 0.64988,0.23752 2.77625,-0.24284 4.12834,-0.93262 z m 64.13924,1.02879 c -5.55692,-2.86543 -5.55692,-10.76098 0,-13.62641 1.28937,-0.66486 2.01432,-0.79391 3.91446,-0.6968 2.89524,0.14796 4.76906,1.26879 6.20204,3.70975 2.01955,3.44013 0.9349,8.01136 -2.42919,10.2376 -2.05507,1.35999 -5.45631,1.52629 -7.68731,0.37586 z m 6.6977,-0.95854 c 0.67909,-0.34421 1.71097,-1.30006 2.29305,-2.12411 0.90657,-1.28343 1.05833,-1.81838 1.05833,-3.73055 0,-1.91218 -0.15176,-2.44713 -1.05833,-3.73056 -1.38331,-1.95832 -3.32659,-2.95496 -5.695,-2.92073 -2.17498,0.0314 -3.6613,0.807 -5.20372,2.71528 -0.99991,1.23711 -1.09572,1.57887 -1.09572,3.90802 0,2.25548 0.11557,2.70387 0.99363,3.85507 2.2546,2.95594 5.42142,3.69332 8.70776,2.02758 z M 252.35705,122.73175 c -6.59839,-3.05495 -5.58045,-12.62764 1.54171,-14.49846 1.97647,-0.51918 4.43223,0.0271 6.34245,1.41087 3.63245,2.63133 3.89685,8.51052 0.52662,11.70922 -2.15727,2.04748 -5.70854,2.62947 -8.41078,1.37837 z m 5.92585,-0.86613 c 1.55131,-0.64817 3.31051,-2.73523 3.78224,-4.48716 1.2706,-4.71863 -3.32006,-9.40029 -7.99225,-8.15067 -2.18853,0.58534 -3.18474,1.32113 -4.25013,3.13912 -1.0772,1.83809 -1.2405,4.61121 -0.36981,6.27942 0.6846,1.31166 2.27404,2.83965 3.43326,3.30054 1.28475,0.51079 4.08051,0.46869 5.39669,-0.0812 z m 94.80275,1.14245 c -2.62403,-1.04723 -4.94083,-4.33489 -4.94404,-7.01583 -0.007,-5.78712 6.12839,-9.7019 11.16119,-7.12166 7.25395,3.71902 4.60131,14.60805 -3.53417,14.50763 -0.99638,-0.0123 -2.20373,-0.17886 -2.68298,-0.37014 z m 6.00033,-1.37835 c 3.97588,-2.02835 4.62333,-7.89459 1.20279,-10.89786 -5.25095,-4.61041 -13.1053,0.95097 -10.60167,7.50665 1.38267,3.62048 5.81483,5.21965 9.39888,3.39121 z m -56.63449,-19.71186 c -7.35802,-3.406657 -4.90604,-14.503378 3.2209,-14.576403 4.92587,-0.04426 8.74067,4.70342 7.51932,9.358165 -1.23903,4.722228 -6.39788,7.228688 -10.74022,5.218238 z m 6.84724,-1.39317 c 3.64529,-2.194882 4.18927,-7.186201 1.11796,-10.257548 -2.55292,-2.552894 -6.36027,-2.671523 -9.08072,-0.282931 -1.561,1.370584 -2.23587,2.885115 -2.23587,5.017749 0,3.053524 1.74971,5.45278 4.63088,6.35008 1.94896,0.60697 3.59079,0.363 5.56775,-0.82735 z"
         inkscape:connector-curvature="0"
         id="path3757" />
    </g>
  </g>
</svg>
