<?xml version="1.0" encoding="UTF-8" standalone="no"?>
<!-- Created with Inkscape (http://www.inkscape.org/) -->

<svg
   xmlns:dc="http://purl.org/dc/elements/1.1/"
   xmlns:cc="http://creativecommons.org/ns#"
   xmlns:rdf="http://www.w3.org/1999/02/22-rdf-syntax-ns#"
   xmlns:svg="http://www.w3.org/2000/svg"
   xmlns="http://www.w3.org/2000/svg"
   xmlns:sodipodi="http://sodipodi.sourceforge.net/DTD/sodipodi-0.dtd"
   xmlns:inkscape="http://www.inkscape.org/namespaces/inkscape"
   width="794.34186mm"
   height="335.20096mm"
   viewBox="0 0 1810.7391 764.10616"
   id="svg7324"
   version="1.1"
   inkscape:version="0.92.1 r15371"
   sodipodi:docname="field6.svg">
  <defs
     id="defs7326" />
  <sodipodi:namedview
     id="base"
     pagecolor="#ffffff"
     bordercolor="#666666"
     borderopacity="1.0"
     inkscape:pageopacity="0.0"
     inkscape:pageshadow="2"
     inkscape:zoom="0.98994949"
     inkscape:cx="1280.6799"
     inkscape:cy="1189.8959"
     inkscape:document-units="px"
     inkscape:current-layer="layer1"
     showgrid="false"
     inkscape:window-width="1920"
     inkscape:window-height="1031"
     inkscape:window-x="0"
     inkscape:window-y="0"
     inkscape:window-maximized="1"
     scale-x="0.60313"
     fit-margin-top="0"
     fit-margin-left="0"
     fit-margin-right="0"
     fit-margin-bottom="0" />
  <metadata
     id="metadata7329">
    <rdf:RDF>
      <cc:Work
         rdf:about="">
        <dc:format>image/svg+xml</dc:format>
        <dc:type
           rdf:resource="http://purl.org/dc/dcmitype/StillImage" />
        <dc:title></dc:title>
      </cc:Work>
    </rdf:RDF>
  </metadata>
  <g
     inkscape:label="Layer 1"
     inkscape:groupmode="layer"
     id="layer1"
     transform="translate(556.20648,-128.87087)">
    <path
       style="fill:#000000"
       d="m -556.20619,883.80408 v -9.17294 h 54.89559 54.89559 l 0.77066,-65.58655 c 0.85916,-73.11855 1.16802,-75.34233 14.20557,-102.27831 12.17323,-25.15028 32.76272,-45.7759 57.77417,-57.8756 25.93424,-12.54611 30.68314,-13.18913 104.1129,-14.09722 l 65.58655,-0.81107 v -63.36605 c 0,-57.22393 0.3605,-64.89958 3.71915,-79.18712 7.81596,-33.2487 30.88428,-63.06994 62.32604,-80.57102 16.59204,-9.23544 31.82412,-13.36844 55.874952,-15.16085 28.373658,-2.11457 37.017744,-4.14342 55.849981,-13.10858 27.00905278,-12.85775 49.206218,-39.55705 57.891638,-69.63352 1.648965,-5.71012 3.729169,-20.98307 4.622705,-33.93988 2.411512,-34.96897 12.574363,-59.64602 34.170774,-82.97214 20.393985,-22.02738 47.83705,-36.16165 78.48891,-40.42494 19.35117,-2.69149 252.5963,-2.69149 271.94747,0 49.96783,6.94989 90.47535,40.43032 106.38266,87.92785 l 5.21805,15.58052 0.96481,67.87978 0.96481,67.87978 h 64.2106 c 69.41071,0 73.49732,-0.44476 93.00086,-10.12148 34.91505,-17.32316 89.64437,-72.88551 112.29178,-114.00099 8.51246,-15.45398 14.7654,-40.13329 17.54065,-69.22978 3.85976,-40.46675 12.01315,-56.15493 34.79511,-66.95024 11.11289,-5.26589 13.56328,-5.71286 31.31932,-5.71286 16.55407,0 21.22766,0.72291 33.23163,5.14021 15.92453,5.86002 31.80108,17.67014 42.478,31.59819 37.02266,48.29605 50.75426,154.67843 50.84776,393.93128 l 0.029,74.75948 h 111.8826 111.8827 l 0.4859,-54.57901 0.4859,-54.57901 7.7971,-0.56414 7.797,-0.56413 v 119.35374 119.35375 h -8.2557 -8.2556 v -54.84137 c 0,-48.31578 -0.3454,-54.97389 -2.902,-55.95496 -3.7912,-1.45482 -214.2247,-1.45482 -218.0159,0 -2.6053,0.99973 -2.902,13.37896 -2.902,121.08285 v 119.96927 h -64.99511 c -36.50535,0 -71.23668,-0.86811 -79.23424,-1.98047 -29.74074,-4.13656 -59.49255,-19.47389 -78.38498,-40.40814 -21.52105,-23.84699 -31.57937,-48.99401 -34.19164,-85.48328 -0.96594,-13.49286 -3.20825,-28.38435 -5.27121,-35.0069 -8.79819,-28.24423 -31.20105,-53.88996 -58.24614,-66.67744 -23.61981,-11.16795 -27.64631,-11.65228 -97.04557,-11.67329 l -62.37602,-0.0189 -0.47184,120.6242 -0.47184,120.6242 -306.82176,-0.0147 c -200.544673,-0.008 -310.952294,-0.66455 -318.746599,-1.89398 -53.502791,-8.43925 -96.390041,-46.28472 -108.178801,-95.46148 -3.34807,-13.96641 -3.70664,-21.60173 -3.71825,-79.17405 l -0.0129,-63.71701 -4.58766,-1.15142 c -2.52322,-0.63328 -32.03717,-0.7957 -65.58655,-0.3609 l -60.99888,0.79052 -15.54994,5.29252 c -30.16975,10.26845 -53.69289,30.90834 -66.8461,58.65269 -10.60816,22.37602 -11.12862,26.82938 -11.14923,95.39861 l -0.0188,62.37601 55.4963,0.48554 55.49631,0.48556 v 9.14603 9.14605 h -119.24826 -119.24827 v -9.17294 z M 516.58377,763.17988 516.1109,651.72862 451.9003,650.81133 c -73.75234,-1.05361 -65.61219,0.8241 -93.78869,-21.63433 -22.08709,-17.60477 -30.10808,-22.71984 -41.83904,-26.68116 -22.68597,-7.6606 -34.94754,-2.19116 -73.51538,32.79252 -41.89069,37.99771 -56.42571,46.71097 -77.92087,46.71097 -21.46596,0 -38.3368,-9.7441 -73.500708,-42.45183 -26.245791,-24.41255 -38.67867,-33.76984 -49.759732,-37.45037 -17.874269,-5.93688 -36.3901678,-0.0747 -60.247581,19.0744 -7.567678,6.0742 -19.418975,15.02167 -26.336218,19.88325 l -12.576803,8.83925 -64.475918,0.9173 -64.47593,0.91729 -0.48203,64.59644 -0.48204,64.59641 5.24301,16.30379 c 9.14567,28.43959 28.11907,51.24207 53.71962,64.56093 26.05268,13.55409 0.32463,12.59029 339.66276,12.72421 l 305.93187,0.12074 z M 997.6729,657.69104 c -0.0165,-204.22663 -0.88816,-253.33864 -5.55974,-313.25601 -5.70873,-73.21986 -14.51472,-117.87907 -29.087,-147.51376 -11.46912,-23.32394 -23.07417,-35.64769 -42.1689,-44.78038 -23.20651,-11.09928 -48.42456,-10.31369 -64.81166,2.01901 -12.37202,9.31102 -15.98051,18.68975 -18.99212,49.36207 -3.30787,33.6894 -6.74162,48.05709 -16.35822,68.44681 -10.74225,22.77642 -27.43994,45.52238 -52.32841,71.28298 -34.64201,35.8559 -60.12646,54.62227 -85.86382,63.22886 -13.95628,4.66697 -14.90895,4.73045 -81.5424,5.43374 l -67.42113,0.71158 v 110.66238 110.66239 l 65.58654,0.78137 c 65.10517,0.77561 65.70725,0.81806 82.03204,5.78422 26.20625,7.9722 50.02454,24.16334 64.55851,43.88548 17.65856,23.96208 25.82546,46.66188 27.46464,76.33771 1.30951,23.70749 4.52857,37.29429 12.6629,53.44691 10.7109,21.269 27.76722,38.07308 49.98882,49.24958 20.92224,10.52298 24.56855,10.94242 96.27094,11.07442 l 65.58655,0.12074 -0.0183,-216.9401 z m -814.02022,2.97084 c 12.09486,-6.09908 18.59299,-11.2351 47.5681,-37.59707 12.89164,-11.72902 27.83779,-24.35481 33.21367,-28.05732 10.58145,-7.28772 25.22163,-12.0196 37.29497,-12.05416 17.98403,-0.0516 41.91784,11.97643 67.94909,34.14782 5.2292,4.45383 13.07207,10.13564 17.42859,12.62628 l 7.92095,4.52841 61.00007,0.022 61.00008,0.022 V 523.30723 412.31462 H 396.86264 276.69708 V 292.14906 171.98351 h -64.40445 c -52.5768,0 -66.44539,0.52886 -75.51792,2.8798 -27.56907,7.14385 -53.864373,27.10261 -68.458012,51.96119 -10.85816,18.49564 -13.333387,27.59869 -15.411591,56.67868 -2.847392,39.84336 -13.390076,64.86474 -37.687607,89.44566 -24.1066605,24.38781 -50.952637,35.70909 -92.837123,39.15062 -12.480211,1.02546 -27.231887,3.20972 -32.781517,4.85388 -14.75451,4.37129 -32.90712,15.94916 -45.3513,28.92537 -13.53509,14.11378 -19.75698,23.86796 -25.88117,40.57444 -4.75856,12.98107 -4.76824,13.12554 -5.39718,80.42555 l -0.63007,67.42114 h 59.45387 c 38.948205,0 61.475193,-0.70465 65.314491,-2.04304 3.223354,-1.12365 14.924911,-9.25924 26.003479,-18.07904 36.77519255,-29.27734 55.848164,-35.80558 82.643799,-28.28712 12.332014,3.4602 30.097162,16.63962 63.320991,46.97594 35.2728,32.20721 52.84203,38.75534 74.57691,27.7951 z M 516.59404,332.90165 c 0.54187,-69.5212 -0.23528,-76.18112 -11.66195,-99.93813 -9.00627,-18.72482 -29.62827,-39.48908 -48.44532,-48.77952 -23.91372,-11.8068 -26.72759,-12.15432 -98.60914,-12.17852 l -64.66925,-0.0218 v 110.68683 c 0,60.87778 0.55676,111.24362 1.23724,111.92411 0.68051,0.68048 50.83358,1.02447 111.45127,0.76442 l 110.21401,-0.47285 0.48314,-61.98457 z"
       id="path7343"
       inkscape:connector-curvature="0" />
  </g>
</svg>
