<?xml version="1.0" encoding="UTF-8" standalone="no"?>
<!-- Created with Inkscape (http://www.inkscape.org/) -->

<svg
   xmlns:dc="http://purl.org/dc/elements/1.1/"
   xmlns:cc="http://creativecommons.org/ns#"
   xmlns:rdf="http://www.w3.org/1999/02/22-rdf-syntax-ns#"
   xmlns:svg="http://www.w3.org/2000/svg"
   xmlns="http://www.w3.org/2000/svg"
   xmlns:sodipodi="http://sodipodi.sourceforge.net/DTD/sodipodi-0.dtd"
   xmlns:inkscape="http://www.inkscape.org/namespaces/inkscape"
   viewBox="0 0 295.19055 154.80774"
   version="1.1"
   id="svg15"
   inkscape:version="0.92.1 r15371"
   sodipodi:docname="field15.svg"
   width="1033.4875"
   height="541.99524">
  <defs
     id="defs2" />
  <sodipodi:namedview
     id="base"
     pagecolor="#ffffff"
     bordercolor="#000000"
     borderopacity="1.0"
     inkscape:pageopacity="0.0"
     inkscape:pageshadow="2"
     inkscape:zoom="0.7"
     inkscape:cx="79.770334"
     inkscape:cy="542.99002"
     inkscape:document-units="mm"
     inkscape:current-layer="layer1"
     showgrid="false"
     inkscape:window-width="1920"
     inkscape:window-height="1031"
     inkscape:window-x="0"
     inkscape:window-y="0"
     inkscape:window-maximized="1"
     fit-margin-top="0"
     fit-margin-left="0"
     fit-margin-right="0"
     fit-margin-bottom="0"
     scale-x="1.07953" />
  <metadata
     id="metadata5">
    <rdf:RDF>
      <cc:Work
         rdf:about="">
        <dc:format>image/svg+xml</dc:format>
        <dc:type
           rdf:resource="http://purl.org/dc/dcmitype/StillImage" />
        <dc:title></dc:title>
      </cc:Work>
    </rdf:RDF>
  </metadata>
  <g
     inkscape:label="Layer 1"
     inkscape:groupmode="layer"
     id="layer1"
     transform="translate(-2.1702457,-0.84715622)">
    <g
       id="g3691"
       transform="matrix(0.53722165,0,0,0.53722165,92.213698,-1.9239434)">
      <path
         style="fill:#000000;stroke-width:0.89178073"
         d="m -167.18165,292.2043 c -0.23587,-0.61465 -0.32359,-16.36572 -0.19497,-35.0024 l 0.23389,-33.88483 2.4524,-0.28218 2.45239,-0.28219 v 15.60169 c 0,12.99434 0.23421,15.8359 1.40137,17.00308 1.22105,1.22104 5.45272,1.40137 32.8867,1.40137 25.70685,0 31.673078,-0.22623 32.508336,-1.23265 0.702993,-0.84707 0.946376,-5.93813 0.778029,-16.27501 l -0.244981,-15.04235 -16.497954,-0.49696 c -9.07386,-0.27333 -16.59826,-0.57431 -16.72089,-0.66882 -0.12255,-0.0945 -0.22295,-7.37163 -0.22295,-16.17131 0,-11.82381 -0.29092,-16.18596 -1.11472,-16.71417 -0.6131,-0.39312 -3.49893,-1.20987 -6.41298,-1.81496 -31.95301,-6.63521 -42.77043,-46.53444 -18.47572,-68.1464 6.68208,-5.94423 13.7267,-8.78693 24.2225,-9.7745 9.70966,-0.9136 16.03036,-2.88203 21.56067,-6.71455 8.51796,-5.90293 14.107934,-17.49956 14.107934,-29.267445 0,-5.300217 2.95021,-14.419054 6.302265,-19.479738 3.858186,-5.824795 10.046072,-11.087476 16.884028,-14.359547 5.448068,-2.606994 6.413161,-2.773757 16.052053,-2.773757 9.688777,0 10.588521,0.157755 16.282604,2.854985 8.371395,3.965455 15.087992,10.572378 19.194251,18.880832 3.247775,6.571428 3.315605,6.91941 3.315605,17.01039 0,9.740811 -0.15545,10.629907 -2.854993,16.328854 -3.897438,8.227816 -10.590751,15.097086 -18.537053,19.024356 -5.289791,2.61437 -7.884079,3.28864 -15.35902,3.99198 -10.57149,0.99471 -15.088592,2.41419 -21.373318,6.71656 -7.379584,5.05189 -13.663965,15.72654 -13.663965,23.20964 v 3.0091 h 15.873699 c 11.157166,0 16.191661,0.31796 16.943834,1.07015 0.752172,0.75217 1.070137,5.78666 1.070137,16.94383 0,18.88688 -0.358782,18.52243 10.255477,10.41778 9.265217,-7.07458 14.809222,-9.68998 20.510956,-9.67607 6.243257,0.0161 10.399616,2.21955 19.4662793,10.32393 4.33022014,3.87062 10.2751411,8.74303 13.2109462,10.82755 9.0728885,6.44213 12.5338515,5.39474 28.1976235,-8.53348 11.443526,-10.17558 15.774717,-12.65013 22.119361,-12.63758 5.67037,0.0105 11.305007,2.69655 20.45235,9.74709 l 7.134244,5.49891 6.688355,-0.27236 c 15.246237,-0.62079 27.742727,-12.13906 30.333267,-27.95878 1.33332,-8.14222 1.14248,-36.52628 -0.25338,-37.68474 -0.69993,-0.58089 -9.14895,-1.04835 -22.12221,-1.22392 L 80.671051,115.41159 73.96676,112.09598 C 65.662684,107.98922 59.053867,101.26912 55.090313,92.901734 52.390767,87.202787 52.235321,86.313691 52.235321,76.57288 c 0,-10.09098 0.06787,-10.438962 3.315605,-17.01039 4.112562,-8.321207 10.826583,-14.921583 19.194252,-18.869376 5.569954,-2.627838 6.838852,-2.863744 16.728494,-3.109955 16.364878,-0.407423 14.630658,1.509631 14.916318,-16.489095 l 0.24394,-15.3714995 h 2.67535 2.67534 V 40.947901 76.173247 h -2.67534 -2.67535 l -0.24301,-16.26305 -0.24301,-16.26305 -2.31719,-0.581571 C 99.471597,41.971499 84.589276,43.3601 79.296158,45.354781 54.590755,54.664852 49.97356,87.82687 71.20966,103.43433 c 2.097725,1.54174 5.910089,3.66342 8.471916,4.71487 4.644758,1.90634 4.917706,1.91241 97.133914,2.16231 l 92.47609,0.25058 1.04586,-1.95422 c 1.658,-3.098 0.60362,-37.496512 -1.30855,-42.690115 -3.51307,-9.541774 -11.69642,-17.697907 -21.0477,-20.97769 -4.45033,-1.560863 -19.84878,-2.791969 -23.49017,-1.878037 l -2.33133,0.585119 -0.24301,16.26305 -0.24301,16.26305 h -2.67535 -2.67536 V 40.947901 5.7225645 h 2.67536 2.67535 l 0.24393,15.3714995 c 0.28549,17.987845 -1.47344,16.042852 14.9306,16.509965 9.76459,0.278052 11.22887,0.547647 16.49795,3.037644 10.61804,5.017713 18.09016,13.469731 21.4098,24.217474 1.52022,4.921874 1.76221,8.301057 1.76221,24.606384 0,13.511729 0.30513,19.206129 1.07013,19.971129 0.79245,0.79244 9.34683,1.07013 32.96453,1.07013 30.62032,0 31.93123,-0.069 32.81752,-1.72492 1.25796,-2.35053 1.25796,-61.974949 0,-64.325467 -0.86011,-1.60712 -2.01736,-1.724943 -16.94382,-1.724943 h -16.02068 v -2.685564 -2.685577 l 35.44827,0.23317 35.44827,0.233184 0.28221,2.452393 0.28217,2.452394 h -15.1103 c -11.48911,0 -15.34636,0.284403 -16.0952,1.186709 -0.70145,0.845182 -1.05367,28.113079 -1.22393,94.751701 l -0.23904,93.56499 -2.00015,4.9048 c -5.41037,13.26736 -17.55199,22.74177 -31.7508,24.77595 l -4.59562,0.6584 -0.44588,8.4626 -0.4459,8.46264 h -72.68013 -72.68013 l -0.25523,-8.69487 -0.25524,-8.69486 h -19.58688 -19.58688 v -19.94336 c 0,-10.96883 -0.40438,-22.07559 -0.89861,-24.68165 -2.95523,-15.58284 -13.68705,-25.6179 -29.655787,-27.73036 -9.243538,-1.22284 -11.333098,-2.11315 -18.493544,-7.87967 -7.761131,-6.25029 -11.513362,-8.05125 -16.774502,-8.05125 -5.142122,0 -7.542209,1.53358 -19.48909,12.45292 -8.635353,7.89264 -16.637273,12.52178 -21.621642,12.50823 -5.02678,-0.0143 -11.7195404,-3.7032 -19.6338433,-10.82356 -13.3142227,-11.97858 -16.6132247,-14.13759 -21.6024607,-14.13759 -5.347135,0 -8.986217,1.76652 -17.255841,8.37648 -3.433355,2.7443 -7.847669,5.52672 -9.809587,6.18316 l -3.567122,1.19353 -0.234654,15.97855 c -0.201818,13.74315 -0.443999,16.13449 -1.731062,17.09327 -1.061282,0.79058 -5.957078,1.11472 -16.836713,1.11472 -13.1657,0 -15.41704,0.19998 -15.881613,1.41061 -0.297718,0.77585 -0.541297,9.40382 -0.541297,19.17329 v 17.76268 h -35.639852 c -34.32338,0 -35.67395,0.0638 -36.56301,1.72494 -0.52295,0.97712 -0.92316,7.74286 -0.92316,15.60617 v 13.88121 h -2.25744 c -1.24159,0 -2.4504,-0.50289 -2.68627,-1.11754 z m 359.42653,-46.14684 16.20552,-16.05205 h 30.69899 30.69899 l 16.03348,16.05205 16.03348,16.05206 h 4.30447 c 4.15691,0 4.29481,-0.0831 4.0223,-2.42069 -0.22742,-1.95108 -0.86907,-2.53977 -3.30764,-3.0346 -2.36785,-0.4805 -6.4403,-4.02482 -18.73643,-16.30672 l -15.71098,-15.69277 h -33.40211 -33.40213 l -16.13744,16.05204 -16.13742,16.05206 h -4.6271 c -4.54666,0 -4.62707,0.0465 -4.62707,2.67533 v 2.67535 h 5.9428 5.94279 z m -28.09109,-14.26847 0.44589,-24.52398 h 72.68013 72.68013 l 0.23728,24.30103 0.23727,24.30102 h 3.51934 c 5.87578,0 12.95417,-3.25235 18.74337,-8.61212 9.50353,-8.7986 11.54791,-16.02613 11.57864,-40.93421 0.0131,-10.109 -0.31021,-14.7496 -1.09706,-15.77824 -0.96455,-1.26092 -3.93807,-1.49414 -22.07157,-1.73106 l -20.95685,-0.27382 -6.02714,-2.85498 c -8.36717,-3.96347 -15.08745,-10.57238 -19.19424,-18.87622 l -3.31562,-6.70404 -0.44587,-21.00771 c -0.24526,-11.55426 -0.77056,-21.50934 -1.16737,-22.12244 -1.05664,-1.6326 -137.30378,-1.63077 -138.65873,0.001 -0.56319,0.67859 -1.04329,9.33671 -1.22394,22.0716 l -0.29721,20.95505 -2.77376,5.79657 c -3.33309,6.96548 -8.67408,13.18008 -14.66179,17.05997 -2.42719,1.57278 -4.41308,3.15516 -4.41308,3.51643 0,0.36128 1.71933,1.66446 3.82076,2.89597 5.621,3.29413 11.95864,10.53428 15.18757,17.35037 l 2.8403,5.99574 0.26416,20.95684 c 0.2315,18.36305 0.44916,21.09734 1.75871,22.09179 1.10549,0.8395 5.4473,1.07165 16.67965,0.89178 l 15.18514,-0.24316 z M -89.313129,206.88431 c 0.151392,-9.61588 0.618021,-15.99083 1.223919,-16.7209 0.745427,-0.89818 4.785996,-1.1799 16.922097,-1.1799 h 15.942863 v -2.67535 -2.67532 h -15.873696 c -11.157173,0 -16.191658,-0.31799 -16.943829,-1.07016 -0.752171,-0.75217 -1.070143,-5.78666 -1.070143,-16.94383 v -15.87369 h -2.675339 -2.675339 v 16.49795 c 0,9.07386 -0.100291,16.57526 -0.222945,16.66979 -0.122549,0.0945 -7.647019,0.3955 -16.720899,0.66885 l -16.49795,0.49696 v 2.22945 2.22945 l 16.49795,0.4459 16.497954,0.44588 0.230107,15.60617 c 0.126608,8.58339 0.425753,16.13592 0.664854,16.78344 0.239102,0.64748 1.33945,1.04879 2.445219,0.89176 1.987402,-0.28221 2.013313,-0.46403 2.255177,-15.82645 z M 342.89212,182.23144 c 1.21981,-1.2198 1.40138,-5.38689 1.40138,-32.16272 0,-19.49921 -0.33797,-31.39289 -0.92316,-32.4863 -0.88629,-1.65602 -2.1972,-1.72494 -32.81752,-1.72494 -23.6177,0 -32.17208,0.2777 -32.96453,1.07014 -1.40821,1.40823 -1.46194,32.66668 -0.0674,39.23904 2.91632,13.74477 13.74138,24.25653 27.33849,26.54731 2.31484,0.38999 11.50389,0.75628 20.42009,0.81395 13.64458,0.0882 16.43319,-0.11692 17.61267,-1.29648 z m -471.2424,-16.43423 0.44589,-16.49794 16.42101,-0.4459 16.420988,-0.44588 1.143201,-5.61053 c 2.61252,-12.82167 10.113225,-22.83266 21.220142,-28.32199 5.393998,-2.66586 7.921072,-3.32189 15.567691,-4.04138 13.422119,-1.26293 21.981455,-5.0772 27.696895,-12.342509 10.99613,-13.977969 10.048979,-32.944494 -2.259877,-45.253349 -12.782793,-12.782802 -34.189115,-12.682969 -47.091687,0.21962 -6.167513,6.1675 -8.593944,12.062002 -9.994132,24.278696 -1.501709,13.102399 -4.85366,20.631804 -12.334621,27.706982 -7.13319,6.74627 -14.36614,9.85621 -25.32027,10.88691 -4.87739,0.45893 -10.61433,1.44398 -12.74878,2.18901 -9.20492,3.21303 -17.58244,11.59612 -20.80018,20.81402 -1.95556,5.60212 -1.77851,16.83152 0.35385,22.44342 4.42067,11.63426 17.39261,21.68256 27.26688,21.12147 l 3.56711,-0.20271 z M 124.91545,40.947901 V 5.1582054 l 2.45238,0.2821809 2.45241,0.2821782 V 40.947901 76.173247 l -2.45241,0.282177 -2.45238,0.282177 z m 18.26562,34.613753 c -0.24839,-0.647297 -0.34643,-16.625905 -0.21788,-35.508007 l 0.23376,-34.3310825 h 2.67534 2.67533 V 40.947901 76.173247 l -2.45746,0.282661 c -1.43658,0.165245 -2.64508,-0.206251 -2.90909,-0.894254 z M 161.47845,40.947901 V 5.1582054 l 2.4524,0.2821809 2.45241,0.2821782 V 40.947901 76.173247 l -2.45241,0.282177 -2.4524,0.282177 z m 17.83562,0 V 5.1582054 l 2.45238,0.2821809 2.45241,0.2821782 V 40.947901 76.173247 l -2.45241,0.282177 -2.45238,0.282177 z m 18.72739,0 V 5.1582054 l 2.4524,0.2821809 2.45241,0.2821782 V 40.947901 76.173247 l -2.45241,0.282177 -2.4524,0.282177 z"
         id="path3693"
         inkscape:connector-curvature="0" />
    </g>
  </g>
</svg>
