<?xml version="1.0" encoding="utf-8"?>
<!-- Generator: Adobe Illustrator 21.1.0, SVG Export Plug-In . SVG Version: 6.00 Build 0)  -->
<svg version="1.1" id="Слой_1" xmlns="http://www.w3.org/2000/svg" xmlns:xlink="http://www.w3.org/1999/xlink" x="0px" y="0px"
	 viewBox="0 0 10771.6 6803.2" style="enable-background:new 0 0 10771.6 6803.2;" xml:space="preserve">
<style type="text/css">
	.st0{fill:none;stroke:#1C1B17;stroke-width:150;stroke-linecap:round;stroke-linejoin:bevel;}
</style>
<g id="_0">
	<g id="_403802176">
		<line class="st0" x1="6052.4" y1="4022.3" x2="4899.8" y2="5529.5"/>
		<path class="st0" d="M3629.8,6164.5c499.6,0,970.1-235.2,1270-634.9"/>
		<path class="st0" d="M3629.8,6164.5L3629.8,6164.5 M3629.8,6164.5H1963.1"/>
		<path class="st0" d="M375.7,4418.3C364,5327,1057.4,6089.8,1963,6164.5"/>
		<path class="st0" d="M375.7,1957.9L375.7,1957.9 M375.7,4418.3V1957.9"/>
		<path class="st0" d="M1725,608.7C1039.9,737,504,1272.8,375.7,1957.9"/>
		<line class="st0" x1="1725" y1="608.7" x2="2201.1" y2="608.7"/>
		<path class="st0" d="M3153.6,1561.1c0-252.6-100.4-494.9-278.9-673.5c-178.5-178.5-420.9-278.9-673.5-278.9"/>
		<path class="st0" d="M2454.7,2530.3c405.3-154.8,680.1-535.6,698.9-969.1"/>
		<path class="st0" d="M2454.7,2530.3c-382.6,156.1-637.4,522.8-650.4,935.8"/>
		<path class="st0" d="M1804.3,3465.9c0,252.6,100.4,494.9,278.9,673.5c178.6,178.6,420.9,278.9,673.5,278.9"/>
		<path class="st0" d="M2756.8,4418.3c405,40.7,800-141.7,1031.7-476.2"/>
		<path class="st0" d="M5184.5,2172.5L5184.5,2172.5 M3788.5,3942.1l1396-1769.6"/>
		<line class="st0" x1="5184.5" y1="2172.5" x2="5852.2" y2="1243.6"/>
		<path class="st0" d="M7122.1,608.7c-499.6,0-970.1,235.2-1270,634.9"/>
		<path class="st0" d="M8788.9,608.7L8788.9,608.7 M7122.1,608.7h1666.8"/>
		<path class="st0" d="M10376.2,2354.8c11.8-908.7-681.7-1671.5-1587.4-1746.2"/>
		<path class="st0" d="M10376.2,2354.8L10376.2,2354.8 M10376.2,2354.8v2460.5"/>
		<path class="st0" d="M9027,6164.5c685-128.4,1221-664.3,1349.3-1349.3"/>
		<line class="st0" x1="9027" y1="6164.5" x2="8550.8" y2="6164.5"/>
		<path class="st0" d="M7598.3,5212.1c0,252.6,100.4,494.9,278.9,673.5s420.9,278.9,673.5,278.9"/>
		<path class="st0" d="M8297.3,4243c-405.3,154.8-680.1,535.6-698.9,969.1"/>
		<path class="st0" d="M8297.3,4243c382.6-156.1,637.4-522.8,650.4-935.8"/>
		<path class="st0" d="M8947.7,3307.2c0-252.6-100.4-494.9-278.9-673.5c-178.6-178.6-420.9-278.9-673.5-278.9"/>
		<path class="st0" d="M7995.2,2354.8c-405-40.7-800,141.7-1031.7,476.2"/>
		<path class="st0" d="M6963.4,2831L6963.4,2831 M6963.4,2831l-911.1,1191.3"/>
	</g>
</g>
</svg>
