<?xml version="1.0" encoding="UTF-8" standalone="no"?>
<!-- Created with Inkscape (http://www.inkscape.org/) -->

<svg
   xmlns:dc="http://purl.org/dc/elements/1.1/"
   xmlns:cc="http://creativecommons.org/ns#"
   xmlns:rdf="http://www.w3.org/1999/02/22-rdf-syntax-ns#"
   xmlns:svg="http://www.w3.org/2000/svg"
   xmlns="http://www.w3.org/2000/svg"
   xmlns:sodipodi="http://sodipodi.sourceforge.net/DTD/sodipodi-0.dtd"
   xmlns:inkscape="http://www.inkscape.org/namespaces/inkscape"
   width="1151.3129mm"
   height="549.43414mm"
   viewBox="0 0 583.79622 278.60157"
   version="1.1"
   id="svg8"
   inkscape:version="0.92.1 r15371"
   sodipodi:docname="field12.svg">
  <defs
     id="defs2" />
  <sodipodi:namedview
     id="base"
     pagecolor="#ffffff"
     bordercolor="#666666"
     borderopacity="1.0"
     inkscape:pageopacity="0.0"
     inkscape:pageshadow="2"
     inkscape:zoom="0.35"
     inkscape:cx="1903.26"
     inkscape:cy="1625.5939"
     inkscape:document-units="mm"
     inkscape:current-layer="layer1"
     showgrid="false"
     inkscape:window-width="1920"
     inkscape:window-height="1031"
     inkscape:window-x="0"
     inkscape:window-y="0"
     inkscape:window-maximized="1"
     scale-x="0.50707"
     fit-margin-top="0"
     fit-margin-left="0"
     fit-margin-right="0"
     fit-margin-bottom="0" />
  <metadata
     id="metadata5">
    <rdf:RDF>
      <cc:Work
         rdf:about="">
        <dc:format>image/svg+xml</dc:format>
        <dc:type
           rdf:resource="http://purl.org/dc/dcmitype/StillImage" />
        <dc:title />
      </cc:Work>
    </rdf:RDF>
  </metadata>
  <g
     inkscape:label="Layer 1"
     inkscape:groupmode="layer"
     id="layer1"
     transform="translate(183.7396,-7.350175)">
    <g
       id="g3691"
       transform="matrix(0.90030256,0,0,0.90030256,-97.305209,-55.161617)">
      <path
         style="fill:#ffffff;stroke-width:0.35277778"
         d="M -70.214213,234.42498 V 89.96249 H 241.11217 552.43856 v 144.46249 144.4625 H 241.11217 -70.214213 Z"
         id="path3707"
         inkscape:connector-curvature="0" />
      <path
         style="fill:#000000;stroke-width:0.35277778"
         d="M 27.721483,355.29912 C 20.092367,353.96036 12.767886,349.74865 8.2575831,344.10701 5.9909929,341.27189 3.1821481,335.67386 2.0990639,331.83309 0.34456946,325.61141 0.37988605,328.14731 0.64511496,227.42717 0.92343546,121.73635 1.1223421,130.47937 -1.6903621,124.76885 c -1.1979522,-2.43217 -2.0822108,-3.60133 -4.6809942,-6.1892 -2.7490278,-2.73749 -3.7300707,-3.45251 -6.9082037,-5.03494 -7.240848,-3.60532 -4.516272,-3.3808 -42.593806,-3.50999 l -33.245198,-0.11279 -0.0923,13.86165 -0.0923,13.86165 h -3.351389 -3.351389 V 106.24801 74.850791 h 3.351389 3.351389 l 0.09224,14.022917 0.09224,14.022912 31.128589,0.003 c 18.62632,0.002 32.403778,0.14612 34.303592,0.35951 8.224315,0.92378 15.8215995,4.2837 21.4328899,9.47876 5.2550024,4.86521 8.8433379,11.5078 9.7388961,18.02827 0.2462776,1.79313 0.2949645,33.11596 0.15107,97.19028 -0.1987056,88.47883 -0.1732739,94.77743 0.3964023,98.17614 1.1667842,6.96107 3.2092407,11.20314 7.4303887,15.43249 3.066119,3.07209 6.714875,5.1865 10.944797,6.34239 2.912494,0.79589 10.870148,1.09361 14.072199,0.52649 11.232808,-1.98945 19.462108,-9.72941 22.509067,-21.17057 l 0.798576,-2.99861 0.200734,-98.07222 c 0.182743,-89.28311 0.252554,-98.2785 0.778965,-100.374 3.425042,-13.63407 11.549292,-22.0907 24.434902,-25.4346 2.76339,-0.717113 3.998221,-0.823043 9.525,-0.817097 5.412866,0.0058 6.792536,0.122551 9.348606,0.790947 3.60171,0.94181 8.16138,3.06362 11.08724,5.15936 2.44255,1.74956 6.25783,5.61969 7.85002,7.9629 1.52482,2.24405 3.75989,6.82539 4.65183,9.53507 1.90466,5.78632 1.87796,5.28135 2.02344,38.26631 0.19148,43.41498 0.13503,41.65238 1.45819,45.52562 1.54879,4.53368 3.28496,7.31042 6.62685,10.5986 2.31633,2.27911 3.56849,3.18428 6.20956,4.48879 6.37954,3.15108 5.21009,3.05809 38.49364,3.0609 l 29.18827,0.002 0.0923,-13.84652 0.0923,-13.84653 h 3.35139 3.35139 v 31.39722 31.39722 h -3.35139 -3.35139 l -0.17639,-13.93471 -0.17638,-13.93473 -30.1625,-0.1976 c -22.11767,-0.1449 -30.58591,-0.31259 -31.75,-0.62874 -5.3113,-1.44247 -8.85476,-2.97986 -12.38076,-5.37157 -6.44794,-4.3737 -11.14294,-11.06054 -13.29201,-18.93109 l -0.94093,-3.44599 -0.20713,-36.5125 c -0.2057,-36.26159 -0.21251,-36.53311 -0.99097,-39.51111 -0.43112,-1.64924 -1.56112,-4.58611 -2.5111,-6.52639 -3.41909,-6.98325 -8.33226,-11.22977 -15.7146,-13.58235 -3.13737,-0.9998 -10.528016,-1.36192 -14.56428,-0.7136 -10.585101,1.70021 -17.628126,8.03004 -20.994395,18.86843 l -0.771211,2.48307 -0.190172,98.07222 -0.190172,98.07222 -0.744844,3.175 c -3.349875,14.27929 -12.392074,23.78272 -26.044927,27.37343 -3.721273,0.9787 -12.096806,1.22805 -16.325345,0.48602 z M 389.72449,342.7627 c -26.93236,-2.07443 -52.21107,-13.71676 -71.56937,-32.96192 -13.0901,-13.0136 -22.30529,-27.78334 -28.02876,-44.92342 -7.83258,-23.45629 -7.83258,-48.97463 0,-72.43092 7.84762,-23.50126 22.97843,-43.56545 43.80936,-58.09334 27.56627,-19.22523 63.47125,-25.08252 96.20761,-15.69464 14.59629,4.18581 27.93319,11.08552 40.17931,20.78635 3.84034,3.04214 12.04186,11.01345 15.38933,14.95737 23.94444,28.21067 32.77845,65.35901 24.11677,101.41449 -4.09324,17.03866 -12.44787,33.357 -24.11677,47.10495 -3.25289,3.83249 -11.45554,11.82547 -15.3332,14.94129 -1.64924,1.32521 -5.53861,4.10294 -8.64306,6.17273 -21.12433,14.084 -46.52638,20.68999 -72.01122,18.72706 z m 20.33143,-11.4289 c 2.42418,-0.28357 6.15382,-0.85166 8.28813,-1.26242 42.08832,-8.10011 74.93141,-41.6564 82.16275,-83.94698 1.88249,-11.00924 1.88249,-23.91576 0,-34.925 -7.23318,-42.30121 -40.06384,-75.84484 -82.16275,-83.94699 -12.78241,-2.46003 -27.4307,-2.40002 -40.22182,0.16479 -16.05763,3.21979 -31.57502,10.55287 -44.62124,21.08678 -4.72997,3.81912 -13.13279,12.42961 -16.70032,17.11312 -14.05657,18.45352 -21.39213,40.07219 -21.39213,63.0448 0,22.9726 7.33556,44.59127 21.39213,63.0448 3.56753,4.6835 11.97035,13.29399 16.70032,17.11311 15.32153,12.37103 33.68841,20.13696 53.09306,22.44893 5.71493,0.6809 17.90827,0.71472 23.46187,0.0651 z m -12.70215,-24.1703 c -4.7231,-0.89967 -7.66212,-6.07227 -5.87428,-10.33863 2.90706,-6.93727 12.76371,-6.23354 14.67421,1.0477 1.34483,5.12531 -3.54816,10.29131 -8.79993,9.29093 z m 4.58611,-1.73077 c 0.6791,-0.34852 1.71097,-1.30789 2.29305,-2.13195 0.90033,-1.27457 1.05802,-1.82293 1.05629,-3.67275 -0.004,-3.4434 -1.93812,-5.81471 -5.39916,-6.61709 -2.76983,-0.64214 -6.44158,1.34047 -7.45356,4.02462 -0.20591,0.5462 -0.3744,1.70224 -0.3744,2.56897 0,5.15973 5.2009,8.22843 9.87778,5.8282 z m -55.59065,-19.22108 c -3.30595,-1.07097 -5.44594,-3.95732 -5.43214,-7.32666 0.0339,-8.23601 10.74099,-10.69389 14.52499,-3.33424 1.08214,2.10469 0.79826,5.66258 -0.61193,7.66903 -1.83328,2.60843 -5.58215,3.93095 -8.48092,2.99187 z m 4.12065,-0.98288 c 2.56043,-0.86845 4.09787,-2.65661 4.70542,-5.47277 0.53351,-2.47275 -1.43749,-6.00783 -3.9304,-7.04943 -1.36666,-0.57103 -3.91326,-0.61988 -5.28553,-0.1014 -2.42065,0.9146 -4.0925,3.44831 -4.0925,6.20231 0,4.58172 4.38249,7.85281 8.60301,6.42129 z m 96.80194,1.14279 c -3.70198,-0.92778 -6.16574,-4.04823 -6.17163,-7.81655 -0.004,-1.90732 1.67993,-4.9069 3.43577,-6.12384 1.77514,-1.23032 4.99925,-1.64285 6.88181,-0.88055 5.06512,2.05099 6.73033,8.03984 3.36931,12.11735 -1.77905,2.15828 -5.02775,3.32699 -7.51526,2.70359 z m 3.44922,-1.11004 c 2.98316,-0.82843 5.1096,-4.05504 4.75361,-7.21305 -0.38167,-3.38646 -3.14682,-5.81852 -6.61533,-5.81852 -3.90571,0 -6.70277,2.80689 -6.70277,6.72633 0,2.69384 1.83208,5.22631 4.45815,6.16247 1.66716,0.59433 2.38979,0.61946 4.10634,0.14277 z M 324.50516,235.68048 c -5.87791,-3.1992 -5.89488,-10.95144 -0.0307,-13.96661 1.95675,-1.00608 5.58482,-0.79494 7.39503,0.43037 4.67737,3.16603 4.67381,9.87154 -0.007,13.04005 -1.66722,1.12858 -5.69644,1.40031 -7.35756,0.49619 z m 6.84724,-1.48254 c 2.91041,-1.77731 3.86919,-5.08435 2.40273,-8.28753 -2.38961,-5.21959 -9.52507,-5.22294 -12.20547,-0.006 -0.56074,1.09147 -0.49111,4.5484 0.11525,5.72098 0.69268,1.33946 2.81421,3.1522 3.99323,3.412 0.53005,0.11679 1.12243,0.27036 1.31646,0.34128 0.78617,0.28733 2.91278,-0.28636 4.3778,-1.181 z m 64.06109,1.48254 c -5.87791,-3.1992 -5.89488,-10.95144 -0.0307,-13.96661 2.01609,-1.03659 5.57216,-0.79595 7.54659,0.51069 4.52896,2.9971 4.52511,9.88011 -0.007,12.87942 -1.82647,1.20871 -5.78841,1.51289 -7.50884,0.5765 z m 6.59779,-1.23417 c 0.73639,-0.37569 1.77567,-1.34303 2.30946,-2.14965 0.79449,-1.20057 0.97053,-1.85982 0.97053,-3.63476 0,-1.77494 -0.17604,-2.43419 -0.97053,-3.63477 -2.94231,-4.44612 -10.03603,-3.78942 -11.88342,1.10009 -0.51848,1.37229 -0.46962,3.91888 0.10138,5.28555 0.5884,1.40821 2.73491,3.34 4.02777,3.62489 0.53005,0.11679 1.12244,0.27036 1.31646,0.34127 0.64989,0.23752 2.77626,-0.24284 4.12835,-0.93262 z m 64.13923,1.02879 c -5.55692,-2.86543 -5.55692,-10.76097 0,-13.62641 1.28937,-0.66486 2.01433,-0.79391 3.91446,-0.6968 2.89525,0.14796 4.76906,1.26879 6.20205,3.70975 2.01954,3.44013 0.93489,8.01137 -2.4292,10.2376 -2.05507,1.35999 -5.4563,1.52629 -7.68731,0.37586 z m 6.6977,-0.95853 c 0.6791,-0.34421 1.71097,-1.30006 2.29306,-2.12412 0.90657,-1.28343 1.05833,-1.81838 1.05833,-3.73055 0,-1.91217 -0.15176,-2.44713 -1.05833,-3.73056 -1.38331,-1.95832 -3.32659,-2.95496 -5.695,-2.92073 -2.17498,0.0314 -3.6613,0.807 -5.20372,2.71528 -0.99991,1.23711 -1.09573,1.57887 -1.09573,3.90802 0,2.25549 0.11557,2.70387 0.99364,3.85507 2.2546,2.95594 5.42142,3.69332 8.70775,2.02759 z M 345.31905,185.48336 c -6.59839,-3.05495 -5.58045,-12.62765 1.54171,-14.49846 1.97647,-0.51918 4.43223,0.0271 6.34245,1.41087 3.63244,2.63132 3.89685,8.51052 0.52662,11.70922 -2.15727,2.04747 -5.70854,2.62946 -8.41078,1.37837 z m 5.92585,-0.86613 c 1.55131,-0.64818 3.3105,-2.73524 3.78224,-4.48716 1.2706,-4.71864 -3.32006,-9.4003 -7.99225,-8.15068 -2.18853,0.58535 -3.18474,1.32113 -4.25013,3.13913 -1.07721,1.83808 -1.24051,4.6112 -0.36982,6.27941 0.68461,1.31166 2.27405,2.83965 3.43327,3.30054 1.28475,0.51079 4.08051,0.4687 5.39669,-0.0812 z m 94.80275,1.14245 c -2.62403,-1.04724 -4.94083,-4.33489 -4.94404,-7.01584 -0.007,-5.78711 6.12838,-9.70189 11.16118,-7.12165 7.25396,3.71901 4.60132,14.60805 -3.53416,14.50762 -0.99639,-0.0123 -2.20373,-0.17885 -2.68298,-0.37013 z m 6.00033,-1.37836 c 3.97587,-2.02834 4.62332,-7.89458 1.20279,-10.89786 -5.25095,-4.6104 -13.1053,0.95097 -10.60168,7.50665 1.38268,3.62049 5.81484,5.21965 9.39889,3.39121 z m -56.63449,-19.71185 c -7.35803,-3.40666 -4.90604,-14.50338 3.2209,-14.57641 4.92587,-0.0443 8.74067,4.70342 7.51931,9.35817 -1.23902,4.72222 -6.39787,7.22868 -10.74021,5.21824 z m 6.84724,-1.39317 c 3.64529,-2.19489 4.18927,-7.1862 1.11795,-10.25755 -2.55291,-2.5529 -6.36026,-2.67152 -9.08071,-0.28293 -1.561,1.37058 -2.23587,2.88511 -2.23587,5.01775 0,3.05352 1.74971,5.45278 4.63088,6.35008 1.94896,0.60697 3.59078,0.36299 5.56775,-0.82735 z M 45.869829,69.470932 c -94.583844,206.277688 -47.2919221,103.138838 0,0 z"
         id="path3703"
         inkscape:connector-curvature="0"
         sodipodi:nodetypes="ccsscccscccccccccccccssssccsscscccccccscccccccccccccccsscccscccsscccssccssssssscscccscsssssscsccccccccccccccsccccscscccssccccccscsscscccccccccccccccccccccssccccscccccccccscccsccccccccccccccccccscccccsccsccsscccc" />
      <path
         style="fill:#000000;stroke-width:0.35277778"
         d="M 28.27575,354.95584 C 20.665557,353.67551 14.881998,350.61213 9.8180532,345.17937 5.809009,340.87833 3.291615,335.73812 1.6484502,328.498 1.0363173,325.80081 1.0136372,321.39354 1.1365309,229.01467 1.254916,140.02368 1.2187916,132.15762 0.68127115,129.88412 -1.4615857,120.82073 -9.2770915,113.39602 -19.62956,110.58888 l -2.998611,-0.81309 h -33.3375 -33.337499 l -0.176389,13.75833 -0.176389,13.75834 h -2.998611 -2.998611 V 106.24801 75.203569 h 2.998611 2.998611 l 0.176389,13.934722 0.176389,13.934719 32.984722,0.22179 c 28.974358,0.19482 33.345433,0.29428 35.951544,0.81804 13.4379578,2.70069 23.7194755,11.80539 26.9112782,23.83101 0.6934976,2.61286 0.7017421,3.85244 0.6615466,99.48332 -0.039458,93.87459 -0.020214,96.93465 0.6295883,100.0125 2.1004319,9.94919 7.1959679,16.42662 15.5890279,19.81673 7.065415,2.85385 17.107058,2.62875 24.095907,-0.54014 7.873534,-3.57004 13.180398,-10.07388 15.872813,-19.45298 l 0.759527,-2.64583 0.191329,-98.07222 0.191329,-98.07222 0.773761,-3.12859 c 1.513653,-6.12022 4.137374,-11.14202 7.98455,-15.28244 5.935733,-6.38815 13.565815,-9.73338 23.316963,-10.222768 17.555024,-0.881039 30.635454,8.556638 35.342224,25.499828 l 0.96861,3.48675 0.22924,36.5125 c 0.24941,39.72574 0.17158,38.24016 2.27922,43.50493 3.13056,7.82001 9.90251,13.53461 18.68343,15.76626 2.70004,0.68621 4.08244,0.72342 31.94721,0.85979 16.01878,0.0784 29.31222,0.0268 29.54099,-0.11453 0.30526,-0.18866 0.44052,-3.91316 0.50834,-13.99717 l 0.0924,-13.74012 h 2.99861 2.99861 v 31.04445 31.04444 h -2.99861 -2.99861 l -0.17639,-13.93472 -0.17639,-13.93472 -30.1625,-0.19313 c -29.39261,-0.1882 -30.23453,-0.21242 -32.98472,-0.94851 -6.3274,-1.69354 -11.21925,-4.41354 -15.64223,-8.69751 -4.34605,-4.20945 -7.11441,-9.04672 -8.97097,-15.67535 -0.74724,-2.6679 -0.76139,-3.24732 -0.96233,-39.39661 -0.20101,-36.16379 -0.21479,-36.72764 -0.96318,-39.39661 -2.29197,-8.17391 -6.07501,-13.66138 -12.10491,-17.55869 -4.24875,-2.7461 -8.94686,-3.96188 -15.331377,-3.96746 -8.780653,-0.008 -15.382906,2.49338 -20.523796,7.77481 -3.104247,3.1891 -5.079199,6.79252 -6.712539,12.24742 -0.592525,1.97888 -0.638316,7.52006 -0.826283,99.9908 -0.183332,90.18999 -0.245925,98.1041 -0.795207,100.54167 -1.789476,7.94123 -4.462346,13.22566 -9.264149,18.31582 -7.773677,8.24051 -20.215027,12.12046 -32.329659,10.08229 z m 362.05936,-12.53373 c -24.41116,-1.91456 -47.4431,-11.39623 -65.61948,-27.01389 -22.26582,-19.13144 -35.8786,-44.72443 -39.38489,-74.04632 -1.19151,-9.96396 -0.67067,-23.68269 1.29247,-34.04306 6.57479,-34.69878 29.36416,-64.76546 61.16528,-80.69716 22.14859,-11.09599 47.84781,-14.63457 72.31944,-9.95782 28.74279,5.49299 54.39089,21.97251 71.58232,45.99333 8.87543,12.40122 15.62195,27.95344 18.69306,43.09151 1.72815,8.51846 2.11988,12.75239 2.11988,22.9132 0,10.16081 -0.39173,14.39473 -2.11988,22.9132 -9.73423,47.98204 -49.6346,84.60958 -98.39385,90.32313 -5.78404,0.67776 -16.41348,0.93492 -21.65435,0.52388 z m 20.21749,-10.78177 c 12.09068,-1.33271 23.23024,-4.64935 34.4643,-10.26124 24.37215,-12.17491 42.86783,-33.28826 51.74361,-59.06684 8.62591,-25.05278 7.26126,-52.7304 -3.78791,-76.82573 -13.51044,-29.46274 -40.1688,-51.0325 -71.73024,-58.03819 -46.50306,-10.3223 -93.96543,12.24508 -115.30104,54.82328 -11.66333,23.27574 -14.12437,50.36617 -6.84967,75.39901 9.44703,32.50803 34.27236,58.35449 66.53343,69.27012 14.36955,4.86197 29.29255,6.42298 44.92752,4.69959 z"
         id="path3699"
         inkscape:connector-curvature="0"
         sodipodi:nodetypes="ccsscscccccccccccccsssscscscccscsscscsscscccccccccscscscscccssscssccssscsccssscsscsss" />
      <path
         style="fill:#000000;stroke-width:0.35277778"
         d="M 27.510536,354.6063 C 12.613485,351.51269 3.7538879,341.5918 1.5173439,325.49939 1.2025779,323.23456 1.132421,299.06295 1.2306555,226.72162 1.355754,134.59887 1.3359985,130.86235 0.71322576,128.84423 -2.4651609,118.54456 -11.999675,111.08211 -23.85364,109.61628 c -4.488268,-0.55501 -64.996224,-0.50546 -65.555363,0.0537 -0.314522,0.31452 -0.423334,3.89623 -0.423334,13.93472 v 13.51139 h -2.822222 -2.822222 V 106.24801 75.379958 h 2.822222 2.822222 v 13.687777 c 0,10.175679 0.108622,13.796395 0.423334,14.111115 0.322922,0.32292 7.87684,0.42333 31.847447,0.42333 32.269207,0 35.033405,0.0991 40.048663,1.43647 3.667336,0.97791 9.9240971,4.12613 12.8763885,6.47903 5.00494291,3.98882 8.9830521,9.76672 10.8237054,15.72061 l 0.8179611,2.64583 v 97.71944 c 0,93.51242 0.027869,97.84095 0.6470368,100.54167 3.1368612,13.68227 12.9244262,21.34305 27.2683142,21.34305 8.010239,0 14.792568,-2.53116 20.109441,-7.50483 4.607955,-4.31052 7.3025,-9.18583 9.013123,-16.30767 0.321966,-1.34044 0.470962,-25.30768 0.620656,-99.8361 l 0.196984,-98.07222 0.947116,-3.35539 c 2.921332,-10.3495 9.117743,-17.79094 17.940698,-21.54544 4.918635,-2.09307 7.93345,-2.6071 15.155241,-2.58399 7.725748,0.0247 10.086588,0.51881 15.698608,3.28553 9.04996,4.46163 14.88813,12.44219 17.70296,24.19929 0.52557,2.19521 0.61505,6.52412 0.80574,38.98194 0.24101,41.01982 0.0292,37.91256 2.99427,43.92083 2.70522,5.48169 6.76628,9.4923 12.30273,12.1499 5.82048,2.79394 3.53245,2.6249 37.25116,2.75219 24.22553,0.0915 30.19092,0.0251 30.42168,-0.33861 0.15788,-0.2488 0.28948,-6.52456 0.29245,-13.94612 l 0.005,-13.49375 h 2.82222 2.82222 v 30.86806 30.86805 h -2.82222 -2.82222 v -13.71514 c 0,-10.86424 -0.0959,-13.79472 -0.46131,-14.09799 -0.32151,-0.26682 -9.64947,-0.41604 -30.77986,-0.49238 l -30.31855,-0.10952 -2.82222,-0.81182 c -12.92565,-3.71807 -21.76873,-13.34072 -24.00139,-26.11727 -0.42852,-2.45218 -0.51771,-8.56146 -0.52278,-35.80695 -0.006,-32.84288 -0.14622,-37.42311 -1.27464,-41.66835 -0.80206,-3.0174 -3.69345,-8.82629 -5.5636,-11.1774 -3.27893,-4.12221 -8.53152,-7.5335 -13.79315,-8.95796 -3.28058,-0.88813 -10.62649,-1.06161 -14.463887,-0.34156 -10.758452,2.01872 -17.910609,8.65923 -21.075106,19.56745 l -0.775138,2.67195 -0.199467,98.07222 c -0.185078,90.99588 -0.243075,98.25007 -0.803819,100.53713 -2.031463,8.28557 -4.667105,13.1599 -9.921642,18.34898 -4.431531,4.37633 -8.936728,6.94045 -15.203656,8.65312 -3.673024,1.00379 -13.156163,1.29683 -16.888019,0.52184 z M 390.4746,342.18439 c -15.53182,-1.06688 -32.41946,-6.01362 -46.11313,-13.50749 -4.79711,-2.62521 -12.74735,-7.88089 -16.8577,-11.14412 -4.51489,-3.58442 -15.29588,-14.58154 -18.88645,-19.26508 -12.89886,-16.82537 -20.65112,-36.12298 -23.14364,-57.61136 -0.57996,-5.00018 -0.57996,-18.98871 0,-23.98889 2.49252,-21.48837 10.24478,-40.78599 23.14364,-57.61135 3.58655,-4.67829 14.36423,-15.67353 18.88645,-19.26768 4.19555,-3.33451 12.48604,-8.79261 17.29112,-11.38372 24.33669,-13.12341 53.40233,-16.86172 80.56026,-10.36133 16.05897,3.84381 31.63877,11.52563 44.84723,22.11252 4.50091,3.6076 12.35212,11.32519 15.94418,15.67283 14.76883,17.87548 23.60566,39.19208 25.85787,62.37542 0.81463,8.38571 0.27591,21.5991 -1.23183,30.21331 -9.55171,54.57206 -57.67825,94.58697 -112.99709,93.95169 -3.04535,-0.035 -6.33077,-0.11811 -7.30091,-0.18475 z m 18.87361,-10.14872 c 21.01967,-2.25855 39.18903,-9.88272 55.5625,-23.31498 3.90807,-3.20605 11.62057,-10.97263 14.69189,-14.79491 11.59231,-14.42671 18.88691,-30.98775 21.90577,-49.73299 0.69956,-4.34376 0.79679,-6.23916 0.79679,-15.53089 0,-9.29174 -0.0972,-11.18714 -0.79679,-15.5309 -3.01882,-18.74491 -10.30876,-35.29597 -21.90503,-49.73299 -3.29018,-4.09617 -11.26208,-12.03534 -15.57457,-15.51066 -18.82729,-15.17231 -41.17217,-23.10165 -65.1383,-23.11511 -24.59828,-0.0138 -46.95486,7.98001 -66.44781,23.75908 -3.85978,3.12439 -11.39141,10.77653 -14.80619,15.04308 -10.4152,13.01317 -17.62037,28.38962 -20.82098,44.43392 -1.56341,7.83721 -1.9352,11.80525 -1.9352,20.65358 0,8.84832 0.37179,12.81637 1.9352,20.65357 5.10568,25.59422 19.90541,48.38629 41.53919,63.97178 14.42219,10.39011 32.02164,17.00725 50.17964,18.86685 4.84541,0.49623 15.66644,0.43466 20.81389,-0.11843 z"
         id="path3697"
         inkscape:connector-curvature="0"
         sodipodi:nodetypes="ccssscscccccccscsccscscsssscsscscscsccccccccccscscccccccsscssssccccccccccsscccsccssscscccsccssssss" />
      <path
         style="fill:#000000;stroke-width:0.35277778"
         d="M 29.935717,354.75941 C 15.727458,352.84429 6.3797646,344.49905 2.4954767,330.26189 L 1.7254969,327.43967 1.5431073,228.48551 1.3607176,129.53135 0.27854358,126.86586 C -3.2331687,118.21622 -11.257032,111.80595 -21.040671,109.8339 c -2.185289,-0.44048 -8.266776,-0.57699 -34.938165,-0.78427 -17.760785,-0.13803 -32.641764,-0.14005 -33.068844,-0.005 l -0.776508,0.24646 -0.09227,13.82405 -0.09227,13.82405 h -2.645833 -2.645833 V 106.24801 75.556347 h 2.645833 2.645833 l 0.09224,14.022916 c 0.05073,7.712604 0.130108,14.057627 0.176388,14.100047 0.04628,0.0424 15.403522,0.16461 34.127202,0.27154 l 34.043055,0.19443 3.527778,0.96295 c 11.709661,3.19629 20.8917891,11.70872 24.0613845,22.30645 0.6019553,2.01266 0.6344214,6.90073 0.6607739,99.48333 0.025929,91.11731 0.067236,97.57044 0.6434561,100.54166 1.3480979,6.95131 4.4112535,12.37262 9.3033075,16.4654 2.284673,1.9114 7.436926,4.33928 10.839411,5.10783 3.410207,0.77029 10.945138,0.85628 14.111111,0.16104 8.851826,-1.94384 15.830073,-7.37867 19.740763,-15.37457 3.383802,-6.91862 3.102977,-2.61034 3.392375,-52.04442 0.140282,-23.96243 0.268756,-67.93618 0.285499,-97.71944 0.01849,-32.87026 0.163774,-54.94775 0.369715,-56.1778 0.854209,-5.10213 2.897921,-10.29776 5.637505,-14.33197 1.765117,-2.59926 5.158574,-5.97461 7.724313,-7.6831 8.26626,-5.5044 20.327059,-7.142949 30.620521,-4.16002 9.98228,2.89275 17.31874,10.0574 21.10903,20.61468 2.1717,6.04893 2.06201,3.96032 2.29751,43.74654 0.2146,36.2569 0.22157,36.53196 0.99504,39.29174 2.27596,8.1207 7.05002,13.93392 14.36661,17.49376 6.53008,3.17717 4.40874,3.01034 38.27639,3.01034 h 29.80972 l 0.17639,-13.93473 0.17639,-13.93472 h 2.64583 2.64584 v 30.69167 30.69166 h -2.64584 -2.64583 l -0.17639,-13.93472 -0.17639,-13.93472 -29.98611,-0.20512 c -25.89104,-0.17711 -30.3012,-0.28265 -32.29337,-0.77282 -7.19033,-1.76916 -12.15295,-4.42 -16.69559,-8.91816 -5.3008,-5.24889 -8.39333,-11.80911 -9.38306,-19.90437 -0.22853,-1.86923 -0.36548,-15.52317 -0.36548,-36.43917 0,-36.21475 0.0297,-35.58288 -1.93756,-41.28923 -2.00758,-5.82341 -6.89443,-11.94434 -11.82077,-14.80585 -8.48088,-4.9262 -21.405405,-4.92754 -30.338885,-0.003 -1.41574,0.78039 -3.4613,2.43857 -5.346524,4.33399 -2.541227,2.55498 -3.323343,3.6262 -4.66218,6.38554 -0.884788,1.82356 -1.967505,4.66493 -2.406029,6.31417 l -0.797324,2.99861 -0.20259,98.07222 c -0.224059,108.46513 -0.0025,98.93048 -2.454744,105.70718 -1.67126,4.61876 -4.181326,8.4332 -8.091928,12.29698 -3.596965,3.55389 -5.664151,4.95616 -10.192159,6.91381 -5.302296,2.2924 -13.418908,3.38233 -19.292355,2.59065 z M 386.24127,341.54598 c -27.95566,-3.25249 -53.65754,-16.37718 -71.75179,-36.64012 -19.18497,-21.48439 -29.31664,-47.83387 -29.31664,-76.24396 0,-28.58862 10.39731,-55.40678 29.74766,-76.72917 16.38318,-18.05285 39.94729,-30.99647 63.91244,-35.10673 9.56895,-1.64117 23.14105,-2.08676 32.10492,-1.05405 21.98434,2.53278 41.85659,10.75484 58.91174,24.37448 7.90861,6.31553 17.33652,16.59856 23.097,25.19186 21.19245,31.6143 25.18575,71.46329 10.69407,106.71527 -3.91936,9.53415 -8.88799,17.99832 -15.8393,26.98256 -3.88419,5.02018 -12.78654,14.01646 -17.95177,18.14125 -17.05515,13.61963 -36.9274,21.8417 -58.91174,24.37447 -5.59544,0.64464 -19.13307,0.64143 -24.69659,-0.006 z m 25.4,-9.51069 c 20.29467,-2.60114 38.91086,-10.8055 54.50416,-24.02061 3.83142,-3.24708 10.79395,-10.39978 13.88601,-14.26529 12.08193,-15.10413 19.68461,-33.25886 22.16005,-52.91666 0.61062,-4.84903 0.61062,-19.49264 0,-24.34167 -2.4753,-19.6567 -10.07039,-37.79461 -22.15843,-52.91666 -3.25878,-4.07674 -10.88147,-11.8187 -14.86609,-15.09875 -27.89633,-22.96359 -65.04718,-29.97696 -99.18139,-18.72357 -35.29573,11.63632 -61.79718,41.38304 -69.36796,77.86254 -2.74864,13.24422 -2.74864,28.85033 0,42.09455 4.17311,20.10795 13.79121,37.87828 28.41826,52.50533 17.65021,17.65019 40.2639,28.18272 65.08594,30.31433 5.12181,0.43984 16.22351,0.18523 21.51945,-0.49354 z"
         id="path3695"
         inkscape:connector-curvature="0" />
      <path
         style="fill:#000000;stroke-width:0.35277778"
         d="M 29.494632,354.4038 C 17.211288,352.8068 7.7361387,345.09431 3.7835566,333.47573 1.6241685,327.12823 1.7650644,334.79932 1.8551463,228.48551 1.9462441,120.96813 2.1484986,130.25435 -0.40213408,124.84608 -4.0761135,117.05589 -11.56658,111.5301 -21.080778,109.59123 c -3.30719,-0.67396 -4.70505,-0.69757 -36.184018,-0.61102 l -32.74393,0.09 -0.09229,13.84653 -0.09229,13.84653 h -2.46535 -2.465349 V 106.24801 75.732736 h 2.465396 2.465397 l 0.09224,14.022916 0.09224,14.022918 32.984722,0.2616 c 35.170237,0.27894 36.253928,0.33377 41.402419,2.09475 10.1548638,3.47333 17.8443645,10.97586 21.0869461,20.5742 l 0.8342453,2.46945 0.1763889,98.77777 0.1763889,98.77778 0.7973307,2.82222 c 1.6701417,5.91159 5.0211251,11.3978 8.8367161,14.46743 5.5975,4.50316 14.523067,6.8163 22.468731,5.82297 10.141059,-1.2678 18.457393,-6.97944 22.696092,-15.58765 0.986984,-2.00443 2.157017,-4.91442 2.600074,-6.46664 l 0.805551,-2.82222 0.191022,-98.07222 c 0.177115,-90.93347 0.234921,-98.25143 0.794138,-100.53422 3.065554,-12.51397 10.174456,-20.64799 21.067289,-24.10524 4.202796,-1.33392 6.413895,-1.63248 11.994444,-1.61961 6.701754,0.0155 10.140654,0.75315 15.345834,3.29191 8.42339,4.10841 14.2567,11.63111 17.1886,22.16664 0.74786,2.68735 0.76247,3.27904 0.97399,39.41719 l 0.21473,36.68888 0.81992,2.99862 c 3.22882,11.80837 12.02138,19.31771 24.36156,20.80611 4.5134,0.54437 57.94999,0.48703 58.4998,-0.0628 0.31472,-0.31471 0.42334,-3.93544 0.42334,-14.11111 V 198.1466 h 2.46944 2.46945 v 30.51528 30.51527 h -2.4654 -2.4654 l -0.0922,-14.02291 -0.0922,-14.02292 -30.33889,-0.19715 c -33.20264,-0.21576 -31.8991,-0.13333 -37.69421,-2.38357 -4.03131,-1.56537 -7.40075,-3.7121 -10.55912,-6.72743 -4.48681,-4.28359 -7.39183,-9.24641 -9.10971,-15.56268 l -0.81556,-2.99861 -0.21251,-36.68889 c -0.18827,-32.5041 -0.2787,-36.9347 -0.7929,-38.84395 -3.25258,-12.07711 -10.3386,-19.35828 -21.28771,-21.874 -3.52843,-0.8107 -10.493883,-0.81141 -14.171782,-0.001 -9.449181,2.08096 -16.195756,7.6627 -19.458111,16.09855 -2.276323,5.88615 -2.120286,-1.34726 -2.263845,104.94584 -0.142745,105.6895 0.008,98.32674 -2.143788,104.73669 -5.340576,15.9093 -20.678839,25.04871 -38.212388,22.76911 z M 391.35655,341.71202 c -18.85379,-1.22016 -36.39813,-6.89565 -52.9324,-17.12333 -13.63211,-8.4325 -27.26041,-22.06906 -35.82367,-35.84543 -8.39696,-13.50879 -13.77756,-28.37397 -16.25639,-44.91192 -0.91246,-6.08755 -0.91246,-24.25134 0,-30.33889 2.47883,-16.53795 7.85943,-31.40313 16.25639,-44.91192 5.60613,-9.01905 14.99598,-19.79723 23.31579,-26.76318 30.02068,-25.1355 71.15725,-33.0104 108.30278,-20.73274 37.13659,12.27471 65.54671,43.19184 74.65388,81.24162 4.70196,19.64483 3.9219,41.44655 -2.16666,60.55511 -4.13046,12.96323 -11.24229,26.1586 -19.96412,37.04167 -3.94197,4.91879 -11.87093,12.8384 -16.89452,16.87457 -22.27894,17.89993 -50.15495,26.74826 -78.49108,24.91444 z m 13.94075,-8.82542 c 37.05059,-2.45698 69.61011,-23.83171 86.34264,-56.68242 8.65347,-16.98917 12.48484,-35.3046 11.26166,-53.83485 -1.00817,-15.27247 -4.44828,-27.87318 -11.26166,-41.24972 -7.21085,-14.15693 -17.33832,-26.22682 -30.08062,-35.84994 -24.44443,-18.4607 -55.73402,-25.22256 -85.69272,-18.51871 -37.71744,8.44001 -67.51905,36.81519 -77.94886,74.21788 -4.14485,14.86411 -4.75244,33.14034 -1.61258,48.50695 9.40911,46.04819 48.22963,80.04684 95.23487,83.40581 5.78943,0.41371 7.58422,0.41436 13.75727,0.005 z"
         id="path3693"
         inkscape:connector-curvature="0" />
    </g>
  </g>
</svg>
