<?xml version="1.0" encoding="UTF-8" standalone="no"?>
<!-- Created with Inkscape (http://www.inkscape.org/) -->

<svg
   xmlns:dc="http://purl.org/dc/elements/1.1/"
   xmlns:cc="http://creativecommons.org/ns#"
   xmlns:rdf="http://www.w3.org/1999/02/22-rdf-syntax-ns#"
   xmlns:svg="http://www.w3.org/2000/svg"
   xmlns="http://www.w3.org/2000/svg"
   xmlns:sodipodi="http://sodipodi.sourceforge.net/DTD/sodipodi-0.dtd"
   xmlns:inkscape="http://www.inkscape.org/namespaces/inkscape"
   inkscape:version="0.92.1 r15371"
   version="1.1"
   id="svg2"
   viewBox="0 0 1040.0667 1033.3908"
   height="190.20381mm"
   width="191.43257mm"
   sodipodi:docname="field11.svg">
  <defs
     id="defs4" />
  <sodipodi:namedview
     inkscape:window-maximized="1"
     inkscape:window-y="0"
     inkscape:window-x="0"
     inkscape:window-height="1031"
     inkscape:window-width="1920"
     showgrid="false"
     inkscape:current-layer="layer1"
     inkscape:document-units="px"
     inkscape:cy="506.1748"
     inkscape:cx="479.40034"
     inkscape:zoom="0.98994949"
     inkscape:pageshadow="2"
     inkscape:pageopacity="0.0"
     borderopacity="1.0"
     bordercolor="#666666"
     pagecolor="#ffffff"
     id="base"
     fit-margin-top="0"
     fit-margin-left="0"
     fit-margin-right="0"
     fit-margin-bottom="0"
     scale-x="1.4375" />
  <metadata
     id="metadata7">
    <rdf:RDF>
      <cc:Work
         rdf:about="">
        <dc:format>image/svg+xml</dc:format>
        <dc:type
           rdf:resource="http://purl.org/dc/dcmitype/StillImage" />
        <dc:title></dc:title>
      </cc:Work>
    </rdf:RDF>
  </metadata>
  <g
     inkscape:label="Layer 1"
     inkscape:groupmode="layer"
     id="layer1"
     transform="translate(150.68629,-5.8890223)">
    <g
       id="g4245">
      <path
         style="fill:#00df00"
         d="m 876.39207,1038.4126 c -1.04603,-0.6643 -1.43908,-11.7311 -1.65968,-46.73069 l -0.28908,-45.86024 -126.68898,-0.60068 -126.68898,-0.60068 -11.61776,-2.88797 c -37.39229,-9.2951 -62.63475,-28.7276 -78.04929,-60.085 -16.77857,-34.13224 -18.12783,-76.16527 -3.81808,-118.9438 5.48295,-16.39111 5.39979,-16.19696 63.02826,-147.15838 26.91262,-61.15924 70.49053,-160.2422 96.8398,-220.18434 26.34928,-59.94214 51.13828,-116.20533 55.08665,-125.0293 12.71624,-28.41872 15.8982,-42.46846 14.87441,-65.67698 -1.2389,-28.08464 -11.74211,-51.79409 -31.68818,-71.53134 -32.58857,-32.24744 -79.46762,-40.082754 -119.47276,-19.96856 -22.49707,11.31129 -44.01246,33.15628 -59.65337,60.5672 -3.06085,5.36417 -38.51638,78.71279 -78.79008,162.99692 -40.2737,84.28413 -113.06908,236.64284 -161.76752,338.57491 -48.69845,101.93207 -91.59421,190.48414 -95.32392,196.78237 -21.99734,37.14608 -52.20841,58.6194 -93.79635,66.66824 -10.60402,2.05227 -36.176784,1.79787 -47.651254,-0.47405 -53.738842,-10.64018 -94.155725,-49.74629 -108.179199,-104.67082 -5.820683,-22.79737 -5.550027,-8.60388 -6.099176,-319.84802 l -0.510498,-289.33771 -51.098677,-0.28778 c -35.486146,-0.19986 -51.551786,-0.66382 -52.581656,-1.51855 -1.22079,-1.01316 -1.48299,-19.97061 -1.48299,-107.22437 0,-58.296485 0.30222,-106.7811864 0.67161,-107.7437826 0.60608,-1.579439 11.23858,-1.7501751 108.991136,-1.7501751 H 67.295987 L 67.013952,114.59812 66.731917,223.30723 21.977956,223.59659 c -34.11441,0.22056 -44.960868,0.61512 -45.624286,1.65968 -1.359556,2.14063 -1.122741,563.7987 0.243475,577.43899 3.681958,36.76069 17.0117406,65.3485 40.753156,87.40159 13.957396,12.96483 29.55229,21.3112 49.696114,26.59728 13.696971,3.59432 39.474955,3.61889 53.688175,0.0511 32.88471,-8.25454 56.48002,-27.03051 74.69677,-59.43994 3.07848,-5.47695 24.48722,-49.54148 47.57495,-97.92118 120.57244,-252.65617 270.3401,-565.74419 277.60703,-580.33511 25.08543,-50.36779 57.52262,-81.111928 97.93451,-92.822837 63.8734,-18.509784 131.81687,18.377127 153.59792,83.389227 11.00005,32.83297 8.02123,67.54672 -9.03845,105.32923 -3.11337,6.89532 -37.5171,84.98199 -76.45271,173.52597 -148.33491,337.3303 -136.78453,310.62039 -141.78949,327.8842 -8.87334,30.6072 -8.07978,66.24577 2.00879,90.21515 13.27345,31.53631 38.9576,50.65924 75.88265,56.49784 4.62645,0.73153 50.77102,1.16329 128.34866,1.20091 66.61885,0.0323 121.74198,0.0404 122.49584,0.0179 1.06194,-0.0316 1.43576,-10.19611 1.65968,-45.12881 l 0.28903,-45.088 5.34161,-0.34075 c 2.98906,-0.19067 6.03474,0.23447 6.91534,0.96532 1.33949,1.11166 1.57372,16.23955 1.57372,101.6366 0,76.55965 -0.31457,100.64515 -1.32774,101.65835 -1.48152,1.4815 -9.53421,1.7739 -11.66063,0.4233 z M 284.15012,704.51815 c 0,-2.244 -3.81184,-3.94743 -5.36276,-2.39651 -1.83221,1.83221 -1.57323,3.87643 0.64863,5.11984 2.16083,1.20927 4.71413,-0.26576 4.71413,-2.72333 z M 456.75694,342.23392 c 0,-2.47521 -3.11687,-3.74127 -5.11929,-2.07941 -2.07981,1.72609 -1.90652,3.98285 0.40515,5.27652 2.32218,1.29955 4.71414,-0.32267 4.71414,-3.19711 z"
         id="path4249"
         inkscape:connector-curvature="0" />
      <path
         style="fill:#0e0f0e"
         d="m 876.39207,1038.4126 c -1.04603,-0.6643 -1.43908,-11.7311 -1.65968,-46.73069 l -0.28908,-45.86024 -126.68898,-0.60068 -126.68898,-0.60068 -11.61776,-2.88797 c -37.39229,-9.2951 -62.63475,-28.7276 -78.04929,-60.085 -16.77857,-34.13224 -18.12783,-76.16527 -3.81808,-118.9438 5.48295,-16.39111 5.39979,-16.19696 63.02826,-147.15838 26.91262,-61.15924 70.49053,-160.2422 96.8398,-220.18434 26.34928,-59.94214 51.13828,-116.20533 55.08665,-125.0293 12.71624,-28.41872 15.8982,-42.46846 14.87441,-65.67698 -1.2389,-28.08464 -11.74211,-51.79409 -31.68818,-71.53134 -32.58857,-32.24744 -79.46762,-40.082754 -119.47276,-19.96856 -22.49707,11.31129 -44.01246,33.15628 -59.65337,60.5672 -3.06085,5.36417 -38.51638,78.71279 -78.79008,162.99692 -40.2737,84.28413 -113.06908,236.64284 -161.76752,338.57491 -48.69845,101.93207 -91.59421,190.48414 -95.32392,196.78237 -21.99734,37.14608 -52.20841,58.6194 -93.79635,66.66824 -10.60402,2.05227 -36.176784,1.79787 -47.651254,-0.47405 -53.738842,-10.64018 -94.155725,-49.74629 -108.179199,-104.67082 -5.820683,-22.79737 -5.550027,-8.60388 -6.099176,-319.84802 l -0.510498,-289.33771 -51.098677,-0.28778 c -35.486146,-0.19986 -51.551786,-0.66382 -52.581656,-1.51855 -1.22079,-1.01316 -1.48299,-19.97061 -1.48299,-107.22437 0,-58.296485 0.30222,-106.7811864 0.67161,-107.7437826 0.60608,-1.579439 11.23858,-1.7501751 108.991136,-1.7501751 H 67.295987 L 67.013952,114.59812 66.731917,223.30723 21.977956,223.59659 c -34.11441,0.22056 -44.960868,0.61512 -45.624286,1.65968 -1.359556,2.14063 -1.122741,563.7987 0.243475,577.43899 3.681958,36.76069 17.0117406,65.3485 40.753156,87.40159 13.957396,12.96483 29.55229,21.3112 49.696114,26.59728 13.696971,3.59432 39.474955,3.61889 53.688175,0.0511 32.88471,-8.25454 56.48002,-27.03051 74.69677,-59.43994 3.07848,-5.47695 24.48722,-49.54148 47.57495,-97.92118 120.57244,-252.65617 270.3401,-565.74419 277.60703,-580.33511 25.08543,-50.36779 57.52262,-81.111928 97.93451,-92.822837 63.8734,-18.509784 131.81687,18.377127 153.59792,83.389227 11.00005,32.83297 8.02123,67.54672 -9.03845,105.32923 -3.11337,6.89532 -37.5171,84.98199 -76.45271,173.52597 -148.33491,337.3303 -136.78453,310.62039 -141.78949,327.8842 -8.87334,30.6072 -8.07978,66.24577 2.00879,90.21515 13.27345,31.53631 38.9576,50.65924 75.88265,56.49784 4.62645,0.73153 50.77102,1.16329 128.34866,1.20091 66.61885,0.0323 121.74198,0.0404 122.49584,0.0179 1.06194,-0.0316 1.43576,-10.19611 1.65968,-45.12881 l 0.28903,-45.088 5.34161,-0.34075 c 2.98906,-0.19067 6.03474,0.23447 6.91534,0.96532 1.33949,1.11166 1.57372,16.23955 1.57372,101.6366 0,76.55965 -0.31457,100.64515 -1.32774,101.65835 -1.48152,1.4815 -9.53421,1.7739 -11.66063,0.4233 z M 284.15012,704.51815 c 0,-2.244 -3.81184,-3.94743 -5.36276,-2.39651 -1.83221,1.83221 -1.57323,3.87643 0.64863,5.11984 2.16083,1.20927 4.71413,-0.26576 4.71413,-2.72333 z M 456.75694,342.23392 c 0,-2.47521 -3.11687,-3.74127 -5.11929,-2.07941 -2.07981,1.72609 -1.90652,3.98285 0.40515,5.27652 2.32218,1.29955 4.71414,-0.32267 4.71414,-3.19711 z M 53.454469,114.32151 V 19.719697 h -94.601814 -94.601815 l -0.28279,94.884613 -0.2828,94.8846 94.884606,-0.28279 94.884613,-0.28279 z"
         id="path4247"
         inkscape:connector-curvature="0" />
    </g>
  </g>
</svg>
