<?xml version="1.0" encoding="UTF-8" standalone="no"?>
<!-- Created with Inkscape (http://www.inkscape.org/) -->

<svg
   xmlns:dc="http://purl.org/dc/elements/1.1/"
   xmlns:cc="http://creativecommons.org/ns#"
   xmlns:rdf="http://www.w3.org/1999/02/22-rdf-syntax-ns#"
   xmlns:svg="http://www.w3.org/2000/svg"
   xmlns="http://www.w3.org/2000/svg"
   xmlns:sodipodi="http://sodipodi.sourceforge.net/DTD/sodipodi-0.dtd"
   xmlns:inkscape="http://www.inkscape.org/namespaces/inkscape"
   width="216.15775mm"
   height="212.57301mm"
   viewBox="0 0 1011.0055 994.2391"
   id="svg2"
   version="1.1"
   inkscape:version="0.92.1 r15371"
   sodipodi:docname="field7.svg">
  <defs
     id="defs4" />
  <sodipodi:namedview
     id="base"
     pagecolor="#ffffff"
     bordercolor="#666666"
     borderopacity="1.0"
     inkscape:pageopacity="0.0"
     inkscape:pageshadow="2"
     inkscape:zoom="0.98994949"
     inkscape:cx="105.95176"
     inkscape:cy="481.49888"
     inkscape:document-units="px"
     inkscape:current-layer="layer1"
     showgrid="false"
     inkscape:window-width="1920"
     inkscape:window-height="1031"
     inkscape:window-x="0"
     inkscape:window-y="0"
     inkscape:window-maximized="1"
     scale-x="1.2375"
     fit-margin-top="0"
     fit-margin-left="0"
     fit-margin-right="0"
     fit-margin-bottom="0" />
  <metadata
     id="metadata7">
    <rdf:RDF>
      <cc:Work
         rdf:about="">
        <dc:format>image/svg+xml</dc:format>
        <dc:type
           rdf:resource="http://purl.org/dc/dcmitype/StillImage" />
        <dc:title></dc:title>
      </cc:Work>
    </rdf:RDF>
  </metadata>
  <g
     inkscape:label="Layer 1"
     inkscape:groupmode="layer"
     id="layer1"
     transform="translate(136.24606,-38.886637)">
    <path
       style="fill:#000000"
       d="m 310.23522,1031.4528 c -72.64839,-6.7804 -94.81966,-32.0435 -99.16057,-112.98887 l -1.63247,-30.44071 -99.06015,-0.9635 C 1.736511,886.00299 -0.34374551,885.76024 -29.308581,870.75785 -86.754673,841.00358 -109.58706,770.45896 -80.725225,711.89725 -65.224602,680.44592 -42.726529,661.43733 -9.0264788,651.31911 17.088742,643.47818 26.943285,637.83135 42.905267,621.56131 85.992826,577.64216 91.546488,499.87143 55.252196,448.66105 36.494332,422.19416 7.2708568,407.49536 -35.875767,402.82559 c -12.371734,-1.339 -27.090735,-4.01057 -32.708888,-5.93682 -40.444645,-13.86696 -67.888365,-47.52187 -67.659995,-82.97309 0.49125,-76.25674 77.246526,-142.77542 184.197943,-159.63207 18.685394,-2.94501 56.976557,-3.5727 218.433067,-3.58066 l 195.77588,-0.01 V 102.68024 54.667528 L 429.43,54.174109 l -32.73225,-0.49342 0.64484,-9.743373 c 0.60546,-4.864836 -0.369,-5.450094 0.60546,-4.864836 0.97448,0.585256 34.78739,1.153218 75.1398,1.262137 l 73.36803,0.198028 -0.76831,6.467279 -0.76833,6.467286 -32.73224,0.669838 -32.73225,0.669837 v 47.943035 47.94303 H 614.08927 748.72379 V 102.74992 54.806885 l -32.4983,-0.669837 -32.4983,-0.669838 -0.23395,-7.201907 -0.23394,-7.201907 76.88474,0.442665 c 9.017,0.05191 74.93703,-0.407244 74.93703,-0.407244 0,0 2.08696,15.309144 -3.60028,14.581872 l -34.01965,0.49342 -34.01965,0.493419 0.66982,47.412552 0.66981,47.41255 42.61368,0.65685 42.61368,0.65685 0.29253,-31.86511 c 0.16083,-17.52581 0.16083,-32.675326 0,-33.665588 -0.16082,-0.990262 2.46545,-1.800477 5.8363,-1.800477 4.30655,0 6.53259,1.605994 7.48679,5.401431 0.74686,2.970786 1.04598,35.109294 0.66465,71.418914 l -0.69331,66.01747 -6.79348,0.75962 -6.79348,0.75961 v -31.36772 -31.36771 h -43.26749 -43.26751 l 0.65383,72.61922 0.65381,72.61923 54.98916,0.64616 54.98916,0.64613 -0.64128,115.78469 -0.64128,115.78468 -115.46484,0.62387 -115.46484,0.62388 -0.64199,112.206 -0.642,112.20599 -54.47157,0.64481 -54.47159,0.64482 -2.80532,15.9152 c -8.5734,48.63851 -52.03392,88.74487 -106.36979,98.16046 -13.75893,2.38421 -43.84293,3.3219 -108.52041,3.38242 l -89.48431,0.0838 1.30613,23.40619 c 4.30727,77.18786 18.86791,96.25408 79.30294,103.84188 9.76101,1.2256 87.57729,2.345 172.92508,2.4877 127.02888,0.2122 159.88301,-0.4038 181.11653,-3.3963 74.50716,-10.5005 108.00376,-34.9479 122.12107,-89.12962 3.66949,-14.08333 8.74731,-51.15123 8.78765,-64.14926 l 0.0203,-6.534 -33.75465,-0.6679 -33.75468,-0.66791 -0.29432,-6.60175 -0.29434,-6.60175 h 73.42892 c 46.72206,0 73.98921,0.88097 74.96937,2.42213 0.84723,1.33216 0.83792,4.57301 -0.0198,7.2019 -1.45225,4.44365 -3.77886,4.77979 -33.08539,4.77979 h -31.52335 l -2.84002,30.6081 c -4.88437,52.64064 -17.06096,83.79287 -41.54979,106.29972 -7.30295,6.71186 -13.27808,14.38365 -13.27808,14.38365 -12.70799,6.1423 -6.57933,5.956 -35.82019,13.8929 -51.01245,13.8462 -42.92949,13.3326 -217.39152,13.814 -89.674,0.2475 -173.04859,-0.4838 -185.27686,-1.6251 z M 210.18571,677.94727 c 0,-211.66695 0.19615,-215.02664 14.82361,-253.9758 11.33143,-30.17248 25.29607,-51.0433 50.41658,-75.34992 32.4521,-31.4007 64.7863,-46.31571 108.92006,-50.24233 10.86958,-0.96707 22.62557,-3.19381 26.12441,-4.94829 24.18681,-12.12832 46.98206,-61.2555 50.91475,-109.7289 l 1.50941,-18.60492 H 275.33395 c -114.66096,0 -195.696752,0.96949 -208.493818,2.49436 -88.196566,10.50934 -159.117466,54.55082 -181.028282,112.41756 -6.77573,17.89479 -7.2279,45.99958 -0.93768,58.28143 13.95595,27.24942 41.876872,43.7239 80.746085,47.64349 29.4110987,2.96582 39.0239688,5.55896 59.912097,16.16166 31.123284,15.79801 55.657762,48.18361 65.183224,86.04209 5.54477,22.03745 5.59041,59.83248 0.09694,80.26619 -13.35643,49.68091 -49.673032,88.56471 -92.1572482,98.67174 -44.8586848,10.67193 -75.4670378,50.37067 -75.4670378,97.88004 0,29.30931 10.049387,53.16793 30.947713,73.47411 14.780299,14.3615 38.9869676,26.68907 58.421127,29.75173 7.472833,1.17766 54.996348,2.26747 105.60781,2.42183 l 92.02083,0.28064 z m 227.27295,186.0948 c 20.80378,-7.17084 36.2511,-16.86545 50.55991,-31.73098 12.64082,-13.13265 24.69679,-36.14133 27.27345,-52.05111 l 1.65239,-10.2027 h -55.8002 -55.8002 V 653.62645 537.19563 h 55.26396 55.26399 l 1.64155,-13.80366 c 0.90284,-7.59201 3.85411,-19.69714 6.3951,-27.95492 2.4377,-7.92209 7.24066,-15.02953 12.13654,-24.88888 0,0 10.14305,-17.88528 34.36535,-32.67246 18.05433,-11.02177 20.5814,-11.61651 38.17751,-16.16753 9.58149,-2.47814 20.35429,-2.78584 23.41136,-3.44227 l 5.5583,-1.19353 v -52.76825 -52.76825 h 55.58306 55.58306 V 238.31649 165.09711 H 614.08927 c -74.04898,0 -134.64363,0.81021 -134.65478,1.80047 -0.0123,0.99027 -1.104,10.98291 -2.42858,22.20588 -6.32338,53.57804 -26.90843,97.93746 -53.87545,116.09817 -8.26196,5.56396 -14.66849,7.29277 -36.92281,9.96375 -14.80948,1.77743 -33.43963,5.45633 -41.40034,8.17531 -53.61475,18.31222 -95.62917,66.86584 -112.91629,130.49073 -5.26191,19.36633 -5.38261,23.58379 -6.25556,218.57175 l -0.8901,198.82439 98.32799,-0.82534 c 95.26333,-0.79965 98.82845,-0.99787 114.38531,-6.36015 z m 78.44405,-326.91915 c -0.34644,17.43559 0.55226,68.85451 0.55226,177.68332 0.27036,14.09172 0.40565,54.77534 0.40565,54.77534 l 15.14701,0.0432 c 0,0 0.2766,-87.6121 -0.36766,-116.18847 0.25255,-20.94105 -1.14871,-93.81647 -0.52107,-116.31342 m 106.43877,-50.36162 v -50.43431 l -14.20456,1.46501 c -29.62055,3.055 -63.5404,25.22475 -77.9454,50.94449 -6.34868,11.3354 -14.0123,40.12433 -14.0123,48.70816 0,0 3.66189,-0.24902 53.04956,-0.24902 h 53.1127 z m 0.29324,-50.56809 c 62.23577,-3.10016 100.91493,-26.33225 117.92677,-65.45321 8.64675,-19.88433 9.08616,-59.76532 9.08616,-59.76532 l -16.21506,-0.15823 c 0,0 0.97425,34.77433 -16.15326,63.77092 -7.75044,13.12136 -37.08729,33.98183 -74.97977,40.15305 -10.09648,1.64431 -29.90339,2.5567 -20.78043,2.5567 3.11129,0 1.11559,18.89609 1.11559,18.89609 z"
       id="path3462"
       inkscape:connector-curvature="0"
       sodipodi:nodetypes="cscsssssssssssccccccsscccccccccccccccsccccccccssssscccccccccccccccccccssscsssssscccccsscscsssssccsssssscssssssssssssscsssscccccccsscssscccccccscsssssscssccccccccssssccssccssss" />
  </g>
</svg>
