<?xml version="1.0" encoding="UTF-8" standalone="no"?>
<!-- Created with Inkscape (http://www.inkscape.org/) -->

<svg
   xmlns:dc="http://purl.org/dc/elements/1.1/"
   xmlns:cc="http://creativecommons.org/ns#"
   xmlns:rdf="http://www.w3.org/1999/02/22-rdf-syntax-ns#"
   xmlns:svg="http://www.w3.org/2000/svg"
   xmlns="http://www.w3.org/2000/svg"
   xmlns:sodipodi="http://sodipodi.sourceforge.net/DTD/sodipodi-0.dtd"
   xmlns:inkscape="http://www.inkscape.org/namespaces/inkscape"
   width="130.53334mm"
   height="98.058212mm"
   viewBox="0 0 78.320004 58.834926"
   version="1.1"
   id="svg3697"
   inkscape:version="0.92.1 r15371"
   sodipodi:docname="field14.svg">
  <defs
     id="defs3691" />
  <sodipodi:namedview
     id="base"
     pagecolor="#ffffff"
     bordercolor="#666666"
     borderopacity="1.0"
     inkscape:pageopacity="0.0"
     inkscape:pageshadow="2"
     inkscape:zoom="1.4"
     inkscape:cx="-163.66125"
     inkscape:cy="290.23528"
     inkscape:document-units="mm"
     inkscape:current-layer="layer1"
     showgrid="false"
     fit-margin-top="0"
     fit-margin-left="0"
     fit-margin-right="0"
     fit-margin-bottom="0"
     scale-x="0.6"
     inkscape:window-width="1920"
     inkscape:window-height="1031"
     inkscape:window-x="0"
     inkscape:window-y="0"
     inkscape:window-maximized="1" />
  <metadata
     id="metadata3694">
    <rdf:RDF>
      <cc:Work
         rdf:about="">
        <dc:format>image/svg+xml</dc:format>
        <dc:type
           rdf:resource="http://purl.org/dc/dcmitype/StillImage" />
        <dc:title></dc:title>
      </cc:Work>
    </rdf:RDF>
  </metadata>
  <g
     inkscape:label="Layer 1"
     inkscape:groupmode="layer"
     id="layer1"
     transform="translate(-0.14951997,-0.73134432)">
    <g
       id="g3795"
       transform="matrix(0.12528044,0,0,0.12528044,27.356618,6.159297)">
      <path
         style="fill:#000000;stroke-width:0.69849998"
         d="m -61.245575,425.55195 c -0.468596,-0.57335 -0.711129,-13.13762 -0.701797,-36.35669 0.0078,-19.51431 -0.167717,-35.66254 -0.390126,-35.88495 -0.222403,-0.22241 -3.010871,-0.53975 -6.196596,-0.7052 -8.574081,-0.44532 -15.603526,-2.46388 -25.908412,-7.43981 -5.071445,-2.44885 -10.367994,-4.99121 -11.770114,-5.64969 -1.40212,-0.65846 -3.47239,-2.19792 -4.6006,-3.421 -1.12821,-1.22308 -3.73626,-3.63825 -5.79567,-5.36703 -2.05943,-1.72879 -4.86119,-4.26145 -6.22616,-5.62814 -2.67659,-2.67996 -9.42808,-12.09289 -10.26777,-14.31533 -0.28278,-0.74843 -1.51859,-3.08957 -2.74625,-5.20254 -3.16449,-5.44649 -7.24951,-18.16155 -8.07875,-25.146 -0.38771,-3.26548 -0.85221,-6.9588 -1.03223,-8.20737 l -0.32732,-2.27013 h -35.21802 c -34.10414,0 -35.24089,-0.0427 -35.94109,-1.35108 -0.48575,-0.90762 -0.72308,-26.3393 -0.72308,-77.48361 0,-68.28006 0.11321,-76.24574 1.09764,-77.23017 0.9685,-0.96849 5.19386,-1.09764 35.91136,-1.09764 h 34.8137 l 0.37601,-2.61938 c 0.2068,-1.44065 0.57143,-4.71917 0.81028,-7.28558 0.23885,-2.56641 0.89808,-6.338312 1.46496,-8.381998 0.56687,-2.043692 1.48402,-5.369251 2.03812,-7.390144 1.01926,-3.717445 7.75209,-16.777503 9.98396,-19.36643 0.66698,-0.773701 2.39208,-3.174829 3.83355,-5.335849 2.79167,-4.185202 17.23854,-17.665457 20.95354,-19.551553 1.22272,-0.620778 4.10908,-2.097149 6.414126,-3.28082 9.56317,-4.910826 11.420028,-5.703414 16.576536,-7.075617 3.673684,-0.9776 7.582294,-1.440558 12.22375,-1.44783 3.752768,-0.0056 7.231794,-0.269865 7.731165,-0.586621 0.726496,-0.460828 0.897922,-7.644854 0.857779,-35.9467136 -0.0475,-33.4954404 0.01823,-35.4391614 1.239467,-36.6604254 1.240278,-1.240274 4.251721,-1.283557 78.6687,-1.130692 43.879678,0.09014 77.647458,0.427353 77.999027,0.778924 0.340987,0.340986 0.701448,16.794887 0.801026,36.5642237 l 0.181044,35.9442483 77.00962,0.177685 77.00963,0.177691 0.0107,-35.8011893 c 0.006,-19.6906547 0.25703,-36.1889937 0.5581,-36.6629767 0.42846,-0.674554 17.35326,-0.869348 77.90078,-0.896588 42.54437,-0.01914 77.65479,0.15147 78.02316,0.379135 0.42087,0.260107 0.66977,29.310126 0.66977,78.169938 0,64.169842 -0.16368,77.891852 -0.93677,78.533452 -0.65368,0.54251 -11.47133,0.8322 -35.79812,0.95864 l -34.86136,0.18122 -0.17776,75.74409 c -0.14112,60.13378 0.003,75.85875 0.6985,76.30043 0.48195,0.30599 16.31828,0.56116 35.19186,0.56704 28.04227,0.009 34.45948,0.18406 35.10266,0.95905 0.57576,0.69375 0.73937,21.93049 0.6094,79.10513 l -0.17766,78.15677 -77.83964,0.17768 c -61.81025,0.14109 -77.95419,-0.003 -78.39592,-0.6985 -0.30596,-0.4819 -0.56111,-16.94211 -0.56699,-36.57825 l -0.0107,-35.70207 -5.93691,-0.48172 c -3.26531,-0.26494 -7.94668,-0.90222 -10.40307,-1.41616 -4.31678,-0.90319 -19.20984,-7.1242 -22.77602,-9.51383 -0.96044,-0.64357 -2.53207,-1.40501 -3.4925,-1.69209 -0.96044,-0.28707 -2.68923,-1.24009 -3.84175,-2.11782 -4.73429,-3.60546 -14.53992,-12.94 -16.58953,-15.79251 -1.2074,-1.68038 -3.22675,-4.22724 -4.48745,-5.65969 -5.31969,-6.04443 -12.67349,-24.807 -14.17343,-36.1623 -0.43135,-3.26548 -0.94228,-6.96167 -1.13541,-8.21376 l -0.35113,-2.27651 -35.41603,0.18101 -35.41602,0.18101 -0.34925,77.88276 -0.34925,77.88275 -78.318605,0.17762 c -62.124469,0.1409 -78.466665,-0.003 -79.03465,-0.6985 z m 14.51001,-75.57755 c 5.641365,-1.08702 8.301392,-1.96601 15.366999,-5.07797 6.137363,-2.70312 10.291608,-4.92098 10.820582,-5.77687 0.240822,-0.38967 1.145847,-0.70848 2.011149,-0.70848 1.76337,0 17.1678792,-12.84823 19.10883597,-15.93785 0.64747453,-1.03065 2.64371763,-3.60269 4.43609653,-5.71565 6.3385315,-7.47224 13.4675335,-25.02877 15.3161695,-37.71901 1.197257,-8.21873 1.046667,-8.68489 -2.888234,-8.94045 -3.63767,-0.23625 -4.073017,0.39463 -4.091066,5.92849 -0.0248,7.6074 -4.7758957,21.05731 -11.1457265,31.55255 -4.0124563,6.61111 -14.9796885,18.94852 -17.6775115,19.88603 -0.672628,0.23375 -2.558578,1.38732 -4.191,2.56351 -9.072872,6.53713 -14.918653,9.3356 -21.129045,10.11479 -1.920875,0.241 -4.445323,0.73731 -5.60989,1.1029 -1.164568,0.36559 -4.46498,0.89876 -7.33425,1.18483 l -5.216859,0.52011 -0.20948,4.01637 -0.209487,4.01638 3.701987,-1.2e-4 c 2.036085,-7e-5 6.059417,-0.45437 8.94073,-1.00956 z m 312.578735,-0.0511 c 7.77895,-1.47629 9.08739,-1.95848 21.18698,-7.80784 9.89449,-4.78333 11.31326,-5.71929 18.64353,-12.299 8.86488,-7.95721 12.87628,-13.01352 18.25893,-23.01511 5.83548,-10.84299 9.19345,-21.89571 9.49582,-31.25532 l 0.16924,-5.23875 -3.29519,-0.21197 c -3.75567,-0.24159 -3.37436,-0.9519 -4.71684,8.7866 -0.43828,3.17934 -1.22568,7.1084 -1.74978,8.73125 -4.91703,15.22541 -9.2977,22.9541 -18.42608,32.50862 -3.41948,3.57913 -7.20064,7.0367 -8.40257,7.6835 -1.20192,0.64681 -5.56227,3.32578 -9.68967,5.95328 -5.30888,3.37962 -8.73049,5.05272 -11.69537,5.71877 -5.21859,1.17236 -16.64515,3.06607 -19.90725,3.29923 l -2.44474,0.17473 -0.20949,4.01637 -0.20948,4.01638 3.70198,-1.2e-4 c 2.03609,-7e-5 6.21658,-0.47734 9.28998,-1.06062 z M -61.983108,338.93495 c 0.148991,-0.86439 0.230645,-3.45757 0.181443,-5.76262 -0.04917,-2.30505 -0.137025,-17.47411 -0.195175,-33.70903 l -0.105725,-29.51803 -35.448874,0.18103 -35.448871,0.18102 -0.23044,2.01842 c -0.12673,1.11012 0.27722,4.5677 0.89767,7.6835 2.828,14.20157 9.87139,28.96273 17.02988,35.69032 2.04991,1.92652 4.64377,4.81768 5.76413,6.42479 1.12035,1.60712 2.7276,3.14122 3.57165,3.40912 0.84405,0.26789 4.7518,2.60391 8.683891,5.19114 8.522782,5.60784 11.687462,6.98988 17.718465,7.73776 2.497137,0.30966 5.797549,0.86013 7.334249,1.22328 1.5367,0.36315 4.410134,0.69642 6.385401,0.7406 3.208378,0.0718 3.620297,-0.0873 3.862306,-1.4913 z m 312.640368,-33.528 -0.18108,-35.09963 h -35.27425 -35.27425 l 0.0923,5.01141 c 0.0508,2.75626 0.48536,6.68533 0.96574,8.73125 1.38567,5.90144 5.58407,15.94277 8.44829,20.20581 1.44596,2.15212 3.04181,4.89727 3.54634,6.10033 1.0404,2.48083 13.58903,15.48196 14.94313,15.48196 0.48662,0 1.77327,0.74054 2.85923,1.64565 2.52483,2.10435 12.0812,7.89055 15.45216,9.35599 1.42329,0.61873 4.63092,1.37381 7.12806,1.67795 2.49713,0.30412 5.79755,0.8399 7.33425,1.1906 1.5367,0.35071 4.44711,0.6738 6.46758,0.71798 l 3.67359,0.0803 z M -135.44506,192.77382 c 0.19208,-41.10673 0.12128,-75.44673 -0.15734,-76.31113 -0.42426,-1.31622 -1.00806,-1.57162 -3.59239,-1.57162 -2.19548,0 -3.21063,0.32528 -3.51844,1.1274 -0.23794,0.62007 -0.42055,34.62341 -0.40579,75.56297 0.0196,54.56035 0.23898,74.69119 0.82137,75.39293 0.49819,0.60027 1.85921,0.87933 3.64894,0.74816 l 2.8544,-0.20921 z m 147.207198,72.644 c 0.78225,-9.47772 2.97093,-21.12614 4.722112,-25.13171 0.843222,-1.92873 1.734473,-4.33728 1.980554,-5.35232 0.507502,-2.09334 8.004272,-13.47115 13.117488,-19.90832 4.445756,-5.5969 11.524865,-12.1234 13.149911,-12.1234 0.704899,0 2.828953,-1.39117 4.720114,-3.09148 3.528808,-3.1727 15.395575,-9.48152 17.834555,-9.48152 0.750364,0 3.027027,-0.48337 5.05925,-1.07415 2.032223,-0.59078 7.73845,-1.7695 12.680505,-2.61938 l 8.985553,-1.54522 v -34.925 -34.925 l -76.660373,-0.1777 -76.660372,-0.17771 v 76.02317 c 0,41.81273 0.212428,76.23558 0.47206,76.49522 0.259633,0.25963 16.211626,0.3906 35.448874,0.29104 l 34.976814,-0.18102 z m 82.431135,-33.02356 c 0.159866,-31.00133 0.05567,-35.16719 -0.888478,-35.52951 -2.187311,-0.83934 -12.769271,1.41653 -20.247614,4.31641 -4.225925,1.63869 -8.667603,3.18451 -9.870399,3.43514 -5.268596,1.09788 -17.627415,11.18809 -25.049215,20.45113 -3.813006,4.75896 -6.005696,8.3748 -8.366709,13.79705 -1.759738,4.04138 -3.39295,8.36875 -3.629357,9.6164 -0.236415,1.24764 -0.688323,2.77624 -1.004255,3.39688 -0.79944,1.5705 -2.222508,13.75841 -1.750154,14.98934 0.331445,0.86374 5.425494,0.98243 35.506025,0.82732 l 35.119063,-0.1811 z m 82.447907,34.59317 c 0.85487,-1.03005 0.0763,-9.18016 -1.64642,-17.23563 -1.40662,-6.57725 -5.58595,-17.71022 -7.58,-20.19174 -0.82259,-1.02368 -2.71243,-3.74719 -4.19964,-6.05224 -5.97758,-9.26473 -15.76064,-19.20875 -18.89782,-19.20875 -0.43731,0 -2.39713,-1.36745 -4.35514,-3.03878 -4.4542,-3.80204 -15.4334,-9.53422 -18.26148,-9.53422 -1.1688,0 -3.9478,-0.47926 -6.17555,-1.06502 -2.22774,-0.58577 -6.98824,-1.54209 -10.57888,-2.12517 -7.563032,-1.22816 -8.48932,-0.87962 -8.48932,3.19425 0,2.94073 0.888129,3.46121 5.93725,3.47947 4.91173,0.0177 12.5638,2.00361 18.83887,4.88898 3.35334,1.54192 6.7914,2.80349 7.64015,2.80349 1.96403,0 8.87503,4.14487 12.58126,7.54562 1.56734,1.43816 3.94986,3.45496 5.29447,4.48178 1.34461,1.02682 3.70205,3.50093 5.23875,5.49803 1.5367,1.99709 3.6352,4.62238 4.66334,5.83397 1.02813,1.21159 3.00947,4.54524 4.40297,7.40812 1.39349,2.86288 2.96304,5.99676 3.48787,6.96417 1.69454,3.12354 4.42978,14.15172 4.93431,19.89456 0.27001,3.0734 0.80601,5.98091 1.19112,6.46113 0.90717,1.13123 5.03454,1.12983 5.97389,-0.002 z m 146.65675,0.29741 c 0.69567,-0.44168 0.83963,-16.16665 0.6985,-76.30043 l -0.17776,-75.74409 h -35.27425 -35.27424 l -0.17991,75.438 c -0.099,41.4909 -0.0302,75.83091 0.1527,76.31113 0.25995,0.68239 7.85233,0.87078 34.75566,0.86243 18.93267,-0.006 34.81736,-0.26105 35.2993,-0.56704 z M -62.102565,77.429456 V 42.063351 l -5.064125,0.441697 c -2.785268,0.242931 -7.107237,0.624654 -9.604375,0.848265 -5.885525,0.527039 -14.784394,4.265321 -21.745142,9.134802 -2.931713,2.050922 -5.647213,3.728949 -6.034443,3.728949 -0.38722,0 -2.54625,1.948767 -4.79785,4.330596 -2.2516,2.381829 -5.66544,5.937453 -7.58631,7.901383 -5.31229,5.431369 -9.58104,13.026418 -12.41696,22.09255 -1.3651,4.364096 -2.68004,9.349186 -2.92207,11.077977 -0.24203,1.72878 -0.62231,4.46452 -0.84507,6.07942 -0.76093,5.51631 -3.70272,5.09658 35.720177,5.09658 h 35.296168 z M 250.82543,77.629604 V 42.463641 l -9.54019,-0.457539 C 229.31183,41.431865 113.23476,41.557134 103.79118,42.154485 l -6.985,0.441829 -0.181827,34.226501 c -0.100004,18.824576 -0.03129,34.619405 0.1527,35.099625 0.264822,0.69118 16.349997,0.87313 77.191457,0.87313 h 76.85692 z m 82.54825,28.879466 c -0.21455,-5.68695 -0.75503,-8.613214 -3.27848,-17.750377 -1.16066,-4.202658 -7.48685,-17.025645 -9.44744,-19.149679 -0.59308,-0.642508 -2.2349,-2.896987 -3.64849,-5.009949 -2.73006,-4.080735 -4.63623,-6.1092 -11.3416,-12.069229 -7.62582,-6.778174 -10.36656,-8.885772 -11.55511,-8.885772 -0.64648,0 -3.98133,-1.56142 -7.41077,-3.46982 -9.49891,-5.285913 -19.44752,-7.963145 -28.18287,-7.584195 l -5.23874,0.227264 v 3.492501 3.4925 l 4.88949,0.45772 c 17.40187,1.629048 23.26502,3.575482 33.528,11.130535 1.92088,1.414043 4.16461,2.77419 4.98607,3.022542 1.61229,0.487441 15.96204,15.39698 17.7619,18.454797 0.60195,1.022674 2.08191,3.509432 3.28877,5.526134 3.77386,6.30617 7.33378,18.464555 8.23195,28.115028 0.26816,2.88131 0.63259,5.49055 0.80984,5.79831 0.17725,0.30776 1.78685,0.46492 3.57687,0.34925 l 3.2546,-0.21031 z M 94.223309,36.484439 94.01218,32.817313 17.351807,32.639615 -59.308565,32.46191 v 3.84483 3.844824 h 76.871501 76.871501 z"
         id="path3799"
         inkscape:connector-curvature="0" />
      <path
         style="fill:#000000;stroke-width:0.69849998"
         d="m -59.686803,424.85045 c -0.183922,-0.48021 -0.252633,-16.9037 -0.152706,-36.49662 l 0.181694,-35.6235 6.63575,-0.47127 c 3.649662,-0.2592 8.836024,-1.08403 11.525249,-1.83295 5.442503,-1.51567 15.096876,-5.66382 19.90725,-8.55346 1.728787,-1.0385 3.946608,-2.0757 4.92849,-2.30489 1.990012,-0.46451 17.20848978,-13.96392 19.1838128,-17.01683 0.6945185,-1.07338 2.5733996,-3.52323 4.1752976,-5.4441 7.6291496,-9.14831 15.7178976,-31.48239 15.7178976,-43.39915 0,-1.52444 0.37719,-3.1489 0.8382,-3.60991 0.62923,-0.62923 9.409291,-0.8382 35.217119,-0.8382 18.908408,0 34.876118,0.19079 35.483799,0.42399 0.998226,0.38305 1.10488,7.82825 1.10488,77.12712 0,42.18673 -0.190788,77.20034 -0.423982,77.80802 -0.383058,0.99823 -7.835214,1.10488 -77.206167,1.10488 -60.781743,0 -76.851873,-0.18195 -77.116584,-0.87313 z m 312.101783,-35.6235 0.1567,-36.49662 6.63574,-0.45051 c 9.84714,-0.66854 15.03349,-2.16248 26.03803,-7.50034 5.4641,-2.65041 10.56337,-5.01281 11.33172,-5.24978 0.76835,-0.23696 3.9116,-2.81479 6.985,-5.72851 3.0734,-2.91371 6.43836,-5.83827 7.47768,-6.49902 2.84122,-1.80633 10.35784,-12.2889 14.65393,-20.43616 5.09403,-9.66051 8.16489,-19.11783 9.2293,-28.42348 0.47154,-4.1225 1.09201,-7.87513 1.37882,-8.3392 0.75055,-1.21442 68.23656,-1.21982 69.45082,-0.006 0.6417,0.6417 0.8382,18.72263 0.8382,77.12712 0,41.95891 -0.19079,76.78612 -0.42398,77.3938 -0.38306,0.99827 -7.8317,1.10492 -77.16632,1.10492 H 252.25829 Z M -69.786065,351.20717 c -11.711414,-1.91243 -13.473359,-2.50927 -27.680325,-9.37647 -3.89102,-1.88079 -7.41511,-3.41962 -7.83132,-3.41962 -0.4162,0 -2.14179,-1.33589 -3.83465,-2.96863 -5.5695,-5.37173 -9.10015,-8.54094 -10.69975,-9.60437 -2.30322,-1.53124 -10.60827,-13.01919 -12.52245,-17.3217 -0.9056,-2.03553 -2.2343,-4.55013 -2.95265,-5.588 -3.32831,-4.8087 -8.34375,-24.85692 -7.72391,-30.87481 l 0.25181,-2.44475 h 3.84175 3.84175 l 0.4671,4.8895 c 1.48737,15.56951 9.22157,33.78111 17.94849,42.26301 1.78085,1.73085 4.44434,4.62597 5.91888,6.4336 1.47452,1.80763 3.27408,3.47485 3.99901,3.70494 1.23586,0.39225 6.13547,3.42974 13.105706,8.12484 4.100551,2.7621 9.647319,4.78259 13.130612,4.78302 1.584443,1.9e-4 4.127939,0.44036 5.652206,0.97816 1.524274,0.53778 5.178525,1.20336 8.120572,1.47906 l 5.349169,0.50126 v 4.02747 c 0,3.58617 -0.172208,4.07361 -1.571625,4.44864 -1.664015,0.44594 -3.936089,0.43421 -6.810375,-0.0351 z m 307.689245,-0.83136 c -5.95442,-1.10805 -22.19892,-7.38521 -24.79675,-9.58191 -0.57627,-0.48728 -2.53893,-1.52511 -4.36148,-2.30629 -3.71869,-1.59391 -16.70855,-12.86629 -19.3267,-16.77139 -0.92699,-1.38264 -2.67142,-3.62386 -3.87653,-4.98049 -3.44044,-3.87301 -8.48989,-13.75026 -11.09498,-21.7029 -3.03656,-9.26978 -3.96755,-13.81236 -4.15089,-20.25356 l -0.14717,-5.17045 3.325,-0.21319 c 3.8109,-0.24434 3.52524,-0.70336 4.69679,7.54744 0.46368,3.26549 1.15101,7.19455 1.52741,8.73125 1.21266,4.95074 5.52425,15.26692 7.88224,18.8595 1.26077,1.92088 2.93867,4.74981 3.72867,6.28651 1.57806,3.06961 14.2537,16.41475 15.59125,16.41475 0.45968,0 1.95144,0.86439 3.31504,1.92087 6.71344,5.20142 17.72067,10.65213 21.51104,10.65213 1.61857,0 3.7324,0.30018 4.69738,0.66706 0.96499,0.36689 4.5216,1.04787 7.9036,1.5133 3.38199,0.46544 6.38001,1.18681 6.66226,1.60306 0.82517,1.21694 0.61076,6.33848 -0.30363,7.25288 -1.10711,1.10711 -5.1022,0.96066 -12.78255,-0.46857 z M -59.686873,340.33195 c -0.18395,-0.48022 -0.252668,-16.58937 -0.152699,-35.79813 l 0.181757,-34.925 h 35.623499 35.623499 l 0.240249,2.794 c 0.698437,8.12253 -3.9058585,22.62522 -10.7640735,33.90482 -4.5255115,7.44305 -13.7807545,17.81963 -17.6475115,19.78565 -1.409468,0.71662 -3.281099,1.96066 -4.159197,2.76453 -4.595843,4.20735 -14.448479,8.77418 -21.634584,10.02794 -15.064179,2.62824 -16.802508,2.77346 -17.310939,1.44619 z m 312.782423,0.0712 c -0.67504,-0.67606 -0.8707,-8.64704 -0.86243,-35.13586 0.006,-18.84378 0.26198,-34.65725 0.5691,-35.14103 0.43946,-0.69222 8.13703,-0.84102 36.13667,-0.6985 l 35.57828,0.1811 -0.19854,4.94285 c -0.29678,7.38833 -5.32691,24.98855 -8.03943,28.12956 -0.54816,0.63475 -2.3037,3.41923 -3.90121,6.18772 -1.5975,2.76849 -3.47619,5.44025 -4.17485,5.93725 -0.69866,0.49699 -3.21387,3.09903 -5.58935,5.78231 -2.37548,2.68327 -5.21909,5.35503 -6.31914,5.93725 -1.10005,0.58221 -4.62975,2.71043 -7.84378,4.72938 -8.23945,5.17574 -12.44622,7.14123 -15.30132,7.14911 -1.35994,0.003 -4.18887,0.44328 -6.2865,0.97674 -6.0866,1.54789 -12.74865,2.04249 -13.7675,1.02212 z m -468.54358,-73.40719 c -0.1843,-0.48378 -0.25413,-34.8267 -0.15519,-76.3176 l 0.17991,-75.438 h 35.27425 35.27425 v 76.1365 76.1365 l -35.11907,0.1811 c -27.72338,0.14296 -35.18962,-0.004 -35.45415,-0.6985 z m 82.09847,-75.61276 c 0,-42.07065 0.23574,-76.49517 0.52387,-76.49894 1.86143,-0.0243 69.216244,-0.0457 70.202337,-0.0223 1.161746,0.0276 1.216229,3.99725 1.04775,76.34024 l -0.177712,76.31114 -35.798124,0.18097 -35.798121,0.18097 z m 147.12027,75.92011 c -0.504834,-0.81683 0.749504,-12.38704 2.021801,-18.64945 1.514907,-7.45656 5.379253,-15.94754 11.181273,-24.56815 6.642079,-9.86877 13.911005,-17.7244 18.312958,-19.79108 1.827619,-0.85804 4.737402,-2.74307 6.466189,-4.18894 3.94619,-3.30039 13.804525,-8.01274 18.8595,-9.01497 13.745732,-2.7253 18.756855,-3.55561 21.459093,-3.55561 h 3.061413 l -0.211128,3.66713 -0.211129,3.66712 -2.794,0.17543 c -6.868238,0.43123 -15.674388,2.6346 -22.085193,5.5259 -3.695009,1.66646 -7.49619,3.02992 -8.447079,3.02992 -3.817652,0 -19.247153,13.24701 -26.441374,22.70125 -6.289203,8.26492 -12.156862,24.21046 -13.108778,35.6235 l -0.466074,5.588 -3.604679,0.20897 c -1.982573,0.11493 -3.779332,-0.0736 -3.992793,-0.41902 z m 82.57555,-33.48623 c -0.114205,-35.14444 -0.09598,-36.52915 0.488391,-37.11353 0.556879,-0.55687 6.489339,-0.0872 11.817769,0.93552 2.70477,0.51917 7.87947,2.23007 11.49934,3.802 3.61986,1.57192 7.19634,2.85804 7.94772,2.85804 2.31135,0 8.19637,3.92937 15.44887,10.31506 6.59265,5.8047 8.74661,8.25644 13.70174,15.59595 5.38426,7.97515 10.42774,23.267 10.67073,32.35372 l 0.13236,4.94952 -35.79813,0.18097 -35.79812,0.18097 z m 82.95565,33.46472 c -0.19743,-0.31945 -0.5576,-2.75547 -0.80038,-5.41338 -1.73792,-19.02646 -7.69482,-32.80428 -20.98257,-48.53098 -5.3476,-6.32915 -8.60803,-9.19291 -11.46853,-10.07323 -0.96044,-0.29557 -3.35878,-1.90454 -5.32965,-3.57548 -3.92234,-3.32545 -15.63012,-9.35962 -18.15995,-9.35962 -0.87353,0 -3.41095,-0.48364 -5.6387,-1.07477 -5.41885,-1.43786 -14.69713,-3.08743 -17.45535,-3.10336 -1.225895,-0.007 -2.426519,-0.33262 -2.668053,-0.72343 -0.422285,-0.68327 -0.510967,-69.9016 -0.09009,-70.32248 0.310686,-0.31068 153.551793,-0.3133 153.862463,-0.003 0.2019,0.20189 0.46299,137.69847 0.28578,150.49003 l -0.0314,2.2703 H 215.2432 c -19.57025,0 -35.74381,-0.26136 -35.94124,-0.58081 z m 146.96151,-75.87008 c 0,-42.08634 0.23575,-76.5448 0.52388,-76.57438 3.46155,-0.35522 5.62597,-0.28788 6.63885,0.20654 1.15875,0.56563 1.21579,4.73279 1.04775,76.53384 l -0.17773,75.93564 -4.01637,0.20948 -4.01638,0.20949 z m -469.14638,-78.98359 c -0.81203,-2.11611 0.46953,-12.11874 2.6078,-20.354099 2.14939,-8.27819 7.67651,-19.848913 11.45595,-23.982426 0.87816,-0.960438 2.08218,-2.689225 2.67558,-3.84175 2.29226,-4.452058 19.60218,-20.236573 23.02284,-20.993984 2.06027,-0.456198 7.812346,-3.412453 9.620407,-4.944375 3.357633,-2.844837 16.057781,-5.843393 24.74923,-5.843393 h 7.347088 v 3.828444 c 0,4.371961 0.302513,4.188081 -8.03275,4.882697 -15.072093,1.256036 -21.457786,3.456569 -30.999705,10.682622 -1.68283,1.274406 -4.04546,2.728977 -5.25028,3.232386 -1.20482,0.503402 -3.91418,2.884923 -6.0208,5.292262 -2.10662,2.407338 -5.25648,5.848631 -6.99969,7.647318 -1.74321,1.798686 -4.07216,4.82637 -5.17544,6.728183 -1.10329,1.901813 -2.56595,4.183847 -3.25037,5.071187 -1.33746,1.733984 -5.07585,13.118424 -6.28792,19.148421 -0.40747,2.027147 -0.95099,6.043167 -1.20782,8.924487 l -0.46697,5.23875 -3.67494,0.2114 c -2.88468,0.16593 -3.76897,-0.0337 -4.11221,-0.92813 z m 83.196087,0.19285 c -0.18395,-0.48022 -0.252668,-16.589374 -0.152699,-35.798125 l 0.181757,-34.925001 H 17.526432 94.71068 l 0.181156,35.228988 c 0.14255,27.720188 -0.0063,35.348018 -0.6985,35.787428 -0.483809,0.30715 -35.229524,0.56326 -77.212697,0.56914 -60.430321,0.008 -76.402731,-0.17121 -76.667512,-0.86243 z m 312.335693,-0.22545 c -0.67741,-1.76533 -0.47284,-68.993547 0.21326,-70.077123 0.48025,-0.758488 1.60823,-0.866818 5.05342,-0.485318 2.43935,0.270117 6.94977,0.752759 10.02317,1.072533 7.62288,0.793146 15.75869,4.263853 22.352,9.535279 1.5367,1.228606 3.89414,2.692997 5.23875,3.2542 1.34462,0.561196 3.968,2.715601 5.82975,4.787554 1.86174,2.071961 4.92254,5.362616 6.80175,7.312562 8.76489,9.094785 15.63741,26.153071 16.16008,40.110893 l 0.19617,5.23875 -35.72097,0.18092 c -32.11984,0.16269 -35.76396,0.0689 -36.14738,-0.93025 z m 83.45024,-0.47305 c -0.33654,-0.86439 -0.92898,-4.71487 -1.31653,-8.55662 -0.6834,-6.774672 -3.38915,-17.631297 -5.30002,-21.266019 -5.51696,-10.493936 -7.0651,-13.207455 -8.39063,-14.706736 -0.84914,-0.960438 -2.36364,-3.00355 -3.36556,-4.54025 -3.49631,-5.362504 -20.2959,-20.584321 -22.76325,-20.625393 -0.64895,-0.01083 -3.06585,-1.094172 -5.3709,-2.407492 -10.846,-6.179588 -19.59801,-8.744445 -29.84756,-8.747107 -6.46943,-0.0014 -6.81546,-0.07752 -7.17853,-1.573385 -0.20981,-0.864394 -0.29438,-17.130713 -0.18793,-36.1473763 l 0.19353,-34.5757517 h 76.83499 76.835 l 0.17773,76.410448 c 0.12998,55.883397 -0.0337,76.665232 -0.6094,77.358882 -0.64341,0.77524 -7.02402,0.94843 -34.94308,0.94843 H 336.71097 Z M 96.45693,36.417564 v -3.734006 l 12.74762,-0.47417 c 7.0112,-0.260792 41.42304,-0.450742 76.47076,-0.422104 69.91136,0.05713 65.84862,-0.199903 65.84862,4.166043 0,4.574281 6.98283,4.198237 -77.95748,4.198237 H 96.45693 Z m -155.998326,-5.81217 c -0.256119,-0.256112 -0.465669,-16.601015 -0.465669,-36.3219992 0,-28.1960358 0.186534,-35.8656938 0.873125,-35.9001448 5.223676,-0.262104 153.132506,0.168797 153.583346,0.447432 0.33579,0.207529 0.610524,16.355721 0.610524,35.8848713 0,31.7338777 -0.117425,35.5526047 -1.10488,35.9315277 -1.514551,0.581187 -152.914693,0.540073 -153.496446,-0.0417 z"
         id="path3797"
         inkscape:connector-curvature="0" />
    </g>
  </g>
</svg>
