<?xml version="1.0" encoding="UTF-8" standalone="no"?>
<svg
   xmlns:dc="http://purl.org/dc/elements/1.1/"
   xmlns:cc="http://creativecommons.org/ns#"
   xmlns:rdf="http://www.w3.org/1999/02/22-rdf-syntax-ns#"
   xmlns:svg="http://www.w3.org/2000/svg"
   xmlns="http://www.w3.org/2000/svg"
   xmlns:sodipodi="http://sodipodi.sourceforge.net/DTD/sodipodi-0.dtd"
   xmlns:inkscape="http://www.inkscape.org/namespaces/inkscape"
   viewBox="0 0 10771.653 6803.1494"
   id="svg1160"
   height="6803.1494"
   width="10771.653"
   version="1.1"
   sodipodi:docname="field3.svg"
   inkscape:version="0.92.1 r15371">
  <sodipodi:namedview
     pagecolor="#ffffff"
     bordercolor="#000000"
     borderopacity="1"
     objecttolerance="10"
     gridtolerance="10"
     guidetolerance="10"
     inkscape:pageopacity="0"
     inkscape:pageshadow="2"
     inkscape:window-width="1920"
     inkscape:window-height="1031"
     id="namedview584"
     showgrid="false"
     inkscape:zoom="0.065728073"
     inkscape:cx="4983.775"
     inkscape:cy="3889.2781"
     inkscape:window-x="0"
     inkscape:window-y="0"
     inkscape:window-maximized="1"
     inkscape:current-layer="g4400" />
  <metadata
     id="metadata1166">
    <rdf:RDF>
      <cc:Work
         rdf:about="">
        <dc:format>image/svg+xml</dc:format>
        <dc:type
           rdf:resource="http://purl.org/dc/dcmitype/StillImage" />
      </cc:Work>
    </rdf:RDF>
  </metadata>
  <defs
     id="defs1164" />
  <g
     id="g4400"
     style="display:inline">
    <path
       d="m 919.5222,2125.046 z m 0,2196.8501 V 2125.046"
       style="fill:none;stroke:#000000;stroke-width:141.7322998;stroke-linecap:round;stroke-linejoin:bevel;stroke-dasharray:none"
       id="path102"
       inkscape:connector-curvature="0" />
    <path
       d="m 9848.6558,2479.3767 v 0 2196.8501"
       style="fill:none;stroke:#000000;stroke-width:141.7322998;stroke-linecap:round;stroke-linejoin:bevel;stroke-dasharray:none"
       id="path104"
       inkscape:connector-curvature="0" />
    <g
       style="display:inline"
       id="g986">
      <path
         inkscape:connector-curvature="0"
         d="m 4143.1187,3671.4356 c 0,-39.1382 -31.7276,-70.8661 -70.8659,-70.8661 -39.1382,0 -70.8661,31.7276 -70.8664,70.8658 0,39.1383 31.7276,70.8662 70.8659,70.8665 39.1382,0 70.8664,-31.7277 70.8664,-70.8659 z"
         style="fill:#000000;fill-rule:evenodd;stroke:#000000;stroke-width:0.21600001;stroke-linecap:butt;stroke-linejoin:bevel;stroke-dasharray:none"
         id="path872" />
      <path
         inkscape:connector-curvature="0"
         d="m 4412.0356,3513.6068 c 0,-39.1382 -31.7279,-70.8661 -70.8662,-70.8661 -39.1382,0 -70.8661,31.7276 -70.8661,70.8658 0,39.1385 31.7276,70.8664 70.8658,70.8664 39.1383,3e-4 70.8662,-31.7273 70.8665,-70.8658 z"
         style="fill:#000000;fill-rule:evenodd;stroke:#000000;stroke-width:0.21600001;stroke-linecap:butt;stroke-linejoin:bevel;stroke-dasharray:none"
         id="path874" />
      <path
         inkscape:connector-curvature="0"
         d="m 4502.9072,3215.3315 c 0,-39.1385 -31.7276,-70.8661 -70.8658,-70.8661 -39.1383,-3e-4 -70.8662,31.7276 -70.8665,70.8658 0,39.1382 31.7277,70.8659 70.8659,70.8662 39.1382,0 70.8664,-31.7274 70.8664,-70.8656 z"
         style="fill:#000000;fill-rule:evenodd;stroke:#000000;stroke-width:0.21600001;stroke-linecap:butt;stroke-linejoin:bevel;stroke-dasharray:none"
         id="path876" />
      <path
         inkscape:connector-curvature="0"
         d="m 4771.8241,3057.5027 c 0,-39.1383 -31.7279,-70.8662 -70.8661,-70.8662 -39.1383,0 -70.8662,31.7277 -70.8662,70.8659 0,39.1382 31.7276,70.8661 70.8659,70.8664 39.1382,0 70.8661,-31.7276 70.8664,-70.8658 z"
         style="fill:#000000;fill-rule:evenodd;stroke:#000000;stroke-width:0.21600001;stroke-linecap:butt;stroke-linejoin:bevel;stroke-dasharray:none"
         id="path878" />
      <path
         inkscape:connector-curvature="0"
         d="m 4862.6957,2759.2268 c 0,-39.1382 -31.7276,-70.8661 -70.8658,-70.8661 -39.1382,0 -70.8662,31.7279 -70.8664,70.8661 0,39.1382 31.7276,70.8661 70.8658,70.8661 39.1383,3e-4 70.8664,-31.7273 70.8664,-70.8655 z"
         style="fill:#000000;fill-rule:evenodd;stroke:#000000;stroke-width:0.21600001;stroke-linecap:butt;stroke-linejoin:bevel;stroke-dasharray:none"
         id="path880" />
      <path
         inkscape:connector-curvature="0"
         d="m 5131.6126,2601.3983 c 0,-39.1383 -31.7279,-70.8662 -70.8661,-70.8662 -39.1382,0 -70.8662,31.7276 -70.8662,70.8659 0,39.1382 31.7277,70.8661 70.8659,70.8664 39.1382,0 70.8661,-31.7276 70.8664,-70.8658 z"
         style="fill:#000000;fill-rule:evenodd;stroke:#000000;stroke-width:0.21600001;stroke-linecap:butt;stroke-linejoin:bevel;stroke-dasharray:none"
         id="path882" />
      <path
         inkscape:connector-curvature="0"
         d="m 5222.4843,2303.1224 c 0,-39.1382 -31.7276,-70.8661 -70.8659,-70.8661 -39.1382,0 -70.8661,31.7276 -70.8664,70.8658 0,39.1382 31.7276,70.8664 70.8659,70.8664 39.1382,3e-4 70.8664,-31.7276 70.8664,-70.8658 z"
         style="fill:#000000;fill-rule:evenodd;stroke:#000000;stroke-width:0.21600001;stroke-linecap:butt;stroke-linejoin:bevel;stroke-dasharray:none"
         id="path884" />
      <path
         inkscape:connector-curvature="0"
         d="m 5484.7638,2134.4939 c 0,-39.1383 -31.7279,-70.8662 -70.8661,-70.8662 -39.1382,0 -70.8661,31.7276 -70.8661,70.8659 0,39.1382 31.7276,70.8661 70.8658,70.8664 39.1383,3e-4 70.8662,-31.7276 70.8664,-70.8659 z"
         style="fill:#000000;fill-rule:evenodd;stroke:#000000;stroke-width:0.21600001;stroke-linecap:butt;stroke-linejoin:bevel;stroke-dasharray:none"
         id="path886" />
      <path
         inkscape:connector-curvature="0"
         d="m 5562.2186,1832.4558 c 0,-39.1382 -31.728,-70.8658 -70.8662,-70.8661 -39.1382,0 -70.8661,31.7279 -70.8661,70.8661 -3e-4,39.1383 31.7276,70.8662 70.8658,70.8662 39.1383,3e-4 70.8662,-31.7274 70.8665,-70.8656 z"
         style="fill:#000000;fill-rule:evenodd;stroke:#000000;stroke-width:0.21600001;stroke-linecap:butt;stroke-linejoin:bevel;stroke-dasharray:none"
         id="path888" />
      <path
         inkscape:connector-curvature="0"
         d="m 5798.6008,1752.9092 c 0,-39.1383 -31.7276,-70.8662 -70.8656,-70.8662 -39.1382,0 -70.8661,31.7276 -70.8664,70.8662 0,39.1382 31.7276,70.8661 70.8658,70.8661 39.1383,3e-4 70.8662,-31.7273 70.8662,-70.8656 z"
         style="fill:#000000;fill-rule:evenodd;stroke:#000000;stroke-width:0.21600001;stroke-linecap:butt;stroke-linejoin:bevel;stroke-dasharray:none"
         id="path890" />
      <path
         inkscape:connector-curvature="0"
         d="m 1074.6805,1837.1565 c 0,-39.1382 -31.7276,-70.8661 -70.8659,-70.8661 -39.1385,0 -70.8661,31.7279 -70.8664,70.8661 0,39.1383 31.7276,70.8662 70.8659,70.8662 39.1382,3e-4 70.8661,-31.7274 70.8664,-70.8656 z"
         style="fill:#000000;fill-rule:evenodd;stroke:#000000;stroke-width:0.21600001;stroke-linecap:butt;stroke-linejoin:bevel;stroke-dasharray:none"
         id="path892" />
      <path
         inkscape:connector-curvature="0"
         d="m 1214.278,1571.6418 c 0,-39.1382 -31.7279,-70.8661 -70.8661,-70.8661 -39.1383,0 -70.8662,31.7279 -70.8662,70.8661 -3e-4,39.1382 31.7277,70.8661 70.8659,70.8661 39.1382,3e-4 70.8661,-31.7273 70.8664,-70.8655 z"
         style="fill:#000000;fill-rule:evenodd;stroke:#000000;stroke-width:0.21600001;stroke-linecap:butt;stroke-linejoin:bevel;stroke-dasharray:none"
         id="path894" />
      <path
         inkscape:connector-curvature="0"
         d="m 1403.659,1339.0041 c 0,-39.1382 -31.7279,-70.8661 -70.8661,-70.8661 -39.1383,0 -70.8662,31.7276 -70.8662,70.8658 -3e-4,39.1383 31.7276,70.8662 70.8659,70.8665 39.1382,0 70.8661,-31.7277 70.8664,-70.8659 z"
         style="fill:#000000;fill-rule:evenodd;stroke:#000000;stroke-width:0.21600001;stroke-linecap:butt;stroke-linejoin:bevel;stroke-dasharray:none"
         id="path896" />
      <path
         inkscape:connector-curvature="0"
         d="m 1635.3329,1148.4451 c 0,-39.1383 -31.7279,-70.8662 -70.8662,-70.8662 -39.1382,0 -70.8661,31.7277 -70.8661,70.8659 -3e-4,39.1382 31.7276,70.8661 70.8659,70.8664 39.1382,0 70.8661,-31.7276 70.8664,-70.8658 z"
         style="fill:#000000;fill-rule:evenodd;stroke:#000000;stroke-width:0.21600001;stroke-linecap:butt;stroke-linejoin:bevel;stroke-dasharray:none"
         id="path898" />
      <path
         inkscape:connector-curvature="0"
         d="m 1900.1358,1007.5022 c 0,-39.1382 -31.7279,-70.8661 -70.8661,-70.8661 -39.1382,0 -70.8661,31.7276 -70.8661,70.8659 -3e-4,39.1382 31.7276,70.8661 70.8658,70.8664 39.1383,0 70.8662,-31.7276 70.8664,-70.8659 z"
         style="fill:#000000;fill-rule:evenodd;stroke:#000000;stroke-width:0.21600001;stroke-linecap:butt;stroke-linejoin:bevel;stroke-dasharray:none"
         id="path900" />
      <path
         inkscape:connector-curvature="0"
         d="m 2187.5939,921.7502 c 0,-39.1382 -31.7279,-70.8661 -70.8662,-70.8661 -39.1382,0 -70.8661,31.7279 -70.8661,70.8661 -3e-4,39.1383 31.7276,70.8662 70.8658,70.8662 39.1383,3e-4 70.8662,-31.7274 70.8665,-70.8656 z"
         style="fill:#000000;fill-rule:evenodd;stroke:#000000;stroke-width:0.21600001;stroke-linecap:butt;stroke-linejoin:bevel;stroke-dasharray:none"
         id="path902" />
      <path
         inkscape:connector-curvature="0"
         d="m 2487.9317,920.3216 c 0,-39.1383 -31.728,-70.8659 -70.8662,-70.8662 -39.1382,0 -70.8661,31.7279 -70.8661,70.8662 0,39.1382 31.7276,70.8661 70.8658,70.8661 39.1383,3e-4 70.8662,-31.7273 70.8665,-70.8656 z"
         style="fill:#000000;fill-rule:evenodd;stroke:#000000;stroke-width:0.21600001;stroke-linecap:butt;stroke-linejoin:bevel;stroke-dasharray:none"
         id="path904" />
      <path
         inkscape:connector-curvature="0"
         d="m 2787.3116,936.881 c 0,-39.1382 -31.7279,-70.8661 -70.8661,-70.8661 -39.1383,0 -70.8662,31.7276 -70.8662,70.8658 0,39.1383 31.7277,70.8662 70.8659,70.8664 39.1382,0 70.8661,-31.7276 70.8664,-70.8658 z"
         style="fill:#000000;fill-rule:evenodd;stroke:#000000;stroke-width:0.21600001;stroke-linecap:butt;stroke-linejoin:bevel;stroke-dasharray:none"
         id="path906" />
      <path
         inkscape:connector-curvature="0"
         d="m 3065.5244,1046.1787 c 0,-39.1382 -31.7279,-70.8661 -70.8661,-70.8661 -39.1382,0 -70.8661,31.7276 -70.8661,70.8658 -3e-4,39.1383 31.7276,70.8662 70.8658,70.8665 39.1383,2e-4 70.8662,-31.7277 70.8664,-70.8659 z"
         style="fill:#000000;fill-rule:evenodd;stroke:#000000;stroke-width:0.21600001;stroke-linecap:butt;stroke-linejoin:bevel;stroke-dasharray:none"
         id="path908" />
      <path
         inkscape:connector-curvature="0"
         d="m 3288.7304,1244.9937 c 0,-39.1383 -31.7279,-70.8662 -70.8661,-70.8662 -39.1383,0 -70.8662,31.7276 -70.8662,70.8659 -3e-4,39.1382 31.7276,70.8661 70.8659,70.8664 39.1382,0 70.8661,-31.7276 70.8664,-70.8658 z"
         style="fill:#000000;fill-rule:evenodd;stroke:#000000;stroke-width:0.21600001;stroke-linecap:butt;stroke-linejoin:bevel;stroke-dasharray:none"
         id="path910" />
      <path
         inkscape:connector-curvature="0"
         d="m 3429.3523,1508.762 c 0,-39.1383 -31.7279,-70.8662 -70.8661,-70.8662 -39.1382,0 -70.8661,31.7277 -70.8661,70.8662 -3e-4,39.1382 31.7276,70.8661 70.8658,70.8661 39.1383,3e-4 70.8662,-31.7273 70.8664,-70.8655 z"
         style="fill:#000000;fill-rule:evenodd;stroke:#000000;stroke-width:0.21600001;stroke-linecap:butt;stroke-linejoin:bevel;stroke-dasharray:none"
         id="path912" />
      <path
         inkscape:connector-curvature="0"
         d="m 3468.6116,1804.8385 c 0,-39.1383 -31.7276,-70.8662 -70.8658,-70.8662 -39.1383,0 -70.8662,31.7276 -70.8665,70.8659 0,39.1382 31.7277,70.8661 70.8659,70.8664 39.1382,0 70.8664,-31.7276 70.8664,-70.8659 z"
         style="fill:#000000;fill-rule:evenodd;stroke:#000000;stroke-width:0.21600001;stroke-linecap:butt;stroke-linejoin:bevel;stroke-dasharray:none"
         id="path914" />
      <path
         inkscape:connector-curvature="0"
         d="m 3399.3797,2095.9971 c 0,-39.1382 -31.728,-70.8661 -70.8662,-70.8661 -39.1382,0 -70.8661,31.7276 -70.8661,70.8658 -3e-4,39.1383 31.7276,70.8662 70.8658,70.8664 39.1383,0 70.8662,-31.7276 70.8665,-70.8658 z"
         style="fill:#000000;fill-rule:evenodd;stroke:#000000;stroke-width:0.21600001;stroke-linecap:butt;stroke-linejoin:bevel;stroke-dasharray:none"
         id="path916" />
      <path
         inkscape:connector-curvature="0"
         d="m 3244.8172,2352.272 c 0,-39.1382 -31.7279,-70.8661 -70.8661,-70.8661 -39.1383,0 -70.8662,31.7276 -70.8662,70.8658 -3e-4,39.1383 31.7276,70.8662 70.8659,70.8665 39.1382,0 70.8661,-31.7276 70.8664,-70.8659 z"
         style="fill:#000000;fill-rule:evenodd;stroke:#000000;stroke-width:0.21600001;stroke-linecap:butt;stroke-linejoin:bevel;stroke-dasharray:none"
         id="path918" />
      <path
         inkscape:connector-curvature="0"
         d="m 3019.5893,2549.3477 c 0,-39.1383 -31.7279,-70.8662 -70.8662,-70.8662 -39.1382,0 -70.8661,31.7276 -70.8661,70.8659 0,39.1382 31.7276,70.8664 70.8659,70.8664 39.1382,3e-4 70.8661,-31.7276 70.8664,-70.8659 z"
         style="fill:#000000;fill-rule:evenodd;stroke:#000000;stroke-width:0.21600001;stroke-linecap:butt;stroke-linejoin:bevel;stroke-dasharray:none"
         id="path920" />
      <path
         inkscape:connector-curvature="0"
         d="m 2750.36,2681.8753 c 0,-39.1383 -31.7279,-70.8662 -70.8661,-70.8662 -39.1382,0 -70.8662,31.7279 -70.8662,70.8662 0,39.1382 31.7277,70.8661 70.8659,70.8661 39.1382,3e-4 70.8661,-31.7273 70.8664,-70.8656 z"
         style="fill:#000000;fill-rule:evenodd;stroke:#000000;stroke-width:0.21600001;stroke-linecap:butt;stroke-linejoin:bevel;stroke-dasharray:none"
         id="path922" />
      <path
         inkscape:connector-curvature="0"
         d="m 2514.4832,2865.9135 c 0,-39.1382 -31.7276,-70.8661 -70.8658,-70.8661 -39.1383,0 -70.8662,31.7276 -70.8665,70.8658 0,39.1383 31.7277,70.8662 70.8659,70.8665 39.1382,0 70.8664,-31.7277 70.8664,-70.8659 z"
         style="fill:#000000;fill-rule:evenodd;stroke:#000000;stroke-width:0.21600001;stroke-linecap:butt;stroke-linejoin:bevel;stroke-dasharray:none"
         id="path924" />
      <path
         inkscape:connector-curvature="0"
         d="m 2348.8903,3115.0857 c 0,-39.1383 -31.7276,-70.8659 -70.8659,-70.8662 -39.1382,0 -70.8661,31.7279 -70.8664,70.8662 0,39.1382 31.7276,70.8661 70.8659,70.8661 39.1382,3e-4 70.8664,-31.7273 70.8664,-70.8656 z"
         style="fill:#000000;fill-rule:evenodd;stroke:#000000;stroke-width:0.21600001;stroke-linecap:butt;stroke-linejoin:bevel;stroke-dasharray:none"
         id="path926" />
      <path
         inkscape:connector-curvature="0"
         d="m 2270.569,3403.8303 c 0,-39.1382 -31.7279,-70.8661 -70.8661,-70.8661 -39.1382,0 -70.8661,31.7276 -70.8661,70.8658 -3e-4,39.1383 31.7273,70.8665 70.8658,70.8665 39.1383,3e-4 70.8662,-31.7276 70.8664,-70.8659 z"
         style="fill:#000000;fill-rule:evenodd;stroke:#000000;stroke-width:0.21600001;stroke-linecap:butt;stroke-linejoin:bevel;stroke-dasharray:none"
         id="path928" />
      <path
         inkscape:connector-curvature="0"
         d="m 2297.5997,3701.2419 c 0,-39.1382 -31.7277,-70.8661 -70.8662,-70.8661 -39.1382,0 -70.8661,31.7276 -70.8661,70.8658 0,39.1383 31.7276,70.8662 70.8658,70.8665 39.1383,0 70.8662,-31.7277 70.8665,-70.8659 z"
         style="fill:#000000;fill-rule:evenodd;stroke:#000000;stroke-width:0.21600001;stroke-linecap:butt;stroke-linejoin:bevel;stroke-dasharray:none"
         id="path930" />
      <path
         inkscape:connector-curvature="0"
         d="m 2427.6759,3970.3671 c 0,-39.1382 -31.7279,-70.8658 -70.8662,-70.8661 -39.1382,0 -70.8661,31.7279 -70.8661,70.8661 0,39.1383 31.7276,70.8662 70.8658,70.8662 39.1383,3e-4 70.8662,-31.7273 70.8665,-70.8656 z"
         style="fill:#000000;fill-rule:evenodd;stroke:#000000;stroke-width:0.21600001;stroke-linecap:butt;stroke-linejoin:bevel;stroke-dasharray:none"
         id="path932" />
      <path
         inkscape:connector-curvature="0"
         d="m 2642.8411,4177.8575 c 0,-39.1382 -31.7277,-70.8661 -70.8659,-70.8661 -39.1382,0 -70.8661,31.7276 -70.8664,70.8659 0,39.1382 31.7276,70.8661 70.8658,70.8664 39.1386,0 70.8665,-31.7276 70.8665,-70.8659 z"
         style="fill:#000000;fill-rule:evenodd;stroke:#000000;stroke-width:0.21600001;stroke-linecap:butt;stroke-linejoin:bevel;stroke-dasharray:none"
         id="path934" />
      <path
         inkscape:connector-curvature="0"
         d="m 2916.5119,4298.0769 c 0,-39.1383 -31.7279,-70.8662 -70.8661,-70.8662 -39.1382,0 -70.8661,31.7276 -70.8661,70.8659 -3e-4,39.1382 31.7276,70.8661 70.8658,70.8664 39.1382,0 70.8662,-31.7276 70.8664,-70.8659 z"
         style="fill:#000000;fill-rule:evenodd;stroke:#000000;stroke-width:0.21600001;stroke-linecap:butt;stroke-linejoin:bevel;stroke-dasharray:none"
         id="path936" />
      <path
         inkscape:connector-curvature="0"
         d="m 3214.9301,4326.8998 c 0,-39.1382 -31.7279,-70.8661 -70.8661,-70.8661 -39.1383,0 -70.8662,31.7276 -70.8662,70.8658 -3e-4,39.1383 31.7276,70.8662 70.8659,70.8665 39.1382,0 70.8661,-31.7277 70.8664,-70.8659 z"
         style="fill:#000000;fill-rule:evenodd;stroke:#000000;stroke-width:0.21600001;stroke-linecap:butt;stroke-linejoin:bevel;stroke-dasharray:none"
         id="path938" />
      <path
         inkscape:connector-curvature="0"
         d="m 3510.9536,4282.4543 c 0,-39.1383 -31.7276,-70.8659 -70.8659,-70.8662 -39.1382,0 -70.8661,31.7279 -70.8664,70.8662 0,39.1382 31.7276,70.8661 70.8658,70.8661 39.1386,3e-4 70.8665,-31.7273 70.8665,-70.8656 z"
         style="fill:#000000;fill-rule:evenodd;stroke:#000000;stroke-width:0.21600001;stroke-linecap:butt;stroke-linejoin:bevel;stroke-dasharray:none"
         id="path940" />
      <path
         inkscape:connector-curvature="0"
         d="m 3780.5298,4152.3231 c 0,-39.1383 -31.7279,-70.8662 -70.8661,-70.8662 -39.1383,0 -70.8662,31.7276 -70.8662,70.8659 -3e-4,39.1382 31.7276,70.8661 70.8659,70.8664 39.1382,0 70.8661,-31.7276 70.8664,-70.8659 z"
         style="fill:#000000;fill-rule:evenodd;stroke:#000000;stroke-width:0.21600001;stroke-linecap:butt;stroke-linejoin:bevel;stroke-dasharray:none"
         id="path942" />
      <path
         inkscape:connector-curvature="0"
         d="m 3999.4654,3948.1841 c 0,-39.1383 -31.728,-70.8662 -70.8662,-70.8662 -39.1382,0 -70.8661,31.7276 -70.8661,70.8662 -3e-4,39.1382 31.7276,70.8661 70.8658,70.8661 39.1383,3e-4 70.8662,-31.7273 70.8665,-70.8656 z"
         style="fill:#000000;fill-rule:evenodd;stroke:#000000;stroke-width:0.21600001;stroke-linecap:butt;stroke-linejoin:bevel;stroke-dasharray:none"
         id="path944" />
      <path
         inkscape:connector-curvature="0"
         d="m 9919.6506,2459.4471 c 0,-39.1382 -31.7279,-70.8661 -70.8661,-70.8661 -39.1383,0 -70.8662,31.7276 -70.8662,70.8659 0,39.1382 31.7277,70.8661 70.8659,70.8664 39.1382,3e-4 70.8661,-31.7276 70.8664,-70.8659 z"
         style="fill:#000000;fill-rule:evenodd;stroke:#000000;stroke-width:0.21600001;stroke-linecap:butt;stroke-linejoin:bevel;stroke-dasharray:none"
         id="path946" />
      <path
         inkscape:connector-curvature="0"
         d="m 9896.1888,2191.2761 c 0,-39.1383 -31.7276,-70.8662 -70.8658,-70.8662 -39.1386,0 -70.8662,31.7276 -70.8665,70.8659 0,39.1382 31.7277,70.8661 70.8659,70.8664 39.1382,0 70.8661,-31.7276 70.8664,-70.8659 z"
         style="fill:#000000;fill-rule:evenodd;stroke:#000000;stroke-width:0.21600001;stroke-linecap:butt;stroke-linejoin:bevel;stroke-dasharray:none"
         id="path948" />
      <path
         inkscape:connector-curvature="0"
         d="m 9826.5163,1931.2529 c 0,-39.1383 -31.7276,-70.8662 -70.8658,-70.8662 -39.1382,0 -70.8662,31.7279 -70.8664,70.8662 0,39.1382 31.7276,70.8661 70.8658,70.8661 39.1385,3e-4 70.8664,-31.7273 70.8664,-70.8656 z"
         style="fill:#000000;fill-rule:evenodd;stroke:#000000;stroke-width:0.21600001;stroke-linecap:butt;stroke-linejoin:bevel;stroke-dasharray:none"
         id="path950" />
      <path
         inkscape:connector-curvature="0"
         d="m 9712.7504,1687.2786 c 0,-39.1382 -31.7279,-70.8661 -70.8661,-70.8661 -39.1383,0 -70.8662,31.7276 -70.8662,70.8658 -3e-4,39.1383 31.7276,70.8662 70.8659,70.8665 39.1382,2e-4 70.8661,-31.7277 70.8664,-70.8659 z"
         style="fill:#000000;fill-rule:evenodd;stroke:#000000;stroke-width:0.21600001;stroke-linecap:butt;stroke-linejoin:bevel;stroke-dasharray:none"
         id="path952" />
      <path
         inkscape:connector-curvature="0"
         d="m 9558.3472,1466.7659 c 0,-39.1383 -31.7279,-70.8662 -70.8661,-70.8662 -39.1382,0 -70.8661,31.7276 -70.8661,70.8659 -3e-4,39.1382 31.7276,70.8661 70.8658,70.8664 39.1383,0 70.8662,-31.7276 70.8664,-70.8659 z"
         style="fill:#000000;fill-rule:evenodd;stroke:#000000;stroke-width:0.21600001;stroke-linecap:butt;stroke-linejoin:bevel;stroke-dasharray:none"
         id="path954" />
      <path
         inkscape:connector-curvature="0"
         d="m 9367.9982,1276.4149 c 0,-39.1386 -31.7276,-70.8662 -70.8658,-70.8662 -39.1383,-3e-4 -70.8662,31.7276 -70.8664,70.8659 0,39.1382 31.7276,70.8661 70.8658,70.8664 39.1382,0 70.8664,-31.7276 70.8664,-70.8659 z"
         style="fill:#000000;fill-rule:evenodd;stroke:#000000;stroke-width:0.21600001;stroke-linecap:butt;stroke-linejoin:bevel;stroke-dasharray:none"
         id="path956" />
      <path
         inkscape:connector-curvature="0"
         d="m 9147.4875,1122.0089 c 0,-39.1383 -31.7279,-70.8662 -70.8662,-70.8662 -39.1382,0 -70.8661,31.7277 -70.8661,70.8662 -3e-4,39.1382 31.7276,70.8661 70.8658,70.8661 39.1383,3e-4 70.8662,-31.7273 70.8665,-70.8658 z"
         style="fill:#000000;fill-rule:evenodd;stroke:#000000;stroke-width:0.21600001;stroke-linecap:butt;stroke-linejoin:bevel;stroke-dasharray:none"
         id="path958" />
      <path
         inkscape:connector-curvature="0"
         d="m 8903.5143,1008.2398 c 0,-39.1382 -31.7276,-70.8661 -70.8658,-70.8661 -39.1383,0 -70.8662,31.7279 -70.8665,70.8661 0,39.1382 31.7277,70.8662 70.8659,70.8662 39.1382,2e-4 70.8664,-31.7274 70.8664,-70.8656 z"
         style="fill:#000000;fill-rule:evenodd;stroke:#000000;stroke-width:0.21600001;stroke-linecap:butt;stroke-linejoin:bevel;stroke-dasharray:none"
         id="path960" />
      <path
         inkscape:connector-curvature="0"
         d="m 8643.4923,938.5645 c 0,-39.1382 -31.7279,-70.8661 -70.8662,-70.8661 -39.1382,-3e-4 -70.8661,31.7276 -70.8661,70.8658 -3e-4,39.1383 31.7276,70.8662 70.8659,70.8664 39.1382,0 70.8661,-31.7276 70.8664,-70.8658 z"
         style="fill:#000000;fill-rule:evenodd;stroke:#000000;stroke-width:0.21600001;stroke-linecap:butt;stroke-linejoin:bevel;stroke-dasharray:none"
         id="path962" />
      <path
         inkscape:connector-curvature="0"
         d="m 8375.1786,920.4503 c 0,-39.1383 -31.7276,-70.8662 -70.8658,-70.8662 -39.1386,0 -70.8662,31.7276 -70.8665,70.8659 0,39.1382 31.7277,70.8664 70.8659,70.8664 39.1382,3e-4 70.8661,-31.7276 70.8664,-70.8658 z"
         style="fill:#000000;fill-rule:evenodd;stroke:#000000;stroke-width:0.21600001;stroke-linecap:butt;stroke-linejoin:bevel;stroke-dasharray:none"
         id="path964" />
      <path
         inkscape:connector-curvature="0"
         d="m 8105.6412,920.4503 c 0,-39.1383 -31.7279,-70.8662 -70.8661,-70.8662 -39.1382,0 -70.8662,31.7276 -70.8662,70.8659 -2e-4,39.1382 31.7277,70.8664 70.8659,70.8664 39.1382,3e-4 70.8661,-31.7276 70.8664,-70.8658 z"
         style="fill:#000000;fill-rule:evenodd;stroke:#000000;stroke-width:0.21600001;stroke-linecap:butt;stroke-linejoin:bevel;stroke-dasharray:none"
         id="path966" />
      <path
         inkscape:connector-curvature="0"
         d="m 7836.1038,920.4503 c 0,-39.1383 -31.7279,-70.8662 -70.8661,-70.8662 -39.1382,0 -70.8661,31.7276 -70.8661,70.8659 -3e-4,39.1382 31.7273,70.8664 70.8658,70.8664 39.1383,3e-4 70.8662,-31.7276 70.8664,-70.8658 z"
         style="fill:#000000;fill-rule:evenodd;stroke:#000000;stroke-width:0.21600001;stroke-linecap:butt;stroke-linejoin:bevel;stroke-dasharray:none"
         id="path968" />
      <path
         inkscape:connector-curvature="0"
         d="m 7566.5662,920.4503 c 0,-39.1383 -31.7276,-70.8662 -70.8659,-70.8662 -39.1385,0 -70.8661,31.7276 -70.8664,70.8659 0,39.1382 31.7276,70.8664 70.8658,70.8664 39.1383,3e-4 70.8662,-31.7276 70.8665,-70.8658 z"
         style="fill:#000000;fill-rule:evenodd;stroke:#000000;stroke-width:0.21600001;stroke-linecap:butt;stroke-linejoin:bevel;stroke-dasharray:none"
         id="path970" />
      <path
         inkscape:connector-curvature="0"
         d="m 7297.0288,920.4503 c 0,-39.1383 -31.7279,-70.8662 -70.8662,-70.8662 -39.1382,0 -70.8661,31.7276 -70.8661,70.8659 0,39.1382 31.7276,70.8664 70.8659,70.8664 39.1382,3e-4 70.8661,-31.7276 70.8664,-70.8658 z"
         style="fill:#000000;fill-rule:evenodd;stroke:#000000;stroke-width:0.21600001;stroke-linecap:butt;stroke-linejoin:bevel;stroke-dasharray:none"
         id="path972" />
      <path
         inkscape:connector-curvature="0"
         d="m 7027.4914,920.4503 c 0,-39.1383 -31.7279,-70.8662 -70.8661,-70.8662 -39.1383,0 -70.8662,31.7276 -70.8662,70.8659 -3e-4,39.1382 31.7274,70.8664 70.8659,70.8664 39.1382,3e-4 70.8661,-31.7276 70.8664,-70.8658 z"
         style="fill:#000000;fill-rule:evenodd;stroke:#000000;stroke-width:0.21600001;stroke-linecap:butt;stroke-linejoin:bevel;stroke-dasharray:none"
         id="path974" />
      <path
         inkscape:connector-curvature="0"
         d="m 6759.3419,943.3774 c 0,-39.1382 -31.7279,-70.8661 -70.8662,-70.8661 -39.1382,0 -70.8661,31.7276 -70.8661,70.8659 0,39.1382 31.7276,70.8661 70.8658,70.8664 39.1383,0 70.8662,-31.7276 70.8665,-70.8659 z"
         style="fill:#000000;fill-rule:evenodd;stroke:#000000;stroke-width:0.21600001;stroke-linecap:butt;stroke-linejoin:bevel;stroke-dasharray:none"
         id="path976" />
      <path
         inkscape:connector-curvature="0"
         d="m 6500.3757,1016.6539 c 0,-39.1382 -31.7279,-70.8662 -70.8661,-70.8662 -39.1383,0 -70.8662,31.7277 -70.8662,70.8659 -3e-4,39.1382 31.7277,70.8661 70.8659,70.8664 39.1382,3e-4 70.8661,-31.7276 70.8664,-70.8658 z"
         style="fill:#000000;fill-rule:evenodd;stroke:#000000;stroke-width:0.21600001;stroke-linecap:butt;stroke-linejoin:bevel;stroke-dasharray:none"
         id="path978" />
      <path
         inkscape:connector-curvature="0"
         d="m 6259.9297,1137.5614 c 0,-39.1382 -31.7279,-70.8661 -70.8661,-70.8661 -39.1382,0 -70.8662,31.7279 -70.8662,70.8661 -2e-4,39.1383 31.7277,70.8662 70.8659,70.8662 39.1382,3e-4 70.8661,-31.7273 70.8664,-70.8656 z"
         style="fill:#000000;fill-rule:evenodd;stroke:#000000;stroke-width:0.21600001;stroke-linecap:butt;stroke-linejoin:bevel;stroke-dasharray:none"
         id="path980" />
      <path
         inkscape:connector-curvature="0"
         d="m 6046.6737,1301.7407 c 0,-39.1382 -31.7279,-70.8661 -70.8662,-70.8661 -39.1382,0 -70.8661,31.7276 -70.8661,70.8658 0,39.1383 31.7276,70.8665 70.8658,70.8665 39.1383,2e-4 70.8662,-31.7277 70.8665,-70.8659 z"
         style="fill:#000000;fill-rule:evenodd;stroke:#000000;stroke-width:0.21600001;stroke-linecap:butt;stroke-linejoin:bevel;stroke-dasharray:none"
         id="path982" />
      <path
         inkscape:connector-curvature="0"
         d="m 5868.2971,1503.2718 c 0,-39.1385 -31.7279,-70.8661 -70.8662,-70.8661 -39.1382,-3e-4 -70.8658,31.7276 -70.8658,70.8659 0,39.1382 31.7273,70.8661 70.8655,70.8664 39.1383,0 70.8662,-31.7276 70.8665,-70.8659 z"
         style="fill:#000000;fill-rule:evenodd;stroke:#000000;stroke-width:0.21600001;stroke-linecap:butt;stroke-linejoin:bevel;stroke-dasharray:none"
         id="path984" />
    </g>
    <g
       style="display:inline"
       id="g1158">
      <path
         inkscape:connector-curvature="0"
         d="m 9742.8132,4912.3216 112.5581,-86.1321"
         style="fill:none;stroke:#000000;stroke-width:42.5196991;stroke-linecap:round;stroke-linejoin:bevel;stroke-dasharray:none"
         id="path992" />
      <path
         inkscape:connector-curvature="0"
         d="m 9663.0469,5089.335 122.9312,-70.5404"
         style="fill:none;stroke:#000000;stroke-width:42.5196991;stroke-linecap:round;stroke-linejoin:bevel;stroke-dasharray:none"
         id="path994" />
      <path
         inkscape:connector-curvature="0"
         d="m 9560.6393,5254.287 131.1582,-53.7176"
         style="fill:none;stroke:#000000;stroke-width:42.5196991;stroke-linecap:round;stroke-linejoin:bevel;stroke-dasharray:none"
         id="path996" />
      <path
         inkscape:connector-curvature="0"
         d="m 9437.3785,5404.2979 137.0953,-35.9569"
         style="fill:none;stroke:#000000;stroke-width:42.5196991;stroke-linecap:round;stroke-linejoin:bevel;stroke-dasharray:none"
         id="path998" />
      <path
         inkscape:connector-curvature="0"
         d="m 9295.4163,5536.7484 140.6392,-17.5683"
         style="fill:none;stroke:#000000;stroke-width:42.5196991;stroke-linecap:round;stroke-linejoin:bevel;stroke-dasharray:none"
         id="path1000" />
      <path
         inkscape:connector-curvature="0"
         d="m 9137.2309,5649.3266 141.7277,1.1268"
         style="fill:none;stroke:#000000;stroke-width:42.5196991;stroke-linecap:round;stroke-linejoin:bevel;stroke-dasharray:none"
         id="path1002" />
      <path
         inkscape:connector-curvature="0"
         d="m 8965.584,5740.0673 140.3422,19.802"
         style="fill:none;stroke:#000000;stroke-width:42.5196991;stroke-linecap:round;stroke-linejoin:bevel;stroke-dasharray:none"
         id="path1004" />
      <path
         inkscape:connector-curvature="0"
         d="m 8783.4725,5807.3856 136.5063,38.1323"
         style="fill:none;stroke:#000000;stroke-width:42.5196991;stroke-linecap:round;stroke-linejoin:bevel;stroke-dasharray:none"
         id="path1006" />
      <path
         inkscape:connector-curvature="0"
         d="m 8594.0751,5850.1071 130.2874,55.7961"
         style="fill:none;stroke:#000000;stroke-width:42.5196991;stroke-linecap:round;stroke-linejoin:bevel;stroke-dasharray:none"
         id="path1008" />
      <path
         inkscape:connector-curvature="0"
         d="m 8401.5831,5840.9271 116.9631,80.0482"
         style="fill:none;stroke:#000000;stroke-width:42.5196991;stroke-linecap:round;stroke-linejoin:bevel;stroke-dasharray:none"
         id="path1010" />
      <path
         inkscape:connector-curvature="0"
         d="m 8202.1476,5840.9271 116.9629,80.0482"
         style="fill:none;stroke:#000000;stroke-width:42.5196991;stroke-linecap:round;stroke-linejoin:bevel;stroke-dasharray:none"
         id="path1012" />
      <path
         inkscape:connector-curvature="0"
         d="m 8011.9848,5816.2887 100.2169,100.2229"
         style="fill:none;stroke:#000000;stroke-width:42.5196991;stroke-linecap:round;stroke-linejoin:bevel;stroke-dasharray:none"
         id="path1014" />
      <path
         inkscape:connector-curvature="0"
         d="m 7835.0581,5746.7358 74.1839,120.7676"
         style="fill:none;stroke:#000000;stroke-width:42.5196991;stroke-linecap:round;stroke-linejoin:bevel;stroke-dasharray:none"
         id="path1016" />
      <path
         inkscape:connector-curvature="0"
         d="m 7679.1373,5637.9733 44.0895,134.7001"
         style="fill:none;stroke:#000000;stroke-width:42.5196991;stroke-linecap:round;stroke-linejoin:bevel;stroke-dasharray:none"
         id="path1018" />
      <path
         inkscape:connector-curvature="0"
         d="m 7552.7586,5495.9553 11.5815,141.2583"
         style="fill:none;stroke:#000000;stroke-width:42.5196991;stroke-linecap:round;stroke-linejoin:bevel;stroke-dasharray:none"
         id="path1020" />
      <path
         inkscape:connector-curvature="0"
         d="m 7462.8414,5328.4575 -21.5609,140.0828"
         style="fill:none;stroke:#000000;stroke-width:42.5196991;stroke-linecap:round;stroke-linejoin:bevel;stroke-dasharray:none"
         id="path1022" />
      <path
         inkscape:connector-curvature="0"
         d="m 7414.3083,5144.6503 -53.5229,131.2376"
         style="fill:none;stroke:#000000;stroke-width:42.5196991;stroke-linecap:round;stroke-linejoin:bevel;stroke-dasharray:none"
         id="path1024" />
      <path
         inkscape:connector-curvature="0"
         d="m 7412.9148,4956.3587 -87.2,111.7326"
         style="fill:none;stroke:#000000;stroke-width:42.5196991;stroke-linecap:round;stroke-linejoin:bevel;stroke-dasharray:none"
         id="path1026" />
      <path
         inkscape:connector-curvature="0"
         d="m 7456.1179,4770.042 -108.1437,91.6131"
         style="fill:none;stroke:#000000;stroke-width:42.5196991;stroke-linecap:round;stroke-linejoin:bevel;stroke-dasharray:none"
         id="path1028" />
      <path
         inkscape:connector-curvature="0"
         d="m 7536.3908,4596.4426 -124.547,67.6471"
         style="fill:none;stroke:#000000;stroke-width:42.5196991;stroke-linecap:round;stroke-linejoin:bevel;stroke-dasharray:none"
         id="path1030" />
      <path
         inkscape:connector-curvature="0"
         d="m 7650.3628,4442.8496 -135.7205,40.8407"
         style="fill:none;stroke:#000000;stroke-width:42.5196991;stroke-linecap:round;stroke-linejoin:bevel;stroke-dasharray:none"
         id="path1032" />
      <path
         inkscape:connector-curvature="0"
         d="m 7793.2488,4315.7117 -141.1957,12.3197"
         style="fill:none;stroke:#000000;stroke-width:42.5196991;stroke-linecap:round;stroke-linejoin:bevel;stroke-dasharray:none"
         id="path1034" />
      <path
         inkscape:connector-curvature="0"
         d="m 7959.0495,4220.3673 -140.7427,-16.7187"
         style="fill:none;stroke:#000000;stroke-width:42.5196991;stroke-linecap:round;stroke-linejoin:bevel;stroke-dasharray:none"
         id="path1036" />
      <path
         inkscape:connector-curvature="0"
         d="m 8140.4135,4137.8953 -140.6953,-17.1131"
         style="fill:none;stroke:#000000;stroke-width:42.5196991;stroke-linecap:round;stroke-linejoin:bevel;stroke-dasharray:none"
         id="path1038" />
      <path
         inkscape:connector-curvature="0"
         d="m 8306.4875,4012.7284 -141.1268,13.0875"
         style="fill:none;stroke:#000000;stroke-width:42.5196991;stroke-linecap:round;stroke-linejoin:bevel;stroke-dasharray:none"
         id="path1040" />
      <path
         inkscape:connector-curvature="0"
         d="m 8442.2687,3855.2139 -135.1491,42.694"
         style="fill:none;stroke:#000000;stroke-width:42.5196991;stroke-linecap:round;stroke-linejoin:bevel;stroke-dasharray:none"
         id="path1042" />
      <path
         inkscape:connector-curvature="0"
         d="m 8541.591,3672.5051 -123.0338,70.3616"
         style="fill:none;stroke:#000000;stroke-width:42.5196991;stroke-linecap:round;stroke-linejoin:bevel;stroke-dasharray:none"
         id="path1044" />
      <path
         inkscape:connector-curvature="0"
         d="m 8599.9439,3472.8999 -105.3315,94.8333"
         style="fill:none;stroke:#000000;stroke-width:42.5196991;stroke-linecap:round;stroke-linejoin:bevel;stroke-dasharray:none"
         id="path1046" />
      <path
         inkscape:connector-curvature="0"
         d="m 8612.5924,3264.1594 v 0 l -79.1087,117.6001"
         style="fill:none;stroke:#000000;stroke-width:42.5196991;stroke-linecap:round;stroke-linejoin:bevel;stroke-dasharray:none"
         id="path1048" />
      <path
         inkscape:connector-curvature="0"
         d="m 8572.985,3059.1578 v 0 l -49.6156,132.7643"
         style="fill:none;stroke:#000000;stroke-width:42.5196991;stroke-linecap:round;stroke-linejoin:bevel;stroke-dasharray:none"
         id="path1050" />
      <path
         inkscape:connector-curvature="0"
         d="m 8486.824,2868.9721 v 0 l -17.4062,140.6594"
         style="fill:none;stroke:#000000;stroke-width:42.5196991;stroke-linecap:round;stroke-linejoin:bevel;stroke-dasharray:none"
         id="path1052" />
      <path
         inkscape:connector-curvature="0"
         d="m 8358.8267,2704.0141 15.7564,140.8539"
         style="fill:none;stroke:#000000;stroke-width:42.5196991;stroke-linecap:round;stroke-linejoin:bevel;stroke-dasharray:none"
         id="path1054" />
      <path
         inkscape:connector-curvature="0"
         d="m 8196.0007,2573.3157 48.0563,133.3366"
         style="fill:none;stroke:#000000;stroke-width:42.5196991;stroke-linecap:round;stroke-linejoin:bevel;stroke-dasharray:none"
         id="path1056" />
      <path
         inkscape:connector-curvature="0"
         d="m 8007.2606,2484.0323 77.7251,118.5191"
         style="fill:none;stroke:#000000;stroke-width:42.5196991;stroke-linecap:round;stroke-linejoin:bevel;stroke-dasharray:none"
         id="path1058" />
      <path
         inkscape:connector-curvature="0"
         d="m 7802.9396,2441.0517 103.1389,97.2133"
         style="fill:none;stroke:#000000;stroke-width:42.5196991;stroke-linecap:round;stroke-linejoin:bevel;stroke-dasharray:none"
         id="path1060" />
      <path
         inkscape:connector-curvature="0"
         d="m 7598.6396,2432.9843 114.2575,83.8647"
         style="fill:none;stroke:#000000;stroke-width:42.5196991;stroke-linecap:round;stroke-linejoin:bevel;stroke-dasharray:none"
         id="path1062" />
      <path
         inkscape:connector-curvature="0"
         d="m 7392.7993,2458.4312 128.6166,59.5463"
         style="fill:none;stroke:#000000;stroke-width:42.5196991;stroke-linecap:round;stroke-linejoin:bevel;stroke-dasharray:none"
         id="path1064" />
      <path
         inkscape:connector-curvature="0"
         d="m 7196.0905,2524.1842 137.8695,32.8635"
         style="fill:none;stroke:#000000;stroke-width:42.5196991;stroke-linecap:round;stroke-linejoin:bevel;stroke-dasharray:none"
         id="path1066" />
      <path
         inkscape:connector-curvature="0"
         d="m 7016.3232,2627.6326 141.6484,4.8765"
         style="fill:none;stroke:#000000;stroke-width:42.5196991;stroke-linecap:round;stroke-linejoin:bevel;stroke-dasharray:none"
         id="path1068" />
      <path
         inkscape:connector-curvature="0"
         d="m 7000.4387,2741.3649 z m -139.8033,23.3047 139.8033,-23.3047"
         style="fill:none;stroke:#000000;stroke-width:42.5196991;stroke-linecap:round;stroke-linejoin:bevel;stroke-dasharray:none"
         id="path1070" />
      <path
         inkscape:connector-curvature="0"
         d="m 5029.0688,5304.1595 v 0 l -140.353,19.7254"
         style="fill:none;stroke:#000000;stroke-width:42.5196991;stroke-linecap:round;stroke-linejoin:bevel;stroke-dasharray:none"
         id="path1072" />
      <path
         inkscape:connector-curvature="0"
         d="m 5137.4523,5162.4272 v 0 l -140.353,19.7255"
         style="fill:none;stroke:#000000;stroke-width:42.5196991;stroke-linecap:round;stroke-linejoin:bevel;stroke-dasharray:none"
         id="path1074" />
      <path
         inkscape:connector-curvature="0"
         d="m 5245.8358,5020.6949 v 0 l -140.3529,19.7255"
         style="fill:none;stroke:#000000;stroke-width:42.5196991;stroke-linecap:round;stroke-linejoin:bevel;stroke-dasharray:none"
         id="path1076" />
      <path
         inkscape:connector-curvature="0"
         d="m 5354.2193,4878.9626 v 0 l -140.3529,19.7255"
         style="fill:none;stroke:#000000;stroke-width:42.5196991;stroke-linecap:round;stroke-linejoin:bevel;stroke-dasharray:none"
         id="path1078" />
      <path
         inkscape:connector-curvature="0"
         d="m 5462.6029,4737.2304 v 0 l -140.353,19.7254"
         style="fill:none;stroke:#000000;stroke-width:42.5196991;stroke-linecap:round;stroke-linejoin:bevel;stroke-dasharray:none"
         id="path1080" />
      <path
         inkscape:connector-curvature="0"
         d="m 5570.9864,4595.4981 v 0 l -140.353,19.7254"
         style="fill:none;stroke:#000000;stroke-width:42.5196991;stroke-linecap:round;stroke-linejoin:bevel;stroke-dasharray:none"
         id="path1082" />
      <path
         inkscape:connector-curvature="0"
         d="m 5679.3699,4453.7658 v 0 l -140.3529,19.7254"
         style="fill:none;stroke:#000000;stroke-width:42.5196991;stroke-linecap:round;stroke-linejoin:bevel;stroke-dasharray:none"
         id="path1084" />
      <path
         inkscape:connector-curvature="0"
         d="m 5787.7532,4312.0335 -140.3527,19.7255"
         style="fill:none;stroke:#000000;stroke-width:42.5196991;stroke-linecap:round;stroke-linejoin:bevel;stroke-dasharray:none"
         id="path1086" />
      <path
         inkscape:connector-curvature="0"
         d="m 5896.1367,4170.3012 -140.353,19.7255"
         style="fill:none;stroke:#000000;stroke-width:42.5196991;stroke-linecap:round;stroke-linejoin:bevel;stroke-dasharray:none"
         id="path1088" />
      <path
         inkscape:connector-curvature="0"
         d="m 6004.5202,4028.5689 -140.3529,19.7255"
         style="fill:none;stroke:#000000;stroke-width:42.5196991;stroke-linecap:round;stroke-linejoin:bevel;stroke-dasharray:none"
         id="path1090" />
      <path
         inkscape:connector-curvature="0"
         d="m 6112.9037,3886.8367 -140.3529,19.7254"
         style="fill:none;stroke:#000000;stroke-width:42.5196991;stroke-linecap:round;stroke-linejoin:bevel;stroke-dasharray:none"
         id="path1092" />
      <path
         inkscape:connector-curvature="0"
         d="m 6221.2873,3745.1044 -140.353,19.7254"
         style="fill:none;stroke:#000000;stroke-width:42.5196991;stroke-linecap:round;stroke-linejoin:bevel;stroke-dasharray:none"
         id="path1094" />
      <path
         inkscape:connector-curvature="0"
         d="m 6329.6708,3603.3721 -140.3529,19.7254"
         style="fill:none;stroke:#000000;stroke-width:42.5196991;stroke-linecap:round;stroke-linejoin:bevel;stroke-dasharray:none"
         id="path1096" />
      <path
         inkscape:connector-curvature="0"
         d="m 6438.0543,3461.6398 -140.3529,19.7255"
         style="fill:none;stroke:#000000;stroke-width:42.5196991;stroke-linecap:round;stroke-linejoin:bevel;stroke-dasharray:none"
         id="path1098" />
      <path
         inkscape:connector-curvature="0"
         d="m 6546.4379,3319.9075 -140.353,19.7255"
         style="fill:none;stroke:#000000;stroke-width:42.5196991;stroke-linecap:round;stroke-linejoin:bevel;stroke-dasharray:none"
         id="path1100" />
      <path
         inkscape:connector-curvature="0"
         d="m 6654.8214,3178.1755 v 0 l -140.353,19.7255"
         style="fill:none;stroke:#000000;stroke-width:42.5196991;stroke-linecap:round;stroke-linejoin:bevel;stroke-dasharray:none"
         id="path1102" />
      <path
         inkscape:connector-curvature="0"
         d="m 6763.2046,3036.4432 v 0 l -140.3529,19.7255"
         style="fill:none;stroke:#000000;stroke-width:42.5196991;stroke-linecap:round;stroke-linejoin:bevel;stroke-dasharray:none"
         id="path1104" />
      <path
         inkscape:connector-curvature="0"
         d="m 6871.5882,2894.711 v 0 l -140.353,19.7254"
         style="fill:none;stroke:#000000;stroke-width:42.5196991;stroke-linecap:round;stroke-linejoin:bevel;stroke-dasharray:none"
         id="path1106" />
      <path
         inkscape:connector-curvature="0"
         d="m 972.9737,4463.8061 z m -86.5525,112.2353 86.5525,-112.2353"
         style="fill:none;stroke:#000000;stroke-width:42.5196991;stroke-linecap:round;stroke-linejoin:bevel;stroke-dasharray:none"
         id="path1108" />
      <path
         inkscape:connector-curvature="0"
         d="m 1000.8913,4653.8152 z m -71.458,122.4 71.458,-122.4"
         style="fill:none;stroke:#000000;stroke-width:42.5196991;stroke-linecap:round;stroke-linejoin:bevel;stroke-dasharray:none"
         id="path1110" />
      <path
         inkscape:connector-curvature="0"
         d="m 1052.9249,4838.6806 z m -55.1858,130.5474 55.1858,-130.5474"
         style="fill:none;stroke:#000000;stroke-width:42.5196991;stroke-linecap:round;stroke-linejoin:bevel;stroke-dasharray:none"
         id="path1112" />
      <path
         inkscape:connector-curvature="0"
         d="m 1128.217,5015.3553 z m -38.0038,136.5423 38.0038,-136.5423"
         style="fill:none;stroke:#000000;stroke-width:42.5196991;stroke-linecap:round;stroke-linejoin:bevel;stroke-dasharray:none"
         id="path1114" />
      <path
         inkscape:connector-curvature="0"
         d="m 1225.5259,5180.9264 z m -20.1952,140.2863 20.1952,-140.2863"
         style="fill:none;stroke:#000000;stroke-width:42.5196991;stroke-linecap:round;stroke-linejoin:bevel;stroke-dasharray:none"
         id="path1116" />
      <path
         inkscape:connector-curvature="0"
         d="m 1343.2476,5332.6644 z m -2.0537,141.7176 2.0537,-141.7176"
         style="fill:none;stroke:#000000;stroke-width:42.5196991;stroke-linecap:round;stroke-linejoin:bevel;stroke-dasharray:none"
         id="path1118" />
      <path
         inkscape:connector-curvature="0"
         d="m 1495.563,5608.8802 -16.1217,-140.8124"
         style="fill:none;stroke:#000000;stroke-width:42.5196991;stroke-linecap:round;stroke-linejoin:bevel;stroke-dasharray:none"
         id="path1120" />
      <path
         inkscape:connector-curvature="0"
         d="m 1665.8932,5722.4903 -34.0313,-137.5861"
         style="fill:none;stroke:#000000;stroke-width:42.5196991;stroke-linecap:round;stroke-linejoin:bevel;stroke-dasharray:none"
         id="path1122" />
      <path
         inkscape:connector-curvature="0"
         d="m 1849.3764,5813.3392 -51.3799,-132.0913"
         style="fill:none;stroke:#000000;stroke-width:42.5196991;stroke-linecap:round;stroke-linejoin:bevel;stroke-dasharray:none"
         id="path1124" />
      <path
         inkscape:connector-curvature="0"
         d="m 2042.9878,5879.9293 -67.8815,-124.4191"
         style="fill:none;stroke:#000000;stroke-width:42.5196991;stroke-linecap:round;stroke-linejoin:bevel;stroke-dasharray:none"
         id="path1126" />
      <path
         inkscape:connector-curvature="0"
         d="m 2243.5356,5921.1629 -83.264,-114.696"
         style="fill:none;stroke:#000000;stroke-width:42.5196991;stroke-linecap:round;stroke-linejoin:bevel;stroke-dasharray:none"
         id="path1128" />
      <path
         inkscape:connector-curvature="0"
         d="m 2449.9536,5930.4104 -101.5049,-98.9181"
         style="fill:none;stroke:#000000;stroke-width:42.5196991;stroke-linecap:round;stroke-linejoin:bevel;stroke-dasharray:none"
         id="path1130" />
      <path
         inkscape:connector-curvature="0"
         d="m 2648.3788,5930.4104 -101.5049,-98.9181"
         style="fill:none;stroke:#000000;stroke-width:42.5196991;stroke-linecap:round;stroke-linejoin:bevel;stroke-dasharray:none"
         id="path1132" />
      <path
         inkscape:connector-curvature="0"
         d="m 2846.804,5930.4104 -101.5049,-98.9181"
         style="fill:none;stroke:#000000;stroke-width:42.5196991;stroke-linecap:round;stroke-linejoin:bevel;stroke-dasharray:none"
         id="path1134" />
      <path
         inkscape:connector-curvature="0"
         d="m 3045.2292,5930.4104 -101.5049,-98.9181"
         style="fill:none;stroke:#000000;stroke-width:42.5196991;stroke-linecap:round;stroke-linejoin:bevel;stroke-dasharray:none"
         id="path1136" />
      <path
         inkscape:connector-curvature="0"
         d="m 3243.6544,5930.4104 -101.505,-98.9181"
         style="fill:none;stroke:#000000;stroke-width:42.5196991;stroke-linecap:round;stroke-linejoin:bevel;stroke-dasharray:none"
         id="path1138" />
      <path
         inkscape:connector-curvature="0"
         d="m 3442.0796,5930.4104 -101.505,-98.9181"
         style="fill:none;stroke:#000000;stroke-width:42.5196991;stroke-linecap:round;stroke-linejoin:bevel;stroke-dasharray:none"
         id="path1140" />
      <path
         inkscape:connector-curvature="0"
         d="m 3640.5048,5930.4104 -101.505,-98.9181"
         style="fill:none;stroke:#000000;stroke-width:42.5196991;stroke-linecap:round;stroke-linejoin:bevel;stroke-dasharray:none"
         id="path1142" />
      <path
         inkscape:connector-curvature="0"
         d="m 3838.93,5930.4104 -101.505,-98.9181"
         style="fill:none;stroke:#000000;stroke-width:42.5196991;stroke-linecap:round;stroke-linejoin:bevel;stroke-dasharray:none"
         id="path1144" />
      <path
         inkscape:connector-curvature="0"
         d="m 4042.302,5915.1172 -112.0981,-86.73"
         style="fill:none;stroke:#000000;stroke-width:42.5196991;stroke-linecap:round;stroke-linejoin:bevel;stroke-dasharray:none"
         id="path1146" />
      <path
         inkscape:connector-curvature="0"
         d="m 4242.7213,5870.5977 -123.1035,-70.2391"
         style="fill:none;stroke:#000000;stroke-width:42.5196991;stroke-linecap:round;stroke-linejoin:bevel;stroke-dasharray:none"
         id="path1148" />
      <path
         inkscape:connector-curvature="0"
         d="m 4434.9676,5798.5466 -131.7005,-52.3737"
         style="fill:none;stroke:#000000;stroke-width:42.5196991;stroke-linecap:round;stroke-linejoin:bevel;stroke-dasharray:none"
         id="path1150" />
      <path
         inkscape:connector-curvature="0"
         d="m 4615.2788,5700.3738 -137.7207,-33.4834"
         style="fill:none;stroke:#000000;stroke-width:42.5196991;stroke-linecap:round;stroke-linejoin:bevel;stroke-dasharray:none"
         id="path1152" />
      <path
         inkscape:connector-curvature="0"
         d="m 4780.1262,5578.0002 -141.0454,-13.9377"
         style="fill:none;stroke:#000000;stroke-width:42.5196991;stroke-linecap:round;stroke-linejoin:bevel;stroke-dasharray:none"
         id="path1154" />
      <path
         inkscape:connector-curvature="0"
         d="m 4926.2845,5433.8207 v 0 l -141.6104,5.8805"
         style="fill:none;stroke:#000000;stroke-width:42.5196991;stroke-linecap:round;stroke-linejoin:bevel;stroke-dasharray:none"
         id="path1156" />
    </g>
  </g>
</svg>
