<?xml version="1.0" encoding="UTF-8" standalone="no"?>
<!-- Created with Inkscape (http://www.inkscape.org/) -->

<svg
   xmlns:dc="http://purl.org/dc/elements/1.1/"
   xmlns:cc="http://creativecommons.org/ns#"
   xmlns:rdf="http://www.w3.org/1999/02/22-rdf-syntax-ns#"
   xmlns:svg="http://www.w3.org/2000/svg"
   xmlns="http://www.w3.org/2000/svg"
   xmlns:sodipodi="http://sodipodi.sourceforge.net/DTD/sodipodi-0.dtd"
   xmlns:inkscape="http://www.inkscape.org/namespaces/inkscape"
   width="505.61914mm"
   height="245.02052mm"
   viewBox="0 0 2031.1653 984.29257"
   id="svg3366"
   version="1.1"
   inkscape:version="0.92.1 r15371"
   sodipodi:docname="field10.svg">
  <defs
     id="defs3368" />
  <sodipodi:namedview
     id="base"
     pagecolor="#ffffff"
     bordercolor="#666666"
     borderopacity="1.0"
     inkscape:pageopacity="0.0"
     inkscape:pageshadow="2"
     inkscape:zoom="0.49497475"
     inkscape:cx="983.91335"
     inkscape:cy="726.41167"
     inkscape:document-units="px"
     inkscape:current-layer="layer1"
     showgrid="false"
     inkscape:window-width="1920"
     inkscape:window-height="1031"
     inkscape:window-x="0"
     inkscape:window-y="0"
     inkscape:window-maximized="1"
     fit-margin-top="0"
     fit-margin-left="0"
     fit-margin-right="0"
     fit-margin-bottom="0"
     scale-x="1.06288" />
  <metadata
     id="metadata3371">
    <rdf:RDF>
      <cc:Work
         rdf:about="">
        <dc:format>image/svg+xml</dc:format>
        <dc:type
           rdf:resource="http://purl.org/dc/dcmitype/StillImage" />
        <dc:title></dc:title>
      </cc:Work>
    </rdf:RDF>
  </metadata>
  <g
     inkscape:label="Layer 1"
     inkscape:groupmode="layer"
     id="layer1"
     transform="translate(644.93538,-23.985652)">
    <path
       style="fill:#000000"
       d="m 844.30104,1007.591 c -1.5976,-0.6147 -24.47232,-2.5858 -50.83271,-4.3801 -26.36039,-1.7943 -64.92063,-6.3002 -85.68942,-10.01305 -20.76879,-3.71287 -42.98995,-7.515 -49.38035,-8.44922 -14.34452,-2.09704 -46.44613,-10.39608 -82.56913,-21.34612 -28.52677,-8.64738 -69.89707,-28.18426 -85.53272,-40.39234 -4.99755,-3.90202 -12.11053,-9.25043 -15.80659,-11.88538 -11.75217,-8.37819 -16.08797,-12.3072 -63.83403,-57.84558 l -46.80214,-44.6381 -47.34436,45.64636 c -51.32628,49.48549 -77.95542,68.81113 -124.71207,90.50773 -34.10143,15.82416 -57.92977,23.96954 -89.5496,30.61126 -39.52412,8.30198 -137.754583,16.45539 -197.625812,16.40348 -58.133938,-0.0505 -144.849318,-7.47645 -178.640658,-15.29826 -48.9474,-11.33006 -76.65431,-18.96017 -92.22506,-25.39755 -48.65718,-20.11619 -65.56394,-28.11942 -94.59777,-44.78017 -29.17266,-16.74041 -83.58003,-66.7658 -104.04027,-95.66081 -27.38283,-38.67146 -51.99349,-88.45086 -58.97986,-119.29711 -1.61412,-7.12674 -4.32979,-16.5016 -6.03481,-20.83302 -7.90122,-20.07231 -15.17589,-89.91205 -15.03711,-144.36231 0.12768,-50.09266 8.44892,-143.39767 13.49147,-151.27812 0.91868,-1.43572 4.18434,-11.85742 7.25702,-23.15933 6.95956,-25.59859 17.2033,-51.18858 24.64866,-64.90244 7.44535,-13.71387 7.81435,-15.13131 14.56679,-26.12846 1.75218,-4.99684 56.01357,-57.37616 74.62441,-69.14614 47.74903,-30.19772 109.46843,-53.20779 181.13673,-67.53093 123.80762,-24.743351 250.934706,-33.418913 554.80271,-37.861536 l 127.80795,-1.868583 0.82445,-30.15976 0.82445,-30.159759 h 8.51764 8.51765 l 0.82445,30.159759 0.82444,30.15976 136.52214,1.863415 c 179.22672,2.446299 312.45506,6.788454 364.54314,11.88113 23.16519,2.264874 51.92198,4.889534 63.90397,5.832574 57.94334,4.56045 160.50256,23.3919 198.97376,36.53463 68.5019,23.40202 94.9496,36.225 130.9158,63.47355 30.84,23.36486 58.785,56.9635 74.3809,89.42885 14.367,29.90751 16.6755,36.3333 25.3671,70.61106 27.9158,110.09362 22.5491,278.88194 -11.8492,372.66726 -29.9667,81.70298 -85.2753,151.10519 -153.1541,192.18079 -2.55,1.54306 -7.9098,4.82029 -11.9106,7.28273 -9.1749,5.64694 -38.0855,19.86874 -55.2023,27.15525 -38.0426,16.19456 -107.2249,33.05892 -158.30755,38.59019 -39.23629,4.2485 -127.66089,8.0765 -133.61741,5.7844 z M 954.3624,986.12591 c 43.63851,-3.18975 90.0032,-11.55447 130.3751,-23.52114 25.3986,-7.52843 77.049,-29.18477 93.6071,-39.24819 38.2041,-23.21926 41.0913,-25.47695 74.5712,-58.31254 31.773,-31.16148 48.4063,-54.01705 67.5784,-92.8585 28.0268,-56.78039 40.9852,-109.16893 45.4444,-183.72431 3.9872,-66.66328 -0.4739,-156.03761 -9.9707,-199.75291 -10.5652,-48.63366 -15.1779,-60.35616 -45.1394,-114.71537 -7.292,-13.2299 -29.0482,-36.04488 -51.9142,-54.44069 -29.5802,-23.79734 -92.1401,-54.33418 -129.9501,-63.43139 -6.3904,-1.53755 -18.8081,-4.69896 -27.5949,-7.02536 -23.5083,-6.22407 -80.8003,-17.9545 -95.856,-19.62636 -7.18915,-0.79832 -33.98525,-3.99353 -59.54684,-7.10048 C 845.96955,110.21431 619.42231,101.38698 452.163,103.12781 l -78.42761,0.81627 -0.76252,103.6303 c -0.41941,56.99667 0.23413,104.58951 1.45237,105.76187 1.21818,1.17236 47.31075,4.10762 102.42793,6.52278 55.11719,2.4152 115.24502,6.2006 133.61741,8.41205 18.37239,2.21143 43.86137,4.80231 56.64216,5.75749 12.7808,0.95521 34.34839,3.66762 47.92799,6.0276 13.57959,2.36001 37.10787,5.9615 52.28507,8.00336 73.15506,9.8419 189.01109,39.69252 233.8305,60.24705 6.3904,2.93069 14.2331,6.35905 17.4283,7.61861 3.1952,1.25956 13.409,6.69791 22.6974,12.08525 9.2883,5.38735 19.2773,11.10606 22.1977,12.70829 9.762,5.35567 34.7,31.84057 40.7295,43.25586 7.2921,13.80567 14.5873,49.22415 14.588,70.82501 0,83.63248 -62.2838,130.65284 -188.80673,142.53124 -27.43314,2.5755 -80.93727,-0.0575 -111.83196,-5.50372 -7.988,-1.40808 -22.3664,-3.39877 -31.95199,-4.42372 -9.5856,-1.02496 -27.23181,-4.73248 -39.21381,-8.23898 -62.55766,-18.30734 -65.52374,-18.83691 -103.94124,-18.55871 -30.86716,0.2236 -42.18935,1.60276 -68.88997,8.39187 -72.02527,18.31374 -99.76593,33.50615 -152.97366,83.77725 -22.10485,20.88483 -40.19063,40.04649 -40.19063,42.58145 0,5.8942 94.63351,95.90164 120.54614,114.65338 10.99055,7.95334 35.06815,20.09824 52.28507,26.37293 11.1832,4.07572 28.82941,10.51131 39.2138,14.30128 10.3844,3.78997 24.7628,7.77732 31.95199,8.86077 7.1892,1.08345 19.6069,3.80821 27.5949,6.05504 7.988,2.24683 23.01996,5.19037 33.40435,6.54122 10.3844,1.35087 30.64486,4.45368 45.02326,6.89514 52.86451,8.97649 153.7306,12.17837 223.34568,7.08987 z M 35.334788,967.69263 c 16.774794,-2.311 39.649513,-5.44669 50.832709,-6.96817 11.183196,-1.52151 28.857153,-5.85994 39.275413,-9.64091 10.4183,-3.781 20.54074,-6.87454 22.49435,-6.87454 4.60602,0 56.77734,-24.35877 71.90156,-33.57079 26.83755,-16.34653 57.33322,-41.31278 92.17114,-75.45882 20.36939,-19.96486 37.03526,-37.49352 37.03526,-38.95258 0,-3.48933 -109.24353,-107.32368 -112.91464,-107.32368 -1.55577,0 -6.8094,-3.23521 -11.67473,-7.18936 -21.42654,-17.41371 -60.23728,-31.57236 -92.89187,-33.8881 -18.80859,-1.33384 -32.039651,0.33358 -87.515013,11.02899 -113.404027,21.86381 -200.094217,30.30728 -254.377917,24.77592 -97.12219,-9.89647 -154.22824,-39.8166 -180.02975,-94.3248 -6.39464,-13.5093 -8.23467,-22.1803 -9.3181,-43.9109 -1.20725,-24.21402 -0.49868,-29.49728 6.70021,-49.95833 9.94934,-28.27855 23.78018,-47.78162 46.32568,-65.32458 49.74759,-38.70928 160.39622,-73.04789 296.296275,-91.95237 91.61155,-12.74369 242.413665,-22.32282 352.198055,-22.37206 l 53.01125,-0.0238 V 209.15251 102.54126 l -89.32033,0.0958 c -167.077992,0.17916 -364.843256,7.68186 -446.60166,16.94294 -62.27634,7.05427 -109.45293,13.80048 -126.69669,18.11751 -10.19678,2.55279 -25.07525,5.77325 -33.06325,7.15656 -31.07284,5.38099 -87.05423,23.79146 -116.18905,38.21082 -11.18319,5.53477 -24.25446,11.97831 -29.04726,14.31897 -12.30919,6.01146 -41.15304,28.52598 -57.02376,44.5108 -61.88034,62.32518 -88.13026,163.94407 -82.49506,319.35551 3.30039,91.02019 27.00999,171.09744 67.28522,227.25028 20.87472,29.10411 25.24063,34.1193 50.00281,57.43894 77.18939,72.69268 199.81829,118.4443 338.84595,126.42009 52.51437,3.01266 168.1718837,0.3769 204.783198,-4.66688 z M 402.59086,747.11849 c 42.70793,-41.74277 55.2372,-51.65043 81.52413,-64.46603 46.27351,-22.55961 79.33002,-32.15731 127.80795,-37.10814 38.53097,-3.935 85.24538,-0.62107 107.47487,7.62421 16.6076,6.16006 73.45437,17.8642 107.47488,22.12798 38.48564,4.8234 103.72222,4.74224 137.97449,-0.1717 63.07802,-9.04922 107.67522,-34.77656 126.99822,-73.26296 7.0342,-14.01035 7.713,-18.32331 7.716,-49.02841 0,-28.6585 -1.0095,-36.17081 -6.8045,-50.50006 -7.7895,-19.26075 -12.1386,-24.39007 -36.7452,-43.33674 -56.68664,-43.64791 -171.88936,-77.33611 -351.13752,-102.6815 -28.75679,-4.06618 -67.31703,-8.46667 -85.68942,-9.77889 -18.37239,-1.31221 -54.97194,-4.2558 -81.33233,-6.54133 -26.36039,-2.28552 -74.07052,-4.56941 -106.02251,-5.07528 l -58.09453,-0.91972 -0.81297,35.77088 -0.81295,35.77088 h -8.54062 -8.54062 l -0.81295,-35.77088 -0.81297,-35.77088 -98.76069,0.64971 c -62.48633,0.41107 -116.89786,2.29245 -148.14104,5.12225 -27.159189,2.45992 -63.428501,5.54889 -80.598483,6.86439 -34.3892866,2.63481 -111.025666,13.91987 -151.779617,22.35021 -14.37839,2.97431 -30.71748,6.2374 -36.30908,7.25133 -27.69595,5.02209 -94.98123,25.83277 -111.98864,34.63698 -6.25689,3.23902 -12.4746,5.88912 -13.81714,5.88912 -4.99195,0 -43.82877,23.47167 -55.07648,33.28639 -15.19442,13.25859 -24.28148,27.46729 -31.27961,48.90934 -15.48442,47.44382 -7.21795,85.21428 25.52688,116.63525 26.72221,25.64183 60.1502,39.56655 111.55485,46.46906 71.94487,9.66066 185.04544,1.20364 281.315707,-21.03513 54.802511,-12.6596 113.095723,-11.60906 147.822393,2.66394 36.3021,14.92055 60.20724,32.64012 116.50769,86.36077 29.55559,28.20128 54.93256,51.31062 56.39326,51.35408 1.46067,0.0435 18.47902,-15.38667 37.81855,-34.28912 z"
       id="path3396"
       inkscape:connector-curvature="0"
       sodipodi:nodetypes="cssssssscsssssssssssssccssscccccccsssssssssssscsssssssssssssscscsssssssssscsssssssssssssssscssssssssssssssssscccsssssssssssccssssssscsssssscccccccsssssssssssssscs" />
  </g>
</svg>
