<?xml version="1.0" encoding="UTF-8"?>
<!DOCTYPE svg PUBLIC "-//W3C//DTD SVG 1.1//EN" "http://www.w3.org/Graphics/SVG/1.1/DTD/svg11.dtd">
<!-- Creator: CorelDRAW X6 -->
<svg xmlns="http://www.w3.org/2000/svg" xml:space="preserve" width="100px" height="100px" version="1.1" style="shape-rendering:geometricPrecision; text-rendering:geometricPrecision; image-rendering:optimizeQuality; fill-rule:evenodd; clip-rule:evenodd"
viewBox="0 0 10000 10000"
 xmlns:xlink="http://www.w3.org/1999/xlink">
 <defs>
  <style type="text/css">
   <![CDATA[
    .fil55 {fill:none}
    .fil2 {fill:#538A6D}
    .fil3 {fill:#538B6E}
    .fil4 {fill:#548B6E}
    .fil5 {fill:#548C6F}
    .fil6 {fill:#558D6F}
    .fil7 {fill:#558D70}
    .fil8 {fill:#558E70}
    .fil0 {fill:#568B71}
    .fil9 {fill:#568E71}
    .fil10 {fill:#568F71}
    .fil11 {fill:#568F72}
    .fil12 {fill:#569072}
    .fil13 {fill:#579072}
    .fil14 {fill:#579173}
    .fil15 {fill:#589274}
    .fil16 {fill:#589375}
    .fil17 {fill:#599375}
    .fil18 {fill:#599475}
    .fil19 {fill:#599476}
    .fil20 {fill:#599576}
    .fil21 {fill:#5A9577}
    .fil22 {fill:#5A9677}
    .fil23 {fill:#5A9678}
    .fil24 {fill:#5B9778}
    .fil25 {fill:#5B9879}
    .fil26 {fill:#5C9879}
    .fil27 {fill:#5C997A}
    .fil57 {fill:#5C9C7C}
    .fil28 {fill:#5D9A7B}
    .fil29 {fill:#5D9B7C}
    .fil30 {fill:#5E9B7C}
    .fil31 {fill:#5E9C7D}
    .fil32 {fill:#5F9D7D}
    .fil33 {fill:#5F9D7E}
    .fil34 {fill:#5F9E7E}
    .fil35 {fill:#609E7F}
    .fil36 {fill:#609F7F}
    .fil37 {fill:#609F80}
    .fil38 {fill:#60A080}
    .fil39 {fill:#61A080}
    .fil40 {fill:#61A181}
    .fil41 {fill:#62A282}
    .fil42 {fill:#62A383}
    .fil43 {fill:#63A383}
    .fil44 {fill:#63A483}
    .fil45 {fill:#63A484}
    .fil46 {fill:#63A584}
    .fil47 {fill:#64A585}
    .fil48 {fill:#64A685}
    .fil49 {fill:#64A686}
    .fil50 {fill:#65A786}
    .fil51 {fill:#65A887}
    .fil52 {fill:#66A887}
    .fil53 {fill:#66A988}
    .fil54 {fill:#67AA89}
    .fil1 {fill:black;fill-opacity:0.000000}
    .fil56 {fill:url(#id2)}
   ]]>
  </style>
      <clipPath id="id0">
       <path d="M1560 9407l6853 0c528,0 960,-432 960,-960l0 -6853c0,-528 -432,-960 -960,-960l-6853 0c-528,0 -960,432 -960,960l0 6853c0,528 432,960 960,960z"/>
      </clipPath>
      <clipPath id="id1">
       <path d="M1560 9407l6853 0c528,0 960,-432 960,-960l0 -6853c0,-528 -432,-960 -960,-960l-6853 0c-528,0 -960,432 -960,960l0 6853c0,528 432,960 960,960z"/>
      </clipPath>
  <linearGradient id="id2" gradientUnits="userSpaceOnUse" x1="8075.82" y1="4939.55" x2="1863.98" y2="4939.55">
   <stop offset="0" style="stop-color:#B3B3B3"/>
   <stop offset="1" style="stop-color:#E6E6E6"/>
  </linearGradient>
 </defs>
 <g id="Layer_x0020_1">
  <metadata id="CorelCorpID_0Corel-Layer"/>
  <g id="_124858440">
   <g id="_343530368">
    <path class="fil0" d="M1420 38l7132 0c782,0 1416,634 1416,1416l0 7132c0,782 -634,1416 -1416,1416l-7132 0c-782,0 -1416,-634 -1416,-1416l0 -7132c0,-782 634,-1416 1416,-1416z"/>
    <g>
     <g style="clip-path:url(#id0)">
      <polygon class="fil1" points="600,634 9373,634 9373,9407 600,9407 "/>
     </g>
     <g style="clip-path:url(#id1)">
      <g>
       <polygon id="1" class="fil2" points="600,634 9373,634 9373,9407 600,9407 600,634 629,663 9344,663 9344,9378 629,9378 629,663 "/>
       <polygon id="_1" class="fil2" points="615,649 9358,649 9358,9392 615,9392 615,649 644,678 9329,678 9329,9363 644,9363 644,678 "/>
       <polygon id="_2" class="fil2" points="629,663 9344,663 9344,9378 629,9378 629,663 658,693 9314,693 9314,9349 658,9349 658,693 "/>
       <polygon id="_3" class="fil3" points="644,678 9329,678 9329,9363 644,9363 644,678 673,707 9300,707 9300,9334 673,9334 673,707 "/>
       <polygon id="_4" class="fil4" points="658,693 9314,693 9314,9349 658,9349 658,693 688,722 9285,722 9285,9319 688,9319 688,722 "/>
       <polygon id="_5" class="fil5" points="673,707 9300,707 9300,9334 673,9334 673,707 702,736 9271,736 9271,9305 702,9305 702,736 "/>
       <polygon id="_6" class="fil5" points="688,722 9285,722 9285,9319 688,9319 688,722 717,751 9256,751 9256,9290 717,9290 717,751 "/>
       <polygon id="_7" class="fil6" points="702,736 9271,736 9271,9305 702,9305 702,736 732,766 9241,766 9241,9275 732,9275 732,766 "/>
       <polygon id="_8" class="fil7" points="717,751 9256,751 9256,9290 717,9290 717,751 746,780 9227,780 9227,9261 746,9261 746,780 "/>
       <polygon id="_9" class="fil8" points="732,766 9241,766 9241,9275 732,9275 732,766 761,795 9212,795 9212,9246 761,9246 761,795 "/>
       <polygon id="_10" class="fil9" points="746,780 9227,780 9227,9261 746,9261 746,780 775,810 9197,810 9197,9232 775,9232 775,810 "/>
       <polygon id="_11" class="fil10" points="761,795 9212,795 9212,9246 761,9246 761,795 790,824 9183,824 9183,9217 790,9217 790,824 "/>
       <polygon id="_12" class="fil11" points="775,810 9197,810 9197,9232 775,9232 775,810 805,839 9168,839 9168,9202 805,9202 805,839 "/>
       <polygon id="_13" class="fil12" points="790,824 9183,824 9183,9217 790,9217 790,824 819,853 9154,853 9154,9188 819,9188 819,853 "/>
       <polygon id="_14" class="fil13" points="805,839 9168,839 9168,9202 805,9202 805,839 834,868 9139,868 9139,9173 834,9173 834,868 "/>
       <polygon id="_15" class="fil14" points="819,853 9154,853 9154,9188 819,9188 819,853 849,883 9124,883 9124,9158 849,9158 849,883 "/>
       <polygon id="_16" class="fil14" points="834,868 9139,868 9139,9173 834,9173 834,868 863,897 9110,897 9110,9144 863,9144 863,897 "/>
       <polygon id="_17" class="fil15" points="849,883 9124,883 9124,9158 849,9158 849,883 878,912 9095,912 9095,9129 878,9129 878,912 "/>
       <polygon id="_18" class="fil15" points="863,897 9110,897 9110,9144 863,9144 863,897 892,927 9080,927 9080,9115 892,9115 892,927 "/>
       <polygon id="_19" class="fil16" points="878,912 9095,912 9095,9129 878,9129 878,912 907,941 9066,941 9066,9100 907,9100 907,941 "/>
       <polygon id="_20" class="fil17" points="892,927 9080,927 9080,9115 892,9115 892,927 922,956 9051,956 9051,9085 922,9085 922,956 "/>
       <polygon id="_21" class="fil18" points="907,941 9066,941 9066,9100 907,9100 907,941 936,970 9037,970 9037,9071 936,9071 936,970 "/>
       <polygon id="_22" class="fil19" points="922,956 9051,956 9051,9085 922,9085 922,956 951,985 9022,985 9022,9056 951,9056 951,985 "/>
       <polygon id="_23" class="fil20" points="936,970 9037,970 9037,9071 936,9071 936,970 965,1000 9007,1000 9007,9042 965,9042 965,1000 "/>
       <polygon id="_24" class="fil21" points="951,985 9022,985 9022,9056 951,9056 951,985 980,1014 8993,1014 8993,9027 980,9027 980,1014 "/>
       <polygon id="_25" class="fil22" points="965,1000 9007,1000 9007,9042 965,9042 965,1000 995,1029 8978,1029 8978,9012 995,9012 995,1029 "/>
       <polygon id="_26" class="fil23" points="980,1014 8993,1014 8993,9027 980,9027 980,1014 1009,1044 8963,1044 8963,8998 1009,8998 1009,1044 "/>
       <polygon id="_27" class="fil24" points="995,1029 8978,1029 8978,9012 995,9012 995,1029 1024,1058 8949,1058 8949,8983 1024,8983 1024,1058 "/>
       <polygon id="_28" class="fil24" points="1009,1044 8963,1044 8963,8998 1009,8998 1009,1044 1039,1073 8934,1073 8934,8968 1039,8968 1039,1073 "/>
       <polygon id="_29" class="fil25" points="1024,1058 8949,1058 8949,8983 1024,8983 1024,1058 1053,1087 8920,1087 8920,8954 1053,8954 1053,1087 "/>
       <polygon id="_30" class="fil26" points="1039,1073 8934,1073 8934,8968 1039,8968 1039,1073 1068,1102 8905,1102 8905,8939 1068,8939 1068,1102 "/>
       <polygon id="_31" class="fil27" points="1053,1087 8920,1087 8920,8954 1053,8954 1053,1087 1082,1117 8890,1117 8890,8925 1082,8925 1082,1117 "/>
       <polygon id="_32" class="fil27" points="1068,1102 8905,1102 8905,8939 1068,8939 1068,1102 1097,1131 8876,1131 8876,8910 1097,8910 1097,1131 "/>
       <polygon id="_33" class="fil28" points="1082,1117 8890,1117 8890,8925 1082,8925 1082,1117 1112,1146 8861,1146 8861,8895 1112,8895 1112,1146 "/>
       <polygon id="_34" class="fil28" points="1097,1131 8876,1131 8876,8910 1097,8910 1097,1131 1126,1160 8847,1160 8847,8881 1126,8881 1126,1160 "/>
       <polygon id="_35" class="fil28" points="1112,1146 8861,1146 8861,8895 1112,8895 1112,1146 1141,1175 8832,1175 8832,8866 1141,8866 1141,1175 "/>
       <polygon id="_36" class="fil29" points="1126,1160 8847,1160 8847,8881 1126,8881 1126,1160 1156,1190 8817,1190 8817,8851 1156,8851 1156,1190 "/>
       <polygon id="_37" class="fil30" points="1141,1175 8832,1175 8832,8866 1141,8866 1141,1175 1170,1204 8803,1204 8803,8837 1170,8837 1170,1204 "/>
       <polygon id="_38" class="fil31" points="1156,1190 8817,1190 8817,8851 1156,8851 1156,1190 1185,1219 8788,1219 8788,8822 1185,8822 1185,1219 "/>
       <polygon id="_39" class="fil31" points="1170,1204 8803,1204 8803,8837 1170,8837 1170,1204 1199,1234 8773,1234 8773,8808 1199,8808 1199,1234 "/>
       <polygon id="_40" class="fil32" points="1185,1219 8788,1219 8788,8822 1185,8822 1185,1219 1214,1248 8759,1248 8759,8793 1214,8793 1214,1248 "/>
       <polygon id="_41" class="fil33" points="1199,1234 8773,1234 8773,8808 1199,8808 1199,1234 1229,1263 8744,1263 8744,8778 1229,8778 1229,1263 "/>
       <polygon id="_42" class="fil34" points="1214,1248 8759,1248 8759,8793 1214,8793 1214,1248 1243,1277 8730,1277 8730,8764 1243,8764 1243,1277 "/>
       <polygon id="_43" class="fil35" points="1229,1263 8744,1263 8744,8778 1229,8778 1229,1263 1258,1292 8715,1292 8715,8749 1258,8749 1258,1292 "/>
       <polygon id="_44" class="fil36" points="1243,1277 8730,1277 8730,8764 1243,8764 1243,1277 1273,1307 8700,1307 8700,8734 1273,8734 1273,1307 "/>
       <polygon id="_45" class="fil37" points="1258,1292 8715,1292 8715,8749 1258,8749 1258,1292 1287,1321 8686,1321 8686,8720 1287,8720 1287,1321 "/>
       <polygon id="_46" class="fil38" points="1273,1307 8700,1307 8700,8734 1273,8734 1273,1307 1302,1336 8671,1336 8671,8705 1302,8705 1302,1336 "/>
       <polygon id="_47" class="fil39" points="1287,1321 8686,1321 8686,8720 1287,8720 1287,1321 1316,1351 8656,1351 8656,8691 1316,8691 1316,1351 "/>
       <polygon id="_48" class="fil40" points="1302,1336 8671,1336 8671,8705 1302,8705 1302,1336 1331,1365 8642,1365 8642,8676 1331,8676 1331,1365 "/>
       <polygon id="_49" class="fil40" points="1316,1351 8656,1351 8656,8691 1316,8691 1316,1351 1346,1380 8627,1380 8627,8661 1346,8661 1346,1380 "/>
       <polygon id="_50" class="fil41" points="1331,1365 8642,1365 8642,8676 1331,8676 1331,1365 1360,1394 8613,1394 8613,8647 1360,8647 1360,1394 "/>
       <polygon id="_51" class="fil41" points="1346,1380 8627,1380 8627,8661 1346,8661 1346,1380 1375,1409 8598,1409 8598,8632 1375,8632 1375,1409 "/>
       <polygon id="_52" class="fil42" points="1360,1394 8613,1394 8613,8647 1360,8647 1360,1394 1390,1424 8583,1424 8583,8617 1390,8617 1390,1424 "/>
       <polygon id="_53" class="fil43" points="1375,1409 8598,1409 8598,8632 1375,8632 1375,1409 1404,1438 8569,1438 8569,8603 1404,8603 1404,1438 "/>
       <polygon id="_54" class="fil44" points="1390,1424 8583,1424 8583,8617 1390,8617 1390,1424 1419,1453 8554,1453 8554,8588 1419,8588 1419,1453 "/>
       <polygon id="_55" class="fil45" points="1404,1438 8569,1438 8569,8603 1404,8603 1404,1438 1433,1468 8539,1468 8539,8574 1433,8574 1433,1468 "/>
       <polygon id="_56" class="fil46" points="1419,1453 8554,1453 8554,8588 1419,8588 1419,1453 1448,1482 8525,1482 8525,8559 1448,8559 1448,1482 "/>
       <polygon id="_57" class="fil47" points="1433,1468 8539,1468 8539,8574 1433,8574 1433,1468 1463,1497 8510,1497 8510,8544 1463,8544 1463,1497 "/>
       <polygon id="_58" class="fil48" points="1448,1482 8525,1482 8525,8559 1448,8559 1448,1482 1477,1511 8496,1511 8496,8530 1477,8530 1477,1511 "/>
       <polygon id="_59" class="fil49" points="1463,1497 8510,1497 8510,8544 1463,8544 1463,1497 1492,1526 8481,1526 8481,8515 1492,8515 1492,1526 "/>
       <polygon id="_60" class="fil50" points="1477,1511 8496,1511 8496,8530 1477,8530 1477,1511 1507,1541 8466,1541 8466,8500 1507,8500 1507,1541 "/>
       <polygon id="_61" class="fil50" points="1492,1526 8481,1526 8481,8515 1492,8515 1492,1526 1521,1555 8452,1555 8452,8486 1521,8486 1521,1555 "/>
       <polygon id="_62" class="fil51" points="1507,1541 8466,1541 8466,8500 1507,8500 1507,1541 1536,1570 8437,1570 8437,8471 1536,8471 1536,1570 "/>
       <polygon id="_63" class="fil52" points="1521,1555 8452,1555 8452,8486 1521,8486 1521,1555 1550,1585 8423,1585 8423,8457 1550,8457 1550,1585 "/>
       <polygon id="_64" class="fil53" points="1536,1570 8437,1570 8437,8471 1536,8471 1536,1570 1565,1599 8408,1599 8408,8442 1565,8442 1565,1599 "/>
       <polygon id="_65" class="fil53" points="1550,1584 8423,1584 8423,8457 1550,8457 1550,1584 1580,1614 8393,1614 8393,8427 1580,8427 1580,1614 "/>
       <polygon id="_66" class="fil54" points="1565,1599 8408,1599 8408,8442 1565,8442 1565,1599 1594,1628 8379,1628 8379,8413 1594,8413 1594,1628 "/>
       <polygon id="_67" class="fil54" points="1580,1614 8393,1614 8393,8427 1580,8427 1580,1614 1609,1643 8364,1643 8364,8398 1609,8398 1609,1643 "/>
       <polygon id="_68" class="fil54" points="1594,1628 8379,1628 8379,8413 1594,8413 1594,1628 1623,1658 8349,1658 8349,8384 1623,8384 1623,1658 "/>
       <polygon id="_69" class="fil54" points="1609,1643 8364,1643 8364,8398 1609,8398 1609,1643 1638,1672 8335,1672 8335,8369 1638,8369 1638,1672 "/>
       <polygon id="_70" class="fil54" points="1623,1658 8349,1658 8349,8384 1623,8384 1623,1658 1653,1687 8320,1687 8320,8354 1653,8354 1653,1687 "/>
       <polygon id="_71" class="fil54" points="1638,1672 8335,1672 8335,8369 1638,8369 1638,1672 1667,1701 8306,1701 8306,8340 1667,8340 1667,1701 "/>
       <polygon id="_72" class="fil54" points="1653,1687 8320,1687 8320,8354 1653,8354 1653,1687 1682,1716 8291,1716 8291,8325 1682,8325 1682,1716 "/>
       <polygon id="_73" class="fil54" points="1667,1701 8306,1701 8306,8340 1667,8340 1667,1701 1697,1731 8276,1731 8276,8310 1697,8310 1697,1731 "/>
       <polygon id="_74" class="fil54" points="1682,1716 8291,1716 8291,8325 1682,8325 1682,1716 1711,1745 8262,1745 8262,8296 1711,8296 1711,1745 "/>
       <polygon id="_75" class="fil54" points="1697,1731 8276,1731 8276,8310 1697,8310 1697,1731 1726,1760 8247,1760 8247,8281 1726,8281 1726,1760 "/>
       <polygon id="_76" class="fil54" points="1711,1745 8262,1745 8262,8296 1711,8296 1711,1745 1740,1775 8232,1775 8232,8267 1740,8267 1740,1775 "/>
       <polygon id="_77" class="fil54" points="1726,1760 8247,1760 8247,8281 1726,8281 1726,1760 1755,1789 8218,1789 8218,8252 1755,8252 1755,1789 "/>
       <polygon id="_78" class="fil54" points="1740,1775 8232,1775 8232,8267 1740,8267 1740,1775 1770,1804 8203,1804 8203,8237 1770,8237 1770,1804 "/>
       <polygon id="_79" class="fil54" points="1755,1789 8218,1789 8218,8252 1755,8252 1755,1789 1784,1818 8189,1818 8189,8223 1784,8223 1784,1818 "/>
       <polygon id="_80" class="fil54" points="1770,1804 8203,1804 8203,8237 1770,8237 1770,1804 1799,1833 8174,1833 8174,8208 1799,8208 1799,1833 "/>
       <polygon id="_81" class="fil54" points="1784,1818 8189,1818 8189,8223 1784,8223 1784,1818 1814,1848 8159,1848 8159,8193 1814,8193 1814,1848 "/>
       <polygon id="_82" class="fil54" points="1799,1833 8174,1833 8174,8208 1799,8208 1799,1833 1828,1862 8145,1862 8145,8179 1828,8179 1828,1862 "/>
       <polygon id="_83" class="fil54" points="1814,1848 8159,1848 8159,8193 1814,8193 1814,1848 1843,1877 8130,1877 8130,8164 1843,8164 1843,1877 "/>
       <polygon id="_84" class="fil54" points="1828,1862 8145,1862 8145,8179 1828,8179 1828,1862 1857,1892 8115,1892 8115,8150 1857,8150 1857,1892 "/>
       <polygon id="_85" class="fil54" points="1843,1877 8130,1877 8130,8164 1843,8164 1843,1877 1872,1906 8101,1906 8101,8135 1872,8135 1872,1906 "/>
       <polygon id="_86" class="fil54" points="1857,1892 8115,1892 8115,8150 1857,8150 1857,1892 1887,1921 8086,1921 8086,8120 1887,8120 1887,1921 "/>
       <polygon id="_87" class="fil54" points="1872,1906 8101,1906 8101,8135 1872,8135 1872,1906 1901,1935 8072,1935 8072,8106 1901,8106 1901,1935 "/>
       <polygon id="_88" class="fil54" points="1887,1921 8086,1921 8086,8120 1887,8120 1887,1921 1916,1950 8057,1950 8057,8091 1916,8091 1916,1950 "/>
       <polygon id="_89" class="fil54" points="1901,1935 8072,1935 8072,8106 1901,8106 1901,1935 1931,1965 8042,1965 8042,8076 1931,8076 1931,1965 "/>
       <polygon id="_90" class="fil54" points="1916,1950 8057,1950 8057,8091 1916,8091 1916,1950 1945,1979 8028,1979 8028,8062 1945,8062 1945,1979 "/>
       <polygon id="_91" class="fil54" points="1931,1965 8042,1965 8042,8076 1931,8076 1931,1965 1960,1994 8013,1994 8013,8047 1960,8047 1960,1994 "/>
       <polygon id="_92" class="fil54" points="1945,1979 8028,1979 8028,8062 1945,8062 1945,1979 1974,2009 7998,2009 7998,8033 1974,8033 1974,2009 "/>
       <polygon id="_93" class="fil54" points="1960,1994 8013,1994 8013,8047 1960,8047 1960,1994 1989,2023 7984,2023 7984,8018 1989,8018 1989,2023 "/>
       <polygon id="_94" class="fil54" points="1974,2009 7998,2009 7998,8033 1974,8033 1974,2009 2004,2038 7969,2038 7969,8003 2004,8003 2004,2038 "/>
       <polygon id="_95" class="fil54" points="1989,2023 7984,2023 7984,8018 1989,8018 1989,2023 2018,2052 7955,2052 7955,7989 2018,7989 2018,2052 "/>
       <polygon id="_96" class="fil54" points="2004,2038 7969,2038 7969,8003 2004,8003 2004,2038 2033,2067 7940,2067 7940,7974 2033,7974 2033,2067 "/>
       <polygon id="_97" class="fil54" points="2018,2052 7955,2052 7955,7989 2018,7989 2018,2052 2047,2082 7925,2082 7925,7960 2047,7960 2047,2082 "/>
       <polygon id="_98" class="fil54" points="2033,2067 7940,2067 7940,7974 2033,7974 2033,2067 2062,2096 7911,2096 7911,7945 2062,7945 2062,2096 "/>
       <polygon id="_99" class="fil54" points="2047,2082 7925,2082 7925,7960 2047,7960 2047,2082 2077,2111 7896,2111 7896,7930 2077,7930 2077,2111 "/>
       <polygon id="_100" class="fil54" points="2062,2096 7911,2096 7911,7945 2062,7945 2062,2096 2091,2126 7881,2126 7881,7916 2091,7916 2091,2126 "/>
       <polygon id="_101" class="fil54" points="2077,2111 7896,2111 7896,7930 2077,7930 2077,2111 2106,2140 7867,2140 7867,7901 2106,7901 2106,2140 "/>
       <polygon id="_102" class="fil54" points="2091,2126 7881,2126 7881,7916 2091,7916 2091,2126 2121,2155 7852,2155 7852,7886 2121,7886 2121,2155 "/>
       <polygon id="_103" class="fil54" points="2106,2140 7867,2140 7867,7901 2106,7901 2106,2140 2135,2169 7838,2169 7838,7872 2135,7872 2135,2169 "/>
       <polygon id="_104" class="fil54" points="2121,2155 7852,2155 7852,7886 2121,7886 2121,2155 2150,2184 7823,2184 7823,7857 2150,7857 2150,2184 "/>
       <polygon id="_105" class="fil54" points="2135,2169 7838,2169 7838,7872 2135,7872 2135,2169 2164,2199 7808,2199 7808,7843 2164,7843 2164,2199 "/>
       <polygon id="_106" class="fil54" points="2150,2184 7823,2184 7823,7857 2150,7857 2150,2184 2179,2213 7794,2213 7794,7828 2179,7828 2179,2213 "/>
       <polygon id="_107" class="fil54" points="2164,2199 7808,2199 7808,7843 2164,7843 2164,2199 2194,2228 7779,2228 7779,7813 2194,7813 2194,2228 "/>
       <polygon id="_108" class="fil54" points="2179,2213 7794,2213 7794,7828 2179,7828 2179,2213 2208,2242 7765,2242 7765,7799 2208,7799 2208,2242 "/>
       <polygon id="_109" class="fil54" points="2194,2228 7779,2228 7779,7813 2194,7813 2194,2228 2223,2257 7750,2257 7750,7784 2223,7784 2223,2257 "/>
       <polygon id="_110" class="fil54" points="2208,2242 7765,2242 7765,7799 2208,7799 2208,2242 2238,2272 7735,2272 7735,7769 2238,7769 2238,2272 "/>
       <polygon id="_111" class="fil54" points="2223,2257 7750,2257 7750,7784 2223,7784 2223,2257 2252,2286 7721,2286 7721,7755 2252,7755 2252,2286 "/>
       <polygon id="_112" class="fil54" points="2238,2272 7735,2272 7735,7769 2238,7769 2238,2272 2267,2301 7706,2301 7706,7740 2267,7740 2267,2301 "/>
       <polygon id="_113" class="fil54" points="2252,2286 7721,2286 7721,7755 2252,7755 2252,2286 2281,2316 7691,2316 7691,7726 2281,7726 2281,2316 "/>
       <polygon id="_114" class="fil54" points="2267,2301 7706,2301 7706,7740 2267,7740 2267,2301 2296,2330 7677,2330 7677,7711 2296,7711 2296,2330 "/>
       <polygon id="_115" class="fil54" points="2281,2316 7691,2316 7691,7726 2281,7726 2281,2316 2311,2345 7662,2345 7662,7696 2311,7696 2311,2345 "/>
       <polygon id="_116" class="fil54" points="2296,2330 7677,2330 7677,7711 2296,7711 2296,2330 2325,2359 7648,2359 7648,7682 2325,7682 2325,2359 "/>
       <polygon id="_117" class="fil54" points="2311,2345 7662,2345 7662,7696 2311,7696 2311,2345 2340,2374 7633,2374 7633,7667 2340,7667 2340,2374 "/>
       <polygon id="_118" class="fil54" points="2325,2359 7648,2359 7648,7682 2325,7682 2325,2359 2355,2389 7618,2389 7618,7652 2355,7652 2355,2389 "/>
       <polygon id="_119" class="fil54" points="2340,2374 7633,2374 7633,7667 2340,7667 2340,2374 2369,2403 7604,2403 7604,7638 2369,7638 2369,2403 "/>
       <polygon id="_120" class="fil54" points="2355,2389 7618,2389 7618,7652 2355,7652 2355,2389 2384,2418 7589,2418 7589,7623 2384,7623 2384,2418 "/>
       <polygon id="_121" class="fil54" points="2369,2403 7604,2403 7604,7638 2369,7638 2369,2403 2398,2433 7574,2433 7574,7609 2398,7609 2398,2433 "/>
       <polygon id="_122" class="fil54" points="2384,2418 7589,2418 7589,7623 2384,7623 2384,2418 2413,2447 7560,2447 7560,7594 2413,7594 2413,2447 "/>
       <polygon id="_123" class="fil54" points="2398,2433 7574,2433 7574,7609 2398,7609 2398,2433 2428,2462 7545,2462 7545,7579 2428,7579 2428,2462 "/>
       <polygon id="_124" class="fil54" points="2413,2447 7560,2447 7560,7594 2413,7594 2413,2447 2442,2476 7531,2476 7531,7565 2442,7565 2442,2476 "/>
       <polygon id="_125" class="fil54" points="2428,2462 7545,2462 7545,7579 2428,7579 2428,2462 2457,2491 7516,2491 7516,7550 2457,7550 2457,2491 "/>
       <polygon id="_126" class="fil54" points="2442,2476 7531,2476 7531,7565 2442,7565 2442,2476 2472,2506 7501,2506 7501,7535 2472,7535 2472,2506 "/>
       <polygon id="_127" class="fil54" points="2457,2491 7516,2491 7516,7550 2457,7550 2457,2491 2486,2520 7487,2520 7487,7521 2486,7521 2486,2520 "/>
       <polygon id="_128" class="fil54" points="2472,2506 7501,2506 7501,7535 2472,7535 2472,2506 2501,2535 7472,2535 7472,7506 2501,7506 2501,2535 "/>
       <polygon id="_129" class="fil54" points="2486,2520 7487,2520 7487,7521 2486,7521 2486,2520 2515,2550 7457,2550 7457,7492 2515,7492 2515,2550 "/>
       <polygon id="_130" class="fil54" points="2501,2535 7472,2535 7472,7506 2501,7506 2501,2535 2530,2564 7443,2564 7443,7477 2530,7477 2530,2564 "/>
       <polygon id="_131" class="fil54" points="2515,2550 7457,2550 7457,7492 2515,7492 2515,2550 2545,2579 7428,2579 7428,7462 2545,7462 2545,2579 "/>
       <polygon id="_132" class="fil54" points="2530,2564 7443,2564 7443,7477 2530,7477 2530,2564 2559,2593 7414,2593 7414,7448 2559,7448 2559,2593 "/>
       <polygon id="_133" class="fil54" points="2545,2579 7428,2579 7428,7462 2545,7462 2545,2579 2574,2608 7399,2608 7399,7433 2574,7433 2574,2608 "/>
       <polygon id="_134" class="fil54" points="2559,2593 7414,2593 7414,7448 2559,7448 2559,2593 2589,2623 7384,2623 7384,7418 2589,7418 2589,2623 "/>
       <polygon id="_135" class="fil54" points="2574,2608 7399,2608 7399,7433 2574,7433 2574,2608 2603,2637 7370,2637 7370,7404 2603,7404 2603,2637 "/>
       <polygon id="_136" class="fil54" points="2589,2623 7384,2623 7384,7418 2589,7418 2589,2623 2618,2652 7355,2652 7355,7389 2618,7389 2618,2652 "/>
       <polygon id="_137" class="fil54" points="2603,2637 7370,2637 7370,7404 2603,7404 2603,2637 2632,2666 7341,2666 7341,7375 2632,7375 2632,2666 "/>
       <polygon id="_138" class="fil54" points="2618,2652 7355,2652 7355,7389 2618,7389 2618,2652 2647,2681 7326,2681 7326,7360 2647,7360 2647,2681 "/>
       <polygon id="_139" class="fil54" points="2632,2666 7341,2666 7341,7375 2632,7375 2632,2666 2662,2696 7311,2696 7311,7345 2662,7345 2662,2696 "/>
       <polygon id="_140" class="fil54" points="2647,2681 7326,2681 7326,7360 2647,7360 2647,2681 2676,2710 7297,2710 7297,7331 2676,7331 2676,2710 "/>
       <polygon id="_141" class="fil54" points="2662,2696 7311,2696 7311,7345 2662,7345 2662,2696 2691,2725 7282,2725 7282,7316 2691,7316 2691,2725 "/>
       <polygon id="_142" class="fil54" points="2676,2710 7297,2710 7297,7331 2676,7331 2676,2710 2705,2740 7267,2740 7267,7302 2705,7302 2705,2740 "/>
       <polygon id="_143" class="fil54" points="2691,2725 7282,2725 7282,7316 2691,7316 2691,2725 2720,2754 7253,2754 7253,7287 2720,7287 2720,2754 "/>
       <polygon id="_144" class="fil54" points="2705,2740 7267,2740 7267,7302 2705,7302 2705,2740 2735,2769 7238,2769 7238,7272 2735,7272 2735,2769 "/>
       <polygon id="_145" class="fil54" points="2720,2754 7253,2754 7253,7287 2720,7287 2720,2754 2749,2783 7224,2783 7224,7258 2749,7258 2749,2783 "/>
       <polygon id="_146" class="fil54" points="2735,2769 7238,2769 7238,7272 2735,7272 2735,2769 2764,2798 7209,2798 7209,7243 2764,7243 2764,2798 "/>
       <polygon id="_147" class="fil54" points="2749,2783 7224,2783 7224,7258 2749,7258 2749,2783 2779,2813 7194,2813 7194,7228 2779,7228 2779,2813 "/>
       <polygon id="_148" class="fil54" points="2764,2798 7209,2798 7209,7243 2764,7243 2764,2798 2793,2827 7180,2827 7180,7214 2793,7214 2793,2827 "/>
       <polygon id="_149" class="fil54" points="2779,2813 7194,2813 7194,7228 2779,7228 2779,2813 2808,2842 7165,2842 7165,7199 2808,7199 2808,2842 "/>
       <polygon id="_150" class="fil54" points="2793,2827 7180,2827 7180,7214 2793,7214 2793,2827 2822,2857 7150,2857 7150,7185 2822,7185 2822,2857 "/>
       <polygon id="_151" class="fil54" points="2808,2842 7165,2842 7165,7199 2808,7199 2808,2842 2837,2871 7136,2871 7136,7170 2837,7170 2837,2871 "/>
       <polygon id="_152" class="fil54" points="2822,2857 7150,2857 7150,7185 2822,7185 2822,2857 2852,2886 7121,2886 7121,7155 2852,7155 2852,2886 "/>
       <polygon id="_153" class="fil54" points="2837,2871 7136,2871 7136,7170 2837,7170 2837,2871 2866,2900 7107,2900 7107,7141 2866,7141 2866,2900 "/>
       <polygon id="_154" class="fil54" points="2852,2886 7121,2886 7121,7155 2852,7155 2852,2886 2881,2915 7092,2915 7092,7126 2881,7126 2881,2915 "/>
       <polygon id="_155" class="fil54" points="2866,2900 7107,2900 7107,7141 2866,7141 2866,2900 2896,2930 7077,2930 7077,7111 2896,7111 2896,2930 "/>
       <polygon id="_156" class="fil54" points="2881,2915 7092,2915 7092,7126 2881,7126 2881,2915 2910,2944 7063,2944 7063,7097 2910,7097 2910,2944 "/>
       <polygon id="_157" class="fil54" points="2896,2930 7077,2930 7077,7111 2896,7111 2896,2930 2925,2959 7048,2959 7048,7082 2925,7082 2925,2959 "/>
       <polygon id="_158" class="fil54" points="2910,2944 7063,2944 7063,7097 2910,7097 2910,2944 2939,2974 7033,2974 7033,7068 2939,7068 2939,2974 "/>
       <polygon id="_159" class="fil54" points="2925,2959 7048,2959 7048,7082 2925,7082 2925,2959 2954,2988 7019,2988 7019,7053 2954,7053 2954,2988 "/>
       <polygon id="_160" class="fil54" points="2939,2974 7033,2974 7033,7068 2939,7068 2939,2974 2969,3003 7004,3003 7004,7038 2969,7038 2969,3003 "/>
       <polygon id="_161" class="fil54" points="2954,2988 7019,2988 7019,7053 2954,7053 2954,2988 2983,3017 6990,3017 6990,7024 2983,7024 2983,3017 "/>
       <polygon id="_162" class="fil54" points="2969,3003 7004,3003 7004,7038 2969,7038 2969,3003 2998,3032 6975,3032 6975,7009 2998,7009 2998,3032 "/>
       <polygon id="_163" class="fil54" points="2983,3017 6990,3017 6990,7024 2983,7024 2983,3017 3013,3047 6960,3047 6960,6994 3013,6994 3013,3047 "/>
       <polygon id="_164" class="fil54" points="2998,3032 6975,3032 6975,7009 2998,7009 2998,3032 3027,3061 6946,3061 6946,6980 3027,6980 3027,3061 "/>
       <polygon id="_165" class="fil54" points="3013,3047 6960,3047 6960,6994 3013,6994 3013,3047 3042,3076 6931,3076 6931,6965 3042,6965 3042,3076 "/>
       <polygon id="_166" class="fil54" points="3027,3061 6946,3061 6946,6980 3027,6980 3027,3061 3056,3091 6916,3091 6916,6951 3056,6951 3056,3091 "/>
       <polygon id="_167" class="fil54" points="3042,3076 6931,3076 6931,6965 3042,6965 3042,3076 3071,3105 6902,3105 6902,6936 3071,6936 3071,3105 "/>
       <polygon id="_168" class="fil54" points="3056,3091 6916,3091 6916,6951 3056,6951 3056,3091 3086,3120 6887,3120 6887,6921 3086,6921 3086,3120 "/>
       <polygon id="_169" class="fil54" points="3071,3105 6902,3105 6902,6936 3071,6936 3071,3105 3100,3134 6873,3134 6873,6907 3100,6907 3100,3134 "/>
       <polygon id="_170" class="fil54" points="3086,3120 6887,3120 6887,6921 3086,6921 3086,3120 3115,3149 6858,3149 6858,6892 3115,6892 3115,3149 "/>
       <polygon id="_171" class="fil54" points="3100,3134 6873,3134 6873,6907 3100,6907 3100,3134 3129,3164 6843,3164 6843,6878 3129,6878 3129,3164 "/>
       <polygon id="_172" class="fil54" points="3115,3149 6858,3149 6858,6892 3115,6892 3115,3149 3144,3178 6829,3178 6829,6863 3144,6863 3144,3178 "/>
       <polygon id="_173" class="fil54" points="3129,3164 6843,3164 6843,6878 3129,6878 3129,3164 3159,3193 6814,3193 6814,6848 3159,6848 3159,3193 "/>
       <polygon id="_174" class="fil54" points="3144,3178 6829,3178 6829,6863 3144,6863 3144,3178 3173,3208 6800,3208 6800,6834 3173,6834 3173,3208 "/>
       <polygon id="_175" class="fil54" points="3159,3193 6814,3193 6814,6848 3159,6848 3159,3193 3188,3222 6785,3222 6785,6819 3188,6819 3188,3222 "/>
       <polygon id="_176" class="fil54" points="3173,3208 6800,3208 6800,6834 3173,6834 3173,3208 3203,3237 6770,3237 6770,6804 3203,6804 3203,3237 "/>
       <polygon id="_177" class="fil54" points="3188,3222 6785,3222 6785,6819 3188,6819 3188,3222 3217,3251 6756,3251 6756,6790 3217,6790 3217,3251 "/>
       <polygon id="_178" class="fil54" points="3203,3237 6770,3237 6770,6804 3203,6804 3203,3237 3232,3266 6741,3266 6741,6775 3232,6775 3232,3266 "/>
       <polygon id="_179" class="fil54" points="3217,3251 6756,3251 6756,6790 3217,6790 3217,3251 3246,3281 6726,3281 6726,6761 3246,6761 3246,3281 "/>
       <polygon id="_180" class="fil54" points="3232,3266 6741,3266 6741,6775 3232,6775 3232,3266 3261,3295 6712,3295 6712,6746 3261,6746 3261,3295 "/>
       <polygon id="_181" class="fil54" points="3246,3281 6726,3281 6726,6761 3246,6761 3246,3281 3276,3310 6697,3310 6697,6731 3276,6731 3276,3310 "/>
       <polygon id="_182" class="fil54" points="3261,3295 6712,3295 6712,6746 3261,6746 3261,3295 3290,3324 6683,3324 6683,6717 3290,6717 3290,3324 "/>
       <polygon id="_183" class="fil54" points="3276,3310 6697,3310 6697,6731 3276,6731 3276,3310 3305,3339 6668,3339 6668,6702 3305,6702 3305,3339 "/>
       <polygon id="_184" class="fil54" points="3290,3324 6683,3324 6683,6717 3290,6717 3290,3324 3320,3354 6653,3354 6653,6687 3320,6687 3320,3354 "/>
       <polygon id="_185" class="fil54" points="3305,3339 6668,3339 6668,6702 3305,6702 3305,3339 3334,3368 6639,3368 6639,6673 3334,6673 3334,3368 "/>
       <polygon id="_186" class="fil54" points="3320,3354 6653,3354 6653,6687 3320,6687 3320,3354 3349,3383 6624,3383 6624,6658 3349,6658 3349,3383 "/>
       <polygon id="_187" class="fil54" points="3334,3368 6639,3368 6639,6673 3334,6673 3334,3368 3363,3398 6609,3398 6609,6644 3363,6644 3363,3398 "/>
       <polygon id="_188" class="fil54" points="3349,3383 6624,3383 6624,6658 3349,6658 3349,3383 3378,3412 6595,3412 6595,6629 3378,6629 3378,3412 "/>
       <polygon id="_189" class="fil54" points="3363,3398 6609,3398 6609,6644 3363,6644 3363,3398 3393,3427 6580,3427 6580,6614 3393,6614 3393,3427 "/>
       <polygon id="_190" class="fil54" points="3378,3412 6595,3412 6595,6629 3378,6629 3378,3412 3407,3441 6566,3441 6566,6600 3407,6600 3407,3441 "/>
       <polygon id="_191" class="fil54" points="3393,3427 6580,3427 6580,6614 3393,6614 3393,3427 3422,3456 6551,3456 6551,6585 3422,6585 3422,3456 "/>
       <polygon id="_192" class="fil54" points="3407,3441 6566,3441 6566,6600 3407,6600 3407,3441 3437,3471 6536,3471 6536,6570 3437,6570 3437,3471 "/>
       <polygon id="_193" class="fil54" points="3422,3456 6551,3456 6551,6585 3422,6585 3422,3456 3451,3485 6522,3485 6522,6556 3451,6556 3451,3485 "/>
       <polygon id="_194" class="fil54" points="3437,3471 6536,3471 6536,6570 3437,6570 3437,3471 3466,3500 6507,3500 6507,6541 3466,6541 3466,3500 "/>
       <polygon id="_195" class="fil54" points="3451,3485 6522,3485 6522,6556 3451,6556 3451,3485 3480,3515 6492,3515 6492,6527 3480,6527 3480,3515 "/>
       <polygon id="_196" class="fil54" points="3466,3500 6507,3500 6507,6541 3466,6541 3466,3500 3495,3529 6478,3529 6478,6512 3495,6512 3495,3529 "/>
       <polygon id="_197" class="fil54" points="3480,3515 6492,3515 6492,6527 3480,6527 3480,3515 3510,3544 6463,3544 6463,6497 3510,6497 3510,3544 "/>
       <polygon id="_198" class="fil54" points="3495,3529 6478,3529 6478,6512 3495,6512 3495,3529 3524,3558 6449,3558 6449,6483 3524,6483 3524,3558 "/>
       <polygon id="_199" class="fil54" points="3510,3544 6463,3544 6463,6497 3510,6497 3510,3544 3539,3573 6434,3573 6434,6468 3539,6468 3539,3573 "/>
       <polygon id="_200" class="fil54" points="3524,3558 6449,3558 6449,6483 3524,6483 3524,3558 3554,3588 6419,3588 6419,6453 3554,6453 3554,3588 "/>
       <polygon id="_201" class="fil54" points="3539,3573 6434,3573 6434,6468 3539,6468 3539,3573 3568,3602 6405,3602 6405,6439 3568,6439 3568,3602 "/>
       <polygon id="_202" class="fil54" points="3554,3588 6419,3588 6419,6453 3554,6453 3554,3588 3583,3617 6390,3617 6390,6424 3583,6424 3583,3617 "/>
       <polygon id="_203" class="fil54" points="3568,3602 6405,3602 6405,6439 3568,6439 3568,3602 3597,3632 6375,3632 6375,6410 3597,6410 3597,3632 "/>
       <polygon id="_204" class="fil54" points="3583,3617 6390,3617 6390,6424 3583,6424 3583,3617 3612,3646 6361,3646 6361,6395 3612,6395 3612,3646 "/>
       <polygon id="_205" class="fil54" points="3597,3632 6375,3632 6375,6410 3597,6410 3597,3632 3627,3661 6346,3661 6346,6380 3627,6380 3627,3661 "/>
       <polygon id="_206" class="fil54" points="3612,3646 6361,3646 6361,6395 3612,6395 3612,3646 3641,3675 6332,3675 6332,6366 3641,6366 3641,3675 "/>
       <polygon id="_207" class="fil54" points="3627,3661 6346,3661 6346,6380 3627,6380 3627,3661 3656,3690 6317,3690 6317,6351 3656,6351 3656,3690 "/>
       <polygon id="_208" class="fil54" points="3641,3675 6332,3675 6332,6366 3641,6366 3641,3675 3671,3705 6302,3705 6302,6337 3671,6337 3671,3705 "/>
       <polygon id="_209" class="fil54" points="3656,3690 6317,3690 6317,6351 3656,6351 3656,3690 3685,3719 6288,3719 6288,6322 3685,6322 3685,3719 "/>
       <polygon id="_210" class="fil54" points="3671,3705 6302,3705 6302,6337 3671,6337 3671,3705 3700,3734 6273,3734 6273,6307 3700,6307 3700,3734 "/>
       <polygon id="_211" class="fil54" points="3685,3719 6288,3719 6288,6322 3685,6322 3685,3719 3714,3748 6259,3748 6259,6293 3714,6293 3714,3748 "/>
       <polygon id="_212" class="fil54" points="3700,3734 6273,3734 6273,6307 3700,6307 3700,3734 3729,3763 6244,3763 6244,6278 3729,6278 3729,3763 "/>
       <polygon id="_213" class="fil54" points="3714,3748 6259,3748 6259,6293 3714,6293 3714,3748 3744,3778 6229,3778 6229,6263 3744,6263 3744,3778 "/>
       <polygon id="_214" class="fil54" points="3729,3763 6244,3763 6244,6278 3729,6278 3729,3763 3758,3792 6215,3792 6215,6249 3758,6249 3758,3792 "/>
       <polygon id="_215" class="fil54" points="3744,3778 6229,3778 6229,6263 3744,6263 3744,3778 3773,3807 6200,3807 6200,6234 3773,6234 3773,3807 "/>
       <polygon id="_216" class="fil54" points="3758,3792 6215,3792 6215,6249 3758,6249 3758,3792 3787,3822 6185,3822 6185,6220 3787,6220 3787,3822 "/>
       <polygon id="_217" class="fil54" points="3773,3807 6200,3807 6200,6234 3773,6234 3773,3807 3802,3836 6171,3836 6171,6205 3802,6205 3802,3836 "/>
       <polygon id="_218" class="fil54" points="3787,3822 6185,3822 6185,6220 3787,6220 3787,3822 3817,3851 6156,3851 6156,6190 3817,6190 3817,3851 "/>
       <polygon id="_219" class="fil54" points="3802,3836 6171,3836 6171,6205 3802,6205 3802,3836 3831,3865 6142,3865 6142,6176 3831,6176 3831,3865 "/>
       <polygon id="_220" class="fil54" points="3817,3851 6156,3851 6156,6190 3817,6190 3817,3851 3846,3880 6127,3880 6127,6161 3846,6161 3846,3880 "/>
       <polygon id="_221" class="fil54" points="3831,3865 6142,3865 6142,6176 3831,6176 3831,3865 3861,3895 6112,3895 6112,6146 3861,6146 3861,3895 "/>
       <polygon id="_222" class="fil54" points="3846,3880 6127,3880 6127,6161 3846,6161 3846,3880 3875,3909 6098,3909 6098,6132 3875,6132 3875,3909 "/>
       <polygon id="_223" class="fil54" points="3861,3895 6112,3895 6112,6146 3861,6146 3861,3895 3890,3924 6083,3924 6083,6117 3890,6117 3890,3924 "/>
       <polygon id="_224" class="fil54" points="3875,3909 6098,3909 6098,6132 3875,6132 3875,3909 3904,3939 6068,3939 6068,6103 3904,6103 3904,3939 "/>
       <polygon id="_225" class="fil54" points="3890,3924 6083,3924 6083,6117 3890,6117 3890,3924 3919,3953 6054,3953 6054,6088 3919,6088 3919,3953 "/>
       <polygon id="_226" class="fil54" points="3904,3939 6068,3939 6068,6103 3904,6103 3904,3939 3934,3968 6039,3968 6039,6073 3934,6073 3934,3968 "/>
       <polygon id="_227" class="fil54" points="3919,3953 6054,3953 6054,6088 3919,6088 3919,3953 3948,3982 6025,3982 6025,6059 3948,6059 3948,3982 "/>
       <polygon id="_228" class="fil54" points="3934,3968 6039,3968 6039,6073 3934,6073 3934,3968 3963,3997 6010,3997 6010,6044 3963,6044 3963,3997 "/>
       <polygon id="_229" class="fil54" points="3948,3982 6025,3982 6025,6059 3948,6059 3948,3982 3978,4012 5995,4012 5995,6029 3978,6029 3978,4012 "/>
       <polygon id="_230" class="fil54" points="3963,3997 6010,3997 6010,6044 3963,6044 3963,3997 3992,4026 5981,4026 5981,6015 3992,6015 3992,4026 "/>
       <polygon id="_231" class="fil54" points="3978,4012 5995,4012 5995,6029 3978,6029 3978,4012 4007,4041 5966,4041 5966,6000 4007,6000 4007,4041 "/>
       <polygon id="_232" class="fil54" points="3992,4026 5981,4026 5981,6015 3992,6015 3992,4026 4021,4056 5951,4056 5951,5986 4021,5986 4021,4056 "/>
       <polygon id="_233" class="fil54" points="4007,4041 5966,4041 5966,6000 4007,6000 4007,4041 4036,4070 5937,4070 5937,5971 4036,5971 4036,4070 "/>
       <polygon id="_234" class="fil54" points="4021,4056 5951,4056 5951,5986 4021,5986 4021,4056 4051,4085 5922,4085 5922,5956 4051,5956 4051,4085 "/>
       <polygon id="_235" class="fil54" points="4036,4070 5937,4070 5937,5971 4036,5971 4036,4070 4065,4099 5908,4099 5908,5942 4065,5942 4065,4099 "/>
       <polygon id="_236" class="fil54" points="4051,4085 5922,4085 5922,5956 4051,5956 4051,4085 4080,4114 5893,4114 5893,5927 4080,5927 4080,4114 "/>
       <polygon id="_237" class="fil54" points="4065,4099 5908,4099 5908,5942 4065,5942 4065,4099 4095,4129 5878,4129 5878,5912 4095,5912 4095,4129 "/>
       <polygon id="_238" class="fil54" points="4080,4114 5893,4114 5893,5927 4080,5927 4080,4114 4109,4143 5864,4143 5864,5898 4109,5898 4109,4143 "/>
       <polygon id="_239" class="fil54" points="4095,4129 5878,4129 5878,5912 4095,5912 4095,4129 4124,4158 5849,4158 5849,5883 4124,5883 4124,4158 "/>
       <polygon id="_240" class="fil54" points="4109,4143 5864,4143 5864,5898 4109,5898 4109,4143 4138,4173 5834,4173 5834,5869 4138,5869 4138,4173 "/>
       <polygon id="_241" class="fil54" points="4124,4158 5849,4158 5849,5883 4124,5883 4124,4158 4153,4187 5820,4187 5820,5854 4153,5854 4153,4187 "/>
       <polygon id="_242" class="fil54" points="4138,4173 5834,4173 5834,5869 4138,5869 4138,4173 4168,4202 5805,4202 5805,5839 4168,5839 4168,4202 "/>
       <polygon id="_243" class="fil54" points="4153,4187 5820,4187 5820,5854 4153,5854 4153,4187 4182,4216 5791,4216 5791,5825 4182,5825 4182,4216 "/>
       <polygon id="_244" class="fil54" points="4168,4202 5805,4202 5805,5839 4168,5839 4168,4202 4197,4231 5776,4231 5776,5810 4197,5810 4197,4231 "/>
       <polygon id="_245" class="fil54" points="4182,4216 5791,4216 5791,5825 4182,5825 4182,4216 4211,4246 5761,4246 5761,5796 4211,5796 4211,4246 "/>
       <polygon id="_246" class="fil54" points="4197,4231 5776,4231 5776,5810 4197,5810 4197,4231 4226,4260 5747,4260 5747,5781 4226,5781 4226,4260 "/>
       <polygon id="_247" class="fil54" points="4211,4246 5761,4246 5761,5796 4211,5796 4211,4246 4241,4275 5732,4275 5732,5766 4241,5766 4241,4275 "/>
       <polygon id="_248" class="fil54" points="4226,4260 5747,4260 5747,5781 4226,5781 4226,4260 4255,4289 5718,4289 5718,5752 4255,5752 4255,4289 "/>
       <polygon id="_249" class="fil54" points="4241,4275 5732,4275 5732,5766 4241,5766 4241,4275 4270,4304 5703,4304 5703,5737 4270,5737 4270,4304 "/>
       <polygon id="_250" class="fil54" points="4255,4289 5718,4289 5718,5752 4255,5752 4255,4289 4285,4319 5688,4319 5688,5722 4285,5722 4285,4319 "/>
       <polygon id="_251" class="fil54" points="4270,4304 5703,4304 5703,5737 4270,5737 4270,4304 4299,4333 5674,4333 5674,5708 4299,5708 4299,4333 "/>
       <polygon id="_252" class="fil54" points="4285,4319 5688,4319 5688,5722 4285,5722 4285,4319 4314,4348 5659,4348 5659,5693 4314,5693 4314,4348 "/>
       <polygon id="_253" class="fil54" points="4299,4333 5674,4333 5674,5708 4299,5708 4299,4333 4328,4363 5644,4363 5644,5679 4328,5679 4328,4363 "/>
       <polygon id="_254" class="fil54" points="4314,4348 5659,4348 5659,5693 4314,5693 4314,4348 4343,4377 5630,4377 5630,5664 4343,5664 4343,4377 "/>
       <polygon id="_255" class="fil54" points="4328,4363 5644,4363 5644,5679 4328,5679 4328,4363 4358,4392 5615,4392 5615,5649 4358,5649 4358,4392 "/>
       <polygon id="_256" class="fil54" points="4343,4377 5630,4377 5630,5664 4343,5664 4343,4377 4372,4406 5601,4406 5601,5635 4372,5635 4372,4406 "/>
       <polygon id="_257" class="fil54" points="4358,4392 5615,4392 5615,5649 4358,5649 4358,4392 4387,4421 5586,4421 5586,5620 4387,5620 4387,4421 "/>
       <polygon id="_258" class="fil54" points="4372,4406 5601,4406 5601,5635 4372,5635 4372,4406 4402,4436 5571,4436 5571,5605 4402,5605 4402,4436 "/>
       <polygon id="_259" class="fil54" points="4387,4421 5586,4421 5586,5620 4387,5620 4387,4421 4416,4450 5557,4450 5557,5591 4416,5591 4416,4450 "/>
       <polygon id="_260" class="fil54" points="4402,4436 5571,4436 5571,5605 4402,5605 4402,4436 4431,4465 5542,4465 5542,5576 4431,5576 4431,4465 "/>
       <polygon id="_261" class="fil54" points="4416,4450 5557,4450 5557,5591 4416,5591 4416,4450 4445,4480 5527,4480 5527,5562 4445,5562 4445,4480 "/>
       <polygon id="_262" class="fil54" points="4431,4465 5542,4465 5542,5576 4431,5576 4431,4465 4460,4494 5513,4494 5513,5547 4460,5547 4460,4494 "/>
       <polygon id="_263" class="fil54" points="4445,4480 5527,4480 5527,5562 4445,5562 4445,4480 4475,4509 5498,4509 5498,5532 4475,5532 4475,4509 "/>
       <polygon id="_264" class="fil54" points="4460,4494 5513,4494 5513,5547 4460,5547 4460,4494 4489,4523 5484,4523 5484,5518 4489,5518 4489,4523 "/>
       <polygon id="_265" class="fil54" points="4475,4509 5498,4509 5498,5532 4475,5532 4475,4509 4504,4538 5469,4538 5469,5503 4504,5503 4504,4538 "/>
       <polygon id="_266" class="fil54" points="4489,4523 5484,4523 5484,5518 4489,5518 4489,4523 4519,4553 5454,4553 5454,5488 4519,5488 4519,4553 "/>
       <polygon id="_267" class="fil54" points="4504,4538 5469,4538 5469,5503 4504,5503 4504,4538 4533,4567 5440,4567 5440,5474 4533,5474 4533,4567 "/>
       <polygon id="_268" class="fil54" points="4519,4553 5454,4553 5454,5488 4519,5488 4519,4553 4548,4582 5425,4582 5425,5459 4548,5459 4548,4582 "/>
       <polygon id="_269" class="fil54" points="4533,4567 5440,4567 5440,5474 4533,5474 4533,4567 4562,4597 5410,4597 5410,5445 4562,5445 4562,4597 "/>
       <polygon id="_270" class="fil54" points="4548,4582 5425,4582 5425,5459 4548,5459 4548,4582 4577,4611 5396,4611 5396,5430 4577,5430 4577,4611 "/>
       <polygon id="_271" class="fil54" points="4562,4597 5410,4597 5410,5445 4562,5445 4562,4597 4592,4626 5381,4626 5381,5415 4592,5415 4592,4626 "/>
       <polygon id="_272" class="fil54" points="4577,4611 5396,4611 5396,5430 4577,5430 4577,4611 4606,4640 5367,4640 5367,5401 4606,5401 4606,4640 "/>
       <polygon id="_273" class="fil54" points="4592,4626 5381,4626 5381,5415 4592,5415 4592,4626 4621,4655 5352,4655 5352,5386 4621,5386 4621,4655 "/>
       <polygon id="_274" class="fil54" points="4606,4640 5367,4640 5367,5401 4606,5401 4606,4640 4636,4670 5337,4670 5337,5371 4636,5371 4636,4670 "/>
       <polygon id="_275" class="fil54" points="4621,4655 5352,4655 5352,5386 4621,5386 4621,4655 4650,4684 5323,4684 5323,5357 4650,5357 4650,4684 "/>
       <polygon id="_276" class="fil54" points="4636,4670 5337,4670 5337,5371 4636,5371 4636,4670 4665,4699 5308,4699 5308,5342 4665,5342 4665,4699 "/>
       <polygon id="_277" class="fil54" points="4650,4684 5323,4684 5323,5357 4650,5357 4650,4684 4679,4714 5293,4714 5293,5328 4679,5328 4679,4714 "/>
       <polygon id="_278" class="fil54" points="4665,4699 5308,4699 5308,5342 4665,5342 4665,4699 4694,4728 5279,4728 5279,5313 4694,5313 4694,4728 "/>
       <polygon id="_279" class="fil54" points="4679,4714 5293,4714 5293,5328 4679,5328 4679,4714 4709,4743 5264,4743 5264,5298 4709,5298 4709,4743 "/>
       <polygon id="_280" class="fil54" points="4694,4728 5279,4728 5279,5313 4694,5313 4694,4728 4723,4757 5250,4757 5250,5284 4723,5284 4723,4757 "/>
       <polygon id="_281" class="fil54" points="4709,4743 5264,4743 5264,5298 4709,5298 4709,4743 4738,4772 5235,4772 5235,5269 4738,5269 4738,4772 "/>
       <polygon id="_282" class="fil54" points="4723,4757 5250,4757 5250,5284 4723,5284 4723,4757 4752,4787 5220,4787 5220,5255 4752,5255 4752,4787 "/>
       <polygon id="_283" class="fil54" points="4738,4772 5235,4772 5235,5269 4738,5269 4738,4772 4767,4801 5206,4801 5206,5240 4767,5240 4767,4801 "/>
       <polygon id="_284" class="fil54" points="4752,4787 5220,4787 5220,5255 4752,5255 4752,4787 4782,4816 5191,4816 5191,5225 4782,5225 4782,4816 "/>
       <polygon id="_285" class="fil54" points="4767,4801 5206,4801 5206,5240 4767,5240 4767,4801 4796,4830 5177,4830 5177,5211 4796,5211 4796,4830 "/>
       <polygon id="_286" class="fil54" points="4782,4816 5191,4816 5191,5225 4782,5225 4782,4816 4811,4845 5162,4845 5162,5196 4811,5196 4811,4845 "/>
       <polygon id="_287" class="fil54" points="4796,4830 5177,4830 5177,5211 4796,5211 4796,4830 4826,4860 5147,4860 5147,5181 4826,5181 4826,4860 "/>
       <polygon id="_288" class="fil54" points="4811,4845 5162,4845 5162,5196 4811,5196 4811,4845 4840,4874 5133,4874 5133,5167 4840,5167 4840,4874 "/>
       <polygon id="_289" class="fil54" points="4826,4860 5147,4860 5147,5181 4826,5181 4826,4860 4855,4889 5118,4889 5118,5152 4855,5152 4855,4889 "/>
       <polygon id="_290" class="fil54" points="4840,4874 5133,4874 5133,5167 4840,5167 4840,4874 4869,4904 5103,4904 5103,5138 4869,5138 4869,4904 "/>
       <polygon id="_291" class="fil54" points="4855,4889 5118,4889 5118,5152 4855,5152 4855,4889 4884,4918 5089,4918 5089,5123 4884,5123 4884,4918 "/>
       <polygon id="_292" class="fil54" points="4869,4904 5103,4904 5103,5138 4869,5138 4869,4904 4899,4933 5074,4933 5074,5108 4899,5108 4899,4933 "/>
       <polygon id="_293" class="fil54" points="4884,4918 5089,4918 5089,5123 4884,5123 4884,4918 4913,4947 5060,4947 5060,5094 4913,5094 4913,4947 "/>
       <polygon id="_294" class="fil54" points="4899,4933 5074,4933 5074,5108 4899,5108 4899,4933 4928,4962 5045,4962 5045,5079 4928,5079 4928,4962 "/>
       <polygon id="_295" class="fil54" points="4913,4947 5060,4947 5060,5094 4913,5094 4913,4947 4943,4977 5030,4977 5030,5064 4943,5064 4943,4977 "/>
       <polygon id="_296" class="fil54" points="4928,4962 5045,4962 5045,5079 4928,5079 4928,4962 4957,4991 5016,4991 5016,5050 4957,5050 4957,4991 "/>
       <polygon id="_297" class="fil54" points="4943,4977 5030,4977 5030,5064 4943,5064 4943,4977 4972,5006 5001,5006 5001,5035 4972,5035 4972,5006 "/>
       <polygon id="_298" class="fil54" points="4957,4991 5016,4991 5016,5050 4957,5050 4957,4991 4986,5021 4986,5021 4986,5021 4986,5021 4986,5021 "/>
       <polygon id="_299" class="fil54" points="4972,5006 5001,5006 5001,5035 4972,5035 "/>
      </g>
     </g>
     <path class="fil55" d="M1560 9407l6853 0c528,0 960,-432 960,-960l0 -6853c0,-528 -432,-960 -960,-960l-6853 0c-528,0 -960,432 -960,960l0 6853c0,528 432,960 960,960z"/>
    </g>
   </g>
  </g>
  <rect class="fil56" x="1864" y="1834" width="6212" height="6212"/>
  <rect class="fil57" x="3169" y="3139" width="3601" height="3601"/>
 </g>
</svg>
