<?xml version="1.0" encoding="UTF-8" standalone="no"?>
<!-- Creator: CorelDRAW X6 -->

<svg
   xmlns:osb="http://www.openswatchbook.org/uri/2009/osb"
   xmlns:dc="http://purl.org/dc/elements/1.1/"
   xmlns:cc="http://creativecommons.org/ns#"
   xmlns:rdf="http://www.w3.org/1999/02/22-rdf-syntax-ns#"
   xmlns:svg="http://www.w3.org/2000/svg"
   xmlns="http://www.w3.org/2000/svg"
   xmlns:sodipodi="http://sodipodi.sourceforge.net/DTD/sodipodi-0.dtd"
   xmlns:inkscape="http://www.inkscape.org/namespaces/inkscape"
   xml:space="preserve"
   width="100px"
   height="100px"
   version="1.1"
   style="shape-rendering:geometricPrecision; text-rendering:geometricPrecision; image-rendering:optimizeQuality; fill-rule:evenodd; clip-rule:evenodd"
   viewBox="0 0 10000 10000"
   id="svg2"
   inkscape:version="0.91 r13725"
   sodipodi:docname="getCoordinatesBlock.svg"><metadata
     id="metadata343"><rdf:RDF><cc:Work
         rdf:about=""><dc:format>image/svg+xml</dc:format><dc:type
           rdf:resource="http://purl.org/dc/dcmitype/StillImage" /><dc:title /></cc:Work></rdf:RDF></metadata><sodipodi:namedview
     pagecolor="#ffffff"
     bordercolor="#666666"
     borderopacity="1"
     objecttolerance="10"
     gridtolerance="10"
     guidetolerance="10"
     inkscape:pageopacity="0"
     inkscape:pageshadow="2"
     inkscape:window-width="1920"
     inkscape:window-height="1056"
     id="namedview341"
     showgrid="false"
     inkscape:zoom="6.675088"
     inkscape:cx="-1.3796754"
     inkscape:cy="49.494178"
     inkscape:window-x="0"
     inkscape:window-y="24"
     inkscape:window-maximized="1"
     inkscape:current-layer="svg2" /><defs
     id="defs4"><marker
       inkscape:stockid="TriangleOutM"
       orient="auto"
       refY="0.0"
       refX="0.0"
       id="marker5108"
       style="overflow:visible"
       inkscape:isstock="true"><path
         id="path5110"
         d="M 5.77,0.0 L -2.88,5.0 L -2.88,-5.0 L 5.77,0.0 z "
         style="fill-rule:evenodd;stroke:#000000;stroke-width:1pt;stroke-opacity:1;fill:#000000;fill-opacity:1"
         transform="scale(0.4)" /></marker><marker
       inkscape:stockid="TriangleOutM"
       orient="auto"
       refY="0.0"
       refX="0.0"
       id="marker5038"
       style="overflow:visible"
       inkscape:isstock="true"><path
         id="path5040"
         d="M 5.77,0.0 L -2.88,5.0 L -2.88,-5.0 L 5.77,0.0 z "
         style="fill-rule:evenodd;stroke:#000008;stroke-width:1pt;stroke-opacity:1;fill:#000000;fill-opacity:1"
         transform="scale(0.4)" /></marker><marker
       inkscape:stockid="TriangleOutM"
       orient="auto"
       refY="0.0"
       refX="0.0"
       id="TriangleOutM"
       style="overflow:visible"
       inkscape:isstock="true"><path
         id="path4702"
         d="M 5.77,0.0 L -2.88,5.0 L -2.88,-5.0 L 5.77,0.0 z "
         style="fill-rule:evenodd;stroke:#000000;stroke-width:1pt;stroke-opacity:1;fill:#000000;fill-opacity:1"
         transform="scale(0.4)" /></marker><marker
       inkscape:stockid="Arrow1Mend"
       orient="auto"
       refY="0.0"
       refX="0.0"
       id="marker4858"
       style="overflow:visible;"
       inkscape:isstock="true"><path
         id="path4860"
         d="M 0.0,0.0 L 5.0,-5.0 L -12.5,0.0 L 5.0,5.0 L 0.0,0.0 z "
         style="fill-rule:evenodd;stroke:#000008;stroke-width:1pt;stroke-opacity:1;fill:#000000;fill-opacity:1"
         transform="scale(0.4) rotate(180) translate(10,0)" /></marker><marker
       inkscape:stockid="Arrow2Lend"
       orient="auto"
       refY="0.0"
       refX="0.0"
       id="marker4813"
       style="overflow:visible;"
       inkscape:isstock="true"><path
         id="path4578"
         style="fill-rule:evenodd;stroke-width:0.625;stroke-linejoin:round;stroke:#000008;stroke-opacity:1;fill:#ffffff;fill-opacity:1"
         d="M 8.7185878,4.0337352 L -2.2072895,0.016013256 L 8.7185884,-4.0017078 C 6.9730900,-1.6296469 6.9831476,1.6157441 8.7185878,4.0337352 z "
         transform="scale(1.1) rotate(180) translate(1,0)" /></marker><linearGradient
       id="linearGradient16500"
       osb:paint="solid"><stop
         style="stop-color:#0000ff;stop-opacity:1;"
         offset="0"
         id="stop16502" /></linearGradient><marker
       inkscape:isstock="true"
       style="overflow:visible;"
       id="marker4782"
       refX="0.0"
       refY="0.0"
       orient="auto"
       inkscape:stockid="Arrow1Mend"><path
         transform="scale(0.4) rotate(180) translate(10,0)"
         style="fill-rule:evenodd;stroke:#000000;stroke-width:1pt;stroke-opacity:1;fill:#000000;fill-opacity:1"
         d="M 0.0,0.0 L 5.0,-5.0 L -12.5,0.0 L 5.0,5.0 L 0.0,0.0 z "
         id="path4784" /></marker><marker
       inkscape:stockid="Arrow2Lend"
       orient="auto"
       refY="0.0"
       refX="0.0"
       id="Arrow2Lend"
       style="overflow:visible;"
       inkscape:isstock="true"><path
         id="path4481"
         style="fill-rule:evenodd;stroke-width:0.625;stroke-linejoin:round;stroke:#000008;stroke-opacity:1;fill:#ffffff;fill-opacity:1"
         d="M 8.7185878,4.0337352 L -2.2072895,0.016013256 L 8.7185884,-4.0017078 C 6.9730900,-1.6296469 6.9831476,1.6157441 8.7185878,4.0337352 z "
         transform="scale(1.1) rotate(180) translate(1,0)" /></marker><style
       type="text/css"
       id="style6"><![CDATA[
    .str0 {stroke:#E6E6E6;stroke-width:52.9167}
    .fil48 {fill:none}
    .fil0 {fill:#5E4377}
    .fil2 {fill:#5E4378}
    .fil3 {fill:#5F4378}
    .fil4 {fill:#5F4479}
    .fil5 {fill:#60447A}
    .fil6 {fill:#61457B}
    .fil7 {fill:#61457C}
    .fil8 {fill:#62457C}
    .fil9 {fill:#62467D}
    .fil10 {fill:#63467D}
    .fil11 {fill:#63467E}
    .fil12 {fill:#64477F}
    .fil13 {fill:#654780}
    .fil14 {fill:#654881}
    .fil15 {fill:#664881}
    .fil16 {fill:#664882}
    .fil17 {fill:#674882}
    .fil18 {fill:#674983}
    .fil19 {fill:#684984}
    .fil20 {fill:#694A85}
    .fil21 {fill:#694A86}
    .fil22 {fill:#6A4A86}
    .fil23 {fill:#6A4B87}
    .fil24 {fill:#6B4B88}
    .fil25 {fill:#6B4C89}
    .fil26 {fill:#6C4C89}
    .fil27 {fill:#6C4C8A}
    .fil28 {fill:#6D4D8B}
    .fil29 {fill:#6E4D8C}
    .fil30 {fill:#6E4E8D}
    .fil31 {fill:#6F4E8D}
    .fil32 {fill:#6F4E8E}
    .fil33 {fill:#704E8E}
    .fil34 {fill:#704F8F}
    .fil35 {fill:#714F90}
    .fil36 {fill:#725091}
    .fil37 {fill:#725092}
    .fil38 {fill:#735092}
    .fil39 {fill:#735193}
    .fil40 {fill:#745193}
    .fil41 {fill:#745194}
    .fil42 {fill:#755295}
    .fil43 {fill:#765296}
    .fil44 {fill:#765397}
    .fil45 {fill:#775397}
    .fil46 {fill:#775398}
    .fil47 {fill:#785499}
    .fil1 {fill:black;fill-opacity:0.000000}
    .fil49 {fill:url(#id2)}
   ]]></style><clipPath
       id="id0"><path
         d="M1585 9379l6838 0c527,0 958,-431 958,-958l0 -6838c0,-527 -431,-958 -958,-958l-6838 0c-527,0 -958,431 -958,958l0 6838c0,527 431,958 958,958z"
         id="path9" /></clipPath><clipPath
       id="id1"><path
         d="M1585 9379l6838 0c527,0 958,-431 958,-958l0 -6838c0,-527 -431,-958 -958,-958l-6838 0c-527,0 -958,431 -958,958l0 6838c0,527 431,958 958,958z"
         id="path12" /></clipPath><linearGradient
       id="id2"
       gradientUnits="userSpaceOnUse"
       x1="4956.4"
       y1="8339.45"
       x2="4956.4"
       y2="1534.69"><stop
         offset="0"
         style="stop-color:#999999"
         id="stop15" /><stop
         offset="0.4"
         style="stop-color:#E6E6E6"
         id="stop17" /><stop
         offset="1"
         style="stop-color:white"
         id="stop19" /></linearGradient></defs><g
     id="g16850"><g
       id="Layer_x0020_1"><metadata
         id="CorelCorpID_0Corel-Layer" /><g
         id="_353708944"><g
           id="_348901048"><path
             id="path25"
             d="M1446 30l7117 0c780,0 1413,633 1413,1413l0 7117c0,780 -633,1413 -1413,1413l-7117 0c-780,0 -1413,-633 -1413,-1413l0 -7117c0,-780 633,-1413 1413,-1413z"
             class="fil0" /><g
             id="g27"><g
               style="clip-path:url(#id0)"
               clip-path="url(#id0)"
               id="g29"><polygon
                 id="polygon31"
                 points="627,625 9381,625 9381,9379 627,9379 "
                 class="fil1" /></g><g
               style="clip-path:url(#id1)"
               clip-path="url(#id1)"
               id="g33"><g
                 id="g35"><polygon
                   points="627,625 9381,625 9381,9379 627,9379 627,625 656,654 9352,654 9352,9349 656,9349 656,654 "
                   class="fil0"
                   id="1" /><polygon
                   points="642,639 9366,639 9366,9364 642,9364 642,639 671,669 9337,669 9337,9335 671,9335 671,669 "
                   class="fil0"
                   id="_1" /><polygon
                   points="656,654 9352,654 9352,9349 656,9349 656,654 685,683 9323,683 9323,9320 685,9320 685,683 "
                   class="fil2"
                   id="_2" /><polygon
                   points="671,669 9337,669 9337,9335 671,9335 671,669 700,698 9308,698 9308,9306 700,9306 700,698 "
                   class="fil3"
                   id="_3" /><polygon
                   points="685,683 9323,683 9323,9320 685,9320 685,683 715,712 9293,712 9293,9291 715,9291 715,712 "
                   class="fil4"
                   id="_4" /><polygon
                   points="700,698 9308,698 9308,9306 700,9306 700,698 729,727 9279,727 9279,9277 729,9277 729,727 "
                   class="fil5"
                   id="_5" /><polygon
                   points="715,712 9293,712 9293,9291 715,9291 715,712 744,742 9264,742 9264,9262 744,9262 744,742 "
                   class="fil5"
                   id="_6" /><polygon
                   points="729,727 9279,727 9279,9277 729,9277 729,727 758,756 9250,756 9250,9247 758,9247 758,756 "
                   class="fil6"
                   id="_7" /><polygon
                   points="744,742 9264,742 9264,9262 744,9262 744,742 773,771 9235,771 9235,9233 773,9233 773,771 "
                   class="fil7"
                   id="_8" /><polygon
                   points="758,756 9250,756 9250,9247 758,9247 758,756 788,785 9220,785 9220,9218 788,9218 788,785 "
                   class="fil8"
                   id="_9" /><polygon
                   points="773,771 9235,771 9235,9233 773,9233 773,771 802,800 9206,800 9206,9204 802,9204 802,800 "
                   class="fil9"
                   id="_10" /><polygon
                   points="788,785 9220,785 9220,9218 788,9218 788,785 817,814 9191,814 9191,9189 817,9189 817,814 "
                   class="fil10"
                   id="_11" /><polygon
                   points="802,800 9206,800 9206,9204 802,9204 802,800 831,829 9177,829 9177,9174 831,9174 831,829 "
                   class="fil11"
                   id="_12" /><polygon
                   points="817,814 9191,814 9191,9189 817,9189 817,814 846,844 9162,844 9162,9160 846,9160 846,844 "
                   class="fil12"
                   id="_13" /><polygon
                   points="831,829 9177,829 9177,9174 831,9174 831,829 860,858 9147,858 9147,9145 860,9145 860,858 "
                   class="fil12"
                   id="_14" /><polygon
                   points="846,844 9162,844 9162,9160 846,9160 846,844 875,873 9133,873 9133,9131 875,9131 875,873 "
                   class="fil13"
                   id="_15" /><polygon
                   points="860,858 9147,858 9147,9145 860,9145 860,858 890,887 9118,887 9118,9116 890,9116 890,887 "
                   class="fil14"
                   id="_16" /><polygon
                   points="875,873 9133,873 9133,9131 875,9131 875,873 904,902 9104,902 9104,9101 904,9101 904,902 "
                   class="fil15"
                   id="_17" /><polygon
                   points="890,887 9118,887 9118,9116 890,9116 890,887 919,917 9089,917 9089,9087 919,9087 919,917 "
                   class="fil16"
                   id="_18" /><polygon
                   points="904,902 9104,902 9104,9101 904,9101 904,902 933,931 9075,931 9075,9072 933,9072 933,931 "
                   class="fil17"
                   id="_19" /><polygon
                   points="919,917 9089,917 9089,9087 919,9087 919,917 948,946 9060,946 9060,9058 948,9058 948,946 "
                   class="fil18"
                   id="_20" /><polygon
                   points="933,931 9075,931 9075,9072 933,9072 933,931 963,960 9045,960 9045,9043 963,9043 963,960 "
                   class="fil19"
                   id="_21" /><polygon
                   points="948,946 9060,946 9060,9058 948,9058 948,946 977,975 9031,975 9031,9028 977,9028 977,975 "
                   class="fil19"
                   id="_22" /><polygon
                   points="963,960 9045,960 9045,9043 963,9043 963,960 992,990 9016,990 9016,9014 992,9014 992,990 "
                   class="fil20"
                   id="_23" /><polygon
                   points="977,975 9031,975 9031,9028 977,9028 977,975 1006,1004 9002,1004 9002,8999 1006,8999 1006,1004 "
                   class="fil21"
                   id="_24" /><polygon
                   points="992,990 9016,990 9016,9014 992,9014 992,990 1021,1019 8987,1019 8987,8985 1021,8985 1021,1019 "
                   class="fil22"
                   id="_25" /><polygon
                   points="1006,1004 9002,1004 9002,8999 1006,8999 1006,1004 1036,1033 8972,1033 8972,8970 1036,8970 1036,1033 "
                   class="fil23"
                   id="_26" /><polygon
                   points="1021,1019 8987,1019 8987,8985 1021,8985 1021,1019 1050,1048 8958,1048 8958,8956 1050,8956 1050,1048 "
                   class="fil24"
                   id="_27" /><polygon
                   points="1036,1033 8972,1033 8972,8970 1036,8970 1036,1033 1065,1062 8943,1062 8943,8941 1065,8941 1065,1062 "
                   class="fil24"
                   id="_28" /><polygon
                   points="1050,1048 8958,1048 8958,8956 1050,8956 1050,1048 1079,1077 8929,1077 8929,8926 1079,8926 1079,1077 "
                   class="fil25"
                   id="_29" /><polygon
                   points="1065,1062 8943,1062 8943,8941 1065,8941 1065,1062 1094,1092 8914,1092 8914,8912 1094,8912 1094,1092 "
                   class="fil26"
                   id="_30" /><polygon
                   points="1079,1077 8929,1077 8929,8926 1079,8926 1079,1077 1109,1106 8899,1106 8899,8897 1109,8897 1109,1106 "
                   class="fil27"
                   id="_31" /><polygon
                   points="1094,1092 8914,1092 8914,8912 1094,8912 1094,1092 1123,1121 8885,1121 8885,8883 1123,8883 1123,1121 "
                   class="fil28"
                   id="_32" /><polygon
                   points="1109,1106 8899,1106 8899,8897 1109,8897 1109,1106 1138,1135 8870,1135 8870,8868 1138,8868 1138,1135 "
                   class="fil28"
                   id="_33" /><polygon
                   points="1123,1121 8885,1121 8885,8883 1123,8883 1123,1121 1152,1150 8856,1150 8856,8853 1152,8853 1152,1150 "
                   class="fil29"
                   id="_34" /><polygon
                   points="1138,1135 8870,1135 8870,8868 1138,8868 1138,1135 1167,1165 8841,1165 8841,8839 1167,8839 1167,1165 "
                   class="fil30"
                   id="_35" /><polygon
                   points="1152,1150 8856,1150 8856,8853 1152,8853 1152,1150 1181,1179 8826,1179 8826,8824 1181,8824 1181,1179 "
                   class="fil31"
                   id="_36" /><polygon
                   points="1167,1165 8841,1165 8841,8839 1167,8839 1167,1165 1196,1194 8812,1194 8812,8810 1196,8810 1196,1194 "
                   class="fil32"
                   id="_37" /><polygon
                   points="1181,1179 8827,1179 8827,8824 1181,8824 1181,1179 1211,1208 8797,1208 8797,8795 1211,8795 1211,1208 "
                   class="fil33"
                   id="_38" /><polygon
                   points="1196,1194 8812,1194 8812,8810 1196,8810 1196,1194 1225,1223 8783,1223 8783,8780 1225,8780 1225,1223 "
                   class="fil34"
                   id="_39" /><polygon
                   points="1211,1208 8797,1208 8797,8795 1211,8795 1211,1208 1240,1238 8768,1238 8768,8766 1240,8766 1240,1238 "
                   class="fil35"
                   id="_40" /><polygon
                   points="1225,1223 8783,1223 8783,8780 1225,8780 1225,1223 1254,1252 8754,1252 8754,8751 1254,8751 1254,1252 "
                   class="fil35"
                   id="_41" /><polygon
                   points="1240,1238 8768,1238 8768,8766 1240,8766 1240,1238 1269,1267 8739,1267 8739,8737 1269,8737 1269,1267 "
                   class="fil36"
                   id="_42" /><polygon
                   points="1254,1252 8754,1252 8754,8751 1254,8751 1254,1252 1284,1281 8724,1281 8724,8722 1284,8722 1284,1281 "
                   class="fil37"
                   id="_43" /><polygon
                   points="1269,1267 8739,1267 8739,8737 1269,8737 1269,1267 1298,1296 8710,1296 8710,8708 1298,8708 1298,1296 "
                   class="fil38"
                   id="_44" /><polygon
                   points="1284,1281 8724,1281 8724,8722 1284,8722 1284,1281 1313,1311 8695,1311 8695,8693 1313,8693 1313,1311 "
                   class="fil39"
                   id="_45" /><polygon
                   points="1298,1296 8710,1296 8710,8708 1298,8708 1298,1296 1327,1325 8681,1325 8681,8678 1327,8678 1327,1325 "
                   class="fil40"
                   id="_46" /><polygon
                   points="1313,1310 8695,1310 8695,8693 1313,8693 1313,1310 1342,1340 8666,1340 8666,8664 1342,8664 1342,1340 "
                   class="fil41"
                   id="_47" /><polygon
                   points="1327,1325 8681,1325 8681,8678 1327,8678 1327,1325 1357,1354 8651,1354 8651,8649 1357,8649 1357,1354 "
                   class="fil42"
                   id="_48" /><polygon
                   points="1342,1340 8666,1340 8666,8664 1342,8664 1342,1340 1371,1369 8637,1369 8637,8635 1371,8635 1371,1369 "
                   class="fil42"
                   id="_49" /><polygon
                   points="1357,1354 8651,1354 8651,8649 1357,8649 1357,1354 1386,1383 8622,1383 8622,8620 1386,8620 1386,1383 "
                   class="fil43"
                   id="_50" /><polygon
                   points="1371,1369 8637,1369 8637,8635 1371,8635 1371,1369 1400,1398 8608,1398 8608,8605 1400,8605 1400,1398 "
                   class="fil44"
                   id="_51" /><polygon
                   points="1386,1383 8622,1383 8622,8620 1386,8620 1386,1383 1415,1413 8593,1413 8593,8591 1415,8591 1415,1413 "
                   class="fil45"
                   id="_52" /><polygon
                   points="1400,1398 8608,1398 8608,8605 1400,8605 1400,1398 1429,1427 8578,1427 8578,8576 1429,8576 1429,1427 "
                   class="fil46"
                   id="_53" /><polygon
                   points="1415,1413 8593,1413 8593,8591 1415,8591 1415,1413 1444,1442 8564,1442 8564,8562 1444,8562 1444,1442 "
                   class="fil47"
                   id="_54" /><polygon
                   points="1429,1427 8578,1427 8578,8576 1429,8576 1429,1427 1459,1456 8549,1456 8549,8547 1459,8547 1459,1456 "
                   class="fil47"
                   id="_55" /><polygon
                   points="1444,1442 8564,1442 8564,8562 1444,8562 1444,1442 1473,1471 8535,1471 8535,8532 1473,8532 1473,1471 "
                   class="fil47"
                   id="_56" /><polygon
                   points="1459,1456 8549,1456 8549,8547 1459,8547 1459,1456 1488,1486 8520,1486 8520,8518 1488,8518 1488,1486 "
                   class="fil47"
                   id="_57" /><polygon
                   points="1473,1471 8535,1471 8535,8532 1473,8532 1473,1471 1502,1500 8506,1500 8506,8503 1502,8503 1502,1500 "
                   class="fil47"
                   id="_58" /><polygon
                   points="1488,1486 8520,1486 8520,8518 1488,8518 1488,1486 1517,1515 8491,1515 8491,8489 1517,8489 1517,1515 "
                   class="fil47"
                   id="_59" /><polygon
                   points="1502,1500 8506,1500 8506,8503 1502,8503 1502,1500 1532,1529 8476,1529 8476,8474 1532,8474 1532,1529 "
                   class="fil47"
                   id="_60" /><polygon
                   points="1517,1515 8491,1515 8491,8489 1517,8489 1517,1515 1546,1544 8462,1544 8462,8460 1546,8460 1546,1544 "
                   class="fil47"
                   id="_61" /><polygon
                   points="1532,1529 8476,1529 8476,8474 1532,8474 1532,1529 1561,1559 8447,1559 8447,8445 1561,8445 1561,1559 "
                   class="fil47"
                   id="_62" /><polygon
                   points="1546,1544 8462,1544 8462,8460 1546,8460 1546,1544 1575,1573 8433,1573 8433,8430 1575,8430 1575,1573 "
                   class="fil47"
                   id="_63" /><polygon
                   points="1561,1559 8447,1559 8447,8445 1561,8445 1561,1559 1590,1588 8418,1588 8418,8416 1590,8416 1590,1588 "
                   class="fil47"
                   id="_64" /><polygon
                   points="1575,1573 8433,1573 8433,8430 1575,8430 1575,1573 1605,1602 8403,1602 8403,8401 1605,8401 1605,1602 "
                   class="fil47"
                   id="_65" /><polygon
                   points="1590,1588 8418,1588 8418,8416 1590,8416 1590,1588 1619,1617 8389,1617 8389,8387 1619,8387 1619,1617 "
                   class="fil47"
                   id="_66" /><polygon
                   points="1605,1602 8403,1602 8403,8401 1605,8401 1605,1602 1634,1631 8374,1631 8374,8372 1634,8372 1634,1631 "
                   class="fil47"
                   id="_67" /><polygon
                   points="1619,1617 8389,1617 8389,8387 1619,8387 1619,1617 1648,1646 8360,1646 8360,8357 1648,8357 1648,1646 "
                   class="fil47"
                   id="_68" /><polygon
                   points="1634,1631 8374,1631 8374,8372 1634,8372 1634,1631 1663,1661 8345,1661 8345,8343 1663,8343 1663,1661 "
                   class="fil47"
                   id="_69" /><polygon
                   points="1648,1646 8360,1646 8360,8357 1648,8357 1648,1646 1677,1675 8330,1675 8330,8328 1677,8328 1677,1675 "
                   class="fil47"
                   id="_70" /><polygon
                   points="1663,1661 8345,1661 8345,8343 1663,8343 1663,1661 1692,1690 8316,1690 8316,8314 1692,8314 1692,1690 "
                   class="fil47"
                   id="_71" /><polygon
                   points="1677,1675 8330,1675 8330,8328 1677,8328 1677,1675 1707,1704 8301,1704 8301,8299 1707,8299 1707,1704 "
                   class="fil47"
                   id="_72" /><polygon
                   points="1692,1690 8316,1690 8316,8314 1692,8314 1692,1690 1721,1719 8287,1719 8287,8284 1721,8284 1721,1719 "
                   class="fil47"
                   id="_73" /><polygon
                   points="1707,1704 8301,1704 8301,8299 1707,8299 1707,1704 1736,1734 8272,1734 8272,8270 1736,8270 1736,1734 "
                   class="fil47"
                   id="_74" /><polygon
                   points="1721,1719 8287,1719 8287,8284 1721,8284 1721,1719 1750,1748 8258,1748 8258,8255 1750,8255 1750,1748 "
                   class="fil47"
                   id="_75" /><polygon
                   points="1736,1734 8272,1734 8272,8270 1736,8270 1736,1734 1765,1763 8243,1763 8243,8241 1765,8241 1765,1763 "
                   class="fil47"
                   id="_76" /><polygon
                   points="1750,1748 8258,1748 8258,8255 1750,8255 1750,1748 1780,1777 8228,1777 8228,8226 1780,8226 1780,1777 "
                   class="fil47"
                   id="_77" /><polygon
                   points="1765,1763 8243,1763 8243,8241 1765,8241 1765,1763 1794,1792 8214,1792 8214,8211 1794,8211 1794,1792 "
                   class="fil47"
                   id="_78" /><polygon
                   points="1780,1777 8228,1777 8228,8226 1780,8226 1780,1777 1809,1807 8199,1807 8199,8197 1809,8197 1809,1807 "
                   class="fil47"
                   id="_79" /><polygon
                   points="1794,1792 8214,1792 8214,8211 1794,8211 1794,1792 1823,1821 8185,1821 8185,8182 1823,8182 1823,1821 "
                   class="fil47"
                   id="_80" /><polygon
                   points="1809,1807 8199,1807 8199,8197 1809,8197 1809,1807 1838,1836 8170,1836 8170,8168 1838,8168 1838,1836 "
                   class="fil47"
                   id="_81" /><polygon
                   points="1823,1821 8185,1821 8185,8182 1823,8182 1823,1821 1853,1850 8155,1850 8155,8153 1853,8153 1853,1850 "
                   class="fil47"
                   id="_82" /><polygon
                   points="1838,1836 8170,1836 8170,8168 1838,8168 1838,1836 1867,1865 8141,1865 8141,8139 1867,8139 1867,1865 "
                   class="fil47"
                   id="_83" /><polygon
                   points="1853,1850 8155,1850 8155,8153 1853,8153 1853,1850 1882,1879 8126,1879 8126,8124 1882,8124 1882,1879 "
                   class="fil47"
                   id="_84" /><polygon
                   points="1867,1865 8141,1865 8141,8139 1867,8139 1867,1865 1896,1894 8112,1894 8112,8109 1896,8109 1896,1894 "
                   class="fil47"
                   id="_85" /><polygon
                   points="1882,1879 8126,1879 8126,8124 1882,8124 1882,1879 1911,1909 8097,1909 8097,8095 1911,8095 1911,1909 "
                   class="fil47"
                   id="_86" /><polygon
                   points="1896,1894 8112,1894 8112,8109 1896,8109 1896,1894 1926,1923 8082,1923 8082,8080 1926,8080 1926,1923 "
                   class="fil47"
                   id="_87" /><polygon
                   points="1911,1909 8097,1909 8097,8095 1911,8095 1911,1909 1940,1938 8068,1938 8068,8066 1940,8066 1940,1938 "
                   class="fil47"
                   id="_88" /><polygon
                   points="1926,1923 8082,1923 8082,8080 1926,8080 1926,1923 1955,1952 8053,1952 8053,8051 1955,8051 1955,1952 "
                   class="fil47"
                   id="_89" /><polygon
                   points="1940,1938 8068,1938 8068,8066 1940,8066 1940,1938 1969,1967 8039,1967 8039,8036 1969,8036 1969,1967 "
                   class="fil47"
                   id="_90" /><polygon
                   points="1955,1952 8053,1952 8053,8051 1955,8051 1955,1952 1984,1982 8024,1982 8024,8022 1984,8022 1984,1982 "
                   class="fil47"
                   id="_91" /><polygon
                   points="1969,1967 8039,1967 8039,8036 1969,8036 1969,1967 1998,1996 8009,1996 8009,8007 1998,8007 1998,1996 "
                   class="fil47"
                   id="_92" /><polygon
                   points="1984,1982 8024,1982 8024,8022 1984,8022 1984,1982 2013,2011 7995,2011 7995,7993 2013,7993 2013,2011 "
                   class="fil47"
                   id="_93" /><polygon
                   points="1998,1996 8009,1996 8009,8007 1998,8007 1998,1996 2028,2025 7980,2025 7980,7978 2028,7978 2028,2025 "
                   class="fil47"
                   id="_94" /><polygon
                   points="2013,2011 7995,2011 7995,7993 2013,7993 2013,2011 2042,2040 7966,2040 7966,7963 2042,7963 2042,2040 "
                   class="fil47"
                   id="_95" /><polygon
                   points="2028,2025 7980,2025 7980,7978 2028,7978 2028,2025 2057,2055 7951,2055 7951,7949 2057,7949 2057,2055 "
                   class="fil47"
                   id="_96" /><polygon
                   points="2042,2040 7966,2040 7966,7963 2042,7963 2042,2040 2071,2069 7937,2069 7937,7934 2071,7934 2071,2069 "
                   class="fil47"
                   id="_97" /><polygon
                   points="2057,2055 7951,2055 7951,7949 2057,7949 2057,2055 2086,2084 7922,2084 7922,7920 2086,7920 2086,2084 "
                   class="fil47"
                   id="_98" /><polygon
                   points="2071,2069 7937,2069 7937,7934 2071,7934 2071,2069 2101,2098 7907,2098 7907,7905 2101,7905 2101,2098 "
                   class="fil47"
                   id="_99" /><polygon
                   points="2086,2084 7922,2084 7922,7920 2086,7920 2086,2084 2115,2113 7893,2113 7893,7891 2115,7891 2115,2113 "
                   class="fil47"
                   id="_100" /><polygon
                   points="2101,2098 7907,2098 7907,7905 2101,7905 2101,2098 2130,2128 7878,2128 7878,7876 2130,7876 2130,2128 "
                   class="fil47"
                   id="_101" /><polygon
                   points="2115,2113 7893,2113 7893,7891 2115,7891 2115,2113 2144,2142 7864,2142 7864,7861 2144,7861 2144,2142 "
                   class="fil47"
                   id="_102" /><polygon
                   points="2130,2128 7878,2128 7878,7876 2130,7876 2130,2128 2159,2157 7849,2157 7849,7847 2159,7847 2159,2157 "
                   class="fil47"
                   id="_103" /><polygon
                   points="2144,2142 7864,2142 7864,7861 2144,7861 2144,2142 2174,2171 7834,2171 7834,7832 2174,7832 2174,2171 "
                   class="fil47"
                   id="_104" /><polygon
                   points="2159,2157 7849,2157 7849,7847 2159,7847 2159,2157 2188,2186 7820,2186 7820,7818 2188,7818 2188,2186 "
                   class="fil47"
                   id="_105" /><polygon
                   points="2174,2171 7834,2171 7834,7832 2174,7832 2174,2171 2203,2200 7805,2200 7805,7803 2203,7803 2203,2200 "
                   class="fil47"
                   id="_106" /><polygon
                   points="2188,2186 7820,2186 7820,7818 2188,7818 2188,2186 2217,2215 7791,2215 7791,7788 2217,7788 2217,2215 "
                   class="fil47"
                   id="_107" /><polygon
                   points="2203,2200 7805,2200 7805,7803 2203,7803 2203,2200 2232,2230 7776,2230 7776,7774 2232,7774 2232,2230 "
                   class="fil47"
                   id="_108" /><polygon
                   points="2217,2215 7791,2215 7791,7788 2217,7788 2217,2215 2247,2244 7761,2244 7761,7759 2247,7759 2247,2244 "
                   class="fil47"
                   id="_109" /><polygon
                   points="2232,2230 7776,2230 7776,7774 2232,7774 2232,2230 2261,2259 7747,2259 7747,7745 2261,7745 2261,2259 "
                   class="fil47"
                   id="_110" /><polygon
                   points="2247,2244 7761,2244 7761,7759 2247,7759 2247,2244 2276,2273 7732,2273 7732,7730 2276,7730 2276,2273 "
                   class="fil47"
                   id="_111" /><polygon
                   points="2261,2259 7747,2259 7747,7745 2261,7745 2261,2259 2290,2288 7718,2288 7718,7715 2290,7715 2290,2288 "
                   class="fil47"
                   id="_112" /><polygon
                   points="2276,2273 7732,2273 7732,7730 2276,7730 2276,2273 2305,2303 7703,2303 7703,7701 2305,7701 2305,2303 "
                   class="fil47"
                   id="_113" /><polygon
                   points="2290,2288 7718,2288 7718,7715 2290,7715 2290,2288 2319,2317 7688,2317 7688,7686 2319,7686 2319,2317 "
                   class="fil47"
                   id="_114" /><polygon
                   points="2305,2303 7703,2303 7703,7701 2305,7701 2305,2303 2334,2332 7674,2332 7674,7672 2334,7672 2334,2332 "
                   class="fil47"
                   id="_115" /><polygon
                   points="2319,2317 7688,2317 7688,7686 2319,7686 2319,2317 2349,2346 7659,2346 7659,7657 2349,7657 2349,2346 "
                   class="fil47"
                   id="_116" /><polygon
                   points="2334,2332 7674,2332 7674,7672 2334,7672 2334,2332 2363,2361 7645,2361 7645,7642 2363,7642 2363,2361 "
                   class="fil47"
                   id="_117" /><polygon
                   points="2349,2346 7659,2346 7659,7657 2349,7657 2349,2346 2378,2376 7630,2376 7630,7628 2378,7628 2378,2376 "
                   class="fil47"
                   id="_118" /><polygon
                   points="2363,2361 7645,2361 7645,7642 2363,7642 2363,2361 2392,2390 7616,2390 7616,7613 2392,7613 2392,2390 "
                   class="fil47"
                   id="_119" /><polygon
                   points="2378,2376 7630,2376 7630,7628 2378,7628 2378,2376 2407,2405 7601,2405 7601,7599 2407,7599 2407,2405 "
                   class="fil47"
                   id="_120" /><polygon
                   points="2392,2390 7616,2390 7616,7613 2392,7613 2392,2390 2422,2419 7586,2419 7586,7584 2422,7584 2422,2419 "
                   class="fil47"
                   id="_121" /><polygon
                   points="2407,2405 7601,2405 7601,7599 2407,7599 2407,2405 2436,2434 7572,2434 7572,7570 2436,7570 2436,2434 "
                   class="fil47"
                   id="_122" /><polygon
                   points="2422,2419 7586,2419 7586,7584 2422,7584 2422,2419 2451,2449 7557,2449 7557,7555 2451,7555 2451,2449 "
                   class="fil47"
                   id="_123" /><polygon
                   points="2436,2434 7572,2434 7572,7570 2436,7570 2436,2434 2465,2463 7543,2463 7543,7540 2465,7540 2465,2463 "
                   class="fil47"
                   id="_124" /><polygon
                   points="2451,2449 7557,2449 7557,7555 2451,7555 2451,2449 2480,2478 7528,2478 7528,7526 2480,7526 2480,2478 "
                   class="fil47"
                   id="_125" /><polygon
                   points="2465,2463 7543,2463 7543,7540 2465,7540 2465,2463 2495,2492 7513,2492 7513,7511 2495,7511 2495,2492 "
                   class="fil47"
                   id="_126" /><polygon
                   points="2480,2478 7528,2478 7528,7526 2480,7526 2480,2478 2509,2507 7499,2507 7499,7497 2509,7497 2509,2507 "
                   class="fil47"
                   id="_127" /><polygon
                   points="2495,2492 7513,2492 7513,7511 2495,7511 2495,2492 2524,2521 7484,2521 7484,7482 2524,7482 2524,2521 "
                   class="fil47"
                   id="_128" /><polygon
                   points="2509,2507 7499,2507 7499,7497 2509,7497 2509,2507 2538,2536 7470,2536 7470,7467 2538,7467 2538,2536 "
                   class="fil47"
                   id="_129" /><polygon
                   points="2524,2521 7484,2521 7484,7482 2524,7482 2524,2521 2553,2551 7455,2551 7455,7453 2553,7453 2553,2551 "
                   class="fil47"
                   id="_130" /><polygon
                   points="2538,2536 7470,2536 7470,7467 2538,7467 2538,2536 2567,2565 7440,2565 7440,7438 2567,7438 2567,2565 "
                   class="fil47"
                   id="_131" /><polygon
                   points="2553,2551 7455,2551 7455,7453 2553,7453 2553,2551 2582,2580 7426,2580 7426,7424 2582,7424 2582,2580 "
                   class="fil47"
                   id="_132" /><polygon
                   points="2567,2565 7440,2565 7440,7438 2567,7438 2567,2565 2597,2594 7411,2594 7411,7409 2597,7409 2597,2594 "
                   class="fil47"
                   id="_133" /><polygon
                   points="2582,2580 7426,2580 7426,7424 2582,7424 2582,2580 2611,2609 7397,2609 7397,7394 2611,7394 2611,2609 "
                   class="fil47"
                   id="_134" /><polygon
                   points="2597,2594 7411,2594 7411,7409 2597,7409 2597,2594 2626,2624 7382,2624 7382,7380 2626,7380 2626,2624 "
                   class="fil47"
                   id="_135" /><polygon
                   points="2611,2609 7397,2609 7397,7394 2611,7394 2611,2609 2640,2638 7368,2638 7368,7365 2640,7365 2640,2638 "
                   class="fil47"
                   id="_136" /><polygon
                   points="2626,2624 7382,2624 7382,7380 2626,7380 2626,2624 2655,2653 7353,2653 7353,7351 2655,7351 2655,2653 "
                   class="fil47"
                   id="_137" /><polygon
                   points="2640,2638 7368,2638 7368,7365 2640,7365 2640,2638 2670,2667 7338,2667 7338,7336 2670,7336 2670,2667 "
                   class="fil47"
                   id="_138" /><polygon
                   points="2655,2653 7353,2653 7353,7351 2655,7351 2655,2653 2684,2682 7324,2682 7324,7321 2684,7321 2684,2682 "
                   class="fil47"
                   id="_139" /><polygon
                   points="2670,2667 7338,2667 7338,7336 2670,7336 2670,2667 2699,2697 7309,2697 7309,7307 2699,7307 2699,2697 "
                   class="fil47"
                   id="_140" /><polygon
                   points="2684,2682 7324,2682 7324,7321 2684,7321 2684,2682 2713,2711 7295,2711 7295,7292 2713,7292 2713,2711 "
                   class="fil47"
                   id="_141" /><polygon
                   points="2699,2697 7309,2697 7309,7307 2699,7307 2699,2697 2728,2726 7280,2726 7280,7278 2728,7278 2728,2726 "
                   class="fil47"
                   id="_142" /><polygon
                   points="2713,2711 7295,2711 7295,7292 2713,7292 2713,2711 2743,2740 7265,2740 7265,7263 2743,7263 2743,2740 "
                   class="fil47"
                   id="_143" /><polygon
                   points="2728,2726 7280,2726 7280,7278 2728,7278 2728,2726 2757,2755 7251,2755 7251,7249 2757,7249 2757,2755 "
                   class="fil47"
                   id="_144" /><polygon
                   points="2743,2740 7265,2740 7265,7263 2743,7263 2743,2740 2772,2769 7236,2769 7236,7234 2772,7234 2772,2769 "
                   class="fil47"
                   id="_145" /><polygon
                   points="2757,2755 7251,2755 7251,7249 2757,7249 2757,2755 2786,2784 7222,2784 7222,7219 2786,7219 2786,2784 "
                   class="fil47"
                   id="_146" /><polygon
                   points="2772,2769 7236,2769 7236,7234 2772,7234 2772,2769 2801,2799 7207,2799 7207,7205 2801,7205 2801,2799 "
                   class="fil47"
                   id="_147" /><polygon
                   points="2786,2784 7222,2784 7222,7219 2786,7219 2786,2784 2816,2813 7192,2813 7192,7190 2816,7190 2816,2813 "
                   class="fil47"
                   id="_148" /><polygon
                   points="2801,2799 7207,2799 7207,7205 2801,7205 2801,2799 2830,2828 7178,2828 7178,7176 2830,7176 2830,2828 "
                   class="fil47"
                   id="_149" /><polygon
                   points="2816,2813 7192,2813 7192,7190 2816,7190 2816,2813 2845,2842 7163,2842 7163,7161 2845,7161 2845,2842 "
                   class="fil47"
                   id="_150" /><polygon
                   points="2830,2828 7178,2828 7178,7176 2830,7176 2830,2828 2859,2857 7149,2857 7149,7146 2859,7146 2859,2857 "
                   class="fil47"
                   id="_151" /><polygon
                   points="2845,2842 7163,2842 7163,7161 2845,7161 2845,2842 2874,2872 7134,2872 7134,7132 2874,7132 2874,2872 "
                   class="fil47"
                   id="_152" /><polygon
                   points="2859,2857 7149,2857 7149,7146 2859,7146 2859,2857 2888,2886 7119,2886 7119,7117 2888,7117 2888,2886 "
                   class="fil47"
                   id="_153" /><polygon
                   points="2874,2872 7134,2872 7134,7132 2874,7132 2874,2872 2903,2901 7105,2901 7105,7103 2903,7103 2903,2901 "
                   class="fil47"
                   id="_154" /><polygon
                   points="2888,2886 7119,2886 7119,7117 2888,7117 2888,2886 2918,2915 7090,2915 7090,7088 2918,7088 2918,2915 "
                   class="fil47"
                   id="_155" /><polygon
                   points="2903,2901 7105,2901 7105,7103 2903,7103 2903,2901 2932,2930 7076,2930 7076,7073 2932,7073 2932,2930 "
                   class="fil47"
                   id="_156" /><polygon
                   points="2918,2915 7090,2915 7090,7088 2918,7088 2918,2915 2947,2945 7061,2945 7061,7059 2947,7059 2947,2945 "
                   class="fil47"
                   id="_157" /><polygon
                   points="2932,2930 7076,2930 7076,7073 2932,7073 2932,2930 2961,2959 7047,2959 7047,7044 2961,7044 2961,2959 "
                   class="fil47"
                   id="_158" /><polygon
                   points="2947,2945 7061,2945 7061,7059 2947,7059 2947,2945 2976,2974 7032,2974 7032,7030 2976,7030 2976,2974 "
                   class="fil47"
                   id="_159" /><polygon
                   points="2961,2959 7047,2959 7047,7044 2961,7044 2961,2959 2991,2988 7017,2988 7017,7015 2991,7015 2991,2988 "
                   class="fil47"
                   id="_160" /><polygon
                   points="2976,2974 7032,2974 7032,7030 2976,7030 2976,2974 3005,3003 7003,3003 7003,7001 3005,7001 3005,3003 "
                   class="fil47"
                   id="_161" /><polygon
                   points="2991,2988 7017,2988 7017,7015 2991,7015 2991,2988 3020,3018 6988,3018 6988,6986 3020,6986 3020,3018 "
                   class="fil47"
                   id="_162" /><polygon
                   points="3005,3003 7003,3003 7003,7001 3005,7001 3005,3003 3034,3032 6974,3032 6974,6971 3034,6971 3034,3032 "
                   class="fil47"
                   id="_163" /><polygon
                   points="3020,3018 6988,3018 6988,6986 3020,6986 3020,3018 3049,3047 6959,3047 6959,6957 3049,6957 3049,3047 "
                   class="fil47"
                   id="_164" /><polygon
                   points="3034,3032 6974,3032 6974,6971 3034,6971 3034,3032 3064,3061 6944,3061 6944,6942 3064,6942 3064,3061 "
                   class="fil47"
                   id="_165" /><polygon
                   points="3049,3047 6959,3047 6959,6957 3049,6957 3049,3047 3078,3076 6930,3076 6930,6928 3078,6928 3078,3076 "
                   class="fil47"
                   id="_166" /><polygon
                   points="3064,3061 6944,3061 6944,6942 3064,6942 3064,3061 3093,3090 6915,3090 6915,6913 3093,6913 3093,3090 "
                   class="fil47"
                   id="_167" /><polygon
                   points="3078,3076 6930,3076 6930,6928 3078,6928 3078,3076 3107,3105 6901,3105 6901,6898 3107,6898 3107,3105 "
                   class="fil47"
                   id="_168" /><polygon
                   points="3093,3090 6915,3090 6915,6913 3093,6913 3093,3090 3122,3120 6886,3120 6886,6884 3122,6884 3122,3120 "
                   class="fil47"
                   id="_169" /><polygon
                   points="3107,3105 6901,3105 6901,6898 3107,6898 3107,3105 3136,3134 6871,3134 6871,6869 3136,6869 3136,3134 "
                   class="fil47"
                   id="_170" /><polygon
                   points="3122,3120 6886,3120 6886,6884 3122,6884 3122,3120 3151,3149 6857,3149 6857,6855 3151,6855 3151,3149 "
                   class="fil47"
                   id="_171" /><polygon
                   points="3136,3134 6871,3134 6871,6869 3136,6869 3136,3134 3166,3163 6842,3163 6842,6840 3166,6840 3166,3163 "
                   class="fil47"
                   id="_172" /><polygon
                   points="3151,3149 6857,3149 6857,6855 3151,6855 3151,3149 3180,3178 6828,3178 6828,6825 3180,6825 3180,3178 "
                   class="fil47"
                   id="_173" /><polygon
                   points="3166,3163 6842,3163 6842,6840 3166,6840 3166,3163 3195,3193 6813,3193 6813,6811 3195,6811 3195,3193 "
                   class="fil47"
                   id="_174" /><polygon
                   points="3180,3178 6828,3178 6828,6825 3180,6825 3180,3178 3209,3207 6799,3207 6799,6796 3209,6796 3209,3207 "
                   class="fil47"
                   id="_175" /><polygon
                   points="3195,3193 6813,3193 6813,6811 3195,6811 3195,3193 3224,3222 6784,3222 6784,6782 3224,6782 3224,3222 "
                   class="fil47"
                   id="_176" /><polygon
                   points="3209,3207 6799,3207 6799,6796 3209,6796 3209,3207 3239,3236 6769,3236 6769,6767 3239,6767 3239,3236 "
                   class="fil47"
                   id="_177" /><polygon
                   points="3224,3222 6784,3222 6784,6782 3224,6782 3224,3222 3253,3251 6755,3251 6755,6752 3253,6752 3253,3251 "
                   class="fil47"
                   id="_178" /><polygon
                   points="3239,3236 6769,3236 6769,6767 3239,6767 3239,3236 3268,3266 6740,3266 6740,6738 3268,6738 3268,3266 "
                   class="fil47"
                   id="_179" /><polygon
                   points="3253,3251 6755,3251 6755,6752 3253,6752 3253,3251 3282,3280 6726,3280 6726,6723 3282,6723 3282,3280 "
                   class="fil47"
                   id="_180" /><polygon
                   points="3268,3266 6740,3266 6740,6738 3268,6738 3268,3266 3297,3295 6711,3295 6711,6709 3297,6709 3297,3295 "
                   class="fil47"
                   id="_181" /><polygon
                   points="3282,3280 6726,3280 6726,6723 3282,6723 3282,3280 3312,3309 6696,3309 6696,6694 3312,6694 3312,3309 "
                   class="fil47"
                   id="_182" /><polygon
                   points="3297,3295 6711,3295 6711,6709 3297,6709 3297,3295 3326,3324 6682,3324 6682,6680 3326,6680 3326,3324 "
                   class="fil47"
                   id="_183" /><polygon
                   points="3312,3309 6696,3309 6696,6694 3312,6694 3312,3309 3341,3339 6667,3339 6667,6665 3341,6665 3341,3339 "
                   class="fil47"
                   id="_184" /><polygon
                   points="3326,3324 6682,3324 6682,6680 3326,6680 3326,3324 3355,3353 6653,3353 6653,6650 3355,6650 3355,3353 "
                   class="fil47"
                   id="_185" /><polygon
                   points="3341,3338 6667,3338 6667,6665 3341,6665 3341,3338 3370,3368 6638,3368 6638,6636 3370,6636 3370,3368 "
                   class="fil47"
                   id="_186" /><polygon
                   points="3355,3353 6653,3353 6653,6650 3355,6650 3355,3353 3385,3382 6623,3382 6623,6621 3385,6621 3385,3382 "
                   class="fil47"
                   id="_187" /><polygon
                   points="3370,3368 6638,3368 6638,6636 3370,6636 3370,3368 3399,3397 6609,3397 6609,6607 3399,6607 3399,3397 "
                   class="fil47"
                   id="_188" /><polygon
                   points="3385,3382 6623,3382 6623,6621 3385,6621 3385,3382 3414,3411 6594,3411 6594,6592 3414,6592 3414,3411 "
                   class="fil47"
                   id="_189" /><polygon
                   points="3399,3397 6609,3397 6609,6607 3399,6607 3399,3397 3428,3426 6580,3426 6580,6577 3428,6577 3428,3426 "
                   class="fil47"
                   id="_190" /><polygon
                   points="3414,3411 6594,3411 6594,6592 3414,6592 3414,3411 3443,3441 6565,3441 6565,6563 3443,6563 3443,3441 "
                   class="fil47"
                   id="_191" /><polygon
                   points="3428,3426 6580,3426 6580,6577 3428,6577 3428,3426 3457,3455 6550,3455 6550,6548 3457,6548 3457,3455 "
                   class="fil47"
                   id="_192" /><polygon
                   points="3443,3441 6565,3441 6565,6563 3443,6563 3443,3441 3472,3470 6536,3470 6536,6534 3472,6534 3472,3470 "
                   class="fil47"
                   id="_193" /><polygon
                   points="3457,3455 6550,3455 6550,6548 3457,6548 3457,3455 3487,3484 6521,3484 6521,6519 3487,6519 3487,3484 "
                   class="fil47"
                   id="_194" /><polygon
                   points="3472,3470 6536,3470 6536,6534 3472,6534 3472,3470 3501,3499 6507,3499 6507,6504 3501,6504 3501,3499 "
                   class="fil47"
                   id="_195" /><polygon
                   points="3487,3484 6521,3484 6521,6519 3487,6519 3487,3484 3516,3514 6492,3514 6492,6490 3516,6490 3516,3514 "
                   class="fil47"
                   id="_196" /><polygon
                   points="3501,3499 6507,3499 6507,6504 3501,6504 3501,3499 3530,3528 6478,3528 6478,6475 3530,6475 3530,3528 "
                   class="fil47"
                   id="_197" /><polygon
                   points="3516,3514 6492,3514 6492,6490 3516,6490 3516,3514 3545,3543 6463,3543 6463,6461 3545,6461 3545,3543 "
                   class="fil47"
                   id="_198" /><polygon
                   points="3530,3528 6478,3528 6478,6475 3530,6475 3530,3528 3560,3557 6448,3557 6448,6446 3560,6446 3560,3557 "
                   class="fil47"
                   id="_199" /><polygon
                   points="3545,3543 6463,3543 6463,6461 3545,6461 3545,3543 3574,3572 6434,3572 6434,6432 3574,6432 3574,3572 "
                   class="fil47"
                   id="_200" /><polygon
                   points="3560,3557 6448,3557 6448,6446 3560,6446 3560,3557 3589,3587 6419,3587 6419,6417 3589,6417 3589,3587 "
                   class="fil47"
                   id="_201" /><polygon
                   points="3574,3572 6434,3572 6434,6432 3574,6432 3574,3572 3603,3601 6405,3601 6405,6402 3603,6402 3603,3601 "
                   class="fil47"
                   id="_202" /><polygon
                   points="3589,3587 6419,3587 6419,6417 3589,6417 3589,3587 3618,3616 6390,3616 6390,6388 3618,6388 3618,3616 "
                   class="fil47"
                   id="_203" /><polygon
                   points="3603,3601 6405,3601 6405,6402 3603,6402 3603,3601 3633,3630 6375,3630 6375,6373 3633,6373 3633,3630 "
                   class="fil47"
                   id="_204" /><polygon
                   points="3618,3616 6390,3616 6390,6388 3618,6388 3618,3616 3647,3645 6361,3645 6361,6359 3647,6359 3647,3645 "
                   class="fil47"
                   id="_205" /><polygon
                   points="3633,3630 6375,3630 6375,6373 3633,6373 3633,3630 3662,3659 6346,3659 6346,6344 3662,6344 3662,3659 "
                   class="fil47"
                   id="_206" /><polygon
                   points="3647,3645 6361,3645 6361,6359 3647,6359 3647,3645 3676,3674 6332,3674 6332,6329 3676,6329 3676,3674 "
                   class="fil47"
                   id="_207" /><polygon
                   points="3662,3659 6346,3659 6346,6344 3662,6344 3662,3659 3691,3689 6317,3689 6317,6315 3691,6315 3691,3689 "
                   class="fil47"
                   id="_208" /><polygon
                   points="3676,3674 6332,3674 6332,6329 3676,6329 3676,3674 3705,3703 6302,3703 6302,6300 3705,6300 3705,3703 "
                   class="fil47"
                   id="_209" /><polygon
                   points="3691,3689 6317,3689 6317,6315 3691,6315 3691,3689 3720,3718 6288,3718 6288,6286 3720,6286 3720,3718 "
                   class="fil47"
                   id="_210" /><polygon
                   points="3705,3703 6302,3703 6302,6300 3705,6300 3705,3703 3735,3732 6273,3732 6273,6271 3735,6271 3735,3732 "
                   class="fil47"
                   id="_211" /><polygon
                   points="3720,3718 6288,3718 6288,6286 3720,6286 3720,3718 3749,3747 6259,3747 6259,6256 3749,6256 3749,3747 "
                   class="fil47"
                   id="_212" /><polygon
                   points="3735,3732 6273,3732 6273,6271 3735,6271 3735,3732 3764,3762 6244,3762 6244,6242 3764,6242 3764,3762 "
                   class="fil47"
                   id="_213" /><polygon
                   points="3749,3747 6259,3747 6259,6256 3749,6256 3749,3747 3778,3776 6230,3776 6230,6227 3778,6227 3778,3776 "
                   class="fil47"
                   id="_214" /><polygon
                   points="3764,3762 6244,3762 6244,6242 3764,6242 3764,3762 3793,3791 6215,3791 6215,6213 3793,6213 3793,3791 "
                   class="fil47"
                   id="_215" /><polygon
                   points="3778,3776 6230,3776 6230,6227 3778,6227 3778,3776 3808,3805 6200,3805 6200,6198 3808,6198 3808,3805 "
                   class="fil47"
                   id="_216" /><polygon
                   points="3793,3791 6215,3791 6215,6213 3793,6213 3793,3791 3822,3820 6186,3820 6186,6183 3822,6183 3822,3820 "
                   class="fil47"
                   id="_217" /><polygon
                   points="3808,3805 6200,3805 6200,6198 3808,6198 3808,3805 3837,3835 6171,3835 6171,6169 3837,6169 3837,3835 "
                   class="fil47"
                   id="_218" /><polygon
                   points="3822,3820 6186,3820 6186,6183 3822,6183 3822,3820 3851,3849 6157,3849 6157,6154 3851,6154 3851,3849 "
                   class="fil47"
                   id="_219" /><polygon
                   points="3837,3835 6171,3835 6171,6169 3837,6169 3837,3835 3866,3864 6142,3864 6142,6140 3866,6140 3866,3864 "
                   class="fil47"
                   id="_220" /><polygon
                   points="3851,3849 6157,3849 6157,6154 3851,6154 3851,3849 3881,3878 6127,3878 6127,6125 3881,6125 3881,3878 "
                   class="fil47"
                   id="_221" /><polygon
                   points="3866,3864 6142,3864 6142,6140 3866,6140 3866,3864 3895,3893 6113,3893 6113,6111 3895,6111 3895,3893 "
                   class="fil47"
                   id="_222" /><polygon
                   points="3881,3878 6127,3878 6127,6125 3881,6125 3881,3878 3910,3907 6098,3907 6098,6096 3910,6096 3910,3907 "
                   class="fil47"
                   id="_223" /><polygon
                   points="3895,3893 6113,3893 6113,6111 3895,6111 3895,3893 3924,3922 6084,3922 6084,6081 3924,6081 3924,3922 "
                   class="fil47"
                   id="_224" /><polygon
                   points="3910,3907 6098,3907 6098,6096 3910,6096 3910,3907 3939,3937 6069,3937 6069,6067 3939,6067 3939,3937 "
                   class="fil47"
                   id="_225" /><polygon
                   points="3924,3922 6084,3922 6084,6081 3924,6081 3924,3922 3954,3951 6054,3951 6054,6052 3954,6052 3954,3951 "
                   class="fil47"
                   id="_226" /><polygon
                   points="3939,3937 6069,3937 6069,6067 3939,6067 3939,3937 3968,3966 6040,3966 6040,6038 3968,6038 3968,3966 "
                   class="fil47"
                   id="_227" /><polygon
                   points="3954,3951 6054,3951 6054,6052 3954,6052 3954,3951 3983,3980 6025,3980 6025,6023 3983,6023 3983,3980 "
                   class="fil47"
                   id="_228" /><polygon
                   points="3968,3966 6040,3966 6040,6038 3968,6038 3968,3966 3997,3995 6011,3995 6011,6008 3997,6008 3997,3995 "
                   class="fil47"
                   id="_229" /><polygon
                   points="3983,3980 6025,3980 6025,6023 3983,6023 3983,3980 4012,4010 5996,4010 5996,5994 4012,5994 4012,4010 "
                   class="fil47"
                   id="_230" /><polygon
                   points="3997,3995 6011,3995 6011,6008 3997,6008 3997,3995 4026,4024 5981,4024 5981,5979 4026,5979 4026,4024 "
                   class="fil47"
                   id="_231" /><polygon
                   points="4012,4010 5996,4010 5996,5994 4012,5994 4012,4010 4041,4039 5967,4039 5967,5965 4041,5965 4041,4039 "
                   class="fil47"
                   id="_232" /><polygon
                   points="4026,4024 5982,4024 5982,5979 4026,5979 4026,4024 4056,4053 5952,4053 5952,5950 4056,5950 4056,4053 "
                   class="fil47"
                   id="_233" /><polygon
                   points="4041,4039 5967,4039 5967,5965 4041,5965 4041,4039 4070,4068 5938,4068 5938,5935 4070,5935 4070,4068 "
                   class="fil47"
                   id="_234" /><polygon
                   points="4056,4053 5952,4053 5952,5950 4056,5950 4056,4053 4085,4083 5923,4083 5923,5921 4085,5921 4085,4083 "
                   class="fil47"
                   id="_235" /><polygon
                   points="4070,4068 5938,4068 5938,5935 4070,5935 4070,4068 4099,4097 5909,4097 5909,5906 4099,5906 4099,4097 "
                   class="fil47"
                   id="_236" /><polygon
                   points="4085,4083 5923,4083 5923,5921 4085,5921 4085,4083 4114,4112 5894,4112 5894,5892 4114,5892 4114,4112 "
                   class="fil47"
                   id="_237" /><polygon
                   points="4099,4097 5909,4097 5909,5906 4099,5906 4099,4097 4129,4126 5879,4126 5879,5877 4129,5877 4129,4126 "
                   class="fil47"
                   id="_238" /><polygon
                   points="4114,4112 5894,4112 5894,5892 4114,5892 4114,4112 4143,4141 5865,4141 5865,5863 4143,5863 4143,4141 "
                   class="fil47"
                   id="_239" /><polygon
                   points="4129,4126 5879,4126 5879,5877 4129,5877 4129,4126 4158,4156 5850,4156 5850,5848 4158,5848 4158,4156 "
                   class="fil47"
                   id="_240" /><polygon
                   points="4143,4141 5865,4141 5865,5863 4143,5863 4143,4141 4172,4170 5836,4170 5836,5833 4172,5833 4172,4170 "
                   class="fil47"
                   id="_241" /><polygon
                   points="4158,4155 5850,4155 5850,5848 4158,5848 4158,4155 4187,4185 5821,4185 5821,5819 4187,5819 4187,4185 "
                   class="fil47"
                   id="_242" /><polygon
                   points="4172,4170 5836,4170 5836,5833 4172,5833 4172,4170 4202,4199 5806,4199 5806,5804 4202,5804 4202,4199 "
                   class="fil47"
                   id="_243" /><polygon
                   points="4187,4185 5821,4185 5821,5819 4187,5819 4187,4185 4216,4214 5792,4214 5792,5790 4216,5790 4216,4214 "
                   class="fil47"
                   id="_244" /><polygon
                   points="4202,4199 5806,4199 5806,5804 4202,5804 4202,4199 4231,4228 5777,4228 5777,5775 4231,5775 4231,4228 "
                   class="fil47"
                   id="_245" /><polygon
                   points="4216,4214 5792,4214 5792,5790 4216,5790 4216,4214 4245,4243 5763,4243 5763,5760 4245,5760 4245,4243 "
                   class="fil47"
                   id="_246" /><polygon
                   points="4231,4228 5777,4228 5777,5775 4231,5775 4231,4228 4260,4258 5748,4258 5748,5746 4260,5746 4260,4258 "
                   class="fil47"
                   id="_247" /><polygon
                   points="4245,4243 5763,4243 5763,5760 4245,5760 4245,4243 4274,4272 5733,4272 5733,5731 4274,5731 4274,4272 "
                   class="fil47"
                   id="_248" /><polygon
                   points="4260,4258 5748,4258 5748,5746 4260,5746 4260,4258 4289,4287 5719,4287 5719,5717 4289,5717 4289,4287 "
                   class="fil47"
                   id="_249" /><polygon
                   points="4274,4272 5733,4272 5733,5731 4274,5731 4274,4272 4304,4301 5704,4301 5704,5702 4304,5702 4304,4301 "
                   class="fil47"
                   id="_250" /><polygon
                   points="4289,4287 5719,4287 5719,5717 4289,5717 4289,4287 4318,4316 5690,4316 5690,5687 4318,5687 4318,4316 "
                   class="fil47"
                   id="_251" /><polygon
                   points="4304,4301 5704,4301 5704,5702 4304,5702 4304,4301 4333,4331 5675,4331 5675,5673 4333,5673 4333,4331 "
                   class="fil47"
                   id="_252" /><polygon
                   points="4318,4316 5690,4316 5690,5687 4318,5687 4318,4316 4347,4345 5661,4345 5661,5658 4347,5658 4347,4345 "
                   class="fil47"
                   id="_253" /><polygon
                   points="4333,4331 5675,4331 5675,5673 4333,5673 4333,4331 4362,4360 5646,4360 5646,5644 4362,5644 4362,4360 "
                   class="fil47"
                   id="_254" /><polygon
                   points="4347,4345 5661,4345 5661,5658 4347,5658 4347,4345 4377,4374 5631,4374 5631,5629 4377,5629 4377,4374 "
                   class="fil47"
                   id="_255" /><polygon
                   points="4362,4360 5646,4360 5646,5644 4362,5644 4362,4360 4391,4389 5617,4389 5617,5615 4391,5615 4391,4389 "
                   class="fil47"
                   id="_256" /><polygon
                   points="4377,4374 5631,4374 5631,5629 4377,5629 4377,4374 4406,4404 5602,4404 5602,5600 4406,5600 4406,4404 "
                   class="fil47"
                   id="_257" /><polygon
                   points="4391,4389 5617,4389 5617,5615 4391,5615 4391,4389 4420,4418 5588,4418 5588,5585 4420,5585 4420,4418 "
                   class="fil47"
                   id="_258" /><polygon
                   points="4406,4404 5602,4404 5602,5600 4406,5600 4406,4404 4435,4433 5573,4433 5573,5571 4435,5571 4435,4433 "
                   class="fil47"
                   id="_259" /><polygon
                   points="4420,4418 5588,4418 5588,5585 4420,5585 4420,4418 4450,4447 5558,4447 5558,5556 4450,5556 4450,4447 "
                   class="fil47"
                   id="_260" /><polygon
                   points="4435,4433 5573,4433 5573,5571 4435,5571 4435,4433 4464,4462 5544,4462 5544,5542 4464,5542 4464,4462 "
                   class="fil47"
                   id="_261" /><polygon
                   points="4450,4447 5558,4447 5558,5556 4450,5556 4450,4447 4479,4476 5529,4476 5529,5527 4479,5527 4479,4476 "
                   class="fil47"
                   id="_262" /><polygon
                   points="4464,4462 5544,4462 5544,5542 4464,5542 4464,4462 4493,4491 5515,4491 5515,5512 4493,5512 4493,4491 "
                   class="fil47"
                   id="_263" /><polygon
                   points="4479,4476 5529,4476 5529,5527 4479,5527 4479,4476 4508,4506 5500,4506 5500,5498 4508,5498 4508,4506 "
                   class="fil47"
                   id="_264" /><polygon
                   points="4493,4491 5515,4491 5515,5512 4493,5512 4493,4491 4523,4520 5485,4520 5485,5483 4523,5483 4523,4520 "
                   class="fil47"
                   id="_265" /><polygon
                   points="4508,4506 5500,4506 5500,5498 4508,5498 4508,4506 4537,4535 5471,4535 5471,5469 4537,5469 4537,4535 "
                   class="fil47"
                   id="_266" /><polygon
                   points="4523,4520 5485,4520 5485,5483 4523,5483 4523,4520 4552,4549 5456,4549 5456,5454 4552,5454 4552,4549 "
                   class="fil47"
                   id="_267" /><polygon
                   points="4537,4535 5471,4535 5471,5469 4537,5469 4537,4535 4566,4564 5442,4564 5442,5439 4566,5439 4566,4564 "
                   class="fil47"
                   id="_268" /><polygon
                   points="4552,4549 5456,4549 5456,5454 4552,5454 4552,4549 4581,4579 5427,4579 5427,5425 4581,5425 4581,4579 "
                   class="fil47"
                   id="_269" /><polygon
                   points="4566,4564 5442,4564 5442,5439 4566,5439 4566,4564 4595,4593 5412,4593 5412,5410 4595,5410 4595,4593 "
                   class="fil47"
                   id="_270" /><polygon
                   points="4581,4579 5427,4579 5427,5425 4581,5425 4581,4579 4610,4608 5398,4608 5398,5396 4610,5396 4610,4608 "
                   class="fil47"
                   id="_271" /><polygon
                   points="4595,4593 5412,4593 5412,5410 4595,5410 4595,4593 4625,4622 5383,4622 5383,5381 4625,5381 4625,4622 "
                   class="fil47"
                   id="_272" /><polygon
                   points="4610,4608 5398,4608 5398,5396 4610,5396 4610,4608 4639,4637 5369,4637 5369,5366 4639,5366 4639,4637 "
                   class="fil47"
                   id="_273" /><polygon
                   points="4625,4622 5383,4622 5383,5381 4625,5381 4625,4622 4654,4652 5354,4652 5354,5352 4654,5352 4654,4652 "
                   class="fil47"
                   id="_274" /><polygon
                   points="4639,4637 5369,4637 5369,5366 4639,5366 4639,4637 4668,4666 5340,4666 5340,5337 4668,5337 4668,4666 "
                   class="fil47"
                   id="_275" /><polygon
                   points="4654,4652 5354,4652 5354,5352 4654,5352 4654,4652 4683,4681 5325,4681 5325,5323 4683,5323 4683,4681 "
                   class="fil47"
                   id="_276" /><polygon
                   points="4668,4666 5340,4666 5340,5337 4668,5337 4668,4666 4698,4695 5310,4695 5310,5308 4698,5308 4698,4695 "
                   class="fil47"
                   id="_277" /><polygon
                   points="4683,4681 5325,4681 5325,5323 4683,5323 4683,4681 4712,4710 5296,4710 5296,5294 4712,5294 4712,4710 "
                   class="fil47"
                   id="_278" /><polygon
                   points="4698,4695 5310,4695 5310,5308 4698,5308 4698,4695 4727,4725 5281,4725 5281,5279 4727,5279 4727,4725 "
                   class="fil47"
                   id="_279" /><polygon
                   points="4712,4710 5296,4710 5296,5294 4712,5294 4712,4710 4741,4739 5267,4739 5267,5264 4741,5264 4741,4739 "
                   class="fil47"
                   id="_280" /><polygon
                   points="4727,4725 5281,4725 5281,5279 4727,5279 4727,4725 4756,4754 5252,4754 5252,5250 4756,5250 4756,4754 "
                   class="fil47"
                   id="_281" /><polygon
                   points="4741,4739 5267,4739 5267,5264 4741,5264 4741,4739 4771,4768 5237,4768 5237,5235 4771,5235 4771,4768 "
                   class="fil47"
                   id="_282" /><polygon
                   points="4756,4754 5252,4754 5252,5250 4756,5250 4756,4754 4785,4783 5223,4783 5223,5221 4785,5221 4785,4783 "
                   class="fil47"
                   id="_283" /><polygon
                   points="4771,4768 5237,4768 5237,5235 4771,5235 4771,4768 4800,4797 5208,4797 5208,5206 4800,5206 4800,4797 "
                   class="fil47"
                   id="_284" /><polygon
                   points="4785,4783 5223,4783 5223,5221 4785,5221 4785,4783 4814,4812 5194,4812 5194,5191 4814,5191 4814,4812 "
                   class="fil47"
                   id="_285" /><polygon
                   points="4800,4797 5208,4797 5208,5206 4800,5206 4800,4797 4829,4827 5179,4827 5179,5177 4829,5177 4829,4827 "
                   class="fil47"
                   id="_286" /><polygon
                   points="4814,4812 5194,4812 5194,5191 4814,5191 4814,4812 4843,4841 5164,4841 5164,5162 4843,5162 4843,4841 "
                   class="fil47"
                   id="_287" /><polygon
                   points="4829,4827 5179,4827 5179,5177 4829,5177 4829,4827 4858,4856 5150,4856 5150,5148 4858,5148 4858,4856 "
                   class="fil47"
                   id="_288" /><polygon
                   points="4843,4841 5164,4841 5164,5162 4843,5162 4843,4841 4873,4870 5135,4870 5135,5133 4873,5133 4873,4870 "
                   class="fil47"
                   id="_289" /><polygon
                   points="4858,4856 5150,4856 5150,5148 4858,5148 4858,4856 4887,4885 5121,4885 5121,5118 4887,5118 4887,4885 "
                   class="fil47"
                   id="_290" /><polygon
                   points="4873,4870 5135,4870 5135,5133 4873,5133 4873,4870 4902,4900 5106,4900 5106,5104 4902,5104 4902,4900 "
                   class="fil47"
                   id="_291" /><polygon
                   points="4887,4885 5121,4885 5121,5118 4887,5118 4887,4885 4916,4914 5092,4914 5092,5089 4916,5089 4916,4914 "
                   class="fil47"
                   id="_292" /><polygon
                   points="4902,4900 5106,4900 5106,5104 4902,5104 4902,4900 4931,4929 5077,4929 5077,5075 4931,5075 4931,4929 "
                   class="fil47"
                   id="_293" /><polygon
                   points="4916,4914 5092,4914 5092,5089 4916,5089 4916,4914 4946,4943 5062,4943 5062,5060 4946,5060 4946,4943 "
                   class="fil47"
                   id="_294" /><polygon
                   points="4931,4929 5077,4929 5077,5075 4931,5075 4931,4929 4960,4958 5048,4958 5048,5045 4960,5045 4960,4958 "
                   class="fil47"
                   id="_295" /><polygon
                   points="4946,4943 5062,4943 5062,5060 4946,5060 4946,4943 4975,4973 5033,4973 5033,5031 4975,5031 4975,4973 "
                   class="fil47"
                   id="_296" /><polygon
                   points="4960,4958 5048,4958 5048,5045 4960,5045 4960,4958 4989,4987 5019,4987 5019,5016 4989,5016 4989,4987 "
                   class="fil47"
                   id="_297" /><polygon
                   points="4975,4973 5033,4973 5033,5031 4975,5031 4975,4973 5004,5002 5004,5002 5004,5002 5004,5002 5004,5002 "
                   class="fil47"
                   id="_298" /><polygon
                   points="4989,4987 5019,4987 5019,5016 4989,5016 "
                   class="fil47"
                   id="_299" /></g></g><path
               id="path337"
               d="M1585 9379l6838 0c527,0 958,-431 958,-958l0 -6838c0,-527 -431,-958 -958,-958l-6838 0c-527,0 -958,431 -958,958l0 6838c0,527 431,958 958,958z"
               class="fil48" /></g></g></g></g><g
       id="g16841"><path
         style="fill:#000000;fill-rule:evenodd;stroke:#000008;stroke-width:160.80000359;stroke-linecap:butt;stroke-linejoin:miter;stroke-miterlimit:4;stroke-dasharray:none;stroke-opacity:1;marker-end:url(#marker5038)"
         d="m 1827.6915,6659.22 0,-5574.0251"
         id="path4454"
         inkscape:connector-curvature="0" /><path
         style="fill:#000000;fill-rule:evenodd;stroke:#000000;stroke-width:158.80000355;stroke-linecap:butt;stroke-linejoin:miter;stroke-miterlimit:4;stroke-dasharray:none;stroke-opacity:1;marker-end:url(#TriangleOutM)"
         d="M 1784.1323,6585.7138 7015.7248,9403.2485"
         id="path4774"
         inkscape:connector-curvature="0" /><path
         style="fill:#000000;fill-rule:evenodd;stroke:#000000;stroke-width:193.99404907;stroke-linecap:butt;stroke-linejoin:miter;stroke-miterlimit:4;stroke-dasharray:none;stroke-opacity:1;marker-end:url(#marker5108)"
         d="M 1844.8388,6588.8149 7812.8063,2650.9389"
         id="path4816"
         inkscape:connector-curvature="0" /><g
         transform="matrix(1.0774779,0,0,1.0825789,138.80618,-188.5838)"
         style="font-style:normal;font-variant:normal;font-weight:normal;font-stretch:normal;font-size:4000px;line-height:125%;font-family:'Tw Cen MT Condensed Extra Bold';-inkscape-font-specification:'Tw Cen MT Condensed Extra Bold, ';letter-spacing:0px;word-spacing:0px;fill:#ffffc5;fill-opacity:1;fill-rule:evenodd;stroke:#ff1c05;stroke-width:157.40371704;stroke-linecap:butt;stroke-linejoin:miter;stroke-miterlimit:4;stroke-dasharray:none;stroke-opacity:0.35751295"
         id="flowRoot16072"><path
           d="m 5749.457,3107.3727 q 0,363.2812 -275.3906,726.5625 -87.8906,114.2578 -521.4844,553.7109 -433.5937,436.5234 -433.5937,562.5 0,128.9063 61.5234,222.6563 -84.9609,8.789 -383.789,58.5937 -278.3204,55.6641 -401.3672,120.1172 -79.1016,-175.7813 -79.1016,-372.0703 0,-275.3906 181.6406,-615.2344 184.5703,-339.8437 184.5703,-518.5547 0,-166.9922 -114.2578,-275.3906 -114.2578,-108.3984 -275.3906,-108.3984 -222.6562,0 -457.0312,120.1171 l 90.8203,-1529.2968 q 395.5078,-131.836 858.3984,-131.836 1564.4531,0 1564.4531,1186.5235 z m -858.3984,2988.2812 q 0,228.5156 -196.2891,386.7188 -196.289,155.2734 -451.1718,155.2734 -275.3907,0 -477.5391,-155.2734 -199.2188,-158.2032 -199.2188,-392.5782 0,-237.3046 193.3594,-386.7187 196.2891,-152.3438 483.3985,-152.3438 263.6718,0 451.1718,149.4141 196.2891,158.2031 196.2891,395.5078 z"
           style="font-style:normal;font-variant:normal;font-weight:normal;font-stretch:normal;font-size:6000px;line-height:125%;font-family:'Showcard Gothic';-inkscape-font-specification:'Showcard Gothic';letter-spacing:0px;fill:#ffffc5;fill-opacity:1;fill-rule:evenodd;stroke:#ff1c05;stroke-width:157.40371704;stroke-linecap:butt;stroke-linejoin:miter;stroke-miterlimit:4;stroke-dasharray:none;stroke-opacity:0.35751295"
           id="path4522" /></g></g></g></svg>