<?xml version="1.0" encoding="UTF-8"?>
<!DOCTYPE svg PUBLIC "-//W3C//DTD SVG 1.1//EN" "http://www.w3.org/Graphics/SVG/1.1/DTD/svg11.dtd">
<!-- Creator: CorelDRAW X6 -->
<svg xmlns="http://www.w3.org/2000/svg" xml:space="preserve" width="150px" height="150px" version="1.1" style="shape-rendering:geometricPrecision; text-rendering:geometricPrecision; image-rendering:optimizeQuality; fill-rule:evenodd; clip-rule:evenodd"
viewBox="0 0 15000 15000"
 xmlns:xlink="http://www.w3.org/1999/xlink">
 <defs>
  <style type="text/css">
   <![CDATA[
    .fil28 {fill:#4D4D4D}
    .fil31 {fill:#668F29}
    .fil0 {fill:#D1C313}
    .fil1 {fill:#D2C413}
    .fil2 {fill:#D3C513}
    .fil3 {fill:#D5C712}
    .fil4 {fill:#D6C812}
    .fil5 {fill:#D7C912}
    .fil6 {fill:#DACB11}
    .fil7 {fill:#DBCC11}
    .fil8 {fill:#DCCD10}
    .fil9 {fill:#DECF10}
    .fil10 {fill:#DFD010}
    .fil11 {fill:#E0D10F}
    .fil12 {fill:#E3D30F}
    .fil13 {fill:#E4D40E}
    .fil14 {fill:#E5D60E}
    .fil15 {fill:#E7D80D}
    .fil16 {fill:#E8D90D}
    .fil17 {fill:#EADA0D}
    .fil18 {fill:#ECDC0C}
    .fil19 {fill:#EDDD0C}
    .fil20 {fill:#EEDE0C}
    .fil21 {fill:#F0E00B}
    .fil22 {fill:#F2E10B}
    .fil23 {fill:#F3E20A}
    .fil24 {fill:#F5E40A}
    .fil25 {fill:#F6E509}
    .fil26 {fill:#F7E609}
    .fil27 {fill:#FAE908}
    .fil29 {fill:url(#id1)}
    .fil30 {fill:url(#id2)}
   ]]>
  </style>
     <clipPath id="id0">
      <path d="M2420 14065l10192 0c785,0 1428,-643 1428,-1428l0 -10192c0,-785 -643,-1428 -1428,-1428l-10192 0c-785,0 -1428,643 -1428,1428l0 10192c0,785 643,1428 1428,1428z"/>
     </clipPath>
  <linearGradient id="id1" gradientUnits="userSpaceOnUse" x1="6252.53" y1="9976.38" x2="5981.76" y2="8965.42">
   <stop offset="0" style="stop-color:#7FB332"/>
   <stop offset="1" style="stop-color:#668F29"/>
  </linearGradient>
  <linearGradient id="id2" gradientUnits="userSpaceOnUse" xlink:href="#id1" x1="4540.9" y1="5139.53" x2="4252.99" y2="6129.32">
  </linearGradient>
 </defs>
 <g id="Layer_x0020_1">
  <metadata id="CorelCorpID_0Corel-Layer"/>
  <g id="_129170176">
   <rect class="fil0" x="106" y="131" width="14820" height="14820" rx="2106" ry="2106"/>
   <g>
    <g style="clip-path:url(#id0)">
     <polygon class="fil0" points="992,1017 14040,1017 14040,14065 992,14065 992,1017 1079,1104 13953,1104 13953,13978 1079,13978 1079,1104 "/>
     <polygon id="1" class="fil1" points="1036,1060 13997,1060 13997,14021 1036,14021 1036,1060 1123,1147 13910,1147 13910,13934 1123,13934 1123,1147 "/>
     <polygon id="2" class="fil2" points="1079,1104 13953,1104 13953,13978 1079,13978 1079,1104 1166,1191 13866,1191 13866,13891 1166,13891 1166,1191 "/>
     <polygon id="3" class="fil3" points="1123,1147 13910,1147 13910,13934 1123,13934 1123,1147 1210,1234 13823,1234 13823,13847 1210,13847 1210,1234 "/>
     <polygon id="4" class="fil4" points="1166,1191 13866,1191 13866,13891 1166,13891 1166,1191 1253,1278 13779,1278 13779,13804 1253,13804 1253,1278 "/>
     <polygon id="5" class="fil5" points="1210,1234 13823,1234 13823,13847 1210,13847 1210,1234 1297,1321 13736,1321 13736,13760 1297,13760 1297,1321 "/>
     <polygon id="6" class="fil6" points="1253,1278 13779,1278 13779,13804 1253,13804 1253,1278 1340,1365 13692,1365 13692,13717 1340,13717 1340,1365 "/>
     <polygon id="7" class="fil7" points="1297,1321 13736,1321 13736,13760 1297,13760 1297,1321 1384,1408 13649,1408 13649,13673 1384,13673 1384,1408 "/>
     <polygon id="8" class="fil8" points="1340,1365 13692,1365 13692,13717 1340,13717 1340,1365 1427,1452 13605,1452 13605,13630 1427,13630 1427,1452 "/>
     <polygon id="9" class="fil9" points="1384,1408 13649,1408 13649,13673 1384,13673 1384,1408 1471,1495 13562,1495 13562,13586 1471,13586 1471,1495 "/>
     <polygon id="10" class="fil10" points="1427,1452 13605,1452 13605,13630 1427,13630 1427,1452 1514,1539 13518,1539 13518,13543 1514,13543 1514,1539 "/>
     <polygon id="11" class="fil11" points="1471,1495 13562,1495 13562,13586 1471,13586 1471,1495 1558,1582 13475,1582 13475,13499 1558,13499 1558,1582 "/>
     <polygon id="12" class="fil12" points="1514,1539 13518,1539 13518,13543 1514,13543 1514,1539 1601,1626 13431,1626 13431,13456 1601,13456 1601,1626 "/>
     <polygon id="13" class="fil13" points="1558,1582 13475,1582 13475,13499 1558,13499 1558,1582 1645,1669 13388,1669 13388,13412 1645,13412 1645,1669 "/>
     <polygon id="14" class="fil14" points="1601,1626 13431,1626 13431,13456 1601,13456 1601,1626 1688,1713 13344,1713 13344,13369 1688,13369 1688,1713 "/>
     <polygon id="15" class="fil15" points="1645,1669 13388,1669 13388,13412 1645,13412 1645,1669 1732,1756 13301,1756 13301,13325 1732,13325 1732,1756 "/>
     <polygon id="16" class="fil16" points="1688,1713 13344,1713 13344,13369 1688,13369 1688,1713 1775,1800 13257,1800 13257,13282 1775,13282 1775,1800 "/>
     <polygon id="17" class="fil17" points="1732,1756 13301,1756 13301,13325 1732,13325 1732,1756 1819,1843 13214,1843 13214,13238 1819,13238 1819,1843 "/>
     <polygon id="18" class="fil18" points="1775,1800 13257,1800 13257,13282 1775,13282 1775,1800 1862,1887 13170,1887 13170,13195 1862,13195 1862,1887 "/>
     <polygon id="19" class="fil19" points="1819,1843 13214,1843 13214,13238 1819,13238 1819,1843 1906,1930 13127,1930 13127,13151 1906,13151 1906,1930 "/>
     <polygon id="20" class="fil20" points="1862,1887 13170,1887 13170,13195 1862,13195 1862,1887 1949,1974 13083,1974 13083,13108 1949,13108 1949,1974 "/>
     <polygon id="21" class="fil21" points="1906,1930 13127,1930 13127,13151 1906,13151 1906,1930 1993,2017 13040,2017 13040,13064 1993,13064 1993,2017 "/>
     <polygon id="22" class="fil22" points="1949,1974 13083,1974 13083,13108 1949,13108 1949,1974 2036,2061 12996,2061 12996,13021 2036,13021 2036,2061 "/>
     <polygon id="23" class="fil23" points="1993,2017 13040,2017 13040,13064 1993,13064 1993,2017 2080,2104 12953,2104 12953,12977 2080,12977 2080,2104 "/>
     <polygon id="24" class="fil24" points="2036,2061 12996,2061 12996,13021 2036,13021 2036,2061 2123,2148 12909,2148 12909,12934 2123,12934 2123,2148 "/>
     <polygon id="25" class="fil25" points="2080,2104 12953,2104 12953,12977 2080,12977 2080,2104 2166,2191 12866,2191 12866,12891 2166,12891 2166,2191 "/>
     <polygon id="26" class="fil26" points="2123,2148 12909,2148 12909,12934 2123,12934 2123,2148 2210,2235 12822,2235 12822,12847 2210,12847 2210,2235 "/>
     <polygon id="27" class="fil27" points="2166,2191 12866,2191 12866,12891 2166,12891 2166,2191 2253,2278 12779,2278 12779,12804 2253,12804 2253,2278 "/>
     <polygon id="28" class="fil27" points="2210,2235 12822,2235 12822,12847 2210,12847 2210,2235 2297,2322 12735,2322 12735,12760 2297,12760 2297,2322 "/>
     <polygon id="29" class="fil27" points="2253,2278 12779,2278 12779,12804 2253,12804 2253,2278 2340,2365 12692,2365 12692,12717 2340,12717 2340,2365 "/>
     <polygon id="30" class="fil27" points="2297,2322 12735,2322 12735,12760 2297,12760 2297,2322 2384,2409 12648,2409 12648,12673 2384,12673 2384,2409 "/>
     <polygon id="31" class="fil27" points="2340,2365 12692,2365 12692,12717 2340,12717 2340,2365 2427,2452 12605,2452 12605,12630 2427,12630 2427,2452 "/>
     <polygon id="32" class="fil27" points="2384,2409 12648,2409 12648,12673 2384,12673 2384,2409 2471,2495 12562,2495 12562,12586 2471,12586 2471,2495 "/>
     <polygon id="33" class="fil27" points="2427,2452 12605,2452 12605,12630 2427,12630 2427,2452 2514,2539 12518,2539 12518,12543 2514,12543 2514,2539 "/>
     <polygon id="34" class="fil27" points="2471,2495 12562,2495 12562,12586 2471,12586 2471,2495 2558,2582 12475,2582 12475,12499 2558,12499 2558,2582 "/>
     <polygon id="35" class="fil27" points="2514,2539 12518,2539 12518,12543 2514,12543 2514,2539 2601,2626 12431,2626 12431,12456 2601,12456 2601,2626 "/>
     <polygon id="36" class="fil27" points="2558,2582 12475,2582 12475,12499 2558,12499 2558,2582 2645,2669 12388,2669 12388,12412 2645,12412 2645,2669 "/>
     <polygon id="37" class="fil27" points="2601,2626 12431,2626 12431,12456 2601,12456 2601,2626 2688,2713 12344,2713 12344,12369 2688,12369 2688,2713 "/>
     <polygon id="38" class="fil27" points="2645,2669 12388,2669 12388,12412 2645,12412 2645,2669 2732,2756 12301,2756 12301,12325 2732,12325 2732,2756 "/>
     <polygon id="39" class="fil27" points="2688,2713 12344,2713 12344,12369 2688,12369 2688,2713 2775,2800 12257,2800 12257,12282 2775,12282 2775,2800 "/>
     <polygon id="40" class="fil27" points="2732,2756 12301,2756 12301,12325 2732,12325 2732,2756 2819,2843 12214,2843 12214,12238 2819,12238 2819,2843 "/>
     <polygon id="41" class="fil27" points="2775,2800 12257,2800 12257,12282 2775,12282 2775,2800 2862,2887 12170,2887 12170,12195 2862,12195 2862,2887 "/>
     <polygon id="42" class="fil27" points="2819,2843 12214,2843 12214,12238 2819,12238 2819,2843 2906,2930 12127,2930 12127,12151 2906,12151 2906,2930 "/>
     <polygon id="43" class="fil27" points="2862,2887 12170,2887 12170,12195 2862,12195 2862,2887 2949,2974 12083,2974 12083,12108 2949,12108 2949,2974 "/>
     <polygon id="44" class="fil27" points="2906,2930 12127,2930 12127,12151 2906,12151 2906,2930 2993,3017 12040,3017 12040,12064 2993,12064 2993,3017 "/>
     <polygon id="45" class="fil27" points="2949,2974 12083,2974 12083,12108 2949,12108 2949,2974 3036,3061 11996,3061 11996,12021 3036,12021 3036,3061 "/>
     <polygon id="46" class="fil27" points="2993,3017 12040,3017 12040,12064 2993,12064 2993,3017 3080,3104 11953,3104 11953,11977 3080,11977 3080,3104 "/>
     <polygon id="47" class="fil27" points="3036,3061 11996,3061 11996,12021 3036,12021 3036,3061 3123,3148 11909,3148 11909,11934 3123,11934 3123,3148 "/>
     <polygon id="48" class="fil27" points="3080,3104 11953,3104 11953,11977 3080,11977 3080,3104 3167,3191 11866,3191 11866,11890 3167,11890 3167,3191 "/>
     <polygon id="49" class="fil27" points="3123,3148 11909,3148 11909,11934 3123,11934 3123,3148 3210,3235 11822,3235 11822,11847 3210,11847 3210,3235 "/>
     <polygon id="50" class="fil27" points="3167,3191 11866,3191 11866,11890 3167,11890 3167,3191 3254,3278 11779,3278 11779,11803 3254,11803 3254,3278 "/>
     <polygon id="51" class="fil27" points="3210,3235 11822,3235 11822,11847 3210,11847 3210,3235 3297,3322 11735,3322 11735,11760 3297,11760 3297,3322 "/>
     <polygon id="52" class="fil27" points="3254,3278 11779,3278 11779,11803 3254,11803 3254,3278 3341,3365 11692,3365 11692,11716 3341,11716 3341,3365 "/>
     <polygon id="53" class="fil27" points="3297,3322 11735,3322 11735,11760 3297,11760 3297,3322 3384,3409 11648,3409 11648,11673 3384,11673 3384,3409 "/>
     <polygon id="54" class="fil27" points="3341,3365 11692,3365 11692,11716 3341,11716 3341,3365 3428,3452 11605,3452 11605,11629 3428,11629 3428,3452 "/>
     <polygon id="55" class="fil27" points="3384,3409 11648,3409 11648,11673 3384,11673 3384,3409 3471,3496 11561,3496 11561,11586 3471,11586 3471,3496 "/>
     <polygon id="56" class="fil27" points="3428,3452 11605,3452 11605,11629 3428,11629 3428,3452 3515,3539 11518,3539 11518,11542 3515,11542 3515,3539 "/>
     <polygon id="57" class="fil27" points="3471,3496 11561,3496 11561,11586 3471,11586 3471,3496 3558,3583 11474,3583 11474,11499 3558,11499 3558,3583 "/>
     <polygon id="58" class="fil27" points="3515,3539 11518,3539 11518,11542 3515,11542 3515,3539 3602,3626 11431,3626 11431,11455 3602,11455 3602,3626 "/>
     <polygon id="59" class="fil27" points="3558,3583 11474,3583 11474,11499 3558,11499 3558,3583 3645,3670 11387,3670 11387,11412 3645,11412 3645,3670 "/>
     <polygon id="60" class="fil27" points="3602,3626 11431,3626 11431,11455 3602,11455 3602,3626 3689,3713 11344,3713 11344,11368 3689,11368 3689,3713 "/>
     <polygon id="61" class="fil27" points="3645,3670 11387,3670 11387,11412 3645,11412 3645,3670 3732,3757 11300,3757 11300,11325 3732,11325 3732,3757 "/>
     <polygon id="62" class="fil27" points="3689,3713 11344,3713 11344,11368 3689,11368 3689,3713 3776,3800 11257,3800 11257,11281 3776,11281 3776,3800 "/>
     <polygon id="63" class="fil27" points="3732,3757 11300,3757 11300,11325 3732,11325 3732,3757 3819,3844 11213,3844 11213,11238 3819,11238 3819,3844 "/>
     <polygon id="64" class="fil27" points="3776,3800 11257,3800 11257,11281 3776,11281 3776,3800 3863,3887 11170,3887 11170,11194 3863,11194 3863,3887 "/>
     <polygon id="65" class="fil27" points="3819,3844 11213,3844 11213,11238 3819,11238 3819,3844 3906,3931 11126,3931 11126,11151 3906,11151 3906,3931 "/>
     <polygon id="66" class="fil27" points="3863,3887 11170,3887 11170,11194 3863,11194 3863,3887 3950,3974 11083,3974 11083,11107 3950,11107 3950,3974 "/>
     <polygon id="67" class="fil27" points="3906,3931 11126,3931 11126,11151 3906,11151 3906,3931 3993,4018 11039,4018 11039,11064 3993,11064 3993,4018 "/>
     <polygon id="68" class="fil27" points="3950,3974 11083,3974 11083,11107 3950,11107 3950,3974 4037,4061 10996,4061 10996,11020 4037,11020 4037,4061 "/>
     <polygon id="69" class="fil27" points="3993,4018 11039,4018 11039,11064 3993,11064 3993,4018 4080,4105 10952,4105 10952,10977 4080,10977 4080,4105 "/>
     <polygon id="70" class="fil27" points="4037,4061 10996,4061 10996,11020 4037,11020 4037,4061 4124,4148 10909,4148 10909,10933 4124,10933 4124,4148 "/>
     <polygon id="71" class="fil27" points="4080,4105 10952,4105 10952,10977 4080,10977 4080,4105 4167,4192 10865,4192 10865,10890 4167,10890 4167,4192 "/>
     <polygon id="72" class="fil27" points="4124,4148 10909,4148 10909,10933 4124,10933 4124,4148 4211,4235 10822,4235 10822,10846 4211,10846 4211,4235 "/>
     <polygon id="73" class="fil27" points="4167,4192 10865,4192 10865,10890 4167,10890 4167,4192 4254,4279 10778,4279 10778,10803 4254,10803 4254,4279 "/>
     <polygon id="74" class="fil27" points="4211,4235 10822,4235 10822,10846 4211,10846 4211,4235 4298,4322 10735,4322 10735,10759 4298,10759 4298,4322 "/>
     <polygon id="75" class="fil27" points="4254,4279 10778,4279 10778,10803 4254,10803 4254,4279 4341,4366 10691,4366 10691,10716 4341,10716 4341,4366 "/>
     <polygon id="76" class="fil27" points="4298,4322 10735,4322 10735,10759 4298,10759 4298,4322 4385,4409 10648,4409 10648,10672 4385,10672 4385,4409 "/>
     <polygon id="77" class="fil27" points="4341,4366 10691,4366 10691,10716 4341,10716 4341,4366 4428,4453 10604,4453 10604,10629 4428,10629 4428,4453 "/>
     <polygon id="78" class="fil27" points="4385,4409 10648,4409 10648,10672 4385,10672 4385,4409 4472,4496 10561,4496 10561,10585 4472,10585 4472,4496 "/>
     <polygon id="79" class="fil27" points="4428,4453 10604,4453 10604,10629 4428,10629 4428,4453 4515,4540 10517,4540 10517,10542 4515,10542 4515,4540 "/>
     <polygon id="80" class="fil27" points="4472,4496 10561,4496 10561,10585 4472,10585 4472,4496 4559,4583 10474,4583 10474,10498 4559,10498 4559,4583 "/>
     <polygon id="81" class="fil27" points="4515,4540 10517,4540 10517,10542 4515,10542 4515,4540 4602,4627 10430,4627 10430,10455 4602,10455 4602,4627 "/>
     <polygon id="82" class="fil27" points="4559,4583 10474,4583 10474,10498 4559,10498 4559,4583 4646,4670 10387,4670 10387,10411 4646,10411 4646,4670 "/>
     <polygon id="83" class="fil27" points="4602,4627 10430,4627 10430,10455 4602,10455 4602,4627 4689,4714 10343,4714 10343,10368 4689,10368 4689,4714 "/>
     <polygon id="84" class="fil27" points="4646,4670 10387,4670 10387,10411 4646,10411 4646,4670 4733,4757 10300,4757 10300,10324 4733,10324 4733,4757 "/>
     <polygon id="85" class="fil27" points="4689,4714 10343,4714 10343,10368 4689,10368 4689,4714 4776,4801 10256,4801 10256,10281 4776,10281 4776,4801 "/>
     <polygon id="86" class="fil27" points="4733,4757 10300,4757 10300,10324 4733,10324 4733,4757 4820,4844 10213,4844 10213,10237 4820,10237 4820,4844 "/>
     <polygon id="87" class="fil27" points="4776,4801 10256,4801 10256,10281 4776,10281 4776,4801 4863,4888 10169,4888 10169,10194 4863,10194 4863,4888 "/>
     <polygon id="88" class="fil27" points="4820,4844 10213,4844 10213,10237 4820,10237 4820,4844 4907,4931 10126,4931 10126,10150 4907,10150 4907,4931 "/>
     <polygon id="89" class="fil27" points="4863,4888 10169,4888 10169,10194 4863,10194 4863,4888 4950,4975 10082,4975 10082,10107 4950,10107 4950,4975 "/>
     <polygon id="90" class="fil27" points="4907,4931 10126,4931 10126,10150 4907,10150 4907,4931 4994,5018 10039,5018 10039,10063 4994,10063 4994,5018 "/>
     <polygon id="91" class="fil27" points="4950,4975 10082,4975 10082,10107 4950,10107 4950,4975 5037,5062 9995,5062 9995,10020 5037,10020 5037,5062 "/>
     <polygon id="92" class="fil27" points="4994,5018 10039,5018 10039,10063 4994,10063 4994,5018 5081,5105 9952,5105 9952,9976 5081,9976 5081,5105 "/>
     <polygon id="93" class="fil27" points="5037,5062 9995,5062 9995,10020 5037,10020 5037,5062 5124,5149 9908,5149 9908,9933 5124,9933 5124,5149 "/>
     <polygon id="94" class="fil27" points="5081,5105 9952,5105 9952,9976 5081,9976 5081,5105 5168,5192 9865,5192 9865,9889 5168,9889 5168,5192 "/>
     <polygon id="95" class="fil27" points="5124,5149 9908,5149 9908,9933 5124,9933 5124,5149 5211,5236 9821,5236 9821,9846 5211,9846 5211,5236 "/>
     <polygon id="96" class="fil27" points="5168,5192 9865,5192 9865,9889 5168,9889 5168,5192 5255,5279 9778,5279 9778,9802 5255,9802 5255,5279 "/>
     <polygon id="97" class="fil27" points="5211,5236 9821,5236 9821,9846 5211,9846 5211,5236 5298,5323 9734,5323 9734,9759 5298,9759 5298,5323 "/>
     <polygon id="98" class="fil27" points="5255,5279 9778,5279 9778,9802 5255,9802 5255,5279 5342,5366 9691,5366 9691,9715 5342,9715 5342,5366 "/>
     <polygon id="99" class="fil27" points="5298,5323 9734,5323 9734,9759 5298,9759 5298,5323 5385,5410 9647,5410 9647,9672 5385,9672 5385,5410 "/>
     <polygon id="100" class="fil27" points="5342,5366 9691,5366 9691,9715 5342,9715 5342,5366 5429,5453 9604,5453 9604,9628 5429,9628 5429,5453 "/>
     <polygon id="101" class="fil27" points="5385,5410 9647,5410 9647,9672 5385,9672 5385,5410 5472,5497 9560,5497 9560,9585 5472,9585 5472,5497 "/>
     <polygon id="102" class="fil27" points="5429,5453 9604,5453 9604,9628 5429,9628 5429,5453 5516,5540 9517,5540 9517,9541 5516,9541 5516,5540 "/>
     <polygon id="103" class="fil27" points="5472,5497 9560,5497 9560,9585 5472,9585 5472,5497 5559,5584 9473,5584 9473,9498 5559,9498 5559,5584 "/>
     <polygon id="104" class="fil27" points="5516,5540 9517,5540 9517,9541 5516,9541 5516,5540 5603,5627 9430,5627 9430,9454 5603,9454 5603,5627 "/>
     <polygon id="105" class="fil27" points="5559,5584 9473,5584 9473,9498 5559,9498 5559,5584 5646,5671 9386,5671 9386,9411 5646,9411 5646,5671 "/>
     <polygon id="106" class="fil27" points="5603,5627 9430,5627 9430,9454 5603,9454 5603,5627 5689,5714 9343,5714 9343,9368 5689,9368 5689,5714 "/>
     <polygon id="107" class="fil27" points="5646,5671 9386,5671 9386,9411 5646,9411 5646,5671 5733,5758 9299,5758 9299,9324 5733,9324 5733,5758 "/>
     <polygon id="108" class="fil27" points="5689,5714 9343,5714 9343,9368 5689,9368 5689,5714 5776,5801 9256,5801 9256,9281 5776,9281 5776,5801 "/>
     <polygon id="109" class="fil27" points="5733,5758 9299,5758 9299,9324 5733,9324 5733,5758 5820,5845 9212,5845 9212,9237 5820,9237 5820,5845 "/>
     <polygon id="110" class="fil27" points="5776,5801 9256,5801 9256,9281 5776,9281 5776,5801 5863,5888 9169,5888 9169,9194 5863,9194 5863,5888 "/>
     <polygon id="111" class="fil27" points="5820,5845 9212,5845 9212,9237 5820,9237 5820,5845 5907,5932 9125,5932 9125,9150 5907,9150 5907,5932 "/>
     <polygon id="112" class="fil27" points="5863,5888 9169,5888 9169,9194 5863,9194 5863,5888 5950,5975 9082,5975 9082,9107 5950,9107 5950,5975 "/>
     <polygon id="113" class="fil27" points="5907,5931 9125,5931 9125,9150 5907,9150 5907,5931 5994,6018 9039,6018 9039,9063 5994,9063 5994,6018 "/>
     <polygon id="114" class="fil27" points="5950,5975 9082,5975 9082,9107 5950,9107 5950,5975 6037,6062 8995,6062 8995,9020 6037,9020 6037,6062 "/>
     <polygon id="115" class="fil27" points="5994,6018 9039,6018 9039,9063 5994,9063 5994,6018 6081,6105 8952,6105 8952,8976 6081,8976 6081,6105 "/>
     <polygon id="116" class="fil27" points="6037,6062 8995,6062 8995,9020 6037,9020 6037,6062 6124,6149 8908,6149 8908,8933 6124,8933 6124,6149 "/>
     <polygon id="117" class="fil27" points="6081,6105 8952,6105 8952,8976 6081,8976 6081,6105 6168,6192 8865,6192 8865,8889 6168,8889 6168,6192 "/>
     <polygon id="118" class="fil27" points="6124,6149 8908,6149 8908,8933 6124,8933 6124,6149 6211,6236 8821,6236 8821,8846 6211,8846 6211,6236 "/>
     <polygon id="119" class="fil27" points="6168,6192 8865,6192 8865,8889 6168,8889 6168,6192 6255,6279 8778,6279 8778,8802 6255,8802 6255,6279 "/>
     <polygon id="120" class="fil27" points="6211,6236 8821,6236 8821,8846 6211,8846 6211,6236 6298,6323 8734,6323 8734,8759 6298,8759 6298,6323 "/>
     <polygon id="121" class="fil27" points="6255,6279 8778,6279 8778,8802 6255,8802 6255,6279 6342,6366 8691,6366 8691,8715 6342,8715 6342,6366 "/>
     <polygon id="122" class="fil27" points="6298,6323 8734,6323 8734,8759 6298,8759 6298,6323 6385,6410 8647,6410 8647,8672 6385,8672 6385,6410 "/>
     <polygon id="123" class="fil27" points="6342,6366 8691,6366 8691,8715 6342,8715 6342,6366 6429,6453 8604,6453 8604,8628 6429,8628 6429,6453 "/>
     <polygon id="124" class="fil27" points="6385,6410 8647,6410 8647,8672 6385,8672 6385,6410 6472,6497 8560,6497 8560,8585 6472,8585 6472,6497 "/>
     <polygon id="125" class="fil27" points="6429,6453 8604,6453 8604,8628 6429,8628 6429,6453 6516,6540 8517,6540 8517,8541 6516,8541 6516,6540 "/>
     <polygon id="126" class="fil27" points="6472,6497 8560,6497 8560,8585 6472,8585 6472,6497 6559,6584 8473,6584 8473,8498 6559,8498 6559,6584 "/>
     <polygon id="127" class="fil27" points="6516,6540 8517,6540 8517,8541 6516,8541 6516,6540 6603,6627 8430,6627 8430,8454 6603,8454 6603,6627 "/>
     <polygon id="128" class="fil27" points="6559,6584 8473,6584 8473,8498 6559,8498 6559,6584 6646,6671 8386,6671 8386,8411 6646,8411 6646,6671 "/>
     <polygon id="129" class="fil27" points="6603,6627 8430,6627 8430,8454 6603,8454 6603,6627 6690,6714 8343,6714 8343,8367 6690,8367 6690,6714 "/>
     <polygon id="130" class="fil27" points="6646,6671 8386,6671 8386,8411 6646,8411 6646,6671 6733,6758 8299,6758 8299,8324 6733,8324 6733,6758 "/>
     <polygon id="131" class="fil27" points="6690,6714 8343,6714 8343,8367 6690,8367 6690,6714 6777,6801 8256,6801 8256,8280 6777,8280 6777,6801 "/>
     <polygon id="132" class="fil27" points="6733,6758 8299,6758 8299,8324 6733,8324 6733,6758 6820,6845 8212,6845 8212,8237 6820,8237 6820,6845 "/>
     <polygon id="133" class="fil27" points="6777,6801 8256,6801 8256,8280 6777,8280 6777,6801 6864,6888 8169,6888 8169,8193 6864,8193 6864,6888 "/>
     <polygon id="134" class="fil27" points="6820,6845 8212,6845 8212,8237 6820,8237 6820,6845 6907,6932 8125,6932 8125,8150 6907,8150 6907,6932 "/>
     <polygon id="135" class="fil27" points="6864,6888 8169,6888 8169,8193 6864,8193 6864,6888 6951,6975 8082,6975 8082,8106 6951,8106 6951,6975 "/>
     <polygon id="136" class="fil27" points="6907,6932 8125,6932 8125,8150 6907,8150 6907,6932 6994,7019 8038,7019 8038,8063 6994,8063 6994,7019 "/>
     <polygon id="137" class="fil27" points="6951,6975 8082,6975 8082,8106 6951,8106 6951,6975 7038,7062 7995,7062 7995,8019 7038,8019 7038,7062 "/>
     <polygon id="138" class="fil27" points="6994,7019 8038,7019 8038,8063 6994,8063 6994,7019 7081,7106 7951,7106 7951,7976 7081,7976 7081,7106 "/>
     <polygon id="139" class="fil27" points="7038,7062 7995,7062 7995,8019 7038,8019 7038,7062 7125,7149 7908,7149 7908,7932 7125,7932 7125,7149 "/>
     <polygon id="140" class="fil27" points="7081,7106 7951,7106 7951,7976 7081,7976 7081,7106 7168,7193 7864,7193 7864,7889 7168,7889 7168,7193 "/>
     <polygon id="141" class="fil27" points="7125,7149 7908,7149 7908,7932 7125,7932 7125,7149 7212,7236 7821,7236 7821,7845 7212,7845 7212,7236 "/>
     <polygon id="142" class="fil27" points="7168,7193 7864,7193 7864,7889 7168,7889 7168,7193 7255,7280 7777,7280 7777,7802 7255,7802 7255,7280 "/>
     <polygon id="143" class="fil27" points="7212,7236 7821,7236 7821,7845 7212,7845 7212,7236 7299,7323 7734,7323 7734,7758 7299,7758 7299,7323 "/>
     <polygon id="144" class="fil27" points="7255,7280 7777,7280 7777,7802 7255,7802 7255,7280 7342,7367 7690,7367 7690,7715 7342,7715 7342,7367 "/>
     <polygon id="145" class="fil27" points="7299,7323 7734,7323 7734,7758 7299,7758 7299,7323 7386,7410 7647,7410 7647,7671 7386,7671 7386,7410 "/>
     <polygon id="146" class="fil27" points="7342,7367 7690,7367 7690,7715 7342,7715 7342,7367 7429,7454 7603,7454 7603,7628 7429,7628 7429,7454 "/>
     <polygon id="147" class="fil27" points="7386,7410 7647,7410 7647,7671 7386,7671 7386,7410 7473,7497 7560,7497 7560,7584 7473,7584 7473,7497 "/>
     <polygon id="148" class="fil27" points="7429,7454 7603,7454 7603,7628 7429,7628 7429,7454 7516,7541 7516,7541 7516,7541 7516,7541 7516,7541 "/>
     <polygon id="149" class="fil27" points="7473,7497 7560,7497 7560,7584 7473,7584 7473,7497 "/>
    </g>
   </g>
  </g>
  <rect class="fil28" x="12053" y="2971" width="494" height="8624" rx="173" ry="354"/>
  <path class="fil29" d="M4334 11317c1522,0 2532,-294 3278,-1736 119,-229 792,-1851 343,-1851 -190,0 -1184,-109 -1184,69 0,482 -417,1944 -1124,2154 -419,124 -1033,184 -1399,266 -417,94 -346,1103 86,1098z"/>
  <path class="fil30" d="M2586 3836c1546,0 2571,287 3329,1692 120,223 804,1803 349,1803 -193,0 -1203,106 -1203,-67 0,-470 -423,-1895 -1142,-2099 -426,-121 -1049,-179 -1420,-259 -423,-91 -352,-1075 87,-1070z"/>
  <path class="fil31" d="M1994 6782l7833 0c-114,-571 -244,-1057 278,-690 708,497 1902,1176 1908,1332 6,157 -1095,852 -1889,1336 -561,343 -421,-121 -300,-678l-7830 0c-344,0 -625,-293 -625,-650l0 0c0,-358 281,-650 625,-650z"/>
 </g>
</svg>
