<?xml version="1.0" encoding="UTF-8"?>
<!DOCTYPE svg PUBLIC "-//W3C//DTD SVG 1.1//EN" "http://www.w3.org/Graphics/SVG/1.1/DTD/svg11.dtd">
<!-- Creator: CorelDRAW X6 -->
<svg xmlns="http://www.w3.org/2000/svg" xml:space="preserve" width="150px" height="150px" version="1.1" style="shape-rendering:geometricPrecision; text-rendering:geometricPrecision; image-rendering:optimizeQuality; fill-rule:evenodd; clip-rule:evenodd"
viewBox="0 0 15000 15000"
 xmlns:xlink="http://www.w3.org/1999/xlink">
 <defs>
  <style type="text/css">
   <![CDATA[
    .str0 {stroke:#333333;stroke-width:39.69}
    .str1 {stroke:#990000;stroke-width:79.375}
    .fil55 {fill:none}
    .fil57 {fill:#1A1A1A}
    .fil2 {fill:#538A6D}
    .fil3 {fill:#538B6E}
    .fil4 {fill:#548B6E}
    .fil5 {fill:#548C6F}
    .fil6 {fill:#558D6F}
    .fil7 {fill:#558D70}
    .fil8 {fill:#558E70}
    .fil0 {fill:#568B71}
    .fil9 {fill:#568E71}
    .fil10 {fill:#568F71}
    .fil11 {fill:#568F72}
    .fil12 {fill:#569072}
    .fil13 {fill:#579072}
    .fil14 {fill:#579173}
    .fil15 {fill:#589274}
    .fil16 {fill:#589375}
    .fil17 {fill:#599375}
    .fil18 {fill:#599475}
    .fil19 {fill:#599476}
    .fil20 {fill:#599576}
    .fil21 {fill:#5A9577}
    .fil22 {fill:#5A9677}
    .fil23 {fill:#5A9678}
    .fil24 {fill:#5B9778}
    .fil25 {fill:#5B9879}
    .fil26 {fill:#5C9879}
    .fil27 {fill:#5C997A}
    .fil28 {fill:#5D9A7B}
    .fil29 {fill:#5D9B7C}
    .fil30 {fill:#5E9B7C}
    .fil31 {fill:#5E9C7D}
    .fil32 {fill:#5F9D7D}
    .fil33 {fill:#5F9D7E}
    .fil34 {fill:#5F9E7E}
    .fil35 {fill:#609E7F}
    .fil36 {fill:#609F7F}
    .fil37 {fill:#609F80}
    .fil38 {fill:#60A080}
    .fil39 {fill:#61A080}
    .fil40 {fill:#61A181}
    .fil41 {fill:#62A282}
    .fil42 {fill:#62A383}
    .fil43 {fill:#63A383}
    .fil44 {fill:#63A483}
    .fil45 {fill:#63A484}
    .fil46 {fill:#63A584}
    .fil47 {fill:#64A585}
    .fil48 {fill:#64A685}
    .fil49 {fill:#64A686}
    .fil50 {fill:#65A786}
    .fil51 {fill:#65A887}
    .fil52 {fill:#66A887}
    .fil53 {fill:#66A988}
    .fil54 {fill:#67AA89}
    .fil56 {fill:#FFED4A}
    .fil1 {fill:black;fill-opacity:0.000000}
    .fil59 {fill:url(#id2)}
    .fil58 {fill:url(#id3)}
   ]]>
  </style>
      <clipPath id="id0">
       <path d="M2369 14080l10279 0c792,0 1440,-648 1440,-1440l0 -10279c0,-792 -648,-1440 -1440,-1440l-10279 0c-792,0 -1440,648 -1440,1440l0 10279c0,792 648,1440 1440,1440z"/>
      </clipPath>
      <clipPath id="id1">
       <path d="M2369 14080l10279 0c792,0 1440,-648 1440,-1440l0 -10279c0,-792 -648,-1440 -1440,-1440l-10279 0c-792,0 -1440,648 -1440,1440l0 10279c0,792 648,1440 1440,1440z"/>
      </clipPath>
  <linearGradient id="id2" gradientUnits="userSpaceOnUse" x1="10867.1" y1="11105.4" x2="10867.1" y2="2158.1">
   <stop offset="0" style="stop-color:red"/>
   <stop offset="1" style="stop-color:#FC3737"/>
  </linearGradient>
  <linearGradient id="id3" gradientUnits="userSpaceOnUse" x1="4113.32" y1="7381.11" x2="6063.18" y2="6361.52">
   <stop offset="0" style="stop-color:#C79F00"/>
   <stop offset="0.231373" style="stop-color:#FFDB2E"/>
   <stop offset="0.729412" style="stop-color:#FFFF66"/>
   <stop offset="0.921569" style="stop-color:#FFE241"/>
   <stop offset="1" style="stop-color:#C79F00"/>
  </linearGradient>
 </defs>
 <g id="Layer_x0020_1">
  <metadata id="CorelCorpID_0Corel-Layer"/>
  <g id="_270189416">
   <g id="_343530368">
    <path class="fil0" d="M2160 27l10699 0c1173,0 2124,951 2124,2124l0 10699c0,1173 -951,2124 -2124,2124l-10699 0c-1173,0 -2124,-951 -2124,-2124l0 -10699c0,-1173 951,-2124 2124,-2124z"/>
    <g>
     <g style="clip-path:url(#id0)">
      <polygon class="fil1" points="929,920 14089,920 14089,14080 929,14080 "/>
     </g>
     <g style="clip-path:url(#id1)">
      <g>
       <polygon id="1" class="fil2" points="929,920 14089,920 14089,14080 929,14080 929,920 973,964 14045,964 14045,14036 973,14036 973,964 "/>
       <polygon id="_1" class="fil2" points="951,942 14067,942 14067,14058 951,14058 951,942 995,986 14023,986 14023,14014 995,14014 995,986 "/>
       <polygon id="_2" class="fil2" points="973,964 14045,964 14045,14036 973,14036 973,964 1017,1008 14001,1008 14001,13992 1017,13992 1017,1008 "/>
       <polygon id="_3" class="fil3" points="995,986 14023,986 14023,14014 995,14014 995,986 1039,1030 13979,1030 13979,13970 1039,13970 1039,1030 "/>
       <polygon id="_4" class="fil4" points="1017,1008 14001,1008 14001,13992 1017,13992 1017,1008 1061,1052 13957,1052 13957,13948 1061,13948 1061,1052 "/>
       <polygon id="_5" class="fil5" points="1039,1030 13979,1030 13979,13970 1039,13970 1039,1030 1083,1074 13935,1074 13935,13926 1083,13926 1083,1074 "/>
       <polygon id="_6" class="fil5" points="1061,1052 13957,1052 13957,13948 1061,13948 1061,1052 1105,1096 13913,1096 13913,13904 1105,13904 1105,1096 "/>
       <polygon id="_7" class="fil6" points="1083,1074 13935,1074 13935,13926 1083,13926 1083,1074 1127,1118 13891,1118 13891,13882 1127,13882 1127,1118 "/>
       <polygon id="_8" class="fil7" points="1105,1096 13913,1096 13913,13904 1105,13904 1105,1096 1149,1140 13869,1140 13869,13860 1149,13860 1149,1140 "/>
       <polygon id="_9" class="fil8" points="1127,1118 13891,1118 13891,13882 1127,13882 1127,1118 1170,1162 13847,1162 13847,13838 1170,13838 1170,1162 "/>
       <polygon id="_10" class="fil9" points="1149,1140 13869,1140 13869,13860 1149,13860 1149,1140 1192,1183 13825,1183 13825,13817 1192,13817 1192,1183 "/>
       <polygon id="_11" class="fil10" points="1170,1162 13847,1162 13847,13838 1170,13838 1170,1162 1214,1205 13804,1205 13804,13795 1214,13795 1214,1205 "/>
       <polygon id="_12" class="fil11" points="1192,1183 13825,1183 13825,13817 1192,13817 1192,1183 1236,1227 13782,1227 13782,13773 1236,13773 1236,1227 "/>
       <polygon id="_13" class="fil12" points="1214,1205 13804,1205 13804,13795 1214,13795 1214,1205 1258,1249 13760,1249 13760,13751 1258,13751 1258,1249 "/>
       <polygon id="_14" class="fil13" points="1236,1227 13782,1227 13782,13773 1236,13773 1236,1227 1280,1271 13738,1271 13738,13729 1280,13729 1280,1271 "/>
       <polygon id="_15" class="fil14" points="1258,1249 13760,1249 13760,13751 1258,13751 1258,1249 1302,1293 13716,1293 13716,13707 1302,13707 1302,1293 "/>
       <polygon id="_16" class="fil14" points="1280,1271 13738,1271 13738,13729 1280,13729 1280,1271 1324,1315 13694,1315 13694,13685 1324,13685 1324,1315 "/>
       <polygon id="_17" class="fil15" points="1302,1293 13716,1293 13716,13707 1302,13707 1302,1293 1346,1337 13672,1337 13672,13663 1346,13663 1346,1337 "/>
       <polygon id="_18" class="fil15" points="1324,1315 13694,1315 13694,13685 1324,13685 1324,1315 1368,1359 13650,1359 13650,13641 1368,13641 1368,1359 "/>
       <polygon id="_19" class="fil16" points="1346,1337 13672,1337 13672,13663 1346,13663 1346,1337 1390,1381 13628,1381 13628,13619 1390,13619 1390,1381 "/>
       <polygon id="_20" class="fil17" points="1368,1359 13650,1359 13650,13641 1368,13641 1368,1359 1412,1403 13606,1403 13606,13597 1412,13597 1412,1403 "/>
       <polygon id="_21" class="fil18" points="1390,1381 13628,1381 13628,13619 1390,13619 1390,1381 1434,1425 13584,1425 13584,13575 1434,13575 1434,1425 "/>
       <polygon id="_22" class="fil19" points="1412,1403 13606,1403 13606,13597 1412,13597 1412,1403 1456,1447 13562,1447 13562,13553 1456,13553 1456,1447 "/>
       <polygon id="_23" class="fil20" points="1434,1425 13584,1425 13584,13575 1434,13575 1434,1425 1478,1469 13540,1469 13540,13531 1478,13531 1478,1469 "/>
       <polygon id="_24" class="fil21" points="1456,1447 13562,1447 13562,13553 1456,13553 1456,1447 1499,1491 13518,1491 13518,13509 1499,13509 1499,1491 "/>
       <polygon id="_25" class="fil22" points="1478,1469 13540,1469 13540,13531 1478,13531 1478,1469 1521,1512 13496,1512 13496,13488 1521,13488 1521,1512 "/>
       <polygon id="_26" class="fil23" points="1499,1491 13518,1491 13518,13509 1499,13509 1499,1491 1543,1534 13475,1534 13475,13466 1543,13466 1543,1534 "/>
       <polygon id="_27" class="fil24" points="1521,1512 13496,1512 13496,13488 1521,13488 1521,1512 1565,1556 13453,1556 13453,13444 1565,13444 1565,1556 "/>
       <polygon id="_28" class="fil24" points="1543,1534 13475,1534 13475,13466 1543,13466 1543,1534 1587,1578 13431,1578 13431,13422 1587,13422 1587,1578 "/>
       <polygon id="_29" class="fil25" points="1565,1556 13453,1556 13453,13444 1565,13444 1565,1556 1609,1600 13409,1600 13409,13400 1609,13400 1609,1600 "/>
       <polygon id="_30" class="fil26" points="1587,1578 13431,1578 13431,13422 1587,13422 1587,1578 1631,1622 13387,1622 13387,13378 1631,13378 1631,1622 "/>
       <polygon id="_31" class="fil27" points="1609,1600 13409,1600 13409,13400 1609,13400 1609,1600 1653,1644 13365,1644 13365,13356 1653,13356 1653,1644 "/>
       <polygon id="_32" class="fil27" points="1631,1622 13387,1622 13387,13378 1631,13378 1631,1622 1675,1666 13343,1666 13343,13334 1675,13334 1675,1666 "/>
       <polygon id="_33" class="fil28" points="1653,1644 13365,1644 13365,13356 1653,13356 1653,1644 1697,1688 13321,1688 13321,13312 1697,13312 1697,1688 "/>
       <polygon id="_34" class="fil28" points="1675,1666 13343,1666 13343,13334 1675,13334 1675,1666 1719,1710 13299,1710 13299,13290 1719,13290 1719,1710 "/>
       <polygon id="_35" class="fil28" points="1697,1688 13321,1688 13321,13312 1697,13312 1697,1688 1741,1732 13277,1732 13277,13268 1741,13268 1741,1732 "/>
       <polygon id="_36" class="fil29" points="1719,1710 13299,1710 13299,13290 1719,13290 1719,1710 1763,1754 13255,1754 13255,13246 1763,13246 1763,1754 "/>
       <polygon id="_37" class="fil30" points="1741,1732 13277,1732 13277,13268 1741,13268 1741,1732 1785,1776 13233,1776 13233,13224 1785,13224 1785,1776 "/>
       <polygon id="_38" class="fil31" points="1763,1754 13255,1754 13255,13246 1763,13246 1763,1754 1806,1798 13211,1798 13211,13202 1806,13202 1806,1798 "/>
       <polygon id="_39" class="fil31" points="1785,1776 13233,1776 13233,13224 1785,13224 1785,1776 1828,1820 13189,1820 13189,13180 1828,13180 1828,1820 "/>
       <polygon id="_40" class="fil32" points="1806,1798 13211,1798 13211,13202 1806,13202 1806,1798 1850,1841 13167,1841 13167,13159 1850,13159 1850,1841 "/>
       <polygon id="_41" class="fil33" points="1828,1820 13189,1820 13189,13180 1828,13180 1828,1820 1872,1863 13146,1863 13146,13137 1872,13137 1872,1863 "/>
       <polygon id="_42" class="fil34" points="1850,1841 13167,1841 13167,13159 1850,13159 1850,1841 1894,1885 13124,1885 13124,13115 1894,13115 1894,1885 "/>
       <polygon id="_43" class="fil35" points="1872,1863 13146,1863 13146,13137 1872,13137 1872,1863 1916,1907 13102,1907 13102,13093 1916,13093 1916,1907 "/>
       <polygon id="_44" class="fil36" points="1894,1885 13124,1885 13124,13115 1894,13115 1894,1885 1938,1929 13080,1929 13080,13071 1938,13071 1938,1929 "/>
       <polygon id="_45" class="fil37" points="1916,1907 13102,1907 13102,13093 1916,13093 1916,1907 1960,1951 13058,1951 13058,13049 1960,13049 1960,1951 "/>
       <polygon id="_46" class="fil38" points="1938,1929 13080,1929 13080,13071 1938,13071 1938,1929 1982,1973 13036,1973 13036,13027 1982,13027 1982,1973 "/>
       <polygon id="_47" class="fil39" points="1960,1951 13058,1951 13058,13049 1960,13049 1960,1951 2004,1995 13014,1995 13014,13005 2004,13005 2004,1995 "/>
       <polygon id="_48" class="fil40" points="1982,1973 13036,1973 13036,13027 1982,13027 1982,1973 2026,2017 12992,2017 12992,12983 2026,12983 2026,2017 "/>
       <polygon id="_49" class="fil40" points="2004,1995 13014,1995 13014,13005 2004,13005 2004,1995 2048,2039 12970,2039 12970,12961 2048,12961 2048,2039 "/>
       <polygon id="_50" class="fil41" points="2026,2017 12992,2017 12992,12983 2026,12983 2026,2017 2070,2061 12948,2061 12948,12939 2070,12939 2070,2061 "/>
       <polygon id="_51" class="fil41" points="2048,2039 12970,2039 12970,12961 2048,12961 2048,2039 2092,2083 12926,2083 12926,12917 2092,12917 2092,2083 "/>
       <polygon id="_52" class="fil42" points="2070,2061 12948,2061 12948,12939 2070,12939 2070,2061 2114,2105 12904,2105 12904,12895 2114,12895 2114,2105 "/>
       <polygon id="_53" class="fil43" points="2092,2083 12926,2083 12926,12917 2092,12917 2092,2083 2135,2127 12882,2127 12882,12873 2135,12873 2135,2127 "/>
       <polygon id="_54" class="fil44" points="2114,2105 12904,2105 12904,12895 2114,12895 2114,2105 2157,2148 12860,2148 12860,12851 2157,12851 2157,2148 "/>
       <polygon id="_55" class="fil45" points="2135,2127 12882,2127 12882,12873 2135,12873 2135,2127 2179,2170 12838,2170 12838,12830 2179,12830 2179,2170 "/>
       <polygon id="_56" class="fil46" points="2157,2148 12860,2148 12860,12851 2157,12851 2157,2148 2201,2192 12817,2192 12817,12808 2201,12808 2201,2192 "/>
       <polygon id="_57" class="fil47" points="2179,2170 12838,2170 12838,12830 2179,12830 2179,2170 2223,2214 12795,2214 12795,12786 2223,12786 2223,2214 "/>
       <polygon id="_58" class="fil48" points="2201,2192 12817,2192 12817,12808 2201,12808 2201,2192 2245,2236 12773,2236 12773,12764 2245,12764 2245,2236 "/>
       <polygon id="_59" class="fil49" points="2223,2214 12795,2214 12795,12786 2223,12786 2223,2214 2267,2258 12751,2258 12751,12742 2267,12742 2267,2258 "/>
       <polygon id="_60" class="fil50" points="2245,2236 12773,2236 12773,12764 2245,12764 2245,2236 2289,2280 12729,2280 12729,12720 2289,12720 2289,2280 "/>
       <polygon id="_61" class="fil50" points="2267,2258 12751,2258 12751,12742 2267,12742 2267,2258 2311,2302 12707,2302 12707,12698 2311,12698 2311,2302 "/>
       <polygon id="_62" class="fil51" points="2289,2280 12729,2280 12729,12720 2289,12720 2289,2280 2333,2324 12685,2324 12685,12676 2333,12676 2333,2324 "/>
       <polygon id="_63" class="fil52" points="2311,2302 12707,2302 12707,12698 2311,12698 2311,2302 2355,2346 12663,2346 12663,12654 2355,12654 2355,2346 "/>
       <polygon id="_64" class="fil53" points="2333,2324 12685,2324 12685,12676 2333,12676 2333,2324 2377,2368 12641,2368 12641,12632 2377,12632 2377,2368 "/>
       <polygon id="_65" class="fil53" points="2355,2346 12663,2346 12663,12654 2355,12654 2355,2346 2399,2390 12619,2390 12619,12610 2399,12610 2399,2390 "/>
       <polygon id="_66" class="fil54" points="2377,2368 12641,2368 12641,12632 2377,12632 2377,2368 2421,2412 12597,2412 12597,12588 2421,12588 2421,2412 "/>
       <polygon id="_67" class="fil54" points="2399,2390 12619,2390 12619,12610 2399,12610 2399,2390 2443,2434 12575,2434 12575,12566 2443,12566 2443,2434 "/>
       <polygon id="_68" class="fil54" points="2421,2412 12597,2412 12597,12588 2421,12588 2421,2412 2464,2456 12553,2456 12553,12544 2464,12544 2464,2456 "/>
       <polygon id="_69" class="fil54" points="2443,2434 12575,2434 12575,12566 2443,12566 2443,2434 2486,2477 12531,2477 12531,12522 2486,12522 2486,2477 "/>
       <polygon id="_70" class="fil54" points="2464,2456 12553,2456 12553,12544 2464,12544 2464,2456 2508,2499 12509,2499 12509,12501 2508,12501 2508,2499 "/>
       <polygon id="_71" class="fil54" points="2486,2477 12531,2477 12531,12522 2486,12522 2486,2477 2530,2521 12488,2521 12488,12479 2530,12479 2530,2521 "/>
       <polygon id="_72" class="fil54" points="2508,2499 12509,2499 12509,12501 2508,12501 2508,2499 2552,2543 12466,2543 12466,12457 2552,12457 2552,2543 "/>
       <polygon id="_73" class="fil54" points="2530,2521 12488,2521 12488,12479 2530,12479 2530,2521 2574,2565 12444,2565 12444,12435 2574,12435 2574,2565 "/>
       <polygon id="_74" class="fil54" points="2552,2543 12466,2543 12466,12457 2552,12457 2552,2543 2596,2587 12422,2587 12422,12413 2596,12413 2596,2587 "/>
       <polygon id="_75" class="fil54" points="2574,2565 12444,2565 12444,12435 2574,12435 2574,2565 2618,2609 12400,2609 12400,12391 2618,12391 2618,2609 "/>
       <polygon id="_76" class="fil54" points="2596,2587 12422,2587 12422,12413 2596,12413 2596,2587 2640,2631 12378,2631 12378,12369 2640,12369 2640,2631 "/>
       <polygon id="_77" class="fil54" points="2618,2609 12400,2609 12400,12391 2618,12391 2618,2609 2662,2653 12356,2653 12356,12347 2662,12347 2662,2653 "/>
       <polygon id="_78" class="fil54" points="2640,2631 12378,2631 12378,12369 2640,12369 2640,2631 2684,2675 12334,2675 12334,12325 2684,12325 2684,2675 "/>
       <polygon id="_79" class="fil54" points="2662,2653 12356,2653 12356,12347 2662,12347 2662,2653 2706,2697 12312,2697 12312,12303 2706,12303 2706,2697 "/>
       <polygon id="_80" class="fil54" points="2684,2675 12334,2675 12334,12325 2684,12325 2684,2675 2728,2719 12290,2719 12290,12281 2728,12281 2728,2719 "/>
       <polygon id="_81" class="fil54" points="2706,2697 12312,2697 12312,12303 2706,12303 2706,2697 2750,2741 12268,2741 12268,12259 2750,12259 2750,2741 "/>
       <polygon id="_82" class="fil54" points="2728,2719 12290,2719 12290,12281 2728,12281 2728,2719 2772,2763 12246,2763 12246,12237 2772,12237 2772,2763 "/>
       <polygon id="_83" class="fil54" points="2750,2741 12268,2741 12268,12259 2750,12259 2750,2741 2793,2785 12224,2785 12224,12215 2793,12215 2793,2785 "/>
       <polygon id="_84" class="fil54" points="2772,2763 12246,2763 12246,12237 2772,12237 2772,2763 2815,2806 12202,2806 12202,12194 2815,12194 2815,2806 "/>
       <polygon id="_85" class="fil54" points="2793,2785 12224,2785 12224,12215 2793,12215 2793,2785 2837,2828 12181,2828 12181,12172 2837,12172 2837,2828 "/>
       <polygon id="_86" class="fil54" points="2815,2806 12202,2806 12202,12194 2815,12194 2815,2806 2859,2850 12159,2850 12159,12150 2859,12150 2859,2850 "/>
       <polygon id="_87" class="fil54" points="2837,2828 12181,2828 12181,12172 2837,12172 2837,2828 2881,2872 12137,2872 12137,12128 2881,12128 2881,2872 "/>
       <polygon id="_88" class="fil54" points="2859,2850 12159,2850 12159,12150 2859,12150 2859,2850 2903,2894 12115,2894 12115,12106 2903,12106 2903,2894 "/>
       <polygon id="_89" class="fil54" points="2881,2872 12137,2872 12137,12128 2881,12128 2881,2872 2925,2916 12093,2916 12093,12084 2925,12084 2925,2916 "/>
       <polygon id="_90" class="fil54" points="2903,2894 12115,2894 12115,12106 2903,12106 2903,2894 2947,2938 12071,2938 12071,12062 2947,12062 2947,2938 "/>
       <polygon id="_91" class="fil54" points="2925,2916 12093,2916 12093,12084 2925,12084 2925,2916 2969,2960 12049,2960 12049,12040 2969,12040 2969,2960 "/>
       <polygon id="_92" class="fil54" points="2947,2938 12071,2938 12071,12062 2947,12062 2947,2938 2991,2982 12027,2982 12027,12018 2991,12018 2991,2982 "/>
       <polygon id="_93" class="fil54" points="2969,2960 12049,2960 12049,12040 2969,12040 2969,2960 3013,3004 12005,3004 12005,11996 3013,11996 3013,3004 "/>
       <polygon id="_94" class="fil54" points="2991,2982 12027,2982 12027,12018 2991,12018 2991,2982 3035,3026 11983,3026 11983,11974 3035,11974 3035,3026 "/>
       <polygon id="_95" class="fil54" points="3013,3004 12005,3004 12005,11996 3013,11996 3013,3004 3057,3048 11961,3048 11961,11952 3057,11952 3057,3048 "/>
       <polygon id="_96" class="fil54" points="3035,3026 11983,3026 11983,11974 3035,11974 3035,3026 3079,3070 11939,3070 11939,11930 3079,11930 3079,3070 "/>
       <polygon id="_97" class="fil54" points="3057,3048 11961,3048 11961,11952 3057,11952 3057,3048 3101,3092 11917,3092 11917,11908 3101,11908 3101,3092 "/>
       <polygon id="_98" class="fil54" points="3079,3070 11939,3070 11939,11930 3079,11930 3079,3070 3122,3114 11895,3114 11895,11886 3122,11886 3122,3114 "/>
       <polygon id="_99" class="fil54" points="3101,3092 11917,3092 11917,11908 3101,11908 3101,3092 3144,3135 11873,3135 11873,11865 3144,11865 3144,3135 "/>
       <polygon id="_100" class="fil54" points="3122,3114 11895,3114 11895,11886 3122,11886 3122,3114 3166,3157 11852,3157 11852,11843 3166,11843 3166,3157 "/>
       <polygon id="_101" class="fil54" points="3144,3135 11873,3135 11873,11865 3144,11865 3144,3135 3188,3179 11830,3179 11830,11821 3188,11821 3188,3179 "/>
       <polygon id="_102" class="fil54" points="3166,3157 11852,3157 11852,11843 3166,11843 3166,3157 3210,3201 11808,3201 11808,11799 3210,11799 3210,3201 "/>
       <polygon id="_103" class="fil54" points="3188,3179 11830,3179 11830,11821 3188,11821 3188,3179 3232,3223 11786,3223 11786,11777 3232,11777 3232,3223 "/>
       <polygon id="_104" class="fil54" points="3210,3201 11808,3201 11808,11799 3210,11799 3210,3201 3254,3245 11764,3245 11764,11755 3254,11755 3254,3245 "/>
       <polygon id="_105" class="fil54" points="3232,3223 11786,3223 11786,11777 3232,11777 3232,3223 3276,3267 11742,3267 11742,11733 3276,11733 3276,3267 "/>
       <polygon id="_106" class="fil54" points="3254,3245 11764,3245 11764,11755 3254,11755 3254,3245 3298,3289 11720,3289 11720,11711 3298,11711 3298,3289 "/>
       <polygon id="_107" class="fil54" points="3276,3267 11742,3267 11742,11733 3276,11733 3276,3267 3320,3311 11698,3311 11698,11689 3320,11689 3320,3311 "/>
       <polygon id="_108" class="fil54" points="3298,3289 11720,3289 11720,11711 3298,11711 3298,3289 3342,3333 11676,3333 11676,11667 3342,11667 3342,3333 "/>
       <polygon id="_109" class="fil54" points="3320,3311 11698,3311 11698,11689 3320,11689 3320,3311 3364,3355 11654,3355 11654,11645 3364,11645 3364,3355 "/>
       <polygon id="_110" class="fil54" points="3342,3333 11676,3333 11676,11667 3342,11667 3342,3333 3386,3377 11632,3377 11632,11623 3386,11623 3386,3377 "/>
       <polygon id="_111" class="fil54" points="3364,3355 11654,3355 11654,11645 3364,11645 3364,3355 3408,3399 11610,3399 11610,11601 3408,11601 3408,3399 "/>
       <polygon id="_112" class="fil54" points="3386,3377 11632,3377 11632,11623 3386,11623 3386,3377 3429,3421 11588,3421 11588,11579 3429,11579 3429,3421 "/>
       <polygon id="_113" class="fil54" points="3408,3399 11610,3399 11610,11601 3408,11601 3408,3399 3451,3443 11566,3443 11566,11557 3451,11557 3451,3443 "/>
       <polygon id="_114" class="fil54" points="3429,3421 11588,3421 11588,11579 3429,11579 3429,3421 3473,3464 11544,3464 11544,11536 3473,11536 3473,3464 "/>
       <polygon id="_115" class="fil54" points="3451,3442 11566,3442 11566,11557 3451,11557 3451,3442 3495,3486 11523,3486 11523,11514 3495,11514 3495,3486 "/>
       <polygon id="_116" class="fil54" points="3473,3464 11544,3464 11544,11536 3473,11536 3473,3464 3517,3508 11501,3508 11501,11492 3517,11492 3517,3508 "/>
       <polygon id="_117" class="fil54" points="3495,3486 11523,3486 11523,11514 3495,11514 3495,3486 3539,3530 11479,3530 11479,11470 3539,11470 3539,3530 "/>
       <polygon id="_118" class="fil54" points="3517,3508 11501,3508 11501,11492 3517,11492 3517,3508 3561,3552 11457,3552 11457,11448 3561,11448 3561,3552 "/>
       <polygon id="_119" class="fil54" points="3539,3530 11479,3530 11479,11470 3539,11470 3539,3530 3583,3574 11435,3574 11435,11426 3583,11426 3583,3574 "/>
       <polygon id="_120" class="fil54" points="3561,3552 11457,3552 11457,11448 3561,11448 3561,3552 3605,3596 11413,3596 11413,11404 3605,11404 3605,3596 "/>
       <polygon id="_121" class="fil54" points="3583,3574 11435,3574 11435,11426 3583,11426 3583,3574 3627,3618 11391,3618 11391,11382 3627,11382 3627,3618 "/>
       <polygon id="_122" class="fil54" points="3605,3596 11413,3596 11413,11404 3605,11404 3605,3596 3649,3640 11369,3640 11369,11360 3649,11360 3649,3640 "/>
       <polygon id="_123" class="fil54" points="3627,3618 11391,3618 11391,11382 3627,11382 3627,3618 3671,3662 11347,3662 11347,11338 3671,11338 3671,3662 "/>
       <polygon id="_124" class="fil54" points="3649,3640 11369,3640 11369,11360 3649,11360 3649,3640 3693,3684 11325,3684 11325,11316 3693,11316 3693,3684 "/>
       <polygon id="_125" class="fil54" points="3671,3662 11347,3662 11347,11338 3671,11338 3671,3662 3715,3706 11303,3706 11303,11294 3715,11294 3715,3706 "/>
       <polygon id="_126" class="fil54" points="3693,3684 11325,3684 11325,11316 3693,11316 3693,3684 3737,3728 11281,3728 11281,11272 3737,11272 3737,3728 "/>
       <polygon id="_127" class="fil54" points="3715,3706 11303,3706 11303,11294 3715,11294 3715,3706 3758,3750 11259,3750 11259,11250 3758,11250 3758,3750 "/>
       <polygon id="_128" class="fil54" points="3737,3728 11281,3728 11281,11272 3737,11272 3737,3728 3780,3772 11237,3772 11237,11228 3780,11228 3780,3772 "/>
       <polygon id="_129" class="fil54" points="3758,3750 11259,3750 11259,11250 3758,11250 3758,3750 3802,3793 11215,3793 11215,11207 3802,11207 3802,3793 "/>
       <polygon id="_130" class="fil54" points="3780,3771 11237,3771 11237,11228 3780,11228 3780,3771 3824,3815 11194,3815 11194,11185 3824,11185 3824,3815 "/>
       <polygon id="_131" class="fil54" points="3802,3793 11215,3793 11215,11207 3802,11207 3802,3793 3846,3837 11172,3837 11172,11163 3846,11163 3846,3837 "/>
       <polygon id="_132" class="fil54" points="3824,3815 11194,3815 11194,11185 3824,11185 3824,3815 3868,3859 11150,3859 11150,11141 3868,11141 3868,3859 "/>
       <polygon id="_133" class="fil54" points="3846,3837 11172,3837 11172,11163 3846,11163 3846,3837 3890,3881 11128,3881 11128,11119 3890,11119 3890,3881 "/>
       <polygon id="_134" class="fil54" points="3868,3859 11150,3859 11150,11141 3868,11141 3868,3859 3912,3903 11106,3903 11106,11097 3912,11097 3912,3903 "/>
       <polygon id="_135" class="fil54" points="3890,3881 11128,3881 11128,11119 3890,11119 3890,3881 3934,3925 11084,3925 11084,11075 3934,11075 3934,3925 "/>
       <polygon id="_136" class="fil54" points="3912,3903 11106,3903 11106,11097 3912,11097 3912,3903 3956,3947 11062,3947 11062,11053 3956,11053 3956,3947 "/>
       <polygon id="_137" class="fil54" points="3934,3925 11084,3925 11084,11075 3934,11075 3934,3925 3978,3969 11040,3969 11040,11031 3978,11031 3978,3969 "/>
       <polygon id="_138" class="fil54" points="3956,3947 11062,3947 11062,11053 3956,11053 3956,3947 4000,3991 11018,3991 11018,11009 4000,11009 4000,3991 "/>
       <polygon id="_139" class="fil54" points="3978,3969 11040,3969 11040,11031 3978,11031 3978,3969 4022,4013 10996,4013 10996,10987 4022,10987 4022,4013 "/>
       <polygon id="_140" class="fil54" points="4000,3991 11018,3991 11018,11009 4000,11009 4000,3991 4044,4035 10974,4035 10974,10965 4044,10965 4044,4035 "/>
       <polygon id="_141" class="fil54" points="4022,4013 10996,4013 10996,10987 4022,10987 4022,4013 4066,4057 10952,4057 10952,10943 4066,10943 4066,4057 "/>
       <polygon id="_142" class="fil54" points="4044,4035 10974,4035 10974,10965 4044,10965 4044,4035 4087,4079 10930,4079 10930,10921 4087,10921 4087,4079 "/>
       <polygon id="_143" class="fil54" points="4066,4057 10952,4057 10952,10943 4066,10943 4066,4057 4109,4100 10908,4100 10908,10900 4109,10900 4109,4100 "/>
       <polygon id="_144" class="fil54" points="4087,4079 10930,4079 10930,10921 4087,10921 4087,4079 4131,4122 10887,4122 10887,10878 4131,10878 4131,4122 "/>
       <polygon id="_145" class="fil54" points="4109,4100 10908,4100 10908,10900 4109,10900 4109,4100 4153,4144 10865,4144 10865,10856 4153,10856 4153,4144 "/>
       <polygon id="_146" class="fil54" points="4131,4122 10887,4122 10887,10878 4131,10878 4131,4122 4175,4166 10843,4166 10843,10834 4175,10834 4175,4166 "/>
       <polygon id="_147" class="fil54" points="4153,4144 10865,4144 10865,10856 4153,10856 4153,4144 4197,4188 10821,4188 10821,10812 4197,10812 4197,4188 "/>
       <polygon id="_148" class="fil54" points="4175,4166 10843,4166 10843,10834 4175,10834 4175,4166 4219,4210 10799,4210 10799,10790 4219,10790 4219,4210 "/>
       <polygon id="_149" class="fil54" points="4197,4188 10821,4188 10821,10812 4197,10812 4197,4188 4241,4232 10777,4232 10777,10768 4241,10768 4241,4232 "/>
       <polygon id="_150" class="fil54" points="4219,4210 10799,4210 10799,10790 4219,10790 4219,4210 4263,4254 10755,4254 10755,10746 4263,10746 4263,4254 "/>
       <polygon id="_151" class="fil54" points="4241,4232 10777,4232 10777,10768 4241,10768 4241,4232 4285,4276 10733,4276 10733,10724 4285,10724 4285,4276 "/>
       <polygon id="_152" class="fil54" points="4263,4254 10755,4254 10755,10746 4263,10746 4263,4254 4307,4298 10711,4298 10711,10702 4307,10702 4307,4298 "/>
       <polygon id="_153" class="fil54" points="4285,4276 10733,4276 10733,10724 4285,10724 4285,4276 4329,4320 10689,4320 10689,10680 4329,10680 4329,4320 "/>
       <polygon id="_154" class="fil54" points="4307,4298 10711,4298 10711,10702 4307,10702 4307,4298 4351,4342 10667,4342 10667,10658 4351,10658 4351,4342 "/>
       <polygon id="_155" class="fil54" points="4329,4320 10689,4320 10689,10680 4329,10680 4329,4320 4373,4364 10645,4364 10645,10636 4373,10636 4373,4364 "/>
       <polygon id="_156" class="fil54" points="4351,4342 10667,4342 10667,10658 4351,10658 4351,4342 4395,4386 10623,4386 10623,10614 4395,10614 4395,4386 "/>
       <polygon id="_157" class="fil54" points="4373,4364 10645,4364 10645,10636 4373,10636 4373,4364 4416,4408 10601,4408 10601,10592 4416,10592 4416,4408 "/>
       <polygon id="_158" class="fil54" points="4395,4386 10623,4386 10623,10614 4395,10614 4395,4386 4438,4429 10579,4429 10579,10571 4438,10571 4438,4429 "/>
       <polygon id="_159" class="fil54" points="4416,4408 10601,4408 10601,10592 4416,10592 4416,4408 4460,4451 10558,4451 10558,10549 4460,10549 4460,4451 "/>
       <polygon id="_160" class="fil54" points="4438,4429 10579,4429 10579,10571 4438,10571 4438,4429 4482,4473 10536,4473 10536,10527 4482,10527 4482,4473 "/>
       <polygon id="_161" class="fil54" points="4460,4451 10558,4451 10558,10549 4460,10549 4460,4451 4504,4495 10514,4495 10514,10505 4504,10505 4504,4495 "/>
       <polygon id="_162" class="fil54" points="4482,4473 10536,4473 10536,10527 4482,10527 4482,4473 4526,4517 10492,4517 10492,10483 4526,10483 4526,4517 "/>
       <polygon id="_163" class="fil54" points="4504,4495 10514,4495 10514,10505 4504,10505 4504,4495 4548,4539 10470,4539 10470,10461 4548,10461 4548,4539 "/>
       <polygon id="_164" class="fil54" points="4526,4517 10492,4517 10492,10483 4526,10483 4526,4517 4570,4561 10448,4561 10448,10439 4570,10439 4570,4561 "/>
       <polygon id="_165" class="fil54" points="4548,4539 10470,4539 10470,10461 4548,10461 4548,4539 4592,4583 10426,4583 10426,10417 4592,10417 4592,4583 "/>
       <polygon id="_166" class="fil54" points="4570,4561 10448,4561 10448,10439 4570,10439 4570,4561 4614,4605 10404,4605 10404,10395 4614,10395 4614,4605 "/>
       <polygon id="_167" class="fil54" points="4592,4583 10426,4583 10426,10417 4592,10417 4592,4583 4636,4627 10382,4627 10382,10373 4636,10373 4636,4627 "/>
       <polygon id="_168" class="fil54" points="4614,4605 10404,4605 10404,10395 4614,10395 4614,4605 4658,4649 10360,4649 10360,10351 4658,10351 4658,4649 "/>
       <polygon id="_169" class="fil54" points="4636,4627 10382,4627 10382,10373 4636,10373 4636,4627 4680,4671 10338,4671 10338,10329 4680,10329 4680,4671 "/>
       <polygon id="_170" class="fil54" points="4658,4649 10360,4649 10360,10351 4658,10351 4658,4649 4702,4693 10316,4693 10316,10307 4702,10307 4702,4693 "/>
       <polygon id="_171" class="fil54" points="4680,4671 10338,4671 10338,10329 4680,10329 4680,4671 4724,4715 10294,4715 10294,10285 4724,10285 4724,4715 "/>
       <polygon id="_172" class="fil54" points="4702,4693 10316,4693 10316,10307 4702,10307 4702,4693 4745,4737 10272,4737 10272,10263 4745,10263 4745,4737 "/>
       <polygon id="_173" class="fil54" points="4724,4715 10294,4715 10294,10285 4724,10285 4724,4715 4767,4758 10250,4758 10250,10242 4767,10242 4767,4758 "/>
       <polygon id="_174" class="fil54" points="4745,4737 10272,4737 10272,10263 4745,10263 4745,4737 4789,4780 10229,4780 10229,10220 4789,10220 4789,4780 "/>
       <polygon id="_175" class="fil54" points="4767,4758 10250,4758 10250,10242 4767,10242 4767,4758 4811,4802 10207,4802 10207,10198 4811,10198 4811,4802 "/>
       <polygon id="_176" class="fil54" points="4789,4780 10229,4780 10229,10220 4789,10220 4789,4780 4833,4824 10185,4824 10185,10176 4833,10176 4833,4824 "/>
       <polygon id="_177" class="fil54" points="4811,4802 10207,4802 10207,10198 4811,10198 4811,4802 4855,4846 10163,4846 10163,10154 4855,10154 4855,4846 "/>
       <polygon id="_178" class="fil54" points="4833,4824 10185,4824 10185,10176 4833,10176 4833,4824 4877,4868 10141,4868 10141,10132 4877,10132 4877,4868 "/>
       <polygon id="_179" class="fil54" points="4855,4846 10163,4846 10163,10154 4855,10154 4855,4846 4899,4890 10119,4890 10119,10110 4899,10110 4899,4890 "/>
       <polygon id="_180" class="fil54" points="4877,4868 10141,4868 10141,10132 4877,10132 4877,4868 4921,4912 10097,4912 10097,10088 4921,10088 4921,4912 "/>
       <polygon id="_181" class="fil54" points="4899,4890 10119,4890 10119,10110 4899,10110 4899,4890 4943,4934 10075,4934 10075,10066 4943,10066 4943,4934 "/>
       <polygon id="_182" class="fil54" points="4921,4912 10097,4912 10097,10088 4921,10088 4921,4912 4965,4956 10053,4956 10053,10044 4965,10044 4965,4956 "/>
       <polygon id="_183" class="fil54" points="4943,4934 10075,4934 10075,10066 4943,10066 4943,4934 4987,4978 10031,4978 10031,10022 4987,10022 4987,4978 "/>
       <polygon id="_184" class="fil54" points="4965,4956 10053,4956 10053,10044 4965,10044 4965,4956 5009,5000 10009,5000 10009,10000 5009,10000 5009,5000 "/>
       <polygon id="_185" class="fil54" points="4987,4978 10031,4978 10031,10022 4987,10022 4987,4978 5031,5022 9987,5022 9987,9978 5031,9978 5031,5022 "/>
       <polygon id="_186" class="fil54" points="5009,5000 10009,5000 10009,10000 5009,10000 5009,5000 5052,5044 9965,5044 9965,9956 5052,9956 5052,5044 "/>
       <polygon id="_187" class="fil54" points="5031,5022 9987,5022 9987,9978 5031,9978 5031,5022 5074,5066 9943,5066 9943,9934 5074,9934 5074,5066 "/>
       <polygon id="_188" class="fil54" points="5052,5044 9965,5044 9965,9956 5052,9956 5052,5044 5096,5087 9921,5087 9921,9913 5096,9913 5096,5087 "/>
       <polygon id="_189" class="fil54" points="5074,5065 9943,5065 9943,9934 5074,9934 5074,5065 5118,5109 9900,5109 9900,9891 5118,9891 5118,5109 "/>
       <polygon id="_190" class="fil54" points="5096,5087 9921,5087 9921,9913 5096,9913 5096,5087 5140,5131 9878,5131 9878,9869 5140,9869 5140,5131 "/>
       <polygon id="_191" class="fil54" points="5118,5109 9900,5109 9900,9891 5118,9891 5118,5109 5162,5153 9856,5153 9856,9847 5162,9847 5162,5153 "/>
       <polygon id="_192" class="fil54" points="5140,5131 9878,5131 9878,9869 5140,9869 5140,5131 5184,5175 9834,5175 9834,9825 5184,9825 5184,5175 "/>
       <polygon id="_193" class="fil54" points="5162,5153 9856,5153 9856,9847 5162,9847 5162,5153 5206,5197 9812,5197 9812,9803 5206,9803 5206,5197 "/>
       <polygon id="_194" class="fil54" points="5184,5175 9834,5175 9834,9825 5184,9825 5184,5175 5228,5219 9790,5219 9790,9781 5228,9781 5228,5219 "/>
       <polygon id="_195" class="fil54" points="5206,5197 9812,5197 9812,9803 5206,9803 5206,5197 5250,5241 9768,5241 9768,9759 5250,9759 5250,5241 "/>
       <polygon id="_196" class="fil54" points="5228,5219 9790,5219 9790,9781 5228,9781 5228,5219 5272,5263 9746,5263 9746,9737 5272,9737 5272,5263 "/>
       <polygon id="_197" class="fil54" points="5250,5241 9768,5241 9768,9759 5250,9759 5250,5241 5294,5285 9724,5285 9724,9715 5294,9715 5294,5285 "/>
       <polygon id="_198" class="fil54" points="5272,5263 9746,5263 9746,9737 5272,9737 5272,5263 5316,5307 9702,5307 9702,9693 5316,9693 5316,5307 "/>
       <polygon id="_199" class="fil54" points="5294,5285 9724,5285 9724,9715 5294,9715 5294,5285 5338,5329 9680,5329 9680,9671 5338,9671 5338,5329 "/>
       <polygon id="_200" class="fil54" points="5316,5307 9702,5307 9702,9693 5316,9693 5316,5307 5360,5351 9658,5351 9658,9649 5360,9649 5360,5351 "/>
       <polygon id="_201" class="fil54" points="5338,5329 9680,5329 9680,9671 5338,9671 5338,5329 5381,5373 9636,5373 9636,9627 5381,9627 5381,5373 "/>
       <polygon id="_202" class="fil54" points="5360,5351 9658,5351 9658,9649 5360,9649 5360,5351 5403,5395 9614,5395 9614,9605 5403,9605 5403,5395 "/>
       <polygon id="_203" class="fil54" points="5381,5373 9636,5373 9636,9627 5381,9627 5381,5373 5425,5416 9592,5416 9592,9584 5425,9584 5425,5416 "/>
       <polygon id="_204" class="fil54" points="5403,5394 9614,5394 9614,9605 5403,9605 5403,5394 5447,5438 9571,5438 9571,9562 5447,9562 5447,5438 "/>
       <polygon id="_205" class="fil54" points="5425,5416 9592,5416 9592,9584 5425,9584 5425,5416 5469,5460 9549,5460 9549,9540 5469,9540 5469,5460 "/>
       <polygon id="_206" class="fil54" points="5447,5438 9571,5438 9571,9562 5447,9562 5447,5438 5491,5482 9527,5482 9527,9518 5491,9518 5491,5482 "/>
       <polygon id="_207" class="fil54" points="5469,5460 9549,5460 9549,9540 5469,9540 5469,5460 5513,5504 9505,5504 9505,9496 5513,9496 5513,5504 "/>
       <polygon id="_208" class="fil54" points="5491,5482 9527,5482 9527,9518 5491,9518 5491,5482 5535,5526 9483,5526 9483,9474 5535,9474 5535,5526 "/>
       <polygon id="_209" class="fil54" points="5513,5504 9505,5504 9505,9496 5513,9496 5513,5504 5557,5548 9461,5548 9461,9452 5557,9452 5557,5548 "/>
       <polygon id="_210" class="fil54" points="5535,5526 9483,5526 9483,9474 5535,9474 5535,5526 5579,5570 9439,5570 9439,9430 5579,9430 5579,5570 "/>
       <polygon id="_211" class="fil54" points="5557,5548 9461,5548 9461,9452 5557,9452 5557,5548 5601,5592 9417,5592 9417,9408 5601,9408 5601,5592 "/>
       <polygon id="_212" class="fil54" points="5579,5570 9439,5570 9439,9430 5579,9430 5579,5570 5623,5614 9395,5614 9395,9386 5623,9386 5623,5614 "/>
       <polygon id="_213" class="fil54" points="5601,5592 9417,5592 9417,9408 5601,9408 5601,5592 5645,5636 9373,5636 9373,9364 5645,9364 5645,5636 "/>
       <polygon id="_214" class="fil54" points="5623,5614 9395,5614 9395,9386 5623,9386 5623,5614 5667,5658 9351,5658 9351,9342 5667,9342 5667,5658 "/>
       <polygon id="_215" class="fil54" points="5645,5636 9373,5636 9373,9364 5645,9364 5645,5636 5689,5680 9329,5680 9329,9320 5689,9320 5689,5680 "/>
       <polygon id="_216" class="fil54" points="5667,5658 9351,5658 9351,9342 5667,9342 5667,5658 5710,5702 9307,5702 9307,9298 5710,9298 5710,5702 "/>
       <polygon id="_217" class="fil54" points="5689,5680 9329,5680 9329,9320 5689,9320 5689,5680 5732,5723 9285,5723 9285,9277 5732,9277 5732,5723 "/>
       <polygon id="_218" class="fil54" points="5710,5702 9307,5702 9307,9298 5710,9298 5710,5702 5754,5745 9264,5745 9264,9255 5754,9255 5754,5745 "/>
       <polygon id="_219" class="fil54" points="5732,5723 9285,5723 9285,9277 5732,9277 5732,5723 5776,5767 9242,5767 9242,9233 5776,9233 5776,5767 "/>
       <polygon id="_220" class="fil54" points="5754,5745 9264,5745 9264,9255 5754,9255 5754,5745 5798,5789 9220,5789 9220,9211 5798,9211 5798,5789 "/>
       <polygon id="_221" class="fil54" points="5776,5767 9242,5767 9242,9233 5776,9233 5776,5767 5820,5811 9198,5811 9198,9189 5820,9189 5820,5811 "/>
       <polygon id="_222" class="fil54" points="5798,5789 9220,5789 9220,9211 5798,9211 5798,5789 5842,5833 9176,5833 9176,9167 5842,9167 5842,5833 "/>
       <polygon id="_223" class="fil54" points="5820,5811 9198,5811 9198,9189 5820,9189 5820,5811 5864,5855 9154,5855 9154,9145 5864,9145 5864,5855 "/>
       <polygon id="_224" class="fil54" points="5842,5833 9176,5833 9176,9167 5842,9167 5842,5833 5886,5877 9132,5877 9132,9123 5886,9123 5886,5877 "/>
       <polygon id="_225" class="fil54" points="5864,5855 9154,5855 9154,9145 5864,9145 5864,5855 5908,5899 9110,5899 9110,9101 5908,9101 5908,5899 "/>
       <polygon id="_226" class="fil54" points="5886,5877 9132,5877 9132,9123 5886,9123 5886,5877 5930,5921 9088,5921 9088,9079 5930,9079 5930,5921 "/>
       <polygon id="_227" class="fil54" points="5908,5899 9110,5899 9110,9101 5908,9101 5908,5899 5952,5943 9066,5943 9066,9057 5952,9057 5952,5943 "/>
       <polygon id="_228" class="fil54" points="5930,5921 9088,5921 9088,9079 5930,9079 5930,5921 5974,5965 9044,5965 9044,9035 5974,9035 5974,5965 "/>
       <polygon id="_229" class="fil54" points="5952,5943 9066,5943 9066,9057 5952,9057 5952,5943 5996,5987 9022,5987 9022,9013 5996,9013 5996,5987 "/>
       <polygon id="_230" class="fil54" points="5974,5965 9044,5965 9044,9035 5974,9035 5974,5965 6018,6009 9000,6009 9000,8991 6018,8991 6018,6009 "/>
       <polygon id="_231" class="fil54" points="5996,5987 9022,5987 9022,9013 5996,9013 5996,5987 6039,6031 8978,6031 8978,8969 6039,8969 6039,6031 "/>
       <polygon id="_232" class="fil54" points="6018,6009 9000,6009 9000,8991 6018,8991 6018,6009 6061,6052 8956,6052 8956,8948 6061,8948 6061,6052 "/>
       <polygon id="_233" class="fil54" points="6039,6031 8978,6031 8978,8969 6039,8969 6039,6031 6083,6074 8935,6074 8935,8926 6083,8926 6083,6074 "/>
       <polygon id="_234" class="fil54" points="6061,6052 8956,6052 8956,8948 6061,8948 6061,6052 6105,6096 8913,6096 8913,8904 6105,8904 6105,6096 "/>
       <polygon id="_235" class="fil54" points="6083,6074 8935,6074 8935,8926 6083,8926 6083,6074 6127,6118 8891,6118 8891,8882 6127,8882 6127,6118 "/>
       <polygon id="_236" class="fil54" points="6105,6096 8913,6096 8913,8904 6105,8904 6105,6096 6149,6140 8869,6140 8869,8860 6149,8860 6149,6140 "/>
       <polygon id="_237" class="fil54" points="6127,6118 8891,6118 8891,8882 6127,8882 6127,6118 6171,6162 8847,6162 8847,8838 6171,8838 6171,6162 "/>
       <polygon id="_238" class="fil54" points="6149,6140 8869,6140 8869,8860 6149,8860 6149,6140 6193,6184 8825,6184 8825,8816 6193,8816 6193,6184 "/>
       <polygon id="_239" class="fil54" points="6171,6162 8847,6162 8847,8838 6171,8838 6171,6162 6215,6206 8803,6206 8803,8794 6215,8794 6215,6206 "/>
       <polygon id="_240" class="fil54" points="6193,6184 8825,6184 8825,8816 6193,8816 6193,6184 6237,6228 8781,6228 8781,8772 6237,8772 6237,6228 "/>
       <polygon id="_241" class="fil54" points="6215,6206 8803,6206 8803,8794 6215,8794 6215,6206 6259,6250 8759,6250 8759,8750 6259,8750 6259,6250 "/>
       <polygon id="_242" class="fil54" points="6237,6228 8781,6228 8781,8772 6237,8772 6237,6228 6281,6272 8737,6272 8737,8728 6281,8728 6281,6272 "/>
       <polygon id="_243" class="fil54" points="6259,6250 8759,6250 8759,8750 6259,8750 6259,6250 6303,6294 8715,6294 8715,8706 6303,8706 6303,6294 "/>
       <polygon id="_244" class="fil54" points="6281,6272 8737,6272 8737,8728 6281,8728 6281,6272 6325,6316 8693,6316 8693,8684 6325,8684 6325,6316 "/>
       <polygon id="_245" class="fil54" points="6303,6294 8715,6294 8715,8706 6303,8706 6303,6294 6347,6338 8671,6338 8671,8662 6347,8662 6347,6338 "/>
       <polygon id="_246" class="fil54" points="6325,6316 8693,6316 8693,8684 6325,8684 6325,6316 6368,6360 8649,6360 8649,8640 6368,8640 6368,6360 "/>
       <polygon id="_247" class="fil54" points="6347,6338 8671,6338 8671,8662 6347,8662 6347,6338 6390,6381 8627,6381 8627,8619 6390,8619 6390,6381 "/>
       <polygon id="_248" class="fil54" points="6368,6360 8649,6360 8649,8640 6368,8640 6368,6360 6412,6403 8606,6403 8606,8597 6412,8597 6412,6403 "/>
       <polygon id="_249" class="fil54" points="6390,6381 8627,6381 8627,8619 6390,8619 6390,6381 6434,6425 8584,6425 8584,8575 6434,8575 6434,6425 "/>
       <polygon id="_250" class="fil54" points="6412,6403 8606,6403 8606,8597 6412,8597 6412,6403 6456,6447 8562,6447 8562,8553 6456,8553 6456,6447 "/>
       <polygon id="_251" class="fil54" points="6434,6425 8584,6425 8584,8575 6434,8575 6434,6425 6478,6469 8540,6469 8540,8531 6478,8531 6478,6469 "/>
       <polygon id="_252" class="fil54" points="6456,6447 8562,6447 8562,8553 6456,8553 6456,6447 6500,6491 8518,6491 8518,8509 6500,8509 6500,6491 "/>
       <polygon id="_253" class="fil54" points="6478,6469 8540,6469 8540,8531 6478,8531 6478,6469 6522,6513 8496,6513 8496,8487 6522,8487 6522,6513 "/>
       <polygon id="_254" class="fil54" points="6500,6491 8518,6491 8518,8509 6500,8509 6500,6491 6544,6535 8474,6535 8474,8465 6544,8465 6544,6535 "/>
       <polygon id="_255" class="fil54" points="6522,6513 8496,6513 8496,8487 6522,8487 6522,6513 6566,6557 8452,6557 8452,8443 6566,8443 6566,6557 "/>
       <polygon id="_256" class="fil54" points="6544,6535 8474,6535 8474,8465 6544,8465 6544,6535 6588,6579 8430,6579 8430,8421 6588,8421 6588,6579 "/>
       <polygon id="_257" class="fil54" points="6566,6557 8452,6557 8452,8443 6566,8443 6566,6557 6610,6601 8408,6601 8408,8399 6610,8399 6610,6601 "/>
       <polygon id="_258" class="fil54" points="6588,6579 8430,6579 8430,8421 6588,8421 6588,6579 6632,6623 8386,6623 8386,8377 6632,8377 6632,6623 "/>
       <polygon id="_259" class="fil54" points="6610,6601 8408,6601 8408,8399 6610,8399 6610,6601 6654,6645 8364,6645 8364,8355 6654,8355 6654,6645 "/>
       <polygon id="_260" class="fil54" points="6632,6623 8386,6623 8386,8377 6632,8377 6632,6623 6675,6667 8342,6667 8342,8333 6675,8333 6675,6667 "/>
       <polygon id="_261" class="fil54" points="6654,6645 8364,6645 8364,8355 6654,8355 6654,6645 6697,6689 8320,6689 8320,8311 6697,8311 6697,6689 "/>
       <polygon id="_262" class="fil54" points="6675,6667 8342,6667 8342,8333 6675,8333 6675,6667 6719,6710 8298,6710 8298,8290 6719,8290 6719,6710 "/>
       <polygon id="_263" class="fil54" points="6697,6688 8320,6688 8320,8311 6697,8311 6697,6688 6741,6732 8277,6732 8277,8268 6741,8268 6741,6732 "/>
       <polygon id="_264" class="fil54" points="6719,6710 8298,6710 8298,8290 6719,8290 6719,6710 6763,6754 8255,6754 8255,8246 6763,8246 6763,6754 "/>
       <polygon id="_265" class="fil54" points="6741,6732 8277,6732 8277,8268 6741,8268 6741,6732 6785,6776 8233,6776 8233,8224 6785,8224 6785,6776 "/>
       <polygon id="_266" class="fil54" points="6763,6754 8255,6754 8255,8246 6763,8246 6763,6754 6807,6798 8211,6798 8211,8202 6807,8202 6807,6798 "/>
       <polygon id="_267" class="fil54" points="6785,6776 8233,6776 8233,8224 6785,8224 6785,6776 6829,6820 8189,6820 8189,8180 6829,8180 6829,6820 "/>
       <polygon id="_268" class="fil54" points="6807,6798 8211,6798 8211,8202 6807,8202 6807,6798 6851,6842 8167,6842 8167,8158 6851,8158 6851,6842 "/>
       <polygon id="_269" class="fil54" points="6829,6820 8189,6820 8189,8180 6829,8180 6829,6820 6873,6864 8145,6864 8145,8136 6873,8136 6873,6864 "/>
       <polygon id="_270" class="fil54" points="6851,6842 8167,6842 8167,8158 6851,8158 6851,6842 6895,6886 8123,6886 8123,8114 6895,8114 6895,6886 "/>
       <polygon id="_271" class="fil54" points="6873,6864 8145,6864 8145,8136 6873,8136 6873,6864 6917,6908 8101,6908 8101,8092 6917,8092 6917,6908 "/>
       <polygon id="_272" class="fil54" points="6895,6886 8123,6886 8123,8114 6895,8114 6895,6886 6939,6930 8079,6930 8079,8070 6939,8070 6939,6930 "/>
       <polygon id="_273" class="fil54" points="6917,6908 8101,6908 8101,8092 6917,8092 6917,6908 6961,6952 8057,6952 8057,8048 6961,8048 6961,6952 "/>
       <polygon id="_274" class="fil54" points="6939,6930 8079,6930 8079,8070 6939,8070 6939,6930 6983,6974 8035,6974 8035,8026 6983,8026 6983,6974 "/>
       <polygon id="_275" class="fil54" points="6961,6952 8057,6952 8057,8048 6961,8048 6961,6952 7004,6996 8013,6996 8013,8004 7004,8004 7004,6996 "/>
       <polygon id="_276" class="fil54" points="6983,6974 8035,6974 8035,8026 6983,8026 6983,6974 7026,7017 7991,7017 7991,7982 7026,7982 7026,7017 "/>
       <polygon id="_277" class="fil54" points="7004,6996 8013,6996 8013,8004 7004,8004 7004,6996 7048,7039 7969,7039 7969,7961 7048,7961 7048,7039 "/>
       <polygon id="_278" class="fil54" points="7026,7017 7991,7017 7991,7982 7026,7982 7026,7017 7070,7061 7948,7061 7948,7939 7070,7939 7070,7061 "/>
       <polygon id="_279" class="fil54" points="7048,7039 7969,7039 7969,7961 7048,7961 7048,7039 7092,7083 7926,7083 7926,7917 7092,7917 7092,7083 "/>
       <polygon id="_280" class="fil54" points="7070,7061 7948,7061 7948,7939 7070,7939 7070,7061 7114,7105 7904,7105 7904,7895 7114,7895 7114,7105 "/>
       <polygon id="_281" class="fil54" points="7092,7083 7926,7083 7926,7917 7092,7917 7092,7083 7136,7127 7882,7127 7882,7873 7136,7873 7136,7127 "/>
       <polygon id="_282" class="fil54" points="7114,7105 7904,7105 7904,7895 7114,7895 7114,7105 7158,7149 7860,7149 7860,7851 7158,7851 7158,7149 "/>
       <polygon id="_283" class="fil54" points="7136,7127 7882,7127 7882,7873 7136,7873 7136,7127 7180,7171 7838,7171 7838,7829 7180,7829 7180,7171 "/>
       <polygon id="_284" class="fil54" points="7158,7149 7860,7149 7860,7851 7158,7851 7158,7149 7202,7193 7816,7193 7816,7807 7202,7807 7202,7193 "/>
       <polygon id="_285" class="fil54" points="7180,7171 7838,7171 7838,7829 7180,7829 7180,7171 7224,7215 7794,7215 7794,7785 7224,7785 7224,7215 "/>
       <polygon id="_286" class="fil54" points="7202,7193 7816,7193 7816,7807 7202,7807 7202,7193 7246,7237 7772,7237 7772,7763 7246,7763 7246,7237 "/>
       <polygon id="_287" class="fil54" points="7224,7215 7794,7215 7794,7785 7224,7785 7224,7215 7268,7259 7750,7259 7750,7741 7268,7741 7268,7259 "/>
       <polygon id="_288" class="fil54" points="7246,7237 7772,7237 7772,7763 7246,7763 7246,7237 7290,7281 7728,7281 7728,7719 7290,7719 7290,7281 "/>
       <polygon id="_289" class="fil54" points="7268,7259 7750,7259 7750,7741 7268,7741 7268,7259 7312,7303 7706,7303 7706,7697 7312,7697 7312,7303 "/>
       <polygon id="_290" class="fil54" points="7290,7281 7728,7281 7728,7719 7290,7719 7290,7281 7333,7325 7684,7325 7684,7675 7333,7675 7333,7325 "/>
       <polygon id="_291" class="fil54" points="7312,7303 7706,7303 7706,7697 7312,7697 7312,7303 7355,7346 7662,7346 7662,7654 7355,7654 7355,7346 "/>
       <polygon id="_292" class="fil54" points="7333,7325 7684,7325 7684,7675 7333,7675 7333,7325 7377,7368 7641,7368 7641,7632 7377,7632 7377,7368 "/>
       <polygon id="_293" class="fil54" points="7355,7346 7662,7346 7662,7654 7355,7654 7355,7346 7399,7390 7619,7390 7619,7610 7399,7610 7399,7390 "/>
       <polygon id="_294" class="fil54" points="7377,7368 7641,7368 7641,7632 7377,7632 7377,7368 7421,7412 7597,7412 7597,7588 7421,7588 7421,7412 "/>
       <polygon id="_295" class="fil54" points="7399,7390 7619,7390 7619,7610 7399,7610 7399,7390 7443,7434 7575,7434 7575,7566 7443,7566 7443,7434 "/>
       <polygon id="_296" class="fil54" points="7421,7412 7597,7412 7597,7588 7421,7588 7421,7412 7465,7456 7553,7456 7553,7544 7465,7544 7465,7456 "/>
       <polygon id="_297" class="fil54" points="7443,7434 7575,7434 7575,7566 7443,7566 7443,7434 7487,7478 7531,7478 7531,7522 7487,7522 7487,7478 "/>
       <polygon id="_298" class="fil54" points="7465,7456 7553,7456 7553,7544 7465,7544 7465,7456 7509,7500 7509,7500 7509,7500 7509,7500 7509,7500 "/>
       <polygon id="_299" class="fil54" points="7487,7478 7531,7478 7531,7522 7487,7522 "/>
      </g>
     </g>
     <path class="fil55" d="M2369 14080l10279 0c792,0 1440,-648 1440,-1440l0 -10279c0,-792 -648,-1440 -1440,-1440l-10279 0c-792,0 -1440,648 -1440,1440l0 10279c0,792 648,1440 1440,1440z"/>
    </g>
   </g>
  </g>
  <g id="_272634200">
   <path class="fil56 str0" d="M8339 13068c49,-26 155,-358 76,-508l-349 -663 -546 287 351 667c80,151 417,244 468,217z"/>
   <path class="fil57 str0" d="M6659 11746c75,74 679,634 1018,957 198,-106 633,-333 719,-377 -50,-590 -184,-1425 -201,-1390l-1535 810z"/>
   <rect class="fil57 str0" transform="matrix(1.25078 -0.654526 1.26749 2.41905 6433.81 11473.3)" width="1323" height="132"/>
   <rect class="fil57 str0" transform="matrix(1.23573 -0.646639 0.9941 1.89724 1935.64 2861.31)" width="1341" height="132"/>
   <path class="fil58 str0" d="M1976 3035l1724 -902c44,-23 99,-6 122,38l4416 8414c23,44 6,99 -38,122l-1724 902c-44,23 -99,6 -122,-38l-4416 -8414c-23,-44 -6,-99 38,-122z"/>
  </g>
  <path class="fil59 str1" d="M11449 10143l-1049 2c-93,0 -169,-116 -169,-258l-3 -4172 -906 6c-374,2 -345,58 -73,-332 446,-636 893,-1272 1339,-1909 330,-471 224,-483 551,-23 458,645 916,1284 1374,1931 270,382 238,311 -128,313l-770 5 3 4178c0,142 -76,258 -169,259z"/>
 </g>
</svg>
