<?xml version="1.0"?>
<svg xmlns="http://www.w3.org/2000/svg" xmlns:xlink="http://www.w3.org/1999/xlink" id="&#x421;&#x43B;&#x43E;&#x439;_1" data-name="&#x421;&#x43B;&#x43E;&#x439; 1" viewBox="0 0 50 50">
  <defs>
    <style type="text/css">.cls-1{fill:none;}.cls-2{fill:#5e4377;}.cls-3{clip-path:url(#clip-path);}.cls-4{fill-opacity:0;}.cls-5{fill:#5e4378;}.cls-6{fill:#5f4378;}.cls-7{fill:#5f4479;}.cls-8{fill:#60447a;}.cls-9{fill:#61457b;}.cls-10{fill:#61457c;}.cls-11{fill:#62457c;}.cls-12{fill:#62467d;}.cls-13{fill:#63467d;}.cls-14{fill:#63467e;}.cls-15{fill:#64477f;}.cls-16{fill:#654780;}.cls-17{fill:#654881;}.cls-18{fill:#664881;}.cls-19{fill:#664882;}.cls-20{fill:#674882;}.cls-21{fill:#674983;}.cls-22{fill:#684984;}.cls-23{fill:#694a85;}.cls-24{fill:#694a86;}.cls-25{fill:#6a4a86;}.cls-26{fill:#6a4b87;}.cls-27{fill:#6b4b88;}.cls-28{fill:#6b4c89;}.cls-29{fill:#6c4c89;}.cls-30{fill:#6c4c8a;}.cls-31{fill:#6d4d8b;}.cls-32{fill:#6e4d8c;}.cls-33{fill:#6e4e8d;}.cls-34{fill:#6f4e8d;}.cls-35{fill:#6f4e8e;}.cls-36{fill:#704e8e;}.cls-37{fill:#704f8f;}.cls-38{fill:#714f90;}.cls-39{fill:#725091;}.cls-40{fill:#725092;}.cls-41{fill:#735092;}.cls-42{fill:#735193;}.cls-43{fill:#745193;}.cls-44{fill:#745194;}.cls-45{fill:#755295;}.cls-46{fill:#765296;}.cls-47{fill:#765397;}.cls-48{fill:#775397;}.cls-49{fill:#775398;}.cls-50{fill:#785499;}.cls-51{fill:#20df20;}.cls-52{fill:url(#&#x411;&#x435;&#x437;&#x44B;&#x43C;&#x44F;&#x43D;&#x43D;&#x44B;&#x439;_&#x433;&#x440;&#x430;&#x434;&#x438;&#x435;&#x43D;&#x442;_247);}.cls-53{fill:url(#&#x411;&#x435;&#x437;&#x44B;&#x43C;&#x44F;&#x43D;&#x43D;&#x44B;&#x439;_&#x433;&#x440;&#x430;&#x434;&#x438;&#x435;&#x43D;&#x442;_257);}.cls-54{fill:url(#&#x411;&#x435;&#x437;&#x44B;&#x43C;&#x44F;&#x43D;&#x43D;&#x44B;&#x439;_&#x433;&#x440;&#x430;&#x434;&#x438;&#x435;&#x43D;&#x442;_257-2);}.cls-55{fill:url(#&#x411;&#x435;&#x437;&#x44B;&#x43C;&#x44F;&#x43D;&#x43D;&#x44B;&#x439;_&#x433;&#x440;&#x430;&#x434;&#x438;&#x435;&#x43D;&#x442;_258);}.cls-56{fill:url(#&#x411;&#x435;&#x437;&#x44B;&#x43C;&#x44F;&#x43D;&#x43D;&#x44B;&#x439;_&#x433;&#x440;&#x430;&#x434;&#x438;&#x435;&#x43D;&#x442;_266);}.cls-57{fill:url(#&#x411;&#x435;&#x437;&#x44B;&#x43C;&#x44F;&#x43D;&#x43D;&#x44B;&#x439;_&#x433;&#x440;&#x430;&#x434;&#x438;&#x435;&#x43D;&#x442;_283);}</style>
    <clipPath id="clip-path">
      <rect class="cls-1" x="3" y="3" width="44" height="44.02" rx="4.8" ry="4.8"/>
    </clipPath>
    <radialGradient id="&#x411;&#x435;&#x437;&#x44B;&#x43C;&#x44F;&#x43D;&#x43D;&#x44B;&#x439;_&#x433;&#x440;&#x430;&#x434;&#x438;&#x435;&#x43D;&#x442;_247" cx="21.16" cy="24.23" r="8.05" gradientUnits="userSpaceOnUse">
      <stop offset="0" stop-color="#fff"/>
      <stop offset="0.14" stop-color="#a9ff21"/>
      <stop offset="0.32" stop-color="#64e51a"/>
      <stop offset="0.56" stop-color="#5ce000"/>
      <stop offset="1" stop-color="#41ab34"/>
    </radialGradient>
    <linearGradient id="&#x411;&#x435;&#x437;&#x44B;&#x43C;&#x44F;&#x43D;&#x43D;&#x44B;&#x439;_&#x433;&#x440;&#x430;&#x434;&#x438;&#x435;&#x43D;&#x442;_257" x1="27.28" y1="39.12" x2="28.03" y2="39.12" gradientUnits="userSpaceOnUse">
      <stop offset="0" stop-color="#8a8a8a"/>
      <stop offset="1" stop-color="#dbdbdb"/>
    </linearGradient>
    <linearGradient id="&#x411;&#x435;&#x437;&#x44B;&#x43C;&#x44F;&#x43D;&#x43D;&#x44B;&#x439;_&#x433;&#x440;&#x430;&#x434;&#x438;&#x435;&#x43D;&#x442;_257-2" x1="21.97" y1="39.12" x2="22.72" y2="39.12" xlink:href="#&#x411;&#x435;&#x437;&#x44B;&#x43C;&#x44F;&#x43D;&#x43D;&#x44B;&#x439;_&#x433;&#x440;&#x430;&#x434;&#x438;&#x435;&#x43D;&#x442;_257"/>
    <radialGradient id="&#x411;&#x435;&#x437;&#x44B;&#x43C;&#x44F;&#x43D;&#x43D;&#x44B;&#x439;_&#x433;&#x440;&#x430;&#x434;&#x438;&#x435;&#x43D;&#x442;_258" cx="14.07" cy="13.63" r="4.83" gradientUnits="userSpaceOnUse">
      <stop offset="0" stop-color="red"/>
      <stop offset="1" stop-color="#b00202"/>
    </radialGradient>
    <radialGradient id="&#x411;&#x435;&#x437;&#x44B;&#x43C;&#x44F;&#x43D;&#x43D;&#x44B;&#x439;_&#x433;&#x440;&#x430;&#x434;&#x438;&#x435;&#x43D;&#x442;_266" cx="25" cy="13.63" r="4.83" gradientUnits="userSpaceOnUse">
      <stop offset="0" stop-color="#00d443"/>
      <stop offset="1" stop-color="#052"/>
    </radialGradient>
    <radialGradient id="&#x411;&#x435;&#x437;&#x44B;&#x43C;&#x44F;&#x43D;&#x43D;&#x44B;&#x439;_&#x433;&#x440;&#x430;&#x434;&#x438;&#x435;&#x43D;&#x442;_283" cx="35.93" cy="13.63" r="4.83" gradientUnits="userSpaceOnUse">
      <stop offset="0" stop-color="#3fecff"/>
      <stop offset="1" stop-color="#006094"/>
    </radialGradient>
  </defs>
  <title>&#x411;&#x435;&#x437; &#x43D;&#x430;&#x437;&#x432;&#x430;&#x43D;&#x438;&#x44F; (1)</title>
  <g id="Layer_1">
    <g id="_357187136" data-name=" 357187136">
      <g id="_348901048" data-name=" 348901048">
        <path class="cls-2" d="M7.1,0H42.9A7.1,7.1,0,0,1,50,7.1V42.9A7.1,7.1,0,0,1,42.9,50H7.1A7.1,7.1,0,0,1,0,42.9V7.1A7.1,7.1,0,0,1,7.1,0Z"/>
        <g class="cls-3">
          <polygon class="cls-4" points="3 3 47 3 47 47 3 47 3 3"/>
        </g>
        <g class="cls-3">
          <polygon id="_1" data-name="1" class="cls-2" points="3 3 47 3 47 47 3 47 3 3 3.1 3.1 46.9 3.1 46.9 46.9 3.1 46.9 3.1 3.1 3 3"/>
          <polygon id="_1-2" data-name=" 1" class="cls-2" points="3.1 3.1 46.9 3.1 46.9 46.9 3.1 46.9 3.1 3.1 3.2 3.2 46.8 3.2 46.8 46.8 3.2 46.8 3.2 3.2 3.1 3.1"/>
          <polygon id="_2" data-name=" 2" class="cls-5" points="3.1 3.1 46.9 3.1 46.9 46.9 3.1 46.9 3.1 3.1 3.3 3.3 46.7 3.3 46.7 46.7 3.3 46.7 3.3 3.3 3.1 3.1"/>
          <polygon id="_3" data-name=" 3" class="cls-6" points="3.2 3.2 46.8 3.2 46.8 46.8 3.2 46.8 3.2 3.2 3.4 3.4 46.6 3.4 46.6 46.6 3.4 46.6 3.4 3.4 3.2 3.2"/>
          <polygon id="_4" data-name=" 4" class="cls-7" points="3.3 3.3 46.7 3.3 46.7 46.7 3.3 46.7 3.3 3.3 3.4 3.4 46.6 3.4 46.6 46.6 3.4 46.6 3.4 3.4 3.3 3.3"/>
          <polygon id="_5" data-name=" 5" class="cls-8" points="3.4 3.4 46.6 3.4 46.6 46.6 3.4 46.6 3.4 3.4 3.5 3.5 46.5 3.5 46.5 46.5 3.5 46.5 3.5 3.5 3.4 3.4"/>
          <polygon id="_6" data-name=" 6" class="cls-8" points="3.4 3.4 46.6 3.4 46.6 46.6 3.4 46.6 3.4 3.4 3.6 3.6 46.4 3.6 46.4 46.4 3.6 46.4 3.6 3.6 3.4 3.4"/>
          <polygon id="_7" data-name=" 7" class="cls-9" points="3.5 3.5 46.5 3.5 46.5 46.5 3.5 46.5 3.5 3.5 3.6 3.7 46.3 3.7 46.3 46.3 3.6 46.3 3.6 3.7 3.5 3.5"/>
          <polygon id="_8" data-name=" 8" class="cls-10" points="3.6 3.6 46.4 3.6 46.4 46.4 3.6 46.4 3.6 3.6 3.7 3.7 46.3 3.7 46.3 46.3 3.7 46.3 3.7 3.7 3.6 3.6"/>
          <polygon id="_9" data-name=" 9" class="cls-11" points="3.6 3.7 46.3 3.7 46.3 46.3 3.6 46.3 3.6 3.7 3.8 3.8 46.2 3.8 46.2 46.2 3.8 46.2 3.8 3.8 3.6 3.7"/>
          <polygon id="_10" data-name=" 10" class="cls-12" points="3.7 3.7 46.3 3.7 46.3 46.3 3.7 46.3 3.7 3.7 3.9 3.9 46.1 3.9 46.1 46.1 3.9 46.1 3.9 3.9 3.7 3.7"/>
          <polygon id="_11" data-name=" 11" class="cls-13" points="3.8 3.8 46.2 3.8 46.2 46.2 3.8 46.2 3.8 3.8 3.9 3.9 46.1 3.9 46.1 46.1 3.9 46.1 3.9 3.9 3.8 3.8"/>
          <polygon id="_12" data-name=" 12" class="cls-14" points="3.9 3.9 46.1 3.9 46.1 46.1 3.9 46.1 3.9 3.9 4 4 46 4 46 46 4 46 4 4 3.9 3.9"/>
          <polygon id="_13" data-name=" 13" class="cls-15" points="3.9 3.9 46.1 3.9 46.1 46.1 3.9 46.1 3.9 3.9 4.1 4.1 45.9 4.1 45.9 45.9 4.1 45.9 4.1 4.1 3.9 3.9"/>
          <polygon id="_14" data-name=" 14" class="cls-15" points="4 4 46 4 46 46 4 46 4 4 4.2 4.2 45.8 4.2 45.8 45.8 4.2 45.8 4.2 4.2 4 4"/>
          <polygon id="_15" data-name=" 15" class="cls-16" points="4.1 4.1 45.9 4.1 45.9 45.9 4.1 45.9 4.1 4.1 4.2 4.2 45.8 4.2 45.8 45.8 4.2 45.8 4.2 4.2 4.1 4.1"/>
          <polygon id="_16" data-name=" 16" class="cls-17" points="4.2 4.2 45.8 4.2 45.8 45.8 4.2 45.8 4.2 4.2 4.3 4.3 45.7 4.3 45.7 45.7 4.3 45.7 4.3 4.3 4.2 4.2"/>
          <polygon id="_17" data-name=" 17" class="cls-18" points="4.2 4.2 45.8 4.2 45.8 45.8 4.2 45.8 4.2 4.2 4.4 4.4 45.6 4.4 45.6 45.6 4.4 45.6 4.4 4.4 4.2 4.2"/>
          <polygon id="_18" data-name=" 18" class="cls-19" points="4.3 4.3 45.7 4.3 45.7 45.7 4.3 45.7 4.3 4.3 4.5 4.5 45.5 4.5 45.5 45.5 4.5 45.5 4.5 4.5 4.3 4.3"/>
          <polygon id="_19" data-name=" 19" class="cls-20" points="4.4 4.4 45.6 4.4 45.6 45.6 4.4 45.6 4.4 4.4 4.5 4.5 45.5 4.5 45.5 45.5 4.5 45.5 4.5 4.5 4.4 4.4"/>
          <polygon id="_20" data-name=" 20" class="cls-21" points="4.5 4.5 45.5 4.5 45.5 45.5 4.5 45.5 4.5 4.5 4.6 4.6 45.4 4.6 45.4 45.4 4.6 45.4 4.6 4.6 4.5 4.5"/>
          <polygon id="_21" data-name=" 21" class="cls-22" points="4.5 4.5 45.5 4.5 45.5 45.5 4.5 45.5 4.5 4.5 4.7 4.7 45.3 4.7 45.3 45.3 4.7 45.3 4.7 4.7 4.5 4.5"/>
          <polygon id="_22" data-name=" 22" class="cls-22" points="4.6 4.6 45.4 4.6 45.4 45.4 4.6 45.4 4.6 4.6 4.7 4.8 45.2 4.8 45.2 45.2 4.7 45.2 4.7 4.8 4.6 4.6"/>
          <polygon id="_23" data-name=" 23" class="cls-23" points="4.7 4.7 45.3 4.7 45.3 45.3 4.7 45.3 4.7 4.7 4.8 4.8 45.2 4.8 45.2 45.2 4.8 45.2 4.8 4.8 4.7 4.7"/>
          <polygon id="_24" data-name=" 24" class="cls-24" points="4.7 4.8 45.2 4.8 45.2 45.2 4.7 45.2 4.7 4.8 4.9 4.9 45.1 4.9 45.1 45.1 4.9 45.1 4.9 4.9 4.7 4.8"/>
          <polygon id="_25" data-name=" 25" class="cls-25" points="4.8 4.8 45.2 4.8 45.2 45.2 4.8 45.2 4.8 4.8 5 5 45 5 45 45 5 45 5 5 4.8 4.8"/>
          <polygon id="_26" data-name=" 26" class="cls-26" points="4.9 4.9 45.1 4.9 45.1 45.1 4.9 45.1 4.9 4.9 5 5 45 5 45 45 5 45 5 5 4.9 4.9"/>
          <polygon id="_27" data-name=" 27" class="cls-27" points="5 5 45 5 45 45 5 45 5 5 5.1 5.1 44.9 5.1 44.9 44.9 5.1 44.9 5.1 5.1 5 5"/>
          <polygon id="_28" data-name=" 28" class="cls-27" points="5 5 45 5 45 45 5 45 5 5 5.2 5.2 44.8 5.2 44.8 44.8 5.2 44.8 5.2 5.2 5 5"/>
          <polygon id="_29" data-name=" 29" class="cls-28" points="5.1 5.1 44.9 5.1 44.9 44.9 5.1 44.9 5.1 5.1 5.3 5.3 44.7 5.3 44.7 44.7 5.3 44.7 5.3 5.3 5.1 5.1"/>
          <polygon id="_30" data-name=" 30" class="cls-29" points="5.2 5.2 44.8 5.2 44.8 44.8 5.2 44.8 5.2 5.2 5.3 5.3 44.7 5.3 44.7 44.7 5.3 44.7 5.3 5.3 5.2 5.2"/>
          <polygon id="_31" data-name=" 31" class="cls-30" points="5.3 5.3 44.7 5.3 44.7 44.7 5.3 44.7 5.3 5.3 5.4 5.4 44.6 5.4 44.6 44.6 5.4 44.6 5.4 5.4 5.3 5.3"/>
          <polygon id="_32" data-name=" 32" class="cls-31" points="5.3 5.3 44.7 5.3 44.7 44.7 5.3 44.7 5.3 5.3 5.5 5.5 44.5 5.5 44.5 44.5 5.5 44.5 5.5 5.5 5.3 5.3"/>
          <polygon id="_33" data-name=" 33" class="cls-31" points="5.4 5.4 44.6 5.4 44.6 44.6 5.4 44.6 5.4 5.4 5.6 5.6 44.4 5.6 44.4 44.4 5.6 44.4 5.6 5.6 5.4 5.4"/>
          <polygon id="_34" data-name=" 34" class="cls-32" points="5.5 5.5 44.5 5.5 44.5 44.5 5.5 44.5 5.5 5.5 5.6 5.6 44.4 5.6 44.4 44.4 5.6 44.4 5.6 5.6 5.5 5.5"/>
          <polygon id="_35" data-name=" 35" class="cls-33" points="5.6 5.6 44.4 5.6 44.4 44.4 5.6 44.4 5.6 5.6 5.7 5.7 44.3 5.7 44.3 44.3 5.7 44.3 5.7 5.7 5.6 5.6"/>
          <polygon id="_36" data-name=" 36" class="cls-34" points="5.6 5.6 44.4 5.6 44.4 44.4 5.6 44.4 5.6 5.6 5.8 5.8 44.2 5.8 44.2 44.2 5.8 44.2 5.8 5.8 5.6 5.6"/>
          <polygon id="_37" data-name=" 37" class="cls-35" points="5.7 5.7 44.3 5.7 44.3 44.3 5.7 44.3 5.7 5.7 5.8 5.9 44.1 5.9 44.1 44.2 5.8 44.2 5.8 5.9 5.7 5.7"/>
          <polygon id="_38" data-name=" 38" class="cls-36" points="5.8 5.8 44.2 5.8 44.2 44.2 5.8 44.2 5.8 5.8 5.9 5.9 44.1 5.9 44.1 44.1 5.9 44.1 5.9 5.9 5.8 5.8"/>
          <polygon id="_39" data-name=" 39" class="cls-37" points="5.8 5.9 44.1 5.9 44.1 44.2 5.8 44.2 5.8 5.9 6 6 44 6 44 44 6 44 6 6 5.8 5.9"/>
          <polygon id="_40" data-name=" 40" class="cls-38" points="5.9 5.9 44.1 5.9 44.1 44.1 5.9 44.1 5.9 5.9 6.1 6.1 43.9 6.1 43.9 43.9 6.1 43.9 6.1 6.1 5.9 5.9"/>
          <polygon id="_41" data-name=" 41" class="cls-38" points="6 6 44 6 44 44 6 44 6 6 6.1 6.1 43.9 6.1 43.9 43.9 6.1 43.9 6.1 6.1 6 6"/>
          <polygon id="_42" data-name=" 42" class="cls-39" points="6.1 6.1 43.9 6.1 43.9 43.9 6.1 43.9 6.1 6.1 6.2 6.2 43.8 6.2 43.8 43.8 6.2 43.8 6.2 6.2 6.1 6.1"/>
          <polygon id="_43" data-name=" 43" class="cls-40" points="6.1 6.1 43.9 6.1 43.9 43.9 6.1 43.9 6.1 6.1 6.3 6.3 43.7 6.3 43.7 43.7 6.3 43.7 6.3 6.3 6.1 6.1"/>
          <polygon id="_44" data-name=" 44" class="cls-41" points="6.2 6.2 43.8 6.2 43.8 43.8 6.2 43.8 6.2 6.2 6.4 6.4 43.6 6.4 43.6 43.6 6.4 43.6 6.4 6.4 6.2 6.2"/>
          <polygon id="_45" data-name=" 45" class="cls-42" points="6.3 6.3 43.7 6.3 43.7 43.7 6.3 43.7 6.3 6.3 6.4 6.4 43.6 6.4 43.6 43.6 6.4 43.6 6.4 6.4 6.3 6.3"/>
          <polygon id="_46" data-name=" 46" class="cls-43" points="6.4 6.4 43.6 6.4 43.6 43.6 6.4 43.6 6.4 6.4 6.5 6.5 43.5 6.5 43.5 43.5 6.5 43.5 6.5 6.5 6.4 6.4"/>
          <polygon id="_47" data-name=" 47" class="cls-44" points="6.4 6.4 43.6 6.4 43.6 43.6 6.4 43.6 6.4 6.4 6.6 6.6 43.4 6.6 43.4 43.4 6.6 43.4 6.6 6.6 6.4 6.4"/>
          <polygon id="_48" data-name=" 48" class="cls-45" points="6.5 6.5 43.5 6.5 43.5 43.5 6.5 43.5 6.5 6.5 6.7 6.7 43.3 6.7 43.3 43.3 6.7 43.3 6.7 6.7 6.5 6.5"/>
          <polygon id="_49" data-name=" 49" class="cls-45" points="6.6 6.6 43.4 6.6 43.4 43.4 6.6 43.4 6.6 6.6 6.7 6.7 43.3 6.7 43.3 43.3 6.7 43.3 6.7 6.7 6.6 6.6"/>
          <polygon id="_50" data-name=" 50" class="cls-46" points="6.7 6.7 43.3 6.7 43.3 43.3 6.7 43.3 6.7 6.7 6.8 6.8 43.2 6.8 43.2 43.2 6.8 43.2 6.8 6.8 6.7 6.7"/>
          <polygon id="_51" data-name=" 51" class="cls-47" points="6.7 6.7 43.3 6.7 43.3 43.3 6.7 43.3 6.7 6.7 6.9 6.9 43.1 6.9 43.1 43.1 6.9 43.1 6.9 6.9 6.7 6.7"/>
          <polygon id="_52" data-name=" 52" class="cls-48" points="6.8 6.8 43.2 6.8 43.2 43.2 6.8 43.2 6.8 6.8 7 7 43 7 43 43 7 43 7 7 6.8 6.8"/>
          <polygon id="_53" data-name=" 53" class="cls-49" points="6.9 6.9 43.1 6.9 43.1 43.1 6.9 43.1 6.9 6.9 7 7 43 7 43 43 7 43 7 7 6.9 6.9"/>
          <polygon id="_54" data-name=" 54" class="cls-50" points="7 7 43 7 43 43 7 43 7 7 7.1 7.1 42.9 7.1 42.9 42.9 7.1 42.9 7.1 7.1 7 7"/>
          <polygon id="_55" data-name=" 55" class="cls-50" points="7 7 43 7 43 43 7 43 7 7 7.2 7.2 42.8 7.2 42.8 42.8 7.2 42.8 7.2 7.2 7 7"/>
          <polygon id="_56" data-name=" 56" class="cls-50" points="7.1 7.1 42.9 7.1 42.9 42.9 7.1 42.9 7.1 7.1 7.2 7.2 42.8 7.2 42.8 42.8 7.2 42.8 7.2 7.2 7.1 7.1"/>
          <polygon id="_57" data-name=" 57" class="cls-50" points="7.2 7.2 42.8 7.2 42.8 42.8 7.2 42.8 7.2 7.2 7.3 7.3 42.7 7.3 42.7 42.7 7.3 42.7 7.3 7.3 7.2 7.2"/>
          <polygon id="_58" data-name=" 58" class="cls-50" points="7.2 7.2 42.8 7.2 42.8 42.8 7.2 42.8 7.2 7.2 7.4 7.4 42.6 7.4 42.6 42.6 7.4 42.6 7.4 7.4 7.2 7.2"/>
          <polygon id="_59" data-name=" 59" class="cls-50" points="7.3 7.3 42.7 7.3 42.7 42.7 7.3 42.7 7.3 7.3 7.5 7.5 42.5 7.5 42.5 42.5 7.5 42.5 7.5 7.5 7.3 7.3"/>
          <polygon id="_60" data-name=" 60" class="cls-50" points="7.4 7.4 42.6 7.4 42.6 42.6 7.4 42.6 7.4 7.4 7.5 7.5 42.5 7.5 42.5 42.5 7.5 42.5 7.5 7.5 7.4 7.4"/>
          <polygon id="_61" data-name=" 61" class="cls-50" points="7.5 7.5 42.5 7.5 42.5 42.5 7.5 42.5 7.5 7.5 7.6 7.6 42.4 7.6 42.4 42.4 7.6 42.4 7.6 7.6 7.5 7.5"/>
          <polygon id="_62" data-name=" 62" class="cls-50" points="7.5 7.5 42.5 7.5 42.5 42.5 7.5 42.5 7.5 7.5 7.7 7.7 42.3 7.7 42.3 42.3 7.7 42.3 7.7 7.7 7.5 7.5"/>
          <polygon id="_63" data-name=" 63" class="cls-50" points="7.6 7.6 42.4 7.6 42.4 42.4 7.6 42.4 7.6 7.6 7.8 7.8 42.2 7.8 42.2 42.2 7.8 42.2 7.8 7.8 7.6 7.6"/>
          <polygon id="_64" data-name=" 64" class="cls-50" points="7.7 7.7 42.3 7.7 42.3 42.3 7.7 42.3 7.7 7.7 7.8 7.8 42.2 7.8 42.2 42.2 7.8 42.2 7.8 7.8 7.7 7.7"/>
          <polygon id="_65" data-name=" 65" class="cls-50" points="7.8 7.8 42.2 7.8 42.2 42.2 7.8 42.2 7.8 7.8 7.9 7.9 42.1 7.9 42.1 42.1 7.9 42.1 7.9 7.9 7.8 7.8"/>
          <polygon id="_66" data-name=" 66" class="cls-50" points="7.8 7.8 42.2 7.8 42.2 42.2 7.8 42.2 7.8 7.8 8 8 42 8 42 42 8 42 8 8 7.8 7.8"/>
          <polygon id="_67" data-name=" 67" class="cls-50" points="7.9 7.9 42.1 7.9 42.1 42.1 7.9 42.1 7.9 7.9 8.1 8.1 41.9 8.1 41.9 41.9 8.1 41.9 8.1 8.1 7.9 7.9"/>
          <polygon id="_68" data-name=" 68" class="cls-50" points="8 8 42 8 42 42 8 42 8 8 8.1 8.1 41.9 8.1 41.9 41.9 8.1 41.9 8.1 8.1 8 8"/>
          <polygon id="_69" data-name=" 69" class="cls-50" points="8.1 8.1 41.9 8.1 41.9 41.9 8.1 41.9 8.1 8.1 8.2 8.2 41.8 8.2 41.8 41.8 8.2 41.8 8.2 8.2 8.1 8.1"/>
          <polygon id="_70" data-name=" 70" class="cls-50" points="8.1 8.1 41.9 8.1 41.9 41.9 8.1 41.9 8.1 8.1 8.3 8.3 41.7 8.3 41.7 41.7 8.3 41.7 8.3 8.3 8.1 8.1"/>
          <polygon id="_71" data-name=" 71" class="cls-50" points="8.2 8.2 41.8 8.2 41.8 41.8 8.2 41.8 8.2 8.2 8.3 8.3 41.7 8.3 41.7 41.7 8.3 41.7 8.3 8.3 8.2 8.2"/>
          <polygon id="_72" data-name=" 72" class="cls-50" points="8.3 8.3 41.7 8.3 41.7 41.7 8.3 41.7 8.3 8.3 8.4 8.4 41.6 8.4 41.6 41.6 8.4 41.6 8.4 8.4 8.3 8.3"/>
          <polygon id="_73" data-name=" 73" class="cls-50" points="8.3 8.3 41.7 8.3 41.7 41.7 8.3 41.7 8.3 8.3 8.5 8.5 41.5 8.5 41.5 41.5 8.5 41.5 8.5 8.5 8.3 8.3"/>
          <polygon id="_74" data-name=" 74" class="cls-50" points="8.4 8.4 41.6 8.4 41.6 41.6 8.4 41.6 8.4 8.4 8.6 8.6 41.4 8.6 41.4 41.4 8.6 41.4 8.6 8.6 8.4 8.4"/>
          <polygon id="_75" data-name=" 75" class="cls-50" points="8.5 8.5 41.5 8.5 41.5 41.5 8.5 41.5 8.5 8.5 8.6 8.6 41.4 8.6 41.4 41.4 8.6 41.4 8.6 8.6 8.5 8.5"/>
          <polygon id="_76" data-name=" 76" class="cls-50" points="8.6 8.6 41.4 8.6 41.4 41.4 8.6 41.4 8.6 8.6 8.7 8.7 41.3 8.7 41.3 41.3 8.7 41.3 8.7 8.7 8.6 8.6"/>
          <polygon id="_77" data-name=" 77" class="cls-50" points="8.6 8.6 41.4 8.6 41.4 41.4 8.6 41.4 8.6 8.6 8.8 8.8 41.2 8.8 41.2 41.2 8.8 41.2 8.8 8.8 8.6 8.6"/>
          <polygon id="_78" data-name=" 78" class="cls-50" points="8.7 8.7 41.3 8.7 41.3 41.3 8.7 41.3 8.7 8.7 8.9 8.9 41.1 8.9 41.1 41.1 8.9 41.1 8.9 8.9 8.7 8.7"/>
          <polygon id="_79" data-name=" 79" class="cls-50" points="8.8 8.8 41.2 8.8 41.2 41.2 8.8 41.2 8.8 8.8 8.9 8.9 41.1 8.9 41.1 41.1 8.9 41.1 8.9 8.9 8.8 8.8"/>
          <polygon id="_80" data-name=" 80" class="cls-50" points="8.9 8.9 41.1 8.9 41.1 41.1 8.9 41.1 8.9 8.9 9 9 41 9 41 41 9 41 9 9 8.9 8.9"/>
          <polygon id="_81" data-name=" 81" class="cls-50" points="8.9 8.9 41.1 8.9 41.1 41.1 8.9 41.1 8.9 8.9 9.1 9.1 40.9 9.1 40.9 40.9 9.1 40.9 9.1 9.1 8.9 8.9"/>
          <polygon id="_82" data-name=" 82" class="cls-50" points="9 9 41 9 41 41 9 41 9 9 9.2 9.2 40.8 9.2 40.8 40.8 9.2 40.8 9.2 9.2 9 9"/>
          <polygon id="_83" data-name=" 83" class="cls-50" points="9.1 9.1 40.9 9.1 40.9 40.9 9.1 40.9 9.1 9.1 9.2 9.2 40.8 9.2 40.8 40.8 9.2 40.8 9.2 9.2 9.1 9.1"/>
          <polygon id="_84" data-name=" 84" class="cls-50" points="9.2 9.2 40.8 9.2 40.8 40.8 9.2 40.8 9.2 9.2 9.3 9.3 40.7 9.3 40.7 40.7 9.3 40.7 9.3 9.3 9.2 9.2"/>
          <polygon id="_85" data-name=" 85" class="cls-50" points="9.2 9.2 40.8 9.2 40.8 40.8 9.2 40.8 9.2 9.2 9.4 9.4 40.6 9.4 40.6 40.6 9.4 40.6 9.4 9.4 9.2 9.2"/>
          <polygon id="_86" data-name=" 86" class="cls-50" points="9.3 9.3 40.7 9.3 40.7 40.7 9.3 40.7 9.3 9.3 9.4 9.4 40.6 9.4 40.6 40.6 9.4 40.6 9.4 9.4 9.3 9.3"/>
          <polygon id="_87" data-name=" 87" class="cls-50" points="9.4 9.4 40.6 9.4 40.6 40.6 9.4 40.6 9.4 9.4 9.5 9.5 40.5 9.5 40.5 40.5 9.5 40.5 9.5 9.5 9.4 9.4"/>
          <polygon id="_88" data-name=" 88" class="cls-50" points="9.4 9.4 40.6 9.4 40.6 40.6 9.4 40.6 9.4 9.4 9.6 9.6 40.4 9.6 40.4 40.4 9.6 40.4 9.6 9.6 9.4 9.4"/>
          <polygon id="_89" data-name=" 89" class="cls-50" points="9.5 9.5 40.5 9.5 40.5 40.5 9.5 40.5 9.5 9.5 9.7 9.7 40.3 9.7 40.3 40.3 9.7 40.3 9.7 9.7 9.5 9.5"/>
          <polygon id="_90" data-name=" 90" class="cls-50" points="9.6 9.6 40.4 9.6 40.4 40.4 9.6 40.4 9.6 9.6 9.7 9.7 40.3 9.7 40.3 40.3 9.7 40.3 9.7 9.7 9.6 9.6"/>
          <polygon id="_91" data-name=" 91" class="cls-50" points="9.7 9.7 40.3 9.7 40.3 40.3 9.7 40.3 9.7 9.7 9.8 9.8 40.2 9.8 40.2 40.2 9.8 40.2 9.8 9.8 9.7 9.7"/>
          <polygon id="_92" data-name=" 92" class="cls-50" points="9.7 9.7 40.3 9.7 40.3 40.3 9.7 40.3 9.7 9.7 9.9 9.9 40.1 9.9 40.1 40.1 9.9 40.1 9.9 9.9 9.7 9.7"/>
          <polygon id="_93" data-name=" 93" class="cls-50" points="9.8 9.8 40.2 9.8 40.2 40.2 9.8 40.2 9.8 9.8 10 10 40 10 40 40 10 40 10 10 9.8 9.8"/>
          <polygon id="_94" data-name=" 94" class="cls-50" points="9.9 9.9 40.1 9.9 40.1 40.1 9.9 40.1 9.9 9.9 10 10 40 10 40 40 10 40 10 10 9.9 9.9"/>
          <polygon id="_95" data-name=" 95" class="cls-50" points="10 10 40 10 40 40 10 40 10 10 10.1 10.1 39.9 10.1 39.9 39.9 10.1 39.9 10.1 10.1 10 10"/>
          <polygon id="_96" data-name=" 96" class="cls-50" points="10 10 40 10 40 40 10 40 10 10 10.2 10.2 39.8 10.2 39.8 39.8 10.2 39.8 10.2 10.2 10 10"/>
          <polygon id="_97" data-name=" 97" class="cls-50" points="10.1 10.1 39.9 10.1 39.9 39.9 10.1 39.9 10.1 10.1 10.2 10.3 39.7 10.3 39.7 39.7 10.2 39.7 10.2 10.3 10.1 10.1"/>
          <polygon id="_98" data-name=" 98" class="cls-50" points="10.2 10.2 39.8 10.2 39.8 39.8 10.2 39.8 10.2 10.2 10.3 10.3 39.7 10.3 39.7 39.7 10.3 39.7 10.3 10.3 10.2 10.2"/>
          <polygon id="_99" data-name=" 99" class="cls-50" points="10.2 10.3 39.7 10.3 39.7 39.7 10.2 39.7 10.2 10.3 10.4 10.4 39.6 10.4 39.6 39.6 10.4 39.6 10.4 10.4 10.2 10.3"/>
          <polygon id="_100" data-name=" 100" class="cls-50" points="10.3 10.3 39.7 10.3 39.7 39.7 10.3 39.7 10.3 10.3 10.5 10.5 39.5 10.5 39.5 39.5 10.5 39.5 10.5 10.5 10.3 10.3"/>
          <polygon id="_101" data-name=" 101" class="cls-50" points="10.4 10.4 39.6 10.4 39.6 39.6 10.4 39.6 10.4 10.4 10.5 10.6 39.5 10.6 39.5 39.5 10.5 39.5 10.5 10.6 10.4 10.4"/>
          <polygon id="_102" data-name=" 102" class="cls-50" points="10.5 10.5 39.5 10.5 39.5 39.5 10.5 39.5 10.5 10.5 10.6 10.6 39.4 10.6 39.4 39.4 10.6 39.4 10.6 10.6 10.5 10.5"/>
          <polygon id="_103" data-name=" 103" class="cls-50" points="10.5 10.6 39.5 10.6 39.5 39.5 10.5 39.5 10.5 10.6 10.7 10.7 39.3 10.7 39.3 39.3 10.7 39.3 10.7 10.7 10.5 10.6"/>
          <polygon id="_104" data-name=" 104" class="cls-50" points="10.6 10.6 39.4 10.6 39.4 39.4 10.6 39.4 10.6 10.6 10.8 10.8 39.2 10.8 39.2 39.2 10.8 39.2 10.8 10.8 10.6 10.6"/>
          <polygon id="_105" data-name=" 105" class="cls-50" points="10.7 10.7 39.3 10.7 39.3 39.3 10.7 39.3 10.7 10.7 10.8 10.8 39.2 10.8 39.2 39.2 10.8 39.2 10.8 10.8 10.7 10.7"/>
          <polygon id="_106" data-name=" 106" class="cls-50" points="10.8 10.8 39.2 10.8 39.2 39.2 10.8 39.2 10.8 10.8 10.9 10.9 39.1 10.9 39.1 39.1 10.9 39.1 10.9 10.9 10.8 10.8"/>
          <polygon id="_107" data-name=" 107" class="cls-50" points="10.8 10.8 39.2 10.8 39.2 39.2 10.8 39.2 10.8 10.8 11 11 39 11 39 39 11 39 11 11 10.8 10.8"/>
          <polygon id="_108" data-name=" 108" class="cls-50" points="10.9 10.9 39.1 10.9 39.1 39.1 10.9 39.1 10.9 10.9 11.1 11.1 38.9 11.1 38.9 38.9 11.1 38.9 11.1 11.1 10.9 10.9"/>
          <polygon id="_109" data-name=" 109" class="cls-50" points="11 11 39 11 39 39 11 39 11 11 11.1 11.1 38.9 11.1 38.9 38.9 11.1 38.9 11.1 11.1 11 11"/>
          <polygon id="_110" data-name=" 110" class="cls-50" points="11.1 11.1 38.9 11.1 38.9 38.9 11.1 38.9 11.1 11.1 11.2 11.2 38.8 11.2 38.8 38.8 11.2 38.8 11.2 11.2 11.1 11.1"/>
          <polygon id="_111" data-name=" 111" class="cls-50" points="11.1 11.1 38.9 11.1 38.9 38.9 11.1 38.9 11.1 11.1 11.3 11.3 38.7 11.3 38.7 38.7 11.3 38.7 11.3 11.3 11.1 11.1"/>
          <polygon id="_112" data-name=" 112" class="cls-50" points="11.2 11.2 38.8 11.2 38.8 38.8 11.2 38.8 11.2 11.2 11.3 11.4 38.6 11.4 38.6 38.6 11.3 38.6 11.3 11.4 11.2 11.2"/>
          <polygon id="_113" data-name=" 113" class="cls-50" points="11.3 11.3 38.7 11.3 38.7 38.7 11.3 38.7 11.3 11.3 11.4 11.4 38.6 11.4 38.6 38.6 11.4 38.6 11.4 11.4 11.3 11.3"/>
          <polygon id="_114" data-name=" 114" class="cls-50" points="11.3 11.4 38.6 11.4 38.6 38.6 11.3 38.6 11.3 11.4 11.5 11.5 38.5 11.5 38.5 38.5 11.5 38.5 11.5 11.5 11.3 11.4"/>
          <polygon id="_115" data-name=" 115" class="cls-50" points="11.4 11.4 38.6 11.4 38.6 38.6 11.4 38.6 11.4 11.4 11.6 11.6 38.4 11.6 38.4 38.4 11.6 38.4 11.6 11.6 11.4 11.4"/>
          <polygon id="_116" data-name=" 116" class="cls-50" points="11.5 11.5 38.5 11.5 38.5 38.5 11.5 38.5 11.5 11.5 11.6 11.6 38.3 11.6 38.3 38.4 11.6 38.4 11.6 11.6 11.5 11.5"/>
          <polygon id="_117" data-name=" 117" class="cls-50" points="11.6 11.6 38.4 11.6 38.4 38.4 11.6 38.4 11.6 11.6 11.7 11.7 38.3 11.7 38.3 38.3 11.7 38.3 11.7 11.7 11.6 11.6"/>
          <polygon id="_118" data-name=" 118" class="cls-50" points="11.6 11.6 38.3 11.6 38.3 38.4 11.6 38.4 11.6 11.6 11.8 11.8 38.2 11.8 38.2 38.2 11.8 38.2 11.8 11.8 11.6 11.6"/>
          <polygon id="_119" data-name=" 119" class="cls-50" points="11.7 11.7 38.3 11.7 38.3 38.3 11.7 38.3 11.7 11.7 11.9 11.9 38.1 11.9 38.1 38.1 11.9 38.1 11.9 11.9 11.7 11.7"/>
          <polygon id="_120" data-name=" 120" class="cls-50" points="11.8 11.8 38.2 11.8 38.2 38.2 11.8 38.2 11.8 11.8 11.9 11.9 38.1 11.9 38.1 38.1 11.9 38.1 11.9 11.9 11.8 11.8"/>
          <polygon id="_121" data-name=" 121" class="cls-50" points="11.9 11.9 38.1 11.9 38.1 38.1 11.9 38.1 11.9 11.9 12 12 38 12 38 38 12 38 12 12 11.9 11.9"/>
          <polygon id="_122" data-name=" 122" class="cls-50" points="11.9 11.9 38.1 11.9 38.1 38.1 11.9 38.1 11.9 11.9 12.1 12.1 37.9 12.1 37.9 37.9 12.1 37.9 12.1 12.1 11.9 11.9"/>
          <polygon id="_123" data-name=" 123" class="cls-50" points="12 12 38 12 38 38 12 38 12 12 12.2 12.2 37.8 12.2 37.8 37.8 12.2 37.8 12.2 12.2 12 12"/>
          <polygon id="_124" data-name=" 124" class="cls-50" points="12.1 12.1 37.9 12.1 37.9 37.9 12.1 37.9 12.1 12.1 12.2 12.2 37.8 12.2 37.8 37.8 12.2 37.8 12.2 12.2 12.1 12.1"/>
          <polygon id="_125" data-name=" 125" class="cls-50" points="12.2 12.2 37.8 12.2 37.8 37.8 12.2 37.8 12.2 12.2 12.3 12.3 37.7 12.3 37.7 37.7 12.3 37.7 12.3 12.3 12.2 12.2"/>
          <polygon id="_126" data-name=" 126" class="cls-50" points="12.2 12.2 37.8 12.2 37.8 37.8 12.2 37.8 12.2 12.2 12.4 12.4 37.6 12.4 37.6 37.6 12.4 37.6 12.4 12.4 12.2 12.2"/>
          <polygon id="_127" data-name=" 127" class="cls-50" points="12.3 12.3 37.7 12.3 37.7 37.7 12.3 37.7 12.3 12.3 12.5 12.5 37.5 12.5 37.5 37.5 12.5 37.5 12.5 12.5 12.3 12.3"/>
          <polygon id="_128" data-name=" 128" class="cls-50" points="12.4 12.4 37.6 12.4 37.6 37.6 12.4 37.6 12.4 12.4 12.5 12.5 37.5 12.5 37.5 37.5 12.5 37.5 12.5 12.5 12.4 12.4"/>
          <polygon id="_129" data-name=" 129" class="cls-50" points="12.5 12.5 37.5 12.5 37.5 37.5 12.5 37.5 12.5 12.5 12.6 12.6 37.4 12.6 37.4 37.4 12.6 37.4 12.6 12.6 12.5 12.5"/>
          <polygon id="_130" data-name=" 130" class="cls-50" points="12.5 12.5 37.5 12.5 37.5 37.5 12.5 37.5 12.5 12.5 12.7 12.7 37.3 12.7 37.3 37.3 12.7 37.3 12.7 12.7 12.5 12.5"/>
          <polygon id="_131" data-name=" 131" class="cls-50" points="12.6 12.6 37.4 12.6 37.4 37.4 12.6 37.4 12.6 12.6 12.7 12.7 37.2 12.7 37.2 37.3 12.7 37.3 12.7 12.7 12.6 12.6"/>
          <polygon id="_132" data-name=" 132" class="cls-50" points="12.7 12.7 37.3 12.7 37.3 37.3 12.7 37.3 12.7 12.7 12.8 12.8 37.2 12.8 37.2 37.2 12.8 37.2 12.8 12.8 12.7 12.7"/>
          <polygon id="_133" data-name=" 133" class="cls-50" points="12.7 12.7 37.2 12.7 37.2 37.3 12.7 37.3 12.7 12.7 12.9 12.9 37.1 12.9 37.1 37.1 12.9 37.1 12.9 12.9 12.7 12.7"/>
          <polygon id="_134" data-name=" 134" class="cls-50" points="12.8 12.8 37.2 12.8 37.2 37.2 12.8 37.2 12.8 12.8 13 13 37 13 37 37 13 37 13 13 12.8 12.8"/>
          <polygon id="_135" data-name=" 135" class="cls-50" points="12.9 12.9 37.1 12.9 37.1 37.1 12.9 37.1 12.9 12.9 13 13 37 13 37 37 13 37 13 13 12.9 12.9"/>
          <polygon id="_136" data-name=" 136" class="cls-50" points="13 13 37 13 37 37 13 37 13 13 13.1 13.1 36.9 13.1 36.9 36.9 13.1 36.9 13.1 13.1 13 13"/>
          <polygon id="_137" data-name=" 137" class="cls-50" points="13 13 37 13 37 37 13 37 13 13 13.2 13.2 36.8 13.2 36.8 36.8 13.2 36.8 13.2 13.2 13 13"/>
          <polygon id="_138" data-name=" 138" class="cls-50" points="13.1 13.1 36.9 13.1 36.9 36.9 13.1 36.9 13.1 13.1 13.3 13.3 36.7 13.3 36.7 36.7 13.3 36.7 13.3 13.3 13.1 13.1"/>
          <polygon id="_139" data-name=" 139" class="cls-50" points="13.2 13.2 36.8 13.2 36.8 36.8 13.2 36.8 13.2 13.2 13.3 13.3 36.7 13.3 36.7 36.7 13.3 36.7 13.3 13.3 13.2 13.2"/>
          <polygon id="_140" data-name=" 140" class="cls-50" points="13.3 13.3 36.7 13.3 36.7 36.7 13.3 36.7 13.3 13.3 13.4 13.4 36.6 13.4 36.6 36.6 13.4 36.6 13.4 13.4 13.3 13.3"/>
          <polygon id="_141" data-name=" 141" class="cls-50" points="13.3 13.3 36.7 13.3 36.7 36.7 13.3 36.7 13.3 13.3 13.5 13.5 36.5 13.5 36.5 36.5 13.5 36.5 13.5 13.5 13.3 13.3"/>
          <polygon id="_142" data-name=" 142" class="cls-50" points="13.4 13.4 36.6 13.4 36.6 36.6 13.4 36.6 13.4 13.4 13.6 13.6 36.4 13.6 36.4 36.4 13.6 36.4 13.6 13.6 13.4 13.4"/>
          <polygon id="_143" data-name=" 143" class="cls-50" points="13.5 13.5 36.5 13.5 36.5 36.5 13.5 36.5 13.5 13.5 13.6 13.6 36.4 13.6 36.4 36.4 13.6 36.4 13.6 13.6 13.5 13.5"/>
          <polygon id="_144" data-name=" 144" class="cls-50" points="13.6 13.6 36.4 13.6 36.4 36.4 13.6 36.4 13.6 13.6 13.7 13.7 36.3 13.7 36.3 36.3 13.7 36.3 13.7 13.7 13.6 13.6"/>
          <polygon id="_145" data-name=" 145" class="cls-50" points="13.6 13.6 36.4 13.6 36.4 36.4 13.6 36.4 13.6 13.6 13.8 13.8 36.2 13.8 36.2 36.2 13.8 36.2 13.8 13.8 13.6 13.6"/>
          <polygon id="_146" data-name=" 146" class="cls-50" points="13.7 13.7 36.3 13.7 36.3 36.3 13.7 36.3 13.7 13.7 13.8 13.8 36.2 13.8 36.2 36.2 13.8 36.2 13.8 13.8 13.7 13.7"/>
          <polygon id="_147" data-name=" 147" class="cls-50" points="13.8 13.8 36.2 13.8 36.2 36.2 13.8 36.2 13.8 13.8 13.9 13.9 36.1 13.9 36.1 36.1 13.9 36.1 13.9 13.9 13.8 13.8"/>
          <polygon id="_148" data-name=" 148" class="cls-50" points="13.8 13.8 36.2 13.8 36.2 36.2 13.8 36.2 13.8 13.8 14 14 36 14 36 36 14 36 14 14 13.8 13.8"/>
          <polygon id="_149" data-name=" 149" class="cls-50" points="13.9 13.9 36.1 13.9 36.1 36.1 13.9 36.1 13.9 13.9 14.1 14.1 35.9 14.1 35.9 35.9 14.1 35.9 14.1 14.1 13.9 13.9"/>
          <polygon id="_150" data-name=" 150" class="cls-50" points="14 14 36 14 36 36 14 36 14 14 14.1 14.1 35.9 14.1 35.9 35.9 14.1 35.9 14.1 14.1 14 14"/>
          <polygon id="_151" data-name=" 151" class="cls-50" points="14.1 14.1 35.9 14.1 35.9 35.9 14.1 35.9 14.1 14.1 14.2 14.2 35.8 14.2 35.8 35.8 14.2 35.8 14.2 14.2 14.1 14.1"/>
          <polygon id="_152" data-name=" 152" class="cls-50" points="14.1 14.1 35.9 14.1 35.9 35.9 14.1 35.9 14.1 14.1 14.3 14.3 35.7 14.3 35.7 35.7 14.3 35.7 14.3 14.3 14.1 14.1"/>
          <polygon id="_153" data-name=" 153" class="cls-50" points="14.2 14.2 35.8 14.2 35.8 35.8 14.2 35.8 14.2 14.2 14.4 14.4 35.6 14.4 35.6 35.6 14.4 35.6 14.4 14.4 14.2 14.2"/>
          <polygon id="_154" data-name=" 154" class="cls-50" points="14.3 14.3 35.7 14.3 35.7 35.7 14.3 35.7 14.3 14.3 14.4 14.4 35.6 14.4 35.6 35.6 14.4 35.6 14.4 14.4 14.3 14.3"/>
          <polygon id="_155" data-name=" 155" class="cls-50" points="14.4 14.4 35.6 14.4 35.6 35.6 14.4 35.6 14.4 14.4 14.5 14.5 35.5 14.5 35.5 35.5 14.5 35.5 14.5 14.5 14.4 14.4"/>
          <polygon id="_156" data-name=" 156" class="cls-50" points="14.4 14.4 35.6 14.4 35.6 35.6 14.4 35.6 14.4 14.4 14.6 14.6 35.4 14.6 35.4 35.4 14.6 35.4 14.6 14.6 14.4 14.4"/>
          <polygon id="_157" data-name=" 157" class="cls-50" points="14.5 14.5 35.5 14.5 35.5 35.5 14.5 35.5 14.5 14.5 14.7 14.7 35.3 14.7 35.3 35.3 14.7 35.3 14.7 14.7 14.5 14.5"/>
          <polygon id="_158" data-name=" 158" class="cls-50" points="14.6 14.6 35.4 14.6 35.4 35.4 14.6 35.4 14.6 14.6 14.7 14.7 35.3 14.7 35.3 35.3 14.7 35.3 14.7 14.7 14.6 14.6"/>
          <polygon id="_159" data-name=" 159" class="cls-50" points="14.7 14.7 35.3 14.7 35.3 35.3 14.7 35.3 14.7 14.7 14.8 14.8 35.2 14.8 35.2 35.2 14.8 35.2 14.8 14.8 14.7 14.7"/>
          <polygon id="_160" data-name=" 160" class="cls-50" points="14.7 14.7 35.3 14.7 35.3 35.3 14.7 35.3 14.7 14.7 14.9 14.9 35.1 14.9 35.1 35.1 14.9 35.1 14.9 14.9 14.7 14.7"/>
          <polygon id="_161" data-name=" 161" class="cls-50" points="14.8 14.8 35.2 14.8 35.2 35.2 14.8 35.2 14.8 14.8 14.9 14.9 35 14.9 35 35.1 14.9 35.1 14.9 14.9 14.8 14.8"/>
          <polygon id="_162" data-name=" 162" class="cls-50" points="14.9 14.9 35.1 14.9 35.1 35.1 14.9 35.1 14.9 14.9 15 15 35 15 35 35 15 35 15 15 14.9 14.9"/>
          <polygon id="_163" data-name=" 163" class="cls-50" points="14.9 14.9 35 14.9 35 35.1 14.9 35.1 14.9 14.9 15.1 15.1 34.9 15.1 34.9 34.9 15.1 34.9 15.1 15.1 14.9 14.9"/>
          <polygon id="_164" data-name=" 164" class="cls-50" points="15 15 35 15 35 35 15 35 15 15 15.2 15.2 34.8 15.2 34.8 34.8 15.2 34.8 15.2 15.2 15 15"/>
          <polygon id="_165" data-name=" 165" class="cls-50" points="15.1 15.1 34.9 15.1 34.9 34.9 15.1 34.9 15.1 15.1 15.2 15.2 34.8 15.2 34.8 34.8 15.2 34.8 15.2 15.2 15.1 15.1"/>
          <polygon id="_166" data-name=" 166" class="cls-50" points="15.2 15.2 34.8 15.2 34.8 34.8 15.2 34.8 15.2 15.2 15.3 15.3 34.7 15.3 34.7 34.7 15.3 34.7 15.3 15.3 15.2 15.2"/>
          <polygon id="_167" data-name=" 167" class="cls-50" points="15.2 15.2 34.8 15.2 34.8 34.8 15.2 34.8 15.2 15.2 15.4 15.4 34.6 15.4 34.6 34.6 15.4 34.6 15.4 15.4 15.2 15.2"/>
          <polygon id="_168" data-name=" 168" class="cls-50" points="15.3 15.3 34.7 15.3 34.7 34.7 15.3 34.7 15.3 15.3 15.5 15.5 34.5 15.5 34.5 34.5 15.5 34.5 15.5 15.5 15.3 15.3"/>
          <polygon id="_169" data-name=" 169" class="cls-50" points="15.4 15.4 34.6 15.4 34.6 34.6 15.4 34.6 15.4 15.4 15.5 15.5 34.5 15.5 34.5 34.5 15.5 34.5 15.5 15.5 15.4 15.4"/>
          <polygon id="_170" data-name=" 170" class="cls-50" points="15.5 15.5 34.5 15.5 34.5 34.5 15.5 34.5 15.5 15.5 15.6 15.6 34.4 15.6 34.4 34.4 15.6 34.4 15.6 15.6 15.5 15.5"/>
          <polygon id="_171" data-name=" 171" class="cls-50" points="15.5 15.5 34.5 15.5 34.5 34.5 15.5 34.5 15.5 15.5 15.7 15.7 34.3 15.7 34.3 34.3 15.7 34.3 15.7 15.7 15.5 15.5"/>
          <polygon id="_172" data-name=" 172" class="cls-50" points="15.6 15.6 34.4 15.6 34.4 34.4 15.6 34.4 15.6 15.6 15.8 15.8 34.2 15.8 34.2 34.2 15.8 34.2 15.8 15.8 15.6 15.6"/>
          <polygon id="_173" data-name=" 173" class="cls-50" points="15.7 15.7 34.3 15.7 34.3 34.3 15.7 34.3 15.7 15.7 15.8 15.8 34.2 15.8 34.2 34.2 15.8 34.2 15.8 15.8 15.7 15.7"/>
          <polygon id="_174" data-name=" 174" class="cls-50" points="15.8 15.8 34.2 15.8 34.2 34.2 15.8 34.2 15.8 15.8 15.9 15.9 34.1 15.9 34.1 34.1 15.9 34.1 15.9 15.9 15.8 15.8"/>
          <polygon id="_175" data-name=" 175" class="cls-50" points="15.8 15.8 34.2 15.8 34.2 34.2 15.8 34.2 15.8 15.8 16 16 34 16 34 34 16 34 16 16 15.8 15.8"/>
          <polygon id="_176" data-name=" 176" class="cls-50" points="15.9 15.9 34.1 15.9 34.1 34.1 15.9 34.1 15.9 15.9 16 16.1 33.9 16.1 33.9 34 16 34 16 16.1 15.9 15.9"/>
          <polygon id="_177" data-name=" 177" class="cls-50" points="16 16 34 16 34 34 16 34 16 16 16.1 16.1 33.9 16.1 33.9 33.9 16.1 33.9 16.1 16.1 16 16"/>
          <polygon id="_178" data-name=" 178" class="cls-50" points="16 16.1 33.9 16.1 33.9 34 16 34 16 16.1 16.2 16.2 33.8 16.2 33.8 33.8 16.2 33.8 16.2 16.2 16 16.1"/>
          <polygon id="_179" data-name=" 179" class="cls-50" points="16.1 16.1 33.9 16.1 33.9 33.9 16.1 33.9 16.1 16.1 16.3 16.3 33.7 16.3 33.7 33.7 16.3 33.7 16.3 16.3 16.1 16.1"/>
          <polygon id="_180" data-name=" 180" class="cls-50" points="16.2 16.2 33.8 16.2 33.8 33.8 16.2 33.8 16.2 16.2 16.3 16.3 33.7 16.3 33.7 33.7 16.3 33.7 16.3 16.3 16.2 16.2"/>
          <polygon id="_181" data-name=" 181" class="cls-50" points="16.3 16.3 33.7 16.3 33.7 33.7 16.3 33.7 16.3 16.3 16.4 16.4 33.6 16.4 33.6 33.6 16.4 33.6 16.4 16.4 16.3 16.3"/>
          <polygon id="_182" data-name=" 182" class="cls-50" points="16.3 16.3 33.7 16.3 33.7 33.7 16.3 33.7 16.3 16.3 16.5 16.5 33.5 16.5 33.5 33.5 16.5 33.5 16.5 16.5 16.3 16.3"/>
          <polygon id="_183" data-name=" 183" class="cls-50" points="16.4 16.4 33.6 16.4 33.6 33.6 16.4 33.6 16.4 16.4 16.6 16.6 33.4 16.6 33.4 33.4 16.6 33.4 16.6 16.6 16.4 16.4"/>
          <polygon id="_184" data-name=" 184" class="cls-50" points="16.5 16.5 33.5 16.5 33.5 33.5 16.5 33.5 16.5 16.5 16.6 16.6 33.4 16.6 33.4 33.4 16.6 33.4 16.6 16.6 16.5 16.5"/>
          <polygon id="_185" data-name=" 185" class="cls-50" points="16.6 16.6 33.4 16.6 33.4 33.4 16.6 33.4 16.6 16.6 16.7 16.7 33.3 16.7 33.3 33.3 16.7 33.3 16.7 16.7 16.6 16.6"/>
          <polygon id="_186" data-name=" 186" class="cls-50" points="16.6 16.6 33.4 16.6 33.4 33.4 16.6 33.4 16.6 16.6 16.8 16.8 33.2 16.8 33.2 33.2 16.8 33.2 16.8 16.8 16.6 16.6"/>
          <polygon id="_187" data-name=" 187" class="cls-50" points="16.7 16.7 33.3 16.7 33.3 33.3 16.7 33.3 16.7 16.7 16.9 16.9 33.1 16.9 33.1 33.1 16.9 33.1 16.9 16.9 16.7 16.7"/>
          <polygon id="_188" data-name=" 188" class="cls-50" points="16.8 16.8 33.2 16.8 33.2 33.2 16.8 33.2 16.8 16.8 16.9 16.9 33.1 16.9 33.1 33.1 16.9 33.1 16.9 16.9 16.8 16.8"/>
          <polygon id="_189" data-name=" 189" class="cls-50" points="16.9 16.9 33.1 16.9 33.1 33.1 16.9 33.1 16.9 16.9 17 17 33 17 33 33 17 33 17 17 16.9 16.9"/>
          <polygon id="_190" data-name=" 190" class="cls-50" points="16.9 16.9 33.1 16.9 33.1 33.1 16.9 33.1 16.9 16.9 17.1 17.1 32.9 17.1 32.9 32.9 17.1 32.9 17.1 17.1 16.9 16.9"/>
          <polygon id="_191" data-name=" 191" class="cls-50" points="17 17 33 17 33 33 17 33 17 17 17.1 17.2 32.8 17.2 32.8 32.9 17.1 32.9 17.1 17.2 17 17"/>
          <polygon id="_192" data-name=" 192" class="cls-50" points="17.1 17.1 32.9 17.1 32.9 32.9 17.1 32.9 17.1 17.1 17.2 17.2 32.8 17.2 32.8 32.8 17.2 32.8 17.2 17.2 17.1 17.1"/>
          <polygon id="_193" data-name=" 193" class="cls-50" points="17.1 17.2 32.8 17.2 32.8 32.9 17.1 32.9 17.1 17.2 17.3 17.3 32.7 17.3 32.7 32.7 17.3 32.7 17.3 17.3 17.1 17.2"/>
          <polygon id="_194" data-name=" 194" class="cls-50" points="17.2 17.2 32.8 17.2 32.8 32.8 17.2 32.8 17.2 17.2 17.4 17.4 32.6 17.4 32.6 32.6 17.4 32.6 17.4 17.4 17.2 17.2"/>
          <polygon id="_195" data-name=" 195" class="cls-50" points="17.3 17.3 32.7 17.3 32.7 32.7 17.3 32.7 17.3 17.3 17.4 17.4 32.6 17.4 32.6 32.6 17.4 32.6 17.4 17.4 17.3 17.3"/>
          <polygon id="_196" data-name=" 196" class="cls-50" points="17.4 17.4 32.6 17.4 32.6 32.6 17.4 32.6 17.4 17.4 17.5 17.5 32.5 17.5 32.5 32.5 17.5 32.5 17.5 17.5 17.4 17.4"/>
          <polygon id="_197" data-name=" 197" class="cls-50" points="17.4 17.4 32.6 17.4 32.6 32.6 17.4 32.6 17.4 17.4 17.6 17.6 32.4 17.6 32.4 32.4 17.6 32.4 17.6 17.6 17.4 17.4"/>
          <polygon id="_198" data-name=" 198" class="cls-50" points="17.5 17.5 32.5 17.5 32.5 32.5 17.5 32.5 17.5 17.5 17.7 17.7 32.3 17.7 32.3 32.3 17.7 32.3 17.7 17.7 17.5 17.5"/>
          <polygon id="_199" data-name=" 199" class="cls-50" points="17.6 17.6 32.4 17.6 32.4 32.4 17.6 32.4 17.6 17.6 17.7 17.7 32.3 17.7 32.3 32.3 17.7 32.3 17.7 17.7 17.6 17.6"/>
          <polygon id="_200" data-name=" 200" class="cls-50" points="17.7 17.7 32.3 17.7 32.3 32.3 17.7 32.3 17.7 17.7 17.8 17.8 32.2 17.8 32.2 32.2 17.8 32.2 17.8 17.8 17.7 17.7"/>
          <polygon id="_201" data-name=" 201" class="cls-50" points="17.7 17.7 32.3 17.7 32.3 32.3 17.7 32.3 17.7 17.7 17.9 17.9 32.1 17.9 32.1 32.1 17.9 32.1 17.9 17.9 17.7 17.7"/>
          <polygon id="_202" data-name=" 202" class="cls-50" points="17.8 17.8 32.2 17.8 32.2 32.2 17.8 32.2 17.8 17.8 18 18 32 18 32 32 18 32 18 18 17.8 17.8"/>
          <polygon id="_203" data-name=" 203" class="cls-50" points="17.9 17.9 32.1 17.9 32.1 32.1 17.9 32.1 17.9 17.9 18 18 32 18 32 32 18 32 18 18 17.9 17.9"/>
          <polygon id="_204" data-name=" 204" class="cls-50" points="18 18 32 18 32 32 18 32 18 18 18.1 18.1 31.9 18.1 31.9 31.9 18.1 31.9 18.1 18.1 18 18"/>
          <polygon id="_205" data-name=" 205" class="cls-50" points="18 18 32 18 32 32 18 32 18 18 18.2 18.2 31.8 18.2 31.8 31.8 18.2 31.8 18.2 18.2 18 18"/>
          <polygon id="_206" data-name=" 206" class="cls-50" points="18.1 18.1 31.9 18.1 31.9 31.9 18.1 31.9 18.1 18.1 18.2 18.2 31.7 18.2 31.7 31.8 18.2 31.8 18.2 18.2 18.1 18.1"/>
          <polygon id="_207" data-name=" 207" class="cls-50" points="18.2 18.2 31.8 18.2 31.8 31.8 18.2 31.8 18.2 18.2 18.3 18.3 31.7 18.3 31.7 31.7 18.3 31.7 18.3 18.3 18.2 18.2"/>
          <polygon id="_208" data-name=" 208" class="cls-50" points="18.2 18.2 31.7 18.2 31.7 31.8 18.2 31.8 18.2 18.2 18.4 18.4 31.6 18.4 31.6 31.6 18.4 31.6 18.4 18.4 18.2 18.2"/>
          <polygon id="_209" data-name=" 209" class="cls-50" points="18.3 18.3 31.7 18.3 31.7 31.7 18.3 31.7 18.3 18.3 18.5 18.5 31.5 18.5 31.5 31.5 18.5 31.5 18.5 18.5 18.3 18.3"/>
          <polygon id="_210" data-name=" 210" class="cls-50" points="18.4 18.4 31.6 18.4 31.6 31.6 18.4 31.6 18.4 18.4 18.5 18.5 31.5 18.5 31.5 31.5 18.5 31.5 18.5 18.5 18.4 18.4"/>
          <polygon id="_211" data-name=" 211" class="cls-50" points="18.5 18.5 31.5 18.5 31.5 31.5 18.5 31.5 18.5 18.5 18.6 18.6 31.4 18.6 31.4 31.4 18.6 31.4 18.6 18.6 18.5 18.5"/>
          <polygon id="_212" data-name=" 212" class="cls-50" points="18.5 18.5 31.5 18.5 31.5 31.5 18.5 31.5 18.5 18.5 18.7 18.7 31.3 18.7 31.3 31.3 18.7 31.3 18.7 18.7 18.5 18.5"/>
          <polygon id="_213" data-name=" 213" class="cls-50" points="18.6 18.6 31.4 18.6 31.4 31.4 18.6 31.4 18.6 18.6 18.8 18.8 31.2 18.8 31.2 31.2 18.8 31.2 18.8 18.8 18.6 18.6"/>
          <polygon id="_214" data-name=" 214" class="cls-50" points="18.7 18.7 31.3 18.7 31.3 31.3 18.7 31.3 18.7 18.7 18.8 18.8 31.2 18.8 31.2 31.2 18.8 31.2 18.8 18.8 18.7 18.7"/>
          <polygon id="_215" data-name=" 215" class="cls-50" points="18.8 18.8 31.2 18.8 31.2 31.2 18.8 31.2 18.8 18.8 18.9 18.9 31.1 18.9 31.1 31.1 18.9 31.1 18.9 18.9 18.8 18.8"/>
          <polygon id="_216" data-name=" 216" class="cls-50" points="18.8 18.8 31.2 18.8 31.2 31.2 18.8 31.2 18.8 18.8 19 19 31 19 31 31 19 31 19 19 18.8 18.8"/>
          <polygon id="_217" data-name=" 217" class="cls-50" points="18.9 18.9 31.1 18.9 31.1 31.1 18.9 31.1 18.9 18.9 19.1 19.1 30.9 19.1 30.9 30.9 19.1 30.9 19.1 19.1 18.9 18.9"/>
          <polygon id="_218" data-name=" 218" class="cls-50" points="19 19 31 19 31 31 19 31 19 19 19.1 19.1 30.9 19.1 30.9 30.9 19.1 30.9 19.1 19.1 19 19"/>
          <polygon id="_219" data-name=" 219" class="cls-50" points="19.1 19.1 30.9 19.1 30.9 30.9 19.1 30.9 19.1 19.1 19.2 19.2 30.8 19.2 30.8 30.8 19.2 30.8 19.2 19.2 19.1 19.1"/>
          <polygon id="_220" data-name=" 220" class="cls-50" points="19.1 19.1 30.9 19.1 30.9 30.9 19.1 30.9 19.1 19.1 19.3 19.3 30.7 19.3 30.7 30.7 19.3 30.7 19.3 19.3 19.1 19.1"/>
          <polygon id="_221" data-name=" 221" class="cls-50" points="19.2 19.2 30.8 19.2 30.8 30.8 19.2 30.8 19.2 19.2 19.4 19.4 30.6 19.4 30.6 30.6 19.4 30.6 19.4 19.4 19.2 19.2"/>
          <polygon id="_222" data-name=" 222" class="cls-50" points="19.3 19.3 30.7 19.3 30.7 30.7 19.3 30.7 19.3 19.3 19.4 19.4 30.6 19.4 30.6 30.6 19.4 30.6 19.4 19.4 19.3 19.3"/>
          <polygon id="_223" data-name=" 223" class="cls-50" points="19.4 19.4 30.6 19.4 30.6 30.6 19.4 30.6 19.4 19.4 19.5 19.5 30.5 19.5 30.5 30.5 19.5 30.5 19.5 19.5 19.4 19.4"/>
          <polygon id="_224" data-name=" 224" class="cls-50" points="19.4 19.4 30.6 19.4 30.6 30.6 19.4 30.6 19.4 19.4 19.6 19.6 30.4 19.6 30.4 30.4 19.6 30.4 19.6 19.6 19.4 19.4"/>
          <polygon id="_225" data-name=" 225" class="cls-50" points="19.5 19.5 30.5 19.5 30.5 30.5 19.5 30.5 19.5 19.5 19.6 19.6 30.4 19.6 30.4 30.4 19.6 30.4 19.6 19.6 19.5 19.5"/>
          <polygon id="_226" data-name=" 226" class="cls-50" points="19.6 19.6 30.4 19.6 30.4 30.4 19.6 30.4 19.6 19.6 19.7 19.7 30.3 19.7 30.3 30.3 19.7 30.3 19.7 19.7 19.6 19.6"/>
          <polygon id="_227" data-name=" 227" class="cls-50" points="19.6 19.6 30.4 19.6 30.4 30.4 19.6 30.4 19.6 19.6 19.8 19.8 30.2 19.8 30.2 30.2 19.8 30.2 19.8 19.8 19.6 19.6"/>
          <polygon id="_228" data-name=" 228" class="cls-50" points="19.7 19.7 30.3 19.7 30.3 30.3 19.7 30.3 19.7 19.7 19.9 19.9 30.1 19.9 30.1 30.1 19.9 30.1 19.9 19.9 19.7 19.7"/>
          <polygon id="_229" data-name=" 229" class="cls-50" points="19.8 19.8 30.2 19.8 30.2 30.2 19.8 30.2 19.8 19.8 19.9 19.9 30.1 19.9 30.1 30.1 19.9 30.1 19.9 19.9 19.8 19.8"/>
          <polygon id="_230" data-name=" 230" class="cls-50" points="19.9 19.9 30.1 19.9 30.1 30.1 19.9 30.1 19.9 19.9 20 20 30 20 30 30 20 30 20 20 19.9 19.9"/>
          <polygon id="_231" data-name=" 231" class="cls-50" points="19.9 19.9 30.1 19.9 30.1 30.1 19.9 30.1 19.9 19.9 20.1 20.1 29.9 20.1 29.9 29.9 20.1 29.9 20.1 20.1 19.9 19.9"/>
          <polygon id="_232" data-name=" 232" class="cls-50" points="20 20 30 20 30 30 20 30 20 20 20.2 20.2 29.8 20.2 29.8 29.8 20.2 29.8 20.2 20.2 20 20"/>
          <polygon id="_233" data-name=" 233" class="cls-50" points="20.1 20.1 29.9 20.1 29.9 29.9 20.1 29.9 20.1 20.1 20.2 20.2 29.8 20.2 29.8 29.8 20.2 29.8 20.2 20.2 20.1 20.1"/>
          <polygon id="_234" data-name=" 234" class="cls-50" points="20.2 20.2 29.8 20.2 29.8 29.8 20.2 29.8 20.2 20.2 20.3 20.3 29.7 20.3 29.7 29.7 20.3 29.7 20.3 20.3 20.2 20.2"/>
          <polygon id="_235" data-name=" 235" class="cls-50" points="20.2 20.2 29.8 20.2 29.8 29.8 20.2 29.8 20.2 20.2 20.4 20.4 29.6 20.4 29.6 29.6 20.4 29.6 20.4 20.4 20.2 20.2"/>
          <polygon id="_236" data-name=" 236" class="cls-50" points="20.3 20.3 29.7 20.3 29.7 29.7 20.3 29.7 20.3 20.3 20.4 20.5 29.5 20.5 29.5 29.5 20.4 29.5 20.4 20.5 20.3 20.3"/>
          <polygon id="_237" data-name=" 237" class="cls-50" points="20.4 20.4 29.6 20.4 29.6 29.6 20.4 29.6 20.4 20.4 20.5 20.5 29.5 20.5 29.5 29.5 20.5 29.5 20.5 20.5 20.4 20.4"/>
          <polygon id="_238" data-name=" 238" class="cls-50" points="20.4 20.5 29.5 20.5 29.5 29.5 20.4 29.5 20.4 20.5 20.6 20.6 29.4 20.6 29.4 29.4 20.6 29.4 20.6 20.6 20.4 20.5"/>
          <polygon id="_239" data-name=" 239" class="cls-50" points="20.5 20.5 29.5 20.5 29.5 29.5 20.5 29.5 20.5 20.5 20.7 20.7 29.3 20.7 29.3 29.3 20.7 29.3 20.7 20.7 20.5 20.5"/>
          <polygon id="_240" data-name=" 240" class="cls-50" points="20.6 20.6 29.4 20.6 29.4 29.4 20.6 29.4 20.6 20.6 20.7 20.7 29.3 20.7 29.3 29.3 20.7 29.3 20.7 20.7 20.6 20.6"/>
          <polygon id="_241" data-name=" 241" class="cls-50" points="20.7 20.7 29.3 20.7 29.3 29.3 20.7 29.3 20.7 20.7 20.8 20.8 29.2 20.8 29.2 29.2 20.8 29.2 20.8 20.8 20.7 20.7"/>
          <polygon id="_242" data-name=" 242" class="cls-50" points="20.7 20.7 29.3 20.7 29.3 29.3 20.7 29.3 20.7 20.7 20.9 20.9 29.1 20.9 29.1 29.1 20.9 29.1 20.9 20.9 20.7 20.7"/>
          <polygon id="_243" data-name=" 243" class="cls-50" points="20.8 20.8 29.2 20.8 29.2 29.2 20.8 29.2 20.8 20.8 21 21 29 21 29 29 21 29 21 21 20.8 20.8"/>
          <polygon id="_244" data-name=" 244" class="cls-50" points="20.9 20.9 29.1 20.9 29.1 29.1 20.9 29.1 20.9 20.9 21 21 29 21 29 29 21 29 21 21 20.9 20.9"/>
          <polygon id="_245" data-name=" 245" class="cls-50" points="21 21 29 21 29 29 21 29 21 21 21.1 21.1 28.9 21.1 28.9 28.9 21.1 28.9 21.1 21.1 21 21"/>
          <polygon id="_246" data-name=" 246" class="cls-50" points="21 21 29 21 29 29 21 29 21 21 21.2 21.2 28.8 21.2 28.8 28.8 21.2 28.8 21.2 21.2 21 21"/>
          <polygon id="_247" data-name=" 247" class="cls-50" points="21.1 21.1 28.9 21.1 28.9 28.9 21.1 28.9 21.1 21.1 21.3 21.3 28.7 21.3 28.7 28.7 21.3 28.7 21.3 21.3 21.1 21.1"/>
          <polygon id="_248" data-name=" 248" class="cls-50" points="21.2 21.2 28.8 21.2 28.8 28.8 21.2 28.8 21.2 21.2 21.3 21.3 28.7 21.3 28.7 28.7 21.3 28.7 21.3 21.3 21.2 21.2"/>
          <polygon id="_249" data-name=" 249" class="cls-50" points="21.3 21.3 28.7 21.3 28.7 28.7 21.3 28.7 21.3 21.3 21.4 21.4 28.6 21.4 28.6 28.6 21.4 28.6 21.4 21.4 21.3 21.3"/>
          <polygon id="_250" data-name=" 250" class="cls-50" points="21.3 21.3 28.7 21.3 28.7 28.7 21.3 28.7 21.3 21.3 21.5 21.5 28.5 21.5 28.5 28.5 21.5 28.5 21.5 21.5 21.3 21.3"/>
          <polygon id="_251" data-name=" 251" class="cls-50" points="21.4 21.4 28.6 21.4 28.6 28.6 21.4 28.6 21.4 21.4 21.5 21.6 28.4 21.6 28.4 28.4 21.5 28.4 21.5 21.6 21.4 21.4"/>
          <polygon id="_252" data-name=" 252" class="cls-50" points="21.5 21.5 28.5 21.5 28.5 28.5 21.5 28.5 21.5 21.5 21.6 21.6 28.4 21.6 28.4 28.4 21.6 28.4 21.6 21.6 21.5 21.5"/>
          <polygon id="_253" data-name=" 253" class="cls-50" points="21.5 21.6 28.4 21.6 28.4 28.4 21.5 28.4 21.5 21.6 21.7 21.7 28.3 21.7 28.3 28.3 21.7 28.3 21.7 21.7 21.5 21.6"/>
          <polygon id="_254" data-name=" 254" class="cls-50" points="21.6 21.6 28.4 21.6 28.4 28.4 21.6 28.4 21.6 21.6 21.8 21.8 28.2 21.8 28.2 28.2 21.8 28.2 21.8 21.8 21.6 21.6"/>
          <polygon id="_255" data-name=" 255" class="cls-50" points="21.7 21.7 28.3 21.7 28.3 28.3 21.7 28.3 21.7 21.7 21.8 21.8 28.1 21.8 28.1 28.2 21.8 28.2 21.8 21.8 21.7 21.7"/>
          <polygon id="_256" data-name=" 256" class="cls-50" points="21.8 21.8 28.2 21.8 28.2 28.2 21.8 28.2 21.8 21.8 21.9 21.9 28.1 21.9 28.1 28.1 21.9 28.1 21.9 21.9 21.8 21.8"/>
          <polygon id="_257" data-name=" 257" class="cls-50" points="21.8 21.8 28.1 21.8 28.1 28.2 21.8 28.2 21.8 21.8 22 22 28 22 28 28 22 28 22 22 21.8 21.8"/>
          <polygon id="_258" data-name=" 258" class="cls-50" points="21.9 21.9 28.1 21.9 28.1 28.1 21.9 28.1 21.9 21.9 22.1 22.1 27.9 22.1 27.9 27.9 22.1 27.9 22.1 22.1 21.9 21.9"/>
          <polygon id="_259" data-name=" 259" class="cls-50" points="22 22 28 22 28 28 22 28 22 22 22.1 22.1 27.9 22.1 27.9 27.9 22.1 27.9 22.1 22.1 22 22"/>
          <polygon id="_260" data-name=" 260" class="cls-50" points="22.1 22.1 27.9 22.1 27.9 27.9 22.1 27.9 22.1 22.1 22.2 22.2 27.8 22.2 27.8 27.8 22.2 27.8 22.2 22.2 22.1 22.1"/>
          <polygon id="_261" data-name=" 261" class="cls-50" points="22.1 22.1 27.9 22.1 27.9 27.9 22.1 27.9 22.1 22.1 22.3 22.3 27.7 22.3 27.7 27.7 22.3 27.7 22.3 22.3 22.1 22.1"/>
          <polygon id="_262" data-name=" 262" class="cls-50" points="22.2 22.2 27.8 22.2 27.8 27.8 22.2 27.8 22.2 22.2 22.4 22.4 27.6 22.4 27.6 27.6 22.4 27.6 22.4 22.4 22.2 22.2"/>
          <polygon id="_263" data-name=" 263" class="cls-50" points="22.3 22.3 27.7 22.3 27.7 27.7 22.3 27.7 22.3 22.3 22.4 22.4 27.6 22.4 27.6 27.6 22.4 27.6 22.4 22.4 22.3 22.3"/>
          <polygon id="_264" data-name=" 264" class="cls-50" points="22.4 22.4 27.6 22.4 27.6 27.6 22.4 27.6 22.4 22.4 22.5 22.5 27.5 22.5 27.5 27.5 22.5 27.5 22.5 22.5 22.4 22.4"/>
          <polygon id="_265" data-name=" 265" class="cls-50" points="22.4 22.4 27.6 22.4 27.6 27.6 22.4 27.6 22.4 22.4 22.6 22.6 27.4 22.6 27.4 27.4 22.6 27.4 22.6 22.6 22.4 22.4"/>
          <polygon id="_266" data-name=" 266" class="cls-50" points="22.5 22.5 27.5 22.5 27.5 27.5 22.5 27.5 22.5 22.5 22.6 22.7 27.3 22.7 27.3 27.4 22.6 27.4 22.6 22.7 22.5 22.5"/>
          <polygon id="_267" data-name=" 267" class="cls-50" points="22.6 22.6 27.4 22.6 27.4 27.4 22.6 27.4 22.6 22.6 22.7 22.7 27.3 22.7 27.3 27.3 22.7 27.3 22.7 22.7 22.6 22.6"/>
          <polygon id="_268" data-name=" 268" class="cls-50" points="22.6 22.7 27.3 22.7 27.3 27.4 22.6 27.4 22.6 22.7 22.8 22.8 27.2 22.8 27.2 27.2 22.8 27.2 22.8 22.8 22.6 22.7"/>
          <polygon id="_269" data-name=" 269" class="cls-50" points="22.7 22.7 27.3 22.7 27.3 27.3 22.7 27.3 22.7 22.7 22.9 22.9 27.1 22.9 27.1 27.1 22.9 27.1 22.9 22.9 22.7 22.7"/>
          <polygon id="_270" data-name=" 270" class="cls-50" points="22.8 22.8 27.2 22.8 27.2 27.2 22.8 27.2 22.8 22.8 22.9 22.9 27 22.9 27 27.1 22.9 27.1 22.9 22.9 22.8 22.8"/>
          <polygon id="_271" data-name=" 271" class="cls-50" points="22.9 22.9 27.1 22.9 27.1 27.1 22.9 27.1 22.9 22.9 23 23 27 23 27 27 23 27 23 23 22.9 22.9"/>
          <polygon id="_272" data-name=" 272" class="cls-50" points="22.9 22.9 27 22.9 27 27.1 22.9 27.1 22.9 22.9 23.1 23.1 26.9 23.1 26.9 26.9 23.1 26.9 23.1 23.1 22.9 22.9"/>
          <polygon id="_273" data-name=" 273" class="cls-50" points="23 23 27 23 27 27 23 27 23 23 23.2 23.2 26.8 23.2 26.8 26.8 23.2 26.8 23.2 23.2 23 23"/>
          <polygon id="_274" data-name=" 274" class="cls-50" points="23.1 23.1 26.9 23.1 26.9 26.9 23.1 26.9 23.1 23.1 23.2 23.2 26.8 23.2 26.8 26.8 23.2 26.8 23.2 23.2 23.1 23.1"/>
          <polygon id="_275" data-name=" 275" class="cls-50" points="23.2 23.2 26.8 23.2 26.8 26.8 23.2 26.8 23.2 23.2 23.3 23.3 26.7 23.3 26.7 26.7 23.3 26.7 23.3 23.3 23.2 23.2"/>
          <polygon id="_276" data-name=" 276" class="cls-50" points="23.2 23.2 26.8 23.2 26.8 26.8 23.2 26.8 23.2 23.2 23.4 23.4 26.6 23.4 26.6 26.6 23.4 26.6 23.4 23.4 23.2 23.2"/>
          <polygon id="_277" data-name=" 277" class="cls-50" points="23.3 23.3 26.7 23.3 26.7 26.7 23.3 26.7 23.3 23.3 23.5 23.5 26.5 23.5 26.5 26.5 23.5 26.5 23.5 23.5 23.3 23.3"/>
          <polygon id="_278" data-name=" 278" class="cls-50" points="23.4 23.4 26.6 23.4 26.6 26.6 23.4 26.6 23.4 23.4 23.5 23.5 26.5 23.5 26.5 26.5 23.5 26.5 23.5 23.5 23.4 23.4"/>
          <polygon id="_279" data-name=" 279" class="cls-50" points="23.5 23.5 26.5 23.5 26.5 26.5 23.5 26.5 23.5 23.5 23.6 23.6 26.4 23.6 26.4 26.4 23.6 26.4 23.6 23.6 23.5 23.5"/>
          <polygon id="_280" data-name=" 280" class="cls-50" points="23.5 23.5 26.5 23.5 26.5 26.5 23.5 26.5 23.5 23.5 23.7 23.7 26.3 23.7 26.3 26.3 23.7 26.3 23.7 23.7 23.5 23.5"/>
          <polygon id="_281" data-name=" 281" class="cls-50" points="23.6 23.6 26.4 23.6 26.4 26.4 23.6 26.4 23.6 23.6 23.8 23.8 26.2 23.8 26.2 26.3 23.8 26.3 23.8 23.8 23.6 23.6"/>
          <polygon id="_282" data-name=" 282" class="cls-50" points="23.7 23.7 26.3 23.7 26.3 26.3 23.7 26.3 23.7 23.7 23.8 23.8 26.2 23.8 26.2 26.2 23.8 26.2 23.8 23.8 23.7 23.7"/>
          <polygon id="_283" data-name=" 283" class="cls-50" points="23.8 23.8 26.2 23.8 26.2 26.3 23.8 26.3 23.8 23.8 23.9 23.9 26.1 23.9 26.1 26.1 23.9 26.1 23.9 23.9 23.8 23.8"/>
          <polygon id="_284" data-name=" 284" class="cls-50" points="23.8 23.8 26.2 23.8 26.2 26.2 23.8 26.2 23.8 23.8 24 24 26 24 26 26 24 26 24 24 23.8 23.8"/>
          <polygon id="_285" data-name=" 285" class="cls-50" points="23.9 23.9 26.1 23.9 26.1 26.1 23.9 26.1 23.9 23.9 24 24 26 24 26 26 24 26 24 24 23.9 23.9"/>
          <polygon id="_286" data-name=" 286" class="cls-50" points="24 24 26 24 26 26 24 26 24 24 24.1 24.1 25.9 24.1 25.9 25.9 24.1 25.9 24.1 24.1 24 24"/>
          <polygon id="_287" data-name=" 287" class="cls-50" points="24 24 26 24 26 26 24 26 24 24 24.2 24.2 25.8 24.2 25.8 25.8 24.2 25.8 24.2 24.2 24 24"/>
          <polygon id="_288" data-name=" 288" class="cls-50" points="24.1 24.1 25.9 24.1 25.9 25.9 24.1 25.9 24.1 24.1 24.3 24.3 25.7 24.3 25.7 25.7 24.3 25.7 24.3 24.3 24.1 24.1"/>
          <polygon id="_289" data-name=" 289" class="cls-50" points="24.2 24.2 25.8 24.2 25.8 25.8 24.2 25.8 24.2 24.2 24.3 24.3 25.7 24.3 25.7 25.7 24.3 25.7 24.3 24.3 24.2 24.2"/>
          <polygon id="_290" data-name=" 290" class="cls-50" points="24.3 24.3 25.7 24.3 25.7 25.7 24.3 25.7 24.3 24.3 24.4 24.4 25.6 24.4 25.6 25.6 24.4 25.6 24.4 24.4 24.3 24.3"/>
          <polygon id="_291" data-name=" 291" class="cls-50" points="24.3 24.3 25.7 24.3 25.7 25.7 24.3 25.7 24.3 24.3 24.5 24.5 25.5 24.5 25.5 25.5 24.5 25.5 24.5 24.5 24.3 24.3"/>
          <polygon id="_292" data-name=" 292" class="cls-50" points="24.4 24.4 25.6 24.4 25.6 25.6 24.4 25.6 24.4 24.4 24.6 24.6 25.4 24.6 25.4 25.4 24.6 25.4 24.6 24.6 24.4 24.4"/>
          <polygon id="_293" data-name=" 293" class="cls-50" points="24.5 24.5 25.5 24.5 25.5 25.5 24.5 25.5 24.5 24.5 24.6 24.6 25.4 24.6 25.4 25.4 24.6 25.4 24.6 24.6 24.5 24.5"/>
          <polygon id="_294" data-name=" 294" class="cls-50" points="24.6 24.6 25.4 24.6 25.4 25.4 24.6 25.4 24.6 24.6 24.7 24.7 25.3 24.7 25.3 25.3 24.7 25.3 24.7 24.7 24.6 24.6"/>
          <polygon id="_295" data-name=" 295" class="cls-50" points="24.6 24.6 25.4 24.6 25.4 25.4 24.6 25.4 24.6 24.6 24.8 24.8 25.2 24.8 25.2 25.2 24.8 25.2 24.8 24.8 24.6 24.6"/>
          <polygon id="_296" data-name=" 296" class="cls-50" points="24.7 24.7 25.3 24.7 25.3 25.3 24.7 25.3 24.7 24.7 24.9 24.9 25.1 24.9 25.1 25.1 24.9 25.1 24.9 24.9 24.7 24.7"/>
          <polygon id="_297" data-name=" 297" class="cls-50" points="24.8 24.8 25.2 24.8 25.2 25.2 24.8 25.2 24.8 24.8 24.9 24.9 25.1 24.9 25.1 25.1 24.9 25.1 24.9 24.9 24.8 24.8"/>
          <polygon id="_298" data-name=" 298" class="cls-50" points="24.9 24.9 25.1 24.9 25.1 25.1 24.9 25.1 24.9 24.9 25 25 25 25 25 25 25 25 25 25 24.9 24.9"/>
          <polygon id="_299" data-name=" 299" class="cls-50" points="24.9 24.9 25.1 24.9 25.1 25.1 24.9 25.1 24.9 24.9"/>
        </g>
        <path class="cls-1" d="M7.8,47H42.2A4.8,4.8,0,0,0,47,42.2V7.8A4.8,4.8,0,0,0,42.2,3H7.8A4.8,4.8,0,0,0,3,7.8V42.2A4.8,4.8,0,0,0,7.8,47Z"/>
      </g>
    </g>
  </g>
  <rect class="cls-51" x="18.7" y="33.8" width="12.7" height="1.57"/>
  <path class="cls-52" d="M24.1,21.3h1.7a4.6,4.6,0,0,1,4.6,4.6v7.9a0,0,0,0,1,0,0H19.5a0,0,0,0,1,0,0V25.9A4.6,4.6,0,0,1,24.1,21.3Z"/>
  <rect class="cls-53" x="27.3" y="35.4" width="0.8" height="7.49"/>
  <rect class="cls-54" x="22" y="35.4" width="0.8" height="7.49"/>
  <circle class="cls-55" cx="14.1" cy="13.6" r="4.8"/>
  <circle class="cls-56" cx="25" cy="13.6" r="4.8"/>
  <circle class="cls-57" cx="35.9" cy="13.6" r="4.8"/>
  <path d="M12.3,11.4h1.4a2.3,2.3,0,0,1,1.5.4,1.2,1.2,0,0,1,.4,1,1.2,1.2,0,0,1-.8,1.1h0a1.2,1.2,0,0,1,.6.9c.1.5.3,1.1.4,1.3H14.7a5.7,5.7,0,0,1-.3-1.1c-.1-.6-.3-.7-.7-.7h-.3v1.8h-1Zm1,2h.4c.5,0,.8-.3.8-.7s-.3-.6-.8-.6h-.5Z"/>
  <path d="M27,15.7a5.1,5.1,0,0,1-1.5.3,2.6,2.6,0,0,1-1.9-.6,2.2,2.2,0,0,1-.6-1.7,2.4,2.4,0,0,1,2.6-2.4,3.2,3.2,0,0,1,1.3.2l-.2.8-1.1-.2a1.4,1.4,0,0,0-1.5,1.5,1.4,1.4,0,0,0,1.4,1.5H26v-1h-.7v-.8H27Z"/>
  <path d="M34.2,11.4h1.3a2.5,2.5,0,0,1,1.4.3,1,1,0,0,1,.6.9,1,1,0,0,1-.8,1h0a1.1,1.1,0,0,1,.9,1.1,1.2,1.2,0,0,1-.5,1,2.9,2.9,0,0,1-1.8.4H34.2Zm1,1.8h.3c.5,0,.8-.2.8-.6s-.3-.5-.7-.5h-.4Zm0,2h.4c.5,0,.9-.2.9-.7s-.4-.6-.9-.6h-.4Z"/>
</svg>
