<?xml version="1.0"?>
<svg xmlns="http://www.w3.org/2000/svg" xmlns:xlink="http://www.w3.org/1999/xlink" id="&#x421;&#x43B;&#x43E;&#x439;_1" data-name="&#x421;&#x43B;&#x43E;&#x439; 1" viewBox="0 0 50 50">
  <defs>
    <style type="text/css">.cls-1{fill:#bc0f0f;}.cls-2{fill:#bd0f0f;}.cls-3{fill:#be1010;}.cls-4{fill:#bf1010;}.cls-5{fill:#c01111;}.cls-6{fill:#c11111;}.cls-7{fill:#c21212;}.cls-8{fill:#c31212;}.cls-9{fill:#c41313;}.cls-10{fill:#c51313;}.cls-11{fill:#c61414;}.cls-12{fill:#c71414;}.cls-13{fill:#c81515;}.cls-14{fill:#c91515;}.cls-15{fill:#ca1616;}.cls-16{fill:#cb1616;}.cls-17{fill:#cc1717;}.cls-18{fill:#cd1717;}.cls-19{fill:#ce1818;}.cls-20{fill:#cf1818;}.cls-21{fill:#d01919;}.cls-22{fill:#d11919;}.cls-23{fill:#d21a1a;}.cls-24{fill:#d31a1a;}.cls-25{fill:#d41b1b;}.cls-26{fill:#d51b1b;}.cls-27{fill:#d61c1c;}.cls-28{fill:#d71c1c;}.cls-29{fill:#d81d1d;}.cls-30{fill:#d91d1d;}.cls-31{fill:#da1e1e;}.cls-32{fill:#db1e1e;}.cls-33{fill:#dc1f1f;}.cls-34{fill:#dd1f1f;}.cls-35{fill:#de2020;}.cls-36{fill:#df2020;}.cls-37{fill:#e02121;}.cls-38{fill:#e12121;}.cls-39{fill:#e22222;}.cls-40{fill:#e32222;}.cls-41{fill:#e42323;}.cls-42{fill:#e52323;}.cls-43{fill:#e62424;}.cls-44{fill:#e72424;}.cls-45{fill:#e82525;}.cls-46{fill:#e92525;}.cls-47{fill:#ea2626;}.cls-48{fill:#eb2626;}.cls-49{fill:#ec2727;}.cls-50{fill:#ed2727;}.cls-51{fill:#ee2828;}.cls-52{fill:#ef2828;}.cls-53{fill:#f02929;}.cls-54{fill:#f12929;}.cls-55{fill:#f22a2a;}.cls-56{fill:#f32a2a;}.cls-57{fill:#f42b2b;}.cls-58{fill:#f52b2b;}.cls-59{fill:#f62c2c;}.cls-60{fill:#f72c2c;}.cls-61{fill:#f82d2d;}.cls-62{fill:#f92d2d;}.cls-63{fill:#fa2e2e;}.cls-64{fill:#fb2e2e;}.cls-65{fill:#fc2f2f;}.cls-66{fill:#fd2f2f;}.cls-67{fill:#fe3030;}.cls-68{fill:#ff3030;}.cls-69{font-size:9.08px;font-family:MyriadPro-Bold, Myriad Pro;}.cls-70,.cls-71{font-weight:700;}.cls-70{letter-spacing:0.01em;}.cls-71{letter-spacing:-0.02em;}.cls-72{font-size:6.05px;font-family:MyriadPro-Regular, Myriad Pro;}.cls-73{fill:url(#&#x411;&#x435;&#x437;&#x44B;&#x43C;&#x44F;&#x43D;&#x43D;&#x44B;&#x439;_&#x433;&#x440;&#x430;&#x434;&#x438;&#x435;&#x43D;&#x442;_405);}.cls-74{fill:url(#&#x411;&#x435;&#x437;&#x44B;&#x43C;&#x44F;&#x43D;&#x43D;&#x44B;&#x439;_&#x433;&#x440;&#x430;&#x434;&#x438;&#x435;&#x43D;&#x442;_333);}.cls-75{fill:url(#&#x411;&#x435;&#x437;&#x44B;&#x43C;&#x44F;&#x43D;&#x43D;&#x44B;&#x439;_&#x433;&#x440;&#x430;&#x434;&#x438;&#x435;&#x43D;&#x442;_426);}.cls-76{fill:url(#&#x411;&#x435;&#x437;&#x44B;&#x43C;&#x44F;&#x43D;&#x43D;&#x44B;&#x439;_&#x433;&#x440;&#x430;&#x434;&#x438;&#x435;&#x43D;&#x442;_377);}.cls-77{fill:url(#New_Gradient_Swatch_8);}.cls-78{fill:url(#New_Gradient_Swatch_7);}</style>
    <linearGradient id="&#x411;&#x435;&#x437;&#x44B;&#x43C;&#x44F;&#x43D;&#x43D;&#x44B;&#x439;_&#x433;&#x440;&#x430;&#x434;&#x438;&#x435;&#x43D;&#x442;_405" x1="-35.32" y1="156.67" x2="-30.2" y2="156.67" gradientTransform="matrix(0.71, -0.71, 0.81, 0.8, -85.65, -136.5)" gradientUnits="userSpaceOnUse">
      <stop offset="0.03" stop-color="#a6a8ab"/>
      <stop offset="0.18" stop-color="#b5b6b9"/>
      <stop offset="0.3" stop-color="#c4c5c7"/>
      <stop offset="0.44" stop-color="#b5b7b9"/>
      <stop offset="0.56" stop-color="#a6a8ab"/>
      <stop offset="1" stop-color="#d0d2d3"/>
      <stop offset="1" stop-color="#a6a8ab"/>
    </linearGradient>
    <linearGradient id="&#x411;&#x435;&#x437;&#x44B;&#x43C;&#x44F;&#x43D;&#x43D;&#x44B;&#x439;_&#x433;&#x440;&#x430;&#x434;&#x438;&#x435;&#x43D;&#x442;_333" x1="14.83" y1="196.56" x2="9.71" y2="196.55" gradientTransform="matrix(-0.71, -0.71, -0.81, 0.8, 199.16, -136.48)" gradientUnits="userSpaceOnUse">
      <stop offset="0.03" stop-color="#a6a8ab"/>
      <stop offset="0.16" stop-color="#b5b6b9"/>
      <stop offset="0.27" stop-color="#c4c5c7"/>
      <stop offset="0.44" stop-color="#b5b7b9"/>
      <stop offset="0.58" stop-color="#a6a8ab"/>
      <stop offset="1" stop-color="#d0d2d3"/>
      <stop offset="1" stop-color="#a6a8ab"/>
    </linearGradient>
    <linearGradient id="&#x411;&#x435;&#x437;&#x44B;&#x43C;&#x44F;&#x43D;&#x43D;&#x44B;&#x439;_&#x433;&#x440;&#x430;&#x434;&#x438;&#x435;&#x43D;&#x442;_426" x1="93.38" y1="127.05" x2="88.27" y2="127.04" gradientTransform="matrix(-0.71, 0.71, -0.8, -0.8, 197.88, 64.18)" gradientUnits="userSpaceOnUse">
      <stop offset="0.03" stop-color="#a6a8ab"/>
      <stop offset="0.17" stop-color="#b5b6b9"/>
      <stop offset="0.28" stop-color="#c4c5c7"/>
      <stop offset="0.45" stop-color="#b5b7b9"/>
      <stop offset="0.6" stop-color="#a6a8ab"/>
      <stop offset="1" stop-color="#d0d2d3"/>
      <stop offset="1" stop-color="#a6a8ab"/>
    </linearGradient>
    <linearGradient id="&#x411;&#x435;&#x437;&#x44B;&#x43C;&#x44F;&#x43D;&#x43D;&#x44B;&#x439;_&#x433;&#x440;&#x430;&#x434;&#x438;&#x435;&#x43D;&#x442;_377" x1="22.94" y1="68.95" x2="28.06" y2="68.95" gradientTransform="matrix(0.71, 0.71, 0.8, -0.8, -55.42, 64.18)" gradientUnits="userSpaceOnUse">
      <stop offset="0.03" stop-color="#a6a8ab"/>
      <stop offset="0.18" stop-color="#b5b6b9"/>
      <stop offset="0.29" stop-color="#c4c5c7"/>
      <stop offset="0.44" stop-color="#b5b7b9"/>
      <stop offset="0.56" stop-color="#a6a8ab"/>
      <stop offset="1" stop-color="#d0d2d3"/>
      <stop offset="1" stop-color="#a6a8ab"/>
    </linearGradient>
    <linearGradient id="New_Gradient_Swatch_8" x1="-1019.73" y1="24.19" x2="-1019.73" y2="15.97" gradientTransform="matrix(-1, 0, 0, 1, -994.74, 0)" gradientUnits="userSpaceOnUse">
      <stop offset="0" stop-color="#020202"/>
      <stop offset="0.23" stop-color="#0f0f10"/>
      <stop offset="0.5" stop-color="#020202"/>
      <stop offset="0.5" stop-color="#414141"/>
      <stop offset="0.75" stop-color="#616262"/>
      <stop offset="1" stop-color="#414141"/>
    </linearGradient>
    <linearGradient id="New_Gradient_Swatch_7" x1="-1019.73" y1="22.23" x2="-1019.73" y2="17.93" gradientTransform="matrix(-1, 0, 0, 1, -994.74, 0)" gradientUnits="userSpaceOnUse">
      <stop offset="0" stop-color="#0a1e27"/>
      <stop offset="0.52" stop-color="#6d7981"/>
      <stop offset="1" stop-color="#b2bac5"/>
    </linearGradient>
  </defs>
  <title>&#x411;&#x435;&#x437; &#x43D;&#x430;&#x437;&#x432;&#x430;&#x43D;&#x438;&#x44F; (1)</title>
  <path class="cls-1" d="M7.1,0H42.9A7.1,7.1,0,0,1,50,7.1V42.9A7.1,7.1,0,0,1,42.9,50H7.1A7.1,7.1,0,0,1,0,42.9V7.1A7.1,7.1,0,0,1,7.1,0Z"/>
  <rect class="cls-2" x="0.1" y="0.1" width="49.8" height="49.78" rx="7.1" ry="7.1"/>
  <rect class="cls-3" x="0.2" y="0.2" width="49.6" height="49.57" rx="7" ry="7"/>
  <rect class="cls-4" x="0.3" y="0.3" width="49.4" height="49.35" rx="7" ry="7"/>
  <rect class="cls-5" x="0.4" y="0.4" width="49.1" height="49.13" rx="7" ry="7"/>
  <rect class="cls-6" x="0.5" y="0.5" width="48.9" height="48.92" rx="7" ry="7"/>
  <rect class="cls-7" x="0.6" y="0.6" width="48.7" height="48.7" rx="6.9" ry="6.9"/>
  <rect class="cls-8" x="0.8" y="0.8" width="48.5" height="48.48" rx="6.9" ry="6.9"/>
  <rect class="cls-9" x="0.9" y="0.9" width="48.3" height="48.27" rx="6.9" ry="6.9"/>
  <rect class="cls-10" x="1" y="1" width="48.1" height="48.05" rx="6.8" ry="6.8"/>
  <rect class="cls-11" x="1.1" y="1.1" width="47.8" height="47.84" rx="6.8" ry="6.8"/>
  <rect class="cls-12" x="1.2" y="1.2" width="47.6" height="47.62" rx="6.8" ry="6.8"/>
  <rect class="cls-13" x="1.3" y="1.3" width="47.4" height="47.4" rx="6.7" ry="6.7"/>
  <rect class="cls-14" x="1.4" y="1.4" width="47.2" height="47.19" rx="6.7" ry="6.7"/>
  <rect class="cls-15" x="1.5" y="1.5" width="47" height="46.97" rx="6.7" ry="6.7"/>
  <rect class="cls-16" x="1.6" y="1.6" width="46.8" height="46.75" rx="6.6" ry="6.6"/>
  <rect class="cls-17" x="1.7" y="1.7" width="46.5" height="46.54" rx="6.6" ry="6.6"/>
  <rect class="cls-18" x="1.8" y="1.8" width="46.3" height="46.32" rx="6.6" ry="6.6"/>
  <rect class="cls-19" x="1.9" y="1.9" width="46.1" height="46.1" rx="6.6" ry="6.6"/>
  <rect class="cls-20" x="2.1" y="2.1" width="45.9" height="45.89" rx="6.5" ry="6.5"/>
  <rect class="cls-21" x="2.2" y="2.2" width="45.7" height="45.67" rx="6.5" ry="6.5"/>
  <rect class="cls-22" x="2.3" y="2.3" width="45.5" height="45.45" rx="6.5" ry="6.5"/>
  <rect class="cls-23" x="2.4" y="2.4" width="45.2" height="45.24" rx="6.4" ry="6.4"/>
  <rect class="cls-24" x="2.5" y="2.5" width="45" height="45.02" rx="6.4" ry="6.4"/>
  <rect class="cls-25" x="2.6" y="2.6" width="44.8" height="44.8" rx="6.4" ry="6.4"/>
  <rect class="cls-26" x="2.7" y="2.7" width="44.6" height="44.59" rx="6.3" ry="6.3"/>
  <rect class="cls-27" x="2.8" y="2.8" width="44.4" height="44.37" rx="6.3" ry="6.3"/>
  <rect class="cls-28" x="2.9" y="2.9" width="44.2" height="44.15" rx="6.3" ry="6.3"/>
  <rect class="cls-29" x="3" y="3" width="43.9" height="43.94" rx="6.2" ry="6.2"/>
  <rect class="cls-30" x="3.1" y="3.1" width="43.7" height="43.72" rx="6.2" ry="6.2"/>
  <rect class="cls-31" x="3.2" y="3.2" width="43.5" height="43.51" rx="6.2" ry="6.2"/>
  <rect class="cls-32" x="3.4" y="3.4" width="43.3" height="43.29" rx="6.2" ry="6.2"/>
  <rect class="cls-33" x="3.5" y="3.5" width="43.1" height="43.07" rx="6.1" ry="6.1"/>
  <rect class="cls-34" x="3.6" y="3.6" width="42.9" height="42.86" rx="6.1" ry="6.1"/>
  <rect class="cls-34" x="3.7" y="3.7" width="42.6" height="42.64" rx="6.1" ry="6.1"/>
  <rect class="cls-35" x="3.8" y="3.8" width="42.4" height="42.42" rx="6" ry="6"/>
  <rect class="cls-36" x="3.9" y="3.9" width="42.2" height="42.21" rx="6" ry="6"/>
  <rect class="cls-37" x="4" y="4" width="42" height="41.99" rx="6" ry="6"/>
  <rect class="cls-38" x="4.1" y="4.1" width="41.8" height="41.77" rx="5.9" ry="5.9"/>
  <rect class="cls-39" x="4.2" y="4.2" width="41.6" height="41.56" rx="5.9" ry="5.9"/>
  <rect class="cls-40" x="4.3" y="4.3" width="41.3" height="41.34" rx="5.9" ry="5.9"/>
  <rect class="cls-41" x="4.4" y="4.4" width="41.1" height="41.12" rx="5.8" ry="5.8"/>
  <rect class="cls-42" x="4.5" y="4.5" width="40.9" height="40.91" rx="5.8" ry="5.8"/>
  <rect class="cls-43" x="4.7" y="4.7" width="40.7" height="40.69" rx="5.8" ry="5.8"/>
  <rect class="cls-44" x="4.8" y="4.8" width="40.5" height="40.47" rx="5.8" ry="5.8"/>
  <rect class="cls-45" x="4.9" y="4.9" width="40.3" height="40.26" rx="5.7" ry="5.7"/>
  <rect class="cls-46" x="5" y="5" width="40" height="40.04" rx="5.7" ry="5.7"/>
  <rect class="cls-47" x="5.1" y="5.1" width="39.8" height="39.82" rx="5.7" ry="5.7"/>
  <rect class="cls-48" x="5.2" y="5.2" width="39.6" height="39.61" rx="5.6" ry="5.6"/>
  <rect class="cls-49" x="5.3" y="5.3" width="39.4" height="39.39" rx="5.6" ry="5.6"/>
  <rect class="cls-50" x="5.4" y="5.4" width="39.2" height="39.18" rx="5.6" ry="5.6"/>
  <rect class="cls-51" x="5.5" y="5.5" width="39" height="38.96" rx="5.5" ry="5.5"/>
  <rect class="cls-52" x="5.6" y="5.6" width="38.7" height="38.74" rx="5.5" ry="5.5"/>
  <rect class="cls-53" x="5.7" y="5.7" width="38.5" height="38.53" rx="5.5" ry="5.5"/>
  <rect class="cls-54" x="5.8" y="5.8" width="38.3" height="38.31" rx="5.4" ry="5.4"/>
  <rect class="cls-55" x="6" y="6" width="38.1" height="38.09" rx="5.4" ry="5.4"/>
  <rect class="cls-56" x="6.1" y="6.1" width="37.9" height="37.88" rx="5.4" ry="5.4"/>
  <rect class="cls-57" x="6.2" y="6.2" width="37.7" height="37.66" rx="5.4" ry="5.4"/>
  <rect class="cls-58" x="6.3" y="6.3" width="37.4" height="37.44" rx="5.3" ry="5.3"/>
  <rect class="cls-59" x="6.4" y="6.4" width="37.2" height="37.23" rx="5.3" ry="5.3"/>
  <rect class="cls-60" x="6.5" y="6.5" width="37" height="37.01" rx="5.3" ry="5.3"/>
  <rect class="cls-61" x="6.6" y="6.6" width="36.8" height="36.79" rx="5.2" ry="5.2"/>
  <rect class="cls-62" x="6.7" y="6.7" width="36.6" height="36.58" rx="5.2" ry="5.2"/>
  <rect class="cls-63" x="6.8" y="6.8" width="36.4" height="36.36" rx="5.2" ry="5.2"/>
  <rect class="cls-64" x="6.9" y="6.9" width="36.1" height="36.14" rx="5.1" ry="5.1"/>
  <rect class="cls-65" x="7" y="7" width="35.9" height="35.93" rx="5.1" ry="5.1"/>
  <rect class="cls-66" x="7.1" y="7.1" width="35.7" height="35.71" rx="5.1" ry="5.1"/>
  <rect class="cls-67" x="7.3" y="7.3" width="35.5" height="35.5" rx="5" ry="5"/>
  <path class="cls-68" d="M12.4,7.4H37.6a5,5,0,0,1,5,5V37.6a5,5,0,0,1-5,5H12.4a5,5,0,0,1-5-5V12.4A5,5,0,0,1,12.4,7.4Z"/>
  <text class="cls-69" transform="translate(13.6 43.2)">
    <tspan class="cls-70">S</tspan>
    <tspan class="cls-71" x="5" y="0">T</tspan>
    <tspan class="cls-70" x="9.8" y="0">OP</tspan>
    <tspan class="cls-72" x="21.8" y="0"> </tspan>
  </text>
  <path class="cls-73" d="M17,8.5l-.4-.4h0a2.7,2.7,0,0,0-3.4.1,2.8,2.8,0,0,0,.3,3.9,9.8,9.8,0,0,0,1.5,1.1l2.9,2.2,2.4,1.8,1.3,1h0l1.7-1.6L17.3,8.8h0Z"/>
  <path class="cls-74" d="M33,8.5l.4-.4h0a2.7,2.7,0,0,1,3.4.1,2.8,2.8,0,0,1-.3,3.9,9.8,9.8,0,0,1-1.5,1.1l-2.9,2.2-2.4,1.8-1.3.9h0l-1.7-1.6,5.8-7.7h0Z"/>
  <path class="cls-75" d="M33,31.6l.4.4h0a2.7,2.7,0,0,0,3.4-.1,2.7,2.7,0,0,0-.2-3.9,9.6,9.6,0,0,0-1.5-1.1l-2.9-2.2-2.4-1.8L28.6,22h0l-1.7,1.6,5.8,7.7h0Z"/>
  <path class="cls-76" d="M17,31.6l-.4.4h0a2.7,2.7,0,0,1-3.4-.1,2.7,2.7,0,0,1,.2-3.9,9.6,9.6,0,0,1,1.5-1.1l2.9-2.2,2.4-1.8,1.2-.9h0L23,23.6l-5.8,7.7h0Z"/>
  <circle class="cls-77" cx="25" cy="20.1" r="4.1"/>
  <circle class="cls-78" cx="25" cy="20.1" r="2.2"/>
</svg>
