<?xml version="1.0"?>
<svg xmlns="http://www.w3.org/2000/svg" xmlns:xlink="http://www.w3.org/1999/xlink" id="&#x421;&#x43B;&#x43E;&#x439;_1" data-name="&#x421;&#x43B;&#x43E;&#x439; 1" viewBox="0 0 50 50">
  <defs>
    <style type="text/css">.cls-1{fill:none;}.cls-2{fill:#d1c313;}.cls-3{clip-path:url(#clip-path);}.cls-4{fill:#d2c413;}.cls-5{fill:#d3c513;}.cls-6{fill:#d5c712;}.cls-7{fill:#d6c812;}.cls-8{fill:#d7c912;}.cls-9{fill:#dacb11;}.cls-10{fill:#dbcc11;}.cls-11{fill:#dccd10;}.cls-12{fill:#decf10;}.cls-13{fill:#dfd010;}.cls-14{fill:#e0d10f;}.cls-15{fill:#e3d30f;}.cls-16{fill:#e4d40e;}.cls-17{fill:#e5d60e;}.cls-18{fill:#e7d80d;}.cls-19{fill:#e8d90d;}.cls-20{fill:#eada0d;}.cls-21{fill:#ecdc0c;}.cls-22{fill:#eddd0c;}.cls-23{fill:#eede0c;}.cls-24{fill:#f0e00b;}.cls-25{fill:#f2e10b;}.cls-26{fill:#f3e20a;}.cls-27{fill:#f5e40a;}.cls-28{fill:#f6e509;}.cls-29{fill:#f7e609;}.cls-30{fill:#fae908;}.cls-31{fill:#00aa07;}.cls-32{fill:url(#&#x411;&#x435;&#x437;&#x44B;&#x43C;&#x44F;&#x43D;&#x43D;&#x44B;&#x439;_&#x433;&#x440;&#x430;&#x434;&#x438;&#x435;&#x43D;&#x442;_291);}.cls-33{fill:url(#&#x411;&#x435;&#x437;&#x44B;&#x43C;&#x44F;&#x43D;&#x43D;&#x44B;&#x439;_&#x433;&#x440;&#x430;&#x434;&#x438;&#x435;&#x43D;&#x442;_4);}</style>
    <clipPath id="clip-path">
      <rect id="SVGID" class="cls-1" x="3" y="3" width="44" height="44.02" rx="4.8" ry="4.8"/>
    </clipPath>
    <linearGradient id="&#x411;&#x435;&#x437;&#x44B;&#x43C;&#x44F;&#x43D;&#x43D;&#x44B;&#x439;_&#x433;&#x440;&#x430;&#x434;&#x438;&#x435;&#x43D;&#x442;_291" x1="32.29" y1="19.1" x2="32.71" y2="19.1" gradientUnits="userSpaceOnUse">
      <stop offset="0" stop-color="#0a1e27"/>
      <stop offset="0.52" stop-color="#6d7981"/>
      <stop offset="1" stop-color="#b2bac5"/>
    </linearGradient>
    <linearGradient id="&#x411;&#x435;&#x437;&#x44B;&#x43C;&#x44F;&#x43D;&#x43D;&#x44B;&#x439;_&#x433;&#x440;&#x430;&#x434;&#x438;&#x435;&#x43D;&#x442;_4" x1="32.29" y1="17.19" x2="38.39" y2="17.19" gradientUnits="userSpaceOnUse">
      <stop offset="0" stop-color="red"/>
      <stop offset="1" stop-color="#b00202"/>
    </linearGradient>
  </defs>
  <title>&#x411;&#x435;&#x437; &#x43D;&#x430;&#x437;&#x432;&#x430;&#x43D;&#x438;&#x44F; (1)</title>
  <g id="Layer_1">
    <g id="_285119680" data-name=" 285119680">
      <rect class="cls-2" width="50" height="50" rx="7.1" ry="7.1"/>
      <g class="cls-3">
        <polygon class="cls-2" points="3 3 47 3 47 47 3 47 3 3 3.3 3.3 46.7 3.3 46.7 46.7 3.3 46.7 3.3 3.3 3 3"/>
        <polygon id="_1" data-name="1" class="cls-4" points="3.1 3.1 46.9 3.1 46.9 46.9 3.1 46.9 3.1 3.1 3.4 3.4 46.6 3.4 46.6 46.6 3.4 46.6 3.4 3.4 3.1 3.1"/>
        <polygon id="_2" data-name="2" class="cls-5" points="3.3 3.3 46.7 3.3 46.7 46.7 3.3 46.7 3.3 3.3 3.6 3.6 46.4 3.6 46.4 46.4 3.6 46.4 3.6 3.6 3.3 3.3"/>
        <polygon id="_3" data-name="3" class="cls-6" points="3.4 3.4 46.6 3.4 46.6 46.6 3.4 46.6 3.4 3.4 3.7 3.7 46.3 3.7 46.3 46.3 3.7 46.3 3.7 3.7 3.4 3.4"/>
        <polygon id="_4" data-name="4" class="cls-7" points="3.6 3.6 46.4 3.6 46.4 46.4 3.6 46.4 3.6 3.6 3.9 3.9 46.1 3.9 46.1 46.1 3.9 46.1 3.9 3.9 3.6 3.6"/>
        <polygon id="_5" data-name="5" class="cls-8" points="3.7 3.7 46.3 3.7 46.3 46.3 3.7 46.3 3.7 3.7 4 4 46 4 46 46 4 46 4 4 3.7 3.7"/>
        <polygon id="_6" data-name="6" class="cls-9" points="3.9 3.9 46.1 3.9 46.1 46.1 3.9 46.1 3.9 3.9 4.2 4.2 45.8 4.2 45.8 45.8 4.2 45.8 4.2 4.2 3.9 3.9"/>
        <polygon id="_7" data-name="7" class="cls-10" points="4 4 46 4 46 46 4 46 4 4 4.3 4.3 45.7 4.3 45.7 45.7 4.3 45.7 4.3 4.3 4 4"/>
        <polygon id="_8" data-name="8" class="cls-11" points="4.2 4.2 45.8 4.2 45.8 45.8 4.2 45.8 4.2 4.2 4.5 4.5 45.5 4.5 45.5 45.5 4.5 45.5 4.5 4.5 4.2 4.2"/>
        <polygon id="_9" data-name="9" class="cls-12" points="4.3 4.3 45.7 4.3 45.7 45.7 4.3 45.7 4.3 4.3 4.6 4.6 45.4 4.6 45.4 45.4 4.6 45.4 4.6 4.6 4.3 4.3"/>
        <polygon id="_10" data-name="10" class="cls-13" points="4.5 4.5 45.5 4.5 45.5 45.5 4.5 45.5 4.5 4.5 4.8 4.8 45.3 4.8 45.3 45.3 4.8 45.3 4.8 4.8 4.5 4.5"/>
        <polygon id="_11" data-name="11" class="cls-14" points="4.6 4.6 45.4 4.6 45.4 45.4 4.6 45.4 4.6 4.6 4.9 4.9 45.1 4.9 45.1 45.1 4.9 45.1 4.9 4.9 4.6 4.6"/>
        <polygon id="_12" data-name="12" class="cls-15" points="4.8 4.8 45.3 4.8 45.3 45.3 4.8 45.3 4.8 4.8 5 5 45 5 45 45 5 45 5 5 4.8 4.8"/>
        <polygon id="_13" data-name="13" class="cls-16" points="4.9 4.9 45.1 4.9 45.1 45.1 4.9 45.1 4.9 4.9 5.2 5.2 44.8 5.2 44.8 44.8 5.2 44.8 5.2 5.2 4.9 4.9"/>
        <polygon id="_14" data-name="14" class="cls-17" points="5 5 45 5 45 45 5 45 5 5 5.3 5.3 44.7 5.3 44.7 44.7 5.3 44.7 5.3 5.3 5 5"/>
        <polygon id="_15" data-name="15" class="cls-18" points="5.2 5.2 44.8 5.2 44.8 44.8 5.2 44.8 5.2 5.2 5.5 5.5 44.5 5.5 44.5 44.5 5.5 44.5 5.5 5.5 5.2 5.2"/>
        <polygon id="_16" data-name="16" class="cls-19" points="5.3 5.3 44.7 5.3 44.7 44.7 5.3 44.7 5.3 5.3 5.6 5.6 44.4 5.6 44.4 44.4 5.6 44.4 5.6 5.6 5.3 5.3"/>
        <polygon id="_17" data-name="17" class="cls-20" points="5.5 5.5 44.5 5.5 44.5 44.5 5.5 44.5 5.5 5.5 5.8 5.8 44.2 5.8 44.2 44.2 5.8 44.2 5.8 5.8 5.5 5.5"/>
        <polygon id="_18" data-name="18" class="cls-21" points="5.6 5.6 44.4 5.6 44.4 44.4 5.6 44.4 5.6 5.6 5.9 5.9 44.1 5.9 44.1 44.1 5.9 44.1 5.9 5.9 5.6 5.6"/>
        <polygon id="_19" data-name="19" class="cls-22" points="5.8 5.8 44.2 5.8 44.2 44.2 5.8 44.2 5.8 5.8 6.1 6.1 43.9 6.1 43.9 43.9 6.1 43.9 6.1 6.1 5.8 5.8"/>
        <polygon id="_20" data-name="20" class="cls-23" points="5.9 5.9 44.1 5.9 44.1 44.1 5.9 44.1 5.9 5.9 6.2 6.2 43.8 6.2 43.8 43.8 6.2 43.8 6.2 6.2 5.9 5.9"/>
        <polygon id="_21" data-name="21" class="cls-24" points="6.1 6.1 43.9 6.1 43.9 43.9 6.1 43.9 6.1 6.1 6.4 6.4 43.6 6.4 43.6 43.6 6.4 43.6 6.4 6.4 6.1 6.1"/>
        <polygon id="_22" data-name="22" class="cls-25" points="6.2 6.2 43.8 6.2 43.8 43.8 6.2 43.8 6.2 6.2 6.5 6.5 43.5 6.5 43.5 43.5 6.5 43.5 6.5 6.5 6.2 6.2"/>
        <polygon id="_23" data-name="23" class="cls-26" points="6.4 6.4 43.6 6.4 43.6 43.6 6.4 43.6 6.4 6.4 6.7 6.7 43.3 6.7 43.3 43.3 6.7 43.3 6.7 6.7 6.4 6.4"/>
        <polygon id="_24" data-name="24" class="cls-27" points="6.5 6.5 43.5 6.5 43.5 43.5 6.5 43.5 6.5 6.5 6.8 6.8 43.2 6.8 43.2 43.2 6.8 43.2 6.8 6.8 6.5 6.5"/>
        <polygon id="_25" data-name="25" class="cls-28" points="6.7 6.7 43.3 6.7 43.3 43.3 6.7 43.3 6.7 6.7 7 7 43 7 43 43 7 43 7 7 6.7 6.7"/>
        <polygon id="_26" data-name="26" class="cls-29" points="6.8 6.8 43.2 6.8 43.2 43.2 6.8 43.2 6.8 6.8 7.1 7.1 42.9 7.1 42.9 42.9 7.1 42.9 7.1 7.1 6.8 6.8"/>
        <polygon id="_27" data-name="27" class="cls-30" points="7 7 43 7 43 43 7 43 7 7 7.2 7.2 42.8 7.2 42.8 42.8 7.2 42.8 7.2 7.2 7 7"/>
        <polygon id="_28" data-name="28" class="cls-30" points="7.1 7.1 42.9 7.1 42.9 42.9 7.1 42.9 7.1 7.1 7.4 7.4 42.6 7.4 42.6 42.6 7.4 42.6 7.4 7.4 7.1 7.1"/>
        <polygon id="_29" data-name="29" class="cls-30" points="7.2 7.2 42.8 7.2 42.8 42.8 7.2 42.8 7.2 7.2 7.5 7.5 42.5 7.5 42.5 42.5 7.5 42.5 7.5 7.5 7.2 7.2"/>
        <polygon id="_30" data-name="30" class="cls-30" points="7.4 7.4 42.6 7.4 42.6 42.6 7.4 42.6 7.4 7.4 7.7 7.7 42.3 7.7 42.3 42.3 7.7 42.3 7.7 7.7 7.4 7.4"/>
        <polygon id="_31" data-name="31" class="cls-30" points="7.5 7.5 42.5 7.5 42.5 42.5 7.5 42.5 7.5 7.5 7.8 7.8 42.2 7.8 42.2 42.2 7.8 42.2 7.8 7.8 7.5 7.5"/>
        <polygon id="_32" data-name="32" class="cls-30" points="7.7 7.7 42.3 7.7 42.3 42.3 7.7 42.3 7.7 7.7 8 8 42 8 42 42 8 42 8 8 7.7 7.7"/>
        <polygon id="_33" data-name="33" class="cls-30" points="7.8 7.8 42.2 7.8 42.2 42.2 7.8 42.2 7.8 7.8 8.1 8.1 41.9 8.1 41.9 41.9 8.1 41.9 8.1 8.1 7.8 7.8"/>
        <polygon id="_34" data-name="34" class="cls-30" points="8 8 42 8 42 42 8 42 8 8 8.3 8.3 41.7 8.3 41.7 41.7 8.3 41.7 8.3 8.3 8 8"/>
        <polygon id="_35" data-name="35" class="cls-30" points="8.1 8.1 41.9 8.1 41.9 41.9 8.1 41.9 8.1 8.1 8.4 8.4 41.6 8.4 41.6 41.6 8.4 41.6 8.4 8.4 8.1 8.1"/>
        <polygon id="_36" data-name="36" class="cls-30" points="8.3 8.3 41.7 8.3 41.7 41.7 8.3 41.7 8.3 8.3 8.6 8.6 41.4 8.6 41.4 41.4 8.6 41.4 8.6 8.6 8.3 8.3"/>
        <polygon id="_37" data-name="37" class="cls-30" points="8.4 8.4 41.6 8.4 41.6 41.6 8.4 41.6 8.4 8.4 8.7 8.7 41.3 8.7 41.3 41.3 8.7 41.3 8.7 8.7 8.4 8.4"/>
        <polygon id="_38" data-name="38" class="cls-30" points="8.6 8.6 41.4 8.6 41.4 41.4 8.6 41.4 8.6 8.6 8.9 8.9 41.1 8.9 41.1 41.1 8.9 41.1 8.9 8.9 8.6 8.6"/>
        <polygon id="_39" data-name="39" class="cls-30" points="8.7 8.7 41.3 8.7 41.3 41.3 8.7 41.3 8.7 8.7 9 9 41 9 41 41 9 41 9 9 8.7 8.7"/>
        <polygon id="_40" data-name="40" class="cls-30" points="8.9 8.9 41.1 8.9 41.1 41.1 8.9 41.1 8.9 8.9 9.2 9.2 40.9 9.2 40.9 40.8 9.2 40.8 9.2 9.2 8.9 8.9"/>
        <polygon id="_41" data-name="41" class="cls-30" points="9 9 41 9 41 41 9 41 9 9 9.3 9.3 40.7 9.3 40.7 40.7 9.3 40.7 9.3 9.3 9 9"/>
        <polygon id="_42" data-name="42" class="cls-30" points="9.2 9.2 40.9 9.2 40.9 40.8 9.2 40.8 9.2 9.2 9.4 9.4 40.6 9.4 40.6 40.6 9.4 40.6 9.4 9.4 9.2 9.2"/>
        <polygon id="_43" data-name="43" class="cls-30" points="9.3 9.3 40.7 9.3 40.7 40.7 9.3 40.7 9.3 9.3 9.6 9.6 40.4 9.6 40.4 40.4 9.6 40.4 9.6 9.6 9.3 9.3"/>
        <polygon id="_44" data-name="44" class="cls-30" points="9.4 9.4 40.6 9.4 40.6 40.6 9.4 40.6 9.4 9.4 9.7 9.7 40.3 9.7 40.3 40.3 9.7 40.3 9.7 9.7 9.4 9.4"/>
        <polygon id="_45" data-name="45" class="cls-30" points="9.6 9.6 40.4 9.6 40.4 40.4 9.6 40.4 9.6 9.6 9.9 9.9 40.1 9.9 40.1 40.1 9.9 40.1 9.9 9.9 9.6 9.6"/>
        <polygon id="_46" data-name="46" class="cls-30" points="9.7 9.7 40.3 9.7 40.3 40.3 9.7 40.3 9.7 9.7 10 10 40 10 40 40 10 40 10 10 9.7 9.7"/>
        <polygon id="_47" data-name="47" class="cls-30" points="9.9 9.9 40.1 9.9 40.1 40.1 9.9 40.1 9.9 9.9 10.2 10.2 39.8 10.2 39.8 39.8 10.2 39.8 10.2 10.2 9.9 9.9"/>
        <polygon id="_48" data-name="48" class="cls-30" points="10 10 40 10 40 40 10 40 10 10 10.3 10.3 39.7 10.3 39.7 39.7 10.3 39.7 10.3 10.3 10 10"/>
        <polygon id="_49" data-name="49" class="cls-30" points="10.2 10.2 39.8 10.2 39.8 39.8 10.2 39.8 10.2 10.2 10.5 10.5 39.5 10.5 39.5 39.5 10.5 39.5 10.5 10.5 10.2 10.2"/>
        <polygon id="_50" data-name="50" class="cls-30" points="10.3 10.3 39.7 10.3 39.7 39.7 10.3 39.7 10.3 10.3 10.6 10.6 39.4 10.6 39.4 39.4 10.6 39.4 10.6 10.6 10.3 10.3"/>
        <polygon id="_51" data-name="51" class="cls-30" points="10.5 10.5 39.5 10.5 39.5 39.5 10.5 39.5 10.5 10.5 10.8 10.8 39.2 10.8 39.2 39.2 10.8 39.2 10.8 10.8 10.5 10.5"/>
        <polygon id="_52" data-name="52" class="cls-30" points="10.6 10.6 39.4 10.6 39.4 39.4 10.6 39.4 10.6 10.6 10.9 10.9 39.1 10.9 39.1 39.1 10.9 39.1 10.9 10.9 10.6 10.6"/>
        <polygon id="_53" data-name="53" class="cls-30" points="10.8 10.8 39.2 10.8 39.2 39.2 10.8 39.2 10.8 10.8 11.1 11.1 38.9 11.1 38.9 38.9 11.1 38.9 11.1 11.1 10.8 10.8"/>
        <polygon id="_54" data-name="54" class="cls-30" points="10.9 10.9 39.1 10.9 39.1 39.1 10.9 39.1 10.9 10.9 11.2 11.2 38.8 11.2 38.8 38.8 11.2 38.8 11.2 11.2 10.9 10.9"/>
        <polygon id="_55" data-name="55" class="cls-30" points="11.1 11.1 38.9 11.1 38.9 38.9 11.1 38.9 11.1 11.1 11.4 11.4 38.6 11.4 38.6 38.6 11.4 38.6 11.4 11.4 11.1 11.1"/>
        <polygon id="_56" data-name="56" class="cls-30" points="11.2 11.2 38.8 11.2 38.8 38.8 11.2 38.8 11.2 11.2 11.5 11.5 38.5 11.5 38.5 38.5 11.5 38.5 11.5 11.5 11.2 11.2"/>
        <polygon id="_57" data-name="57" class="cls-30" points="11.4 11.4 38.6 11.4 38.6 38.6 11.4 38.6 11.4 11.4 11.6 11.6 38.4 11.6 38.4 38.4 11.6 38.4 11.6 11.6 11.4 11.4"/>
        <polygon id="_58" data-name="58" class="cls-30" points="11.5 11.5 38.5 11.5 38.5 38.5 11.5 38.5 11.5 11.5 11.8 11.8 38.2 11.8 38.2 38.2 11.8 38.2 11.8 11.8 11.5 11.5"/>
        <polygon id="_59" data-name="59" class="cls-30" points="11.6 11.6 38.4 11.6 38.4 38.4 11.6 38.4 11.6 11.6 11.9 11.9 38.1 11.9 38.1 38.1 11.9 38.1 11.9 11.9 11.6 11.6"/>
        <polygon id="_60" data-name="60" class="cls-30" points="11.8 11.8 38.2 11.8 38.2 38.2 11.8 38.2 11.8 11.8 12.1 12.1 37.9 12.1 37.9 37.9 12.1 37.9 12.1 12.1 11.8 11.8"/>
        <polygon id="_61" data-name="61" class="cls-30" points="11.9 11.9 38.1 11.9 38.1 38.1 11.9 38.1 11.9 11.9 12.2 12.2 37.8 12.2 37.8 37.8 12.2 37.8 12.2 12.2 11.9 11.9"/>
        <polygon id="_62" data-name="62" class="cls-30" points="12.1 12.1 37.9 12.1 37.9 37.9 12.1 37.9 12.1 12.1 12.4 12.4 37.6 12.4 37.6 37.6 12.4 37.6 12.4 12.4 12.1 12.1"/>
        <polygon id="_63" data-name="63" class="cls-30" points="12.2 12.2 37.8 12.2 37.8 37.8 12.2 37.8 12.2 12.2 12.5 12.5 37.5 12.5 37.5 37.5 12.5 37.5 12.5 12.5 12.2 12.2"/>
        <polygon id="_64" data-name="64" class="cls-30" points="12.4 12.4 37.6 12.4 37.6 37.6 12.4 37.6 12.4 12.4 12.7 12.7 37.3 12.7 37.3 37.3 12.7 37.3 12.7 12.7 12.4 12.4"/>
        <polygon id="_65" data-name="65" class="cls-30" points="12.5 12.5 37.5 12.5 37.5 37.5 12.5 37.5 12.5 12.5 12.8 12.8 37.2 12.8 37.2 37.2 12.8 37.2 12.8 12.8 12.5 12.5"/>
        <polygon id="_66" data-name="66" class="cls-30" points="12.7 12.7 37.3 12.7 37.3 37.3 12.7 37.3 12.7 12.7 13 13 37 13 37 37 13 37 13 13 12.7 12.7"/>
        <polygon id="_67" data-name="67" class="cls-30" points="12.8 12.8 37.2 12.8 37.2 37.2 12.8 37.2 12.8 12.8 13.1 13.1 36.9 13.1 36.9 36.9 13.1 36.9 13.1 13.1 12.8 12.8"/>
        <polygon id="_68" data-name="68" class="cls-30" points="13 13 37 13 37 37 13 37 13 13 13.3 13.3 36.7 13.3 36.7 36.7 13.3 36.7 13.3 13.3 13 13"/>
        <polygon id="_69" data-name="69" class="cls-30" points="13.1 13.1 36.9 13.1 36.9 36.9 13.1 36.9 13.1 13.1 13.4 13.4 36.6 13.4 36.6 36.6 13.4 36.6 13.4 13.4 13.1 13.1"/>
        <polygon id="_70" data-name="70" class="cls-30" points="13.3 13.3 36.7 13.3 36.7 36.7 13.3 36.7 13.3 13.3 13.6 13.6 36.4 13.6 36.4 36.4 13.6 36.4 13.6 13.6 13.3 13.3"/>
        <polygon id="_71" data-name="71" class="cls-30" points="13.4 13.4 36.6 13.4 36.6 36.6 13.4 36.6 13.4 13.4 13.7 13.7 36.3 13.7 36.3 36.3 13.7 36.3 13.7 13.7 13.4 13.4"/>
        <polygon id="_72" data-name="72" class="cls-30" points="13.6 13.6 36.4 13.6 36.4 36.4 13.6 36.4 13.6 13.6 13.8 13.8 36.2 13.8 36.2 36.1 13.8 36.1 13.8 13.8 13.6 13.6"/>
        <polygon id="_73" data-name="73" class="cls-30" points="13.7 13.7 36.3 13.7 36.3 36.3 13.7 36.3 13.7 13.7 14 14 36 14 36 36 14 36 14 14 13.7 13.7"/>
        <polygon id="_74" data-name="74" class="cls-30" points="13.8 13.8 36.2 13.8 36.2 36.1 13.8 36.1 13.8 13.8 14.1 14.1 35.9 14.1 35.9 35.9 14.1 35.9 14.1 14.1 13.8 13.8"/>
        <polygon id="_75" data-name="75" class="cls-30" points="14 14 36 14 36 36 14 36 14 14 14.3 14.3 35.7 14.3 35.7 35.7 14.3 35.7 14.3 14.3 14 14"/>
        <polygon id="_76" data-name="76" class="cls-30" points="14.1 14.1 35.9 14.1 35.9 35.9 14.1 35.9 14.1 14.1 14.4 14.4 35.6 14.4 35.6 35.6 14.4 35.6 14.4 14.4 14.1 14.1"/>
        <polygon id="_77" data-name="77" class="cls-30" points="14.3 14.3 35.7 14.3 35.7 35.7 14.3 35.7 14.3 14.3 14.6 14.6 35.4 14.6 35.4 35.4 14.6 35.4 14.6 14.6 14.3 14.3"/>
        <polygon id="_78" data-name="78" class="cls-30" points="14.4 14.4 35.6 14.4 35.6 35.6 14.4 35.6 14.4 14.4 14.7 14.7 35.3 14.7 35.3 35.3 14.7 35.3 14.7 14.7 14.4 14.4"/>
        <polygon id="_79" data-name="79" class="cls-30" points="14.6 14.6 35.4 14.6 35.4 35.4 14.6 35.4 14.6 14.6 14.9 14.9 35.1 14.9 35.1 35.1 14.9 35.1 14.9 14.9 14.6 14.6"/>
        <polygon id="_80" data-name="80" class="cls-30" points="14.7 14.7 35.3 14.7 35.3 35.3 14.7 35.3 14.7 14.7 15 15 35 15 35 35 15 35 15 15 14.7 14.7"/>
        <polygon id="_81" data-name="81" class="cls-30" points="14.9 14.9 35.1 14.9 35.1 35.1 14.9 35.1 14.9 14.9 15.2 15.2 34.8 15.2 34.8 34.8 15.2 34.8 15.2 15.2 14.9 14.9"/>
        <polygon id="_82" data-name="82" class="cls-30" points="15 15 35 15 35 35 15 35 15 15 15.3 15.3 34.7 15.3 34.7 34.7 15.3 34.7 15.3 15.3 15 15"/>
        <polygon id="_83" data-name="83" class="cls-30" points="15.2 15.2 34.8 15.2 34.8 34.8 15.2 34.8 15.2 15.2 15.5 15.5 34.5 15.5 34.5 34.5 15.5 34.5 15.5 15.5 15.2 15.2"/>
        <polygon id="_84" data-name="84" class="cls-30" points="15.3 15.3 34.7 15.3 34.7 34.7 15.3 34.7 15.3 15.3 15.6 15.6 34.4 15.6 34.4 34.4 15.6 34.4 15.6 15.6 15.3 15.3"/>
        <polygon id="_85" data-name="85" class="cls-30" points="15.5 15.5 34.5 15.5 34.5 34.5 15.5 34.5 15.5 15.5 15.8 15.8 34.2 15.8 34.2 34.2 15.8 34.2 15.8 15.8 15.5 15.5"/>
        <polygon id="_86" data-name="86" class="cls-30" points="15.6 15.6 34.4 15.6 34.4 34.4 15.6 34.4 15.6 15.6 15.9 15.9 34.1 15.9 34.1 34.1 15.9 34.1 15.9 15.9 15.6 15.6"/>
        <polygon id="_87" data-name="87" class="cls-30" points="15.8 15.8 34.2 15.8 34.2 34.2 15.8 34.2 15.8 15.8 16 16 34 16 34 34 16 34 16 16 15.8 15.8"/>
        <polygon id="_88" data-name="88" class="cls-30" points="15.9 15.9 34.1 15.9 34.1 34.1 15.9 34.1 15.9 15.9 16.2 16.2 33.8 16.2 33.8 33.8 16.2 33.8 16.2 16.2 15.9 15.9"/>
        <polygon id="_89" data-name="89" class="cls-30" points="16 16 34 16 34 34 16 34 16 16 16.3 16.3 33.7 16.3 33.7 33.7 16.3 33.7 16.3 16.3 16 16"/>
        <polygon id="_90" data-name="90" class="cls-30" points="16.2 16.2 33.8 16.2 33.8 33.8 16.2 33.8 16.2 16.2 16.5 16.5 33.5 16.5 33.5 33.5 16.5 33.5 16.5 16.5 16.2 16.2"/>
        <polygon id="_91" data-name="91" class="cls-30" points="16.3 16.3 33.7 16.3 33.7 33.7 16.3 33.7 16.3 16.3 16.6 16.6 33.4 16.6 33.4 33.4 16.6 33.4 16.6 16.6 16.3 16.3"/>
        <polygon id="_92" data-name="92" class="cls-30" points="16.5 16.5 33.5 16.5 33.5 33.5 16.5 33.5 16.5 16.5 16.8 16.8 33.2 16.8 33.2 33.2 16.8 33.2 16.8 16.8 16.5 16.5"/>
        <polygon id="_93" data-name="93" class="cls-30" points="16.6 16.6 33.4 16.6 33.4 33.4 16.6 33.4 16.6 16.6 16.9 16.9 33.1 16.9 33.1 33.1 16.9 33.1 16.9 16.9 16.6 16.6"/>
        <polygon id="_94" data-name="94" class="cls-30" points="16.8 16.8 33.2 16.8 33.2 33.2 16.8 33.2 16.8 16.8 17.1 17.1 32.9 17.1 32.9 32.9 17.1 32.9 17.1 17.1 16.8 16.8"/>
        <polygon id="_95" data-name="95" class="cls-30" points="16.9 16.9 33.1 16.9 33.1 33.1 16.9 33.1 16.9 16.9 17.2 17.2 32.8 17.2 32.8 32.8 17.2 32.8 17.2 17.2 16.9 16.9"/>
        <polygon id="_96" data-name="96" class="cls-30" points="17.1 17.1 32.9 17.1 32.9 32.9 17.1 32.9 17.1 17.1 17.4 17.4 32.6 17.4 32.6 32.6 17.4 32.6 17.4 17.4 17.1 17.1"/>
        <polygon id="_97" data-name="97" class="cls-30" points="17.2 17.2 32.8 17.2 32.8 32.8 17.2 32.8 17.2 17.2 17.5 17.5 32.5 17.5 32.5 32.5 17.5 32.5 17.5 17.5 17.2 17.2"/>
        <polygon id="_98" data-name="98" class="cls-30" points="17.4 17.4 32.6 17.4 32.6 32.6 17.4 32.6 17.4 17.4 17.7 17.7 32.3 17.7 32.3 32.3 17.7 32.3 17.7 17.7 17.4 17.4"/>
        <polygon id="_99" data-name="99" class="cls-30" points="17.5 17.5 32.5 17.5 32.5 32.5 17.5 32.5 17.5 17.5 17.8 17.8 32.2 17.8 32.2 32.2 17.8 32.2 17.8 17.8 17.5 17.5"/>
        <polygon id="_100" data-name="100" class="cls-30" points="17.7 17.7 32.3 17.7 32.3 32.3 17.7 32.3 17.7 17.7 18 18 32 18 32 32 18 32 18 18 17.7 17.7"/>
        <polygon id="_101" data-name="101" class="cls-30" points="17.8 17.8 32.2 17.8 32.2 32.2 17.8 32.2 17.8 17.8 18.1 18.1 31.9 18.1 31.9 31.9 18.1 31.9 18.1 18.1 17.8 17.8"/>
        <polygon id="_102" data-name="102" class="cls-30" points="18 18 32 18 32 32 18 32 18 18 18.3 18.2 31.8 18.2 31.8 31.7 18.3 31.7 18.3 18.2 18 18"/>
        <polygon id="_103" data-name="103" class="cls-30" points="18.1 18.1 31.9 18.1 31.9 31.9 18.1 31.9 18.1 18.1 18.4 18.4 31.6 18.4 31.6 31.6 18.4 31.6 18.4 18.4 18.1 18.1"/>
        <polygon id="_104" data-name="104" class="cls-30" points="18.3 18.2 31.8 18.2 31.8 31.7 18.3 31.7 18.3 18.2 18.5 18.5 31.5 18.5 31.5 31.5 18.5 31.5 18.5 18.5 18.3 18.2"/>
        <polygon id="_105" data-name="105" class="cls-30" points="18.4 18.4 31.6 18.4 31.6 31.6 18.4 31.6 18.4 18.4 18.7 18.7 31.3 18.7 31.3 31.3 18.7 31.3 18.7 18.7 18.4 18.4"/>
        <polygon id="_106" data-name="106" class="cls-30" points="18.5 18.5 31.5 18.5 31.5 31.5 18.5 31.5 18.5 18.5 18.8 18.8 31.2 18.8 31.2 31.2 18.8 31.2 18.8 18.8 18.5 18.5"/>
        <polygon id="_107" data-name="107" class="cls-30" points="18.7 18.7 31.3 18.7 31.3 31.3 18.7 31.3 18.7 18.7 19 19 31 19 31 31 19 31 19 19 18.7 18.7"/>
        <polygon id="_108" data-name="108" class="cls-30" points="18.8 18.8 31.2 18.8 31.2 31.2 18.8 31.2 18.8 18.8 19.1 19.1 30.9 19.1 30.9 30.9 19.1 30.9 19.1 19.1 18.8 18.8"/>
        <polygon id="_109" data-name="109" class="cls-30" points="19 19 31 19 31 31 19 31 19 19 19.3 19.3 30.7 19.3 30.7 30.7 19.3 30.7 19.3 19.3 19 19"/>
        <polygon id="_110" data-name="110" class="cls-30" points="19.1 19.1 30.9 19.1 30.9 30.9 19.1 30.9 19.1 19.1 19.4 19.4 30.6 19.4 30.6 30.6 19.4 30.6 19.4 19.4 19.1 19.1"/>
        <polygon id="_111" data-name="111" class="cls-30" points="19.3 19.3 30.7 19.3 30.7 30.7 19.3 30.7 19.3 19.3 19.6 19.6 30.4 19.6 30.4 30.4 19.6 30.4 19.6 19.6 19.3 19.3"/>
        <polygon id="_112" data-name="112" class="cls-30" points="19.4 19.4 30.6 19.4 30.6 30.6 19.4 30.6 19.4 19.4 19.7 19.7 30.3 19.7 30.3 30.3 19.7 30.3 19.7 19.7 19.4 19.4"/>
        <polygon id="_113" data-name="113" class="cls-30" points="19.6 19.6 30.4 19.6 30.4 30.4 19.6 30.4 19.6 19.6 19.9 19.9 30.1 19.9 30.1 30.1 19.9 30.1 19.9 19.9 19.6 19.6"/>
        <polygon id="_114" data-name="114" class="cls-30" points="19.7 19.7 30.3 19.7 30.3 30.3 19.7 30.3 19.7 19.7 20 20 30 20 30 30 20 30 20 20 19.7 19.7"/>
        <polygon id="_115" data-name="115" class="cls-30" points="19.9 19.9 30.1 19.9 30.1 30.1 19.9 30.1 19.9 19.9 20.2 20.2 29.8 20.2 29.8 29.8 20.2 29.8 20.2 20.2 19.9 19.9"/>
        <polygon id="_116" data-name="116" class="cls-30" points="20 20 30 20 30 30 20 30 20 20 20.3 20.3 29.7 20.3 29.7 29.7 20.3 29.7 20.3 20.3 20 20"/>
        <polygon id="_117" data-name="117" class="cls-30" points="20.2 20.2 29.8 20.2 29.8 29.8 20.2 29.8 20.2 20.2 20.5 20.4 29.6 20.4 29.6 29.5 20.5 29.5 20.5 20.4 20.2 20.2"/>
        <polygon id="_118" data-name="118" class="cls-30" points="20.3 20.3 29.7 20.3 29.7 29.7 20.3 29.7 20.3 20.3 20.6 20.6 29.4 20.6 29.4 29.4 20.6 29.4 20.6 20.6 20.3 20.3"/>
        <polygon id="_119" data-name="119" class="cls-30" points="20.5 20.4 29.6 20.4 29.6 29.5 20.5 29.5 20.5 20.4 20.7 20.7 29.3 20.7 29.3 29.3 20.7 29.3 20.7 20.7 20.5 20.4"/>
        <polygon id="_120" data-name="120" class="cls-30" points="20.6 20.6 29.4 20.6 29.4 29.4 20.6 29.4 20.6 20.6 20.9 20.9 29.1 20.9 29.1 29.1 20.9 29.1 20.9 20.9 20.6 20.6"/>
        <polygon id="_121" data-name="121" class="cls-30" points="20.7 20.7 29.3 20.7 29.3 29.3 20.7 29.3 20.7 20.7 21 21 29 21 29 29 21 29 21 21 20.7 20.7"/>
        <polygon id="_122" data-name="122" class="cls-30" points="20.9 20.9 29.1 20.9 29.1 29.1 20.9 29.1 20.9 20.9 21.2 21.2 28.8 21.2 28.8 28.8 21.2 28.8 21.2 21.2 20.9 20.9"/>
        <polygon id="_123" data-name="123" class="cls-30" points="21 21 29 21 29 29 21 29 21 21 21.3 21.3 28.7 21.3 28.7 28.7 21.3 28.7 21.3 21.3 21 21"/>
        <polygon id="_124" data-name="124" class="cls-30" points="21.2 21.2 28.8 21.2 28.8 28.8 21.2 28.8 21.2 21.2 21.5 21.5 28.5 21.5 28.5 28.5 21.5 28.5 21.5 21.5 21.2 21.2"/>
        <polygon id="_125" data-name="125" class="cls-30" points="21.3 21.3 28.7 21.3 28.7 28.7 21.3 28.7 21.3 21.3 21.6 21.6 28.4 21.6 28.4 28.4 21.6 28.4 21.6 21.6 21.3 21.3"/>
        <polygon id="_126" data-name="126" class="cls-30" points="21.5 21.5 28.5 21.5 28.5 28.5 21.5 28.5 21.5 21.5 21.8 21.8 28.2 21.8 28.2 28.2 21.8 28.2 21.8 21.8 21.5 21.5"/>
        <polygon id="_127" data-name="127" class="cls-30" points="21.6 21.6 28.4 21.6 28.4 28.4 21.6 28.4 21.6 21.6 21.9 21.9 28.1 21.9 28.1 28.1 21.9 28.1 21.9 21.9 21.6 21.6"/>
        <polygon id="_128" data-name="128" class="cls-30" points="21.8 21.8 28.2 21.8 28.2 28.2 21.8 28.2 21.8 21.8 22.1 22.1 27.9 22.1 27.9 27.9 22.1 27.9 22.1 22.1 21.8 21.8"/>
        <polygon id="_129" data-name="129" class="cls-30" points="21.9 21.9 28.1 21.9 28.1 28.1 21.9 28.1 21.9 21.9 22.2 22.2 27.8 22.2 27.8 27.8 22.2 27.8 22.2 22.2 21.9 21.9"/>
        <polygon id="_130" data-name="130" class="cls-30" points="22.1 22.1 27.9 22.1 27.9 27.9 22.1 27.9 22.1 22.1 22.4 22.4 27.6 22.4 27.6 27.6 22.4 27.6 22.4 22.4 22.1 22.1"/>
        <polygon id="_131" data-name="131" class="cls-30" points="22.2 22.2 27.8 22.2 27.8 27.8 22.2 27.8 22.2 22.2 22.5 22.5 27.5 22.5 27.5 27.5 22.5 27.5 22.5 22.5 22.2 22.2"/>
        <polygon id="_132" data-name="132" class="cls-30" points="22.4 22.4 27.6 22.4 27.6 27.6 22.4 27.6 22.4 22.4 22.7 22.7 27.3 22.7 27.3 27.3 22.7 27.3 22.7 22.7 22.4 22.4"/>
        <polygon id="_133" data-name="133" class="cls-30" points="22.5 22.5 27.5 22.5 27.5 27.5 22.5 27.5 22.5 22.5 22.8 22.8 27.2 22.8 27.2 27.2 22.8 27.2 22.8 22.8 22.5 22.5"/>
        <polygon id="_134" data-name="134" class="cls-30" points="22.7 22.7 27.3 22.7 27.3 27.3 22.7 27.3 22.7 22.7 22.9 22.9 27.1 22.9 27.1 27.1 22.9 27.1 22.9 22.9 22.7 22.7"/>
        <polygon id="_135" data-name="135" class="cls-30" points="22.8 22.8 27.2 22.8 27.2 27.2 22.8 27.2 22.8 22.8 23.1 23.1 26.9 23.1 26.9 26.9 23.1 26.9 23.1 23.1 22.8 22.8"/>
        <polygon id="_136" data-name="136" class="cls-30" points="22.9 22.9 27.1 22.9 27.1 27.1 22.9 27.1 22.9 22.9 23.2 23.2 26.8 23.2 26.8 26.8 23.2 26.8 23.2 23.2 22.9 22.9"/>
        <polygon id="_137" data-name="137" class="cls-30" points="23.1 23.1 26.9 23.1 26.9 26.9 23.1 26.9 23.1 23.1 23.4 23.4 26.6 23.4 26.6 26.6 23.4 26.6 23.4 23.4 23.1 23.1"/>
        <polygon id="_138" data-name="138" class="cls-30" points="23.2 23.2 26.8 23.2 26.8 26.8 23.2 26.8 23.2 23.2 23.5 23.5 26.5 23.5 26.5 26.5 23.5 26.5 23.5 23.5 23.2 23.2"/>
        <polygon id="_139" data-name="139" class="cls-30" points="23.4 23.4 26.6 23.4 26.6 26.6 23.4 26.6 23.4 23.4 23.7 23.7 26.3 23.7 26.3 26.3 23.7 26.3 23.7 23.7 23.4 23.4"/>
        <polygon id="_140" data-name="140" class="cls-30" points="23.5 23.5 26.5 23.5 26.5 26.5 23.5 26.5 23.5 23.5 23.8 23.8 26.2 23.8 26.2 26.2 23.8 26.2 23.8 23.8 23.5 23.5"/>
        <polygon id="_141" data-name="141" class="cls-30" points="23.7 23.7 26.3 23.7 26.3 26.3 23.7 26.3 23.7 23.7 24 24 26 24 26 26 24 26 24 24 23.7 23.7"/>
        <polygon id="_142" data-name="142" class="cls-30" points="23.8 23.8 26.2 23.8 26.2 26.2 23.8 26.2 23.8 23.8 24.1 24.1 25.9 24.1 25.9 25.9 24.1 25.9 24.1 24.1 23.8 23.8"/>
        <polygon id="_143" data-name="143" class="cls-30" points="24 24 26 24 26 26 24 26 24 24 24.3 24.3 25.7 24.3 25.7 25.7 24.3 25.7 24.3 24.3 24 24"/>
        <polygon id="_144" data-name="144" class="cls-30" points="24.1 24.1 25.9 24.1 25.9 25.9 24.1 25.9 24.1 24.1 24.4 24.4 25.6 24.4 25.6 25.6 24.4 25.6 24.4 24.4 24.1 24.1"/>
        <polygon id="_145" data-name="145" class="cls-30" points="24.3 24.3 25.7 24.3 25.7 25.7 24.3 25.7 24.3 24.3 24.6 24.6 25.4 24.6 25.4 25.4 24.6 25.4 24.6 24.6 24.3 24.3"/>
        <polygon id="_146" data-name="146" class="cls-30" points="24.4 24.4 25.6 24.4 25.6 25.6 24.4 25.6 24.4 24.4 24.7 24.7 25.3 24.7 25.3 25.3 24.7 25.3 24.7 24.7 24.4 24.4"/>
        <polygon id="_147" data-name="147" class="cls-30" points="24.6 24.6 25.4 24.6 25.4 25.4 24.6 25.4 24.6 24.6 24.9 24.9 25.1 24.9 25.1 25.1 24.9 25.1 24.9 24.9 24.6 24.6"/>
        <polygon id="_148" data-name="148" class="cls-30" points="24.7 24.7 25.3 24.7 25.3 25.3 24.7 25.3 24.7 24.7 25 25 25 25 25 25 25 25 25 25 24.7 24.7"/>
        <polygon id="_149" data-name="149" class="cls-30" points="24.9 24.9 25.1 24.9 25.1 25.1 24.9 25.1 24.9 24.9"/>
      </g>
    </g>
  </g>
  <g id="&#x441;&#x442;&#x440;&#x435;&#x43B;&#x43A;&#x430;">
    <path class="cls-31" d="M13.7,34.8,26,25.6c.5,1,.8,1.8,1.2.6s1.8-4.3,1.6-4.5-2.9,0-4.8.2-.5.8.4,1.6L12.1,32.7a1.3,1.3,0,0,0-.3,1.8h0a1.3,1.3,0,0,0,1.8.3Z"/>
  </g>
  <rect class="cls-32" x="32.3" y="14.9" width="0.4" height="8.4"/>
  <polygon class="cls-33" points="38.4 14.9 32.3 14.9 32.3 19.5 38.4 19.5 38.4 19.5 35.9 17.2 38.4 14.9"/>
</svg>
