<?xml version="1.0" encoding="UTF-8"?>
<!DOCTYPE svg PUBLIC "-//W3C//DTD SVG 1.1//EN" "http://www.w3.org/Graphics/SVG/1.1/DTD/svg11.dtd">
<!-- Creator: CorelDRAW X6 -->
<svg xmlns="http://www.w3.org/2000/svg" xml:space="preserve" width="150px" height="150px" version="1.1" style="shape-rendering:geometricPrecision; text-rendering:geometricPrecision; image-rendering:optimizeQuality; fill-rule:evenodd; clip-rule:evenodd"
viewBox="0 0 15000 15000"
 xmlns:xlink="http://www.w3.org/1999/xlink">
 <defs>
  <style type="text/css">
   <![CDATA[
    .str0 {stroke:white;stroke-width:317.5}
    .fil45 {fill:none}
    .fil0 {fill:#CE7F22}
    .fil2 {fill:#CF7F22}
    .fil3 {fill:#CF8022}
    .fil4 {fill:#D08022}
    .fil5 {fill:#D18022}
    .fil6 {fill:#D18122}
    .fil7 {fill:#D28122}
    .fil8 {fill:#D38122}
    .fil9 {fill:#D38222}
    .fil10 {fill:#D48222}
    .fil11 {fill:#D58322}
    .fil12 {fill:#D68322}
    .fil13 {fill:#D78422}
    .fil14 {fill:#D88422}
    .fil15 {fill:#D98522}
    .fil16 {fill:#DA8522}
    .fil17 {fill:#DA8622}
    .fil18 {fill:#DB8622}
    .fil19 {fill:#DC8722}
    .fil20 {fill:#DD8722}
    .fil21 {fill:#DE8822}
    .fil22 {fill:#DF8822}
    .fil23 {fill:#E08922}
    .fil24 {fill:#E18922}
    .fil25 {fill:#E28A22}
    .fil26 {fill:#E38A22}
    .fil27 {fill:#E48B22}
    .fil28 {fill:#E58B22}
    .fil29 {fill:#E68C22}
    .fil30 {fill:#E78D22}
    .fil31 {fill:#E88D22}
    .fil32 {fill:#E98E22}
    .fil33 {fill:#EA8E22}
    .fil34 {fill:#EB8F22}
    .fil35 {fill:#EC8F22}
    .fil36 {fill:#EC9022}
    .fil37 {fill:#ED9022}
    .fil38 {fill:#EE9022}
    .fil39 {fill:#EE9122}
    .fil40 {fill:#EF9122}
    .fil41 {fill:#F09122}
    .fil42 {fill:#F09222}
    .fil43 {fill:#F19222}
    .fil44 {fill:#F29322}
    .fil1 {fill:black;fill-opacity:0.000000}
    .fil46 {fill:url(#id2)}
    .fil48 {fill:url(#id3)}
    .fil47 {fill:url(#id4)}
   ]]>
  </style>
      <clipPath id="id0">
       <path d="M2397 14058l10225 0c788,0 1432,-645 1432,-1432l0 -10225c0,-788 -645,-1432 -1432,-1432l-10225 0c-788,0 -1432,645 -1432,1432l0 10225c0,788 645,1432 1432,1432z"/>
      </clipPath>
      <clipPath id="id1">
       <path d="M2397 14058l10225 0c788,0 1432,-645 1432,-1432l0 -10225c0,-788 -645,-1432 -1432,-1432l-10225 0c-788,0 -1432,645 -1432,1432l0 10225c0,788 645,1432 1432,1432z"/>
      </clipPath>
  <linearGradient id="id2" gradientUnits="userSpaceOnUse" x1="7382.36" y1="5887.89" x2="7382.36" y2="1559.85">
   <stop offset="0" style="stop-color:#B3B3B3"/>
   <stop offset="1" style="stop-color:#E6E6E6"/>
  </linearGradient>
  <linearGradient id="id3" gradientUnits="userSpaceOnUse" x1="7960.72" y1="13304" x2="7960.72" y2="8073.73">
   <stop offset="0" style="stop-color:#99CC33"/>
   <stop offset="1" style="stop-color:#C4F562"/>
  </linearGradient>
  <linearGradient id="id4" gradientUnits="userSpaceOnUse" x1="7464.63" y1="7274.87" x2="7464.63" y2="4287.45">
   <stop offset="0" style="stop-color:#DB4848"/>
   <stop offset="1" style="stop-color:#F76C6C"/>
  </linearGradient>
 </defs>
 <g id="Layer_x0020_1">
  <metadata id="CorelCorpID_0Corel-Layer"/>
  <g id="_328298656">
   <g id="_348901672">
    <path class="fil0" d="M2188 80l10642 0c1167,0 2113,946 2113,2113l0 10642c0,1167 -946,2113 -2113,2113l-10642 0c-1167,0 -2113,-946 -2113,-2113l0 -10642c0,-1167 946,-2113 2113,-2113z"/>
    <g>
     <g style="clip-path:url(#id0)">
      <polygon class="fil1" points="964,969 14054,969 14054,14058 964,14058 "/>
     </g>
     <g style="clip-path:url(#id1)">
      <g>
       <polygon id="1" class="fil0" points="964,969 14054,969 14054,14058 964,14058 964,969 1008,1012 14010,1012 14010,14015 1008,14015 1008,1012 "/>
       <polygon id="_1" class="fil0" points="986,991 14032,991 14032,14037 986,14037 986,991 1030,1034 13989,1034 13989,13993 1030,13993 1030,1034 "/>
       <polygon id="_2" class="fil2" points="1008,1012 14010,1012 14010,14015 1008,14015 1008,1012 1052,1056 13967,1056 13967,13971 1052,13971 1052,1056 "/>
       <polygon id="_3" class="fil3" points="1030,1034 13989,1034 13989,13993 1030,13993 1030,1034 1074,1078 13945,1078 13945,13949 1074,13949 1074,1078 "/>
       <polygon id="_4" class="fil4" points="1052,1056 13967,1056 13967,13971 1052,13971 1052,1056 1095,1100 13923,1100 13923,13928 1095,13928 1095,1100 "/>
       <polygon id="_5" class="fil5" points="1074,1078 13945,1078 13945,13949 1074,13949 1074,1078 1117,1122 13901,1122 13901,13906 1117,13906 1117,1122 "/>
       <polygon id="_6" class="fil6" points="1095,1100 13923,1100 13923,13928 1095,13928 1095,1100 1139,1143 13880,1143 13880,13884 1139,13884 1139,1143 "/>
       <polygon id="_7" class="fil7" points="1117,1122 13901,1122 13901,13906 1117,13906 1117,1122 1161,1165 13858,1165 13858,13862 1161,13862 1161,1165 "/>
       <polygon id="_8" class="fil8" points="1139,1143 13880,1143 13880,13884 1139,13884 1139,1143 1183,1187 13836,1187 13836,13840 1183,13840 1183,1187 "/>
       <polygon id="_9" class="fil9" points="1161,1165 13858,1165 13858,13862 1161,13862 1161,1165 1204,1209 13814,1209 13814,13819 1204,13819 1204,1209 "/>
       <polygon id="_10" class="fil10" points="1183,1187 13836,1187 13836,13840 1183,13840 1183,1187 1226,1231 13792,1231 13792,13797 1226,13797 1226,1231 "/>
       <polygon id="_11" class="fil10" points="1204,1209 13814,1209 13814,13819 1204,13819 1204,1209 1248,1252 13771,1252 13771,13775 1248,13775 1248,1252 "/>
       <polygon id="_12" class="fil11" points="1226,1231 13792,1231 13792,13797 1226,13797 1226,1231 1270,1274 13749,1274 13749,13753 1270,13753 1270,1274 "/>
       <polygon id="_13" class="fil12" points="1248,1252 13771,1252 13771,13775 1248,13775 1248,1252 1292,1296 13727,1296 13727,13731 1292,13731 1292,1296 "/>
       <polygon id="_14" class="fil12" points="1270,1274 13749,1274 13749,13753 1270,13753 1270,1274 1314,1318 13705,1318 13705,13709 1314,13709 1314,1318 "/>
       <polygon id="_15" class="fil13" points="1292,1296 13727,1296 13727,13731 1292,13731 1292,1296 1335,1340 13683,1340 13683,13688 1335,13688 1335,1340 "/>
       <polygon id="_16" class="fil14" points="1314,1318 13705,1318 13705,13709 1314,13709 1314,1318 1357,1362 13661,1362 13661,13666 1357,13666 1357,1362 "/>
       <polygon id="_17" class="fil14" points="1335,1340 13683,1340 13683,13688 1335,13688 1335,1340 1379,1383 13640,1383 13640,13644 1379,13644 1379,1383 "/>
       <polygon id="_18" class="fil15" points="1357,1362 13661,1362 13661,13666 1357,13666 1357,1362 1401,1405 13618,1405 13618,13622 1401,13622 1401,1405 "/>
       <polygon id="_19" class="fil16" points="1379,1383 13640,1383 13640,13644 1379,13644 1379,1383 1423,1427 13596,1427 13596,13600 1423,13600 1423,1427 "/>
       <polygon id="_20" class="fil17" points="1401,1405 13618,1405 13618,13622 1401,13622 1401,1405 1444,1449 13574,1449 13574,13579 1444,13579 1444,1449 "/>
       <polygon id="_21" class="fil18" points="1423,1427 13596,1427 13596,13600 1423,13600 1423,1427 1466,1471 13552,1471 13552,13557 1466,13557 1466,1471 "/>
       <polygon id="_22" class="fil18" points="1444,1449 13574,1449 13574,13579 1444,13579 1444,1449 1488,1492 13531,1492 13531,13535 1488,13535 1488,1492 "/>
       <polygon id="_23" class="fil19" points="1466,1471 13552,1471 13552,13557 1466,13557 1466,1471 1510,1514 13509,1514 13509,13513 1510,13513 1510,1514 "/>
       <polygon id="_24" class="fil20" points="1488,1492 13531,1492 13531,13535 1488,13535 1488,1492 1532,1536 13487,1536 13487,13491 1532,13491 1532,1536 "/>
       <polygon id="_25" class="fil20" points="1510,1514 13509,1514 13509,13513 1510,13513 1510,1514 1554,1558 13465,1558 13465,13469 1554,13469 1554,1558 "/>
       <polygon id="_26" class="fil21" points="1532,1536 13487,1536 13487,13491 1532,13491 1532,1536 1575,1580 13443,1580 13443,13448 1575,13448 1575,1580 "/>
       <polygon id="_27" class="fil22" points="1554,1558 13465,1558 13465,13469 1554,13469 1554,1558 1597,1602 13421,1602 13421,13426 1597,13426 1597,1602 "/>
       <polygon id="_28" class="fil22" points="1575,1580 13443,1580 13443,13448 1575,13448 1575,1580 1619,1623 13400,1623 13400,13404 1619,13404 1619,1623 "/>
       <polygon id="_29" class="fil23" points="1597,1602 13421,1602 13421,13426 1597,13426 1597,1602 1641,1645 13378,1645 13378,13382 1641,13382 1641,1645 "/>
       <polygon id="_30" class="fil23" points="1619,1623 13400,1623 13400,13404 1619,13404 1619,1623 1663,1667 13356,1667 13356,13360 1663,13360 1663,1667 "/>
       <polygon id="_31" class="fil24" points="1641,1645 13378,1645 13378,13382 1641,13382 1641,1645 1684,1689 13334,1689 13334,13339 1684,13339 1684,1689 "/>
       <polygon id="_32" class="fil25" points="1663,1667 13356,1667 13356,13360 1663,13360 1663,1667 1706,1711 13312,1711 13312,13317 1706,13317 1706,1711 "/>
       <polygon id="_33" class="fil25" points="1684,1689 13334,1689 13334,13339 1684,13339 1684,1689 1728,1732 13291,1732 13291,13295 1728,13295 1728,1732 "/>
       <polygon id="_34" class="fil26" points="1706,1711 13312,1711 13312,13317 1706,13317 1706,1711 1750,1754 13269,1754 13269,13273 1750,13273 1750,1754 "/>
       <polygon id="_35" class="fil27" points="1728,1732 13291,1732 13291,13295 1728,13295 1728,1732 1772,1776 13247,1776 13247,13251 1772,13251 1772,1776 "/>
       <polygon id="_36" class="fil27" points="1750,1754 13269,1754 13269,13273 1750,13273 1750,1754 1793,1798 13225,1798 13225,13229 1793,13229 1793,1798 "/>
       <polygon id="_37" class="fil28" points="1772,1776 13247,1776 13247,13251 1772,13251 1772,1776 1815,1820 13203,1820 13203,13208 1815,13208 1815,1820 "/>
       <polygon id="_38" class="fil29" points="1793,1798 13225,1798 13225,13229 1793,13229 1793,1798 1837,1841 13181,1841 13181,13186 1837,13186 1837,1841 "/>
       <polygon id="_39" class="fil29" points="1815,1820 13203,1820 13203,13208 1815,13208 1815,1820 1859,1863 13160,1863 13160,13164 1859,13164 1859,1863 "/>
       <polygon id="_40" class="fil30" points="1837,1841 13181,1841 13181,13186 1837,13186 1837,1841 1881,1885 13138,1885 13138,13142 1881,13142 1881,1885 "/>
       <polygon id="_41" class="fil30" points="1859,1863 13160,1863 13160,13164 1859,13164 1859,1863 1903,1907 13116,1907 13116,13120 1903,13120 1903,1907 "/>
       <polygon id="_42" class="fil31" points="1881,1885 13138,1885 13138,13142 1881,13142 1881,1885 1924,1929 13094,1929 13094,13099 1924,13099 1924,1929 "/>
       <polygon id="_43" class="fil32" points="1903,1907 13116,1907 13116,13120 1903,13120 1903,1907 1946,1951 13072,1951 13072,13077 1946,13077 1946,1951 "/>
       <polygon id="_44" class="fil32" points="1924,1929 13094,1929 13094,13099 1924,13099 1924,1929 1968,1972 13051,1972 13051,13055 1968,13055 1968,1972 "/>
       <polygon id="_45" class="fil33" points="1946,1951 13072,1951 13072,13077 1946,13077 1946,1951 1990,1994 13029,1994 13029,13033 1990,13033 1990,1994 "/>
       <polygon id="_46" class="fil34" points="1968,1972 13051,1972 13051,13055 1968,13055 1968,1972 2012,2016 13007,2016 13007,13011 2012,13011 2012,2016 "/>
       <polygon id="_47" class="fil34" points="1990,1994 13029,1994 13029,13033 1990,13033 1990,1994 2033,2038 12985,2038 12985,12990 2033,12990 2033,2038 "/>
       <polygon id="_48" class="fil35" points="2012,2016 13007,2016 13007,13011 2012,13011 2012,2016 2055,2060 12963,2060 12963,12968 2055,12968 2055,2060 "/>
       <polygon id="_49" class="fil36" points="2033,2038 12985,2038 12985,12990 2033,12990 2033,2038 2077,2081 12942,2081 12942,12946 2077,12946 2077,2081 "/>
       <polygon id="_50" class="fil37" points="2055,2060 12963,2060 12963,12968 2055,12968 2055,2060 2099,2103 12920,2103 12920,12924 2099,12924 2099,2103 "/>
       <polygon id="_51" class="fil38" points="2077,2081 12942,2081 12942,12946 2077,12946 2077,2081 2121,2125 12898,2125 12898,12902 2121,12902 2121,2125 "/>
       <polygon id="_52" class="fil39" points="2099,2103 12920,2103 12920,12924 2099,12924 2099,2103 2143,2147 12876,2147 12876,12880 2143,12880 2143,2147 "/>
       <polygon id="_53" class="fil40" points="2121,2125 12898,2125 12898,12902 2121,12902 2121,2125 2164,2169 12854,2169 12854,12859 2164,12859 2164,2169 "/>
       <polygon id="_54" class="fil41" points="2143,2147 12876,2147 12876,12880 2143,12880 2143,2147 2186,2191 12832,2191 12832,12837 2186,12837 2186,2191 "/>
       <polygon id="_55" class="fil42" points="2164,2169 12854,2169 12854,12859 2164,12859 2164,2169 2208,2212 12811,2212 12811,12815 2208,12815 2208,2212 "/>
       <polygon id="_56" class="fil43" points="2186,2191 12832,2191 12832,12837 2186,12837 2186,2191 2230,2234 12789,2234 12789,12793 2230,12793 2230,2234 "/>
       <polygon id="_57" class="fil44" points="2208,2212 12811,2212 12811,12815 2208,12815 2208,2212 2252,2256 12767,2256 12767,12771 2252,12771 2252,2256 "/>
       <polygon id="_58" class="fil44" points="2230,2234 12789,2234 12789,12793 2230,12793 2230,2234 2273,2278 12745,2278 12745,12750 2273,12750 2273,2278 "/>
       <polygon id="_59" class="fil44" points="2252,2256 12767,2256 12767,12771 2252,12771 2252,2256 2295,2300 12723,2300 12723,12728 2295,12728 2295,2300 "/>
       <polygon id="_60" class="fil44" points="2273,2278 12745,2278 12745,12750 2273,12750 2273,2278 2317,2321 12702,2321 12702,12706 2317,12706 2317,2321 "/>
       <polygon id="_61" class="fil44" points="2295,2300 12723,2300 12723,12728 2295,12728 2295,2300 2339,2343 12680,2343 12680,12684 2339,12684 2339,2343 "/>
       <polygon id="_62" class="fil44" points="2317,2321 12702,2321 12702,12706 2317,12706 2317,2321 2361,2365 12658,2365 12658,12662 2361,12662 2361,2365 "/>
       <polygon id="_63" class="fil44" points="2339,2343 12680,2343 12680,12684 2339,12684 2339,2343 2383,2387 12636,2387 12636,12640 2383,12640 2383,2387 "/>
       <polygon id="_64" class="fil44" points="2361,2365 12658,2365 12658,12662 2361,12662 2361,2365 2404,2409 12614,2409 12614,12619 2404,12619 2404,2409 "/>
       <polygon id="_65" class="fil44" points="2383,2387 12636,2387 12636,12640 2383,12640 2383,2387 2426,2431 12592,2431 12592,12597 2426,12597 2426,2431 "/>
       <polygon id="_66" class="fil44" points="2404,2409 12614,2409 12614,12619 2404,12619 2404,2409 2448,2452 12571,2452 12571,12575 2448,12575 2448,2452 "/>
       <polygon id="_67" class="fil44" points="2426,2431 12592,2431 12592,12597 2426,12597 2426,2431 2470,2474 12549,2474 12549,12553 2470,12553 2470,2474 "/>
       <polygon id="_68" class="fil44" points="2448,2452 12571,2452 12571,12575 2448,12575 2448,2452 2492,2496 12527,2496 12527,12531 2492,12531 2492,2496 "/>
       <polygon id="_69" class="fil44" points="2470,2474 12549,2474 12549,12553 2470,12553 2470,2474 2513,2518 12505,2518 12505,12510 2513,12510 2513,2518 "/>
       <polygon id="_70" class="fil44" points="2492,2496 12527,2496 12527,12531 2492,12531 2492,2496 2535,2540 12483,2540 12483,12488 2535,12488 2535,2540 "/>
       <polygon id="_71" class="fil44" points="2513,2518 12505,2518 12505,12510 2513,12510 2513,2518 2557,2561 12462,2561 12462,12466 2557,12466 2557,2561 "/>
       <polygon id="_72" class="fil44" points="2535,2540 12483,2540 12483,12488 2535,12488 2535,2540 2579,2583 12440,2583 12440,12444 2579,12444 2579,2583 "/>
       <polygon id="_73" class="fil44" points="2557,2561 12462,2561 12462,12466 2557,12466 2557,2561 2601,2605 12418,2605 12418,12422 2601,12422 2601,2605 "/>
       <polygon id="_74" class="fil44" points="2579,2583 12440,2583 12440,12444 2579,12444 2579,2583 2622,2627 12396,2627 12396,12400 2622,12400 2622,2627 "/>
       <polygon id="_75" class="fil44" points="2601,2605 12418,2605 12418,12422 2601,12422 2601,2605 2644,2649 12374,2649 12374,12379 2644,12379 2644,2649 "/>
       <polygon id="_76" class="fil44" points="2622,2627 12396,2627 12396,12400 2622,12400 2622,2627 2666,2671 12352,2671 12352,12357 2666,12357 2666,2671 "/>
       <polygon id="_77" class="fil44" points="2644,2649 12374,2649 12374,12379 2644,12379 2644,2649 2688,2692 12331,2692 12331,12335 2688,12335 2688,2692 "/>
       <polygon id="_78" class="fil44" points="2666,2671 12352,2671 12352,12357 2666,12357 2666,2671 2710,2714 12309,2714 12309,12313 2710,12313 2710,2714 "/>
       <polygon id="_79" class="fil44" points="2688,2692 12331,2692 12331,12335 2688,12335 2688,2692 2732,2736 12287,2736 12287,12291 2732,12291 2732,2736 "/>
       <polygon id="_80" class="fil44" points="2710,2714 12309,2714 12309,12313 2710,12313 2710,2714 2753,2758 12265,2758 12265,12270 2753,12270 2753,2758 "/>
       <polygon id="_81" class="fil44" points="2732,2736 12287,2736 12287,12291 2732,12291 2732,2736 2775,2780 12243,2780 12243,12248 2775,12248 2775,2780 "/>
       <polygon id="_82" class="fil44" points="2753,2758 12265,2758 12265,12270 2753,12270 2753,2758 2797,2801 12222,2801 12222,12226 2797,12226 2797,2801 "/>
       <polygon id="_83" class="fil44" points="2775,2780 12243,2780 12243,12248 2775,12248 2775,2780 2819,2823 12200,2823 12200,12204 2819,12204 2819,2823 "/>
       <polygon id="_84" class="fil44" points="2797,2801 12222,2801 12222,12226 2797,12226 2797,2801 2841,2845 12178,2845 12178,12182 2841,12182 2841,2845 "/>
       <polygon id="_85" class="fil44" points="2819,2823 12200,2823 12200,12204 2819,12204 2819,2823 2862,2867 12156,2867 12156,12161 2862,12161 2862,2867 "/>
       <polygon id="_86" class="fil44" points="2841,2845 12178,2845 12178,12182 2841,12182 2841,2845 2884,2889 12134,2889 12134,12139 2884,12139 2884,2889 "/>
       <polygon id="_87" class="fil44" points="2862,2867 12156,2867 12156,12161 2862,12161 2862,2867 2906,2910 12113,2910 12113,12117 2906,12117 2906,2910 "/>
       <polygon id="_88" class="fil44" points="2884,2889 12134,2889 12134,12139 2884,12139 2884,2889 2928,2932 12091,2932 12091,12095 2928,12095 2928,2932 "/>
       <polygon id="_89" class="fil44" points="2906,2910 12113,2910 12113,12117 2906,12117 2906,2910 2950,2954 12069,2954 12069,12073 2950,12073 2950,2954 "/>
       <polygon id="_90" class="fil44" points="2928,2932 12091,2932 12091,12095 2928,12095 2928,2932 2972,2976 12047,2976 12047,12051 2972,12051 2972,2976 "/>
       <polygon id="_91" class="fil44" points="2950,2954 12069,2954 12069,12073 2950,12073 2950,2954 2993,2998 12025,2998 12025,12030 2993,12030 2993,2998 "/>
       <polygon id="_92" class="fil44" points="2972,2976 12047,2976 12047,12051 2972,12051 2972,2976 3015,3020 12003,3020 12003,12008 3015,12008 3015,3020 "/>
       <polygon id="_93" class="fil44" points="2993,2998 12025,2998 12025,12030 2993,12030 2993,2998 3037,3041 11982,3041 11982,11986 3037,11986 3037,3041 "/>
       <polygon id="_94" class="fil44" points="3015,3020 12003,3020 12003,12008 3015,12008 3015,3020 3059,3063 11960,3063 11960,11964 3059,11964 3059,3063 "/>
       <polygon id="_95" class="fil44" points="3037,3041 11982,3041 11982,11986 3037,11986 3037,3041 3081,3085 11938,3085 11938,11942 3081,11942 3081,3085 "/>
       <polygon id="_96" class="fil44" points="3059,3063 11960,3063 11960,11964 3059,11964 3059,3063 3102,3107 11916,3107 11916,11921 3102,11921 3102,3107 "/>
       <polygon id="_97" class="fil44" points="3081,3085 11938,3085 11938,11942 3081,11942 3081,3085 3124,3129 11894,3129 11894,11899 3124,11899 3124,3129 "/>
       <polygon id="_98" class="fil44" points="3102,3107 11916,3107 11916,11921 3102,11921 3102,3107 3146,3150 11872,3150 11872,11877 3146,11877 3146,3150 "/>
       <polygon id="_99" class="fil44" points="3124,3129 11894,3129 11894,11899 3124,11899 3124,3129 3168,3172 11851,3172 11851,11855 3168,11855 3168,3172 "/>
       <polygon id="_100" class="fil44" points="3146,3150 11873,3150 11873,11877 3146,11877 3146,3150 3190,3194 11829,3194 11829,11833 3190,11833 3190,3194 "/>
       <polygon id="_101" class="fil44" points="3168,3172 11851,3172 11851,11855 3168,11855 3168,3172 3212,3216 11807,3216 11807,11811 3212,11811 3212,3216 "/>
       <polygon id="_102" class="fil44" points="3190,3194 11829,3194 11829,11833 3190,11833 3190,3194 3233,3238 11785,3238 11785,11790 3233,11790 3233,3238 "/>
       <polygon id="_103" class="fil44" points="3212,3216 11807,3216 11807,11811 3212,11811 3212,3216 3255,3260 11763,3260 11763,11768 3255,11768 3255,3260 "/>
       <polygon id="_104" class="fil44" points="3233,3238 11785,3238 11785,11790 3233,11790 3233,3238 3277,3281 11742,3281 11742,11746 3277,11746 3277,3281 "/>
       <polygon id="_105" class="fil44" points="3255,3260 11763,3260 11763,11768 3255,11768 3255,3260 3299,3303 11720,3303 11720,11724 3299,11724 3299,3303 "/>
       <polygon id="_106" class="fil44" points="3277,3281 11742,3281 11742,11746 3277,11746 3277,3281 3321,3325 11698,3325 11698,11702 3321,11702 3321,3325 "/>
       <polygon id="_107" class="fil44" points="3299,3303 11720,3303 11720,11724 3299,11724 3299,3303 3342,3347 11676,3347 11676,11681 3342,11681 3342,3347 "/>
       <polygon id="_108" class="fil44" points="3321,3325 11698,3325 11698,11702 3321,11702 3321,3325 3364,3369 11654,3369 11654,11659 3364,11659 3364,3369 "/>
       <polygon id="_109" class="fil44" points="3342,3347 11676,3347 11676,11681 3342,11681 3342,3347 3386,3390 11633,3390 11633,11637 3386,11637 3386,3390 "/>
       <polygon id="_110" class="fil44" points="3364,3369 11654,3369 11654,11659 3364,11659 3364,3369 3408,3412 11611,3412 11611,11615 3408,11615 3408,3412 "/>
       <polygon id="_111" class="fil44" points="3386,3390 11633,3390 11633,11637 3386,11637 3386,3390 3430,3434 11589,3434 11589,11593 3430,11593 3430,3434 "/>
       <polygon id="_112" class="fil44" points="3408,3412 11611,3412 11611,11615 3408,11615 3408,3412 3451,3456 11567,3456 11567,11571 3451,11571 3451,3456 "/>
       <polygon id="_113" class="fil44" points="3430,3434 11589,3434 11589,11593 3430,11593 3430,3434 3473,3478 11545,3478 11545,11550 3473,11550 3473,3478 "/>
       <polygon id="_114" class="fil44" points="3451,3456 11567,3456 11567,11571 3451,11571 3451,3456 3495,3500 11523,3500 11523,11528 3495,11528 3495,3500 "/>
       <polygon id="_115" class="fil44" points="3473,3478 11545,3478 11545,11550 3473,11550 3473,3478 3517,3521 11502,3521 11502,11506 3517,11506 3517,3521 "/>
       <polygon id="_116" class="fil44" points="3495,3500 11523,3500 11523,11528 3495,11528 3495,3500 3539,3543 11480,3543 11480,11484 3539,11484 3539,3543 "/>
       <polygon id="_117" class="fil44" points="3517,3521 11502,3521 11502,11506 3517,11506 3517,3521 3561,3565 11458,3565 11458,11462 3561,11462 3561,3565 "/>
       <polygon id="_118" class="fil44" points="3539,3543 11480,3543 11480,11484 3539,11484 3539,3543 3582,3587 11436,3587 11436,11441 3582,11441 3582,3587 "/>
       <polygon id="_119" class="fil44" points="3561,3565 11458,3565 11458,11462 3561,11462 3561,3565 3604,3609 11414,3609 11414,11419 3604,11419 3604,3609 "/>
       <polygon id="_120" class="fil44" points="3582,3587 11436,3587 11436,11441 3582,11441 3582,3587 3626,3630 11393,3630 11393,11397 3626,11397 3626,3630 "/>
       <polygon id="_121" class="fil44" points="3604,3609 11414,3609 11414,11419 3604,11419 3604,3609 3648,3652 11371,3652 11371,11375 3648,11375 3648,3652 "/>
       <polygon id="_122" class="fil44" points="3626,3630 11393,3630 11393,11397 3626,11397 3626,3630 3670,3674 11349,3674 11349,11353 3670,11353 3670,3674 "/>
       <polygon id="_123" class="fil44" points="3648,3652 11371,3652 11371,11375 3648,11375 3648,3652 3692,3696 11327,3696 11327,11332 3692,11332 3692,3696 "/>
       <polygon id="_124" class="fil44" points="3670,3674 11349,3674 11349,11353 3670,11353 3670,3674 3713,3718 11305,3718 11305,11310 3713,11310 3713,3718 "/>
       <polygon id="_125" class="fil44" points="3691,3696 11327,3696 11327,11332 3691,11332 3691,3696 3735,3739 11283,3739 11283,11288 3735,11288 3735,3739 "/>
       <polygon id="_126" class="fil44" points="3713,3718 11305,3718 11305,11310 3713,11310 3713,3718 3757,3761 11262,3761 11262,11266 3757,11266 3757,3761 "/>
       <polygon id="_127" class="fil44" points="3735,3739 11283,3739 11283,11288 3735,11288 3735,3739 3779,3783 11240,3783 11240,11244 3779,11244 3779,3783 "/>
       <polygon id="_128" class="fil44" points="3757,3761 11262,3761 11262,11266 3757,11266 3757,3761 3801,3805 11218,3805 11218,11222 3801,11222 3801,3805 "/>
       <polygon id="_129" class="fil44" points="3779,3783 11240,3783 11240,11244 3779,11244 3779,3783 3822,3827 11196,3827 11196,11201 3822,11201 3822,3827 "/>
       <polygon id="_130" class="fil44" points="3801,3805 11218,3805 11218,11222 3801,11222 3801,3805 3844,3849 11174,3849 11174,11179 3844,11179 3844,3849 "/>
       <polygon id="_131" class="fil44" points="3822,3827 11196,3827 11196,11201 3822,11201 3822,3827 3866,3870 11153,3870 11153,11157 3866,11157 3866,3870 "/>
       <polygon id="_132" class="fil44" points="3844,3849 11174,3849 11174,11179 3844,11179 3844,3849 3888,3892 11131,3892 11131,11135 3888,11135 3888,3892 "/>
       <polygon id="_133" class="fil44" points="3866,3870 11153,3870 11153,11157 3866,11157 3866,3870 3910,3914 11109,3914 11109,11113 3910,11113 3910,3914 "/>
       <polygon id="_134" class="fil44" points="3888,3892 11131,3892 11131,11135 3888,11135 3888,3892 3931,3936 11087,3936 11087,11092 3931,11092 3931,3936 "/>
       <polygon id="_135" class="fil44" points="3910,3914 11109,3914 11109,11113 3910,11113 3910,3914 3953,3958 11065,3958 11065,11070 3953,11070 3953,3958 "/>
       <polygon id="_136" class="fil44" points="3931,3936 11087,3936 11087,11092 3931,11092 3931,3936 3975,3979 11043,3979 11043,11048 3975,11048 3975,3979 "/>
       <polygon id="_137" class="fil44" points="3953,3958 11065,3958 11065,11070 3953,11070 3953,3958 3997,4001 11022,4001 11022,11026 3997,11026 3997,4001 "/>
       <polygon id="_138" class="fil44" points="3975,3979 11043,3979 11043,11048 3975,11048 3975,3979 4019,4023 11000,4023 11000,11004 4019,11004 4019,4023 "/>
       <polygon id="_139" class="fil44" points="3997,4001 11022,4001 11022,11026 3997,11026 3997,4001 4041,4045 10978,4045 10978,10982 4041,10982 4041,4045 "/>
       <polygon id="_140" class="fil44" points="4019,4023 11000,4023 11000,11004 4019,11004 4019,4023 4062,4067 10956,4067 10956,10961 4062,10961 4062,4067 "/>
       <polygon id="_141" class="fil44" points="4041,4045 10978,4045 10978,10982 4041,10982 4041,4045 4084,4089 10934,4089 10934,10939 4084,10939 4084,4089 "/>
       <polygon id="_142" class="fil44" points="4062,4067 10956,4067 10956,10961 4062,10961 4062,4067 4106,4110 10913,4110 10913,10917 4106,10917 4106,4110 "/>
       <polygon id="_143" class="fil44" points="4084,4089 10934,4089 10934,10939 4084,10939 4084,4089 4128,4132 10891,4132 10891,10895 4128,10895 4128,4132 "/>
       <polygon id="_144" class="fil44" points="4106,4110 10913,4110 10913,10917 4106,10917 4106,4110 4150,4154 10869,4154 10869,10873 4150,10873 4150,4154 "/>
       <polygon id="_145" class="fil44" points="4128,4132 10891,4132 10891,10895 4128,10895 4128,4132 4171,4176 10847,4176 10847,10852 4171,10852 4171,4176 "/>
       <polygon id="_146" class="fil44" points="4150,4154 10869,4154 10869,10873 4150,10873 4150,4154 4193,4198 10825,4198 10825,10830 4193,10830 4193,4198 "/>
       <polygon id="_147" class="fil44" points="4171,4176 10847,4176 10847,10852 4171,10852 4171,4176 4215,4219 10804,4219 10804,10808 4215,10808 4215,4219 "/>
       <polygon id="_148" class="fil44" points="4193,4198 10825,4198 10825,10830 4193,10830 4193,4198 4237,4241 10782,4241 10782,10786 4237,10786 4237,4241 "/>
       <polygon id="_149" class="fil44" points="4215,4219 10804,4219 10804,10808 4215,10808 4215,4219 4259,4263 10760,4263 10760,10764 4259,10764 4259,4263 "/>
       <polygon id="_150" class="fil44" points="4237,4241 10782,4241 10782,10786 4237,10786 4237,4241 4281,4285 10738,4285 10738,10742 4281,10742 4281,4285 "/>
       <polygon id="_151" class="fil44" points="4259,4263 10760,4263 10760,10764 4259,10764 4259,4263 4302,4307 10716,4307 10716,10721 4302,10721 4302,4307 "/>
       <polygon id="_152" class="fil44" points="4281,4285 10738,4285 10738,10742 4281,10742 4281,4285 4324,4329 10694,4329 10694,10699 4324,10699 4324,4329 "/>
       <polygon id="_153" class="fil44" points="4302,4307 10716,4307 10716,10721 4302,10721 4302,4307 4346,4350 10673,4350 10673,10677 4346,10677 4346,4350 "/>
       <polygon id="_154" class="fil44" points="4324,4329 10694,4329 10694,10699 4324,10699 4324,4329 4368,4372 10651,4372 10651,10655 4368,10655 4368,4372 "/>
       <polygon id="_155" class="fil44" points="4346,4350 10673,4350 10673,10677 4346,10677 4346,4350 4390,4394 10629,4394 10629,10633 4390,10633 4390,4394 "/>
       <polygon id="_156" class="fil44" points="4368,4372 10651,4372 10651,10655 4368,10655 4368,4372 4411,4416 10607,4416 10607,10612 4411,10612 4411,4416 "/>
       <polygon id="_157" class="fil44" points="4390,4394 10629,4394 10629,10633 4390,10633 4390,4394 4433,4438 10585,4438 10585,10590 4433,10590 4433,4438 "/>
       <polygon id="_158" class="fil44" points="4411,4416 10607,4416 10607,10612 4411,10612 4411,4416 4455,4459 10564,4459 10564,10568 4455,10568 4455,4459 "/>
       <polygon id="_159" class="fil44" points="4433,4438 10585,4438 10585,10590 4433,10590 4433,4438 4477,4481 10542,4481 10542,10546 4477,10546 4477,4481 "/>
       <polygon id="_160" class="fil44" points="4455,4459 10564,4459 10564,10568 4455,10568 4455,4459 4499,4503 10520,4503 10520,10524 4499,10524 4499,4503 "/>
       <polygon id="_161" class="fil44" points="4477,4481 10542,4481 10542,10546 4477,10546 4477,4481 4521,4525 10498,4525 10498,10502 4521,10502 4521,4525 "/>
       <polygon id="_162" class="fil44" points="4499,4503 10520,4503 10520,10524 4499,10524 4499,4503 4542,4547 10476,4547 10476,10481 4542,10481 4542,4547 "/>
       <polygon id="_163" class="fil44" points="4521,4525 10498,4525 10498,10503 4521,10503 4521,4525 4564,4569 10454,4569 10454,10459 4564,10459 4564,4569 "/>
       <polygon id="_164" class="fil44" points="4542,4547 10476,4547 10476,10481 4542,10481 4542,4547 4586,4590 10433,4590 10433,10437 4586,10437 4586,4590 "/>
       <polygon id="_165" class="fil44" points="4564,4569 10454,4569 10454,10459 4564,10459 4564,4569 4608,4612 10411,4612 10411,10415 4608,10415 4608,4612 "/>
       <polygon id="_166" class="fil44" points="4586,4590 10433,4590 10433,10437 4586,10437 4586,4590 4630,4634 10389,4634 10389,10393 4630,10393 4630,4634 "/>
       <polygon id="_167" class="fil44" points="4608,4612 10411,4612 10411,10415 4608,10415 4608,4612 4651,4656 10367,4656 10367,10372 4651,10372 4651,4656 "/>
       <polygon id="_168" class="fil44" points="4630,4634 10389,4634 10389,10393 4630,10393 4630,4634 4673,4678 10345,4678 10345,10350 4673,10350 4673,4678 "/>
       <polygon id="_169" class="fil44" points="4651,4656 10367,4656 10367,10372 4651,10372 4651,4656 4695,4699 10324,4699 10324,10328 4695,10328 4695,4699 "/>
       <polygon id="_170" class="fil44" points="4673,4678 10345,4678 10345,10350 4673,10350 4673,4678 4717,4721 10302,4721 10302,10306 4717,10306 4717,4721 "/>
       <polygon id="_171" class="fil44" points="4695,4699 10324,4699 10324,10328 4695,10328 4695,4699 4739,4743 10280,4743 10280,10284 4739,10284 4739,4743 "/>
       <polygon id="_172" class="fil44" points="4717,4721 10302,4721 10302,10306 4717,10306 4717,4721 4760,4765 10258,4765 10258,10262 4760,10262 4760,4765 "/>
       <polygon id="_173" class="fil44" points="4739,4743 10280,4743 10280,10284 4739,10284 4739,4743 4782,4787 10236,4787 10236,10241 4782,10241 4782,4787 "/>
       <polygon id="_174" class="fil44" points="4760,4765 10258,4765 10258,10262 4760,10262 4760,4765 4804,4808 10214,4808 10214,10219 4804,10219 4804,4808 "/>
       <polygon id="_175" class="fil44" points="4782,4787 10236,4787 10236,10241 4782,10241 4782,4787 4826,4830 10193,4830 10193,10197 4826,10197 4826,4830 "/>
       <polygon id="_176" class="fil44" points="4804,4808 10214,4808 10214,10219 4804,10219 4804,4808 4848,4852 10171,4852 10171,10175 4848,10175 4848,4852 "/>
       <polygon id="_177" class="fil44" points="4826,4830 10193,4830 10193,10197 4826,10197 4826,4830 4870,4874 10149,4874 10149,10153 4870,10153 4870,4874 "/>
       <polygon id="_178" class="fil44" points="4848,4852 10171,4852 10171,10175 4848,10175 4848,4852 4891,4896 10127,4896 10127,10132 4891,10132 4891,4896 "/>
       <polygon id="_179" class="fil44" points="4870,4874 10149,4874 10149,10153 4870,10153 4870,4874 4913,4918 10105,4918 10105,10110 4913,10110 4913,4918 "/>
       <polygon id="_180" class="fil44" points="4891,4896 10127,4896 10127,10132 4891,10132 4891,4896 4935,4939 10084,4939 10084,10088 4935,10088 4935,4939 "/>
       <polygon id="_181" class="fil44" points="4913,4918 10105,4918 10105,10110 4913,10110 4913,4918 4957,4961 10062,4961 10062,10066 4957,10066 4957,4961 "/>
       <polygon id="_182" class="fil44" points="4935,4939 10084,4939 10084,10088 4935,10088 4935,4939 4979,4983 10040,4983 10040,10044 4979,10044 4979,4983 "/>
       <polygon id="_183" class="fil44" points="4957,4961 10062,4961 10062,10066 4957,10066 4957,4961 5000,5005 10018,5005 10018,10023 5000,10023 5000,5005 "/>
       <polygon id="_184" class="fil44" points="4979,4983 10040,4983 10040,10044 4979,10044 4979,4983 5022,5027 9996,5027 9996,10001 5022,10001 5022,5027 "/>
       <polygon id="_185" class="fil44" points="5000,5005 10018,5005 10018,10023 5000,10023 5000,5005 5044,5048 9975,5048 9975,9979 5044,9979 5044,5048 "/>
       <polygon id="_186" class="fil44" points="5022,5027 9996,5027 9996,10001 5022,10001 5022,5027 5066,5070 9953,5070 9953,9957 5066,9957 5066,5070 "/>
       <polygon id="_187" class="fil44" points="5044,5048 9975,5048 9975,9979 5044,9979 5044,5048 5088,5092 9931,5092 9931,9935 5088,9935 5088,5092 "/>
       <polygon id="_188" class="fil44" points="5066,5070 9953,5070 9953,9957 5066,9957 5066,5070 5110,5114 9909,5114 9909,9913 5110,9913 5110,5114 "/>
       <polygon id="_189" class="fil44" points="5088,5092 9931,5092 9931,9935 5088,9935 5088,5092 5131,5136 9887,5136 9887,9892 5131,9892 5131,5136 "/>
       <polygon id="_190" class="fil44" points="5110,5114 9909,5114 9909,9913 5110,9913 5110,5114 5153,5158 9865,5158 9865,9870 5153,9870 5153,5158 "/>
       <polygon id="_191" class="fil44" points="5131,5136 9887,5136 9887,9892 5131,9892 5131,5136 5175,5179 9844,5179 9844,9848 5175,9848 5175,5179 "/>
       <polygon id="_192" class="fil44" points="5153,5158 9865,5158 9865,9870 5153,9870 5153,5158 5197,5201 9822,5201 9822,9826 5197,9826 5197,5201 "/>
       <polygon id="_193" class="fil44" points="5175,5179 9844,5179 9844,9848 5175,9848 5175,5179 5219,5223 9800,5223 9800,9804 5219,9804 5219,5223 "/>
       <polygon id="_194" class="fil44" points="5197,5201 9822,5201 9822,9826 5197,9826 5197,5201 5240,5245 9778,5245 9778,9783 5240,9783 5240,5245 "/>
       <polygon id="_195" class="fil44" points="5219,5223 9800,5223 9800,9804 5219,9804 5219,5223 5262,5267 9756,5267 9756,9761 5262,9761 5262,5267 "/>
       <polygon id="_196" class="fil44" points="5240,5245 9778,5245 9778,9783 5240,9783 5240,5245 5284,5288 9735,5288 9735,9739 5284,9739 5284,5288 "/>
       <polygon id="_197" class="fil44" points="5262,5267 9756,5267 9756,9761 5262,9761 5262,5267 5306,5310 9713,5310 9713,9717 5306,9717 5306,5310 "/>
       <polygon id="_198" class="fil44" points="5284,5288 9735,5288 9735,9739 5284,9739 5284,5288 5328,5332 9691,5332 9691,9695 5328,9695 5328,5332 "/>
       <polygon id="_199" class="fil44" points="5306,5310 9713,5310 9713,9717 5306,9717 5306,5310 5350,5354 9669,5354 9669,9673 5350,9673 5350,5354 "/>
       <polygon id="_200" class="fil44" points="5328,5332 9691,5332 9691,9695 5328,9695 5328,5332 5371,5376 9647,5376 9647,9652 5371,9652 5371,5376 "/>
       <polygon id="_201" class="fil44" points="5350,5354 9669,5354 9669,9673 5350,9673 5350,5354 5393,5398 9625,5398 9625,9630 5393,9630 5393,5398 "/>
       <polygon id="_202" class="fil44" points="5371,5376 9647,5376 9647,9652 5371,9652 5371,5376 5415,5419 9604,5419 9604,9608 5415,9608 5415,5419 "/>
       <polygon id="_203" class="fil44" points="5393,5398 9625,5398 9625,9630 5393,9630 5393,5398 5437,5441 9582,5441 9582,9586 5437,9586 5437,5441 "/>
       <polygon id="_204" class="fil44" points="5415,5419 9604,5419 9604,9608 5415,9608 5415,5419 5459,5463 9560,5463 9560,9564 5459,9564 5459,5463 "/>
       <polygon id="_205" class="fil44" points="5437,5441 9582,5441 9582,9586 5437,9586 5437,5441 5480,5485 9538,5485 9538,9543 5480,9543 5480,5485 "/>
       <polygon id="_206" class="fil44" points="5459,5463 9560,5463 9560,9564 5459,9564 5459,5463 5502,5507 9516,5507 9516,9521 5502,9521 5502,5507 "/>
       <polygon id="_207" class="fil44" points="5480,5485 9538,5485 9538,9543 5480,9543 5480,5485 5524,5528 9495,5528 9495,9499 5524,9499 5524,5528 "/>
       <polygon id="_208" class="fil44" points="5502,5507 9516,5507 9516,9521 5502,9521 5502,5507 5546,5550 9473,5550 9473,9477 5546,9477 5546,5550 "/>
       <polygon id="_209" class="fil44" points="5524,5528 9495,5528 9495,9499 5524,9499 5524,5528 5568,5572 9451,5572 9451,9455 5568,9455 5568,5572 "/>
       <polygon id="_210" class="fil44" points="5546,5550 9473,5550 9473,9477 5546,9477 5546,5550 5589,5594 9429,5594 9429,9433 5589,9433 5589,5594 "/>
       <polygon id="_211" class="fil44" points="5568,5572 9451,5572 9451,9455 5568,9455 5568,5572 5611,5616 9407,5616 9407,9412 5611,9412 5611,5616 "/>
       <polygon id="_212" class="fil44" points="5589,5594 9429,5594 9429,9433 5589,9433 5589,5594 5633,5637 9385,5637 9385,9390 5633,9390 5633,5637 "/>
       <polygon id="_213" class="fil44" points="5611,5616 9407,5616 9407,9412 5611,9412 5611,5616 5655,5659 9364,5659 9364,9368 5655,9368 5655,5659 "/>
       <polygon id="_214" class="fil44" points="5633,5637 9385,5637 9385,9390 5633,9390 5633,5637 5677,5681 9342,5681 9342,9346 5677,9346 5677,5681 "/>
       <polygon id="_215" class="fil44" points="5655,5659 9364,5659 9364,9368 5655,9368 5655,5659 5699,5703 9320,5703 9320,9324 5699,9324 5699,5703 "/>
       <polygon id="_216" class="fil44" points="5677,5681 9342,5681 9342,9346 5677,9346 5677,5681 5720,5725 9298,5725 9298,9303 5720,9303 5720,5725 "/>
       <polygon id="_217" class="fil44" points="5699,5703 9320,5703 9320,9324 5699,9324 5699,5703 5742,5747 9276,5747 9276,9281 5742,9281 5742,5747 "/>
       <polygon id="_218" class="fil44" points="5720,5725 9298,5725 9298,9303 5720,9303 5720,5725 5764,5768 9255,5768 9255,9259 5764,9259 5764,5768 "/>
       <polygon id="_219" class="fil44" points="5742,5747 9276,5747 9276,9281 5742,9281 5742,5747 5786,5790 9233,5790 9233,9237 5786,9237 5786,5790 "/>
       <polygon id="_220" class="fil44" points="5764,5768 9255,5768 9255,9259 5764,9259 5764,5768 5808,5812 9211,5812 9211,9215 5808,9215 5808,5812 "/>
       <polygon id="_221" class="fil44" points="5786,5790 9233,5790 9233,9237 5786,9237 5786,5790 5829,5834 9189,5834 9189,9194 5829,9194 5829,5834 "/>
       <polygon id="_222" class="fil44" points="5808,5812 9211,5812 9211,9215 5808,9215 5808,5812 5851,5856 9167,5856 9167,9172 5851,9172 5851,5856 "/>
       <polygon id="_223" class="fil44" points="5829,5834 9189,5834 9189,9194 5829,9194 5829,5834 5873,5877 9146,5877 9146,9150 5873,9150 5873,5877 "/>
       <polygon id="_224" class="fil44" points="5851,5856 9167,5856 9167,9172 5851,9172 5851,5856 5895,5899 9124,5899 9124,9128 5895,9128 5895,5899 "/>
       <polygon id="_225" class="fil44" points="5873,5877 9146,5877 9146,9150 5873,9150 5873,5877 5917,5921 9102,5921 9102,9106 5917,9106 5917,5921 "/>
       <polygon id="_226" class="fil44" points="5895,5899 9124,5899 9124,9128 5895,9128 5895,5899 5939,5943 9080,5943 9080,9084 5939,9084 5939,5943 "/>
       <polygon id="_227" class="fil44" points="5917,5921 9102,5921 9102,9106 5917,9106 5917,5921 5960,5965 9058,5965 9058,9063 5960,9063 5960,5965 "/>
       <polygon id="_228" class="fil44" points="5939,5943 9080,5943 9080,9084 5939,9084 5939,5943 5982,5987 9036,5987 9036,9041 5982,9041 5982,5987 "/>
       <polygon id="_229" class="fil44" points="5960,5965 9058,5965 9058,9063 5960,9063 5960,5965 6004,6008 9015,6008 9015,9019 6004,9019 6004,6008 "/>
       <polygon id="_230" class="fil44" points="5982,5987 9036,5987 9036,9041 5982,9041 5982,5987 6026,6030 8993,6030 8993,8997 6026,8997 6026,6030 "/>
       <polygon id="_231" class="fil44" points="6004,6008 9015,6008 9015,9019 6004,9019 6004,6008 6048,6052 8971,6052 8971,8975 6048,8975 6048,6052 "/>
       <polygon id="_232" class="fil44" points="6026,6030 8993,6030 8993,8997 6026,8997 6026,6030 6069,6074 8949,6074 8949,8954 6069,8954 6069,6074 "/>
       <polygon id="_233" class="fil44" points="6048,6052 8971,6052 8971,8975 6048,8975 6048,6052 6091,6096 8927,6096 8927,8932 6091,8932 6091,6096 "/>
       <polygon id="_234" class="fil44" points="6069,6074 8949,6074 8949,8954 6069,8954 6069,6074 6113,6117 8906,6117 8906,8910 6113,8910 6113,6117 "/>
       <polygon id="_235" class="fil44" points="6091,6096 8927,6096 8927,8932 6091,8932 6091,6096 6135,6139 8884,6139 8884,8888 6135,8888 6135,6139 "/>
       <polygon id="_236" class="fil44" points="6113,6117 8906,6117 8906,8910 6113,8910 6113,6117 6157,6161 8862,6161 8862,8866 6157,8866 6157,6161 "/>
       <polygon id="_237" class="fil44" points="6135,6139 8884,6139 8884,8888 6135,8888 6135,6139 6179,6183 8840,6183 8840,8844 6179,8844 6179,6183 "/>
       <polygon id="_238" class="fil44" points="6157,6161 8862,6161 8862,8866 6157,8866 6157,6161 6200,6205 8818,6205 8818,8823 6200,8823 6200,6205 "/>
       <polygon id="_239" class="fil44" points="6179,6183 8840,6183 8840,8844 6179,8844 6179,6183 6222,6227 8796,6227 8796,8801 6222,8801 6222,6227 "/>
       <polygon id="_240" class="fil44" points="6200,6205 8818,6205 8818,8823 6200,8823 6200,6205 6244,6248 8775,6248 8775,8779 6244,8779 6244,6248 "/>
       <polygon id="_241" class="fil44" points="6222,6227 8796,6227 8796,8801 6222,8801 6222,6227 6266,6270 8753,6270 8753,8757 6266,8757 6266,6270 "/>
       <polygon id="_242" class="fil44" points="6244,6248 8775,6248 8775,8779 6244,8779 6244,6248 6288,6292 8731,6292 8731,8735 6288,8735 6288,6292 "/>
       <polygon id="_243" class="fil44" points="6266,6270 8753,6270 8753,8757 6266,8757 6266,6270 6309,6314 8709,6314 8709,8714 6309,8714 6309,6314 "/>
       <polygon id="_244" class="fil44" points="6288,6292 8731,6292 8731,8735 6288,8735 6288,6292 6331,6336 8687,6336 8687,8692 6331,8692 6331,6336 "/>
       <polygon id="_245" class="fil44" points="6309,6314 8709,6314 8709,8714 6309,8714 6309,6314 6353,6357 8666,6357 8666,8670 6353,8670 6353,6357 "/>
       <polygon id="_246" class="fil44" points="6331,6336 8687,6336 8687,8692 6331,8692 6331,6336 6375,6379 8644,6379 8644,8648 6375,8648 6375,6379 "/>
       <polygon id="_247" class="fil44" points="6353,6357 8666,6357 8666,8670 6353,8670 6353,6357 6397,6401 8622,6401 8622,8626 6397,8626 6397,6401 "/>
       <polygon id="_248" class="fil44" points="6375,6379 8644,6379 8644,8648 6375,8648 6375,6379 6418,6423 8600,6423 8600,8604 6418,8604 6418,6423 "/>
       <polygon id="_249" class="fil44" points="6397,6401 8622,6401 8622,8626 6397,8626 6397,6401 6440,6445 8578,6445 8578,8583 6440,8583 6440,6445 "/>
       <polygon id="_250" class="fil44" points="6418,6423 8600,6423 8600,8604 6418,8604 6418,6423 6462,6466 8556,6466 8556,8561 6462,8561 6462,6466 "/>
       <polygon id="_251" class="fil44" points="6440,6445 8578,6445 8578,8583 6440,8583 6440,6445 6484,6488 8535,6488 8535,8539 6484,8539 6484,6488 "/>
       <polygon id="_252" class="fil44" points="6462,6466 8556,6466 8556,8561 6462,8561 6462,6466 6506,6510 8513,6510 8513,8517 6506,8517 6506,6510 "/>
       <polygon id="_253" class="fil44" points="6484,6488 8535,6488 8535,8539 6484,8539 6484,6488 6528,6532 8491,6532 8491,8495 6528,8495 6528,6532 "/>
       <polygon id="_254" class="fil44" points="6506,6510 8513,6510 8513,8517 6506,8517 6506,6510 6549,6554 8469,6554 8469,8474 6549,8474 6549,6554 "/>
       <polygon id="_255" class="fil44" points="6528,6532 8491,6532 8491,8495 6528,8495 6528,6532 6571,6576 8447,6576 8447,8452 6571,8452 6571,6576 "/>
       <polygon id="_256" class="fil44" points="6549,6554 8469,6554 8469,8474 6549,8474 6549,6554 6593,6597 8426,6597 8426,8430 6593,8430 6593,6597 "/>
       <polygon id="_257" class="fil44" points="6571,6576 8447,6576 8447,8452 6571,8452 6571,6576 6615,6619 8404,6619 8404,8408 6615,8408 6615,6619 "/>
       <polygon id="_258" class="fil44" points="6593,6597 8426,6597 8426,8430 6593,8430 6593,6597 6637,6641 8382,6641 8382,8386 6637,8386 6637,6641 "/>
       <polygon id="_259" class="fil44" points="6615,6619 8404,6619 8404,8408 6615,8408 6615,6619 6658,6663 8360,6663 8360,8365 6658,8365 6658,6663 "/>
       <polygon id="_260" class="fil44" points="6637,6641 8382,6641 8382,8386 6637,8386 6637,6641 6680,6685 8338,6685 8338,8343 6680,8343 6680,6685 "/>
       <polygon id="_261" class="fil44" points="6658,6663 8360,6663 8360,8365 6658,8365 6658,6663 6702,6707 8317,6707 8317,8321 6702,8321 6702,6707 "/>
       <polygon id="_262" class="fil44" points="6680,6685 8338,6685 8338,8343 6680,8343 6680,6685 6724,6728 8295,6728 8295,8299 6724,8299 6724,6728 "/>
       <polygon id="_263" class="fil44" points="6702,6706 8317,6706 8317,8321 6702,8321 6702,6706 6746,6750 8273,6750 8273,8277 6746,8277 6746,6750 "/>
       <polygon id="_264" class="fil44" points="6724,6728 8295,6728 8295,8299 6724,8299 6724,6728 6768,6772 8251,6772 8251,8255 6768,8255 6768,6772 "/>
       <polygon id="_265" class="fil44" points="6746,6750 8273,6750 8273,8277 6746,8277 6746,6750 6789,6794 8229,6794 8229,8234 6789,8234 6789,6794 "/>
       <polygon id="_266" class="fil44" points="6768,6772 8251,6772 8251,8255 6768,8255 6768,6772 6811,6816 8207,6816 8207,8212 6811,8212 6811,6816 "/>
       <polygon id="_267" class="fil44" points="6789,6794 8229,6794 8229,8234 6789,8234 6789,6794 6833,6837 8186,6837 8186,8190 6833,8190 6833,6837 "/>
       <polygon id="_268" class="fil44" points="6811,6816 8207,6816 8207,8212 6811,8212 6811,6816 6855,6859 8164,6859 8164,8168 6855,8168 6855,6859 "/>
       <polygon id="_269" class="fil44" points="6833,6837 8186,6837 8186,8190 6833,8190 6833,6837 6877,6881 8142,6881 8142,8146 6877,8146 6877,6881 "/>
       <polygon id="_270" class="fil44" points="6855,6859 8164,6859 8164,8168 6855,8168 6855,6859 6898,6903 8120,6903 8120,8125 6898,8125 6898,6903 "/>
       <polygon id="_271" class="fil44" points="6877,6881 8142,6881 8142,8146 6877,8146 6877,6881 6920,6925 8098,6925 8098,8103 6920,8103 6920,6925 "/>
       <polygon id="_272" class="fil44" points="6898,6903 8120,6903 8120,8125 6898,8125 6898,6903 6942,6946 8076,6946 8076,8081 6942,8081 6942,6946 "/>
       <polygon id="_273" class="fil44" points="6920,6925 8098,6925 8098,8103 6920,8103 6920,6925 6964,6968 8055,6968 8055,8059 6964,8059 6964,6968 "/>
       <polygon id="_274" class="fil44" points="6942,6946 8076,6946 8076,8081 6942,8081 6942,6946 6986,6990 8033,6990 8033,8037 6986,8037 6986,6990 "/>
       <polygon id="_275" class="fil44" points="6964,6968 8055,6968 8055,8059 6964,8059 6964,6968 7008,7012 8011,7012 8011,8015 7008,8015 7008,7012 "/>
       <polygon id="_276" class="fil44" points="6986,6990 8033,6990 8033,8037 6986,8037 6986,6990 7029,7034 7989,7034 7989,7994 7029,7994 7029,7034 "/>
       <polygon id="_277" class="fil44" points="7008,7012 8011,7012 8011,8015 7008,8015 7008,7012 7051,7056 7967,7056 7967,7972 7051,7972 7051,7056 "/>
       <polygon id="_278" class="fil44" points="7029,7034 7989,7034 7989,7994 7029,7994 7029,7034 7073,7077 7946,7077 7946,7950 7073,7950 7073,7077 "/>
       <polygon id="_279" class="fil44" points="7051,7056 7967,7056 7967,7972 7051,7972 7051,7056 7095,7099 7924,7099 7924,7928 7095,7928 7095,7099 "/>
       <polygon id="_280" class="fil44" points="7073,7077 7946,7077 7946,7950 7073,7950 7073,7077 7117,7121 7902,7121 7902,7906 7117,7906 7117,7121 "/>
       <polygon id="_281" class="fil44" points="7095,7099 7924,7099 7924,7928 7095,7928 7095,7099 7138,7143 7880,7143 7880,7885 7138,7885 7138,7143 "/>
       <polygon id="_282" class="fil44" points="7117,7121 7902,7121 7902,7906 7117,7906 7117,7121 7160,7165 7858,7165 7858,7863 7160,7863 7160,7165 "/>
       <polygon id="_283" class="fil44" points="7138,7143 7880,7143 7880,7885 7138,7885 7138,7143 7182,7186 7837,7186 7837,7841 7182,7841 7182,7186 "/>
       <polygon id="_284" class="fil44" points="7160,7165 7858,7165 7858,7863 7160,7863 7160,7165 7204,7208 7815,7208 7815,7819 7204,7819 7204,7208 "/>
       <polygon id="_285" class="fil44" points="7182,7186 7837,7186 7837,7841 7182,7841 7182,7186 7226,7230 7793,7230 7793,7797 7226,7797 7226,7230 "/>
       <polygon id="_286" class="fil44" points="7204,7208 7815,7208 7815,7819 7204,7819 7204,7208 7247,7252 7771,7252 7771,7775 7247,7775 7247,7252 "/>
       <polygon id="_287" class="fil44" points="7226,7230 7793,7230 7793,7797 7226,7797 7226,7230 7269,7274 7749,7274 7749,7754 7269,7754 7269,7274 "/>
       <polygon id="_288" class="fil44" points="7247,7252 7771,7252 7771,7775 7247,7775 7247,7252 7291,7296 7727,7296 7727,7732 7291,7732 7291,7296 "/>
       <polygon id="_289" class="fil44" points="7269,7274 7749,7274 7749,7754 7269,7754 7269,7274 7313,7317 7706,7317 7706,7710 7313,7710 7313,7317 "/>
       <polygon id="_290" class="fil44" points="7291,7296 7727,7296 7727,7732 7291,7732 7291,7296 7335,7339 7684,7339 7684,7688 7335,7688 7335,7339 "/>
       <polygon id="_291" class="fil44" points="7313,7317 7706,7317 7706,7710 7313,7710 7313,7317 7357,7361 7662,7361 7662,7666 7357,7666 7357,7361 "/>
       <polygon id="_292" class="fil44" points="7335,7339 7684,7339 7684,7688 7335,7688 7335,7339 7378,7383 7640,7383 7640,7645 7378,7645 7378,7383 "/>
       <polygon id="_293" class="fil44" points="7357,7361 7662,7361 7662,7666 7357,7666 7357,7361 7400,7405 7618,7405 7618,7623 7400,7623 7400,7405 "/>
       <polygon id="_294" class="fil44" points="7378,7383 7640,7383 7640,7645 7378,7645 7378,7383 7422,7426 7597,7426 7597,7601 7422,7601 7422,7426 "/>
       <polygon id="_295" class="fil44" points="7400,7405 7618,7405 7618,7623 7400,7623 7400,7405 7444,7448 7575,7448 7575,7579 7444,7579 7444,7448 "/>
       <polygon id="_296" class="fil44" points="7422,7426 7597,7426 7597,7601 7422,7601 7422,7426 7466,7470 7553,7470 7553,7557 7466,7557 7466,7470 "/>
       <polygon id="_297" class="fil44" points="7444,7448 7575,7448 7575,7579 7444,7579 7444,7448 7487,7492 7531,7492 7531,7535 7487,7535 7487,7492 "/>
       <polygon id="_298" class="fil44" points="7466,7470 7553,7470 7553,7557 7466,7557 7466,7470 7509,7514 7509,7514 7509,7514 7509,7514 7509,7514 "/>
       <polygon id="_299" class="fil44" points="7487,7492 7531,7492 7531,7535 7487,7535 "/>
      </g>
     </g>
     <path class="fil45" d="M2397 14058l10225 0c788,0 1432,-645 1432,-1432l0 -10225c0,-788 -645,-1432 -1432,-1432l-10225 0c-788,0 -1432,645 -1432,1432l0 10225c0,788 645,1432 1432,1432z"/>
    </g>
   </g>
  </g>
 </g>
 <g id="_x0020_2">
  <metadata id="CorelCorpID_1Corel-Layer"/>
  <rect class="fil46" x="3903" y="1560" width="6960" height="4328" rx="500" ry="500"/>
  <polyline class="fil45 str0" points="4050,1760 7422,3566 10705,1752 "/>
  <path class="fil47" d="M7054 7518l789 0c70,0 127,-57 127,-127l0 -2057 681 6c69,0 113,-114 55,-168 -336,-313 -683,-615 -1008,-940 -186,-186 -223,-188 -414,-11 -344,318 -700,626 -1032,958 -86,86 34,152 93,152l582 0 0 2060c0,70 57,127 127,127z"/>
  <path class="fil48" d="M6936 12896c-904,0 -1503,-170 -1947,-1005 -48,-91 -252,-562 -289,-849l-81 0c-230,0 -419,-184 -419,-409l0 0c0,-225 189,-409 419,-409l1306 0c65,-282 224,-646 266,-725 443,-835 1042,-1005 1945,-1005 -78,-396 -213,-778 167,-528 475,313 1275,739 1279,837 4,98 -734,535 -1267,840 -403,231 -267,-120 -184,-502 -220,42 -545,76 -774,142 -312,90 -528,580 -619,940l3511 0c-77,-359 -163,-664 186,-434 475,313 1275,739 1279,837 4,98 -734,535 -1267,840 -376,215 -283,-76 -201,-426l-4738 0c68,361 298,963 647,1064 249,72 613,106 831,154 1,0 1,0 2,1 -78,-391 -206,-763 169,-515 475,313 1275,739 1279,837 4,98 -734,535 -1267,840 -416,238 -258,-143 -177,-537 -18,7 -37,11 -58,10z"/>
 </g>
</svg>
