<?xml version="1.0" encoding="UTF-8"?>
<!DOCTYPE svg PUBLIC "-//W3C//DTD SVG 1.1//EN" "http://www.w3.org/Graphics/SVG/1.1/DTD/svg11.dtd">
<!-- Creator: CorelDRAW X6 -->
<svg xmlns="http://www.w3.org/2000/svg" xml:space="preserve" width="100px" height="100px" version="1.1" style="shape-rendering:geometricPrecision; text-rendering:geometricPrecision; image-rendering:optimizeQuality; fill-rule:evenodd; clip-rule:evenodd"
viewBox="0 0 10000 10000"
 xmlns:xlink="http://www.w3.org/1999/xlink">
 <defs>
  <style type="text/css">
   <![CDATA[
    .str0 {stroke:black;stroke-width:6.66667}
    .str1 {stroke:#FF002F;stroke-width:110.067}
    .fil45 {fill:none}
    .fil49 {fill:#1A1A1A}
    .fil50 {fill:#AE333F}
    .fil51 {fill:#BDBFC1}
    .fil0 {fill:#CE7F22}
    .fil2 {fill:#CF7F22}
    .fil3 {fill:#CF8022}
    .fil4 {fill:#D08022}
    .fil5 {fill:#D18022}
    .fil6 {fill:#D18122}
    .fil7 {fill:#D28122}
    .fil8 {fill:#D38122}
    .fil9 {fill:#D38222}
    .fil10 {fill:#D48222}
    .fil11 {fill:#D58322}
    .fil12 {fill:#D68322}
    .fil13 {fill:#D78422}
    .fil14 {fill:#D88422}
    .fil15 {fill:#D98522}
    .fil16 {fill:#DA8522}
    .fil17 {fill:#DA8622}
    .fil18 {fill:#DB8622}
    .fil19 {fill:#DC8722}
    .fil20 {fill:#DD8722}
    .fil21 {fill:#DE8822}
    .fil22 {fill:#DF8822}
    .fil23 {fill:#E08922}
    .fil24 {fill:#E18922}
    .fil25 {fill:#E28A22}
    .fil26 {fill:#E38A22}
    .fil27 {fill:#E48B22}
    .fil28 {fill:#E58B22}
    .fil29 {fill:#E68C22}
    .fil30 {fill:#E78D22}
    .fil31 {fill:#E88D22}
    .fil32 {fill:#E98E22}
    .fil33 {fill:#EA8E22}
    .fil34 {fill:#EB8F22}
    .fil35 {fill:#EC8F22}
    .fil36 {fill:#EC9022}
    .fil37 {fill:#ED9022}
    .fil38 {fill:#EE9022}
    .fil39 {fill:#EE9122}
    .fil40 {fill:#EF9122}
    .fil41 {fill:#F09122}
    .fil42 {fill:#F09222}
    .fil43 {fill:#F19222}
    .fil44 {fill:#F29322}
    .fil53 {fill:#FF002F}
    .fil1 {fill:black;fill-opacity:0.000000}
    .fil52 {fill:url(#id2)}
    .fil46 {fill:url(#id3)}
    .fil47 {fill:url(#id4)}
    .fil48 {fill:url(#id5)}
   ]]>
  </style>
      <clipPath id="id0">
       <path d="M1598 9372l6817 0c525,0 955,-430 955,-955l0 -6817c0,-525 -430,-955 -955,-955l-6817 0c-525,0 -955,430 -955,955l0 6817c0,525 430,955 955,955z"/>
      </clipPath>
      <clipPath id="id1">
       <path d="M1598 9372l6817 0c525,0 955,-430 955,-955l0 -6817c0,-525 -430,-955 -955,-955l-6817 0c-525,0 -955,430 -955,955l0 6817c0,525 430,955 955,955z"/>
      </clipPath>
  <linearGradient id="id2" gradientUnits="userSpaceOnUse" x1="5933.83" y1="8519.25" x2="5933.83" y2="6568.14">
   <stop offset="0" style="stop-color:#CCCCCC"/>
   <stop offset="1" style="stop-color:#E6E6E6"/>
  </linearGradient>
  <linearGradient id="id3" gradientUnits="userSpaceOnUse" xlink:href="#id2" x1="1483.25" y1="5248.1" x2="1483.25" y2="4258.96">
  </linearGradient>
  <linearGradient id="id4" gradientUnits="userSpaceOnUse" xlink:href="#id2" x1="2444.47" y1="5282.31" x2="2444.47" y2="4107.67">
  </linearGradient>
  <linearGradient id="id5" gradientUnits="userSpaceOnUse" xlink:href="#id2" x1="3630.31" y1="5342.45" x2="3630.31" y2="4003.43">
  </linearGradient>
 </defs>
 <g id="Layer_x0020_1">
  <metadata id="CorelCorpID_0Corel-Layer"/>
  <g id="_356036056">
   <g id="_348901672">
    <path class="fil0" d="M1459 53l7095 0c778,0 1409,631 1409,1409l0 7095c0,778 -631,1409 -1409,1409l-7095 0c-778,0 -1409,-631 -1409,-1409l0 -7095c0,-778 631,-1409 1409,-1409z"/>
    <g>
     <g style="clip-path:url(#id0)">
      <polygon class="fil1" points="643,646 9369,646 9369,9372 643,9372 "/>
     </g>
     <g style="clip-path:url(#id1)">
      <g>
       <polygon id="1" class="fil0" points="643,646 9369,646 9369,9372 643,9372 643,646 672,675 9340,675 9340,9343 672,9343 672,675 "/>
       <polygon id="_1" class="fil0" points="658,660 9355,660 9355,9358 658,9358 658,660 687,690 9326,690 9326,9329 687,9329 687,690 "/>
       <polygon id="_2" class="fil2" points="672,675 9340,675 9340,9343 672,9343 672,675 701,704 9311,704 9311,9314 701,9314 701,704 "/>
       <polygon id="_3" class="fil3" points="687,690 9326,690 9326,9329 687,9329 687,690 716,719 9297,719 9297,9300 716,9300 716,719 "/>
       <polygon id="_4" class="fil4" points="701,704 9311,704 9311,9314 701,9314 701,704 730,733 9282,733 9282,9285 730,9285 730,733 "/>
       <polygon id="_5" class="fil5" points="716,719 9297,719 9297,9300 716,9300 716,719 745,748 9268,748 9268,9271 745,9271 745,748 "/>
       <polygon id="_6" class="fil6" points="730,733 9282,733 9282,9285 730,9285 730,733 759,762 9253,762 9253,9256 759,9256 759,762 "/>
       <polygon id="_7" class="fil7" points="745,748 9268,748 9268,9271 745,9271 745,748 774,777 9239,777 9239,9241 774,9241 774,777 "/>
       <polygon id="_8" class="fil8" points="759,762 9253,762 9253,9256 759,9256 759,762 788,791 9224,791 9224,9227 788,9227 788,791 "/>
       <polygon id="_9" class="fil9" points="774,777 9239,777 9239,9241 774,9241 774,777 803,806 9209,806 9209,9212 803,9212 803,806 "/>
       <polygon id="_10" class="fil10" points="788,791 9224,791 9224,9227 788,9227 788,791 818,820 9195,820 9195,9198 818,9198 818,820 "/>
       <polygon id="_11" class="fil10" points="803,806 9209,806 9209,9212 803,9212 803,806 832,835 9180,835 9180,9183 832,9183 832,835 "/>
       <polygon id="_12" class="fil11" points="818,820 9195,820 9195,9198 818,9198 818,820 847,850 9166,850 9166,9169 847,9169 847,850 "/>
       <polygon id="_13" class="fil12" points="832,835 9180,835 9180,9183 832,9183 832,835 861,864 9151,864 9151,9154 861,9154 861,864 "/>
       <polygon id="_14" class="fil12" points="847,850 9166,850 9166,9169 847,9169 847,850 876,879 9137,879 9137,9140 876,9140 876,879 "/>
       <polygon id="_15" class="fil13" points="861,864 9151,864 9151,9154 861,9154 861,864 890,893 9122,893 9122,9125 890,9125 890,893 "/>
       <polygon id="_16" class="fil14" points="876,879 9137,879 9137,9140 876,9140 876,879 905,908 9108,908 9108,9111 905,9111 905,908 "/>
       <polygon id="_17" class="fil14" points="890,893 9122,893 9122,9125 890,9125 890,893 919,922 9093,922 9093,9096 919,9096 919,922 "/>
       <polygon id="_18" class="fil15" points="905,908 9108,908 9108,9111 905,9111 905,908 934,937 9079,937 9079,9081 934,9081 934,937 "/>
       <polygon id="_19" class="fil16" points="919,922 9093,922 9093,9096 919,9096 919,922 948,951 9064,951 9064,9067 948,9067 948,951 "/>
       <polygon id="_20" class="fil17" points="934,937 9079,937 9079,9081 934,9081 934,937 963,966 9049,966 9049,9052 963,9052 963,966 "/>
       <polygon id="_21" class="fil18" points="948,951 9064,951 9064,9067 948,9067 948,951 977,980 9035,980 9035,9038 977,9038 977,980 "/>
       <polygon id="_22" class="fil18" points="963,966 9049,966 9049,9052 963,9052 963,966 992,995 9020,995 9020,9023 992,9023 992,995 "/>
       <polygon id="_23" class="fil19" points="977,980 9035,980 9035,9038 977,9038 977,980 1007,1009 9006,1009 9006,9009 1007,9009 1007,1009 "/>
       <polygon id="_24" class="fil20" points="992,995 9020,995 9020,9023 992,9023 992,995 1021,1024 8991,1024 8991,8994 1021,8994 1021,1024 "/>
       <polygon id="_25" class="fil20" points="1007,1009 9006,1009 9006,9009 1007,9009 1007,1009 1036,1039 8977,1039 8977,8980 1036,8980 1036,1039 "/>
       <polygon id="_26" class="fil21" points="1021,1024 8991,1024 8991,8994 1021,8994 1021,1024 1050,1053 8962,1053 8962,8965 1050,8965 1050,1053 "/>
       <polygon id="_27" class="fil22" points="1036,1039 8977,1039 8977,8980 1036,8980 1036,1039 1065,1068 8948,1068 8948,8951 1065,8951 1065,1068 "/>
       <polygon id="_28" class="fil22" points="1050,1053 8962,1053 8962,8965 1050,8965 1050,1053 1079,1082 8933,1082 8933,8936 1079,8936 1079,1082 "/>
       <polygon id="_29" class="fil23" points="1065,1068 8948,1068 8948,8951 1065,8951 1065,1068 1094,1097 8919,1097 8919,8921 1094,8921 1094,1097 "/>
       <polygon id="_30" class="fil23" points="1079,1082 8933,1082 8933,8936 1079,8936 1079,1082 1108,1111 8904,1111 8904,8907 1108,8907 1108,1111 "/>
       <polygon id="_31" class="fil24" points="1094,1097 8919,1097 8919,8921 1094,8921 1094,1097 1123,1126 8889,1126 8889,8892 1123,8892 1123,1126 "/>
       <polygon id="_32" class="fil25" points="1108,1111 8904,1111 8904,8907 1108,8907 1108,1111 1137,1140 8875,1140 8875,8878 1137,8878 1137,1140 "/>
       <polygon id="_33" class="fil25" points="1123,1126 8889,1126 8889,8892 1123,8892 1123,1126 1152,1155 8860,1155 8860,8863 1152,8863 1152,1155 "/>
       <polygon id="_34" class="fil26" points="1137,1140 8875,1140 8875,8878 1137,8878 1137,1140 1167,1169 8846,1169 8846,8849 1167,8849 1167,1169 "/>
       <polygon id="_35" class="fil27" points="1152,1155 8860,1155 8860,8863 1152,8863 1152,1155 1181,1184 8831,1184 8831,8834 1181,8834 1181,1184 "/>
       <polygon id="_36" class="fil27" points="1167,1169 8846,1169 8846,8849 1167,8849 1167,1169 1196,1199 8817,1199 8817,8820 1196,8820 1196,1199 "/>
       <polygon id="_37" class="fil28" points="1181,1184 8831,1184 8831,8834 1181,8834 1181,1184 1210,1213 8802,1213 8802,8805 1210,8805 1210,1213 "/>
       <polygon id="_38" class="fil29" points="1196,1199 8817,1199 8817,8820 1196,8820 1196,1199 1225,1228 8788,1228 8788,8791 1225,8791 1225,1228 "/>
       <polygon id="_39" class="fil29" points="1210,1213 8802,1213 8802,8805 1210,8805 1210,1213 1239,1242 8773,1242 8773,8776 1239,8776 1239,1242 "/>
       <polygon id="_40" class="fil30" points="1225,1228 8788,1228 8788,8791 1225,8791 1225,1228 1254,1257 8759,1257 8759,8761 1254,8761 1254,1257 "/>
       <polygon id="_41" class="fil30" points="1239,1242 8773,1242 8773,8776 1239,8776 1239,1242 1268,1271 8744,1271 8744,8747 1268,8747 1268,1271 "/>
       <polygon id="_42" class="fil31" points="1254,1257 8759,1257 8759,8761 1254,8761 1254,1257 1283,1286 8729,1286 8729,8732 1283,8732 1283,1286 "/>
       <polygon id="_43" class="fil32" points="1268,1271 8744,1271 8744,8747 1268,8747 1268,1271 1297,1300 8715,1300 8715,8718 1297,8718 1297,1300 "/>
       <polygon id="_44" class="fil32" points="1283,1286 8729,1286 8729,8732 1283,8732 1283,1286 1312,1315 8700,1315 8700,8703 1312,8703 1312,1315 "/>
       <polygon id="_45" class="fil33" points="1297,1300 8715,1300 8715,8718 1297,8718 1297,1300 1327,1329 8686,1329 8686,8689 1327,8689 1327,1329 "/>
       <polygon id="_46" class="fil34" points="1312,1315 8700,1315 8700,8703 1312,8703 1312,1315 1341,1344 8671,1344 8671,8674 1341,8674 1341,1344 "/>
       <polygon id="_47" class="fil34" points="1327,1329 8686,1329 8686,8689 1327,8689 1327,1329 1356,1359 8657,1359 8657,8660 1356,8660 1356,1359 "/>
       <polygon id="_48" class="fil35" points="1341,1344 8671,1344 8671,8674 1341,8674 1341,1344 1370,1373 8642,1373 8642,8645 1370,8645 1370,1373 "/>
       <polygon id="_49" class="fil36" points="1356,1359 8657,1359 8657,8660 1356,8660 1356,1359 1385,1388 8628,1388 8628,8631 1385,8631 1385,1388 "/>
       <polygon id="_50" class="fil37" points="1370,1373 8642,1373 8642,8645 1370,8645 1370,1373 1399,1402 8613,1402 8613,8616 1399,8616 1399,1402 "/>
       <polygon id="_51" class="fil38" points="1385,1388 8628,1388 8628,8631 1385,8631 1385,1388 1414,1417 8599,1417 8599,8601 1414,8601 1414,1417 "/>
       <polygon id="_52" class="fil39" points="1399,1402 8613,1402 8613,8616 1399,8616 1399,1402 1428,1431 8584,1431 8584,8587 1428,8587 1428,1431 "/>
       <polygon id="_53" class="fil40" points="1414,1417 8599,1417 8599,8601 1414,8601 1414,1417 1443,1446 8569,1446 8569,8572 1443,8572 1443,1446 "/>
       <polygon id="_54" class="fil41" points="1428,1431 8584,1431 8584,8587 1428,8587 1428,1431 1457,1460 8555,1460 8555,8558 1457,8558 1457,1460 "/>
       <polygon id="_55" class="fil42" points="1443,1446 8569,1446 8569,8572 1443,8572 1443,1446 1472,1475 8540,1475 8540,8543 1472,8543 1472,1475 "/>
       <polygon id="_56" class="fil43" points="1457,1460 8555,1460 8555,8558 1457,8558 1457,1460 1487,1489 8526,1489 8526,8529 1487,8529 1487,1489 "/>
       <polygon id="_57" class="fil44" points="1472,1475 8540,1475 8540,8543 1472,8543 1472,1475 1501,1504 8511,1504 8511,8514 1501,8514 1501,1504 "/>
       <polygon id="_58" class="fil44" points="1487,1489 8526,1489 8526,8529 1487,8529 1487,1489 1516,1519 8497,1519 8497,8500 1516,8500 1516,1519 "/>
       <polygon id="_59" class="fil44" points="1501,1504 8511,1504 8511,8514 1501,8514 1501,1504 1530,1533 8482,1533 8482,8485 1530,8485 1530,1533 "/>
       <polygon id="_60" class="fil44" points="1516,1519 8497,1519 8497,8500 1516,8500 1516,1519 1545,1548 8468,1548 8468,8471 1545,8471 1545,1548 "/>
       <polygon id="_61" class="fil44" points="1530,1533 8482,1533 8482,8485 1530,8485 1530,1533 1559,1562 8453,1562 8453,8456 1559,8456 1559,1562 "/>
       <polygon id="_62" class="fil44" points="1545,1548 8468,1548 8468,8471 1545,8471 1545,1548 1574,1577 8439,1577 8439,8442 1574,8442 1574,1577 "/>
       <polygon id="_63" class="fil44" points="1559,1562 8453,1562 8453,8456 1559,8456 1559,1562 1588,1591 8424,1591 8424,8427 1588,8427 1588,1591 "/>
       <polygon id="_64" class="fil44" points="1574,1577 8439,1577 8439,8442 1574,8442 1574,1577 1603,1606 8410,1606 8410,8412 1603,8412 1603,1606 "/>
       <polygon id="_65" class="fil44" points="1588,1591 8424,1591 8424,8427 1588,8427 1588,1591 1617,1620 8395,1620 8395,8398 1617,8398 1617,1620 "/>
       <polygon id="_66" class="fil44" points="1603,1606 8410,1606 8410,8412 1603,8412 1603,1606 1632,1635 8380,1635 8380,8383 1632,8383 1632,1635 "/>
       <polygon id="_67" class="fil44" points="1617,1620 8395,1620 8395,8398 1617,8398 1617,1620 1647,1649 8366,1649 8366,8369 1647,8369 1647,1649 "/>
       <polygon id="_68" class="fil44" points="1632,1635 8380,1635 8380,8383 1632,8383 1632,1635 1661,1664 8351,1664 8351,8354 1661,8354 1661,1664 "/>
       <polygon id="_69" class="fil44" points="1647,1649 8366,1649 8366,8369 1647,8369 1647,1649 1676,1679 8337,1679 8337,8340 1676,8340 1676,1679 "/>
       <polygon id="_70" class="fil44" points="1661,1664 8351,1664 8351,8354 1661,8354 1661,1664 1690,1693 8322,1693 8322,8325 1690,8325 1690,1693 "/>
       <polygon id="_71" class="fil44" points="1676,1679 8337,1679 8337,8340 1676,8340 1676,1679 1705,1708 8308,1708 8308,8311 1705,8311 1705,1708 "/>
       <polygon id="_72" class="fil44" points="1690,1693 8322,1693 8322,8325 1690,8325 1690,1693 1719,1722 8293,1722 8293,8296 1719,8296 1719,1722 "/>
       <polygon id="_73" class="fil44" points="1705,1708 8308,1708 8308,8311 1705,8311 1705,1708 1734,1737 8279,1737 8279,8282 1734,8282 1734,1737 "/>
       <polygon id="_74" class="fil44" points="1719,1722 8293,1722 8293,8296 1719,8296 1719,1722 1748,1751 8264,1751 8264,8267 1748,8267 1748,1751 "/>
       <polygon id="_75" class="fil44" points="1734,1737 8279,1737 8279,8282 1734,8282 1734,1737 1763,1766 8250,1766 8250,8252 1763,8252 1763,1766 "/>
       <polygon id="_76" class="fil44" points="1748,1751 8264,1751 8264,8267 1748,8267 1748,1751 1777,1780 8235,1780 8235,8238 1777,8238 1777,1780 "/>
       <polygon id="_77" class="fil44" points="1763,1766 8250,1766 8250,8252 1763,8252 1763,1766 1792,1795 8220,1795 8220,8223 1792,8223 1792,1795 "/>
       <polygon id="_78" class="fil44" points="1777,1780 8235,1780 8235,8238 1777,8238 1777,1780 1807,1809 8206,1809 8206,8209 1807,8209 1807,1809 "/>
       <polygon id="_79" class="fil44" points="1792,1795 8220,1795 8220,8223 1792,8223 1792,1795 1821,1824 8191,1824 8191,8194 1821,8194 1821,1824 "/>
       <polygon id="_80" class="fil44" points="1807,1809 8206,1809 8206,8209 1807,8209 1807,1809 1836,1839 8177,1839 8177,8180 1836,8180 1836,1839 "/>
       <polygon id="_81" class="fil44" points="1821,1824 8191,1824 8191,8194 1821,8194 1821,1824 1850,1853 8162,1853 8162,8165 1850,8165 1850,1853 "/>
       <polygon id="_82" class="fil44" points="1836,1839 8177,1839 8177,8180 1836,8180 1836,1839 1865,1868 8148,1868 8148,8151 1865,8151 1865,1868 "/>
       <polygon id="_83" class="fil44" points="1850,1853 8162,1853 8162,8165 1850,8165 1850,1853 1879,1882 8133,1882 8133,8136 1879,8136 1879,1882 "/>
       <polygon id="_84" class="fil44" points="1865,1868 8148,1868 8148,8151 1865,8151 1865,1868 1894,1897 8119,1897 8119,8122 1894,8122 1894,1897 "/>
       <polygon id="_85" class="fil44" points="1879,1882 8133,1882 8133,8136 1879,8136 1879,1882 1908,1911 8104,1911 8104,8107 1908,8107 1908,1911 "/>
       <polygon id="_86" class="fil44" points="1894,1897 8119,1897 8119,8122 1894,8122 1894,1897 1923,1926 8090,1926 8090,8092 1923,8092 1923,1926 "/>
       <polygon id="_87" class="fil44" points="1908,1911 8104,1911 8104,8107 1908,8107 1908,1911 1937,1940 8075,1940 8075,8078 1937,8078 1937,1940 "/>
       <polygon id="_88" class="fil44" points="1923,1926 8090,1926 8090,8092 1923,8092 1923,1926 1952,1955 8060,1955 8060,8063 1952,8063 1952,1955 "/>
       <polygon id="_89" class="fil44" points="1937,1940 8075,1940 8075,8078 1937,8078 1937,1940 1966,1969 8046,1969 8046,8049 1966,8049 1966,1969 "/>
       <polygon id="_90" class="fil44" points="1952,1955 8060,1955 8060,8063 1952,8063 1952,1955 1981,1984 8031,1984 8031,8034 1981,8034 1981,1984 "/>
       <polygon id="_91" class="fil44" points="1966,1969 8046,1969 8046,8049 1966,8049 1966,1969 1996,1998 8017,1998 8017,8020 1996,8020 1996,1998 "/>
       <polygon id="_92" class="fil44" points="1981,1984 8031,1984 8031,8034 1981,8034 1981,1984 2010,2013 8002,2013 8002,8005 2010,8005 2010,2013 "/>
       <polygon id="_93" class="fil44" points="1996,1998 8017,1998 8017,8020 1996,8020 1996,1998 2025,2028 7988,2028 7988,7991 2025,7991 2025,2028 "/>
       <polygon id="_94" class="fil44" points="2010,2013 8002,2013 8002,8005 2010,8005 2010,2013 2039,2042 7973,2042 7973,7976 2039,7976 2039,2042 "/>
       <polygon id="_95" class="fil44" points="2025,2028 7988,2028 7988,7991 2025,7991 2025,2028 2054,2057 7959,2057 7959,7962 2054,7962 2054,2057 "/>
       <polygon id="_96" class="fil44" points="2039,2042 7973,2042 7973,7976 2039,7976 2039,2042 2068,2071 7944,2071 7944,7947 2068,7947 2068,2071 "/>
       <polygon id="_97" class="fil44" points="2054,2057 7959,2057 7959,7962 2054,7962 2054,2057 2083,2086 7930,2086 7930,7932 2083,7932 2083,2086 "/>
       <polygon id="_98" class="fil44" points="2068,2071 7944,2071 7944,7947 2068,7947 2068,2071 2097,2100 7915,2100 7915,7918 2097,7918 2097,2100 "/>
       <polygon id="_99" class="fil44" points="2083,2086 7930,2086 7930,7932 2083,7932 2083,2086 2112,2115 7900,2115 7900,7903 2112,7903 2112,2115 "/>
       <polygon id="_100" class="fil44" points="2097,2100 7915,2100 7915,7918 2097,7918 2097,2100 2126,2129 7886,2129 7886,7889 2126,7889 2126,2129 "/>
       <polygon id="_101" class="fil44" points="2112,2115 7900,2115 7900,7903 2112,7903 2112,2115 2141,2144 7871,2144 7871,7874 2141,7874 2141,2144 "/>
       <polygon id="_102" class="fil44" points="2126,2129 7886,2129 7886,7889 2126,7889 2126,2129 2156,2158 7857,2158 7857,7860 2156,7860 2156,2158 "/>
       <polygon id="_103" class="fil44" points="2141,2144 7871,2144 7871,7874 2141,7874 2141,2144 2170,2173 7842,2173 7842,7845 2170,7845 2170,2173 "/>
       <polygon id="_104" class="fil44" points="2156,2158 7857,2158 7857,7860 2156,7860 2156,2158 2185,2188 7828,2188 7828,7831 2185,7831 2185,2188 "/>
       <polygon id="_105" class="fil44" points="2170,2173 7842,2173 7842,7845 2170,7845 2170,2173 2199,2202 7813,2202 7813,7816 2199,7816 2199,2202 "/>
       <polygon id="_106" class="fil44" points="2185,2188 7828,2188 7828,7831 2185,7831 2185,2188 2214,2217 7799,2217 7799,7802 2214,7802 2214,2217 "/>
       <polygon id="_107" class="fil44" points="2199,2202 7813,2202 7813,7816 2199,7816 2199,2202 2228,2231 7784,2231 7784,7787 2228,7787 2228,2231 "/>
       <polygon id="_108" class="fil44" points="2214,2217 7799,2217 7799,7802 2214,7802 2214,2217 2243,2246 7770,2246 7770,7772 2243,7772 2243,2246 "/>
       <polygon id="_109" class="fil44" points="2228,2231 7784,2231 7784,7787 2228,7787 2228,2231 2257,2260 7755,2260 7755,7758 2257,7758 2257,2260 "/>
       <polygon id="_110" class="fil44" points="2243,2246 7770,2246 7770,7773 2243,7773 2243,2246 2272,2275 7740,2275 7740,7743 2272,7743 2272,2275 "/>
       <polygon id="_111" class="fil44" points="2257,2260 7755,2260 7755,7758 2257,7758 2257,2260 2286,2289 7726,2289 7726,7729 2286,7729 2286,2289 "/>
       <polygon id="_112" class="fil44" points="2272,2275 7740,2275 7740,7743 2272,7743 2272,2275 2301,2304 7711,2304 7711,7714 2301,7714 2301,2304 "/>
       <polygon id="_113" class="fil44" points="2286,2289 7726,2289 7726,7729 2286,7729 2286,2289 2316,2318 7697,2318 7697,7700 2316,7700 2316,2318 "/>
       <polygon id="_114" class="fil44" points="2301,2304 7711,2304 7711,7714 2301,7714 2301,2304 2330,2333 7682,2333 7682,7685 2330,7685 2330,2333 "/>
       <polygon id="_115" class="fil44" points="2316,2318 7697,2318 7697,7700 2316,7700 2316,2318 2345,2348 7668,2348 7668,7671 2345,7671 2345,2348 "/>
       <polygon id="_116" class="fil44" points="2330,2333 7682,2333 7682,7685 2330,7685 2330,2333 2359,2362 7653,2362 7653,7656 2359,7656 2359,2362 "/>
       <polygon id="_117" class="fil44" points="2345,2348 7668,2348 7668,7671 2345,7671 2345,2348 2374,2377 7639,2377 7639,7642 2374,7642 2374,2377 "/>
       <polygon id="_118" class="fil44" points="2359,2362 7653,2362 7653,7656 2359,7656 2359,2362 2388,2391 7624,2391 7624,7627 2388,7627 2388,2391 "/>
       <polygon id="_119" class="fil44" points="2374,2377 7639,2377 7639,7642 2374,7642 2374,2377 2403,2406 7610,2406 7610,7612 2403,7612 2403,2406 "/>
       <polygon id="_120" class="fil44" points="2388,2391 7624,2391 7624,7627 2388,7627 2388,2391 2417,2420 7595,2420 7595,7598 2417,7598 2417,2420 "/>
       <polygon id="_121" class="fil44" points="2403,2406 7610,2406 7610,7612 2403,7612 2403,2406 2432,2435 7580,2435 7580,7583 2432,7583 2432,2435 "/>
       <polygon id="_122" class="fil44" points="2417,2420 7595,2420 7595,7598 2417,7598 2417,2420 2446,2449 7566,2449 7566,7569 2446,7569 2446,2449 "/>
       <polygon id="_123" class="fil44" points="2432,2435 7580,2435 7580,7583 2432,7583 2432,2435 2461,2464 7551,2464 7551,7554 2461,7554 2461,2464 "/>
       <polygon id="_124" class="fil44" points="2446,2449 7566,2449 7566,7569 2446,7569 2446,2449 2476,2478 7537,2478 7537,7540 2476,7540 2476,2478 "/>
       <polygon id="_125" class="fil44" points="2461,2464 7551,2464 7551,7554 2461,7554 2461,2464 2490,2493 7522,2493 7522,7525 2490,7525 2490,2493 "/>
       <polygon id="_126" class="fil44" points="2476,2478 7537,2478 7537,7540 2476,7540 2476,2478 2505,2508 7508,2508 7508,7511 2505,7511 2505,2508 "/>
       <polygon id="_127" class="fil44" points="2490,2493 7522,2493 7522,7525 2490,7525 2490,2493 2519,2522 7493,2522 7493,7496 2519,7496 2519,2522 "/>
       <polygon id="_128" class="fil44" points="2505,2508 7508,2508 7508,7511 2505,7511 2505,2508 2534,2537 7479,2537 7479,7482 2534,7482 2534,2537 "/>
       <polygon id="_129" class="fil44" points="2519,2522 7493,2522 7493,7496 2519,7496 2519,2522 2548,2551 7464,2551 7464,7467 2548,7467 2548,2551 "/>
       <polygon id="_130" class="fil44" points="2534,2537 7479,2537 7479,7482 2534,7482 2534,2537 2563,2566 7450,2566 7450,7453 2563,7453 2563,2566 "/>
       <polygon id="_131" class="fil44" points="2548,2551 7464,2551 7464,7467 2548,7467 2548,2551 2577,2580 7435,2580 7435,7438 2577,7438 2577,2580 "/>
       <polygon id="_132" class="fil44" points="2563,2566 7450,2566 7450,7453 2563,7453 2563,2566 2592,2595 7421,2595 7421,7423 2592,7423 2592,2595 "/>
       <polygon id="_133" class="fil44" points="2577,2580 7435,2580 7435,7438 2577,7438 2577,2580 2606,2609 7406,2609 7406,7409 2606,7409 2606,2609 "/>
       <polygon id="_134" class="fil44" points="2592,2595 7421,2595 7421,7423 2592,7423 2592,2595 2621,2624 7391,2624 7391,7394 2621,7394 2621,2624 "/>
       <polygon id="_135" class="fil44" points="2606,2609 7406,2609 7406,7409 2606,7409 2606,2609 2636,2638 7377,2638 7377,7380 2636,7380 2636,2638 "/>
       <polygon id="_136" class="fil44" points="2621,2624 7391,2624 7391,7394 2621,7394 2621,2624 2650,2653 7362,2653 7362,7365 2650,7365 2650,2653 "/>
       <polygon id="_137" class="fil44" points="2636,2638 7377,2638 7377,7380 2636,7380 2636,2638 2665,2668 7348,2668 7348,7351 2665,7351 2665,2668 "/>
       <polygon id="_138" class="fil44" points="2650,2653 7362,2653 7362,7365 2650,7365 2650,2653 2679,2682 7333,2682 7333,7336 2679,7336 2679,2682 "/>
       <polygon id="_139" class="fil44" points="2665,2668 7348,2668 7348,7351 2665,7351 2665,2668 2694,2697 7319,2697 7319,7322 2694,7322 2694,2697 "/>
       <polygon id="_140" class="fil44" points="2679,2682 7333,2682 7333,7336 2679,7336 2679,2682 2708,2711 7304,2711 7304,7307 2708,7307 2708,2711 "/>
       <polygon id="_141" class="fil44" points="2694,2697 7319,2697 7319,7322 2694,7322 2694,2697 2723,2726 7290,2726 7290,7293 2723,7293 2723,2726 "/>
       <polygon id="_142" class="fil44" points="2708,2711 7304,2711 7304,7307 2708,7307 2708,2711 2737,2740 7275,2740 7275,7278 2737,7278 2737,2740 "/>
       <polygon id="_143" class="fil44" points="2723,2726 7290,2726 7290,7293 2723,7293 2723,2726 2752,2755 7261,2755 7261,7263 2752,7263 2752,2755 "/>
       <polygon id="_144" class="fil44" points="2737,2740 7275,2740 7275,7278 2737,7278 2737,2740 2766,2769 7246,2769 7246,7249 2766,7249 2766,2769 "/>
       <polygon id="_145" class="fil44" points="2752,2755 7261,2755 7261,7263 2752,7263 2752,2755 2781,2784 7231,2784 7231,7234 2781,7234 2781,2784 "/>
       <polygon id="_146" class="fil44" points="2766,2769 7246,2769 7246,7249 2766,7249 2766,2769 2796,2798 7217,2798 7217,7220 2796,7220 2796,2798 "/>
       <polygon id="_147" class="fil44" points="2781,2784 7231,2784 7231,7234 2781,7234 2781,2784 2810,2813 7202,2813 7202,7205 2810,7205 2810,2813 "/>
       <polygon id="_148" class="fil44" points="2796,2798 7217,2798 7217,7220 2796,7220 2796,2798 2825,2828 7188,2828 7188,7191 2825,7191 2825,2828 "/>
       <polygon id="_149" class="fil44" points="2810,2813 7202,2813 7202,7205 2810,7205 2810,2813 2839,2842 7173,2842 7173,7176 2839,7176 2839,2842 "/>
       <polygon id="_150" class="fil44" points="2825,2828 7188,2828 7188,7191 2825,7191 2825,2828 2854,2857 7159,2857 7159,7162 2854,7162 2854,2857 "/>
       <polygon id="_151" class="fil44" points="2839,2842 7173,2842 7173,7176 2839,7176 2839,2842 2868,2871 7144,2871 7144,7147 2868,7147 2868,2871 "/>
       <polygon id="_152" class="fil44" points="2854,2857 7159,2857 7159,7162 2854,7162 2854,2857 2883,2886 7130,2886 7130,7133 2883,7133 2883,2886 "/>
       <polygon id="_153" class="fil44" points="2868,2871 7144,2871 7144,7147 2868,7147 2868,2871 2897,2900 7115,2900 7115,7118 2897,7118 2897,2900 "/>
       <polygon id="_154" class="fil44" points="2883,2886 7130,2886 7130,7133 2883,7133 2883,2886 2912,2915 7101,2915 7101,7103 2912,7103 2912,2915 "/>
       <polygon id="_155" class="fil44" points="2897,2900 7115,2900 7115,7118 2897,7118 2897,2900 2926,2929 7086,2929 7086,7089 2926,7089 2926,2929 "/>
       <polygon id="_156" class="fil44" points="2912,2915 7101,2915 7101,7103 2912,7103 2912,2915 2941,2944 7071,2944 7071,7074 2941,7074 2941,2944 "/>
       <polygon id="_157" class="fil44" points="2926,2929 7086,2929 7086,7089 2926,7089 2926,2929 2955,2958 7057,2958 7057,7060 2955,7060 2955,2958 "/>
       <polygon id="_158" class="fil44" points="2941,2944 7071,2944 7071,7074 2941,7074 2941,2944 2970,2973 7042,2973 7042,7045 2970,7045 2970,2973 "/>
       <polygon id="_159" class="fil44" points="2955,2958 7057,2958 7057,7060 2955,7060 2955,2958 2985,2987 7028,2987 7028,7031 2985,7031 2985,2987 "/>
       <polygon id="_160" class="fil44" points="2970,2973 7042,2973 7042,7045 2970,7045 2970,2973 2999,3002 7013,3002 7013,7016 2999,7016 2999,3002 "/>
       <polygon id="_161" class="fil44" points="2985,2987 7028,2987 7028,7031 2985,7031 2985,2987 3014,3017 6999,3017 6999,7002 3014,7002 3014,3017 "/>
       <polygon id="_162" class="fil44" points="2999,3002 7013,3002 7013,7016 2999,7016 2999,3002 3028,3031 6984,3031 6984,6987 3028,6987 3028,3031 "/>
       <polygon id="_163" class="fil44" points="3014,3017 6999,3017 6999,7002 3014,7002 3014,3017 3043,3046 6970,3046 6970,6973 3043,6973 3043,3046 "/>
       <polygon id="_164" class="fil44" points="3028,3031 6984,3031 6984,6987 3028,6987 3028,3031 3057,3060 6955,3060 6955,6958 3057,6958 3057,3060 "/>
       <polygon id="_165" class="fil44" points="3043,3046 6970,3046 6970,6973 3043,6973 3043,3046 3072,3075 6941,3075 6941,6943 3072,6943 3072,3075 "/>
       <polygon id="_166" class="fil44" points="3057,3060 6955,3060 6955,6958 3057,6958 3057,3060 3086,3089 6926,3089 6926,6929 3086,6929 3086,3089 "/>
       <polygon id="_167" class="fil44" points="3072,3075 6941,3075 6941,6943 3072,6943 3072,3075 3101,3104 6911,3104 6911,6914 3101,6914 3101,3104 "/>
       <polygon id="_168" class="fil44" points="3086,3089 6926,3089 6926,6929 3086,6929 3086,3089 3115,3118 6897,3118 6897,6900 3115,6900 3115,3118 "/>
       <polygon id="_169" class="fil44" points="3101,3104 6911,3104 6911,6914 3101,6914 3101,3104 3130,3133 6882,3133 6882,6885 3130,6885 3130,3133 "/>
       <polygon id="_170" class="fil44" points="3115,3118 6897,3118 6897,6900 3115,6900 3115,3118 3145,3147 6868,3147 6868,6871 3145,6871 3145,3147 "/>
       <polygon id="_171" class="fil44" points="3130,3133 6882,3133 6882,6885 3130,6885 3130,3133 3159,3162 6853,3162 6853,6856 3159,6856 3159,3162 "/>
       <polygon id="_172" class="fil44" points="3145,3147 6868,3147 6868,6871 3145,6871 3145,3147 3174,3177 6839,3177 6839,6842 3174,6842 3174,3177 "/>
       <polygon id="_173" class="fil44" points="3159,3162 6853,3162 6853,6856 3159,6856 3159,3162 3188,3191 6824,3191 6824,6827 3188,6827 3188,3191 "/>
       <polygon id="_174" class="fil44" points="3174,3177 6839,3177 6839,6842 3174,6842 3174,3177 3203,3206 6810,3206 6810,6813 3203,6813 3203,3206 "/>
       <polygon id="_175" class="fil44" points="3188,3191 6824,3191 6824,6827 3188,6827 3188,3191 3217,3220 6795,3220 6795,6798 3217,6798 3217,3220 "/>
       <polygon id="_176" class="fil44" points="3203,3206 6810,3206 6810,6813 3203,6813 3203,3206 3232,3235 6781,3235 6781,6783 3232,6783 3232,3235 "/>
       <polygon id="_177" class="fil44" points="3217,3220 6795,3220 6795,6798 3217,6798 3217,3220 3246,3249 6766,3249 6766,6769 3246,6769 3246,3249 "/>
       <polygon id="_178" class="fil44" points="3232,3235 6781,3235 6781,6784 3232,6784 3232,3235 3261,3264 6751,3264 6751,6754 3261,6754 3261,3264 "/>
       <polygon id="_179" class="fil44" points="3246,3249 6766,3249 6766,6769 3246,6769 3246,3249 3275,3278 6737,3278 6737,6740 3275,6740 3275,3278 "/>
       <polygon id="_180" class="fil44" points="3261,3264 6751,3264 6751,6754 3261,6754 3261,3264 3290,3293 6722,3293 6722,6725 3290,6725 3290,3293 "/>
       <polygon id="_181" class="fil44" points="3275,3278 6737,3278 6737,6740 3275,6740 3275,3278 3305,3307 6708,3307 6708,6711 3305,6711 3305,3307 "/>
       <polygon id="_182" class="fil44" points="3290,3293 6722,3293 6722,6725 3290,6725 3290,3293 3319,3322 6693,3322 6693,6696 3319,6696 3319,3322 "/>
       <polygon id="_183" class="fil44" points="3305,3307 6708,3307 6708,6711 3305,6711 3305,3307 3334,3337 6679,3337 6679,6682 3334,6682 3334,3337 "/>
       <polygon id="_184" class="fil44" points="3319,3322 6693,3322 6693,6696 3319,6696 3319,3322 3348,3351 6664,3351 6664,6667 3348,6667 3348,3351 "/>
       <polygon id="_185" class="fil44" points="3334,3337 6679,3337 6679,6682 3334,6682 3334,3337 3363,3366 6650,3366 6650,6653 3363,6653 3363,3366 "/>
       <polygon id="_186" class="fil44" points="3348,3351 6664,3351 6664,6667 3348,6667 3348,3351 3377,3380 6635,3380 6635,6638 3377,6638 3377,3380 "/>
       <polygon id="_187" class="fil44" points="3363,3366 6650,3366 6650,6653 3363,6653 3363,3366 3392,3395 6621,3395 6621,6624 3392,6624 3392,3395 "/>
       <polygon id="_188" class="fil44" points="3377,3380 6635,3380 6635,6638 3377,6638 3377,3380 3406,3409 6606,3409 6606,6609 3406,6609 3406,3409 "/>
       <polygon id="_189" class="fil44" points="3392,3395 6621,3395 6621,6624 3392,6624 3392,3395 3421,3424 6591,3424 6591,6594 3421,6594 3421,3424 "/>
       <polygon id="_190" class="fil44" points="3406,3409 6606,3409 6606,6609 3406,6609 3406,3409 3435,3438 6577,3438 6577,6580 3435,6580 3435,3438 "/>
       <polygon id="_191" class="fil44" points="3421,3424 6591,3424 6591,6594 3421,6594 3421,3424 3450,3453 6562,3453 6562,6565 3450,6565 3450,3453 "/>
       <polygon id="_192" class="fil44" points="3435,3438 6577,3438 6577,6580 3435,6580 3435,3438 3465,3467 6548,3467 6548,6551 3465,6551 3465,3467 "/>
       <polygon id="_193" class="fil44" points="3450,3453 6562,3453 6562,6565 3450,6565 3450,3453 3479,3482 6533,3482 6533,6536 3479,6536 3479,3482 "/>
       <polygon id="_194" class="fil44" points="3465,3467 6548,3467 6548,6551 3465,6551 3465,3467 3494,3497 6519,3497 6519,6522 3494,6522 3494,3497 "/>
       <polygon id="_195" class="fil44" points="3479,3482 6533,3482 6533,6536 3479,6536 3479,3482 3508,3511 6504,3511 6504,6507 3508,6507 3508,3511 "/>
       <polygon id="_196" class="fil44" points="3494,3497 6519,3497 6519,6522 3494,6522 3494,3497 3523,3526 6490,3526 6490,6493 3523,6493 3523,3526 "/>
       <polygon id="_197" class="fil44" points="3508,3511 6504,3511 6504,6507 3508,6507 3508,3511 3537,3540 6475,3540 6475,6478 3537,6478 3537,3540 "/>
       <polygon id="_198" class="fil44" points="3523,3526 6490,3526 6490,6493 3523,6493 3523,3526 3552,3555 6461,3555 6461,6464 3552,6464 3552,3555 "/>
       <polygon id="_199" class="fil44" points="3537,3540 6475,3540 6475,6478 3537,6478 3537,3540 3566,3569 6446,3569 6446,6449 3566,6449 3566,3569 "/>
       <polygon id="_200" class="fil44" points="3552,3555 6461,3555 6461,6464 3552,6464 3552,3555 3581,3584 6432,3584 6432,6434 3581,6434 3581,3584 "/>
       <polygon id="_201" class="fil44" points="3566,3569 6446,3569 6446,6449 3566,6449 3566,3569 3595,3598 6417,3598 6417,6420 3595,6420 3595,3598 "/>
       <polygon id="_202" class="fil44" points="3581,3584 6432,3584 6432,6434 3581,6434 3581,3584 3610,3613 6402,3613 6402,6405 3610,6405 3610,3613 "/>
       <polygon id="_203" class="fil44" points="3595,3598 6417,3598 6417,6420 3595,6420 3595,3598 3625,3627 6388,3627 6388,6391 3625,6391 3625,3627 "/>
       <polygon id="_204" class="fil44" points="3610,3613 6402,3613 6402,6405 3610,6405 3610,3613 3639,3642 6373,3642 6373,6376 3639,6376 3639,3642 "/>
       <polygon id="_205" class="fil44" points="3625,3627 6388,3627 6388,6391 3625,6391 3625,3627 3654,3657 6359,3657 6359,6362 3654,6362 3654,3657 "/>
       <polygon id="_206" class="fil44" points="3639,3642 6373,3642 6373,6376 3639,6376 3639,3642 3668,3671 6344,3671 6344,6347 3668,6347 3668,3671 "/>
       <polygon id="_207" class="fil44" points="3654,3657 6359,3657 6359,6362 3654,6362 3654,3657 3683,3686 6330,3686 6330,6333 3683,6333 3683,3686 "/>
       <polygon id="_208" class="fil44" points="3668,3671 6344,3671 6344,6347 3668,6347 3668,3671 3697,3700 6315,3700 6315,6318 3697,6318 3697,3700 "/>
       <polygon id="_209" class="fil44" points="3683,3686 6330,3686 6330,6333 3683,6333 3683,3686 3712,3715 6301,3715 6301,6304 3712,6304 3712,3715 "/>
       <polygon id="_210" class="fil44" points="3697,3700 6315,3700 6315,6318 3697,6318 3697,3700 3726,3729 6286,3729 6286,6289 3726,6289 3726,3729 "/>
       <polygon id="_211" class="fil44" points="3712,3715 6301,3715 6301,6304 3712,6304 3712,3715 3741,3744 6272,3744 6272,6274 3741,6274 3741,3744 "/>
       <polygon id="_212" class="fil44" points="3726,3729 6286,3729 6286,6289 3726,6289 3726,3729 3755,3758 6257,3758 6257,6260 3755,6260 3755,3758 "/>
       <polygon id="_213" class="fil44" points="3741,3744 6272,3744 6272,6274 3741,6274 3741,3744 3770,3773 6242,3773 6242,6245 3770,6245 3770,3773 "/>
       <polygon id="_214" class="fil44" points="3755,3758 6257,3758 6257,6260 3755,6260 3755,3758 3785,3787 6228,3787 6228,6231 3785,6231 3785,3787 "/>
       <polygon id="_215" class="fil44" points="3770,3773 6242,3773 6242,6245 3770,6245 3770,3773 3799,3802 6213,3802 6213,6216 3799,6216 3799,3802 "/>
       <polygon id="_216" class="fil44" points="3785,3787 6228,3787 6228,6231 3785,6231 3785,3787 3814,3817 6199,3817 6199,6202 3814,6202 3814,3817 "/>
       <polygon id="_217" class="fil44" points="3799,3802 6213,3802 6213,6216 3799,6216 3799,3802 3828,3831 6184,3831 6184,6187 3828,6187 3828,3831 "/>
       <polygon id="_218" class="fil44" points="3814,3817 6199,3817 6199,6202 3814,6202 3814,3817 3843,3846 6170,3846 6170,6173 3843,6173 3843,3846 "/>
       <polygon id="_219" class="fil44" points="3828,3831 6184,3831 6184,6187 3828,6187 3828,3831 3857,3860 6155,3860 6155,6158 3857,6158 3857,3860 "/>
       <polygon id="_220" class="fil44" points="3843,3846 6170,3846 6170,6173 3843,6173 3843,3846 3872,3875 6141,3875 6141,6144 3872,6144 3872,3875 "/>
       <polygon id="_221" class="fil44" points="3857,3860 6155,3860 6155,6158 3857,6158 3857,3860 3886,3889 6126,3889 6126,6129 3886,6129 3886,3889 "/>
       <polygon id="_222" class="fil44" points="3872,3875 6141,3875 6141,6144 3872,6144 3872,3875 3901,3904 6112,3904 6112,6114 3901,6114 3901,3904 "/>
       <polygon id="_223" class="fil44" points="3886,3889 6126,3889 6126,6129 3886,6129 3886,3889 3915,3918 6097,3918 6097,6100 3915,6100 3915,3918 "/>
       <polygon id="_224" class="fil44" points="3901,3904 6112,3904 6112,6114 3901,6114 3901,3904 3930,3933 6082,3933 6082,6085 3930,6085 3930,3933 "/>
       <polygon id="_225" class="fil44" points="3915,3918 6097,3918 6097,6100 3915,6100 3915,3918 3944,3947 6068,3947 6068,6071 3944,6071 3944,3947 "/>
       <polygon id="_226" class="fil44" points="3930,3933 6082,3933 6082,6085 3930,6085 3930,3933 3959,3962 6053,3962 6053,6056 3959,6056 3959,3962 "/>
       <polygon id="_227" class="fil44" points="3944,3947 6068,3947 6068,6071 3944,6071 3944,3947 3974,3976 6039,3976 6039,6042 3974,6042 3974,3976 "/>
       <polygon id="_228" class="fil44" points="3959,3962 6053,3962 6053,6056 3959,6056 3959,3962 3988,3991 6024,3991 6024,6027 3988,6027 3988,3991 "/>
       <polygon id="_229" class="fil44" points="3974,3976 6039,3976 6039,6042 3974,6042 3974,3976 4003,4006 6010,4006 6010,6013 4003,6013 4003,4006 "/>
       <polygon id="_230" class="fil44" points="3988,3991 6024,3991 6024,6027 3988,6027 3988,3991 4017,4020 5995,4020 5995,5998 4017,5998 4017,4020 "/>
       <polygon id="_231" class="fil44" points="4003,4006 6010,4006 6010,6013 4003,6013 4003,4006 4032,4035 5981,4035 5981,5984 4032,5984 4032,4035 "/>
       <polygon id="_232" class="fil44" points="4017,4020 5995,4020 5995,5998 4017,5998 4017,4020 4046,4049 5966,4049 5966,5969 4046,5969 4046,4049 "/>
       <polygon id="_233" class="fil44" points="4032,4035 5981,4035 5981,5984 4032,5984 4032,4035 4061,4064 5952,4064 5952,5954 4061,5954 4061,4064 "/>
       <polygon id="_234" class="fil44" points="4046,4049 5966,4049 5966,5969 4046,5969 4046,4049 4075,4078 5937,4078 5937,5940 4075,5940 4075,4078 "/>
       <polygon id="_235" class="fil44" points="4061,4064 5952,4064 5952,5954 4061,5954 4061,4064 4090,4093 5922,4093 5922,5925 4090,5925 4090,4093 "/>
       <polygon id="_236" class="fil44" points="4075,4078 5937,4078 5937,5940 4075,5940 4075,4078 4104,4107 5908,4107 5908,5911 4104,5911 4104,4107 "/>
       <polygon id="_237" class="fil44" points="4090,4093 5922,4093 5922,5925 4090,5925 4090,4093 4119,4122 5893,4122 5893,5896 4119,5896 4119,4122 "/>
       <polygon id="_238" class="fil44" points="4104,4107 5908,4107 5908,5911 4104,5911 4104,4107 4134,4136 5879,4136 5879,5882 4134,5882 4134,4136 "/>
       <polygon id="_239" class="fil44" points="4119,4122 5893,4122 5893,5896 4119,5896 4119,4122 4148,4151 5864,4151 5864,5867 4148,5867 4148,4151 "/>
       <polygon id="_240" class="fil44" points="4134,4136 5879,4136 5879,5882 4134,5882 4134,4136 4163,4166 5850,4166 5850,5853 4163,5853 4163,4166 "/>
       <polygon id="_241" class="fil44" points="4148,4151 5864,4151 5864,5867 4148,5867 4148,4151 4177,4180 5835,4180 5835,5838 4177,5838 4177,4180 "/>
       <polygon id="_242" class="fil44" points="4163,4166 5850,4166 5850,5853 4163,5853 4163,4166 4192,4195 5821,4195 5821,5824 4192,5824 4192,4195 "/>
       <polygon id="_243" class="fil44" points="4177,4180 5835,4180 5835,5838 4177,5838 4177,4180 4206,4209 5806,4209 5806,5809 4206,5809 4206,4209 "/>
       <polygon id="_244" class="fil44" points="4192,4195 5821,4195 5821,5824 4192,5824 4192,4195 4221,4224 5792,4224 5792,5794 4221,5794 4221,4224 "/>
       <polygon id="_245" class="fil44" points="4206,4209 5806,4209 5806,5809 4206,5809 4206,4209 4235,4238 5777,4238 5777,5780 4235,5780 4235,4238 "/>
       <polygon id="_246" class="fil44" points="4221,4224 5792,4224 5792,5795 4221,5795 4221,4224 4250,4253 5762,4253 5762,5765 4250,5765 4250,4253 "/>
       <polygon id="_247" class="fil44" points="4235,4238 5777,4238 5777,5780 4235,5780 4235,4238 4264,4267 5748,4267 5748,5751 4264,5751 4264,4267 "/>
       <polygon id="_248" class="fil44" points="4250,4253 5762,4253 5762,5765 4250,5765 4250,4253 4279,4282 5733,4282 5733,5736 4279,5736 4279,4282 "/>
       <polygon id="_249" class="fil44" points="4264,4267 5748,4267 5748,5751 4264,5751 4264,4267 4294,4296 5719,4296 5719,5722 4294,5722 4294,4296 "/>
       <polygon id="_250" class="fil44" points="4279,4282 5733,4282 5733,5736 4279,5736 4279,4282 4308,4311 5704,4311 5704,5707 4308,5707 4308,4311 "/>
       <polygon id="_251" class="fil44" points="4294,4296 5719,4296 5719,5722 4294,5722 4294,4296 4323,4326 5690,4326 5690,5693 4323,5693 4323,4326 "/>
       <polygon id="_252" class="fil44" points="4308,4311 5704,4311 5704,5707 4308,5707 4308,4311 4337,4340 5675,4340 5675,5678 4337,5678 4337,4340 "/>
       <polygon id="_253" class="fil44" points="4323,4326 5690,4326 5690,5693 4323,5693 4323,4326 4352,4355 5661,4355 5661,5664 4352,5664 4352,4355 "/>
       <polygon id="_254" class="fil44" points="4337,4340 5675,4340 5675,5678 4337,5678 4337,4340 4366,4369 5646,4369 5646,5649 4366,5649 4366,4369 "/>
       <polygon id="_255" class="fil44" points="4352,4355 5661,4355 5661,5664 4352,5664 4352,4355 4381,4384 5632,4384 5632,5635 4381,5635 4381,4384 "/>
       <polygon id="_256" class="fil44" points="4366,4369 5646,4369 5646,5649 4366,5649 4366,4369 4395,4398 5617,4398 5617,5620 4395,5620 4395,4398 "/>
       <polygon id="_257" class="fil44" points="4381,4384 5632,4384 5632,5635 4381,5635 4381,4384 4410,4413 5602,4413 5602,5605 4410,5605 4410,4413 "/>
       <polygon id="_258" class="fil44" points="4395,4398 5617,4398 5617,5620 4395,5620 4395,4398 4424,4427 5588,4427 5588,5591 4424,5591 4424,4427 "/>
       <polygon id="_259" class="fil44" points="4410,4413 5602,4413 5602,5605 4410,5605 4410,4413 4439,4442 5573,4442 5573,5576 4439,5576 4439,4442 "/>
       <polygon id="_260" class="fil44" points="4424,4427 5588,4427 5588,5591 4424,5591 4424,4427 4454,4456 5559,4456 5559,5562 4454,5562 4454,4456 "/>
       <polygon id="_261" class="fil44" points="4439,4442 5573,4442 5573,5576 4439,5576 4439,4442 4468,4471 5544,4471 5544,5547 4468,5547 4468,4471 "/>
       <polygon id="_262" class="fil44" points="4454,4456 5559,4456 5559,5562 4454,5562 4454,4456 4483,4486 5530,4486 5530,5533 4483,5533 4483,4486 "/>
       <polygon id="_263" class="fil44" points="4468,4471 5544,4471 5544,5547 4468,5547 4468,4471 4497,4500 5515,4500 5515,5518 4497,5518 4497,4500 "/>
       <polygon id="_264" class="fil44" points="4483,4486 5530,4486 5530,5533 4483,5533 4483,4486 4512,4515 5501,4515 5501,5504 4512,5504 4512,4515 "/>
       <polygon id="_265" class="fil44" points="4497,4500 5515,4500 5515,5518 4497,5518 4497,4500 4526,4529 5486,4529 5486,5489 4526,5489 4526,4529 "/>
       <polygon id="_266" class="fil44" points="4512,4515 5501,4515 5501,5504 4512,5504 4512,4515 4541,4544 5472,4544 5472,5475 4541,5475 4541,4544 "/>
       <polygon id="_267" class="fil44" points="4526,4529 5486,4529 5486,5489 4526,5489 4526,4529 4555,4558 5457,4558 5457,5460 4555,5460 4555,4558 "/>
       <polygon id="_268" class="fil44" points="4541,4544 5472,4544 5472,5475 4541,5475 4541,4544 4570,4573 5443,4573 5443,5445 4570,5445 4570,4573 "/>
       <polygon id="_269" class="fil44" points="4555,4558 5457,4558 5457,5460 4555,5460 4555,4558 4584,4587 5428,4587 5428,5431 4584,5431 4584,4587 "/>
       <polygon id="_270" class="fil44" points="4570,4573 5443,4573 5443,5445 4570,5445 4570,4573 4599,4602 5413,4602 5413,5416 4599,5416 4599,4602 "/>
       <polygon id="_271" class="fil44" points="4584,4587 5428,4587 5428,5431 4584,5431 4584,4587 4614,4616 5399,4616 5399,5402 4614,5402 4614,4616 "/>
       <polygon id="_272" class="fil44" points="4599,4602 5413,4602 5413,5416 4599,5416 4599,4602 4628,4631 5384,4631 5384,5387 4628,5387 4628,4631 "/>
       <polygon id="_273" class="fil44" points="4613,4616 5399,4616 5399,5402 4613,5402 4613,4616 4643,4646 5370,4646 5370,5373 4643,5373 4643,4646 "/>
       <polygon id="_274" class="fil44" points="4628,4631 5384,4631 5384,5387 4628,5387 4628,4631 4657,4660 5355,4660 5355,5358 4657,5358 4657,4660 "/>
       <polygon id="_275" class="fil44" points="4643,4646 5370,4646 5370,5373 4643,5373 4643,4646 4672,4675 5341,4675 5341,5344 4672,5344 4672,4675 "/>
       <polygon id="_276" class="fil44" points="4657,4660 5355,4660 5355,5358 4657,5358 4657,4660 4686,4689 5326,4689 5326,5329 4686,5329 4686,4689 "/>
       <polygon id="_277" class="fil44" points="4672,4675 5341,4675 5341,5344 4672,5344 4672,4675 4701,4704 5312,4704 5312,5315 4701,5315 4701,4704 "/>
       <polygon id="_278" class="fil44" points="4686,4689 5326,4689 5326,5329 4686,5329 4686,4689 4715,4718 5297,4718 5297,5300 4715,5300 4715,4718 "/>
       <polygon id="_279" class="fil44" points="4701,4704 5312,4704 5312,5315 4701,5315 4701,4704 4730,4733 5283,4733 5283,5285 4730,5285 4730,4733 "/>
       <polygon id="_280" class="fil44" points="4715,4718 5297,4718 5297,5300 4715,5300 4715,4718 4744,4747 5268,4747 5268,5271 4744,5271 4744,4747 "/>
       <polygon id="_281" class="fil44" points="4730,4733 5283,4733 5283,5285 4730,5285 4730,4733 4759,4762 5253,4762 5253,5256 4759,5256 4759,4762 "/>
       <polygon id="_282" class="fil44" points="4744,4747 5268,4747 5268,5271 4744,5271 4744,4747 4774,4776 5239,4776 5239,5242 4774,5242 4774,4776 "/>
       <polygon id="_283" class="fil44" points="4759,4762 5253,4762 5253,5256 4759,5256 4759,4762 4788,4791 5224,4791 5224,5227 4788,5227 4788,4791 "/>
       <polygon id="_284" class="fil44" points="4774,4776 5239,4776 5239,5242 4774,5242 4774,4776 4803,4806 5210,4806 5210,5213 4803,5213 4803,4806 "/>
       <polygon id="_285" class="fil44" points="4788,4791 5224,4791 5224,5227 4788,5227 4788,4791 4817,4820 5195,4820 5195,5198 4817,5198 4817,4820 "/>
       <polygon id="_286" class="fil44" points="4803,4806 5210,4806 5210,5213 4803,5213 4803,4806 4832,4835 5181,4835 5181,5184 4832,5184 4832,4835 "/>
       <polygon id="_287" class="fil44" points="4817,4820 5195,4820 5195,5198 4817,5198 4817,4820 4846,4849 5166,4849 5166,5169 4846,5169 4846,4849 "/>
       <polygon id="_288" class="fil44" points="4832,4835 5181,4835 5181,5184 4832,5184 4832,4835 4861,4864 5152,4864 5152,5155 4861,5155 4861,4864 "/>
       <polygon id="_289" class="fil44" points="4846,4849 5166,4849 5166,5169 4846,5169 4846,4849 4875,4878 5137,4878 5137,5140 4875,5140 4875,4878 "/>
       <polygon id="_290" class="fil44" points="4861,4864 5152,4864 5152,5155 4861,5155 4861,4864 4890,4893 5123,4893 5123,5125 4890,5125 4890,4893 "/>
       <polygon id="_291" class="fil44" points="4875,4878 5137,4878 5137,5140 4875,5140 4875,4878 4904,4907 5108,4907 5108,5111 4904,5111 4904,4907 "/>
       <polygon id="_292" class="fil44" points="4890,4893 5123,4893 5123,5125 4890,5125 4890,4893 4919,4922 5093,4922 5093,5096 4919,5096 4919,4922 "/>
       <polygon id="_293" class="fil44" points="4904,4907 5108,4907 5108,5111 4904,5111 4904,4907 4933,4936 5079,4936 5079,5082 4933,5082 4933,4936 "/>
       <polygon id="_294" class="fil44" points="4919,4922 5093,4922 5093,5096 4919,5096 4919,4922 4948,4951 5064,4951 5064,5067 4948,5067 4948,4951 "/>
       <polygon id="_295" class="fil44" points="4933,4936 5079,4936 5079,5082 4933,5082 4933,4936 4963,4965 5050,4965 5050,5053 4963,5053 4963,4965 "/>
       <polygon id="_296" class="fil44" points="4948,4951 5064,4951 5064,5067 4948,5067 4948,4951 4977,4980 5035,4980 5035,5038 4977,5038 4977,4980 "/>
       <polygon id="_297" class="fil44" points="4963,4965 5050,4965 5050,5053 4963,5053 4963,4965 4992,4995 5021,4995 5021,5024 4992,5024 4992,4995 "/>
       <polygon id="_298" class="fil44" points="4977,4980 5035,4980 5035,5038 4977,5038 4977,4980 5006,5009 5006,5009 5006,5009 5006,5009 5006,5009 "/>
       <polygon id="_299" class="fil44" points="4992,4995 5021,4995 5021,5024 4992,5024 "/>
      </g>
     </g>
     <path class="fil45" d="M1598 9372l6817 0c525,0 955,-430 955,-955l0 -6817c0,-525 -430,-955 -955,-955l-6817 0c-525,0 -955,430 -955,955l0 6817c0,525 430,955 955,955z"/>
    </g>
   </g>
  </g>
  <path class="fil46" d="M981 3918l453 -401c440,730 552,1670 29,2473l-476 -410c207,-252 295,-599 286,-854 -8,-242 -152,-678 -292,-807z"/>
  <path class="fil47" d="M1731 3172l579 -574c848,1456 765,2845 0,4195l-576 -545c244,-243 507,-892 486,-1630 -21,-727 -435,-1357 -489,-1447z"/>
  <path class="fil48" d="M2592 2303l576 -673c1248,1565 1500,3918 133,6086l-650 -640c256,-499 709,-1365 660,-2443 -69,-1531 -519,-1947 -719,-2330z"/>
  <rect class="fil49" x="5006" y="4614" width="2554" height="226" rx="85" ry="85"/>
  <path class="fil49 str0" d="M7595 4257l357 381c10,11 17,23 21,36 31,39 28,96 -9,132l-374 364c-39,38 -102,37 -140,-2l0 0c-38,-39 -37,-102 2,-140l311 -302 -313 -334c-37,-40 -35,-102 5,-140l0 0c40,-37 102,-35 140,5z"/>
  <path class="fil49 str0" d="M4946 4239l-357 381c-10,11 -17,23 -21,36 -31,39 -28,96 9,132l374 364c39,38 102,37 140,-2l0 0c38,-39 37,-102 -2,-140l-311 -302 313 -334c37,-40 35,-102 -5,-140l0 0c-40,-37 -102,-35 -140,5z"/>
  <rect class="fil50" x="8128" y="2475" width="564" height="4604" rx="194" ry="194"/>
  <circle class="fil51" cx="5934" cy="7544" r="1270"/>
  <circle class="fil52" cx="5934" cy="7544" r="976"/>
  <rect class="fil53" x="5809" y="6769" width="184" height="907"/>
  <rect class="fil53" transform="matrix(3.86591E-014 1.30127 -1.25918 2.97294E-014 6718.78 7488.44)" width="141" height="720"/>
  <line class="fil45 str1" x1="5631" y1="6927" x2="5944" y2= "6659" />
  <line class="fil45 str1" x1="6179" y1="6926" x2="5865" y2= "6658" />
  <line class="fil45 str1" x1="6538" y1="7309" x2="6806" y2= "7622" />
  <line class="fil45 str1" x1="6537" y1="7857" x2="6805" y2= "7543" />
 </g>
</svg>
