<?xml version="1.0" encoding="UTF-8"?>
<!DOCTYPE svg PUBLIC "-//W3C//DTD SVG 1.1//EN" "http://www.w3.org/Graphics/SVG/1.1/DTD/svg11.dtd">
<!-- Creator: CorelDRAW X6 -->
<svg xmlns="http://www.w3.org/2000/svg" xml:space="preserve" width="150px" height="150px" version="1.1" style="shape-rendering:geometricPrecision; text-rendering:geometricPrecision; image-rendering:optimizeQuality; fill-rule:evenodd; clip-rule:evenodd"
viewBox="0 0 15000 15000"
 xmlns:xlink="http://www.w3.org/1999/xlink">
 <defs>
  <style type="text/css">
   <![CDATA[
    .str0 {stroke:#990000;stroke-width:79.375}
    .str1 {stroke:#1A1A1A;stroke-width:127}
    .str2 {stroke:#990000;stroke-width:127}
    .str3 {stroke:#990000;stroke-width:158.75}
    .fil3 {fill:none}
    .fil1 {fill:url(#id0)}
    .fil2 {fill:url(#id1)}
    .fil0 {fill:url(#id2)}
   ]]>
  </style>
  <linearGradient id="id0" gradientUnits="userSpaceOnUse" x1="5830.73" y1="12765.5" x2="5830.73" y2="2312.88">
   <stop offset="0" style="stop-color:#4D4D4D"/>
   <stop offset="1" style="stop-color:#999999"/>
  </linearGradient>
  <linearGradient id="id1" gradientUnits="userSpaceOnUse" x1="2872.35" y1="13493.4" x2="2872.35" y2="1398.24">
   <stop offset="0" style="stop-color:#333333"/>
   <stop offset="0.301961" style="stop-color:#999999"/>
   <stop offset="0.501961" style="stop-color:#B3B3B3"/>
   <stop offset="0.701961" style="stop-color:#999999"/>
   <stop offset="1" style="stop-color:#333333"/>
  </linearGradient>
  <radialGradient id="id2" gradientUnits="objectBoundingBox" cx="71.9999%" cy="30.0001%" r="50%" fx="71.9999%" fy="30.0001%">
   <stop offset="0" style="stop-color:#FFCC99"/>
   <stop offset="0.231373" style="stop-color:#FF664C"/>
   <stop offset="1" style="stop-color:red"/>
  </radialGradient>
 </defs>
 <g id="Layer_x0020_1">
  <metadata id="CorelCorpID_0Corel-Layer"/>
  <ellipse class="fil0 str0" cx="6559" cy="4515" rx="1195" ry="1381"/>
  <ellipse class="fil0 str0" cx="6559" cy="10563" rx="1195" ry="1381"/>
  <rect class="fil1 str1" x="5177" y="2313" width="1307" height="10453"/>
  <rect class="fil2 str1" x="586" y="1398" width="4573" height="12095" rx="275" ry="350"/>
  <g id="_306981256">
   <path class="fil3 str2" d="M8062 3796c899,-4 889,1312 3,1317"/>
   <path class="fil3 str2" d="M9801 3258c1735,-8 1716,2531 6,2542"/>
   <path class="fil3 str3" d="M12350 2239c2350,-14 2324,4265 8,4284"/>
   <path class="fil3 str2" d="M8062 9913c899,-4 889,1312 3,1317"/>
   <path class="fil3 str2" d="M9801 9374c1735,-8 1716,2531 6,2542"/>
   <path class="fil3 str3" d="M12350 8356c2350,-14 2324,4265 8,4284"/>
  </g>
 </g>
</svg>
