<?xml version="1.0" encoding="UTF-8" standalone="no"?>
<svg
   xmlns:dc="http://purl.org/dc/elements/1.1/"
   xmlns:cc="http://creativecommons.org/ns#"
   xmlns:rdf="http://www.w3.org/1999/02/22-rdf-syntax-ns#"
   xmlns:svg="http://www.w3.org/2000/svg"
   xmlns="http://www.w3.org/2000/svg"
   xmlns:sodipodi="http://sodipodi.sourceforge.net/DTD/sodipodi-0.dtd"
   xmlns:inkscape="http://www.inkscape.org/namespaces/inkscape"
   id="Слой_1"
   data-name="Слой 1"
   viewBox="0 0 98.7 98.7"
   version="1.1"
   sodipodi:docname="color10.svg"
   inkscape:version="0.92.1 r15371">
  <metadata
     id="metadata4170">
    <rdf:RDF>
      <cc:Work
         rdf:about="">
        <dc:format>image/svg+xml</dc:format>
        <dc:type
           rdf:resource="http://purl.org/dc/dcmitype/StillImage" />
      </cc:Work>
    </rdf:RDF>
  </metadata>
  <sodipodi:namedview
     pagecolor="#ffffff"
     bordercolor="#666666"
     borderopacity="1"
     objecttolerance="10"
     gridtolerance="10"
     guidetolerance="10"
     inkscape:pageopacity="0"
     inkscape:pageshadow="2"
     inkscape:window-width="657"
     inkscape:window-height="480"
     id="namedview4168"
     showgrid="false"
     inkscape:zoom="2.3910842"
     inkscape:cx="49.349998"
     inkscape:cy="49.349998"
     inkscape:window-x="0"
     inkscape:window-y="0"
     inkscape:window-maximized="0"
     inkscape:current-layer="Слой_1" />
  <defs
     id="defs3757">
    <style
       id="style3755">.cls-1{fill:#68513d;}.cls-2{fill:#69513d;}.cls-3{fill:#69523e;}.cls-4{fill:#6a523e;}.cls-5{fill:#6a533e;}.cls-6{fill:#6b533e;}.cls-7{fill:#6b533f;}.cls-8{fill:#6c543f;}.cls-9{fill:#6d5540;}.cls-10{fill:#6e5540;}.cls-11{fill:#6e5641;}.cls-12{fill:#6f5641;}.cls-13{fill:#6f5741;}.cls-14{fill:#705741;}.cls-15{fill:#705742;}.cls-16{fill:#715842;}.cls-17{fill:#725943;}.cls-18{fill:#735943;}.cls-19{fill:#735a44;}.cls-20{fill:#745a44;}.cls-21{fill:#745b44;}.cls-22{fill:#755b44;}.cls-23{fill:#755b45;}.cls-24{fill:#765c45;}.cls-25{fill:#775c46;}.cls-26{fill:#775d46;}.cls-27{fill:#785d46;}.cls-28{fill:#785e47;}.cls-29{fill:#795e47;}.cls-30{fill:#7a5e47;}.cls-31{fill:#7a5f47;}.cls-32{fill:#7b5f48;}.cls-33{fill:#7b6048;}.cls-34{fill:#7c6048;}.cls-35{fill:#7c6049;}.cls-36{fill:#7d6149;}.cls-37{fill:#7e6249;}.cls-38{fill:#7e624a;}.cls-39{fill:#7f624a;}.cls-40{fill:#7f634a;}.cls-41{fill:#80634b;}.cls-42{fill:#80644b;}.cls-43{fill:#81644b;}.cls-44{fill:#81644c;}.cls-45{fill:#82654c;}.cls-46{fill:#83664c;}.cls-47{fill:#83664d;}.cls-48{fill:#84664d;}.cls-49{fill:#84674d;}.cls-50{fill:#85674e;}.cls-51{fill:#85684e;}.cls-52{fill:#86684e;}.cls-53{fill:#86684f;}.cls-54{fill:#87694f;}.cls-55{fill:#886a4f;}.cls-56{fill:#886a50;}.cls-57{fill:#896a50;}.cls-58{fill:#896b50;}.cls-59{fill:#8a6b51;}.cls-60{fill:#8a6c51;}.cls-61{fill:#8b6c51;}.cls-62{fill:#8c6c51;}.cls-63{fill:#8c6d52;}.cls-64{fill:#8d6d52;}.cls-65{fill:#8d6e52;}.cls-66{fill:#8e6e53;}.cls-67{fill:#8f6f53;}.cls-68{fill:#8f6f54;}.cls-69{fill:#906f54;}.cls-70{fill:#907054;}.cls-71{fill:#917054;}.cls-72{fill:#917155;}.cls-73{fill:#927155;}.cls-74{fill:#937256;}.cls-75{fill:#947356;}.cls-76{fill:#947357;}.cls-77{fill:#957357;}.cls-78{fill:#957457;}.cls-79{fill:#967457;}.cls-80{fill:#967558;}.cls-81{fill:#977558;}.cls-82{fill:#987659;}.cls-83{fill:#997759;}.cls-84{fill:#99775a;}.cls-85{fill:#9a775a;}.cls-86{fill:#9a785a;}.cls-87{fill:#9b785a;}.cls-88{fill:#9b795b;}.cls-89{fill:#9c795b;}.cls-90{fill:#9d795b;}.cls-91{fill:#9d7a5c;}.cls-92{fill:#9e7a5c;}.cls-93{fill:#9e7b5c;}.cls-94{fill:#9f7b5c;}.cls-95{fill:#9f7b5d;}.cls-96{fill:#a07c5d;}.cls-97{fill:#a17d5e;}.cls-98{fill:#a27d5e;}.cls-99{fill:#a27e5f;}.cls-100{fill:#a37e5f;}.cls-101{fill:#a37f5f;}.cls-102{fill:#a47f5f;}.cls-103{fill:#a47f60;}.cls-104{fill:#a58060;}.cls-105{fill:#a68161;}.cls-106{fill:#a78161;}.cls-107{fill:#a78262;}.cls-108{fill:#a88262;}.cls-109{fill:#a88362;}.cls-110{fill:#a98362;}.cls-111{fill:#a98363;}.cls-112{fill:#aa8463;}.cls-113{fill:#ab8464;}.cls-114{fill:#ab8564;}.cls-115{fill:#ac8564;}.cls-116{fill:#ac8665;}.cls-117{fill:#ad8665;}.cls-118{fill:#ae8665;}.cls-119{fill:#ae8765;}.cls-120{fill:#af8766;}.cls-121{fill:#af8866;}.cls-122{fill:#b08866;}.cls-123{fill:#b08867;}.cls-124{fill:#b18967;}.cls-125{fill:#b28a67;}.cls-126{fill:#b28a68;}.cls-127{fill:#b38a68;}.cls-128{fill:#b38b68;}.cls-129{fill:#b48b69;}.cls-130{fill:#b48c69;}.cls-131{fill:#b58c69;}.cls-132{fill:#b58c6a;}.cls-133{fill:#b68d6a;}.cls-134{fill:#b78e6a;}.cls-135{fill:#b78e6b;}.cls-136{fill:#b88e6b;}.cls-137{fill:#b88f6b;}.cls-138{fill:#b98f6c;}.cls-139{fill:#b9906c;}.cls-140{fill:#ba906c;}.cls-141{fill:#ba906d;}.cls-142{fill:#bb916d;}.cls-143{fill:#bc926d;}.cls-144{fill:#bc926e;}.cls-145{fill:#bd926e;}.cls-146{fill:#bd936e;}.cls-147{fill:#be936f;}.cls-148{fill:#be946f;}.cls-149{fill:#bf946f;}.cls-150{fill:#c0946f;}.cls-151{fill:#c09570;}.cls-152{fill:#c19570;}.cls-153{fill:#c19670;}.cls-154{fill:#c29671;}.cls-155{fill:#c39771;}.cls-156{fill:#c39772;}.cls-157{fill:#c49772;}.cls-158{fill:#c49872;}.cls-159{fill:#c59872;}.cls-160{fill:#c59973;}.cls-161{fill:#c69973;}.cls-162{fill:#c79a74;}.cls-163{fill:#c89b74;}.cls-164{fill:#c89b75;}.cls-165{fill:#c99b75;}.cls-166{fill:#c99c75;}.cls-167{fill:#ca9c75;}.cls-168{fill:#ca9d76;}.cls-169{fill:#cb9d76;}.cls-170{fill:#cc9e77;}.cls-171{fill:#cd9f77;}.cls-172{fill:#cd9f78;}.cls-173{fill:#ce9f78;}.cls-174{fill:#cea078;}.cls-175{fill:#cfa078;}.cls-176{fill:#cfa179;}.cls-177{fill:#d0a179;}</style>
  </defs>
  <title
     id="title3759">color10</title>
  <g
     id="g12436">
    <path
       id="path3761"
       transform="translate(-7.83,-7.33)"
       d="m 92.53,7.33 a 14,14 0 0 1 14,14 v 0 V 92 a 14,14 0 0 1 -14,14 H 21.83 A 14,14 0 0 1 7.83,92 V 21.33 a 13.91,13.91 0 0 1 13.82,-14"
       class="cls-1"
       inkscape:connector-curvature="0"
       style="fill:#68513d" />
    <path
       id="path3763"
       transform="translate(-7.83,-7.33)"
       d="m 92.46,7.42 a 14,14 0 0 1 14,14 v 0 V 92 a 14,14 0 0 1 -14,14 H 21.9 A 14,14 0 0 1 7.9,92 V 21.4 a 13.88,13.88 0 0 1 13.79,-14"
       class="cls-2"
       inkscape:connector-curvature="0"
       style="fill:#69513d" />
    <path
       id="path3765"
       transform="translate(-7.83,-7.33)"
       d="m 92.39,7.52 a 13.94,13.94 0 0 1 13.94,13.94 v 0 70.43 A 13.94,13.94 0 0 1 92.39,105.83 H 22 A 13.94,13.94 0 0 1 8,91.89 V 21.47 A 13.85,13.85 0 0 1 21.79,7.52"
       class="cls-3"
       inkscape:connector-curvature="0"
       style="fill:#69523e" />
    <path
       id="path3767"
       transform="translate(-7.83,-7.33)"
       d="m 92.32,7.62 a 13.92,13.92 0 0 1 13.92,13.92 v 0 70.28 A 13.92,13.92 0 0 1 92.32,105.74 H 22 A 13.92,13.92 0 0 1 8.12,91.82 V 21.54 A 13.83,13.83 0 0 1 21.86,7.62"
       class="cls-4"
       inkscape:connector-curvature="0"
       style="fill:#6a523e" />
    <path
       id="path3769"
       transform="translate(-7.83,-7.33)"
       d="m 92.25,7.72 a 13.89,13.89 0 0 1 13.89,13.89 v 0 70.14 A 13.89,13.89 0 0 1 92.25,105.64 H 22.11 A 13.89,13.89 0 0 1 8.22,91.75 V 21.61 A 13.8,13.8 0 0 1 21.93,7.72"
       class="cls-5"
       inkscape:connector-curvature="0"
       style="fill:#6a533e" />
    <path
       id="path3771"
       transform="translate(-7.83,-7.33)"
       d="M 92.18,7.82 A 13.86,13.86 0 0 1 106,21.68 v 0 70 a 13.86,13.86 0 0 1 -13.86,13.86 h -70 A 13.86,13.86 0 0 1 8.32,91.68 v -70 A 13.77,13.77 0 0 1 22,7.82"
       class="cls-6"
       inkscape:connector-curvature="0"
       style="fill:#6b533e" />
    <path
       id="path3773"
       transform="translate(-7.83,-7.33)"
       d="m 92.11,7.91 a 13.83,13.83 0 0 1 13.83,13.83 v 0 69.87 A 13.83,13.83 0 0 1 92.11,105.44 H 22.25 A 13.83,13.83 0 0 1 8.42,91.61 V 21.75 A 13.74,13.74 0 0 1 22.07,7.91"
       class="cls-7"
       inkscape:connector-curvature="0"
       style="fill:#6b533f" />
    <path
       id="path3775"
       transform="translate(-7.83,-7.33)"
       d="m 92,8 a 13.81,13.81 0 0 1 13.81,13.81 v 0 69.73 A 13.81,13.81 0 0 1 92,105.34 H 22.32 A 13.81,13.81 0 0 1 8.51,91.54 V 21.82 A 13.72,13.72 0 0 1 22.14,8"
       class="cls-8"
       inkscape:connector-curvature="0"
       style="fill:#6c543f" />
    <path
       id="path3777"
       transform="translate(-7.83,-7.33)"
       d="m 92,8.11 a 13.78,13.78 0 0 1 13.78,13.78 v 0 69.58 A 13.78,13.78 0 0 1 92,105.25 H 22.39 A 13.78,13.78 0 0 1 8.61,91.47 V 21.89 A 13.69,13.69 0 0 1 22.21,8.11"
       class="cls-8"
       inkscape:connector-curvature="0"
       style="fill:#6c543f" />
    <path
       id="path3779"
       transform="translate(-7.83,-7.33)"
       d="M 91.9,8.21 A 13.75,13.75 0 0 1 105.65,22 v 0 69.4 A 13.75,13.75 0 0 1 91.9,105.15 H 22.46 A 13.75,13.75 0 0 1 8.71,91.4 V 22 A 13.66,13.66 0 0 1 22.28,8.21"
       class="cls-9"
       inkscape:connector-curvature="0"
       style="fill:#6d5540" />
    <path
       id="path3781"
       transform="translate(-7.83,-7.33)"
       d="M 91.83,8.3 A 13.72,13.72 0 0 1 105.55,22 v 0 69.3 A 13.72,13.72 0 0 1 91.83,105 H 22.53 A 13.72,13.72 0 0 1 8.81,91.33 V 22 A 13.63,13.63 0 0 1 22.35,8.3"
       class="cls-9"
       inkscape:connector-curvature="0"
       style="fill:#6d5540" />
    <path
       id="path3783"
       transform="translate(-7.83,-7.33)"
       d="m 91.76,8.4 a 13.7,13.7 0 0 1 13.7,13.7 v 0 69.16 A 13.7,13.7 0 0 1 91.76,105 H 22.6 A 13.7,13.7 0 0 1 8.9,91.26 V 22.1 A 13.61,13.61 0 0 1 22.42,8.4"
       class="cls-10"
       inkscape:connector-curvature="0"
       style="fill:#6e5540" />
    <path
       id="path3785"
       transform="translate(-7.83,-7.33)"
       d="m 91.69,8.5 a 13.67,13.67 0 0 1 13.67,13.67 v 0 69 a 13.67,13.67 0 0 1 -13.67,13.67 h -69 A 13.67,13.67 0 0 1 9,91.19 v -69 A 13.58,13.58 0 0 1 22.49,8.5"
       class="cls-11"
       inkscape:connector-curvature="0"
       style="fill:#6e5641" />
    <path
       id="path3787"
       transform="translate(-7.83,-7.33)"
       d="m 91.62,8.6 a 13.64,13.64 0 0 1 13.64,13.64 v 0 68.88 A 13.64,13.64 0 0 1 91.62,104.76 H 22.74 A 13.64,13.64 0 0 1 9.1,91.12 V 22.24 A 13.55,13.55 0 0 1 22.56,8.6"
       class="cls-12"
       inkscape:connector-curvature="0"
       style="fill:#6f5641" />
    <path
       id="path3789"
       transform="translate(-7.83,-7.33)"
       d="m 91.55,8.69 a 13.61,13.61 0 0 1 13.61,13.61 v 0 V 91 A 13.61,13.61 0 0 1 91.55,104.61 H 22.81 A 13.61,13.61 0 0 1 9.2,91 V 22.31 A 13.52,13.52 0 0 1 22.63,8.69"
       class="cls-13"
       inkscape:connector-curvature="0"
       style="fill:#6f5741" />
    <path
       id="path3791"
       transform="translate(-7.83,-7.33)"
       d="m 91.48,8.79 a 13.58,13.58 0 0 1 13.58,13.58 v 0 V 91 A 13.58,13.58 0 0 1 91.48,104.58 H 22.88 A 13.58,13.58 0 0 1 9.3,91 V 22.38 A 13.5,13.5 0 0 1 22.7,8.79"
       class="cls-14"
       inkscape:connector-curvature="0"
       style="fill:#705741" />
    <path
       id="path3793"
       transform="translate(-7.83,-7.33)"
       d="M 91.41,8.89 A 13.56,13.56 0 0 1 105,22.45 v 0 68.46 A 13.56,13.56 0 0 1 91.44,104.47 H 22.95 A 13.56,13.56 0 0 1 9.39,90.91 V 22.45 A 13.47,13.47 0 0 1 22.77,8.89"
       class="cls-15"
       inkscape:connector-curvature="0"
       style="fill:#705742" />
    <path
       id="path3795"
       transform="translate(-7.83,-7.33)"
       d="m 91.34,9 a 13.53,13.53 0 0 1 13.53,13.53 v 0 68.31 A 13.53,13.53 0 0 1 91.34,104.37 H 23 A 13.53,13.53 0 0 1 9.49,90.84 V 22.52 A 13.44,13.44 0 0 1 22.85,9"
       class="cls-16"
       inkscape:connector-curvature="0"
       style="fill:#715842" />
    <path
       id="path3797"
       transform="translate(-7.83,-7.33)"
       d="m 91.27,9.09 a 13.5,13.5 0 0 1 13.5,13.5 v 0 68.18 a 13.5,13.5 0 0 1 -13.5,13.5 H 23.09 A 13.5,13.5 0 0 1 9.59,90.77 V 22.59 A 13.41,13.41 0 0 1 22.92,9.09"
       class="cls-16"
       inkscape:connector-curvature="0"
       style="fill:#715842" />
    <path
       id="path3799"
       transform="translate(-7.83,-7.33)"
       d="m 91.2,9.18 a 13.47,13.47 0 0 1 13.47,13.47 v 0 68 A 13.47,13.47 0 0 1 91.2,104.17 h -68 A 13.47,13.47 0 0 1 9.69,90.7 v -68 A 13.39,13.39 0 0 1 23,9.18"
       class="cls-17"
       inkscape:connector-curvature="0"
       style="fill:#725943" />
    <path
       id="path3801"
       transform="translate(-7.83,-7.33)"
       d="m 91.13,9.28 a 13.45,13.45 0 0 1 13.45,13.45 v 0 67.9 A 13.45,13.45 0 0 1 91.13,104.08 H 23.23 A 13.45,13.45 0 0 1 9.78,90.63 V 22.73 A 13.36,13.36 0 0 1 23.06,9.28"
       class="cls-17"
       inkscape:connector-curvature="0"
       style="fill:#725943" />
    <path
       id="path3803"
       transform="translate(-7.83,-7.33)"
       d="m 91.06,9.38 a 13.42,13.42 0 0 1 13.42,13.42 v 0 67.76 A 13.42,13.42 0 0 1 91.06,104 H 23.3 A 13.42,13.42 0 0 1 9.88,90.56 V 22.8 A 13.33,13.33 0 0 1 23.13,9.38"
       class="cls-18"
       inkscape:connector-curvature="0"
       style="fill:#735943" />
    <path
       id="path3805"
       transform="translate(-7.83,-7.33)"
       d="m 91,9.48 a 13.39,13.39 0 0 1 13.39,13.39 v 0 67.62 A 13.39,13.39 0 0 1 91,103.88 H 23.37 A 13.39,13.39 0 0 1 10,90.49 V 22.87 A 13.3,13.3 0 0 1 23.2,9.48"
       class="cls-19"
       inkscape:connector-curvature="0"
       style="fill:#735a44" />
    <path
       id="path3807"
       transform="translate(-7.83,-7.33)"
       d="m 90.92,9.57 a 13.36,13.36 0 0 1 13.36,13.36 v 0 67.49 A 13.36,13.36 0 0 1 90.92,103.78 H 23.44 A 13.36,13.36 0 0 1 10.08,90.42 V 22.94 A 13.28,13.28 0 0 1 23.27,9.57"
       class="cls-20"
       inkscape:connector-curvature="0"
       style="fill:#745a44" />
    <path
       id="path3809"
       transform="translate(-7.83,-7.33)"
       d="M 90.85,9.67 A 13.33,13.33 0 0 1 104.18,23 v 0 67.35 A 13.33,13.33 0 0 1 90.85,103.68 H 23.51 A 13.33,13.33 0 0 1 10.18,90.35 V 23 A 13.25,13.25 0 0 1 23.34,9.67"
       class="cls-21"
       inkscape:connector-curvature="0"
       style="fill:#745b44" />
    <path
       id="path3811"
       transform="translate(-7.83,-7.33)"
       d="m 90.78,9.77 a 13.31,13.31 0 0 1 13.31,13.31 v 0 67.2 A 13.31,13.31 0 0 1 90.78,103.59 H 23.58 A 13.31,13.31 0 0 1 10.27,90.28 V 23.08 A 13.22,13.22 0 0 1 23.41,9.77"
       class="cls-22"
       inkscape:connector-curvature="0"
       style="fill:#755b44" />
    <path
       id="path3813"
       transform="translate(-7.83,-7.33)"
       d="M 90.71,9.87 A 13.28,13.28 0 0 1 104,23.15 v 0 67.06 A 13.28,13.28 0 0 1 90.72,103.49 H 23.65 A 13.28,13.28 0 0 1 10.37,90.21 V 23.15 A 13.19,13.19 0 0 1 23.48,9.87"
       class="cls-23"
       inkscape:connector-curvature="0"
       style="fill:#755b45" />
    <path
       id="path3815"
       transform="translate(-7.83,-7.33)"
       d="m 90.64,10 a 13.25,13.25 0 0 1 13.25,13.25 v 0 66.89 A 13.25,13.25 0 0 1 90.64,103.39 H 23.72 A 13.25,13.25 0 0 1 10.47,90.14 V 23.22 A 13.17,13.17 0 0 1 23.55,10"
       class="cls-24"
       inkscape:connector-curvature="0"
       style="fill:#765c45" />
    <path
       id="path3817"
       transform="translate(-7.83,-7.33)"
       d="m 90.57,10.06 a 13.22,13.22 0 0 1 13.22,13.22 v 0 66.79 A 13.22,13.22 0 0 1 90.57,103.29 H 23.79 A 13.22,13.22 0 0 1 10.57,90.07 V 23.29 A 13.14,13.14 0 0 1 23.62,10.06"
       class="cls-24"
       inkscape:connector-curvature="0"
       style="fill:#765c45" />
    <path
       id="path3819"
       transform="translate(-7.83,-7.33)"
       d="m 90.5,10.16 a 13.2,13.2 0 0 1 13.2,13.2 v 0 V 90 A 13.2,13.2 0 0 1 90.5,103.2 H 23.86 A 13.2,13.2 0 0 1 10.66,90 V 23.36 a 13.11,13.11 0 0 1 13,-13.2"
       class="cls-25"
       inkscape:connector-curvature="0"
       style="fill:#775c46" />
    <path
       id="path3821"
       transform="translate(-7.83,-7.33)"
       d="m 90.43,10.26 a 13.17,13.17 0 0 1 13.17,13.17 v 0 66.5 A 13.17,13.17 0 0 1 90.43,103.1 H 23.93 A 13.17,13.17 0 0 1 10.76,89.93 v -66.5 a 13.08,13.08 0 0 1 13,-13.17"
       class="cls-26"
       inkscape:connector-curvature="0"
       style="fill:#775d46" />
    <path
       id="path3823"
       transform="translate(-7.83,-7.33)"
       d="M 90.36,10.36 A 13.14,13.14 0 0 1 103.5,23.5 v 0 66.36 A 13.14,13.14 0 0 1 90.36,103 H 24 A 13.14,13.14 0 0 1 10.86,89.86 V 23.5 a 13.06,13.06 0 0 1 13,-13.14"
       class="cls-27"
       inkscape:connector-curvature="0"
       style="fill:#785d46" />
    <path
       id="path3825"
       transform="translate(-7.83,-7.33)"
       d="m 90.29,10.45 a 13.11,13.11 0 0 1 13.11,13.12 v 0 66.22 A 13.11,13.11 0 0 1 90.29,102.9 H 24.07 A 13.11,13.11 0 0 1 11,89.79 V 23.57 A 13,13 0 0 1 23.9,10.45"
       class="cls-28"
       inkscape:connector-curvature="0"
       style="fill:#785e47" />
    <path
       id="path3827"
       transform="translate(-7.83,-7.33)"
       d="m 90.22,10.55 a 13.09,13.09 0 0 1 13.08,13.09 v 0 66.08 A 13.09,13.09 0 0 1 90.22,102.8 H 24.14 A 13.09,13.09 0 0 1 11.05,89.72 V 23.64 A 13,13 0 0 1 24,10.55"
       class="cls-29"
       inkscape:connector-curvature="0"
       style="fill:#795e47" />
    <path
       id="path3829"
       transform="translate(-7.83,-7.33)"
       d="m 90.15,10.65 a 13.06,13.06 0 0 1 13.06,13.06 v 0 65.94 A 13.06,13.06 0 0 1 90.15,102.7 H 24.21 A 13.06,13.06 0 0 1 11.15,89.65 V 23.71 A 13,13 0 0 1 24,10.65"
       class="cls-30"
       inkscape:connector-curvature="0"
       style="fill:#7a5e47" />
    <path
       id="path3831"
       transform="translate(-7.83,-7.33)"
       d="m 90.08,10.75 a 13,13 0 0 1 13,13 v 0 65.8 a 13,13 0 0 1 -13,13 h -65.8 a 13,13 0 0 1 -13,-13 V 23.78 a 13,13 0 0 1 12.86,-13"
       class="cls-31"
       inkscape:connector-curvature="0"
       style="fill:#7a5f47" />
    <path
       id="path3833"
       transform="translate(-7.83,-7.33)"
       d="m 90,10.84 a 13,13 0 0 1 13,13 v 0 65.67 a 13,13 0 0 1 -13,13 H 24.35 a 13,13 0 0 1 -13,-13 V 23.85 a 12.92,12.92 0 0 1 12.83,-13"
       class="cls-32"
       inkscape:connector-curvature="0"
       style="fill:#7b5f48" />
    <path
       id="path3835"
       transform="translate(-7.83,-7.33)"
       d="m 89.94,10.94 a 13,13 0 0 1 13,13 v 0 65.5 a 13,13 0 0 1 -13,13 H 24.42 a 13,13 0 0 1 -13,-13 V 23.92 a 12.89,12.89 0 0 1 12.81,-13"
       class="cls-33"
       inkscape:connector-curvature="0"
       style="fill:#7b6048" />
    <path
       id="path3837"
       transform="translate(-7.83,-7.33)"
       d="m 89.87,11 a 13,13 0 0 1 12.95,13 v 0 65.37 A 13,13 0 0 1 89.87,102.32 H 24.49 A 13,13 0 0 1 11.54,89.37 V 24 A 12.86,12.86 0 0 1 24.32,11"
       class="cls-34"
       inkscape:connector-curvature="0"
       style="fill:#7c6048" />
    <path
       id="path3839"
       transform="translate(-7.83,-7.33)"
       d="m 89.8,11.14 a 12.92,12.92 0 0 1 12.92,12.92 v 0 65.24 A 12.92,12.92 0 0 1 89.8,102.22 H 24.56 A 12.92,12.92 0 0 1 11.64,89.3 V 24.06 A 12.84,12.84 0 0 1 24.39,11.14"
       class="cls-35"
       inkscape:connector-curvature="0"
       style="fill:#7c6049" />
    <path
       id="path3841"
       transform="translate(-7.83,-7.33)"
       d="m 89.73,11.24 a 12.89,12.89 0 0 1 12.89,12.89 v 0 65.1 A 12.89,12.89 0 0 1 89.73,102.12 H 24.63 A 12.89,12.89 0 0 1 11.74,89.23 V 24.13 A 12.81,12.81 0 0 1 24.46,11.24"
       class="cls-36"
       inkscape:connector-curvature="0"
       style="fill:#7d6149" />
    <path
       id="path3843"
       transform="translate(-7.83,-7.33)"
       d="m 89.66,11.33 a 12.86,12.86 0 0 1 12.86,12.87 v 0 65 A 12.86,12.86 0 0 1 89.66,102 h -65 A 12.86,12.86 0 0 1 11.84,89.16 v -65 A 12.78,12.78 0 0 1 24.54,11.3"
       class="cls-36"
       inkscape:connector-curvature="0"
       style="fill:#7d6149" />
    <path
       id="path3845"
       transform="translate(-7.83,-7.33)"
       d="m 89.59,11.43 a 12.84,12.84 0 0 1 12.84,12.84 v 0 64.82 A 12.84,12.84 0 0 1 89.59,101.93 H 24.77 A 12.84,12.84 0 0 1 11.93,89.09 V 24.27 A 12.75,12.75 0 0 1 24.6,11.43"
       class="cls-37"
       inkscape:connector-curvature="0"
       style="fill:#7e6249" />
    <path
       id="path3847"
       transform="translate(-7.83,-7.33)"
       d="m 89.52,11.53 a 12.81,12.81 0 0 1 12.81,12.81 v 0 V 89 A 12.81,12.81 0 0 1 89.52,101.81 H 24.84 A 12.81,12.81 0 0 1 12,89 V 24.34 A 12.73,12.73 0 0 1 24.67,11.53"
       class="cls-38"
       inkscape:connector-curvature="0"
       style="fill:#7e624a" />
    <path
       id="path3849"
       transform="translate(-7.83,-7.33)"
       d="m 89.45,11.63 a 12.78,12.78 0 0 1 12.78,12.78 v 0 64.54 A 12.78,12.78 0 0 1 89.45,101.73 H 24.91 A 12.78,12.78 0 0 1 12.13,88.95 V 24.41 A 12.7,12.7 0 0 1 24.74,11.63"
       class="cls-39"
       inkscape:connector-curvature="0"
       style="fill:#7f624a" />
    <path
       id="path3851"
       transform="translate(-7.83,-7.33)"
       d="m 89.38,11.72 a 12.75,12.75 0 0 1 12.75,12.75 v 0 64.4 A 12.75,12.75 0 0 1 89.38,101.62 H 25 A 12.75,12.75 0 0 1 12.23,88.88 V 24.48 A 12.67,12.67 0 0 1 24.82,11.72"
       class="cls-40"
       inkscape:connector-curvature="0"
       style="fill:#7f634a" />
    <path
       id="path3853"
       transform="translate(-7.83,-7.33)"
       d="M 89.31,11.82 A 12.72,12.72 0 0 1 102,24.55 v 0 64.26 A 12.72,12.72 0 0 1 89.28,101.53 H 25 A 12.72,12.72 0 0 1 12.33,88.81 V 24.55 A 12.64,12.64 0 0 1 24.89,11.82"
       class="cls-41"
       inkscape:connector-curvature="0"
       style="fill:#80634b" />
    <path
       id="path3855"
       transform="translate(-7.83,-7.33)"
       d="m 89.24,11.92 a 12.7,12.7 0 0 1 12.7,12.7 v 0 64.12 a 12.7,12.7 0 0 1 -12.7,12.7 H 25.12 A 12.7,12.7 0 0 1 12.42,88.74 V 24.62 A 12.62,12.62 0 0 1 25,11.92"
       class="cls-42"
       inkscape:connector-curvature="0"
       style="fill:#80644b" />
    <path
       id="path3857"
       transform="translate(-7.83,-7.33)"
       d="m 89.17,12 a 12.67,12.67 0 0 1 12.67,12.67 v 0 64 a 12.67,12.67 0 0 1 -12.67,12.67 h -64 A 12.67,12.67 0 0 1 12.52,88.67 v -64 A 12.59,12.59 0 0 1 25,12"
       class="cls-43"
       inkscape:connector-curvature="0"
       style="fill:#81644b" />
    <path
       id="path3859"
       transform="translate(-7.83,-7.33)"
       d="m 89.1,12.12 a 12.64,12.64 0 0 1 12.64,12.64 v 0 63.84 A 12.64,12.64 0 0 1 89.1,101.24 H 25.26 A 12.64,12.64 0 0 1 12.62,88.6 V 24.76 A 12.56,12.56 0 0 1 25.1,12.12"
       class="cls-44"
       inkscape:connector-curvature="0"
       style="fill:#81644c" />
    <path
       id="path3861"
       transform="translate(-7.83,-7.33)"
       d="m 89,12.21 a 12.61,12.61 0 0 1 12.61,12.61 v 0 63.7 A 12.61,12.61 0 0 1 89,101.14 H 25.33 A 12.61,12.61 0 0 1 12.72,88.53 V 24.83 A 12.53,12.53 0 0 1 25.17,12.21"
       class="cls-45"
       inkscape:connector-curvature="0"
       style="fill:#82654c" />
    <path
       id="path3863"
       transform="translate(-7.83,-7.33)"
       d="m 89,12.31 a 12.59,12.59 0 0 1 12.55,12.59 v 0 63.56 A 12.59,12.59 0 0 1 89,101 H 25.4 A 12.59,12.59 0 0 1 12.81,88.46 V 24.9 A 12.51,12.51 0 0 1 25.24,12.31"
       class="cls-45"
       inkscape:connector-curvature="0"
       style="fill:#82654c" />
    <path
       id="path3865"
       transform="translate(-7.83,-7.33)"
       d="M 88.89,12.41 A 12.56,12.56 0 0 1 101.45,25 v 0 63.39 A 12.56,12.56 0 0 1 88.89,100.95 H 25.47 A 12.56,12.56 0 0 1 12.91,88.39 V 25 a 12.48,12.48 0 0 1 12.4,-12.56"
       class="cls-46"
       inkscape:connector-curvature="0"
       style="fill:#83664c" />
    <path
       id="path3867"
       transform="translate(-7.83,-7.33)"
       d="M 88.82,12.51 A 12.53,12.53 0 0 1 101.35,25 v 0 63.32 A 12.53,12.53 0 0 1 88.82,100.85 H 25.54 A 12.53,12.53 0 0 1 13,88.32 V 25 A 12.45,12.45 0 0 1 25.38,12.51"
       class="cls-47"
       inkscape:connector-curvature="0"
       style="fill:#83664d" />
    <path
       id="path3869"
       transform="translate(-7.83,-7.33)"
       d="m 88.75,12.6 a 12.5,12.5 0 0 1 12.5,12.5 v 0 63.15 a 12.5,12.5 0 0 1 -12.5,12.5 H 25.61 A 12.5,12.5 0 0 1 13.11,88.25 V 25.11 A 12.42,12.42 0 0 1 25.45,12.6"
       class="cls-48"
       inkscape:connector-curvature="0"
       style="fill:#84664d" />
    <path
       id="path3871"
       transform="translate(-7.83,-7.33)"
       d="m 88.68,12.7 a 12.48,12.48 0 0 1 12.48,12.48 v 0 63 a 12.48,12.48 0 0 1 -12.48,12.48 h -63 A 12.48,12.48 0 0 1 13.2,88.18 v -63 A 12.4,12.4 0 0 1 25.52,12.7"
       class="cls-49"
       inkscape:connector-curvature="0"
       style="fill:#84674d" />
    <path
       id="path3873"
       transform="translate(-7.83,-7.33)"
       d="m 88.61,12.8 a 12.45,12.45 0 0 1 12.45,12.45 v 0 62.86 A 12.45,12.45 0 0 1 88.61,100.56 H 25.75 A 12.45,12.45 0 0 1 13.3,88.11 V 25.25 A 12.37,12.37 0 0 1 25.59,12.8"
       class="cls-50"
       inkscape:connector-curvature="0"
       style="fill:#85674e" />
    <path
       id="path3875"
       transform="translate(-7.83,-7.33)"
       d="M 88.54,12.9 A 12.42,12.42 0 0 1 101,25.32 v 0 V 88 A 12.42,12.42 0 0 1 88.58,100.42 H 25.82 A 12.42,12.42 0 0 1 13.4,88 V 25.32 A 12.34,12.34 0 0 1 25.66,12.9"
       class="cls-51"
       inkscape:connector-curvature="0"
       style="fill:#85684e" />
    <path
       id="path3877"
       transform="translate(-7.83,-7.33)"
       d="m 88.47,13 a 12.39,12.39 0 0 1 12.39,12.39 v 0 V 88 A 12.39,12.39 0 0 1 88.47,100.39 H 25.89 A 12.39,12.39 0 0 1 13.5,88 V 25.39 A 12.31,12.31 0 0 1 25.73,13"
       class="cls-52"
       inkscape:connector-curvature="0"
       style="fill:#86684e" />
    <path
       id="path3879"
       transform="translate(-7.83,-7.33)"
       d="m 88.4,13.09 a 12.36,12.36 0 0 1 12.36,12.36 v 0 62.45 A 12.36,12.36 0 0 1 88.4,100.26 H 26 A 12.36,12.36 0 0 1 13.6,87.9 V 25.46 A 12.28,12.28 0 0 1 25.8,13.09"
       class="cls-53"
       inkscape:connector-curvature="0"
       style="fill:#86684f" />
    <path
       id="path3881"
       transform="translate(-7.83,-7.33)"
       d="m 88.33,13.19 a 12.34,12.34 0 0 1 12.34,12.34 v 0 62.3 A 12.34,12.34 0 0 1 88.33,100.17 H 26 A 12.34,12.34 0 0 1 13.69,87.83 V 25.53 A 12.26,12.26 0 0 1 25.87,13.19"
       class="cls-54"
       inkscape:connector-curvature="0"
       style="fill:#87694f" />
    <path
       id="path3883"
       transform="translate(-7.83,-7.33)"
       d="m 88.26,13.29 a 12.31,12.31 0 0 1 12.31,12.31 v 0 62.16 A 12.31,12.31 0 0 1 88.26,100.07 H 26.1 A 12.31,12.31 0 0 1 13.79,87.76 V 25.6 A 12.23,12.23 0 0 1 25.94,13.29"
       class="cls-54"
       inkscape:connector-curvature="0"
       style="fill:#87694f" />
    <path
       id="path3885"
       transform="translate(-7.83,-7.33)"
       d="m 88.19,13.39 a 12.28,12.28 0 0 1 12.28,12.28 v 0 62 A 12.28,12.28 0 0 1 88.19,100 h -62 A 12.28,12.28 0 0 1 13.89,87.69 v -62 A 12.2,12.2 0 0 1 26,13.39"
       class="cls-55"
       inkscape:connector-curvature="0"
       style="fill:#886a4f" />
    <path
       id="path3887"
       transform="translate(-7.83,-7.33)"
       d="m 88.12,13.48 a 12.25,12.25 0 0 1 12.25,12.25 v 0 61.89 A 12.25,12.25 0 0 1 88.12,99.87 H 26.24 A 12.25,12.25 0 0 1 14,87.62 V 25.74 A 12.17,12.17 0 0 1 26.1,13.49"
       class="cls-56"
       inkscape:connector-curvature="0"
       style="fill:#886a50" />
    <path
       id="path3889"
       transform="translate(-7.83,-7.33)"
       d="m 88,13.58 a 12.23,12.23 0 0 1 12.23,12.23 v 0 61.74 A 12.23,12.23 0 0 1 88,99.77 H 26.31 A 12.23,12.23 0 0 1 14.08,87.55 V 25.81 A 12.15,12.15 0 0 1 26.15,13.58"
       class="cls-57"
       inkscape:connector-curvature="0"
       style="fill:#896a50" />
    <path
       id="path3891"
       transform="translate(-7.83,-7.33)"
       d="m 88,13.68 a 12.2,12.2 0 0 1 12.2,12.2 v 0 61.6 A 12.2,12.2 0 0 1 88,99.67 H 26.38 A 12.2,12.2 0 0 1 14.18,87.47 V 25.88 a 12.12,12.12 0 0 1 12,-12.2"
       class="cls-58"
       inkscape:connector-curvature="0"
       style="fill:#896b50" />
    <path
       id="path3893"
       transform="translate(-7.83,-7.33)"
       d="m 87.91,13.78 a 12.17,12.17 0 0 1 12.17,12.17 v 0 61.46 A 12.17,12.17 0 0 1 87.91,99.58 H 26.45 A 12.17,12.17 0 0 1 14.28,87.41 V 25.95 a 12.09,12.09 0 0 1 12,-12.17"
       class="cls-59"
       inkscape:connector-curvature="0"
       style="fill:#8a6b51" />
    <path
       id="path3895"
       transform="translate(-7.83,-7.33)"
       d="M 87.84,13.87 A 12.14,12.14 0 0 1 100,26 v 0 61.34 A 12.14,12.14 0 0 1 87.84,99.48 H 26.52 A 12.14,12.14 0 0 1 14.38,87.34 V 26 a 12.06,12.06 0 0 1 12,-12.14"
       class="cls-60"
       inkscape:connector-curvature="0"
       style="fill:#8a6c51" />
    <path
       id="path3897"
       transform="translate(-7.83,-7.33)"
       d="m 87.77,14 a 12.11,12.11 0 0 1 12.11,12.09 v 0 61.18 A 12.11,12.11 0 0 1 87.77,99.38 H 26.59 A 12.11,12.11 0 0 1 14.47,87.27 V 26.09 A 12,12 0 0 1 26.43,14"
       class="cls-61"
       inkscape:connector-curvature="0"
       style="fill:#8b6c51" />
    <path
       id="path3899"
       transform="translate(-7.83,-7.33)"
       d="m 87.7,14.07 a 12.09,12.09 0 0 1 12.09,12.09 v 0 61 A 12.09,12.09 0 0 1 87.7,99.28 h -61 A 12.09,12.09 0 0 1 14.57,87.2 v -61 A 12,12 0 0 1 26.5,14.07"
       class="cls-62"
       inkscape:connector-curvature="0"
       style="fill:#8c6c51" />
    <path
       id="path3901"
       transform="translate(-7.83,-7.33)"
       d="m 87.63,14.17 a 12.06,12.06 0 0 1 12.06,12.06 v 0 60.9 A 12.06,12.06 0 0 1 87.63,99.19 H 26.73 A 12.06,12.06 0 0 1 14.67,87.13 v -60.9 a 12,12 0 0 1 11.9,-12.06"
       class="cls-63"
       inkscape:connector-curvature="0"
       style="fill:#8c6d52" />
    <path
       id="path3903"
       transform="translate(-7.83,-7.33)"
       d="m 87.56,14.27 a 12,12 0 0 1 12,12 v 0 60.79 a 12,12 0 0 1 -12,12 H 26.8 a 12,12 0 0 1 -12,-12 V 26.3 a 12,12 0 0 1 11.88,-12"
       class="cls-64"
       inkscape:connector-curvature="0"
       style="fill:#8d6d52" />
    <path
       id="path3905"
       transform="translate(-7.83,-7.33)"
       d="m 87.49,14.36 a 12,12 0 0 1 12,12 v 0 V 87 a 12,12 0 0 1 -12,12 H 26.87 a 12,12 0 0 1 -12,-12 V 26.37 a 11.93,11.93 0 0 1 11.85,-12"
       class="cls-65"
       inkscape:connector-curvature="0"
       style="fill:#8d6e52" />
    <path
       id="path3907"
       transform="translate(-7.83,-7.33)"
       d="m 87.42,14.46 a 12,12 0 0 1 12,12 v 0 60.46 a 12,12 0 0 1 -12,12 H 26.94 a 12,12 0 0 1 -12,-12 V 26.44 a 11.9,11.9 0 0 1 11.82,-12"
       class="cls-66"
       inkscape:connector-curvature="0"
       style="fill:#8e6e53" />
    <path
       id="path3909"
       transform="translate(-7.83,-7.33)"
       d="M 87.35,14.56 A 12,12 0 0 1 99.3,26.51 v 0 60.34 A 12,12 0 0 1 87.35,98.8 H 27 A 12,12 0 0 1 15.06,86.85 V 26.51 a 11.87,11.87 0 0 1 11.8,-11.95"
       class="cls-66"
       inkscape:connector-curvature="0"
       style="fill:#8e6e53" />
    <path
       id="path3911"
       transform="translate(-7.83,-7.33)"
       d="M 87.28,14.66 A 11.92,11.92 0 0 1 99.2,26.58 v 0 60.2 A 11.92,11.92 0 0 1 87.28,98.7 H 27.08 A 11.92,11.92 0 0 1 15.16,86.78 V 26.58 A 11.84,11.84 0 0 1 26.93,14.66"
       class="cls-67"
       inkscape:connector-curvature="0"
       style="fill:#8f6f53" />
    <path
       id="path3913"
       transform="translate(-7.83,-7.33)"
       d="m 87.21,14.75 a 11.89,11.89 0 0 1 11.89,11.9 v 0 60.06 A 11.89,11.89 0 0 1 87.21,98.6 H 27.15 A 11.89,11.89 0 0 1 15.26,86.71 V 26.65 A 11.82,11.82 0 0 1 27,14.75"
       class="cls-68"
       inkscape:connector-curvature="0"
       style="fill:#8f6f54" />
    <path
       id="path3915"
       transform="translate(-7.83,-7.33)"
       d="M 87.14,14.85 A 11.87,11.87 0 0 1 99,26.72 v 0 59.92 A 11.87,11.87 0 0 1 87.14,98.5 H 27.22 A 11.87,11.87 0 0 1 15.35,86.64 V 26.72 A 11.79,11.79 0 0 1 27.07,14.85"
       class="cls-69"
       inkscape:connector-curvature="0"
       style="fill:#906f54" />
    <path
       id="path3917"
       transform="translate(-7.83,-7.33)"
       d="m 87.07,14.95 a 11.84,11.84 0 0 1 11.84,11.84 v 0 59.78 A 11.84,11.84 0 0 1 87.07,98.4 H 27.29 A 11.84,11.84 0 0 1 15.45,86.57 V 26.79 A 11.76,11.76 0 0 1 27.14,14.95"
       class="cls-70"
       inkscape:connector-curvature="0"
       style="fill:#907054" />
    <path
       id="path3919"
       transform="translate(-7.83,-7.33)"
       d="m 87,15 a 11.81,11.81 0 0 1 11.81,11.86 v 0 59.64 A 11.81,11.81 0 0 1 87,98.31 H 27.36 A 11.81,11.81 0 0 1 15.55,86.5 V 26.86 A 11.73,11.73 0 0 1 27.21,15"
       class="cls-71"
       inkscape:connector-curvature="0"
       style="fill:#917054" />
    <path
       id="path3921"
       transform="translate(-7.83,-7.33)"
       d="m 86.93,15.14 a 11.78,11.78 0 0 1 11.78,11.79 v 0 59.5 A 11.78,11.78 0 0 1 86.93,98.21 H 27.43 A 11.78,11.78 0 0 1 15.65,86.43 V 26.93 A 11.71,11.71 0 0 1 27.28,15.14"
       class="cls-72"
       inkscape:connector-curvature="0"
       style="fill:#917155" />
    <path
       id="path3923"
       transform="translate(-7.83,-7.33)"
       d="M 86.86,15.24 A 11.75,11.75 0 0 1 98.61,27 v 0 59.36 A 11.75,11.75 0 0 1 86.86,98.11 H 27.5 A 11.75,11.75 0 0 1 15.75,86.36 V 27 a 11.68,11.68 0 0 1 11.6,-11.75"
       class="cls-73"
       inkscape:connector-curvature="0"
       style="fill:#927155" />
    <path
       id="path3925"
       transform="translate(-7.83,-7.33)"
       d="m 86.79,15.34 a 11.73,11.73 0 0 1 11.73,11.73 v 0 59.22 A 11.73,11.73 0 0 1 86.79,98 H 27.57 A 11.73,11.73 0 0 1 15.84,86.29 V 27.07 A 11.65,11.65 0 0 1 27.42,15.34"
       class="cls-73"
       inkscape:connector-curvature="0"
       style="fill:#927155" />
    <path
       id="path3927"
       transform="translate(-7.83,-7.33)"
       d="m 86.72,15.44 a 11.7,11.7 0 0 1 11.7,11.7 v 0 59.08 a 11.7,11.7 0 0 1 -11.7,11.7 H 27.64 A 11.7,11.7 0 0 1 15.94,86.22 V 27.14 a 11.62,11.62 0 0 1 11.55,-11.7"
       class="cls-74"
       inkscape:connector-curvature="0"
       style="fill:#937256" />
    <path
       id="path3929"
       transform="translate(-7.83,-7.33)"
       d="m 86.65,15.54 a 11.67,11.67 0 0 1 11.67,11.67 v 0 58.94 A 11.67,11.67 0 0 1 86.65,97.82 H 27.71 A 11.67,11.67 0 0 1 16,86.15 V 27.21 A 11.6,11.6 0 0 1 27.56,15.54"
       class="cls-74"
       inkscape:connector-curvature="0"
       style="fill:#937256" />
    <path
       id="path3931"
       transform="translate(-7.83,-7.33)"
       d="m 86.58,15.63 a 11.64,11.64 0 0 1 11.64,11.65 v 0 58.8 A 11.64,11.64 0 0 1 86.58,97.72 H 27.78 A 11.64,11.64 0 0 1 16.14,86.08 V 27.28 A 11.57,11.57 0 0 1 27.63,15.63"
       class="cls-75"
       inkscape:connector-curvature="0"
       style="fill:#947356" />
    <path
       id="path3933"
       transform="translate(-7.83,-7.33)"
       d="m 86.51,15.73 a 11.62,11.62 0 0 1 11.62,11.62 v 0 V 86 A 11.62,11.62 0 0 1 86.51,97.62 H 27.85 A 11.62,11.62 0 0 1 16.23,86 V 27.35 A 11.54,11.54 0 0 1 27.7,15.73"
       class="cls-76"
       inkscape:connector-curvature="0"
       style="fill:#947357" />
    <path
       id="path3935"
       transform="translate(-7.83,-7.33)"
       d="M 86.44,15.83 A 11.59,11.59 0 0 1 98,27.42 v 0 58.52 A 11.59,11.59 0 0 1 86.44,97.53 H 27.92 A 11.59,11.59 0 0 1 16.33,85.94 V 27.42 A 11.51,11.51 0 0 1 27.77,15.83"
       class="cls-77"
       inkscape:connector-curvature="0"
       style="fill:#957357" />
    <path
       id="path3937"
       transform="translate(-7.83,-7.33)"
       d="m 86.37,15.93 a 11.56,11.56 0 0 1 11.56,11.56 v 0 58.38 A 11.56,11.56 0 0 1 86.37,97.43 H 28 A 11.56,11.56 0 0 1 16.43,85.87 V 27.49 A 11.49,11.49 0 0 1 27.84,15.93"
       class="cls-78"
       inkscape:connector-curvature="0"
       style="fill:#957457" />
    <path
       id="path3939"
       transform="translate(-7.83,-7.33)"
       d="m 86.3,16 a 11.53,11.53 0 0 1 11.53,11.56 v 0 58.24 A 11.53,11.53 0 0 1 86.3,97.33 H 28.06 A 11.53,11.53 0 0 1 16.53,85.8 V 27.56 A 11.46,11.46 0 0 1 27.91,16"
       class="cls-79"
       inkscape:connector-curvature="0"
       style="fill:#967457" />
    <path
       id="path3941"
       transform="translate(-7.83,-7.33)"
       d="m 86.23,16.12 a 11.5,11.5 0 0 1 11.5,11.5 v 0 58.1 a 11.5,11.5 0 0 1 -11.5,11.5 H 28.13 A 11.5,11.5 0 0 1 16.63,85.72 V 27.63 A 11.43,11.43 0 0 1 28,16.12"
       class="cls-80"
       inkscape:connector-curvature="0"
       style="fill:#967558" />
    <path
       id="path3943"
       transform="translate(-7.83,-7.33)"
       d="M 86.16,16.22 A 11.48,11.48 0 0 1 97.64,27.7 v 0 58 A 11.48,11.48 0 0 1 86.16,97.13 h -58 A 11.48,11.48 0 0 1 16.72,85.66 v -58 A 11.4,11.4 0 0 1 28.05,16.22"
       class="cls-81"
       inkscape:connector-curvature="0"
       style="fill:#977558" />
    <path
       id="path3945"
       transform="translate(-7.83,-7.33)"
       d="m 86.09,16.32 a 11.45,11.45 0 0 1 11.45,11.45 v 0 57.82 A 11.45,11.45 0 0 1 86.09,97 H 28.27 A 11.45,11.45 0 0 1 16.82,85.59 V 27.77 a 11.38,11.38 0 0 1 11.3,-11.45"
       class="cls-81"
       inkscape:connector-curvature="0"
       style="fill:#977558" />
    <path
       id="path3947"
       transform="translate(-7.83,-7.33)"
       d="m 86,16.42 a 11.42,11.42 0 0 1 11.44,11.42 v 0 57.68 A 11.42,11.42 0 0 1 86,96.94 H 28.34 A 11.42,11.42 0 0 1 16.92,85.52 V 27.84 A 11.35,11.35 0 0 1 28.19,16.42"
       class="cls-82"
       inkscape:connector-curvature="0"
       style="fill:#987659" />
    <path
       id="path3949"
       transform="translate(-7.83,-7.33)"
       d="m 85.95,16.51 a 11.39,11.39 0 0 1 11.39,11.4 v 0 57.54 A 11.39,11.39 0 0 1 85.95,96.84 H 28.41 A 11.39,11.39 0 0 1 17,85.45 V 27.91 a 11.32,11.32 0 0 1 11.26,-11.4"
       class="cls-82"
       inkscape:connector-curvature="0"
       style="fill:#987659" />
    <path
       id="path3951"
       transform="translate(-7.83,-7.33)"
       d="M 85.88,16.61 A 11.37,11.37 0 0 1 97.25,28 v 0 57.4 A 11.37,11.37 0 0 1 85.88,96.74 H 28.48 A 11.37,11.37 0 0 1 17.11,85.38 V 28 A 11.29,11.29 0 0 1 28.33,16.61"
       class="cls-83"
       inkscape:connector-curvature="0"
       style="fill:#997759" />
    <path
       id="path3953"
       transform="translate(-7.83,-7.33)"
       d="M 85.81,16.71 A 11.34,11.34 0 0 1 97.15,28 v 0 57.31 A 11.34,11.34 0 0 1 85.81,96.65 H 28.55 A 11.34,11.34 0 0 1 17.21,85.31 V 28 A 11.27,11.27 0 0 1 28.4,16.71"
       class="cls-84"
       inkscape:connector-curvature="0"
       style="fill:#99775a" />
    <path
       id="path3955"
       transform="translate(-7.83,-7.33)"
       d="m 85.74,16.81 a 11.31,11.31 0 0 1 11.31,11.31 v 0 57.12 A 11.31,11.31 0 0 1 85.74,96.55 H 28.62 A 11.31,11.31 0 0 1 17.31,85.24 V 28.12 A 11.24,11.24 0 0 1 28.47,16.81"
       class="cls-85"
       inkscape:connector-curvature="0"
       style="fill:#9a775a" />
    <path
       id="path3957"
       transform="translate(-7.83,-7.33)"
       d="M 85.67,16.9 A 11.28,11.28 0 0 1 97,28.19 v 0 57 A 11.28,11.28 0 0 1 85.67,96.45 h -57 A 11.28,11.28 0 0 1 17.41,85.17 v -57 A 11.21,11.21 0 0 1 28.54,16.9"
       class="cls-86"
       inkscape:connector-curvature="0"
       style="fill:#9a785a" />
    <path
       id="path3959"
       transform="translate(-7.83,-7.33)"
       d="m 85.6,17 a 11.26,11.26 0 0 1 11.26,11.26 v 0 56.84 A 11.26,11.26 0 0 1 85.6,96.35 H 28.76 A 11.26,11.26 0 0 1 17.5,85.1 V 28.26 A 11.18,11.18 0 0 1 28.61,17"
       class="cls-87"
       inkscape:connector-curvature="0"
       style="fill:#9b785a" />
    <path
       id="path3961"
       transform="translate(-7.83,-7.33)"
       d="m 85.53,17.1 a 11.23,11.23 0 0 1 11.23,11.23 v 0 V 85 A 11.23,11.23 0 0 1 85.53,96.25 H 28.83 A 11.23,11.23 0 0 1 17.6,85 V 28.33 A 11.16,11.16 0 0 1 28.68,17.1"
       class="cls-88"
       inkscape:connector-curvature="0"
       style="fill:#9b795b" />
    <path
       id="path3963"
       transform="translate(-7.83,-7.33)"
       d="m 85.46,17.2 a 11.2,11.2 0 0 1 11.2,11.2 v 0 V 85 A 11.2,11.2 0 0 1 85.46,96.2 H 28.9 A 11.2,11.2 0 0 1 17.7,85 V 28.4 A 11.13,11.13 0 0 1 28.76,17.2"
       class="cls-89"
       inkscape:connector-curvature="0"
       style="fill:#9c795b" />
    <path
       id="path3965"
       transform="translate(-7.83,-7.33)"
       d="M 85.42,17.26 A 11.18,11.18 0 0 1 96.6,28.44 v 0 56.47 A 11.18,11.18 0 0 1 85.44,96.09 H 29.06 A 11.19,11.19 0 0 1 17.85,85 C 17.8,85 17.76,70.92 17.76,70.87 v -42.4 a 11.25,11.25 0 0 1 0.43,-3.17 11.11,11.11 0 0 1 10.61,-8 h 0.47"
       class="cls-90"
       inkscape:connector-curvature="0"
       style="fill:#9d795b" />
    <path
       id="path3967"
       transform="translate(-7.83,-7.33)"
       d="m 85.37,17.31 a 11.17,11.17 0 0 1 11.17,11.17 v 0 56.39 A 11.16,11.16 0 0 1 85.43,96 H 29.22 A 11.18,11.18 0 0 1 18,85.05 c -0.1,0 -0.19,-14 -0.19,-14.08 V 28.55 a 11.38,11.38 0 0 1 0.43,-3.17 11.09,11.09 0 0 1 10.6,-8.06 h 0.95"
       class="cls-91"
       inkscape:connector-curvature="0"
       style="fill:#9d7a5c" />
    <path
       id="path3969"
       transform="translate(-7.83,-7.33)"
       d="m 85.33,17.37 a 11.15,11.15 0 0 1 11.15,11.15 v 0 56.3 A 11.14,11.14 0 0 1 85.41,96 h -56 A 11.18,11.18 0 0 1 18.16,85.1 C 18,85.1 17.88,71.22 17.88,71.1 V 28.62 a 11.5,11.5 0 0 1 0.42,-3.17 11.07,11.07 0 0 1 10.59,-8.07 h 1.42"
       class="cls-92"
       inkscape:connector-curvature="0"
       style="fill:#9e7a5c" />
    <path
       id="path3971"
       transform="translate(-7.83,-7.33)"
       d="m 85.29,17.43 a 11.14,11.14 0 0 1 11.13,11.13 v 0 56.22 a 11.11,11.11 0 0 1 -11,11.12 c 0,0 -4.08,0 -4.12,0 H 29.55 c -5.94,0 -11.23,-4.82 -11.23,-10.76 -0.21,0 -0.37,-13.78 -0.38,-14 V 28.7 a 11.63,11.63 0 0 1 0.42,-3.18 11,11 0 0 1 10.57,-8.09 h 1.89"
       class="cls-93"
       inkscape:connector-curvature="0"
       style="fill:#9e7b5c" />
    <path
       id="path3973"
       transform="translate(-7.83,-7.33)"
       d="m 85.24,17.49 a 11.12,11.12 0 0 1 11.12,11.12 v 0 56.12 a 11.09,11.09 0 0 1 -11,11.09 c 0,0 -4.06,0 -4.11,0 H 29.71 C 23.83,95.82 18.47,91.05 18.47,85.17 18.21,85.17 18,71.49 18,71.23 V 28.77 A 11.76,11.76 0 0 1 18.41,25.59 11,11 0 0 1 29,17.49 h 2.37"
       class="cls-94"
       inkscape:connector-curvature="0"
       style="fill:#9f7b5c" />
    <path
       id="path3975"
       transform="translate(-7.83,-7.33)"
       d="m 85.2,17.55 a 11.1,11.1 0 0 1 11.1,11.1 v 0 56 A 11.07,11.07 0 0 1 85.37,95.76 c -0.05,0 -4,0 -4.09,0 H 29.87 c -5.82,0 -11.25,-4.72 -11.25,-10.53 -0.31,0 -0.56,-13.58 -0.56,-13.9 V 28.85 A 11.9,11.9 0 0 1 18.47,25.67 11,11 0 0 1 29,17.55 h 2.84"
       class="cls-95"
       inkscape:connector-curvature="0"
       style="fill:#9f7b5d" />
    <path
       id="path3977"
       transform="translate(-7.83,-7.33)"
       d="m 85.16,17.61 a 11.09,11.09 0 0 1 11.08,11.08 v 0 56 a 11.05,11.05 0 0 1 -10.89,11 c -0.06,0 -4,0 -4.08,0 H 30 c -5.76,0 -11.25,-4.67 -11.25,-10.42 -0.36,0 -0.66,-13.49 -0.66,-13.85 v -42.5 a 12,12 0 0 1 0.41,-3.18 11,11 0 0 1 10.54,-8.13 h 3.31"
       class="cls-96"
       inkscape:connector-curvature="0"
       style="fill:#a07c5d" />
    <path
       id="path3979"
       transform="translate(-7.83,-7.33)"
       d="m 85.11,17.66 a 11.07,11.07 0 0 1 11.07,11.07 v 0 55.87 a 11,11 0 0 1 -10.84,11 c -0.07,0 -4,0 -4.07,0 H 30.2 c -5.7,0 -11.26,-4.62 -11.26,-10.31 -0.41,0 -0.75,-13.39 -0.75,-13.8 V 29 a 12.18,12.18 0 0 1 0.4,-3.18 11,11 0 0 1 10.53,-8.15 h 3.78"
       class="cls-96"
       inkscape:connector-curvature="0"
       style="fill:#a07c5d" />
    <path
       id="path3981"
       transform="translate(-7.83,-7.33)"
       d="m 85.07,17.72 a 11.05,11.05 0 0 1 11,11 v 0 55.83 a 11,11 0 0 1 -10.8,11 c -0.08,0 -4,0 -4.05,0 H 30.36 c -5.63,0 -11.27,-4.57 -11.27,-10.2 -0.47,0 -0.84,-13.29 -0.85,-13.76 V 29.07 a 12.32,12.32 0 0 1 0.4,-3.19 10.94,10.94 0 0 1 10.52,-8.16 h 4.26"
       class="cls-97"
       inkscape:connector-curvature="0"
       style="fill:#a17d5e" />
    <path
       id="path3983"
       transform="translate(-7.83,-7.33)"
       d="m 85,17.78 a 11,11 0 0 1 11,11 v 0 55.73 a 11,11 0 0 1 -10.75,11 c -0.09,0 -3.94,0 -4,0 H 30.52 c -5.57,0 -11.28,-4.52 -11.28,-10.09 -0.52,0 -0.94,-13.19 -0.94,-13.71 V 29.15 A 12.47,12.47 0 0 1 18.69,26 10.92,10.92 0 0 1 29.2,17.78 h 4.73"
       class="cls-97"
       inkscape:connector-curvature="0"
       style="fill:#a17d5e" />
    <path
       id="path3985"
       transform="translate(-7.83,-7.33)"
       d="m 85,17.84 a 11,11 0 0 1 11,11 v 0 55.62 a 11,11 0 0 1 -10.71,11 c -0.1,0 -3.92,0 -4,0 H 30.68 c -5.51,0 -11.29,-4.47 -11.29,-10 -0.57,0 -1,-13.09 -1,-13.66 V 29.22 A 12.62,12.62 0 0 1 18.75,26 10.9,10.9 0 0 1 29.25,17.81 h 5.21"
       class="cls-98"
       inkscape:connector-curvature="0"
       style="fill:#a27d5e" />
    <path
       id="path3987"
       transform="translate(-7.83,-7.33)"
       d="m 84.94,17.9 a 11,11 0 0 1 11,11 v 0 55.52 A 11,11 0 0 1 85.28,95.36 c -0.11,0 -3.9,0.05 -4,0.05 H 30.84 c -5.45,0 -11.29,-4.42 -11.29,-9.87 -0.62,0 -1.12,-13 -1.13,-13.62 V 29.3 A 12.78,12.78 0 0 1 18.8,26.11 10.87,10.87 0 0 1 29.29,17.9 H 35"
       class="cls-99"
       inkscape:connector-curvature="0"
       style="fill:#a27e5f" />
    <path
       id="path3989"
       transform="translate(-7.83,-7.33)"
       d="m 84.9,18 a 11,11 0 0 1 11,11 v 0 55.37 A 10.93,10.93 0 0 1 85.26,95.29 c -0.12,0 -3.87,0.06 -4,0.06 H 31 c -5.39,0 -11.3,-4.37 -11.3,-9.76 -0.67,0 -1.22,-12.9 -1.22,-13.57 V 29.37 A 12.93,12.93 0 0 1 18.86,26.18 10.85,10.85 0 0 1 29.34,18 h 6.15"
       class="cls-100"
       inkscape:connector-curvature="0"
       style="fill:#a37e5f" />
    <path
       id="path3991"
       transform="translate(-7.83,-7.33)"
       d="m 84.85,18 a 11,11 0 0 1 11,11 v 0 55.33 a 10.91,10.91 0 0 1 -10.57,10.9 c -0.12,0 -3.85,0.06 -4,0.06 H 31.17 c -5.33,0 -11.31,-4.32 -11.31,-9.65 -0.73,0 -1.31,-12.8 -1.32,-13.53 V 29.45 A 13.09,13.09 0 0 1 18.92,26.26 10.83,10.83 0 0 1 29.38,18 H 36"
       class="cls-101"
       inkscape:connector-curvature="0"
       style="fill:#a37f5f" />
    <path
       id="path3993"
       transform="translate(-7.83,-7.33)"
       d="M 84.81,18.07 A 11,11 0 0 1 95.76,29 v 0 55.28 A 10.89,10.89 0 0 1 85.23,95.16 c -0.13,0 -3.83,0.07 -4,0.07 H 31.33 C 26.06,95.23 20,91 20,85.69 c -0.78,0 -1.41,-12.7 -1.41,-13.48 V 29.52 a 13.26,13.26 0 0 1 0.37,-3.2 10.81,10.81 0 0 1 10.45,-8.25 h 7.1"
       class="cls-102"
       inkscape:connector-curvature="0"
       style="fill:#a47f5f" />
    <path
       id="path3995"
       transform="translate(-7.83,-7.33)"
       d="M 84.77,18.13 A 10.94,10.94 0 0 1 95.7,29.06 v 0 55.18 A 10.87,10.87 0 0 1 85.21,95.1 c -0.14,0 -3.8,0.07 -4,0.07 H 31.49 c -5.21,0 -11.32,-4.22 -11.32,-9.43 -0.83,0 -1.5,-12.6 -1.5,-13.43 V 29.59 A 13.43,13.43 0 0 1 19,26.4 10.79,10.79 0 0 1 29.44,18.14 H 37"
       class="cls-103"
       inkscape:connector-curvature="0"
       style="fill:#a47f60" />
    <path
       id="path3997"
       transform="translate(-7.83,-7.33)"
       d="m 84.72,18.19 a 10.92,10.92 0 0 1 10.92,10.92 v 0 55.08 A 10.85,10.85 0 0 1 85.2,95 c -0.15,0 -3.78,0.07 -3.95,0.07 h -49.6 c -5.14,0 -11.33,-4.17 -11.33,-9.31 -0.88,0 -1.59,-12.51 -1.6,-13.39 v -42.7 a 13.6,13.6 0 0 1 0.36,-3.2 10.77,10.77 0 0 1 10.43,-8.28 h 8"
       class="cls-104"
       inkscape:connector-curvature="0"
       style="fill:#a58060" />
    <path
       id="path3999"
       transform="translate(-7.83,-7.33)"
       d="m 84.68,18.25 a 10.91,10.91 0 0 1 10.9,10.9 v 0 55 A 10.82,10.82 0 0 1 85.18,95 C 85,95 81.43,95 81.25,95 H 31.82 C 26.74,95 20.48,90.88 20.48,85.8 19.55,85.8 18.79,73.39 18.79,72.46 V 29.74 a 13.78,13.78 0 0 1 0.36,-3.2 10.75,10.75 0 0 1 10.42,-8.29 h 8.52"
       class="cls-104"
       inkscape:connector-curvature="0"
       style="fill:#a58060" />
    <path
       id="path4001"
       transform="translate(-7.83,-7.33)"
       d="m 84.64,18.31 a 10.89,10.89 0 0 1 10.88,10.88 v 0 54.91 A 10.8,10.8 0 0 1 85.17,94.9 C 85,95 81.43,95 81.25,95 H 32 c -5,0 -11.35,-4.07 -11.35,-9.09 -1,0 -1.78,-12.31 -1.79,-13.29 v -42.8 a 14,14 0 0 1 0.35,-3.2 10.73,10.73 0 0 1 10.41,-8.31 h 9"
       class="cls-105"
       inkscape:connector-curvature="0"
       style="fill:#a68161" />
    <path
       id="path4003"
       transform="translate(-7.83,-7.33)"
       d="m 84.59,18.37 a 10.88,10.88 0 0 1 10.87,10.86 v 0 54.83 a 10.78,10.78 0 0 1 -10.3,10.78 c -0.18,0.06 -3.71,0.09 -3.91,0.09 H 32.14 c -5,0 -11.36,-4 -11.36,-9 -1,0 -1.87,-12.21 -1.88,-13.25 V 29.89 a 14.15,14.15 0 0 1 0.35,-3.21 10.71,10.71 0 0 1 10.4,-8.32 h 9.47"
       class="cls-105"
       inkscape:connector-curvature="0"
       style="fill:#a68161" />
    <path
       id="path4005"
       transform="translate(-7.83,-7.33)"
       d="M 84.55,18.43 A 10.86,10.86 0 0 1 95.4,29.27 v 0 V 84 A 10.76,10.76 0 0 1 85.14,94.76 c -0.19,0.06 -3.69,0.09 -3.89,0.09 H 32.3 c -4.9,0 -11.36,-4 -11.36,-8.87 -1.09,0 -2,-12.11 -2,-13.2 V 30 a 14.34,14.34 0 0 1 0.35,-3.21 10.69,10.69 0 0 1 10.41,-8.36 h 9.94"
       class="cls-106"
       inkscape:connector-curvature="0"
       style="fill:#a78161" />
    <path
       id="path4007"
       transform="translate(-7.83,-7.33)"
       d="m 84.51,18.48 a 10.84,10.84 0 0 1 10.83,10.83 v 0 V 84 A 10.74,10.74 0 0 1 85.12,94.7 c -0.19,0.06 -3.67,0.1 -3.88,0.1 H 32.46 C 27.62,94.8 21.09,90.88 21.09,86.04 20,86 19,74 19,72.88 V 30 a 14.54,14.54 0 0 1 0.34,-3.21 10.67,10.67 0 0 1 10.38,-8.35 h 10.43"
       class="cls-107"
       inkscape:connector-curvature="0"
       style="fill:#a78262" />
    <path
       id="path4009"
       transform="translate(-7.83,-7.33)"
       d="m 84.46,18.54 a 10.83,10.83 0 0 1 10.82,10.82 v 0 54.56 A 10.72,10.72 0 0 1 85.11,94.63 c -0.2,0.06 -3.64,0.1 -3.87,0.1 H 32.63 c -4.78,0 -11.38,-3.87 -11.38,-8.65 -1.19,0 -2.16,-11.92 -2.16,-13.11 V 30.12 a 14.74,14.74 0 0 1 0.34,-3.21 10.66,10.66 0 0 1 10.36,-8.37 h 10.88"
       class="cls-108"
       inkscape:connector-curvature="0"
       style="fill:#a88262" />
    <path
       id="path4011"
       transform="translate(-7.83,-7.33)"
       d="m 84.42,18.6 a 10.81,10.81 0 0 1 10.8,10.8 v 0 54.48 A 10.71,10.71 0 0 1 85.09,94.57 c -0.21,0.07 -3.62,0.1 -3.85,0.11 H 32.79 c -4.72,0 -11.39,-3.82 -11.39,-8.54 -1.24,0 -2.25,-11.82 -2.26,-13.06 V 30.19 A 15,15 0 0 1 19.48,27 10.64,10.64 0 0 1 29.83,18.6 h 11.36"
       class="cls-109"
       inkscape:connector-curvature="0"
       style="fill:#a88362" />
    <path
       id="path4013"
       transform="translate(-7.83,-7.33)"
       d="m 84.38,18.66 a 10.79,10.79 0 0 1 10.77,10.78 v 0 54.39 A 10.69,10.69 0 0 1 85.08,94.5 c -0.22,0.07 -3.6,0.11 -3.84,0.11 H 33 c -4.65,0 -11.39,-3.77 -11.39,-8.43 -1.3,0 -2.34,-11.72 -2.35,-13 V 30.27 a 15.16,15.16 0 0 1 0.33,-3.21 10.62,10.62 0 0 1 10.34,-8.39 h 11.78"
       class="cls-110"
       inkscape:connector-curvature="0"
       style="fill:#a98362" />
    <path
       id="path4015"
       transform="translate(-7.83,-7.33)"
       d="m 84.33,18.72 a 10.78,10.78 0 0 1 10.76,10.76 v 0 54.3 a 10.67,10.67 0 0 1 -10,10.65 c -0.23,0.07 -3.57,0.11 -3.83,0.11 H 33.11 c -4.59,0 -11.4,-3.72 -11.4,-8.32 -1.35,0 -2.44,-11.62 -2.45,-13 V 30.34 a 15.38,15.38 0 0 1 0.32,-3.22 10.6,10.6 0 0 1 10.33,-8.41 h 12.3"
       class="cls-111"
       inkscape:connector-curvature="0"
       style="fill:#a98363" />
    <path
       id="path4017"
       transform="translate(-7.83,-7.33)"
       d="M 84.29,18.78 A 10.76,10.76 0 0 1 95,29.52 v 0 54.22 A 10.65,10.65 0 0 1 85,94.37 c -0.24,0.08 -3.55,0.12 -3.81,0.12 h -48 c -4.53,0 -11.41,-3.67 -11.41,-8.21 -1.4,0 -2.53,-11.53 -2.54,-12.92 V 30.42 A 15.61,15.61 0 0 1 19.56,27.2 10.58,10.58 0 0 1 30,18.78 h 12.74"
       class="cls-112"
       inkscape:connector-curvature="0"
       style="fill:#aa8463" />
    <path
       id="path4019"
       transform="translate(-7.83,-7.33)"
       d="M 84.25,18.83 A 10.75,10.75 0 0 1 95,29.56 v 0 54.14 A 10.63,10.63 0 0 1 85,94.3 c -0.25,0.08 -3.53,0.12 -3.8,0.12 H 33.44 C 29,94.42 22,90.8 22,86.33 20.55,86.33 19.38,74.9 19.37,73.45 v -43 A 15.84,15.84 0 0 1 19.69,27.23 10.56,10.56 0 0 1 30,18.83 h 13.26"
       class="cls-112"
       inkscape:connector-curvature="0"
       style="fill:#aa8463" />
    <path
       id="path4021"
       transform="translate(-7.83,-7.33)"
       d="m 84.2,18.89 a 10.73,10.73 0 0 1 10.71,10.72 v 0 54 A 10.61,10.61 0 0 1 85,94.23 c -0.26,0.08 -3.5,0.13 -3.79,0.13 H 33.6 c -4.41,0 -11.43,-3.57 -11.43,-8 -1.5,0 -2.72,-11.33 -2.73,-12.83 v -43 a 16.07,16.07 0 0 1 0.31,-3.22 10.54,10.54 0 0 1 10.3,-8.45 h 13.73"
       class="cls-113"
       inkscape:connector-curvature="0"
       style="fill:#ab8464" />
    <path
       id="path4023"
       transform="translate(-7.83,-7.33)"
       d="m 84.16,19 a 10.71,10.71 0 0 1 10.7,10.7 v 0 54 A 10.59,10.59 0 0 1 85,94.17 c -0.27,0.08 -3.48,0.13 -3.77,0.13 H 33.76 c -4.35,0 -11.43,-3.52 -11.43,-7.87 -1.55,0 -2.81,-11.23 -2.82,-12.79 v -43 A 16.32,16.32 0 0 1 19.82,27.42 10.52,10.52 0 0 1 30.1,19 h 14.2"
       class="cls-114"
       inkscape:connector-curvature="0"
       style="fill:#ab8564" />
    <path
       id="path4025"
       transform="translate(-7.83,-7.33)"
       d="m 84.12,19 a 10.7,10.7 0 0 1 10.67,10.69 v 0 53.87 A 10.57,10.57 0 0 1 85,94.1 c -0.27,0.09 -3.46,0.13 -3.76,0.14 H 33.92 c -4.29,0 -11.44,-3.48 -11.44,-7.76 -1.61,0 -2.91,-11.13 -2.92,-12.74 v -43 A 16.57,16.57 0 0 1 19.86,27.51 10.51,10.51 0 0 1 30.14,19 h 14.68"
       class="cls-115"
       inkscape:connector-curvature="0"
       style="fill:#ac8564" />
    <path
       id="path4027"
       transform="translate(-7.83,-7.33)"
       d="m 84.07,19.07 a 10.68,10.68 0 0 1 10.66,10.66 v 0 53.78 A 10.55,10.55 0 0 1 85,94 c -0.28,0.09 -3.43,0.14 -3.75,0.14 H 34.08 c -4.23,0 -11.45,-3.43 -11.45,-7.65 -1.66,0 -3,-11 -3,-12.69 v -43 a 16.83,16.83 0 0 1 0.3,-3.23 10.49,10.49 0 0 1 10.26,-8.5 h 15.14"
       class="cls-116"
       inkscape:connector-curvature="0"
       style="fill:#ac8665" />
    <path
       id="path4029"
       transform="translate(-7.83,-7.33)"
       d="m 84,19.13 a 10.66,10.66 0 0 1 10.67,10.64 v 0 53.7 A 10.53,10.53 0 0 1 85,94 c -0.29,0.09 -3.41,0.14 -3.73,0.15 h -47 c -4.16,0 -11.46,-3.38 -11.46,-7.54 -1.71,0 -3.09,-10.94 -3.1,-12.65 V 30.87 A 17.09,17.09 0 0 1 20,27.64 10.47,10.47 0 0 1 30.25,19.13 h 15.6"
       class="cls-117"
       inkscape:connector-curvature="0"
       style="fill:#ad8665" />
    <path
       id="path4031"
       transform="translate(-7.83,-7.33)"
       d="m 84,19.19 a 10.65,10.65 0 0 1 10.61,10.62 v 0 53.61 A 10.51,10.51 0 0 1 84.94,93.9 c -0.3,0.1 -3.39,0.15 -3.72,0.15 H 34.41 c -4.1,0 -11.46,-3.33 -11.46,-7.43 -1.76,0 -3.19,-10.84 -3.2,-12.6 V 30.94 A 17.37,17.37 0 0 1 20,27.71 10.45,10.45 0 0 1 30.24,19.18 h 16.13"
       class="cls-118"
       inkscape:connector-curvature="0"
       style="fill:#ae8665" />
    <path
       id="path4033"
       transform="translate(-7.83,-7.33)"
       d="m 83.94,19.24 a 10.63,10.63 0 0 1 10.61,10.62 v 0 53.52 a 10.49,10.49 0 0 1 -9.63,10.46 c -0.31,0.1 -3.37,0.15 -3.71,0.15 H 34.57 c -4,0 -11.47,-3.28 -11.47,-7.32 -1.81,0 -3.28,-10.74 -3.29,-12.55 V 31 a 17.65,17.65 0 0 1 0.29,-3.23 10.43,10.43 0 0 1 10.23,-8.54 h 16.56"
       class="cls-119"
       inkscape:connector-curvature="0"
       style="fill:#ae8765" />
    <path
       id="path4035"
       transform="translate(-7.83,-7.33)"
       d="m 83.9,19.3 a 10.62,10.62 0 0 1 10.59,10.6 v 0 53.43 a 10.47,10.47 0 0 1 -9.58,10.44 c -0.32,0.1 -3.34,0.16 -3.69,0.16 H 34.73 c -4,0 -11.48,-3.23 -11.48,-7.21 -1.87,0 -3.37,-10.64 -3.39,-12.51 V 31.09 a 17.94,17.94 0 0 1 0.28,-3.23 10.42,10.42 0 0 1 10.23,-8.56 h 17"
       class="cls-120"
       inkscape:connector-curvature="0"
       style="fill:#af8766" />
    <path
       id="path4037"
       transform="translate(-7.83,-7.33)"
       d="m 83.86,19.36 a 10.6,10.6 0 0 1 10.57,10.58 v 0 53.35 A 10.46,10.46 0 0 1 84.89,93.7 c -0.33,0.1 -3.32,0.16 -3.68,0.16 H 34.89 c -3.92,0 -11.49,-3.18 -11.49,-7.1 -1.92,0 -3.47,-10.54 -3.48,-12.46 V 31.17 a 18.25,18.25 0 0 1 0.28,-3.24 10.4,10.4 0 0 1 10.21,-8.57 h 17.51"
       class="cls-121"
       inkscape:connector-curvature="0"
       style="fill:#af8866" />
    <path
       id="path4039"
       transform="translate(-7.83,-7.33)"
       d="M 83.81,19.42 A 10.58,10.58 0 0 1 94.37,30 v 0 53.24 a 10.44,10.44 0 0 1 -9.5,10.39 c -0.34,0.11 -3.3,0.17 -3.67,0.17 H 35.06 c -3.86,0 -11.5,-3.13 -11.5,-7 -2,0 -3.56,-10.45 -3.57,-12.42 V 31.24 A 18.56,18.56 0 0 1 20.26,28 10.38,10.38 0 0 1 30.46,19.42 h 18"
       class="cls-122"
       inkscape:connector-curvature="0"
       style="fill:#b08866" />
    <path
       id="path4041"
       transform="translate(-7.83,-7.33)"
       d="M 83.77,19.48 A 10.57,10.57 0 0 1 94.31,30 v 0 53.2 a 10.42,10.42 0 0 1 -9.45,10.37 c -0.35,0.11 -3.27,0.17 -3.65,0.17 h -46 c -3.8,0 -11.5,-3.08 -11.5,-6.88 -2,0 -3.66,-10.35 -3.67,-12.37 V 31.32 a 18.88,18.88 0 0 1 0.27,-3.24 10.36,10.36 0 0 1 10.19,-8.6 H 49"
       class="cls-123"
       inkscape:connector-curvature="0"
       style="fill:#b08867" />
    <path
       id="path4043"
       transform="translate(-7.83,-7.33)"
       d="m 83.73,19.54 a 10.55,10.55 0 0 1 10.52,10.52 v 0 53.09 a 10.4,10.4 0 0 1 -9.4,10.35 c -0.35,0.11 -3.25,0.17 -3.64,0.18 H 35.38 c -3.74,0 -11.51,-3 -11.51,-6.76 -2.07,0 -3.75,-10.25 -3.76,-12.32 V 31.39 a 19.21,19.21 0 0 1 0.26,-3.24 10.35,10.35 0 0 1 10.18,-8.61 h 18.93"
       class="cls-124"
       inkscape:connector-curvature="0"
       style="fill:#b18967" />
    <path
       id="path4045"
       transform="translate(-7.83,-7.33)"
       d="m 83.68,19.6 a 10.53,10.53 0 0 1 10.51,10.51 v 0 53 a 10.38,10.38 0 0 1 -9.36,10.33 c -0.36,0.11 -3.23,0.18 -3.63,0.18 H 35.54 C 31.87,93.62 24,90.64 24,87 21.88,87 20.16,76.85 20.14,74.72 V 31.47 A 19.55,19.55 0 0 1 20.4,28.23 10.33,10.33 0 0 1 30.59,19.6 H 50"
       class="cls-124"
       inkscape:connector-curvature="0"
       style="fill:#b18967" />
    <path
       id="path4047"
       transform="translate(-7.83,-7.33)"
       d="m 83.64,19.65 a 10.52,10.52 0 0 1 10.49,10.5 v 0 52.91 a 10.36,10.36 0 0 1 -9.32,10.31 c -0.37,0.12 -3.2,0.18 -3.61,0.18 H 35.71 C 32.1,93.55 24.18,90.62 24.18,87.01 22,87 20.24,77 20.23,74.78 V 31.54 a 19.91,19.91 0 0 1 0.25,-3.25 10.31,10.31 0 0 1 10.15,-8.64 h 19.88"
       class="cls-125"
       inkscape:connector-curvature="0"
       style="fill:#b28a67" />
    <path
       id="path4049"
       transform="translate(-7.83,-7.33)"
       d="m 83.59,19.71 a 10.5,10.5 0 0 1 10.48,10.48 v 0 V 83 A 10.35,10.35 0 0 1 84.8,93.31 c -0.38,0.12 -3.18,0.19 -3.6,0.19 H 35.87 c -3.55,0 -11.53,-2.88 -11.53,-6.43 -2.23,0 -4,-10 -4,-12.18 V 31.62 a 20.27,20.27 0 0 1 0.25,-3.25 10.3,10.3 0 0 1 10.14,-8.66 H 51"
       class="cls-126"
       inkscape:connector-curvature="0"
       style="fill:#b28a68" />
    <path
       id="path4051"
       transform="translate(-7.83,-7.33)"
       d="M 83.55,19.77 A 10.49,10.49 0 0 1 94,30.23 v 0 V 83 a 10.33,10.33 0 0 1 -9.23,10.27 35.1,35.1 0 0 1 -3.59,0.19 H 36 c -3.49,0 -11.54,-2.83 -11.54,-6.32 -2.28,0 -4.12,-9.86 -4.14,-12.14 V 31.69 a 20.65,20.65 0 0 1 0.25,-3.25 10.28,10.28 0 0 1 10.13,-8.67 h 20.85"
       class="cls-127"
       inkscape:connector-curvature="0"
       style="fill:#b38a68" />
    <path
       id="path4053"
       transform="translate(-7.83,-7.33)"
       d="M 83.51,19.83 A 10.47,10.47 0 0 1 94,30.27 v 0 52.66 a 10.31,10.31 0 0 1 -9.18,10.24 34.06,34.06 0 0 1 -3.57,0.2 h -45 c -3.43,0 -11.55,-2.78 -11.55,-6.21 -2.33,0 -4.22,-9.76 -4.23,-12.09 v -43.3 a 21,21 0 0 1 0.24,-3.25 10.26,10.26 0 0 1 10.12,-8.69 h 21.3"
       class="cls-128"
       inkscape:connector-curvature="0"
       style="fill:#b38b68" />
    <path
       id="path4055"
       transform="translate(-7.83,-7.33)"
       d="m 83.46,19.89 a 10.45,10.45 0 0 1 10.43,10.42 v 0 52.57 A 10.29,10.29 0 0 1 84.75,93.1 33.07,33.07 0 0 1 81.19,93.3 H 36.35 c -3.37,0 -11.56,-2.73 -11.56,-6.1 -2.38,0 -4.31,-9.66 -4.33,-12 V 31.84 a 21.46,21.46 0 0 1 0.24,-3.25 10.25,10.25 0 0 1 10.11,-8.7 h 21.78"
       class="cls-129"
       inkscape:connector-curvature="0"
       style="fill:#b48b69" />
    <path
       id="path4057"
       transform="translate(-7.83,-7.33)"
       d="m 83.42,19.95 a 10.44,10.44 0 0 1 10.41,10.41 v 0 52.48 A 10.28,10.28 0 0 1 84.74,93 32.11,32.11 0 0 1 81.19,93.21 H 36.52 c -3.31,0 -11.57,-2.68 -11.57,-6 -2.44,0 -4.41,-9.56 -4.42,-12 V 31.92 a 21.88,21.88 0 0 1 0.23,-3.26 10.23,10.23 0 0 1 10.1,-8.71 H 53.1"
       class="cls-130"
       inkscape:connector-curvature="0"
       style="fill:#b48c69" />
    <path
       id="path4059"
       transform="translate(-7.83,-7.33)"
       d="m 83.38,20 a 10.42,10.42 0 0 1 10.39,10.4 v 0 52.4 a 10.26,10.26 0 0 1 -9,10.18 31.2,31.2 0 0 1 -3.53,0.21 H 36.68 c -3.25,0 -11.57,-2.63 -11.57,-5.88 -2.49,0 -4.5,-9.47 -4.51,-12 V 32 A 22.32,22.32 0 0 1 20.83,28.74 10.21,10.21 0 0 1 30.91,20 h 22.71"
       class="cls-131"
       inkscape:connector-curvature="0"
       style="fill:#b58c69" />
    <path
       id="path4061"
       transform="translate(-7.83,-7.33)"
       d="m 83.33,20.06 a 10.4,10.4 0 0 1 10.38,10.38 v 0 52.31 a 10.24,10.24 0 0 1 -9,10.16 30.33,30.33 0 0 1 -3.52,0.22 H 36.84 c -3.18,0 -11.58,-2.58 -11.58,-5.77 -2.54,0 -4.59,-9.37 -4.61,-11.91 V 32.07 A 22.78,22.78 0 0 1 20.87,28.81 10.2,10.2 0 0 1 31,20.06 h 23.14"
       class="cls-132"
       inkscape:connector-curvature="0"
       style="fill:#b58c6a" />
    <path
       id="path4063"
       transform="translate(-7.83,-7.33)"
       d="m 83.29,20.12 a 10.39,10.39 0 0 1 10.36,10.36 v 0 52.22 a 10.22,10.22 0 0 1 -9,10.14 29.5,29.5 0 0 1 -3.51,0.22 H 37 c -3.12,0 -11.59,-2.53 -11.59,-5.66 -2.59,0 -4.69,-9.27 -4.7,-11.86 V 32.14 A 23.25,23.25 0 0 1 20.93,28.88 10.18,10.18 0 0 1 31,20.12 h 23.66"
       class="cls-133"
       inkscape:connector-curvature="0"
       style="fill:#b68d6a" />
    <path
       id="path4065"
       transform="translate(-7.83,-7.33)"
       d="m 83.25,20.18 a 10.37,10.37 0 0 1 10.34,10.34 v 0 52.14 A 10.21,10.21 0 0 1 84.68,92.78 28.7,28.7 0 0 1 81.18,93 h -44 c -3.06,0 -11.6,-2.48 -11.6,-5.54 -2.64,0 -4.78,-9.17 -4.8,-11.81 V 32.22 A 23.75,23.75 0 0 1 21,29 10.17,10.17 0 0 1 31,20.18 h 24.18"
       class="cls-133"
       inkscape:connector-curvature="0"
       style="fill:#b68d6a" />
    <path
       id="path4067"
       transform="translate(-7.83,-7.33)"
       d="m 83.2,20.24 a 10.36,10.36 0 0 1 10.33,10.32 v 0 52 a 10.19,10.19 0 0 1 -8.87,10.1 27.93,27.93 0 0 1 -3.48,0.23 H 37.33 c -3,0 -11.6,-2.43 -11.6,-5.43 -2.69,0 -4.87,-9.07 -4.89,-11.77 V 32.29 A 24.26,24.26 0 0 1 21,29 10.15,10.15 0 0 1 31,20.21 h 24.69"
       class="cls-134"
       inkscape:connector-curvature="0"
       style="fill:#b78e6a" />
    <path
       id="path4069"
       transform="translate(-7.83,-7.33)"
       d="m 83.16,20.3 a 10.34,10.34 0 0 1 10.31,10.31 v 0 52 a 10.17,10.17 0 0 1 -8.82,10.07 27.19,27.19 0 0 1 -3.47,0.23 H 37.49 c -2.94,0 -11.61,-2.38 -11.61,-5.32 -2.75,0 -5,-9 -5,-11.72 v -43.5 a 24.8,24.8 0 0 1 0.21,-3.27 10.13,10.13 0 0 1 10,-8.8 h 25.12"
       class="cls-135"
       inkscape:connector-curvature="0"
       style="fill:#b78e6b" />
    <path
       id="path4071"
       transform="translate(-7.83,-7.33)"
       d="m 83.12,20.36 a 10.32,10.32 0 0 1 10.29,10.29 v 0 51.87 a 10.16,10.16 0 0 1 -8.78,10.05 26.48,26.48 0 0 1 -3.46,0.24 H 37.65 C 34.77,92.81 26,90.48 26,87.6 23.2,87.6 20.94,78.72 20.92,75.93 V 32.44 a 25.36,25.36 0 0 1 0.2,-3.27 10.12,10.12 0 0 1 10,-8.82 h 25.61"
       class="cls-136"
       inkscape:connector-curvature="0"
       style="fill:#b88e6b" />
    <path
       id="path4073"
       transform="translate(-7.83,-7.33)"
       d="m 83.07,20.41 a 10.31,10.31 0 0 1 10.28,10.28 v 0 51.79 a 10.14,10.14 0 0 1 -8.73,10 25.79,25.79 0 0 1 -3.44,0.24 H 37.81 c -2.82,0 -11.63,-2.28 -11.63,-5.1 C 23.33,87.63 21,78.87 21,76 V 32.52 a 25.94,25.94 0 0 1 0.2,-3.27 10.1,10.1 0 0 1 10,-8.83 h 26"
       class="cls-137"
       inkscape:connector-curvature="0"
       style="fill:#b88f6b" />
    <path
       id="path4075"
       transform="translate(-7.83,-7.33)"
       d="m 83,20.47 a 10.29,10.29 0 0 1 10.29,10.26 v 0 51.7 a 10.12,10.12 0 0 1 -8.69,10 25.13,25.13 0 0 1 -3.43,0.25 H 38 c -2.76,0 -11.64,-2.23 -11.64,-5 -2.9,0 -5.25,-8.68 -5.27,-11.58 V 32.59 a 26.55,26.55 0 0 1 0.19,-3.27 10.09,10.09 0 0 1 10,-8.85 h 26.5"
       class="cls-138"
       inkscape:connector-curvature="0"
       style="fill:#b98f6c" />
    <path
       id="path4077"
       transform="translate(-7.83,-7.33)"
       d="m 83,20.53 a 10.27,10.27 0 0 1 10.23,10.24 v 0 51.62 a 10.11,10.11 0 0 1 -8.64,10 24.5,24.5 0 0 1 -3.42,0.25 h -43 c -2.69,0 -11.64,-2.18 -11.64,-4.88 -3,0 -5.34,-8.58 -5.36,-11.54 V 32.66 a 27.19,27.19 0 0 1 0.19,-3.27 10.07,10.07 0 0 1 10,-8.86 h 27"
       class="cls-139"
       inkscape:connector-curvature="0"
       style="fill:#b9906c" />
    <path
       id="path4079"
       transform="translate(-7.83,-7.33)"
       d="m 82.94,20.59 a 10.26,10.26 0 0 1 10.23,10.22 v 0 51.53 a 10.09,10.09 0 0 1 -8.6,10 23.89,23.89 0 0 1 -3.4,0.26 H 38.3 c -2.63,0 -11.65,-2.13 -11.65,-4.77 -3,0 -5.44,-8.48 -5.46,-11.49 v -43.6 a 27.86,27.86 0 0 1 0.19,-3.28 10.06,10.06 0 0 1 10,-8.87 H 58.8"
       class="cls-140"
       inkscape:connector-curvature="0"
       style="fill:#ba906c" />
    <path
       id="path4081"
       transform="translate(-7.83,-7.33)"
       d="m 82.9,20.65 a 10.24,10.24 0 0 1 10.21,10.21 v 0 51.44 a 10.08,10.08 0 0 1 -8.55,9.95 23.3,23.3 0 0 1 -3.39,0.26 H 38.46 c -2.57,0 -11.66,-2.09 -11.66,-4.66 -3.06,0 -5.53,-8.39 -5.55,-11.44 v -43.6 a 28.56,28.56 0 0 1 0.18,-3.28 10,10 0 0 1 10,-8.89 h 27.89"
       class="cls-141"
       inkscape:connector-curvature="0"
       style="fill:#ba906d" />
    <path
       id="path4083"
       transform="translate(-7.83,-7.33)"
       d="M 82.86,20.71 A 10.23,10.23 0 0 1 93,30.9 v 0 51.35 a 10.06,10.06 0 0 1 -8.51,9.93 22.73,22.73 0 0 1 -3.38,0.26 H 38.62 c -2.51,0 -11.67,-2 -11.67,-4.55 -3.11,0 -5.62,-8.29 -5.64,-11.4 v -43.6 a 29.29,29.29 0 0 1 0.18,-3.28 10,10 0 0 1 10,-8.9 h 28.4"
       class="cls-142"
       inkscape:connector-curvature="0"
       style="fill:#bb916d" />
    <path
       id="path4085"
       transform="translate(-7.83,-7.33)"
       d="M 82.81,20.77 A 10.21,10.21 0 0 1 93,30.94 v 0 51.27 a 10,10 0 0 1 -8.46,9.9 22.18,22.18 0 0 1 -3.36,0.27 h -42.4 c -2.45,0 -11.67,-2 -11.67,-4.44 -3.16,0 -5.72,-8.19 -5.74,-11.35 V 33 a 30.06,30.06 0 0 1 0.17,-3.28 10,10 0 0 1 9.94,-8.92 h 28.88"
       class="cls-142"
       inkscape:connector-curvature="0"
       style="fill:#bb916d" />
    <path
       id="path4087"
       transform="translate(-7.83,-7.33)"
       d="M 82.77,20.82 A 10.19,10.19 0 0 1 92.93,31 v 0 51.16 A 10,10 0 0 1 84.51,92 21.64,21.64 0 0 1 81.16,92.27 H 38.95 c -2.39,0 -11.68,-1.94 -11.68,-4.32 -3.21,0 -5.81,-8.09 -5.83,-11.3 V 33 a 30.87,30.87 0 0 1 0.17,-3.28 10,10 0 0 1 9.93,-8.93 h 29.34"
       class="cls-143"
       inkscape:connector-curvature="0"
       style="fill:#bc926d" />
    <path
       id="path4089"
       transform="translate(-7.83,-7.33)"
       d="M 82.73,20.88 A 10.18,10.18 0 0 1 92.87,31 v 0 51.1 a 10,10 0 0 1 -8.38,9.9 21.13,21.13 0 0 1 -3.34,0.28 h -42 c -2.33,0 -11.69,-1.89 -11.69,-4.21 -3.26,0 -5.91,-8 -5.93,-11.26 v -43.7 a 31.72,31.72 0 0 1 0.16,-3.28 10,10 0 0 1 9.92,-8.95 h 29.78"
       class="cls-144"
       inkscape:connector-curvature="0"
       style="fill:#bc926e" />
    <path
       id="path4091"
       transform="translate(-7.83,-7.33)"
       d="m 82.68,20.94 a 10.16,10.16 0 0 1 10.13,10.12 v 0 51 a 10,10 0 0 1 -8.33,9.84 20.63,20.63 0 0 1 -3.32,0.28 H 39.27 c -2.27,0 -11.7,-1.84 -11.7,-4.1 -3.32,0 -6,-7.9 -6,-11.21 V 33.19 a 32.62,32.62 0 0 1 0.16,-3.29 10,10 0 0 1 9.91,-9 h 30.27"
       class="cls-145"
       inkscape:connector-curvature="0"
       style="fill:#bd926e" />
    <path
       id="path4093"
       transform="translate(-7.83,-7.33)"
       d="m 82.64,21 a 10.14,10.14 0 0 1 10.11,10.11 v 0 V 82 a 10,10 0 0 1 -8.28,9.82 20.15,20.15 0 0 1 -3.31,0.29 H 39.43 c -2.2,0 -11.71,-1.79 -11.71,-4 -3.37,0 -6.09,-7.8 -6.11,-11.17 V 33.26 c 0,-0.39 0.05,-2.93 0.16,-3.29 a 10,10 0 0 1 9.9,-9 h 30.76"
       class="cls-146"
       inkscape:connector-curvature="0"
       style="fill:#bd936e" />
    <path
       id="path4095"
       transform="translate(-7.83,-7.33)"
       d="m 82.6,21.06 a 10.13,10.13 0 0 1 10.09,10.09 v 0 V 82 a 10,10 0 0 1 -8.24,9.8 19.69,19.69 0 0 1 -3.3,0.29 H 39.59 c -2.14,0 -11.71,-1.74 -11.71,-3.88 -3.42,0 -6.19,-7.7 -6.21,-11.12 V 33.34 c 0,-0.38 0.05,-2.94 0.15,-3.29 a 9.94,9.94 0 0 1 9.89,-9 h 31.24"
       class="cls-147"
       inkscape:connector-curvature="0"
       style="fill:#be936f" />
    <path
       id="path4097"
       transform="translate(-7.83,-7.33)"
       d="m 82.55,21.12 a 10.11,10.11 0 0 1 10.08,10.07 v 0 50.75 a 10,10 0 0 1 -8.19,9.78 19.24,19.24 0 0 1 -3.28,0.3 H 39.76 C 37.67,92 28,90.32 28,88.24 c -3.47,0 -6.28,-7.6 -6.3,-11.07 V 33.41 c 0,-0.37 0,-3 0.15,-3.29 a 9.93,9.93 0 0 1 9.88,-9 h 31.74"
       class="cls-148"
       inkscape:connector-curvature="0"
       style="fill:#be946f" />
    <path
       id="path4099"
       transform="translate(-7.83,-7.33)"
       d="m 82.51,21.17 a 10.1,10.1 0 0 1 10.06,10.06 v 0 50.66 a 9.94,9.94 0 0 1 -8.15,9.76 18.8,18.8 0 0 1 -3.27,0.3 H 39.92 c -2,0 -11.73,-1.64 -11.73,-3.66 -3.52,0 -6.37,-7.5 -6.4,-11 v -43.8 c 0,-0.36 0,-3 0.14,-3.29 a 9.91,9.91 0 0 1 9.87,-9 H 64"
       class="cls-149"
       inkscape:connector-curvature="0"
       style="fill:#bf946f" />
    <path
       id="path4101"
       transform="translate(-7.83,-7.33)"
       d="m 82.47,21.23 a 10.08,10.08 0 0 1 10,10 v 0 50.62 a 9.92,9.92 0 0 1 -8.1,9.73 18.38,18.38 0 0 1 -3.26,0.3 H 40.08 c -2,0 -11.74,-1.59 -11.74,-3.55 -3.58,0 -6.47,-7.41 -6.49,-11 V 33.56 c 0,-0.35 0,-3 0.14,-3.3 a 9.9,9.9 0 0 1 9.85,-9 H 64.5"
       class="cls-150"
       inkscape:connector-curvature="0"
       style="fill:#c0946f" />
    <path
       id="path4103"
       transform="translate(-7.83,-7.33)"
       d="m 82.42,21.29 a 10.06,10.06 0 0 1 10,10 v 0 50.51 a 9.91,9.91 0 0 1 -8.06,9.71 18,18 0 0 1 -3.24,0.31 H 40.24 c -1.9,0 -11.74,-1.54 -11.74,-3.44 -3.63,0 -6.56,-7.31 -6.58,-10.93 V 33.64 c 0,-0.34 0,-3 0.13,-3.3 a 9.88,9.88 0 0 1 9.84,-9 H 65"
       class="cls-151"
       inkscape:connector-curvature="0"
       style="fill:#c09570" />
    <path
       id="path4105"
       transform="translate(-7.83,-7.33)"
       d="m 82.38,21.35 a 10,10 0 0 1 10,10 v 0 50.4 a 9.89,9.89 0 0 1 -8,9.69 17.57,17.57 0 0 1 -3.23,0.31 H 40.4 C 38.56,91.75 28.65,90.26 28.65,88.42 25,88.41 22,81.23 22,77.55 V 33.71 c 0,-0.33 0,-3 0.13,-3.3 a 9.87,9.87 0 0 1 9.83,-9.06 h 33.6"
       class="cls-152"
       inkscape:connector-curvature="0"
       style="fill:#c19570" />
    <path
       id="path4107"
       transform="translate(-7.83,-7.33)"
       d="m 82.34,21.41 a 10,10 0 0 1 10,10 v 0 50.3 a 9.88,9.88 0 0 1 -8,9.67 17.18,17.18 0 0 1 -3.22,0.32 H 40.57 c -1.78,0 -11.76,-1.44 -11.76,-3.22 -3.73,0 -6.75,-7.11 -6.77,-10.84 V 33.79 c 0,-0.32 0,-3 0.13,-3.3 A 9.86,9.86 0 0 1 32,21.41 h 34.06"
       class="cls-153"
       inkscape:connector-curvature="0"
       style="fill:#c19670" />
    <path
       id="path4109"
       transform="translate(-7.83,-7.33)"
       d="m 82.29,21.47 a 10,10 0 0 1 10,10 v 0 50.2 a 9.87,9.87 0 0 1 -7.93,9.65 16.81,16.81 0 0 1 -3.2,0.32 H 40.73 C 39,91.64 29,90.25 29,88.53 c -3.78,0 -6.84,-7 -6.87,-10.8 V 33.86 c 0,-0.3 0,-3 0.12,-3.3 A 9.84,9.84 0 0 1 32,21.47 h 34.57"
       class="cls-154"
       inkscape:connector-curvature="0"
       style="fill:#c29671" />
    <path
       id="path4111"
       transform="translate(-7.83,-7.33)"
       d="m 82.25,21.53 a 10,10 0 0 1 10,10 v 0 50.09 a 9.85,9.85 0 0 1 -7.88,9.63 16.45,16.45 0 0 1 -3.19,0.33 H 40.89 c -1.65,0 -11.78,-1.34 -11.78,-3 -3.83,0 -6.94,-6.92 -7,-10.75 V 33.94 c 0,-0.29 0,-3 0.12,-3.3 a 9.83,9.83 0 0 1 9.8,-9.11 h 35"
       class="cls-154"
       inkscape:connector-curvature="0"
       style="fill:#c29671" />
    <path
       id="path4113"
       transform="translate(-7.83,-7.33)"
       d="m 82.21,21.58 a 10,10 0 0 1 9.94,9.94 v 0 50.06 a 9.84,9.84 0 0 1 -7.84,9.61 16.09,16.09 0 0 1 -3.18,0.33 H 41.05 c -1.59,0 -11.78,-1.29 -11.78,-2.88 -3.89,0 -7,-6.82 -7.05,-10.7 V 34 c 0,-0.28 0,-3 0.11,-3.31 a 9.82,9.82 0 0 1 9.79,-9.12 h 35.5"
       class="cls-155"
       inkscape:connector-curvature="0"
       style="fill:#c39771" />
    <path
       id="path4115"
       transform="translate(-7.83,-7.33)"
       d="m 82.16,21.64 a 10,10 0 0 1 9.92,9.92 v 0 50 a 9.83,9.83 0 0 1 -7.79,9.59 15.75,15.75 0 0 1 -3.16,0.33 H 41.21 C 39.68,91.48 29.42,90.24 29.42,88.71 25.49,88.66 22.3,82 22.27,78 V 34.09 c 0,-0.27 0,-3.06 0.11,-3.31 a 9.8,9.8 0 0 1 9.78,-9.14 h 36"
       class="cls-156"
       inkscape:connector-curvature="0"
       style="fill:#c39772" />
    <path
       id="path4117"
       transform="translate(-7.83,-7.33)"
       d="m 82.12,21.7 a 10,10 0 0 1 9.9,9.9 v 0 49.89 a 9.81,9.81 0 0 1 -7.75,9.56 15.42,15.42 0 0 1 -3.15,0.34 H 41.38 c -1.47,0 -11.8,-1.19 -11.8,-2.66 -4,0 -7.22,-6.62 -7.24,-10.61 v -44 c 0,-0.26 0,-3.07 0.1,-3.31 A 9.79,9.79 0 0 1 32.2,21.7 h 36.45"
       class="cls-157"
       inkscape:connector-curvature="0"
       style="fill:#c49772" />
    <path
       id="path4119"
       transform="translate(-7.83,-7.33)"
       d="M 82.08,21.76 A 9.93,9.93 0 0 1 92,31.65 v 0 49.79 A 9.8,9.8 0 0 1 84.26,91 15.09,15.09 0 0 1 81.12,91.34 H 41.54 c -1.41,0 -11.81,-1.14 -11.81,-2.55 -4,0 -7.31,-6.52 -7.34,-10.56 v -44 c 0,-0.25 0,-3.08 0.1,-3.31 a 9.78,9.78 0 0 1 9.75,-9.17 h 36.92"
       class="cls-158"
       inkscape:connector-curvature="0"
       style="fill:#c49872" />
    <path
       id="path4121"
       transform="translate(-7.83,-7.33)"
       d="m 82,21.82 a 9.92,9.92 0 0 1 9.87,9.87 v 0 49.71 a 9.79,9.79 0 0 1 -7.66,9.52 14.78,14.78 0 0 1 -3.12,0.35 H 41.7 c -1.35,0 -11.81,-1.09 -11.81,-2.44 -4.09,0 -7.41,-6.42 -7.43,-10.52 v -44 c 0,-0.24 0,-3.09 0.1,-3.31 a 9.76,9.76 0 0 1 9.74,-9.18 h 37.38"
       class="cls-159"
       inkscape:connector-curvature="0"
       style="fill:#c59872" />
    <path
       id="path4123"
       transform="translate(-7.83,-7.33)"
       d="m 82,21.88 a 9.9,9.9 0 0 1 9.85,9.85 v 0 49.62 a 9.77,9.77 0 0 1 -7.61,9.5 14.47,14.47 0 0 1 -3.11,0.35 H 41.86 c -1.29,0 -11.82,-1 -11.82,-2.33 -4.15,0 -7.5,-6.33 -7.52,-10.47 v -44 c 0,-0.23 0,-3.11 0.09,-3.32 a 9.75,9.75 0 0 1 9.73,-9.19 H 70.2"
       class="cls-160"
       inkscape:connector-curvature="0"
       style="fill:#c59973" />
    <path
       id="path4125"
       transform="translate(-7.83,-7.33)"
       d="m 81.95,21.94 a 9.88,9.88 0 0 1 9.84,9.84 v 0 49.53 a 9.76,9.76 0 0 1 -7.57,9.48 14.17,14.17 0 0 1 -3.1,0.36 H 42 c -1.22,0 -11.83,-1 -11.83,-2.22 -4.2,0 -7.59,-6.23 -7.62,-10.43 v -44 c 0,-0.22 0,-3.12 0.09,-3.32 a 9.74,9.74 0 0 1 9.72,-9.21 h 38.36"
       class="cls-161"
       inkscape:connector-curvature="0"
       style="fill:#c69973" />
    <path
       id="path4127"
       transform="translate(-7.83,-7.33)"
       d="m 81.9,22 a 9.87,9.87 0 0 1 9.82,9.82 v 0 49.44 a 9.75,9.75 0 0 1 -7.52,9.46 13.88,13.88 0 0 1 -3.08,0.36 H 42.19 c -1.16,0 -11.84,-0.94 -11.84,-2.11 -4.25,0 -7.69,-6.13 -7.71,-10.38 V 34.54 c 0,-0.21 0,-3.13 0.08,-3.32 A 9.72,9.72 0 0 1 32.43,22 h 38.81"
       class="cls-161"
       inkscape:connector-curvature="0"
       style="fill:#c69973" />
    <path
       id="path4129"
       transform="translate(-7.83,-7.33)"
       d="m 81.86,22.05 a 9.85,9.85 0 0 1 9.8,9.8 v 0 49.37 a 9.74,9.74 0 0 1 -7.48,9.44 13.6,13.6 0 0 1 -3.07,0.37 H 42.35 c -1.1,0 -11.85,-0.89 -11.85,-2 -4.3,0 -7.78,-6 -7.81,-10.33 V 34.61 c 0,-0.2 0,-3.14 0.08,-3.32 a 9.71,9.71 0 0 1 9.7,-9.24 h 39.28"
       class="cls-162"
       inkscape:connector-curvature="0"
       style="fill:#c79a74" />
    <path
       id="path4131"
       transform="translate(-7.83,-7.33)"
       d="m 81.82,22.11 a 9.84,9.84 0 0 1 9.78,9.79 v 0 49.27 a 9.73,9.73 0 0 1 -7.43,9.42 13.32,13.32 0 0 1 -3.06,0.37 h -38.6 c -1,0 -11.85,-0.84 -11.85,-1.89 -4.35,0 -7.87,-5.93 -7.9,-10.29 V 34.69 c 0,-0.19 0,-3.15 0.07,-3.32 a 9.7,9.7 0 0 1 9.69,-9.25 h 39.75"
       class="cls-162"
       inkscape:connector-curvature="0"
       style="fill:#c79a74" />
    <path
       id="path4133"
       transform="translate(-7.83,-7.33)"
       d="m 81.77,22.17 a 9.82,9.82 0 0 1 9.77,9.77 v 0 49.19 a 9.72,9.72 0 0 1 -7.39,9.39 13.05,13.05 0 0 1 -3,0.37 H 42.67 c -1,0 -11.86,-0.79 -11.86,-1.77 -4.4,0 -8,-5.84 -8,-10.24 V 34.76 c 0,-0.17 0,-3.17 0.07,-3.32 a 9.69,9.69 0 0 1 9.68,-9.27 h 40.23"
       class="cls-163"
       inkscape:connector-curvature="0"
       style="fill:#c89b74" />
    <path
       id="path4135"
       transform="translate(-7.83,-7.33)"
       d="M 81.73,22.23 A 9.8,9.8 0 0 1 91.48,32 v 0 49.1 a 9.7,9.7 0 0 1 -7.34,9.37 12.79,12.79 0 0 1 -3,0.38 H 42.83 C 41.91,90.85 30.96,90.11 30.96,89.19 26.5,89.19 22.9,83.45 22.87,79 V 34.84 c 0,-0.16 0,-3.18 0.06,-3.33 a 9.67,9.67 0 0 1 9.67,-9.28 h 40.7"
       class="cls-164"
       inkscape:connector-curvature="0"
       style="fill:#c89b75" />
    <path
       id="path4137"
       transform="translate(-7.83,-7.33)"
       d="M 81.69,22.29 A 9.79,9.79 0 0 1 91.42,32 v 0 49 a 9.69,9.69 0 0 1 -7.3,9.35 12.54,12.54 0 0 1 -3,0.38 H 43 c -0.86,0 -11.88,-0.7 -11.88,-1.55 -4.51,0 -8.15,-5.64 -8.18,-10.15 V 34.91 c 0,-0.15 0,-3.19 0.06,-3.33 a 9.66,9.66 0 0 1 9.66,-9.3 h 41.17"
       class="cls-165"
       inkscape:connector-curvature="0"
       style="fill:#c99b75" />
    <path
       id="path4139"
       transform="translate(-7.83,-7.33)"
       d="m 81.64,22.34 a 9.77,9.77 0 0 1 9.72,9.72 v 0 V 81 a 9.68,9.68 0 0 1 -7.25,9.33 12.29,12.29 0 0 1 -3,0.39 H 43.16 c -0.8,0 -11.88,-0.65 -11.88,-1.44 -4.56,0 -8.25,-5.54 -8.28,-10.1 V 35 c 0,-0.14 0,-3.2 0.06,-3.33 a 9.65,9.65 0 0 1 9.64,-9.31 h 41.64"
       class="cls-166"
       inkscape:connector-curvature="0"
       style="fill:#c99c75" />
    <path
       id="path4141"
       transform="translate(-7.83,-7.33)"
       d="m 81.6,22.4 a 9.75,9.75 0 0 1 9.7,9.7 v 0 48.85 a 9.67,9.67 0 0 1 -7.21,9.31 12,12 0 0 1 -3,0.39 H 43.32 c -0.73,0 -11.89,-0.6 -11.89,-1.33 -4.61,0 -8.34,-5.44 -8.37,-10.06 v -44.2 c 0,-0.13 0,-3.21 0.05,-3.33 a 9.64,9.64 0 0 1 9.63,-9.33 h 42.12"
       class="cls-167"
       inkscape:connector-curvature="0"
       style="fill:#ca9c75" />
    <path
       id="path4143"
       transform="translate(-7.83,-7.33)"
       d="m 81.56,22.46 a 9.74,9.74 0 0 1 9.69,9.69 v 0 48.75 a 9.66,9.66 0 0 1 -7.16,9.29 11.81,11.81 0 0 1 -3,0.4 H 43.48 c -0.67,0 -11.9,-0.55 -11.9,-1.22 -4.66,0 -8.44,-5.35 -8.47,-10 V 35.14 c 0,-0.12 0,-3.22 0,-3.33 a 9.63,9.63 0 0 1 9.62,-9.34 h 42.65"
       class="cls-168"
       inkscape:connector-curvature="0"
       style="fill:#ca9d76" />
    <path
       id="path4145"
       transform="translate(-7.83,-7.33)"
       d="m 81.51,22.52 a 9.72,9.72 0 0 1 9.67,9.67 v 0 48.67 a 9.65,9.65 0 0 1 -7.12,9.27 11.58,11.58 0 0 1 -3,0.4 H 43.64 c -0.61,0 -11.91,-0.5 -11.91,-1.11 -4.71,0 -8.53,-5.25 -8.56,-10 V 35.21 c 0,-0.11 0,-3.24 0,-3.34 a 9.61,9.61 0 0 1 9.61,-9.35 H 75.9"
       class="cls-169"
       inkscape:connector-curvature="0"
       style="fill:#cb9d76" />
    <path
       id="path4147"
       transform="translate(-7.83,-7.33)"
       d="m 81.47,22.58 a 9.71,9.71 0 0 1 9.65,9.65 v 0 48.58 A 9.64,9.64 0 0 1 84,90.06 11.36,11.36 0 0 1 81,90.47 H 43.81 c -0.55,0 -11.92,-0.45 -11.92,-1 -4.77,0 -8.62,-5.15 -8.65,-9.92 V 35.29 c 0,-0.1 0,-3.25 0,-3.34 a 9.6,9.6 0 0 1 9.6,-9.37 h 43.58"
       class="cls-169"
       inkscape:connector-curvature="0"
       style="fill:#cb9d76" />
    <path
       id="path4149"
       transform="translate(-7.83,-7.33)"
       d="m 81.43,22.64 a 9.69,9.69 0 0 1 9.63,9.63 v 0 48.5 A 9.63,9.63 0 0 1 84,90 11.14,11.14 0 0 1 81.06,90.41 H 44 C 43.48,90.4 32,90 32,89.51 c -4.82,0 -8.72,-5.05 -8.75,-9.87 V 35.36 c 0,-0.09 0,-3.26 0,-3.34 a 9.59,9.59 0 0 1 9.59,-9.38 h 44"
       class="cls-170"
       inkscape:connector-curvature="0"
       style="fill:#cc9e77" />
    <path
       id="path4151"
       transform="translate(-7.83,-7.33)"
       d="M 81.38,22.7 A 9.67,9.67 0 0 1 91,32.31 v 0 48.41 a 9.62,9.62 0 0 1 -7,9.2 10.92,10.92 0 0 1 -2.92,0.41 h -37 c -0.43,0 -11.93,-0.35 -11.93,-0.78 -4.87,0 -8.81,-5 -8.84,-9.82 V 35.44 c 0,-0.08 0,-3.27 0,-3.34 A 9.58,9.58 0 0 1 33,22.7 h 44.45"
       class="cls-170"
       inkscape:connector-curvature="0"
       style="fill:#cc9e77" />
    <path
       id="path4153"
       transform="translate(-7.83,-7.33)"
       d="m 81.34,22.75 a 9.66,9.66 0 0 1 9.6,9.6 v 0 48.33 A 9.61,9.61 0 0 1 84,89.86 10.71,10.71 0 0 1 81.09,90.28 h -36.8 c -0.37,0 -11.94,-0.3 -11.94,-0.67 -4.92,0 -8.9,-4.86 -8.94,-9.78 V 35.51 c 0,-0.07 0,-3.28 0,-3.34 A 9.57,9.57 0 0 1 33,22.75 h 45"
       class="cls-171"
       inkscape:connector-curvature="0"
       style="fill:#cd9f77" />
    <path
       id="path4155"
       transform="translate(-7.83,-7.33)"
       d="m 81.3,22.81 a 9.64,9.64 0 0 1 9.58,9.58 v 0 48.24 A 9.6,9.6 0 0 1 84,89.79 10.51,10.51 0 0 1 81.1,90.21 H 44.45 c -0.31,0 -11.95,-0.25 -11.95,-0.55 -5,0 -9,-4.76 -9,-9.73 V 35.58 c 0,-0.05 0,-3.3 0,-3.34 a 9.56,9.56 0 0 1 9.56,-9.43 h 45.43"
       class="cls-172"
       inkscape:connector-curvature="0"
       style="fill:#cd9f78" />
    <path
       id="path4157"
       transform="translate(-7.83,-7.33)"
       d="m 81.25,22.87 a 9.62,9.62 0 0 1 9.57,9.57 v 0 48.15 A 9.6,9.6 0 0 1 84,89.73 10.31,10.31 0 0 1 81.12,90.16 h -36.5 c -0.24,0 -12,-0.2 -12,-0.44 -5,0 -9.09,-4.66 -9.12,-9.69 V 35.66 c 0,0 0,-3.31 0,-3.35 a 9.54,9.54 0 0 1 9.54,-9.44 H 79"
       class="cls-173"
       inkscape:connector-curvature="0"
       style="fill:#ce9f78" />
    <path
       id="path4159"
       transform="translate(-7.83,-7.33)"
       d="m 81.21,22.93 a 9.61,9.61 0 0 1 9.55,9.55 v 0 48.06 A 9.59,9.59 0 0 1 84,89.66 10.11,10.11 0 0 1 81.13,90.09 H 44.78 c -0.18,0 -12,-0.15 -12,-0.33 -5.08,0 -9.19,-4.56 -9.22,-9.64 V 35.73 c 0,0 0,-3.32 0,-3.35 a 9.53,9.53 0 0 1 9.53,-9.46 h 46.44"
       class="cls-174"
       inkscape:connector-curvature="0"
       style="fill:#cea078" />
    <path
       id="path4161"
       transform="translate(-7.83,-7.33)"
       d="m 81.17,23 a 9.59,9.59 0 0 1 9.53,9.53 v 0 48 a 9.58,9.58 0 0 1 -6.76,9.1 9.92,9.92 0 0 1 -2.86,0.44 H 44.94 c -0.12,0 -12,-0.1 -12,-0.22 A 9.62,9.62 0 0 1 23.63,80.26 V 35.81 c 0,0 0,-3.33 0,-3.35 A 9.52,9.52 0 0 1 33.19,23 H 80"
       class="cls-175"
       inkscape:connector-curvature="0"
       style="fill:#cfa078" />
    <path
       id="path4163"
       transform="translate(-7.83,-7.33)"
       d="m 81.12,23 a 9.58,9.58 0 0 1 9.52,9.52 v 0 47.93 a 9.57,9.57 0 0 1 -6.71,9.08 9.74,9.74 0 0 1 -2.84,0.44 h -36 c -0.06,0 -12,0 -12,-0.11 A 9.59,9.59 0 0 1 23.68,80.31 V 35.88 c 0,0 0,-3.34 0,-3.35 A 9.51,9.51 0 0 1 33.23,23 h 47.33"
       class="cls-176"
       inkscape:connector-curvature="0"
       style="fill:#cfa179" />
    <path
       id="path4165"
       transform="translate(-7.83,-7.33)"
       d="m 33.28,23.11 h 47.8 a 9.56,9.56 0 0 1 9.5,9.5 v 47.8 a 9.56,9.56 0 0 1 -9.5,9.5 h -47.8 a 9.56,9.56 0 0 1 -9.5,-9.5 v -47.8 a 9.5,9.5 0 0 1 9.5,-9.5 z"
       class="cls-177"
       inkscape:connector-curvature="0"
       style="fill:#d0a179" />
  </g>
</svg>
