<?xml version="1.0" encoding="UTF-8" standalone="no"?>
<svg
   xmlns:dc="http://purl.org/dc/elements/1.1/"
   xmlns:cc="http://creativecommons.org/ns#"
   xmlns:rdf="http://www.w3.org/1999/02/22-rdf-syntax-ns#"
   xmlns:svg="http://www.w3.org/2000/svg"
   xmlns="http://www.w3.org/2000/svg"
   xmlns:sodipodi="http://sodipodi.sourceforge.net/DTD/sodipodi-0.dtd"
   xmlns:inkscape="http://www.inkscape.org/namespaces/inkscape"
   id="Слой_1"
   data-name="Слой 1"
   viewBox="0 0 98.7 98.7"
   version="1.1"
   sodipodi:docname="color11.svg"
   inkscape:version="0.92.1 r15371">
  <metadata
     id="metadata4587">
    <rdf:RDF>
      <cc:Work
         rdf:about="">
        <dc:format>image/svg+xml</dc:format>
        <dc:type
           rdf:resource="http://purl.org/dc/dcmitype/StillImage" />
      </cc:Work>
    </rdf:RDF>
  </metadata>
  <sodipodi:namedview
     pagecolor="#ffffff"
     bordercolor="#666666"
     borderopacity="1"
     objecttolerance="10"
     gridtolerance="10"
     guidetolerance="10"
     inkscape:pageopacity="0"
     inkscape:pageshadow="2"
     inkscape:window-width="657"
     inkscape:window-height="480"
     id="namedview4585"
     showgrid="false"
     inkscape:zoom="2.3910842"
     inkscape:cx="49.349998"
     inkscape:cy="49.349998"
     inkscape:window-x="0"
     inkscape:window-y="0"
     inkscape:window-maximized="0"
     inkscape:current-layer="Слой_1" />
  <defs
     id="defs4174">
    <style
       id="style4172">.cls-1{fill:#394d76;}.cls-2{fill:#394d77;}.cls-3{fill:#3a4e77;}.cls-4{fill:#3a4e78;}.cls-5{fill:#3a4f79;}.cls-6{fill:#3b4f79;}.cls-7{fill:#3b4f7a;}.cls-8{fill:#3b507a;}.cls-9{fill:#3b507b;}.cls-10{fill:#3c507b;}.cls-11{fill:#3c517c;}.cls-12{fill:#3c517d;}.cls-13{fill:#3d527d;}.cls-14{fill:#3d527e;}.cls-15{fill:#3d537f;}.cls-16{fill:#3e537f;}.cls-17{fill:#3e5380;}.cls-18{fill:#3e5480;}.cls-19{fill:#3e5481;}.cls-20{fill:#3f5482;}.cls-21{fill:#3f5582;}.cls-22{fill:#3f5583;}.cls-23{fill:#405684;}.cls-24{fill:#405685;}.cls-25{fill:#405785;}.cls-26{fill:#415785;}.cls-27{fill:#415786;}.cls-28{fill:#415887;}.cls-29{fill:#425888;}.cls-30{fill:#425988;}.cls-31{fill:#425989;}.cls-32{fill:#435a8a;}.cls-33{fill:#435a8b;}.cls-34{fill:#435b8b;}.cls-35{fill:#445b8c;}.cls-36{fill:#445c8d;}.cls-37{fill:#445c8e;}.cls-38{fill:#455c8e;}.cls-39{fill:#455d8e;}.cls-40{fill:#455d8f;}.cls-41{fill:#465e90;}.cls-42{fill:#465e91;}.cls-43{fill:#465f91;}.cls-44{fill:#475f92;}.cls-45{fill:#475f93;}.cls-46{fill:#476093;}.cls-47{fill:#476094;}.cls-48{fill:#486094;}.cls-49{fill:#486195;}.cls-50{fill:#486196;}.cls-51{fill:#496296;}.cls-52{fill:#496297;}.cls-53{fill:#496398;}.cls-54{fill:#4a6398;}.cls-55{fill:#4a6399;}.cls-56{fill:#4a6499;}.cls-57{fill:#4a649a;}.cls-58{fill:#4b649a;}.cls-59{fill:#4b659b;}.cls-60{fill:#4b659c;}.cls-61{fill:#4c669c;}.cls-62{fill:#4c669d;}.cls-63{fill:#4d679d;}.cls-64{fill:#4d679e;}.cls-65{fill:#4e689e;}.cls-66{fill:#4f689f;}.cls-67{fill:#4f699f;}.cls-68{fill:#50699f;}.cls-69{fill:#506a9f;}.cls-70{fill:#516aa0;}.cls-71{fill:#516ba0;}.cls-72{fill:#526ba0;}.cls-73{fill:#526ca1;}.cls-74{fill:#536ca1;}.cls-75{fill:#546da1;}.cls-76{fill:#546da2;}.cls-77{fill:#556da2;}.cls-78{fill:#556ea2;}.cls-79{fill:#566ea2;}.cls-80{fill:#566fa3;}.cls-81{fill:#576fa3;}.cls-82{fill:#5770a3;}.cls-83{fill:#5870a4;}.cls-84{fill:#5871a4;}.cls-85{fill:#5971a4;}.cls-86{fill:#5a72a5;}.cls-87{fill:#5b73a5;}.cls-88{fill:#5b73a6;}.cls-89{fill:#5c74a6;}.cls-90{fill:#5d74a6;}.cls-91{fill:#5d75a7;}.cls-92{fill:#5e75a7;}.cls-93{fill:#5e76a7;}.cls-94{fill:#5f76a7;}.cls-95{fill:#5f77a8;}.cls-96{fill:#6077a8;}.cls-97{fill:#6178a8;}.cls-98{fill:#6178a9;}.cls-99{fill:#6279a9;}.cls-100{fill:#637aaa;}.cls-101{fill:#647aaa;}.cls-102{fill:#647baa;}.cls-103{fill:#657bab;}.cls-104{fill:#657cab;}.cls-105{fill:#667cab;}.cls-106{fill:#667dac;}.cls-107{fill:#677dac;}.cls-108{fill:#677eac;}.cls-109{fill:#687eac;}.cls-110{fill:#687ead;}.cls-111{fill:#697fad;}.cls-112{fill:#6a7fad;}.cls-113{fill:#6a80ae;}.cls-114{fill:#6b80ae;}.cls-115{fill:#6b81ae;}.cls-116{fill:#6c81af;}.cls-117{fill:#6c82af;}.cls-118{fill:#6d82af;}.cls-119{fill:#6d83af;}.cls-120{fill:#6e83b0;}.cls-121{fill:#6f84b0;}.cls-122{fill:#6f84b1;}.cls-123{fill:#7085b1;}</style>
  </defs>
  <title
     id="title4176">color11</title>
  <g
     id="g13666">
    <path
       id="path4178"
       transform="translate(-7.38,-7.58)"
       d="m 92.08,7.58 a 14,14 0 0 1 14,14 v 0 70.7 a 14,14 0 0 1 -14,14 h -70.7 a 14,14 0 0 1 -14,-14 v -70.7 a 13.91,13.91 0 0 1 13.82,-14"
       class="cls-1"
       inkscape:connector-curvature="0"
       style="fill:#394d76" />
    <path
       id="path4180"
       transform="translate(-7.38,-7.58)"
       d="m 92,7.68 a 14,14 0 0 1 14,14 v 0 70.53 a 14,14 0 0 1 -14,14 H 21.45 a 14,14 0 0 1 -14,-14 V 21.65 a 13.88,13.88 0 0 1 13.79,-14"
       class="cls-1"
       inkscape:connector-curvature="0"
       style="fill:#394d76" />
    <path
       id="path4182"
       transform="translate(-7.38,-7.58)"
       d="m 91.94,7.78 a 13.94,13.94 0 0 1 13.94,13.94 v 0 70.42 A 13.94,13.94 0 0 1 91.94,106.08 H 21.52 A 13.94,13.94 0 0 1 7.57,92.14 V 21.72 A 13.85,13.85 0 0 1 21.34,7.78"
       class="cls-2"
       inkscape:connector-curvature="0"
       style="fill:#394d77" />
    <path
       id="path4184"
       transform="translate(-7.38,-7.58)"
       d="m 91.87,7.87 a 13.92,13.92 0 0 1 13.92,13.92 v 0 70.28 A 13.92,13.92 0 0 1 91.87,106 H 21.59 A 13.92,13.92 0 0 1 7.67,92.07 V 21.79 A 13.83,13.83 0 0 1 21.41,7.87"
       class="cls-3"
       inkscape:connector-curvature="0"
       style="fill:#3a4e77" />
    <path
       id="path4186"
       transform="translate(-7.38,-7.58)"
       d="m 91.8,8 a 13.89,13.89 0 0 1 13.89,13.89 v 0 V 92 A 13.89,13.89 0 0 1 91.8,105.89 H 21.66 A 13.89,13.89 0 0 1 7.77,92 V 21.86 A 13.8,13.8 0 0 1 21.48,8"
       class="cls-4"
       inkscape:connector-curvature="0"
       style="fill:#3a4e78" />
    <path
       id="path4188"
       transform="translate(-7.38,-7.58)"
       d="m 91.73,8.07 a 13.86,13.86 0 0 1 13.86,13.86 v 0 70 a 13.86,13.86 0 0 1 -13.86,13.86 h -70 A 13.86,13.86 0 0 1 7.86,91.93 v -70 A 13.77,13.77 0 0 1 21.55,8.07"
       class="cls-4"
       inkscape:connector-curvature="0"
       style="fill:#3a4e78" />
    <path
       id="path4190"
       transform="translate(-7.38,-7.58)"
       d="M 91.66,8.17 A 13.83,13.83 0 0 1 105.49,22 v 0 69.86 A 13.83,13.83 0 0 1 91.66,105.7 H 21.8 A 13.83,13.83 0 0 1 8,91.86 V 22 A 13.74,13.74 0 0 1 21.62,8.17"
       class="cls-4"
       inkscape:connector-curvature="0"
       style="fill:#3a4e78" />
    <path
       id="path4192"
       transform="translate(-7.38,-7.58)"
       d="m 91.59,8.27 a 13.81,13.81 0 0 1 13.81,13.81 v 0 69.71 A 13.81,13.81 0 0 1 91.59,105.6 H 21.87 A 13.81,13.81 0 0 1 8.06,91.79 V 22.07 A 13.72,13.72 0 0 1 21.69,8.27"
       class="cls-5"
       inkscape:connector-curvature="0"
       style="fill:#3a4f79" />
    <path
       id="path4194"
       transform="translate(-7.38,-7.58)"
       d="m 91.52,8.36 a 13.78,13.78 0 0 1 13.78,13.78 v 0 69.58 A 13.78,13.78 0 0 1 91.52,105.5 H 21.94 A 13.78,13.78 0 0 1 8.16,91.72 V 22.14 A 13.69,13.69 0 0 1 21.76,8.36"
       class="cls-6"
       inkscape:connector-curvature="0"
       style="fill:#3b4f79" />
    <path
       id="path4196"
       transform="translate(-7.38,-7.58)"
       d="m 91.45,8.46 a 13.75,13.75 0 0 1 13.75,13.75 v 0 69.44 A 13.75,13.75 0 0 1 91.45,105.4 H 22 A 13.75,13.75 0 0 1 8.26,91.65 V 22.21 A 13.66,13.66 0 0 1 21.83,8.46"
       class="cls-6"
       inkscape:connector-curvature="0"
       style="fill:#3b4f79" />
    <path
       id="path4198"
       transform="translate(-7.38,-7.58)"
       d="m 91.38,8.56 a 13.72,13.72 0 0 1 13.72,13.72 v 0 69.3 A 13.72,13.72 0 0 1 91.38,105.3 H 22.08 A 13.72,13.72 0 0 1 8.35,91.58 V 22.28 A 13.63,13.63 0 0 1 21.9,8.56"
       class="cls-7"
       inkscape:connector-curvature="0"
       style="fill:#3b4f7a" />
    <path
       id="path4200"
       transform="translate(-7.38,-7.58)"
       d="M 91.31,8.66 A 13.7,13.7 0 0 1 105,22.35 v 0 69.16 a 13.7,13.7 0 0 1 -13.7,13.7 H 22.15 A 13.7,13.7 0 0 1 8.45,91.51 V 22.35 A 13.61,13.61 0 0 1 22,8.66"
       class="cls-8"
       inkscape:connector-curvature="0"
       style="fill:#3b507a" />
    <path
       id="path4202"
       transform="translate(-7.38,-7.58)"
       d="m 91.24,8.75 a 13.67,13.67 0 0 1 13.66,13.67 v 0 69 a 13.67,13.67 0 0 1 -13.67,13.67 h -69 A 13.67,13.67 0 0 1 8.55,91.44 v -69 A 13.58,13.58 0 0 1 22,8.75"
       class="cls-9"
       inkscape:connector-curvature="0"
       style="fill:#3b507b" />
    <path
       id="path4204"
       transform="translate(-7.38,-7.58)"
       d="m 91.17,8.85 a 13.64,13.64 0 0 1 13.64,13.64 v 0 68.88 A 13.64,13.64 0 0 1 91.17,105 H 22.29 A 13.64,13.64 0 0 1 8.65,91.37 V 22.49 A 13.55,13.55 0 0 1 22.11,8.85"
       class="cls-9"
       inkscape:connector-curvature="0"
       style="fill:#3b507b" />
    <path
       id="path4206"
       transform="translate(-7.38,-7.58)"
       d="m 91.1,8.95 a 13.61,13.61 0 0 1 13.61,13.61 v 0 68.74 A 13.61,13.61 0 0 1 91.1,104.91 H 22.36 A 13.61,13.61 0 0 1 8.74,91.3 V 22.56 A 13.52,13.52 0 0 1 22.18,8.95"
       class="cls-10"
       inkscape:connector-curvature="0"
       style="fill:#3c507b" />
    <path
       id="path4208"
       transform="translate(-7.38,-7.58)"
       d="m 91,9 a 13.58,13.58 0 0 1 13.58,13.58 v 0 68.6 A 13.58,13.58 0 0 1 91,104.82 H 22.43 A 13.58,13.58 0 0 1 8.84,91.23 V 22.63 A 13.5,13.5 0 0 1 22.25,9"
       class="cls-11"
       inkscape:connector-curvature="0"
       style="fill:#3c517c" />
    <path
       id="path4210"
       transform="translate(-7.38,-7.58)"
       d="m 91,9.15 a 13.56,13.56 0 0 1 13.51,13.55 v 0 68.46 A 13.56,13.56 0 0 1 91,104.72 H 22.5 A 13.56,13.56 0 0 1 8.94,91.16 V 22.7 A 13.47,13.47 0 0 1 22.32,9.15"
       class="cls-11"
       inkscape:connector-curvature="0"
       style="fill:#3c517c" />
    <path
       id="path4212"
       transform="translate(-7.38,-7.58)"
       d="m 90.89,9.24 a 13.53,13.53 0 0 1 13.53,13.53 v 0 68.32 A 13.53,13.53 0 0 1 90.89,104.62 H 22.57 A 13.53,13.53 0 0 1 9,91.09 V 22.77 A 13.44,13.44 0 0 1 22.39,9.24"
       class="cls-12"
       inkscape:connector-curvature="0"
       style="fill:#3c517d" />
    <path
       id="path4214"
       transform="translate(-7.38,-7.58)"
       d="m 90.82,9.34 a 13.5,13.5 0 0 1 13.5,13.5 v 0 V 91 a 13.5,13.5 0 0 1 -13.5,13.5 H 22.64 A 13.5,13.5 0 0 1 9.14,91 V 22.84 A 13.41,13.41 0 0 1 22.46,9.34"
       class="cls-12"
       inkscape:connector-curvature="0"
       style="fill:#3c517d" />
    <path
       id="path4216"
       transform="translate(-7.38,-7.58)"
       d="m 90.75,9.44 a 13.47,13.47 0 0 1 13.47,13.47 v 0 V 91 a 13.47,13.47 0 0 1 -13.47,13.47 h -68 A 13.47,13.47 0 0 1 9.23,91 V 23 A 13.39,13.39 0 0 1 22.53,9.44"
       class="cls-13"
       inkscape:connector-curvature="0"
       style="fill:#3d527d" />
    <path
       id="path4218"
       transform="translate(-7.38,-7.58)"
       d="M 90.68,9.54 A 13.45,13.45 0 0 1 104.12,23 v 0 67.9 A 13.45,13.45 0 0 1 90.67,104.35 H 22.78 A 13.45,13.45 0 0 1 9.33,90.88 V 23 A 13.36,13.36 0 0 1 22.6,9.54"
       class="cls-14"
       inkscape:connector-curvature="0"
       style="fill:#3d527e" />
    <path
       id="path4220"
       transform="translate(-7.38,-7.58)"
       d="M 90.61,9.63 A 13.42,13.42 0 0 1 104,23.05 v 0 67.76 A 13.42,13.42 0 0 1 90.58,104.23 H 22.85 A 13.42,13.42 0 0 1 9.43,90.81 V 23.05 A 13.33,13.33 0 0 1 22.67,9.63"
       class="cls-14"
       inkscape:connector-curvature="0"
       style="fill:#3d527e" />
    <path
       id="path4222"
       transform="translate(-7.38,-7.58)"
       d="m 90.54,9.73 a 13.39,13.39 0 0 1 13.39,13.39 v 0 67.62 A 13.39,13.39 0 0 1 90.54,104.13 H 22.92 A 13.39,13.39 0 0 1 9.53,90.74 V 23.12 A 13.3,13.3 0 0 1 22.74,9.73"
       class="cls-14"
       inkscape:connector-curvature="0"
       style="fill:#3d527e" />
    <path
       id="path4224"
       transform="translate(-7.38,-7.58)"
       d="m 90.47,9.83 a 13.36,13.36 0 0 1 13.36,13.36 v 0 67.48 A 13.36,13.36 0 0 1 90.47,104 H 23 A 13.36,13.36 0 0 1 9.62,90.67 V 23.19 A 13.28,13.28 0 0 1 22.81,9.83"
       class="cls-15"
       inkscape:connector-curvature="0"
       style="fill:#3d537f" />
    <path
       id="path4226"
       transform="translate(-7.38,-7.58)"
       d="m 90.4,9.93 a 13.33,13.33 0 0 1 13.33,13.33 v 0 67.34 A 13.33,13.33 0 0 1 90.4,103.94 H 23.06 A 13.33,13.33 0 0 1 9.72,90.6 V 23.26 A 13.25,13.25 0 0 1 22.88,9.93"
       class="cls-16"
       inkscape:connector-curvature="0"
       style="fill:#3e537f" />
    <path
       id="path4228"
       transform="translate(-7.38,-7.58)"
       d="m 90.33,10 a 13.31,13.31 0 0 1 13.31,13.31 v 0 67.2 A 13.31,13.31 0 0 1 90.33,103.82 H 23.13 A 13.31,13.31 0 0 1 9.82,90.53 V 23.33 A 13.22,13.22 0 0 1 23,10"
       class="cls-17"
       inkscape:connector-curvature="0"
       style="fill:#3e5380" />
    <path
       id="path4230"
       transform="translate(-7.38,-7.58)"
       d="m 90.26,10.12 a 13.28,13.28 0 0 1 13.27,13.28 v 0 67.06 A 13.28,13.28 0 0 1 90.25,103.74 H 23.2 A 13.28,13.28 0 0 1 9.92,90.46 V 23.4 A 13.19,13.19 0 0 1 23,10.12"
       class="cls-17"
       inkscape:connector-curvature="0"
       style="fill:#3e5380" />
    <path
       id="path4232"
       transform="translate(-7.38,-7.58)"
       d="m 90.19,10.22 a 13.25,13.25 0 0 1 13.25,13.25 v 0 66.92 A 13.25,13.25 0 0 1 90.19,103.64 H 23.27 A 13.25,13.25 0 0 1 10,90.39 V 23.47 A 13.17,13.17 0 0 1 23.1,10.22"
       class="cls-18"
       inkscape:connector-curvature="0"
       style="fill:#3e5480" />
    <path
       id="path4234"
       transform="translate(-7.38,-7.58)"
       d="m 90.12,10.32 a 13.22,13.22 0 0 1 13.22,13.22 v 0 66.78 A 13.22,13.22 0 0 1 90.12,103.54 H 23.34 A 13.22,13.22 0 0 1 10.11,90.32 V 23.54 A 13.14,13.14 0 0 1 23.17,10.32"
       class="cls-19"
       inkscape:connector-curvature="0"
       style="fill:#3e5481" />
    <path
       id="path4236"
       transform="translate(-7.38,-7.58)"
       d="m 90,10.42 a 13.2,13.2 0 0 1 13.2,13.2 v 0 66.63 A 13.2,13.2 0 0 1 90,103.45 H 23.41 A 13.2,13.2 0 0 1 10.21,90.25 V 23.61 a 13.11,13.11 0 0 1 13,-13.2"
       class="cls-19"
       inkscape:connector-curvature="0"
       style="fill:#3e5481" />
    <path
       id="path4238"
       transform="translate(-7.38,-7.58)"
       d="m 90,10.51 a 13.17,13.17 0 0 1 13.17,13.17 v 0 66.5 A 13.17,13.17 0 0 1 90,103.35 H 23.48 A 13.17,13.17 0 0 1 10.31,90.18 v -66.5 a 13.08,13.08 0 0 1 13,-13.17"
       class="cls-20"
       inkscape:connector-curvature="0"
       style="fill:#3f5482" />
    <path
       id="path4240"
       transform="translate(-7.38,-7.58)"
       d="M 89.91,10.61 A 13.14,13.14 0 0 1 103,23.75 v 0 66.36 A 13.14,13.14 0 0 1 89.86,103.25 H 23.55 A 13.14,13.14 0 0 1 10.41,90.11 V 23.75 a 13.06,13.06 0 0 1 13,-13.14"
       class="cls-21"
       inkscape:connector-curvature="0"
       style="fill:#3f5582" />
    <path
       id="path4242"
       transform="translate(-7.38,-7.58)"
       d="m 89.84,10.71 a 13.11,13.11 0 0 1 13.11,13.11 v 0 V 90 A 13.11,13.11 0 0 1 89.84,103.11 H 23.62 A 13.11,13.11 0 0 1 10.5,90 V 23.82 A 13,13 0 0 1 23.45,10.71"
       class="cls-21"
       inkscape:connector-curvature="0"
       style="fill:#3f5582" />
    <path
       id="path4244"
       transform="translate(-7.38,-7.58)"
       d="m 89.77,10.81 a 13.09,13.09 0 0 1 13.09,13.09 v 0 V 90 A 13.09,13.09 0 0 1 89.77,103.09 H 23.69 A 13.09,13.09 0 0 1 10.6,90 V 23.89 A 13,13 0 0 1 23.52,10.81"
       class="cls-22"
       inkscape:connector-curvature="0"
       style="fill:#3f5583" />
    <path
       id="path4246"
       transform="translate(-7.38,-7.58)"
       d="M 89.7,10.9 A 13.06,13.06 0 0 1 102.75,24 v 0 65.9 A 13.06,13.06 0 0 1 89.7,103 H 23.76 A 13.06,13.06 0 0 1 10.7,89.9 V 24 A 13,13 0 0 1 23.59,10.9"
       class="cls-22"
       inkscape:connector-curvature="0"
       style="fill:#3f5583" />
    <path
       id="path4248"
       transform="translate(-7.38,-7.58)"
       d="m 89.63,11 a 13,13 0 0 1 13,13 v 0 65.8 a 13,13 0 0 1 -13,13 h -65.8 a 13,13 0 0 1 -13,-13 V 24 A 13,13 0 0 1 23.66,11"
       class="cls-23"
       inkscape:connector-curvature="0"
       style="fill:#405684" />
    <path
       id="path4250"
       transform="translate(-7.38,-7.58)"
       d="m 89.56,11.1 a 13,13 0 0 1 13,13 v 0 65.66 a 13,13 0 0 1 -13,13 H 23.9 a 13,13 0 0 1 -13,-13 V 24.1 a 12.92,12.92 0 0 1 12.83,-13"
       class="cls-23"
       inkscape:connector-curvature="0"
       style="fill:#405684" />
    <path
       id="path4252"
       transform="translate(-7.38,-7.58)"
       d="m 89.49,11.2 a 13,13 0 0 1 13,13 v 0 65.49 a 13,13 0 0 1 -13,13 H 24 a 13,13 0 0 1 -13,-13 V 24.17 a 12.89,12.89 0 0 1 12.81,-13"
       class="cls-23"
       inkscape:connector-curvature="0"
       style="fill:#405684" />
    <path
       id="path4254"
       transform="translate(-7.38,-7.58)"
       d="m 89.42,11.3 a 13,13 0 0 1 12.95,12.95 v 0 65.37 A 13,13 0 0 1 89.42,102.57 H 24 A 13,13 0 0 1 11.09,89.62 V 24.24 A 12.86,12.86 0 0 1 23.87,11.3"
       class="cls-24"
       inkscape:connector-curvature="0"
       style="fill:#405685" />
    <path
       id="path4256"
       transform="translate(-7.38,-7.58)"
       d="m 89.35,11.39 a 12.92,12.92 0 0 1 12.92,12.92 v 0 65.24 A 12.92,12.92 0 0 1 89.35,102.47 H 24.11 A 12.92,12.92 0 0 1 11.19,89.55 V 24.31 A 12.84,12.84 0 0 1 23.94,11.39"
       class="cls-25"
       inkscape:connector-curvature="0"
       style="fill:#405785" />
    <path
       id="path4258"
       transform="translate(-7.38,-7.58)"
       d="m 89.28,11.49 a 12.89,12.89 0 0 1 12.89,12.89 v 0 65.1 A 12.89,12.89 0 0 1 89.28,102.37 H 24.18 A 12.89,12.89 0 0 1 11.28,89.48 V 24.38 A 12.81,12.81 0 0 1 24,11.49"
       class="cls-26"
       inkscape:connector-curvature="0"
       style="fill:#415785" />
    <path
       id="path4260"
       transform="translate(-7.38,-7.58)"
       d="m 89.21,11.59 a 12.86,12.86 0 0 1 12.86,12.86 v 0 65 a 12.86,12.86 0 0 1 -12.86,12.86 h -65 A 12.86,12.86 0 0 1 11.38,89.41 v -65 a 12.78,12.78 0 0 1 12.7,-12.86"
       class="cls-27"
       inkscape:connector-curvature="0"
       style="fill:#415786" />
    <path
       id="path4262"
       transform="translate(-7.38,-7.58)"
       d="M 89.14,11.69 A 12.84,12.84 0 0 1 102,24.52 v 0 64.82 A 12.84,12.84 0 0 1 89.16,102.18 H 24.32 A 12.84,12.84 0 0 1 11.48,89.34 V 24.52 A 12.75,12.75 0 0 1 24.15,11.69"
       class="cls-27"
       inkscape:connector-curvature="0"
       style="fill:#415786" />
    <path
       id="path4264"
       transform="translate(-7.38,-7.58)"
       d="m 89.07,11.78 a 12.81,12.81 0 0 1 12.81,12.81 v 0 64.68 A 12.81,12.81 0 0 1 89.07,102.08 H 24.39 A 12.81,12.81 0 0 1 11.58,89.27 V 24.59 A 12.73,12.73 0 0 1 24.22,11.78"
       class="cls-28"
       inkscape:connector-curvature="0"
       style="fill:#415887" />
    <path
       id="path4266"
       transform="translate(-7.38,-7.58)"
       d="m 89,11.88 a 12.78,12.78 0 0 1 12.78,12.78 v 0 64.54 A 12.78,12.78 0 0 1 89,102 H 24.46 A 12.78,12.78 0 0 1 11.68,89.2 V 24.66 A 12.7,12.7 0 0 1 24.29,11.88"
       class="cls-28"
       inkscape:connector-curvature="0"
       style="fill:#415887" />
    <path
       id="path4268"
       transform="translate(-7.38,-7.58)"
       d="m 88.93,12 a 12.75,12.75 0 0 1 12.75,12.75 v 0 64.4 A 12.75,12.75 0 0 1 88.93,101.9 H 24.53 A 12.75,12.75 0 0 1 11.77,89.13 V 24.73 A 12.67,12.67 0 0 1 24.36,12"
       class="cls-28"
       inkscape:connector-curvature="0"
       style="fill:#415887" />
    <path
       id="path4270"
       transform="translate(-7.38,-7.58)"
       d="m 88.86,12.08 a 12.72,12.72 0 0 1 12.72,12.72 v 0 64.26 A 12.72,12.72 0 0 1 88.86,101.78 H 24.6 A 12.72,12.72 0 0 1 11.87,89.06 V 24.8 A 12.64,12.64 0 0 1 24.43,12.08"
       class="cls-29"
       inkscape:connector-curvature="0"
       style="fill:#425888" />
    <path
       id="path4272"
       transform="translate(-7.38,-7.58)"
       d="m 88.79,12.17 a 12.7,12.7 0 0 1 12.7,12.7 v 0 V 89 a 12.7,12.7 0 0 1 -12.7,12.7 H 24.67 A 12.7,12.7 0 0 1 12,89 V 24.87 a 12.62,12.62 0 0 1 12.5,-12.7"
       class="cls-30"
       inkscape:connector-curvature="0"
       style="fill:#425988" />
    <path
       id="path4274"
       transform="translate(-7.38,-7.58)"
       d="m 88.72,12.27 a 12.67,12.67 0 0 1 12.67,12.67 v 0 64 a 12.67,12.67 0 0 1 -12.67,12.67 h -64 A 12.67,12.67 0 0 1 12.07,88.92 v -64 a 12.59,12.59 0 0 1 12.5,-12.65"
       class="cls-31"
       inkscape:connector-curvature="0"
       style="fill:#425989" />
    <path
       id="path4276"
       transform="translate(-7.38,-7.58)"
       d="M 88.65,12.37 A 12.64,12.64 0 0 1 101.29,25 v 0 63.85 A 12.64,12.64 0 0 1 88.65,101.49 H 24.81 A 12.64,12.64 0 0 1 12.16,88.85 V 25 A 12.56,12.56 0 0 1 24.64,12.37"
       class="cls-31"
       inkscape:connector-curvature="0"
       style="fill:#425989" />
    <path
       id="path4278"
       transform="translate(-7.38,-7.58)"
       d="m 88.58,12.47 a 12.61,12.61 0 0 1 12.61,12.61 v 0 63.7 A 12.61,12.61 0 0 1 88.58,101.4 H 24.88 A 12.61,12.61 0 0 1 12.26,88.78 V 25.08 A 12.53,12.53 0 0 1 24.71,12.47"
       class="cls-31"
       inkscape:connector-curvature="0"
       style="fill:#425989" />
    <path
       id="path4280"
       transform="translate(-7.38,-7.58)"
       d="m 88.51,12.57 a 12.59,12.59 0 0 1 12.59,12.59 v 0 63.55 A 12.59,12.59 0 0 1 88.51,101.3 H 24.95 A 12.59,12.59 0 0 1 12.36,88.71 V 25.15 A 12.51,12.51 0 0 1 24.78,12.57"
       class="cls-32"
       inkscape:connector-curvature="0"
       style="fill:#435a8a" />
    <path
       id="path4282"
       transform="translate(-7.38,-7.58)"
       d="M 88.44,12.66 A 12.56,12.56 0 0 1 101,25.22 v 0 63.42 A 12.56,12.56 0 0 1 88.44,101.2 H 25 A 12.56,12.56 0 0 1 12.46,88.64 V 25.22 a 12.48,12.48 0 0 1 12.4,-12.56"
       class="cls-32"
       inkscape:connector-curvature="0"
       style="fill:#435a8a" />
    <path
       id="path4284"
       transform="translate(-7.38,-7.58)"
       d="m 88.37,12.76 a 12.53,12.53 0 0 1 12.53,12.53 v 0 63.28 A 12.53,12.53 0 0 1 88.37,101.1 H 25.09 A 12.53,12.53 0 0 1 12.56,88.57 V 25.29 A 12.45,12.45 0 0 1 24.92,12.76"
       class="cls-32"
       inkscape:connector-curvature="0"
       style="fill:#435a8a" />
    <path
       id="path4286"
       transform="translate(-7.38,-7.58)"
       d="m 88.3,12.86 a 12.5,12.5 0 0 1 12.5,12.5 v 0 63.14 A 12.5,12.5 0 0 1 88.3,101 H 25.16 A 12.5,12.5 0 0 1 12.66,88.5 V 25.36 A 12.42,12.42 0 0 1 25,12.86"
       class="cls-33"
       inkscape:connector-curvature="0"
       style="fill:#435a8b" />
    <path
       id="path4288"
       transform="translate(-7.38,-7.58)"
       d="m 88.23,13 a 12.48,12.48 0 0 1 12.47,12.43 v 0 63 a 12.48,12.48 0 0 1 -12.48,12.48 h -63 A 12.48,12.48 0 0 1 12.75,88.43 v -63 A 12.4,12.4 0 0 1 25.07,13"
       class="cls-34"
       inkscape:connector-curvature="0"
       style="fill:#435b8b" />
    <path
       id="path4290"
       transform="translate(-7.38,-7.58)"
       d="M 88.16,13.05 A 12.45,12.45 0 0 1 100.6,25.5 v 0 62.86 A 12.45,12.45 0 0 1 88.15,100.81 H 25.3 A 12.45,12.45 0 0 1 12.85,88.36 V 25.5 A 12.37,12.37 0 0 1 25.14,13.05"
       class="cls-35"
       inkscape:connector-curvature="0"
       style="fill:#445b8c" />
    <path
       id="path4292"
       transform="translate(-7.38,-7.58)"
       d="m 88.09,13.15 a 12.42,12.42 0 0 1 12.42,12.42 v 0 62.72 A 12.42,12.42 0 0 1 88.09,100.71 H 25.37 A 12.42,12.42 0 0 1 12.95,88.29 V 25.57 A 12.34,12.34 0 0 1 25.21,13.15"
       class="cls-35"
       inkscape:connector-curvature="0"
       style="fill:#445b8c" />
    <path
       id="path4294"
       transform="translate(-7.38,-7.58)"
       d="m 88,13.25 a 12.39,12.39 0 0 1 12.39,12.39 v 0 62.58 A 12.39,12.39 0 0 1 88,100.61 H 25.44 A 12.39,12.39 0 0 1 13,88.22 V 25.64 A 12.31,12.31 0 0 1 25.28,13.25"
       class="cls-35"
       inkscape:connector-curvature="0"
       style="fill:#445b8c" />
    <path
       id="path4296"
       transform="translate(-7.38,-7.58)"
       d="m 87.95,13.35 a 12.36,12.36 0 0 1 12.36,12.36 v 0 62.44 A 12.36,12.36 0 0 1 87.95,100.51 H 25.51 A 12.36,12.36 0 0 1 13.14,88.15 V 25.71 a 12.28,12.28 0 0 1 12.2,-12.36"
       class="cls-36"
       inkscape:connector-curvature="0"
       style="fill:#445c8d" />
    <path
       id="path4298"
       transform="translate(-7.38,-7.58)"
       d="m 87.88,13.45 a 12.34,12.34 0 0 1 12.34,12.34 v 0 62.3 A 12.34,12.34 0 0 1 87.88,100.43 H 25.58 A 12.34,12.34 0 0 1 13.24,88.08 V 25.78 A 12.26,12.26 0 0 1 25.42,13.45"
       class="cls-36"
       inkscape:connector-curvature="0"
       style="fill:#445c8d" />
    <path
       id="path4300"
       transform="translate(-7.38,-7.58)"
       d="m 87.81,13.54 a 12.31,12.31 0 0 1 12.31,12.31 v 0 V 88 A 12.31,12.31 0 0 1 87.81,100.31 H 25.65 A 12.31,12.31 0 0 1 13.34,88 V 25.85 A 12.23,12.23 0 0 1 25.49,13.54"
       class="cls-37"
       inkscape:connector-curvature="0"
       style="fill:#445c8e" />
    <path
       id="path4302"
       transform="translate(-7.38,-7.58)"
       d="M 87.74,13.64 A 12.28,12.28 0 0 1 100,25.92 v 0 62 A 12.28,12.28 0 0 1 87.72,100.2 h -62 A 12.28,12.28 0 0 1 13.43,87.94 v -62 a 12.2,12.2 0 0 1 12.13,-12.3"
       class="cls-38"
       inkscape:connector-curvature="0"
       style="fill:#455c8e" />
    <path
       id="path4304"
       transform="translate(-7.38,-7.58)"
       d="M 87.67,13.74 A 12.25,12.25 0 0 1 99.92,26 v 0 61.87 A 12.25,12.25 0 0 1 87.67,100.12 H 25.79 A 12.25,12.25 0 0 1 13.53,87.87 V 26 a 12.17,12.17 0 0 1 12.1,-12.25"
       class="cls-39"
       inkscape:connector-curvature="0"
       style="fill:#455d8e" />
    <path
       id="path4306"
       transform="translate(-7.38,-7.58)"
       d="m 87.6,13.84 a 12.23,12.23 0 0 1 12.22,12.22 v 0 61.74 A 12.23,12.23 0 0 1 87.6,100 H 25.86 A 12.23,12.23 0 0 1 13.63,87.8 V 26.06 A 12.15,12.15 0 0 1 25.7,13.84"
       class="cls-40"
       inkscape:connector-curvature="0"
       style="fill:#455d8f" />
    <path
       id="path4308"
       transform="translate(-7.38,-7.58)"
       d="m 87.53,13.93 a 12.2,12.2 0 0 1 12.2,12.2 v 0 61.6 a 12.2,12.2 0 0 1 -12.2,12.2 h -61.6 a 12.2,12.2 0 0 1 -12.2,-12.2 v -61.6 a 12.12,12.12 0 0 1 12,-12.2"
       class="cls-40"
       inkscape:connector-curvature="0"
       style="fill:#455d8f" />
    <path
       id="path4310"
       transform="translate(-7.38,-7.58)"
       d="m 87.46,14 a 12.17,12.17 0 0 1 12.17,12.2 v 0 61.46 A 12.17,12.17 0 0 1 87.46,99.83 H 26 A 12.17,12.17 0 0 1 13.83,87.66 V 26.2 A 12.09,12.09 0 0 1 25.84,14"
       class="cls-40"
       inkscape:connector-curvature="0"
       style="fill:#455d8f" />
    <path
       id="path4312"
       transform="translate(-7.38,-7.58)"
       d="m 87.39,14.13 a 12.14,12.14 0 0 1 12.14,12.14 v 0 61.32 A 12.14,12.14 0 0 1 87.39,99.73 H 26.07 A 12.14,12.14 0 0 1 13.92,87.59 V 26.27 a 12.06,12.06 0 0 1 12,-12.14"
       class="cls-41"
       inkscape:connector-curvature="0"
       style="fill:#465e90" />
    <path
       id="path4314"
       transform="translate(-7.38,-7.58)"
       d="m 87.32,14.23 a 12.11,12.11 0 0 1 12.11,12.11 v 0 61.18 A 12.11,12.11 0 0 1 87.32,99.64 H 26.14 A 12.11,12.11 0 0 1 14,87.52 V 26.34 A 12,12 0 0 1 26,14.23"
       class="cls-41"
       inkscape:connector-curvature="0"
       style="fill:#465e90" />
    <path
       id="path4316"
       transform="translate(-7.38,-7.58)"
       d="m 87.25,14.32 a 12.09,12.09 0 0 1 12.08,12.09 v 0 61 A 12.09,12.09 0 0 1 87.25,99.54 h -61 A 12.09,12.09 0 0 1 14.12,87.45 v -61 A 12,12 0 0 1 26.05,14.32"
       class="cls-42"
       inkscape:connector-curvature="0"
       style="fill:#465e91" />
    <path
       id="path4318"
       transform="translate(-7.38,-7.58)"
       d="m 87.18,14.42 a 12.06,12.06 0 0 1 12.06,12.06 v 0 60.9 A 12.06,12.06 0 0 1 87.18,99.44 H 26.28 A 12.06,12.06 0 0 1 14.22,87.38 v -60.9 a 12,12 0 0 1 11.9,-12.06"
       class="cls-42"
       inkscape:connector-curvature="0"
       style="fill:#465e91" />
    <path
       id="path4320"
       transform="translate(-7.38,-7.58)"
       d="m 87.11,14.52 a 12,12 0 0 1 12,12 v 0 60.79 a 12,12 0 0 1 -12,12 H 26.35 a 12,12 0 0 1 -12,-12 V 26.55 a 12,12 0 0 1 11.88,-12"
       class="cls-43"
       inkscape:connector-curvature="0"
       style="fill:#465f91" />
    <path
       id="path4322"
       transform="translate(-7.38,-7.58)"
       d="m 87,14.62 a 12,12 0 0 1 12,12 v 0 60.62 a 12,12 0 0 1 -12,12 H 26.42 a 12,12 0 0 1 -12,-12 V 26.62 a 11.93,11.93 0 0 1 11.85,-12"
       class="cls-44"
       inkscape:connector-curvature="0"
       style="fill:#475f92" />
    <path
       id="path4324"
       transform="translate(-7.38,-7.58)"
       d="m 87,14.72 a 12,12 0 0 1 12,12 v 0 60.45 a 12,12 0 0 1 -12,12 H 26.49 a 12,12 0 0 1 -12,-12 V 26.69 a 11.9,11.9 0 0 1 11.82,-12"
       class="cls-44"
       inkscape:connector-curvature="0"
       style="fill:#475f92" />
    <path
       id="path4326"
       transform="translate(-7.38,-7.58)"
       d="m 86.9,14.81 a 12,12 0 0 1 11.94,11.95 v 0 60.34 A 12,12 0 0 1 86.9,99.05 H 26.56 A 12,12 0 0 1 14.61,87.1 V 26.76 A 11.87,11.87 0 0 1 26.4,14.81"
       class="cls-45"
       inkscape:connector-curvature="0"
       style="fill:#475f93" />
    <path
       id="path4328"
       transform="translate(-7.38,-7.58)"
       d="m 86.83,14.91 a 11.92,11.92 0 0 1 11.92,11.92 v 0 V 87 A 11.92,11.92 0 0 1 86.83,99 H 26.63 A 11.92,11.92 0 0 1 14.71,87 V 26.83 A 11.84,11.84 0 0 1 26.47,14.91"
       class="cls-46"
       inkscape:connector-curvature="0"
       style="fill:#476093" />
    <path
       id="path4330"
       transform="translate(-7.38,-7.58)"
       d="m 86.76,15 a 11.89,11.89 0 0 1 11.89,11.9 v 0 V 87 A 11.89,11.89 0 0 1 86.76,98.85 H 26.7 A 11.89,11.89 0 0 1 14.8,87 V 26.9 A 11.82,11.82 0 0 1 26.54,15"
       class="cls-46"
       inkscape:connector-curvature="0"
       style="fill:#476093" />
    <path
       id="path4332"
       transform="translate(-7.38,-7.58)"
       d="M 86.69,15.11 A 11.87,11.87 0 0 1 98.55,27 v 0 59.89 A 11.87,11.87 0 0 1 86.69,98.76 H 26.77 A 11.87,11.87 0 0 1 14.9,86.89 V 27 A 11.79,11.79 0 0 1 26.61,15.11"
       class="cls-47"
       inkscape:connector-curvature="0"
       style="fill:#476094" />
    <path
       id="path4334"
       transform="translate(-7.38,-7.58)"
       d="M 86.62,15.2 A 11.84,11.84 0 0 1 98.45,27 v 0 59.82 A 11.84,11.84 0 0 1 86.62,98.66 H 26.84 A 11.84,11.84 0 0 1 15,86.82 V 27 A 11.76,11.76 0 0 1 26.68,15.2"
       class="cls-48"
       inkscape:connector-curvature="0"
       style="fill:#486094" />
    <path
       id="path4336"
       transform="translate(-7.38,-7.58)"
       d="m 86.55,15.3 a 11.81,11.81 0 0 1 11.81,11.81 v 0 59.64 A 11.81,11.81 0 0 1 86.55,98.56 H 26.91 A 11.81,11.81 0 0 1 15.1,86.75 V 27.11 A 11.73,11.73 0 0 1 26.75,15.3"
       class="cls-49"
       inkscape:connector-curvature="0"
       style="fill:#486195" />
    <path
       id="path4338"
       transform="translate(-7.38,-7.58)"
       d="m 86.48,15.4 a 11.78,11.78 0 0 1 11.78,11.78 v 0 59.5 A 11.78,11.78 0 0 1 86.48,98.46 H 27 A 11.78,11.78 0 0 1 15.19,86.68 V 27.18 A 11.71,11.71 0 0 1 26.82,15.4"
       class="cls-49"
       inkscape:connector-curvature="0"
       style="fill:#486195" />
    <path
       id="path4340"
       transform="translate(-7.38,-7.58)"
       d="m 86.41,15.5 a 11.75,11.75 0 0 1 11.75,11.75 v 0 59.36 A 11.75,11.75 0 0 1 86.41,98.37 H 27 A 11.75,11.75 0 0 1 15.29,86.61 V 27.25 A 11.68,11.68 0 0 1 26.89,15.5"
       class="cls-49"
       inkscape:connector-curvature="0"
       style="fill:#486195" />
    <path
       id="path4342"
       transform="translate(-7.38,-7.58)"
       d="m 86.34,15.6 a 11.73,11.73 0 0 1 11.72,11.72 v 0 59.22 A 11.73,11.73 0 0 1 86.34,98.27 H 27.12 A 11.73,11.73 0 0 1 15.39,86.54 V 27.32 A 11.65,11.65 0 0 1 27,15.6"
       class="cls-50"
       inkscape:connector-curvature="0"
       style="fill:#486196" />
    <path
       id="path4344"
       transform="translate(-7.38,-7.58)"
       d="M 86.27,15.69 A 11.7,11.7 0 0 1 98,27.39 v 0 59.08 A 11.7,11.7 0 0 1 86.3,98.17 H 27.19 A 11.7,11.7 0 0 1 15.49,86.47 V 27.39 A 11.62,11.62 0 0 1 27,15.69"
       class="cls-51"
       inkscape:connector-curvature="0"
       style="fill:#496296" />
    <path
       id="path4346"
       transform="translate(-7.38,-7.58)"
       d="m 86.2,15.79 a 11.67,11.67 0 0 1 11.67,11.67 v 0 58.94 A 11.67,11.67 0 0 1 86.2,98.07 H 27.26 A 11.67,11.67 0 0 1 15.58,86.4 V 27.46 A 11.6,11.6 0 0 1 27.11,15.79"
       class="cls-51"
       inkscape:connector-curvature="0"
       style="fill:#496296" />
    <path
       id="path4348"
       transform="translate(-7.38,-7.58)"
       d="m 86.13,15.89 a 11.64,11.64 0 0 1 11.64,11.64 v 0 58.8 A 11.64,11.64 0 0 1 86.13,98 H 27.33 A 11.64,11.64 0 0 1 15.68,86.33 v -58.8 a 11.57,11.57 0 0 1 11.5,-11.64"
       class="cls-52"
       inkscape:connector-curvature="0"
       style="fill:#496297" />
    <path
       id="path4350"
       transform="translate(-7.38,-7.58)"
       d="m 86.06,16 a 11.62,11.62 0 0 1 11.61,11.6 v 0 58.66 A 11.62,11.62 0 0 1 86.06,97.88 H 27.4 A 11.62,11.62 0 0 1 15.78,86.26 V 27.6 A 11.54,11.54 0 0 1 27.25,16"
       class="cls-52"
       inkscape:connector-curvature="0"
       style="fill:#496297" />
    <path
       id="path4352"
       transform="translate(-7.38,-7.58)"
       d="m 86,16.08 a 11.59,11.59 0 0 1 11.57,11.59 v 0 58.52 A 11.59,11.59 0 0 1 86,97.78 H 27.47 A 11.59,11.59 0 0 1 15.88,86.19 V 27.67 A 11.51,11.51 0 0 1 27.32,16.08"
       class="cls-53"
       inkscape:connector-curvature="0"
       style="fill:#496398" />
    <path
       id="path4354"
       transform="translate(-7.38,-7.58)"
       d="m 85.92,16.18 a 11.56,11.56 0 0 1 11.56,11.56 v 0 58.38 A 11.56,11.56 0 0 1 85.92,97.68 H 27.54 A 11.56,11.56 0 0 1 16,86.12 V 27.74 A 11.49,11.49 0 0 1 27.39,16.18"
       class="cls-54"
       inkscape:connector-curvature="0"
       style="fill:#4a6398" />
    <path
       id="path4356"
       transform="translate(-7.38,-7.58)"
       d="m 85.85,16.28 a 11.53,11.53 0 0 1 11.53,11.53 v 0 58.24 A 11.53,11.53 0 0 1 85.85,97.58 H 27.61 A 11.53,11.53 0 0 1 16.07,86.05 V 27.81 A 11.46,11.46 0 0 1 27.46,16.28"
       class="cls-54"
       inkscape:connector-curvature="0"
       style="fill:#4a6398" />
    <path
       id="path4358"
       transform="translate(-7.38,-7.58)"
       d="m 85.78,16.38 a 11.5,11.5 0 0 1 11.5,11.5 v 0 V 86 A 11.5,11.5 0 0 1 85.78,97.5 H 27.68 A 11.5,11.5 0 0 1 16.17,86 V 27.88 a 11.43,11.43 0 0 1 11.36,-11.5"
       class="cls-55"
       inkscape:connector-curvature="0"
       style="fill:#4a6399" />
    <path
       id="path4360"
       transform="translate(-7.38,-7.58)"
       d="M 85.71,16.47 A 11.48,11.48 0 0 1 97.18,28 v 0 58 A 11.48,11.48 0 0 1 85.71,97.39 h -58 A 11.48,11.48 0 0 1 16.27,85.91 V 28 A 11.4,11.4 0 0 1 27.6,16.47"
       class="cls-56"
       inkscape:connector-curvature="0"
       style="fill:#4a6499" />
    <path
       id="path4362"
       transform="translate(-7.38,-7.58)"
       d="M 85.64,16.57 A 11.45,11.45 0 0 1 97.09,28 v 0 57.84 A 11.45,11.45 0 0 1 85.64,97.29 H 27.82 A 11.45,11.45 0 0 1 16.37,85.84 V 28 a 11.38,11.38 0 0 1 11.3,-11.45"
       class="cls-57"
       inkscape:connector-curvature="0"
       style="fill:#4a649a" />
    <path
       id="path4364"
       transform="translate(-7.38,-7.58)"
       d="M 85.57,16.67 A 11.42,11.42 0 0 1 97,28.09 v 0 57.68 A 11.42,11.42 0 0 1 85.57,97.19 H 27.89 A 11.42,11.42 0 0 1 16.46,85.77 V 28.09 A 11.35,11.35 0 0 1 27.74,16.67"
       class="cls-57"
       inkscape:connector-curvature="0"
       style="fill:#4a649a" />
    <path
       id="path4366"
       transform="translate(-7.38,-7.58)"
       d="m 85.5,16.77 a 11.39,11.39 0 0 1 11.39,11.39 v 0 57.54 A 11.39,11.39 0 0 1 85.5,97.1 H 28 A 11.39,11.39 0 0 1 16.56,85.7 V 28.16 A 11.32,11.32 0 0 1 27.81,16.77"
       class="cls-58"
       inkscape:connector-curvature="0"
       style="fill:#4b649a" />
    <path
       id="path4368"
       transform="translate(-7.38,-7.58)"
       d="m 85.43,16.87 a 11.37,11.37 0 0 1 11.36,11.36 v 0 57.4 A 11.37,11.37 0 0 1 85.43,97 H 28 A 11.37,11.37 0 0 1 16.66,85.63 V 28.23 A 11.29,11.29 0 0 1 27.88,16.87"
       class="cls-59"
       inkscape:connector-curvature="0"
       style="fill:#4b659b" />
    <path
       id="path4370"
       transform="translate(-7.38,-7.58)"
       d="m 85.36,17 a 11.34,11.34 0 0 1 11.33,11.3 v 0 57.26 A 11.34,11.34 0 0 1 85.36,96.9 H 28.1 A 11.34,11.34 0 0 1 16.76,85.56 V 28.3 A 11.27,11.27 0 0 1 27.95,17"
       class="cls-59"
       inkscape:connector-curvature="0"
       style="fill:#4b659b" />
    <path
       id="path4372"
       transform="translate(-7.38,-7.58)"
       d="M 85.29,17.06 A 11.31,11.31 0 0 1 96.6,28.37 v 0 57.12 A 11.31,11.31 0 0 1 85.29,96.8 H 28.17 A 11.31,11.31 0 0 1 16.85,85.49 V 28.37 A 11.24,11.24 0 0 1 28,17.06"
       class="cls-59"
       inkscape:connector-curvature="0"
       style="fill:#4b659b" />
    <path
       id="path4374"
       transform="translate(-7.38,-7.58)"
       d="M 85.22,17.16 A 11.28,11.28 0 0 1 96.5,28.44 v 0 57 A 11.28,11.28 0 0 1 85.22,96.71 h -57 A 11.28,11.28 0 0 1 17,85.42 v -57 A 11.21,11.21 0 0 1 28.09,17.16"
       class="cls-60"
       inkscape:connector-curvature="0"
       style="fill:#4b659c" />
    <path
       id="path4376"
       transform="translate(-7.38,-7.58)"
       d="M 85.15,17.26 A 11.26,11.26 0 0 1 96.4,28.51 v 0 56.84 A 11.26,11.26 0 0 1 85.15,96.61 H 28.31 A 11.26,11.26 0 0 1 17.05,85.35 V 28.51 A 11.18,11.18 0 0 1 28.16,17.26"
       class="cls-61"
       inkscape:connector-curvature="0"
       style="fill:#4c669c" />
    <path
       id="path4378"
       transform="translate(-7.38,-7.58)"
       d="M 85.08,17.35 A 11.23,11.23 0 0 1 96.3,28.58 v 0 56.7 A 11.23,11.23 0 0 1 85.08,96.51 H 28.38 A 11.23,11.23 0 0 1 17.15,85.28 V 28.58 A 11.16,11.16 0 0 1 28.23,17.35"
       class="cls-62"
       inkscape:connector-curvature="0"
       style="fill:#4c669d" />
    <path
       id="path4380"
       transform="translate(-7.38,-7.58)"
       d="m 85,17.45 a 11.2,11.2 0 0 1 11.2,11.2 v 0 56.56 A 11.2,11.2 0 0 1 85,96.41 H 28.45 A 11.2,11.2 0 0 1 17.25,85.21 V 28.65 A 11.13,11.13 0 0 1 28.3,17.45"
       class="cls-62"
       inkscape:connector-curvature="0"
       style="fill:#4c669d" />
    <path
       id="path4382"
       transform="translate(-7.38,-7.58)"
       d="m 85,17.51 a 11.18,11.18 0 0 1 11.15,11.18 v 0 56.48 A 11.18,11.18 0 0 1 85,96.35 H 28.61 A 11.19,11.19 0 0 1 17.4,85.26 c -0.05,0 -0.09,-14.08 -0.09,-14.13 v -42.4 a 11.25,11.25 0 0 1 0.43,-3.17 11.11,11.11 0 0 1 10.61,-8 h 0.47"
       class="cls-62"
       inkscape:connector-curvature="0"
       style="fill:#4c669d" />
    <path
       id="path4384"
       transform="translate(-7.38,-7.58)"
       d="m 84.92,17.57 a 11.17,11.17 0 0 1 11.17,11.17 v 0 56.38 A 11.16,11.16 0 0 1 85,96.28 H 28.77 a 11.18,11.18 0 0 1 -11.22,-11 c -0.1,0 -0.19,-14 -0.19,-14.08 V 28.8 a 11.38,11.38 0 0 1 0.43,-3.17 11.09,11.09 0 0 1 10.6,-8.06 h 0.95"
       class="cls-63"
       inkscape:connector-curvature="0"
       style="fill:#4d679d" />
    <path
       id="path4386"
       transform="translate(-7.38,-7.58)"
       d="M 84.88,17.63 A 11.15,11.15 0 0 1 96,28.78 v 0 56.3 A 11.14,11.14 0 0 1 85,96.21 H 29 A 11.18,11.18 0 0 1 17.71,85.36 c -0.16,0 -0.28,-13.88 -0.28,-14 V 28.88 a 11.5,11.5 0 0 1 0.42,-3.17 11.07,11.07 0 0 1 10.59,-8.07 h 1.42"
       class="cls-64"
       inkscape:connector-curvature="0"
       style="fill:#4d679e" />
    <path
       id="path4388"
       transform="translate(-7.38,-7.58)"
       d="M 84.83,17.69 A 11.14,11.14 0 0 1 96,28.82 v 0 V 85 A 11.11,11.11 0 0 1 85,96.12 c 0,0 -4.08,0 -4.12,0 H 29.09 c -5.94,0 -11.23,-4.82 -11.23,-10.76 -0.21,0 -0.37,-13.78 -0.38,-14 V 29 a 11.63,11.63 0 0 1 0.42,-3.18 11,11 0 0 1 10.57,-8.09 h 1.89"
       class="cls-64"
       inkscape:connector-curvature="0"
       style="fill:#4d679e" />
    <path
       id="path4390"
       transform="translate(-7.38,-7.58)"
       d="M 84.79,17.74 A 11.12,11.12 0 0 1 95.9,28.86 v 0 V 85 a 11.09,11.09 0 0 1 -11,11.09 c 0,0 -4.06,0 -4.11,0 H 29.26 C 23.38,96.1 18,91.34 18,85.46 17.74,85.46 17.53,71.78 17.53,71.52 V 29 A 11.76,11.76 0 0 1 18,25.85 11,11 0 0 1 28.56,17.75 h 2.37"
       class="cls-65"
       inkscape:connector-curvature="0"
       style="fill:#4e689e" />
    <path
       id="path4392"
       transform="translate(-7.38,-7.58)"
       d="m 84.75,17.8 a 11.1,11.1 0 0 1 11.1,11.1 v 0 56 A 11.07,11.07 0 0 1 84.91,96 c -0.05,0 -4,0 -4.09,0 H 29.42 C 23.6,96 18.17,91.28 18.17,85.47 c -0.31,0 -0.56,-13.58 -0.56,-13.9 V 29.1 A 11.9,11.9 0 0 1 18,25.92 11,11 0 0 1 28.57,17.8 h 2.84"
       class="cls-65"
       inkscape:connector-curvature="0"
       style="fill:#4e689e" />
    <path
       id="path4394"
       transform="translate(-7.38,-7.58)"
       d="m 84.7,17.86 a 11.09,11.09 0 0 1 11.08,11.08 v 0 56 A 11.05,11.05 0 0 1 84.9,95.95 c -0.06,0 -4,0 -4.08,0 H 29.58 c -5.76,0 -11.25,-4.67 -11.25,-10.42 -0.36,0 -0.66,-13.49 -0.66,-13.85 V 29.18 A 12,12 0 0 1 18.07,26 11,11 0 0 1 28.61,17.87 h 3.31"
       class="cls-65"
       inkscape:connector-curvature="0"
       style="fill:#4e689e" />
    <path
       id="path4396"
       transform="translate(-7.38,-7.58)"
       d="M 84.66,17.92 A 11.07,11.07 0 0 1 95.72,29 v 0 55.85 a 11,11 0 0 1 -10.84,11 c -0.07,0 -4,0 -4.07,0 H 29.74 c -5.7,0 -11.26,-4.62 -11.26,-10.31 -0.41,0 -0.75,-13.39 -0.75,-13.8 V 29.25 a 12.18,12.18 0 0 1 0.4,-3.18 11,11 0 0 1 10.53,-8.15 h 3.79"
       class="cls-66"
       inkscape:connector-curvature="0"
       style="fill:#4f689f" />
    <path
       id="path4398"
       transform="translate(-7.38,-7.58)"
       d="m 84.62,18 a 11.05,11.05 0 0 1 11,11 v 0 55.81 a 11,11 0 0 1 -10.8,11 c -0.08,0 -4,0 -4.05,0 H 29.9 c -5.63,0 -11.27,-4.57 -11.27,-10.2 -0.47,0 -0.84,-13.29 -0.85,-13.76 V 29.33 A 12.32,12.32 0 0 1 18.18,26.14 10.94,10.94 0 0 1 28.7,18 H 33"
       class="cls-67"
       inkscape:connector-curvature="0"
       style="fill:#4f699f" />
    <path
       id="path4400"
       transform="translate(-7.38,-7.58)"
       d="m 84.57,18 a 11,11 0 0 1 11,11 v 0 55.76 a 11,11 0 0 1 -10.75,11 c -0.09,0 -3.94,0 -4,0 H 30.07 c -5.57,0 -11.28,-4.52 -11.28,-10.09 -0.52,0 -0.94,-13.19 -0.94,-13.71 V 29.4 A 12.47,12.47 0 0 1 18.24,26.21 10.92,10.92 0 0 1 28.75,18 h 4.73"
       class="cls-68"
       inkscape:connector-curvature="0"
       style="fill:#50699f" />
    <path
       id="path4402"
       transform="translate(-7.38,-7.58)"
       d="m 84.53,18.1 a 11,11 0 0 1 11,11 v 0 55.62 a 11,11 0 0 1 -10.71,11 c -0.1,0 -3.92,0 -4,0 H 30.23 c -5.51,0 -11.29,-4.47 -11.29,-10 -0.57,0 -1,-13.09 -1,-13.66 V 29.48 a 12.62,12.62 0 0 1 0.39,-3.19 10.9,10.9 0 0 1 10.5,-8.19 H 34"
       class="cls-68"
       inkscape:connector-curvature="0"
       style="fill:#50699f" />
    <path
       id="path4404"
       transform="translate(-7.38,-7.58)"
       d="m 84.49,18.15 a 11,11 0 0 1 11,11 v 0 55.52 A 11,11 0 0 1 84.82,95.62 c -0.11,0 -3.9,0.05 -4,0.05 H 30.39 c -5.45,0 -11.29,-4.42 -11.29,-9.87 -0.62,0 -1.12,-13 -1.13,-13.62 V 29.55 a 12.78,12.78 0 0 1 0.38,-3.19 10.87,10.87 0 0 1 10.49,-8.21 h 5.68"
       class="cls-69"
       inkscape:connector-curvature="0"
       style="fill:#506a9f" />
    <path
       id="path4406"
       transform="translate(-7.38,-7.58)"
       d="m 84.44,18.21 a 11,11 0 0 1 11,11 v 0 55.42 A 10.93,10.93 0 0 1 84.81,95.55 c -0.12,0 -3.87,0.06 -4,0.06 H 30.55 c -5.39,0 -11.3,-4.37 -11.3,-9.76 C 18.58,85.84 18,73 18,72.28 V 29.63 a 12.93,12.93 0 0 1 0.38,-3.19 10.85,10.85 0 0 1 10.48,-8.22 H 35"
       class="cls-70"
       inkscape:connector-curvature="0"
       style="fill:#516aa0" />
    <path
       id="path4408"
       transform="translate(-7.38,-7.58)"
       d="m 84.4,18.27 a 11,11 0 0 1 11,11 v 0 55.31 a 10.91,10.91 0 0 1 -10.57,10.9 c -0.12,0 -3.85,0.06 -4,0.06 H 30.71 c -5.33,0 -11.31,-4.32 -11.31,-9.65 -0.73,0 -1.31,-12.8 -1.32,-13.53 V 29.7 a 13.09,13.09 0 0 1 0.38,-3.19 10.83,10.83 0 0 1 10.46,-8.23 h 6.63"
       class="cls-70"
       inkscape:connector-curvature="0"
       style="fill:#516aa0" />
    <path
       id="path4410"
       transform="translate(-7.38,-7.58)"
       d="M 84.36,18.33 A 11,11 0 0 1 95.3,29.28 v 0 55.26 A 10.89,10.89 0 0 1 84.78,95.42 c -0.13,0 -3.83,0.07 -4,0.07 h -49.9 c -5.27,0 -11.32,-4.27 -11.32,-9.54 -0.78,0 -1.41,-12.7 -1.41,-13.48 V 29.78 A 13.26,13.26 0 0 1 18.52,26.58 10.81,10.81 0 0 1 29,18.33 h 7.1"
       class="cls-71"
       inkscape:connector-curvature="0"
       style="fill:#516ba0" />
    <path
       id="path4412"
       transform="translate(-7.38,-7.58)"
       d="m 84.31,18.39 a 10.94,10.94 0 0 1 10.93,10.93 v 0 55.17 A 10.87,10.87 0 0 1 84.76,95.35 c -0.14,0 -3.8,0.07 -4,0.07 H 31 c -5.21,0 -11.32,-4.22 -11.32,-9.43 -0.83,0 -1.5,-12.6 -1.5,-13.43 V 29.85 A 13.43,13.43 0 0 1 18.55,26.65 10.79,10.79 0 0 1 29,18.39 h 7.57"
       class="cls-72"
       inkscape:connector-curvature="0"
       style="fill:#526ba0" />
    <path
       id="path4414"
       transform="translate(-7.38,-7.58)"
       d="m 84.27,18.45 a 10.92,10.92 0 0 1 10.91,10.91 v 0 55.09 A 10.85,10.85 0 0 1 84.75,95.28 c -0.15,0 -3.78,0.07 -3.95,0.07 H 31.2 c -5.14,0 -11.33,-4.17 -11.33,-9.31 -0.88,0 -1.59,-12.51 -1.6,-13.39 V 29.92 a 13.6,13.6 0 0 1 0.36,-3.2 10.77,10.77 0 0 1 10.43,-8.28 h 8"
       class="cls-72"
       inkscape:connector-curvature="0"
       style="fill:#526ba0" />
    <path
       id="path4416"
       transform="translate(-7.38,-7.58)"
       d="m 84.23,18.5 a 10.91,10.91 0 0 1 10.9,10.9 v 0 55 A 10.82,10.82 0 0 1 84.73,95.22 C 84.57,95.27 80.97,95.3 80.8,95.3 H 31.36 C 26.28,95.3 20,91.18 20,86.09 19.07,86.09 18.31,73.68 18.31,72.75 V 30 a 13.78,13.78 0 0 1 0.36,-3.2 10.75,10.75 0 0 1 10.44,-8.3 h 8.52"
       class="cls-73"
       inkscape:connector-curvature="0"
       style="fill:#526ca1" />
    <path
       id="path4418"
       transform="translate(-7.38,-7.58)"
       d="m 84.18,18.56 a 10.89,10.89 0 0 1 10.88,10.88 v 0 54.92 a 10.8,10.8 0 0 1 -10.35,10.8 c -0.17,0.05 -3.73,0.08 -3.92,0.08 H 31.52 c -5,0 -11.35,-4.07 -11.35,-9.09 -1,0 -1.78,-12.31 -1.79,-13.29 V 30.07 a 14,14 0 0 1 0.35,-3.2 10.73,10.73 0 0 1 10.41,-8.31 h 9"
       class="cls-74"
       inkscape:connector-curvature="0"
       style="fill:#536ca1" />
    <path
       id="path4420"
       transform="translate(-7.38,-7.58)"
       d="M 84.14,18.62 A 10.88,10.88 0 0 1 95,29.49 v 0 54.82 A 10.78,10.78 0 0 1 84.7,95.09 c -0.18,0.06 -3.71,0.09 -3.91,0.09 h -49.1 c -5,0 -11.36,-4 -11.36,-9 -1,0 -1.87,-12.21 -1.88,-13.25 V 30.15 a 14.15,14.15 0 0 1 0.35,-3.21 10.71,10.71 0 0 1 10.4,-8.32 h 9.47"
       class="cls-74"
       inkscape:connector-curvature="0"
       style="fill:#536ca1" />
    <path
       id="path4422"
       transform="translate(-7.38,-7.58)"
       d="m 84.1,18.68 a 10.86,10.86 0 0 1 10.84,10.85 v 0 54.74 A 10.76,10.76 0 0 1 84.68,95 c -0.19,0.06 -3.69,0.09 -3.89,0.09 H 31.85 c -4.9,0 -11.36,-4 -11.36,-8.87 -1.09,0 -2,-12.11 -2,-13.2 V 30.22 A 14.34,14.34 0 0 1 18.86,27 10.69,10.69 0 0 1 29.25,18.66 h 9.94"
       class="cls-74"
       inkscape:connector-curvature="0"
       style="fill:#536ca1" />
    <path
       id="path4424"
       transform="translate(-7.38,-7.58)"
       d="m 84.05,18.74 a 10.84,10.84 0 0 1 10.83,10.83 v 0 54.65 A 10.74,10.74 0 0 1 84.67,95 C 84.48,95.06 81,95.1 80.79,95.1 H 32 c -4.84,0 -11.37,-3.92 -11.37,-8.76 -1.14,0 -2.06,-12 -2.07,-13.16 V 30.3 A 14.54,14.54 0 0 1 18.9,27.09 10.67,10.67 0 0 1 29.28,18.74 H 39.7"
       class="cls-75"
       inkscape:connector-curvature="0"
       style="fill:#546da1" />
    <path
       id="path4426"
       transform="translate(-7.38,-7.58)"
       d="m 84,18.8 a 10.83,10.83 0 0 1 10.82,10.81 v 0 54.57 A 10.72,10.72 0 0 1 84.65,94.89 c -0.2,0.06 -3.64,0.1 -3.87,0.1 H 32.17 c -4.78,0 -11.38,-3.87 -11.38,-8.65 -1.19,0 -2.16,-11.92 -2.16,-13.11 V 30.37 A 14.74,14.74 0 0 1 19,27.16 10.66,10.66 0 0 1 29.33,18.8 h 10.89"
       class="cls-76"
       inkscape:connector-curvature="0"
       style="fill:#546da2" />
    <path
       id="path4428"
       transform="translate(-7.38,-7.58)"
       d="m 84,18.86 a 10.81,10.81 0 0 1 10.8,10.8 v 0 54.47 A 10.71,10.71 0 0 1 84.64,94.82 c -0.21,0.07 -3.62,0.1 -3.85,0.11 H 32.33 c -4.72,0 -11.39,-3.82 -11.39,-8.54 -1.24,0 -2.25,-11.82 -2.26,-13.06 V 30.45 A 15,15 0 0 1 19,27.24 10.64,10.64 0 0 1 29.35,18.86 h 11.38"
       class="cls-77"
       inkscape:connector-curvature="0"
       style="fill:#556da2" />
    <path
       id="path4430"
       transform="translate(-7.38,-7.58)"
       d="M 83.92,18.91 A 10.79,10.79 0 0 1 94.7,29.69 v 0 54.4 A 10.69,10.69 0 0 1 84.62,94.75 c -0.22,0.07 -3.6,0.11 -3.84,0.11 H 32.5 c -4.65,0 -11.39,-3.77 -11.39,-8.43 -1.3,0 -2.34,-11.72 -2.35,-13 V 30.52 a 15.16,15.16 0 0 1 0.33,-3.21 10.62,10.62 0 0 1 10.34,-8.39 h 11.82"
       class="cls-78"
       inkscape:connector-curvature="0"
       style="fill:#556ea2" />
    <path
       id="path4432"
       transform="translate(-7.38,-7.58)"
       d="m 83.88,19 a 10.78,10.78 0 0 1 10.76,10.74 v 0 V 84 a 10.67,10.67 0 0 1 -10,10.65 c -0.23,0.07 -3.57,0.11 -3.83,0.11 H 32.66 c -4.59,0 -11.4,-3.72 -11.4,-8.32 -1.35,0 -2.44,-11.62 -2.45,-13 V 30.6 A 15.38,15.38 0 0 1 19.13,27.38 10.6,10.6 0 0 1 29.47,19 h 12.3"
       class="cls-78"
       inkscape:connector-curvature="0"
       style="fill:#556ea2" />
    <path
       id="path4434"
       transform="translate(-7.38,-7.58)"
       d="m 83.83,19 a 10.76,10.76 0 0 1 10.75,10.78 v 0 V 84 a 10.65,10.65 0 0 1 -10,10.63 c -0.24,0.08 -3.55,0.12 -3.81,0.12 h -48 c -4.53,0 -11.41,-3.67 -11.41,-8.21 -1.4,0 -2.53,-11.53 -2.54,-12.92 V 30.67 A 15.61,15.61 0 0 1 19.14,27.45 10.58,10.58 0 0 1 29.51,19 h 12.78"
       class="cls-79"
       inkscape:connector-curvature="0"
       style="fill:#566ea2" />
    <path
       id="path4436"
       transform="translate(-7.38,-7.58)"
       d="m 83.79,19.09 a 10.75,10.75 0 0 1 10.73,10.73 v 0 V 84 a 10.63,10.63 0 0 1 -9.94,10.61 c -0.25,0.08 -3.53,0.12 -3.8,0.12 H 33 c -4.47,0 -11.42,-3.62 -11.42,-8.1 -1.45,0 -2.62,-11.43 -2.63,-12.88 v -43 a 15.84,15.84 0 0 1 0.32,-3.22 10.56,10.56 0 0 1 10.31,-8.44 h 13.23"
       class="cls-80"
       inkscape:connector-curvature="0"
       style="fill:#566fa3" />
    <path
       id="path4438"
       transform="translate(-7.38,-7.58)"
       d="m 83.75,19.15 a 10.73,10.73 0 0 1 10.71,10.71 v 0 54 a 10.61,10.61 0 0 1 -9.9,10.58 c -0.26,0.08 -3.5,0.13 -3.79,0.13 H 33.14 C 28.73,94.57 21.71,91 21.71,86.57 20.22,86.62 19,75.3 19,73.8 v -43 a 16.07,16.07 0 0 1 0.31,-3.22 10.54,10.54 0 0 1 10.3,-8.45 h 13.72"
       class="cls-80"
       inkscape:connector-curvature="0"
       style="fill:#566fa3" />
    <path
       id="path4440"
       transform="translate(-7.38,-7.58)"
       d="M 83.7,19.21 A 10.71,10.71 0 0 1 94.4,29.9 v 0 54 a 10.59,10.59 0 0 1 -9.85,10.56 c -0.27,0.08 -3.48,0.13 -3.77,0.13 H 33.31 C 29,94.55 21.87,91 21.87,86.68 c -1.55,0 -2.81,-11.23 -2.82,-12.79 v -43 a 16.32,16.32 0 0 1 0.31,-3.22 10.52,10.52 0 0 1 10.29,-8.47 h 14.2"
       class="cls-81"
       inkscape:connector-curvature="0"
       style="fill:#576fa3" />
    <path
       id="path4442"
       transform="translate(-7.38,-7.58)"
       d="m 83.66,19.27 a 10.7,10.7 0 0 1 10.68,10.67 v 0 53.87 a 10.57,10.57 0 0 1 -9.81,10.54 c -0.27,0.09 -3.46,0.13 -3.76,0.14 H 33.47 C 29.18,94.49 22,91 22,86.73 20.39,86.73 19.09,75.6 19.08,73.99 V 31 a 16.57,16.57 0 0 1 0.3,-3.23 10.51,10.51 0 0 1 10.28,-8.48 h 14.7"
       class="cls-82"
       inkscape:connector-curvature="0"
       style="fill:#5770a3" />
    <path
       id="path4444"
       transform="translate(-7.38,-7.58)"
       d="M 83.62,19.32 A 10.68,10.68 0 0 1 94.28,30 v 0 53.77 a 10.55,10.55 0 0 1 -9.76,10.52 c -0.28,0.09 -3.43,0.14 -3.75,0.14 H 33.63 c -4.23,0 -11.45,-3.43 -11.45,-7.65 -1.66,0 -3,-11 -3,-12.69 V 31 a 16.83,16.83 0 0 1 0.3,-3.23 10.49,10.49 0 0 1 10.26,-8.5 h 15.14"
       class="cls-82"
       inkscape:connector-curvature="0"
       style="fill:#5770a3" />
    <path
       id="path4446"
       transform="translate(-7.38,-7.58)"
       d="M 83.57,19.38 A 10.66,10.66 0 0 1 94.22,30 v 0 53.7 A 10.53,10.53 0 0 1 84.5,94.2 c -0.29,0.09 -3.41,0.14 -3.73,0.15 h -47 c -4.16,0 -11.46,-3.38 -11.46,-7.54 -1.71,0 -3.09,-10.94 -3.1,-12.65 V 31.12 A 17.09,17.09 0 0 1 19.5,27.89 10.47,10.47 0 0 1 29.75,19.38 H 45.4"
       class="cls-83"
       inkscape:connector-curvature="0"
       style="fill:#5870a4" />
    <path
       id="path4448"
       transform="translate(-7.38,-7.58)"
       d="m 83.53,19.44 a 10.65,10.65 0 0 1 10.63,10.63 v 0 53.61 a 10.51,10.51 0 0 1 -9.67,10.48 c -0.3,0.1 -3.39,0.15 -3.72,0.15 H 34 c -4.1,0 -11.46,-3.33 -11.46,-7.43 -1.76,0 -3.19,-10.84 -3.2,-12.6 V 31.2 A 17.37,17.37 0 0 1 19.58,28 10.45,10.45 0 0 1 29.82,19.47 h 16.1"
       class="cls-83"
       inkscape:connector-curvature="0"
       style="fill:#5870a4" />
    <path
       id="path4450"
       transform="translate(-7.38,-7.58)"
       d="M 83.49,19.5 A 10.63,10.63 0 0 1 94.1,30.11 v 0 53.52 a 10.49,10.49 0 0 1 -9.63,10.46 c -0.31,0.1 -3.37,0.15 -3.71,0.15 H 34.12 c -4,0 -11.47,-3.28 -11.47,-7.32 -1.81,0 -3.28,-10.74 -3.29,-12.55 V 31.27 A 17.65,17.65 0 0 1 19.64,28 10.43,10.43 0 0 1 29.87,19.5 h 16.56"
       class="cls-84"
       inkscape:connector-curvature="0"
       style="fill:#5871a4" />
    <path
       id="path4452"
       transform="translate(-7.38,-7.58)"
       d="M 83.44,19.56 A 10.62,10.62 0 0 1 94,30.15 v 0 53.44 A 10.47,10.47 0 0 1 84.45,94 c -0.32,0.1 -3.34,0.16 -3.69,0.16 H 34.28 C 30.3,94.18 22.8,91 22.8,87 20.93,87 19.43,76.36 19.41,74.49 V 31.35 a 17.94,17.94 0 0 1 0.28,-3.23 10.42,10.42 0 0 1 10.22,-8.55 H 47"
       class="cls-85"
       inkscape:connector-curvature="0"
       style="fill:#5971a4" />
    <path
       id="path4454"
       transform="translate(-7.38,-7.58)"
       d="M 83.4,19.62 A 10.6,10.6 0 0 1 94,30.19 v 0 53.35 A 10.46,10.46 0 0 1 84.44,94 c -0.33,0.1 -3.32,0.16 -3.68,0.16 H 34.44 C 30.52,94.12 23,90.94 23,87 21,87 19.49,76.48 19.47,74.56 V 31.42 A 18.25,18.25 0 0 1 19.75,28.18 10.4,10.4 0 0 1 30,19.62 h 17.47"
       class="cls-85"
       inkscape:connector-curvature="0"
       style="fill:#5971a4" />
    <path
       id="path4456"
       transform="translate(-7.38,-7.58)"
       d="m 83.36,19.67 a 10.58,10.58 0 0 1 10.56,10.57 v 0 53.26 a 10.44,10.44 0 0 1 -9.5,10.39 c -0.34,0.11 -3.3,0.17 -3.67,0.17 H 34.6 c -3.86,0 -11.5,-3.13 -11.5,-7 -2,0 -3.56,-10.45 -3.57,-12.42 V 31.5 A 18.56,18.56 0 0 1 19.8,28.26 10.38,10.38 0 0 1 30,19.67 h 18"
       class="cls-86"
       inkscape:connector-curvature="0"
       style="fill:#5a72a5" />
    <path
       id="path4458"
       transform="translate(-7.38,-7.58)"
       d="m 83.31,19.73 a 10.57,10.57 0 0 1 10.55,10.55 v 0 53.17 a 10.42,10.42 0 0 1 -9.45,10.37 c -0.35,0.11 -3.27,0.17 -3.65,0.17 h -46 c -3.8,0 -11.5,-3.08 -11.5,-6.88 -2,0 -3.66,-10.35 -3.67,-12.37 V 31.57 A 18.88,18.88 0 0 1 19.86,28.33 10.36,10.36 0 0 1 30,19.73 h 18.51"
       class="cls-86"
       inkscape:connector-curvature="0"
       style="fill:#5a72a5" />
    <path
       id="path4460"
       transform="translate(-7.38,-7.58)"
       d="M 83.27,19.79 A 10.55,10.55 0 0 1 93.8,30.32 v 0 53.09 a 10.4,10.4 0 0 1 -9.41,10.35 c -0.35,0.11 -3.25,0.17 -3.64,0.18 H 34.93 c -3.74,0 -11.51,-3 -11.51,-6.76 -2.07,0 -3.75,-10.25 -3.76,-12.32 V 31.65 A 19.21,19.21 0 0 1 19.92,28.41 10.35,10.35 0 0 1 30.1,19.8 H 49"
       class="cls-86"
       inkscape:connector-curvature="0"
       style="fill:#5a72a5" />
    <path
       id="path4462"
       transform="translate(-7.38,-7.58)"
       d="m 83.23,19.85 a 10.53,10.53 0 0 1 10.51,10.51 v 0 53 a 10.38,10.38 0 0 1 -9.36,10.33 c -0.36,0.11 -3.23,0.18 -3.63,0.18 H 35.09 c -3.67,0 -11.52,-3 -11.52,-6.65 -2.12,0 -3.84,-10.15 -3.86,-12.28 V 31.72 A 19.55,19.55 0 0 1 20,28.48 10.33,10.33 0 0 1 30.16,19.85 h 19.4"
       class="cls-87"
       inkscape:connector-curvature="0"
       style="fill:#5b73a5" />
    <path
       id="path4464"
       transform="translate(-7.38,-7.58)"
       d="m 83.18,19.91 a 10.52,10.52 0 0 1 10.5,10.49 v 0 52.92 a 10.36,10.36 0 0 1 -9.32,10.31 c -0.37,0.12 -3.2,0.18 -3.61,0.18 h -45.5 c -3.61,0 -11.53,-2.93 -11.53,-6.54 -2.18,0 -3.94,-10.05 -4,-12.23 V 31.8 A 19.91,19.91 0 0 1 20,28.55 10.31,10.31 0 0 1 30.15,19.91 h 19.91"
       class="cls-87"
       inkscape:connector-curvature="0"
       style="fill:#5b73a5" />
    <path
       id="path4466"
       transform="translate(-7.38,-7.58)"
       d="m 83.14,20 a 10.5,10.5 0 0 1 10.48,10.44 v 0 52.83 a 10.35,10.35 0 0 1 -9.27,10.29 c -0.38,0.12 -3.18,0.19 -3.6,0.19 H 35.41 c -3.55,0 -11.53,-2.88 -11.53,-6.43 -2.23,0 -4,-10 -4,-12.18 V 31.87 A 20.27,20.27 0 0 1 20.13,28.62 10.3,10.3 0 0 1 30.23,20 h 20.35"
       class="cls-88"
       inkscape:connector-curvature="0"
       style="fill:#5b73a6" />
    <path
       id="path4468"
       transform="translate(-7.38,-7.58)"
       d="m 83.1,20 a 10.49,10.49 0 0 1 10.46,10.49 v 0 52.74 A 10.33,10.33 0 0 1 84.33,93.5 35.1,35.1 0 0 1 80.74,93.69 H 35.58 C 32.08,93.69 24,90.86 24,87.37 c -2.28,0 -4.12,-9.86 -4.14,-12.14 V 31.95 A 20.65,20.65 0 0 1 20.11,28.7 10.28,10.28 0 0 1 30.27,20 H 51.1"
       class="cls-89"
       inkscape:connector-curvature="0"
       style="fill:#5c74a6" />
    <path
       id="path4470"
       transform="translate(-7.38,-7.58)"
       d="M 83.05,20.08 A 10.47,10.47 0 0 1 93.5,30.53 v 0 52.65 a 10.31,10.31 0 0 1 -9.18,10.24 34.06,34.06 0 0 1 -3.57,0.2 h -45 C 32.32,93.62 24.2,90.84 24.2,87.41 21.86,87.4 20,77.66 20,75.33 V 32 a 21,21 0 0 1 0.24,-3.25 10.26,10.26 0 0 1 10.12,-8.69 h 21.3"
       class="cls-89"
       inkscape:connector-curvature="0"
       style="fill:#5c74a6" />
    <path
       id="path4472"
       transform="translate(-7.38,-7.58)"
       d="m 83,20.14 a 10.45,10.45 0 0 1 10.44,10.43 v 0 52.57 a 10.29,10.29 0 0 1 -9.14,10.22 33.07,33.07 0 0 1 -3.56,0.2 H 35.9 c -3.37,0 -11.56,-2.73 -11.56,-6.1 C 22,87.45 20,77.8 20,75.42 V 32.1 a 21.46,21.46 0 0 1 0.24,-3.25 10.25,10.25 0 0 1 10.11,-8.7 h 21.78"
       class="cls-89"
       inkscape:connector-curvature="0"
       style="fill:#5c74a6" />
    <path
       id="path4474"
       transform="translate(-7.38,-7.58)"
       d="m 83,20.2 a 10.44,10.44 0 0 1 10.38,10.41 v 0 52.48 a 10.28,10.28 0 0 1 -9.09,10.2 32.11,32.11 0 0 1 -3.55,0.21 H 36.06 c -3.31,0 -11.57,-2.68 -11.57,-6 -2.44,0 -4.41,-9.56 -4.42,-12 V 32.17 A 21.88,21.88 0 0 1 20.3,28.91 10.23,10.23 0 0 1 30.4,20.2 h 22.25"
       class="cls-90"
       inkscape:connector-curvature="0"
       style="fill:#5d74a6" />
    <path
       id="path4476"
       transform="translate(-7.38,-7.58)"
       d="m 82.92,20.26 a 10.42,10.42 0 0 1 10.4,10.39 v 0 V 83 a 10.26,10.26 0 0 1 -9,10.18 31.2,31.2 0 0 1 -3.53,0.21 H 36.22 c -3.25,0 -11.57,-2.63 -11.57,-5.88 -2.49,0 -4.5,-9.47 -4.51,-12 V 32.25 A 22.32,22.32 0 0 1 20.36,29 10.21,10.21 0 0 1 30.45,20.27 h 22.72"
       class="cls-91"
       inkscape:connector-curvature="0"
       style="fill:#5d75a7" />
    <path
       id="path4478"
       transform="translate(-7.38,-7.58)"
       d="m 82.88,20.32 a 10.4,10.4 0 0 1 10.38,10.37 v 0 V 83 a 10.24,10.24 0 0 1 -9,10.16 30.33,30.33 0 0 1 -3.52,0.22 H 36.39 c -3.18,0 -11.58,-2.58 -11.58,-5.77 -2.54,0 -4.59,-9.37 -4.61,-11.91 V 32.32 a 22.78,22.78 0 0 1 0.22,-3.26 10.2,10.2 0 0 1 10.08,-8.74 h 23.19"
       class="cls-91"
       inkscape:connector-curvature="0"
       style="fill:#5d75a7" />
    <path
       id="path4480"
       transform="translate(-7.38,-7.58)"
       d="M 82.84,20.38 A 10.39,10.39 0 0 1 93.2,30.74 v 0 V 83 a 10.22,10.22 0 0 1 -9,10.14 29.5,29.5 0 0 1 -3.51,0.22 H 36.55 C 33.42,93.32 25,90.78 25,87.66 22.41,87.66 20.31,78.39 20.3,75.8 V 32.4 a 23.25,23.25 0 0 1 0.22,-3.26 10.18,10.18 0 0 1 10.07,-8.76 H 54.2"
       class="cls-92"
       inkscape:connector-curvature="0"
       style="fill:#5e75a7" />
    <path
       id="path4482"
       transform="translate(-7.38,-7.58)"
       d="m 82.79,20.44 a 10.37,10.37 0 0 1 10.35,10.34 v 0 52.13 A 10.21,10.21 0 0 1 84.22,93 a 28.7,28.7 0 0 1 -3.5,0.22 h -44 c -3.06,0 -11.6,-2.48 -11.6,-5.54 -2.64,0 -4.78,-9.17 -4.8,-11.81 v -43.4 a 23.75,23.75 0 0 1 0.22,-3.26 10.17,10.17 0 0 1 10.05,-8.77 h 24.13"
       class="cls-93"
       inkscape:connector-curvature="0"
       style="fill:#5e76a7" />
    <path
       id="path4484"
       transform="translate(-7.38,-7.58)"
       d="m 82.75,20.49 a 10.36,10.36 0 0 1 10.33,10.33 v 0 52 A 10.19,10.19 0 0 1 84.21,93 27.93,27.93 0 0 1 80.73,93.23 H 36.87 c -3,0 -11.6,-2.43 -11.6,-5.43 -2.69,0 -4.87,-9.07 -4.89,-11.77 V 32.55 a 24.26,24.26 0 0 1 0.21,-3.26 10.15,10.15 0 0 1 10,-8.79 h 24.65"
       class="cls-94"
       inkscape:connector-curvature="0"
       style="fill:#5f76a7" />
    <path
       id="path4486"
       transform="translate(-7.38,-7.58)"
       d="M 82.71,20.55 A 10.34,10.34 0 0 1 93,30.86 v 0 52 A 10.17,10.17 0 0 1 84.19,92.9 27.19,27.19 0 0 1 80.72,93.13 H 37 c -2.94,0 -11.61,-2.38 -11.61,-5.32 -2.75,0 -5,-9 -5,-11.72 V 32.62 a 24.8,24.8 0 0 1 0.21,-3.27 10.13,10.13 0 0 1 10,-8.8 h 25.16"
       class="cls-94"
       inkscape:connector-curvature="0"
       style="fill:#5f76a7" />
    <path
       id="path4488"
       transform="translate(-7.38,-7.58)"
       d="M 82.66,20.61 A 10.32,10.32 0 0 1 93,30.9 v 0 51.88 a 10.16,10.16 0 0 1 -8.78,10.05 26.48,26.48 0 0 1 -3.46,0.24 H 37.2 c -2.88,0 -11.62,-2.33 -11.62,-5.21 -2.8,0 -5.06,-8.88 -5.08,-11.67 V 32.7 a 25.36,25.36 0 0 1 0.2,-3.27 10.12,10.12 0 0 1 10,-8.82 h 25.58"
       class="cls-95"
       inkscape:connector-curvature="0"
       style="fill:#5f77a8" />
    <path
       id="path4490"
       transform="translate(-7.38,-7.58)"
       d="m 82.62,20.67 a 10.31,10.31 0 0 1 10.27,10.27 v 0 51.79 a 10.14,10.14 0 0 1 -8.73,10 25.79,25.79 0 0 1 -3.44,0.24 H 37.36 c -2.82,0 -11.63,-2.28 -11.63,-5.1 -2.85,0 -5.16,-8.78 -5.17,-11.63 V 32.77 a 25.94,25.94 0 0 1 0.2,-3.27 10.1,10.1 0 0 1 10,-8.83 h 26"
       class="cls-96"
       inkscape:connector-curvature="0"
       style="fill:#6077a8" />
    <path
       id="path4492"
       transform="translate(-7.38,-7.58)"
       d="M 82.58,20.73 A 10.29,10.29 0 0 1 92.83,31 v 0 51.7 a 10.12,10.12 0 0 1 -8.69,10 25.13,25.13 0 0 1 -3.43,0.25 H 37.52 c -2.76,0 -11.64,-2.23 -11.64,-5 -2.9,0 -5.25,-8.68 -5.27,-11.58 V 32.84 a 26.55,26.55 0 0 1 0.19,-3.27 10.09,10.09 0 0 1 10,-8.85 h 26.5"
       class="cls-96"
       inkscape:connector-curvature="0"
       style="fill:#6077a8" />
    <path
       id="path4494"
       transform="translate(-7.38,-7.58)"
       d="M 82.53,20.79 A 10.27,10.27 0 0 1 92.77,31 v 0 51.64 a 10.11,10.11 0 0 1 -8.64,10 24.5,24.5 0 0 1 -3.42,0.25 h -43 C 35,92.88 26,90.7 26,88 23,88 20.66,79.42 20.64,76.46 V 32.92 a 27.19,27.19 0 0 1 0.19,-3.27 10.07,10.07 0 0 1 10,-8.86 h 27"
       class="cls-96"
       inkscape:connector-curvature="0"
       style="fill:#6077a8" />
    <path
       id="path4496"
       transform="translate(-7.38,-7.58)"
       d="m 82.49,20.84 a 10.26,10.26 0 0 1 10.22,10.23 v 0 51.53 a 10.09,10.09 0 0 1 -8.6,10 23.89,23.89 0 0 1 -3.4,0.26 H 37.84 c -2.63,0 -11.65,-2.13 -11.65,-4.77 -3,0 -5.44,-8.48 -5.46,-11.49 V 33 a 27.86,27.86 0 0 1 0.19,-3.28 10.06,10.06 0 0 1 10,-8.87 h 27.43"
       class="cls-97"
       inkscape:connector-curvature="0"
       style="fill:#6178a8" />
    <path
       id="path4498"
       transform="translate(-7.38,-7.58)"
       d="m 82.45,20.9 a 10.24,10.24 0 0 1 10.2,10.21 v 0 51.44 A 10.08,10.08 0 0 1 84.1,92.5 23.3,23.3 0 0 1 80.71,92.76 H 38 c -2.57,0 -11.66,-2.09 -11.66,-4.66 -3.06,0 -5.53,-8.39 -5.55,-11.44 V 33.07 A 28.56,28.56 0 0 1 21,29.79 10,10 0 0 1 31,20.9 h 27.87"
       class="cls-98"
       inkscape:connector-curvature="0"
       style="fill:#6178a9" />
    <path
       id="path4500"
       transform="translate(-7.38,-7.58)"
       d="m 82.4,21 a 10.23,10.23 0 0 1 10.19,10.15 v 0 51.36 A 10.06,10.06 0 0 1 84.08,92.44 22.73,22.73 0 0 1 80.7,92.7 H 38.17 c -2.51,0 -11.67,-2 -11.67,-4.55 -3.11,0 -5.62,-8.29 -5.64,-11.4 V 33.14 A 29.29,29.29 0 0 1 21,29.87 10,10 0 0 1 31,21 h 28.4"
       class="cls-98"
       inkscape:connector-curvature="0"
       style="fill:#6178a9" />
    <path
       id="path4502"
       transform="translate(-7.38,-7.58)"
       d="m 82.36,21 a 10.21,10.21 0 0 1 10.17,10.19 v 0 51.27 a 10,10 0 0 1 -8.46,9.9 22.18,22.18 0 0 1 -3.36,0.27 H 38.33 c -2.45,0 -11.67,-2 -11.67,-4.44 -3.16,0 -5.72,-8.19 -5.74,-11.35 V 33.22 A 30.06,30.06 0 0 1 21.09,29.94 10,10 0 0 1 31,21 h 28.9"
       class="cls-99"
       inkscape:connector-curvature="0"
       style="fill:#6279a9" />
    <path
       id="path4504"
       transform="translate(-7.38,-7.58)"
       d="m 82.32,21.08 a 10.19,10.19 0 0 1 10.15,10.16 v 0 51.18 A 10,10 0 0 1 84.05,92.3 21.64,21.64 0 0 1 80.7,92.57 H 38.49 c -2.39,0 -11.68,-1.94 -11.68,-4.32 -3.21,0 -5.81,-8.09 -5.83,-11.3 V 33.29 A 30.87,30.87 0 0 1 21.15,30 10,10 0 0 1 31.08,21.07 h 29.34"
       class="cls-99"
       inkscape:connector-curvature="0"
       style="fill:#6279a9" />
    <path
       id="path4506"
       transform="translate(-7.38,-7.58)"
       d="m 82.27,21.14 a 10.18,10.18 0 0 1 10.14,10.14 v 0 51.1 A 10,10 0 0 1 84,92.23 21.13,21.13 0 0 1 80.66,92.51 h -42 C 36.33,92.51 27,90.63 27,88.3 c -3.26,0 -5.91,-8 -5.93,-11.26 V 33.37 a 31.72,31.72 0 0 1 0.16,-3.28 10,10 0 0 1 9.92,-8.95 h 29.79"
       class="cls-99"
       inkscape:connector-curvature="0"
       style="fill:#6279a9" />
    <path
       id="path4508"
       transform="translate(-7.38,-7.58)"
       d="m 82.23,21.2 a 10.16,10.16 0 0 1 10.12,10.12 v 0 51 A 10,10 0 0 1 84,92.17 20.63,20.63 0 0 1 80.68,92.45 H 38.82 c -2.27,0 -11.7,-1.84 -11.7,-4.1 -3.32,0 -6,-7.9 -6,-11.21 v -43.7 a 32.62,32.62 0 0 1 0.16,-3.29 10,10 0 0 1 9.91,-9 h 30.27"
       class="cls-100"
       inkscape:connector-curvature="0"
       style="fill:#637aaa" />
    <path
       id="path4510"
       transform="translate(-7.38,-7.58)"
       d="m 82.19,21.25 a 10.14,10.14 0 0 1 10.1,10.11 v 0 50.92 A 10,10 0 0 1 84,92.1 20.15,20.15 0 0 1 80.69,92.39 H 39 c -2.2,0 -11.71,-1.79 -11.71,-4 -3.37,0 -6.09,-7.8 -6.11,-11.17 v -43.7 c 0,-0.39 0.05,-2.93 0.16,-3.29 a 10,10 0 0 1 9.9,-9 H 62"
       class="cls-100"
       inkscape:connector-curvature="0"
       style="fill:#637aaa" />
    <path
       id="path4512"
       transform="translate(-7.38,-7.58)"
       d="M 82.14,21.31 A 10.13,10.13 0 0 1 92.23,31.4 v 0 50.84 A 10,10 0 0 1 84,92 19.69,19.69 0 0 1 80.7,92.29 H 39.14 c -2.14,0 -11.71,-1.74 -11.71,-3.88 -3.42,0 -6.19,-7.7 -6.21,-11.12 v -43.7 c 0,-0.38 0.05,-2.94 0.15,-3.29 a 9.94,9.94 0 0 1 9.89,-9 h 31.23"
       class="cls-101"
       inkscape:connector-curvature="0"
       style="fill:#647aaa" />
    <path
       id="path4514"
       transform="translate(-7.38,-7.58)"
       d="m 82.1,21.37 a 10.11,10.11 0 0 1 10.07,10.07 v 0 50.75 A 10,10 0 0 1 84,92 19.24,19.24 0 0 1 80.72,92.3 H 39.3 c -2.08,0 -11.72,-1.69 -11.72,-3.77 -3.47,0 -6.28,-7.6 -6.3,-11.07 V 33.67 c 0,-0.37 0,-3 0.15,-3.29 a 9.93,9.93 0 0 1 9.88,-9 H 63"
       class="cls-102"
       inkscape:connector-curvature="0"
       style="fill:#647baa" />
    <path
       id="path4516"
       transform="translate(-7.38,-7.58)"
       d="m 82.06,21.43 a 10.1,10.1 0 0 1 10.05,10.06 v 0 50.66 A 9.94,9.94 0 0 1 84,91.9 18.8,18.8 0 0 1 80.73,92.2 H 39.46 c -2,0 -11.73,-1.64 -11.73,-3.66 -3.52,0 -6.37,-7.5 -6.4,-11 v -43.8 c 0,-0.36 0,-3 0.14,-3.29 a 9.91,9.91 0 0 1 9.87,-9 h 32.19"
       class="cls-102"
       inkscape:connector-curvature="0"
       style="fill:#647baa" />
    <path
       id="path4518"
       transform="translate(-7.38,-7.58)"
       d="m 82,21.49 a 10.08,10.08 0 0 1 10,10 v 0 50.61 a 9.92,9.92 0 0 1 -8.1,9.73 18.38,18.38 0 0 1 -3.26,0.3 H 39.63 c -2,0 -11.74,-1.59 -11.74,-3.55 -3.58,0 -6.47,-7.41 -6.49,-11 V 33.82 c 0,-0.35 0,-3 0.14,-3.3 a 9.9,9.9 0 0 1 9.85,-9 H 64"
       class="cls-103"
       inkscape:connector-curvature="0"
       style="fill:#657bab" />
    <path
       id="path4520"
       transform="translate(-7.38,-7.58)"
       d="m 82,21.55 a 10.06,10.06 0 0 1 10,10 v 0 50.51 a 9.91,9.91 0 0 1 -8.06,9.71 18,18 0 0 1 -3.24,0.31 H 39.79 c -1.9,0 -11.74,-1.54 -11.74,-3.44 -3.63,0 -6.56,-7.31 -6.58,-10.93 V 33.89 c 0,-0.34 0,-3 0.13,-3.3 a 9.88,9.88 0 0 1 9.84,-9 h 33.13"
       class="cls-103"
       inkscape:connector-curvature="0"
       style="fill:#657bab" />
    <path
       id="path4522"
       transform="translate(-7.38,-7.58)"
       d="m 81.93,21.61 a 10,10 0 0 1 10,10 v 0 V 82 a 9.89,9.89 0 0 1 -8,9.69 A 17.57,17.57 0 0 1 80.7,92 H 40 c -1.84,0 -11.75,-1.49 -11.75,-3.33 -3.68,0 -6.66,-7.21 -6.68,-10.89 V 34 c 0,-0.33 0,-3 0.13,-3.3 a 9.87,9.87 0 0 1 9.83,-9.06 h 33.6"
       class="cls-104"
       inkscape:connector-curvature="0"
       style="fill:#657cab" />
    <path
       id="path4524"
       transform="translate(-7.38,-7.58)"
       d="m 81.88,21.66 a 10,10 0 0 1 10,10 v 0 V 82 a 9.88,9.88 0 0 1 -8,9.67 17.18,17.18 0 0 1 -3.22,0.32 H 40.11 c -1.78,0 -11.76,-1.44 -11.76,-3.22 -3.73,0 -6.75,-7.11 -6.77,-10.84 V 34 c 0,-0.32 0,-3 0.13,-3.3 a 9.86,9.86 0 0 1 9.82,-9.08 H 65.6"
       class="cls-105"
       inkscape:connector-curvature="0"
       style="fill:#667cab" />
    <path
       id="path4526"
       transform="translate(-7.38,-7.58)"
       d="m 81.84,21.72 a 10,10 0 0 1 10,10 v 0 50.2 a 9.87,9.87 0 0 1 -7.93,9.65 16.81,16.81 0 0 1 -3.2,0.32 H 40.27 c -1.71,0 -11.77,-1.39 -11.77,-3.1 -3.78,0 -6.84,-7 -6.87,-10.8 V 34.12 c 0,-0.3 0,-3 0.12,-3.3 a 9.84,9.84 0 0 1 9.81,-9.09 h 34.56"
       class="cls-105"
       inkscape:connector-curvature="0"
       style="fill:#667cab" />
    <path
       id="path4528"
       transform="translate(-7.38,-7.58)"
       d="m 81.8,21.78 a 10,10 0 0 1 10,10 v 0 50.1 a 9.85,9.85 0 0 1 -7.88,9.63 16.45,16.45 0 0 1 -3.19,0.33 H 40.44 c -1.65,0 -11.78,-1.34 -11.78,-3 -3.83,0 -6.94,-6.92 -7,-10.75 v -43.9 c 0,-0.29 0,-3 0.12,-3.3 a 9.83,9.83 0 0 1 9.8,-9.11 h 35"
       class="cls-106"
       inkscape:connector-curvature="0"
       style="fill:#667dac" />
    <path
       id="path4530"
       transform="translate(-7.38,-7.58)"
       d="m 81.75,21.84 a 10,10 0 0 1 9.94,9.94 v 0 50.05 a 9.84,9.84 0 0 1 -7.84,9.61 16.09,16.09 0 0 1 -3.18,0.33 H 40.6 c -1.59,0 -11.78,-1.29 -11.78,-2.88 -3.89,0 -7,-6.82 -7.05,-10.7 V 34.27 c 0,-0.28 0,-3 0.11,-3.31 a 9.82,9.82 0 0 1 9.79,-9.12 h 35.5"
       class="cls-107"
       inkscape:connector-curvature="0"
       style="fill:#677dac" />
    <path
       id="path4532"
       transform="translate(-7.38,-7.58)"
       d="m 81.71,21.9 a 10,10 0 0 1 9.92,9.92 v 0 50 a 9.83,9.83 0 0 1 -7.79,9.59 15.75,15.75 0 0 1 -3.16,0.33 H 40.76 C 39.23,91.71 29,90.47 29,88.94 c -3.94,0 -7.12,-6.72 -7.15,-10.66 V 34.34 c 0,-0.27 0,-3.06 0.11,-3.31 a 9.8,9.8 0 0 1 9.78,-9.14 h 36"
       class="cls-107"
       inkscape:connector-curvature="0"
       style="fill:#677dac" />
    <path
       id="path4534"
       transform="translate(-7.38,-7.58)"
       d="m 81.67,22 a 10,10 0 0 1 9.9,9.9 v 0 49.84 a 9.81,9.81 0 0 1 -7.75,9.56 15.42,15.42 0 0 1 -3.15,0.34 H 40.92 c -1.47,0 -11.8,-1.19 -11.8,-2.66 -4,0 -7.22,-6.62 -7.24,-10.61 v -44 c 0,-0.26 0,-3.07 0.1,-3.31 A 9.79,9.79 0 0 1 31.75,22 h 36.44"
       class="cls-108"
       inkscape:connector-curvature="0"
       style="fill:#677eac" />
    <path
       id="path4536"
       transform="translate(-7.38,-7.58)"
       d="m 81.62,22 a 9.93,9.93 0 0 1 9.89,9.89 v 0 49.81 a 9.8,9.8 0 0 1 -7.7,9.54 15.09,15.09 0 0 1 -3.14,0.34 H 41.08 c -1.41,0 -11.81,-1.14 -11.81,-2.55 -4,0 -7.31,-6.52 -7.34,-10.56 v -44 c 0,-0.25 0,-3.08 0.1,-3.31 A 9.78,9.78 0 0 1 31.8,22 h 36.91"
       class="cls-109"
       inkscape:connector-curvature="0"
       style="fill:#687eac" />
    <path
       id="path4538"
       transform="translate(-7.38,-7.58)"
       d="m 81.58,22.07 a 9.92,9.92 0 0 1 9.87,9.87 v 0 49.71 a 9.79,9.79 0 0 1 -7.66,9.52 14.78,14.78 0 0 1 -3.12,0.35 H 41.25 c -1.35,0 -11.81,-1.09 -11.81,-2.44 -4.09,0 -7.41,-6.42 -7.43,-10.52 v -44 c 0,-0.24 0,-3.09 0.1,-3.31 a 9.76,9.76 0 0 1 9.74,-9.18 h 37.38"
       class="cls-110"
       inkscape:connector-curvature="0"
       style="fill:#687ead" />
    <path
       id="path4540"
       transform="translate(-7.38,-7.58)"
       d="M 81.54,22.13 A 9.9,9.9 0 0 1 91.39,32 v 0 49.61 a 9.77,9.77 0 0 1 -7.61,9.5 14.47,14.47 0 0 1 -3.11,0.35 H 41.41 c -1.29,0 -11.82,-1 -11.82,-2.33 -4.15,0 -7.5,-6.33 -7.52,-10.47 v -44 c 0,-0.23 0,-3.11 0.09,-3.32 a 9.75,9.75 0 0 1 9.73,-9.19 h 37.86"
       class="cls-111"
       inkscape:connector-curvature="0"
       style="fill:#697fad" />
    <path
       id="path4542"
       transform="translate(-7.38,-7.58)"
       d="M 81.49,22.19 A 9.88,9.88 0 0 1 91.33,32 v 0 49.56 A 9.76,9.76 0 0 1 83.76,91 14.17,14.17 0 0 1 80.66,91.36 H 41.57 c -1.22,0 -11.83,-1 -11.83,-2.22 -4.2,0 -7.59,-6.23 -7.62,-10.43 v -44 c 0,-0.22 0,-3.12 0.09,-3.32 a 9.74,9.74 0 0 1 9.72,-9.21 h 38.33"
       class="cls-111"
       inkscape:connector-curvature="0"
       style="fill:#697fad" />
    <path
       id="path4544"
       transform="translate(-7.38,-7.58)"
       d="m 81.45,22.25 a 9.87,9.87 0 0 1 9.82,9.82 v 0 49.45 A 9.75,9.75 0 0 1 83.75,91 13.88,13.88 0 0 1 80.67,91.36 H 41.73 c -1.16,0 -11.84,-0.94 -11.84,-2.11 -4.25,0 -7.69,-6.13 -7.71,-10.38 V 34.79 c 0,-0.21 0,-3.13 0.08,-3.32 A 9.72,9.72 0 0 1 32,22.25 h 38.78"
       class="cls-111"
       inkscape:connector-curvature="0"
       style="fill:#697fad" />
    <path
       id="path4546"
       transform="translate(-7.38,-7.58)"
       d="m 81.41,22.31 a 9.85,9.85 0 0 1 9.8,9.8 v 0 49.36 a 9.74,9.74 0 0 1 -7.48,9.44 13.6,13.6 0 0 1 -3.07,0.37 H 41.89 c -1.1,0 -11.85,-0.89 -11.85,-2 -4.3,0 -7.78,-6 -7.81,-10.33 V 34.87 c 0,-0.2 0,-3.14 0.08,-3.32 A 9.71,9.71 0 0 1 32,22.31 h 39.3"
       class="cls-112"
       inkscape:connector-curvature="0"
       style="fill:#6a7fad" />
    <path
       id="path4548"
       transform="translate(-7.38,-7.58)"
       d="m 81.36,22.37 a 9.84,9.84 0 0 1 9.79,9.79 v 0 49.27 a 9.73,9.73 0 0 1 -7.43,9.42 13.32,13.32 0 0 1 -3.06,0.37 h -38.6 c -1,0 -11.85,-0.84 -11.85,-1.89 -4.35,0 -7.87,-5.93 -7.9,-10.29 v -44.1 c 0,-0.19 0,-3.15 0.07,-3.32 a 9.7,9.7 0 0 1 9.69,-9.25 h 39.75"
       class="cls-113"
       inkscape:connector-curvature="0"
       style="fill:#6a80ae" />
    <path
       id="path4550"
       transform="translate(-7.38,-7.58)"
       d="m 81.32,22.42 a 9.82,9.82 0 0 1 9.77,9.77 v 0 49.19 a 9.72,9.72 0 0 1 -7.39,9.39 13.05,13.05 0 0 1 -3,0.37 H 42.22 c -1,0 -11.86,-0.79 -11.86,-1.77 -4.4,0 -8,-5.84 -8,-10.24 V 35 c 0,-0.17 0,-3.17 0.07,-3.32 a 9.69,9.69 0 0 1 9.68,-9.27 h 40.23"
       class="cls-113"
       inkscape:connector-curvature="0"
       style="fill:#6a80ae" />
    <path
       id="path4552"
       transform="translate(-7.38,-7.58)"
       d="M 81.28,22.48 A 9.8,9.8 0 0 1 91,32.24 v 0 49.1 a 9.7,9.7 0 0 1 -7.34,9.37 12.79,12.79 0 0 1 -3,0.38 H 42.38 c -0.92,0 -11.87,-0.74 -11.87,-1.66 -4.46,0 -8.06,-5.74 -8.09,-10.19 V 35.09 c 0,-0.16 0,-3.18 0.06,-3.33 a 9.67,9.67 0 0 1 9.67,-9.28 h 40.7"
       class="cls-114"
       inkscape:connector-curvature="0"
       style="fill:#6b80ae" />
    <path
       id="path4554"
       transform="translate(-7.38,-7.58)"
       d="M 81.23,22.54 A 9.79,9.79 0 0 1 91,32.28 v 0 49 a 9.69,9.69 0 0 1 -7.3,9.35 12.54,12.54 0 0 1 -3,0.38 H 42.54 c -0.86,0 -11.88,-0.7 -11.88,-1.55 -4.51,0 -8.15,-5.64 -8.18,-10.15 V 35.17 c 0,-0.15 0,-3.19 0.06,-3.33 a 9.66,9.66 0 0 1 9.66,-9.3 h 41.17"
       class="cls-115"
       inkscape:connector-curvature="0"
       style="fill:#6b81ae" />
    <path
       id="path4556"
       transform="translate(-7.38,-7.58)"
       d="m 81.19,22.6 a 9.77,9.77 0 0 1 9.72,9.72 v 0 48.93 a 9.68,9.68 0 0 1 -7.25,9.33 12.29,12.29 0 0 1 -3,0.39 H 42.7 c -0.8,0 -11.88,-0.65 -11.88,-1.44 -4.56,0 -8.25,-5.54 -8.28,-10.1 V 35.24 c 0,-0.14 0,-3.2 0.06,-3.33 a 9.65,9.65 0 0 1 9.64,-9.31 h 41.65"
       class="cls-115"
       inkscape:connector-curvature="0"
       style="fill:#6b81ae" />
    <path
       id="path4558"
       transform="translate(-7.38,-7.58)"
       d="m 81.15,22.66 a 9.75,9.75 0 0 1 9.7,9.7 v 0 48.84 a 9.67,9.67 0 0 1 -7.21,9.31 12,12 0 0 1 -3,0.39 H 42.87 c -0.73,0 -11.89,-0.6 -11.89,-1.33 -4.61,0 -8.34,-5.44 -8.37,-10.06 V 35.32 c 0,-0.13 0,-3.21 0.05,-3.33 a 9.64,9.64 0 0 1 9.63,-9.33 h 42.12"
       class="cls-116"
       inkscape:connector-curvature="0"
       style="fill:#6c81af" />
    <path
       id="path4560"
       transform="translate(-7.38,-7.58)"
       d="m 81.1,22.72 a 9.74,9.74 0 0 1 9.69,9.69 v 0 48.75 a 9.66,9.66 0 0 1 -7.16,9.29 11.81,11.81 0 0 1 -3,0.4 H 43 c -0.67,0 -11.9,-0.55 -11.9,-1.22 -4.66,0 -8.44,-5.35 -8.47,-10 V 35.39 c 0,-0.12 0,-3.22 0,-3.33 a 9.63,9.63 0 0 1 9.62,-9.34 h 42.68"
       class="cls-117"
       inkscape:connector-curvature="0"
       style="fill:#6c82af" />
    <path
       id="path4562"
       transform="translate(-7.38,-7.58)"
       d="m 81.06,22.78 a 9.72,9.72 0 0 1 9.67,9.67 v 0 48.66 a 9.65,9.65 0 0 1 -7.12,9.27 11.58,11.58 0 0 1 -3,0.4 H 43.19 c -0.61,0 -11.91,-0.5 -11.91,-1.11 -4.71,0 -8.53,-5.25 -8.56,-10 v -44.2 c 0,-0.11 0,-3.24 0,-3.34 a 9.61,9.61 0 0 1 9.61,-9.35 h 43.12"
       class="cls-117"
       inkscape:connector-curvature="0"
       style="fill:#6c82af" />
    <path
       id="path4564"
       transform="translate(-7.38,-7.58)"
       d="m 81,22.83 a 9.71,9.71 0 0 1 9.65,9.65 v 0 48.59 a 9.64,9.64 0 0 1 -7.07,9.25 11.36,11.36 0 0 1 -3,0.41 H 43.35 c -0.55,0 -11.92,-0.45 -11.92,-1 -4.77,0 -8.62,-5.15 -8.65,-9.92 V 35.54 c 0,-0.1 0,-3.25 0,-3.34 a 9.6,9.6 0 0 1 9.6,-9.37 H 76"
       class="cls-118"
       inkscape:connector-curvature="0"
       style="fill:#6d82af" />
    <path
       id="path4566"
       transform="translate(-7.38,-7.58)"
       d="m 81,22.89 a 9.69,9.69 0 0 1 9.63,9.63 v 0 V 81 a 9.63,9.63 0 0 1 -7,9.23 11.14,11.14 0 0 1 -2.94,0.41 H 43.52 c -0.49,0 -11.92,-0.4 -11.92,-0.89 -4.82,0 -8.72,-5.05 -8.75,-9.87 V 35.62 c 0,-0.09 0,-3.26 0,-3.34 a 9.59,9.59 0 0 1 9.59,-9.38 h 44"
       class="cls-119"
       inkscape:connector-curvature="0"
       style="fill:#6d83af" />
    <path
       id="path4568"
       transform="translate(-7.38,-7.58)"
       d="m 80.93,23 a 9.67,9.67 0 0 1 9.62,9.62 v 0 V 81 a 9.62,9.62 0 0 1 -7,9.2 10.92,10.92 0 0 1 -2.92,0.41 h -37 c -0.43,0 -11.93,-0.35 -11.93,-0.78 -4.87,0 -8.81,-5 -8.84,-9.82 V 35.69 c 0,-0.08 0,-3.27 0,-3.34 A 9.58,9.58 0 0 1 32.51,23 H 77"
       class="cls-120"
       inkscape:connector-curvature="0"
       style="fill:#6e83b0" />
    <path
       id="path4570"
       transform="translate(-7.38,-7.58)"
       d="m 80.89,23 a 9.66,9.66 0 0 1 9.6,9.6 v 0 48.33 a 9.61,9.61 0 0 1 -6.94,9.18 10.71,10.71 0 0 1 -2.91,0.42 H 43.84 C 43.47,90.53 31.9,90.23 31.9,89.86 27,89.84 23,85 23,80.09 V 35.77 c 0,-0.07 0,-3.28 0,-3.34 A 9.57,9.57 0 0 1 32.56,23 h 45"
       class="cls-120"
       inkscape:connector-curvature="0"
       style="fill:#6e83b0" />
    <path
       id="path4572"
       transform="translate(-7.38,-7.58)"
       d="m 80.84,23.07 a 9.64,9.64 0 0 1 9.58,9.58 v 0 48.24 A 9.6,9.6 0 0 1 83.53,90 10.51,10.51 0 0 1 80.63,90.42 H 44 c -0.31,0 -11.95,-0.25 -11.95,-0.55 -5,0 -9,-4.76 -9,-9.73 v -44.3 c 0,-0.05 0,-3.3 0,-3.34 a 9.56,9.56 0 0 1 9.56,-9.43 H 78"
       class="cls-120"
       inkscape:connector-curvature="0"
       style="fill:#6e83b0" />
    <path
       id="path4574"
       transform="translate(-7.38,-7.58)"
       d="m 80.8,23.13 a 9.62,9.62 0 0 1 9.57,9.57 v 0 48.14 A 9.6,9.6 0 0 1 83.52,90 10.31,10.31 0 0 1 80.64,90.43 H 44.16 c -0.24,0 -12,-0.2 -12,-0.44 -5,0 -9.09,-4.66 -9.12,-9.69 V 35.91 c 0,0 0,-3.31 0,-3.35 a 9.54,9.54 0 0 1 9.54,-9.44 h 45.97"
       class="cls-121"
       inkscape:connector-curvature="0"
       style="fill:#6f84b0" />
    <path
       id="path4576"
       transform="translate(-7.38,-7.58)"
       d="m 80.76,23.18 a 9.61,9.61 0 0 1 9.55,9.55 v 0 48.07 a 9.59,9.59 0 0 1 -6.8,9.12 10.11,10.11 0 0 1 -2.87,0.43 H 44.33 c -0.18,0 -12,-0.15 -12,-0.33 -5.08,0 -9.19,-4.56 -9.22,-9.64 V 36 c 0,0 0,-3.32 0,-3.35 a 9.53,9.53 0 0 1 9.53,-9.46 h 46.43"
       class="cls-121"
       inkscape:connector-curvature="0"
       style="fill:#6f84b0" />
    <path
       id="path4578"
       transform="translate(-7.38,-7.58)"
       d="m 80.71,23.24 a 9.59,9.59 0 0 1 9.53,9.53 v 0 48 a 9.58,9.58 0 0 1 -6.76,9.1 9.92,9.92 0 0 1 -2.86,0.44 H 44.49 c -0.12,0 -12,-0.1 -12,-0.22 A 9.62,9.62 0 0 1 23.18,80.5 V 36.06 c 0,0 0,-3.33 0,-3.35 a 9.52,9.52 0 0 1 9.52,-9.47 h 46.89"
       class="cls-122"
       inkscape:connector-curvature="0"
       style="fill:#6f84b1" />
    <path
       id="path4580"
       transform="translate(-7.38,-7.58)"
       d="m 80.67,23.3 a 9.58,9.58 0 0 1 9.52,9.52 v 0 47.89 a 9.57,9.57 0 0 1 -6.71,9.08 9.74,9.74 0 0 1 -2.84,0.44 h -36 c -0.06,0 -12,0 -12,-0.11 A 9.59,9.59 0 0 1 23.23,80.57 V 36.14 c 0,0 0,-3.34 0,-3.35 a 9.51,9.51 0 0 1 9.51,-9.49 h 47.37"
       class="cls-123"
       inkscape:connector-curvature="0"
       style="fill:#7085b1" />
    <path
       id="path4582"
       transform="translate(-7.38,-7.58)"
       d="m 32.83,23.36 h 47.8 a 9.56,9.56 0 0 1 9.5,9.5 v 47.8 a 9.56,9.56 0 0 1 -9.5,9.5 h -47.8 a 9.56,9.56 0 0 1 -9.5,-9.5 v -47.8 a 9.5,9.5 0 0 1 9.5,-9.5 z"
       class="cls-123"
       inkscape:connector-curvature="0"
       style="fill:#7085b1" />
  </g>
</svg>
