<?xml version="1.0" encoding="UTF-8" standalone="no"?>
<svg
   xmlns:dc="http://purl.org/dc/elements/1.1/"
   xmlns:cc="http://creativecommons.org/ns#"
   xmlns:rdf="http://www.w3.org/1999/02/22-rdf-syntax-ns#"
   xmlns:svg="http://www.w3.org/2000/svg"
   xmlns="http://www.w3.org/2000/svg"
   xmlns:sodipodi="http://sodipodi.sourceforge.net/DTD/sodipodi-0.dtd"
   xmlns:inkscape="http://www.inkscape.org/namespaces/inkscape"
   id="Слой_1"
   data-name="Слой 1"
   viewBox="0 0 98.7 98.7"
   version="1.1"
   sodipodi:docname="color7.svg"
   inkscape:version="0.92.1 r15371">
  <metadata
     id="metadata2919">
    <rdf:RDF>
      <cc:Work
         rdf:about="">
        <dc:format>image/svg+xml</dc:format>
        <dc:type
           rdf:resource="http://purl.org/dc/dcmitype/StillImage" />
      </cc:Work>
    </rdf:RDF>
  </metadata>
  <sodipodi:namedview
     pagecolor="#ffffff"
     bordercolor="#666666"
     borderopacity="1"
     objecttolerance="10"
     gridtolerance="10"
     guidetolerance="10"
     inkscape:pageopacity="0"
     inkscape:pageshadow="2"
     inkscape:window-width="1920"
     inkscape:window-height="1031"
     id="namedview2917"
     showgrid="false"
     inkscape:zoom="2.3910842"
     inkscape:cx="-3.7639829"
     inkscape:cy="49.349998"
     inkscape:window-x="0"
     inkscape:window-y="0"
     inkscape:window-maximized="1"
     inkscape:current-layer="Слой_1" />
  <defs
     id="defs2506">
    <style
       id="style2504">.cls-1{fill:#362620;}.cls-2{fill:#372620;}.cls-3{fill:#372720;}.cls-4{fill:#372721;}.cls-5{fill:#382721;}.cls-6{fill:#382821;}.cls-7{fill:#392822;}.cls-8{fill:#3a2922;}.cls-9{fill:#3a2923;}.cls-10{fill:#3b2923;}.cls-11{fill:#3b2a23;}.cls-12{fill:#3c2a23;}.cls-13{fill:#3c2a24;}.cls-14{fill:#3c2b24;}.cls-15{fill:#3d2b24;}.cls-16{fill:#3e2b25;}.cls-17{fill:#3e2c25;}.cls-18{fill:#3f2c25;}.cls-19{fill:#3f2d26;}.cls-20{fill:#402d26;}.cls-21{fill:#412e26;}.cls-22{fill:#412e27;}.cls-23{fill:#422e27;}.cls-24{fill:#422f27;}.cls-25{fill:#432f27;}.cls-26{fill:#432f28;}.cls-27{fill:#443028;}.cls-28{fill:#443029;}.cls-29{fill:#453029;}.cls-30{fill:#453129;}.cls-31{fill:#463129;}.cls-32{fill:#46312a;}.cls-33{fill:#47322a;}.cls-34{fill:#48322a;}.cls-35{fill:#48332b;}.cls-36{fill:#49332b;}.cls-37{fill:#49342b;}.cls-38{fill:#4a342c;}.cls-39{fill:#4b342c;}.cls-40{fill:#4b352c;}.cls-41{fill:#4b352d;}.cls-42{fill:#4c352d;}.cls-43{fill:#4c362d;}.cls-44{fill:#4d362d;}.cls-45{fill:#4d362e;}.cls-46{fill:#4e372e;}.cls-47{fill:#4f372f;}.cls-48{fill:#4f382f;}.cls-49{fill:#50382f;}.cls-50{fill:#503830;}.cls-51{fill:#503930;}.cls-52{fill:#513930;}.cls-53{fill:#523930;}.cls-54{fill:#523a30;}.cls-55{fill:#523a31;}.cls-56{fill:#533a31;}.cls-57{fill:#533b31;}.cls-58{fill:#543b32;}.cls-59{fill:#553c32;}.cls-60{fill:#553c33;}.cls-61{fill:#563c33;}.cls-62{fill:#563d33;}.cls-63{fill:#573d33;}.cls-64{fill:#573d34;}.cls-65{fill:#573e34;}.cls-66{fill:#583e34;}.cls-67{fill:#593e35;}.cls-68{fill:#593f35;}.cls-69{fill:#5a3f35;}.cls-70{fill:#5a4036;}.cls-71{fill:#5b4036;}.cls-72{fill:#5c4136;}.cls-73{fill:#5c4137;}.cls-74{fill:#5d4137;}.cls-75{fill:#5d4237;}.cls-76{fill:#5e4237;}.cls-77{fill:#5e4238;}.cls-78{fill:#5f4338;}.cls-79{fill:#5f4339;}.cls-80{fill:#604339;}.cls-81{fill:#604439;}.cls-82{fill:#614439;}.cls-83{fill:#61443a;}.cls-84{fill:#62453a;}.cls-85{fill:#63453a;}.cls-86{fill:#63463b;}.cls-87{fill:#64463b;}.cls-88{fill:#64473b;}.cls-89{fill:#65473c;}.cls-90{fill:#66473c;}.cls-91{fill:#66483c;}.cls-92{fill:#66483d;}.cls-93{fill:#67483d;}.cls-94{fill:#67493d;}.cls-95{fill:#68493d;}.cls-96{fill:#68493e;}.cls-97{fill:#694a3e;}.cls-98{fill:#6a4a3f;}.cls-99{fill:#6a4b3f;}.cls-100{fill:#6b4b3f;}.cls-101{fill:#6b4b40;}.cls-102{fill:#6b4c40;}.cls-103{fill:#6c4c40;}</style>
  </defs>
  <title
     id="title2508">color7</title>
  <g
     id="g11821">
    <path
       id="path2510"
       transform="translate(-7.24,-7.46)"
       d="m 91.94,7.46 a 14,14 0 0 1 14,14 v 0 70.7 a 14,14 0 0 1 -14,14 h -70.7 a 14,14 0 0 1 -14,-14 v -70.7 a 13.91,13.91 0 0 1 13.82,-14"
       class="cls-1"
       inkscape:connector-curvature="0"
       style="fill:#362620" />
    <path
       id="path2512"
       transform="translate(-7.24,-7.46)"
       d="m 91.87,7.56 a 14,14 0 0 1 14,14 v 0 70.53 a 14,14 0 0 1 -14,14 H 21.31 a 14,14 0 0 1 -14,-14 V 21.53 a 13.88,13.88 0 0 1 13.79,-14"
       class="cls-1"
       inkscape:connector-curvature="0"
       style="fill:#362620" />
    <path
       id="path2514"
       transform="translate(-7.24,-7.46)"
       d="m 91.8,7.66 a 13.94,13.94 0 0 1 13.95,13.94 v 0 V 92 A 13.94,13.94 0 0 1 91.8,106 H 21.38 A 13.94,13.94 0 0 1 7.44,92 V 21.6 A 13.85,13.85 0 0 1 21.2,7.66"
       class="cls-2"
       inkscape:connector-curvature="0"
       style="fill:#372620" />
    <path
       id="path2516"
       transform="translate(-7.24,-7.46)"
       d="m 91.73,7.76 a 13.92,13.92 0 0 1 13.92,13.92 v 0 V 92 A 13.92,13.92 0 0 1 91.73,105.92 H 21.45 A 13.92,13.92 0 0 1 7.54,92 V 21.67 A 13.83,13.83 0 0 1 21.27,7.76"
       class="cls-3"
       inkscape:connector-curvature="0"
       style="fill:#372720" />
    <path
       id="path2518"
       transform="translate(-7.24,-7.46)"
       d="m 91.66,7.85 a 13.89,13.89 0 0 1 13.89,13.89 v 0 70.14 A 13.89,13.89 0 0 1 91.66,105.77 H 21.52 A 13.89,13.89 0 0 1 7.63,91.88 V 21.74 A 13.8,13.8 0 0 1 21.34,7.85"
       class="cls-4"
       inkscape:connector-curvature="0"
       style="fill:#372721" />
    <path
       id="path2520"
       transform="translate(-7.24,-7.46)"
       d="m 91.59,8 a 13.86,13.86 0 0 1 13.86,13.86 v 0 70 a 13.86,13.86 0 0 1 -13.86,13.86 h -70 A 13.86,13.86 0 0 1 7.73,91.81 v -70 A 13.77,13.77 0 0 1 21.41,8"
       class="cls-4"
       inkscape:connector-curvature="0"
       style="fill:#372721" />
    <path
       id="path2522"
       transform="translate(-7.24,-7.46)"
       d="m 91.52,8 a 13.83,13.83 0 0 1 13.83,13.83 v 0 69.91 A 13.83,13.83 0 0 1 91.52,105.57 H 21.66 A 13.83,13.83 0 0 1 7.83,91.74 V 21.88 A 13.74,13.74 0 0 1 21.48,8"
       class="cls-5"
       inkscape:connector-curvature="0"
       style="fill:#382721" />
    <path
       id="path2524"
       transform="translate(-7.24,-7.46)"
       d="M 91.45,8.15 A 13.81,13.81 0 0 1 105.26,22 v 0 69.67 A 13.81,13.81 0 0 1 91.45,105.48 H 21.73 A 13.81,13.81 0 0 1 7.93,91.67 V 22 A 13.72,13.72 0 0 1 21.55,8.15"
       class="cls-5"
       inkscape:connector-curvature="0"
       style="fill:#382721" />
    <path
       id="path2526"
       transform="translate(-7.24,-7.46)"
       d="M 91.38,8.24 A 13.78,13.78 0 0 1 105.16,22 v 0 69.6 A 13.78,13.78 0 0 1 91.38,105.38 H 21.8 A 13.78,13.78 0 0 1 8,91.6 V 22 A 13.69,13.69 0 0 1 21.63,8.24"
       class="cls-6"
       inkscape:connector-curvature="0"
       style="fill:#382821" />
    <path
       id="path2528"
       transform="translate(-7.24,-7.46)"
       d="m 91.31,8.34 a 13.75,13.75 0 0 1 13.75,13.75 v 0 69.44 A 13.75,13.75 0 0 1 91.31,105.28 H 21.87 A 13.75,13.75 0 0 1 8.12,91.53 V 22.09 A 13.66,13.66 0 0 1 21.7,8.34"
       class="cls-6"
       inkscape:connector-curvature="0"
       style="fill:#382821" />
    <path
       id="path2530"
       transform="translate(-7.24,-7.46)"
       d="M 91.24,8.44 A 13.72,13.72 0 0 1 105,22.16 v 0 69.3 A 13.72,13.72 0 0 1 91.28,105.18 H 21.94 A 13.72,13.72 0 0 1 8.22,91.46 V 22.16 A 13.63,13.63 0 0 1 21.77,8.44"
       class="cls-7"
       inkscape:connector-curvature="0"
       style="fill:#392822" />
    <path
       id="path2532"
       transform="translate(-7.24,-7.46)"
       d="m 91.17,8.54 a 13.7,13.7 0 0 1 13.7,13.7 v 0 69.15 a 13.7,13.7 0 0 1 -13.7,13.7 H 22 A 13.7,13.7 0 0 1 8.3,91.39 V 22.23 A 13.61,13.61 0 0 1 21.84,8.54"
       class="cls-7"
       inkscape:connector-curvature="0"
       style="fill:#392822" />
    <path
       id="path2534"
       transform="translate(-7.24,-7.46)"
       d="m 91.1,8.64 a 13.67,13.67 0 0 1 13.67,13.66 v 0 69 A 13.67,13.67 0 0 1 91.1,105 h -69 A 13.67,13.67 0 0 1 8.42,91.32 v -69 A 13.58,13.58 0 0 1 21.91,8.64"
       class="cls-7"
       inkscape:connector-curvature="0"
       style="fill:#392822" />
    <path
       id="path2536"
       transform="translate(-7.24,-7.46)"
       d="m 91,8.73 a 13.64,13.64 0 0 1 13.64,13.64 v 0 68.88 A 13.64,13.64 0 0 1 91,104.89 H 22.15 A 13.64,13.64 0 0 1 8.51,91.25 V 22.37 A 13.55,13.55 0 0 1 22,8.73"
       class="cls-7"
       inkscape:connector-curvature="0"
       style="fill:#392822" />
    <path
       id="path2538"
       transform="translate(-7.24,-7.46)"
       d="m 91,8.83 a 13.61,13.61 0 0 1 13.61,13.61 v 0 68.74 A 13.61,13.61 0 0 1 91,104.79 H 22.22 A 13.61,13.61 0 0 1 8.61,91.18 V 22.44 A 13.52,13.52 0 0 1 22,8.83"
       class="cls-8"
       inkscape:connector-curvature="0"
       style="fill:#3a2922" />
    <path
       id="path2540"
       transform="translate(-7.24,-7.46)"
       d="m 90.89,8.93 a 13.58,13.58 0 0 1 13.58,13.58 v 0 68.6 A 13.58,13.58 0 0 1 90.89,104.7 H 22.29 A 13.58,13.58 0 0 1 8.71,91.11 V 22.51 A 13.5,13.5 0 0 1 22.12,8.93"
       class="cls-8"
       inkscape:connector-curvature="0"
       style="fill:#3a2922" />
    <path
       id="path2542"
       transform="translate(-7.24,-7.46)"
       d="m 90.82,9 a 13.56,13.56 0 0 1 13.56,13.56 v 0 V 91 A 13.56,13.56 0 0 1 90.82,104.6 H 22.36 A 13.56,13.56 0 0 1 8.81,91 V 22.58 A 13.47,13.47 0 0 1 22.19,9"
       class="cls-9"
       inkscape:connector-curvature="0"
       style="fill:#3a2923" />
    <path
       id="path2544"
       transform="translate(-7.24,-7.46)"
       d="m 90.75,9.12 a 13.53,13.53 0 0 1 13.53,13.53 v 0 V 91 A 13.53,13.53 0 0 1 90.75,104.5 H 22.43 A 13.53,13.53 0 0 1 8.9,91 V 22.65 A 13.44,13.44 0 0 1 22.26,9.12"
       class="cls-10"
       inkscape:connector-curvature="0"
       style="fill:#3b2923" />
    <path
       id="path2546"
       transform="translate(-7.24,-7.46)"
       d="m 90.68,9.22 a 13.5,13.5 0 0 1 13.5,13.5 v 0 68.18 a 13.5,13.5 0 0 1 -13.5,13.5 H 22.5 A 13.5,13.5 0 0 1 9,90.9 V 22.72 A 13.41,13.41 0 0 1 22.33,9.22"
       class="cls-10"
       inkscape:connector-curvature="0"
       style="fill:#3b2923" />
    <path
       id="path2548"
       transform="translate(-7.24,-7.46)"
       d="m 90.61,9.32 a 13.47,13.47 0 0 1 13.47,13.47 v 0 68 a 13.47,13.47 0 0 1 -13.47,13.47 h -68 A 13.47,13.47 0 0 1 9.1,90.83 v -68 A 13.39,13.39 0 0 1 22.4,9.32"
       class="cls-11"
       inkscape:connector-curvature="0"
       style="fill:#3b2a23" />
    <path
       id="path2550"
       transform="translate(-7.24,-7.46)"
       d="M 90.54,9.42 A 13.45,13.45 0 0 1 104,22.86 v 0 67.9 A 13.45,13.45 0 0 1 90.55,104.21 H 22.64 A 13.45,13.45 0 0 1 9.2,90.76 V 22.86 A 13.36,13.36 0 0 1 22.47,9.42"
       class="cls-11"
       inkscape:connector-curvature="0"
       style="fill:#3b2a23" />
    <path
       id="path2552"
       transform="translate(-7.24,-7.46)"
       d="m 90.47,9.51 a 13.42,13.42 0 0 1 13.42,13.42 v 0 67.76 A 13.42,13.42 0 0 1 90.47,104.11 H 22.71 A 13.42,13.42 0 0 1 9.3,90.69 V 22.93 A 13.33,13.33 0 0 1 22.54,9.51"
       class="cls-12"
       inkscape:connector-curvature="0"
       style="fill:#3c2a23" />
    <path
       id="path2554"
       transform="translate(-7.24,-7.46)"
       d="M 90.4,9.61 A 13.39,13.39 0 0 1 103.79,23 v 0 67.62 A 13.39,13.39 0 0 1 90.4,104 H 22.78 A 13.39,13.39 0 0 1 9.39,90.62 V 23 A 13.3,13.3 0 0 1 22.61,9.61"
       class="cls-12"
       inkscape:connector-curvature="0"
       style="fill:#3c2a23" />
    <path
       id="path2556"
       transform="translate(-7.24,-7.46)"
       d="m 90.33,9.71 a 13.36,13.36 0 0 1 13.37,13.36 v 0 67.48 A 13.36,13.36 0 0 1 90.34,103.91 H 22.85 A 13.36,13.36 0 0 1 9.49,90.55 V 23.07 A 13.28,13.28 0 0 1 22.68,9.71"
       class="cls-13"
       inkscape:connector-curvature="0"
       style="fill:#3c2a24" />
    <path
       id="path2558"
       transform="translate(-7.24,-7.46)"
       d="m 90.26,9.81 a 13.33,13.33 0 0 1 13.34,13.33 v 0 67.34 A 13.33,13.33 0 0 1 90.27,103.81 H 22.92 A 13.33,13.33 0 0 1 9.59,90.48 V 23.14 A 13.25,13.25 0 0 1 22.75,9.81"
       class="cls-14"
       inkscape:connector-curvature="0"
       style="fill:#3c2b24" />
    <path
       id="path2560"
       transform="translate(-7.24,-7.46)"
       d="m 90.19,9.91 a 13.31,13.31 0 0 1 13.31,13.3 v 0 67.2 A 13.31,13.31 0 0 1 90.19,103.72 H 23 A 13.31,13.31 0 0 1 9.69,90.41 V 23.21 A 13.22,13.22 0 0 1 22.82,9.91"
       class="cls-15"
       inkscape:connector-curvature="0"
       style="fill:#3d2b24" />
    <path
       id="path2562"
       transform="translate(-7.24,-7.46)"
       d="m 90.12,10 a 13.28,13.28 0 0 1 13.28,13.28 v 0 67.06 A 13.28,13.28 0 0 1 90.12,103.62 H 23.06 A 13.28,13.28 0 0 1 9.78,90.34 V 23.28 A 13.19,13.19 0 0 1 22.89,10"
       class="cls-15"
       inkscape:connector-curvature="0"
       style="fill:#3d2b24" />
    <path
       id="path2564"
       transform="translate(-7.24,-7.46)"
       d="m 90.05,10.1 a 13.25,13.25 0 0 1 13.25,13.25 v 0 66.92 A 13.25,13.25 0 0 1 90.05,103.52 H 23.13 A 13.25,13.25 0 0 1 9.88,90.27 V 23.35 A 13.17,13.17 0 0 1 23,10.1"
       class="cls-15"
       inkscape:connector-curvature="0"
       style="fill:#3d2b24" />
    <path
       id="path2566"
       transform="translate(-7.24,-7.46)"
       d="m 90,10.2 a 13.22,13.22 0 0 1 13.22,13.22 v 0 66.78 A 13.22,13.22 0 0 1 90,103.43 H 23.2 A 13.22,13.22 0 0 1 10,90.2 V 23.42 A 13.14,13.14 0 0 1 23,10.2"
       class="cls-15"
       inkscape:connector-curvature="0"
       style="fill:#3d2b24" />
    <path
       id="path2568"
       transform="translate(-7.24,-7.46)"
       d="m 89.91,10.3 a 13.2,13.2 0 0 1 13.2,13.2 v 0 66.63 a 13.2,13.2 0 0 1 -13.2,13.2 H 23.27 A 13.2,13.2 0 0 1 10.07,90.13 V 23.49 a 13.11,13.11 0 0 1 13,-13.2"
       class="cls-16"
       inkscape:connector-curvature="0"
       style="fill:#3e2b25" />
    <path
       id="path2570"
       transform="translate(-7.24,-7.46)"
       d="M 89.84,10.39 A 13.17,13.17 0 0 1 103,23.56 v 0 66.5 A 13.17,13.17 0 0 1 89.83,103.23 H 23.34 A 13.17,13.17 0 0 1 10.17,90.06 v -66.5 a 13.08,13.08 0 0 1 13,-13.17"
       class="cls-17"
       inkscape:connector-curvature="0"
       style="fill:#3e2c25" />
    <path
       id="path2572"
       transform="translate(-7.24,-7.46)"
       d="m 89.77,10.49 a 13.14,13.14 0 0 1 13.14,13.14 v 0 V 90 A 13.14,13.14 0 0 1 89.77,103.14 H 23.41 A 13.14,13.14 0 0 1 10.27,90 V 23.63 a 13.06,13.06 0 0 1 13,-13.14"
       class="cls-17"
       inkscape:connector-curvature="0"
       style="fill:#3e2c25" />
    <path
       id="path2574"
       transform="translate(-7.24,-7.46)"
       d="m 89.7,10.59 a 13.11,13.11 0 0 1 13.12,13.11 v 0 66.22 A 13.11,13.11 0 0 1 89.7,103 H 23.48 A 13.11,13.11 0 0 1 10.37,89.92 V 23.7 A 13,13 0 0 1 23.31,10.59"
       class="cls-18"
       inkscape:connector-curvature="0"
       style="fill:#3f2c25" />
    <path
       id="path2576"
       transform="translate(-7.24,-7.46)"
       d="m 89.63,10.69 a 13.09,13.09 0 0 1 13.09,13.09 v 0 66.07 A 13.09,13.09 0 0 1 89.63,102.94 H 23.55 A 13.09,13.09 0 0 1 10.47,89.85 V 23.77 A 13,13 0 0 1 23.38,10.69"
       class="cls-18"
       inkscape:connector-curvature="0"
       style="fill:#3f2c25" />
    <path
       id="path2578"
       transform="translate(-7.24,-7.46)"
       d="m 89.56,10.79 a 13.06,13.06 0 0 1 13.06,13.06 v 0 65.93 A 13.06,13.06 0 0 1 89.56,102.84 H 23.62 A 13.06,13.06 0 0 1 10.57,89.78 V 23.84 A 13,13 0 0 1 23.45,10.79"
       class="cls-18"
       inkscape:connector-curvature="0"
       style="fill:#3f2c25" />
    <path
       id="path2580"
       transform="translate(-7.24,-7.46)"
       d="m 89.49,10.88 a 13,13 0 0 1 13,13 v 0 65.8 a 13,13 0 0 1 -13,13 h -65.8 a 13,13 0 0 1 -13,-13 V 23.91 a 13,13 0 0 1 12.86,-13"
       class="cls-19"
       inkscape:connector-curvature="0"
       style="fill:#3f2d26" />
    <path
       id="path2582"
       transform="translate(-7.24,-7.46)"
       d="m 89.42,11 a 13,13 0 0 1 13,13 v 0 65.64 a 13,13 0 0 1 -13,13 H 23.76 a 13,13 0 0 1 -13,-13 V 24 A 12.92,12.92 0 0 1 23.6,11"
       class="cls-20"
       inkscape:connector-curvature="0"
       style="fill:#402d26" />
    <path
       id="path2584"
       transform="translate(-7.24,-7.46)"
       d="m 89.35,11.08 a 13,13 0 0 1 13,13 v 0 65.49 a 13,13 0 0 1 -13,13 H 23.83 a 13,13 0 0 1 -13,-13 V 24.05 a 12.89,12.89 0 0 1 12.81,-13"
       class="cls-20"
       inkscape:connector-curvature="0"
       style="fill:#402d26" />
    <path
       id="path2586"
       transform="translate(-7.24,-7.46)"
       d="m 89.28,11.18 a 13,13 0 0 1 12.95,12.95 v 0 65.37 A 13,13 0 0 1 89.28,102.45 H 23.9 A 13,13 0 0 1 11,89.5 V 24.12 A 12.86,12.86 0 0 1 23.74,11.18"
       class="cls-20"
       inkscape:connector-curvature="0"
       style="fill:#402d26" />
    <path
       id="path2588"
       transform="translate(-7.24,-7.46)"
       d="m 89.21,11.27 a 12.92,12.92 0 0 1 12.92,12.92 v 0 65.24 A 12.92,12.92 0 0 1 89.21,102.35 H 24 A 12.92,12.92 0 0 1 11.05,89.43 V 24.19 A 12.84,12.84 0 0 1 23.81,11.27"
       class="cls-20"
       inkscape:connector-curvature="0"
       style="fill:#402d26" />
    <path
       id="path2590"
       transform="translate(-7.24,-7.46)"
       d="M 89.14,11.37 A 12.89,12.89 0 0 1 102,24.26 v 0 65.1 A 12.89,12.89 0 0 1 89.11,102.25 H 24 A 12.89,12.89 0 0 1 11.15,89.36 V 24.26 A 12.81,12.81 0 0 1 23.88,11.37"
       class="cls-21"
       inkscape:connector-curvature="0"
       style="fill:#412e26" />
    <path
       id="path2592"
       transform="translate(-7.24,-7.46)"
       d="m 89.07,11.47 a 12.86,12.86 0 0 1 12.86,12.86 v 0 65 a 12.86,12.86 0 0 1 -12.86,12.86 h -65 A 12.86,12.86 0 0 1 11.25,89.29 v -65 a 12.78,12.78 0 0 1 12.7,-12.86"
       class="cls-21"
       inkscape:connector-curvature="0"
       style="fill:#412e26" />
    <path
       id="path2594"
       transform="translate(-7.24,-7.46)"
       d="m 89,11.57 a 12.84,12.84 0 0 1 12.84,12.83 v 0 64.82 A 12.84,12.84 0 0 1 89,102.06 H 24.18 A 12.84,12.84 0 0 1 11.35,89.22 V 24.4 A 12.75,12.75 0 0 1 24,11.57"
       class="cls-22"
       inkscape:connector-curvature="0"
       style="fill:#412e27" />
    <path
       id="path2596"
       transform="translate(-7.24,-7.46)"
       d="m 88.93,11.66 a 12.81,12.81 0 0 1 12.81,12.81 v 0 64.68 A 12.81,12.81 0 0 1 88.93,102 H 24.25 A 12.81,12.81 0 0 1 11.45,89.15 V 24.47 A 12.73,12.73 0 0 1 24.09,11.66"
       class="cls-22"
       inkscape:connector-curvature="0"
       style="fill:#412e27" />
    <path
       id="path2598"
       transform="translate(-7.24,-7.46)"
       d="m 88.86,11.76 a 12.78,12.78 0 0 1 12.78,12.78 v 0 64.54 A 12.78,12.78 0 0 1 88.86,101.86 H 24.32 A 12.78,12.78 0 0 1 11.54,89.08 V 24.54 A 12.7,12.7 0 0 1 24.16,11.76"
       class="cls-23"
       inkscape:connector-curvature="0"
       style="fill:#422e27" />
    <path
       id="path2600"
       transform="translate(-7.24,-7.46)"
       d="m 88.79,11.86 a 12.75,12.75 0 0 1 12.75,12.75 v 0 V 89 A 12.75,12.75 0 0 1 88.79,101.75 H 24.39 A 12.75,12.75 0 0 1 11.64,89 V 24.61 A 12.67,12.67 0 0 1 24.23,11.86"
       class="cls-23"
       inkscape:connector-curvature="0"
       style="fill:#422e27" />
    <path
       id="path2602"
       transform="translate(-7.24,-7.46)"
       d="m 88.72,12 a 12.72,12.72 0 0 1 12.72,12.72 v 0 64.22 A 12.72,12.72 0 0 1 88.72,101.66 H 24.46 A 12.72,12.72 0 0 1 11.74,88.94 V 24.68 A 12.64,12.64 0 0 1 24.3,12"
       class="cls-24"
       inkscape:connector-curvature="0"
       style="fill:#422f27" />
    <path
       id="path2604"
       transform="translate(-7.24,-7.46)"
       d="m 88.65,12.06 a 12.7,12.7 0 0 1 12.7,12.7 v 0 64.11 a 12.7,12.7 0 0 1 -12.7,12.7 H 24.53 A 12.7,12.7 0 0 1 11.83,88.87 V 24.75 a 12.62,12.62 0 0 1 12.53,-12.7"
       class="cls-25"
       inkscape:connector-curvature="0"
       style="fill:#432f27" />
    <path
       id="path2606"
       transform="translate(-7.24,-7.46)"
       d="m 88.58,12.15 a 12.67,12.67 0 0 1 12.67,12.67 v 0 64 a 12.67,12.67 0 0 1 -12.67,12.67 h -64 A 12.67,12.67 0 0 1 11.93,88.8 v -64 A 12.59,12.59 0 0 1 24.44,12.15"
       class="cls-26"
       inkscape:connector-curvature="0"
       style="fill:#432f28" />
    <path
       id="path2608"
       transform="translate(-7.24,-7.46)"
       d="m 88.51,12.25 a 12.64,12.64 0 0 1 12.64,12.64 v 0 63.84 A 12.64,12.64 0 0 1 88.51,101.37 H 24.67 A 12.64,12.64 0 0 1 12,88.73 V 24.89 A 12.56,12.56 0 0 1 24.51,12.25"
       class="cls-26"
       inkscape:connector-curvature="0"
       style="fill:#432f28" />
    <path
       id="path2610"
       transform="translate(-7.24,-7.46)"
       d="M 88.44,12.35 A 12.61,12.61 0 0 1 101.06,25 v 0 63.7 A 12.61,12.61 0 0 1 88.45,101.31 H 24.74 A 12.61,12.61 0 0 1 12.13,88.66 V 25 A 12.53,12.53 0 0 1 24.58,12.35"
       class="cls-26"
       inkscape:connector-curvature="0"
       style="fill:#432f28" />
    <path
       id="path2612"
       transform="translate(-7.24,-7.46)"
       d="M 88.37,12.45 A 12.59,12.59 0 0 1 101,25 v 0 63.59 A 12.59,12.59 0 0 1 88.41,101.18 H 24.81 A 12.59,12.59 0 0 1 12.23,88.59 V 25 A 12.51,12.51 0 0 1 24.65,12.45"
       class="cls-27"
       inkscape:connector-curvature="0"
       style="fill:#443028" />
    <path
       id="path2614"
       transform="translate(-7.24,-7.46)"
       d="m 88.3,12.54 a 12.56,12.56 0 0 1 12.56,12.56 v 0 63.42 A 12.56,12.56 0 0 1 88.3,101.08 H 24.88 A 12.56,12.56 0 0 1 12.32,88.52 V 25.1 a 12.48,12.48 0 0 1 12.4,-12.56"
       class="cls-27"
       inkscape:connector-curvature="0"
       style="fill:#443028" />
    <path
       id="path2616"
       transform="translate(-7.24,-7.46)"
       d="m 88.23,12.64 a 12.53,12.53 0 0 1 12.53,12.53 v 0 63.28 A 12.53,12.53 0 0 1 88.23,101 H 25 A 12.53,12.53 0 0 1 12.42,88.45 V 25.17 A 12.45,12.45 0 0 1 24.79,12.64"
       class="cls-27"
       inkscape:connector-curvature="0"
       style="fill:#443028" />
    <path
       id="path2618"
       transform="translate(-7.24,-7.46)"
       d="m 88.16,12.74 a 12.5,12.5 0 0 1 12.5,12.5 v 0 63.14 a 12.5,12.5 0 0 1 -12.5,12.5 H 25 A 12.5,12.5 0 0 1 12.5,88.38 V 25.24 a 12.42,12.42 0 0 1 12.34,-12.5"
       class="cls-28"
       inkscape:connector-curvature="0"
       style="fill:#443029" />
    <path
       id="path2620"
       transform="translate(-7.24,-7.46)"
       d="m 88.09,12.84 a 12.48,12.48 0 0 1 12.48,12.48 v 0 63 A 12.48,12.48 0 0 1 88.09,100.8 h -63 A 12.48,12.48 0 0 1 12.62,88.31 v -63 A 12.4,12.4 0 0 1 24.93,12.84"
       class="cls-29"
       inkscape:connector-curvature="0"
       style="fill:#453029" />
    <path
       id="path2622"
       transform="translate(-7.24,-7.46)"
       d="m 88,12.94 a 12.45,12.45 0 0 1 12.45,12.45 v 0 62.85 A 12.45,12.45 0 0 1 88,100.69 H 25.16 A 12.45,12.45 0 0 1 12.72,88.24 V 25.38 A 12.37,12.37 0 0 1 25,12.94"
       class="cls-30"
       inkscape:connector-curvature="0"
       style="fill:#453129" />
    <path
       id="path2624"
       transform="translate(-7.24,-7.46)"
       d="m 88,13 a 12.42,12.42 0 0 1 12.42,12.42 v 0 62.75 A 12.42,12.42 0 0 1 88,100.59 H 25.23 A 12.42,12.42 0 0 1 12.81,88.17 V 25.45 A 12.34,12.34 0 0 1 25.07,13"
       class="cls-30"
       inkscape:connector-curvature="0"
       style="fill:#453129" />
    <path
       id="path2626"
       transform="translate(-7.24,-7.46)"
       d="m 87.88,13.13 a 12.39,12.39 0 0 1 12.39,12.39 v 0 62.58 A 12.39,12.39 0 0 1 87.88,100.5 H 25.3 A 12.39,12.39 0 0 1 12.91,88.1 V 25.52 A 12.31,12.31 0 0 1 25.14,13.13"
       class="cls-31"
       inkscape:connector-curvature="0"
       style="fill:#463129" />
    <path
       id="path2628"
       transform="translate(-7.24,-7.46)"
       d="m 87.81,13.23 a 12.36,12.36 0 0 1 12.36,12.36 v 0 V 88 A 12.36,12.36 0 0 1 87.81,100.4 H 25.37 A 12.36,12.36 0 0 1 13,88 V 25.59 A 12.28,12.28 0 0 1 25.2,13.23"
       class="cls-31"
       inkscape:connector-curvature="0"
       style="fill:#463129" />
    <path
       id="path2630"
       transform="translate(-7.24,-7.46)"
       d="m 87.74,13.33 a 12.34,12.34 0 0 1 12.34,12.34 v 0 V 88 A 12.34,12.34 0 0 1 87.74,100.3 H 25.44 A 12.34,12.34 0 0 1 13.11,88 V 25.66 A 12.26,12.26 0 0 1 25.28,13.33"
       class="cls-32"
       inkscape:connector-curvature="0"
       style="fill:#46312a" />
    <path
       id="path2632"
       transform="translate(-7.24,-7.46)"
       d="M 87.67,13.42 A 12.31,12.31 0 0 1 100,25.73 v 0 62.16 A 12.31,12.31 0 0 1 87.67,100.2 H 25.51 A 12.31,12.31 0 0 1 13.2,87.89 V 25.73 A 12.23,12.23 0 0 1 25.35,13.42"
       class="cls-32"
       inkscape:connector-curvature="0"
       style="fill:#46312a" />
    <path
       id="path2634"
       transform="translate(-7.24,-7.46)"
       d="M 87.6,13.52 A 12.28,12.28 0 0 1 99.88,25.8 v 0 62 A 12.28,12.28 0 0 1 87.6,100.1 h -62 A 12.28,12.28 0 0 1 13.3,87.82 v -62 a 12.2,12.2 0 0 1 12.12,-12.3"
       class="cls-33"
       inkscape:connector-curvature="0"
       style="fill:#47322a" />
    <path
       id="path2636"
       transform="translate(-7.24,-7.46)"
       d="m 87.53,13.62 a 12.25,12.25 0 0 1 12.26,12.25 v 0 61.88 A 12.25,12.25 0 0 1 87.53,100 H 25.65 A 12.25,12.25 0 0 1 13.4,87.75 V 25.87 A 12.17,12.17 0 0 1 25.5,13.62"
       class="cls-33"
       inkscape:connector-curvature="0"
       style="fill:#47322a" />
    <path
       id="path2638"
       transform="translate(-7.24,-7.46)"
       d="m 87.46,13.72 a 12.23,12.23 0 0 1 12.23,12.22 v 0 61.74 A 12.23,12.23 0 0 1 87.46,99.91 H 25.72 A 12.23,12.23 0 0 1 13.5,87.68 V 25.94 A 12.15,12.15 0 0 1 25.57,13.72"
       class="cls-33"
       inkscape:connector-curvature="0"
       style="fill:#47322a" />
    <path
       id="path2640"
       transform="translate(-7.24,-7.46)"
       d="M 87.39,13.81 A 12.2,12.2 0 0 1 99.59,26 v 0 61.6 A 12.2,12.2 0 0 1 87.39,99.8 H 25.79 A 12.2,12.2 0 0 1 13.59,87.6 V 26 a 12.12,12.12 0 0 1 12,-12.2"
       class="cls-33"
       inkscape:connector-curvature="0"
       style="fill:#47322a" />
    <path
       id="path2642"
       transform="translate(-7.24,-7.46)"
       d="m 87.32,13.91 a 12.17,12.17 0 0 1 12.17,12.17 v 0 61.46 A 12.17,12.17 0 0 1 87.32,99.71 H 25.86 A 12.17,12.17 0 0 1 13.69,87.54 V 26.08 a 12.09,12.09 0 0 1 12,-12.17"
       class="cls-34"
       inkscape:connector-curvature="0"
       style="fill:#48322a" />
    <path
       id="path2644"
       transform="translate(-7.24,-7.46)"
       d="M 87.25,14 A 12.14,12.14 0 0 1 99.4,26.15 v 0 61.32 A 12.14,12.14 0 0 1 87.25,99.62 H 25.93 A 12.14,12.14 0 0 1 13.79,87.47 V 26.15 A 12.06,12.06 0 0 1 25.78,14"
       class="cls-35"
       inkscape:connector-curvature="0"
       style="fill:#48332b" />
    <path
       id="path2646"
       transform="translate(-7.24,-7.46)"
       d="M 87.18,14.11 A 12.11,12.11 0 0 1 99.3,26.22 v 0 61.18 A 12.11,12.11 0 0 1 87.18,99.52 H 26 A 12.11,12.11 0 0 1 13.89,87.4 V 26.22 a 12,12 0 0 1 12,-12.11"
       class="cls-35"
       inkscape:connector-curvature="0"
       style="fill:#48332b" />
    <path
       id="path2648"
       transform="translate(-7.24,-7.46)"
       d="M 87.11,14.21 A 12.09,12.09 0 0 1 99.2,26.29 v 0 61 A 12.09,12.09 0 0 1 87.11,99.42 h -61 A 12.09,12.09 0 0 1 14,87.33 v -61 A 12,12 0 0 1 25.92,14.21"
       class="cls-35"
       inkscape:connector-curvature="0"
       style="fill:#48332b" />
    <path
       id="path2650"
       transform="translate(-7.24,-7.46)"
       d="m 87,14.3 a 12.06,12.06 0 0 1 12.1,12.06 v 0 60.9 A 12.06,12.06 0 0 1 87,99.32 H 26.14 A 12.06,12.06 0 0 1 14.08,87.26 V 26.36 A 12,12 0 0 1 26,14.3"
       class="cls-36"
       inkscape:connector-curvature="0"
       style="fill:#49332b" />
    <path
       id="path2652"
       transform="translate(-7.24,-7.46)"
       d="m 87,14.4 a 12,12 0 0 1 12,12 v 0 60.79 a 12,12 0 0 1 -12,12 H 26.21 a 12,12 0 0 1 -12,-12 V 26.43 a 12,12 0 0 1 11.88,-12"
       class="cls-36"
       inkscape:connector-curvature="0"
       style="fill:#49332b" />
    <path
       id="path2654"
       transform="translate(-7.24,-7.46)"
       d="m 86.9,14.5 a 12,12 0 0 1 12,12 v 0 60.62 a 12,12 0 0 1 -12,12 H 26.28 a 12,12 0 0 1 -12,-12 V 26.5 a 11.93,11.93 0 0 1 11.85,-12"
       class="cls-37"
       inkscape:connector-curvature="0"
       style="fill:#49342b" />
    <path
       id="path2656"
       transform="translate(-7.24,-7.46)"
       d="m 86.83,14.6 a 12,12 0 0 1 12,12 v 0 60.45 a 12,12 0 0 1 -12,12 H 26.35 a 12,12 0 0 1 -12,-12 V 26.57 a 11.9,11.9 0 0 1 11.82,-12"
       class="cls-38"
       inkscape:connector-curvature="0"
       style="fill:#4a342c" />
    <path
       id="path2658"
       transform="translate(-7.24,-7.46)"
       d="m 86.76,14.69 a 12,12 0 0 1 11.95,11.95 v 0 V 87 A 12,12 0 0 1 86.76,98.93 H 26.42 A 12,12 0 0 1 14.47,87 V 26.64 a 11.87,11.87 0 0 1 11.8,-11.95"
       class="cls-38"
       inkscape:connector-curvature="0"
       style="fill:#4a342c" />
    <path
       id="path2660"
       transform="translate(-7.24,-7.46)"
       d="m 86.69,14.79 a 11.92,11.92 0 0 1 11.92,11.92 v 0 60.2 A 11.92,11.92 0 0 1 86.69,98.83 H 26.49 A 11.92,11.92 0 0 1 14.57,86.91 V 26.71 A 11.84,11.84 0 0 1 26.34,14.79"
       class="cls-38"
       inkscape:connector-curvature="0"
       style="fill:#4a342c" />
    <path
       id="path2662"
       transform="translate(-7.24,-7.46)"
       d="m 86.62,14.89 a 11.89,11.89 0 0 1 11.9,11.89 v 0 60.06 a 11.89,11.89 0 0 1 -11.9,11.9 H 26.56 A 11.89,11.89 0 0 1 14.67,86.84 V 26.78 A 11.82,11.82 0 0 1 26.41,14.89"
       class="cls-38"
       inkscape:connector-curvature="0"
       style="fill:#4a342c" />
    <path
       id="path2664"
       transform="translate(-7.24,-7.46)"
       d="m 86.55,15 a 11.87,11.87 0 0 1 11.87,11.85 v 0 59.92 A 11.87,11.87 0 0 1 86.55,98.64 H 26.63 A 11.87,11.87 0 0 1 14.77,86.77 V 26.85 A 11.79,11.79 0 0 1 26.48,15"
       class="cls-39"
       inkscape:connector-curvature="0"
       style="fill:#4b342c" />
    <path
       id="path2666"
       transform="translate(-7.24,-7.46)"
       d="m 86.48,15.09 a 11.84,11.84 0 0 1 11.84,11.83 v 0 59.78 A 11.84,11.84 0 0 1 86.48,98.54 H 26.7 A 11.84,11.84 0 0 1 14.87,86.7 V 26.92 A 11.76,11.76 0 0 1 26.55,15.09"
       class="cls-40"
       inkscape:connector-curvature="0"
       style="fill:#4b352c" />
    <path
       id="path2668"
       transform="translate(-7.24,-7.46)"
       d="M 86.41,15.18 A 11.81,11.81 0 0 1 98.22,27 v 0 59.63 A 11.81,11.81 0 0 1 86.41,98.44 H 26.77 A 11.81,11.81 0 0 1 15,86.63 V 27 A 11.73,11.73 0 0 1 26.62,15.18"
       class="cls-41"
       inkscape:connector-curvature="0"
       style="fill:#4b352d" />
    <path
       id="path2670"
       transform="translate(-7.24,-7.46)"
       d="m 86.34,15.28 a 11.78,11.78 0 0 1 11.78,11.78 v 0 59.5 A 11.78,11.78 0 0 1 86.34,98.35 H 26.84 A 11.78,11.78 0 0 1 15.06,86.56 V 27.06 A 11.71,11.71 0 0 1 26.69,15.28"
       class="cls-41"
       inkscape:connector-curvature="0"
       style="fill:#4b352d" />
    <path
       id="path2672"
       transform="translate(-7.24,-7.46)"
       d="M 86.27,15.38 A 11.75,11.75 0 0 1 98,27.13 v 0 59.36 A 11.75,11.75 0 0 1 86.27,98.25 H 26.91 A 11.75,11.75 0 0 1 15.16,86.49 V 27.13 a 11.68,11.68 0 0 1 11.6,-11.75"
       class="cls-42"
       inkscape:connector-curvature="0"
       style="fill:#4c352d" />
    <path
       id="path2674"
       transform="translate(-7.24,-7.46)"
       d="M 86.2,15.48 A 11.73,11.73 0 0 1 97.93,27.2 v 0 59.22 A 11.73,11.73 0 0 1 86.2,98.15 H 27 A 11.73,11.73 0 0 1 15.26,86.42 V 27.2 A 11.65,11.65 0 0 1 26.83,15.48"
       class="cls-42"
       inkscape:connector-curvature="0"
       style="fill:#4c352d" />
    <path
       id="path2676"
       transform="translate(-7.24,-7.46)"
       d="m 86.13,15.57 a 11.7,11.7 0 0 1 11.7,11.7 v 0 59.08 a 11.7,11.7 0 0 1 -11.7,11.7 H 27.05 A 11.7,11.7 0 0 1 15.35,86.35 V 27.27 A 11.62,11.62 0 0 1 26.9,15.57"
       class="cls-43"
       inkscape:connector-curvature="0"
       style="fill:#4c362d" />
    <path
       id="path2678"
       transform="translate(-7.24,-7.46)"
       d="m 86.06,15.67 a 11.67,11.67 0 0 1 11.67,11.67 v 0 58.94 A 11.67,11.67 0 0 1 86.06,98 H 27.12 A 11.67,11.67 0 0 1 15.45,86.28 V 27.34 A 11.6,11.6 0 0 1 27,15.67"
       class="cls-43"
       inkscape:connector-curvature="0"
       style="fill:#4c362d" />
    <path
       id="path2680"
       transform="translate(-7.24,-7.46)"
       d="m 86,15.77 a 11.64,11.64 0 0 1 11.64,11.64 v 0 58.8 A 11.64,11.64 0 0 1 86,97.86 H 27.19 A 11.64,11.64 0 0 1 15.55,86.21 V 27.41 A 11.57,11.57 0 0 1 27,15.77"
       class="cls-44"
       inkscape:connector-curvature="0"
       style="fill:#4d362d" />
    <path
       id="path2682"
       transform="translate(-7.24,-7.46)"
       d="m 85.92,15.87 a 11.62,11.62 0 0 1 11.62,11.61 v 0 58.66 A 11.62,11.62 0 0 1 85.92,97.76 H 27.26 A 11.62,11.62 0 0 1 15.65,86.14 V 27.48 A 11.54,11.54 0 0 1 27.11,15.87"
       class="cls-45"
       inkscape:connector-curvature="0"
       style="fill:#4d362e" />
    <path
       id="path2684"
       transform="translate(-7.24,-7.46)"
       d="m 85.85,16 a 11.59,11.59 0 0 1 11.59,11.55 v 0 58.52 A 11.59,11.59 0 0 1 85.85,97.66 H 27.33 A 11.59,11.59 0 0 1 15.74,86.07 V 27.55 A 11.51,11.51 0 0 1 27.18,16"
       class="cls-45"
       inkscape:connector-curvature="0"
       style="fill:#4d362e" />
    <path
       id="path2686"
       transform="translate(-7.24,-7.46)"
       d="m 85.78,16.06 a 11.56,11.56 0 0 1 11.56,11.56 v 0 V 86 A 11.56,11.56 0 0 1 85.78,97.56 H 27.4 A 11.56,11.56 0 0 1 15.84,86 V 27.62 A 11.49,11.49 0 0 1 27.25,16.06"
       class="cls-46"
       inkscape:connector-curvature="0"
       style="fill:#4e372e" />
    <path
       id="path2688"
       transform="translate(-7.24,-7.46)"
       d="m 85.71,16.16 a 11.53,11.53 0 0 1 11.54,11.53 v 0 58.24 A 11.53,11.53 0 0 1 85.71,97.47 H 27.47 A 11.53,11.53 0 0 1 15.94,85.93 V 27.69 A 11.46,11.46 0 0 1 27.32,16.16"
       class="cls-46"
       inkscape:connector-curvature="0"
       style="fill:#4e372e" />
    <path
       id="path2690"
       transform="translate(-7.24,-7.46)"
       d="m 85.64,16.26 a 11.5,11.5 0 0 1 11.5,11.5 v 0 58.1 a 11.5,11.5 0 0 1 -11.5,11.5 H 27.54 A 11.5,11.5 0 0 1 16,85.86 v -58.1 a 11.43,11.43 0 0 1 11.36,-11.5"
       class="cls-46"
       inkscape:connector-curvature="0"
       style="fill:#4e372e" />
    <path
       id="path2692"
       transform="translate(-7.24,-7.46)"
       d="m 85.57,16.36 a 11.48,11.48 0 0 1 11.48,11.47 v 0 58 A 11.48,11.48 0 0 1 85.57,97.27 h -58 A 11.48,11.48 0 0 1 16.14,85.79 v -58 A 11.4,11.4 0 0 1 27.46,16.36"
       class="cls-46"
       inkscape:connector-curvature="0"
       style="fill:#4e372e" />
    <path
       id="path2694"
       transform="translate(-7.24,-7.46)"
       d="M 85.5,16.45 A 11.45,11.45 0 0 1 97,27.9 v 0 57.82 A 11.45,11.45 0 0 1 85.5,97.17 H 27.68 A 11.45,11.45 0 0 1 16.23,85.72 V 27.9 a 11.38,11.38 0 0 1 11.3,-11.45"
       class="cls-47"
       inkscape:connector-curvature="0"
       style="fill:#4f372f" />
    <path
       id="path2696"
       transform="translate(-7.24,-7.46)"
       d="M 85.43,16.55 A 11.42,11.42 0 0 1 96.85,28 v 0 57.65 A 11.42,11.42 0 0 1 85.43,97.07 H 27.75 A 11.42,11.42 0 0 1 16.33,85.65 V 28 A 11.35,11.35 0 0 1 27.61,16.55"
       class="cls-47"
       inkscape:connector-curvature="0"
       style="fill:#4f372f" />
    <path
       id="path2698"
       transform="translate(-7.24,-7.46)"
       d="M 85.36,16.65 A 11.39,11.39 0 0 1 96.76,28 v 0 57.58 A 11.39,11.39 0 0 1 85.36,97 H 27.82 A 11.39,11.39 0 0 1 16.43,85.58 V 28 A 11.32,11.32 0 0 1 27.68,16.65"
       class="cls-48"
       inkscape:connector-curvature="0"
       style="fill:#4f382f" />
    <path
       id="path2700"
       transform="translate(-7.24,-7.46)"
       d="m 85.29,16.75 a 11.37,11.37 0 0 1 11.37,11.36 v 0 57.4 A 11.37,11.37 0 0 1 85.29,96.88 H 27.89 A 11.37,11.37 0 0 1 16.53,85.51 V 28.11 A 11.29,11.29 0 0 1 27.75,16.75"
       class="cls-48"
       inkscape:connector-curvature="0"
       style="fill:#4f382f" />
    <path
       id="path2702"
       transform="translate(-7.24,-7.46)"
       d="m 85.22,16.84 a 11.34,11.34 0 0 1 11.34,11.34 v 0 57.26 A 11.34,11.34 0 0 1 85.22,96.78 H 28 A 11.34,11.34 0 0 1 16.62,85.44 V 28.18 a 11.27,11.27 0 0 1 11.2,-11.34"
       class="cls-49"
       inkscape:connector-curvature="0"
       style="fill:#50382f" />
    <path
       id="path2704"
       transform="translate(-7.24,-7.46)"
       d="m 85.15,16.94 a 11.31,11.31 0 0 1 11.31,11.31 v 0 57.12 A 11.31,11.31 0 0 1 85.15,96.68 H 28 A 11.31,11.31 0 0 1 16.72,85.37 V 28.25 A 11.24,11.24 0 0 1 27.89,16.94"
       class="cls-49"
       inkscape:connector-curvature="0"
       style="fill:#50382f" />
    <path
       id="path2706"
       transform="translate(-7.24,-7.46)"
       d="m 85.08,17 a 11.28,11.28 0 0 1 11.29,11.32 v 0 57 A 11.28,11.28 0 0 1 85.08,96.59 h -57 A 11.28,11.28 0 0 1 16.82,85.3 v -57 A 11.21,11.21 0 0 1 28,17"
       class="cls-50"
       inkscape:connector-curvature="0"
       style="fill:#503830" />
    <path
       id="path2708"
       transform="translate(-7.24,-7.46)"
       d="m 85,17.14 a 11.26,11.26 0 0 1 11.27,11.25 v 0 56.84 A 11.26,11.26 0 0 1 85,96.49 H 28.17 A 11.26,11.26 0 0 1 16.92,85.23 V 28.39 A 11.18,11.18 0 0 1 28,17.14"
       class="cls-51"
       inkscape:connector-curvature="0"
       style="fill:#503930" />
    <path
       id="path2710"
       transform="translate(-7.24,-7.46)"
       d="m 84.94,17.24 a 11.23,11.23 0 0 1 11.23,11.22 v 0 56.7 A 11.23,11.23 0 0 1 84.94,96.39 H 28.24 A 11.23,11.23 0 0 1 17,85.16 V 28.46 A 11.16,11.16 0 0 1 28.1,17.24"
       class="cls-52"
       inkscape:connector-curvature="0"
       style="fill:#513930" />
    <path
       id="path2712"
       transform="translate(-7.24,-7.46)"
       d="m 84.87,17.33 a 11.2,11.2 0 0 1 11.2,11.2 v 0 56.56 a 11.2,11.2 0 0 1 -11.2,11.2 H 28.31 A 11.2,11.2 0 0 1 17.11,85.09 V 28.53 a 11.13,11.13 0 0 1 11.06,-11.2"
       class="cls-52"
       inkscape:connector-curvature="0"
       style="fill:#513930" />
    <path
       id="path2714"
       transform="translate(-7.24,-7.46)"
       d="M 84.83,17.39 A 11.18,11.18 0 0 1 96,28.57 v 0 V 85 A 11.18,11.18 0 0 1 84.86,96.23 H 28.47 A 11.19,11.19 0 0 1 17.27,85.14 c -0.05,0 -0.09,-14.08 -0.09,-14.13 v -42.4 a 11.25,11.25 0 0 1 0.43,-3.17 11.11,11.11 0 0 1 10.61,-8 h 0.47"
       class="cls-52"
       inkscape:connector-curvature="0"
       style="fill:#513930" />
    <path
       id="path2716"
       transform="translate(-7.24,-7.46)"
       d="M 84.79,17.45 A 11.17,11.17 0 0 1 96,28.62 v 0 V 85 A 11.16,11.16 0 0 1 84.84,96.16 h -56.2 a 11.18,11.18 0 0 1 -11.22,-11 c -0.1,0 -0.19,-14 -0.19,-14.08 v -42.4 a 11.38,11.38 0 0 1 0.43,-3.17 11.09,11.09 0 0 1 10.6,-8.06 h 0.95"
       class="cls-53"
       inkscape:connector-curvature="0"
       style="fill:#523930" />
    <path
       id="path2718"
       transform="translate(-7.24,-7.46)"
       d="m 84.74,17.51 a 11.15,11.15 0 0 1 11.15,11.15 v 0 V 85 A 11.14,11.14 0 0 1 84.83,96.09 h -56 A 11.18,11.18 0 0 1 17.58,85.24 c -0.16,0 -0.28,-13.88 -0.28,-14 V 28.76 a 11.5,11.5 0 0 1 0.42,-3.17 11.07,11.07 0 0 1 10.58,-8.08 h 1.42"
       class="cls-54"
       inkscape:connector-curvature="0"
       style="fill:#523a30" />
    <path
       id="path2720"
       transform="translate(-7.24,-7.46)"
       d="M 84.7,17.57 A 11.14,11.14 0 0 1 95.83,28.7 v 0 56.21 A 11.11,11.11 0 0 1 84.81,96 c 0,0 -4.08,0 -4.12,0 H 29 c -6,0 -11.27,-4.77 -11.27,-10.71 -0.21,0 -0.37,-13.78 -0.38,-14 V 28.83 a 11.63,11.63 0 0 1 0.42,-3.18 11,11 0 0 1 10.57,-8.09 h 1.89"
       class="cls-55"
       inkscape:connector-curvature="0"
       style="fill:#523a31" />
    <path
       id="path2722"
       transform="translate(-7.24,-7.46)"
       d="m 84.66,17.63 a 11.12,11.12 0 0 1 11.11,11.11 v 0 56.13 A 11.09,11.09 0 0 1 84.8,96 c 0,0 -4.06,0 -4.11,0 H 29.12 c -5.88,0 -11.24,-4.77 -11.24,-10.65 -0.26,0 -0.47,-13.68 -0.47,-13.94 v -42.5 a 11.76,11.76 0 0 1 0.41,-3.18 11,11 0 0 1 10.56,-8.1 h 2.37"
       class="cls-55"
       inkscape:connector-curvature="0"
       style="fill:#523a31" />
    <path
       id="path2724"
       transform="translate(-7.24,-7.46)"
       d="m 84.61,17.68 a 11.1,11.1 0 0 1 11.1,11.1 v 0 56 A 11.07,11.07 0 0 1 84.78,95.9 c -0.05,0 -4,0 -4.09,0 H 29.29 C 23.47,95.92 18,91.2 18,85.39 c -0.31,0 -0.56,-13.58 -0.56,-13.9 V 29 A 11.9,11.9 0 0 1 17.85,25.82 11,11 0 0 1 28.4,17.7 h 2.84"
       class="cls-56"
       inkscape:connector-curvature="0"
       style="fill:#533a31" />
    <path
       id="path2726"
       transform="translate(-7.24,-7.46)"
       d="m 84.57,17.74 a 11.09,11.09 0 0 1 11.08,11.08 v 0 56 A 11.05,11.05 0 0 1 84.77,95.83 c -0.06,0 -4,0 -4.08,0 H 29.45 c -5.76,0 -11.25,-4.67 -11.25,-10.42 -0.36,0 -0.66,-13.49 -0.66,-13.85 v -42.5 a 12,12 0 0 1 0.41,-3.18 11,11 0 0 1 10.54,-8.13 h 3.31"
       class="cls-56"
       inkscape:connector-curvature="0"
       style="fill:#533a31" />
    <path
       id="path2728"
       transform="translate(-7.24,-7.46)"
       d="m 84.53,17.8 a 11.07,11.07 0 0 1 11.06,11.07 v 0 55.86 a 11,11 0 0 1 -10.84,11 c -0.07,0 -4,0 -4.07,0 H 29.61 c -5.7,0 -11.26,-4.62 -11.26,-10.31 -0.41,0 -0.75,-13.39 -0.75,-13.8 V 29.13 A 12.18,12.18 0 0 1 18,25.95 11,11 0 0 1 28.53,17.8 h 3.79"
       class="cls-57"
       inkscape:connector-curvature="0"
       style="fill:#533b31" />
    <path
       id="path2730"
       transform="translate(-7.24,-7.46)"
       d="m 84.48,17.86 a 11.05,11.05 0 0 1 11,11 v 0 55.83 a 11,11 0 0 1 -10.8,11 c -0.08,0 -4,0 -4.05,0 H 29.77 c -5.63,0 -11.27,-4.57 -11.27,-10.2 -0.47,0 -0.84,-13.29 -0.85,-13.76 V 29.21 a 12.32,12.32 0 0 1 0.4,-3.19 10.94,10.94 0 0 1 10.52,-8.16 h 4.26"
       class="cls-57"
       inkscape:connector-curvature="0"
       style="fill:#533b31" />
    <path
       id="path2732"
       transform="translate(-7.24,-7.46)"
       d="m 84.44,17.92 a 11,11 0 0 1 11,11 v 0 55.72 a 11,11 0 0 1 -10.75,11 c -0.09,0 -3.94,0 -4,0 H 29.93 c -5.57,0 -11.28,-4.52 -11.28,-10.09 -0.52,0 -0.94,-13.19 -0.94,-13.71 V 29.28 a 12.47,12.47 0 0 1 0.39,-3.19 10.92,10.92 0 0 1 10.51,-8.18 h 4.73"
       class="cls-58"
       inkscape:connector-curvature="0"
       style="fill:#543b32" />
    <path
       id="path2734"
       transform="translate(-7.24,-7.46)"
       d="m 84.4,18 a 11,11 0 0 1 11,11 v 0 55.6 a 11,11 0 0 1 -10.71,11 c -0.1,0 -3.92,0 -4,0 H 30.1 c -5.51,0 -11.29,-4.47 -11.29,-10 -0.57,0 -1,-13.09 -1,-13.66 V 29.36 A 12.62,12.62 0 0 1 18.2,26.17 10.9,10.9 0 0 1 28.66,18 h 5.21"
       class="cls-58"
       inkscape:connector-curvature="0"
       style="fill:#543b32" />
    <path
       id="path2736"
       transform="translate(-7.24,-7.46)"
       d="m 84.35,18 a 11,11 0 0 1 11,11 v 0 55.55 A 11,11 0 0 1 84.69,95.5 c -0.11,0 -3.9,0.05 -4,0.05 H 30.26 C 24.81,95.55 19,91.13 19,85.68 c -0.62,0 -1.12,-13 -1.13,-13.62 V 29.43 A 12.78,12.78 0 0 1 18.25,26.24 10.87,10.87 0 0 1 28.71,18 h 5.68"
       class="cls-58"
       inkscape:connector-curvature="0"
       style="fill:#543b32" />
    <path
       id="path2738"
       transform="translate(-7.24,-7.46)"
       d="m 84.31,18.09 a 11,11 0 0 1 11,11 v 0 55.42 A 10.93,10.93 0 0 1 84.67,95.43 c -0.12,0 -3.87,0.06 -4,0.06 H 30.42 c -5.39,0 -11.3,-4.37 -11.3,-9.76 -0.67,0 -1.22,-12.9 -1.22,-13.57 V 29.51 a 12.93,12.93 0 0 1 0.38,-3.19 10.85,10.85 0 0 1 10.48,-8.22 h 6.14"
       class="cls-58"
       inkscape:connector-curvature="0"
       style="fill:#543b32" />
    <path
       id="path2740"
       transform="translate(-7.24,-7.46)"
       d="m 84.27,18.15 a 11,11 0 0 1 11,11 v 0 55.31 A 10.91,10.91 0 0 1 84.7,95.36 c -0.12,0 -3.85,0.06 -4,0.06 H 30.58 C 25.25,95.42 19.27,91.1 19.27,85.77 18.55,85.77 18,73 18,72.25 V 29.58 a 13.09,13.09 0 0 1 0.38,-3.19 10.83,10.83 0 0 1 10.42,-8.24 h 6.63"
       class="cls-59"
       inkscape:connector-curvature="0"
       style="fill:#553c32" />
    <path
       id="path2742"
       transform="translate(-7.24,-7.46)"
       d="m 84.22,18.21 a 11,11 0 0 1 10.95,10.95 v 0 55.26 A 10.89,10.89 0 0 1 84.64,95.3 c -0.13,0 -3.83,0.07 -4,0.07 h -49.9 c -5.27,0 -11.32,-4.27 -11.32,-9.54 -0.78,0 -1.41,-12.7 -1.41,-13.48 V 29.66 a 13.26,13.26 0 0 1 0.37,-3.2 10.81,10.81 0 0 1 10.45,-8.25 h 7.1"
       class="cls-59"
       inkscape:connector-curvature="0"
       style="fill:#553c32" />
    <path
       id="path2744"
       transform="translate(-7.24,-7.46)"
       d="M 84.18,18.27 A 10.94,10.94 0 0 1 95.11,29.2 v 0 55.17 A 10.87,10.87 0 0 1 84.63,95.23 c -0.14,0 -3.8,0.07 -4,0.07 H 30.91 c -5.21,0 -11.32,-4.22 -11.32,-9.43 -0.83,0 -1.5,-12.6 -1.5,-13.43 V 29.73 a 13.43,13.43 0 0 1 0.37,-3.2 10.79,10.79 0 0 1 10.44,-8.26 h 7.57"
       class="cls-60"
       inkscape:connector-curvature="0"
       style="fill:#553c33" />
    <path
       id="path2746"
       transform="translate(-7.24,-7.46)"
       d="M 84.14,18.33 A 10.92,10.92 0 0 1 95,29.24 v 0 55.09 A 10.85,10.85 0 0 1 84.61,95.17 c -0.15,0 -3.78,0.07 -3.95,0.07 H 31.07 c -5.14,0 -11.33,-4.17 -11.33,-9.31 -0.88,0 -1.59,-12.51 -1.6,-13.39 V 29.81 a 13.6,13.6 0 0 1 0.36,-3.2 10.77,10.77 0 0 1 10.43,-8.28 h 8"
       class="cls-61"
       inkscape:connector-curvature="0"
       style="fill:#563c33" />
    <path
       id="path2748"
       transform="translate(-7.24,-7.46)"
       d="M 84.09,18.39 A 10.91,10.91 0 0 1 95,29.28 v 0 55 A 10.82,10.82 0 0 1 84.6,95.1 c -0.16,0.05 -3.76,0.08 -3.93,0.08 H 31.23 c -5.08,0 -11.34,-4.12 -11.34,-9.2 C 19,86 18.2,73.57 18.2,72.63 V 29.88 A 13.78,13.78 0 0 1 18.56,26.68 10.75,10.75 0 0 1 29,18.39 h 8.52"
       class="cls-61"
       inkscape:connector-curvature="0"
       style="fill:#563c33" />
    <path
       id="path2750"
       transform="translate(-7.24,-7.46)"
       d="m 84,18.44 a 10.89,10.89 0 0 1 10.93,10.88 v 0 54.92 A 10.8,10.8 0 0 1 84.58,95 c -0.17,0.05 -3.73,0.08 -3.92,0.08 H 31.39 C 26.37,95.12 20,91 20,86 19,86 18.22,73.69 18.21,72.71 V 30 A 14,14 0 0 1 18.56,26.8 10.73,10.73 0 0 1 29,18.44 h 9"
       class="cls-62"
       inkscape:connector-curvature="0"
       style="fill:#563d33" />
    <path
       id="path2752"
       transform="translate(-7.24,-7.46)"
       d="m 84,18.5 a 10.88,10.88 0 0 1 10.87,10.87 v 0 54.82 A 10.78,10.78 0 0 1 84.57,95 c -0.18,0.06 -3.71,0.09 -3.91,0.09 H 31.55 c -5,0 -11.36,-4 -11.36,-9 -1,0 -1.87,-12.21 -1.88,-13.25 V 30 a 14.15,14.15 0 0 1 0.35,-3.21 10.71,10.71 0 0 1 10.4,-8.32 h 9.47"
       class="cls-62"
       inkscape:connector-curvature="0"
       style="fill:#563d33" />
    <path
       id="path2754"
       transform="translate(-7.24,-7.46)"
       d="m 84,18.56 a 10.86,10.86 0 0 1 10.81,10.85 v 0 54.74 A 10.76,10.76 0 0 1 84.55,94.9 c -0.19,0.06 -3.69,0.09 -3.89,0.09 H 31.72 c -4.9,0 -11.36,-4 -11.36,-8.87 -1.09,0 -2,-12.11 -2,-13.2 V 30.11 A 14.34,14.34 0 0 1 18.71,26.9 10.69,10.69 0 0 1 29.1,18.56 H 39"
       class="cls-63"
       inkscape:connector-curvature="0"
       style="fill:#573d33" />
    <path
       id="path2756"
       transform="translate(-7.24,-7.46)"
       d="m 83.92,18.62 a 10.84,10.84 0 0 1 10.83,10.83 v 0 54.65 A 10.74,10.74 0 0 1 84.54,94.83 c -0.19,0.06 -3.67,0.1 -3.88,0.1 H 31.88 C 27,94.93 20.51,91 20.51,86.17 c -1.14,0 -2.06,-12 -2.07,-13.16 V 30.18 A 14.54,14.54 0 0 1 18.78,27 10.67,10.67 0 0 1 29.16,18.65 h 10.41"
       class="cls-63"
       inkscape:connector-curvature="0"
       style="fill:#573d33" />
    <path
       id="path2758"
       transform="translate(-7.24,-7.46)"
       d="m 83.88,18.68 a 10.83,10.83 0 0 1 10.81,10.81 v 0 54.57 A 10.72,10.72 0 0 1 84.52,94.77 c -0.2,0.06 -3.64,0.1 -3.87,0.1 H 32 C 27.22,94.87 20.62,91 20.62,86.22 19.43,86.22 18.46,74.3 18.46,73.11 V 30.26 A 14.74,14.74 0 0 1 18.83,27 10.66,10.66 0 0 1 29.2,18.68 h 10.88"
       class="cls-64"
       inkscape:connector-curvature="0"
       style="fill:#573d34" />
    <path
       id="path2760"
       transform="translate(-7.24,-7.46)"
       d="m 83.83,18.74 a 10.81,10.81 0 0 1 10.8,10.8 v 0 V 84 A 10.71,10.71 0 0 1 84.5,94.7 c -0.21,0.07 -3.62,0.1 -3.85,0.11 H 32.2 c -4.72,0 -11.39,-3.82 -11.39,-8.54 -1.24,0 -2.25,-11.82 -2.26,-13.06 V 30.33 a 15,15 0 0 1 0.33,-3.21 10.64,10.64 0 0 1 10.35,-8.38 H 40.6"
       class="cls-65"
       inkscape:connector-curvature="0"
       style="fill:#573e34" />
    <path
       id="path2762"
       transform="translate(-7.24,-7.46)"
       d="m 83.79,18.8 a 10.79,10.79 0 0 1 10.78,10.77 v 0 V 84 A 10.69,10.69 0 0 1 84.49,94.64 c -0.22,0.07 -3.6,0.11 -3.84,0.11 H 32.36 C 27.71,94.75 21,91 21,86.32 c -1.3,0 -2.34,-11.72 -2.35,-13 V 30.4 a 15.16,15.16 0 0 1 0.33,-3.21 10.62,10.62 0 0 1 10.31,-8.39 h 11.83"
       class="cls-66"
       inkscape:connector-curvature="0"
       style="fill:#583e34" />
    <path
       id="path2764"
       transform="translate(-7.24,-7.46)"
       d="m 83.75,18.85 a 10.78,10.78 0 0 1 10.76,10.77 v 0 54.3 a 10.67,10.67 0 0 1 -10,10.65 c -0.23,0.07 -3.57,0.11 -3.83,0.11 H 32.53 c -4.59,0 -11.4,-3.72 -11.4,-8.32 -1.35,0 -2.44,-11.62 -2.45,-13 V 30.48 A 15.38,15.38 0 0 1 19,27.26 10.6,10.6 0 0 1 29.33,18.85 h 12.3"
       class="cls-66"
       inkscape:connector-curvature="0"
       style="fill:#583e34" />
    <path
       id="path2766"
       transform="translate(-7.24,-7.46)"
       d="m 83.7,18.91 a 10.76,10.76 0 0 1 10.75,10.75 v 0 54.22 a 10.65,10.65 0 0 1 -10,10.63 c -0.24,0.08 -3.55,0.12 -3.81,0.12 h -48 c -4.53,0 -11.41,-3.67 -11.41,-8.21 -1.4,0 -2.53,-11.53 -2.54,-12.92 V 30.55 a 15.61,15.61 0 0 1 0.32,-3.22 10.58,10.58 0 0 1 10.32,-8.42 h 12.83"
       class="cls-66"
       inkscape:connector-curvature="0"
       style="fill:#583e34" />
    <path
       id="path2768"
       transform="translate(-7.24,-7.46)"
       d="m 83.66,19 a 10.75,10.75 0 0 1 10.73,10.7 v 0 54.13 a 10.63,10.63 0 0 1 -9.94,10.61 c -0.25,0.08 -3.53,0.12 -3.8,0.12 h -47.8 c -4.47,0 -11.42,-3.62 -11.42,-8.1 C 20,86.46 18.81,75 18.8,73.59 v -43 A 15.84,15.84 0 0 1 19.12,27.37 10.56,10.56 0 0 1 29.42,19 h 13.25"
       class="cls-66"
       inkscape:connector-curvature="0"
       style="fill:#583e34" />
    <path
       id="path2770"
       transform="translate(-7.24,-7.46)"
       d="m 83.62,19 a 10.73,10.73 0 0 1 10.71,10.74 v 0 54 a 10.61,10.61 0 0 1 -9.9,10.58 c -0.26,0.08 -3.5,0.13 -3.79,0.13 H 33 c -4.41,0 -11.43,-3.57 -11.43,-8 -1.5,0 -2.72,-11.33 -2.73,-12.83 v -43 A 16.07,16.07 0 0 1 19.15,27.4 10.54,10.54 0 0 1 29.47,19 h 13.72"
       class="cls-67"
       inkscape:connector-curvature="0"
       style="fill:#593e35" />
    <path
       id="path2772"
       transform="translate(-7.24,-7.46)"
       d="m 83.57,19.09 a 10.71,10.71 0 0 1 10.7,10.7 v 0 54 A 10.59,10.59 0 0 1 84.41,94.3 c -0.27,0.08 -3.48,0.13 -3.77,0.13 H 33.17 c -4.35,0 -11.43,-3.52 -11.43,-7.87 -1.55,0 -2.81,-11.23 -2.82,-12.79 v -43 a 16.32,16.32 0 0 1 0.31,-3.22 10.52,10.52 0 0 1 10.29,-8.47 h 14.2"
       class="cls-68"
       inkscape:connector-curvature="0"
       style="fill:#593f35" />
    <path
       id="path2774"
       transform="translate(-7.24,-7.46)"
       d="m 83.53,19.15 a 10.7,10.7 0 0 1 10.68,10.67 v 0 53.88 A 10.57,10.57 0 0 1 84.4,94.24 c -0.27,0.09 -3.46,0.13 -3.76,0.14 H 33.34 C 29.05,94.38 21.9,90.9 21.9,86.62 20.29,86.6 19,75.48 19,73.87 v -43 a 16.57,16.57 0 0 1 0.3,-3.23 10.51,10.51 0 0 1 10.28,-8.48 h 14.65"
       class="cls-68"
       inkscape:connector-curvature="0"
       style="fill:#593f35" />
    <path
       id="path2776"
       transform="translate(-7.24,-7.46)"
       d="m 83.49,19.2 a 10.68,10.68 0 0 1 10.66,10.67 v 0 53.78 a 10.55,10.55 0 0 1 -9.76,10.52 c -0.28,0.09 -3.43,0.14 -3.75,0.14 H 33.5 c -4.23,0 -11.5,-3.42 -11.5,-7.65 -1.66,0 -3,-11 -3,-12.69 v -43 a 16.83,16.83 0 0 1 0.3,-3.23 10.49,10.49 0 0 1 10.3,-8.54 h 15.15"
       class="cls-69"
       inkscape:connector-curvature="0"
       style="fill:#5a3f35" />
    <path
       id="path2778"
       transform="translate(-7.24,-7.46)"
       d="m 83.44,19.26 a 10.66,10.66 0 0 1 10.65,10.65 v 0 53.7 a 10.53,10.53 0 0 1 -9.72,10.5 c -0.29,0.09 -3.41,0.14 -3.73,0.15 h -47 c -4.16,0 -11.46,-3.38 -11.46,-7.54 -1.71,0 -3.09,-10.94 -3.1,-12.65 V 31 a 17.09,17.09 0 0 1 0.29,-3.23 10.47,10.47 0 0 1 10.25,-8.51 h 15.64"
       class="cls-69"
       inkscape:connector-curvature="0"
       style="fill:#5a3f35" />
    <path
       id="path2780"
       transform="translate(-7.24,-7.46)"
       d="M 83.4,19.32 A 10.65,10.65 0 0 1 94,29.95 v 0 53.61 A 10.51,10.51 0 0 1 84.35,94 c -0.3,0.1 -3.39,0.15 -3.72,0.15 H 33.82 c -4.1,0 -11.46,-3.33 -11.46,-7.43 -1.76,0 -3.19,-10.84 -3.2,-12.6 V 31.08 a 17.37,17.37 0 0 1 0.29,-3.23 10.45,10.45 0 0 1 10.24,-8.53 h 16.09"
       class="cls-69"
       inkscape:connector-curvature="0"
       style="fill:#5a3f35" />
    <path
       id="path2782"
       transform="translate(-7.24,-7.46)"
       d="M 83.35,19.38 A 10.63,10.63 0 0 1 94,30 v 0 53.52 A 10.49,10.49 0 0 1 84.34,94 c -0.31,0.1 -3.37,0.15 -3.71,0.15 H 34 c -4,0 -11.47,-3.28 -11.47,-7.32 -1.81,0 -3.28,-10.74 -3.29,-12.55 V 31.15 a 17.65,17.65 0 0 1 0.29,-3.23 10.43,10.43 0 0 1 10.23,-8.54 H 46.3"
       class="cls-70"
       inkscape:connector-curvature="0"
       style="fill:#5a4036" />
    <path
       id="path2784"
       transform="translate(-7.24,-7.46)"
       d="M 83.31,19.44 A 10.62,10.62 0 0 1 93.91,30 v 0 53.47 a 10.47,10.47 0 0 1 -9.58,10.44 c -0.32,0.1 -3.34,0.16 -3.69,0.16 H 34.15 c -4,0 -11.48,-3.23 -11.48,-7.21 -1.87,0 -3.37,-10.64 -3.39,-12.51 V 31.23 A 17.94,17.94 0 0 1 19.56,28 10.42,10.42 0 0 1 29.78,19.45 h 17"
       class="cls-71"
       inkscape:connector-curvature="0"
       style="fill:#5b4036" />
    <path
       id="path2786"
       transform="translate(-7.24,-7.46)"
       d="m 83.27,19.5 a 10.6,10.6 0 0 1 10.58,10.57 v 0 53.36 A 10.46,10.46 0 0 1 84.31,93.84 C 83.98,93.94 80.99,94 80.63,94 H 34.31 C 30.39,94 22.82,90.82 22.82,86.9 20.9,86.9 19.35,76.36 19.34,74.44 V 31.3 a 18.25,18.25 0 0 1 0.28,-3.24 10.4,10.4 0 0 1 10.21,-8.56 h 17.51"
       class="cls-71"
       inkscape:connector-curvature="0"
       style="fill:#5b4036" />
    <path
       id="path2788"
       transform="translate(-7.24,-7.46)"
       d="m 83.22,19.56 a 10.58,10.58 0 0 1 10.57,10.56 v 0 53.26 a 10.44,10.44 0 0 1 -9.5,10.39 c -0.34,0.11 -3.3,0.17 -3.67,0.17 H 34.47 c -3.86,0 -11.5,-3.13 -11.5,-7 -2,0 -3.56,-10.45 -3.57,-12.42 V 31.38 a 18.56,18.56 0 0 1 0.27,-3.24 10.38,10.38 0 0 1 10.2,-8.58 h 18"
       class="cls-71"
       inkscape:connector-curvature="0"
       style="fill:#5b4036" />
    <path
       id="path2790"
       transform="translate(-7.24,-7.46)"
       d="m 83.18,19.61 a 10.57,10.57 0 0 1 10.55,10.55 v 0 53.18 a 10.42,10.42 0 0 1 -9.45,10.37 c -0.35,0.11 -3.27,0.17 -3.65,0.17 h -46 c -3.8,0 -11.5,-3.08 -11.5,-6.88 -2,0 -3.66,-10.35 -3.67,-12.37 V 31.45 a 18.88,18.88 0 0 1 0.27,-3.24 10.36,10.36 0 0 1 10.19,-8.6 h 18.45"
       class="cls-71"
       inkscape:connector-curvature="0"
       style="fill:#5b4036" />
    <path
       id="path2792"
       transform="translate(-7.24,-7.46)"
       d="M 83.14,19.67 A 10.55,10.55 0 0 1 93.66,30.2 v 0 53.09 A 10.4,10.4 0 0 1 84.25,93.64 C 83.9,93.75 81,93.81 80.61,93.82 H 34.79 c -3.74,0 -11.51,-3 -11.51,-6.76 -2.07,0 -3.75,-10.25 -3.76,-12.32 V 31.53 A 19.21,19.21 0 0 1 19.78,28.29 10.35,10.35 0 0 1 30,19.67 h 18.89"
       class="cls-72"
       inkscape:connector-curvature="0"
       style="fill:#5c4136" />
    <path
       id="path2794"
       transform="translate(-7.24,-7.46)"
       d="M 83.09,19.73 A 10.53,10.53 0 0 1 93.6,30.24 v 0 53 a 10.38,10.38 0 0 1 -9.36,10.33 c -0.36,0.11 -3.23,0.18 -3.63,0.18 H 35 c -3.67,0 -11.52,-3 -11.52,-6.65 -2.12,0 -3.84,-10.15 -3.86,-12.28 V 31.6 A 19.55,19.55 0 0 1 19.88,28.36 10.33,10.33 0 0 1 30,19.73 h 19.4"
       class="cls-72"
       inkscape:connector-curvature="0"
       style="fill:#5c4136" />
    <path
       id="path2796"
       transform="translate(-7.24,-7.46)"
       d="m 83.05,19.79 a 10.52,10.52 0 0 1 10.49,10.49 v 0 52.92 a 10.36,10.36 0 0 1 -9.32,10.31 c -0.37,0.12 -3.2,0.18 -3.61,0.18 H 35.12 c -3.61,0 -11.53,-2.93 -11.53,-6.54 -2.18,0 -3.94,-10.05 -4,-12.23 V 31.68 A 19.91,19.91 0 0 1 19.84,28.43 10.31,10.31 0 0 1 30,19.79 h 19.93"
       class="cls-73"
       inkscape:connector-curvature="0"
       style="fill:#5c4137" />
    <path
       id="path2798"
       transform="translate(-7.24,-7.46)"
       d="m 83,19.85 a 10.5,10.5 0 0 1 10.48,10.47 v 0 52.84 a 10.35,10.35 0 0 1 -9.27,10.29 c -0.38,0.12 -3.18,0.19 -3.6,0.19 H 35.28 c -3.55,0 -11.53,-2.88 -11.53,-6.43 -2.23,0 -4,-10 -4,-12.18 V 31.75 A 20.27,20.27 0 0 1 20,28.5 10.3,10.3 0 0 1 30.14,19.84 h 20.31"
       class="cls-73"
       inkscape:connector-curvature="0"
       style="fill:#5c4137" />
    <path
       id="path2800"
       transform="translate(-7.24,-7.46)"
       d="m 83,19.91 a 10.49,10.49 0 0 1 10.42,10.46 v 0 52.74 A 10.33,10.33 0 0 1 84.2,93.38 35.1,35.1 0 0 1 80.61,93.57 H 35.44 c -3.49,0 -11.54,-2.83 -11.54,-6.32 -2.28,0 -4.12,-9.86 -4.14,-12.14 V 31.83 A 20.65,20.65 0 0 1 20,28.58 10.28,10.28 0 0 1 30.13,19.91 H 51"
       class="cls-74"
       inkscape:connector-curvature="0"
       style="fill:#5d4137" />
    <path
       id="path2802"
       transform="translate(-7.24,-7.46)"
       d="m 82.92,20 a 10.47,10.47 0 0 1 10.44,10.41 v 0 52.65 a 10.31,10.31 0 0 1 -9.18,10.24 34.06,34.06 0 0 1 -3.57,0.2 h -45 c -3.43,0 -11.55,-2.78 -11.55,-6.21 -2.33,0 -4.22,-9.76 -4.23,-12.09 V 31.9 A 21,21 0 0 1 20.07,28.65 10.26,10.26 0 0 1 30.18,20 h 21.3"
       class="cls-74"
       inkscape:connector-curvature="0"
       style="fill:#5d4137" />
    <path
       id="path2804"
       transform="translate(-7.24,-7.46)"
       d="M 82.88,20 A 10.45,10.45 0 0 1 93.3,30.45 v 0 V 83 a 10.29,10.29 0 0 1 -9.14,10.22 33.07,33.07 0 0 1 -3.56,0.2 H 35.77 c -3.37,0 -11.56,-2.73 -11.56,-6.1 -2.38,0 -4.31,-9.66 -4.33,-12 V 32 A 21.46,21.46 0 0 1 20.12,28.75 10.25,10.25 0 0 1 30.23,20 H 52"
       class="cls-75"
       inkscape:connector-curvature="0"
       style="fill:#5d4237" />
    <path
       id="path2806"
       transform="translate(-7.24,-7.46)"
       d="m 82.83,20.08 a 10.44,10.44 0 0 1 10.41,10.41 v 0 V 83 A 10.28,10.28 0 0 1 84.15,93.2 32.11,32.11 0 0 1 80.6,93.41 H 35.93 c -3.31,0 -11.57,-2.68 -11.57,-6 -2.44,0 -4.41,-9.56 -4.42,-12 V 32.05 a 21.88,21.88 0 0 1 0.23,-3.26 10.23,10.23 0 0 1 10.1,-8.71 h 22.25"
       class="cls-76"
       inkscape:connector-curvature="0"
       style="fill:#5e4237" />
    <path
       id="path2808"
       transform="translate(-7.24,-7.46)"
       d="m 82.79,20.14 a 10.42,10.42 0 0 1 10.39,10.39 v 0 52.4 a 10.26,10.26 0 0 1 -9,10.18 31.2,31.2 0 0 1 -3.53,0.21 H 36.09 C 32.84,93.32 24.52,90.69 24.52,87.44 22,87.43 20,78 20,75.49 V 32.13 a 22.32,22.32 0 0 1 0.23,-3.26 10.21,10.21 0 0 1 10.09,-8.73 H 53"
       class="cls-77"
       inkscape:connector-curvature="0"
       style="fill:#5e4238" />
    <path
       id="path2810"
       transform="translate(-7.24,-7.46)"
       d="m 82.75,20.2 a 10.4,10.4 0 0 1 10.37,10.37 v 0 52.31 a 10.24,10.24 0 0 1 -9,10.16 30.33,30.33 0 0 1 -3.52,0.22 H 36.25 c -3.18,0 -11.58,-2.58 -11.58,-5.77 -2.54,0 -4.59,-9.37 -4.61,-11.91 V 32.2 a 22.78,22.78 0 0 1 0.22,-3.26 10.2,10.2 0 0 1 10.08,-8.74 h 23.19"
       class="cls-77"
       inkscape:connector-curvature="0"
       style="fill:#5e4238" />
    <path
       id="path2812"
       transform="translate(-7.24,-7.46)"
       d="m 82.7,20.26 a 10.39,10.39 0 0 1 10.36,10.36 v 0 52.22 a 10.22,10.22 0 0 1 -9,10.14 29.5,29.5 0 0 1 -3.51,0.22 H 36.41 c -3.12,0 -11.59,-2.53 -11.59,-5.66 -2.59,0 -4.69,-9.27 -4.7,-11.86 V 32.28 A 23.25,23.25 0 0 1 20.34,29 10.18,10.18 0 0 1 30.41,20.24 h 23.66"
       class="cls-77"
       inkscape:connector-curvature="0"
       style="fill:#5e4238" />
    <path
       id="path2814"
       transform="translate(-7.24,-7.46)"
       d="M 82.66,20.32 A 10.37,10.37 0 0 1 93,30.66 v 0 52.13 a 10.21,10.21 0 0 1 -8.91,10.12 28.7,28.7 0 0 1 -3.5,0.22 h -44 c -3.06,0 -11.6,-2.48 -11.6,-5.54 -2.64,0 -4.78,-9.17 -4.8,-11.81 V 32.35 a 23.75,23.75 0 0 1 0.22,-3.26 10.17,10.17 0 0 1 10.05,-8.77 h 24.13"
       class="cls-78"
       inkscape:connector-curvature="0"
       style="fill:#5f4338" />
    <path
       id="path2816"
       transform="translate(-7.24,-7.46)"
       d="M 82.62,20.37 A 10.36,10.36 0 0 1 92.94,30.7 v 0 52 a 10.19,10.19 0 0 1 -8.87,10.1 27.93,27.93 0 0 1 -3.48,0.23 H 36.74 c -3,0 -11.6,-2.43 -11.6,-5.43 -2.69,0 -4.87,-9.07 -4.89,-11.77 v -43.4 a 24.26,24.26 0 0 1 0.21,-3.26 10.15,10.15 0 0 1 10,-8.79 h 24.65"
       class="cls-78"
       inkscape:connector-curvature="0"
       style="fill:#5f4338" />
    <path
       id="path2818"
       transform="translate(-7.24,-7.46)"
       d="m 82.57,20.43 a 10.34,10.34 0 0 1 10.31,10.31 v 0 52 a 10.17,10.17 0 0 1 -8.82,10.07 27.19,27.19 0 0 1 -3.47,0.23 H 36.9 C 34,93 25.29,90.63 25.29,87.69 c -2.75,0 -5,-9 -5,-11.72 V 32.5 a 24.8,24.8 0 0 1 0.21,-3.27 10.13,10.13 0 0 1 10,-8.8 h 25.13"
       class="cls-78"
       inkscape:connector-curvature="0"
       style="fill:#5f4338" />
    <path
       id="path2820"
       transform="translate(-7.24,-7.46)"
       d="m 82.53,20.49 a 10.32,10.32 0 0 1 10.29,10.29 v 0 51.88 A 10.16,10.16 0 0 1 84,92.71 26.48,26.48 0 0 1 80.54,92.95 H 37.06 c -2.88,0 -11.62,-2.33 -11.62,-5.21 -2.8,0 -5.06,-8.88 -5.08,-11.67 V 32.58 a 25.36,25.36 0 0 1 0.2,-3.27 10.12,10.12 0 0 1 10,-8.82 h 25.58"
       class="cls-79"
       inkscape:connector-curvature="0"
       style="fill:#5f4339" />
    <path
       id="path2822"
       transform="translate(-7.24,-7.46)"
       d="m 82.49,20.55 a 10.31,10.31 0 0 1 10.27,10.27 v 0 51.79 a 10.14,10.14 0 0 1 -8.73,10 25.79,25.79 0 0 1 -3.44,0.24 H 37.22 c -2.82,0 -11.63,-2.28 -11.63,-5.1 -2.85,0 -5.16,-8.78 -5.17,-11.63 V 32.65 a 25.94,25.94 0 0 1 0.2,-3.27 10.1,10.1 0 0 1 10,-8.83 h 26"
       class="cls-80"
       inkscape:connector-curvature="0"
       style="fill:#604339" />
    <path
       id="path2824"
       transform="translate(-7.24,-7.46)"
       d="M 82.44,20.61 A 10.29,10.29 0 0 1 92.7,30.87 v 0 51.7 a 10.12,10.12 0 0 1 -8.69,10 25.13,25.13 0 0 1 -3.43,0.25 H 37.39 c -2.76,0 -11.64,-2.23 -11.64,-5 -2.9,0 -5.25,-8.68 -5.27,-11.58 V 32.73 a 26.55,26.55 0 0 1 0.19,-3.27 10.09,10.09 0 0 1 10,-8.85 h 26.5"
       class="cls-81"
       inkscape:connector-curvature="0"
       style="fill:#604439" />
    <path
       id="path2826"
       transform="translate(-7.24,-7.46)"
       d="m 82.4,20.67 a 10.27,10.27 0 0 1 10.24,10.24 v 0 51.61 a 10.11,10.11 0 0 1 -8.64,10 24.5,24.5 0 0 1 -3.42,0.25 h -43 c -2.69,0 -11.64,-2.18 -11.64,-4.88 -3,0 -5.34,-8.58 -5.36,-11.54 V 32.8 a 27.19,27.19 0 0 1 0.19,-3.27 10.07,10.07 0 0 1 10,-8.86 h 27"
       class="cls-81"
       inkscape:connector-curvature="0"
       style="fill:#604439" />
    <path
       id="path2828"
       transform="translate(-7.24,-7.46)"
       d="m 82.36,20.73 a 10.26,10.26 0 0 1 10.22,10.22 v 0 51.53 a 10.09,10.09 0 0 1 -8.6,10 23.89,23.89 0 0 1 -3.4,0.26 H 37.71 c -2.63,0 -11.65,-2.13 -11.65,-4.77 -3,0 -5.44,-8.48 -5.46,-11.49 v -43.6 a 27.86,27.86 0 0 1 0.19,-3.28 10.06,10.06 0 0 1 10,-8.87 h 27.43"
       class="cls-82"
       inkscape:connector-curvature="0"
       style="fill:#614439" />
    <path
       id="path2830"
       transform="translate(-7.24,-7.46)"
       d="M 82.31,20.78 A 10.24,10.24 0 0 1 92.52,31 v 0 51.43 A 10.08,10.08 0 0 1 84,92.38 23.3,23.3 0 0 1 80.61,92.64 H 37.87 c -2.57,0 -11.66,-2.09 -11.66,-4.66 -3.06,0 -5.53,-8.39 -5.55,-11.44 V 33 a 28.56,28.56 0 0 1 0.18,-3.28 10,10 0 0 1 10,-8.89 h 27.89"
       class="cls-82"
       inkscape:connector-curvature="0"
       style="fill:#614439" />
    <path
       id="path2832"
       transform="translate(-7.24,-7.46)"
       d="M 82.27,20.84 A 10.23,10.23 0 0 1 92.46,31 v 0 51.39 A 10.06,10.06 0 0 1 84,92.31 22.73,22.73 0 0 1 80.62,92.57 H 38 c -2.51,0 -11.67,-2 -11.67,-4.55 -3.11,0 -5.62,-8.29 -5.64,-11.4 V 33 a 29.29,29.29 0 0 1 0.18,-3.28 10,10 0 0 1 10,-8.9 h 28.4"
       class="cls-83"
       inkscape:connector-curvature="0"
       style="fill:#61443a" />
    <path
       id="path2834"
       transform="translate(-7.24,-7.46)"
       d="M 82.23,20.9 A 10.21,10.21 0 0 1 92.4,31.07 v 0 51.27 a 10,10 0 0 1 -8.46,9.9 22.18,22.18 0 0 1 -3.36,0.27 H 38.2 c -2.45,0 -11.67,-2 -11.67,-4.44 -3.16,0 -5.72,-8.19 -5.74,-11.35 V 33.1 A 30.06,30.06 0 0 1 21,29.82 10,10 0 0 1 30.9,20.9 h 28.87"
       class="cls-83"
       inkscape:connector-curvature="0"
       style="fill:#61443a" />
    <path
       id="path2836"
       transform="translate(-7.24,-7.46)"
       d="m 82.18,21 a 10.19,10.19 0 0 1 10.16,10.12 v 0 51.18 a 10,10 0 0 1 -8.42,9.88 21.64,21.64 0 0 1 -3.35,0.27 H 38.36 c -2.39,0 -11.68,-1.94 -11.68,-4.32 -3.21,0 -5.81,-8.09 -5.83,-11.3 V 33.18 A 30.87,30.87 0 0 1 21,29.89 10,10 0 0 1 30.95,21 h 29.34"
       class="cls-84"
       inkscape:connector-curvature="0"
       style="fill:#62453a" />
    <path
       id="path2838"
       transform="translate(-7.24,-7.46)"
       d="m 82.14,21 a 10.18,10.18 0 0 1 10.14,10.16 v 0 51.1 a 10,10 0 0 1 -8.37,9.86 21.13,21.13 0 0 1 -3.34,0.28 h -42 c -2.33,0 -11.69,-1.89 -11.69,-4.21 -3.26,0 -5.91,-8 -5.93,-11.26 V 33.25 A 31.72,31.72 0 0 1 21.07,30 10,10 0 0 1 31,21 h 29.81"
       class="cls-84"
       inkscape:connector-curvature="0"
       style="fill:#62453a" />
    <path
       id="path2840"
       transform="translate(-7.24,-7.46)"
       d="M 82.1,21.08 A 10.16,10.16 0 0 1 92.22,31.2 v 0 51 A 10,10 0 0 1 83.89,92 20.63,20.63 0 0 1 80.57,92.28 H 38.68 c -2.27,0 -11.7,-1.84 -11.7,-4.1 -3.32,0 -6,-7.9 -6,-11.21 V 33.32 A 32.62,32.62 0 0 1 21.13,30 10,10 0 0 1 31.04,21 h 30.28"
       class="cls-84"
       inkscape:connector-curvature="0"
       style="fill:#62453a" />
    <path
       id="path2842"
       transform="translate(-7.24,-7.46)"
       d="m 82.05,21.14 a 10.14,10.14 0 0 1 10.11,10.1 v 0 50.92 A 10,10 0 0 1 83.88,92 20.15,20.15 0 0 1 80.57,92.29 H 38.85 c -2.2,0 -11.71,-1.79 -11.71,-4 -3.37,0 -6.09,-7.8 -6.11,-11.17 V 33.4 c 0,-0.39 0.05,-2.93 0.16,-3.29 a 10,10 0 0 1 9.9,-9 h 30.75"
       class="cls-84"
       inkscape:connector-curvature="0"
       style="fill:#62453a" />
    <path
       id="path2844"
       transform="translate(-7.24,-7.46)"
       d="m 82,21.19 a 10.13,10.13 0 0 1 10.1,10.09 v 0 50.84 a 10,10 0 0 1 -8.24,9.8 19.69,19.69 0 0 1 -3.3,0.29 H 39 c -2.14,0 -11.71,-1.74 -11.71,-3.88 -3.42,0 -6.19,-7.7 -6.21,-11.12 V 33.47 c 0,-0.38 0.05,-2.94 0.15,-3.29 a 9.94,9.94 0 0 1 9.89,-9 h 31.24"
       class="cls-85"
       inkscape:connector-curvature="0"
       style="fill:#63453a" />
    <path
       id="path2846"
       transform="translate(-7.24,-7.46)"
       d="m 82,21.25 a 10.11,10.11 0 0 1 10,10.07 v 0 50.75 a 10,10 0 0 1 -8.19,9.78 19.24,19.24 0 0 1 -3.28,0.3 H 39.17 c -2.08,0 -11.72,-1.69 -11.72,-3.77 -3.47,0 -6.28,-7.6 -6.3,-11.07 V 33.55 c 0,-0.37 0,-3 0.15,-3.29 a 9.93,9.93 0 0 1 9.88,-9 h 31.7"
       class="cls-86"
       inkscape:connector-curvature="0"
       style="fill:#63463b" />
    <path
       id="path2848"
       transform="translate(-7.24,-7.46)"
       d="M 81.92,21.31 A 10.1,10.1 0 0 1 92,31.37 v 0 V 82 a 9.94,9.94 0 0 1 -8.15,9.76 18.8,18.8 0 0 1 -3.27,0.3 H 39.33 c -2,0 -11.73,-1.64 -11.73,-3.66 -3.52,0 -6.37,-7.5 -6.4,-11 V 33.62 c 0,-0.36 0,-3 0.14,-3.29 a 9.91,9.91 0 0 1 9.87,-9 H 63.4"
       class="cls-86"
       inkscape:connector-curvature="0"
       style="fill:#63463b" />
    <path
       id="path2850"
       transform="translate(-7.24,-7.46)"
       d="m 81.88,21.37 a 10.08,10.08 0 0 1 10,10 v 0 V 82 a 9.92,9.92 0 0 1 -8.1,9.73 18.38,18.38 0 0 1 -3.26,0.3 H 39.49 c -2,0 -11.74,-1.59 -11.74,-3.55 -3.58,0 -6.47,-7.41 -6.49,-11 V 33.7 c 0,-0.35 0,-3 0.14,-3.3 a 9.9,9.9 0 0 1 9.85,-9 h 32.66"
       class="cls-86"
       inkscape:connector-curvature="0"
       style="fill:#63463b" />
    <path
       id="path2852"
       transform="translate(-7.24,-7.46)"
       d="m 81.84,21.43 a 10.06,10.06 0 0 1 10,10 v 0 50.51 a 9.91,9.91 0 0 1 -8.06,9.71 18,18 0 0 1 -3.24,0.31 H 39.66 c -1.9,0 -11.74,-1.54 -11.74,-3.44 -3.63,0 -6.56,-7.31 -6.58,-10.93 V 33.77 c 0,-0.34 0,-3 0.13,-3.3 a 9.88,9.88 0 0 1 9.84,-9 h 33.12"
       class="cls-87"
       inkscape:connector-curvature="0"
       style="fill:#64463b" />
    <path
       id="path2854"
       transform="translate(-7.24,-7.46)"
       d="m 81.79,21.49 a 10,10 0 0 1 10,10 v 0 50.4 a 9.89,9.89 0 0 1 -8,9.69 17.57,17.57 0 0 1 -3.23,0.31 H 39.82 c -1.84,0 -11.75,-1.49 -11.75,-3.33 -3.68,0 -6.66,-7.21 -6.68,-10.89 V 33.85 c 0,-0.33 0,-3 0.13,-3.3 a 9.87,9.87 0 0 1 9.83,-9.06 H 65"
       class="cls-87"
       inkscape:connector-curvature="0"
       style="fill:#64463b" />
    <path
       id="path2856"
       transform="translate(-7.24,-7.46)"
       d="m 81.75,21.54 a 10,10 0 0 1 10,10 v 0 50.31 a 9.88,9.88 0 0 1 -8,9.67 17.18,17.18 0 0 1 -3.22,0.32 H 40 c -1.78,0 -11.76,-1.44 -11.76,-3.22 -3.73,0 -6.75,-7.11 -6.77,-10.84 V 33.92 c 0,-0.32 0,-3 0.13,-3.3 a 9.86,9.86 0 0 1 9.82,-9.08 h 34.05"
       class="cls-88"
       inkscape:connector-curvature="0"
       style="fill:#64473b" />
    <path
       id="path2858"
       transform="translate(-7.24,-7.46)"
       d="m 81.71,21.6 a 10,10 0 0 1 10,10 v 0 50.2 a 9.87,9.87 0 0 1 -7.93,9.65 16.81,16.81 0 0 1 -3.2,0.32 H 40.14 c -1.71,0 -11.77,-1.39 -11.77,-3.1 -3.78,0 -6.84,-7 -6.87,-10.8 V 34 c 0,-0.3 0,-3 0.12,-3.3 a 9.84,9.84 0 0 1 9.81,-9.09 H 66"
       class="cls-89"
       inkscape:connector-curvature="0"
       style="fill:#65473c" />
    <path
       id="path2860"
       transform="translate(-7.24,-7.46)"
       d="m 81.66,21.66 a 10,10 0 0 1 10,10 v 0 50.1 a 9.85,9.85 0 0 1 -7.88,9.63 16.45,16.45 0 0 1 -3.19,0.33 H 40.3 c -1.65,0 -11.78,-1.34 -11.78,-3 -3.83,0 -6.94,-6.92 -7,-10.75 v -43.9 c 0,-0.29 0,-3 0.12,-3.3 a 9.83,9.83 0 0 1 9.8,-9.11 h 35"
       class="cls-89"
       inkscape:connector-curvature="0"
       style="fill:#65473c" />
    <path
       id="path2862"
       transform="translate(-7.24,-7.46)"
       d="m 81.62,21.72 a 10,10 0 0 1 9.94,9.94 v 0 50.05 a 9.84,9.84 0 0 1 -7.84,9.61 16.09,16.09 0 0 1 -3.18,0.33 H 40.47 c -1.59,0 -11.78,-1.29 -11.78,-2.88 -3.89,0 -7,-6.82 -7.05,-10.7 V 34.15 c 0,-0.28 0,-3 0.11,-3.31 a 9.82,9.82 0 0 1 9.79,-9.12 H 67"
       class="cls-89"
       inkscape:connector-curvature="0"
       style="fill:#65473c" />
    <path
       id="path2864"
       transform="translate(-7.24,-7.46)"
       d="m 81.58,21.78 a 10,10 0 0 1 9.92,9.92 v 0 50 a 9.83,9.83 0 0 1 -7.79,9.59 15.75,15.75 0 0 1 -3.16,0.33 H 40.63 c -1.53,0 -11.79,-1.24 -11.79,-2.77 -3.94,0 -7.12,-6.72 -7.15,-10.66 V 34.22 c 0,-0.27 0,-3.06 0.11,-3.31 a 9.8,9.8 0 0 1 9.78,-9.14 h 36"
       class="cls-89"
       inkscape:connector-curvature="0"
       style="fill:#65473c" />
    <path
       id="path2866"
       transform="translate(-7.24,-7.46)"
       d="m 81.53,21.84 a 10,10 0 0 1 9.9,9.9 v 0 49.88 a 9.81,9.81 0 0 1 -7.75,9.56 15.42,15.42 0 0 1 -3.15,0.34 H 40.79 c -1.47,0 -11.8,-1.19 -11.8,-2.66 -4,0 -7.22,-6.62 -7.24,-10.61 v -44 c 0,-0.26 0,-3.07 0.1,-3.31 a 9.79,9.79 0 0 1 9.77,-9.15 h 36.44"
       class="cls-90"
       inkscape:connector-curvature="0"
       style="fill:#66473c" />
    <path
       id="path2868"
       transform="translate(-7.24,-7.46)"
       d="m 81.49,21.9 a 9.93,9.93 0 0 1 9.89,9.89 v 0 49.79 a 9.8,9.8 0 0 1 -7.7,9.54 15.09,15.09 0 0 1 -3.14,0.34 H 41 c -1.41,0 -11.81,-1.14 -11.81,-2.55 -4,0 -7.31,-6.52 -7.34,-10.56 v -44 c 0,-0.25 0,-3.08 0.1,-3.31 a 9.78,9.78 0 0 1 9.75,-9.17 h 36.88"
       class="cls-91"
       inkscape:connector-curvature="0"
       style="fill:#66483c" />
    <path
       id="path2870"
       transform="translate(-7.24,-7.46)"
       d="m 81.45,22 a 9.92,9.92 0 0 1 9.87,9.87 v 0 49.66 a 9.79,9.79 0 0 1 -7.66,9.52 14.78,14.78 0 0 1 -3.12,0.35 H 41.11 C 39.77,91.4 29.3,90.31 29.3,89 25.21,89 21.89,82.58 21.87,78.48 v -44 c 0,-0.24 0,-3.09 0.1,-3.31 A 9.76,9.76 0 0 1 31.71,22 H 69.1"
       class="cls-92"
       inkscape:connector-curvature="0"
       style="fill:#66483d" />
    <path
       id="path2872"
       transform="translate(-7.24,-7.46)"
       d="m 81.4,22 a 9.9,9.9 0 0 1 9.85,9.85 v 0 49.64 A 9.77,9.77 0 0 1 83.65,91 14.47,14.47 0 0 1 80.54,91.35 H 41.28 c -1.29,0 -11.82,-1 -11.82,-2.33 -4.15,0 -7.5,-6.33 -7.52,-10.47 v -44 c 0,-0.23 0,-3.11 0.09,-3.32 A 9.75,9.75 0 0 1 31.75,22 h 37.86"
       class="cls-92"
       inkscape:connector-curvature="0"
       style="fill:#66483d" />
    <path
       id="path2874"
       transform="translate(-7.24,-7.46)"
       d="m 81.36,22.07 a 9.88,9.88 0 0 1 9.84,9.84 v 0 49.53 a 9.76,9.76 0 0 1 -7.57,9.48 14.17,14.17 0 0 1 -3.1,0.36 H 41.44 c -1.22,0 -11.83,-1 -11.83,-2.22 C 25.41,89 22,82.83 22,78.64 v -44 c 0,-0.22 0,-3.12 0.09,-3.32 a 9.74,9.74 0 0 1 9.72,-9.21 h 38.32"
       class="cls-93"
       inkscape:connector-curvature="0"
       style="fill:#67483d" />
    <path
       id="path2876"
       transform="translate(-7.24,-7.46)"
       d="m 81.32,22.13 a 9.87,9.87 0 0 1 9.82,9.82 v 0 49.45 a 9.75,9.75 0 0 1 -7.52,9.46 13.88,13.88 0 0 1 -3.08,0.36 H 41.6 c -1.16,0 -11.84,-0.94 -11.84,-2.11 -4.25,0 -7.69,-6.13 -7.71,-10.38 V 34.67 c 0,-0.21 0,-3.13 0.08,-3.32 a 9.72,9.72 0 0 1 9.71,-9.22 h 38.81"
       class="cls-93"
       inkscape:connector-curvature="0"
       style="fill:#67483d" />
    <path
       id="path2878"
       transform="translate(-7.24,-7.46)"
       d="m 81.27,22.19 a 9.85,9.85 0 0 1 9.8,9.8 v 0 49.36 a 9.74,9.74 0 0 1 -7.48,9.44 13.6,13.6 0 0 1 -3.07,0.37 H 41.76 c -1.1,0 -11.85,-0.89 -11.85,-2 -4.3,0 -7.78,-6 -7.81,-10.33 V 34.75 c 0,-0.2 0,-3.14 0.08,-3.32 a 9.71,9.71 0 0 1 9.7,-9.24 h 39.29"
       class="cls-94"
       inkscape:connector-curvature="0"
       style="fill:#67493d" />
    <path
       id="path2880"
       transform="translate(-7.24,-7.46)"
       d="M 81.23,22.25 A 9.84,9.84 0 0 1 91,32 v 0 49.31 a 9.73,9.73 0 0 1 -7.43,9.42 13.32,13.32 0 0 1 -3.06,0.37 H 41.92 c -1,0 -11.85,-0.84 -11.85,-1.89 -4.35,0 -7.87,-5.93 -7.9,-10.29 v -44.1 c 0,-0.19 0,-3.15 0.07,-3.32 a 9.7,9.7 0 0 1 9.69,-9.25 h 39.76"
       class="cls-94"
       inkscape:connector-curvature="0"
       style="fill:#67493d" />
    <path
       id="path2882"
       transform="translate(-7.24,-7.46)"
       d="M 81.19,22.31 A 9.82,9.82 0 0 1 91,32.07 v 0 49.19 a 9.72,9.72 0 0 1 -7.39,9.39 13.05,13.05 0 0 1 -3,0.37 H 42.09 c -1,0 -11.86,-0.79 -11.86,-1.77 -4.4,0 -8,-5.84 -8,-10.24 V 34.9 c 0,-0.17 0,-3.17 0.07,-3.32 A 9.69,9.69 0 0 1 32,22.31 h 40.2"
       class="cls-95"
       inkscape:connector-curvature="0"
       style="fill:#68493d" />
    <path
       id="path2884"
       transform="translate(-7.24,-7.46)"
       d="m 81.14,22.36 a 9.8,9.8 0 0 1 9.75,9.75 v 0 49.1 a 9.7,9.7 0 0 1 -7.34,9.37 12.79,12.79 0 0 1 -3,0.38 h -38.3 c -0.92,0 -11.87,-0.74 -11.87,-1.66 -4.46,0 -8.06,-5.74 -8.09,-10.19 V 35 c 0,-0.16 0,-3.18 0.06,-3.33 A 9.67,9.67 0 0 1 32,22.36 h 40.7"
       class="cls-96"
       inkscape:connector-curvature="0"
       style="fill:#68493e" />
    <path
       id="path2886"
       transform="translate(-7.24,-7.46)"
       d="m 81.1,22.42 a 9.79,9.79 0 0 1 9.74,9.74 v 0 49 a 9.69,9.69 0 0 1 -7.3,9.35 12.54,12.54 0 0 1 -3,0.38 H 42.41 c -0.86,0 -11.88,-0.7 -11.88,-1.55 -4.51,0 -8.15,-5.64 -8.18,-10.15 V 35 c 0,-0.15 0,-3.19 0.06,-3.33 a 9.66,9.66 0 0 1 9.66,-9.3 h 41.17"
       class="cls-96"
       inkscape:connector-curvature="0"
       style="fill:#68493e" />
    <path
       id="path2888"
       transform="translate(-7.24,-7.46)"
       d="m 81.06,22.48 a 9.77,9.77 0 0 1 9.72,9.72 v 0 48.93 a 9.68,9.68 0 0 1 -7.25,9.33 12.29,12.29 0 0 1 -3,0.39 H 42.57 c -0.8,0 -11.88,-0.65 -11.88,-1.44 -4.56,0 -8.25,-5.54 -8.28,-10.1 V 35.12 c 0,-0.14 0,-3.2 0.06,-3.33 a 9.65,9.65 0 0 1 9.64,-9.31 h 41.65"
       class="cls-97"
       inkscape:connector-curvature="0"
       style="fill:#694a3e" />
    <path
       id="path2890"
       transform="translate(-7.24,-7.46)"
       d="m 81,22.54 a 9.75,9.75 0 0 1 9.7,9.7 v 0 48.84 a 9.67,9.67 0 0 1 -7.21,9.31 12,12 0 0 1 -3,0.39 H 42.73 c -0.73,0 -11.89,-0.6 -11.89,-1.33 -4.61,0 -8.34,-5.44 -8.37,-10.06 V 35.2 c 0,-0.13 0,-3.21 0.05,-3.33 a 9.64,9.64 0 0 1 9.63,-9.33 h 42.13"
       class="cls-97"
       inkscape:connector-curvature="0"
       style="fill:#694a3e" />
    <path
       id="path2892"
       transform="translate(-7.24,-7.46)"
       d="m 81,22.6 a 9.74,9.74 0 0 1 9.69,9.69 v 0 V 81 a 9.66,9.66 0 0 1 -7.16,9.29 11.81,11.81 0 0 1 -3,0.4 H 42.9 c -0.67,0 -11.9,-0.55 -11.9,-1.22 -4.66,0 -8.44,-5.35 -8.47,-10 v -44.2 c 0,-0.12 0,-3.22 0,-3.33 A 9.63,9.63 0 0 1 32.2,22.6 h 42.59"
       class="cls-97"
       inkscape:connector-curvature="0"
       style="fill:#694a3e" />
    <path
       id="path2894"
       transform="translate(-7.24,-7.46)"
       d="m 80.93,22.66 a 9.72,9.72 0 0 1 9.67,9.67 v 0 V 81 a 9.65,9.65 0 0 1 -7.12,9.27 11.58,11.58 0 0 1 -3,0.4 H 43.06 c -0.61,0 -11.91,-0.5 -11.91,-1.11 -4.71,0 -8.53,-5.25 -8.56,-10 V 35.35 c 0,-0.11 0,-3.24 0,-3.34 a 9.61,9.61 0 0 1 9.61,-9.35 h 43.11"
       class="cls-97"
       inkscape:connector-curvature="0"
       style="fill:#694a3e" />
    <path
       id="path2896"
       transform="translate(-7.24,-7.46)"
       d="m 80.88,22.71 a 9.71,9.71 0 0 1 9.65,9.65 v 0 48.59 a 9.64,9.64 0 0 1 -7.07,9.25 11.36,11.36 0 0 1 -3,0.41 H 43.22 c -0.55,0 -11.92,-0.45 -11.92,-1 -4.77,0 -8.62,-5.15 -8.65,-9.92 V 35.42 c 0,-0.1 0,-3.25 0,-3.34 a 9.6,9.6 0 0 1 9.6,-9.37 h 43.58"
       class="cls-98"
       inkscape:connector-curvature="0"
       style="fill:#6a4a3f" />
    <path
       id="path2898"
       transform="translate(-7.24,-7.46)"
       d="m 80.84,22.77 a 9.69,9.69 0 0 1 9.63,9.63 v 0 48.5 a 9.63,9.63 0 0 1 -7,9.23 11.14,11.14 0 0 1 -2.94,0.41 H 43.38 c -0.49,0 -11.92,-0.4 -11.92,-0.89 -4.82,0 -8.72,-5.05 -8.75,-9.87 V 35.5 c 0,-0.09 0,-3.26 0,-3.34 a 9.59,9.59 0 0 1 9.59,-9.38 h 44"
       class="cls-98"
       inkscape:connector-curvature="0"
       style="fill:#6a4a3f" />
    <path
       id="path2900"
       transform="translate(-7.24,-7.46)"
       d="m 80.8,22.83 a 9.67,9.67 0 0 1 9.62,9.62 v 0 48.41 a 9.62,9.62 0 0 1 -7,9.2 10.92,10.92 0 0 1 -2.92,0.41 h -37 c -0.43,0 -11.93,-0.35 -11.93,-0.78 -4.87,0 -8.81,-5 -8.84,-9.82 v -44.3 c 0,-0.08 0,-3.27 0,-3.34 a 9.58,9.58 0 0 1 9.58,-9.4 h 44.56"
       class="cls-99"
       inkscape:connector-curvature="0"
       style="fill:#6a4b3f" />
    <path
       id="path2902"
       transform="translate(-7.24,-7.46)"
       d="m 80.75,22.89 a 9.66,9.66 0 0 1 9.6,9.6 v 0 48.32 A 9.61,9.61 0 0 1 83.42,90 10.71,10.71 0 0 1 80.51,90.42 h -36.8 c -0.37,0 -11.94,-0.3 -11.94,-0.67 -4.92,0 -8.9,-4.86 -8.94,-9.78 V 35.65 c 0,-0.07 0,-3.28 0,-3.34 A 9.57,9.57 0 0 1 32.4,22.9 h 45"
       class="cls-99"
       inkscape:connector-curvature="0"
       style="fill:#6a4b3f" />
    <path
       id="path2904"
       transform="translate(-7.24,-7.46)"
       d="m 80.71,22.95 a 9.64,9.64 0 0 1 9.58,9.58 v 0 48.24 a 9.6,9.6 0 0 1 -6.89,9.16 10.51,10.51 0 0 1 -2.9,0.42 H 43.87 c -0.31,0 -11.95,-0.25 -11.95,-0.55 -5,0 -9,-4.76 -9,-9.73 V 35.72 c 0,-0.05 0,-3.3 0,-3.34 a 9.56,9.56 0 0 1 9.56,-9.43 H 77.9"
       class="cls-100"
       inkscape:connector-curvature="0"
       style="fill:#6b4b3f" />
    <path
       id="path2906"
       transform="translate(-7.24,-7.46)"
       d="m 80.67,23 a 9.62,9.62 0 0 1 9.57,9.57 v 0 48.15 a 9.6,9.6 0 0 1 -6.85,9.14 10.31,10.31 0 0 1 -2.88,0.43 H 44 c -0.24,0 -12,-0.2 -12,-0.44 -5,0 -9.09,-4.66 -9.12,-9.69 V 35.8 c 0,0 0,-3.31 0,-3.35 A 9.54,9.54 0 0 1 32.51,23 h 45.91"
       class="cls-100"
       inkscape:connector-curvature="0"
       style="fill:#6b4b3f" />
    <path
       id="path2908"
       transform="translate(-7.24,-7.46)"
       d="m 80.62,23.07 a 9.61,9.61 0 0 1 9.55,9.55 v 0 48.06 a 9.59,9.59 0 0 1 -6.8,9.12 10.11,10.11 0 0 1 -2.87,0.43 H 44.19 c -0.18,0 -12,-0.15 -12,-0.33 -5.08,0 -9.19,-4.56 -9.22,-9.64 V 35.87 c 0,0 0,-3.32 0,-3.35 a 9.53,9.53 0 0 1 9.53,-9.46 h 46.44"
       class="cls-101"
       inkscape:connector-curvature="0"
       style="fill:#6b4b40" />
    <path
       id="path2910"
       transform="translate(-7.24,-7.46)"
       d="m 80.58,23.12 a 9.59,9.59 0 0 1 9.53,9.53 v 0 48 a 9.58,9.58 0 0 1 -6.76,9.1 9.92,9.92 0 0 1 -2.86,0.44 H 44.35 c -0.12,0 -12,-0.1 -12,-0.22 A 9.62,9.62 0 0 1 23.04,80.38 V 35.95 c 0,0 0,-3.33 0,-3.35 a 9.52,9.52 0 0 1 9.52,-9.47 h 46.9"
       class="cls-102"
       inkscape:connector-curvature="0"
       style="fill:#6b4c40" />
    <path
       id="path2912"
       transform="translate(-7.24,-7.46)"
       d="m 80.54,23.18 a 9.58,9.58 0 0 1 9.52,9.52 v 0 47.89 a 9.57,9.57 0 0 1 -6.71,9.08 9.74,9.74 0 0 1 -2.84,0.44 h -36 c -0.06,0 -12,0 -12,-0.11 A 9.59,9.59 0 0 1 23.1,80.45 V 36 c 0,0 0,-3.34 0,-3.35 a 9.51,9.51 0 0 1 9.51,-9.49 H 80"
       class="cls-103"
       inkscape:connector-curvature="0"
       style="fill:#6c4c40" />
    <path
       id="path2914"
       transform="translate(-7.24,-7.46)"
       d="m 32.69,23.24 h 47.8 a 9.56,9.56 0 0 1 9.5,9.5 v 47.8 a 9.56,9.56 0 0 1 -9.5,9.5 h -47.8 a 9.56,9.56 0 0 1 -9.5,-9.5 v -47.8 a 9.5,9.5 0 0 1 9.5,-9.5 z"
       class="cls-103"
       inkscape:connector-curvature="0"
       style="fill:#6c4c40" />
  </g>
</svg>
