<?xml version="1.0" encoding="UTF-8" standalone="no"?>
<svg
   xmlns:dc="http://purl.org/dc/elements/1.1/"
   xmlns:cc="http://creativecommons.org/ns#"
   xmlns:rdf="http://www.w3.org/1999/02/22-rdf-syntax-ns#"
   xmlns:svg="http://www.w3.org/2000/svg"
   xmlns="http://www.w3.org/2000/svg"
   xmlns:sodipodi="http://sodipodi.sourceforge.net/DTD/sodipodi-0.dtd"
   xmlns:inkscape="http://www.inkscape.org/namespaces/inkscape"
   id="Слой_1"
   data-name="Слой 1"
   viewBox="0 0 98.7 98.7"
   version="1.1"
   sodipodi:docname="color1.svg"
   inkscape:version="0.92.1 r15371">
  <metadata
     id="metadata417">
    <rdf:RDF>
      <cc:Work
         rdf:about="">
        <dc:format>image/svg+xml</dc:format>
        <dc:type
           rdf:resource="http://purl.org/dc/dcmitype/StillImage" />
      </cc:Work>
    </rdf:RDF>
  </metadata>
  <sodipodi:namedview
     pagecolor="#ffffff"
     bordercolor="#666666"
     borderopacity="1"
     objecttolerance="10"
     gridtolerance="10"
     guidetolerance="10"
     inkscape:pageopacity="0"
     inkscape:pageshadow="2"
     inkscape:window-width="1920"
     inkscape:window-height="1031"
     id="namedview415"
     showgrid="false"
     inkscape:zoom="2.3910842"
     inkscape:cx="-3.7639829"
     inkscape:cy="49.349998"
     inkscape:window-x="0"
     inkscape:window-y="0"
     inkscape:window-maximized="1"
     inkscape:current-layer="Слой_1" />
  <defs
     id="defs4">
    <style
       id="style2">.cls-1{fill:#687550;}.cls-2{fill:#697650;}.cls-3{fill:#697651;}.cls-4{fill:#6a7751;}.cls-5{fill:#6a7752;}.cls-6{fill:#6b7852;}.cls-7{fill:#6c7953;}.cls-8{fill:#6c7a53;}.cls-9{fill:#6d7a54;}.cls-10{fill:#6d7b54;}.cls-11{fill:#6e7b54;}.cls-12{fill:#6e7c55;}.cls-13{fill:#6f7c55;}.cls-14{fill:#6f7d56;}.cls-15{fill:#707e56;}.cls-16{fill:#717f57;}.cls-17{fill:#728058;}.cls-18{fill:#738158;}.cls-19{fill:#738259;}.cls-20{fill:#748259;}.cls-21{fill:#74835a;}.cls-22{fill:#75835a;}.cls-23{fill:#75845a;}.cls-24{fill:#76855b;}.cls-25{fill:#77865b;}.cls-26{fill:#77865c;}.cls-27{fill:#78875c;}.cls-28{fill:#78875d;}.cls-29{fill:#79885d;}.cls-30{fill:#79895d;}.cls-31{fill:#7a895e;}.cls-32{fill:#7a8a5e;}.cls-33{fill:#7b8a5f;}.cls-34{fill:#7b8b5f;}.cls-35{fill:#7c8b5f;}.cls-36{fill:#7c8c60;}.cls-37{fill:#7d8d60;}.cls-38{fill:#7d8d61;}.cls-39{fill:#7e8e61;}.cls-40{fill:#7f8f62;}.cls-41{fill:#809063;}.cls-42{fill:#809163;}.cls-43{fill:#819163;}.cls-44{fill:#819264;}.cls-45{fill:#829264;}.cls-46{fill:#829365;}.cls-47{fill:#839365;}.cls-48{fill:#839465;}.cls-49{fill:#849566;}.cls-50{fill:#859667;}.cls-51{fill:#869767;}.cls-52{fill:#869768;}.cls-53{fill:#879868;}.cls-54{fill:#879969;}.cls-55{fill:#889969;}.cls-56{fill:#889a69;}.cls-57{fill:#899a6a;}.cls-58{fill:#899b6a;}.cls-59{fill:#8a9b6b;}.cls-60{fill:#8a9c6b;}.cls-61{fill:#8b9d6b;}.cls-62{fill:#8b9d6c;}.cls-63{fill:#8c9e6c;}.cls-64{fill:#8c9e6d;}.cls-65{fill:#8d9f6d;}.cls-66{fill:#8ea06e;}.cls-67{fill:#8ea16e;}.cls-68{fill:#8fa16e;}.cls-69{fill:#8fa26f;}.cls-70{fill:#90a26f;}.cls-71{fill:#90a370;}.cls-72{fill:#91a470;}.cls-73{fill:#92a571;}.cls-74{fill:#93a672;}.cls-75{fill:#94a772;}.cls-76{fill:#94a873;}.cls-77{fill:#95a873;}.cls-78{fill:#95a974;}.cls-79{fill:#96a974;}.cls-80{fill:#96aa74;}.cls-81{fill:#97aa75;}.cls-82{fill:#97ab75;}.cls-83{fill:#98ac76;}.cls-84{fill:#99ad76;}.cls-85{fill:#99ad77;}.cls-86{fill:#9aae77;}.cls-87{fill:#9aae78;}.cls-88{fill:#9baf78;}.cls-89{fill:#9cb078;}.cls-90{fill:#9cb079;}.cls-91{fill:#9db179;}.cls-92{fill:#9db17a;}.cls-93{fill:#9eb27a;}.cls-94{fill:#9eb37a;}.cls-95{fill:#9fb37b;}.cls-96{fill:#9fb47b;}.cls-97{fill:#a0b47c;}.cls-98{fill:#a0b57c;}.cls-99{fill:#a1b57c;}.cls-100{fill:#a1b67d;}.cls-101{fill:#a2b77d;}.cls-102{fill:#a2b77e;}.cls-103{fill:#a3b87e;}.cls-104{fill:#a4b97f;}.cls-105{fill:#a4ba7f;}.cls-106{fill:#a5ba80;}.cls-107{fill:#a5bb80;}.cls-108{fill:#a6bb80;}.cls-109{fill:#a6bc81;}.cls-110{fill:#a7bc81;}.cls-111{fill:#a7bd82;}.cls-112{fill:#a8be82;}.cls-113{fill:#a9bf83;}.cls-114{fill:#aac083;}.cls-115{fill:#aac184;}.cls-116{fill:#abc184;}.cls-117{fill:#abc285;}.cls-118{fill:#acc285;}.cls-119{fill:#adc385;}.cls-120{fill:#adc386;}.cls-121{fill:#aec486;}.cls-122{fill:#aec587;}.cls-123{fill:#afc587;}.cls-124{fill:#afc687;}.cls-125{fill:#b0c688;}.cls-126{fill:#b0c788;}.cls-127{fill:#b1c889;}.cls-128{fill:#b2c989;}.cls-129{fill:#b2c98a;}.cls-130{fill:#b3ca8a;}.cls-131{fill:#b3ca8b;}.cls-132{fill:#b4cb8b;}.cls-133{fill:#b4cc8b;}.cls-134{fill:#b5cc8c;}.cls-135{fill:#b5cd8c;}.cls-136{fill:#b6cd8d;}.cls-137{fill:#b6ce8d;}.cls-138{fill:#b7cf8d;}.cls-139{fill:#b7cf8e;}.cls-140{fill:#b8d08e;}.cls-141{fill:#b8d08f;}.cls-142{fill:#b9d18f;}.cls-143{fill:#bad290;}.cls-144{fill:#bad390;}.cls-145{fill:#bbd391;}.cls-146{fill:#bbd491;}.cls-147{fill:#bcd491;}.cls-148{fill:#bcd592;}.cls-149{fill:#bdd692;}.cls-150{fill:#bdd693;}.cls-151{fill:#bed793;}.cls-152{fill:#bfd793;}.cls-153{fill:#bfd894;}.cls-154{fill:#c0d894;}.cls-155{fill:#c0d995;}.cls-156{fill:#c1da95;}.cls-157{fill:#c2db96;}.cls-158{fill:#c3dc96;}.cls-159{fill:#c3dd97;}.cls-160{fill:#c4dd97;}.cls-161{fill:#c4de98;}.cls-162{fill:#c5de98;}.cls-163{fill:#c5df98;}.cls-164{fill:#c6df99;}.cls-165{fill:#c6e099;}.cls-166{fill:#c7e19a;}.cls-167{fill:#c8e29a;}.cls-168{fill:#c8e29b;}.cls-169{fill:#c9e39b;}.cls-170{fill:#c9e49c;}.cls-171{fill:#cae49c;}.cls-172{fill:#cae59c;}.cls-173{fill:#cbe59d;}.cls-174{fill:#cbe69d;}.cls-175{fill:#cce69e;}.cls-176{fill:#cce79e;}.cls-177{fill:#cde89e;}.cls-178{fill:#cde89f;}.cls-179{fill:#cee99f;}.cls-180{fill:#cee9a0;}.cls-181{fill:#cfeaa0;}</style>
  </defs>
  <title
     id="title6">color1</title>
  <g
     id="g10796">
    <path
       id="path8"
       transform="translate(-6.96,-8)"
       d="m 91.66,8 a 14,14 0 0 1 14,14 v 0 70.7 a 14,14 0 0 1 -14,14 H 21 A 14,14 0 0 1 7,92.7 V 22 A 13.91,13.91 0 0 1 20.78,8"
       class="cls-1"
       inkscape:connector-curvature="0"
       style="fill:#687550" />
    <path
       id="path10"
       transform="translate(-6.96,-8)"
       d="m 91.59,8.1 a 14,14 0 0 1 14,14 v 0 70.53 a 14,14 0 0 1 -14,14 H 21 A 14,14 0 0 1 7,92.63 V 22.07 a 13.88,13.88 0 0 1 13.79,-14"
       class="cls-2"
       inkscape:connector-curvature="0"
       style="fill:#697650" />
    <path
       id="path12"
       transform="translate(-6.96,-8)"
       d="m 91.52,8.2 a 13.94,13.94 0 0 1 13.94,13.94 v 0 70.42 A 13.94,13.94 0 0 1 91.52,106.5 H 21.1 A 13.94,13.94 0 0 1 7.16,92.56 V 22.14 A 13.85,13.85 0 0 1 20.92,8.2"
       class="cls-3"
       inkscape:connector-curvature="0"
       style="fill:#697651" />
    <path
       id="path14"
       transform="translate(-6.96,-8)"
       d="m 91.45,8.3 a 13.92,13.92 0 0 1 13.92,13.92 v 0 70.27 A 13.92,13.92 0 0 1 91.45,106.41 H 21.17 A 13.92,13.92 0 0 1 7.25,92.49 V 22.21 A 13.83,13.83 0 0 1 21,8.3"
       class="cls-4"
       inkscape:connector-curvature="0"
       style="fill:#6a7751" />
    <path
       id="path16"
       transform="translate(-6.96,-8)"
       d="m 91.38,8.39 a 13.89,13.89 0 0 1 13.89,13.89 v 0 70.14 A 13.89,13.89 0 0 1 91.38,106.31 H 21.24 A 13.89,13.89 0 0 1 7.35,92.42 V 22.28 A 13.8,13.8 0 0 1 21.06,8.39"
       class="cls-5"
       inkscape:connector-curvature="0"
       style="fill:#6a7752" />
    <path
       id="path18"
       transform="translate(-6.96,-8)"
       d="m 91.31,8.49 a 13.86,13.86 0 0 1 13.86,13.86 v 0 70 a 13.86,13.86 0 0 1 -13.86,13.86 h -70 A 13.86,13.86 0 0 1 7.45,92.35 v -70 A 13.77,13.77 0 0 1 21.13,8.49"
       class="cls-6"
       inkscape:connector-curvature="0"
       style="fill:#6b7852" />
    <path
       id="path20"
       transform="translate(-6.96,-8)"
       d="m 91.24,8.59 a 13.83,13.83 0 0 1 13.83,13.83 v 0 69.86 A 13.83,13.83 0 0 1 91.24,106.11 H 21.38 A 13.83,13.83 0 0 1 7.55,92.28 V 22.42 A 13.74,13.74 0 0 1 21.2,8.59"
       class="cls-6"
       inkscape:connector-curvature="0"
       style="fill:#6b7852" />
    <path
       id="path22"
       transform="translate(-6.96,-8)"
       d="M 91.17,8.69 A 13.81,13.81 0 0 1 105,22.49 v 0 69.72 A 13.81,13.81 0 0 1 91.17,106 H 21.45 A 13.81,13.81 0 0 1 7.64,92.21 V 22.49 A 13.72,13.72 0 0 1 21.27,8.69"
       class="cls-7"
       inkscape:connector-curvature="0"
       style="fill:#6c7953" />
    <path
       id="path24"
       transform="translate(-6.96,-8)"
       d="m 91.1,8.78 a 13.78,13.78 0 0 1 13.78,13.78 v 0 69.58 A 13.78,13.78 0 0 1 91.1,105.92 H 21.52 A 13.78,13.78 0 0 1 7.74,92.14 V 22.56 A 13.69,13.69 0 0 1 21.34,8.78"
       class="cls-8"
       inkscape:connector-curvature="0"
       style="fill:#6c7a53" />
    <path
       id="path26"
       transform="translate(-6.96,-8)"
       d="m 91,8.88 a 13.75,13.75 0 0 1 13.75,13.75 v 0 69.44 A 13.75,13.75 0 0 1 91,105.82 H 21.59 A 13.75,13.75 0 0 1 7.84,92.07 V 22.63 A 13.66,13.66 0 0 1 21.41,8.88"
       class="cls-9"
       inkscape:connector-curvature="0"
       style="fill:#6d7a54" />
    <path
       id="path28"
       transform="translate(-6.96,-8)"
       d="m 91,9 a 13.72,13.72 0 0 1 13.68,13.7 v 0 V 92 A 13.72,13.72 0 0 1 91,105.73 H 21.66 A 13.72,13.72 0 0 1 7.94,92 V 22.7 A 13.63,13.63 0 0 1 21.48,9"
       class="cls-10"
       inkscape:connector-curvature="0"
       style="fill:#6d7b54" />
    <path
       id="path30"
       transform="translate(-6.96,-8)"
       d="m 90.89,9.08 a 13.7,13.7 0 0 1 13.7,13.7 v 0 69.15 a 13.7,13.7 0 0 1 -13.7,13.7 H 21.73 A 13.7,13.7 0 0 1 8,91.93 V 22.77 A 13.61,13.61 0 0 1 21.55,9.08"
       class="cls-11"
       inkscape:connector-curvature="0"
       style="fill:#6e7b54" />
    <path
       id="path32"
       transform="translate(-6.96,-8)"
       d="m 90.82,9.18 a 13.67,13.67 0 0 1 13.67,13.67 v 0 69 a 13.67,13.67 0 0 1 -13.67,13.67 h -69 A 13.67,13.67 0 0 1 8.13,91.86 v -69 A 13.58,13.58 0 0 1 21.62,9.18"
       class="cls-12"
       inkscape:connector-curvature="0"
       style="fill:#6e7c55" />
    <path
       id="path34"
       transform="translate(-6.96,-8)"
       d="m 90.75,9.27 a 13.64,13.64 0 0 1 13.64,13.64 v 0 68.88 A 13.64,13.64 0 0 1 90.75,105.43 H 21.87 A 13.64,13.64 0 0 1 8.23,91.79 V 22.91 A 13.55,13.55 0 0 1 21.69,9.27"
       class="cls-13"
       inkscape:connector-curvature="0"
       style="fill:#6f7c55" />
    <path
       id="path36"
       transform="translate(-6.96,-8)"
       d="M 90.68,9.37 A 13.61,13.61 0 0 1 104.29,23 v 0 68.72 A 13.61,13.61 0 0 1 90.68,105.33 H 21.94 A 13.61,13.61 0 0 1 8.33,91.72 V 23 A 13.52,13.52 0 0 1 21.76,9.37"
       class="cls-14"
       inkscape:connector-curvature="0"
       style="fill:#6f7d56" />
    <path
       id="path38"
       transform="translate(-6.96,-8)"
       d="m 90.61,9.47 a 13.58,13.58 0 0 1 13.58,13.58 v 0 68.6 A 13.58,13.58 0 0 1 90.61,105.23 H 22 A 13.58,13.58 0 0 1 8.43,91.65 V 23.05 A 13.5,13.5 0 0 1 21.83,9.47"
       class="cls-15"
       inkscape:connector-curvature="0"
       style="fill:#707e56" />
    <path
       id="path40"
       transform="translate(-6.96,-8)"
       d="m 90.54,9.57 a 13.56,13.56 0 0 1 13.56,13.55 v 0 68.46 A 13.56,13.56 0 0 1 90.54,105.14 H 22.08 A 13.56,13.56 0 0 1 8.52,91.58 V 23.12 A 13.47,13.47 0 0 1 21.91,9.57"
       class="cls-15"
       inkscape:connector-curvature="0"
       style="fill:#707e56" />
    <path
       id="path42"
       transform="translate(-6.96,-8)"
       d="M 90.47,9.66 A 13.53,13.53 0 0 1 104,23.19 v 0 68.32 A 13.53,13.53 0 0 1 90.47,105 H 22.15 A 13.53,13.53 0 0 1 8.62,91.51 V 23.19 A 13.44,13.44 0 0 1 22,9.66"
       class="cls-16"
       inkscape:connector-curvature="0"
       style="fill:#717f57" />
    <path
       id="path44"
       transform="translate(-6.96,-8)"
       d="m 90.4,9.76 a 13.5,13.5 0 0 1 13.5,13.5 v 0 68.18 a 13.5,13.5 0 0 1 -13.5,13.5 H 22.22 A 13.5,13.5 0 0 1 8.72,91.44 V 23.26 A 13.41,13.41 0 0 1 22,9.76"
       class="cls-16"
       inkscape:connector-curvature="0"
       style="fill:#717f57" />
    <path
       id="path46"
       transform="translate(-6.96,-8)"
       d="m 90.33,9.86 a 13.47,13.47 0 0 1 13.47,13.47 v 0 68 A 13.47,13.47 0 0 1 90.33,104.8 h -68 A 13.47,13.47 0 0 1 8.82,91.37 v -68 A 13.39,13.39 0 0 1 22.12,9.86"
       class="cls-17"
       inkscape:connector-curvature="0"
       style="fill:#728058" />
    <path
       id="path48"
       transform="translate(-6.96,-8)"
       d="m 90.26,10 a 13.45,13.45 0 0 1 13.45,13.4 v 0 67.9 A 13.45,13.45 0 0 1 90.26,104.75 H 22.36 A 13.45,13.45 0 0 1 8.91,91.3 V 23.4 A 13.36,13.36 0 0 1 22.19,10"
       class="cls-17"
       inkscape:connector-curvature="0"
       style="fill:#728058" />
    <path
       id="path50"
       transform="translate(-6.96,-8)"
       d="m 90.19,10.05 a 13.42,13.42 0 0 1 13.42,13.42 v 0 67.76 A 13.42,13.42 0 0 1 90.19,104.65 H 22.43 A 13.42,13.42 0 0 1 9,91.23 V 23.47 A 13.33,13.33 0 0 1 22.26,10.05"
       class="cls-18"
       inkscape:connector-curvature="0"
       style="fill:#738158" />
    <path
       id="path52"
       transform="translate(-6.96,-8)"
       d="m 90.12,10.15 a 13.39,13.39 0 0 1 13.39,13.39 v 0 67.62 A 13.39,13.39 0 0 1 90.12,104.55 H 22.5 A 13.39,13.39 0 0 1 9.11,91.16 V 23.54 A 13.3,13.3 0 0 1 22.33,10.15"
       class="cls-19"
       inkscape:connector-curvature="0"
       style="fill:#738259" />
    <path
       id="path54"
       transform="translate(-6.96,-8)"
       d="m 90,10.25 a 13.36,13.36 0 0 1 13.36,13.36 v 0 67.48 A 13.36,13.36 0 0 1 90,104.46 H 22.57 A 13.36,13.36 0 0 1 9.21,91.09 V 23.61 A 13.28,13.28 0 0 1 22.4,10.25"
       class="cls-20"
       inkscape:connector-curvature="0"
       style="fill:#748259" />
    <path
       id="path56"
       transform="translate(-6.96,-8)"
       d="m 90,10.35 a 13.33,13.33 0 0 1 13.33,13.33 v 0 V 91 A 13.33,13.33 0 0 1 90,104.36 H 22.64 A 13.33,13.33 0 0 1 9.31,91 V 23.68 A 13.25,13.25 0 0 1 22.47,10.35"
       class="cls-21"
       inkscape:connector-curvature="0"
       style="fill:#74835a" />
    <path
       id="path58"
       transform="translate(-6.96,-8)"
       d="m 89.91,10.45 a 13.31,13.31 0 0 1 13.31,13.31 v 0 V 91 A 13.31,13.31 0 0 1 89.91,104.31 H 22.71 A 13.31,13.31 0 0 1 9.4,91 V 23.75 a 13.22,13.22 0 0 1 13.14,-13.3"
       class="cls-22"
       inkscape:connector-curvature="0"
       style="fill:#75835a" />
    <path
       id="path60"
       transform="translate(-6.96,-8)"
       d="m 89.84,10.54 a 13.28,13.28 0 0 1 13.28,13.28 v 0 67.06 A 13.28,13.28 0 0 1 89.84,104.16 H 22.78 A 13.28,13.28 0 0 1 9.5,90.88 V 23.82 A 13.19,13.19 0 0 1 22.61,10.54"
       class="cls-23"
       inkscape:connector-curvature="0"
       style="fill:#75845a" />
    <path
       id="path62"
       transform="translate(-6.96,-8)"
       d="M 89.77,10.64 A 13.25,13.25 0 0 1 103,23.89 v 0 66.92 A 13.25,13.25 0 0 1 89.75,104.06 H 22.85 A 13.25,13.25 0 0 1 9.6,90.81 V 23.89 A 13.17,13.17 0 0 1 22.68,10.64"
       class="cls-24"
       inkscape:connector-curvature="0"
       style="fill:#76855b" />
    <path
       id="path64"
       transform="translate(-6.96,-8)"
       d="M 89.7,10.74 A 13.22,13.22 0 0 1 102.92,24 v 0 66.74 A 13.22,13.22 0 0 1 89.7,104 H 22.92 A 13.22,13.22 0 0 1 9.7,90.74 V 24 A 13.14,13.14 0 0 1 22.75,10.74"
       class="cls-24"
       inkscape:connector-curvature="0"
       style="fill:#76855b" />
    <path
       id="path66"
       transform="translate(-6.96,-8)"
       d="M 89.63,10.84 A 13.2,13.2 0 0 1 102.83,24 v 0 66.67 a 13.2,13.2 0 0 1 -13.2,13.2 H 23 A 13.2,13.2 0 0 1 9.8,90.67 V 24 a 13.11,13.11 0 0 1 13,-13.2"
       class="cls-25"
       inkscape:connector-curvature="0"
       style="fill:#77865b" />
    <path
       id="path68"
       transform="translate(-6.96,-8)"
       d="m 89.56,10.93 a 13.17,13.17 0 0 1 13.17,13.17 v 0 66.5 A 13.17,13.17 0 0 1 89.56,103.77 H 23.06 A 13.17,13.17 0 0 1 9.89,90.6 V 24.1 a 13.08,13.08 0 0 1 13,-13.17"
       class="cls-26"
       inkscape:connector-curvature="0"
       style="fill:#77865c" />
    <path
       id="path70"
       transform="translate(-6.96,-8)"
       d="m 89.49,11 a 13.14,13.14 0 0 1 13.14,13.14 v 0 66.39 A 13.14,13.14 0 0 1 89.49,103.67 H 23.13 A 13.14,13.14 0 0 1 10,90.53 V 24.17 A 13.06,13.06 0 0 1 23,11"
       class="cls-27"
       inkscape:connector-curvature="0"
       style="fill:#78875c" />
    <path
       id="path72"
       transform="translate(-6.96,-8)"
       d="m 89.42,11.13 a 13.11,13.11 0 0 1 13.11,13.11 v 0 66.22 A 13.11,13.11 0 0 1 89.42,103.57 H 23.2 A 13.11,13.11 0 0 1 10.09,90.46 V 24.24 A 13,13 0 0 1 23,11.13"
       class="cls-28"
       inkscape:connector-curvature="0"
       style="fill:#78875d" />
    <path
       id="path74"
       transform="translate(-6.96,-8)"
       d="m 89.35,11.23 a 13.09,13.09 0 0 1 13.09,13.09 v 0 66.07 A 13.09,13.09 0 0 1 89.35,103.48 H 23.27 A 13.09,13.09 0 0 1 10.18,90.39 V 24.31 A 13,13 0 0 1 23.1,11.23"
       class="cls-29"
       inkscape:connector-curvature="0"
       style="fill:#79885d" />
    <path
       id="path76"
       transform="translate(-6.96,-8)"
       d="m 89.28,11.33 a 13.06,13.06 0 0 1 13.06,13.06 v 0 65.93 A 13.06,13.06 0 0 1 89.28,103.38 H 23.34 A 13.06,13.06 0 0 1 10.28,90.32 V 24.38 A 13,13 0 0 1 23.17,11.33"
       class="cls-30"
       inkscape:connector-curvature="0"
       style="fill:#79895d" />
    <path
       id="path78"
       transform="translate(-6.96,-8)"
       d="m 89.21,11.42 a 13,13 0 0 1 13,13 v 0 65.8 a 13,13 0 0 1 -13,13 h -65.8 a 13,13 0 0 1 -13,-13 V 24.45 a 13,13 0 0 1 12.86,-13"
       class="cls-31"
       inkscape:connector-curvature="0"
       style="fill:#7a895e" />
    <path
       id="path80"
       transform="translate(-6.96,-8)"
       d="m 89.14,11.52 a 13,13 0 0 1 13,13 v 0 65.66 a 13,13 0 0 1 -13,13 H 23.48 a 13,13 0 0 1 -13,-13 V 24.52 a 12.92,12.92 0 0 1 12.83,-13"
       class="cls-32"
       inkscape:connector-curvature="0"
       style="fill:#7a8a5e" />
    <path
       id="path82"
       transform="translate(-6.96,-8)"
       d="m 89.07,11.62 a 13,13 0 0 1 13,13 v 0 65.49 a 13,13 0 0 1 -13,13 H 23.55 a 13,13 0 0 1 -13,-13 V 24.59 a 12.89,12.89 0 0 1 12.81,-13"
       class="cls-33"
       inkscape:connector-curvature="0"
       style="fill:#7b8a5f" />
    <path
       id="path84"
       transform="translate(-6.96,-8)"
       d="m 89,11.72 a 13,13 0 0 1 12.95,12.95 v 0 V 90 A 13,13 0 0 1 89,103 H 23.62 A 13,13 0 0 1 10.67,90 V 24.66 A 12.86,12.86 0 0 1 23.45,11.72"
       class="cls-34"
       inkscape:connector-curvature="0"
       style="fill:#7b8b5f" />
    <path
       id="path86"
       transform="translate(-6.96,-8)"
       d="m 88.93,11.81 a 12.92,12.92 0 0 1 12.92,12.92 v 0 V 90 A 12.92,12.92 0 0 1 88.93,102.92 H 23.69 A 12.92,12.92 0 0 1 10.77,90 V 24.73 A 12.84,12.84 0 0 1 23.52,11.81"
       class="cls-35"
       inkscape:connector-curvature="0"
       style="fill:#7c8b5f" />
    <path
       id="path88"
       transform="translate(-6.96,-8)"
       d="m 88.86,11.91 a 12.89,12.89 0 0 1 12.89,12.89 v 0 65.1 A 12.89,12.89 0 0 1 88.86,102.79 H 23.76 A 12.89,12.89 0 0 1 10.87,89.9 V 24.8 A 12.81,12.81 0 0 1 23.59,11.91"
       class="cls-36"
       inkscape:connector-curvature="0"
       style="fill:#7c8c60" />
    <path
       id="path90"
       transform="translate(-6.96,-8)"
       d="m 88.79,12 a 12.86,12.86 0 0 1 12.86,12.86 v 0 65 A 12.86,12.86 0 0 1 88.79,102.7 h -65 A 12.86,12.86 0 0 1 11,89.83 v -65 A 12.78,12.78 0 0 1 23.66,12"
       class="cls-37"
       inkscape:connector-curvature="0"
       style="fill:#7d8d60" />
    <path
       id="path92"
       transform="translate(-6.96,-8)"
       d="m 88.72,12.11 a 12.84,12.84 0 0 1 12.84,12.84 v 0 64.81 A 12.84,12.84 0 0 1 88.72,102.6 H 23.9 A 12.84,12.84 0 0 1 11.06,89.76 V 24.94 A 12.75,12.75 0 0 1 23.73,12.11"
       class="cls-38"
       inkscape:connector-curvature="0"
       style="fill:#7d8d61" />
    <path
       id="path94"
       transform="translate(-6.96,-8)"
       d="M 88.65,12.2 A 12.81,12.81 0 0 1 101.46,25 v 0 64.69 A 12.81,12.81 0 0 1 88.65,102.5 H 24 A 12.81,12.81 0 0 1 11.16,89.69 V 25 A 12.73,12.73 0 0 1 23.8,12.2"
       class="cls-39"
       inkscape:connector-curvature="0"
       style="fill:#7e8e61" />
    <path
       id="path96"
       transform="translate(-6.96,-8)"
       d="m 88.58,12.3 a 12.78,12.78 0 0 1 12.78,12.78 v 0 64.54 A 12.78,12.78 0 0 1 88.58,102.4 H 24 A 12.78,12.78 0 0 1 11.26,89.62 V 25.08 A 12.7,12.7 0 0 1 23.88,12.3"
       class="cls-39"
       inkscape:connector-curvature="0"
       style="fill:#7e8e61" />
    <path
       id="path98"
       transform="translate(-6.96,-8)"
       d="m 88.51,12.4 a 12.75,12.75 0 0 1 12.75,12.75 v 0 64.4 A 12.75,12.75 0 0 1 88.51,102.3 H 24.11 A 12.75,12.75 0 0 1 11.36,89.55 V 25.15 A 12.67,12.67 0 0 1 23.95,12.4"
       class="cls-40"
       inkscape:connector-curvature="0"
       style="fill:#7f8f62" />
    <path
       id="path100"
       transform="translate(-6.96,-8)"
       d="m 88.44,12.5 a 12.72,12.72 0 0 1 12.72,12.72 v 0 64.26 A 12.72,12.72 0 0 1 88.44,102.2 H 24.18 A 12.72,12.72 0 0 1 11.46,89.48 V 25.22 A 12.64,12.64 0 0 1 24,12.5"
       class="cls-40"
       inkscape:connector-curvature="0"
       style="fill:#7f8f62" />
    <path
       id="path102"
       transform="translate(-6.96,-8)"
       d="m 88.37,12.6 a 12.7,12.7 0 0 1 12.7,12.7 v 0 64.11 a 12.7,12.7 0 0 1 -12.7,12.7 H 24.25 A 12.7,12.7 0 0 1 11.55,89.41 V 25.29 A 12.62,12.62 0 0 1 24.09,12.6"
       class="cls-41"
       inkscape:connector-curvature="0"
       style="fill:#809063" />
    <path
       id="path104"
       transform="translate(-6.96,-8)"
       d="M 88.3,12.69 A 12.67,12.67 0 0 1 101,25.36 v 0 64 A 12.67,12.67 0 0 1 88.3,102 h -64 A 12.67,12.67 0 0 1 11.65,89.34 v -64 A 12.59,12.59 0 0 1 24.16,12.69"
       class="cls-42"
       inkscape:connector-curvature="0"
       style="fill:#809163" />
    <path
       id="path106"
       transform="translate(-6.96,-8)"
       d="m 88.23,12.79 a 12.64,12.64 0 0 1 12.64,12.64 v 0 63.84 A 12.64,12.64 0 0 1 88.23,101.91 H 24.39 A 12.64,12.64 0 0 1 11.75,89.27 V 25.43 A 12.56,12.56 0 0 1 24.23,12.79"
       class="cls-43"
       inkscape:connector-curvature="0"
       style="fill:#819163" />
    <path
       id="path108"
       transform="translate(-6.96,-8)"
       d="m 88.16,12.89 a 12.61,12.61 0 0 1 12.61,12.61 v 0 63.7 A 12.61,12.61 0 0 1 88.16,101.81 H 24.46 A 12.61,12.61 0 0 1 11.85,89.2 V 25.5 A 12.53,12.53 0 0 1 24.3,12.89"
       class="cls-44"
       inkscape:connector-curvature="0"
       style="fill:#819264" />
    <path
       id="path110"
       transform="translate(-6.96,-8)"
       d="m 88.09,13 a 12.59,12.59 0 0 1 12.59,12.59 v 0 63.54 A 12.59,12.59 0 0 1 88.09,101.72 H 24.53 A 12.59,12.59 0 0 1 11.94,89.13 V 25.57 A 12.51,12.51 0 0 1 24.37,13"
       class="cls-45"
       inkscape:connector-curvature="0"
       style="fill:#829264" />
    <path
       id="path112"
       transform="translate(-6.96,-8)"
       d="m 88,13.08 a 12.56,12.56 0 0 1 12.56,12.56 v 0 63.42 A 12.56,12.56 0 0 1 88,101.62 H 24.6 A 12.56,12.56 0 0 1 12,89.06 V 25.64 A 12.48,12.48 0 0 1 24.4,13.08"
       class="cls-46"
       inkscape:connector-curvature="0"
       style="fill:#829365" />
    <path
       id="path114"
       transform="translate(-6.96,-8)"
       d="m 87.95,13.18 a 12.53,12.53 0 0 1 12.53,12.53 v 0 V 89 A 12.53,12.53 0 0 1 87.95,101.53 H 24.67 A 12.53,12.53 0 0 1 12.14,89 V 25.71 A 12.45,12.45 0 0 1 24.51,13.18"
       class="cls-47"
       inkscape:connector-curvature="0"
       style="fill:#839365" />
    <path
       id="path116"
       transform="translate(-6.96,-8)"
       d="m 87.88,13.28 a 12.5,12.5 0 0 1 12.5,12.5 v 0 63.14 a 12.5,12.5 0 0 1 -12.5,12.5 H 24.74 A 12.5,12.5 0 0 1 12.24,88.92 V 25.78 a 12.42,12.42 0 0 1 12.34,-12.5"
       class="cls-48"
       inkscape:connector-curvature="0"
       style="fill:#839465" />
    <path
       id="path118"
       transform="translate(-6.96,-8)"
       d="m 87.81,13.38 a 12.48,12.48 0 0 1 12.48,12.48 v 0 63 a 12.48,12.48 0 0 1 -12.48,12.48 h -63 A 12.48,12.48 0 0 1 12.33,88.85 v -63 A 12.4,12.4 0 0 1 24.65,13.38"
       class="cls-49"
       inkscape:connector-curvature="0"
       style="fill:#849566" />
    <path
       id="path120"
       transform="translate(-6.96,-8)"
       d="m 87.74,13.47 a 12.45,12.45 0 0 1 12.45,12.45 v 0 62.86 A 12.45,12.45 0 0 1 87.74,101.23 H 24.88 A 12.45,12.45 0 0 1 12.43,88.78 V 25.92 A 12.37,12.37 0 0 1 24.72,13.47"
       class="cls-49"
       inkscape:connector-curvature="0"
       style="fill:#849566" />
    <path
       id="path122"
       transform="translate(-6.96,-8)"
       d="M 87.67,13.57 A 12.42,12.42 0 0 1 100.09,26 v 0 62.71 A 12.42,12.42 0 0 1 87.67,101.13 H 24.95 A 12.42,12.42 0 0 1 12.53,88.71 V 26 A 12.34,12.34 0 0 1 24.79,13.57"
       class="cls-50"
       inkscape:connector-curvature="0"
       style="fill:#859667" />
    <path
       id="path124"
       transform="translate(-6.96,-8)"
       d="M 87.6,13.67 A 12.39,12.39 0 0 1 100,26.06 v 0 62.58 A 12.39,12.39 0 0 1 87.6,101 H 25 A 12.39,12.39 0 0 1 12.63,88.64 V 26.06 A 12.31,12.31 0 0 1 24.86,13.67"
       class="cls-50"
       inkscape:connector-curvature="0"
       style="fill:#859667" />
    <path
       id="path126"
       transform="translate(-6.96,-8)"
       d="m 87.53,13.77 a 12.36,12.36 0 0 1 12.36,12.36 v 0 62.44 A 12.36,12.36 0 0 1 87.53,100.93 H 25.09 A 12.36,12.36 0 0 1 12.73,88.57 V 26.13 a 12.28,12.28 0 0 1 12.2,-12.36"
       class="cls-51"
       inkscape:connector-curvature="0"
       style="fill:#869767" />
    <path
       id="path128"
       transform="translate(-6.96,-8)"
       d="M 87.46,13.87 A 12.34,12.34 0 0 1 99.8,26.2 v 0 62.3 A 12.34,12.34 0 0 1 87.46,100.84 H 25.16 A 12.34,12.34 0 0 1 12.82,88.5 V 26.2 A 12.26,12.26 0 0 1 25,13.87"
       class="cls-52"
       inkscape:connector-curvature="0"
       style="fill:#869768" />
    <path
       id="path130"
       transform="translate(-6.96,-8)"
       d="M 87.39,14 A 12.31,12.31 0 0 1 99.7,26.27 v 0 62.16 A 12.31,12.31 0 0 1 87.39,100.74 H 25.23 A 12.31,12.31 0 0 1 12.92,88.43 V 26.27 A 12.23,12.23 0 0 1 25.07,14"
       class="cls-53"
       inkscape:connector-curvature="0"
       style="fill:#879868" />
    <path
       id="path132"
       transform="translate(-6.96,-8)"
       d="M 87.32,14.06 A 12.28,12.28 0 0 1 99.6,26.34 v 0 62 a 12.28,12.28 0 0 1 -12.28,12.28 h -62 A 12.28,12.28 0 0 1 13,88.36 v -62 a 12.2,12.2 0 0 1 12.14,-12.3"
       class="cls-54"
       inkscape:connector-curvature="0"
       style="fill:#879969" />
    <path
       id="path134"
       transform="translate(-6.96,-8)"
       d="M 87.25,14.16 A 12.25,12.25 0 0 1 99.5,26.41 v 0 61.88 A 12.25,12.25 0 0 1 87.25,100.54 H 25.37 A 12.25,12.25 0 0 1 13.12,88.29 V 26.41 a 12.17,12.17 0 0 1 12.1,-12.25"
       class="cls-55"
       inkscape:connector-curvature="0"
       style="fill:#889969" />
    <path
       id="path136"
       transform="translate(-6.96,-8)"
       d="m 87.18,14.26 a 12.23,12.23 0 0 1 12.23,12.22 v 0 61.74 A 12.23,12.23 0 0 1 87.18,100.45 H 25.44 A 12.23,12.23 0 0 1 13.21,88.22 V 26.48 A 12.15,12.15 0 0 1 25.28,14.26"
       class="cls-56"
       inkscape:connector-curvature="0"
       style="fill:#889a69" />
    <path
       id="path138"
       transform="translate(-6.96,-8)"
       d="m 87.11,14.35 a 12.2,12.2 0 0 1 12.2,12.2 v 0 61.6 a 12.2,12.2 0 0 1 -12.2,12.2 h -61.6 a 12.2,12.2 0 0 1 -12.2,-12.2 v -61.6 a 12.12,12.12 0 0 1 12,-12.2"
       class="cls-57"
       inkscape:connector-curvature="0"
       style="fill:#899a6a" />
    <path
       id="path140"
       transform="translate(-6.96,-8)"
       d="m 87,14.45 a 12.17,12.17 0 0 1 12.21,12.17 v 0 61.46 A 12.17,12.17 0 0 1 87,100.25 H 25.58 A 12.17,12.17 0 0 1 13.41,88.08 V 26.62 a 12.09,12.09 0 0 1 12,-12.17"
       class="cls-58"
       inkscape:connector-curvature="0"
       style="fill:#899b6a" />
    <path
       id="path142"
       transform="translate(-6.96,-8)"
       d="m 87,14.55 a 12.14,12.14 0 0 1 12.11,12.14 v 0 V 88 A 12.14,12.14 0 0 1 87,100.16 H 25.65 A 12.14,12.14 0 0 1 13.51,88 V 26.69 a 12.06,12.06 0 0 1 12,-12.14"
       class="cls-59"
       inkscape:connector-curvature="0"
       style="fill:#8a9b6b" />
    <path
       id="path144"
       transform="translate(-6.96,-8)"
       d="M 86.9,14.65 A 12.11,12.11 0 0 1 99,26.76 v 0 61.18 A 12.11,12.11 0 0 1 86.9,100.06 H 25.72 A 12.11,12.11 0 0 1 13.61,87.94 V 26.76 a 12,12 0 0 1 12,-12.11"
       class="cls-60"
       inkscape:connector-curvature="0"
       style="fill:#8a9c6b" />
    <path
       id="path146"
       transform="translate(-6.96,-8)"
       d="m 86.83,14.75 a 12.09,12.09 0 0 1 12.09,12.08 v 0 61 A 12.09,12.09 0 0 1 86.83,100 h -61 A 12.09,12.09 0 0 1 13.7,87.87 v -61 A 12,12 0 0 1 25.63,14.75"
       class="cls-61"
       inkscape:connector-curvature="0"
       style="fill:#8b9d6b" />
    <path
       id="path148"
       transform="translate(-6.96,-8)"
       d="M 86.76,14.84 A 12.06,12.06 0 0 1 98.82,26.9 v 0 60.9 A 12.06,12.06 0 0 1 86.76,99.86 H 25.86 A 12.06,12.06 0 0 1 13.8,87.8 V 26.9 A 12,12 0 0 1 25.7,14.84"
       class="cls-62"
       inkscape:connector-curvature="0"
       style="fill:#8b9d6c" />
    <path
       id="path150"
       transform="translate(-6.96,-8)"
       d="m 86.69,14.94 a 12,12 0 0 1 12,12 v 0 60.79 a 12,12 0 0 1 -12,12 H 25.93 a 12,12 0 0 1 -12,-12 V 27 A 12,12 0 0 1 25.81,15"
       class="cls-63"
       inkscape:connector-curvature="0"
       style="fill:#8c9e6c" />
    <path
       id="path152"
       transform="translate(-6.96,-8)"
       d="m 86.62,15 a 12,12 0 0 1 12,12 v 0 60.66 a 12,12 0 0 1 -12,12 H 26 a 12,12 0 0 1 -12,-12 V 27 A 11.93,11.93 0 0 1 25.85,15"
       class="cls-64"
       inkscape:connector-curvature="0"
       style="fill:#8c9e6d" />
    <path
       id="path154"
       transform="translate(-6.96,-8)"
       d="m 86.55,15.14 a 12,12 0 0 1 12,12 v 0 60.45 a 12,12 0 0 1 -12,12 H 26.07 a 12,12 0 0 1 -12,-12 V 27.11 a 11.9,11.9 0 0 1 11.82,-12"
       class="cls-65"
       inkscape:connector-curvature="0"
       style="fill:#8d9f6d" />
    <path
       id="path156"
       transform="translate(-6.96,-8)"
       d="m 86.48,15.23 a 12,12 0 0 1 11.95,11.95 v 0 60.34 A 12,12 0 0 1 86.48,99.47 H 26.14 A 12,12 0 0 1 14.19,87.52 V 27.18 A 11.87,11.87 0 0 1 26,15.23"
       class="cls-65"
       inkscape:connector-curvature="0"
       style="fill:#8d9f6d" />
    <path
       id="path158"
       transform="translate(-6.96,-8)"
       d="m 86.41,15.33 a 11.92,11.92 0 0 1 11.92,11.92 v 0 60.2 A 11.92,11.92 0 0 1 86.41,99.37 H 26.21 A 11.92,11.92 0 0 1 14.29,87.45 V 27.25 A 11.84,11.84 0 0 1 26.06,15.33"
       class="cls-66"
       inkscape:connector-curvature="0"
       style="fill:#8ea06e" />
    <path
       id="path160"
       transform="translate(-6.96,-8)"
       d="m 86.34,15.43 a 11.89,11.89 0 0 1 11.89,11.89 v 0 60.06 A 11.89,11.89 0 0 1 86.34,99.28 H 26.28 A 11.89,11.89 0 0 1 14.39,87.38 V 27.32 A 11.82,11.82 0 0 1 26.13,15.43"
       class="cls-67"
       inkscape:connector-curvature="0"
       style="fill:#8ea16e" />
    <path
       id="path162"
       transform="translate(-6.96,-8)"
       d="m 86.27,15.53 a 11.87,11.87 0 0 1 11.87,11.86 v 0 59.92 A 11.87,11.87 0 0 1 86.27,99.18 H 26.35 A 11.87,11.87 0 0 1 14.48,87.31 V 27.39 A 11.79,11.79 0 0 1 26.2,15.53"
       class="cls-68"
       inkscape:connector-curvature="0"
       style="fill:#8fa16e" />
    <path
       id="path164"
       transform="translate(-6.96,-8)"
       d="M 86.2,15.62 A 11.84,11.84 0 0 1 98,27.46 v 0 59.78 A 11.84,11.84 0 0 1 86.2,99.08 H 26.42 A 11.84,11.84 0 0 1 14.58,87.24 V 27.46 A 11.76,11.76 0 0 1 26.27,15.62"
       class="cls-69"
       inkscape:connector-curvature="0"
       style="fill:#8fa26f" />
    <path
       id="path166"
       transform="translate(-6.96,-8)"
       d="m 86.13,15.72 a 11.81,11.81 0 0 1 11.81,11.81 v 0 59.64 A 11.81,11.81 0 0 1 86.13,99 H 26.49 A 11.81,11.81 0 0 1 14.68,87.17 V 27.53 A 11.73,11.73 0 0 1 26.34,15.72"
       class="cls-70"
       inkscape:connector-curvature="0"
       style="fill:#90a26f" />
    <path
       id="path168"
       transform="translate(-6.96,-8)"
       d="M 86.06,15.82 A 11.78,11.78 0 0 1 97.84,27.6 v 0 59.5 A 11.78,11.78 0 0 1 86.06,98.88 H 26.56 A 11.78,11.78 0 0 1 14.78,87.1 V 27.6 A 11.71,11.71 0 0 1 26.41,15.82"
       class="cls-71"
       inkscape:connector-curvature="0"
       style="fill:#90a370" />
    <path
       id="path170"
       transform="translate(-6.96,-8)"
       d="m 86,15.92 a 11.75,11.75 0 0 1 11.74,11.75 v 0 V 87 A 11.75,11.75 0 0 1 86,98.79 H 26.63 A 11.75,11.75 0 0 1 14.88,87 V 27.67 a 11.68,11.68 0 0 1 11.6,-11.75"
       class="cls-72"
       inkscape:connector-curvature="0"
       style="fill:#91a470" />
    <path
       id="path172"
       transform="translate(-6.96,-8)"
       d="m 85.92,16 a 11.73,11.73 0 0 1 11.73,11.74 v 0 V 87 A 11.73,11.73 0 0 1 85.92,98.69 H 26.7 A 11.73,11.73 0 0 1 15,87 V 27.74 A 11.65,11.65 0 0 1 26.55,16"
       class="cls-72"
       inkscape:connector-curvature="0"
       style="fill:#91a470" />
    <path
       id="path174"
       transform="translate(-6.96,-8)"
       d="m 85.85,16.11 a 11.7,11.7 0 0 1 11.7,11.7 v 0 59.08 a 11.7,11.7 0 0 1 -11.7,11.7 H 26.77 A 11.7,11.7 0 0 1 15.07,86.89 V 27.81 a 11.62,11.62 0 0 1 11.55,-11.7"
       class="cls-73"
       inkscape:connector-curvature="0"
       style="fill:#92a571" />
    <path
       id="path176"
       transform="translate(-6.96,-8)"
       d="m 85.78,16.21 a 11.67,11.67 0 0 1 11.67,11.67 v 0 58.94 A 11.67,11.67 0 0 1 85.78,98.49 H 26.84 A 11.67,11.67 0 0 1 15.17,86.82 V 27.88 A 11.6,11.6 0 0 1 26.69,16.21"
       class="cls-73"
       inkscape:connector-curvature="0"
       style="fill:#92a571" />
    <path
       id="path178"
       transform="translate(-6.96,-8)"
       d="M 85.71,16.31 A 11.64,11.64 0 0 1 97.35,28 v 0 58.8 A 11.64,11.64 0 0 1 85.71,98.4 H 26.91 A 11.64,11.64 0 0 1 15.27,86.75 V 28 A 11.57,11.57 0 0 1 26.76,16.31"
       class="cls-74"
       inkscape:connector-curvature="0"
       style="fill:#93a672" />
    <path
       id="path180"
       transform="translate(-6.96,-8)"
       d="M 85.64,16.41 A 11.62,11.62 0 0 1 97.26,28 v 0 58.68 A 11.62,11.62 0 0 1 85.64,98.3 H 27 A 11.62,11.62 0 0 1 15.36,86.68 V 28 A 11.54,11.54 0 0 1 26.83,16.41"
       class="cls-74"
       inkscape:connector-curvature="0"
       style="fill:#93a672" />
    <path
       id="path182"
       transform="translate(-6.96,-8)"
       d="m 85.57,16.5 a 11.59,11.59 0 0 1 11.59,11.59 v 0 58.52 A 11.59,11.59 0 0 1 85.57,98.2 H 27 A 11.59,11.59 0 0 1 15.46,86.61 V 28.09 A 11.51,11.51 0 0 1 26.9,16.5"
       class="cls-75"
       inkscape:connector-curvature="0"
       style="fill:#94a772" />
    <path
       id="path184"
       transform="translate(-6.96,-8)"
       d="m 85.5,16.6 a 11.56,11.56 0 0 1 11.56,11.56 v 0 58.38 A 11.56,11.56 0 0 1 85.5,98.1 H 27.12 A 11.56,11.56 0 0 1 15.56,86.54 V 28.16 A 11.49,11.49 0 0 1 27,16.6"
       class="cls-76"
       inkscape:connector-curvature="0"
       style="fill:#94a873" />
    <path
       id="path186"
       transform="translate(-6.96,-8)"
       d="M 85.43,16.7 A 11.53,11.53 0 0 1 97,28.23 v 0 58.24 A 11.53,11.53 0 0 1 85.43,98 H 27.19 A 11.53,11.53 0 0 1 15.66,86.47 V 28.23 A 11.46,11.46 0 0 1 27,16.7"
       class="cls-77"
       inkscape:connector-curvature="0"
       style="fill:#95a873" />
    <path
       id="path188"
       transform="translate(-6.96,-8)"
       d="m 85.36,16.8 a 11.5,11.5 0 0 1 11.5,11.5 v 0 58.1 A 11.5,11.5 0 0 1 85.36,97.9 H 27.26 A 11.5,11.5 0 0 1 15.76,86.4 V 28.3 A 11.43,11.43 0 0 1 27.11,16.8"
       class="cls-78"
       inkscape:connector-curvature="0"
       style="fill:#95a974" />
    <path
       id="path190"
       transform="translate(-6.96,-8)"
       d="m 85.29,16.9 a 11.48,11.48 0 0 1 11.48,11.47 v 0 58 A 11.48,11.48 0 0 1 85.29,97.81 h -58 A 11.48,11.48 0 0 1 15.85,86.33 v -58 A 11.4,11.4 0 0 1 27.18,16.9"
       class="cls-79"
       inkscape:connector-curvature="0"
       style="fill:#96a974" />
    <path
       id="path192"
       transform="translate(-6.96,-8)"
       d="m 85.22,17 a 11.45,11.45 0 0 1 11.45,11.44 v 0 57.82 A 11.45,11.45 0 0 1 85.22,97.71 H 27.4 A 11.45,11.45 0 0 1 16,86.26 V 28.44 A 11.38,11.38 0 0 1 27.25,17"
       class="cls-80"
       inkscape:connector-curvature="0"
       style="fill:#96aa74" />
    <path
       id="path194"
       transform="translate(-6.96,-8)"
       d="m 85.15,17.09 a 11.42,11.42 0 0 1 11.42,11.42 v 0 57.68 A 11.42,11.42 0 0 1 85.15,97.61 H 27.47 A 11.42,11.42 0 0 1 16,86.19 V 28.51 A 11.35,11.35 0 0 1 27.32,17.09"
       class="cls-81"
       inkscape:connector-curvature="0"
       style="fill:#97aa75" />
    <path
       id="path196"
       transform="translate(-6.96,-8)"
       d="m 85.08,17.19 a 11.39,11.39 0 0 1 11.39,11.39 v 0 57.54 A 11.39,11.39 0 0 1 85.08,97.52 H 27.54 A 11.39,11.39 0 0 1 16.15,86.12 V 28.58 A 11.32,11.32 0 0 1 27.39,17.19"
       class="cls-82"
       inkscape:connector-curvature="0"
       style="fill:#97ab75" />
    <path
       id="path198"
       transform="translate(-6.96,-8)"
       d="m 85,17.29 a 11.37,11.37 0 0 1 11.38,11.36 v 0 57.4 A 11.37,11.37 0 0 1 85,97.42 H 27.61 A 11.37,11.37 0 0 1 16.24,86.05 V 28.65 A 11.29,11.29 0 0 1 27.46,17.29"
       class="cls-83"
       inkscape:connector-curvature="0"
       style="fill:#98ac76" />
    <path
       id="path200"
       transform="translate(-6.96,-8)"
       d="m 84.94,17.38 a 11.34,11.34 0 0 1 11.34,11.34 v 0 V 86 A 11.34,11.34 0 0 1 84.94,97.32 H 27.68 A 11.34,11.34 0 0 1 16.34,86 V 28.72 A 11.27,11.27 0 0 1 27.53,17.38"
       class="cls-83"
       inkscape:connector-curvature="0"
       style="fill:#98ac76" />
    <path
       id="path202"
       transform="translate(-6.96,-8)"
       d="m 84.87,17.48 a 11.31,11.31 0 0 1 11.31,11.31 v 0 57.12 A 11.31,11.31 0 0 1 84.87,97.22 H 27.75 A 11.31,11.31 0 0 1 16.44,85.91 V 28.79 A 11.24,11.24 0 0 1 27.6,17.48"
       class="cls-84"
       inkscape:connector-curvature="0"
       style="fill:#99ad76" />
    <path
       id="path204"
       transform="translate(-6.96,-8)"
       d="m 84.8,17.58 a 11.28,11.28 0 0 1 11.28,11.28 v 0 57 A 11.28,11.28 0 0 1 84.8,97.13 h -57 A 11.28,11.28 0 0 1 16.54,85.84 v -57 A 11.21,11.21 0 0 1 27.67,17.58"
       class="cls-85"
       inkscape:connector-curvature="0"
       style="fill:#99ad77" />
    <path
       id="path206"
       transform="translate(-6.96,-8)"
       d="M 84.73,17.68 A 11.26,11.26 0 0 1 96,28.93 v 0 56.84 A 11.26,11.26 0 0 1 84.73,97 H 27.89 A 11.26,11.26 0 0 1 16.63,85.77 V 28.93 A 11.18,11.18 0 0 1 27.74,17.68"
       class="cls-86"
       inkscape:connector-curvature="0"
       style="fill:#9aae77" />
    <path
       id="path208"
       transform="translate(-6.96,-8)"
       d="M 84.66,17.77 A 11.23,11.23 0 0 1 95.89,29 v 0 56.7 A 11.23,11.23 0 0 1 84.66,96.93 H 28 A 11.23,11.23 0 0 1 16.73,85.7 V 29 A 11.16,11.16 0 0 1 27.82,17.77"
       class="cls-87"
       inkscape:connector-curvature="0"
       style="fill:#9aae78" />
    <path
       id="path210"
       transform="translate(-6.96,-8)"
       d="m 84.59,17.87 a 11.2,11.2 0 0 1 11.2,11.2 v 0 56.56 a 11.2,11.2 0 0 1 -11.2,11.2 H 28 A 11.2,11.2 0 0 1 16.8,85.63 V 29.07 a 11.13,11.13 0 0 1 11.06,-11.2"
       class="cls-88"
       inkscape:connector-curvature="0"
       style="fill:#9baf78" />
    <path
       id="path212"
       transform="translate(-6.96,-8)"
       d="m 84.55,17.93 a 11.18,11.18 0 0 1 11.18,11.18 v 0 56.48 A 11.18,11.18 0 0 1 84.57,96.77 H 28.19 A 11.19,11.19 0 0 1 17,85.68 c -0.05,0 -0.09,-14.08 -0.09,-14.13 V 29.15 A 11.25,11.25 0 0 1 17.32,26 11.11,11.11 0 0 1 27.93,18 h 0.47"
       class="cls-89"
       inkscape:connector-curvature="0"
       style="fill:#9cb078" />
    <path
       id="path214"
       transform="translate(-6.96,-8)"
       d="m 84.5,18 a 11.17,11.17 0 0 1 11.17,11.16 v 0 56.38 A 11.16,11.16 0 0 1 84.56,96.7 H 28.35 a 11.18,11.18 0 0 1 -11.22,-11 c -0.1,0 -0.19,-14 -0.19,-14.08 V 29.22 A 11.38,11.38 0 0 1 17.38,26 11.09,11.09 0 0 1 28,18 h 0.95"
       class="cls-90"
       inkscape:connector-curvature="0"
       style="fill:#9cb079" />
    <path
       id="path216"
       transform="translate(-6.96,-8)"
       d="m 84.46,18 a 11.15,11.15 0 0 1 11.15,11.2 v 0 56.3 A 11.14,11.14 0 0 1 84.54,96.63 h -56 A 11.18,11.18 0 0 1 17.29,85.78 c -0.16,0 -0.28,-13.88 -0.28,-14 V 29.3 A 11.5,11.5 0 0 1 17.43,26.13 11.07,11.07 0 0 1 28,18 h 1.42"
       class="cls-91"
       inkscape:connector-curvature="0"
       style="fill:#9db179" />
    <path
       id="path218"
       transform="translate(-6.96,-8)"
       d="m 84.42,18.11 a 11.14,11.14 0 0 1 11.13,11.13 v 0 56.21 a 11.11,11.11 0 0 1 -11,11.12 c 0,0 -4.08,0 -4.12,0 H 28.68 c -5.94,0 -11.23,-4.82 -11.23,-10.76 -0.21,0 -0.37,-13.78 -0.38,-14 V 29.37 A 11.63,11.63 0 0 1 17.49,26.19 11,11 0 0 1 28.06,18.1 H 30"
       class="cls-92"
       inkscape:connector-curvature="0"
       style="fill:#9db17a" />
    <path
       id="path220"
       transform="translate(-6.96,-8)"
       d="m 84.37,18.17 a 11.12,11.12 0 0 1 11.12,11.11 v 0 56.13 a 11.09,11.09 0 0 1 -11,11.09 c 0,0 -4.06,0 -4.11,0 H 28.84 C 23,96.52 17.6,91.76 17.6,85.88 17.34,85.88 17.13,72.2 17.13,71.94 V 29.45 a 11.76,11.76 0 0 1 0.41,-3.18 11,11 0 0 1 10.56,-8.1 h 2.37"
       class="cls-93"
       inkscape:connector-curvature="0"
       style="fill:#9eb27a" />
    <path
       id="path222"
       transform="translate(-6.96,-8)"
       d="m 84.33,18.22 a 11.1,11.1 0 0 1 11.1,11.1 v 0 56 A 11.07,11.07 0 0 1 84.5,96.43 c -0.05,0 -4,0 -4.09,0 H 29 C 23.18,96.43 17.75,91.71 17.75,85.9 17.44,85.9 17.19,72.32 17.19,72 V 29.52 A 11.9,11.9 0 0 1 17.6,26.34 11,11 0 0 1 28.15,18.22 H 31"
       class="cls-94"
       inkscape:connector-curvature="0"
       style="fill:#9eb37a" />
    <path
       id="path224"
       transform="translate(-6.96,-8)"
       d="m 84.29,18.28 a 11.09,11.09 0 0 1 11.08,11.08 v 0 56 A 11.05,11.05 0 0 1 84.48,96.37 c -0.06,0 -4,0 -4.08,0 H 29.16 C 23.4,96.37 17.91,91.7 17.91,85.95 17.55,85.95 17.25,72.46 17.25,72.1 V 29.6 a 12,12 0 0 1 0.41,-3.18 11,11 0 0 1 10.54,-8.14 h 3.31"
       class="cls-95"
       inkscape:connector-curvature="0"
       style="fill:#9fb37b" />
    <path
       id="path226"
       transform="translate(-6.96,-8)"
       d="m 84.24,18.34 a 11.07,11.07 0 0 1 11.07,11.07 v 0 55.86 a 11,11 0 0 1 -10.84,11 c -0.07,0 -4,0 -4.07,0 H 29.33 c -5.7,0 -11.26,-4.62 -11.26,-10.31 -0.41,0 -0.75,-13.39 -0.75,-13.8 V 29.67 a 12.18,12.18 0 0 1 0.4,-3.18 11,11 0 0 1 10.53,-8.15 H 32"
       class="cls-96"
       inkscape:connector-curvature="0"
       style="fill:#9fb47b" />
    <path
       id="path228"
       transform="translate(-6.96,-8)"
       d="m 84.2,18.4 a 11.05,11.05 0 0 1 11,11 v 0 55.83 a 11,11 0 0 1 -10.8,11 c -0.08,0 -4,0 -4.05,0 H 29.49 c -5.63,0 -11.27,-4.57 -11.27,-10.2 -0.47,0 -0.84,-13.29 -0.85,-13.76 V 29.75 a 12.32,12.32 0 0 1 0.4,-3.19 10.94,10.94 0 0 1 10.52,-8.16 h 4.26"
       class="cls-97"
       inkscape:connector-curvature="0"
       style="fill:#a0b47c" />
    <path
       id="path230"
       transform="translate(-6.96,-8)"
       d="m 84.16,18.46 a 11,11 0 0 1 11,11 v 0 55.72 a 11,11 0 0 1 -10.75,11 c -0.09,0 -3.94,0 -4,0 H 29.65 c -5.57,0 -11.28,-4.52 -11.28,-10.09 -0.52,0 -0.94,-13.19 -0.94,-13.71 V 29.82 a 12.47,12.47 0 0 1 0.39,-3.19 10.92,10.92 0 0 1 10.51,-8.18 h 4.73"
       class="cls-98"
       inkscape:connector-curvature="0"
       style="fill:#a0b57c" />
    <path
       id="path232"
       transform="translate(-6.96,-8)"
       d="m 84.11,18.52 a 11,11 0 0 1 11,11 v 0 55.62 a 11,11 0 0 1 -10.71,11 c -0.1,0 -3.92,0 -4,0 H 29.81 c -5.51,0 -11.29,-4.47 -11.29,-10 -0.57,0 -1,-13.09 -1,-13.66 V 29.9 a 12.62,12.62 0 0 1 0.39,-3.19 10.9,10.9 0 0 1 10.5,-8.19 h 5.21"
       class="cls-99"
       inkscape:connector-curvature="0"
       style="fill:#a1b57c" />
    <path
       id="path234"
       transform="translate(-6.96,-8)"
       d="m 84.07,18.57 a 11,11 0 0 1 11,11 v 0 55.52 A 11,11 0 0 1 84.41,96 c -0.11,0 -3.9,0.05 -4,0.05 H 30 c -5.45,0 -11.29,-4.42 -11.29,-9.87 -0.62,0 -1.12,-13 -1.13,-13.62 V 30 a 12.78,12.78 0 0 1 0.38,-3.19 10.87,10.87 0 0 1 10.49,-8.21 h 5.65"
       class="cls-100"
       inkscape:connector-curvature="0"
       style="fill:#a1b67d" />
    <path
       id="path236"
       transform="translate(-6.96,-8)"
       d="m 84,18.63 a 11,11 0 0 1 11,11 v 0 V 85 A 10.93,10.93 0 0 1 84.39,96 c -0.12,0 -3.87,0.06 -4,0.06 H 30.14 c -5.39,0 -11.3,-4.37 -11.3,-9.76 -0.67,0 -1.22,-12.9 -1.22,-13.57 V 30 A 12.93,12.93 0 0 1 18,26.85 10.85,10.85 0 0 1 28.48,18.63 h 6.15"
       class="cls-101"
       inkscape:connector-curvature="0"
       style="fill:#a2b77d" />
    <path
       id="path238"
       transform="translate(-6.96,-8)"
       d="m 84,18.69 a 11,11 0 0 1 11,11 v 0 V 85 A 10.91,10.91 0 0 1 84.38,95.9 c -0.12,0 -3.85,0.06 -4,0.06 H 30.3 C 25,96 19,91.65 19,86.32 c -0.73,0 -1.31,-12.8 -1.32,-13.53 V 30.12 A 13.09,13.09 0 0 1 18,26.93 10.83,10.83 0 0 1 28.46,18.7 h 6.63"
       class="cls-102"
       inkscape:connector-curvature="0"
       style="fill:#a2b77e" />
    <path
       id="path240"
       transform="translate(-6.96,-8)"
       d="M 83.94,18.75 A 11,11 0 0 1 94.89,29.7 v 0 V 85 A 10.89,10.89 0 0 1 84.36,95.84 c -0.13,0 -3.83,0.07 -4,0.07 h -49.9 c -5.27,0 -11.32,-4.27 -11.32,-9.54 -0.78,0 -1.41,-12.7 -1.41,-13.48 V 30.2 A 13.26,13.26 0 0 1 18.1,27 10.81,10.81 0 0 1 28.55,18.75 h 7.1"
       class="cls-103"
       inkscape:connector-curvature="0"
       style="fill:#a3b87e" />
    <path
       id="path242"
       transform="translate(-6.96,-8)"
       d="m 83.9,18.81 a 10.94,10.94 0 0 1 10.93,10.93 v 0 55.17 A 10.87,10.87 0 0 1 84.34,95.77 c -0.14,0 -3.8,0.07 -4,0.07 H 30.62 c -5.21,0 -11.32,-4.22 -11.32,-9.43 -0.83,0 -1.5,-12.6 -1.5,-13.43 V 30.27 a 13.43,13.43 0 0 1 0.37,-3.2 10.79,10.79 0 0 1 10.43,-8.26 h 7.57"
       class="cls-103"
       inkscape:connector-curvature="0"
       style="fill:#a3b87e" />
    <path
       id="path244"
       transform="translate(-6.96,-8)"
       d="m 83.85,18.87 a 10.92,10.92 0 0 1 10.92,10.91 v 0 55.09 A 10.85,10.85 0 0 1 84.33,95.71 c -0.15,0 -3.78,0.07 -3.95,0.07 h -49.6 c -5.14,0 -11.33,-4.17 -11.33,-9.31 -0.88,0 -1.59,-12.51 -1.6,-13.39 V 30.35 a 13.6,13.6 0 0 1 0.36,-3.2 10.77,10.77 0 0 1 10.43,-8.28 h 8"
       class="cls-104"
       inkscape:connector-curvature="0"
       style="fill:#a4b97f" />
    <path
       id="path246"
       transform="translate(-6.96,-8)"
       d="m 83.81,18.93 a 10.91,10.91 0 0 1 10.9,10.9 v 0 55 a 10.82,10.82 0 0 1 -10.4,10.81 c -0.16,0.05 -3.76,0.08 -3.93,0.08 H 30.95 c -5.08,0 -11.34,-4.12 -11.34,-9.2 -0.93,0 -1.69,-12.41 -1.69,-13.34 V 30.42 a 13.78,13.78 0 0 1 0.36,-3.2 10.75,10.75 0 0 1 10.42,-8.29 h 8.52"
       class="cls-105"
       inkscape:connector-curvature="0"
       style="fill:#a4ba7f" />
    <path
       id="path248"
       transform="translate(-6.96,-8)"
       d="m 83.77,19 a 10.89,10.89 0 0 1 10.88,10.86 v 0 54.92 A 10.8,10.8 0 0 1 84.3,95.57 c -0.17,0.05 -3.73,0.08 -3.92,0.08 H 31.11 c -5,0 -11.35,-4.07 -11.35,-9.09 -1,0 -1.78,-12.31 -1.79,-13.29 V 30.5 A 14,14 0 0 1 18.32,27.3 10.73,10.73 0 0 1 28.74,19 h 9"
       class="cls-106"
       inkscape:connector-curvature="0"
       style="fill:#a5ba80" />
    <path
       id="path250"
       transform="translate(-6.96,-8)"
       d="m 83.72,19 a 10.88,10.88 0 0 1 10.87,10.91 v 0 54.82 a 10.78,10.78 0 0 1 -10.3,10.78 c -0.18,0.06 -3.71,0.09 -3.91,0.09 H 31.27 c -5,0 -11.36,-4 -11.36,-9 -1,0 -1.87,-12.21 -1.88,-13.25 V 30.57 A 14.15,14.15 0 0 1 18.38,27.36 10.71,10.71 0 0 1 28.78,19 h 9.47"
       class="cls-107"
       inkscape:connector-curvature="0"
       style="fill:#a5bb80" />
    <path
       id="path252"
       transform="translate(-6.96,-8)"
       d="m 83.68,19.1 a 10.86,10.86 0 0 1 10.85,10.85 v 0 54.74 A 10.76,10.76 0 0 1 84.27,95.44 c -0.19,0.06 -3.69,0.09 -3.89,0.09 H 31.43 c -4.9,0 -11.36,-4 -11.36,-8.87 -1.09,0 -2,-12.11 -2,-13.2 V 30.64 a 14.34,14.34 0 0 1 0.35,-3.21 10.69,10.69 0 0 1 10.41,-8.33 h 9.94"
       class="cls-108"
       inkscape:connector-curvature="0"
       style="fill:#a6bb80" />
    <path
       id="path254"
       transform="translate(-6.96,-8)"
       d="M 83.64,19.16 A 10.84,10.84 0 0 1 94.47,30 v 0 54.64 A 10.74,10.74 0 0 1 84.25,95.37 c -0.19,0.06 -3.67,0.1 -3.88,0.1 H 31.59 c -4.84,0 -11.37,-3.92 -11.37,-8.76 -1.14,0 -2.06,-12 -2.07,-13.16 V 30.72 a 14.54,14.54 0 0 1 0.34,-3.21 10.67,10.67 0 0 1 10.38,-8.35 h 10.41"
       class="cls-109"
       inkscape:connector-curvature="0"
       style="fill:#a6bc81" />
    <path
       id="path256"
       transform="translate(-6.96,-8)"
       d="M 83.59,19.22 A 10.83,10.83 0 0 1 94.41,30 v 0 54.6 A 10.72,10.72 0 0 1 84.24,95.31 c -0.2,0.06 -3.64,0.1 -3.87,0.1 H 31.76 c -4.78,0 -11.38,-3.87 -11.38,-8.65 -1.19,0 -2.16,-11.92 -2.16,-13.11 V 30.79 a 14.74,14.74 0 0 1 0.34,-3.21 10.66,10.66 0 0 1 10.36,-8.37 H 39.8"
       class="cls-110"
       inkscape:connector-curvature="0"
       style="fill:#a7bc81" />
    <path
       id="path258"
       transform="translate(-6.96,-8)"
       d="m 83.55,19.28 a 10.81,10.81 0 0 1 10.8,10.8 v 0 54.47 A 10.71,10.71 0 0 1 84.22,95.24 c -0.21,0.07 -3.62,0.1 -3.85,0.11 H 31.92 c -4.72,0 -11.39,-3.82 -11.39,-8.54 -1.24,0 -2.25,-11.82 -2.26,-13.06 V 30.87 A 15,15 0 0 1 18.6,27.66 10.64,10.64 0 0 1 29,19.28 h 11.32"
       class="cls-111"
       inkscape:connector-curvature="0"
       style="fill:#a7bd82" />
    <path
       id="path260"
       transform="translate(-6.96,-8)"
       d="m 83.51,19.33 a 10.79,10.79 0 0 1 10.77,10.78 v 0 54.4 A 10.69,10.69 0 0 1 84.21,95.17 c -0.22,0.07 -3.6,0.11 -3.84,0.11 H 32.08 c -4.65,0 -11.39,-3.77 -11.39,-8.43 -1.3,0 -2.34,-11.72 -2.35,-13 V 30.94 A 15.16,15.16 0 0 1 18.67,27.73 10.62,10.62 0 0 1 29,19.33 h 11.84"
       class="cls-112"
       inkscape:connector-curvature="0"
       style="fill:#a8be82" />
    <path
       id="path262"
       transform="translate(-6.96,-8)"
       d="m 83.46,19.39 a 10.78,10.78 0 0 1 10.76,10.77 v 0 54.3 a 10.67,10.67 0 0 1 -10,10.65 c -0.23,0.07 -3.57,0.11 -3.83,0.11 H 32.24 c -4.59,0 -11.4,-3.72 -11.4,-8.32 -1.35,0 -2.44,-11.62 -2.45,-13 V 31 a 15.38,15.38 0 0 1 0.32,-3.22 10.6,10.6 0 0 1 10.33,-8.41 h 12.3"
       class="cls-112"
       inkscape:connector-curvature="0"
       style="fill:#a8be82" />
    <path
       id="path264"
       transform="translate(-6.96,-8)"
       d="M 83.42,19.45 A 10.76,10.76 0 0 1 94.16,30.2 v 0 54.22 A 10.65,10.65 0 0 1 84.18,95 c -0.24,0.08 -3.55,0.12 -3.81,0.12 h -48 C 27.87,95.16 21,91.49 21,87 19.6,87 18.47,75.47 18.46,74.08 V 31.09 a 15.61,15.61 0 0 1 0.32,-3.22 10.58,10.58 0 0 1 10.32,-8.42 h 12.77"
       class="cls-113"
       inkscape:connector-curvature="0"
       style="fill:#a9bf83" />
    <path
       id="path266"
       transform="translate(-6.96,-8)"
       d="M 83.38,19.51 A 10.75,10.75 0 0 1 94.1,30.24 v 0 54.13 A 10.63,10.63 0 0 1 84.16,95 c -0.25,0.08 -3.53,0.12 -3.8,0.12 H 32.57 c -4.47,0 -11.42,-3.62 -11.42,-8.1 -1.45,0 -2.62,-11.43 -2.63,-12.88 v -43 a 15.84,15.84 0 0 1 0.32,-3.22 10.56,10.56 0 0 1 10.31,-8.44 h 13.24"
       class="cls-113"
       inkscape:connector-curvature="0"
       style="fill:#a9bf83" />
    <path
       id="path268"
       transform="translate(-6.96,-8)"
       d="M 83.33,19.57 A 10.73,10.73 0 0 1 94,30.28 v 0 54 a 10.61,10.61 0 0 1 -9.9,10.58 c -0.26,0.08 -3.5,0.13 -3.79,0.13 H 32.73 c -4.41,0 -11.43,-3.57 -11.43,-8 -1.5,0 -2.72,-11.33 -2.73,-12.83 v -43 A 16.07,16.07 0 0 1 18.89,28 10.54,10.54 0 0 1 29.19,19.55 h 13.72"
       class="cls-114"
       inkscape:connector-curvature="0"
       style="fill:#aac083" />
    <path
       id="path270"
       transform="translate(-6.96,-8)"
       d="M 83.29,19.63 A 10.71,10.71 0 0 1 94,30.32 v 0 54 a 10.59,10.59 0 0 1 -9.85,10.56 c -0.27,0.08 -3.48,0.13 -3.77,0.13 H 32.89 c -4.35,0 -11.43,-3.52 -11.43,-7.87 -1.55,0 -2.81,-11.23 -2.82,-12.79 v -43 a 16.32,16.32 0 0 1 0.31,-3.22 10.52,10.52 0 0 1 10.29,-8.47 h 14.2"
       class="cls-115"
       inkscape:connector-curvature="0"
       style="fill:#aac184" />
    <path
       id="path272"
       transform="translate(-6.96,-8)"
       d="m 83.25,19.69 a 10.7,10.7 0 0 1 10.67,10.67 v 0 53.88 a 10.57,10.57 0 0 1 -9.81,10.54 c -0.27,0.09 -3.46,0.13 -3.76,0.14 H 33.05 C 28.76,94.92 21.61,91.44 21.61,87.16 20,87.14 18.71,76 18.7,74.41 v -43 A 16.57,16.57 0 0 1 19,28.18 10.51,10.51 0 0 1 29.28,19.7 h 14.67"
       class="cls-116"
       inkscape:connector-curvature="0"
       style="fill:#abc184" />
    <path
       id="path274"
       transform="translate(-6.96,-8)"
       d="m 83.2,19.74 a 10.68,10.68 0 0 1 10.66,10.67 v 0 53.78 A 10.55,10.55 0 0 1 84.1,94.71 c -0.28,0.09 -3.43,0.14 -3.75,0.14 H 33.21 c -4.23,0 -11.45,-3.43 -11.45,-7.65 -1.66,0 -3,-11 -3,-12.69 v -43 a 16.83,16.83 0 0 1 0.3,-3.23 10.49,10.49 0 0 1 10.26,-8.5 h 15.14"
       class="cls-117"
       inkscape:connector-curvature="0"
       style="fill:#abc285" />
    <path
       id="path276"
       transform="translate(-6.96,-8)"
       d="M 83.16,19.8 A 10.66,10.66 0 0 1 93.8,30.45 v 0 53.7 a 10.53,10.53 0 0 1 -9.72,10.5 c -0.29,0.09 -3.41,0.14 -3.73,0.15 h -47 c -4.16,0 -11.46,-3.38 -11.46,-7.54 -1.71,0 -3.09,-10.94 -3.1,-12.65 V 31.54 A 17.09,17.09 0 0 1 19.08,28.31 10.47,10.47 0 0 1 29.36,19.8 H 45"
       class="cls-118"
       inkscape:connector-curvature="0"
       style="fill:#acc285" />
    <path
       id="path278"
       transform="translate(-6.96,-8)"
       d="m 83.12,19.86 a 10.65,10.65 0 0 1 10.62,10.63 v 0 53.61 a 10.51,10.51 0 0 1 -9.67,10.48 c -0.3,0.1 -3.39,0.15 -3.72,0.15 H 33.54 c -4.1,0 -11.46,-3.33 -11.46,-7.43 -1.76,0 -3.19,-10.84 -3.2,-12.6 V 31.62 a 17.37,17.37 0 0 1 0.29,-3.23 10.45,10.45 0 0 1 10.24,-8.53 H 45.5"
       class="cls-119"
       inkscape:connector-curvature="0"
       style="fill:#adc385" />
    <path
       id="path280"
       transform="translate(-6.96,-8)"
       d="m 83.07,19.92 a 10.63,10.63 0 0 1 10.61,10.61 v 0 53.53 a 10.49,10.49 0 0 1 -9.63,10.46 c -0.31,0.1 -3.37,0.15 -3.71,0.15 H 33.7 c -4,0 -11.47,-3.28 -11.47,-7.32 -1.81,0 -3.28,-10.74 -3.29,-12.55 V 31.69 a 17.65,17.65 0 0 1 0.29,-3.23 10.43,10.43 0 0 1 10.23,-8.54 H 46"
       class="cls-120"
       inkscape:connector-curvature="0"
       style="fill:#adc386" />
    <path
       id="path282"
       transform="translate(-6.96,-8)"
       d="m 83,20 a 10.62,10.62 0 0 1 10.62,10.57 v 0 V 84 A 10.47,10.47 0 0 1 84,94.45 c -0.32,0.1 -3.34,0.16 -3.69,0.16 H 33.86 c -4,0 -11.48,-3.23 -11.48,-7.21 C 20.52,87.38 19,76.75 19,74.89 V 31.77 A 17.94,17.94 0 0 1 19.28,28.54 10.42,10.42 0 0 1 29.5,20 h 17"
       class="cls-121"
       inkscape:connector-curvature="0"
       style="fill:#aec486" />
    <path
       id="path284"
       transform="translate(-6.96,-8)"
       d="m 83,20 a 10.6,10.6 0 0 1 10.56,10.61 v 0 V 84 A 10.46,10.46 0 0 1 84,94.38 c -0.33,0.1 -3.32,0.16 -3.68,0.16 H 34 c -3.92,0 -11.49,-3.18 -11.49,-7.1 -1.92,0 -3.47,-10.54 -3.48,-12.46 V 31.84 A 18.25,18.25 0 0 1 19.31,28.6 10.4,10.4 0 0 1 29.54,20 h 17.51"
       class="cls-122"
       inkscape:connector-curvature="0"
       style="fill:#aec587" />
    <path
       id="path286"
       transform="translate(-6.96,-8)"
       d="M 82.94,20.1 A 10.58,10.58 0 0 1 93.5,30.66 v 0 53.26 A 10.44,10.44 0 0 1 84,94.31 c -0.34,0.11 -3.3,0.17 -3.67,0.17 H 34.19 c -3.86,0 -11.5,-3.13 -11.5,-7 -2,0 -3.56,-10.45 -3.57,-12.42 V 31.92 a 18.56,18.56 0 0 1 0.27,-3.24 10.38,10.38 0 0 1 10.2,-8.58 h 18"
       class="cls-123"
       inkscape:connector-curvature="0"
       style="fill:#afc587" />
    <path
       id="path288"
       transform="translate(-6.96,-8)"
       d="M 82.9,20.15 A 10.57,10.57 0 0 1 93.44,30.7 v 0 53.17 A 10.42,10.42 0 0 1 84,94.25 c -0.35,0.11 -3.27,0.17 -3.65,0.17 h -46 c -3.8,0 -11.5,-3.08 -11.5,-6.88 -2,0 -3.66,-10.35 -3.67,-12.37 V 32 a 18.88,18.88 0 0 1 0.27,-3.24 10.36,10.36 0 0 1 10.19,-8.6 h 18.45"
       class="cls-124"
       inkscape:connector-curvature="0"
       style="fill:#afc687" />
    <path
       id="path290"
       transform="translate(-6.96,-8)"
       d="m 82.86,20.21 a 10.55,10.55 0 0 1 10.52,10.53 v 0 53.09 A 10.4,10.4 0 0 1 84,94.18 c -0.35,0.11 -3.25,0.17 -3.64,0.18 H 34.51 C 30.77,94.36 23,91.36 23,87.6 20.93,87.6 19.25,77.35 19.24,75.28 V 32.07 a 19.21,19.21 0 0 1 0.26,-3.24 10.35,10.35 0 0 1 10.18,-8.61 h 18.93"
       class="cls-125"
       inkscape:connector-curvature="0"
       style="fill:#b0c688" />
    <path
       id="path292"
       transform="translate(-6.96,-8)"
       d="m 82.81,20.27 a 10.53,10.53 0 0 1 10.51,10.51 v 0 53 A 10.38,10.38 0 0 1 84,94.11 c -0.36,0.11 -3.23,0.18 -3.63,0.18 h -45.7 c -3.67,0 -11.52,-3 -11.52,-6.65 -2.12,0 -3.84,-10.15 -3.86,-12.28 V 32.14 a 19.55,19.55 0 0 1 0.26,-3.24 10.33,10.33 0 0 1 10.16,-8.63 h 19.4"
       class="cls-126"
       inkscape:connector-curvature="0"
       style="fill:#b0c788" />
    <path
       id="path294"
       transform="translate(-6.96,-8)"
       d="m 82.77,20.33 a 10.52,10.52 0 0 1 10.49,10.49 v 0 52.92 A 10.36,10.36 0 0 1 83.95,94 c -0.37,0.12 -3.2,0.18 -3.61,0.18 h -45.5 c -3.61,0 -11.53,-2.93 -11.53,-6.54 -2.18,0 -3.94,-10.05 -4,-12.23 V 32.22 A 19.91,19.91 0 0 1 19.61,29 10.31,10.31 0 0 1 29.76,20.36 h 19.88"
       class="cls-127"
       inkscape:connector-curvature="0"
       style="fill:#b1c889" />
    <path
       id="path296"
       transform="translate(-6.96,-8)"
       d="M 82.73,20.39 A 10.5,10.5 0 0 1 93.2,30.86 v 0 52.83 A 10.35,10.35 0 0 1 83.93,94 c -0.38,0.12 -3.18,0.19 -3.6,0.19 H 35 c -3.55,0 -11.53,-2.88 -11.53,-6.43 -2.23,0 -4,-10 -4,-12.18 V 32.29 A 20.27,20.27 0 0 1 19.67,29 10.3,10.3 0 0 1 29.81,20.34 h 20.35"
       class="cls-127"
       inkscape:connector-curvature="0"
       style="fill:#b1c889" />
    <path
       id="path298"
       transform="translate(-6.96,-8)"
       d="m 82.68,20.45 a 10.49,10.49 0 0 1 10.46,10.46 v 0 52.74 a 10.33,10.33 0 0 1 -9.23,10.27 35.1,35.1 0 0 1 -3.59,0.19 H 35.16 c -3.49,0 -11.54,-2.83 -11.54,-6.32 -2.28,0 -4.12,-9.86 -4.14,-12.14 V 32.37 a 20.65,20.65 0 0 1 0.25,-3.25 10.28,10.28 0 0 1 10.13,-8.67 h 20.82"
       class="cls-128"
       inkscape:connector-curvature="0"
       style="fill:#b2c989" />
    <path
       id="path300"
       transform="translate(-6.96,-8)"
       d="m 82.64,20.5 a 10.47,10.47 0 0 1 10.44,10.45 v 0 52.65 a 10.31,10.31 0 0 1 -9.18,10.25 34.06,34.06 0 0 1 -3.57,0.2 h -45 c -3.43,0 -11.55,-2.78 -11.55,-6.21 -2.33,0 -4.22,-9.76 -4.23,-12.09 V 32.44 A 21,21 0 0 1 19.79,29.19 10.26,10.26 0 0 1 29.9,20.5 h 21.3"
       class="cls-129"
       inkscape:connector-curvature="0"
       style="fill:#b2c98a" />
    <path
       id="path302"
       transform="translate(-6.96,-8)"
       d="M 82.59,20.56 A 10.45,10.45 0 0 1 93,31 v 0 52.56 a 10.29,10.29 0 0 1 -9.14,10.22 33.07,33.07 0 0 1 -3.56,0.2 H 35.48 c -3.37,0 -11.56,-2.73 -11.56,-6.1 -2.38,0 -4.31,-9.66 -4.33,-12 V 32.52 a 21.46,21.46 0 0 1 0.24,-3.25 10.25,10.25 0 0 1 10.11,-8.7 h 21.78"
       class="cls-130"
       inkscape:connector-curvature="0"
       style="fill:#b3ca8a" />
    <path
       id="path304"
       transform="translate(-6.96,-8)"
       d="M 82.55,20.62 A 10.44,10.44 0 0 1 93,31 v 0 52.51 a 10.28,10.28 0 0 1 -9.09,10.2 32.11,32.11 0 0 1 -3.55,0.21 H 35.65 c -3.31,0 -11.57,-2.68 -11.57,-6 -2.44,0 -4.41,-9.56 -4.42,-12 V 32.59 A 21.88,21.88 0 0 1 19.89,29.33 10.23,10.23 0 0 1 30,20.62 h 22.23"
       class="cls-131"
       inkscape:connector-curvature="0"
       style="fill:#b3ca8b" />
    <path
       id="path306"
       transform="translate(-6.96,-8)"
       d="M 82.51,20.68 A 10.42,10.42 0 0 1 92.9,31.07 v 0 52.4 a 10.26,10.26 0 0 1 -9,10.18 31.2,31.2 0 0 1 -3.53,0.21 H 35.81 c -3.25,0 -11.57,-2.63 -11.57,-5.88 -2.49,0 -4.5,-9.47 -4.51,-12 V 32.67 A 22.32,22.32 0 0 1 19.96,29.41 10.21,10.21 0 0 1 30,20.68 h 22.75"
       class="cls-132"
       inkscape:connector-curvature="0"
       style="fill:#b4cb8b" />
    <path
       id="path308"
       transform="translate(-6.96,-8)"
       d="m 82.46,20.74 a 10.4,10.4 0 0 1 10.38,10.37 v 0 52.31 a 10.24,10.24 0 0 1 -9,10.16 30.33,30.33 0 0 1 -3.52,0.22 H 36 c -3.18,0 -11.58,-2.58 -11.58,-5.77 -2.54,0 -4.59,-9.37 -4.61,-11.91 V 32.74 A 22.78,22.78 0 0 1 20,29.48 10.2,10.2 0 0 1 30.08,20.74 h 23.19"
       class="cls-133"
       inkscape:connector-curvature="0"
       style="fill:#b4cc8b" />
    <path
       id="path310"
       transform="translate(-6.96,-8)"
       d="m 82.42,20.8 a 10.39,10.39 0 0 1 10.36,10.36 v 0 52.22 a 10.22,10.22 0 0 1 -9,10.14 29.5,29.5 0 0 1 -3.51,0.22 H 36.13 c -3.12,0 -11.59,-2.53 -11.59,-5.66 -2.59,0 -4.69,-9.27 -4.7,-11.86 v -43.4 a 23.25,23.25 0 0 1 0.22,-3.26 10.18,10.18 0 0 1 10.07,-8.76 h 23.66"
       class="cls-134"
       inkscape:connector-curvature="0"
       style="fill:#b5cc8c" />
    <path
       id="path312"
       transform="translate(-6.96,-8)"
       d="M 82.38,20.86 A 10.37,10.37 0 0 1 92.72,31.2 v 0 52.13 a 10.21,10.21 0 0 1 -8.91,10.12 28.7,28.7 0 0 1 -3.5,0.22 h -44 c -3.06,0 -11.6,-2.48 -11.6,-5.54 -2.64,0 -4.78,-9.17 -4.8,-11.81 V 32.89 a 23.75,23.75 0 0 1 0.22,-3.26 10.17,10.17 0 0 1 10.05,-8.77 h 24.13"
       class="cls-135"
       inkscape:connector-curvature="0"
       style="fill:#b5cd8c" />
    <path
       id="path314"
       transform="translate(-6.96,-8)"
       d="m 82.33,20.91 a 10.36,10.36 0 0 1 10.33,10.33 v 0 52 a 10.19,10.19 0 0 1 -8.87,10.1 27.93,27.93 0 0 1 -3.48,0.23 H 36.46 c -3,0 -11.6,-2.43 -11.6,-5.43 -2.69,0 -4.87,-9.07 -4.89,-11.77 V 33 a 24.26,24.26 0 0 1 0.21,-3.26 10.15,10.15 0 0 1 10,-8.79 h 24.64"
       class="cls-136"
       inkscape:connector-curvature="0"
       style="fill:#b6cd8d" />
    <path
       id="path316"
       transform="translate(-6.96,-8)"
       d="M 82.29,21 A 10.34,10.34 0 0 1 92.6,31.28 v 0 52 a 10.17,10.17 0 0 1 -8.82,10.07 27.19,27.19 0 0 1 -3.47,0.23 H 36.62 C 33.68,93.55 25,91.17 25,88.23 c -2.75,0 -5,-9 -5,-11.72 V 33 a 24.8,24.8 0 0 1 0.21,-3.27 10.13,10.13 0 0 1 10,-8.8 h 25.13"
       class="cls-137"
       inkscape:connector-curvature="0"
       style="fill:#b6ce8d" />
    <path
       id="path318"
       transform="translate(-6.96,-8)"
       d="m 82.25,21 a 10.32,10.32 0 0 1 10.29,10.32 v 0 51.88 A 10.16,10.16 0 0 1 83.76,93.25 26.48,26.48 0 0 1 80.3,93.49 H 36.78 c -2.88,0 -11.62,-2.33 -11.62,-5.21 -2.8,0 -5.06,-8.88 -5.08,-11.67 V 33.12 A 25.36,25.36 0 0 1 20.28,29.85 10.12,10.12 0 0 1 30.3,21 h 25.56"
       class="cls-138"
       inkscape:connector-curvature="0"
       style="fill:#b7cf8d" />
    <path
       id="path320"
       transform="translate(-6.96,-8)"
       d="m 82.2,21.09 a 10.31,10.31 0 0 1 10.28,10.27 v 0 51.79 a 10.14,10.14 0 0 1 -8.73,10 25.79,25.79 0 0 1 -3.44,0.24 H 36.94 c -2.82,0 -11.63,-2.28 -11.63,-5.1 -2.85,0 -5.16,-8.78 -5.17,-11.63 V 33.19 a 25.94,25.94 0 0 1 0.2,-3.27 10.1,10.1 0 0 1 10,-8.83 h 26"
       class="cls-139"
       inkscape:connector-curvature="0"
       style="fill:#b7cf8e" />
    <path
       id="path322"
       transform="translate(-6.96,-8)"
       d="m 82.16,21.15 a 10.29,10.29 0 0 1 10.26,10.26 v 0 51.7 a 10.12,10.12 0 0 1 -8.69,10 25.13,25.13 0 0 1 -3.43,0.25 H 37.1 c -2.76,0 -11.64,-2.23 -11.64,-5 -2.9,0 -5.25,-8.68 -5.27,-11.58 V 33.27 A 26.55,26.55 0 0 1 20.4,30 a 10.09,10.09 0 0 1 10,-8.85 h 26.5"
       class="cls-140"
       inkscape:connector-curvature="0"
       style="fill:#b8d08e" />
    <path
       id="path324"
       transform="translate(-6.96,-8)"
       d="m 82.12,21.21 a 10.27,10.27 0 0 1 10.24,10.24 v 0 51.61 a 10.11,10.11 0 0 1 -8.64,10 24.5,24.5 0 0 1 -3.42,0.25 h -43 c -2.69,0 -11.64,-2.18 -11.64,-4.88 -3,0 -5.34,-8.58 -5.36,-11.54 V 33.34 a 27.19,27.19 0 0 1 0.19,-3.27 10.07,10.07 0 0 1 10,-8.86 h 27"
       class="cls-141"
       inkscape:connector-curvature="0"
       style="fill:#b8d08f" />
    <path
       id="path326"
       transform="translate(-6.96,-8)"
       d="M 82.07,21.27 A 10.26,10.26 0 0 1 92.3,31.49 v 0 V 83 a 10.09,10.09 0 0 1 -8.6,10 23.89,23.89 0 0 1 -3.4,0.26 H 37.43 c -2.63,0 -11.65,-2.13 -11.65,-4.77 -3,0 -5.44,-8.48 -5.46,-11.49 V 33.42 a 27.86,27.86 0 0 1 0.19,-3.28 10.06,10.06 0 0 1 10,-8.87 h 27.42"
       class="cls-142"
       inkscape:connector-curvature="0"
       style="fill:#b9d18f" />
    <path
       id="path328"
       transform="translate(-6.96,-8)"
       d="m 82,21.32 a 10.24,10.24 0 0 1 10.24,10.21 v 0 V 83 a 10.08,10.08 0 0 1 -8.55,9.95 23.3,23.3 0 0 1 -3.39,0.26 H 37.59 c -2.57,0 -11.66,-2.09 -11.66,-4.66 -3.06,0 -5.53,-8.39 -5.55,-11.44 V 33.49 a 28.56,28.56 0 0 1 0.18,-3.28 10,10 0 0 1 10,-8.89 h 27.89"
       class="cls-142"
       inkscape:connector-curvature="0"
       style="fill:#b9d18f" />
    <path
       id="path330"
       transform="translate(-6.96,-8)"
       d="m 82,21.38 a 10.23,10.23 0 0 1 10.18,10.19 v 0 51.36 a 10.06,10.06 0 0 1 -8.51,9.93 22.73,22.73 0 0 1 -3.38,0.26 H 37.75 c -2.51,0 -11.67,-2 -11.67,-4.55 -3.11,0 -5.62,-8.29 -5.64,-11.4 v -43.6 a 29.29,29.29 0 0 1 0.18,-3.28 10,10 0 0 1 10,-8.9 H 59"
       class="cls-143"
       inkscape:connector-curvature="0"
       style="fill:#bad290" />
    <path
       id="path332"
       transform="translate(-6.96,-8)"
       d="m 81.94,21.44 a 10.21,10.21 0 0 1 10.18,10.17 v 0 51.27 a 10,10 0 0 1 -8.46,9.9 22.18,22.18 0 0 1 -3.36,0.27 H 37.91 c -2.45,0 -11.67,-2 -11.67,-4.44 -3.16,0 -5.72,-8.19 -5.74,-11.35 V 33.64 a 30.06,30.06 0 0 1 0.17,-3.28 10,10 0 0 1 9.94,-8.92 h 28.88"
       class="cls-144"
       inkscape:connector-curvature="0"
       style="fill:#bad390" />
    <path
       id="path334"
       transform="translate(-6.96,-8)"
       d="m 81.9,21.5 a 10.19,10.19 0 0 1 10.16,10.16 v 0 51.18 a 10,10 0 0 1 -8.42,9.88 21.64,21.64 0 0 1 -3.35,0.27 H 38.08 c -2.39,0 -11.68,-1.94 -11.68,-4.32 -3.21,0 -5.81,-8.09 -5.83,-11.3 V 33.71 a 30.87,30.87 0 0 1 0.17,-3.28 10,10 0 0 1 9.93,-8.93 H 60"
       class="cls-145"
       inkscape:connector-curvature="0"
       style="fill:#bbd391" />
    <path
       id="path336"
       transform="translate(-6.96,-8)"
       d="M 81.86,21.56 A 10.18,10.18 0 0 1 92,31.7 v 0 51.1 a 10,10 0 0 1 -8.37,9.86 21.13,21.13 0 0 1 -3.34,0.28 h -42 c -2.33,0 -11.69,-1.89 -11.69,-4.21 -3.26,0 -5.91,-8 -5.93,-11.26 V 33.79 a 31.72,31.72 0 0 1 0.16,-3.28 10,10 0 0 1 9.92,-8.95 h 29.77"
       class="cls-146"
       inkscape:connector-curvature="0"
       style="fill:#bbd491" />
    <path
       id="path338"
       transform="translate(-6.96,-8)"
       d="m 81.81,21.62 a 10.16,10.16 0 0 1 10.13,10.12 v 0 51 a 10,10 0 0 1 -8.33,9.84 20.63,20.63 0 0 1 -3.32,0.28 H 38.4 c -2.27,0 -11.7,-1.84 -11.7,-4.1 -3.32,0 -6,-7.9 -6,-11.21 V 33.86 a 32.62,32.62 0 0 1 0.16,-3.29 10,10 0 0 1 9.91,-9 H 61"
       class="cls-147"
       inkscape:connector-curvature="0"
       style="fill:#bcd491" />
    <path
       id="path340"
       transform="translate(-6.96,-8)"
       d="m 81.77,21.67 a 10.14,10.14 0 0 1 10.11,10.11 v 0 50.92 a 10,10 0 0 1 -8.28,9.82 20.15,20.15 0 0 1 -3.31,0.29 H 38.56 c -2.2,0 -11.71,-1.79 -11.71,-4 -3.37,0 -6.09,-7.8 -6.11,-11.17 v -43.7 c 0,-0.39 0.05,-2.93 0.16,-3.29 a 10,10 0 0 1 9.9,-9 h 30.76"
       class="cls-148"
       inkscape:connector-curvature="0"
       style="fill:#bcd592" />
    <path
       id="path342"
       transform="translate(-6.96,-8)"
       d="m 81.73,21.73 a 10.13,10.13 0 0 1 10.09,10.09 v 0 50.84 a 10,10 0 0 1 -8.24,9.8 19.69,19.69 0 0 1 -3.3,0.29 H 38.72 C 36.58,92.75 27,91 27,88.87 c -3.42,0 -6.19,-7.7 -6.21,-11.12 V 34 c 0,-0.38 0.05,-2.94 0.15,-3.29 a 9.94,9.94 0 0 1 9.89,-9 h 31.25"
       class="cls-149"
       inkscape:connector-curvature="0"
       style="fill:#bdd692" />
    <path
       id="path344"
       transform="translate(-6.96,-8)"
       d="m 81.68,21.79 a 10.11,10.11 0 0 1 10.08,10.07 v 0 50.75 a 10,10 0 0 1 -8.19,9.78 19.24,19.24 0 0 1 -3.28,0.3 h -41.4 c -2.08,0 -11.72,-1.69 -11.72,-3.77 -3.47,0 -6.28,-7.6 -6.3,-11.07 V 34.09 c 0,-0.37 0,-3 0.15,-3.29 a 9.93,9.93 0 0 1 9.88,-9 h 31.7"
       class="cls-150"
       inkscape:connector-curvature="0"
       style="fill:#bdd693" />
    <path
       id="path346"
       transform="translate(-6.96,-8)"
       d="M 81.64,21.85 A 10.1,10.1 0 0 1 91.7,31.91 v 0 50.66 a 9.94,9.94 0 0 1 -8.15,9.76 18.8,18.8 0 0 1 -3.27,0.3 H 39 C 37,92.62 27.32,91 27.32,89 23.8,89 20.95,81.5 20.92,78 V 34.16 c 0,-0.36 0,-3 0.14,-3.29 a 9.91,9.91 0 0 1 9.87,-9 h 32.18"
       class="cls-151"
       inkscape:connector-curvature="0"
       style="fill:#bed793" />
    <path
       id="path348"
       transform="translate(-6.96,-8)"
       d="m 81.6,21.91 a 10.08,10.08 0 0 1 10,10 v 0 50.61 a 9.92,9.92 0 0 1 -8.1,9.73 18.38,18.38 0 0 1 -3.26,0.3 H 39.21 C 37.21,92.55 27.47,90.96 27.47,89 23.9,89 21,81.61 21,78 V 34.24 c 0,-0.35 0,-3 0.14,-3.3 a 9.9,9.9 0 0 1 9.85,-9 h 32.64"
       class="cls-152"
       inkscape:connector-curvature="0"
       style="fill:#bfd793" />
    <path
       id="path350"
       transform="translate(-6.96,-8)"
       d="m 81.55,22 a 10.06,10.06 0 0 1 10,10 v 0 50.48 a 9.91,9.91 0 0 1 -8.06,9.71 18,18 0 0 1 -3.24,0.31 H 39.37 C 37.47,92.5 27.63,90.96 27.63,89.06 24,89 21.07,81.75 21,78.13 V 34.31 c 0,-0.34 0,-3 0.13,-3.3 A 9.88,9.88 0 0 1 31,22 h 33.15"
       class="cls-153"
       inkscape:connector-curvature="0"
       style="fill:#bfd894" />
    <path
       id="path352"
       transform="translate(-6.96,-8)"
       d="m 81.51,22 a 10,10 0 0 1 10,10 v 0 50.4 a 9.89,9.89 0 0 1 -8,9.69 17.57,17.57 0 0 1 -3.23,0.31 H 39.53 c -1.84,0 -11.75,-1.49 -11.75,-3.33 -3.68,0 -6.66,-7.21 -6.68,-10.89 V 34.39 c 0,-0.33 0,-3 0.13,-3.3 A 9.87,9.87 0 0 1 31.07,22 h 33.6"
       class="cls-154"
       inkscape:connector-curvature="0"
       style="fill:#c0d894" />
    <path
       id="path354"
       transform="translate(-6.96,-8)"
       d="m 81.47,22.08 a 10,10 0 0 1 10,10 v 0 50.31 a 9.88,9.88 0 0 1 -8,9.67 17.18,17.18 0 0 1 -3.22,0.32 H 39.7 c -1.78,0 -11.76,-1.44 -11.76,-3.22 -3.73,0 -6.75,-7.11 -6.77,-10.84 V 34.46 c 0,-0.32 0,-3 0.13,-3.3 a 9.86,9.86 0 0 1 9.82,-9.08 h 34.07"
       class="cls-155"
       inkscape:connector-curvature="0"
       style="fill:#c0d995" />
    <path
       id="path356"
       transform="translate(-6.96,-8)"
       d="m 81.42,22.14 a 10,10 0 0 1 10,10 v 0 50.2 A 9.87,9.87 0 0 1 83.47,92 16.81,16.81 0 0 1 80.27,92.32 H 39.86 c -1.71,0 -11.77,-1.39 -11.77,-3.1 -3.78,0 -6.84,-7 -6.87,-10.8 V 34.54 c 0,-0.3 0,-3 0.12,-3.3 a 9.84,9.84 0 0 1 9.81,-9.09 H 65.7"
       class="cls-156"
       inkscape:connector-curvature="0"
       style="fill:#c1da95" />
    <path
       id="path358"
       transform="translate(-6.96,-8)"
       d="m 81.38,22.2 a 10,10 0 0 1 10,10 v 0 50.1 a 9.85,9.85 0 0 1 -7.88,9.63 16.45,16.45 0 0 1 -3.19,0.33 H 40 c -1.65,0 -11.78,-1.34 -11.78,-3 -3.83,0 -6.94,-6.92 -7,-10.75 v -43.9 c 0,-0.29 0,-3 0.12,-3.3 a 9.83,9.83 0 0 1 9.8,-9.11 h 35"
       class="cls-156"
       inkscape:connector-curvature="0"
       style="fill:#c1da95" />
    <path
       id="path360"
       transform="translate(-6.96,-8)"
       d="m 81.34,22.26 a 10,10 0 0 1 9.94,9.94 v 0 50.05 a 9.84,9.84 0 0 1 -7.84,9.61 16.09,16.09 0 0 1 -3.18,0.33 H 40.18 c -1.59,0 -11.78,-1.29 -11.78,-2.88 -3.89,0 -7,-6.82 -7.05,-10.7 V 34.69 c 0,-0.28 0,-3 0.11,-3.31 a 9.82,9.82 0 0 1 9.79,-9.12 h 35.5"
       class="cls-157"
       inkscape:connector-curvature="0"
       style="fill:#c2db96" />
    <path
       id="path362"
       transform="translate(-6.96,-8)"
       d="m 81.29,22.32 a 10,10 0 0 1 9.92,9.92 v 0 50 a 9.83,9.83 0 0 1 -7.79,9.59 15.75,15.75 0 0 1 -3.16,0.33 H 40.34 c -1.53,0 -11.79,-1.24 -11.79,-2.77 -3.94,0 -7.12,-6.72 -7.15,-10.66 V 34.76 c 0,-0.27 0,-3.06 0.11,-3.31 a 9.8,9.8 0 0 1 9.78,-9.14 h 36"
       class="cls-157"
       inkscape:connector-curvature="0"
       style="fill:#c2db96" />
    <path
       id="path364"
       transform="translate(-6.96,-8)"
       d="m 81.25,22.38 a 10,10 0 0 1 9.9,9.9 v 0 49.88 a 9.81,9.81 0 0 1 -7.75,9.56 15.42,15.42 0 0 1 -3.15,0.34 H 40.51 c -1.47,0 -11.8,-1.19 -11.8,-2.66 -4,0 -7.22,-6.62 -7.24,-10.61 v -44 c 0,-0.26 0,-3.07 0.1,-3.31 a 9.79,9.79 0 0 1 9.77,-9.15 h 36.44"
       class="cls-158"
       inkscape:connector-curvature="0"
       style="fill:#c3dc96" />
    <path
       id="path366"
       transform="translate(-6.96,-8)"
       d="m 81.21,22.44 a 9.93,9.93 0 0 1 9.89,9.89 v 0 49.79 A 9.8,9.8 0 0 1 83.4,91.66 15.09,15.09 0 0 1 80.26,92 H 40.67 c -1.41,0 -11.81,-1.14 -11.81,-2.55 -4,0 -7.31,-6.52 -7.34,-10.56 v -44 c 0,-0.25 0,-3.08 0.1,-3.31 a 9.78,9.78 0 0 1 9.75,-9.17 h 36.92"
       class="cls-159"
       inkscape:connector-curvature="0"
       style="fill:#c3dd97" />
    <path
       id="path368"
       transform="translate(-6.96,-8)"
       d="M 81.16,22.49 A 9.92,9.92 0 0 1 91,32.36 v 0 49.71 a 9.79,9.79 0 0 1 -7.66,9.52 14.78,14.78 0 0 1 -3.12,0.35 H 40.83 C 39.48,91.94 29,90.85 29,89.5 24.91,89.5 21.59,83.08 21.57,78.98 V 35 c 0,-0.24 0,-3.09 0.1,-3.31 a 9.76,9.76 0 0 1 9.74,-9.18 h 37.4"
       class="cls-160"
       inkscape:connector-curvature="0"
       style="fill:#c4dd97" />
    <path
       id="path370"
       transform="translate(-6.96,-8)"
       d="M 81.12,22.55 A 9.9,9.9 0 0 1 91,32.41 v 0 V 82 a 9.77,9.77 0 0 1 -7.61,9.5 14.47,14.47 0 0 1 -3.11,0.35 H 41 c -1.29,0 -11.82,-1 -11.82,-2.33 -4.15,0 -7.5,-6.33 -7.52,-10.47 v -44 c 0,-0.23 0,-3.11 0.09,-3.32 a 9.75,9.75 0 0 1 9.73,-9.19 h 37.85"
       class="cls-161"
       inkscape:connector-curvature="0"
       style="fill:#c4de98" />
    <path
       id="path372"
       transform="translate(-6.96,-8)"
       d="m 81.08,22.61 a 9.88,9.88 0 0 1 9.84,9.84 v 0 V 82 a 9.76,9.76 0 0 1 -7.57,9.48 14.17,14.17 0 0 1 -3.1,0.36 h -39.1 c -1.22,0 -11.83,-1 -11.83,-2.22 -4.2,0 -7.59,-6.23 -7.62,-10.43 v -44 c 0,-0.22 0,-3.12 0.09,-3.32 a 9.74,9.74 0 0 1 9.72,-9.21 h 38.34"
       class="cls-162"
       inkscape:connector-curvature="0"
       style="fill:#c5de98" />
    <path
       id="path374"
       transform="translate(-6.96,-8)"
       d="m 81,22.67 a 9.87,9.87 0 0 1 9.82,9.82 v 0 49.45 a 9.75,9.75 0 0 1 -7.52,9.46 13.88,13.88 0 0 1 -3.08,0.36 h -38.9 c -1.16,0 -11.84,-0.94 -11.84,-2.11 -4.25,0 -7.69,-6.13 -7.71,-10.38 V 35.21 c 0,-0.21 0,-3.13 0.08,-3.32 a 9.72,9.72 0 0 1 9.71,-9.22 h 38.81"
       class="cls-163"
       inkscape:connector-curvature="0"
       style="fill:#c5df98" />
    <path
       id="path376"
       transform="translate(-6.96,-8)"
       d="m 81,22.73 a 9.85,9.85 0 0 1 9.8,9.8 v 0 49.36 a 9.74,9.74 0 0 1 -7.48,9.44 13.6,13.6 0 0 1 -3.07,0.37 H 41.48 c -1.1,0 -11.85,-0.89 -11.85,-2 -4.3,0 -7.78,-6 -7.81,-10.33 V 35.29 c 0,-0.2 0,-3.14 0.08,-3.32 a 9.71,9.71 0 0 1 9.7,-9.24 h 39.28"
       class="cls-164"
       inkscape:connector-curvature="0"
       style="fill:#c6df99" />
    <path
       id="path378"
       transform="translate(-6.96,-8)"
       d="m 80.95,22.79 a 9.84,9.84 0 0 1 9.79,9.79 v 0 49.27 a 9.73,9.73 0 0 1 -7.43,9.42 13.32,13.32 0 0 1 -3.06,0.37 H 41.64 c -1,0 -11.85,-0.84 -11.85,-1.89 -4.35,0 -7.87,-5.93 -7.9,-10.29 v -44.1 c 0,-0.19 0,-3.15 0.07,-3.32 a 9.7,9.7 0 0 1 9.69,-9.25 H 71.4"
       class="cls-165"
       inkscape:connector-curvature="0"
       style="fill:#c6e099" />
    <path
       id="path380"
       transform="translate(-6.96,-8)"
       d="m 80.9,22.84 a 9.82,9.82 0 0 1 9.77,9.77 v 0 49.19 a 9.72,9.72 0 0 1 -7.39,9.39 13.05,13.05 0 0 1 -3,0.37 H 41.8 c -1,0 -11.86,-0.79 -11.86,-1.77 -4.4,0 -8,-5.84 -8,-10.24 V 35.44 c 0,-0.17 0,-3.17 0.07,-3.32 a 9.69,9.69 0 0 1 9.68,-9.27 h 40.23"
       class="cls-166"
       inkscape:connector-curvature="0"
       style="fill:#c7e19a" />
    <path
       id="path382"
       transform="translate(-6.96,-8)"
       d="m 80.86,22.9 a 9.8,9.8 0 0 1 9.75,9.75 v 0 49.1 a 9.7,9.7 0 0 1 -7.34,9.37 12.79,12.79 0 0 1 -3,0.38 H 42 c -0.92,0 -11.87,-0.74 -11.87,-1.66 -4.46,0 -8.06,-5.74 -8.09,-10.19 V 35.51 c 0,-0.16 0,-3.18 0.06,-3.33 a 9.67,9.67 0 0 1 9.67,-9.28 h 40.7"
       class="cls-166"
       inkscape:connector-curvature="0"
       style="fill:#c7e19a" />
    <path
       id="path384"
       transform="translate(-6.96,-8)"
       d="m 80.82,23 a 9.79,9.79 0 0 1 9.74,9.74 v 0 49 a 9.69,9.69 0 0 1 -7.3,9.35 12.54,12.54 0 0 1 -3,0.38 H 42.13 c -0.86,0 -11.88,-0.7 -11.88,-1.55 -4.51,0 -8.15,-5.64 -8.18,-10.15 V 35.59 c 0,-0.15 0,-3.19 0.06,-3.33 A 9.66,9.66 0 0 1 31.78,23 H 73"
       class="cls-167"
       inkscape:connector-curvature="0"
       style="fill:#c8e29a" />
    <path
       id="path386"
       transform="translate(-6.96,-8)"
       d="m 80.77,23 a 9.77,9.77 0 0 1 9.72,9.72 v 0 48.95 a 9.68,9.68 0 0 1 -7.25,9.33 12.29,12.29 0 0 1 -3,0.39 H 42.29 c -0.8,0 -11.88,-0.65 -11.88,-1.44 -4.56,0 -8.25,-5.54 -8.28,-10.1 V 35.66 c 0,-0.14 0,-3.2 0.06,-3.33 A 9.65,9.65 0 0 1 31.83,23 h 41.64"
       class="cls-168"
       inkscape:connector-curvature="0"
       style="fill:#c8e29b" />
    <path
       id="path388"
       transform="translate(-6.96,-8)"
       d="m 80.73,23.08 a 9.75,9.75 0 0 1 9.7,9.7 v 0 48.84 a 9.67,9.67 0 0 1 -7.21,9.31 12,12 0 0 1 -3,0.39 H 42.45 c -0.73,0 -11.89,-0.6 -11.89,-1.33 -4.61,0 -8.34,-5.44 -8.37,-10.06 V 35.74 c 0,-0.13 0,-3.21 0.05,-3.33 a 9.64,9.64 0 0 1 9.63,-9.33 H 74"
       class="cls-169"
       inkscape:connector-curvature="0"
       style="fill:#c9e39b" />
    <path
       id="path390"
       transform="translate(-6.96,-8)"
       d="m 80.69,23.14 a 9.74,9.74 0 0 1 9.69,9.69 v 0 48.75 a 9.66,9.66 0 0 1 -7.16,9.29 11.81,11.81 0 0 1 -3,0.4 H 42.61 c -0.67,0 -11.9,-0.55 -11.9,-1.22 C 26,90 22.28,84.7 22.25,80 V 35.81 c 0,-0.12 0,-3.22 0,-3.33 a 9.63,9.63 0 0 1 9.62,-9.34 h 42.64"
       class="cls-170"
       inkscape:connector-curvature="0"
       style="fill:#c9e49c" />
    <path
       id="path392"
       transform="translate(-6.96,-8)"
       d="m 80.64,23.2 a 9.72,9.72 0 0 1 9.67,9.67 v 0 48.66 a 9.65,9.65 0 0 1 -7.12,9.27 11.58,11.58 0 0 1 -3,0.4 H 42.77 c -0.61,0 -11.91,-0.5 -11.91,-1.11 -4.71,0 -8.53,-5.25 -8.56,-10 v -44.2 c 0,-0.11 0,-3.24 0,-3.34 A 9.61,9.61 0 0 1 32,23.2 h 43"
       class="cls-171"
       inkscape:connector-curvature="0"
       style="fill:#cae49c" />
    <path
       id="path394"
       transform="translate(-6.96,-8)"
       d="m 80.6,23.25 a 9.71,9.71 0 0 1 9.65,9.65 v 0 48.59 a 9.64,9.64 0 0 1 -7.07,9.25 11.36,11.36 0 0 1 -3,0.41 H 42.94 c -0.55,0 -11.92,-0.45 -11.92,-1 -4.77,0 -8.62,-5.15 -8.65,-9.92 V 36 c 0,-0.1 0,-3.25 0,-3.34 A 9.6,9.6 0 0 1 32,23.25 h 43.55"
       class="cls-172"
       inkscape:connector-curvature="0"
       style="fill:#cae59c" />
    <path
       id="path396"
       transform="translate(-6.96,-8)"
       d="m 80.56,23.31 a 9.69,9.69 0 0 1 9.63,9.63 v 0 48.5 a 9.63,9.63 0 0 1 -7,9.23 11.14,11.14 0 0 1 -2.94,0.41 H 43.1 c -0.49,0 -11.92,-0.4 -11.92,-0.89 -4.82,0 -8.72,-5.05 -8.75,-9.87 V 36 c 0,-0.09 0,-3.26 0,-3.34 a 9.59,9.59 0 0 1 9.59,-9.38 h 44"
       class="cls-173"
       inkscape:connector-curvature="0"
       style="fill:#cbe59d" />
    <path
       id="path398"
       transform="translate(-6.96,-8)"
       d="M 80.51,23.37 A 9.67,9.67 0 0 1 90.13,33 v 0 48.4 a 9.62,9.62 0 0 1 -7,9.2 10.92,10.92 0 0 1 -2.92,0.41 h -37 c -0.43,0 -11.93,-0.35 -11.93,-0.78 -4.87,0 -8.81,-5 -8.84,-9.82 v -44.3 c 0,-0.08 0,-3.27 0,-3.34 a 9.58,9.58 0 0 1 9.58,-9.4 h 44.56"
       class="cls-174"
       inkscape:connector-curvature="0"
       style="fill:#cbe69d" />
    <path
       id="path400"
       transform="translate(-6.96,-8)"
       d="m 80.47,23.43 a 9.66,9.66 0 0 1 9.6,9.6 v 0 48.32 a 9.61,9.61 0 0 1 -6.94,9.18 10.71,10.71 0 0 1 -2.91,0.42 h -36.8 c -0.37,0 -11.94,-0.3 -11.94,-0.67 -4.92,0 -8.9,-4.86 -8.94,-9.78 V 36.19 c 0,-0.07 0,-3.28 0,-3.34 a 9.57,9.57 0 0 1 9.57,-9.41 h 45"
       class="cls-175"
       inkscape:connector-curvature="0"
       style="fill:#cce69e" />
    <path
       id="path402"
       transform="translate(-6.96,-8)"
       d="M 80.43,23.49 A 9.64,9.64 0 0 1 90,33.07 v 0 48.24 a 9.6,9.6 0 0 1 -6.89,9.16 10.51,10.51 0 0 1 -2.9,0.42 H 43.59 c -0.31,0 -11.95,-0.25 -11.95,-0.55 -5,0 -9,-4.76 -9,-9.73 V 36.26 c 0,-0.05 0,-3.3 0,-3.34 a 9.56,9.56 0 0 1 9.56,-9.43 h 45.42"
       class="cls-176"
       inkscape:connector-curvature="0"
       style="fill:#cce79e" />
    <path
       id="path404"
       transform="translate(-6.96,-8)"
       d="M 80.38,23.55 A 9.62,9.62 0 0 1 90,33.11 v 0 48.15 a 9.6,9.6 0 0 1 -6.9,9.14 10.31,10.31 0 0 1 -2.88,0.43 H 43.75 c -0.24,0 -12,-0.2 -12,-0.44 -5,0 -9.09,-4.66 -9.12,-9.69 V 36.34 c 0,0 0,-3.31 0,-3.35 a 9.54,9.54 0 0 1 9.54,-9.44 h 45.97"
       class="cls-177"
       inkscape:connector-curvature="0"
       style="fill:#cde89e" />
    <path
       id="path406"
       transform="translate(-6.96,-8)"
       d="m 80.34,23.61 a 9.61,9.61 0 0 1 9.55,9.55 v 0 48.06 a 9.59,9.59 0 0 1 -6.8,9.12 10.11,10.11 0 0 1 -2.87,0.43 H 43.91 c -0.18,0 -12,-0.15 -12,-0.33 -5.08,0 -9.19,-4.56 -9.22,-9.64 V 36.41 c 0,0 0,-3.32 0,-3.35 a 9.53,9.53 0 0 1 9.53,-9.46 h 46.44"
       class="cls-178"
       inkscape:connector-curvature="0"
       style="fill:#cde89f" />
    <path
       id="path408"
       transform="translate(-6.96,-8)"
       d="m 80.3,23.66 a 9.59,9.59 0 0 1 9.53,9.53 v 0 48 a 9.58,9.58 0 0 1 -6.76,9.1 9.92,9.92 0 0 1 -2.86,0.44 H 44.07 c -0.12,0 -12,-0.1 -12,-0.22 A 9.62,9.62 0 0 1 22.76,80.92 V 36.49 c 0,0 0,-3.33 0,-3.35 a 9.52,9.52 0 0 1 9.52,-9.47 h 46.89"
       class="cls-179"
       inkscape:connector-curvature="0"
       style="fill:#cee99f" />
    <path
       id="path410"
       transform="translate(-6.96,-8)"
       d="m 80.25,23.72 a 9.58,9.58 0 0 1 9.52,9.52 v 0 47.89 a 9.57,9.57 0 0 1 -6.71,9.08 9.74,9.74 0 0 1 -2.84,0.44 h -36 c -0.06,0 -12,0 -12,-0.11 A 9.59,9.59 0 0 1 22.85,81 V 36.56 c 0,0 0,-3.34 0,-3.35 a 9.51,9.51 0 0 1 9.51,-9.49 h 47.33"
       class="cls-180"
       inkscape:connector-curvature="0"
       style="fill:#cee9a0" />
    <path
       id="path412"
       transform="translate(-6.96,-8)"
       d="m 32.41,23.78 h 47.8 a 9.56,9.56 0 0 1 9.5,9.5 v 47.8 a 9.56,9.56 0 0 1 -9.5,9.5 h -47.8 a 9.56,9.56 0 0 1 -9.5,-9.5 v -47.8 a 9.5,9.5 0 0 1 9.5,-9.5 z"
       class="cls-181"
       inkscape:connector-curvature="0"
       style="fill:#cfeaa0" />
  </g>
</svg>
