<?xml version="1.0" encoding="UTF-8" standalone="no"?>
<svg
   xmlns:dc="http://purl.org/dc/elements/1.1/"
   xmlns:cc="http://creativecommons.org/ns#"
   xmlns:rdf="http://www.w3.org/1999/02/22-rdf-syntax-ns#"
   xmlns:svg="http://www.w3.org/2000/svg"
   xmlns="http://www.w3.org/2000/svg"
   xmlns:sodipodi="http://sodipodi.sourceforge.net/DTD/sodipodi-0.dtd"
   xmlns:inkscape="http://www.inkscape.org/namespaces/inkscape"
   id="Слой_1"
   data-name="Слой 1"
   viewBox="0 0 98.7 98.7"
   version="1.1"
   sodipodi:docname="color14.svg"
   inkscape:version="0.92.1 r15371">
  <metadata
     id="metadata5838">
    <rdf:RDF>
      <cc:Work
         rdf:about="">
        <dc:format>image/svg+xml</dc:format>
        <dc:type
           rdf:resource="http://purl.org/dc/dcmitype/StillImage" />
      </cc:Work>
    </rdf:RDF>
  </metadata>
  <sodipodi:namedview
     pagecolor="#ffffff"
     bordercolor="#666666"
     borderopacity="1"
     objecttolerance="10"
     gridtolerance="10"
     guidetolerance="10"
     inkscape:pageopacity="0"
     inkscape:pageshadow="2"
     inkscape:window-width="657"
     inkscape:window-height="480"
     id="namedview5836"
     showgrid="false"
     inkscape:zoom="2.3910842"
     inkscape:cx="49.349998"
     inkscape:cy="49.349998"
     inkscape:window-x="0"
     inkscape:window-y="0"
     inkscape:window-maximized="0"
     inkscape:current-layer="Слой_1" />
  <defs
     id="defs5425">
    <style
       id="style5423">.cls-1{fill:#683a41;}.cls-2{fill:#693a41;}.cls-3{fill:#693a42;}.cls-4{fill:#693b42;}.cls-5{fill:#6a3b42;}.cls-6{fill:#6b3b42;}.cls-7{fill:#6b3b43;}.cls-8{fill:#6b3c43;}.cls-9{fill:#6c3c43;}.cls-10{fill:#6d3c44;}.cls-11{fill:#6e3c44;}.cls-12{fill:#6e3d44;}.cls-13{fill:#6e3d45;}.cls-14{fill:#6f3d45;}.cls-15{fill:#703d45;}.cls-16{fill:#703e45;}.cls-17{fill:#703e46;}.cls-18{fill:#713e46;}.cls-19{fill:#723e46;}.cls-20{fill:#723f46;}.cls-21{fill:#733f46;}.cls-22{fill:#743f46;}.cls-23{fill:#744046;}.cls-24{fill:#754046;}.cls-25{fill:#754047;}.cls-26{fill:#764047;}.cls-27{fill:#774047;}.cls-28{fill:#774147;}.cls-29{fill:#784147;}.cls-30{fill:#794147;}.cls-31{fill:#794247;}.cls-32{fill:#7a4247;}.cls-33{fill:#7b4247;}.cls-34{fill:#7b4347;}.cls-35{fill:#7c4347;}.cls-36{fill:#7d4347;}.cls-37{fill:#7d4348;}.cls-38{fill:#7e4348;}.cls-39{fill:#7e4448;}.cls-40{fill:#7f4448;}.cls-41{fill:#804448;}.cls-42{fill:#804548;}.cls-43{fill:#814548;}</style>
  </defs>
  <title
     id="title5427">color14</title>
  <g
     id="g12846">
    <path
       id="path5429"
       transform="translate(-7.1,-8.07)"
       d="m 91.8,8.07 a 14,14 0 0 1 14,14 v 0 70.7 a 14,14 0 0 1 -14,14 H 21.1 a 14,14 0 0 1 -14,-14 v -70.7 a 13.91,13.91 0 0 1 13.82,-14"
       class="cls-1"
       inkscape:connector-curvature="0"
       style="fill:#683a41" />
    <path
       id="path5431"
       transform="translate(-7.1,-8.07)"
       d="m 91.73,8.16 a 14,14 0 0 1 14,14 v 0 70.54 a 14,14 0 0 1 -14,14 H 21.17 a 14,14 0 0 1 -14,-14 V 22.14 A 13.88,13.88 0 0 1 21,8.16"
       class="cls-1"
       inkscape:connector-curvature="0"
       style="fill:#683a41" />
    <path
       id="path5433"
       transform="translate(-7.1,-8.07)"
       d="m 91.66,8.26 a 13.94,13.94 0 0 1 13.94,13.95 v 0 70.42 A 13.94,13.94 0 0 1 91.66,106.57 H 21.24 A 13.94,13.94 0 0 1 7.3,92.63 V 22.21 A 13.85,13.85 0 0 1 21.06,8.26"
       class="cls-1"
       inkscape:connector-curvature="0"
       style="fill:#683a41" />
    <path
       id="path5435"
       transform="translate(-7.1,-8.07)"
       d="m 91.59,8.36 a 13.92,13.92 0 0 1 13.92,13.92 v 0 70.28 A 13.92,13.92 0 0 1 91.59,106.48 H 21.31 A 13.92,13.92 0 0 1 7.39,92.56 V 22.28 A 13.83,13.83 0 0 1 21.13,8.36"
       class="cls-1"
       inkscape:connector-curvature="0"
       style="fill:#683a41" />
    <path
       id="path5437"
       transform="translate(-7.1,-8.07)"
       d="m 91.52,8.46 a 13.89,13.89 0 0 1 13.89,13.89 v 0 70.14 A 13.89,13.89 0 0 1 91.52,106.38 H 21.38 A 13.89,13.89 0 0 1 7.49,92.49 V 22.35 A 13.8,13.8 0 0 1 21.2,8.46"
       class="cls-1"
       inkscape:connector-curvature="0"
       style="fill:#683a41" />
    <path
       id="path5439"
       transform="translate(-7.1,-8.07)"
       d="m 91.45,8.56 a 13.86,13.86 0 0 1 13.86,13.86 v 0 70 a 13.86,13.86 0 0 1 -13.86,13.86 h -70 A 13.86,13.86 0 0 1 7.59,92.42 v -70 A 13.77,13.77 0 0 1 21.27,8.56"
       class="cls-1"
       inkscape:connector-curvature="0"
       style="fill:#683a41" />
    <path
       id="path5441"
       transform="translate(-7.1,-8.07)"
       d="m 91.38,8.65 a 13.83,13.83 0 0 1 13.83,13.83 v 0 69.87 A 13.83,13.83 0 0 1 91.38,106.18 H 21.52 A 13.83,13.83 0 0 1 7.69,92.35 V 22.49 A 13.74,13.74 0 0 1 21.34,8.65"
       class="cls-2"
       inkscape:connector-curvature="0"
       style="fill:#693a41" />
    <path
       id="path5443"
       transform="translate(-7.1,-8.07)"
       d="m 91.31,8.75 a 13.81,13.81 0 0 1 13.81,13.81 v 0 69.72 A 13.81,13.81 0 0 1 91.31,106.09 H 21.59 A 13.81,13.81 0 0 1 7.78,92.28 V 22.56 A 13.72,13.72 0 0 1 21.41,8.75"
       class="cls-2"
       inkscape:connector-curvature="0"
       style="fill:#693a41" />
    <path
       id="path5445"
       transform="translate(-7.1,-8.07)"
       d="M 91.24,8.85 A 13.78,13.78 0 0 1 105,22.63 v 0 69.58 A 13.78,13.78 0 0 1 91.24,106 H 21.66 A 13.78,13.78 0 0 1 7.88,92.21 V 22.63 A 13.69,13.69 0 0 1 21.48,8.85"
       class="cls-2"
       inkscape:connector-curvature="0"
       style="fill:#693a41" />
    <path
       id="path5447"
       transform="translate(-7.1,-8.07)"
       d="m 91.17,8.95 a 13.75,13.75 0 0 1 13.75,13.75 v 0 69.44 A 13.75,13.75 0 0 1 91.17,105.89 H 21.73 A 13.75,13.75 0 0 1 8,92.14 V 22.7 A 13.66,13.66 0 0 1 21.55,8.95"
       class="cls-2"
       inkscape:connector-curvature="0"
       style="fill:#693a41" />
    <path
       id="path5449"
       transform="translate(-7.1,-8.07)"
       d="m 91.1,9 a 13.72,13.72 0 0 1 13.72,13.72 v 0 69.3 A 13.72,13.72 0 0 1 91.1,105.79 H 21.8 A 13.72,13.72 0 0 1 8.08,92.07 V 22.77 A 13.63,13.63 0 0 1 21.62,9"
       class="cls-2"
       inkscape:connector-curvature="0"
       style="fill:#693a41" />
    <path
       id="path5451"
       transform="translate(-7.1,-8.07)"
       d="m 91,9.14 a 13.7,13.7 0 0 1 13.7,13.7 v 0 V 92 A 13.7,13.7 0 0 1 91,105.69 H 21.87 A 13.7,13.7 0 0 1 8.18,92 V 22.84 A 13.61,13.61 0 0 1 21.69,9.14"
       class="cls-3"
       inkscape:connector-curvature="0"
       style="fill:#693a42" />
    <path
       id="path5453"
       transform="translate(-7.1,-8.07)"
       d="m 91,9.24 a 13.67,13.67 0 0 1 13.67,13.67 v 0 69 A 13.67,13.67 0 0 1 91,105.59 H 22 A 13.67,13.67 0 0 1 8.27,91.93 v -69 A 13.58,13.58 0 0 1 21.76,9.24"
       class="cls-3"
       inkscape:connector-curvature="0"
       style="fill:#693a42" />
    <path
       id="path5455"
       transform="translate(-7.1,-8.07)"
       d="M 90.89,9.34 A 13.64,13.64 0 0 1 104.53,23 v 0 68.86 A 13.64,13.64 0 0 1 90.89,105.5 H 22 A 13.64,13.64 0 0 1 8.37,91.86 V 23 A 13.55,13.55 0 0 1 21.83,9.34"
       class="cls-4"
       inkscape:connector-curvature="0"
       style="fill:#693b42" />
    <path
       id="path5457"
       transform="translate(-7.1,-8.07)"
       d="M 90.82,9.43 A 13.61,13.61 0 0 1 104.43,23 v 0 68.79 A 13.61,13.61 0 0 1 90.82,105.4 H 22.08 A 13.61,13.61 0 0 1 8.47,91.79 V 23 A 13.52,13.52 0 0 1 21.9,9.43"
       class="cls-4"
       inkscape:connector-curvature="0"
       style="fill:#693b42" />
    <path
       id="path5459"
       transform="translate(-7.1,-8.07)"
       d="m 90.75,9.53 a 13.58,13.58 0 0 1 13.58,13.58 v 0 68.6 A 13.58,13.58 0 0 1 90.75,105.3 H 22.15 A 13.58,13.58 0 0 1 8.57,91.72 V 23.12 A 13.5,13.5 0 0 1 22,9.53"
       class="cls-4"
       inkscape:connector-curvature="0"
       style="fill:#693b42" />
    <path
       id="path5461"
       transform="translate(-7.1,-8.07)"
       d="m 90.68,9.63 a 13.56,13.56 0 0 1 13.56,13.56 v 0 68.46 A 13.56,13.56 0 0 1 90.68,105.2 H 22.22 A 13.56,13.56 0 0 1 8.66,91.65 V 23.19 A 13.47,13.47 0 0 1 22,9.63"
       class="cls-4"
       inkscape:connector-curvature="0"
       style="fill:#693b42" />
    <path
       id="path5463"
       transform="translate(-7.1,-8.07)"
       d="m 90.61,9.73 a 13.53,13.53 0 0 1 13.53,13.53 v 0 68.32 A 13.53,13.53 0 0 1 90.61,105.11 H 22.29 A 13.53,13.53 0 0 1 8.76,91.58 V 23.26 A 13.44,13.44 0 0 1 22.12,9.73"
       class="cls-5"
       inkscape:connector-curvature="0"
       style="fill:#6a3b42" />
    <path
       id="path5465"
       transform="translate(-7.1,-8.07)"
       d="M 90.54,9.83 A 13.5,13.5 0 0 1 104,23.33 v 0 68.18 A 13.5,13.5 0 0 1 90.54,105 H 22.36 A 13.5,13.5 0 0 1 8.86,91.5 V 23.33 A 13.41,13.41 0 0 1 22.19,9.83"
       class="cls-5"
       inkscape:connector-curvature="0"
       style="fill:#6a3b42" />
    <path
       id="path5467"
       transform="translate(-7.1,-8.07)"
       d="m 90.47,9.92 a 13.47,13.47 0 0 1 13.47,13.48 v 0 68 a 13.47,13.47 0 0 1 -13.47,13.47 h -68 A 13.47,13.47 0 0 1 9,91.44 v -68 A 13.39,13.39 0 0 1 22.26,9.92"
       class="cls-5"
       inkscape:connector-curvature="0"
       style="fill:#6a3b42" />
    <path
       id="path5469"
       transform="translate(-7.1,-8.07)"
       d="m 90.4,10 a 13.45,13.45 0 0 1 13.45,13.45 v 0 67.9 A 13.45,13.45 0 0 1 90.4,104.81 H 22.5 A 13.45,13.45 0 0 1 9.05,91.37 V 23.47 A 13.36,13.36 0 0 1 22.33,10"
       class="cls-5"
       inkscape:connector-curvature="0"
       style="fill:#6a3b42" />
    <path
       id="path5471"
       transform="translate(-7.1,-8.07)"
       d="m 90.33,10.12 a 13.42,13.42 0 0 1 13.42,13.42 v 0 67.76 A 13.42,13.42 0 0 1 90.33,104.72 H 22.57 A 13.42,13.42 0 0 1 9.15,91.3 V 23.54 A 13.33,13.33 0 0 1 22.4,10.12"
       class="cls-5"
       inkscape:connector-curvature="0"
       style="fill:#6a3b42" />
    <path
       id="path5473"
       transform="translate(-7.1,-8.07)"
       d="m 90.26,10.22 a 13.39,13.39 0 0 1 13.39,13.39 v 0 67.62 A 13.39,13.39 0 0 1 90.26,104.62 H 22.64 A 13.39,13.39 0 0 1 9.25,91.23 V 23.61 A 13.3,13.3 0 0 1 22.47,10.22"
       class="cls-5"
       inkscape:connector-curvature="0"
       style="fill:#6a3b42" />
    <path
       id="path5475"
       transform="translate(-7.1,-8.07)"
       d="m 90.19,10.31 a 13.36,13.36 0 0 1 13.36,13.36 v 0 67.49 A 13.36,13.36 0 0 1 90.19,104.52 H 22.71 A 13.36,13.36 0 0 1 9.35,91.16 V 23.68 A 13.28,13.28 0 0 1 22.54,10.31"
       class="cls-5"
       inkscape:connector-curvature="0"
       style="fill:#6a3b42" />
    <path
       id="path5477"
       transform="translate(-7.1,-8.07)"
       d="m 90.12,10.41 a 13.33,13.33 0 0 1 13.33,13.33 v 0 67.35 A 13.33,13.33 0 0 1 90.12,104.42 H 22.78 A 13.33,13.33 0 0 1 9.45,91.09 V 23.75 A 13.25,13.25 0 0 1 22.61,10.41"
       class="cls-5"
       inkscape:connector-curvature="0"
       style="fill:#6a3b42" />
    <path
       id="path5479"
       transform="translate(-7.1,-8.07)"
       d="m 90.05,10.51 a 13.31,13.31 0 0 1 13.31,13.31 v 0 V 91 A 13.31,13.31 0 0 1 90.05,104.31 H 22.85 A 13.31,13.31 0 0 1 9.54,91 V 23.82 A 13.22,13.22 0 0 1 22.68,10.51"
       class="cls-5"
       inkscape:connector-curvature="0"
       style="fill:#6a3b42" />
    <path
       id="path5481"
       transform="translate(-7.1,-8.07)"
       d="m 90,10.61 a 13.28,13.28 0 0 1 13.28,13.28 v 0 67.06 A 13.28,13.28 0 0 1 90,104.23 H 22.92 A 13.28,13.28 0 0 1 9.64,90.95 V 23.89 A 13.19,13.19 0 0 1 22.75,10.61"
       class="cls-5"
       inkscape:connector-curvature="0"
       style="fill:#6a3b42" />
    <path
       id="path5483"
       transform="translate(-7.1,-8.07)"
       d="M 89.91,10.71 A 13.25,13.25 0 0 1 103.16,24 v 0 66.88 A 13.25,13.25 0 0 1 89.91,104.13 H 23 A 13.25,13.25 0 0 1 9.74,90.88 V 24 A 13.17,13.17 0 0 1 22.82,10.71"
       class="cls-5"
       inkscape:connector-curvature="0"
       style="fill:#6a3b42" />
    <path
       id="path5485"
       transform="translate(-7.1,-8.07)"
       d="M 89.84,10.8 A 13.22,13.22 0 0 1 103.06,24 v 0 66.81 A 13.22,13.22 0 0 1 89.84,104 H 23.06 A 13.22,13.22 0 0 1 9.84,90.81 V 24 A 13.14,13.14 0 0 1 22.89,10.8"
       class="cls-5"
       inkscape:connector-curvature="0"
       style="fill:#6a3b42" />
    <path
       id="path5487"
       transform="translate(-7.1,-8.07)"
       d="M 89.77,10.9 A 13.2,13.2 0 0 1 103,24.1 v 0 66.64 a 13.2,13.2 0 0 1 -13.2,13.2 H 23.13 A 13.2,13.2 0 0 1 9.93,90.74 V 24.1 A 13.11,13.11 0 0 1 23,10.9"
       class="cls-6"
       inkscape:connector-curvature="0"
       style="fill:#6b3b42" />
    <path
       id="path5489"
       transform="translate(-7.1,-8.07)"
       d="m 89.7,11 a 13.17,13.17 0 0 1 13.17,13.17 v 0 66.5 A 13.17,13.17 0 0 1 89.7,103.84 H 23.2 A 13.17,13.17 0 0 1 10,90.67 V 24.17 A 13.08,13.08 0 0 1 23,11"
       class="cls-6"
       inkscape:connector-curvature="0"
       style="fill:#6b3b42" />
    <path
       id="path5491"
       transform="translate(-7.1,-8.07)"
       d="m 89.63,11.1 a 13.14,13.14 0 0 1 13.14,13.14 v 0 66.36 A 13.14,13.14 0 0 1 89.63,103.74 H 23.27 A 13.14,13.14 0 0 1 10.13,90.6 V 24.24 a 13.06,13.06 0 0 1 13,-13.14"
       class="cls-7"
       inkscape:connector-curvature="0"
       style="fill:#6b3b43" />
    <path
       id="path5493"
       transform="translate(-7.1,-8.07)"
       d="m 89.56,11.19 a 13.11,13.11 0 0 1 13.11,13.11 v 0 66.23 A 13.11,13.11 0 0 1 89.56,103.64 H 23.34 A 13.11,13.11 0 0 1 10.23,90.53 V 24.31 A 13,13 0 0 1 23.17,11.19"
       class="cls-7"
       inkscape:connector-curvature="0"
       style="fill:#6b3b43" />
    <path
       id="path5495"
       transform="translate(-7.1,-8.07)"
       d="m 89.49,11.29 a 13.09,13.09 0 0 1 13.09,13.09 v 0 66.08 A 13.09,13.09 0 0 1 89.49,103.55 H 23.41 A 13.09,13.09 0 0 1 10.33,90.46 V 24.38 A 13,13 0 0 1 23.24,11.29"
       class="cls-7"
       inkscape:connector-curvature="0"
       style="fill:#6b3b43" />
    <path
       id="path5497"
       transform="translate(-7.1,-8.07)"
       d="m 89.42,11.39 a 13.06,13.06 0 0 1 13.06,13.06 v 0 65.94 A 13.06,13.06 0 0 1 89.42,103.45 H 23.48 A 13.06,13.06 0 0 1 10.42,90.39 V 24.45 A 13,13 0 0 1 23.31,11.39"
       class="cls-7"
       inkscape:connector-curvature="0"
       style="fill:#6b3b43" />
    <path
       id="path5499"
       transform="translate(-7.1,-8.07)"
       d="m 89.35,11.49 a 13,13 0 0 1 13,13 v 0 65.8 a 13,13 0 0 1 -13,13 h -65.8 a 13,13 0 0 1 -13,-13 V 24.52 a 13,13 0 0 1 12.86,-13"
       class="cls-7"
       inkscape:connector-curvature="0"
       style="fill:#6b3b43" />
    <path
       id="path5501"
       transform="translate(-7.1,-8.07)"
       d="m 89.28,11.58 a 13,13 0 0 1 13,13 v 0 65.67 a 13,13 0 0 1 -13,13 H 23.62 a 13,13 0 0 1 -13,-13 V 24.59 a 12.92,12.92 0 0 1 12.83,-13"
       class="cls-7"
       inkscape:connector-curvature="0"
       style="fill:#6b3b43" />
    <path
       id="path5503"
       transform="translate(-7.1,-8.07)"
       d="m 89.21,11.68 a 13,13 0 0 1 13,13 v 0 65.5 a 13,13 0 0 1 -13,13 H 23.69 a 13,13 0 0 1 -13,-13 V 24.66 a 12.89,12.89 0 0 1 12.81,-13"
       class="cls-7"
       inkscape:connector-curvature="0"
       style="fill:#6b3b43" />
    <path
       id="path5505"
       transform="translate(-7.1,-8.07)"
       d="m 89.14,11.78 a 13,13 0 0 1 12.95,12.95 v 0 65.38 A 13,13 0 0 1 89.14,103.06 H 23.76 A 13,13 0 0 1 10.81,90.11 V 24.73 A 12.86,12.86 0 0 1 23.59,11.78"
       class="cls-8"
       inkscape:connector-curvature="0"
       style="fill:#6b3c43" />
    <path
       id="path5507"
       transform="translate(-7.1,-8.07)"
       d="M 89.07,11.88 A 12.92,12.92 0 0 1 102,24.8 v 0 V 90 A 12.92,12.92 0 0 1 89.07,103 H 23.83 A 12.92,12.92 0 0 1 10.91,90 V 24.8 A 12.84,12.84 0 0 1 23.66,11.88"
       class="cls-8"
       inkscape:connector-curvature="0"
       style="fill:#6b3c43" />
    <path
       id="path5509"
       transform="translate(-7.1,-8.07)"
       d="m 89,12 a 12.89,12.89 0 0 1 12.89,12.89 v 0 V 90 A 12.89,12.89 0 0 1 89,102.86 H 23.9 A 12.89,12.89 0 0 1 11,90 V 24.87 A 12.81,12.81 0 0 1 23.73,12"
       class="cls-9"
       inkscape:connector-curvature="0"
       style="fill:#6c3c43" />
    <path
       id="path5511"
       transform="translate(-7.1,-8.07)"
       d="m 88.93,12.07 a 12.86,12.86 0 0 1 12.86,12.86 v 0 65 A 12.86,12.86 0 0 1 88.93,102.79 H 24 A 12.86,12.86 0 0 1 11.11,89.9 v -65 A 12.78,12.78 0 0 1 23.8,12.07"
       class="cls-9"
       inkscape:connector-curvature="0"
       style="fill:#6c3c43" />
    <path
       id="path5513"
       transform="translate(-7.1,-8.07)"
       d="M 88.86,12.17 A 12.84,12.84 0 0 1 101.7,25 v 0 64.83 A 12.84,12.84 0 0 1 88.86,102.67 H 24 A 12.84,12.84 0 0 1 11.2,89.83 V 25 A 12.75,12.75 0 0 1 23.87,12.17"
       class="cls-9"
       inkscape:connector-curvature="0"
       style="fill:#6c3c43" />
    <path
       id="path5515"
       transform="translate(-7.1,-8.07)"
       d="m 88.79,12.27 a 12.81,12.81 0 0 1 12.81,12.81 v 0 64.68 A 12.81,12.81 0 0 1 88.79,102.57 H 24.11 A 12.81,12.81 0 0 1 11.3,89.76 V 25.08 A 12.73,12.73 0 0 1 23.94,12.27"
       class="cls-9"
       inkscape:connector-curvature="0"
       style="fill:#6c3c43" />
    <path
       id="path5517"
       transform="translate(-7.1,-8.07)"
       d="m 88.72,12.37 a 12.78,12.78 0 0 1 12.78,12.78 v 0 64.54 A 12.78,12.78 0 0 1 88.72,102.47 H 24.18 A 12.78,12.78 0 0 1 11.4,89.69 V 25.15 A 12.7,12.7 0 0 1 24,12.37"
       class="cls-9"
       inkscape:connector-curvature="0"
       style="fill:#6c3c43" />
    <path
       id="path5519"
       transform="translate(-7.1,-8.07)"
       d="m 88.65,12.46 a 12.75,12.75 0 0 1 12.75,12.76 v 0 64.4 A 12.75,12.75 0 0 1 88.65,102.37 H 24.25 A 12.75,12.75 0 0 1 11.5,89.62 V 25.22 A 12.67,12.67 0 0 1 24.09,12.46"
       class="cls-9"
       inkscape:connector-curvature="0"
       style="fill:#6c3c43" />
    <path
       id="path5521"
       transform="translate(-7.1,-8.07)"
       d="m 88.58,12.56 a 12.72,12.72 0 0 1 12.72,12.73 v 0 64.26 A 12.72,12.72 0 0 1 88.58,102.27 H 24.32 A 12.72,12.72 0 0 1 11.6,89.55 V 25.29 A 12.64,12.64 0 0 1 24.16,12.56"
       class="cls-9"
       inkscape:connector-curvature="0"
       style="fill:#6c3c43" />
    <path
       id="path5523"
       transform="translate(-7.1,-8.07)"
       d="m 88.51,12.66 a 12.7,12.7 0 0 1 12.7,12.7 v 0 64.12 a 12.7,12.7 0 0 1 -12.7,12.7 H 24.39 A 12.7,12.7 0 0 1 11.69,89.48 V 25.36 a 12.62,12.62 0 0 1 12.53,-12.7"
       class="cls-9"
       inkscape:connector-curvature="0"
       style="fill:#6c3c43" />
    <path
       id="path5525"
       transform="translate(-7.1,-8.07)"
       d="m 88.44,12.76 a 12.67,12.67 0 0 1 12.67,12.67 v 0 64 A 12.67,12.67 0 0 1 88.44,102.1 h -64 A 12.67,12.67 0 0 1 11.79,89.41 v -64 A 12.59,12.59 0 0 1 24.3,12.76"
       class="cls-9"
       inkscape:connector-curvature="0"
       style="fill:#6c3c43" />
    <path
       id="path5527"
       transform="translate(-7.1,-8.07)"
       d="M 88.37,12.86 A 12.64,12.64 0 0 1 101,25.5 v 0 63.84 A 12.64,12.64 0 0 1 88.37,102 H 24.53 A 12.64,12.64 0 0 1 11.89,89.34 V 25.5 A 12.56,12.56 0 0 1 24.37,12.86"
       class="cls-9"
       inkscape:connector-curvature="0"
       style="fill:#6c3c43" />
    <path
       id="path5529"
       transform="translate(-7.1,-8.07)"
       d="m 88.3,13 a 12.61,12.61 0 0 1 12.61,12.61 v 0 63.7 A 12.61,12.61 0 0 1 88.3,101.88 H 24.6 A 12.61,12.61 0 0 1 12,89.27 V 25.57 A 12.53,12.53 0 0 1 24.44,13"
       class="cls-9"
       inkscape:connector-curvature="0"
       style="fill:#6c3c43" />
    <path
       id="path5531"
       transform="translate(-7.1,-8.07)"
       d="m 88.23,13.05 a 12.59,12.59 0 0 1 12.59,12.59 v 0 63.56 A 12.59,12.59 0 0 1 88.23,101.79 H 24.67 A 12.59,12.59 0 0 1 12.08,89.2 V 25.64 A 12.51,12.51 0 0 1 24.51,13.05"
       class="cls-10"
       inkscape:connector-curvature="0"
       style="fill:#6d3c44" />
    <path
       id="path5533"
       transform="translate(-7.1,-8.07)"
       d="m 88.16,13.15 a 12.56,12.56 0 0 1 12.56,12.56 v 0 63.42 A 12.56,12.56 0 0 1 88.16,101.69 H 24.74 A 12.56,12.56 0 0 1 12.18,89.13 V 25.71 a 12.48,12.48 0 0 1 12.4,-12.56"
       class="cls-10"
       inkscape:connector-curvature="0"
       style="fill:#6d3c44" />
    <path
       id="path5535"
       transform="translate(-7.1,-8.07)"
       d="m 88.09,13.25 a 12.53,12.53 0 0 1 12.53,12.53 v 0 63.28 A 12.53,12.53 0 0 1 88.09,101.59 H 24.81 A 12.53,12.53 0 0 1 12.28,89.06 V 25.78 A 12.45,12.45 0 0 1 24.65,13.25"
       class="cls-10"
       inkscape:connector-curvature="0"
       style="fill:#6d3c44" />
    <path
       id="path5537"
       transform="translate(-7.1,-8.07)"
       d="m 88,13.34 a 12.5,12.5 0 0 1 12.5,12.5 v 0 V 89 A 12.5,12.5 0 0 1 88,101.49 H 24.88 A 12.5,12.5 0 0 1 12.38,89 V 25.85 a 12.42,12.42 0 0 1 12.34,-12.5"
       class="cls-10"
       inkscape:connector-curvature="0"
       style="fill:#6d3c44" />
    <path
       id="path5539"
       transform="translate(-7.1,-8.07)"
       d="m 88,13.44 a 12.48,12.48 0 0 1 12.48,12.48 v 0 63 A 12.48,12.48 0 0 1 88,101.39 H 25 A 12.48,12.48 0 0 1 12.47,88.92 v -63 A 12.4,12.4 0 0 1 24.79,13.44"
       class="cls-10"
       inkscape:connector-curvature="0"
       style="fill:#6d3c44" />
    <path
       id="path5541"
       transform="translate(-7.1,-8.07)"
       d="M 87.88,13.54 A 12.45,12.45 0 0 1 100.33,26 v 0 62.85 A 12.45,12.45 0 0 1 87.88,101.3 H 25 A 12.45,12.45 0 0 1 12.57,88.85 V 26 A 12.37,12.37 0 0 1 24.86,13.54"
       class="cls-10"
       inkscape:connector-curvature="0"
       style="fill:#6d3c44" />
    <path
       id="path5543"
       transform="translate(-7.1,-8.07)"
       d="m 87.81,13.64 a 12.42,12.42 0 0 1 12.42,12.42 v 0 62.72 A 12.42,12.42 0 0 1 87.81,101.2 H 25.09 A 12.42,12.42 0 0 1 12.67,88.78 V 26.06 A 12.34,12.34 0 0 1 24.93,13.64"
       class="cls-10"
       inkscape:connector-curvature="0"
       style="fill:#6d3c44" />
    <path
       id="path5545"
       transform="translate(-7.1,-8.07)"
       d="m 87.74,13.73 a 12.39,12.39 0 0 1 12.39,12.39 v 0 62.59 A 12.39,12.39 0 0 1 87.74,101.1 H 25.16 A 12.39,12.39 0 0 1 12.77,88.71 V 26.13 A 12.31,12.31 0 0 1 25,13.73"
       class="cls-10"
       inkscape:connector-curvature="0"
       style="fill:#6d3c44" />
    <path
       id="path5547"
       transform="translate(-7.1,-8.07)"
       d="M 87.67,13.83 A 12.36,12.36 0 0 1 100,26.2 v 0 62.44 A 12.36,12.36 0 0 1 87.67,101 H 25.23 A 12.36,12.36 0 0 1 12.87,88.64 V 26.2 a 12.28,12.28 0 0 1 12.2,-12.36"
       class="cls-10"
       inkscape:connector-curvature="0"
       style="fill:#6d3c44" />
    <path
       id="path5549"
       transform="translate(-7.1,-8.07)"
       d="m 87.6,13.93 a 12.34,12.34 0 0 1 12.34,12.34 v 0 62.3 A 12.34,12.34 0 0 1 87.6,100.9 H 25.3 A 12.34,12.34 0 0 1 13,88.57 V 26.27 A 12.26,12.26 0 0 1 25.14,13.93"
       class="cls-10"
       inkscape:connector-curvature="0"
       style="fill:#6d3c44" />
    <path
       id="path5551"
       transform="translate(-7.1,-8.07)"
       d="m 87.53,14 a 12.31,12.31 0 0 1 12.31,12.34 v 0 62.16 A 12.31,12.31 0 0 1 87.53,100.81 H 25.37 A 12.31,12.31 0 0 1 13.06,88.5 V 26.34 A 12.23,12.23 0 0 1 25.21,14"
       class="cls-10"
       inkscape:connector-curvature="0"
       style="fill:#6d3c44" />
    <path
       id="path5553"
       transform="translate(-7.1,-8.07)"
       d="m 87.46,14.13 a 12.28,12.28 0 0 1 12.28,12.28 v 0 62 a 12.28,12.28 0 0 1 -12.28,12.28 h -62 A 12.28,12.28 0 0 1 13.16,88.43 v -62 a 12.2,12.2 0 0 1 12.12,-12.3"
       class="cls-11"
       inkscape:connector-curvature="0"
       style="fill:#6e3c44" />
    <path
       id="path5555"
       transform="translate(-7.1,-8.07)"
       d="m 87.39,14.22 a 12.25,12.25 0 0 1 12.25,12.26 v 0 61.88 A 12.25,12.25 0 0 1 87.39,100.61 H 25.51 A 12.25,12.25 0 0 1 13.26,88.36 V 26.48 a 12.17,12.17 0 0 1 12.1,-12.25"
       class="cls-11"
       inkscape:connector-curvature="0"
       style="fill:#6e3c44" />
    <path
       id="path5557"
       transform="translate(-7.1,-8.07)"
       d="m 87.32,14.32 a 12.23,12.23 0 0 1 12.23,12.23 v 0 61.74 A 12.23,12.23 0 0 1 87.32,100.52 H 25.58 A 12.23,12.23 0 0 1 13.35,88.29 V 26.55 A 12.15,12.15 0 0 1 25.42,14.32"
       class="cls-12"
       inkscape:connector-curvature="0"
       style="fill:#6e3d44" />
    <path
       id="path5559"
       transform="translate(-7.1,-8.07)"
       d="m 87.25,14.42 a 12.2,12.2 0 0 1 12.2,12.2 v 0 61.6 a 12.2,12.2 0 0 1 -12.2,12.2 h -61.6 a 12.2,12.2 0 0 1 -12.2,-12.2 v -61.6 a 12.12,12.12 0 0 1 12,-12.2"
       class="cls-12"
       inkscape:connector-curvature="0"
       style="fill:#6e3d44" />
    <path
       id="path5561"
       transform="translate(-7.1,-8.07)"
       d="m 87.18,14.52 a 12.17,12.17 0 0 1 12.17,12.17 v 0 61.46 A 12.17,12.17 0 0 1 87.18,100.32 H 25.72 A 12.17,12.17 0 0 1 13.55,88.15 V 26.69 a 12.09,12.09 0 0 1 12,-12.17"
       class="cls-12"
       inkscape:connector-curvature="0"
       style="fill:#6e3d44" />
    <path
       id="path5563"
       transform="translate(-7.1,-8.07)"
       d="m 87.11,14.61 a 12.14,12.14 0 0 1 12.14,12.15 v 0 61.32 A 12.14,12.14 0 0 1 87.11,100.22 H 25.79 A 12.14,12.14 0 0 1 13.65,88.08 V 26.76 a 12.06,12.06 0 0 1 12,-12.14"
       class="cls-12"
       inkscape:connector-curvature="0"
       style="fill:#6e3d44" />
    <path
       id="path5565"
       transform="translate(-7.1,-8.07)"
       d="m 87,14.71 a 12.11,12.11 0 0 1 12.15,12.12 v 0 V 88 A 12.11,12.11 0 0 1 87,100.12 H 25.86 A 12.11,12.11 0 0 1 13.75,88 V 26.83 a 12,12 0 0 1 12,-12.11"
       class="cls-12"
       inkscape:connector-curvature="0"
       style="fill:#6e3d44" />
    <path
       id="path5567"
       transform="translate(-7.1,-8.07)"
       d="M 87,14.81 A 12.09,12.09 0 0 1 99.06,26.9 v 0 61 A 12.09,12.09 0 0 1 87,100 H 26 A 12.09,12.09 0 0 1 13.84,87.94 v -61 A 12,12 0 0 1 25.77,14.81"
       class="cls-12"
       inkscape:connector-curvature="0"
       style="fill:#6e3d44" />
    <path
       id="path5569"
       transform="translate(-7.1,-8.07)"
       d="M 86.9,14.91 A 12.06,12.06 0 0 1 99,27 v 0 60.9 A 12.06,12.06 0 0 1 86.9,99.93 H 26 A 12.06,12.06 0 0 1 13.94,87.87 V 27 a 12,12 0 0 1 11.9,-12.06"
       class="cls-12"
       inkscape:connector-curvature="0"
       style="fill:#6e3d44" />
    <path
       id="path5571"
       transform="translate(-7.1,-8.07)"
       d="m 86.83,15 a 12,12 0 0 1 12,12 v 0 60.8 a 12,12 0 0 1 -12,12 H 26.07 a 12,12 0 0 1 -12,-12 V 27 A 12,12 0 0 1 25.91,15"
       class="cls-13"
       inkscape:connector-curvature="0"
       style="fill:#6e3d45" />
    <path
       id="path5573"
       transform="translate(-7.1,-8.07)"
       d="m 86.76,15.1 a 12,12 0 0 1 12,12 v 0 60.63 a 12,12 0 0 1 -12,12 H 26.14 a 12,12 0 0 1 -12,-12 V 27.11 A 11.93,11.93 0 0 1 26,15.1"
       class="cls-13"
       inkscape:connector-curvature="0"
       style="fill:#6e3d45" />
    <path
       id="path5575"
       transform="translate(-7.1,-8.07)"
       d="m 86.69,15.2 a 12,12 0 0 1 12,12 v 0 60.46 a 12,12 0 0 1 -12,12 H 26.21 a 12,12 0 0 1 -12,-12 V 27.18 a 11.9,11.9 0 0 1 11.82,-12"
       class="cls-14"
       inkscape:connector-curvature="0"
       style="fill:#6f3d45" />
    <path
       id="path5577"
       transform="translate(-7.1,-8.07)"
       d="m 86.62,15.3 a 12,12 0 0 1 11.95,11.95 v 0 60.34 A 12,12 0 0 1 86.62,99.54 H 26.28 A 12,12 0 0 1 14.33,87.59 V 27.25 A 11.87,11.87 0 0 1 26.13,15.3"
       class="cls-14"
       inkscape:connector-curvature="0"
       style="fill:#6f3d45" />
    <path
       id="path5579"
       transform="translate(-7.1,-8.07)"
       d="m 86.55,15.4 a 11.92,11.92 0 0 1 11.92,11.92 v 0 60.2 A 11.92,11.92 0 0 1 86.55,99.44 H 26.35 A 11.92,11.92 0 0 1 14.43,87.52 V 27.32 A 11.84,11.84 0 0 1 26.2,15.4"
       class="cls-14"
       inkscape:connector-curvature="0"
       style="fill:#6f3d45" />
    <path
       id="path5581"
       transform="translate(-7.1,-8.07)"
       d="m 86.48,15.49 a 11.89,11.89 0 0 1 11.89,11.9 v 0 60.06 A 11.89,11.89 0 0 1 86.48,99.34 H 26.42 A 11.89,11.89 0 0 1 14.53,87.45 V 27.39 a 11.82,11.82 0 0 1 11.74,-11.9"
       class="cls-14"
       inkscape:connector-curvature="0"
       style="fill:#6f3d45" />
    <path
       id="path5583"
       transform="translate(-7.1,-8.07)"
       d="m 86.41,15.59 a 11.87,11.87 0 0 1 11.87,11.87 v 0 59.92 A 11.87,11.87 0 0 1 86.41,99.24 H 26.49 A 11.87,11.87 0 0 1 14.62,87.38 V 27.46 A 11.79,11.79 0 0 1 26.34,15.59"
       class="cls-14"
       inkscape:connector-curvature="0"
       style="fill:#6f3d45" />
    <path
       id="path5585"
       transform="translate(-7.1,-8.07)"
       d="m 86.34,15.69 a 11.84,11.84 0 0 1 11.84,11.84 v 0 59.78 A 11.84,11.84 0 0 1 86.34,99.14 H 26.56 A 11.84,11.84 0 0 1 14.72,87.31 V 27.53 A 11.76,11.76 0 0 1 26.41,15.69"
       class="cls-14"
       inkscape:connector-curvature="0"
       style="fill:#6f3d45" />
    <path
       id="path5587"
       transform="translate(-7.1,-8.07)"
       d="M 86.27,15.79 A 11.81,11.81 0 0 1 98.08,27.6 v 0 59.64 A 11.81,11.81 0 0 1 86.27,99 H 26.63 A 11.81,11.81 0 0 1 14.82,87.24 V 27.6 A 11.73,11.73 0 0 1 26.48,15.79"
       class="cls-14"
       inkscape:connector-curvature="0"
       style="fill:#6f3d45" />
    <path
       id="path5589"
       transform="translate(-7.1,-8.07)"
       d="M 86.2,15.88 A 11.78,11.78 0 0 1 98,27.67 v 0 59.5 A 11.78,11.78 0 0 1 86.2,98.95 H 26.7 A 11.78,11.78 0 0 1 14.92,87.17 V 27.67 A 11.71,11.71 0 0 1 26.55,15.88"
       class="cls-14"
       inkscape:connector-curvature="0"
       style="fill:#6f3d45" />
    <path
       id="path5591"
       transform="translate(-7.1,-8.07)"
       d="m 86.13,16 a 11.75,11.75 0 0 1 11.75,11.74 v 0 59.36 A 11.75,11.75 0 0 1 86.13,98.85 H 26.77 A 11.75,11.75 0 0 1 15,87.1 V 27.74 A 11.68,11.68 0 0 1 26.62,16"
       class="cls-14"
       inkscape:connector-curvature="0"
       style="fill:#6f3d45" />
    <path
       id="path5593"
       transform="translate(-7.1,-8.07)"
       d="m 86.06,16.08 a 11.73,11.73 0 0 1 11.73,11.73 v 0 V 87 A 11.73,11.73 0 0 1 86.06,98.75 H 26.84 A 11.73,11.73 0 0 1 15.11,87 V 27.81 A 11.65,11.65 0 0 1 26.69,16.08"
       class="cls-14"
       inkscape:connector-curvature="0"
       style="fill:#6f3d45" />
    <path
       id="path5595"
       transform="translate(-7.1,-8.07)"
       d="m 86,16.18 a 11.7,11.7 0 0 1 11.7,11.7 v 0 V 87 A 11.7,11.7 0 0 1 86,98.66 H 26.91 A 11.7,11.7 0 0 1 15.21,87 V 27.88 a 11.62,11.62 0 0 1 11.55,-11.7"
       class="cls-14"
       inkscape:connector-curvature="0"
       style="fill:#6f3d45" />
    <path
       id="path5597"
       transform="translate(-7.1,-8.07)"
       d="m 85.92,16.28 a 11.67,11.67 0 0 1 11.67,11.67 v 0 58.94 A 11.67,11.67 0 0 1 85.92,98.56 H 27 A 11.67,11.67 0 0 1 15.31,86.89 V 27.95 A 11.6,11.6 0 0 1 26.83,16.28"
       class="cls-14"
       inkscape:connector-curvature="0"
       style="fill:#6f3d45" />
    <path
       id="path5599"
       transform="translate(-7.1,-8.07)"
       d="M 85.85,16.37 A 11.64,11.64 0 0 1 97.49,28 v 0 58.8 A 11.64,11.64 0 0 1 85.85,98.46 H 27.05 A 11.64,11.64 0 0 1 15.41,86.82 V 28 A 11.57,11.57 0 0 1 26.9,16.37"
       class="cls-15"
       inkscape:connector-curvature="0"
       style="fill:#703d45" />
    <path
       id="path5601"
       transform="translate(-7.1,-8.07)"
       d="M 85.78,16.47 A 11.62,11.62 0 0 1 97.4,28.09 v 0 58.66 A 11.62,11.62 0 0 1 85.78,98.36 H 27.12 A 11.62,11.62 0 0 1 15.5,86.75 V 28.09 A 11.54,11.54 0 0 1 27,16.47"
       class="cls-15"
       inkscape:connector-curvature="0"
       style="fill:#703d45" />
    <path
       id="path5603"
       transform="translate(-7.1,-8.07)"
       d="M 85.71,16.57 A 11.59,11.59 0 0 1 97.3,28.16 v 0 58.52 A 11.59,11.59 0 0 1 85.71,98.26 H 27.19 A 11.59,11.59 0 0 1 15.6,86.68 V 28.16 A 11.51,11.51 0 0 1 27,16.57"
       class="cls-15"
       inkscape:connector-curvature="0"
       style="fill:#703d45" />
    <path
       id="path5605"
       transform="translate(-7.1,-8.07)"
       d="M 85.64,16.67 A 11.56,11.56 0 0 1 97.2,28.23 v 0 58.38 A 11.56,11.56 0 0 1 85.64,98.17 H 27.26 A 11.56,11.56 0 0 1 15.7,86.61 V 28.23 A 11.49,11.49 0 0 1 27.11,16.67"
       class="cls-15"
       inkscape:connector-curvature="0"
       style="fill:#703d45" />
    <path
       id="path5607"
       transform="translate(-7.1,-8.07)"
       d="M 85.57,16.76 A 11.53,11.53 0 0 1 97.1,28.3 v 0 58.24 A 11.53,11.53 0 0 1 85.57,98.07 H 27.33 A 11.53,11.53 0 0 1 15.8,86.54 V 28.3 A 11.46,11.46 0 0 1 27.18,16.76"
       class="cls-16"
       inkscape:connector-curvature="0"
       style="fill:#703e45" />
    <path
       id="path5609"
       transform="translate(-7.1,-8.07)"
       d="M 85.5,16.86 A 11.5,11.5 0 0 1 97,28.37 v 0 58.1 A 11.5,11.5 0 0 1 85.5,98 H 27.4 A 11.5,11.5 0 0 1 15.9,86.5 V 28.37 a 11.43,11.43 0 0 1 11.36,-11.5"
       class="cls-16"
       inkscape:connector-curvature="0"
       style="fill:#703e45" />
    <path
       id="path5611"
       transform="translate(-7.1,-8.07)"
       d="m 85.43,17 a 11.48,11.48 0 0 1 11.48,11.44 v 0 58 A 11.48,11.48 0 0 1 85.43,97.87 h -58 A 11.48,11.48 0 0 1 16,86.4 v -58 A 11.4,11.4 0 0 1 27.32,17"
       class="cls-17"
       inkscape:connector-curvature="0"
       style="fill:#703e46" />
    <path
       id="path5613"
       transform="translate(-7.1,-8.07)"
       d="m 85.36,17.06 a 11.45,11.45 0 0 1 11.45,11.45 v 0 57.82 A 11.45,11.45 0 0 1 85.36,97.78 H 27.54 A 11.45,11.45 0 0 1 16.09,86.33 V 28.51 a 11.38,11.38 0 0 1 11.3,-11.45"
       class="cls-17"
       inkscape:connector-curvature="0"
       style="fill:#703e46" />
    <path
       id="path5615"
       transform="translate(-7.1,-8.07)"
       d="m 85.29,17.15 a 11.42,11.42 0 0 1 11.42,11.43 v 0 57.68 A 11.42,11.42 0 0 1 85.29,97.68 H 27.61 A 11.42,11.42 0 0 1 16.19,86.26 V 28.58 A 11.35,11.35 0 0 1 27.46,17.15"
       class="cls-17"
       inkscape:connector-curvature="0"
       style="fill:#703e46" />
    <path
       id="path5617"
       transform="translate(-7.1,-8.07)"
       d="m 85.22,17.25 a 11.39,11.39 0 0 1 11.39,11.4 v 0 57.54 A 11.39,11.39 0 0 1 85.22,97.58 H 27.68 A 11.39,11.39 0 0 1 16.29,86.19 V 28.65 a 11.32,11.32 0 0 1 11.24,-11.4"
       class="cls-17"
       inkscape:connector-curvature="0"
       style="fill:#703e46" />
    <path
       id="path5619"
       transform="translate(-7.1,-8.07)"
       d="m 85.15,17.35 a 11.37,11.37 0 0 1 11.37,11.37 v 0 57.4 A 11.37,11.37 0 0 1 85.15,97.48 H 27.75 A 11.37,11.37 0 0 1 16.38,86.12 V 28.72 A 11.29,11.29 0 0 1 27.6,17.35"
       class="cls-17"
       inkscape:connector-curvature="0"
       style="fill:#703e46" />
    <path
       id="path5621"
       transform="translate(-7.1,-8.07)"
       d="m 85.08,17.45 a 11.34,11.34 0 0 1 11.34,11.34 v 0 V 86 A 11.34,11.34 0 0 1 85.08,97.39 H 27.82 A 11.34,11.34 0 0 1 16.48,86 V 28.79 A 11.27,11.27 0 0 1 27.67,17.45"
       class="cls-18"
       inkscape:connector-curvature="0"
       style="fill:#713e46" />
    <path
       id="path5623"
       transform="translate(-7.1,-8.07)"
       d="m 85,17.55 a 11.31,11.31 0 0 1 11.32,11.31 v 0 V 86 A 11.31,11.31 0 0 1 85,97.29 H 27.89 A 11.31,11.31 0 0 1 16.58,86 V 28.86 A 11.24,11.24 0 0 1 27.74,17.55"
       class="cls-18"
       inkscape:connector-curvature="0"
       style="fill:#713e46" />
    <path
       id="path5625"
       transform="translate(-7.1,-8.07)"
       d="m 84.94,17.64 a 11.28,11.28 0 0 1 11.28,11.29 v 0 57 A 11.28,11.28 0 0 1 84.94,97.19 H 28 A 11.28,11.28 0 0 1 16.68,85.91 v -57 A 11.21,11.21 0 0 1 27.81,17.64"
       class="cls-18"
       inkscape:connector-curvature="0"
       style="fill:#713e46" />
    <path
       id="path5627"
       transform="translate(-7.1,-8.07)"
       d="M 84.87,17.74 A 11.26,11.26 0 0 1 96.13,29 v 0 56.84 A 11.26,11.26 0 0 1 84.87,97.09 H 28 A 11.26,11.26 0 0 1 16.77,85.84 V 29 A 11.18,11.18 0 0 1 27.88,17.74"
       class="cls-18"
       inkscape:connector-curvature="0"
       style="fill:#713e46" />
    <path
       id="path5629"
       transform="translate(-7.1,-8.07)"
       d="M 84.8,17.84 A 11.23,11.23 0 0 1 96,29.07 v 0 56.7 A 11.23,11.23 0 0 1 84.8,97 H 28.1 A 11.23,11.23 0 0 1 16.87,85.77 V 29.07 A 11.16,11.16 0 0 1 28,17.84"
       class="cls-18"
       inkscape:connector-curvature="0"
       style="fill:#713e46" />
    <path
       id="path5631"
       transform="translate(-7.1,-8.07)"
       d="m 84.73,17.94 a 11.2,11.2 0 0 1 11.2,11.2 v 0 56.56 A 11.2,11.2 0 0 1 84.73,96.9 H 28.17 A 11.2,11.2 0 0 1 17,85.7 V 29.14 a 11.13,11.13 0 0 1 11,-11.2"
       class="cls-18"
       inkscape:connector-curvature="0"
       style="fill:#713e46" />
    <path
       id="path5633"
       transform="translate(-7.1,-8.07)"
       d="m 84.69,18 a 11.18,11.18 0 0 1 11.18,11.18 v 0 56.47 A 11.18,11.18 0 0 1 84.71,96.83 H 28.33 A 11.19,11.19 0 0 1 17.12,85.75 c -0.05,0 -0.09,-14.08 -0.09,-14.13 V 29.21 A 11.25,11.25 0 0 1 17.46,26 11.11,11.11 0 0 1 28.07,18 h 0.47"
       class="cls-18"
       inkscape:connector-curvature="0"
       style="fill:#713e46" />
    <path
       id="path5635"
       transform="translate(-7.1,-8.07)"
       d="m 84.64,18.05 a 11.17,11.17 0 0 1 11.17,11.17 v 0 56.39 A 11.16,11.16 0 0 1 84.7,96.76 H 28.49 a 11.18,11.18 0 0 1 -11.22,-11 c -0.1,0 -0.19,-14 -0.19,-14.08 V 29.29 a 11.38,11.38 0 0 1 0.43,-3.17 11.09,11.09 0 0 1 10.6,-8.06 h 0.95"
       class="cls-18"
       inkscape:connector-curvature="0"
       style="fill:#713e46" />
    <path
       id="path5637"
       transform="translate(-7.1,-8.07)"
       d="m 84.6,18.11 a 11.15,11.15 0 0 1 11.15,11.15 v 0 56.3 A 11.14,11.14 0 0 1 84.68,96.7 h -56 A 11.18,11.18 0 0 1 17.43,85.84 c -0.16,0 -0.28,-13.88 -0.28,-14 V 29.36 a 11.5,11.5 0 0 1 0.42,-3.17 11.07,11.07 0 0 1 10.59,-8.07 h 1.42"
       class="cls-18"
       inkscape:connector-curvature="0"
       style="fill:#713e46" />
    <path
       id="path5639"
       transform="translate(-7.1,-8.07)"
       d="M 84.56,18.17 A 11.14,11.14 0 0 1 95.69,29.3 v 0 56.22 a 11.11,11.11 0 0 1 -11,11.12 c 0,0 -4.08,0 -4.12,0 H 28.82 c -5.94,0 -11.23,-4.82 -11.23,-10.76 -0.21,0 -0.37,-13.78 -0.38,-14 V 29.44 a 11.63,11.63 0 0 1 0.42,-3.18 11,11 0 0 1 10.57,-8.09 h 1.9"
       class="cls-19"
       inkscape:connector-curvature="0"
       style="fill:#723e46" />
    <path
       id="path5641"
       transform="translate(-7.1,-8.07)"
       d="m 84.51,18.23 a 11.12,11.12 0 0 1 11.12,11.12 v 0 56.12 a 11.09,11.09 0 0 1 -11,11.09 c 0,0 -4.06,0 -4.11,0 H 29 c -5.88,0 -11.24,-4.77 -11.24,-10.65 -0.26,0 -0.47,-13.68 -0.47,-13.94 V 29.51 a 11.76,11.76 0 0 1 0.41,-3.18 11,11 0 0 1 10.56,-8.1 h 2.37"
       class="cls-19"
       inkscape:connector-curvature="0"
       style="fill:#723e46" />
    <path
       id="path5643"
       transform="translate(-7.1,-8.07)"
       d="m 84.47,18.29 a 11.1,11.1 0 0 1 11.1,11.1 v 0 56 A 11.07,11.07 0 0 1 84.64,96.5 c -0.05,0 -4,0 -4.09,0 H 29.14 C 23.32,96.53 17.9,91.81 17.9,86 17.59,86 17.34,72.42 17.34,72.1 V 29.59 a 11.9,11.9 0 0 1 0.41,-3.18 11,11 0 0 1 10.55,-8.12 h 2.84"
       class="cls-19"
       inkscape:connector-curvature="0"
       style="fill:#723e46" />
    <path
       id="path5645"
       transform="translate(-7.1,-8.07)"
       d="m 84.43,18.35 a 11.09,11.09 0 0 1 11.08,11.08 v 0 56 a 11.05,11.05 0 0 1 -10.89,11 c -0.06,0 -4,0 -4.08,0 H 29.3 C 23.55,96.46 18,91.8 18,86 17.64,86 17.34,72.51 17.34,72.15 V 29.66 a 12,12 0 0 1 0.41,-3.18 11,11 0 0 1 10.54,-8.13 h 3.31"
       class="cls-19"
       inkscape:connector-curvature="0"
       style="fill:#723e46" />
    <path
       id="path5647"
       transform="translate(-7.1,-8.07)"
       d="m 84.38,18.4 a 11.07,11.07 0 0 1 11.07,11.07 v 0 55.87 a 11,11 0 0 1 -10.84,11 c -0.07,0 -4,0 -4.07,0 H 29.47 c -5.7,0 -11.26,-4.62 -11.26,-10.31 -0.41,0 -0.75,-13.39 -0.75,-13.8 V 29.74 a 12.18,12.18 0 0 1 0.4,-3.18 11,11 0 0 1 10.52,-8.16 h 3.79"
       class="cls-20"
       inkscape:connector-curvature="0"
       style="fill:#723f46" />
    <path
       id="path5649"
       transform="translate(-7.1,-8.07)"
       d="m 84.34,18.46 a 11.05,11.05 0 0 1 11,11 v 0 55.83 a 11,11 0 0 1 -10.8,11 c -0.08,0 -4,0 -4.05,0 H 29.63 C 24,96.29 18.36,91.72 18.36,86.09 17.89,86.09 17.52,72.8 17.51,72.33 V 29.81 a 12.32,12.32 0 0 1 0.4,-3.19 10.94,10.94 0 0 1 10.52,-8.16 h 4.26"
       class="cls-20"
       inkscape:connector-curvature="0"
       style="fill:#723f46" />
    <path
       id="path5651"
       transform="translate(-7.1,-8.07)"
       d="m 84.3,18.52 a 11,11 0 0 1 11,11 v 0 55.73 a 11,11 0 0 1 -10.75,11 c -0.09,0 -3.94,0 -4,0 H 29.79 c -5.57,0 -11.28,-4.52 -11.28,-10.09 -0.52,0 -0.94,-13.19 -0.94,-13.71 V 29.89 A 12.47,12.47 0 0 1 18,26.7 10.92,10.92 0 0 1 28.51,18.52 h 4.73"
       class="cls-21"
       inkscape:connector-curvature="0"
       style="fill:#733f46" />
    <path
       id="path5653"
       transform="translate(-7.1,-8.07)"
       d="m 84.25,18.58 a 11,11 0 0 1 11,11 v 0 55.62 a 11,11 0 0 1 -10.71,11 c -0.1,0 -3.92,0 -4,0 H 30 c -5.51,0 -11.29,-4.47 -11.29,-10 -0.57,0 -1,-13.09 -1,-13.66 V 30 A 12.62,12.62 0 0 1 18,26.77 10.9,10.9 0 0 1 28.5,18.58 h 5.21"
       class="cls-21"
       inkscape:connector-curvature="0"
       style="fill:#733f46" />
    <path
       id="path5655"
       transform="translate(-7.1,-8.07)"
       d="m 84.21,18.64 a 11,11 0 0 1 11,11 v 0 55.52 A 11,11 0 0 1 84.55,96.1 c -0.11,0 -3.9,0.05 -4,0.05 H 30.11 c -5.45,0 -11.29,-4.42 -11.29,-9.87 -0.62,0 -1.12,-13 -1.13,-13.62 V 30 a 12.78,12.78 0 0 1 0.38,-3.19 10.87,10.87 0 0 1 10.49,-8.21 h 5.68"
       class="cls-21"
       inkscape:connector-curvature="0"
       style="fill:#733f46" />
    <path
       id="path5657"
       transform="translate(-7.1,-8.07)"
       d="m 84.17,18.7 a 11,11 0 0 1 11,11 v 0 55.41 A 10.93,10.93 0 0 1 84.53,96 c -0.12,0 -3.87,0.06 -4,0.06 H 30.28 c -5.39,0 -11.3,-4.37 -11.3,-9.76 -0.67,0 -1.22,-12.9 -1.22,-13.57 V 30.11 a 12.93,12.93 0 0 1 0.38,-3.19 10.85,10.85 0 0 1 10.47,-8.22 h 6.15"
       class="cls-21"
       inkscape:connector-curvature="0"
       style="fill:#733f46" />
    <path
       id="path5659"
       transform="translate(-7.1,-8.07)"
       d="m 84.12,18.76 a 11,11 0 0 1 11,11 v 0 55.31 A 10.91,10.91 0 0 1 84.52,96 c -0.12,0 -3.85,0.06 -4,0.06 H 30.44 c -5.33,0 -11.31,-4.32 -11.31,-9.65 -0.73,0 -1.31,-12.8 -1.32,-13.53 V 30.19 A 13.09,13.09 0 0 1 18.19,27 10.83,10.83 0 0 1 28.65,18.77 h 6.63"
       class="cls-21"
       inkscape:connector-curvature="0"
       style="fill:#733f46" />
    <path
       id="path5661"
       transform="translate(-7.1,-8.07)"
       d="M 84.08,18.81 A 11,11 0 0 1 95,29.76 v 0 V 85 A 10.89,10.89 0 0 1 84.5,95.9 c -0.13,0 -3.83,0.07 -4,0.07 H 30.6 c -5.27,0 -11.32,-4.27 -11.32,-9.54 -0.78,0 -1.41,-12.7 -1.41,-13.48 V 30.26 a 13.26,13.26 0 0 1 0.37,-3.2 10.81,10.81 0 0 1 10.46,-8.25 h 7.1"
       class="cls-21"
       inkscape:connector-curvature="0"
       style="fill:#733f46" />
    <path
       id="path5663"
       transform="translate(-7.1,-8.07)"
       d="M 84,18.87 A 10.94,10.94 0 0 1 95,29.8 v 0 V 85 A 10.87,10.87 0 0 1 84.48,95.84 c -0.14,0 -3.8,0.07 -4,0.07 H 30.76 c -5.21,0 -11.32,-4.22 -11.32,-9.43 -0.83,0 -1.5,-12.6 -1.5,-13.43 V 30.33 a 13.43,13.43 0 0 1 0.37,-3.2 10.79,10.79 0 0 1 10.44,-8.26 h 7.57"
       class="cls-22"
       inkscape:connector-curvature="0"
       style="fill:#743f46" />
    <path
       id="path5665"
       transform="translate(-7.1,-8.07)"
       d="m 84,18.93 a 10.92,10.92 0 0 1 10.91,10.92 v 0 55.08 A 10.85,10.85 0 0 1 84.47,95.77 c -0.15,0 -3.78,0.07 -3.95,0.07 H 30.92 C 25.78,95.84 19.59,91.67 19.59,86.53 18.71,86.52 18,74 18,73.14 V 30.41 a 13.6,13.6 0 0 1 0.36,-3.2 10.77,10.77 0 0 1 10.43,-8.28 h 8"
       class="cls-22"
       inkscape:connector-curvature="0"
       style="fill:#743f46" />
    <path
       id="path5667"
       transform="translate(-7.1,-8.07)"
       d="m 83.95,19 a 10.91,10.91 0 0 1 10.9,10.9 v 0 55 a 10.82,10.82 0 0 1 -10.4,10.8 c -0.16,0.05 -3.76,0.08 -3.93,0.08 H 31.09 c -5.08,0 -11.34,-4.12 -11.34,-9.2 -0.93,0 -1.69,-12.41 -1.69,-13.34 V 30.48 A 13.78,13.78 0 0 1 18.42,27.28 10.75,10.75 0 0 1 28.83,19 h 8.52"
       class="cls-22"
       inkscape:connector-curvature="0"
       style="fill:#743f46" />
    <path
       id="path5669"
       transform="translate(-7.1,-8.07)"
       d="m 83.91,19 a 10.89,10.89 0 0 1 10.88,10.93 v 0 54.91 a 10.8,10.8 0 0 1 -10.35,10.8 c -0.17,0.05 -3.73,0.08 -3.92,0.08 H 31.25 c -5,0 -11.35,-4.07 -11.35,-9.09 -1,0 -1.78,-12.31 -1.79,-13.29 V 30.56 A 14,14 0 0 1 18.46,27.36 10.73,10.73 0 0 1 28.88,19 h 9"
       class="cls-22"
       inkscape:connector-curvature="0"
       style="fill:#743f46" />
    <path
       id="path5671"
       transform="translate(-7.1,-8.07)"
       d="M 83.86,19.11 A 10.88,10.88 0 0 1 94.73,30 v 0 54.8 a 10.78,10.78 0 0 1 -10.3,10.78 c -0.18,0.06 -3.71,0.09 -3.91,0.09 H 31.41 c -5,0 -11.36,-4 -11.36,-9 -1,0 -1.87,-12.21 -1.88,-13.25 V 30.63 a 14.15,14.15 0 0 1 0.35,-3.21 10.71,10.71 0 0 1 10.4,-8.32 h 9.47"
       class="cls-22"
       inkscape:connector-curvature="0"
       style="fill:#743f46" />
    <path
       id="path5673"
       transform="translate(-7.1,-8.07)"
       d="M 83.82,19.17 A 10.86,10.86 0 0 1 94.67,30 v 0 54.75 A 10.76,10.76 0 0 1 84.41,95.5 c -0.19,0.06 -3.69,0.09 -3.89,0.09 H 31.57 c -4.9,0 -11.36,-4 -11.36,-8.87 -1.09,0 -2,-12.11 -2,-13.2 V 30.71 A 14.34,14.34 0 0 1 18.56,27.5 10.69,10.69 0 0 1 29,19.17 h 9.9"
       class="cls-22"
       inkscape:connector-curvature="0"
       style="fill:#743f46" />
    <path
       id="path5675"
       transform="translate(-7.1,-8.07)"
       d="m 83.78,19.22 a 10.84,10.84 0 0 1 10.83,10.83 v 0 54.66 A 10.74,10.74 0 0 1 84.39,95.44 c -0.19,0.06 -3.67,0.1 -3.88,0.1 H 31.73 c -4.84,0 -11.37,-3.92 -11.37,-8.76 -1.14,0 -2.06,-12 -2.07,-13.16 V 30.78 A 14.54,14.54 0 0 1 18.63,27.57 10.67,10.67 0 0 1 29,19.22 h 10.42"
       class="cls-23"
       inkscape:connector-curvature="0"
       style="fill:#744046" />
    <path
       id="path5677"
       transform="translate(-7.1,-8.07)"
       d="M 83.73,19.28 A 10.83,10.83 0 0 1 94.55,30.1 v 0 54.56 A 10.72,10.72 0 0 1 84.38,95.37 c -0.2,0.06 -3.64,0.1 -3.87,0.1 H 31.9 c -4.78,0 -11.38,-3.87 -11.38,-8.65 -1.19,0 -2.16,-11.92 -2.16,-13.11 V 30.86 a 14.74,14.74 0 0 1 0.34,-3.21 10.66,10.66 0 0 1 10.36,-8.37 h 10.88"
       class="cls-24"
       inkscape:connector-curvature="0"
       style="fill:#754046" />
    <path
       id="path5679"
       transform="translate(-7.1,-8.07)"
       d="m 83.69,19.34 a 10.81,10.81 0 0 1 10.8,10.8 v 0 54.48 A 10.71,10.71 0 0 1 84.36,95.31 c -0.21,0.07 -3.62,0.1 -3.85,0.11 H 32.06 c -4.72,0 -11.39,-3.82 -11.39,-8.54 -1.24,0 -2.25,-11.82 -2.26,-13.06 V 30.93 a 15,15 0 0 1 0.33,-3.21 10.64,10.64 0 0 1 10.36,-8.38 h 11.36"
       class="cls-24"
       inkscape:connector-curvature="0"
       style="fill:#754046" />
    <path
       id="path5681"
       transform="translate(-7.1,-8.07)"
       d="m 83.65,19.4 a 10.79,10.79 0 0 1 10.78,10.78 v 0 54.39 A 10.69,10.69 0 0 1 84.35,95.24 c -0.22,0.07 -3.6,0.11 -3.84,0.11 H 32.22 c -4.65,0 -11.39,-3.77 -11.39,-8.43 -1.3,0 -2.34,-11.72 -2.35,-13 V 31 A 15.16,15.16 0 0 1 18.81,27.79 10.62,10.62 0 0 1 29.15,19.4 H 41"
       class="cls-24"
       inkscape:connector-curvature="0"
       style="fill:#754046" />
    <path
       id="path5683"
       transform="translate(-7.1,-8.07)"
       d="m 83.6,19.46 a 10.78,10.78 0 0 1 10.76,10.76 v 0 54.3 a 10.67,10.67 0 0 1 -10,10.65 c -0.23,0.07 -3.57,0.11 -3.83,0.11 H 32.38 C 27.79,95.29 21,91.56 21,87 19.65,87 18.56,75.38 18.55,74 V 31.08 a 15.38,15.38 0 0 1 0.32,-3.22 10.6,10.6 0 0 1 10.33,-8.41 h 12.3"
       class="cls-25"
       inkscape:connector-curvature="0"
       style="fill:#754047" />
    <path
       id="path5685"
       transform="translate(-7.1,-8.07)"
       d="M 83.56,19.52 A 10.76,10.76 0 0 1 94.3,30.26 v 0 54.22 a 10.65,10.65 0 0 1 -10,10.63 c -0.24,0.08 -3.55,0.12 -3.81,0.12 h -48 C 28,95.23 21.14,91.55 21.14,87 19.74,87 18.61,75.47 18.6,74.08 V 31.16 a 15.61,15.61 0 0 1 0.32,-3.22 10.58,10.58 0 0 1 10.32,-8.42 H 42"
       class="cls-25"
       inkscape:connector-curvature="0"
       style="fill:#754047" />
    <path
       id="path5687"
       transform="translate(-7.1,-8.07)"
       d="M 83.52,19.57 A 10.75,10.75 0 0 1 94.24,30.3 v 0 54.13 A 10.63,10.63 0 0 1 84.3,95 c -0.25,0.08 -3.53,0.12 -3.8,0.12 H 32.71 c -4.47,0 -11.42,-3.62 -11.42,-8.1 -1.45,0 -2.62,-11.43 -2.63,-12.88 v -43 A 15.84,15.84 0 0 1 19,28 10.56,10.56 0 0 1 29.31,19.56 h 13.22"
       class="cls-25"
       inkscape:connector-curvature="0"
       style="fill:#754047" />
    <path
       id="path5689"
       transform="translate(-7.1,-8.07)"
       d="m 83.47,19.63 a 10.73,10.73 0 0 1 10.71,10.72 v 0 54 A 10.61,10.61 0 0 1 84.29,95 c -0.26,0.08 -3.5,0.13 -3.79,0.13 H 32.87 c -4.41,0 -11.43,-3.57 -11.43,-8 -1.5,0 -2.72,-11.33 -2.73,-12.83 v -43 A 16.07,16.07 0 0 1 19,28.09 10.54,10.54 0 0 1 29.3,19.64 H 43"
       class="cls-26"
       inkscape:connector-curvature="0"
       style="fill:#764047" />
    <path
       id="path5691"
       transform="translate(-7.1,-8.07)"
       d="m 83.43,19.69 a 10.71,10.71 0 0 1 10.7,10.7 v 0 54 A 10.59,10.59 0 0 1 84.28,94.95 C 84,95 80.79,95 80.5,95 H 33 c -4.35,0 -11.43,-3.52 -11.43,-7.87 -1.55,0 -2.81,-11.23 -2.82,-12.79 v -43 a 16.32,16.32 0 0 1 0.31,-3.22 10.52,10.52 0 0 1 10.29,-8.47 h 14.2"
       class="cls-26"
       inkscape:connector-curvature="0"
       style="fill:#764047" />
    <path
       id="path5693"
       transform="translate(-7.1,-8.07)"
       d="m 83.39,19.75 a 10.7,10.7 0 0 1 10.67,10.68 v 0 53.87 a 10.57,10.57 0 0 1 -9.81,10.54 c -0.27,0.09 -3.46,0.13 -3.76,0.14 h -47.3 c -4.29,0 -11.44,-3.48 -11.44,-7.76 -1.61,0 -2.91,-11.13 -2.92,-12.74 v -43 a 16.57,16.57 0 0 1 0.3,-3.23 10.51,10.51 0 0 1 10.28,-8.48 h 14.68"
       class="cls-26"
       inkscape:connector-curvature="0"
       style="fill:#764047" />
    <path
       id="path5695"
       transform="translate(-7.1,-8.07)"
       d="M 83.34,19.81 A 10.68,10.68 0 0 1 94,30.47 v 0 53.78 a 10.55,10.55 0 0 1 -9.76,10.52 c -0.28,0.09 -3.43,0.14 -3.75,0.14 H 33.36 c -4.23,0 -11.45,-3.43 -11.45,-7.65 -1.66,0 -3,-11 -3,-12.69 v -43 a 16.83,16.83 0 0 1 0.3,-3.23 10.49,10.49 0 0 1 10.26,-8.5 H 44.6"
       class="cls-26"
       inkscape:connector-curvature="0"
       style="fill:#764047" />
    <path
       id="path5697"
       transform="translate(-7.1,-8.07)"
       d="m 83.3,19.87 a 10.66,10.66 0 0 1 10.64,10.64 v 0 53.7 a 10.53,10.53 0 0 1 -9.72,10.5 c -0.29,0.09 -3.41,0.14 -3.73,0.15 h -47 C 29.33,94.86 22.03,91.48 22.03,87.32 20.35,87.3 19,76.38 19,74.67 V 31.61 a 17.09,17.09 0 0 1 0.29,-3.23 10.47,10.47 0 0 1 10.21,-8.51 h 15.62"
       class="cls-26"
       inkscape:connector-curvature="0"
       style="fill:#764047" />
    <path
       id="path5699"
       transform="translate(-7.1,-8.07)"
       d="m 83.26,19.93 a 10.65,10.65 0 0 1 10.62,10.62 v 0 53.61 a 10.51,10.51 0 0 1 -9.67,10.48 c -0.3,0.1 -3.39,0.15 -3.72,0.15 H 33.68 c -4.1,0 -11.46,-3.33 -11.46,-7.43 -1.76,0 -3.19,-10.84 -3.2,-12.6 V 31.68 a 17.37,17.37 0 0 1 0.29,-3.23 10.45,10.45 0 0 1 10.24,-8.53 h 16.09"
       class="cls-26"
       inkscape:connector-curvature="0"
       style="fill:#764047" />
    <path
       id="path5701"
       transform="translate(-7.1,-8.07)"
       d="m 83.21,20 a 10.63,10.63 0 0 1 10.61,10.6 v 0 53.52 a 10.49,10.49 0 0 1 -9.63,10.46 c -0.31,0.1 -3.37,0.15 -3.71,0.15 H 33.84 c -4,0 -11.47,-3.28 -11.47,-7.32 -1.81,0 -3.28,-10.74 -3.29,-12.55 V 31.76 A 17.65,17.65 0 0 1 19.37,28.53 10.43,10.43 0 0 1 29.59,20 h 16.57"
       class="cls-27"
       inkscape:connector-curvature="0"
       style="fill:#774047" />
    <path
       id="path5703"
       transform="translate(-7.1,-8.07)"
       d="m 83.17,20 a 10.62,10.62 0 0 1 10.59,10.64 v 0 53.43 a 10.47,10.47 0 0 1 -9.58,10.44 c -0.32,0.1 -3.34,0.16 -3.69,0.16 H 34 c -4,0 -11.48,-3.23 -11.48,-7.21 -1.87,0 -3.37,-10.64 -3.39,-12.51 V 31.83 A 17.94,17.94 0 0 1 19.41,28.6 10.42,10.42 0 0 1 29.64,20 h 17"
       class="cls-27"
       inkscape:connector-curvature="0"
       style="fill:#774047" />
    <path
       id="path5705"
       transform="translate(-7.1,-8.07)"
       d="M 83.13,20.1 A 10.6,10.6 0 0 1 93.7,30.68 v 0 V 84 a 10.46,10.46 0 0 1 -9.54,10.41 c -0.33,0.1 -3.32,0.16 -3.68,0.16 H 34.17 c -3.92,0 -11.49,-3.18 -11.49,-7.1 C 20.76,87.5 19.21,77 19.2,75 V 31.91 a 18.25,18.25 0 0 1 0.28,-3.24 10.4,10.4 0 0 1 10.2,-8.57 h 17.51"
       class="cls-28"
       inkscape:connector-curvature="0"
       style="fill:#774147" />
    <path
       id="path5707"
       transform="translate(-7.1,-8.07)"
       d="m 83.08,20.16 a 10.58,10.58 0 0 1 10.56,10.56 v 0 V 84 a 10.44,10.44 0 0 1 -9.5,10.39 c -0.34,0.11 -3.3,0.17 -3.67,0.17 H 34.33 c -3.86,0 -11.5,-3.13 -11.5,-7 -2,0 -3.56,-10.45 -3.57,-12.42 V 32 a 18.56,18.56 0 0 1 0.27,-3.24 10.38,10.38 0 0 1 10.2,-8.58 h 18"
       class="cls-28"
       inkscape:connector-curvature="0"
       style="fill:#774147" />
    <path
       id="path5709"
       transform="translate(-7.1,-8.07)"
       d="m 83,20.22 a 10.57,10.57 0 0 1 10.58,10.54 v 0 53.18 a 10.42,10.42 0 0 1 -9.45,10.37 c -0.35,0.11 -3.27,0.17 -3.65,0.17 h -46 c -3.8,0 -11.5,-3.08 -11.5,-6.88 -2,0 -3.66,-10.35 -3.67,-12.37 V 32.06 a 18.88,18.88 0 0 1 0.27,-3.24 10.36,10.36 0 0 1 10.19,-8.6 h 18.46"
       class="cls-28"
       inkscape:connector-curvature="0"
       style="fill:#774147" />
    <path
       id="path5711"
       transform="translate(-7.1,-8.07)"
       d="M 83,20.28 A 10.55,10.55 0 0 1 93.52,30.8 v 0 53.09 a 10.4,10.4 0 0 1 -9.41,10.35 c -0.35,0.11 -3.25,0.17 -3.64,0.18 H 34.65 c -3.74,0 -11.51,-3 -11.51,-6.76 -2.07,0 -3.75,-10.25 -3.76,-12.32 V 32.13 a 19.21,19.21 0 0 1 0.26,-3.24 10.35,10.35 0 0 1 10.18,-8.61 h 18.93"
       class="cls-28"
       inkscape:connector-curvature="0"
       style="fill:#774147" />
    <path
       id="path5713"
       transform="translate(-7.1,-8.07)"
       d="m 83,20.34 a 10.53,10.53 0 0 1 10.46,10.51 v 0 53 A 10.38,10.38 0 0 1 84.1,94.18 c -0.36,0.11 -3.23,0.18 -3.63,0.18 H 34.81 c -3.67,0 -11.52,-3 -11.52,-6.65 -2.12,0 -3.84,-10.15 -3.86,-12.28 V 32.21 A 19.55,19.55 0 0 1 19.7,29 10.33,10.33 0 0 1 29.86,20.37 h 19.4"
       class="cls-28"
       inkscape:connector-curvature="0"
       style="fill:#774147" />
    <path
       id="path5715"
       transform="translate(-7.1,-8.07)"
       d="m 82.91,20.39 a 10.52,10.52 0 0 1 10.49,10.5 v 0 52.91 a 10.36,10.36 0 0 1 -9.32,10.31 c -0.37,0.12 -3.2,0.18 -3.61,0.18 H 35 c -3.61,0 -11.53,-2.93 -11.53,-6.54 -2.18,0 -3.94,-10.05 -4,-12.23 V 32.28 A 19.91,19.91 0 0 1 19.75,29 10.31,10.31 0 0 1 29.9,20.36 h 19.88"
       class="cls-29"
       inkscape:connector-curvature="0"
       style="fill:#784147" />
    <path
       id="path5717"
       transform="translate(-7.1,-8.07)"
       d="m 82.87,20.45 a 10.5,10.5 0 0 1 10.47,10.48 v 0 52.83 A 10.35,10.35 0 0 1 84.07,94 c -0.38,0.12 -3.18,0.19 -3.6,0.19 H 35.14 c -3.55,0 -11.53,-2.88 -11.53,-6.43 -2.23,0 -4,-10 -4,-12.18 V 32.36 A 20.27,20.27 0 0 1 19.86,29.11 10.3,10.3 0 0 1 30,20.45 h 20.3"
       class="cls-29"
       inkscape:connector-curvature="0"
       style="fill:#784147" />
    <path
       id="path5719"
       transform="translate(-7.1,-8.07)"
       d="M 82.82,20.51 A 10.49,10.49 0 0 1 93.28,31 v 0 52.71 A 10.33,10.33 0 0 1 84.06,94 35.1,35.1 0 0 1 80.47,94.19 H 35.3 c -3.49,0 -11.54,-2.83 -11.54,-6.32 -2.28,0 -4.12,-9.86 -4.14,-12.14 V 32.43 A 20.65,20.65 0 0 1 19.87,29.18 10.28,10.28 0 0 1 30,20.51 h 20.82"
       class="cls-29"
       inkscape:connector-curvature="0"
       style="fill:#784147" />
    <path
       id="path5721"
       transform="translate(-7.1,-8.07)"
       d="M 82.78,20.57 A 10.47,10.47 0 0 1 93.22,31 v 0 52.67 A 10.31,10.31 0 0 1 84,93.91 a 34.06,34.06 0 0 1 -3.57,0.2 h -45 C 32,94.11 23.88,91.33 23.88,87.9 21.55,87.9 19.66,78.14 19.65,75.81 V 32.51 A 21,21 0 0 1 19.89,29.26 10.26,10.26 0 0 1 30,20.57 h 21.3"
       class="cls-29"
       inkscape:connector-curvature="0"
       style="fill:#784147" />
    <path
       id="path5723"
       transform="translate(-7.1,-8.07)"
       d="m 82.74,20.63 a 10.45,10.45 0 0 1 10.42,10.42 v 0 52.57 A 10.29,10.29 0 0 1 84,93.85 33.07,33.07 0 0 1 80.44,94.05 H 35.62 c -3.37,0 -11.56,-2.73 -11.56,-6.1 -2.38,0 -4.31,-9.66 -4.33,-12 V 32.58 A 21.46,21.46 0 0 1 20,29.33 10.25,10.25 0 0 1 30.11,20.63 h 21.75"
       class="cls-29"
       inkscape:connector-curvature="0"
       style="fill:#784147" />
    <path
       id="path5725"
       transform="translate(-7.1,-8.07)"
       d="M 82.69,20.69 A 10.44,10.44 0 0 1 93.1,31.1 v 0 52.48 A 10.28,10.28 0 0 1 84,93.78 32.11,32.11 0 0 1 80.45,93.99 H 35.79 c -3.31,0 -11.57,-2.68 -11.57,-6 -2.44,0 -4.41,-9.56 -4.42,-12 V 32.66 A 21.88,21.88 0 0 1 20,29.4 10.23,10.23 0 0 1 30.1,20.69 h 22.27"
       class="cls-29"
       inkscape:connector-curvature="0"
       style="fill:#784147" />
    <path
       id="path5727"
       transform="translate(-7.1,-8.07)"
       d="M 82.65,20.74 A 10.42,10.42 0 0 1 93,31.14 v 0 52.4 a 10.26,10.26 0 0 1 -9,10.18 31.2,31.2 0 0 1 -3.53,0.21 H 35.95 c -3.25,0 -11.57,-2.63 -11.57,-5.88 -2.49,0 -4.5,-9.47 -4.51,-12 V 32.73 a 22.32,22.32 0 0 1 0.23,-3.26 10.21,10.21 0 0 1 10.09,-8.73 h 22.7"
       class="cls-30"
       inkscape:connector-curvature="0"
       style="fill:#794147" />
    <path
       id="path5729"
       transform="translate(-7.1,-8.07)"
       d="M 82.61,20.8 A 10.4,10.4 0 0 1 93,31.18 v 0 52.31 a 10.24,10.24 0 0 1 -9,10.16 30.33,30.33 0 0 1 -3.52,0.22 H 36.11 c -3.18,0 -11.58,-2.58 -11.58,-5.77 -2.54,0 -4.59,-9.37 -4.61,-11.91 V 32.81 a 22.78,22.78 0 0 1 0.22,-3.26 10.2,10.2 0 0 1 10.08,-8.75 h 23.19"
       class="cls-30"
       inkscape:connector-curvature="0"
       style="fill:#794147" />
    <path
       id="path5731"
       transform="translate(-7.1,-8.07)"
       d="m 82.56,20.86 a 10.39,10.39 0 0 1 10.36,10.36 v 0 52.22 a 10.22,10.22 0 0 1 -9,10.14 29.5,29.5 0 0 1 -3.51,0.22 H 36.27 c -3.12,0 -11.59,-2.53 -11.59,-5.66 -2.59,0 -4.69,-9.27 -4.7,-11.86 v -43.4 a 23.25,23.25 0 0 1 0.22,-3.26 10.18,10.18 0 0 1 10.07,-8.76 h 23.66"
       class="cls-30"
       inkscape:connector-curvature="0"
       style="fill:#794147" />
    <path
       id="path5733"
       transform="translate(-7.1,-8.07)"
       d="m 82.52,20.92 a 10.37,10.37 0 0 1 10.34,10.34 v 0 52.14 a 10.21,10.21 0 0 1 -8.91,10.12 28.7,28.7 0 0 1 -3.5,0.22 h -44 c -3.06,0 -11.6,-2.48 -11.6,-5.54 -2.64,0 -4.78,-9.17 -4.8,-11.81 V 33 a 23.75,23.75 0 0 1 0.22,-3.26 10.17,10.17 0 0 1 10.05,-8.77 h 24.13"
       class="cls-31"
       inkscape:connector-curvature="0"
       style="fill:#794247" />
    <path
       id="path5735"
       transform="translate(-7.1,-8.07)"
       d="M 82.47,21 A 10.36,10.36 0 0 1 92.8,31.3 v 0 52 a 10.19,10.19 0 0 1 -8.87,10.1 27.93,27.93 0 0 1 -3.48,0.23 H 36.6 C 33.6,93.63 25,91.2 25,88.2 22.31,88.2 20.13,79.13 20.11,76.43 V 33 a 24.26,24.26 0 0 1 0.21,-3.26 10.15,10.15 0 0 1 10,-8.79 H 55"
       class="cls-31"
       inkscape:connector-curvature="0"
       style="fill:#794247" />
    <path
       id="path5737"
       transform="translate(-7.1,-8.07)"
       d="m 82.43,21 a 10.34,10.34 0 0 1 10.31,10.35 v 0 52 a 10.17,10.17 0 0 1 -8.82,10.07 27.19,27.19 0 0 1 -3.47,0.23 H 36.76 c -2.94,0 -11.61,-2.38 -11.61,-5.32 -2.75,0 -5,-9 -5,-11.72 v -43.5 a 24.8,24.8 0 0 1 0.21,-3.27 10.13,10.13 0 0 1 10,-8.8 h 25.12"
       class="cls-31"
       inkscape:connector-curvature="0"
       style="fill:#794247" />
    <path
       id="path5739"
       transform="translate(-7.1,-8.07)"
       d="m 82.39,21.1 a 10.32,10.32 0 0 1 10.29,10.29 v 0 51.87 A 10.16,10.16 0 0 1 83.9,93.32 26.48,26.48 0 0 1 80.44,93.56 H 36.92 c -2.88,0 -11.62,-2.33 -11.62,-5.21 -2.8,0 -5.06,-8.88 -5.08,-11.67 v -43.5 a 25.36,25.36 0 0 1 0.2,-3.27 10.12,10.12 0 0 1 10,-8.82 H 56"
       class="cls-32"
       inkscape:connector-curvature="0"
       style="fill:#7a4247" />
    <path
       id="path5741"
       transform="translate(-7.1,-8.07)"
       d="m 82.34,21.15 a 10.31,10.31 0 0 1 10.28,10.28 v 0 51.79 a 10.14,10.14 0 0 1 -8.73,10 25.79,25.79 0 0 1 -3.44,0.24 H 37.08 c -2.82,0 -11.63,-2.28 -11.63,-5.1 -2.85,0 -5.16,-8.78 -5.17,-11.63 V 33.25 a 25.94,25.94 0 0 1 0.2,-3.27 10.1,10.1 0 0 1 10,-8.83 h 26"
       class="cls-32"
       inkscape:connector-curvature="0"
       style="fill:#7a4247" />
    <path
       id="path5743"
       transform="translate(-7.1,-8.07)"
       d="m 82.3,21.21 a 10.29,10.29 0 0 1 10.26,10.26 v 0 51.7 a 10.12,10.12 0 0 1 -8.69,10 25.13,25.13 0 0 1 -3.43,0.25 h -43.2 c -2.76,0 -11.64,-2.23 -11.64,-5 -2.9,0 -5.25,-8.68 -5.27,-11.58 V 33.33 a 26.55,26.55 0 0 1 0.19,-3.27 10.09,10.09 0 0 1 10,-8.85 H 57"
       class="cls-32"
       inkscape:connector-curvature="0"
       style="fill:#7a4247" />
    <path
       id="path5745"
       transform="translate(-7.1,-8.07)"
       d="M 82.26,21.27 A 10.27,10.27 0 0 1 92.5,31.51 v 0 51.62 a 10.11,10.11 0 0 1 -8.64,10 24.5,24.5 0 0 1 -3.42,0.25 h -43 c -2.69,0 -11.64,-2.18 -11.64,-4.88 -3,0 -5.34,-8.58 -5.36,-11.54 V 33.4 a 27.19,27.19 0 0 1 0.19,-3.27 10.07,10.07 0 0 1 10,-8.86 h 27"
       class="cls-32"
       inkscape:connector-curvature="0"
       style="fill:#7a4247" />
    <path
       id="path5747"
       transform="translate(-7.1,-8.07)"
       d="m 82.21,21.33 a 10.26,10.26 0 0 1 10.23,10.22 v 0 51.53 a 10.09,10.09 0 0 1 -8.6,10 23.89,23.89 0 0 1 -3.4,0.26 H 37.57 c -2.63,0 -11.65,-2.13 -11.65,-4.77 -3,0 -5.44,-8.48 -5.46,-11.49 v -43.6 a 27.86,27.86 0 0 1 0.19,-3.28 10.06,10.06 0 0 1 10,-8.87 h 27.42"
       class="cls-32"
       inkscape:connector-curvature="0"
       style="fill:#7a4247" />
    <path
       id="path5749"
       transform="translate(-7.1,-8.07)"
       d="M 82.17,21.39 A 10.24,10.24 0 0 1 92.38,31.6 v 0 51.4 a 10.08,10.08 0 0 1 -8.55,10 23.3,23.3 0 0 1 -3.39,0.26 H 37.73 c -2.57,0 -11.66,-2.09 -11.66,-4.66 -3.06,0 -5.53,-8.39 -5.55,-11.44 V 33.55 a 28.56,28.56 0 0 1 0.18,-3.28 10,10 0 0 1 10,-8.89 h 27.89"
       class="cls-32"
       inkscape:connector-curvature="0"
       style="fill:#7a4247" />
    <path
       id="path5751"
       transform="translate(-7.1,-8.07)"
       d="m 82.13,21.45 a 10.23,10.23 0 0 1 10.19,10.19 v 0 V 83 a 10.06,10.06 0 0 1 -8.51,9.93 22.73,22.73 0 0 1 -3.38,0.26 H 37.89 c -2.51,0 -11.67,-2 -11.67,-4.55 -3.11,0 -5.62,-8.29 -5.64,-11.4 V 33.63 a 29.29,29.29 0 0 1 0.18,-3.28 10,10 0 0 1 10,-8.9 h 28.4"
       class="cls-33"
       inkscape:connector-curvature="0"
       style="fill:#7b4247" />
    <path
       id="path5753"
       transform="translate(-7.1,-8.07)"
       d="m 82.08,21.51 a 10.21,10.21 0 0 1 10.18,10.17 v 0 51.27 a 10,10 0 0 1 -8.46,9.9 22.18,22.18 0 0 1 -3.36,0.27 H 38.05 c -2.45,0 -11.67,-2 -11.67,-4.44 -3.16,0 -5.72,-8.19 -5.74,-11.35 V 33.7 a 30.06,30.06 0 0 1 0.17,-3.28 10,10 0 0 1 9.94,-8.92 h 28.88"
       class="cls-33"
       inkscape:connector-curvature="0"
       style="fill:#7b4247" />
    <path
       id="path5755"
       transform="translate(-7.1,-8.07)"
       d="m 82,21.56 a 10.19,10.19 0 0 1 10.2,10.16 v 0 51.18 a 10,10 0 0 1 -8.42,9.88 21.64,21.64 0 0 1 -3.35,0.27 H 38.22 c -2.39,0 -11.68,-1.94 -11.68,-4.32 -3.21,0 -5.81,-8.09 -5.83,-11.3 V 33.78 a 30.87,30.87 0 0 1 0.17,-3.28 10,10 0 0 1 9.93,-8.93 h 29.34"
       class="cls-33"
       inkscape:connector-curvature="0"
       style="fill:#7b4247" />
    <path
       id="path5757"
       transform="translate(-7.1,-8.07)"
       d="m 82,21.62 a 10.18,10.18 0 0 1 10.14,10.14 v 0 51.1 A 10,10 0 0 1 83.77,92.72 21.13,21.13 0 0 1 80.43,93 h -42 c -2.33,0 -11.69,-1.89 -11.69,-4.21 -3.26,0 -5.91,-8 -5.93,-11.26 V 33.85 a 31.72,31.72 0 0 1 0.16,-3.28 10,10 0 0 1 9.92,-8.95 h 29.77"
       class="cls-33"
       inkscape:connector-curvature="0"
       style="fill:#7b4247" />
    <path
       id="path5759"
       transform="translate(-7.1,-8.07)"
       d="M 82,21.68 A 10.16,10.16 0 0 1 92.08,31.8 v 0 51 a 10,10 0 0 1 -8.33,9.84 20.63,20.63 0 0 1 -3.32,0.28 H 38.54 c -2.27,0 -11.7,-1.84 -11.7,-4.1 -3.32,0 -6,-7.9 -6,-11.21 V 33.93 a 32.62,32.62 0 0 1 0.16,-3.29 10,10 0 0 1 9.91,-9 h 30.27"
       class="cls-33"
       inkscape:connector-curvature="0"
       style="fill:#7b4247" />
    <path
       id="path5761"
       transform="translate(-7.1,-8.07)"
       d="M 81.91,21.74 A 10.14,10.14 0 0 1 92,31.85 v 0 50.92 a 10,10 0 0 1 -8.28,9.82 20.15,20.15 0 0 1 -3.31,0.29 H 38.7 c -2.2,0 -11.71,-1.79 -11.71,-4 -3.37,0 -6.09,-7.8 -6.11,-11.17 V 34 c 0,-0.39 0.05,-2.93 0.16,-3.29 a 10,10 0 0 1 9.9,-9 H 61.7"
       class="cls-34"
       inkscape:connector-curvature="0"
       style="fill:#7b4347" />
    <path
       id="path5763"
       transform="translate(-7.1,-8.07)"
       d="M 81.87,21.8 A 10.13,10.13 0 0 1 92,31.89 v 0 50.83 a 10,10 0 0 1 -8.24,9.8 19.69,19.69 0 0 1 -3.3,0.29 h -41.6 c -2.14,0 -11.71,-1.74 -11.71,-3.88 -3.42,0 -6.19,-7.7 -6.21,-11.12 V 34.08 c 0,-0.38 0.05,-2.94 0.15,-3.29 a 9.94,9.94 0 0 1 9.89,-9 h 31.24"
       class="cls-34"
       inkscape:connector-curvature="0"
       style="fill:#7b4347" />
    <path
       id="path5765"
       transform="translate(-7.1,-8.07)"
       d="M 81.82,21.86 A 10.11,10.11 0 0 1 91.9,31.93 v 0 50.75 a 10,10 0 0 1 -8.19,9.78 19.24,19.24 0 0 1 -3.28,0.3 H 39 C 36.92,92.76 27.28,91.07 27.28,88.99 23.83,89 21,81.38 21,77.91 V 34.15 c 0,-0.37 0,-3 0.15,-3.29 a 9.93,9.93 0 0 1 9.88,-9 h 31.71"
       class="cls-35"
       inkscape:connector-curvature="0"
       style="fill:#7c4347" />
    <path
       id="path5767"
       transform="translate(-7.1,-8.07)"
       d="M 81.78,21.91 A 10.1,10.1 0 0 1 91.84,32 v 0 50.63 a 9.94,9.94 0 0 1 -8.15,9.76 18.8,18.8 0 0 1 -3.27,0.3 H 39.19 c -2,0 -11.73,-1.64 -11.73,-3.66 -3.52,0 -6.37,-7.5 -6.4,-11 v -43.8 c 0,-0.36 0,-3 0.14,-3.29 a 9.91,9.91 0 0 1 9.87,-9 h 32.18"
       class="cls-35"
       inkscape:connector-curvature="0"
       style="fill:#7c4347" />
    <path
       id="path5769"
       transform="translate(-7.1,-8.07)"
       d="m 81.74,22 a 10.08,10.08 0 0 1 10,10 v 0 50.59 a 9.92,9.92 0 0 1 -8.1,9.73 18.38,18.38 0 0 1 -3.26,0.3 H 39.35 c -2,0 -11.74,-1.59 -11.74,-3.55 -3.58,0 -6.47,-7.41 -6.49,-11 V 34.3 c 0,-0.35 0,-3 0.14,-3.3 a 9.9,9.9 0 0 1 9.85,-9 h 32.66"
       class="cls-35"
       inkscape:connector-curvature="0"
       style="fill:#7c4347" />
    <path
       id="path5771"
       transform="translate(-7.1,-8.07)"
       d="m 81.69,22 a 10.06,10.06 0 0 1 10,10 v 0 50.54 a 9.91,9.91 0 0 1 -8.06,9.71 18,18 0 0 1 -3.24,0.31 H 39.51 c -1.9,0 -11.74,-1.54 -11.74,-3.44 -3.63,0 -6.56,-7.31 -6.58,-10.93 V 34.38 c 0,-0.34 0,-3 0.13,-3.3 a 9.88,9.88 0 0 1 9.84,-9 h 33.13"
       class="cls-35"
       inkscape:connector-curvature="0"
       style="fill:#7c4347" />
    <path
       id="path5773"
       transform="translate(-7.1,-8.07)"
       d="m 81.65,22.09 a 10,10 0 0 1 10,10 v 0 50.41 a 9.89,9.89 0 0 1 -8,9.69 17.57,17.57 0 0 1 -3.23,0.31 H 39.67 c -1.84,0 -11.75,-1.49 -11.75,-3.33 -3.68,0 -6.66,-7.21 -6.68,-10.89 V 34.45 c 0,-0.33 0,-3 0.13,-3.3 a 9.87,9.87 0 0 1 9.83,-9.06 h 33.6"
       class="cls-35"
       inkscape:connector-curvature="0"
       style="fill:#7c4347" />
    <path
       id="path5775"
       transform="translate(-7.1,-8.07)"
       d="m 81.61,22.15 a 10,10 0 0 1 10,10 v 0 50.3 a 9.88,9.88 0 0 1 -8,9.67 17.18,17.18 0 0 1 -3.22,0.32 H 39.84 c -1.78,0 -11.76,-1.44 -11.76,-3.22 -3.73,0 -6.75,-7.11 -6.77,-10.84 V 34.53 c 0,-0.32 0,-3 0.13,-3.3 a 9.86,9.86 0 0 1 9.82,-9.08 h 34.07"
       class="cls-35"
       inkscape:connector-curvature="0"
       style="fill:#7c4347" />
    <path
       id="path5777"
       transform="translate(-7.1,-8.07)"
       d="m 81.56,22.21 a 10,10 0 0 1 10,10 v 0 50.2 a 9.87,9.87 0 0 1 -7.93,9.65 16.81,16.81 0 0 1 -3.2,0.32 H 40 c -1.71,0 -11.77,-1.39 -11.77,-3.1 -3.78,0 -6.84,-7 -6.87,-10.8 V 34.6 c 0,-0.3 0,-3 0.12,-3.3 a 9.84,9.84 0 0 1 9.81,-9.09 h 34.55"
       class="cls-36"
       inkscape:connector-curvature="0"
       style="fill:#7d4347" />
    <path
       id="path5779"
       transform="translate(-7.1,-8.07)"
       d="m 81.52,22.27 a 10,10 0 0 1 10,10 v 0 50.09 A 9.85,9.85 0 0 1 83.6,92 16.45,16.45 0 0 1 80.41,92.33 H 40.16 c -1.65,0 -11.78,-1.34 -11.78,-3 -3.83,0 -6.94,-6.92 -7,-10.75 v -43.9 c 0,-0.29 0,-3 0.12,-3.3 a 9.83,9.83 0 0 1 9.8,-9.11 h 35"
       class="cls-36"
       inkscape:connector-curvature="0"
       style="fill:#7d4347" />
    <path
       id="path5781"
       transform="translate(-7.1,-8.07)"
       d="m 81.48,22.32 a 10,10 0 0 1 9.94,9.94 v 0 50.06 a 9.84,9.84 0 0 1 -7.84,9.61 16.09,16.09 0 0 1 -3.18,0.33 H 40.32 c -1.59,0 -11.78,-1.29 -11.78,-2.88 -3.89,0 -7,-6.82 -7.05,-10.7 V 34.75 c 0,-0.28 0,-3 0.11,-3.31 a 9.82,9.82 0 0 1 9.79,-9.12 h 35.5"
       class="cls-36"
       inkscape:connector-curvature="0"
       style="fill:#7d4347" />
    <path
       id="path5783"
       transform="translate(-7.1,-8.07)"
       d="m 81.43,22.38 a 10,10 0 0 1 9.92,9.92 v 0 50 a 9.83,9.83 0 0 1 -7.79,9.59 15.75,15.75 0 0 1 -3.16,0.33 H 40.48 C 39,92.19 28.69,91 28.69,89.42 24.75,89.42 21.57,82.7 21.54,78.76 V 34.83 c 0,-0.27 0,-3.06 0.11,-3.31 a 9.8,9.8 0 0 1 9.78,-9.14 h 36"
       class="cls-37"
       inkscape:connector-curvature="0"
       style="fill:#7d4348" />
    <path
       id="path5785"
       transform="translate(-7.1,-8.07)"
       d="m 81.39,22.44 a 10,10 0 0 1 9.9,9.9 v 0 49.89 a 9.81,9.81 0 0 1 -7.75,9.56 15.42,15.42 0 0 1 -3.15,0.34 H 40.65 c -1.47,0 -11.8,-1.19 -11.8,-2.66 -4,0 -7.22,-6.62 -7.24,-10.61 v -44 c 0,-0.26 0,-3.07 0.1,-3.31 a 9.79,9.79 0 0 1 9.77,-9.15 h 36.44"
       class="cls-37"
       inkscape:connector-curvature="0"
       style="fill:#7d4348" />
    <path
       id="path5787"
       transform="translate(-7.1,-8.07)"
       d="m 81.35,22.5 a 9.93,9.93 0 0 1 9.89,9.89 v 0 49.79 a 9.8,9.8 0 0 1 -7.7,9.54 15.09,15.09 0 0 1 -3.14,0.34 H 40.81 C 39.4,92.07 29,90.93 29,89.52 25,89.52 21.69,83 21.66,78.96 V 35 c 0,-0.25 0,-3.08 0.1,-3.31 a 9.78,9.78 0 0 1 9.75,-9.17 h 36.92"
       class="cls-37"
       inkscape:connector-curvature="0"
       style="fill:#7d4348" />
    <path
       id="path5789"
       transform="translate(-7.1,-8.07)"
       d="m 81.3,22.56 a 9.92,9.92 0 0 1 9.87,9.87 v 0 49.71 A 9.79,9.79 0 0 1 83.51,91.66 14.78,14.78 0 0 1 80.4,92 H 41 c -1.35,0 -11.81,-1.09 -11.81,-2.44 -4.09,0 -7.41,-6.42 -7.43,-10.52 v -44 c 0,-0.24 0,-3.09 0.1,-3.31 A 9.76,9.76 0 0 1 31.6,22.55 H 69"
       class="cls-38"
       inkscape:connector-curvature="0"
       style="fill:#7e4348" />
    <path
       id="path5791"
       transform="translate(-7.1,-8.07)"
       d="m 81.26,22.62 a 9.9,9.9 0 0 1 9.85,9.85 v 0 49.62 a 9.77,9.77 0 0 1 -7.61,9.5 14.47,14.47 0 0 1 -3.11,0.35 H 41.13 c -1.29,0 -11.82,-1 -11.82,-2.33 -4.15,0 -7.5,-6.33 -7.52,-10.47 v -44 c 0,-0.23 0,-3.11 0.09,-3.32 a 9.75,9.75 0 0 1 9.73,-9.19 h 37.86"
       class="cls-39"
       inkscape:connector-curvature="0"
       style="fill:#7e4448" />
    <path
       id="path5793"
       transform="translate(-7.1,-8.07)"
       d="m 81.22,22.68 a 9.88,9.88 0 0 1 9.84,9.84 v 0 V 82 a 9.76,9.76 0 0 1 -7.57,9.48 14.17,14.17 0 0 1 -3.1,0.36 h -39.1 c -1.22,0 -11.83,-1 -11.83,-2.22 -4.2,0 -7.59,-6.23 -7.62,-10.43 v -44 c 0,-0.22 0,-3.12 0.09,-3.32 a 9.74,9.74 0 0 1 9.72,-9.21 H 70"
       class="cls-39"
       inkscape:connector-curvature="0"
       style="fill:#7e4448" />
    <path
       id="path5795"
       transform="translate(-7.1,-8.07)"
       d="M 81.17,22.73 A 9.87,9.87 0 0 1 91,32.55 v 0 V 82 a 9.75,9.75 0 0 1 -7.52,9.46 13.88,13.88 0 0 1 -3.08,0.36 H 41.46 c -1.16,0 -11.84,-0.94 -11.84,-2.11 -4.25,0 -7.69,-6.13 -7.71,-10.38 V 35.28 c 0,-0.21 0,-3.13 0.08,-3.32 a 9.72,9.72 0 0 1 9.71,-9.22 h 38.81"
       class="cls-39"
       inkscape:connector-curvature="0"
       style="fill:#7e4448" />
    <path
       id="path5797"
       transform="translate(-7.1,-8.07)"
       d="m 81.13,22.79 a 9.85,9.85 0 0 1 9.8,9.8 v 0 V 82 a 9.74,9.74 0 0 1 -7.48,9.44 13.6,13.6 0 0 1 -3.07,0.37 H 41.62 c -1.1,0 -11.85,-0.89 -11.85,-2 -4.3,0 -7.78,-6 -7.81,-10.33 V 35.35 c 0,-0.2 0,-3.14 0.08,-3.32 a 9.71,9.71 0 0 1 9.7,-9.24 H 71"
       class="cls-39"
       inkscape:connector-curvature="0"
       style="fill:#7e4448" />
    <path
       id="path5799"
       transform="translate(-7.1,-8.07)"
       d="m 81.09,22.85 a 9.84,9.84 0 0 1 9.79,9.79 v 0 49.27 a 9.73,9.73 0 0 1 -7.43,9.42 13.32,13.32 0 0 1 -3.06,0.37 H 41.78 c -1,0 -11.85,-0.84 -11.85,-1.89 -4.35,0 -7.87,-5.93 -7.9,-10.29 V 35.43 c 0,-0.19 0,-3.15 0.07,-3.32 a 9.7,9.7 0 0 1 9.69,-9.25 h 39.75"
       class="cls-39"
       inkscape:connector-curvature="0"
       style="fill:#7e4448" />
    <path
       id="path5801"
       transform="translate(-7.1,-8.07)"
       d="m 81,22.91 a 9.82,9.82 0 0 1 9.77,9.77 v 0 49.19 a 9.72,9.72 0 0 1 -7.39,9.39 13.05,13.05 0 0 1 -3,0.37 H 41.94 c -1,0 -11.86,-0.79 -11.86,-1.77 -4.4,0 -8,-5.84 -8,-10.24 V 35.5 c 0,-0.17 0,-3.17 0.07,-3.32 a 9.69,9.69 0 0 1 9.68,-9.27 h 40.23"
       class="cls-39"
       inkscape:connector-curvature="0"
       style="fill:#7e4448" />
    <path
       id="path5803"
       transform="translate(-7.1,-8.07)"
       d="m 81,23 a 9.8,9.8 0 0 1 9.75,9.75 v 0 49.1 a 9.7,9.7 0 0 1 -7.34,9.37 12.79,12.79 0 0 1 -3,0.38 H 42.1 c -0.92,0 -11.87,-0.74 -11.87,-1.66 -4.46,0 -8.06,-5.74 -8.09,-10.19 V 35.58 c 0,-0.16 0,-3.18 0.06,-3.33 A 9.67,9.67 0 0 1 31.88,23 h 40.7"
       class="cls-40"
       inkscape:connector-curvature="0"
       style="fill:#7f4448" />
    <path
       id="path5805"
       transform="translate(-7.1,-8.07)"
       d="m 81,23 a 9.79,9.79 0 0 1 9.74,9.74 v 0 49 a 9.69,9.69 0 0 1 -7.3,9.35 12.54,12.54 0 0 1 -3,0.38 H 42.27 c -0.86,0 -11.88,-0.7 -11.88,-1.55 -4.51,0 -8.15,-5.64 -8.18,-10.15 V 35.65 c 0,-0.15 0,-3.19 0.06,-3.33 A 9.66,9.66 0 0 1 31.92,23 H 73.1"
       class="cls-40"
       inkscape:connector-curvature="0"
       style="fill:#7f4448" />
    <path
       id="path5807"
       transform="translate(-7.1,-8.07)"
       d="m 80.91,23.08 a 9.77,9.77 0 0 1 9.72,9.72 v 0 48.93 a 9.68,9.68 0 0 1 -7.25,9.33 12.29,12.29 0 0 1 -3,0.39 H 42.43 c -0.8,0 -11.88,-0.65 -11.88,-1.44 -4.56,0 -8.25,-5.54 -8.28,-10.1 V 35.73 c 0,-0.14 0,-3.2 0.06,-3.33 A 9.65,9.65 0 0 1 32,23.08 h 41.62"
       class="cls-40"
       inkscape:connector-curvature="0"
       style="fill:#7f4448" />
    <path
       id="path5809"
       transform="translate(-7.1,-8.07)"
       d="m 80.87,23.14 a 9.75,9.75 0 0 1 9.7,9.7 v 0 48.85 a 9.67,9.67 0 0 1 -7.2,9.31 12,12 0 0 1 -3,0.39 H 42.59 c -0.73,0 -11.89,-0.6 -11.89,-1.33 -4.61,0 -8.34,-5.44 -8.37,-10.06 V 35.8 c 0,-0.13 0,-3.21 0.05,-3.33 A 9.64,9.64 0 0 1 32,23.14 h 42.13"
       class="cls-40"
       inkscape:connector-curvature="0"
       style="fill:#7f4448" />
    <path
       id="path5811"
       transform="translate(-7.1,-8.07)"
       d="m 80.83,23.2 a 9.74,9.74 0 0 1 9.69,9.69 v 0 48.75 a 9.66,9.66 0 0 1 -7.16,9.29 11.81,11.81 0 0 1 -3,0.4 H 42.75 c -0.67,0 -11.9,-0.55 -11.9,-1.22 -4.66,0 -8.44,-5.35 -8.47,-10 V 35.88 c 0,-0.12 0,-3.22 0,-3.33 A 9.63,9.63 0 0 1 32,23.21 h 42.65"
       class="cls-40"
       inkscape:connector-curvature="0"
       style="fill:#7f4448" />
    <path
       id="path5813"
       transform="translate(-7.1,-8.07)"
       d="m 80.78,23.26 a 9.72,9.72 0 0 1 9.67,9.67 v 0 48.67 a 9.65,9.65 0 0 1 -7.12,9.27 11.58,11.58 0 0 1 -3,0.4 H 42.92 c -0.61,0 -11.91,-0.5 -11.91,-1.11 -4.71,0 -8.53,-5.25 -8.56,-10 V 36 c 0,-0.11 0,-3.24 0,-3.34 a 9.61,9.61 0 0 1 9.61,-9.35 h 43.11"
       class="cls-40"
       inkscape:connector-curvature="0"
       style="fill:#7f4448" />
    <path
       id="path5815"
       transform="translate(-7.1,-8.07)"
       d="M 80.74,23.32 A 9.71,9.71 0 0 1 90.39,33 v 0 48.55 a 9.64,9.64 0 0 1 -7.07,9.25 11.36,11.36 0 0 1 -3,0.41 H 43.08 c -0.55,0 -11.92,-0.45 -11.92,-1 -4.77,0 -8.62,-5.15 -8.65,-9.92 V 36 c 0,-0.1 0,-3.25 0,-3.34 a 9.6,9.6 0 0 1 9.6,-9.37 h 43.58"
       class="cls-41"
       inkscape:connector-curvature="0"
       style="fill:#804448" />
    <path
       id="path5817"
       transform="translate(-7.1,-8.07)"
       d="M 80.7,23.38 A 9.69,9.69 0 0 1 90.33,33 v 0 48.51 a 9.63,9.63 0 0 1 -7,9.23 11.14,11.14 0 0 1 -2.94,0.41 H 43.24 c -0.49,0 -11.92,-0.4 -11.92,-0.89 -4.82,0 -8.72,-5.05 -8.75,-9.87 V 36.1 c 0,-0.09 0,-3.26 0,-3.34 a 9.59,9.59 0 0 1 9.59,-9.38 h 44"
       class="cls-41"
       inkscape:connector-curvature="0"
       style="fill:#804448" />
    <path
       id="path5819"
       transform="translate(-7.1,-8.07)"
       d="m 80.65,23.44 a 9.67,9.67 0 0 1 9.62,9.62 v 0 48.4 a 9.62,9.62 0 0 1 -7,9.2 10.92,10.92 0 0 1 -2.92,0.41 h -37 c -0.43,0 -11.93,-0.35 -11.93,-0.78 -4.87,0 -8.81,-5 -8.84,-9.82 V 36.18 c 0,-0.08 0,-3.27 0,-3.34 a 9.58,9.58 0 0 1 9.58,-9.4 h 44.56"
       class="cls-42"
       inkscape:connector-curvature="0"
       style="fill:#804548" />
    <path
       id="path5821"
       transform="translate(-7.1,-8.07)"
       d="m 80.61,23.49 a 9.66,9.66 0 0 1 9.6,9.6 v 0 48.33 a 9.61,9.61 0 0 1 -6.94,9.18 10.71,10.71 0 0 1 -2.91,0.42 h -36.8 c -0.37,0 -11.94,-0.3 -11.94,-0.67 -4.92,0 -8.9,-4.86 -8.94,-9.78 V 36.25 c 0,-0.07 0,-3.28 0,-3.34 a 9.57,9.57 0 0 1 9.57,-9.41 h 45"
       class="cls-42"
       inkscape:connector-curvature="0"
       style="fill:#804548" />
    <path
       id="path5823"
       transform="translate(-7.1,-8.07)"
       d="m 80.57,23.55 a 9.64,9.64 0 0 1 9.58,9.58 v 0 48.24 a 9.6,9.6 0 0 1 -6.89,9.16 10.51,10.51 0 0 1 -2.9,0.42 H 43.73 c -0.31,0 -11.95,-0.25 -11.95,-0.55 -5,0 -9,-4.76 -9,-9.73 V 36.32 c 0,-0.05 0,-3.3 0,-3.34 a 9.56,9.56 0 0 1 9.56,-9.43 h 45.42"
       class="cls-42"
       inkscape:connector-curvature="0"
       style="fill:#804548" />
    <path
       id="path5825"
       transform="translate(-7.1,-8.07)"
       d="m 80.52,23.61 a 9.62,9.62 0 0 1 9.57,9.57 v 0 48.15 a 9.6,9.6 0 0 1 -6.85,9.14 10.31,10.31 0 0 1 -2.88,0.43 H 43.89 c -0.24,0 -12,-0.2 -12,-0.44 -5,0 -9.09,-4.66 -9.12,-9.69 V 36.4 c 0,0 0,-3.31 0,-3.35 a 9.54,9.54 0 0 1 9.54,-9.44 h 45.97"
       class="cls-42"
       inkscape:connector-curvature="0"
       style="fill:#804548" />
    <path
       id="path5827"
       transform="translate(-7.1,-8.07)"
       d="M 80.48,23.67 A 9.61,9.61 0 0 1 90,33.22 v 0 48.06 a 9.59,9.59 0 0 1 -6.8,9.12 10.11,10.11 0 0 1 -2.87,0.43 H 44 c -0.18,0 -12,-0.15 -12,-0.33 -5.08,0 -9.19,-4.56 -9.22,-9.64 V 36.47 c 0,0 0,-3.32 0,-3.35 a 9.53,9.53 0 0 1 9.53,-9.46 H 78.8"
       class="cls-43"
       inkscape:connector-curvature="0"
       style="fill:#814548" />
    <path
       id="path5829"
       transform="translate(-7.1,-8.07)"
       d="M 80.44,23.73 A 9.59,9.59 0 0 1 90,33.26 v 0 48 a 9.58,9.58 0 0 1 -6.76,9.1 9.92,9.92 0 0 1 -2.86,0.44 H 44.21 c -0.12,0 -12,-0.1 -12,-0.22 A 9.62,9.62 0 0 1 22.93,81 V 36.55 c 0,0 0,-3.33 0,-3.35 a 9.52,9.52 0 0 1 9.52,-9.47 h 46.86"
       class="cls-43"
       inkscape:connector-curvature="0"
       style="fill:#814548" />
    <path
       id="path5831"
       transform="translate(-7.1,-8.07)"
       d="m 80.39,23.79 a 9.58,9.58 0 0 1 9.52,9.52 v 0 47.88 a 9.57,9.57 0 0 1 -6.71,9.08 9.74,9.74 0 0 1 -2.84,0.44 h -36 c -0.06,0 -12,0 -12,-0.11 A 9.59,9.59 0 0 1 23,81 V 36.62 c 0,0 0,-3.34 0,-3.35 a 9.51,9.51 0 0 1 9.51,-9.49 h 47.32"
       class="cls-43"
       inkscape:connector-curvature="0"
       style="fill:#814548" />
    <path
       id="path5833"
       transform="translate(-7.1,-8.07)"
       d="m 32.55,23.85 h 47.8 a 9.56,9.56 0 0 1 9.5,9.5 v 47.8 a 9.56,9.56 0 0 1 -9.5,9.5 h -47.8 a 9.56,9.56 0 0 1 -9.5,-9.5 v -47.8 a 9.5,9.5 0 0 1 9.5,-9.5 z"
       class="cls-43"
       inkscape:connector-curvature="0"
       style="fill:#814548" />
  </g>
</svg>
