<?xml version="1.0" encoding="UTF-8" standalone="no"?>
<svg
   xmlns:dc="http://purl.org/dc/elements/1.1/"
   xmlns:cc="http://creativecommons.org/ns#"
   xmlns:rdf="http://www.w3.org/1999/02/22-rdf-syntax-ns#"
   xmlns:svg="http://www.w3.org/2000/svg"
   xmlns="http://www.w3.org/2000/svg"
   xmlns:sodipodi="http://sodipodi.sourceforge.net/DTD/sodipodi-0.dtd"
   xmlns:inkscape="http://www.inkscape.org/namespaces/inkscape"
   id="Слой_1"
   data-name="Слой 1"
   viewBox="0 0 98.7 98.7"
   version="1.1"
   sodipodi:docname="color13.svg"
   inkscape:version="0.92.1 r15371">
  <metadata
     id="metadata5421">
    <rdf:RDF>
      <cc:Work
         rdf:about="">
        <dc:format>image/svg+xml</dc:format>
        <dc:type
           rdf:resource="http://purl.org/dc/dcmitype/StillImage" />
      </cc:Work>
    </rdf:RDF>
  </metadata>
  <sodipodi:namedview
     pagecolor="#ffffff"
     bordercolor="#666666"
     borderopacity="1"
     objecttolerance="10"
     gridtolerance="10"
     guidetolerance="10"
     inkscape:pageopacity="0"
     inkscape:pageshadow="2"
     inkscape:window-width="657"
     inkscape:window-height="480"
     id="namedview5419"
     showgrid="false"
     inkscape:zoom="2.3910842"
     inkscape:cx="49.349998"
     inkscape:cy="49.349998"
     inkscape:window-x="0"
     inkscape:window-y="0"
     inkscape:window-maximized="0"
     inkscape:current-layer="Слой_1" />
  <defs
     id="defs5008">
    <style
       id="style5006">.cls-1{fill:#3f616d;}.cls-2{fill:#3f616e;}.cls-3{fill:#3f626e;}.cls-4{fill:#40626f;}.cls-5{fill:#406270;}.cls-6{fill:#406370;}.cls-7{fill:#406371;}.cls-8{fill:#416372;}.cls-9{fill:#416473;}.cls-10{fill:#416474;}.cls-11{fill:#426575;}.cls-12{fill:#426576;}.cls-13{fill:#426577;}.cls-14{fill:#426677;}.cls-15{fill:#436678;}.cls-16{fill:#436679;}.cls-17{fill:#436779;}.cls-18{fill:#43677a;}.cls-19{fill:#44677b;}.cls-20{fill:#44687b;}.cls-21{fill:#44687c;}.cls-22{fill:#44687d;}.cls-23{fill:#44697d;}.cls-24{fill:#45697e;}.cls-25{fill:#45697f;}.cls-26{fill:#456a7f;}.cls-27{fill:#456a80;}.cls-28{fill:#466a81;}.cls-29{fill:#466b81;}.cls-30{fill:#466b82;}.cls-31{fill:#466b83;}.cls-32{fill:#476c84;}.cls-33{fill:#476c85;}.cls-34{fill:#476d86;}.cls-35{fill:#486d87;}.cls-36{fill:#486d88;}.cls-37{fill:#486e88;}.cls-38{fill:#486e89;}.cls-39{fill:#496e8a;}.cls-40{fill:#496f8a;}.cls-41{fill:#496f8b;}.cls-42{fill:#49708b;}.cls-43{fill:#49708c;}.cls-44{fill:#49718c;}.cls-45{fill:#49728c;}.cls-46{fill:#49728d;}.cls-47{fill:#4a728d;}.cls-48{fill:#4a738d;}.cls-49{fill:#4a748e;}.cls-50{fill:#4a758e;}.cls-51{fill:#4a758f;}.cls-52{fill:#4a768f;}.cls-53{fill:#4a778f;}.cls-54{fill:#4a7790;}.cls-55{fill:#4a7890;}.cls-56{fill:#4b7890;}.cls-57{fill:#4b7990;}.cls-58{fill:#4b7991;}.cls-59{fill:#4b7a91;}.cls-60{fill:#4b7b91;}.cls-61{fill:#4b7b92;}.cls-62{fill:#4b7c92;}.cls-63{fill:#4b7d93;}.cls-64{fill:#4b7e93;}.cls-65{fill:#4c7e93;}.cls-66{fill:#4c7e94;}.cls-67{fill:#4c7f94;}.cls-68{fill:#4c8094;}.cls-69{fill:#4c8095;}.cls-70{fill:#4c8195;}</style>
  </defs>
  <title
     id="title5010">color13</title>
  <g
     id="g12641">
    <path
       id="path5012"
       transform="translate(-7.17,-7.33)"
       d="m 91.87,7.33 a 14,14 0 0 1 14,14 v 0 V 92 a 14,14 0 0 1 -14,14 H 21.17 A 14,14 0 0 1 7.17,92 V 21.33 A 13.91,13.91 0 0 1 21,7.33"
       class="cls-1"
       inkscape:connector-curvature="0"
       style="fill:#3f616d" />
    <path
       id="path5014"
       transform="translate(-7.17,-7.33)"
       d="m 91.8,7.42 a 14,14 0 0 1 14,14 v 0 V 92 a 14,14 0 0 1 -14,14 H 21.24 A 14,14 0 0 1 7.24,92 V 21.4 a 13.88,13.88 0 0 1 13.79,-14"
       class="cls-1"
       inkscape:connector-curvature="0"
       style="fill:#3f616d" />
    <path
       id="path5016"
       transform="translate(-7.17,-7.33)"
       d="m 91.73,7.52 a 13.94,13.94 0 0 1 13.94,13.94 v 0 70.43 A 13.94,13.94 0 0 1 91.73,105.83 H 21.31 A 13.94,13.94 0 0 1 7.36,91.89 V 21.47 A 13.85,13.85 0 0 1 21.13,7.52"
       class="cls-2"
       inkscape:connector-curvature="0"
       style="fill:#3f616e" />
    <path
       id="path5018"
       transform="translate(-7.17,-7.33)"
       d="m 91.66,7.62 a 13.92,13.92 0 0 1 13.92,13.92 v 0 70.28 A 13.92,13.92 0 0 1 91.66,105.74 H 21.38 A 13.92,13.92 0 0 1 7.46,91.82 V 21.54 A 13.83,13.83 0 0 1 21.2,7.62"
       class="cls-2"
       inkscape:connector-curvature="0"
       style="fill:#3f616e" />
    <path
       id="path5020"
       transform="translate(-7.17,-7.33)"
       d="m 91.59,7.72 a 13.89,13.89 0 0 1 13.89,13.89 v 0 70.14 A 13.89,13.89 0 0 1 91.59,105.64 H 21.45 A 13.89,13.89 0 0 1 7.56,91.75 V 21.61 A 13.8,13.8 0 0 1 21.27,7.72"
       class="cls-3"
       inkscape:connector-curvature="0"
       style="fill:#3f626e" />
    <path
       id="path5022"
       transform="translate(-7.17,-7.33)"
       d="m 91.52,7.82 a 13.86,13.86 0 0 1 13.86,13.86 v 0 70 a 13.86,13.86 0 0 1 -13.86,13.86 h -70 A 13.86,13.86 0 0 1 7.66,91.68 v -70 A 13.77,13.77 0 0 1 21.34,7.82"
       class="cls-3"
       inkscape:connector-curvature="0"
       style="fill:#3f626e" />
    <path
       id="path5024"
       transform="translate(-7.17,-7.33)"
       d="m 91.45,7.91 a 13.83,13.83 0 0 1 13.83,13.83 v 0 69.87 A 13.83,13.83 0 0 1 91.45,105.44 H 21.59 A 13.83,13.83 0 0 1 7.75,91.61 V 21.75 A 13.74,13.74 0 0 1 21.41,7.91"
       class="cls-4"
       inkscape:connector-curvature="0"
       style="fill:#40626f" />
    <path
       id="path5026"
       transform="translate(-7.17,-7.33)"
       d="m 91.38,8 a 13.81,13.81 0 0 1 13.81,13.81 v 0 69.73 A 13.81,13.81 0 0 1 91.38,105.35 H 21.66 A 13.81,13.81 0 0 1 7.85,91.54 V 21.82 A 13.72,13.72 0 0 1 21.48,8"
       class="cls-4"
       inkscape:connector-curvature="0"
       style="fill:#40626f" />
    <path
       id="path5028"
       transform="translate(-7.17,-7.33)"
       d="m 91.31,8.11 a 13.78,13.78 0 0 1 13.78,13.78 v 0 69.58 A 13.78,13.78 0 0 1 91.31,105.25 H 21.73 A 13.78,13.78 0 0 1 7.95,91.47 V 21.89 A 13.69,13.69 0 0 1 21.55,8.11"
       class="cls-4"
       inkscape:connector-curvature="0"
       style="fill:#40626f" />
    <path
       id="path5030"
       transform="translate(-7.17,-7.33)"
       d="M 91.24,8.21 A 13.75,13.75 0 0 1 105,22 v 0 69.4 A 13.75,13.75 0 0 1 91.25,105.15 H 21.8 A 13.75,13.75 0 0 1 8,91.4 V 22 A 13.66,13.66 0 0 1 21.62,8.21"
       class="cls-5"
       inkscape:connector-curvature="0"
       style="fill:#406270" />
    <path
       id="path5032"
       transform="translate(-7.17,-7.33)"
       d="M 91.17,8.3 A 13.72,13.72 0 0 1 104.89,22 v 0 69.3 A 13.72,13.72 0 0 1 91.17,105 H 21.87 A 13.72,13.72 0 0 1 8.14,91.33 V 22 A 13.63,13.63 0 0 1 21.69,8.3"
       class="cls-5"
       inkscape:connector-curvature="0"
       style="fill:#406270" />
    <path
       id="path5034"
       transform="translate(-7.17,-7.33)"
       d="m 91.1,8.4 a 13.7,13.7 0 0 1 13.7,13.7 v 0 69.16 A 13.7,13.7 0 0 1 91.1,105 H 21.94 A 13.7,13.7 0 0 1 8.24,91.3 V 22.1 A 13.61,13.61 0 0 1 21.76,8.4"
       class="cls-6"
       inkscape:connector-curvature="0"
       style="fill:#406370" />
    <path
       id="path5036"
       transform="translate(-7.17,-7.33)"
       d="m 91,8.5 a 13.67,13.67 0 0 1 13.67,13.67 v 0 69 A 13.67,13.67 0 0 1 91,104.85 H 22 A 13.67,13.67 0 0 1 8.34,91.19 v -69 A 13.58,13.58 0 0 1 21.83,8.5"
       class="cls-7"
       inkscape:connector-curvature="0"
       style="fill:#406371" />
    <path
       id="path5038"
       transform="translate(-7.17,-7.33)"
       d="m 91,8.6 a 13.64,13.64 0 0 1 13.6,13.64 v 0 68.88 A 13.64,13.64 0 0 1 91,104.76 H 22.08 A 13.64,13.64 0 0 1 8.44,91.12 V 22.24 A 13.55,13.55 0 0 1 21.9,8.6"
       class="cls-7"
       inkscape:connector-curvature="0"
       style="fill:#406371" />
    <path
       id="path5040"
       transform="translate(-7.17,-7.33)"
       d="m 90.89,8.69 a 13.61,13.61 0 0 1 13.61,13.62 v 0 V 91 A 13.61,13.61 0 0 1 90.89,104.61 H 22.15 A 13.61,13.61 0 0 1 8.53,91 V 22.31 A 13.52,13.52 0 0 1 22,8.69"
       class="cls-7"
       inkscape:connector-curvature="0"
       style="fill:#406371" />
    <path
       id="path5042"
       transform="translate(-7.17,-7.33)"
       d="m 90.82,8.79 a 13.58,13.58 0 0 1 13.58,13.59 v 0 V 91 A 13.58,13.58 0 0 1 90.82,104.58 H 22.22 A 13.58,13.58 0 0 1 8.63,91 V 22.38 A 13.5,13.5 0 0 1 22,8.79"
       class="cls-7"
       inkscape:connector-curvature="0"
       style="fill:#406371" />
    <path
       id="path5044"
       transform="translate(-7.17,-7.33)"
       d="m 90.75,8.89 a 13.56,13.56 0 0 1 13.55,13.56 v 0 68.46 A 13.56,13.56 0 0 1 90.74,104.47 H 22.29 A 13.56,13.56 0 0 1 8.73,90.91 V 22.45 A 13.47,13.47 0 0 1 22.11,8.89"
       class="cls-8"
       inkscape:connector-curvature="0"
       style="fill:#416372" />
    <path
       id="path5046"
       transform="translate(-7.17,-7.33)"
       d="m 90.68,9 a 13.53,13.53 0 0 1 13.53,13.53 v 0 68.31 A 13.53,13.53 0 0 1 90.68,104.37 H 22.36 A 13.53,13.53 0 0 1 8.83,90.84 V 22.52 A 13.44,13.44 0 0 1 22.18,9"
       class="cls-8"
       inkscape:connector-curvature="0"
       style="fill:#416372" />
    <path
       id="path5048"
       transform="translate(-7.17,-7.33)"
       d="m 90.61,9.09 a 13.5,13.5 0 0 1 13.5,13.5 v 0 68.18 a 13.5,13.5 0 0 1 -13.5,13.5 H 22.43 A 13.5,13.5 0 0 1 8.93,90.77 V 22.59 A 13.41,13.41 0 0 1 22.25,9.09"
       class="cls-8"
       inkscape:connector-curvature="0"
       style="fill:#416372" />
    <path
       id="path5050"
       transform="translate(-7.17,-7.33)"
       d="M 90.54,9.18 A 13.47,13.47 0 0 1 104,22.66 v 0 68 a 13.47,13.47 0 0 1 -13.47,13.47 h -68 A 13.47,13.47 0 0 1 9,90.7 v -68 A 13.39,13.39 0 0 1 22.32,9.18"
       class="cls-9"
       inkscape:connector-curvature="0"
       style="fill:#416473" />
    <path
       id="path5052"
       transform="translate(-7.17,-7.33)"
       d="m 90.47,9.28 a 13.45,13.45 0 0 1 13.45,13.45 v 0 67.9 A 13.45,13.45 0 0 1 90.47,104.08 H 22.57 A 13.45,13.45 0 0 1 9.12,90.63 V 22.73 A 13.36,13.36 0 0 1 22.39,9.28"
       class="cls-9"
       inkscape:connector-curvature="0"
       style="fill:#416473" />
    <path
       id="path5054"
       transform="translate(-7.17,-7.33)"
       d="m 90.4,9.38 a 13.42,13.42 0 0 1 13.41,13.42 v 0 67.76 A 13.42,13.42 0 0 1 90.4,104 H 22.64 A 13.42,13.42 0 0 1 9.22,90.56 V 22.8 A 13.33,13.33 0 0 1 22.46,9.38"
       class="cls-9"
       inkscape:connector-curvature="0"
       style="fill:#416473" />
    <path
       id="path5056"
       transform="translate(-7.17,-7.33)"
       d="m 90.33,9.48 a 13.39,13.39 0 0 1 13.39,13.39 v 0 67.62 A 13.39,13.39 0 0 1 90.33,103.88 H 22.71 A 13.39,13.39 0 0 1 9.32,90.49 V 22.87 A 13.3,13.3 0 0 1 22.53,9.48"
       class="cls-10"
       inkscape:connector-curvature="0"
       style="fill:#416474" />
    <path
       id="path5058"
       transform="translate(-7.17,-7.33)"
       d="m 90.26,9.57 a 13.36,13.36 0 0 1 13.36,13.36 v 0 67.49 A 13.36,13.36 0 0 1 90.26,103.78 H 22.78 A 13.36,13.36 0 0 1 9.41,90.42 V 22.94 A 13.28,13.28 0 0 1 22.6,9.57"
       class="cls-10"
       inkscape:connector-curvature="0"
       style="fill:#416474" />
    <path
       id="path5060"
       transform="translate(-7.17,-7.33)"
       d="M 90.19,9.67 A 13.33,13.33 0 0 1 103.52,23 v 0 67.35 A 13.33,13.33 0 0 1 90.19,103.68 H 22.85 A 13.33,13.33 0 0 1 9.51,90.35 V 23 A 13.25,13.25 0 0 1 22.67,9.67"
       class="cls-10"
       inkscape:connector-curvature="0"
       style="fill:#416474" />
    <path
       id="path5062"
       transform="translate(-7.17,-7.33)"
       d="m 90.12,9.77 a 13.31,13.31 0 0 1 13.31,13.31 v 0 67.2 A 13.31,13.31 0 0 1 90.12,103.59 H 22.92 A 13.31,13.31 0 0 1 9.61,90.28 V 23.08 A 13.22,13.22 0 0 1 22.75,9.77"
       class="cls-10"
       inkscape:connector-curvature="0"
       style="fill:#416474" />
    <path
       id="path5064"
       transform="translate(-7.17,-7.33)"
       d="m 90,9.87 a 13.28,13.28 0 0 1 13.28,13.28 v 0 67.06 A 13.28,13.28 0 0 1 90,103.49 H 23 A 13.28,13.28 0 0 1 9.71,90.21 V 23.15 A 13.19,13.19 0 0 1 22.82,9.87"
       class="cls-11"
       inkscape:connector-curvature="0"
       style="fill:#426575" />
    <path
       id="path5066"
       transform="translate(-7.17,-7.33)"
       d="m 90,10 a 13.25,13.25 0 0 1 13.25,13.25 v 0 66.89 A 13.25,13.25 0 0 1 90,103.39 H 23.06 A 13.25,13.25 0 0 1 9.81,90.14 V 23.22 A 13.17,13.17 0 0 1 22.89,10"
       class="cls-11"
       inkscape:connector-curvature="0"
       style="fill:#426575" />
    <path
       id="path5068"
       transform="translate(-7.17,-7.33)"
       d="m 89.91,10.06 a 13.22,13.22 0 0 1 13.22,13.22 v 0 66.79 A 13.22,13.22 0 0 1 89.91,103.29 H 23.13 A 13.22,13.22 0 0 1 9.9,90.07 V 23.29 A 13.14,13.14 0 0 1 23,10.06"
       class="cls-11"
       inkscape:connector-curvature="0"
       style="fill:#426575" />
    <path
       id="path5070"
       transform="translate(-7.17,-7.33)"
       d="M 89.84,10.16 A 13.2,13.2 0 0 1 103,23.36 v 0 V 90 A 13.2,13.2 0 0 1 89.8,103.2 H 23.2 A 13.2,13.2 0 0 1 10,90 V 23.36 a 13.11,13.11 0 0 1 13,-13.2"
       class="cls-12"
       inkscape:connector-curvature="0"
       style="fill:#426576" />
    <path
       id="path5072"
       transform="translate(-7.17,-7.33)"
       d="m 89.77,10.26 a 13.17,13.17 0 0 1 13.17,13.17 v 0 66.5 A 13.17,13.17 0 0 1 89.77,103.1 H 23.27 A 13.17,13.17 0 0 1 10.1,89.93 v -66.5 a 13.08,13.08 0 0 1 13,-13.17"
       class="cls-12"
       inkscape:connector-curvature="0"
       style="fill:#426576" />
    <path
       id="path5074"
       transform="translate(-7.17,-7.33)"
       d="m 89.7,10.36 a 13.14,13.14 0 0 1 13.14,13.14 v 0 66.36 A 13.14,13.14 0 0 1 89.7,103 H 23.34 A 13.14,13.14 0 0 1 10.2,89.86 V 23.5 a 13.06,13.06 0 0 1 13,-13.14"
       class="cls-12"
       inkscape:connector-curvature="0"
       style="fill:#426576" />
    <path
       id="path5076"
       transform="translate(-7.17,-7.33)"
       d="m 89.63,10.45 a 13.11,13.11 0 0 1 13.11,13.11 v 0 66.23 A 13.11,13.11 0 0 1 89.63,102.9 H 23.41 A 13.11,13.11 0 0 1 10.29,89.79 V 23.57 A 13,13 0 0 1 23.24,10.45"
       class="cls-13"
       inkscape:connector-curvature="0"
       style="fill:#426577" />
    <path
       id="path5078"
       transform="translate(-7.17,-7.33)"
       d="m 89.56,10.55 a 13.09,13.09 0 0 1 13.09,13.09 v 0 66.08 A 13.09,13.09 0 0 1 89.56,102.8 H 23.48 A 13.09,13.09 0 0 1 10.39,89.72 V 23.64 A 13,13 0 0 1 23.31,10.55"
       class="cls-14"
       inkscape:connector-curvature="0"
       style="fill:#426677" />
    <path
       id="path5080"
       transform="translate(-7.17,-7.33)"
       d="m 89.49,10.65 a 13.06,13.06 0 0 1 13.06,13.06 v 0 65.94 A 13.06,13.06 0 0 1 89.49,102.7 H 23.55 A 13.06,13.06 0 0 1 10.49,89.65 V 23.71 A 13,13 0 0 1 23.38,10.65"
       class="cls-14"
       inkscape:connector-curvature="0"
       style="fill:#426677" />
    <path
       id="path5082"
       transform="translate(-7.17,-7.33)"
       d="m 89.42,10.75 a 13,13 0 0 1 13,13 v 0 65.8 a 13,13 0 0 1 -13,13 h -65.8 a 13,13 0 0 1 -13,-13 V 23.78 a 13,13 0 0 1 12.86,-13"
       class="cls-14"
       inkscape:connector-curvature="0"
       style="fill:#426677" />
    <path
       id="path5084"
       transform="translate(-7.17,-7.33)"
       d="m 89.35,10.84 a 13,13 0 0 1 13,13 v 0 65.67 a 13,13 0 0 1 -13,13 H 23.69 a 13,13 0 0 1 -13,-13 V 23.85 a 12.92,12.92 0 0 1 12.83,-13"
       class="cls-15"
       inkscape:connector-curvature="0"
       style="fill:#436678" />
    <path
       id="path5086"
       transform="translate(-7.17,-7.33)"
       d="m 89.28,10.94 a 13,13 0 0 1 13,13 v 0 65.5 a 13,13 0 0 1 -13,13 H 23.76 a 13,13 0 0 1 -13,-13 V 23.92 a 12.89,12.89 0 0 1 12.81,-13"
       class="cls-15"
       inkscape:connector-curvature="0"
       style="fill:#436678" />
    <path
       id="path5088"
       transform="translate(-7.17,-7.33)"
       d="m 89.21,11 a 13,13 0 0 1 12.94,13 v 0 65.37 A 13,13 0 0 1 89.2,102.32 H 23.83 A 13,13 0 0 1 10.88,89.37 V 24 A 12.86,12.86 0 0 1 23.66,11"
       class="cls-15"
       inkscape:connector-curvature="0"
       style="fill:#436678" />
    <path
       id="path5090"
       transform="translate(-7.17,-7.33)"
       d="m 89.14,11.14 a 12.92,12.92 0 0 1 12.92,12.92 v 0 65.24 A 12.92,12.92 0 0 1 89.14,102.22 H 23.9 A 12.92,12.92 0 0 1 11,89.3 V 24.06 A 12.84,12.84 0 0 1 23.73,11.14"
       class="cls-16"
       inkscape:connector-curvature="0"
       style="fill:#436679" />
    <path
       id="path5092"
       transform="translate(-7.17,-7.33)"
       d="M 89.07,11.24 A 12.89,12.89 0 0 1 102,24.13 v 0 65.1 A 12.89,12.89 0 0 1 89.11,102.12 H 24 A 12.89,12.89 0 0 1 11.08,89.23 V 24.13 A 12.81,12.81 0 0 1 23.8,11.24"
       class="cls-17"
       inkscape:connector-curvature="0"
       style="fill:#436779" />
    <path
       id="path5094"
       transform="translate(-7.17,-7.33)"
       d="m 89,11.33 a 12.86,12.86 0 0 1 12.86,12.87 v 0 65 A 12.86,12.86 0 0 1 89,102 H 24 A 12.86,12.86 0 0 1 11.17,89.16 v -65 A 12.78,12.78 0 0 1 23.87,11.3"
       class="cls-17"
       inkscape:connector-curvature="0"
       style="fill:#436779" />
    <path
       id="path5096"
       transform="translate(-7.17,-7.33)"
       d="m 88.93,11.43 a 12.84,12.84 0 0 1 12.84,12.84 v 0 64.82 A 12.84,12.84 0 0 1 88.93,101.93 H 24.11 A 12.84,12.84 0 0 1 11.27,89.09 V 24.27 A 12.75,12.75 0 0 1 23.94,11.43"
       class="cls-17"
       inkscape:connector-curvature="0"
       style="fill:#436779" />
    <path
       id="path5098"
       transform="translate(-7.17,-7.33)"
       d="m 88.86,11.53 a 12.81,12.81 0 0 1 12.81,12.81 v 0 V 89 A 12.81,12.81 0 0 1 88.86,101.81 H 24.18 A 12.81,12.81 0 0 1 11.37,89 V 24.34 A 12.73,12.73 0 0 1 24,11.53"
       class="cls-18"
       inkscape:connector-curvature="0"
       style="fill:#43677a" />
    <path
       id="path5100"
       transform="translate(-7.17,-7.33)"
       d="m 88.79,11.63 a 12.78,12.78 0 0 1 12.78,12.78 v 0 64.54 A 12.78,12.78 0 0 1 88.79,101.73 H 24.25 A 12.78,12.78 0 0 1 11.47,88.95 V 24.41 A 12.7,12.7 0 0 1 24.08,11.63"
       class="cls-18"
       inkscape:connector-curvature="0"
       style="fill:#43677a" />
    <path
       id="path5102"
       transform="translate(-7.17,-7.33)"
       d="m 88.72,11.72 a 12.75,12.75 0 0 1 12.75,12.75 v 0 64.4 A 12.75,12.75 0 0 1 88.72,101.62 H 24.32 A 12.75,12.75 0 0 1 11.56,88.88 V 24.48 A 12.67,12.67 0 0 1 24.15,11.72"
       class="cls-18"
       inkscape:connector-curvature="0"
       style="fill:#43677a" />
    <path
       id="path5104"
       transform="translate(-7.17,-7.33)"
       d="m 88.65,11.82 a 12.72,12.72 0 0 1 12.72,12.72 v 0 64.27 A 12.72,12.72 0 0 1 88.65,101.53 H 24.39 A 12.72,12.72 0 0 1 11.66,88.81 V 24.55 A 12.64,12.64 0 0 1 24.22,11.82"
       class="cls-19"
       inkscape:connector-curvature="0"
       style="fill:#44677b" />
    <path
       id="path5106"
       transform="translate(-7.17,-7.33)"
       d="m 88.58,11.92 a 12.7,12.7 0 0 1 12.7,12.7 v 0 64.12 a 12.7,12.7 0 0 1 -12.7,12.7 H 24.46 A 12.7,12.7 0 0 1 11.76,88.74 V 24.62 a 12.62,12.62 0 0 1 12.53,-12.7"
       class="cls-20"
       inkscape:connector-curvature="0"
       style="fill:#44687b" />
    <path
       id="path5108"
       transform="translate(-7.17,-7.33)"
       d="m 88.51,12 a 12.67,12.67 0 0 1 12.67,12.67 v 0 64 a 12.67,12.67 0 0 1 -12.67,12.67 h -64 A 12.67,12.67 0 0 1 11.86,88.67 v -64 A 12.59,12.59 0 0 1 24.36,12"
       class="cls-20"
       inkscape:connector-curvature="0"
       style="fill:#44687b" />
    <path
       id="path5110"
       transform="translate(-7.17,-7.33)"
       d="m 88.44,12.12 a 12.64,12.64 0 0 1 12.64,12.64 v 0 63.84 A 12.64,12.64 0 0 1 88.44,101.24 H 24.6 A 12.64,12.64 0 0 1 12,88.6 V 24.76 A 12.56,12.56 0 0 1 24.43,12.12"
       class="cls-21"
       inkscape:connector-curvature="0"
       style="fill:#44687c" />
    <path
       id="path5112"
       transform="translate(-7.17,-7.33)"
       d="M 88.37,12.21 A 12.61,12.61 0 0 1 101,24.83 v 0 63.7 A 12.61,12.61 0 0 1 88.39,101.14 H 24.67 A 12.61,12.61 0 0 1 12.05,88.53 V 24.83 A 12.53,12.53 0 0 1 24.5,12.21"
       class="cls-21"
       inkscape:connector-curvature="0"
       style="fill:#44687c" />
    <path
       id="path5114"
       transform="translate(-7.17,-7.33)"
       d="m 88.3,12.31 a 12.59,12.59 0 0 1 12.58,12.59 v 0 63.56 A 12.59,12.59 0 0 1 88.3,101 H 24.74 A 12.59,12.59 0 0 1 12.15,88.46 V 24.9 A 12.51,12.51 0 0 1 24.57,12.31"
       class="cls-21"
       inkscape:connector-curvature="0"
       style="fill:#44687c" />
    <path
       id="path5116"
       transform="translate(-7.17,-7.33)"
       d="M 88.23,12.41 A 12.56,12.56 0 0 1 100.78,25 v 0 63.39 A 12.56,12.56 0 0 1 88.22,100.95 H 24.81 A 12.56,12.56 0 0 1 12.25,88.39 V 25 a 12.48,12.48 0 0 1 12.4,-12.56"
       class="cls-21"
       inkscape:connector-curvature="0"
       style="fill:#44687c" />
    <path
       id="path5118"
       transform="translate(-7.17,-7.33)"
       d="M 88.16,12.51 A 12.53,12.53 0 0 1 100.69,25 v 0 63.32 A 12.53,12.53 0 0 1 88.16,100.85 H 24.88 A 12.53,12.53 0 0 1 12.35,88.32 V 25 A 12.45,12.45 0 0 1 24.71,12.51"
       class="cls-22"
       inkscape:connector-curvature="0"
       style="fill:#44687d" />
    <path
       id="path5120"
       transform="translate(-7.17,-7.33)"
       d="m 88.09,12.6 a 12.5,12.5 0 0 1 12.5,12.5 v 0 63.15 a 12.5,12.5 0 0 1 -12.5,12.5 H 24.95 A 12.5,12.5 0 0 1 12.45,88.25 V 25.11 A 12.42,12.42 0 0 1 24.79,12.6"
       class="cls-22"
       inkscape:connector-curvature="0"
       style="fill:#44687d" />
    <path
       id="path5122"
       transform="translate(-7.17,-7.33)"
       d="m 88,12.7 a 12.48,12.48 0 0 1 12.48,12.48 v 0 63 A 12.48,12.48 0 0 1 88,100.65 H 25 A 12.48,12.48 0 0 1 12.54,88.18 v -63 A 12.4,12.4 0 0 1 24.86,12.7"
       class="cls-23"
       inkscape:connector-curvature="0"
       style="fill:#44697d" />
    <path
       id="path5124"
       transform="translate(-7.17,-7.33)"
       d="m 87.95,12.8 a 12.45,12.45 0 0 1 12.45,12.45 v 0 62.86 A 12.45,12.45 0 0 1 87.95,100.56 H 25.09 A 12.45,12.45 0 0 1 12.64,88.11 V 25.25 A 12.37,12.37 0 0 1 24.93,12.8"
       class="cls-24"
       inkscape:connector-curvature="0"
       style="fill:#45697e" />
    <path
       id="path5126"
       transform="translate(-7.17,-7.33)"
       d="m 87.88,12.9 a 12.42,12.42 0 0 1 12.42,12.42 v 0 V 88 A 12.42,12.42 0 0 1 87.88,100.42 H 25.16 A 12.42,12.42 0 0 1 12.74,88 V 25.32 A 12.34,12.34 0 0 1 25,12.9"
       class="cls-24"
       inkscape:connector-curvature="0"
       style="fill:#45697e" />
    <path
       id="path5128"
       transform="translate(-7.17,-7.33)"
       d="m 87.81,13 a 12.39,12.39 0 0 1 12.39,12.39 v 0 V 88 A 12.39,12.39 0 0 1 87.81,100.39 H 25.23 A 12.39,12.39 0 0 1 12.83,88 V 25.39 A 12.31,12.31 0 0 1 25.07,13"
       class="cls-24"
       inkscape:connector-curvature="0"
       style="fill:#45697e" />
    <path
       id="path5130"
       transform="translate(-7.17,-7.33)"
       d="m 87.74,13.09 a 12.36,12.36 0 0 1 12.36,12.37 v 0 62.44 A 12.36,12.36 0 0 1 87.74,100.26 H 25.3 A 12.36,12.36 0 0 1 12.93,87.9 V 25.46 A 12.28,12.28 0 0 1 25.13,13.1"
       class="cls-25"
       inkscape:connector-curvature="0"
       style="fill:#45697f" />
    <path
       id="path5132"
       transform="translate(-7.17,-7.33)"
       d="M 87.67,13.19 A 12.34,12.34 0 0 1 100,25.53 v 0 62.3 A 12.34,12.34 0 0 1 87.66,100.17 H 25.37 A 12.34,12.34 0 0 1 13,87.83 V 25.53 A 12.26,12.26 0 0 1 25.21,13.19"
       class="cls-25"
       inkscape:connector-curvature="0"
       style="fill:#45697f" />
    <path
       id="path5134"
       transform="translate(-7.17,-7.33)"
       d="M 87.6,13.29 A 12.31,12.31 0 0 1 99.91,25.6 v 0 62.16 A 12.31,12.31 0 0 1 87.6,100.07 H 25.44 A 12.31,12.31 0 0 1 13.13,87.76 V 25.6 A 12.23,12.23 0 0 1 25.28,13.29"
       class="cls-25"
       inkscape:connector-curvature="0"
       style="fill:#45697f" />
    <path
       id="path5136"
       transform="translate(-7.17,-7.33)"
       d="m 87.53,13.39 a 12.28,12.28 0 0 1 12.28,12.28 v 0 62 A 12.28,12.28 0 0 1 87.53,100 h -62 A 12.28,12.28 0 0 1 13.23,87.69 v -62 a 12.2,12.2 0 0 1 12.12,-12.3"
       class="cls-26"
       inkscape:connector-curvature="0"
       style="fill:#456a7f" />
    <path
       id="path5138"
       transform="translate(-7.17,-7.33)"
       d="m 87.46,13.48 a 12.25,12.25 0 0 1 12.25,12.26 v 0 61.88 A 12.25,12.25 0 0 1 87.46,99.87 H 25.58 A 12.25,12.25 0 0 1 13.32,87.62 V 25.74 a 12.17,12.17 0 0 1 12.1,-12.25"
       class="cls-27"
       inkscape:connector-curvature="0"
       style="fill:#456a80" />
    <path
       id="path5140"
       transform="translate(-7.17,-7.33)"
       d="m 87.39,13.58 a 12.23,12.23 0 0 1 12.22,12.23 v 0 61.74 A 12.23,12.23 0 0 1 87.39,99.77 H 25.65 A 12.23,12.23 0 0 1 13.42,87.55 V 25.81 A 12.15,12.15 0 0 1 25.49,13.58"
       class="cls-27"
       inkscape:connector-curvature="0"
       style="fill:#456a80" />
    <path
       id="path5142"
       transform="translate(-7.17,-7.33)"
       d="m 87.32,13.68 a 12.2,12.2 0 0 1 12.2,12.2 v 0 61.6 a 12.2,12.2 0 0 1 -12.2,12.2 h -61.6 a 12.2,12.2 0 0 1 -12.2,-12.2 v -61.6 a 12.12,12.12 0 0 1 12,-12.2"
       class="cls-27"
       inkscape:connector-curvature="0"
       style="fill:#456a80" />
    <path
       id="path5144"
       transform="translate(-7.17,-7.33)"
       d="m 87.25,13.78 a 12.17,12.17 0 0 1 12.17,12.17 v 0 61.46 A 12.17,12.17 0 0 1 87.25,99.58 H 25.79 A 12.17,12.17 0 0 1 13.62,87.41 V 25.95 a 12.09,12.09 0 0 1 12,-12.17"
       class="cls-28"
       inkscape:connector-curvature="0"
       style="fill:#466a81" />
    <path
       id="path5146"
       transform="translate(-7.17,-7.33)"
       d="M 87.18,13.87 A 12.14,12.14 0 0 1 99.32,26 v 0 61.34 A 12.14,12.14 0 0 1 87.18,99.48 H 25.86 A 12.14,12.14 0 0 1 13.71,87.34 V 26 a 12.06,12.06 0 0 1 12,-12.14"
       class="cls-28"
       inkscape:connector-curvature="0"
       style="fill:#466a81" />
    <path
       id="path5148"
       transform="translate(-7.17,-7.33)"
       d="m 87.11,14 a 12.11,12.11 0 0 1 12.11,12.09 v 0 61.18 A 12.11,12.11 0 0 1 87.11,99.38 H 25.93 A 12.11,12.11 0 0 1 13.81,87.27 V 26.09 A 12,12 0 0 1 25.77,14"
       class="cls-28"
       inkscape:connector-curvature="0"
       style="fill:#466a81" />
    <path
       id="path5150"
       transform="translate(-7.17,-7.33)"
       d="m 87,14.07 a 12.09,12.09 0 0 1 12.12,12.09 v 0 61 A 12.09,12.09 0 0 1 87,99.28 H 26 A 12.09,12.09 0 0 1 13.91,87.2 v -61 A 12,12 0 0 1 25.84,14.07"
       class="cls-29"
       inkscape:connector-curvature="0"
       style="fill:#466b81" />
    <path
       id="path5152"
       transform="translate(-7.17,-7.33)"
       d="m 87,14.17 a 12.06,12.06 0 0 1 12,12.06 v 0 60.9 A 12.06,12.06 0 0 1 87,99.19 H 26.07 A 12.06,12.06 0 0 1 14,87.13 V 26.23 A 12,12 0 0 1 25.9,14.17"
       class="cls-30"
       inkscape:connector-curvature="0"
       style="fill:#466b82" />
    <path
       id="path5154"
       transform="translate(-7.17,-7.33)"
       d="m 86.9,14.27 a 12,12 0 0 1 12,12 v 0 60.79 a 12,12 0 0 1 -12,12 H 26.14 a 12,12 0 0 1 -12,-12 V 26.3 A 12,12 0 0 1 26,14.27"
       class="cls-30"
       inkscape:connector-curvature="0"
       style="fill:#466b82" />
    <path
       id="path5156"
       transform="translate(-7.17,-7.33)"
       d="m 86.83,14.36 a 12,12 0 0 1 12,12 v 0 V 87 a 12,12 0 0 1 -12,12 H 26.21 a 12,12 0 0 1 -12,-12 V 26.37 a 11.93,11.93 0 0 1 11.85,-12"
       class="cls-30"
       inkscape:connector-curvature="0"
       style="fill:#466b82" />
    <path
       id="path5158"
       transform="translate(-7.17,-7.33)"
       d="m 86.76,14.46 a 12,12 0 0 1 12,12 v 0 60.46 a 12,12 0 0 1 -12,12 H 26.28 a 12,12 0 0 1 -12,-12 V 26.44 a 11.9,11.9 0 0 1 11.82,-12"
       class="cls-31"
       inkscape:connector-curvature="0"
       style="fill:#466b83" />
    <path
       id="path5160"
       transform="translate(-7.17,-7.33)"
       d="m 86.69,14.56 a 12,12 0 0 1 11.95,11.95 v 0 60.34 A 12,12 0 0 1 86.69,98.8 H 26.35 A 12,12 0 0 1 14.4,86.85 V 26.51 A 11.87,11.87 0 0 1 26.19,14.56"
       class="cls-31"
       inkscape:connector-curvature="0"
       style="fill:#466b83" />
    <path
       id="path5162"
       transform="translate(-7.17,-7.33)"
       d="m 86.62,14.66 a 11.92,11.92 0 0 1 11.92,11.92 v 0 60.2 A 11.92,11.92 0 0 1 86.62,98.7 H 26.42 A 11.92,11.92 0 0 1 14.5,86.78 V 26.58 A 11.84,11.84 0 0 1 26.26,14.66"
       class="cls-31"
       inkscape:connector-curvature="0"
       style="fill:#466b83" />
    <path
       id="path5164"
       transform="translate(-7.17,-7.33)"
       d="m 86.55,14.75 a 11.89,11.89 0 0 1 11.89,11.9 v 0 60.06 A 11.89,11.89 0 0 1 86.55,98.6 H 26.49 A 11.89,11.89 0 0 1 14.59,86.71 V 26.65 a 11.82,11.82 0 0 1 11.74,-11.9"
       class="cls-32"
       inkscape:connector-curvature="0"
       style="fill:#476c84" />
    <path
       id="path5166"
       transform="translate(-7.17,-7.33)"
       d="m 86.48,14.85 a 11.87,11.87 0 0 1 11.86,11.87 v 0 59.92 A 11.87,11.87 0 0 1 86.48,98.5 H 26.56 A 11.87,11.87 0 0 1 14.69,86.64 V 26.72 A 11.79,11.79 0 0 1 26.4,14.85"
       class="cls-32"
       inkscape:connector-curvature="0"
       style="fill:#476c84" />
    <path
       id="path5168"
       transform="translate(-7.17,-7.33)"
       d="m 86.41,14.95 a 11.84,11.84 0 0 1 11.83,11.84 v 0 59.78 A 11.84,11.84 0 0 1 86.41,98.4 H 26.63 A 11.84,11.84 0 0 1 14.79,86.57 V 26.79 A 11.76,11.76 0 0 1 26.47,14.95"
       class="cls-32"
       inkscape:connector-curvature="0"
       style="fill:#476c84" />
    <path
       id="path5170"
       transform="translate(-7.17,-7.33)"
       d="m 86.34,15 a 11.81,11.81 0 0 1 11.81,11.86 v 0 59.64 A 11.81,11.81 0 0 1 86.34,98.31 H 26.7 A 11.81,11.81 0 0 1 14.89,86.5 V 26.86 A 11.73,11.73 0 0 1 26.54,15"
       class="cls-32"
       inkscape:connector-curvature="0"
       style="fill:#476c84" />
    <path
       id="path5172"
       transform="translate(-7.17,-7.33)"
       d="M 86.27,15.14 A 11.78,11.78 0 0 1 98,26.93 v 0 59.5 A 11.78,11.78 0 0 1 86.27,98.21 H 26.77 A 11.78,11.78 0 0 1 15,86.43 V 26.93 A 11.71,11.71 0 0 1 26.61,15.14"
       class="cls-33"
       inkscape:connector-curvature="0"
       style="fill:#476c85" />
    <path
       id="path5174"
       transform="translate(-7.17,-7.33)"
       d="M 86.2,15.24 A 11.75,11.75 0 0 1 98,27 v 0 59.36 A 11.75,11.75 0 0 1 86.2,98.11 H 26.84 A 11.75,11.75 0 0 1 15.08,86.36 V 27 a 11.68,11.68 0 0 1 11.6,-11.75"
       class="cls-33"
       inkscape:connector-curvature="0"
       style="fill:#476c85" />
    <path
       id="path5176"
       transform="translate(-7.17,-7.33)"
       d="m 86.13,15.34 a 11.73,11.73 0 0 1 11.72,11.73 v 0 59.22 A 11.73,11.73 0 0 1 86.13,98 H 26.91 A 11.73,11.73 0 0 1 15.18,86.29 V 27.07 A 11.65,11.65 0 0 1 26.76,15.34"
       class="cls-33"
       inkscape:connector-curvature="0"
       style="fill:#476c85" />
    <path
       id="path5178"
       transform="translate(-7.17,-7.33)"
       d="m 86.06,15.44 a 11.7,11.7 0 0 1 11.7,11.7 v 0 59.08 a 11.7,11.7 0 0 1 -11.7,11.7 H 27 A 11.7,11.7 0 0 1 15.3,86.22 V 27.14 a 11.62,11.62 0 0 1 11.55,-11.7"
       class="cls-34"
       inkscape:connector-curvature="0"
       style="fill:#476d86" />
    <path
       id="path5180"
       transform="translate(-7.17,-7.33)"
       d="m 86,15.54 a 11.67,11.67 0 0 1 11.66,11.67 v 0 58.94 A 11.67,11.67 0 0 1 86,97.82 H 27 A 11.67,11.67 0 0 1 15.38,86.15 V 27.21 A 11.6,11.6 0 0 1 26.9,15.54"
       class="cls-34"
       inkscape:connector-curvature="0"
       style="fill:#476d86" />
    <path
       id="path5182"
       transform="translate(-7.17,-7.33)"
       d="m 85.92,15.63 a 11.64,11.64 0 0 1 11.64,11.65 v 0 58.8 A 11.64,11.64 0 0 1 85.92,97.72 H 27.12 A 11.64,11.64 0 0 1 15.47,86.08 V 27.28 A 11.57,11.57 0 0 1 27,15.63"
       class="cls-34"
       inkscape:connector-curvature="0"
       style="fill:#476d86" />
    <path
       id="path5184"
       transform="translate(-7.17,-7.33)"
       d="m 85.85,15.73 a 11.62,11.62 0 0 1 11.61,11.62 v 0 V 86 A 11.62,11.62 0 0 1 85.85,97.62 H 27.19 A 11.62,11.62 0 0 1 15.57,86 V 27.35 A 11.54,11.54 0 0 1 27,15.73"
       class="cls-35"
       inkscape:connector-curvature="0"
       style="fill:#486d87" />
    <path
       id="path5186"
       transform="translate(-7.17,-7.33)"
       d="m 85.78,15.83 a 11.59,11.59 0 0 1 11.58,11.59 v 0 58.52 A 11.59,11.59 0 0 1 85.78,97.53 H 27.26 A 11.59,11.59 0 0 1 15.67,85.94 V 27.42 A 11.51,11.51 0 0 1 27.11,15.83"
       class="cls-35"
       inkscape:connector-curvature="0"
       style="fill:#486d87" />
    <path
       id="path5188"
       transform="translate(-7.17,-7.33)"
       d="m 85.71,15.93 a 11.56,11.56 0 0 1 11.56,11.56 v 0 58.38 A 11.56,11.56 0 0 1 85.71,97.43 H 27.33 A 11.56,11.56 0 0 1 15.77,85.87 V 27.49 A 11.49,11.49 0 0 1 27.18,15.93"
       class="cls-35"
       inkscape:connector-curvature="0"
       style="fill:#486d87" />
    <path
       id="path5190"
       transform="translate(-7.17,-7.33)"
       d="m 85.64,16 a 11.53,11.53 0 0 1 11.53,11.56 v 0 58.24 A 11.53,11.53 0 0 1 85.64,97.33 H 27.4 A 11.53,11.53 0 0 1 15.86,85.8 V 27.56 A 11.46,11.46 0 0 1 27.25,16"
       class="cls-35"
       inkscape:connector-curvature="0"
       style="fill:#486d87" />
    <path
       id="path5192"
       transform="translate(-7.17,-7.33)"
       d="m 85.57,16.12 a 11.5,11.5 0 0 1 11.5,11.5 v 0 58.1 a 11.5,11.5 0 0 1 -11.5,11.5 H 27.47 A 11.5,11.5 0 0 1 16,85.73 v -58.1 a 11.43,11.43 0 0 1 11.36,-11.5"
       class="cls-36"
       inkscape:connector-curvature="0"
       style="fill:#486d88" />
    <path
       id="path5194"
       transform="translate(-7.17,-7.33)"
       d="M 85.5,16.22 A 11.48,11.48 0 0 1 97,27.7 v 0 58 A 11.48,11.48 0 0 1 85.5,97.13 h -58 A 11.48,11.48 0 0 1 16.06,85.66 v -58 A 11.4,11.4 0 0 1 27.39,16.22"
       class="cls-37"
       inkscape:connector-curvature="0"
       style="fill:#486e88" />
    <path
       id="path5196"
       transform="translate(-7.17,-7.33)"
       d="m 85.43,16.32 a 11.45,11.45 0 0 1 11.45,11.45 v 0 57.82 A 11.45,11.45 0 0 1 85.43,97 H 27.61 A 11.45,11.45 0 0 1 16.16,85.59 V 27.77 a 11.38,11.38 0 0 1 11.3,-11.45"
       class="cls-37"
       inkscape:connector-curvature="0"
       style="fill:#486e88" />
    <path
       id="path5198"
       transform="translate(-7.17,-7.33)"
       d="m 85.36,16.42 a 11.42,11.42 0 0 1 11.42,11.42 v 0 57.68 A 11.42,11.42 0 0 1 85.36,96.94 H 27.68 A 11.42,11.42 0 0 1 16.25,85.52 V 27.84 A 11.35,11.35 0 0 1 27.53,16.42"
       class="cls-38"
       inkscape:connector-curvature="0"
       style="fill:#486e89" />
    <path
       id="path5200"
       transform="translate(-7.17,-7.33)"
       d="m 85.29,16.51 a 11.39,11.39 0 0 1 11.39,11.4 v 0 57.54 A 11.39,11.39 0 0 1 85.29,96.84 H 27.75 A 11.39,11.39 0 0 1 16.35,85.45 V 27.91 A 11.32,11.32 0 0 1 27.6,16.51"
       class="cls-38"
       inkscape:connector-curvature="0"
       style="fill:#486e89" />
    <path
       id="path5202"
       transform="translate(-7.17,-7.33)"
       d="M 85.22,16.61 A 11.37,11.37 0 0 1 96.58,28 v 0 57.4 A 11.37,11.37 0 0 1 85.22,96.74 H 27.82 A 11.37,11.37 0 0 1 16.45,85.38 V 28 A 11.29,11.29 0 0 1 27.67,16.61"
       class="cls-38"
       inkscape:connector-curvature="0"
       style="fill:#486e89" />
    <path
       id="path5204"
       transform="translate(-7.17,-7.33)"
       d="M 85.15,16.71 A 11.34,11.34 0 0 1 96.49,28 v 0 57.31 A 11.34,11.34 0 0 1 85.15,96.65 H 27.89 A 11.34,11.34 0 0 1 16.55,85.31 V 28 A 11.27,11.27 0 0 1 27.74,16.71"
       class="cls-39"
       inkscape:connector-curvature="0"
       style="fill:#496e8a" />
    <path
       id="path5206"
       transform="translate(-7.17,-7.33)"
       d="m 85.08,16.81 a 11.31,11.31 0 0 1 11.31,11.31 v 0 57.12 A 11.31,11.31 0 0 1 85.08,96.55 H 28 A 11.31,11.31 0 0 1 16.65,85.24 V 28.12 A 11.24,11.24 0 0 1 27.81,16.81"
       class="cls-39"
       inkscape:connector-curvature="0"
       style="fill:#496e8a" />
    <path
       id="path5208"
       transform="translate(-7.17,-7.33)"
       d="m 85,16.9 a 11.28,11.28 0 0 1 11.29,11.29 v 0 57 A 11.28,11.28 0 0 1 85,96.45 H 28 A 11.28,11.28 0 0 1 16.74,85.17 v -57 A 11.21,11.21 0 0 1 27.88,16.9"
       class="cls-40"
       inkscape:connector-curvature="0"
       style="fill:#496f8a" />
    <path
       id="path5210"
       transform="translate(-7.17,-7.33)"
       d="m 84.94,17 a 11.26,11.26 0 0 1 11.25,11.26 v 0 56.84 A 11.26,11.26 0 0 1 84.94,96.35 H 28.1 A 11.26,11.26 0 0 1 16.84,85.1 V 28.26 A 11.18,11.18 0 0 1 28,17"
       class="cls-40"
       inkscape:connector-curvature="0"
       style="fill:#496f8a" />
    <path
       id="path5212"
       transform="translate(-7.17,-7.33)"
       d="m 84.87,17.1 a 11.23,11.23 0 0 1 11.22,11.23 v 0 V 85 A 11.23,11.23 0 0 1 84.87,96.25 H 28.17 A 11.23,11.23 0 0 1 16.94,85 V 28.33 A 11.16,11.16 0 0 1 28,17.1"
       class="cls-41"
       inkscape:connector-curvature="0"
       style="fill:#496f8b" />
    <path
       id="path5214"
       transform="translate(-7.17,-7.33)"
       d="M 84.8,17.2 A 11.2,11.2 0 0 1 96,28.4 v 0 V 85 A 11.2,11.2 0 0 1 84.8,96.2 H 28.24 A 11.2,11.2 0 0 1 17,85 V 28.4 A 11.13,11.13 0 0 1 28.09,17.2"
       class="cls-41"
       inkscape:connector-curvature="0"
       style="fill:#496f8b" />
    <path
       id="path5216"
       transform="translate(-7.17,-7.33)"
       d="m 84.75,17.26 a 11.18,11.18 0 0 1 11.19,11.18 v 0 56.47 A 11.18,11.18 0 0 1 84.78,96.09 H 28.4 A 11.19,11.19 0 0 1 17.19,85 C 17.14,85 17.1,70.92 17.1,70.87 v -42.4 a 11.25,11.25 0 0 1 0.43,-3.17 11.11,11.11 0 0 1 10.61,-8 h 0.47"
       class="cls-41"
       inkscape:connector-curvature="0"
       style="fill:#496f8b" />
    <path
       id="path5218"
       transform="translate(-7.17,-7.33)"
       d="m 84.71,17.31 a 11.17,11.17 0 0 1 11.17,11.17 v 0 56.39 A 11.16,11.16 0 0 1 84.77,96 H 28.56 A 11.18,11.18 0 0 1 17.34,85 C 17.24,85 17.15,71 17.15,70.92 V 28.55 a 11.38,11.38 0 0 1 0.43,-3.17 11.09,11.09 0 0 1 10.6,-8.06 h 0.95"
       class="cls-41"
       inkscape:connector-curvature="0"
       style="fill:#496f8b" />
    <path
       id="path5220"
       transform="translate(-7.17,-7.33)"
       d="m 84.67,17.37 a 11.15,11.15 0 0 1 11.15,11.15 v 0 56.3 A 11.14,11.14 0 0 1 84.75,96 h -56 A 11.18,11.18 0 0 1 17.5,85.1 c -0.16,0 -0.28,-13.88 -0.28,-14 V 28.62 a 11.5,11.5 0 0 1 0.42,-3.17 11.07,11.07 0 0 1 10.59,-8.07 h 1.42"
       class="cls-42"
       inkscape:connector-curvature="0"
       style="fill:#49708b" />
    <path
       id="path5222"
       transform="translate(-7.17,-7.33)"
       d="m 84.62,17.43 a 11.14,11.14 0 0 1 11.14,11.13 v 0 56.22 a 11.11,11.11 0 0 1 -11,11.12 c 0,0 -4.08,0 -4.12,0 H 28.88 c -5.94,0 -11.23,-4.82 -11.23,-10.76 -0.21,0 -0.37,-13.78 -0.38,-14 V 28.7 a 11.63,11.63 0 0 1 0.42,-3.18 11,11 0 0 1 10.57,-8.09 h 1.89"
       class="cls-42"
       inkscape:connector-curvature="0"
       style="fill:#49708b" />
    <path
       id="path5224"
       transform="translate(-7.17,-7.33)"
       d="M 84.58,17.49 A 11.12,11.12 0 0 1 95.7,28.61 v 0 56.12 a 11.09,11.09 0 0 1 -11,11.09 c 0,0 -4.06,0 -4.11,0 H 29 c -5.88,0 -11.24,-4.77 -11.24,-10.65 -0.26,0 -0.47,-13.68 -0.47,-13.94 V 28.77 a 11.76,11.76 0 0 1 0.41,-3.18 11,11 0 0 1 10.56,-8.1 h 2.37"
       class="cls-42"
       inkscape:connector-curvature="0"
       style="fill:#49708b" />
    <path
       id="path5226"
       transform="translate(-7.17,-7.33)"
       d="m 84.54,17.55 a 11.1,11.1 0 0 1 11.1,11.1 v 0 56 A 11.07,11.07 0 0 1 84.7,95.76 c -0.05,0 -4,0 -4.09,0 H 29.21 C 23.39,95.79 18,91.07 18,85.25 c -0.31,0 -0.56,-13.58 -0.56,-13.9 v -42.5 a 11.9,11.9 0 0 1 0.41,-3.18 11,11 0 0 1 10.55,-8.12 h 2.8"
       class="cls-43"
       inkscape:connector-curvature="0"
       style="fill:#49708c" />
    <path
       id="path5228"
       transform="translate(-7.17,-7.33)"
       d="m 84.49,17.61 a 11.09,11.09 0 0 1 11.09,11.08 v 0 56 a 11.05,11.05 0 0 1 -10.89,11 c -0.06,0 -4,0 -4.08,0 H 29.37 c -5.76,0 -11.25,-4.67 -11.25,-10.42 -0.36,0 -0.66,-13.49 -0.66,-13.85 v -42.5 a 12,12 0 0 1 0.41,-3.18 11,11 0 0 1 10.54,-8.13 h 3.31"
       class="cls-43"
       inkscape:connector-curvature="0"
       style="fill:#49708c" />
    <path
       id="path5230"
       transform="translate(-7.17,-7.33)"
       d="m 84.45,17.66 a 11.07,11.07 0 0 1 11.06,11.07 v 0 55.87 a 11,11 0 0 1 -10.84,11 c -0.07,0 -4,0 -4.07,0 H 29.53 c -5.7,0 -11.26,-4.62 -11.26,-10.31 -0.41,0 -0.75,-13.39 -0.75,-13.8 V 29 a 12.18,12.18 0 0 1 0.4,-3.18 11,11 0 0 1 10.53,-8.15 h 3.79"
       class="cls-43"
       inkscape:connector-curvature="0"
       style="fill:#49708c" />
    <path
       id="path5232"
       transform="translate(-7.17,-7.33)"
       d="m 84.41,17.72 a 11.05,11.05 0 0 1 11,11 v 0 55.83 a 11,11 0 0 1 -10.8,11 c -0.08,0 -4,0 -4.05,0 H 29.69 c -5.63,0 -11.27,-4.57 -11.27,-10.2 -0.47,0 -0.84,-13.29 -0.85,-13.76 V 29.07 a 12.32,12.32 0 0 1 0.4,-3.19 10.94,10.94 0 0 1 10.53,-8.16 h 4.26"
       class="cls-44"
       inkscape:connector-curvature="0"
       style="fill:#49718c" />
    <path
       id="path5234"
       transform="translate(-7.17,-7.33)"
       d="m 84.36,17.78 a 11,11 0 0 1 11,11 v 0 55.73 a 11,11 0 0 1 -10.75,11 c -0.09,0 -3.94,0 -4,0 H 29.86 c -5.57,0 -11.28,-4.52 -11.28,-10.09 -0.52,0 -0.94,-13.19 -0.94,-13.71 V 29.15 A 12.47,12.47 0 0 1 18,26 10.92,10.92 0 0 1 28.51,17.82 h 4.73"
       class="cls-44"
       inkscape:connector-curvature="0"
       style="fill:#49718c" />
    <path
       id="path5236"
       transform="translate(-7.17,-7.33)"
       d="m 84.32,17.84 a 11,11 0 0 1 11,11 v 0 55.62 a 11,11 0 0 1 -10.71,11 c -0.1,0 -3.92,0 -4,0 H 30 c -5.51,0 -11.29,-4.47 -11.29,-10 -0.57,0 -1,-13.09 -1,-13.66 V 29.22 A 12.62,12.62 0 0 1 18.09,26 10.9,10.9 0 0 1 28.59,17.81 h 5.21"
       class="cls-44"
       inkscape:connector-curvature="0"
       style="fill:#49718c" />
    <path
       id="path5238"
       transform="translate(-7.17,-7.33)"
       d="m 84.28,17.9 a 11,11 0 0 1 11,11 v 0 55.52 A 11,11 0 0 1 84.61,95.36 c -0.11,0 -3.9,0.05 -4,0.05 H 30.18 c -5.45,0 -11.29,-4.42 -11.29,-9.87 -0.62,0 -1.12,-13 -1.13,-13.62 V 29.3 a 12.78,12.78 0 0 1 0.38,-3.19 10.87,10.87 0 0 1 10.49,-8.21 h 5.68"
       class="cls-44"
       inkscape:connector-curvature="0"
       style="fill:#49718c" />
    <path
       id="path5240"
       transform="translate(-7.17,-7.33)"
       d="m 84.23,18 a 11,11 0 0 1 11,11 v 0 55.37 A 10.93,10.93 0 0 1 84.6,95.29 c -0.12,0 -3.87,0.06 -4,0.06 H 30.34 C 25,95.35 19,91 19,85.59 c -0.67,0 -1.22,-12.9 -1.22,-13.57 V 29.37 A 12.93,12.93 0 0 1 18.16,26.18 10.85,10.85 0 0 1 28.67,18 h 6.15"
       class="cls-44"
       inkscape:connector-curvature="0"
       style="fill:#49718c" />
    <path
       id="path5242"
       transform="translate(-7.17,-7.33)"
       d="m 84.19,18 a 11,11 0 0 1 11,11 v 0 55.33 a 10.91,10.91 0 0 1 -10.57,10.9 c -0.12,0 -3.85,0.06 -4,0.06 H 30.51 c -5.33,0 -11.31,-4.32 -11.31,-9.65 -0.73,0 -1.31,-12.8 -1.32,-13.53 V 29.45 A 13.09,13.09 0 0 1 18.26,26.26 10.83,10.83 0 0 1 28.72,18 h 6.63"
       class="cls-44"
       inkscape:connector-curvature="0"
       style="fill:#49718c" />
    <path
       id="path5244"
       transform="translate(-7.17,-7.33)"
       d="M 84.15,18.07 A 11,11 0 0 1 95.09,29 v 0 55.28 A 10.89,10.89 0 0 1 84.57,95.16 c -0.13,0 -3.83,0.07 -4,0.07 h -49.9 c -5.27,0 -11.32,-4.27 -11.32,-9.54 -0.78,0 -1.41,-12.7 -1.41,-13.48 V 29.52 a 13.26,13.26 0 0 1 0.37,-3.2 10.81,10.81 0 0 1 10.45,-8.25 h 7.1"
       class="cls-45"
       inkscape:connector-curvature="0"
       style="fill:#49728c" />
    <path
       id="path5246"
       transform="translate(-7.17,-7.33)"
       d="M 84.1,18.13 A 10.94,10.94 0 0 1 95,29.06 v 0 55.18 A 10.87,10.87 0 0 1 84.55,95.1 c -0.14,0 -3.8,0.07 -4,0.07 H 30.83 c -5.21,0 -11.32,-4.22 -11.32,-9.43 -0.83,0 -1.5,-12.6 -1.5,-13.43 V 29.59 a 13.43,13.43 0 0 1 0.37,-3.2 10.79,10.79 0 0 1 10.44,-8.26 h 7.57"
       class="cls-46"
       inkscape:connector-curvature="0"
       style="fill:#49728d" />
    <path
       id="path5248"
       transform="translate(-7.17,-7.33)"
       d="M 84.06,18.19 A 10.92,10.92 0 0 1 95,29.11 v 0 55.08 A 10.85,10.85 0 0 1 84.54,95 c -0.15,0 -3.78,0.07 -3.95,0.07 H 31 c -5.14,0 -11.33,-4.17 -11.33,-9.31 -0.88,0 -1.59,-12.51 -1.6,-13.39 v -42.7 a 13.6,13.6 0 0 1 0.36,-3.2 10.77,10.77 0 0 1 10.43,-8.28 h 8"
       class="cls-47"
       inkscape:connector-curvature="0"
       style="fill:#4a728d" />
    <path
       id="path5250"
       transform="translate(-7.17,-7.33)"
       d="m 84,18.25 a 10.91,10.91 0 0 1 10.9,10.9 v 0 55 A 10.82,10.82 0 0 1 84.52,95 c -0.16,0.05 -3.76,0.08 -3.93,0.08 H 31.15 c -5.08,0 -11.34,-4.12 -11.34,-9.2 -0.93,0 -1.69,-12.41 -1.69,-13.34 v -42.8 a 13.78,13.78 0 0 1 0.36,-3.2 10.75,10.75 0 0 1 10.42,-8.29 h 8.52"
       class="cls-47"
       inkscape:connector-curvature="0"
       style="fill:#4a728d" />
    <path
       id="path5252"
       transform="translate(-7.17,-7.33)"
       d="m 84,18.31 a 10.89,10.89 0 0 1 10.85,10.88 v 0 54.91 A 10.8,10.8 0 0 1 84.51,94.9 c -0.17,0.05 -3.73,0.08 -3.92,0.08 H 31.32 C 26.29,95 20,90.91 20,85.89 19,85.89 18.22,73.58 18.21,72.6 V 29.82 a 14,14 0 0 1 0.35,-3.2 10.73,10.73 0 0 1 10.41,-8.31 h 9"
       class="cls-47"
       inkscape:connector-curvature="0"
       style="fill:#4a728d" />
    <path
       id="path5254"
       transform="translate(-7.17,-7.33)"
       d="m 83.93,18.37 a 10.88,10.88 0 0 1 10.86,10.86 v 0 54.83 a 10.78,10.78 0 0 1 -10.3,10.78 c -0.18,0.06 -3.71,0.09 -3.91,0.09 h -49.1 c -5,0 -11.36,-4 -11.36,-9 -1,0 -1.87,-12.21 -1.88,-13.25 V 29.89 A 14.15,14.15 0 0 1 18.59,26.68 10.71,10.71 0 0 1 29,18.37 h 9.47"
       class="cls-48"
       inkscape:connector-curvature="0"
       style="fill:#4a738d" />
    <path
       id="path5256"
       transform="translate(-7.17,-7.33)"
       d="m 83.89,18.43 a 10.86,10.86 0 0 1 10.84,10.84 v 0 V 84 A 10.76,10.76 0 0 1 84.47,94.76 c -0.19,0.06 -3.69,0.09 -3.89,0.09 H 31.64 c -4.9,0 -11.36,-4 -11.36,-8.87 -1.09,0 -2,-12.11 -2,-13.2 V 30 A 14.34,14.34 0 0 1 18.63,26.79 10.69,10.69 0 0 1 29,18.43 h 10"
       class="cls-48"
       inkscape:connector-curvature="0"
       style="fill:#4a738d" />
    <path
       id="path5258"
       transform="translate(-7.17,-7.33)"
       d="m 83.84,18.48 a 10.84,10.84 0 0 1 10.83,10.83 v 0 V 84 A 10.74,10.74 0 0 1 84.46,94.7 c -0.19,0.06 -3.67,0.1 -3.88,0.1 H 31.8 C 27,94.8 20.43,90.87 20.43,86 19.29,86 18.37,74 18.36,72.84 V 30 a 14.54,14.54 0 0 1 0.34,-3.21 10.67,10.67 0 0 1 10.38,-8.35 h 10.41"
       class="cls-48"
       inkscape:connector-curvature="0"
       style="fill:#4a738d" />
    <path
       id="path5260"
       transform="translate(-7.17,-7.33)"
       d="m 83.8,18.54 a 10.83,10.83 0 0 1 10.81,10.82 v 0 54.56 A 10.72,10.72 0 0 1 84.44,94.63 c -0.2,0.06 -3.64,0.1 -3.87,0.1 H 32 c -4.78,0 -11.38,-3.87 -11.38,-8.65 -1.19,0 -2.16,-11.92 -2.16,-13.11 V 30.12 A 14.74,14.74 0 0 1 18.8,26.91 10.66,10.66 0 0 1 29.16,18.54 H 40"
       class="cls-48"
       inkscape:connector-curvature="0"
       style="fill:#4a738d" />
    <path
       id="path5262"
       transform="translate(-7.17,-7.33)"
       d="m 83.76,18.6 a 10.81,10.81 0 0 1 10.8,10.8 v 0 54.48 A 10.71,10.71 0 0 1 84.43,94.57 c -0.21,0.07 -3.62,0.1 -3.85,0.11 H 32.13 c -4.72,0 -11.39,-3.82 -11.39,-8.54 -1.24,0 -2.25,-11.82 -2.26,-13.06 V 30.19 A 15,15 0 0 1 18.81,27 10.64,10.64 0 0 1 29.17,18.6 h 11.36"
       class="cls-48"
       inkscape:connector-curvature="0"
       style="fill:#4a738d" />
    <path
       id="path5264"
       transform="translate(-7.17,-7.33)"
       d="m 83.71,18.66 a 10.79,10.79 0 0 1 10.78,10.78 v 0 54.39 A 10.69,10.69 0 0 1 84.41,94.5 c -0.22,0.07 -3.6,0.11 -3.84,0.11 H 32.29 c -4.65,0 -11.39,-3.77 -11.39,-8.43 -1.3,0 -2.34,-11.72 -2.35,-13 V 30.27 a 15.16,15.16 0 0 1 0.33,-3.21 10.62,10.62 0 0 1 10.34,-8.39 H 41"
       class="cls-48"
       inkscape:connector-curvature="0"
       style="fill:#4a738d" />
    <path
       id="path5266"
       transform="translate(-7.17,-7.33)"
       d="m 83.67,18.72 a 10.78,10.78 0 0 1 10.76,10.76 v 0 54.3 a 10.67,10.67 0 0 1 -10,10.65 C 84.2,94.5 80.86,94.54 80.6,94.54 H 32.45 c -4.59,0 -11.4,-3.72 -11.4,-8.32 -1.35,0 -2.44,-11.62 -2.45,-13 V 30.34 a 15.38,15.38 0 0 1 0.32,-3.22 10.6,10.6 0 0 1 10.33,-8.41 h 12.3"
       class="cls-49"
       inkscape:connector-curvature="0"
       style="fill:#4a748e" />
    <path
       id="path5268"
       transform="translate(-7.17,-7.33)"
       d="m 83.63,18.78 a 10.76,10.76 0 0 1 10.74,10.74 v 0 54.22 a 10.65,10.65 0 0 1 -10,10.63 c -0.24,0.08 -3.55,0.12 -3.81,0.12 h -48 c -4.53,0 -11.41,-3.67 -11.41,-8.21 -1.4,0 -2.53,-11.53 -2.54,-12.92 V 30.42 A 15.61,15.61 0 0 1 19,27.2 10.58,10.58 0 0 1 29.3,18.78 h 12.78"
       class="cls-49"
       inkscape:connector-curvature="0"
       style="fill:#4a748e" />
    <path
       id="path5270"
       transform="translate(-7.17,-7.33)"
       d="m 83.58,18.83 a 10.75,10.75 0 0 1 10.73,10.73 v 0 54.14 a 10.63,10.63 0 0 1 -9.94,10.6 c -0.25,0.08 -3.53,0.12 -3.8,0.12 h -47.8 c -4.47,0 -11.42,-3.62 -11.42,-8.1 -1.45,0 -2.62,-11.43 -2.63,-12.88 v -43 A 15.84,15.84 0 0 1 19,27.27 10.56,10.56 0 0 1 29.31,18.83 H 42.6"
       class="cls-49"
       inkscape:connector-curvature="0"
       style="fill:#4a748e" />
    <path
       id="path5272"
       transform="translate(-7.17,-7.33)"
       d="m 83.54,18.89 a 10.73,10.73 0 0 1 10.71,10.72 v 0 54 a 10.61,10.61 0 0 1 -9.9,10.58 c -0.26,0.08 -3.5,0.13 -3.79,0.13 H 32.94 c -4.41,0 -11.43,-3.57 -11.43,-8 -1.5,0 -2.72,-11.33 -2.73,-12.83 v -43 a 16.07,16.07 0 0 1 0.31,-3.22 10.54,10.54 0 0 1 10.3,-8.45 h 13.73"
       class="cls-49"
       inkscape:connector-curvature="0"
       style="fill:#4a748e" />
    <path
       id="path5274"
       transform="translate(-7.17,-7.33)"
       d="m 83.5,19 a 10.71,10.71 0 0 1 10.7,10.7 v 0 54 a 10.59,10.59 0 0 1 -9.85,10.56 c -0.27,0.08 -3.48,0.13 -3.77,0.13 H 33.1 c -4.35,0 -11.43,-3.52 -11.43,-7.87 -1.55,0 -2.81,-11.23 -2.82,-12.79 v -43 A 16.32,16.32 0 0 1 19.16,27.51 10.52,10.52 0 0 1 29.44,19 h 14.2"
       class="cls-49"
       inkscape:connector-curvature="0"
       style="fill:#4a748e" />
    <path
       id="path5276"
       transform="translate(-7.17,-7.33)"
       d="m 83.45,19 a 10.7,10.7 0 0 1 10.68,10.69 v 0 53.87 A 10.57,10.57 0 0 1 84.32,94.1 c -0.27,0.09 -3.46,0.13 -3.76,0.14 h -47.3 c -4.29,0 -11.44,-3.48 -11.44,-7.76 -1.61,0 -2.91,-11.13 -2.92,-12.74 v -43 A 16.57,16.57 0 0 1 19.2,27.51 10.51,10.51 0 0 1 29.48,19 h 14.67"
       class="cls-50"
       inkscape:connector-curvature="0"
       style="fill:#4a758e" />
    <path
       id="path5278"
       transform="translate(-7.17,-7.33)"
       d="m 83.41,19.07 a 10.68,10.68 0 0 1 10.66,10.66 v 0 53.78 A 10.55,10.55 0 0 1 84.31,94 c -0.28,0.09 -3.43,0.14 -3.75,0.14 H 33.42 C 29.2,94.18 22,90.75 22,86.52 c -1.66,0 -3,-11 -3,-12.69 v -43 a 16.83,16.83 0 0 1 0.3,-3.23 10.49,10.49 0 0 1 10.26,-8.5 h 15.11"
       class="cls-50"
       inkscape:connector-curvature="0"
       style="fill:#4a758e" />
    <path
       id="path5280"
       transform="translate(-7.17,-7.33)"
       d="M 83.37,19.13 A 10.66,10.66 0 0 1 94,29.77 v 0 53.7 A 10.53,10.53 0 0 1 84.29,94 c -0.29,0.09 -3.41,0.14 -3.73,0.15 h -47 C 29.4,94.15 22.1,90.77 22.1,86.61 20.39,86.61 19.01,75.67 19,73.96 V 30.87 a 17.09,17.09 0 0 1 0.29,-3.23 10.47,10.47 0 0 1 10.25,-8.51 h 15.65"
       class="cls-50"
       inkscape:connector-curvature="0"
       style="fill:#4a758e" />
    <path
       id="path5282"
       transform="translate(-7.17,-7.33)"
       d="m 83.32,19.19 a 10.65,10.65 0 0 1 10.63,10.62 v 0 53.61 A 10.51,10.51 0 0 1 84.28,93.9 c -0.3,0.1 -3.39,0.15 -3.72,0.15 H 33.75 c -4.1,0 -11.46,-3.33 -11.46,-7.43 -1.76,0 -3.19,-10.84 -3.2,-12.6 V 30.94 a 17.37,17.37 0 0 1 0.29,-3.23 10.45,10.45 0 0 1 10.24,-8.53 h 16.09"
       class="cls-50"
       inkscape:connector-curvature="0"
       style="fill:#4a758e" />
    <path
       id="path5284"
       transform="translate(-7.17,-7.33)"
       d="m 83.28,19.24 a 10.63,10.63 0 0 1 10.61,10.62 v 0 53.52 a 10.49,10.49 0 0 1 -9.63,10.46 c -0.31,0.1 -3.37,0.15 -3.71,0.15 H 33.91 c -4,0 -11.47,-3.28 -11.47,-7.32 -1.81,0 -3.28,-10.74 -3.29,-12.55 V 31 a 17.65,17.65 0 0 1 0.29,-3.23 10.43,10.43 0 0 1 10.23,-8.54 h 16.55"
       class="cls-50"
       inkscape:connector-curvature="0"
       style="fill:#4a758e" />
    <path
       id="path5286"
       transform="translate(-7.17,-7.33)"
       d="m 83.24,19.3 a 10.62,10.62 0 0 1 10.59,10.6 v 0 53.43 a 10.47,10.47 0 0 1 -9.58,10.44 c -0.32,0.1 -3.34,0.16 -3.69,0.16 H 34.07 c -4,0 -11.48,-3.23 -11.48,-7.21 -1.87,0 -3.37,-10.64 -3.39,-12.51 V 31.09 A 17.94,17.94 0 0 1 19.48,27.86 10.42,10.42 0 0 1 29.7,19.3 h 17"
       class="cls-51"
       inkscape:connector-curvature="0"
       style="fill:#4a758f" />
    <path
       id="path5288"
       transform="translate(-7.17,-7.33)"
       d="m 83.19,19.36 a 10.6,10.6 0 0 1 10.58,10.58 v 0 53.35 A 10.46,10.46 0 0 1 84.23,93.7 c -0.33,0.1 -3.32,0.16 -3.68,0.16 H 34.23 c -3.92,0 -11.49,-3.18 -11.49,-7.1 -1.92,0 -3.47,-10.54 -3.48,-12.46 V 31.17 a 18.25,18.25 0 0 1 0.28,-3.24 10.4,10.4 0 0 1 10.21,-8.57 h 17.51"
       class="cls-52"
       inkscape:connector-curvature="0"
       style="fill:#4a768f" />
    <path
       id="path5290"
       transform="translate(-7.17,-7.33)"
       d="M 83.15,19.42 A 10.58,10.58 0 0 1 93.71,30 v 0 53.24 a 10.44,10.44 0 0 1 -9.5,10.39 c -0.34,0.11 -3.3,0.17 -3.67,0.17 H 34.39 c -3.86,0 -11.5,-3.13 -11.5,-7 -2,0 -3.56,-10.45 -3.57,-12.42 V 31.24 A 18.56,18.56 0 0 1 19.6,28 10.38,10.38 0 0 1 29.8,19.42 h 18"
       class="cls-52"
       inkscape:connector-curvature="0"
       style="fill:#4a768f" />
    <path
       id="path5292"
       transform="translate(-7.17,-7.33)"
       d="M 83.11,19.48 A 10.57,10.57 0 0 1 93.65,30 v 0 53.2 A 10.42,10.42 0 0 1 84.2,93.57 c -0.35,0.11 -3.27,0.17 -3.65,0.17 h -46 c -3.8,0 -11.5,-3.08 -11.5,-6.88 -2,0 -3.66,-10.35 -3.67,-12.37 V 31.32 a 18.88,18.88 0 0 1 0.27,-3.24 10.36,10.36 0 0 1 10.19,-8.6 H 48.3"
       class="cls-52"
       inkscape:connector-curvature="0"
       style="fill:#4a768f" />
    <path
       id="path5294"
       transform="translate(-7.17,-7.33)"
       d="m 83.06,19.54 a 10.55,10.55 0 0 1 10.53,10.52 v 0 53.09 A 10.4,10.4 0 0 1 84.18,93.5 c -0.35,0.11 -3.25,0.17 -3.64,0.18 H 34.72 c -3.74,0 -11.51,-3 -11.51,-6.76 -2.07,0 -3.75,-10.25 -3.76,-12.32 V 31.39 a 19.21,19.21 0 0 1 0.26,-3.24 10.35,10.35 0 0 1 10.18,-8.61 h 18.92"
       class="cls-52"
       inkscape:connector-curvature="0"
       style="fill:#4a768f" />
    <path
       id="path5296"
       transform="translate(-7.17,-7.33)"
       d="m 83,19.6 a 10.53,10.53 0 0 1 10.53,10.51 v 0 53 a 10.38,10.38 0 0 1 -9.36,10.33 c -0.36,0.11 -3.23,0.18 -3.63,0.18 H 34.88 c -3.67,0 -11.52,-3 -11.52,-6.65 -2.12,0 -3.84,-10.15 -3.86,-12.28 V 31.47 a 19.55,19.55 0 0 1 0.26,-3.24 10.33,10.33 0 0 1 10.17,-8.63 h 19.4"
       class="cls-52"
       inkscape:connector-curvature="0"
       style="fill:#4a768f" />
    <path
       id="path5298"
       transform="translate(-7.17,-7.33)"
       d="m 83,19.65 a 10.52,10.52 0 0 1 10.47,10.5 v 0 52.91 a 10.36,10.36 0 0 1 -9.32,10.31 c -0.37,0.12 -3.2,0.18 -3.61,0.18 H 35 c -3.61,0 -11.53,-2.93 -11.53,-6.54 -2.18,0 -3.94,-10.05 -4,-12.23 V 31.54 A 19.91,19.91 0 0 1 19.72,28.29 10.31,10.31 0 0 1 30,19.65 h 19.85"
       class="cls-52"
       inkscape:connector-curvature="0"
       style="fill:#4a768f" />
    <path
       id="path5300"
       transform="translate(-7.17,-7.33)"
       d="m 82.93,19.71 a 10.5,10.5 0 0 1 10.48,10.48 v 0 V 83 a 10.35,10.35 0 0 1 -9.27,10.29 c -0.38,0.12 -3.18,0.19 -3.6,0.19 H 35.2 c -3.55,0 -11.53,-2.88 -11.53,-6.43 -2.23,0 -4,-10 -4,-12.18 V 31.62 A 20.27,20.27 0 0 1 19.92,28.37 10.3,10.3 0 0 1 30,19.71 h 20.37"
       class="cls-53"
       inkscape:connector-curvature="0"
       style="fill:#4a778f" />
    <path
       id="path5302"
       transform="translate(-7.17,-7.33)"
       d="m 82.89,19.77 a 10.49,10.49 0 0 1 10.46,10.46 v 0 V 83 a 10.33,10.33 0 0 1 -9.23,10.27 35.1,35.1 0 0 1 -3.59,0.19 H 35.37 c -3.49,0 -11.54,-2.83 -11.54,-6.32 -2.28,0 -4.12,-9.86 -4.14,-12.14 V 31.69 a 20.65,20.65 0 0 1 0.25,-3.25 10.28,10.28 0 0 1 10.13,-8.67 h 20.82"
       class="cls-53"
       inkscape:connector-curvature="0"
       style="fill:#4a778f" />
    <path
       id="path5304"
       transform="translate(-7.17,-7.33)"
       d="m 82.85,19.83 a 10.47,10.47 0 0 1 10.44,10.44 v 0 52.66 a 10.31,10.31 0 0 1 -9.18,10.24 34.06,34.06 0 0 1 -3.57,0.2 h -45 C 32.1,93.37 24,90.59 24,87.16 21.67,87.16 19.78,77.4 19.77,75.07 V 31.77 A 21,21 0 0 1 20,28.51 10.26,10.26 0 0 1 30.12,19.82 H 51.4"
       class="cls-53"
       inkscape:connector-curvature="0"
       style="fill:#4a778f" />
    <path
       id="path5306"
       transform="translate(-7.17,-7.33)"
       d="m 82.8,19.89 a 10.45,10.45 0 0 1 10.43,10.42 v 0 52.57 A 10.29,10.29 0 0 1 84.09,93.1 33.07,33.07 0 0 1 80.53,93.3 H 35.69 c -3.37,0 -11.56,-2.73 -11.56,-6.1 -2.38,0 -4.31,-9.66 -4.33,-12 V 31.84 a 21.46,21.46 0 0 1 0.2,-3.25 10.25,10.25 0 0 1 10.11,-8.7 h 21.81"
       class="cls-54"
       inkscape:connector-curvature="0"
       style="fill:#4a7790" />
    <path
       id="path5308"
       transform="translate(-7.17,-7.33)"
       d="m 82.76,19.95 a 10.44,10.44 0 0 1 10.41,10.41 v 0 52.48 A 10.28,10.28 0 0 1 84.08,93 32.11,32.11 0 0 1 80.53,93.21 H 35.85 c -3.31,0 -11.57,-2.68 -11.57,-6 -2.44,0 -4.41,-9.56 -4.42,-12 V 31.92 a 21.88,21.88 0 0 1 0.23,-3.26 10.23,10.23 0 0 1 10.1,-8.71 h 22.25"
       class="cls-54"
       inkscape:connector-curvature="0"
       style="fill:#4a7790" />
    <path
       id="path5310"
       transform="translate(-7.17,-7.33)"
       d="m 82.71,20 a 10.42,10.42 0 0 1 10.4,10.4 v 0 52.4 a 10.26,10.26 0 0 1 -9,10.18 31.2,31.2 0 0 1 -3.53,0.21 H 36 c -3.25,0 -11.57,-2.63 -11.57,-5.88 -2.49,0 -4.5,-9.47 -4.51,-12 V 32 A 22.32,22.32 0 0 1 20.15,28.74 10.21,10.21 0 0 1 30.24,20 H 53"
       class="cls-55"
       inkscape:connector-curvature="0"
       style="fill:#4a7890" />
    <path
       id="path5312"
       transform="translate(-7.17,-7.33)"
       d="M 82.67,20.06 A 10.4,10.4 0 0 1 93,30.44 v 0 52.31 a 10.24,10.24 0 0 1 -9,10.16 30.33,30.33 0 0 1 -3.52,0.22 H 36.18 C 33,93.13 24.6,90.55 24.6,87.36 22.06,87.34 20,78 20,75.45 V 32.07 a 22.78,22.78 0 0 1 0.22,-3.26 10.2,10.2 0 0 1 10.08,-8.74 h 23.18"
       class="cls-55"
       inkscape:connector-curvature="0"
       style="fill:#4a7890" />
    <path
       id="path5314"
       transform="translate(-7.17,-7.33)"
       d="M 82.63,20.12 A 10.39,10.39 0 0 1 93,30.48 v 0 52.22 a 10.22,10.22 0 0 1 -9,10.14 29.5,29.5 0 0 1 -3.51,0.22 H 36.34 c -3.12,0 -11.59,-2.53 -11.59,-5.66 -2.59,0 -4.69,-9.27 -4.7,-11.86 v -43.4 a 23.25,23.25 0 0 1 0.22,-3.26 10.18,10.18 0 0 1 10.07,-8.76 H 54"
       class="cls-55"
       inkscape:connector-curvature="0"
       style="fill:#4a7890" />
    <path
       id="path5316"
       transform="translate(-7.17,-7.33)"
       d="m 82.58,20.18 a 10.37,10.37 0 0 1 10.35,10.34 v 0 52.14 A 10.21,10.21 0 0 1 84,92.78 28.7,28.7 0 0 1 80.5,93 h -44 c -3.06,0 -11.6,-2.48 -11.6,-5.54 -2.64,0 -4.78,-9.17 -4.8,-11.81 V 32.22 A 23.75,23.75 0 0 1 20.32,29 10.17,10.17 0 0 1 30.37,20.23 h 24.14"
       class="cls-56"
       inkscape:connector-curvature="0"
       style="fill:#4b7890" />
    <path
       id="path5318"
       transform="translate(-7.17,-7.33)"
       d="m 82.54,20.24 a 10.36,10.36 0 0 1 10.33,10.32 v 0 52 A 10.19,10.19 0 0 1 84,92.71 27.93,27.93 0 0 1 80.52,92.94 H 36.66 c -3,0 -11.6,-2.43 -11.6,-5.43 -2.69,0 -4.87,-9.07 -4.89,-11.77 V 32.29 a 24.26,24.26 0 0 1 0.21,-3.29 10.15,10.15 0 0 1 10,-8.79 H 55"
       class="cls-56"
       inkscape:connector-curvature="0"
       style="fill:#4b7890" />
    <path
       id="path5320"
       transform="translate(-7.17,-7.33)"
       d="m 82.5,20.3 a 10.34,10.34 0 0 1 10.31,10.31 v 0 52 A 10.17,10.17 0 0 1 84,92.64 27.19,27.19 0 0 1 80.53,92.87 H 36.82 c -2.94,0 -11.61,-2.38 -11.61,-5.32 -2.75,0 -5,-9 -5,-11.72 V 32.37 a 24.8,24.8 0 0 1 0.21,-3.27 10.13,10.13 0 0 1 10,-8.8 h 25.13"
       class="cls-56"
       inkscape:connector-curvature="0"
       style="fill:#4b7890" />
    <path
       id="path5322"
       transform="translate(-7.17,-7.33)"
       d="m 82.45,20.36 a 10.32,10.32 0 0 1 10.3,10.29 v 0 51.87 A 10.16,10.16 0 0 1 84,92.58 26.48,26.48 0 0 1 80.54,92.82 H 37 c -2.88,0 -11.62,-2.33 -11.62,-5.21 -2.8,0 -5.06,-8.88 -5.08,-11.67 v -43.5 a 25.36,25.36 0 0 1 0.2,-3.27 10.12,10.12 0 0 1 10,-8.82 h 25.57"
       class="cls-57"
       inkscape:connector-curvature="0"
       style="fill:#4b7990" />
    <path
       id="path5324"
       transform="translate(-7.17,-7.33)"
       d="m 82.41,20.41 a 10.31,10.31 0 0 1 10.28,10.28 v 0 51.79 a 10.14,10.14 0 0 1 -8.73,10 25.79,25.79 0 0 1 -3.44,0.24 H 37.15 c -2.82,0 -11.63,-2.28 -11.63,-5.1 -2.85,0 -5.16,-8.78 -5.17,-11.63 V 32.52 a 25.94,25.94 0 0 1 0.2,-3.27 10.1,10.1 0 0 1 10,-8.83 h 26"
       class="cls-57"
       inkscape:connector-curvature="0"
       style="fill:#4b7990" />
    <path
       id="path5326"
       transform="translate(-7.17,-7.33)"
       d="m 82.37,20.47 a 10.29,10.29 0 0 1 10.26,10.26 v 0 51.7 a 10.12,10.12 0 0 1 -8.69,10 25.13,25.13 0 0 1 -3.43,0.25 h -43.2 c -2.76,0 -11.64,-2.23 -11.64,-5 -2.9,0 -5.25,-8.68 -5.27,-11.58 V 32.59 a 26.55,26.55 0 0 1 0.19,-3.27 10.09,10.09 0 0 1 10,-8.85 H 57.1"
       class="cls-58"
       inkscape:connector-curvature="0"
       style="fill:#4b7991" />
    <path
       id="path5328"
       transform="translate(-7.17,-7.33)"
       d="m 82.32,20.53 a 10.27,10.27 0 0 1 10.25,10.24 v 0 51.62 a 10.11,10.11 0 0 1 -8.64,10 24.5,24.5 0 0 1 -3.42,0.25 h -43 c -2.69,0 -11.64,-2.18 -11.64,-4.88 -3,0 -5.34,-8.58 -5.36,-11.54 V 32.66 a 27.19,27.19 0 0 1 0.19,-3.27 10.07,10.07 0 0 1 10,-8.86 h 27"
       class="cls-58"
       inkscape:connector-curvature="0"
       style="fill:#4b7991" />
    <path
       id="path5330"
       transform="translate(-7.17,-7.33)"
       d="M 82.28,20.59 A 10.26,10.26 0 0 1 92.5,30.81 v 0 51.53 a 10.09,10.09 0 0 1 -8.6,10 23.89,23.89 0 0 1 -3.4,0.26 H 37.63 C 35,92.57 26,90.43 26,87.8 23,87.8 20.56,79.32 20.54,76.31 V 32.74 a 27.86,27.86 0 0 1 0.19,-3.28 10.06,10.06 0 0 1 10,-8.87 h 27.41"
       class="cls-58"
       inkscape:connector-curvature="0"
       style="fill:#4b7991" />
    <path
       id="path5332"
       transform="translate(-7.17,-7.33)"
       d="m 82.24,20.65 a 10.24,10.24 0 0 1 10.2,10.21 v 0 51.44 a 10.08,10.08 0 0 1 -8.55,9.95 23.3,23.3 0 0 1 -3.39,0.26 H 37.8 c -2.57,0 -11.66,-2.09 -11.66,-4.66 -3.06,0 -5.53,-8.39 -5.55,-11.44 v -43.6 a 28.56,28.56 0 0 1 0.18,-3.28 10,10 0 0 1 10,-8.89 h 27.89"
       class="cls-59"
       inkscape:connector-curvature="0"
       style="fill:#4b7a91" />
    <path
       id="path5334"
       transform="translate(-7.17,-7.33)"
       d="M 82.19,20.71 A 10.23,10.23 0 0 1 92.38,30.9 v 0 51.35 a 10.06,10.06 0 0 1 -8.51,9.93 22.73,22.73 0 0 1 -3.38,0.26 H 38 c -2.51,0 -11.67,-2 -11.67,-4.55 -3.11,0 -5.62,-8.29 -5.64,-11.4 v -43.6 a 29.29,29.29 0 0 1 0.18,-3.28 10,10 0 0 1 10,-8.9 h 28.4"
       class="cls-59"
       inkscape:connector-curvature="0"
       style="fill:#4b7a91" />
    <path
       id="path5336"
       transform="translate(-7.17,-7.33)"
       d="m 82.15,20.77 a 10.21,10.21 0 0 1 10.17,10.17 v 0 51.27 a 10,10 0 0 1 -8.46,9.9 22.18,22.18 0 0 1 -3.36,0.27 H 38.12 c -2.45,0 -11.67,-2 -11.67,-4.44 -3.16,0 -5.72,-8.19 -5.74,-11.35 V 33 a 30.06,30.06 0 0 1 0.17,-3.28 10,10 0 0 1 9.94,-8.92 h 28.87"
       class="cls-59"
       inkscape:connector-curvature="0"
       style="fill:#4b7a91" />
    <path
       id="path5338"
       transform="translate(-7.17,-7.33)"
       d="M 82.11,20.82 A 10.19,10.19 0 0 1 92.26,31 v 0 51.16 A 10,10 0 0 1 83.85,92 21.64,21.64 0 0 1 80.5,92.27 H 38.28 c -2.39,0 -11.68,-1.94 -11.68,-4.32 -3.21,0 -5.81,-8.09 -5.83,-11.3 V 33 a 30.87,30.87 0 0 1 0.17,-3.28 10,10 0 0 1 9.93,-8.93 h 29.34"
       class="cls-59"
       inkscape:connector-curvature="0"
       style="fill:#4b7a91" />
    <path
       id="path5340"
       transform="translate(-7.17,-7.33)"
       d="M 82.06,20.88 A 10.18,10.18 0 0 1 92.2,31 v 0 51.1 a 10,10 0 0 1 -8.37,9.9 21.13,21.13 0 0 1 -3.34,0.28 h -42 c -2.33,0 -11.69,-1.89 -11.69,-4.21 -3.26,0 -5.91,-8 -5.93,-11.26 V 33.11 A 31.72,31.72 0 0 1 21,29.83 10,10 0 0 1 30.92,20.88 h 29.81"
       class="cls-59"
       inkscape:connector-curvature="0"
       style="fill:#4b7a91" />
    <path
       id="path5342"
       transform="translate(-7.17,-7.33)"
       d="m 82,20.94 a 10.16,10.16 0 0 1 10.14,10.12 v 0 51 a 10,10 0 0 1 -8.33,9.84 20.63,20.63 0 0 1 -3.32,0.28 H 38.61 c -2.27,0 -11.7,-1.84 -11.7,-4.1 -3.32,0 -6,-7.9 -6,-11.21 V 33.19 A 32.62,32.62 0 0 1 21,29.9 a 10,10 0 0 1 9.91,-9 h 30.34"
       class="cls-59"
       inkscape:connector-curvature="0"
       style="fill:#4b7a91" />
    <path
       id="path5344"
       transform="translate(-7.17,-7.33)"
       d="m 82,21 a 10.14,10.14 0 0 1 10.08,10.11 v 0 V 82 a 10,10 0 0 1 -8.28,9.82 20.15,20.15 0 0 1 -3.31,0.29 H 38.77 c -2.2,0 -11.71,-1.79 -11.71,-4 -3.37,0 -6.09,-7.8 -6.11,-11.17 V 33.26 c 0,-0.39 0.05,-2.93 0.16,-3.29 A 10,10 0 0 1 31,21 h 30.77"
       class="cls-60"
       inkscape:connector-curvature="0"
       style="fill:#4b7b91" />
    <path
       id="path5346"
       transform="translate(-7.17,-7.33)"
       d="M 81.93,21.06 A 10.13,10.13 0 0 1 92,31.15 v 0 V 82 a 10,10 0 0 1 -8.24,9.8 19.69,19.69 0 0 1 -3.3,0.29 H 38.93 c -2.14,0 -11.71,-1.74 -11.71,-3.88 -3.42,0 -6.19,-7.7 -6.21,-11.12 V 33.34 c 0,-0.38 0.05,-2.94 0.15,-3.29 a 9.94,9.94 0 0 1 9.89,-9 h 31.23"
       class="cls-61"
       inkscape:connector-curvature="0"
       style="fill:#4b7b92" />
    <path
       id="path5348"
       transform="translate(-7.17,-7.33)"
       d="M 81.89,21.12 A 10.11,10.11 0 0 1 92,31.19 v 0 50.75 a 10,10 0 0 1 -8.19,9.78 19.24,19.24 0 0 1 -3.28,0.3 H 39.09 C 37,92 27.37,90.32 27.37,88.24 c -3.47,0 -6.28,-7.6 -6.3,-11.07 V 33.41 c 0,-0.37 0,-3 0.15,-3.29 a 9.93,9.93 0 0 1 9.88,-9 h 31.7"
       class="cls-61"
       inkscape:connector-curvature="0"
       style="fill:#4b7b92" />
    <path
       id="path5350"
       transform="translate(-7.17,-7.33)"
       d="M 81.85,21.17 A 10.1,10.1 0 0 1 91.9,31.23 v 0 50.66 a 9.94,9.94 0 0 1 -8.15,9.76 18.8,18.8 0 0 1 -3.27,0.3 H 39.25 c -2,0 -11.73,-1.64 -11.73,-3.66 -3.52,0 -6.37,-7.5 -6.4,-11 v -43.8 c 0,-0.36 0,-3 0.14,-3.29 a 9.91,9.91 0 0 1 9.87,-9 h 32.19"
       class="cls-61"
       inkscape:connector-curvature="0"
       style="fill:#4b7b92" />
    <path
       id="path5352"
       transform="translate(-7.17,-7.33)"
       d="m 81.8,21.23 a 10.08,10.08 0 0 1 10,10 v 0 50.62 a 9.92,9.92 0 0 1 -8.1,9.73 18.38,18.38 0 0 1 -3.26,0.3 H 39.42 c -2,0 -11.74,-1.59 -11.74,-3.55 -3.58,0 -6.47,-7.41 -6.49,-11 V 33.56 c 0,-0.35 0,-3 0.14,-3.3 a 9.9,9.9 0 0 1 9.85,-9 h 32.66"
       class="cls-61"
       inkscape:connector-curvature="0"
       style="fill:#4b7b92" />
    <path
       id="path5354"
       transform="translate(-7.17,-7.33)"
       d="m 81.76,21.29 a 10.06,10.06 0 0 1 10,10 v 0 50.51 a 9.91,9.91 0 0 1 -8.06,9.71 18,18 0 0 1 -3.24,0.31 H 39.58 c -1.9,0 -11.74,-1.54 -11.74,-3.44 -3.63,0 -6.56,-7.31 -6.58,-10.93 V 33.64 c 0,-0.34 0,-3 0.13,-3.3 a 9.88,9.88 0 0 1 9.84,-9 h 33.13"
       class="cls-61"
       inkscape:connector-curvature="0"
       style="fill:#4b7b92" />
    <path
       id="path5356"
       transform="translate(-7.17,-7.33)"
       d="m 81.72,21.35 a 10,10 0 0 1 10,10 v 0 50.4 a 9.89,9.89 0 0 1 -8,9.69 17.57,17.57 0 0 1 -3.23,0.31 H 39.74 C 37.9,91.76 28,90.27 28,88.44 c -3.68,0 -6.66,-7.21 -6.68,-10.89 V 33.71 c 0,-0.33 0,-3 0.13,-3.3 a 9.87,9.87 0 0 1 9.83,-9.06 h 33.6"
       class="cls-62"
       inkscape:connector-curvature="0"
       style="fill:#4b7c92" />
    <path
       id="path5358"
       transform="translate(-7.17,-7.33)"
       d="m 81.67,21.41 a 10,10 0 0 1 10,10 v 0 50.3 a 9.88,9.88 0 0 1 -8,9.67 17.18,17.18 0 0 1 -3.22,0.32 H 39.9 c -1.78,0 -11.76,-1.44 -11.76,-3.22 -3.73,0 -6.75,-7.11 -6.77,-10.84 V 33.79 c 0,-0.32 0,-3 0.13,-3.3 a 9.86,9.86 0 0 1 9.82,-9.08 h 34.07"
       class="cls-62"
       inkscape:connector-curvature="0"
       style="fill:#4b7c92" />
    <path
       id="path5360"
       transform="translate(-7.17,-7.33)"
       d="m 81.63,21.47 a 10,10 0 0 1 10,10 v 0 50.2 a 9.87,9.87 0 0 1 -7.93,9.65 16.81,16.81 0 0 1 -3.2,0.32 H 40.07 c -1.71,0 -11.77,-1.39 -11.77,-3.1 -3.78,0 -6.84,-7 -6.87,-10.8 V 33.86 c 0,-0.3 0,-3 0.12,-3.3 a 9.84,9.84 0 0 1 9.81,-9.09 h 34.55"
       class="cls-62"
       inkscape:connector-curvature="0"
       style="fill:#4b7c92" />
    <path
       id="path5362"
       transform="translate(-7.17,-7.33)"
       d="m 81.59,21.53 a 10,10 0 0 1 10,10 v 0 50.09 a 9.85,9.85 0 0 1 -7.88,9.63 16.45,16.45 0 0 1 -3.19,0.33 H 40.23 c -1.65,0 -11.78,-1.34 -11.78,-3 -3.83,0 -6.94,-6.92 -7,-10.75 V 33.94 c 0,-0.29 0,-3 0.12,-3.3 a 9.83,9.83 0 0 1 9.8,-9.11 h 35"
       class="cls-62"
       inkscape:connector-curvature="0"
       style="fill:#4b7c92" />
    <path
       id="path5364"
       transform="translate(-7.17,-7.33)"
       d="m 81.54,21.58 a 10,10 0 0 1 9.94,9.94 v 0 50.06 a 9.84,9.84 0 0 1 -7.84,9.61 16.09,16.09 0 0 1 -3.18,0.33 H 40.39 c -1.59,0 -11.78,-1.29 -11.78,-2.88 -3.89,0 -7,-6.82 -7.05,-10.7 V 34 c 0,-0.28 0,-3 0.11,-3.31 a 9.82,9.82 0 0 1 9.79,-9.12 h 35.5"
       class="cls-62"
       inkscape:connector-curvature="0"
       style="fill:#4b7c92" />
    <path
       id="path5366"
       transform="translate(-7.17,-7.33)"
       d="m 81.5,21.64 a 10,10 0 0 1 9.92,9.92 v 0 50 a 9.83,9.83 0 0 1 -7.79,9.59 15.75,15.75 0 0 1 -3.16,0.33 H 40.55 c -1.53,0 -11.79,-1.24 -11.79,-2.77 -3.94,0 -7.12,-6.72 -7.15,-10.66 V 34.09 c 0,-0.27 0,-3.06 0.11,-3.31 a 9.8,9.8 0 0 1 9.78,-9.14 h 36"
       class="cls-63"
       inkscape:connector-curvature="0"
       style="fill:#4b7d93" />
    <path
       id="path5368"
       transform="translate(-7.17,-7.33)"
       d="m 81.46,21.7 a 10,10 0 0 1 9.9,9.9 v 0 49.89 a 9.81,9.81 0 0 1 -7.75,9.56 15.42,15.42 0 0 1 -3.15,0.34 H 40.71 c -1.47,0 -11.8,-1.19 -11.8,-2.66 -4,0 -7.22,-6.62 -7.24,-10.61 v -44 c 0,-0.26 0,-3.07 0.1,-3.31 a 9.79,9.79 0 0 1 9.77,-9.15 H 68"
       class="cls-63"
       inkscape:connector-curvature="0"
       style="fill:#4b7d93" />
    <path
       id="path5370"
       transform="translate(-7.17,-7.33)"
       d="m 81.41,21.76 a 9.93,9.93 0 0 1 9.89,9.89 v 0 49.79 A 9.8,9.8 0 0 1 83.6,91 15.09,15.09 0 0 1 80.46,91.34 H 40.88 c -1.41,0 -11.81,-1.14 -11.81,-2.55 -4,0 -7.31,-6.52 -7.34,-10.56 v -44 c 0,-0.25 0,-3.08 0.1,-3.31 a 9.78,9.78 0 0 1 9.75,-9.17 H 68.5"
       class="cls-63"
       inkscape:connector-curvature="0"
       style="fill:#4b7d93" />
    <path
       id="path5372"
       transform="translate(-7.17,-7.33)"
       d="m 81.37,21.82 a 9.92,9.92 0 0 1 9.87,9.87 v 0 49.71 a 9.79,9.79 0 0 1 -7.66,9.52 14.78,14.78 0 0 1 -3.12,0.35 H 41 c -1.35,0 -11.81,-1.09 -11.81,-2.44 -4.09,0 -7.41,-6.42 -7.43,-10.52 v -44 c 0,-0.24 0,-3.09 0.1,-3.31 A 9.76,9.76 0 0 1 31.6,21.82 H 69"
       class="cls-63"
       inkscape:connector-curvature="0"
       style="fill:#4b7d93" />
    <path
       id="path5374"
       transform="translate(-7.17,-7.33)"
       d="m 81.33,21.88 a 9.9,9.9 0 0 1 9.85,9.85 v 0 49.62 a 9.77,9.77 0 0 1 -7.61,9.5 14.47,14.47 0 0 1 -3.11,0.35 H 41.2 c -1.29,0 -11.82,-1 -11.82,-2.33 -4.15,0 -7.5,-6.33 -7.52,-10.47 v -44 c 0,-0.23 0,-3.11 0.09,-3.32 a 9.75,9.75 0 0 1 9.73,-9.19 h 37.86"
       class="cls-63"
       inkscape:connector-curvature="0"
       style="fill:#4b7d93" />
    <path
       id="path5376"
       transform="translate(-7.17,-7.33)"
       d="m 81.28,21.94 a 9.88,9.88 0 0 1 9.84,9.84 v 0 49.53 a 9.76,9.76 0 0 1 -7.57,9.48 14.17,14.17 0 0 1 -3.1,0.36 H 41.36 c -1.22,0 -11.83,-1 -11.83,-2.22 -4.2,0 -7.59,-6.23 -7.62,-10.43 v -44 c 0,-0.22 0,-3.12 0.09,-3.32 a 9.74,9.74 0 0 1 9.72,-9.21 h 38.34"
       class="cls-63"
       inkscape:connector-curvature="0"
       style="fill:#4b7d93" />
    <path
       id="path5378"
       transform="translate(-7.17,-7.33)"
       d="m 81.24,22 a 9.87,9.87 0 0 1 9.82,9.82 v 0 49.44 a 9.75,9.75 0 0 1 -7.52,9.46 13.88,13.88 0 0 1 -3.08,0.36 H 41.52 C 40.36,91.08 29.68,90.14 29.68,88.97 25.44,88.95 22,82.84 22,78.6 V 34.54 c 0,-0.21 0,-3.13 0.08,-3.32 A 9.72,9.72 0 0 1 31.77,22 h 38.8"
       class="cls-64"
       inkscape:connector-curvature="0"
       style="fill:#4b7e93" />
    <path
       id="path5380"
       transform="translate(-7.17,-7.33)"
       d="m 81.2,22.05 a 9.85,9.85 0 0 1 9.8,9.8 v 0 49.37 a 9.74,9.74 0 0 1 -7.48,9.44 13.6,13.6 0 0 1 -3.07,0.37 H 41.69 c -1.1,0 -11.85,-0.89 -11.85,-2 -4.3,0 -7.78,-6 -7.81,-10.33 V 34.61 c 0,-0.2 0,-3.14 0.08,-3.32 a 9.71,9.71 0 0 1 9.7,-9.24 h 39.28"
       class="cls-64"
       inkscape:connector-curvature="0"
       style="fill:#4b7e93" />
    <path
       id="path5382"
       transform="translate(-7.17,-7.33)"
       d="m 81.15,22.11 a 9.84,9.84 0 0 1 9.79,9.79 v 0 49.27 a 9.73,9.73 0 0 1 -7.43,9.42 13.32,13.32 0 0 1 -3.06,0.37 h -38.6 c -1,0 -11.85,-0.84 -11.85,-1.89 -4.35,0 -7.87,-5.93 -7.9,-10.29 V 34.69 c 0,-0.19 0,-3.15 0.07,-3.32 a 9.7,9.7 0 0 1 9.69,-9.25 h 39.75"
       class="cls-64"
       inkscape:connector-curvature="0"
       style="fill:#4b7e93" />
    <path
       id="path5384"
       transform="translate(-7.17,-7.33)"
       d="m 81.11,22.17 a 9.82,9.82 0 0 1 9.77,9.77 v 0 49.19 a 9.72,9.72 0 0 1 -7.39,9.39 13.05,13.05 0 0 1 -3,0.37 H 42 c -1,0 -11.86,-0.79 -11.86,-1.77 -4.4,0 -8,-5.84 -8,-10.24 V 34.76 c 0,-0.17 0,-3.17 0.07,-3.32 a 9.69,9.69 0 0 1 9.68,-9.27 h 40.24"
       class="cls-65"
       inkscape:connector-curvature="0"
       style="fill:#4c7e93" />
    <path
       id="path5386"
       transform="translate(-7.17,-7.33)"
       d="M 81.07,22.23 A 9.8,9.8 0 0 1 90.82,32 v 0 49.1 a 9.7,9.7 0 0 1 -7.34,9.37 12.79,12.79 0 0 1 -3,0.38 H 42.17 C 41.25,90.85 30.3,90.11 30.3,89.19 25.84,89.19 22.24,83.45 22.21,79 V 34.84 c 0,-0.16 0,-3.18 0.06,-3.33 a 9.67,9.67 0 0 1 9.67,-9.28 h 40.7"
       class="cls-66"
       inkscape:connector-curvature="0"
       style="fill:#4c7e94" />
    <path
       id="path5388"
       transform="translate(-7.17,-7.33)"
       d="M 81,22.29 A 9.79,9.79 0 0 1 90.76,32 v 0 49 a 9.69,9.69 0 0 1 -7.3,9.35 12.54,12.54 0 0 1 -3,0.38 H 42.33 c -0.86,0 -11.88,-0.7 -11.88,-1.55 -4.51,0 -8.15,-5.64 -8.18,-10.15 V 34.91 c 0,-0.15 0,-3.19 0.06,-3.33 A 9.66,9.66 0 0 1 32,22.29 h 41.16"
       class="cls-67"
       inkscape:connector-curvature="0"
       style="fill:#4c7f94" />
    <path
       id="path5390"
       transform="translate(-7.17,-7.33)"
       d="m 81,22.34 a 9.77,9.77 0 0 1 9.72,9.72 v 0 V 81 a 9.68,9.68 0 0 1 -7.25,9.33 12.29,12.29 0 0 1 -3,0.39 H 42.5 c -0.8,0 -11.88,-0.65 -11.88,-1.44 -4.56,0 -8.25,-5.54 -8.28,-10.1 V 35 c 0,-0.14 0,-3.2 0.06,-3.33 A 9.65,9.65 0 0 1 32,22.34 h 41.68"
       class="cls-67"
       inkscape:connector-curvature="0"
       style="fill:#4c7f94" />
    <path
       id="path5392"
       transform="translate(-7.17,-7.33)"
       d="m 80.94,22.4 a 9.75,9.75 0 0 1 9.7,9.7 v 0 48.85 a 9.67,9.67 0 0 1 -7.21,9.31 12,12 0 0 1 -3,0.39 H 42.66 c -0.73,0 -11.89,-0.6 -11.89,-1.33 -4.61,0 -8.34,-5.44 -8.37,-10.06 v -44.2 c 0,-0.13 0,-3.21 0.05,-3.33 A 9.64,9.64 0 0 1 32.08,22.4 H 74.2"
       class="cls-67"
       inkscape:connector-curvature="0"
       style="fill:#4c7f94" />
    <path
       id="path5394"
       transform="translate(-7.17,-7.33)"
       d="m 80.89,22.46 a 9.74,9.74 0 0 1 9.69,9.69 v 0 48.75 a 9.66,9.66 0 0 1 -7.16,9.29 11.81,11.81 0 0 1 -3,0.4 h -37.6 c -0.67,0 -11.9,-0.55 -11.9,-1.22 -4.66,0 -8.44,-5.35 -8.47,-10 V 35.14 c 0,-0.12 0,-3.22 0,-3.33 a 9.63,9.63 0 0 1 9.62,-9.34 h 42.65"
       class="cls-67"
       inkscape:connector-curvature="0"
       style="fill:#4c7f94" />
    <path
       id="path5396"
       transform="translate(-7.17,-7.33)"
       d="m 80.85,22.52 a 9.72,9.72 0 0 1 9.67,9.67 v 0 48.67 a 9.65,9.65 0 0 1 -7.12,9.27 11.58,11.58 0 0 1 -3,0.4 H 43 c -0.61,0 -11.91,-0.5 -11.91,-1.11 -4.71,0 -8.53,-5.25 -8.56,-10 V 35.21 c 0,-0.11 0,-3.24 0,-3.34 a 9.61,9.61 0 0 1 9.61,-9.35 h 43.1"
       class="cls-67"
       inkscape:connector-curvature="0"
       style="fill:#4c7f94" />
    <path
       id="path5398"
       transform="translate(-7.17,-7.33)"
       d="m 80.81,22.58 a 9.71,9.71 0 0 1 9.65,9.65 v 0 48.58 a 9.64,9.64 0 0 1 -7.07,9.25 11.36,11.36 0 0 1 -3,0.41 H 43.14 c -0.55,0 -11.92,-0.45 -11.92,-1 -4.77,0 -8.62,-5.15 -8.65,-9.92 V 35.29 c 0,-0.1 0,-3.25 0,-3.34 a 9.6,9.6 0 0 1 9.6,-9.37 h 43.58"
       class="cls-67"
       inkscape:connector-curvature="0"
       style="fill:#4c7f94" />
    <path
       id="path5400"
       transform="translate(-7.17,-7.33)"
       d="m 80.76,22.64 a 9.69,9.69 0 0 1 9.63,9.63 v 0 48.5 a 9.63,9.63 0 0 1 -7,9.23 11.14,11.14 0 0 1 -2.94,0.41 H 43.31 c -0.49,0 -11.92,-0.4 -11.92,-0.89 -4.82,0 -8.72,-5.05 -8.75,-9.87 V 35.36 c 0,-0.09 0,-3.26 0,-3.34 a 9.59,9.59 0 0 1 9.59,-9.38 h 44"
       class="cls-68"
       inkscape:connector-curvature="0"
       style="fill:#4c8094" />
    <path
       id="path5402"
       transform="translate(-7.17,-7.33)"
       d="m 80.72,22.7 a 9.67,9.67 0 0 1 9.62,9.62 v 0 48.4 a 9.62,9.62 0 0 1 -7,9.2 10.92,10.92 0 0 1 -2.92,0.41 h -37 c -0.43,0 -11.93,-0.35 -11.93,-0.78 -4.87,0 -8.81,-5 -8.84,-9.82 V 35.44 c 0,-0.08 0,-3.27 0,-3.34 a 9.58,9.58 0 0 1 9.58,-9.4 h 44.56"
       class="cls-68"
       inkscape:connector-curvature="0"
       style="fill:#4c8094" />
    <path
       id="path5404"
       transform="translate(-7.17,-7.33)"
       d="m 80.68,22.75 a 9.66,9.66 0 0 1 9.6,9.6 v 0 48.33 a 9.61,9.61 0 0 1 -6.94,9.18 10.71,10.71 0 0 1 -2.91,0.42 h -36.8 c -0.37,0 -11.94,-0.3 -11.94,-0.67 -4.92,0 -8.9,-4.86 -8.94,-9.78 V 35.51 c 0,-0.07 0,-3.28 0,-3.34 a 9.57,9.57 0 0 1 9.57,-9.41 h 45"
       class="cls-68"
       inkscape:connector-curvature="0"
       style="fill:#4c8094" />
    <path
       id="path5406"
       transform="translate(-7.17,-7.33)"
       d="m 80.63,22.81 a 9.64,9.64 0 0 1 9.58,9.58 v 0 48.24 a 9.6,9.6 0 0 1 -6.89,9.16 10.51,10.51 0 0 1 -2.9,0.42 H 43.79 c -0.31,0 -11.95,-0.25 -11.95,-0.55 -5,0 -9,-4.76 -9,-9.73 V 35.58 c 0,-0.05 0,-3.3 0,-3.34 a 9.56,9.56 0 0 1 9.56,-9.43 h 45.43"
       class="cls-69"
       inkscape:connector-curvature="0"
       style="fill:#4c8095" />
    <path
       id="path5408"
       transform="translate(-7.17,-7.33)"
       d="m 80.59,22.87 a 9.62,9.62 0 0 1 9.57,9.57 v 0 48.15 a 9.6,9.6 0 0 1 -6.85,9.14 10.31,10.31 0 0 1 -2.88,0.43 H 44 c -0.24,0 -12,-0.2 -12,-0.44 -5,0 -9.09,-4.66 -9.12,-9.69 V 35.66 c 0,0 0,-3.31 0,-3.35 a 9.54,9.54 0 0 1 9.54,-9.44 h 45.92"
       class="cls-69"
       inkscape:connector-curvature="0"
       style="fill:#4c8095" />
    <path
       id="path5410"
       transform="translate(-7.17,-7.33)"
       d="m 80.55,22.93 a 9.61,9.61 0 0 1 9.55,9.55 v 0 48.06 a 9.59,9.59 0 0 1 -6.8,9.12 10.11,10.11 0 0 1 -2.87,0.43 H 44.12 c -0.18,0 -12,-0.15 -12,-0.33 -5.08,0 -9.19,-4.56 -9.22,-9.64 V 35.73 c 0,0 0,-3.32 0,-3.35 a 9.53,9.53 0 0 1 9.53,-9.46 h 46.43"
       class="cls-69"
       inkscape:connector-curvature="0"
       style="fill:#4c8095" />
    <path
       id="path5412"
       transform="translate(-7.17,-7.33)"
       d="m 80.5,23 a 9.59,9.59 0 0 1 9.5,9.52 v 0 48 a 9.58,9.58 0 0 1 -6.76,9.1 9.92,9.92 0 0 1 -2.86,0.44 h -36.1 c -0.12,0 -12,-0.1 -12,-0.22 A 9.62,9.62 0 0 1 23,80.21 v -44.4 c 0,0 0,-3.33 0,-3.35 A 9.52,9.52 0 0 1 32.53,23 h 46.85"
       class="cls-70"
       inkscape:connector-curvature="0"
       style="fill:#4c8195" />
    <path
       id="path5414"
       transform="translate(-7.17,-7.33)"
       d="M 80.46,23 A 9.58,9.58 0 0 1 90,32.56 v 0 47.89 a 9.57,9.57 0 0 1 -6.71,9.08 9.74,9.74 0 0 1 -2.84,0.44 h -36 c -0.06,0 -12,0 -12,-0.11 A 9.59,9.59 0 0 1 23.04,80.31 V 35.88 c 0,0 0,-3.34 0,-3.35 A 9.51,9.51 0 0 1 32.57,23 H 79.9"
       class="cls-70"
       inkscape:connector-curvature="0"
       style="fill:#4c8195" />
    <path
       id="path5416"
       transform="translate(-7.17,-7.33)"
       d="m 32.62,23.11 h 47.8 a 9.56,9.56 0 0 1 9.5,9.5 v 47.8 a 9.56,9.56 0 0 1 -9.5,9.5 h -47.8 a 9.56,9.56 0 0 1 -9.5,-9.5 v -47.8 a 9.5,9.5 0 0 1 9.5,-9.5 z"
       class="cls-70"
       inkscape:connector-curvature="0"
       style="fill:#4c8195" />
  </g>
</svg>
