<?xml version="1.0" encoding="UTF-8" standalone="no"?>
<svg
   xmlns:dc="http://purl.org/dc/elements/1.1/"
   xmlns:cc="http://creativecommons.org/ns#"
   xmlns:rdf="http://www.w3.org/1999/02/22-rdf-syntax-ns#"
   xmlns:svg="http://www.w3.org/2000/svg"
   xmlns="http://www.w3.org/2000/svg"
   xmlns:sodipodi="http://sodipodi.sourceforge.net/DTD/sodipodi-0.dtd"
   xmlns:inkscape="http://www.inkscape.org/namespaces/inkscape"
   id="Слой_1"
   data-name="Слой 1"
   viewBox="0 0 98.7 98.7"
   version="1.1"
   sodipodi:docname="color12.svg"
   inkscape:version="0.92.1 r15371">
  <metadata
     id="metadata5004">
    <rdf:RDF>
      <cc:Work
         rdf:about="">
        <dc:format>image/svg+xml</dc:format>
        <dc:type
           rdf:resource="http://purl.org/dc/dcmitype/StillImage" />
      </cc:Work>
    </rdf:RDF>
  </metadata>
  <sodipodi:namedview
     pagecolor="#ffffff"
     bordercolor="#666666"
     borderopacity="1"
     objecttolerance="10"
     gridtolerance="10"
     guidetolerance="10"
     inkscape:pageopacity="0"
     inkscape:pageshadow="2"
     inkscape:window-width="657"
     inkscape:window-height="480"
     id="namedview5002"
     showgrid="false"
     inkscape:zoom="2.3910842"
     inkscape:cx="49.349998"
     inkscape:cy="49.349998"
     inkscape:window-x="0"
     inkscape:window-y="0"
     inkscape:window-maximized="0"
     inkscape:current-layer="Слой_1" />
  <defs
     id="defs4591">
    <style
       id="style4589">.cls-1{fill:#415f48;}.cls-2{fill:#416048;}.cls-3{fill:#416049;}.cls-4{fill:#426049;}.cls-5{fill:#426149;}.cls-6{fill:#426249;}.cls-7{fill:#42624a;}.cls-8{fill:#42634a;}.cls-9{fill:#43634a;}.cls-10{fill:#43644a;}.cls-11{fill:#43644b;}.cls-12{fill:#43654b;}.cls-13{fill:#44654b;}.cls-14{fill:#44664b;}.cls-15{fill:#44664c;}.cls-16{fill:#44674c;}.cls-17{fill:#45674c;}.cls-18{fill:#45684c;}.cls-19{fill:#45684d;}.cls-20{fill:#45694d;}.cls-21{fill:#456a4d;}.cls-22{fill:#466a4d;}.cls-23{fill:#466a4e;}.cls-24{fill:#466b4e;}.cls-25{fill:#466c4e;}.cls-26{fill:#466c4f;}.cls-27{fill:#476d4f;}.cls-28{fill:#476e4f;}.cls-29{fill:#476f50;}.cls-30{fill:#486f50;}.cls-31{fill:#487050;}.cls-32{fill:#487150;}.cls-33{fill:#487151;}.cls-34{fill:#487251;}.cls-35{fill:#497251;}.cls-36{fill:#497351;}.cls-37{fill:#497352;}.cls-38{fill:#497452;}.cls-39{fill:#497552;}.cls-40{fill:#4a7552;}.cls-41{fill:#4a7553;}.cls-42{fill:#4a7653;}.cls-43{fill:#4a7753;}.cls-44{fill:#4a7853;}.cls-45{fill:#4a7854;}.cls-46{fill:#4b7854;}.cls-47{fill:#4b7954;}.cls-48{fill:#4b7a54;}.cls-49{fill:#4b7a55;}.cls-50{fill:#4b7b55;}.cls-51{fill:#4c7b55;}.cls-52{fill:#4c7c55;}.cls-53{fill:#4c7c56;}.cls-54{fill:#4c7d56;}.cls-55{fill:#4c7e56;}.cls-56{fill:#4d7e56;}.cls-57{fill:#4d7f57;}.cls-58{fill:#4d8057;}.cls-59{fill:#4e8157;}.cls-60{fill:#4e8158;}.cls-61{fill:#4e8258;}</style>
  </defs>
  <title
     id="title4593">color12</title>
  <g
     id="g13461">
    <path
       id="path4595"
       transform="translate(-7.46,-7.24)"
       d="m 92.16,7.24 a 14,14 0 0 1 14,14 v 0 70.7 a 14,14 0 0 1 -14,14 H 21.47 a 14,14 0 0 1 -14,-14 v -70.7 a 13.91,13.91 0 0 1 13.82,-14"
       class="cls-1"
       inkscape:connector-curvature="0"
       style="fill:#415f48" />
    <path
       id="path4597"
       transform="translate(-7.46,-7.24)"
       d="m 92.09,7.34 a 14,14 0 0 1 14,14 v 0 70.53 a 14,14 0 0 1 -14,14 H 21.54 a 14,14 0 0 1 -14,-14 V 21.31 a 13.88,13.88 0 0 1 13.79,-14"
       class="cls-1"
       inkscape:connector-curvature="0"
       style="fill:#415f48" />
    <path
       id="path4599"
       transform="translate(-7.46,-7.24)"
       d="m 92,7.43 a 13.94,13.94 0 0 1 14,13.95 v 0 70.42 A 13.94,13.94 0 0 1 92,105.74 H 21.61 A 13.94,13.94 0 0 1 7.66,91.8 V 21.38 A 13.85,13.85 0 0 1 21.43,7.43"
       class="cls-1"
       inkscape:connector-curvature="0"
       style="fill:#415f48" />
    <path
       id="path4601"
       transform="translate(-7.46,-7.24)"
       d="m 92,7.53 a 13.92,13.92 0 0 1 13.92,13.92 v 0 70.28 A 13.92,13.92 0 0 1 92,105.65 H 21.68 A 13.92,13.92 0 0 1 7.76,91.73 V 21.45 A 13.83,13.83 0 0 1 21.5,7.53"
       class="cls-1"
       inkscape:connector-curvature="0"
       style="fill:#415f48" />
    <path
       id="path4603"
       transform="translate(-7.46,-7.24)"
       d="m 91.88,7.63 a 13.89,13.89 0 0 1 13.89,13.89 v 0 70.14 A 13.89,13.89 0 0 1 91.88,105.55 H 21.75 A 13.89,13.89 0 0 1 7.86,91.66 V 21.52 A 13.8,13.8 0 0 1 21.57,7.63"
       class="cls-1"
       inkscape:connector-curvature="0"
       style="fill:#415f48" />
    <path
       id="path4605"
       transform="translate(-7.46,-7.24)"
       d="m 91.81,7.73 a 13.86,13.86 0 0 1 13.86,13.86 v 0 70 a 13.86,13.86 0 0 1 -13.86,13.86 h -70 A 13.86,13.86 0 0 1 8,91.59 v -70 A 13.77,13.77 0 0 1 21.64,7.73"
       class="cls-2"
       inkscape:connector-curvature="0"
       style="fill:#416048" />
    <path
       id="path4607"
       transform="translate(-7.46,-7.24)"
       d="m 91.74,7.82 a 13.83,13.83 0 0 1 13.83,13.83 v 0 69.87 A 13.83,13.83 0 0 1 91.74,105.35 H 21.89 A 13.83,13.83 0 0 1 8.05,91.52 V 21.66 A 13.74,13.74 0 0 1 21.71,7.82"
       class="cls-2"
       inkscape:connector-curvature="0"
       style="fill:#416048" />
    <path
       id="path4609"
       transform="translate(-7.46,-7.24)"
       d="m 91.67,7.92 a 13.81,13.81 0 0 1 13.81,13.81 v 0 69.72 A 13.81,13.81 0 0 1 91.67,105.26 H 22 A 13.81,13.81 0 0 1 8.15,91.45 V 21.73 A 13.72,13.72 0 0 1 21.78,7.92"
       class="cls-2"
       inkscape:connector-curvature="0"
       style="fill:#416048" />
    <path
       id="path4611"
       transform="translate(-7.46,-7.24)"
       d="m 91.6,8 a 13.78,13.78 0 0 1 13.78,13.8 v 0 69.58 A 13.78,13.78 0 0 1 91.6,105.16 H 22 A 13.78,13.78 0 0 1 8.25,91.38 V 21.8 A 13.69,13.69 0 0 1 21.85,8"
       class="cls-2"
       inkscape:connector-curvature="0"
       style="fill:#416048" />
    <path
       id="path4613"
       transform="translate(-7.46,-7.24)"
       d="m 91.53,8.12 a 13.75,13.75 0 0 1 13.75,13.75 v 0 69.44 A 13.75,13.75 0 0 1 91.53,105.06 H 22.1 A 13.75,13.75 0 0 1 8.34,91.31 V 21.87 A 13.66,13.66 0 0 1 21.92,8.12"
       class="cls-3"
       inkscape:connector-curvature="0"
       style="fill:#416049" />
    <path
       id="path4615"
       transform="translate(-7.46,-7.24)"
       d="m 91.46,8.22 a 13.72,13.72 0 0 1 13.72,13.72 v 0 69.3 A 13.72,13.72 0 0 1 91.46,105 H 22.17 A 13.72,13.72 0 0 1 8.44,91.24 V 21.94 A 13.63,13.63 0 0 1 22,8.22"
       class="cls-3"
       inkscape:connector-curvature="0"
       style="fill:#416049" />
    <path
       id="path4617"
       transform="translate(-7.46,-7.24)"
       d="M 91.39,8.31 A 13.7,13.7 0 0 1 105.09,22 v 0 69.17 a 13.7,13.7 0 0 1 -13.7,13.7 H 22.24 A 13.7,13.7 0 0 1 8.54,91.17 V 22 A 13.61,13.61 0 0 1 22.06,8.31"
       class="cls-4"
       inkscape:connector-curvature="0"
       style="fill:#426049" />
    <path
       id="path4619"
       transform="translate(-7.46,-7.24)"
       d="M 91.32,8.41 A 13.67,13.67 0 0 1 105,22.08 v 0 69 a 13.67,13.67 0 0 1 -13.67,13.67 h -69 A 13.67,13.67 0 0 1 8.64,91.1 v -69 A 13.58,13.58 0 0 1 22.13,8.41"
       class="cls-4"
       inkscape:connector-curvature="0"
       style="fill:#426049" />
    <path
       id="path4621"
       transform="translate(-7.46,-7.24)"
       d="m 91.25,8.51 a 13.64,13.64 0 0 1 13.64,13.64 v 0 V 91 A 13.64,13.64 0 0 1 91.25,104.64 H 22.38 A 13.64,13.64 0 0 1 8.74,91 V 22.15 A 13.55,13.55 0 0 1 22.2,8.51"
       class="cls-5"
       inkscape:connector-curvature="0"
       style="fill:#426149" />
    <path
       id="path4623"
       transform="translate(-7.46,-7.24)"
       d="m 91.18,8.61 a 13.61,13.61 0 0 1 13.62,13.61 v 0 V 91 A 13.61,13.61 0 0 1 91.19,104.61 H 22.45 A 13.61,13.61 0 0 1 8.83,91 V 22.22 A 13.52,13.52 0 0 1 22.27,8.61"
       class="cls-5"
       inkscape:connector-curvature="0"
       style="fill:#426149" />
    <path
       id="path4625"
       transform="translate(-7.46,-7.24)"
       d="m 91.11,8.7 a 13.58,13.58 0 0 1 13.59,13.59 v 0 68.6 A 13.58,13.58 0 0 1 91.12,104.47 H 22.52 A 13.58,13.58 0 0 1 8.93,90.89 V 22.29 A 13.5,13.5 0 0 1 22.34,8.7"
       class="cls-5"
       inkscape:connector-curvature="0"
       style="fill:#426149" />
    <path
       id="path4627"
       transform="translate(-7.46,-7.24)"
       d="m 91,8.8 a 13.56,13.56 0 0 1 13.6,13.56 v 0 68.46 A 13.56,13.56 0 0 1 91,104.38 H 22.59 A 13.56,13.56 0 0 1 9,90.82 V 22.36 A 13.47,13.47 0 0 1 22.41,8.8"
       class="cls-5"
       inkscape:connector-curvature="0"
       style="fill:#426149" />
    <path
       id="path4629"
       transform="translate(-7.46,-7.24)"
       d="m 91,8.9 a 13.53,13.53 0 0 1 13.5,13.53 v 0 68.32 A 13.53,13.53 0 0 1 91,104.28 H 22.66 A 13.53,13.53 0 0 1 9.13,90.75 V 22.43 A 13.44,13.44 0 0 1 22.48,8.9"
       class="cls-5"
       inkscape:connector-curvature="0"
       style="fill:#426149" />
    <path
       id="path4631"
       transform="translate(-7.46,-7.24)"
       d="m 90.9,9 a 13.5,13.5 0 0 1 13.5,13.5 v 0 68.18 a 13.5,13.5 0 0 1 -13.5,13.5 H 22.73 A 13.5,13.5 0 0 1 9.23,90.68 V 22.5 A 13.41,13.41 0 0 1 22.55,9"
       class="cls-5"
       inkscape:connector-curvature="0"
       style="fill:#426149" />
    <path
       id="path4633"
       transform="translate(-7.46,-7.24)"
       d="m 90.83,9.1 a 13.47,13.47 0 0 1 13.47,13.47 v 0 68 a 13.47,13.47 0 0 1 -13.47,13.47 h -68 A 13.47,13.47 0 0 1 9.32,90.61 v -68 A 13.39,13.39 0 0 1 22.62,9.1"
       class="cls-5"
       inkscape:connector-curvature="0"
       style="fill:#426149" />
    <path
       id="path4635"
       transform="translate(-7.46,-7.24)"
       d="m 90.76,9.19 a 13.45,13.45 0 0 1 13.45,13.45 v 0 67.9 A 13.45,13.45 0 0 1 90.76,104 H 22.87 A 13.45,13.45 0 0 1 9.42,90.54 V 22.64 A 13.36,13.36 0 0 1 22.69,9.19"
       class="cls-5"
       inkscape:connector-curvature="0"
       style="fill:#426149" />
    <path
       id="path4637"
       transform="translate(-7.46,-7.24)"
       d="m 90.69,9.29 a 13.42,13.42 0 0 1 13.42,13.42 v 0 67.76 A 13.42,13.42 0 0 1 90.69,103.89 H 22.94 A 13.42,13.42 0 0 1 9.52,90.47 V 22.71 A 13.33,13.33 0 0 1 22.76,9.29"
       class="cls-5"
       inkscape:connector-curvature="0"
       style="fill:#426149" />
    <path
       id="path4639"
       transform="translate(-7.46,-7.24)"
       d="M 90.62,9.39 A 13.39,13.39 0 0 1 104,22.78 v 0 67.62 A 13.39,13.39 0 0 1 90.61,103.79 H 23 A 13.39,13.39 0 0 1 9.61,90.4 V 22.78 A 13.3,13.3 0 0 1 22.83,9.39"
       class="cls-6"
       inkscape:connector-curvature="0"
       style="fill:#426249" />
    <path
       id="path4641"
       transform="translate(-7.46,-7.24)"
       d="m 90.55,9.49 a 13.36,13.36 0 0 1 13.36,13.36 v 0 67.48 A 13.36,13.36 0 0 1 90.55,103.69 H 23.08 A 13.36,13.36 0 0 1 9.71,90.33 V 22.85 A 13.28,13.28 0 0 1 22.9,9.49"
       class="cls-6"
       inkscape:connector-curvature="0"
       style="fill:#426249" />
    <path
       id="path4643"
       transform="translate(-7.46,-7.24)"
       d="m 90.48,9.58 a 13.33,13.33 0 0 1 13.33,13.33 v 0 67.35 A 13.33,13.33 0 0 1 90.48,103.59 H 23.15 A 13.33,13.33 0 0 1 9.81,90.26 V 22.92 A 13.25,13.25 0 0 1 23,9.58"
       class="cls-6"
       inkscape:connector-curvature="0"
       style="fill:#426249" />
    <path
       id="path4645"
       transform="translate(-7.46,-7.24)"
       d="M 90.41,9.68 A 13.31,13.31 0 0 1 103.72,23 v 0 67.2 A 13.31,13.31 0 0 1 90.41,103.5 H 23.22 A 13.31,13.31 0 0 1 9.91,90.19 V 23 A 13.22,13.22 0 0 1 23,9.68"
       class="cls-6"
       inkscape:connector-curvature="0"
       style="fill:#426249" />
    <path
       id="path4647"
       transform="translate(-7.46,-7.24)"
       d="m 90.34,9.78 a 13.28,13.28 0 0 1 13.28,13.28 v 0 67.06 A 13.28,13.28 0 0 1 90.34,103.4 H 23.29 A 13.28,13.28 0 0 1 10,90.12 V 23.06 A 13.19,13.19 0 0 1 23.11,9.78"
       class="cls-7"
       inkscape:connector-curvature="0"
       style="fill:#42624a" />
    <path
       id="path4649"
       transform="translate(-7.46,-7.24)"
       d="m 90.27,9.88 a 13.25,13.25 0 0 1 13.25,13.25 v 0 V 90 A 13.25,13.25 0 0 1 90.27,103.3 H 23.36 A 13.25,13.25 0 0 1 10.1,90 V 23.13 A 13.17,13.17 0 0 1 23.18,9.88"
       class="cls-7"
       inkscape:connector-curvature="0"
       style="fill:#42624a" />
    <path
       id="path4651"
       transform="translate(-7.46,-7.24)"
       d="m 90.2,10 a 13.22,13.22 0 0 1 13.23,13.2 v 0 V 90 A 13.22,13.22 0 0 1 90.2,103.2 H 23.43 A 13.22,13.22 0 0 1 10.2,90 V 23.2 A 13.14,13.14 0 0 1 23.25,10"
       class="cls-7"
       inkscape:connector-curvature="0"
       style="fill:#42624a" />
    <path
       id="path4653"
       transform="translate(-7.46,-7.24)"
       d="m 90.13,10.07 a 13.2,13.2 0 0 1 13.2,13.2 v 0 66.64 a 13.2,13.2 0 0 1 -13.2,13.2 H 23.5 A 13.2,13.2 0 0 1 10.3,89.91 V 23.27 a 13.11,13.11 0 0 1 13,-13.2"
       class="cls-7"
       inkscape:connector-curvature="0"
       style="fill:#42624a" />
    <path
       id="path4655"
       transform="translate(-7.46,-7.24)"
       d="m 90.06,10.17 a 13.17,13.17 0 0 1 13.17,13.17 v 0 66.5 A 13.17,13.17 0 0 1 90.06,103 H 23.57 A 13.17,13.17 0 0 1 10.4,89.84 v -66.5 a 13.08,13.08 0 0 1 13,-13.17"
       class="cls-8"
       inkscape:connector-curvature="0"
       style="fill:#42634a" />
    <path
       id="path4657"
       transform="translate(-7.46,-7.24)"
       d="m 90,10.27 a 13.14,13.14 0 0 1 13.14,13.14 v 0 66.36 A 13.14,13.14 0 0 1 90,102.91 H 23.64 A 13.14,13.14 0 0 1 10.49,89.77 V 23.41 a 13.06,13.06 0 0 1 13,-13.14"
       class="cls-9"
       inkscape:connector-curvature="0"
       style="fill:#43634a" />
    <path
       id="path4659"
       transform="translate(-7.46,-7.24)"
       d="M 89.92,10.37 A 13.11,13.11 0 0 1 103,23.48 v 0 66.22 A 13.11,13.11 0 0 1 89.89,102.81 H 23.71 A 13.11,13.11 0 0 1 10.59,89.7 V 23.48 A 13,13 0 0 1 23.54,10.37"
       class="cls-9"
       inkscape:connector-curvature="0"
       style="fill:#43634a" />
    <path
       id="path4661"
       transform="translate(-7.46,-7.24)"
       d="m 89.85,10.46 a 13.09,13.09 0 0 1 13.09,13.09 v 0 66.08 A 13.09,13.09 0 0 1 89.85,102.72 H 23.78 A 13.09,13.09 0 0 1 10.69,89.63 V 23.55 A 13,13 0 0 1 23.61,10.46"
       class="cls-9"
       inkscape:connector-curvature="0"
       style="fill:#43634a" />
    <path
       id="path4663"
       transform="translate(-7.46,-7.24)"
       d="m 89.78,10.56 a 13.06,13.06 0 0 1 13.06,13.06 v 0 65.94 A 13.06,13.06 0 0 1 89.78,102.62 H 23.85 A 13.06,13.06 0 0 1 10.79,89.56 V 23.62 A 13,13 0 0 1 23.68,10.56"
       class="cls-9"
       inkscape:connector-curvature="0"
       style="fill:#43634a" />
    <path
       id="path4665"
       transform="translate(-7.46,-7.24)"
       d="m 89.71,10.66 a 13,13 0 0 1 13,13 v 0 65.8 a 13,13 0 0 1 -13,13 H 23.92 a 13,13 0 0 1 -13,-13 V 23.69 a 13,13 0 0 1 12.86,-13"
       class="cls-9"
       inkscape:connector-curvature="0"
       style="fill:#43634a" />
    <path
       id="path4667"
       transform="translate(-7.46,-7.24)"
       d="m 89.64,10.76 a 13,13 0 0 1 13,13 v 0 65.66 a 13,13 0 0 1 -13,13 H 24 a 13,13 0 0 1 -13,-13 V 23.76 a 12.92,12.92 0 0 1 12.83,-13"
       class="cls-9"
       inkscape:connector-curvature="0"
       style="fill:#43634a" />
    <path
       id="path4669"
       transform="translate(-7.46,-7.24)"
       d="m 89.57,10.85 a 13,13 0 0 1 13,13 v 0 65.5 a 13,13 0 0 1 -13,13 H 24.06 a 13,13 0 0 1 -13,-13 V 23.83 a 12.89,12.89 0 0 1 12.81,-13"
       class="cls-9"
       inkscape:connector-curvature="0"
       style="fill:#43634a" />
    <path
       id="path4671"
       transform="translate(-7.46,-7.24)"
       d="m 89.5,11 a 13,13 0 0 1 12.95,12.9 v 0 65.38 A 13,13 0 0 1 89.5,102.23 H 24.13 A 13,13 0 0 1 11.18,89.28 V 23.9 A 12.86,12.86 0 0 1 24,11"
       class="cls-10"
       inkscape:connector-curvature="0"
       style="fill:#43644a" />
    <path
       id="path4673"
       transform="translate(-7.46,-7.24)"
       d="m 89.43,11 a 12.92,12.92 0 0 1 12.92,13 v 0 65.21 A 12.92,12.92 0 0 1 89.43,102.13 H 24.19 A 12.92,12.92 0 0 1 11.28,89.21 V 24 A 12.84,12.84 0 0 1 24,11"
       class="cls-10"
       inkscape:connector-curvature="0"
       style="fill:#43644a" />
    <path
       id="path4675"
       transform="translate(-7.46,-7.24)"
       d="M 89.36,11.15 A 12.89,12.89 0 0 1 102.26,24 v 0 65.1 A 12.89,12.89 0 0 1 89.36,102 H 24.26 A 12.89,12.89 0 0 1 11.37,89.14 V 24 A 12.81,12.81 0 0 1 24.1,11.15"
       class="cls-10"
       inkscape:connector-curvature="0"
       style="fill:#43644a" />
    <path
       id="path4677"
       transform="translate(-7.46,-7.24)"
       d="m 89.29,11.25 a 12.86,12.86 0 0 1 12.86,12.86 v 0 65 a 12.86,12.86 0 0 1 -12.86,12.86 h -65 A 12.86,12.86 0 0 1 11.47,89.07 v -65 a 12.78,12.78 0 0 1 12.7,-12.86"
       class="cls-10"
       inkscape:connector-curvature="0"
       style="fill:#43644a" />
    <path
       id="path4679"
       transform="translate(-7.46,-7.24)"
       d="m 89.22,11.34 a 12.84,12.84 0 0 1 12.84,12.84 v 0 V 89 A 12.84,12.84 0 0 1 89.22,101.84 H 24.4 A 12.84,12.84 0 0 1 11.57,89 V 24.18 A 12.75,12.75 0 0 1 24.24,11.34"
       class="cls-10"
       inkscape:connector-curvature="0"
       style="fill:#43644a" />
    <path
       id="path4681"
       transform="translate(-7.46,-7.24)"
       d="M 89.15,11.44 A 12.81,12.81 0 0 1 102,24.25 v 0 64.68 A 12.81,12.81 0 0 1 89.19,101.74 H 24.47 A 12.81,12.81 0 0 1 11.67,88.93 V 24.25 A 12.73,12.73 0 0 1 24.31,11.44"
       class="cls-11"
       inkscape:connector-curvature="0"
       style="fill:#43644b" />
    <path
       id="path4683"
       transform="translate(-7.46,-7.24)"
       d="m 89.08,11.54 a 12.78,12.78 0 0 1 12.78,12.78 v 0 64.54 A 12.78,12.78 0 0 1 89.08,101.64 H 24.54 A 12.78,12.78 0 0 1 11.76,88.86 V 24.32 A 12.7,12.7 0 0 1 24.38,11.54"
       class="cls-11"
       inkscape:connector-curvature="0"
       style="fill:#43644b" />
    <path
       id="path4685"
       transform="translate(-7.46,-7.24)"
       d="m 89,11.64 a 12.75,12.75 0 0 1 12.75,12.75 v 0 64.4 A 12.75,12.75 0 0 1 89,101.54 H 24.61 A 12.75,12.75 0 0 1 11.86,88.79 V 24.39 A 12.67,12.67 0 0 1 24.45,11.64"
       class="cls-11"
       inkscape:connector-curvature="0"
       style="fill:#43644b" />
    <path
       id="path4687"
       transform="translate(-7.46,-7.24)"
       d="m 88.94,11.73 a 12.72,12.72 0 0 1 12.72,12.72 v 0 64.27 A 12.72,12.72 0 0 1 88.94,101.44 H 24.68 A 12.72,12.72 0 0 1 12,88.72 V 24.46 A 12.64,12.64 0 0 1 24.52,11.73"
       class="cls-11"
       inkscape:connector-curvature="0"
       style="fill:#43644b" />
    <path
       id="path4689"
       transform="translate(-7.46,-7.24)"
       d="m 88.87,11.83 a 12.7,12.7 0 0 1 12.7,12.7 v 0 64.12 a 12.7,12.7 0 0 1 -12.7,12.7 H 24.75 A 12.7,12.7 0 0 1 12.05,88.65 V 24.53 a 12.62,12.62 0 0 1 12.53,-12.7"
       class="cls-12"
       inkscape:connector-curvature="0"
       style="fill:#43654b" />
    <path
       id="path4691"
       transform="translate(-7.46,-7.24)"
       d="m 88.8,11.93 a 12.67,12.67 0 0 1 12.67,12.67 v 0 64 A 12.67,12.67 0 0 1 88.8,101.25 h -64 A 12.67,12.67 0 0 1 12.16,88.58 v -64 a 12.59,12.59 0 0 1 12.5,-12.65"
       class="cls-12"
       inkscape:connector-curvature="0"
       style="fill:#43654b" />
    <path
       id="path4693"
       transform="translate(-7.46,-7.24)"
       d="m 88.73,12 a 12.64,12.64 0 0 1 12.64,12.64 v 0 63.87 A 12.64,12.64 0 0 1 88.73,101.15 H 24.89 A 12.64,12.64 0 0 1 12.25,88.51 V 24.67 A 12.56,12.56 0 0 1 24.73,12"
       class="cls-12"
       inkscape:connector-curvature="0"
       style="fill:#43654b" />
    <path
       id="path4695"
       transform="translate(-7.46,-7.24)"
       d="m 88.66,12.12 a 12.61,12.61 0 0 1 12.61,12.61 v 0 63.7 A 12.61,12.61 0 0 1 88.66,101.04 H 25 A 12.61,12.61 0 0 1 12.35,88.44 V 24.74 A 12.53,12.53 0 0 1 24.8,12.12"
       class="cls-12"
       inkscape:connector-curvature="0"
       style="fill:#43654b" />
    <path
       id="path4697"
       transform="translate(-7.46,-7.24)"
       d="m 88.59,12.22 a 12.59,12.59 0 0 1 12.59,12.59 v 0 63.56 A 12.59,12.59 0 0 1 88.59,101 H 25 A 12.59,12.59 0 0 1 12.45,88.37 V 24.81 A 12.51,12.51 0 0 1 24.87,12.22"
       class="cls-13"
       inkscape:connector-curvature="0"
       style="fill:#44654b" />
    <path
       id="path4699"
       transform="translate(-7.46,-7.24)"
       d="m 88.52,12.32 a 12.56,12.56 0 0 1 12.56,12.56 v 0 63.42 A 12.56,12.56 0 0 1 88.52,100.86 H 25.1 A 12.56,12.56 0 0 1 12.55,88.3 V 24.88 a 12.48,12.48 0 0 1 12.4,-12.56"
       class="cls-13"
       inkscape:connector-curvature="0"
       style="fill:#44654b" />
    <path
       id="path4701"
       transform="translate(-7.46,-7.24)"
       d="M 88.45,12.42 A 12.53,12.53 0 0 1 101,24.95 v 0 63.28 A 12.53,12.53 0 0 1 88.47,100.76 H 25.17 A 12.53,12.53 0 0 1 12.64,88.23 V 24.95 A 12.45,12.45 0 0 1 25,12.42"
       class="cls-13"
       inkscape:connector-curvature="0"
       style="fill:#44654b" />
    <path
       id="path4703"
       transform="translate(-7.46,-7.24)"
       d="M 88.38,12.52 A 12.5,12.5 0 0 1 100.89,25 v 0 63.16 a 12.5,12.5 0 0 1 -12.5,12.5 H 25.24 A 12.5,12.5 0 0 1 12.74,88.16 V 25 A 12.42,12.42 0 0 1 25.08,12.5"
       class="cls-13"
       inkscape:connector-curvature="0"
       style="fill:#44654b" />
    <path
       id="path4705"
       transform="translate(-7.46,-7.24)"
       d="m 88.31,12.61 a 12.48,12.48 0 0 1 12.48,12.48 v 0 63 a 12.48,12.48 0 0 1 -12.48,12.48 h -63 A 12.48,12.48 0 0 1 12.84,88.09 v -63 A 12.4,12.4 0 0 1 25.15,12.61"
       class="cls-14"
       inkscape:connector-curvature="0"
       style="fill:#44664b" />
    <path
       id="path4707"
       transform="translate(-7.46,-7.24)"
       d="m 88.24,12.71 a 12.45,12.45 0 0 1 12.45,12.45 v 0 V 88 A 12.45,12.45 0 0 1 88.24,100.45 H 25.38 A 12.45,12.45 0 0 1 12.94,88 V 25.16 A 12.37,12.37 0 0 1 25.22,12.71"
       class="cls-14"
       inkscape:connector-curvature="0"
       style="fill:#44664b" />
    <path
       id="path4709"
       transform="translate(-7.46,-7.24)"
       d="m 88.17,12.81 a 12.42,12.42 0 0 1 12.42,12.42 v 0 62.72 A 12.42,12.42 0 0 1 88.17,100.37 H 25.45 A 12.42,12.42 0 0 1 13,87.95 V 25.23 A 12.34,12.34 0 0 1 25.29,12.81"
       class="cls-14"
       inkscape:connector-curvature="0"
       style="fill:#44664b" />
    <path
       id="path4711"
       transform="translate(-7.46,-7.24)"
       d="m 88.1,12.91 a 12.39,12.39 0 0 1 12.4,12.39 v 0 62.58 A 12.39,12.39 0 0 1 88.1,100.27 H 25.52 A 12.39,12.39 0 0 1 13.13,87.88 V 25.3 A 12.31,12.31 0 0 1 25.37,12.91"
       class="cls-14"
       inkscape:connector-curvature="0"
       style="fill:#44664b" />
    <path
       id="path4713"
       transform="translate(-7.46,-7.24)"
       d="m 88,13 a 12.36,12.36 0 0 1 12.4,12.37 v 0 62.44 A 12.36,12.36 0 0 1 88,100.17 H 25.59 A 12.36,12.36 0 0 1 13.23,87.81 V 25.37 A 12.28,12.28 0 0 1 25.44,13"
       class="cls-15"
       inkscape:connector-curvature="0"
       style="fill:#44664c" />
    <path
       id="path4715"
       transform="translate(-7.46,-7.24)"
       d="m 88,13.1 a 12.34,12.34 0 0 1 12.3,12.34 v 0 62.3 A 12.34,12.34 0 0 1 88,100.08 H 25.66 A 12.34,12.34 0 0 1 13.33,87.74 V 25.44 A 12.26,12.26 0 0 1 25.51,13.1"
       class="cls-15"
       inkscape:connector-curvature="0"
       style="fill:#44664c" />
    <path
       id="path4717"
       transform="translate(-7.46,-7.24)"
       d="m 87.89,13.2 a 12.31,12.31 0 0 1 12.31,12.31 v 0 62.16 A 12.31,12.31 0 0 1 87.89,100 H 25.73 A 12.31,12.31 0 0 1 13.43,87.67 V 25.51 A 12.23,12.23 0 0 1 25.58,13.2"
       class="cls-15"
       inkscape:connector-curvature="0"
       style="fill:#44664c" />
    <path
       id="path4719"
       transform="translate(-7.46,-7.24)"
       d="m 87.82,13.3 a 12.28,12.28 0 0 1 12.28,12.28 v 0 62 a 12.28,12.28 0 0 1 -12.28,12.3 h -62 A 12.28,12.28 0 0 1 13.52,87.6 v -62 A 12.2,12.2 0 0 1 25.65,13.3"
       class="cls-15"
       inkscape:connector-curvature="0"
       style="fill:#44664c" />
    <path
       id="path4721"
       transform="translate(-7.46,-7.24)"
       d="M 87.75,13.39 A 12.25,12.25 0 0 1 100,25.65 v 0 61.88 A 12.25,12.25 0 0 1 87.75,99.78 H 25.87 A 12.25,12.25 0 0 1 13.62,87.53 V 25.65 A 12.17,12.17 0 0 1 25.72,13.4"
       class="cls-15"
       inkscape:connector-curvature="0"
       style="fill:#44664c" />
    <path
       id="path4723"
       transform="translate(-7.46,-7.24)"
       d="m 87.68,13.49 a 12.23,12.23 0 0 1 12.23,12.23 v 0 61.74 A 12.23,12.23 0 0 1 87.68,99.68 H 25.94 A 12.23,12.23 0 0 1 13.72,87.46 V 25.72 A 12.15,12.15 0 0 1 25.79,13.49"
       class="cls-16"
       inkscape:connector-curvature="0"
       style="fill:#44674c" />
    <path
       id="path4725"
       transform="translate(-7.46,-7.24)"
       d="m 87.61,13.59 a 12.2,12.2 0 0 1 12.2,12.2 v 0 61.6 a 12.2,12.2 0 0 1 -12.2,12.2 H 26 A 12.2,12.2 0 0 1 13.8,87.39 v -61.6 a 12.12,12.12 0 0 1 12,-12.2"
       class="cls-16"
       inkscape:connector-curvature="0"
       style="fill:#44674c" />
    <path
       id="path4727"
       transform="translate(-7.46,-7.24)"
       d="m 87.54,13.69 a 12.17,12.17 0 0 1 12.18,12.17 v 0 61.46 A 12.17,12.17 0 0 1 87.54,99.49 H 26.08 A 12.17,12.17 0 0 1 13.91,87.32 V 25.86 a 12.09,12.09 0 0 1 12,-12.17"
       class="cls-16"
       inkscape:connector-curvature="0"
       style="fill:#44674c" />
    <path
       id="path4729"
       transform="translate(-7.46,-7.24)"
       d="m 87.47,13.79 a 12.14,12.14 0 0 1 12.15,12.14 v 0 61.32 A 12.14,12.14 0 0 1 87.47,99.39 H 26.15 A 12.14,12.14 0 0 1 14,87.25 V 25.93 A 12.06,12.06 0 0 1 26,13.79"
       class="cls-16"
       inkscape:connector-curvature="0"
       style="fill:#44674c" />
    <path
       id="path4731"
       transform="translate(-7.46,-7.24)"
       d="M 87.4,13.88 A 12.11,12.11 0 0 1 99.52,26 v 0 61.18 A 12.11,12.11 0 0 1 87.4,99.29 H 26.22 A 12.11,12.11 0 0 1 14.11,87.18 V 26 a 12,12 0 0 1 12,-12.11"
       class="cls-16"
       inkscape:connector-curvature="0"
       style="fill:#44674c" />
    <path
       id="path4733"
       transform="translate(-7.46,-7.24)"
       d="m 87.33,14 a 12.09,12.09 0 0 1 12.09,12.07 v 0 61 A 12.09,12.09 0 0 1 87.33,99.2 h -61 A 12.09,12.09 0 0 1 14.21,87.11 v -61 A 12,12 0 0 1 26.14,14"
       class="cls-16"
       inkscape:connector-curvature="0"
       style="fill:#44674c" />
    <path
       id="path4735"
       transform="translate(-7.46,-7.24)"
       d="m 87.26,14.08 a 12.06,12.06 0 0 1 12.06,12.06 v 0 V 87 A 12.06,12.06 0 0 1 87.26,99.1 H 26.36 A 12.06,12.06 0 0 1 14.31,87 V 26.14 a 12,12 0 0 1 11.9,-12.06"
       class="cls-16"
       inkscape:connector-curvature="0"
       style="fill:#44674c" />
    <path
       id="path4737"
       transform="translate(-7.46,-7.24)"
       d="m 87.19,14.18 a 12,12 0 0 1 12,12 v 0 V 87 a 12,12 0 0 1 -12,12 H 26.43 a 12,12 0 0 1 -12,-12 V 26.21 a 12,12 0 0 1 11.88,-12"
       class="cls-17"
       inkscape:connector-curvature="0"
       style="fill:#45674c" />
    <path
       id="path4739"
       transform="translate(-7.46,-7.24)"
       d="m 87.12,14.27 a 12,12 0 0 1 12,12 v 0 60.63 a 12,12 0 0 1 -12,12 H 26.5 a 12,12 0 0 1 -12,-12 V 26.28 a 11.93,11.93 0 0 1 11.85,-12"
       class="cls-18"
       inkscape:connector-curvature="0"
       style="fill:#45684c" />
    <path
       id="path4741"
       transform="translate(-7.46,-7.24)"
       d="m 87.05,14.37 a 12,12 0 0 1 12,12 v 0 60.46 a 12,12 0 0 1 -12,12 H 26.57 a 12,12 0 0 1 -12,-12 V 26.35 a 11.9,11.9 0 0 1 11.82,-12"
       class="cls-18"
       inkscape:connector-curvature="0"
       style="fill:#45684c" />
    <path
       id="path4743"
       transform="translate(-7.46,-7.24)"
       d="m 87,14.47 a 12,12 0 0 1 11.93,11.95 v 0 60.34 A 12,12 0 0 1 87,98.71 H 26.64 A 12,12 0 0 1 14.7,86.76 V 26.42 A 11.87,11.87 0 0 1 26.49,14.47"
       class="cls-18"
       inkscape:connector-curvature="0"
       style="fill:#45684c" />
    <path
       id="path4745"
       transform="translate(-7.46,-7.24)"
       d="m 86.91,14.57 a 11.92,11.92 0 0 1 11.93,11.92 v 0 60.2 A 11.92,11.92 0 0 1 86.91,98.61 H 26.71 A 11.92,11.92 0 0 1 14.79,86.69 V 26.49 A 11.84,11.84 0 0 1 26.56,14.57"
       class="cls-18"
       inkscape:connector-curvature="0"
       style="fill:#45684c" />
    <path
       id="path4747"
       transform="translate(-7.46,-7.24)"
       d="m 86.84,14.67 a 11.89,11.89 0 0 1 11.9,11.89 v 0 60.06 A 11.89,11.89 0 0 1 86.84,98.51 H 26.78 A 11.89,11.89 0 0 1 14.89,86.62 V 26.56 A 11.82,11.82 0 0 1 26.63,14.67"
       class="cls-19"
       inkscape:connector-curvature="0"
       style="fill:#45684d" />
    <path
       id="path4749"
       transform="translate(-7.46,-7.24)"
       d="m 86.77,14.76 a 11.87,11.87 0 0 1 11.87,11.87 v 0 59.92 A 11.87,11.87 0 0 1 86.77,98.41 H 26.85 A 11.87,11.87 0 0 1 15,86.55 V 26.63 A 11.79,11.79 0 0 1 26.7,14.76"
       class="cls-19"
       inkscape:connector-curvature="0"
       style="fill:#45684d" />
    <path
       id="path4751"
       transform="translate(-7.46,-7.24)"
       d="M 86.7,14.86 A 11.84,11.84 0 0 1 98.54,26.7 v 0 59.78 A 11.84,11.84 0 0 1 86.7,98.32 H 26.92 A 11.84,11.84 0 0 1 15.09,86.48 V 26.7 A 11.76,11.76 0 0 1 26.77,14.86"
       class="cls-19"
       inkscape:connector-curvature="0"
       style="fill:#45684d" />
    <path
       id="path4753"
       transform="translate(-7.46,-7.24)"
       d="m 86.63,15 a 11.81,11.81 0 0 1 11.81,11.77 v 0 59.64 A 11.81,11.81 0 0 1 86.63,98.22 H 27 A 11.81,11.81 0 0 1 15.19,86.41 V 26.77 A 11.73,11.73 0 0 1 26.84,15"
       class="cls-19"
       inkscape:connector-curvature="0"
       style="fill:#45684d" />
    <path
       id="path4755"
       transform="translate(-7.46,-7.24)"
       d="m 86.56,15.06 a 11.78,11.78 0 0 1 11.79,11.78 v 0 59.5 A 11.78,11.78 0 0 1 86.56,98.12 H 27.06 A 11.78,11.78 0 0 1 15.28,86.34 V 26.84 A 11.71,11.71 0 0 1 26.91,15.06"
       class="cls-20"
       inkscape:connector-curvature="0"
       style="fill:#45694d" />
    <path
       id="path4757"
       transform="translate(-7.46,-7.24)"
       d="m 86.49,15.15 a 11.75,11.75 0 0 1 11.76,11.76 v 0 59.36 A 11.75,11.75 0 0 1 86.49,98 H 27.13 A 11.75,11.75 0 0 1 15.38,86.27 V 26.91 A 11.68,11.68 0 0 1 27,15.15"
       class="cls-20"
       inkscape:connector-curvature="0"
       style="fill:#45694d" />
    <path
       id="path4759"
       transform="translate(-7.46,-7.24)"
       d="M 86.42,15.25 A 11.73,11.73 0 0 1 98.15,27 v 0 59.2 A 11.73,11.73 0 0 1 86.42,97.93 H 27.2 A 11.73,11.73 0 0 1 15.48,86.2 V 27 A 11.65,11.65 0 0 1 27.05,15.25"
       class="cls-20"
       inkscape:connector-curvature="0"
       style="fill:#45694d" />
    <path
       id="path4761"
       transform="translate(-7.46,-7.24)"
       d="M 86.35,15.35 A 11.7,11.7 0 0 1 98.05,27 v 0 59.13 a 11.7,11.7 0 0 1 -11.7,11.7 H 27.27 A 11.7,11.7 0 0 1 15.57,86.13 V 27 A 11.62,11.62 0 0 1 27.12,15.3"
       class="cls-20"
       inkscape:connector-curvature="0"
       style="fill:#45694d" />
    <path
       id="path4763"
       transform="translate(-7.46,-7.24)"
       d="M 86.28,15.45 A 11.67,11.67 0 0 1 98,27.12 v 0 58.94 A 11.67,11.67 0 0 1 86.28,97.73 H 27.34 A 11.67,11.67 0 0 1 15.67,86.06 V 27.12 A 11.6,11.6 0 0 1 27.19,15.45"
       class="cls-20"
       inkscape:connector-curvature="0"
       style="fill:#45694d" />
    <path
       id="path4765"
       transform="translate(-7.46,-7.24)"
       d="m 86.21,15.54 a 11.64,11.64 0 0 1 11.65,11.65 v 0 V 86 A 11.64,11.64 0 0 1 86.21,97.63 H 27.41 A 11.64,11.64 0 0 1 15.77,86 V 27.19 A 11.57,11.57 0 0 1 27.26,15.54"
       class="cls-20"
       inkscape:connector-curvature="0"
       style="fill:#45694d" />
    <path
       id="path4767"
       transform="translate(-7.46,-7.24)"
       d="m 86.14,15.64 a 11.62,11.62 0 0 1 11.62,11.62 v 0 58.66 A 11.62,11.62 0 0 1 86.14,97.53 H 27.48 A 11.62,11.62 0 0 1 15.87,85.92 V 27.26 A 11.54,11.54 0 0 1 27.34,15.64"
       class="cls-20"
       inkscape:connector-curvature="0"
       style="fill:#45694d" />
    <path
       id="path4769"
       transform="translate(-7.46,-7.24)"
       d="m 86.07,15.74 a 11.59,11.59 0 0 1 11.59,11.59 v 0 58.52 A 11.59,11.59 0 0 1 86.07,97.44 H 27.55 A 11.59,11.59 0 0 1 16,85.85 V 27.33 A 11.51,11.51 0 0 1 27.41,15.74"
       class="cls-20"
       inkscape:connector-curvature="0"
       style="fill:#45694d" />
    <path
       id="path4771"
       transform="translate(-7.46,-7.24)"
       d="M 86,15.84 A 11.56,11.56 0 0 1 97.57,27.4 v 0 58.38 A 11.56,11.56 0 0 1 86,97.34 H 27.62 A 11.56,11.56 0 0 1 16.06,85.78 V 27.4 A 11.49,11.49 0 0 1 27.48,15.84"
       class="cls-20"
       inkscape:connector-curvature="0"
       style="fill:#45694d" />
    <path
       id="path4773"
       transform="translate(-7.46,-7.24)"
       d="m 85.93,15.94 a 11.53,11.53 0 0 1 11.54,11.53 v 0 58.24 A 11.53,11.53 0 0 1 85.93,97.24 H 27.69 A 11.53,11.53 0 0 1 16.16,85.71 V 27.47 A 11.46,11.46 0 0 1 27.55,15.94"
       class="cls-21"
       inkscape:connector-curvature="0"
       style="fill:#456a4d" />
    <path
       id="path4775"
       transform="translate(-7.46,-7.24)"
       d="m 85.86,16 a 11.5,11.5 0 0 1 11.5,11.5 v 0 58.1 A 11.5,11.5 0 0 1 85.86,97.1 H 27.76 A 11.5,11.5 0 0 1 16.26,85.6 V 27.54 A 11.43,11.43 0 0 1 27.62,16"
       class="cls-21"
       inkscape:connector-curvature="0"
       style="fill:#456a4d" />
    <path
       id="path4777"
       transform="translate(-7.46,-7.24)"
       d="m 85.79,16.13 a 11.48,11.48 0 0 1 11.48,11.48 v 0 58 A 11.48,11.48 0 0 1 85.79,97 h -58 A 11.48,11.48 0 0 1 16.36,85.57 v -58 A 11.4,11.4 0 0 1 27.69,16.13"
       class="cls-22"
       inkscape:connector-curvature="0"
       style="fill:#466a4d" />
    <path
       id="path4779"
       transform="translate(-7.46,-7.24)"
       d="m 85.72,16.23 a 11.45,11.45 0 0 1 11.45,11.45 v 0 57.82 A 11.45,11.45 0 0 1 85.72,96.95 H 27.9 A 11.45,11.45 0 0 1 16.46,85.5 V 27.68 a 11.38,11.38 0 0 1 11.3,-11.45"
       class="cls-22"
       inkscape:connector-curvature="0"
       style="fill:#466a4d" />
    <path
       id="path4781"
       transform="translate(-7.46,-7.24)"
       d="m 85.65,16.33 a 11.42,11.42 0 0 1 11.43,11.42 v 0 57.68 A 11.42,11.42 0 0 1 85.65,96.85 H 28 A 11.42,11.42 0 0 1 16.55,85.43 V 27.75 A 11.35,11.35 0 0 1 27.83,16.33"
       class="cls-23"
       inkscape:connector-curvature="0"
       style="fill:#466a4e" />
    <path
       id="path4783"
       transform="translate(-7.46,-7.24)"
       d="M 85.58,16.42 A 11.39,11.39 0 0 1 97,27.82 v 0 57.54 A 11.39,11.39 0 0 1 85.58,96.75 H 28 A 11.39,11.39 0 0 1 16.65,85.36 V 27.82 A 11.32,11.32 0 0 1 27.9,16.42"
       class="cls-23"
       inkscape:connector-curvature="0"
       style="fill:#466a4e" />
    <path
       id="path4785"
       transform="translate(-7.46,-7.24)"
       d="m 85.51,16.52 a 11.37,11.37 0 0 1 11.37,11.37 v 0 57.4 A 11.37,11.37 0 0 1 85.51,96.65 H 28.11 A 11.37,11.37 0 0 1 16.75,85.29 V 27.89 A 11.29,11.29 0 0 1 28,16.52"
       class="cls-23"
       inkscape:connector-curvature="0"
       style="fill:#466a4e" />
    <path
       id="path4787"
       transform="translate(-7.46,-7.24)"
       d="M 85.44,16.62 A 11.34,11.34 0 0 1 96.78,28 v 0 57.22 A 11.34,11.34 0 0 1 85.44,96.56 H 28.18 A 11.34,11.34 0 0 1 16.85,85.22 V 28 A 11.27,11.27 0 0 1 28,16.62"
       class="cls-23"
       inkscape:connector-curvature="0"
       style="fill:#466a4e" />
    <path
       id="path4789"
       transform="translate(-7.46,-7.24)"
       d="M 85.37,16.72 A 11.31,11.31 0 0 1 96.69,28 v 0 57.15 A 11.31,11.31 0 0 1 85.37,96.46 H 28.25 A 11.31,11.31 0 0 1 16.94,85.15 V 28 A 11.24,11.24 0 0 1 28.11,16.72"
       class="cls-24"
       inkscape:connector-curvature="0"
       style="fill:#466b4e" />
    <path
       id="path4791"
       transform="translate(-7.46,-7.24)"
       d="M 85.3,16.82 A 11.28,11.28 0 0 1 96.59,28.1 v 0 57 A 11.28,11.28 0 0 1 85.3,96.36 h -57 A 11.28,11.28 0 0 1 17,85.08 v -57 A 11.21,11.21 0 0 1 28.18,16.82"
       class="cls-24"
       inkscape:connector-curvature="0"
       style="fill:#466b4e" />
    <path
       id="path4793"
       transform="translate(-7.46,-7.24)"
       d="m 85.23,16.91 a 11.26,11.26 0 0 1 11.26,11.26 v 0 V 85 A 11.26,11.26 0 0 1 85.23,96.26 H 28.39 A 11.26,11.26 0 0 1 17.14,85 V 28.17 A 11.18,11.18 0 0 1 28.25,16.91"
       class="cls-24"
       inkscape:connector-curvature="0"
       style="fill:#466b4e" />
    <path
       id="path4795"
       transform="translate(-7.46,-7.24)"
       d="m 85.16,17 a 11.23,11.23 0 0 1 11.23,11.24 v 0 56.7 A 11.23,11.23 0 0 1 85.16,96.17 H 28.46 A 11.23,11.23 0 0 1 17.24,84.94 V 28.24 A 11.16,11.16 0 0 1 28.32,17"
       class="cls-24"
       inkscape:connector-curvature="0"
       style="fill:#466b4e" />
    <path
       id="path4797"
       transform="translate(-7.46,-7.24)"
       d="m 85.09,17.11 a 11.2,11.2 0 0 1 11.2,11.2 v 0 56.56 a 11.2,11.2 0 0 1 -11.2,11.2 H 28.53 A 11.2,11.2 0 0 1 17.33,84.87 V 28.31 a 11.13,11.13 0 0 1 11.06,-11.2"
       class="cls-24"
       inkscape:connector-curvature="0"
       style="fill:#466b4e" />
    <path
       id="path4799"
       transform="translate(-7.46,-7.24)"
       d="m 85.05,17.17 a 11.18,11.18 0 0 1 11.18,11.18 v 0 56.47 A 11.18,11.18 0 0 1 85.08,96 H 28.7 A 11.19,11.19 0 0 1 17.49,84.92 C 17.44,84.92 17.4,70.84 17.4,70.79 V 28.38 a 11.25,11.25 0 0 1 0.43,-3.17 11.11,11.11 0 0 1 10.61,-8 h 0.47"
       class="cls-24"
       inkscape:connector-curvature="0"
       style="fill:#466b4e" />
    <path
       id="path4801"
       transform="translate(-7.46,-7.24)"
       d="m 85,17.23 a 11.17,11.17 0 0 1 11.17,11.16 v 0 56.39 A 11.16,11.16 0 0 1 85.06,95.94 H 28.86 A 11.18,11.18 0 0 1 17.64,85 C 17.54,85 17.45,71 17.45,70.92 V 28.46 a 11.38,11.38 0 0 1 0.43,-3.17 11.09,11.09 0 0 1 10.6,-8.06 h 0.95"
       class="cls-24"
       inkscape:connector-curvature="0"
       style="fill:#466b4e" />
    <path
       id="path4803"
       transform="translate(-7.46,-7.24)"
       d="m 85,17.28 a 11.15,11.15 0 0 1 11.11,11.15 v 0 56.3 A 11.14,11.14 0 0 1 85,95.87 H 29 A 11.18,11.18 0 0 1 17.8,85 C 17.64,85 17.52,71.12 17.52,71 V 28.53 a 11.5,11.5 0 0 1 0.42,-3.17 11.07,11.07 0 0 1 10.59,-8.07 h 1.42"
       class="cls-25"
       inkscape:connector-curvature="0"
       style="fill:#466c4e" />
    <path
       id="path4805"
       transform="translate(-7.46,-7.24)"
       d="m 84.92,17.34 a 11.14,11.14 0 0 1 11.13,11.14 v 0 56.21 A 11.11,11.11 0 0 1 85,95.8 c 0,0 -4.08,0 -4.12,0 H 29.18 C 23.24,95.82 18,91 18,85.06 c -0.21,0 -0.37,-13.78 -0.38,-14 V 28.61 A 11.63,11.63 0 0 1 18,25.43 11,11 0 0 1 28.57,17.34 h 1.89"
       class="cls-25"
       inkscape:connector-curvature="0"
       style="fill:#466c4e" />
    <path
       id="path4807"
       transform="translate(-7.46,-7.24)"
       d="M 84.88,17.4 A 11.12,11.12 0 0 1 96,28.52 v 0 56.12 a 11.09,11.09 0 0 1 -11,11.1 c 0,0 -4.06,0 -4.11,0 H 29.35 c -5.88,0 -11.24,-4.77 -11.24,-10.65 -0.26,0 -0.47,-13.68 -0.47,-13.94 V 28.68 A 11.76,11.76 0 0 1 18.05,25.5 11,11 0 0 1 28.61,17.4 H 31"
       class="cls-25"
       inkscape:connector-curvature="0"
       style="fill:#466c4e" />
    <path
       id="path4809"
       transform="translate(-7.46,-7.24)"
       d="m 84.83,17.46 a 11.1,11.1 0 0 1 11.1,11.1 v 0 56 A 11.07,11.07 0 0 1 85,95.67 c -0.05,0 -4,0 -4.09,0 h -51.4 c -5.82,0 -11.25,-4.72 -11.25,-10.53 -0.31,0 -0.56,-13.58 -0.56,-13.9 V 28.76 a 11.9,11.9 0 0 1 0.41,-3.18 11,11 0 0 1 10.55,-8.12 h 2.84"
       class="cls-26"
       inkscape:connector-curvature="0"
       style="fill:#466c4f" />
    <path
       id="path4811"
       transform="translate(-7.46,-7.24)"
       d="M 84.79,17.52 A 11.09,11.09 0 0 1 95.87,28.6 v 0 56 A 11.05,11.05 0 0 1 85,95.6 c -0.06,0 -4,0 -4.08,0 H 29.67 c -5.76,0 -11.25,-4.67 -11.25,-10.42 -0.36,0 -0.66,-13.49 -0.66,-13.85 V 28.83 A 12,12 0 0 1 18.17,25.65 11,11 0 0 1 28.7,17.52 H 32"
       class="cls-27"
       inkscape:connector-curvature="0"
       style="fill:#476d4f" />
    <path
       id="path4813"
       transform="translate(-7.46,-7.24)"
       d="m 84.75,17.58 a 11.07,11.07 0 0 1 11.06,11.06 v 0 55.87 A 11,11 0 0 1 85,95.54 c -0.07,0 -4,0 -4.07,0 h -51.1 c -5.7,0 -11.26,-4.62 -11.26,-10.31 -0.41,0 -0.75,-13.39 -0.75,-13.8 V 28.91 a 12.18,12.18 0 0 1 0.4,-3.18 11,11 0 0 1 10.53,-8.15 h 3.79"
       class="cls-27"
       inkscape:connector-curvature="0"
       style="fill:#476d4f" />
    <path
       id="path4815"
       transform="translate(-7.46,-7.24)"
       d="m 84.7,17.63 a 11.05,11.05 0 0 1 11,11 v 0 55.83 a 11,11 0 0 1 -10.8,11 c -0.08,0 -4,0 -4.05,0 H 30 c -5.63,0 -11.27,-4.57 -11.27,-10.2 -0.47,0 -0.84,-13.29 -0.85,-13.76 V 29 a 12.32,12.32 0 0 1 0.4,-3.19 10.94,10.94 0 0 1 10.52,-8.16 h 4.26"
       class="cls-27"
       inkscape:connector-curvature="0"
       style="fill:#476d4f" />
    <path
       id="path4817"
       transform="translate(-7.46,-7.24)"
       d="m 84.66,17.69 a 11,11 0 0 1 11,11 v 0 55.73 a 11,11 0 0 1 -10.75,11 c -0.09,0 -3.94,0 -4,0 H 30.16 c -5.57,0 -11.28,-4.52 -11.28,-10.09 -0.52,0 -0.94,-13.19 -0.94,-13.71 V 29.06 a 12.47,12.47 0 0 1 0.39,-3.19 10.92,10.92 0 0 1 10.51,-8.18 h 4.73"
       class="cls-27"
       inkscape:connector-curvature="0"
       style="fill:#476d4f" />
    <path
       id="path4819"
       transform="translate(-7.46,-7.24)"
       d="m 84.62,17.75 a 11,11 0 0 1 11,11 v 0 55.62 a 11,11 0 0 1 -10.71,11 c -0.1,0 -3.92,0 -4,0 H 30.32 c -5.51,0 -11.29,-4.47 -11.29,-10 -0.57,0 -1,-13.09 -1,-13.66 V 29.13 a 12.62,12.62 0 0 1 0.39,-3.19 10.9,10.9 0 0 1 10.5,-8.19 h 5.21"
       class="cls-28"
       inkscape:connector-curvature="0"
       style="fill:#476e4f" />
    <path
       id="path4821"
       transform="translate(-7.46,-7.24)"
       d="m 84.57,17.81 a 11,11 0 0 1 11,11 v 0 55.52 A 11,11 0 0 1 84.91,95.27 c -0.11,0 -3.9,0.05 -4,0.05 H 30.48 c -5.45,0 -11.29,-4.42 -11.29,-9.87 -0.62,0 -1.12,-13 -1.13,-13.62 V 29.21 A 12.78,12.78 0 0 1 18.44,26 10.87,10.87 0 0 1 28.93,17.79 h 5.68"
       class="cls-28"
       inkscape:connector-curvature="0"
       style="fill:#476e4f" />
    <path
       id="path4823"
       transform="translate(-7.46,-7.24)"
       d="m 84.53,17.87 a 11,11 0 0 1 11,11 v 0 55.41 A 10.93,10.93 0 0 1 84.9,95.21 c -0.12,0 -3.87,0.06 -4,0.06 H 30.64 c -5.39,0 -11.3,-4.37 -11.3,-9.76 -0.67,0 -1.22,-12.9 -1.22,-13.57 V 29.28 A 12.93,12.93 0 0 1 18.5,26.09 10.85,10.85 0 0 1 29,17.87 h 6.15"
       class="cls-28"
       inkscape:connector-curvature="0"
       style="fill:#476e4f" />
    <path
       id="path4825"
       transform="translate(-7.46,-7.24)"
       d="m 84.49,17.93 a 11,11 0 0 1 11,11 v 0 55.31 a 10.91,10.91 0 0 1 -10.57,10.9 c -0.12,0 -3.85,0.06 -4,0.06 H 30.8 c -5.33,0 -11.31,-4.32 -11.31,-9.65 -0.73,0 -1.31,-12.8 -1.32,-13.53 V 29.36 A 13.09,13.09 0 0 1 18.55,26.17 10.83,10.83 0 0 1 29,17.93 h 6.63"
       class="cls-28"
       inkscape:connector-curvature="0"
       style="fill:#476e4f" />
    <path
       id="path4827"
       transform="translate(-7.46,-7.24)"
       d="m 84.44,18 a 11,11 0 0 1 10.95,10.93 v 0 55.26 A 10.89,10.89 0 0 1 84.86,95.07 c -0.13,0 -3.83,0.07 -4,0.07 H 31 c -5.27,0 -11.32,-4.27 -11.32,-9.54 -0.78,0 -1.41,-12.7 -1.41,-13.48 V 29.43 A 13.26,13.26 0 0 1 18.64,26.23 10.81,10.81 0 0 1 29.06,18 h 7.1"
       class="cls-28"
       inkscape:connector-curvature="0"
       style="fill:#476e4f" />
    <path
       id="path4829"
       transform="translate(-7.46,-7.24)"
       d="m 84.4,18 a 10.94,10.94 0 0 1 10.93,11 v 0 55.15 A 10.87,10.87 0 0 1 84.85,95 c -0.14,0 -3.8,0.07 -4,0.07 H 31.13 c -5.21,0 -11.32,-4.22 -11.32,-9.43 -0.83,0 -1.5,-12.6 -1.5,-13.43 V 29.51 A 13.43,13.43 0 0 1 18.68,26.31 10.79,10.79 0 0 1 29.11,18 h 7.57"
       class="cls-29"
       inkscape:connector-curvature="0"
       style="fill:#476f50" />
    <path
       id="path4831"
       transform="translate(-7.46,-7.24)"
       d="M 84.36,18.1 A 10.92,10.92 0 0 1 95.27,29 v 0 55.1 A 10.85,10.85 0 0 1 84.83,94.94 c -0.15,0 -3.78,0.07 -3.95,0.07 H 31.29 C 26.15,95 20,90.85 20,85.7 19.12,85.7 18.41,73.19 18.4,72.31 V 29.58 a 13.6,13.6 0 0 1 0.36,-3.2 10.77,10.77 0 0 1 10.39,-8.28 h 8"
       class="cls-29"
       inkscape:connector-curvature="0"
       style="fill:#476f50" />
    <path
       id="path4833"
       transform="translate(-7.46,-7.24)"
       d="m 84.31,18.16 a 10.91,10.91 0 0 1 10.9,10.9 v 0 55 A 10.82,10.82 0 0 1 84.82,94.88 c -0.16,0.05 -3.76,0.08 -3.93,0.08 H 31.45 c -5.08,0 -11.34,-4.12 -11.34,-9.2 -0.93,0 -1.69,-12.41 -1.69,-13.34 V 29.66 a 13.78,13.78 0 0 1 0.36,-3.2 10.75,10.75 0 0 1 10.42,-8.3 h 8.52"
       class="cls-29"
       inkscape:connector-curvature="0"
       style="fill:#476f50" />
    <path
       id="path4835"
       transform="translate(-7.46,-7.24)"
       d="M 84.27,18.22 A 10.89,10.89 0 0 1 95.15,29.1 v 0 V 84 A 10.8,10.8 0 0 1 84.8,94.81 c -0.17,0.05 -3.73,0.08 -3.92,0.08 H 31.61 c -5,0 -11.35,-4.07 -11.35,-9.09 -1,0 -1.78,-12.31 -1.79,-13.29 V 29.73 a 14,14 0 0 1 0.35,-3.2 10.73,10.73 0 0 1 10.41,-8.31 h 9"
       class="cls-30"
       inkscape:connector-curvature="0"
       style="fill:#486f50" />
    <path
       id="path4837"
       transform="translate(-7.46,-7.24)"
       d="m 84.23,18.28 a 10.88,10.88 0 0 1 10.86,10.86 v 0 V 84 a 10.78,10.78 0 0 1 -10.3,10.78 c -0.18,0.06 -3.71,0.09 -3.91,0.09 h -49.1 c -5,0 -11.36,-4 -11.36,-9 -1,0 -1.87,-12.21 -1.88,-13.25 V 29.81 a 14.15,14.15 0 0 1 0.35,-3.21 10.71,10.71 0 0 1 10.4,-8.32 h 9.47"
       class="cls-31"
       inkscape:connector-curvature="0"
       style="fill:#487050" />
    <path
       id="path4839"
       transform="translate(-7.46,-7.24)"
       d="M 84.18,18.34 A 10.86,10.86 0 0 1 95,29.18 v 0 54.74 A 10.76,10.76 0 0 1 84.77,94.68 c -0.19,0.06 -3.69,0.09 -3.89,0.09 H 31.94 c -4.9,0 -11.36,-4 -11.36,-8.87 -1.09,0 -2,-12.11 -2,-13.2 V 29.88 a 14.34,14.34 0 0 1 0.35,-3.21 10.69,10.69 0 0 1 10.39,-8.34 h 9.94"
       class="cls-31"
       inkscape:connector-curvature="0"
       style="fill:#487050" />
    <path
       id="path4841"
       transform="translate(-7.46,-7.24)"
       d="M 84.14,18.4 A 10.84,10.84 0 0 1 95,29.23 v 0 54.65 A 10.74,10.74 0 0 1 84.76,94.61 c -0.19,0.06 -3.67,0.1 -3.88,0.1 H 32.1 c -4.84,0 -11.37,-3.92 -11.37,-8.76 -1.14,0 -2.06,-12 -2.07,-13.16 V 30 A 14.54,14.54 0 0 1 19,26.75 10.67,10.67 0 0 1 29.38,18.4 h 10.41"
       class="cls-31"
       inkscape:connector-curvature="0"
       style="fill:#487050" />
    <path
       id="path4843"
       transform="translate(-7.46,-7.24)"
       d="m 84.1,18.45 a 10.83,10.83 0 0 1 10.81,10.82 v 0 54.56 A 10.72,10.72 0 0 1 84.74,94.54 c -0.2,0.06 -3.64,0.1 -3.87,0.1 H 32.26 c -4.78,0 -11.38,-3.87 -11.38,-8.65 -1.19,0 -2.16,-11.92 -2.16,-13.11 V 30 a 14.74,14.74 0 0 1 0.34,-3.21 10.66,10.66 0 0 1 10.36,-8.37 h 10.89"
       class="cls-31"
       inkscape:connector-curvature="0"
       style="fill:#487050" />
    <path
       id="path4845"
       transform="translate(-7.46,-7.24)"
       d="m 84.05,18.51 a 10.81,10.81 0 0 1 10.8,10.8 v 0 54.48 A 10.71,10.71 0 0 1 84.73,94.48 c -0.21,0.07 -3.62,0.1 -3.85,0.11 H 32.42 C 27.71,94.58 21,90.76 21,86 19.79,86 18.79,74.22 18.78,73 V 30.11 a 15,15 0 0 1 0.33,-3.21 10.64,10.64 0 0 1 10.35,-8.38 h 11.36"
       class="cls-31"
       inkscape:connector-curvature="0"
       style="fill:#487050" />
    <path
       id="path4847"
       transform="translate(-7.46,-7.24)"
       d="m 84,18.57 a 10.79,10.79 0 0 1 10.79,10.78 v 0 54.39 A 10.69,10.69 0 0 1 84.71,94.41 c -0.22,0.07 -3.6,0.11 -3.84,0.11 H 32.59 c -4.65,0 -11.39,-3.77 -11.39,-8.43 -1.3,0 -2.34,-11.72 -2.35,-13 V 30.18 A 15.16,15.16 0 0 1 19.17,27 10.62,10.62 0 0 1 29.51,18.61 h 11.83"
       class="cls-32"
       inkscape:connector-curvature="0"
       style="fill:#487150" />
    <path
       id="path4849"
       transform="translate(-7.46,-7.24)"
       d="m 84,18.63 a 10.78,10.78 0 0 1 10.73,10.76 v 0 54.31 a 10.67,10.67 0 0 1 -10,10.65 c -0.23,0.07 -3.57,0.11 -3.83,0.11 H 32.75 c -4.59,0 -11.4,-3.72 -11.4,-8.32 -1.35,0 -2.44,-11.62 -2.45,-13 V 30.26 A 15.38,15.38 0 0 1 19.22,27 10.6,10.6 0 0 1 29.55,18.59 h 12.3"
       class="cls-33"
       inkscape:connector-curvature="0"
       style="fill:#487151" />
    <path
       id="path4851"
       transform="translate(-7.46,-7.24)"
       d="m 83.92,18.69 a 10.76,10.76 0 0 1 10.75,10.74 v 0 54.22 a 10.65,10.65 0 0 1 -10,10.63 c -0.24,0.08 -3.55,0.12 -3.81,0.12 h -48 C 28.33,94.4 21.45,90.73 21.45,86.19 20.1,86.18 19,74.67 19,73.27 V 30.33 a 15.61,15.61 0 0 1 0.32,-3.22 10.58,10.58 0 0 1 10.28,-8.42 h 12.78"
       class="cls-33"
       inkscape:connector-curvature="0"
       style="fill:#487151" />
    <path
       id="path4853"
       transform="translate(-7.46,-7.24)"
       d="m 83.88,18.75 a 10.75,10.75 0 0 1 10.73,10.73 v 0 54.13 a 10.63,10.63 0 0 1 -9.94,10.61 c -0.25,0.08 -3.53,0.12 -3.8,0.12 H 33.07 C 28.6,94.34 21.65,90.72 21.65,86.24 20.2,86.23 19,74.81 19,73.36 v -43 A 15.84,15.84 0 0 1 19.32,27.14 10.56,10.56 0 0 1 29.63,18.7 H 42.9"
       class="cls-33"
       inkscape:connector-curvature="0"
       style="fill:#487151" />
    <path
       id="path4855"
       transform="translate(-7.46,-7.24)"
       d="m 83.84,18.8 a 10.73,10.73 0 0 1 10.71,10.72 v 0 54 a 10.61,10.61 0 0 1 -9.9,10.58 c -0.26,0.08 -3.5,0.13 -3.79,0.13 H 33.23 c -4.41,0 -11.43,-3.57 -11.43,-8 -1.5,0 -2.72,-11.33 -2.73,-12.83 v -43 a 16.07,16.07 0 0 1 0.31,-3.22 10.54,10.54 0 0 1 10.3,-8.45 h 13.73"
       class="cls-34"
       inkscape:connector-curvature="0"
       style="fill:#487251" />
    <path
       id="path4857"
       transform="translate(-7.46,-7.24)"
       d="m 83.79,18.86 a 10.71,10.71 0 0 1 10.7,10.7 v 0 54 a 10.59,10.59 0 0 1 -9.85,10.56 c -0.27,0.08 -3.48,0.13 -3.77,0.13 H 33.4 C 29,94.21 22,90.69 22,86.34 c -1.55,0 -2.81,-11.23 -2.82,-12.79 v -43 a 16.32,16.32 0 0 1 0.31,-3.22 10.52,10.52 0 0 1 10.29,-8.47 h 14.2"
       class="cls-34"
       inkscape:connector-curvature="0"
       style="fill:#487251" />
    <path
       id="path4859"
       transform="translate(-7.46,-7.24)"
       d="M 83.75,18.92 A 10.7,10.7 0 0 1 94.43,29.6 v 0 53.87 A 10.57,10.57 0 0 1 84.62,94 c -0.27,0.09 -3.46,0.13 -3.76,0.14 h -47.3 c -4.29,0 -11.44,-3.48 -11.44,-7.76 -1.61,0 -2.91,-11.13 -2.92,-12.74 v -43 a 16.57,16.57 0 0 1 0.3,-3.23 10.51,10.51 0 0 1 10.28,-8.48 h 14.67"
       class="cls-34"
       inkscape:connector-curvature="0"
       style="fill:#487251" />
    <path
       id="path4861"
       transform="translate(-7.46,-7.24)"
       d="m 83.71,19 a 10.68,10.68 0 0 1 10.66,10.64 v 0 53.79 A 10.55,10.55 0 0 1 84.6,93.95 c -0.28,0.09 -3.43,0.14 -3.75,0.14 H 33.72 c -4.23,0 -11.45,-3.43 -11.45,-7.65 -1.66,0 -3,-11 -3,-12.69 v -43 A 16.83,16.83 0 0 1 19.57,27.52 10.49,10.49 0 0 1 29.82,19 H 45"
       class="cls-35"
       inkscape:connector-curvature="0"
       style="fill:#497251" />
    <path
       id="path4863"
       transform="translate(-7.46,-7.24)"
       d="m 83.66,19 a 10.66,10.66 0 0 1 10.65,10.68 v 0 53.7 a 10.53,10.53 0 0 1 -9.72,10.5 c -0.29,0.09 -3.41,0.14 -3.73,0.15 h -47 c -4.16,0 -11.46,-3.38 -11.46,-7.54 -1.71,0 -3.09,-10.94 -3.1,-12.65 V 30.78 A 17.09,17.09 0 0 1 19.59,27.55 10.47,10.47 0 0 1 29.87,19 h 15.62"
       class="cls-36"
       inkscape:connector-curvature="0"
       style="fill:#497351" />
    <path
       id="path4865"
       transform="translate(-7.46,-7.24)"
       d="m 83.62,19.1 a 10.65,10.65 0 0 1 10.63,10.63 v 0 53.61 a 10.51,10.51 0 0 1 -9.67,10.48 c -0.3,0.1 -3.39,0.15 -3.72,0.15 H 34 c -4.1,0 -11.46,-3.33 -11.46,-7.43 -1.76,0 -3.19,-10.84 -3.2,-12.6 V 30.85 A 17.37,17.37 0 0 1 19.63,27.62 10.45,10.45 0 0 1 29.91,19.1 H 46"
       class="cls-36"
       inkscape:connector-curvature="0"
       style="fill:#497351" />
    <path
       id="path4867"
       transform="translate(-7.46,-7.24)"
       d="m 83.58,19.16 a 10.63,10.63 0 0 1 10.61,10.61 v 0 53.52 a 10.49,10.49 0 0 1 -9.63,10.46 c -0.31,0.1 -3.37,0.15 -3.71,0.15 H 34.21 c -4,0 -11.47,-3.28 -11.47,-7.32 -1.81,0 -3.28,-10.74 -3.29,-12.55 V 30.93 A 17.65,17.65 0 0 1 19.74,27.7 10.43,10.43 0 0 1 30,19.16 h 16.52"
       class="cls-36"
       inkscape:connector-curvature="0"
       style="fill:#497351" />
    <path
       id="path4869"
       transform="translate(-7.46,-7.24)"
       d="m 83.53,19.21 a 10.62,10.62 0 0 1 10.6,10.6 v 0 53.44 a 10.47,10.47 0 0 1 -9.58,10.44 c -0.32,0.1 -3.34,0.16 -3.69,0.16 H 34.37 c -4,0 -11.48,-3.23 -11.48,-7.21 C 21,86.62 19.51,76 19.5,74.12 V 31 A 17.94,17.94 0 0 1 19.78,27.77 10.42,10.42 0 0 1 30,19.21 h 17"
       class="cls-37"
       inkscape:connector-curvature="0"
       style="fill:#497352" />
    <path
       id="path4871"
       transform="translate(-7.46,-7.24)"
       d="m 83.49,19.27 a 10.6,10.6 0 0 1 10.58,10.58 v 0 53.35 a 10.46,10.46 0 0 1 -9.54,10.41 c -0.33,0.1 -3.32,0.16 -3.68,0.16 H 34.53 C 30.61,93.78 23,90.6 23,86.68 21.08,86.68 19.53,76.14 19.52,74.22 V 31.08 A 18.25,18.25 0 0 1 19.8,27.84 10.4,10.4 0 0 1 30,19.27 h 17.56"
       class="cls-37"
       inkscape:connector-curvature="0"
       style="fill:#497352" />
    <path
       id="path4873"
       transform="translate(-7.46,-7.24)"
       d="M 83.45,19.33 A 10.58,10.58 0 0 1 94,29.89 v 0 53.27 a 10.44,10.44 0 0 1 -9.5,10.39 c -0.34,0.11 -3.3,0.17 -3.67,0.17 H 34.69 c -3.86,0 -11.5,-3.13 -11.5,-7 -2,0 -3.56,-10.45 -3.57,-12.42 V 31.15 a 18.56,18.56 0 0 1 0.27,-3.24 10.38,10.38 0 0 1 10.2,-8.58 h 18"
       class="cls-38"
       inkscape:connector-curvature="0"
       style="fill:#497452" />
    <path
       id="path4875"
       transform="translate(-7.46,-7.24)"
       d="m 83.4,19.39 a 10.57,10.57 0 0 1 10.55,10.54 v 0 53.18 A 10.42,10.42 0 0 1 84.5,93.48 c -0.35,0.11 -3.27,0.17 -3.65,0.17 h -46 c -3.8,0 -11.5,-3.08 -11.5,-6.88 -2,0 -3.66,-10.35 -3.67,-12.37 V 31.23 A 18.88,18.88 0 0 1 20,28 10.36,10.36 0 0 1 30.19,19.4 h 18.4"
       class="cls-38"
       inkscape:connector-curvature="0"
       style="fill:#497452" />
    <path
       id="path4877"
       transform="translate(-7.46,-7.24)"
       d="M 83.36,19.45 A 10.55,10.55 0 0 1 93.89,30 v 0 53.07 a 10.4,10.4 0 0 1 -9.41,10.35 c -0.35,0.11 -3.25,0.17 -3.64,0.18 H 35 c -3.74,0 -11.51,-3 -11.51,-6.76 -2.07,0 -3.75,-10.25 -3.76,-12.32 V 31.3 A 19.21,19.21 0 0 1 20,28.06 10.35,10.35 0 0 1 30.18,19.45 h 18.93"
       class="cls-38"
       inkscape:connector-curvature="0"
       style="fill:#497452" />
    <path
       id="path4879"
       transform="translate(-7.46,-7.24)"
       d="M 83.32,19.51 A 10.53,10.53 0 0 1 93.83,30 v 0 53 a 10.38,10.38 0 0 1 -9.36,10.33 c -0.36,0.11 -3.23,0.18 -3.63,0.18 H 35.18 c -3.67,0 -11.52,-3 -11.52,-6.65 -2.12,0 -3.84,-10.15 -3.86,-12.28 v -43.2 a 19.55,19.55 0 0 1 0.26,-3.24 10.33,10.33 0 0 1 10.16,-8.63 h 19.4"
       class="cls-38"
       inkscape:connector-curvature="0"
       style="fill:#497452" />
    <path
       id="path4881"
       transform="translate(-7.46,-7.24)"
       d="m 83.27,19.57 a 10.52,10.52 0 0 1 10.5,10.49 v 0 V 83 a 10.36,10.36 0 0 1 -9.32,10.31 c -0.37,0.12 -3.2,0.18 -3.61,0.18 h -45.5 c -3.61,0 -11.53,-2.93 -11.53,-6.54 -2.18,0 -3.94,-10.05 -4,-12.23 V 31.45 a 19.91,19.91 0 0 1 0.25,-3.25 10.31,10.31 0 0 1 10.15,-8.64 h 19.94"
       class="cls-39"
       inkscape:connector-curvature="0"
       style="fill:#497552" />
    <path
       id="path4883"
       transform="translate(-7.46,-7.24)"
       d="M 83.23,19.62 A 10.5,10.5 0 0 1 93.71,30.1 v 0 52.83 a 10.35,10.35 0 0 1 -9.27,10.29 c -0.38,0.12 -3.18,0.19 -3.6,0.19 H 35.5 C 32,93.41 24,90.53 24,87 21.77,87 20,77 20,74.82 V 31.53 a 20.27,20.27 0 0 1 0.25,-3.25 10.3,10.3 0 0 1 10.14,-8.66 h 20.28"
       class="cls-39"
       inkscape:connector-curvature="0"
       style="fill:#497552" />
    <path
       id="path4885"
       transform="translate(-7.46,-7.24)"
       d="m 83.19,19.68 a 10.49,10.49 0 0 1 10.46,10.46 v 0 52.75 a 10.33,10.33 0 0 1 -9.23,10.27 35.1,35.1 0 0 1 -3.59,0.19 H 35.66 C 32.17,93.35 24.12,90.52 24.12,87.03 21.84,87 20,77.17 20,74.89 V 31.6 a 20.65,20.65 0 0 1 0.25,-3.25 10.28,10.28 0 0 1 10.13,-8.67 h 20.81"
       class="cls-39"
       inkscape:connector-curvature="0"
       style="fill:#497552" />
    <path
       id="path4887"
       transform="translate(-7.46,-7.24)"
       d="m 83.14,19.74 a 10.47,10.47 0 0 1 10.45,10.44 v 0 52.66 a 10.31,10.31 0 0 1 -9.19,10.24 34.06,34.06 0 0 1 -3.57,0.2 h -45 c -3.43,0 -11.55,-2.78 -11.55,-6.21 -2.33,0 -4.22,-9.76 -4.23,-12.09 v -43.3 a 21,21 0 0 1 0.24,-3.25 10.26,10.26 0 0 1 10.12,-8.69 H 51.7"
       class="cls-40"
       inkscape:connector-curvature="0"
       style="fill:#4a7552" />
    <path
       id="path4889"
       transform="translate(-7.46,-7.24)"
       d="m 83.1,19.8 a 10.45,10.45 0 0 1 10.43,10.43 v 0 52.57 A 10.29,10.29 0 0 1 84.39,93 33.07,33.07 0 0 1 80.83,93.2 H 36 c -3.37,0 -11.56,-2.73 -11.56,-6.1 -2.38,0 -4.31,-9.66 -4.33,-12 V 31.75 a 21.46,21.46 0 0 1 0.24,-3.25 10.25,10.25 0 0 1 10.11,-8.7 h 21.76"
       class="cls-41"
       inkscape:connector-curvature="0"
       style="fill:#4a7553" />
    <path
       id="path4891"
       transform="translate(-7.46,-7.24)"
       d="m 83.06,19.86 a 10.44,10.44 0 0 1 10.41,10.41 v 0 52.48 A 10.28,10.28 0 0 1 84.37,93 32.11,32.11 0 0 1 80.82,93.21 H 36.15 c -3.31,0 -11.57,-2.68 -11.57,-6 -2.44,0 -4.41,-9.56 -4.42,-12 V 31.83 a 21.88,21.88 0 0 1 0.23,-3.26 10.23,10.23 0 0 1 10.1,-8.71 h 22.25"
       class="cls-42"
       inkscape:connector-curvature="0"
       style="fill:#4a7653" />
    <path
       id="path4893"
       transform="translate(-7.46,-7.24)"
       d="m 83,19.92 a 10.42,10.42 0 0 1 10.41,10.39 v 0 52.4 a 10.26,10.26 0 0 1 -9,10.18 31.2,31.2 0 0 1 -3.53,0.21 H 36.31 c -3.25,0 -11.57,-2.63 -11.57,-5.88 -2.49,0 -4.5,-9.47 -4.51,-12 V 31.9 a 22.32,22.32 0 0 1 0.23,-3.26 10.21,10.21 0 0 1 10.09,-8.73 h 22.71"
       class="cls-42"
       inkscape:connector-curvature="0"
       style="fill:#4a7653" />
    <path
       id="path4895"
       transform="translate(-7.46,-7.24)"
       d="m 83,20 a 10.4,10.4 0 0 1 10.35,10.35 v 0 52.31 a 10.24,10.24 0 0 1 -9,10.16 30.33,30.33 0 0 1 -3.52,0.22 H 36.47 c -3.18,0 -11.58,-2.58 -11.58,-5.77 -2.54,0 -4.59,-9.37 -4.61,-11.91 V 32 A 22.78,22.78 0 0 1 20.5,28.74 10.2,10.2 0 0 1 30.59,20 h 23.19"
       class="cls-42"
       inkscape:connector-curvature="0"
       style="fill:#4a7653" />
    <path
       id="path4897"
       transform="translate(-7.46,-7.24)"
       d="m 82.93,20 a 10.39,10.39 0 0 1 10.35,10.39 v 0 52.23 a 10.22,10.22 0 0 1 -9,10.14 29.5,29.5 0 0 1 -3.51,0.22 H 36.64 C 33.51,93 25,90.44 25,87.32 c -2.59,0 -4.69,-9.27 -4.7,-11.86 V 32.05 A 23.25,23.25 0 0 1 20.52,28.79 10.18,10.18 0 0 1 30.63,20 h 23.66"
       class="cls-42"
       inkscape:connector-curvature="0"
       style="fill:#4a7653" />
    <path
       id="path4899"
       transform="translate(-7.46,-7.24)"
       d="m 82.88,20.09 a 10.37,10.37 0 0 1 10.34,10.34 v 0 52.14 a 10.21,10.21 0 0 1 -8.91,10.12 28.7,28.7 0 0 1 -3.5,0.22 h -44 c -3.06,0 -11.6,-2.48 -11.6,-5.54 -2.64,0 -4.78,-9.17 -4.8,-11.81 V 32.13 a 23.75,23.75 0 0 1 0.22,-3.26 10.17,10.17 0 0 1 10.05,-8.77 h 24.13"
       class="cls-43"
       inkscape:connector-curvature="0"
       style="fill:#4a7753" />
    <path
       id="path4901"
       transform="translate(-7.46,-7.24)"
       d="m 82.84,20.15 a 10.36,10.36 0 0 1 10.32,10.33 v 0 52 a 10.19,10.19 0 0 1 -8.87,10.1 27.93,27.93 0 0 1 -3.48,0.23 H 37 c -3,0 -11.6,-2.43 -11.6,-5.43 -2.69,0 -4.87,-9.07 -4.89,-11.77 V 32.2 a 24.26,24.26 0 0 1 0.21,-3.26 10.15,10.15 0 0 1 10,-8.79 h 24.61"
       class="cls-43"
       inkscape:connector-curvature="0"
       style="fill:#4a7753" />
    <path
       id="path4903"
       transform="translate(-7.46,-7.24)"
       d="m 82.8,20.21 a 10.34,10.34 0 0 1 10.3,10.31 v 0 52 a 10.17,10.17 0 0 1 -8.82,10.07 27.19,27.19 0 0 1 -3.47,0.23 H 37.12 c -2.94,0 -11.61,-2.38 -11.61,-5.32 -2.75,0 -5,-9 -5,-11.72 v -43.5 a 24.8,24.8 0 0 1 0.22,-3.28 10.13,10.13 0 0 1 10,-8.8 h 25.12"
       class="cls-43"
       inkscape:connector-curvature="0"
       style="fill:#4a7753" />
    <path
       id="path4905"
       transform="translate(-7.46,-7.24)"
       d="M 82.75,20.27 A 10.32,10.32 0 0 1 93,30.56 v 0 51.87 a 10.16,10.16 0 0 1 -8.78,10.05 26.48,26.48 0 0 1 -3.46,0.24 H 37.28 c -2.88,0 -11.62,-2.33 -11.62,-5.21 -2.8,0 -5.06,-8.88 -5.08,-11.67 V 32.35 a 25.36,25.36 0 0 1 0.2,-3.27 10.12,10.12 0 0 1 10,-8.82 h 25.59"
       class="cls-43"
       inkscape:connector-curvature="0"
       style="fill:#4a7753" />
    <path
       id="path4907"
       transform="translate(-7.46,-7.24)"
       d="M 82.71,20.33 A 10.31,10.31 0 0 1 93,30.6 v 0 51.79 a 10.14,10.14 0 0 1 -8.73,10 25.79,25.79 0 0 1 -3.44,0.24 H 37.45 c -2.82,0 -11.63,-2.28 -11.63,-5.1 -2.85,0 -5.16,-8.78 -5.17,-11.63 V 32.43 a 25.94,25.94 0 0 1 0.2,-3.27 10.1,10.1 0 0 1 10,-8.83 h 26"
       class="cls-44"
       inkscape:connector-curvature="0"
       style="fill:#4a7853" />
    <path
       id="path4909"
       transform="translate(-7.46,-7.24)"
       d="m 82.67,20.38 a 10.29,10.29 0 0 1 10.25,10.26 v 0 51.7 a 10.12,10.12 0 0 1 -8.69,10 25.13,25.13 0 0 1 -3.43,0.25 H 37.61 c -2.76,0 -11.64,-2.23 -11.64,-5 -2.9,0 -5.25,-8.68 -5.27,-11.58 V 32.5 a 26.55,26.55 0 0 1 0.19,-3.27 10.09,10.09 0 0 1 10,-8.85 H 57.4"
       class="cls-45"
       inkscape:connector-curvature="0"
       style="fill:#4a7854" />
    <path
       id="path4911"
       transform="translate(-7.46,-7.24)"
       d="m 82.62,20.44 a 10.27,10.27 0 0 1 10.24,10.24 v 0 51.62 a 10.11,10.11 0 0 1 -8.64,10 24.5,24.5 0 0 1 -3.42,0.25 h -43 c -2.69,0 -11.64,-2.18 -11.64,-4.88 -3,0 -5.34,-8.58 -5.36,-11.54 V 32.58 A 27.19,27.19 0 0 1 21,29.3 10.07,10.07 0 0 1 31,20.44 h 27"
       class="cls-46"
       inkscape:connector-curvature="0"
       style="fill:#4b7854" />
    <path
       id="path4913"
       transform="translate(-7.46,-7.24)"
       d="M 82.58,20.5 A 10.26,10.26 0 0 1 92.8,30.73 v 0 51.52 a 10.09,10.09 0 0 1 -8.6,10 23.89,23.89 0 0 1 -3.4,0.26 H 37.93 c -2.63,0 -11.65,-2.13 -11.65,-4.77 -3,0 -5.44,-8.48 -5.46,-11.49 V 32.65 A 27.86,27.86 0 0 1 21,29.38 10.06,10.06 0 0 1 31,20.5 h 27.44"
       class="cls-46"
       inkscape:connector-curvature="0"
       style="fill:#4b7854" />
    <path
       id="path4915"
       transform="translate(-7.46,-7.24)"
       d="m 82.54,20.56 a 10.24,10.24 0 0 1 10.2,10.21 v 0 51.44 a 10.08,10.08 0 0 1 -8.55,9.95 23.3,23.3 0 0 1 -3.39,0.26 H 38.09 c -2.57,0 -11.66,-2.09 -11.66,-4.66 -3.06,0 -5.53,-8.39 -5.55,-11.44 V 32.73 a 28.56,28.56 0 0 1 0.18,-3.28 10,10 0 0 1 10,-8.89 H 59"
       class="cls-46"
       inkscape:connector-curvature="0"
       style="fill:#4b7854" />
    <path
       id="path4917"
       transform="translate(-7.46,-7.24)"
       d="m 82.49,20.62 a 10.23,10.23 0 0 1 10.19,10.19 v 0 51.35 a 10.06,10.06 0 0 1 -8.51,9.93 22.73,22.73 0 0 1 -3.38,0.26 H 38.26 c -2.51,0 -11.67,-2 -11.67,-4.55 -3.11,0 -5.62,-8.29 -5.64,-11.4 V 32.8 a 29.29,29.29 0 0 1 0.18,-3.28 10,10 0 0 1 10,-8.9 h 28.4"
       class="cls-47"
       inkscape:connector-curvature="0"
       style="fill:#4b7954" />
    <path
       id="path4919"
       transform="translate(-7.46,-7.24)"
       d="m 82.45,20.68 a 10.21,10.21 0 0 1 10.17,10.17 v 0 51.27 A 10,10 0 0 1 84.16,92 22.18,22.18 0 0 1 80.8,92.27 H 38.42 c -2.45,0 -11.67,-2 -11.67,-4.44 -3.16,0 -5.72,-8.19 -5.74,-11.35 v -43.6 a 30.06,30.06 0 0 1 0.17,-3.28 10,10 0 0 1 9.94,-8.92 H 60"
       class="cls-47"
       inkscape:connector-curvature="0"
       style="fill:#4b7954" />
    <path
       id="path4921"
       transform="translate(-7.46,-7.24)"
       d="m 82.41,20.74 a 10.19,10.19 0 0 1 10.15,10.15 v 0 51.18 A 10,10 0 0 1 84.14,92 21.64,21.64 0 0 1 80.79,92.27 H 38.58 c -2.39,0 -11.68,-1.94 -11.68,-4.32 -3.21,0 -5.81,-8.09 -5.83,-11.3 V 33 a 30.87,30.87 0 0 1 0.17,-3.28 10,10 0 0 1 9.93,-8.93 h 29.34"
       class="cls-47"
       inkscape:connector-curvature="0"
       style="fill:#4b7954" />
    <path
       id="path4923"
       transform="translate(-7.46,-7.24)"
       d="M 82.36,20.79 A 10.18,10.18 0 0 1 92.5,30.93 v 0 V 82 a 10,10 0 0 1 -8.37,9.86 21.13,21.13 0 0 1 -3.34,0.28 h -42 c -2.33,0 -11.69,-1.89 -11.69,-4.21 -3.26,0 -5.91,-8 -5.93,-11.26 V 33 a 31.72,31.72 0 0 1 0.16,-3.28 10,10 0 0 1 9.92,-8.95 H 61"
       class="cls-47"
       inkscape:connector-curvature="0"
       style="fill:#4b7954" />
    <path
       id="path4925"
       transform="translate(-7.46,-7.24)"
       d="M 82.32,20.85 A 10.16,10.16 0 0 1 92.44,31 v 0 51 a 10,10 0 0 1 -8.33,9.84 20.63,20.63 0 0 1 -3.32,0.28 H 38.91 c -2.27,0 -11.7,-1.84 -11.7,-4.1 -3.32,0 -6,-7.9 -6,-11.21 V 33.1 a 32.62,32.62 0 0 1 0.16,-3.29 10,10 0 0 1 9.91,-9 h 30.27"
       class="cls-48"
       inkscape:connector-curvature="0"
       style="fill:#4b7a54" />
    <path
       id="path4927"
       transform="translate(-7.46,-7.24)"
       d="M 82.28,20.91 A 10.14,10.14 0 0 1 92.38,31 v 0 50.94 a 10,10 0 0 1 -8.28,9.82 20.15,20.15 0 0 1 -3.31,0.29 H 39.07 c -2.2,0 -11.71,-1.79 -11.71,-4 -3.37,0 -6.09,-7.8 -6.11,-11.17 v -43.7 c 0,-0.39 0.05,-2.93 0.16,-3.29 a 10,10 0 0 1 9.9,-9 h 30.75"
       class="cls-48"
       inkscape:connector-curvature="0"
       style="fill:#4b7a54" />
    <path
       id="path4929"
       transform="translate(-7.46,-7.24)"
       d="m 82.23,21 a 10.13,10.13 0 0 1 10.09,10.06 v 0 50.83 a 10,10 0 0 1 -8.24,9.8 19.69,19.69 0 0 1 -3.3,0.29 H 39.23 c -2.14,0 -11.71,-1.74 -11.71,-3.88 -3.42,0 -6.19,-7.7 -6.21,-11.12 V 33.25 c 0,-0.38 0.05,-2.94 0.15,-3.29 a 9.94,9.94 0 0 1 9.89,-9 h 31.23"
       class="cls-49"
       inkscape:connector-curvature="0"
       style="fill:#4b7a55" />
    <path
       id="path4931"
       transform="translate(-7.46,-7.24)"
       d="m 82.19,21 a 10.11,10.11 0 0 1 10.07,10.1 v 0 50.75 a 10,10 0 0 1 -8.19,9.78 19.24,19.24 0 0 1 -3.28,0.3 h -41.4 c -2.08,0 -11.72,-1.69 -11.72,-3.77 -3.47,0 -6.28,-7.6 -6.3,-11.07 V 33.33 c 0,-0.37 0,-3 0.15,-3.29 a 9.93,9.93 0 0 1 9.88,-9 h 31.7"
       class="cls-49"
       inkscape:connector-curvature="0"
       style="fill:#4b7a55" />
    <path
       id="path4933"
       transform="translate(-7.46,-7.24)"
       d="M 82.15,21.09 A 10.1,10.1 0 0 1 92.2,31.14 v 0 50.66 a 9.94,9.94 0 0 1 -8.15,9.76 18.8,18.8 0 0 1 -3.27,0.3 H 39.55 c -2,0 -11.73,-1.64 -11.73,-3.66 -3.52,0 -6.37,-7.5 -6.4,-11 V 33.4 c 0,-0.36 0,-3 0.14,-3.29 a 9.91,9.91 0 0 1 9.87,-9 h 32.19"
       class="cls-49"
       inkscape:connector-curvature="0"
       style="fill:#4b7a55" />
    <path
       id="path4935"
       transform="translate(-7.46,-7.24)"
       d="m 82.1,21.14 a 10.08,10.08 0 0 1 10,10 v 0 50.62 a 9.92,9.92 0 0 1 -8.1,9.73 18.38,18.38 0 0 1 -3.26,0.3 H 39.72 c -2,0 -11.74,-1.59 -11.74,-3.55 -3.58,0 -6.47,-7.41 -6.49,-11 V 33.47 c 0,-0.35 0,-3 0.14,-3.3 a 9.9,9.9 0 0 1 9.85,-9 h 32.66"
       class="cls-50"
       inkscape:connector-curvature="0"
       style="fill:#4b7b55" />
    <path
       id="path4937"
       transform="translate(-7.46,-7.24)"
       d="m 82.06,21.2 a 10.06,10.06 0 0 1 10,10 v 0 50.51 A 9.91,9.91 0 0 1 84,91.43 18,18 0 0 1 80.76,91.74 H 39.88 c -1.9,0 -11.74,-1.54 -11.74,-3.44 -3.63,0 -6.56,-7.31 -6.58,-10.93 V 33.55 c 0,-0.34 0,-3 0.13,-3.3 a 9.88,9.88 0 0 1 9.84,-9 h 33.12"
       class="cls-51"
       inkscape:connector-curvature="0"
       style="fill:#4c7b55" />
    <path
       id="path4939"
       transform="translate(-7.46,-7.24)"
       d="m 82,21.26 a 10,10 0 0 1 10,10 v 0 50.4 a 9.89,9.89 0 0 1 -8,9.69 17.57,17.57 0 0 1 -3.23,0.31 H 40 c -1.84,0 -11.75,-1.49 -11.75,-3.33 -3.68,0 -6.66,-7.21 -6.68,-10.89 V 33.62 c 0,-0.33 0,-3 0.13,-3.3 a 9.87,9.87 0 0 1 9.83,-9.06 h 33.6"
       class="cls-51"
       inkscape:connector-curvature="0"
       style="fill:#4c7b55" />
    <path
       id="path4941"
       transform="translate(-7.46,-7.24)"
       d="m 82,21.32 a 10,10 0 0 1 10,10 v 0 50.3 a 9.88,9.88 0 0 1 -8,9.67 17.18,17.18 0 0 1 -3.22,0.32 H 40.2 c -1.78,0 -11.76,-1.44 -11.76,-3.22 -3.73,0 -6.75,-7.11 -6.77,-10.84 V 33.7 c 0,-0.32 0,-3 0.13,-3.3 a 9.86,9.86 0 0 1 9.82,-9.08 h 34.07"
       class="cls-51"
       inkscape:connector-curvature="0"
       style="fill:#4c7b55" />
    <path
       id="path4943"
       transform="translate(-7.46,-7.24)"
       d="m 81.93,21.38 a 10,10 0 0 1 10,10 v 0 50.2 A 9.87,9.87 0 0 1 84,91.23 16.81,16.81 0 0 1 80.8,91.55 H 40.36 c -1.71,0 -11.77,-1.39 -11.77,-3.1 -3.78,0 -6.84,-7 -6.87,-10.8 V 33.77 c 0,-0.3 0,-3 0.12,-3.3 a 9.84,9.84 0 0 1 9.81,-9.09 h 34.56"
       class="cls-52"
       inkscape:connector-curvature="0"
       style="fill:#4c7c55" />
    <path
       id="path4945"
       transform="translate(-7.46,-7.24)"
       d="m 81.89,21.44 a 10,10 0 0 1 10,10 v 0 50.09 A 9.85,9.85 0 0 1 84,91.16 16.45,16.45 0 0 1 80.81,91.49 H 40.53 c -1.65,0 -11.78,-1.34 -11.78,-3 -3.83,0 -6.94,-6.92 -7,-10.75 V 33.85 c 0,-0.29 0,-3 0.12,-3.3 a 9.83,9.83 0 0 1 9.8,-9.11 h 35"
       class="cls-52"
       inkscape:connector-curvature="0"
       style="fill:#4c7c55" />
    <path
       id="path4947"
       transform="translate(-7.46,-7.24)"
       d="m 81.84,21.5 a 10,10 0 0 1 9.94,9.94 v 0 50.05 a 9.84,9.84 0 0 1 -7.84,9.61 16.09,16.09 0 0 1 -3.18,0.33 H 40.69 c -1.59,0 -11.78,-1.29 -11.78,-2.88 -3.89,0 -7,-6.82 -7.05,-10.7 V 33.92 c 0,-0.28 0,-3 0.11,-3.31 a 9.82,9.82 0 0 1 9.79,-9.12 h 35.5"
       class="cls-52"
       inkscape:connector-curvature="0"
       style="fill:#4c7c55" />
    <path
       id="path4949"
       transform="translate(-7.46,-7.24)"
       d="m 81.8,21.55 a 10,10 0 0 1 9.92,9.92 v 0 50 A 9.83,9.83 0 0 1 83.93,91 15.75,15.75 0 0 1 80.77,91.33 H 40.85 c -1.53,0 -11.79,-1.24 -11.79,-2.77 -3.94,0 -7.12,-6.72 -7.15,-10.66 V 34 c 0,-0.27 0,-3.06 0.11,-3.31 a 9.8,9.8 0 0 1 9.78,-9.14 h 36"
       class="cls-53"
       inkscape:connector-curvature="0"
       style="fill:#4c7c56" />
    <path
       id="path4951"
       transform="translate(-7.46,-7.24)"
       d="m 81.76,21.61 a 10,10 0 0 1 9.9,9.9 v 0 49.89 A 9.81,9.81 0 0 1 83.91,91 15.42,15.42 0 0 1 80.76,91.34 H 41 C 39.53,91.34 29.2,90.15 29.2,88.68 25.22,88.62 22,82 22,78 V 34 c 0,-0.26 0,-3.07 0.1,-3.31 a 9.79,9.79 0 0 1 9.77,-9.15 h 36.41"
       class="cls-54"
       inkscape:connector-curvature="0"
       style="fill:#4c7d56" />
    <path
       id="path4953"
       transform="translate(-7.46,-7.24)"
       d="m 81.71,21.67 a 9.93,9.93 0 0 1 9.89,9.89 v 0 49.79 a 9.8,9.8 0 0 1 -7.7,9.54 15.09,15.09 0 0 1 -3.14,0.34 H 41.17 c -1.41,0 -11.81,-1.14 -11.81,-2.55 -4,0 -7.31,-6.52 -7.34,-10.56 v -44 c 0,-0.25 0,-3.08 0.1,-3.31 a 9.78,9.78 0 0 1 9.75,-9.17 H 68.8"
       class="cls-54"
       inkscape:connector-curvature="0"
       style="fill:#4c7d56" />
    <path
       id="path4955"
       transform="translate(-7.46,-7.24)"
       d="m 81.67,21.73 a 9.92,9.92 0 0 1 9.87,9.87 v 0 49.71 a 9.79,9.79 0 0 1 -7.66,9.52 14.78,14.78 0 0 1 -3.12,0.35 H 41.34 c -1.35,0 -11.81,-1.09 -11.81,-2.44 -4.09,0 -7.41,-6.42 -7.43,-10.52 v -44 c 0,-0.24 0,-3.09 0.1,-3.31 a 9.76,9.76 0 0 1 9.74,-9.18 h 37.38"
       class="cls-54"
       inkscape:connector-curvature="0"
       style="fill:#4c7d56" />
    <path
       id="path4957"
       transform="translate(-7.46,-7.24)"
       d="m 81.63,21.79 a 9.9,9.9 0 0 1 9.85,9.85 v 0 49.62 a 9.77,9.77 0 0 1 -7.61,9.5 14.47,14.47 0 0 1 -3.11,0.35 H 41.5 c -1.29,0 -11.82,-1 -11.82,-2.33 -4.15,0 -7.5,-6.33 -7.52,-10.47 v -44 c 0,-0.23 0,-3.11 0.09,-3.32 A 9.75,9.75 0 0 1 32,21.79 h 37.84"
       class="cls-54"
       inkscape:connector-curvature="0"
       style="fill:#4c7d56" />
    <path
       id="path4959"
       transform="translate(-7.46,-7.24)"
       d="m 81.58,21.85 a 9.88,9.88 0 0 1 9.84,9.84 v 0 49.53 a 9.76,9.76 0 0 1 -7.57,9.48 14.17,14.17 0 0 1 -3.1,0.36 H 41.66 c -1.22,0 -11.83,-1 -11.83,-2.22 -4.2,0 -7.59,-6.23 -7.62,-10.43 v -44 c 0,-0.22 0,-3.12 0.09,-3.32 A 9.74,9.74 0 0 1 32,21.85 h 38.35"
       class="cls-54"
       inkscape:connector-curvature="0"
       style="fill:#4c7d56" />
    <path
       id="path4961"
       transform="translate(-7.46,-7.24)"
       d="m 81.54,21.91 a 9.87,9.87 0 0 1 9.82,9.82 v 0 49.44 a 9.75,9.75 0 0 1 -7.52,9.46 13.88,13.88 0 0 1 -3.08,0.36 H 41.82 C 40.66,91 30,90 30,88.89 c -4.25,0 -7.69,-6.13 -7.71,-10.38 V 34.45 c 0,-0.21 0,-3.13 0.08,-3.32 a 9.72,9.72 0 0 1 9.71,-9.22 h 38.79"
       class="cls-55"
       inkscape:connector-curvature="0"
       style="fill:#4c7e56" />
    <path
       id="path4963"
       transform="translate(-7.46,-7.24)"
       d="m 81.5,22 a 9.85,9.85 0 0 1 9.8,9.8 v 0 49.33 a 9.74,9.74 0 0 1 -7.48,9.44 13.6,13.6 0 0 1 -3.07,0.37 H 42 c -1.1,0 -11.85,-0.89 -11.85,-2 -4.3,0 -7.78,-6 -7.81,-10.33 V 34.52 c 0,-0.2 0,-3.14 0.08,-3.32 A 9.71,9.71 0 0 1 32.11,22 h 39.28"
       class="cls-56"
       inkscape:connector-curvature="0"
       style="fill:#4d7e56" />
    <path
       id="path4965"
       transform="translate(-7.46,-7.24)"
       d="m 81.45,22 a 9.84,9.84 0 0 1 9.79,9.79 v 0 49.29 a 9.73,9.73 0 0 1 -7.43,9.42 13.32,13.32 0 0 1 -3.06,0.37 h -38.6 c -1,0 -11.85,-0.84 -11.85,-1.89 -4.35,0 -7.87,-5.93 -7.9,-10.29 V 34.6 c 0,-0.19 0,-3.15 0.07,-3.32 A 9.7,9.7 0 0 1 32.15,22 h 39.76"
       class="cls-56"
       inkscape:connector-curvature="0"
       style="fill:#4d7e56" />
    <path
       id="path4967"
       transform="translate(-7.46,-7.24)"
       d="m 81.41,22.08 a 9.82,9.82 0 0 1 9.77,9.77 v 0 V 81 a 9.72,9.72 0 0 1 -7.39,9.39 13.05,13.05 0 0 1 -3,0.37 H 42.31 c -1,0 -11.86,-0.79 -11.86,-1.77 -4.4,0 -8,-5.84 -8,-10.24 V 34.67 c 0,-0.17 0,-3.17 0.07,-3.32 a 9.69,9.69 0 0 1 9.68,-9.27 h 40.23"
       class="cls-56"
       inkscape:connector-curvature="0"
       style="fill:#4d7e56" />
    <path
       id="path4969"
       transform="translate(-7.46,-7.24)"
       d="m 81.37,22.14 a 9.8,9.8 0 0 1 9.75,9.75 v 0 V 81 a 9.7,9.7 0 0 1 -7.34,9.37 12.79,12.79 0 0 1 -3,0.38 H 42.47 c -0.92,0 -11.87,-0.74 -11.87,-1.66 -4.46,0 -8.06,-5.74 -8.09,-10.19 V 34.75 c 0,-0.16 0,-3.18 0.06,-3.33 a 9.67,9.67 0 0 1 9.67,-9.28 h 40.7"
       class="cls-57"
       inkscape:connector-curvature="0"
       style="fill:#4d7f57" />
    <path
       id="path4971"
       transform="translate(-7.46,-7.24)"
       d="m 81.32,22.2 a 9.79,9.79 0 0 1 9.74,9.74 v 0 49 a 9.69,9.69 0 0 1 -7.3,9.35 12.54,12.54 0 0 1 -3,0.38 H 42.63 c -0.86,0 -11.88,-0.7 -11.88,-1.55 -4.51,0 -8.15,-5.64 -8.18,-10.15 V 34.82 c 0,-0.15 0,-3.19 0.06,-3.33 a 9.66,9.66 0 0 1 9.66,-9.3 h 41.17"
       class="cls-57"
       inkscape:connector-curvature="0"
       style="fill:#4d7f57" />
    <path
       id="path4973"
       transform="translate(-7.46,-7.24)"
       d="M 81.28,22.26 A 9.77,9.77 0 0 1 91,32 v 0 48.9 a 9.68,9.68 0 0 1 -7.25,9.33 12.29,12.29 0 0 1 -3,0.39 H 42.79 c -0.8,0 -11.88,-0.65 -11.88,-1.44 -4.56,0 -8.25,-5.54 -8.28,-10.1 V 34.9 c 0,-0.14 0,-3.2 0.06,-3.33 a 9.65,9.65 0 0 1 9.64,-9.31 H 74"
       class="cls-57"
       inkscape:connector-curvature="0"
       style="fill:#4d7f57" />
    <path
       id="path4975"
       transform="translate(-7.46,-7.24)"
       d="m 81.24,22.31 a 9.75,9.75 0 0 1 9.7,9.7 v 0 48.85 a 9.67,9.67 0 0 1 -7.21,9.31 12,12 0 0 1 -3,0.39 H 43 c -0.73,0 -11.89,-0.6 -11.89,-1.33 -4.61,0 -8.34,-5.44 -8.37,-10.06 V 35 c 0,-0.13 0,-3.21 0.05,-3.33 a 9.64,9.64 0 0 1 9.63,-9.33 H 74.5"
       class="cls-57"
       inkscape:connector-curvature="0"
       style="fill:#4d7f57" />
    <path
       id="path4977"
       transform="translate(-7.46,-7.24)"
       d="m 81.19,22.37 a 9.74,9.74 0 0 1 9.69,9.69 v 0 48.75 a 9.66,9.66 0 0 1 -7.16,9.29 11.81,11.81 0 0 1 -3,0.4 h -37.6 c -0.67,0 -11.9,-0.55 -11.9,-1.22 -4.66,0 -8.44,-5.35 -8.47,-10 V 35 c 0,-0.12 0,-3.22 0,-3.33 a 9.63,9.63 0 0 1 9.62,-9.34 H 75"
       class="cls-57"
       inkscape:connector-curvature="0"
       style="fill:#4d7f57" />
    <path
       id="path4979"
       transform="translate(-7.46,-7.24)"
       d="m 81.15,22.43 a 9.72,9.72 0 0 1 9.67,9.67 v 0 48.67 A 9.65,9.65 0 0 1 83.7,90 a 11.58,11.58 0 0 1 -3,0.4 H 43.28 c -0.61,0 -11.91,-0.5 -11.91,-1.11 -4.71,0 -8.53,-5.25 -8.56,-10 V 35.12 c 0,-0.11 0,-3.24 0,-3.34 a 9.61,9.61 0 0 1 9.61,-9.35 h 43.11"
       class="cls-58"
       inkscape:connector-curvature="0"
       style="fill:#4d8057" />
    <path
       id="path4981"
       transform="translate(-7.46,-7.24)"
       d="m 81.11,22.49 a 9.71,9.71 0 0 1 9.65,9.65 v 0 48.58 a 9.64,9.64 0 0 1 -7.08,9.28 11.36,11.36 0 0 1 -3,0.41 H 43.44 c -0.55,0 -11.92,-0.45 -11.92,-1 -4.77,0 -8.62,-5.15 -8.65,-9.92 V 35.2 c 0,-0.1 0,-3.25 0,-3.34 a 9.6,9.6 0 0 1 9.6,-9.37 h 43.58"
       class="cls-58"
       inkscape:connector-curvature="0"
       style="fill:#4d8057" />
    <path
       id="path4983"
       transform="translate(-7.46,-7.24)"
       d="m 81.06,22.55 a 9.69,9.69 0 0 1 9.63,9.63 v 0 48.5 a 9.63,9.63 0 0 1 -7,9.23 11.14,11.14 0 0 1 -2.94,0.41 H 43.6 c -0.49,0 -11.92,-0.4 -11.92,-0.89 -4.82,0 -8.72,-5.05 -8.75,-9.87 V 35.27 c 0,-0.09 0,-3.26 0,-3.34 a 9.59,9.59 0 0 1 9.59,-9.38 h 44"
       class="cls-58"
       inkscape:connector-curvature="0"
       style="fill:#4d8057" />
    <path
       id="path4985"
       transform="translate(-7.46,-7.24)"
       d="m 81,22.61 a 9.67,9.67 0 0 1 9.62,9.62 v 0 48.4 a 9.62,9.62 0 0 1 -7,9.2 10.92,10.92 0 0 1 -2.92,0.41 h -37 c -0.43,0 -11.93,-0.35 -11.93,-0.78 -4.87,0 -8.81,-5 -8.84,-9.82 V 35.35 c 0,-0.08 0,-3.27 0,-3.34 a 9.58,9.58 0 0 1 9.58,-9.4 h 44.58"
       class="cls-58"
       inkscape:connector-curvature="0"
       style="fill:#4d8057" />
    <path
       id="path4987"
       transform="translate(-7.46,-7.24)"
       d="m 81,22.67 a 9.66,9.66 0 0 1 9.6,9.6 v 0 48.32 a 9.61,9.61 0 0 1 -6.94,9.18 10.71,10.71 0 0 1 -2.91,0.42 H 43.93 c -0.37,0 -11.94,-0.3 -11.94,-0.67 -4.92,0 -8.9,-4.86 -8.94,-9.78 V 35.42 c 0,-0.07 0,-3.28 0,-3.34 a 9.57,9.57 0 0 1 9.57,-9.41 h 45"
       class="cls-59"
       inkscape:connector-curvature="0"
       style="fill:#4e8157" />
    <path
       id="path4989"
       transform="translate(-7.46,-7.24)"
       d="m 80.93,22.72 a 9.64,9.64 0 0 1 9.58,9.58 v 0 48.24 a 9.6,9.6 0 0 1 -6.89,9.16 10.51,10.51 0 0 1 -2.9,0.42 H 44.09 c -0.31,0 -11.95,-0.25 -11.95,-0.55 -5,0 -9,-4.76 -9,-9.73 V 35.5 c 0,-0.05 0,-3.3 0,-3.34 a 9.56,9.56 0 0 1 9.56,-9.43 h 45.42"
       class="cls-60"
       inkscape:connector-curvature="0"
       style="fill:#4e8158" />
    <path
       id="path4991"
       transform="translate(-7.46,-7.24)"
       d="m 80.89,22.78 a 9.62,9.62 0 0 1 9.57,9.57 v 0 48.15 a 9.6,9.6 0 0 1 -6.85,9.14 10.31,10.31 0 0 1 -2.88,0.43 H 44.25 c -0.24,0 -12,-0.2 -12,-0.44 -5,0 -9.09,-4.66 -9.12,-9.69 V 35.57 c 0,0 0,-3.31 0,-3.35 a 9.54,9.54 0 0 1 9.54,-9.44 h 45.97"
       class="cls-60"
       inkscape:connector-curvature="0"
       style="fill:#4e8158" />
    <path
       id="path4993"
       transform="translate(-7.46,-7.24)"
       d="m 80.84,22.84 a 9.61,9.61 0 0 1 9.55,9.55 v 0 48.06 A 9.59,9.59 0 0 1 83.59,89.57 10.11,10.11 0 0 1 80.72,90 H 44.41 c -0.18,0 -12,-0.15 -12,-0.33 -5.08,0 -9.19,-4.56 -9.22,-9.64 V 35.65 c 0,0 0,-3.32 0,-3.35 a 9.53,9.53 0 0 1 9.53,-9.46 h 46.44"
       class="cls-60"
       inkscape:connector-curvature="0"
       style="fill:#4e8158" />
    <path
       id="path4995"
       transform="translate(-7.46,-7.24)"
       d="m 80.8,22.9 a 9.59,9.59 0 0 1 9.53,9.53 v 0 48 a 9.58,9.58 0 0 1 -6.76,9.1 9.92,9.92 0 0 1 -2.86,0.44 H 44.58 c -0.12,0 -12,-0.1 -12,-0.22 A 9.62,9.62 0 0 1 23.27,80.16 V 35.72 c 0,0 0,-3.33 0,-3.35 a 9.52,9.52 0 0 1 9.52,-9.47 h 46.89"
       class="cls-61"
       inkscape:connector-curvature="0"
       style="fill:#4e8258" />
    <path
       style="fill:#4e8258"
       inkscape:connector-curvature="0"
       id="path4997"
       transform="translate(-7.46,-7.24)"
       d="m 80.76,23 a 9.58,9.58 0 0 1 9.52,9.52 v 0 47.84 a 9.57,9.57 0 0 1 -6.71,9.08 9.74,9.74 0 0 1 -2.84,0.44 h -36 c -0.06,0 -12,0 -12,-0.11 A 9.59,9.59 0 0 1 23.32,80.22 V 35.8 c 0,0 0,-3.34 0,-3.35 A 9.51,9.51 0 0 1 32.87,23 H 80.2"
       class="cls-61" />
    <path
       id="path4999"
       transform="translate(-7.46,-7.24)"
       d="m 32.91,23 h 47.8 a 9.56,9.56 0 0 1 9.5,9.5 v 47.8 a 9.56,9.56 0 0 1 -9.5,9.5 h -47.8 a 9.56,9.56 0 0 1 -9.5,-9.5 V 32.52 A 9.5,9.5 0 0 1 32.91,23 Z"
       class="cls-61"
       inkscape:connector-curvature="0"
       style="fill:#4e8258" />
  </g>
</svg>
