<?xml version="1.0" encoding="UTF-8" standalone="no"?>
<svg
   xmlns:dc="http://purl.org/dc/elements/1.1/"
   xmlns:cc="http://creativecommons.org/ns#"
   xmlns:rdf="http://www.w3.org/1999/02/22-rdf-syntax-ns#"
   xmlns:svg="http://www.w3.org/2000/svg"
   xmlns="http://www.w3.org/2000/svg"
   xmlns:sodipodi="http://sodipodi.sourceforge.net/DTD/sodipodi-0.dtd"
   xmlns:inkscape="http://www.inkscape.org/namespaces/inkscape"
   id="Слой_1"
   data-name="Слой 1"
   viewBox="0 0 98.7 98.7"
   version="1.1"
   sodipodi:docname="color2.svg"
   inkscape:version="0.92.1 r15371">
  <metadata
     id="metadata834">
    <rdf:RDF>
      <cc:Work
         rdf:about="">
        <dc:format>image/svg+xml</dc:format>
        <dc:type
           rdf:resource="http://purl.org/dc/dcmitype/StillImage" />
      </cc:Work>
    </rdf:RDF>
  </metadata>
  <sodipodi:namedview
     pagecolor="#ffffff"
     bordercolor="#666666"
     borderopacity="1"
     objecttolerance="10"
     gridtolerance="10"
     guidetolerance="10"
     inkscape:pageopacity="0"
     inkscape:pageshadow="2"
     inkscape:window-width="1920"
     inkscape:window-height="1031"
     id="namedview832"
     showgrid="false"
     inkscape:zoom="2.3910842"
     inkscape:cx="49.349998"
     inkscape:cy="49.349998"
     inkscape:window-x="0"
     inkscape:window-y="0"
     inkscape:window-maximized="1"
     inkscape:current-layer="Слой_1" />
  <defs
     id="defs421">
    <style
       id="style419">.cls-1{fill:#663151;}.cls-2{fill:#673152;}.cls-3{fill:#673252;}.cls-4{fill:#683253;}.cls-5{fill:#693253;}.cls-6{fill:#693354;}.cls-7{fill:#6a3354;}.cls-8{fill:#6a3355;}.cls-9{fill:#6b3355;}.cls-10{fill:#6b3455;}.cls-11{fill:#6c3456;}.cls-12{fill:#6d3457;}.cls-13{fill:#6d3557;}.cls-14{fill:#6e3557;}.cls-15{fill:#6e3558;}.cls-16{fill:#6f3558;}.cls-17{fill:#6f3659;}.cls-18{fill:#703659;}.cls-19{fill:#70365a;}.cls-20{fill:#71365a;}.cls-21{fill:#71375a;}.cls-22{fill:#72375b;}.cls-23{fill:#73375c;}.cls-24{fill:#73385c;}.cls-25{fill:#74385c;}.cls-26{fill:#74385d;}.cls-27{fill:#75385d;}.cls-28{fill:#75395e;}.cls-29{fill:#76395e;}.cls-30{fill:#77395f;}.cls-31{fill:#773a5f;}.cls-32{fill:#783a60;}.cls-33{fill:#793a60;}.cls-34{fill:#793b61;}.cls-35{fill:#7a3b61;}.cls-36{fill:#7a3b62;}.cls-37{fill:#7b3b62;}.cls-38{fill:#7b3c62;}.cls-39{fill:#7c3c63;}.cls-40{fill:#7d3c64;}.cls-41{fill:#7d3d64;}.cls-42{fill:#7e3d64;}.cls-43{fill:#7e3d65;}.cls-44{fill:#7f3d65;}.cls-45{fill:#7f3e66;}.cls-46{fill:#803e66;}.cls-47{fill:#803e67;}.cls-48{fill:#813e67;}.cls-49{fill:#813f67;}.cls-50{fill:#823f68;}.cls-51{fill:#833f69;}.cls-52{fill:#834069;}.cls-53{fill:#844069;}.cls-54{fill:#84406a;}.cls-55{fill:#85406a;}.cls-56{fill:#85416b;}.cls-57{fill:#86416b;}.cls-58{fill:#87416c;}.cls-59{fill:#87426c;}.cls-60{fill:#88426d;}.cls-61{fill:#89426d;}.cls-62{fill:#89436e;}.cls-63{fill:#8a436e;}.cls-64{fill:#8a436f;}.cls-65{fill:#8b436f;}.cls-66{fill:#8b446f;}.cls-67{fill:#8c4470;}.cls-68{fill:#8d4471;}.cls-69{fill:#8d4571;}.cls-70{fill:#8e4571;}.cls-71{fill:#8e4572;}.cls-72{fill:#8f4572;}.cls-73{fill:#8f4673;}.cls-74{fill:#904673;}.cls-75{fill:#904674;}.cls-76{fill:#914674;}.cls-77{fill:#914774;}.cls-78{fill:#924775;}.cls-79{fill:#934776;}.cls-80{fill:#934876;}.cls-81{fill:#944876;}.cls-82{fill:#944877;}.cls-83{fill:#954877;}.cls-84{fill:#954978;}.cls-85{fill:#964978;}.cls-86{fill:#974979;}.cls-87{fill:#974a79;}.cls-88{fill:#984a7a;}.cls-89{fill:#994a7a;}.cls-90{fill:#994a7b;}.cls-91{fill:#9a4b7b;}.cls-92{fill:#9a4b7c;}.cls-93{fill:#9b4b7c;}.cls-94{fill:#9c4c7d;}.cls-95{fill:#9d4c7e;}.cls-96{fill:#9e4d7e;}.cls-97{fill:#9e4d7f;}.cls-98{fill:#9f4d7f;}.cls-99{fill:#9f4d80;}.cls-100{fill:#a04e80;}.cls-101{fill:#a14e81;}.cls-102{fill:#a24f82;}.cls-103{fill:#a34f82;}.cls-104{fill:#a34f83;}.cls-105{fill:#a44f83;}.cls-106{fill:#a45084;}.cls-107{fill:#a55084;}.cls-108{fill:#a65085;}.cls-109{fill:#a65185;}.cls-110{fill:#a75185;}.cls-111{fill:#a75186;}.cls-112{fill:#a85186;}.cls-113{fill:#a85287;}.cls-114{fill:#a95287;}.cls-115{fill:#aa5288;}.cls-116{fill:#aa5388;}.cls-117{fill:#ab5389;}.cls-118{fill:#ac5389;}.cls-119{fill:#ac548a;}.cls-120{fill:#ad548a;}.cls-121{fill:#ad548b;}.cls-122{fill:#ae548b;}.cls-123{fill:#af558c;}.cls-124{fill:#b0558d;}.cls-125{fill:#b1568d;}.cls-126{fill:#b1568e;}.cls-127{fill:#b2568e;}.cls-128{fill:#b2568f;}.cls-129{fill:#b3578f;}.cls-130{fill:#b45790;}.cls-131{fill:#b55891;}.cls-132{fill:#b65891;}.cls-133{fill:#b65892;}.cls-134{fill:#b75892;}.cls-135{fill:#b75993;}.cls-136{fill:#b85993;}.cls-137{fill:#b95994;}.cls-138{fill:#b95a94;}.cls-139{fill:#ba5a95;}.cls-140{fill:#bb5a95;}.cls-141{fill:#bb5b96;}.cls-142{fill:#bc5b96;}.cls-143{fill:#bc5b97;}.cls-144{fill:#bd5b97;}.cls-145{fill:#bd5c97;}.cls-146{fill:#be5c98;}.cls-147{fill:#bf5c98;}.cls-148{fill:#bf5d99;}.cls-149{fill:#c05d99;}.cls-150{fill:#c05d9a;}.cls-151{fill:#c15d9a;}.cls-152{fill:#c25e9b;}.cls-153{fill:#c35e9c;}.cls-154{fill:#c45f9c;}.cls-155{fill:#c45f9d;}.cls-156{fill:#c55f9d;}.cls-157{fill:#c55f9e;}.cls-158{fill:#c6609e;}.cls-159{fill:#c7609f;}.cls-160{fill:#c861a0;}.cls-161{fill:#c961a0;}.cls-162{fill:#c961a1;}.cls-163{fill:#ca62a1;}.cls-164{fill:#ca62a2;}.cls-165{fill:#cb62a2;}</style>
  </defs>
  <title
     id="title423">color2</title>
  <g
     id="g11411">
    <path
       id="path425"
       transform="translate(-7.83,-7.78)"
       d="m 92.53,7.78 a 14,14 0 0 1 14,14 v 0 70.7 a 14,14 0 0 1 -14,14 h -70.7 a 14,14 0 0 1 -14,-14 v -70.7 a 13.91,13.91 0 0 1 13.82,-14"
       class="cls-1"
       inkscape:connector-curvature="0"
       style="fill:#663151" />
    <path
       id="path427"
       transform="translate(-7.83,-7.78)"
       d="m 92.46,7.87 a 14,14 0 0 1 14,14 v 0 70.54 a 14,14 0 0 1 -14,14 H 21.9 a 14,14 0 0 1 -14,-14 V 21.85 a 13.88,13.88 0 0 1 13.79,-14"
       class="cls-1"
       inkscape:connector-curvature="0"
       style="fill:#663151" />
    <path
       id="path429"
       transform="translate(-7.83,-7.78)"
       d="m 92.39,8 a 13.94,13.94 0 0 1 13.94,13.94 v 0 70.4 A 13.94,13.94 0 0 1 92.39,106.28 H 22 A 13.94,13.94 0 0 1 8,92.34 V 21.92 A 13.85,13.85 0 0 1 21.79,8"
       class="cls-2"
       inkscape:connector-curvature="0"
       style="fill:#673152" />
    <path
       id="path431"
       transform="translate(-7.83,-7.78)"
       d="M 92.32,8.07 A 13.92,13.92 0 0 1 106.24,22 v 0 70.27 A 13.92,13.92 0 0 1 92.32,106.19 H 22 A 13.92,13.92 0 0 1 8.12,92.27 V 22 A 13.83,13.83 0 0 1 21.86,8.07"
       class="cls-3"
       inkscape:connector-curvature="0"
       style="fill:#673252" />
    <path
       id="path433"
       transform="translate(-7.83,-7.78)"
       d="m 92.25,8.17 a 13.89,13.89 0 0 1 13.89,13.89 v 0 70.14 A 13.89,13.89 0 0 1 92.25,106.09 H 22.11 A 13.89,13.89 0 0 1 8.22,92.2 V 22.06 A 13.8,13.8 0 0 1 21.93,8.17"
       class="cls-4"
       inkscape:connector-curvature="0"
       style="fill:#683253" />
    <path
       id="path435"
       transform="translate(-7.83,-7.78)"
       d="M 92.18,8.26 A 13.86,13.86 0 0 1 106,22.13 v 0 70 A 13.86,13.86 0 0 1 92.18,106 h -70 A 13.86,13.86 0 0 1 8.32,92.13 v -70 A 13.77,13.77 0 0 1 22,8.26"
       class="cls-4"
       inkscape:connector-curvature="0"
       style="fill:#683253" />
    <path
       id="path437"
       transform="translate(-7.83,-7.78)"
       d="m 92.11,8.36 a 13.83,13.83 0 0 1 13.83,13.84 v 0 69.86 A 13.83,13.83 0 0 1 92.11,105.89 H 22.25 A 13.83,13.83 0 0 1 8.42,92.06 V 22.2 A 13.74,13.74 0 0 1 22.07,8.36"
       class="cls-5"
       inkscape:connector-curvature="0"
       style="fill:#693253" />
    <path
       id="path439"
       transform="translate(-7.83,-7.78)"
       d="m 92,8.46 a 13.81,13.81 0 0 1 13.81,13.81 v 0 V 92 A 13.81,13.81 0 0 1 92,105.79 H 22.32 A 13.81,13.81 0 0 1 8.51,92 V 22.27 A 13.72,13.72 0 0 1 22.14,8.46"
       class="cls-6"
       inkscape:connector-curvature="0"
       style="fill:#693354" />
    <path
       id="path441"
       transform="translate(-7.83,-7.78)"
       d="m 92,8.56 a 13.78,13.78 0 0 1 13.78,13.78 v 0 69.58 A 13.78,13.78 0 0 1 92,105.69 H 22.39 A 13.78,13.78 0 0 1 8.61,91.92 V 22.34 A 13.69,13.69 0 0 1 22.21,8.56"
       class="cls-7"
       inkscape:connector-curvature="0"
       style="fill:#6a3354" />
    <path
       id="path443"
       transform="translate(-7.83,-7.78)"
       d="m 91.9,8.66 a 13.75,13.75 0 0 1 13.75,13.75 v 0 69.44 A 13.75,13.75 0 0 1 91.9,105.6 H 22.46 A 13.75,13.75 0 0 1 8.71,91.85 V 22.41 A 13.66,13.66 0 0 1 22.28,8.66"
       class="cls-8"
       inkscape:connector-curvature="0"
       style="fill:#6a3355" />
    <path
       id="path445"
       transform="translate(-7.83,-7.78)"
       d="m 91.83,8.75 a 13.72,13.72 0 0 1 13.72,13.72 v 0 69.3 A 13.72,13.72 0 0 1 91.83,105.5 H 22.53 A 13.72,13.72 0 0 1 8.81,91.78 V 22.48 A 13.63,13.63 0 0 1 22.35,8.75"
       class="cls-9"
       inkscape:connector-curvature="0"
       style="fill:#6b3355" />
    <path
       id="path447"
       transform="translate(-7.83,-7.78)"
       d="m 91.76,8.85 a 13.7,13.7 0 0 1 13.7,13.7 v 0 69.16 a 13.7,13.7 0 0 1 -13.7,13.7 H 22.6 A 13.7,13.7 0 0 1 8.9,91.71 V 22.55 A 13.61,13.61 0 0 1 22.42,8.85"
       class="cls-10"
       inkscape:connector-curvature="0"
       style="fill:#6b3455" />
    <path
       id="path449"
       transform="translate(-7.83,-7.78)"
       d="m 91.69,8.95 a 13.67,13.67 0 0 1 13.67,13.67 v 0 69 A 13.67,13.67 0 0 1 91.69,105.3 h -69 A 13.67,13.67 0 0 1 9,91.64 v -69 A 13.58,13.58 0 0 1 22.49,8.95"
       class="cls-11"
       inkscape:connector-curvature="0"
       style="fill:#6c3456" />
    <path
       id="path451"
       transform="translate(-7.83,-7.78)"
       d="m 91.62,9 a 13.64,13.64 0 0 1 13.64,13.64 v 0 68.93 A 13.64,13.64 0 0 1 91.62,105.21 H 22.74 A 13.64,13.64 0 0 1 9.1,91.57 V 22.69 A 13.55,13.55 0 0 1 22.56,9"
       class="cls-11"
       inkscape:connector-curvature="0"
       style="fill:#6c3456" />
    <path
       id="path453"
       transform="translate(-7.83,-7.78)"
       d="m 91.55,9.14 a 13.61,13.61 0 0 1 13.61,13.61 v 0 68.75 A 13.61,13.61 0 0 1 91.55,105.11 H 22.81 A 13.61,13.61 0 0 1 9.2,91.5 V 22.76 A 13.52,13.52 0 0 1 22.63,9.14"
       class="cls-12"
       inkscape:connector-curvature="0"
       style="fill:#6d3457" />
    <path
       id="path455"
       transform="translate(-7.83,-7.78)"
       d="m 91.48,9.24 a 13.58,13.58 0 0 1 13.58,13.58 v 0 68.6 A 13.58,13.58 0 0 1 91.48,105 H 22.88 A 13.58,13.58 0 0 1 9.3,91.43 V 22.83 A 13.5,13.5 0 0 1 22.7,9.24"
       class="cls-13"
       inkscape:connector-curvature="0"
       style="fill:#6d3557" />
    <path
       id="path457"
       transform="translate(-7.83,-7.78)"
       d="M 91.41,9.34 A 13.56,13.56 0 0 1 105,22.9 v 0 68.46 A 13.56,13.56 0 0 1 91.44,104.92 H 22.95 A 13.56,13.56 0 0 1 9.39,91.36 V 22.9 A 13.47,13.47 0 0 1 22.77,9.34"
       class="cls-14"
       inkscape:connector-curvature="0"
       style="fill:#6e3557" />
    <path
       id="path459"
       transform="translate(-7.83,-7.78)"
       d="M 91.34,9.44 A 13.53,13.53 0 0 1 104.87,23 v 0 68.29 A 13.53,13.53 0 0 1 91.34,104.82 H 23 A 13.53,13.53 0 0 1 9.49,91.29 V 23 A 13.44,13.44 0 0 1 22.85,9.44"
       class="cls-15"
       inkscape:connector-curvature="0"
       style="fill:#6e3558" />
    <path
       id="path461"
       transform="translate(-7.83,-7.78)"
       d="M 91.27,9.53 A 13.5,13.5 0 0 1 104.77,23 v 0 68.22 a 13.5,13.5 0 0 1 -13.5,13.5 H 23.09 A 13.5,13.5 0 0 1 9.59,91.22 V 23 A 13.41,13.41 0 0 1 22.92,9.53"
       class="cls-16"
       inkscape:connector-curvature="0"
       style="fill:#6f3558" />
    <path
       id="path463"
       transform="translate(-7.83,-7.78)"
       d="m 91.2,9.63 a 13.47,13.47 0 0 1 13.47,13.47 v 0 68 A 13.47,13.47 0 0 1 91.2,104.62 h -68 A 13.47,13.47 0 0 1 9.69,91.15 v -68 A 13.39,13.39 0 0 1 23,9.63"
       class="cls-17"
       inkscape:connector-curvature="0"
       style="fill:#6f3659" />
    <path
       id="path465"
       transform="translate(-7.83,-7.78)"
       d="m 91.13,9.73 a 13.45,13.45 0 0 1 13.45,13.45 v 0 67.9 A 13.45,13.45 0 0 1 91.13,104.53 H 23.23 A 13.45,13.45 0 0 1 9.78,91.08 V 23.18 A 13.36,13.36 0 0 1 23.06,9.73"
       class="cls-18"
       inkscape:connector-curvature="0"
       style="fill:#703659" />
    <path
       id="path467"
       transform="translate(-7.83,-7.78)"
       d="m 91.06,9.83 a 13.42,13.42 0 0 1 13.42,13.42 v 0 V 91 A 13.42,13.42 0 0 1 91.06,104.42 H 23.3 A 13.42,13.42 0 0 1 9.88,91 V 23.25 A 13.33,13.33 0 0 1 23.13,9.83"
       class="cls-19"
       inkscape:connector-curvature="0"
       style="fill:#70365a" />
    <path
       id="path469"
       transform="translate(-7.83,-7.78)"
       d="m 91,9.93 a 13.39,13.39 0 0 1 13.39,13.39 v 0 67.62 A 13.39,13.39 0 0 1 91,104.33 H 23.37 A 13.39,13.39 0 0 1 10,90.94 V 23.32 A 13.3,13.3 0 0 1 23.2,9.93"
       class="cls-20"
       inkscape:connector-curvature="0"
       style="fill:#71365a" />
    <path
       id="path471"
       transform="translate(-7.83,-7.78)"
       d="m 90.92,10 a 13.36,13.36 0 0 1 13.36,13.36 v 0 67.51 A 13.36,13.36 0 0 1 90.92,104.23 H 23.44 A 13.36,13.36 0 0 1 10.08,90.87 V 23.39 A 13.28,13.28 0 0 1 23.27,10"
       class="cls-21"
       inkscape:connector-curvature="0"
       style="fill:#71375a" />
    <path
       id="path473"
       transform="translate(-7.83,-7.78)"
       d="m 90.85,10.12 a 13.33,13.33 0 0 1 13.33,13.33 v 0 67.35 A 13.33,13.33 0 0 1 90.85,104.13 H 23.51 A 13.33,13.33 0 0 1 10.18,90.8 V 23.46 A 13.25,13.25 0 0 1 23.34,10.12"
       class="cls-22"
       inkscape:connector-curvature="0"
       style="fill:#72375b" />
    <path
       id="path475"
       transform="translate(-7.83,-7.78)"
       d="m 90.78,10.22 a 13.31,13.31 0 0 1 13.31,13.31 v 0 67.2 A 13.31,13.31 0 0 1 90.78,104 H 23.58 A 13.31,13.31 0 0 1 10.27,90.73 V 23.53 A 13.22,13.22 0 0 1 23.41,10.22"
       class="cls-22"
       inkscape:connector-curvature="0"
       style="fill:#72375b" />
    <path
       id="path477"
       transform="translate(-7.83,-7.78)"
       d="M 90.71,10.32 A 13.28,13.28 0 0 1 104,23.6 v 0 67.06 A 13.28,13.28 0 0 1 90.72,103.94 H 23.65 A 13.28,13.28 0 0 1 10.37,90.66 V 23.6 A 13.19,13.19 0 0 1 23.48,10.32"
       class="cls-23"
       inkscape:connector-curvature="0"
       style="fill:#73375c" />
    <path
       id="path479"
       transform="translate(-7.83,-7.78)"
       d="m 90.64,10.41 a 13.25,13.25 0 0 1 13.25,13.25 v 0 66.93 A 13.25,13.25 0 0 1 90.64,103.84 H 23.72 A 13.25,13.25 0 0 1 10.47,90.59 V 23.67 A 13.17,13.17 0 0 1 23.55,10.41"
       class="cls-24"
       inkscape:connector-curvature="0"
       style="fill:#73385c" />
    <path
       id="path481"
       transform="translate(-7.83,-7.78)"
       d="m 90.57,10.51 a 13.22,13.22 0 0 1 13.22,13.22 v 0 66.79 A 13.22,13.22 0 0 1 90.57,103.74 H 23.79 A 13.22,13.22 0 0 1 10.57,90.52 V 23.74 A 13.14,13.14 0 0 1 23.62,10.51"
       class="cls-25"
       inkscape:connector-curvature="0"
       style="fill:#74385c" />
    <path
       id="path483"
       transform="translate(-7.83,-7.78)"
       d="m 90.5,10.61 a 13.2,13.2 0 0 1 13.2,13.2 v 0 66.64 a 13.2,13.2 0 0 1 -13.2,13.2 H 23.86 A 13.2,13.2 0 0 1 10.66,90.45 V 23.81 a 13.11,13.11 0 0 1 13,-13.2"
       class="cls-26"
       inkscape:connector-curvature="0"
       style="fill:#74385d" />
    <path
       id="path485"
       transform="translate(-7.83,-7.78)"
       d="m 90.43,10.71 a 13.17,13.17 0 0 1 13.17,13.17 v 0 66.5 A 13.17,13.17 0 0 1 90.43,103.55 H 23.93 A 13.17,13.17 0 0 1 10.76,90.38 v -66.5 a 13.08,13.08 0 0 1 13,-13.17"
       class="cls-27"
       inkscape:connector-curvature="0"
       style="fill:#75385d" />
    <path
       id="path487"
       transform="translate(-7.83,-7.78)"
       d="m 90.36,10.81 a 13.14,13.14 0 0 1 13.14,13.14 v 0 66.36 A 13.14,13.14 0 0 1 90.36,103.45 H 24 A 13.14,13.14 0 0 1 10.86,90.31 V 23.95 a 13.06,13.06 0 0 1 13,-13.14"
       class="cls-28"
       inkscape:connector-curvature="0"
       style="fill:#75395e" />
    <path
       id="path489"
       transform="translate(-7.83,-7.78)"
       d="M 90.29,10.9 A 13.11,13.11 0 0 1 103.4,24 v 0 66.24 A 13.11,13.11 0 0 1 90.29,103.35 H 24.07 A 13.11,13.11 0 0 1 11,90.24 V 24 A 13,13 0 0 1 23.9,10.9"
       class="cls-29"
       inkscape:connector-curvature="0"
       style="fill:#76395e" />
    <path
       id="path491"
       transform="translate(-7.83,-7.78)"
       d="m 90.22,11 a 13.09,13.09 0 0 1 13.08,13.09 v 0 66.08 A 13.09,13.09 0 0 1 90.21,103.26 H 24.14 A 13.09,13.09 0 0 1 11.05,90.17 V 24.09 A 13,13 0 0 1 24,11"
       class="cls-29"
       inkscape:connector-curvature="0"
       style="fill:#76395e" />
    <path
       id="path493"
       transform="translate(-7.83,-7.78)"
       d="m 90.15,11.1 a 13.06,13.06 0 0 1 13.06,13.06 v 0 65.94 A 13.06,13.06 0 0 1 90.15,103.16 H 24.21 A 13.06,13.06 0 0 1 11.15,90.1 V 24.16 A 13,13 0 0 1 24,11.1"
       class="cls-30"
       inkscape:connector-curvature="0"
       style="fill:#77395f" />
    <path
       id="path495"
       transform="translate(-7.83,-7.78)"
       d="m 90.08,11.2 a 13,13 0 0 1 13,13 v 0 65.8 a 13,13 0 0 1 -13,13 h -65.8 a 13,13 0 0 1 -13,-13 V 24.23 a 13,13 0 0 1 12.86,-13"
       class="cls-31"
       inkscape:connector-curvature="0"
       style="fill:#773a5f" />
    <path
       id="path497"
       transform="translate(-7.83,-7.78)"
       d="m 90,11.29 a 13,13 0 0 1 13,13 v 0 V 90 A 13,13 0 0 1 90,103 H 24.35 a 13,13 0 0 1 -13,-13 V 24.3 a 12.92,12.92 0 0 1 12.83,-13"
       class="cls-32"
       inkscape:connector-curvature="0"
       style="fill:#783a60" />
    <path
       id="path499"
       transform="translate(-7.83,-7.78)"
       d="m 89.94,11.39 a 13,13 0 0 1 13,13 v 0 65.5 a 13,13 0 0 1 -13,13 H 24.42 a 13,13 0 0 1 -13,-13 V 24.37 a 12.89,12.89 0 0 1 12.81,-13"
       class="cls-32"
       inkscape:connector-curvature="0"
       style="fill:#783a60" />
    <path
       id="path501"
       transform="translate(-7.83,-7.78)"
       d="m 89.87,11.49 a 13,13 0 0 1 12.95,12.95 v 0 65.38 A 13,13 0 0 1 89.87,102.77 H 24.49 A 13,13 0 0 1 11.54,89.82 V 24.44 A 12.86,12.86 0 0 1 24.32,11.49"
       class="cls-33"
       inkscape:connector-curvature="0"
       style="fill:#793a60" />
    <path
       id="path503"
       transform="translate(-7.83,-7.78)"
       d="m 89.8,11.59 a 12.92,12.92 0 0 1 12.92,12.92 v 0 65.24 A 12.92,12.92 0 0 1 89.8,102.66 H 24.56 A 12.92,12.92 0 0 1 11.64,89.75 V 24.51 A 12.84,12.84 0 0 1 24.39,11.59"
       class="cls-34"
       inkscape:connector-curvature="0"
       style="fill:#793b61" />
    <path
       id="path505"
       transform="translate(-7.83,-7.78)"
       d="m 89.73,11.68 a 12.89,12.89 0 0 1 12.89,12.89 v 0 65.1 A 12.89,12.89 0 0 1 89.73,102.56 H 24.63 A 12.89,12.89 0 0 1 11.74,89.68 v -65.1 a 12.81,12.81 0 0 1 12.72,-12.9"
       class="cls-35"
       inkscape:connector-curvature="0"
       style="fill:#7a3b61" />
    <path
       id="path507"
       transform="translate(-7.83,-7.78)"
       d="m 89.66,11.78 a 12.86,12.86 0 0 1 12.86,12.86 v 0 65 A 12.86,12.86 0 0 1 89.66,102.5 h -65 A 12.86,12.86 0 0 1 11.84,89.61 v -65 a 12.78,12.78 0 0 1 12.7,-12.86"
       class="cls-36"
       inkscape:connector-curvature="0"
       style="fill:#7a3b62" />
    <path
       id="path509"
       transform="translate(-7.83,-7.78)"
       d="m 89.59,11.88 a 12.84,12.84 0 0 1 12.84,12.84 v 0 64.82 A 12.84,12.84 0 0 1 89.59,102.38 H 24.77 A 12.84,12.84 0 0 1 11.93,89.54 V 24.72 A 12.75,12.75 0 0 1 24.6,11.88"
       class="cls-37"
       inkscape:connector-curvature="0"
       style="fill:#7b3b62" />
    <path
       id="path511"
       transform="translate(-7.83,-7.78)"
       d="m 89.52,12 a 12.81,12.81 0 0 1 12.81,12.81 v 0 64.66 A 12.81,12.81 0 0 1 89.52,102.28 H 24.84 A 12.81,12.81 0 0 1 12,89.47 V 24.79 A 12.73,12.73 0 0 1 24.67,12"
       class="cls-38"
       inkscape:connector-curvature="0"
       style="fill:#7b3c62" />
    <path
       id="path513"
       transform="translate(-7.83,-7.78)"
       d="m 89.45,12.08 a 12.78,12.78 0 0 1 12.78,12.78 v 0 64.54 A 12.78,12.78 0 0 1 89.45,102.18 H 24.91 A 12.78,12.78 0 0 1 12.13,89.4 V 24.86 A 12.7,12.7 0 0 1 24.74,12.08"
       class="cls-39"
       inkscape:connector-curvature="0"
       style="fill:#7c3c63" />
    <path
       id="path515"
       transform="translate(-7.83,-7.78)"
       d="m 89.38,12.17 a 12.75,12.75 0 0 1 12.75,12.75 v 0 64.4 A 12.75,12.75 0 0 1 89.38,102.07 H 25 A 12.75,12.75 0 0 1 12.23,89.33 V 24.93 A 12.67,12.67 0 0 1 24.82,12.17"
       class="cls-39"
       inkscape:connector-curvature="0"
       style="fill:#7c3c63" />
    <path
       id="path517"
       transform="translate(-7.83,-7.78)"
       d="M 89.31,12.27 A 12.72,12.72 0 0 1 102,25 v 0 64.26 A 12.72,12.72 0 0 1 89.31,102 H 25 A 12.72,12.72 0 0 1 12.33,89.26 V 25 A 12.64,12.64 0 0 1 24.89,12.27"
       class="cls-40"
       inkscape:connector-curvature="0"
       style="fill:#7d3c64" />
    <path
       id="path519"
       transform="translate(-7.83,-7.78)"
       d="m 89.24,12.37 a 12.7,12.7 0 0 1 12.7,12.7 v 0 64.12 a 12.7,12.7 0 0 1 -12.7,12.7 H 25.12 A 12.7,12.7 0 0 1 12.42,89.19 V 25.07 A 12.62,12.62 0 0 1 25,12.37"
       class="cls-41"
       inkscape:connector-curvature="0"
       style="fill:#7d3d64" />
    <path
       id="path521"
       transform="translate(-7.83,-7.78)"
       d="m 89.17,12.47 a 12.67,12.67 0 0 1 12.67,12.67 v 0 64 a 12.67,12.67 0 0 1 -12.67,12.67 h -64 A 12.67,12.67 0 0 1 12.52,89.12 v -64 A 12.59,12.59 0 0 1 25,12.47"
       class="cls-42"
       inkscape:connector-curvature="0"
       style="fill:#7e3d64" />
    <path
       id="path523"
       transform="translate(-7.83,-7.78)"
       d="m 89.1,12.56 a 12.64,12.64 0 0 1 12.64,12.64 v 0 V 89 A 12.64,12.64 0 0 1 89.1,101.69 H 25.26 A 12.64,12.64 0 0 1 12.62,89 V 25.21 A 12.56,12.56 0 0 1 25.1,12.56"
       class="cls-43"
       inkscape:connector-curvature="0"
       style="fill:#7e3d65" />
    <path
       id="path525"
       transform="translate(-7.83,-7.78)"
       d="m 89,12.66 a 12.61,12.61 0 0 1 12.61,12.61 v 0 V 89 A 12.61,12.61 0 0 1 89,101.59 H 25.33 A 12.61,12.61 0 0 1 12.72,89 V 25.28 A 12.53,12.53 0 0 1 25.17,12.66"
       class="cls-44"
       inkscape:connector-curvature="0"
       style="fill:#7f3d65" />
    <path
       id="path527"
       transform="translate(-7.83,-7.78)"
       d="m 89,12.76 a 12.59,12.59 0 0 1 12.59,12.59 v 0 63.56 A 12.59,12.59 0 0 1 89,101.49 H 25.4 A 12.59,12.59 0 0 1 12.81,88.91 V 25.35 A 12.51,12.51 0 0 1 25.24,12.76"
       class="cls-45"
       inkscape:connector-curvature="0"
       style="fill:#7f3e66" />
    <path
       id="path529"
       transform="translate(-7.83,-7.78)"
       d="m 88.89,12.86 a 12.56,12.56 0 0 1 12.56,12.56 v 0 63.42 A 12.56,12.56 0 0 1 88.89,101.4 H 25.47 A 12.56,12.56 0 0 1 12.91,88.84 V 25.42 a 12.48,12.48 0 0 1 12.4,-12.56"
       class="cls-46"
       inkscape:connector-curvature="0"
       style="fill:#803e66" />
    <path
       id="path531"
       transform="translate(-7.83,-7.78)"
       d="m 88.82,13 a 12.53,12.53 0 0 1 12.53,12.53 v 0 63.24 A 12.53,12.53 0 0 1 88.82,101.3 H 25.54 A 12.53,12.53 0 0 1 13,88.77 V 25.49 A 12.45,12.45 0 0 1 25.38,13"
       class="cls-47"
       inkscape:connector-curvature="0"
       style="fill:#803e67" />
    <path
       id="path533"
       transform="translate(-7.83,-7.78)"
       d="m 88.75,13.05 a 12.5,12.5 0 0 1 12.5,12.5 v 0 63.15 a 12.5,12.5 0 0 1 -12.5,12.5 H 25.61 A 12.5,12.5 0 0 1 13.11,88.7 V 25.56 a 12.42,12.42 0 0 1 12.34,-12.5"
       class="cls-48"
       inkscape:connector-curvature="0"
       style="fill:#813e67" />
    <path
       id="path535"
       transform="translate(-7.83,-7.78)"
       d="m 88.68,13.15 a 12.48,12.48 0 0 1 12.48,12.48 v 0 63 A 12.48,12.48 0 0 1 88.68,101.1 h -63 A 12.48,12.48 0 0 1 13.2,88.63 v -63 A 12.4,12.4 0 0 1 25.52,13.15"
       class="cls-49"
       inkscape:connector-curvature="0"
       style="fill:#813f67" />
    <path
       id="path537"
       transform="translate(-7.83,-7.78)"
       d="m 88.61,13.25 a 12.45,12.45 0 0 1 12.45,12.45 v 0 62.86 A 12.45,12.45 0 0 1 88.61,101 H 25.75 A 12.45,12.45 0 0 1 13.3,88.56 V 25.7 A 12.37,12.37 0 0 1 25.59,13.25"
       class="cls-50"
       inkscape:connector-curvature="0"
       style="fill:#823f68" />
    <path
       id="path539"
       transform="translate(-7.83,-7.78)"
       d="M 88.54,13.35 A 12.42,12.42 0 0 1 101,25.77 v 0 62.72 A 12.42,12.42 0 0 1 88.58,100.91 H 25.82 A 12.42,12.42 0 0 1 13.4,88.49 V 25.77 A 12.34,12.34 0 0 1 25.66,13.35"
       class="cls-50"
       inkscape:connector-curvature="0"
       style="fill:#823f68" />
    <path
       id="path541"
       transform="translate(-7.83,-7.78)"
       d="m 88.47,13.44 a 12.39,12.39 0 0 1 12.39,12.39 v 0 62.59 A 12.39,12.39 0 0 1 88.47,100.81 H 25.89 A 12.39,12.39 0 0 1 13.5,88.42 V 25.84 a 12.31,12.31 0 0 1 12.23,-12.4"
       class="cls-51"
       inkscape:connector-curvature="0"
       style="fill:#833f69" />
    <path
       id="path543"
       transform="translate(-7.83,-7.78)"
       d="m 88.4,13.54 a 12.36,12.36 0 0 1 12.36,12.36 v 0 62.45 A 12.36,12.36 0 0 1 88.4,100.71 H 26 A 12.36,12.36 0 0 1 13.6,88.35 V 25.91 A 12.28,12.28 0 0 1 25.8,13.54"
       class="cls-52"
       inkscape:connector-curvature="0"
       style="fill:#834069" />
    <path
       id="path545"
       transform="translate(-7.83,-7.78)"
       d="M 88.33,13.64 A 12.34,12.34 0 0 1 100.67,26 v 0 62.3 A 12.34,12.34 0 0 1 88.33,100.64 H 26 A 12.34,12.34 0 0 1 13.69,88.28 V 26 A 12.26,12.26 0 0 1 25.87,13.64"
       class="cls-53"
       inkscape:connector-curvature="0"
       style="fill:#844069" />
    <path
       id="path547"
       transform="translate(-7.83,-7.78)"
       d="M 88.26,13.74 A 12.31,12.31 0 0 1 100.57,26 v 0 62.21 A 12.31,12.31 0 0 1 88.26,100.52 H 26.1 A 12.31,12.31 0 0 1 13.79,88.21 V 26 A 12.23,12.23 0 0 1 25.94,13.74"
       class="cls-54"
       inkscape:connector-curvature="0"
       style="fill:#84406a" />
    <path
       id="path549"
       transform="translate(-7.83,-7.78)"
       d="m 88.19,13.83 a 12.28,12.28 0 0 1 12.28,12.28 v 0 62 a 12.28,12.28 0 0 1 -12.28,12.28 h -62 A 12.28,12.28 0 0 1 13.89,88.14 v -62 A 12.2,12.2 0 0 1 26,13.83"
       class="cls-55"
       inkscape:connector-curvature="0"
       style="fill:#85406a" />
    <path
       id="path551"
       transform="translate(-7.83,-7.78)"
       d="m 88.12,13.93 a 12.25,12.25 0 0 1 12.25,12.25 v 0 61.89 A 12.25,12.25 0 0 1 88.12,100.32 H 26.24 A 12.25,12.25 0 0 1 14,88.07 V 26.19 A 12.17,12.17 0 0 1 26.1,13.94"
       class="cls-56"
       inkscape:connector-curvature="0"
       style="fill:#85416b" />
    <path
       id="path553"
       transform="translate(-7.83,-7.78)"
       d="m 88,14 a 12.23,12.23 0 0 1 12.23,12.23 v 0 V 88 A 12.23,12.23 0 0 1 88,100.22 H 26.31 A 12.23,12.23 0 0 1 14.08,88 V 26.26 A 12.15,12.15 0 0 1 26.15,14"
       class="cls-57"
       inkscape:connector-curvature="0"
       style="fill:#86416b" />
    <path
       id="path555"
       transform="translate(-7.83,-7.78)"
       d="m 88,14.13 a 12.2,12.2 0 0 1 12.2,12.2 v 0 61.6 A 12.2,12.2 0 0 1 88,100.12 H 26.38 A 12.2,12.2 0 0 1 14.18,87.92 V 26.33 a 12.12,12.12 0 0 1 12,-12.2"
       class="cls-57"
       inkscape:connector-curvature="0"
       style="fill:#86416b" />
    <path
       id="path557"
       transform="translate(-7.83,-7.78)"
       d="m 87.91,14.23 a 12.17,12.17 0 0 1 12.17,12.17 v 0 61.46 A 12.17,12.17 0 0 1 87.91,100 H 26.45 A 12.17,12.17 0 0 1 14.28,87.86 V 26.4 a 12.09,12.09 0 0 1 12,-12.17"
       class="cls-58"
       inkscape:connector-curvature="0"
       style="fill:#87416c" />
    <path
       id="path559"
       transform="translate(-7.83,-7.78)"
       d="M 87.84,14.32 A 12.14,12.14 0 0 1 100,26.47 v 0 61.32 A 12.14,12.14 0 0 1 87.84,99.93 H 26.52 A 12.14,12.14 0 0 1 14.38,87.79 V 26.47 a 12.06,12.06 0 0 1 12,-12.14"
       class="cls-59"
       inkscape:connector-curvature="0"
       style="fill:#87426c" />
    <path
       id="path561"
       transform="translate(-7.83,-7.78)"
       d="m 87.77,14.42 a 12.11,12.11 0 0 1 12.11,12.12 v 0 61.18 A 12.11,12.11 0 0 1 87.77,99.83 H 26.59 A 12.11,12.11 0 0 1 14.47,87.72 V 26.54 a 12,12 0 0 1 12,-12.11"
       class="cls-60"
       inkscape:connector-curvature="0"
       style="fill:#88426d" />
    <path
       id="path563"
       transform="translate(-7.83,-7.78)"
       d="m 87.7,14.52 a 12.09,12.09 0 0 1 12.09,12.09 v 0 61 A 12.09,12.09 0 0 1 87.7,99.73 h -61 A 12.09,12.09 0 0 1 14.57,87.65 v -61 A 12,12 0 0 1 26.5,14.52"
       class="cls-60"
       inkscape:connector-curvature="0"
       style="fill:#88426d" />
    <path
       id="path565"
       transform="translate(-7.83,-7.78)"
       d="m 87.63,14.62 a 12.06,12.06 0 0 1 12.06,12.06 v 0 60.9 A 12.06,12.06 0 0 1 87.63,99.64 H 26.73 A 12.06,12.06 0 0 1 14.67,87.58 v -60.9 a 12,12 0 0 1 11.9,-12.06"
       class="cls-61"
       inkscape:connector-curvature="0"
       style="fill:#89426d" />
    <path
       id="path567"
       transform="translate(-7.83,-7.78)"
       d="m 87.56,14.71 a 12,12 0 0 1 12,12 v 0 60.8 a 12,12 0 0 1 -12,12 H 26.8 a 12,12 0 0 1 -12,-12 V 26.75 a 12,12 0 0 1 11.88,-12"
       class="cls-62"
       inkscape:connector-curvature="0"
       style="fill:#89436e" />
    <path
       id="path569"
       transform="translate(-7.83,-7.78)"
       d="m 87.49,14.81 a 12,12 0 0 1 12,12 v 0 60.63 a 12,12 0 0 1 -12,12 H 26.87 a 12,12 0 0 1 -12,-12 V 26.82 a 11.93,11.93 0 0 1 11.85,-12"
       class="cls-63"
       inkscape:connector-curvature="0"
       style="fill:#8a436e" />
    <path
       id="path571"
       transform="translate(-7.83,-7.78)"
       d="m 87.42,14.91 a 12,12 0 0 1 12,12 v 0 60.46 a 12,12 0 0 1 -12,12 H 26.94 a 12,12 0 0 1 -12,-12 V 26.89 a 11.9,11.9 0 0 1 11.82,-12"
       class="cls-64"
       inkscape:connector-curvature="0"
       style="fill:#8a436f" />
    <path
       id="path573"
       transform="translate(-7.83,-7.78)"
       d="M 87.35,15 A 12,12 0 0 1 99.3,27 v 0 60.3 A 12,12 0 0 1 87.35,99.24 H 27 A 12,12 0 0 1 15.06,87.3 V 27 a 11.87,11.87 0 0 1 11.8,-12"
       class="cls-65"
       inkscape:connector-curvature="0"
       style="fill:#8b436f" />
    <path
       id="path575"
       transform="translate(-7.83,-7.78)"
       d="M 87.28,15.11 A 11.92,11.92 0 0 1 99.2,27 v 0 60.2 A 11.92,11.92 0 0 1 87.28,99.15 H 27.08 A 11.92,11.92 0 0 1 15.16,87.23 V 27 A 11.84,11.84 0 0 1 26.93,15.11"
       class="cls-66"
       inkscape:connector-curvature="0"
       style="fill:#8b446f" />
    <path
       id="path577"
       transform="translate(-7.83,-7.78)"
       d="M 87.21,15.2 A 11.89,11.89 0 0 1 99.1,27.1 v 0 60.06 A 11.89,11.89 0 0 1 87.21,99 H 27.15 A 11.89,11.89 0 0 1 15.26,87.16 V 27.1 A 11.82,11.82 0 0 1 27,15.2"
       class="cls-67"
       inkscape:connector-curvature="0"
       style="fill:#8c4470" />
    <path
       id="path579"
       transform="translate(-7.83,-7.78)"
       d="M 87.14,15.3 A 11.87,11.87 0 0 1 99,27.17 v 0 59.92 A 11.87,11.87 0 0 1 87.14,99 H 27.22 A 11.87,11.87 0 0 1 15.35,87.09 V 27.17 A 11.79,11.79 0 0 1 27.07,15.3"
       class="cls-67"
       inkscape:connector-curvature="0"
       style="fill:#8c4470" />
    <path
       id="path581"
       transform="translate(-7.83,-7.78)"
       d="m 87.07,15.4 a 11.84,11.84 0 0 1 11.84,11.84 v 0 V 87 A 11.84,11.84 0 0 1 87.07,98.85 H 27.29 A 11.84,11.84 0 0 1 15.45,87 V 27.24 A 11.76,11.76 0 0 1 27.14,15.4"
       class="cls-68"
       inkscape:connector-curvature="0"
       style="fill:#8d4471" />
    <path
       id="path583"
       transform="translate(-7.83,-7.78)"
       d="m 87,15.5 a 11.81,11.81 0 0 1 11.81,11.81 v 0 59.64 A 11.81,11.81 0 0 1 87,98.76 H 27.36 A 11.81,11.81 0 0 1 15.55,86.95 V 27.31 A 11.73,11.73 0 0 1 27.21,15.5"
       class="cls-69"
       inkscape:connector-curvature="0"
       style="fill:#8d4571" />
    <path
       id="path585"
       transform="translate(-7.83,-7.78)"
       d="m 86.93,15.59 a 11.78,11.78 0 0 1 11.78,11.79 v 0 59.5 A 11.78,11.78 0 0 1 86.93,98.66 H 27.43 A 11.78,11.78 0 0 1 15.65,86.88 V 27.38 A 11.71,11.71 0 0 1 27.28,15.59"
       class="cls-70"
       inkscape:connector-curvature="0"
       style="fill:#8e4571" />
    <path
       id="path587"
       transform="translate(-7.83,-7.78)"
       d="m 86.86,15.69 a 11.75,11.75 0 0 1 11.75,11.76 v 0 59.36 A 11.75,11.75 0 0 1 86.86,98.56 H 27.5 A 11.75,11.75 0 0 1 15.75,86.81 V 27.45 A 11.68,11.68 0 0 1 27.35,15.7"
       class="cls-71"
       inkscape:connector-curvature="0"
       style="fill:#8e4572" />
    <path
       id="path589"
       transform="translate(-7.83,-7.78)"
       d="m 86.79,15.79 a 11.73,11.73 0 0 1 11.73,11.73 v 0 59.22 A 11.73,11.73 0 0 1 86.79,98.46 H 27.57 A 11.73,11.73 0 0 1 15.84,86.74 V 27.52 A 11.65,11.65 0 0 1 27.42,15.79"
       class="cls-72"
       inkscape:connector-curvature="0"
       style="fill:#8f4572" />
    <path
       id="path591"
       transform="translate(-7.83,-7.78)"
       d="m 86.72,15.89 a 11.7,11.7 0 0 1 11.7,11.7 v 0 59.08 a 11.7,11.7 0 0 1 -11.7,11.7 H 27.64 A 11.7,11.7 0 0 1 15.94,86.67 V 27.59 a 11.62,11.62 0 0 1 11.55,-11.7"
       class="cls-73"
       inkscape:connector-curvature="0"
       style="fill:#8f4673" />
    <path
       id="path593"
       transform="translate(-7.83,-7.78)"
       d="m 86.65,16 a 11.67,11.67 0 0 1 11.67,11.66 v 0 58.94 A 11.67,11.67 0 0 1 86.65,98.27 H 27.71 A 11.67,11.67 0 0 1 16,86.6 V 27.66 A 11.6,11.6 0 0 1 27.56,16"
       class="cls-74"
       inkscape:connector-curvature="0"
       style="fill:#904673" />
    <path
       id="path595"
       transform="translate(-7.83,-7.78)"
       d="m 86.58,16.08 a 11.64,11.64 0 0 1 11.64,11.65 v 0 58.8 A 11.64,11.64 0 0 1 86.58,98.17 H 27.78 A 11.64,11.64 0 0 1 16.14,86.53 V 27.73 A 11.57,11.57 0 0 1 27.63,16.08"
       class="cls-75"
       inkscape:connector-curvature="0"
       style="fill:#904674" />
    <path
       id="path597"
       transform="translate(-7.83,-7.78)"
       d="M 86.51,16.18 A 11.62,11.62 0 0 1 98.13,27.8 v 0 58.66 A 11.62,11.62 0 0 1 86.51,98.07 H 27.85 A 11.62,11.62 0 0 1 16.23,86.46 V 27.8 A 11.54,11.54 0 0 1 27.7,16.18"
       class="cls-76"
       inkscape:connector-curvature="0"
       style="fill:#914674" />
    <path
       id="path599"
       transform="translate(-7.83,-7.78)"
       d="M 86.44,16.28 A 11.59,11.59 0 0 1 98,27.87 v 0 58.52 A 11.59,11.59 0 0 1 86.44,98 H 27.92 A 11.59,11.59 0 0 1 16.33,86.39 V 27.87 A 11.51,11.51 0 0 1 27.77,16.28"
       class="cls-77"
       inkscape:connector-curvature="0"
       style="fill:#914774" />
    <path
       id="path601"
       transform="translate(-7.83,-7.78)"
       d="m 86.37,16.38 a 11.56,11.56 0 0 1 11.56,11.56 v 0 58.38 A 11.56,11.56 0 0 1 86.37,97.88 H 28 A 11.56,11.56 0 0 1 16.43,86.32 V 27.94 A 11.49,11.49 0 0 1 27.84,16.38"
       class="cls-78"
       inkscape:connector-curvature="0"
       style="fill:#924775" />
    <path
       id="path603"
       transform="translate(-7.83,-7.78)"
       d="M 86.3,16.47 A 11.53,11.53 0 0 1 97.83,28 v 0 58.25 A 11.53,11.53 0 0 1 86.3,97.78 H 28.06 A 11.53,11.53 0 0 1 16.53,86.25 V 28 A 11.46,11.46 0 0 1 27.91,16.47"
       class="cls-78"
       inkscape:connector-curvature="0"
       style="fill:#924775" />
    <path
       id="path605"
       transform="translate(-7.83,-7.78)"
       d="m 86.23,16.57 a 11.5,11.5 0 0 1 11.5,11.5 v 0 58.1 a 11.5,11.5 0 0 1 -11.5,11.5 H 28.13 A 11.5,11.5 0 0 1 16.63,86.17 V 28.08 A 11.43,11.43 0 0 1 28,16.57"
       class="cls-79"
       inkscape:connector-curvature="0"
       style="fill:#934776" />
    <path
       id="path607"
       transform="translate(-7.83,-7.78)"
       d="m 86.16,16.67 a 11.48,11.48 0 0 1 11.48,11.48 v 0 58 A 11.48,11.48 0 0 1 86.16,97.58 h -58 A 11.48,11.48 0 0 1 16.72,86.11 v -58 A 11.4,11.4 0 0 1 28.05,16.67"
       class="cls-80"
       inkscape:connector-curvature="0"
       style="fill:#934876" />
    <path
       id="path609"
       transform="translate(-7.83,-7.78)"
       d="m 86.09,16.77 a 11.45,11.45 0 0 1 11.45,11.45 v 0 V 86 A 11.45,11.45 0 0 1 86.09,97.49 H 28.27 A 11.45,11.45 0 0 1 16.82,86 V 28.22 a 11.38,11.38 0 0 1 11.3,-11.45"
       class="cls-81"
       inkscape:connector-curvature="0"
       style="fill:#944876" />
    <path
       id="path611"
       transform="translate(-7.83,-7.78)"
       d="m 86,16.86 a 11.42,11.42 0 0 1 11.44,11.43 v 0 V 86 A 11.42,11.42 0 0 1 86,97.39 H 28.34 A 11.42,11.42 0 0 1 16.92,86 V 28.29 A 11.35,11.35 0 0 1 28.19,16.86"
       class="cls-82"
       inkscape:connector-curvature="0"
       style="fill:#944877" />
    <path
       id="path613"
       transform="translate(-7.83,-7.78)"
       d="m 85.95,17 a 11.39,11.39 0 0 1 11.39,11.36 v 0 57.54 A 11.39,11.39 0 0 1 85.95,97.29 H 28.41 A 11.39,11.39 0 0 1 17,85.9 V 28.36 A 11.32,11.32 0 0 1 28.26,17"
       class="cls-83"
       inkscape:connector-curvature="0"
       style="fill:#954877" />
    <path
       id="path615"
       transform="translate(-7.83,-7.78)"
       d="m 85.88,17.06 a 11.37,11.37 0 0 1 11.37,11.37 v 0 57.4 A 11.37,11.37 0 0 1 85.88,97.19 H 28.48 A 11.37,11.37 0 0 1 17.11,85.83 V 28.43 A 11.29,11.29 0 0 1 28.33,17.06"
       class="cls-84"
       inkscape:connector-curvature="0"
       style="fill:#954978" />
    <path
       id="path617"
       transform="translate(-7.83,-7.78)"
       d="M 85.81,17.16 A 11.34,11.34 0 0 1 97.15,28.5 v 0 57.26 A 11.34,11.34 0 0 1 85.81,97.09 H 28.55 A 11.34,11.34 0 0 1 17.21,85.76 V 28.5 A 11.27,11.27 0 0 1 28.4,17.16"
       class="cls-85"
       inkscape:connector-curvature="0"
       style="fill:#964978" />
    <path
       id="path619"
       transform="translate(-7.83,-7.78)"
       d="m 85.74,17.26 a 11.31,11.31 0 0 1 11.31,11.31 v 0 57.12 A 11.31,11.31 0 0 1 85.74,97 H 28.62 A 11.31,11.31 0 0 1 17.31,85.69 V 28.57 A 11.24,11.24 0 0 1 28.47,17.26"
       class="cls-85"
       inkscape:connector-curvature="0"
       style="fill:#964978" />
    <path
       id="path621"
       transform="translate(-7.83,-7.78)"
       d="M 85.67,17.35 A 11.28,11.28 0 0 1 97,28.64 v 0 57 A 11.28,11.28 0 0 1 85.67,96.9 h -57 A 11.28,11.28 0 0 1 17.41,85.62 v -57 A 11.21,11.21 0 0 1 28.54,17.35"
       class="cls-86"
       inkscape:connector-curvature="0"
       style="fill:#974979" />
    <path
       id="path623"
       transform="translate(-7.83,-7.78)"
       d="m 85.6,17.45 a 11.26,11.26 0 0 1 11.26,11.26 v 0 56.84 A 11.26,11.26 0 0 1 85.6,96.8 H 28.76 A 11.26,11.26 0 0 1 17.5,85.55 V 28.71 A 11.18,11.18 0 0 1 28.61,17.45"
       class="cls-87"
       inkscape:connector-curvature="0"
       style="fill:#974a79" />
    <path
       id="path625"
       transform="translate(-7.83,-7.78)"
       d="m 85.53,17.55 a 11.23,11.23 0 0 1 11.23,11.23 v 0 56.7 A 11.23,11.23 0 0 1 85.53,96.7 H 28.83 A 11.23,11.23 0 0 1 17.6,85.48 V 28.78 A 11.16,11.16 0 0 1 28.68,17.55"
       class="cls-88"
       inkscape:connector-curvature="0"
       style="fill:#984a7a" />
    <path
       id="path627"
       transform="translate(-7.83,-7.78)"
       d="m 85.46,17.65 a 11.2,11.2 0 0 1 11.2,11.2 v 0 56.56 a 11.2,11.2 0 0 1 -11.2,11.2 H 28.9 A 11.2,11.2 0 0 1 17.7,85.41 V 28.85 a 11.13,11.13 0 0 1 11.06,-11.2"
       class="cls-88"
       inkscape:connector-curvature="0"
       style="fill:#984a7a" />
    <path
       id="path629"
       transform="translate(-7.83,-7.78)"
       d="M 85.42,17.7 A 11.18,11.18 0 0 1 96.6,28.89 v 0 56.47 A 11.18,11.18 0 0 1 85.44,96.54 H 29.06 A 11.19,11.19 0 0 1 17.85,85.46 c -0.05,0 -0.09,-14.08 -0.09,-14.13 V 28.92 a 11.25,11.25 0 0 1 0.43,-3.17 11.11,11.11 0 0 1 10.61,-8 h 0.47"
       class="cls-89"
       inkscape:connector-curvature="0"
       style="fill:#994a7a" />
    <path
       id="path631"
       transform="translate(-7.83,-7.78)"
       d="m 85.37,17.76 a 11.17,11.17 0 0 1 11.17,11.17 v 0 56.39 A 11.16,11.16 0 0 1 85.43,96.47 H 29.22 A 11.18,11.18 0 0 1 18,85.5 c -0.1,0 -0.19,-14 -0.19,-14.08 V 29 a 11.38,11.38 0 0 1 0.43,-3.17 11.09,11.09 0 0 1 10.6,-8.06 h 0.95"
       class="cls-90"
       inkscape:connector-curvature="0"
       style="fill:#994a7b" />
    <path
       id="path633"
       transform="translate(-7.83,-7.78)"
       d="M 85.33,17.82 A 11.15,11.15 0 0 1 96.48,29 v 0 56.3 A 11.14,11.14 0 0 1 85.41,96.41 h -56 A 11.18,11.18 0 0 1 18.16,85.55 c -0.16,0 -0.28,-13.88 -0.28,-14 V 29.07 A 11.5,11.5 0 0 1 18.3,25.9 11.07,11.07 0 0 1 28.89,17.83 h 1.42"
       class="cls-91"
       inkscape:connector-curvature="0"
       style="fill:#9a4b7b" />
    <path
       id="path635"
       transform="translate(-7.83,-7.78)"
       d="M 85.29,17.88 A 11.14,11.14 0 0 1 96.42,29 v 0 56.23 a 11.11,11.11 0 0 1 -11,11.12 c 0,0 -4.08,0 -4.12,0 H 29.55 c -5.94,0 -11.23,-4.82 -11.23,-10.76 -0.21,0 -0.37,-13.78 -0.38,-14 V 29.15 A 11.63,11.63 0 0 1 18.36,26 11,11 0 0 1 28.93,17.91 h 1.89"
       class="cls-92"
       inkscape:connector-curvature="0"
       style="fill:#9a4b7c" />
    <path
       id="path637"
       transform="translate(-7.83,-7.78)"
       d="m 85.24,17.94 a 11.12,11.12 0 0 1 11.12,11.11 v 0 56.13 a 11.09,11.09 0 0 1 -11,11.09 c 0,0 -4.06,0 -4.11,0 H 29.71 C 23.83,96.27 18.47,91.5 18.47,85.62 18.21,85.65 18,72 18,71.71 V 29.22 A 11.76,11.76 0 0 1 18.42,26 11,11 0 0 1 29,17.94 h 2.37"
       class="cls-93"
       inkscape:connector-curvature="0"
       style="fill:#9b4b7c" />
    <path
       id="path639"
       transform="translate(-7.83,-7.78)"
       d="m 85.2,18 a 11.1,11.1 0 0 1 11.1,11.1 v 0 56 A 11.07,11.07 0 0 1 85.37,96.21 c -0.05,0 -4,0 -4.09,0 H 29.87 c -5.82,0 -11.25,-4.72 -11.25,-10.53 -0.31,0 -0.56,-13.58 -0.56,-13.9 V 29.3 A 11.9,11.9 0 0 1 18.47,26.12 11,11 0 0 1 29,18 h 2.84"
       class="cls-93"
       inkscape:connector-curvature="0"
       style="fill:#9b4b7c" />
    <path
       id="path641"
       transform="translate(-7.83,-7.78)"
       d="m 85.16,18.06 a 11.09,11.09 0 0 1 11.08,11.08 v 0 56 a 11.05,11.05 0 0 1 -10.89,11 c -0.06,0 -4,0 -4.08,0 H 30 c -5.76,0 -11.25,-4.67 -11.25,-10.42 -0.36,0 -0.66,-13.49 -0.66,-13.85 v -42.5 a 12,12 0 0 1 0.41,-3.18 11,11 0 0 1 10.54,-8.13 h 3.31"
       class="cls-94"
       inkscape:connector-curvature="0"
       style="fill:#9c4c7d" />
    <path
       id="path643"
       transform="translate(-7.83,-7.78)"
       d="m 85.11,18.11 a 11.07,11.07 0 0 1 11.07,11.07 v 0 V 85 A 11,11 0 0 1 85.34,96 c -0.07,0 -4,0 -4.07,0 H 30.2 C 24.5,96 18.94,91.38 18.94,85.69 18.53,85.69 18.19,72.3 18.19,71.89 V 29.45 a 12.18,12.18 0 0 1 0.4,-3.18 11,11 0 0 1 10.53,-8.15 h 3.78"
       class="cls-94"
       inkscape:connector-curvature="0"
       style="fill:#9c4c7d" />
    <path
       id="path645"
       transform="translate(-7.83,-7.78)"
       d="m 85.07,18.17 a 11.05,11.05 0 0 1 11,11 v 0 V 85 a 11,11 0 0 1 -10.8,11 c -0.08,0 -4,0 -4.05,0 H 30.36 C 24.73,96 19.09,91.43 19.09,85.8 18.62,85.8 18.25,72.51 18.24,72.04 V 29.52 a 12.32,12.32 0 0 1 0.4,-3.19 10.94,10.94 0 0 1 10.52,-8.16 h 4.26"
       class="cls-95"
       inkscape:connector-curvature="0"
       style="fill:#9d4c7e" />
    <path
       id="path647"
       transform="translate(-7.83,-7.78)"
       d="m 85,18.23 a 11,11 0 0 1 11,11 v 0 V 85 A 11,11 0 0 1 85.25,96 c -0.09,0 -3.94,0 -4,0 H 30.52 C 24.95,96 19.24,91.48 19.24,85.91 18.72,85.91 18.3,72.72 18.3,72.2 V 29.59 A 12.47,12.47 0 0 1 18.69,26.4 10.92,10.92 0 0 1 29.2,18.23 h 4.73"
       class="cls-95"
       inkscape:connector-curvature="0"
       style="fill:#9d4c7e" />
    <path
       id="path649"
       transform="translate(-7.83,-7.78)"
       d="m 85,18.29 a 11,11 0 0 1 11,11 v 0 55.62 a 11,11 0 0 1 -10.71,11 c -0.1,0 -3.92,0 -4,0 H 30.68 c -5.51,0 -11.29,-4.47 -11.29,-10 -0.57,0 -1,-13.09 -1,-13.66 V 29.67 a 12.62,12.62 0 0 1 0.39,-3.19 10.9,10.9 0 0 1 10.5,-8.19 h 5.21"
       class="cls-96"
       inkscape:connector-curvature="0"
       style="fill:#9e4d7e" />
    <path
       id="path651"
       transform="translate(-7.83,-7.78)"
       d="m 84.94,18.35 a 11,11 0 0 1 11,11 v 0 55.52 A 11,11 0 0 1 85.28,95.81 c -0.11,0 -3.9,0.05 -4,0.05 H 30.84 c -5.45,0 -11.29,-4.42 -11.29,-9.87 -0.62,0 -1.12,-13 -1.13,-13.62 V 29.74 A 12.78,12.78 0 0 1 18.8,26.55 10.87,10.87 0 0 1 29.29,18.34 H 35"
       class="cls-97"
       inkscape:connector-curvature="0"
       style="fill:#9e4d7f" />
    <path
       id="path653"
       transform="translate(-7.83,-7.78)"
       d="m 84.9,18.41 a 11,11 0 0 1 11,11 v 0 55.41 A 10.93,10.93 0 0 1 85.26,95.74 c -0.12,0 -3.87,0.06 -4,0.06 H 31 c -5.39,0 -11.3,-4.37 -11.3,-9.76 -0.67,0 -1.22,-12.9 -1.22,-13.57 V 29.82 a 12.93,12.93 0 0 1 0.38,-3.19 10.85,10.85 0 0 1 10.48,-8.22 h 6.15"
       class="cls-98"
       inkscape:connector-curvature="0"
       style="fill:#9f4d7f" />
    <path
       id="path655"
       transform="translate(-7.83,-7.78)"
       d="m 84.85,18.47 a 11,11 0 0 1 11,11 v 0 55.31 a 10.91,10.91 0 0 1 -10.57,10.9 c -0.12,0 -3.85,0.06 -4,0.06 H 31.17 c -5.33,0 -11.31,-4.32 -11.31,-9.65 -0.73,0 -1.31,-12.8 -1.32,-13.53 V 29.89 A 13.09,13.09 0 0 1 18.92,26.7 10.83,10.83 0 0 1 29.38,18.47 H 36"
       class="cls-99"
       inkscape:connector-curvature="0"
       style="fill:#9f4d80" />
    <path
       id="path657"
       transform="translate(-7.83,-7.78)"
       d="m 84.81,18.52 a 11,11 0 0 1 10.95,10.95 v 0 55.26 A 10.89,10.89 0 0 1 85.23,95.61 c -0.13,0 -3.83,0.07 -4,0.07 H 31.33 C 26.06,95.68 20,91.41 20,86.14 c -0.78,0 -1.41,-12.7 -1.41,-13.48 V 30 a 13.26,13.26 0 0 1 0.37,-3.2 10.81,10.81 0 0 1 10.45,-8.25 h 7.1"
       class="cls-100"
       inkscape:connector-curvature="0"
       style="fill:#a04e80" />
    <path
       id="path659"
       transform="translate(-7.83,-7.78)"
       d="M 84.77,18.58 A 10.94,10.94 0 0 1 95.7,29.51 v 0 55.18 A 10.87,10.87 0 0 1 85.21,95.55 c -0.14,0 -3.8,0.07 -4,0.07 H 31.49 c -5.21,0 -11.32,-4.22 -11.32,-9.43 -0.83,0 -1.5,-12.6 -1.5,-13.43 V 30 a 13.43,13.43 0 0 1 0.37,-3.2 10.79,10.79 0 0 1 10.44,-8.26 H 37"
       class="cls-100"
       inkscape:connector-curvature="0"
       style="fill:#a04e80" />
    <path
       id="path661"
       transform="translate(-7.83,-7.78)"
       d="m 84.72,18.64 a 10.92,10.92 0 0 1 10.92,10.91 v 0 55.09 A 10.85,10.85 0 0 1 85.2,95.48 c -0.15,0 -3.78,0.07 -3.95,0.07 h -49.6 c -5.14,0 -11.33,-4.17 -11.33,-9.31 -0.88,0 -1.59,-12.51 -1.6,-13.39 V 30.12 a 13.6,13.6 0 0 1 0.36,-3.2 10.77,10.77 0 0 1 10.43,-8.28 h 8"
       class="cls-101"
       inkscape:connector-curvature="0"
       style="fill:#a14e81" />
    <path
       id="path663"
       transform="translate(-7.83,-7.78)"
       d="m 84.68,18.7 a 10.91,10.91 0 0 1 10.9,10.9 v 0 55 a 10.82,10.82 0 0 1 -10.4,10.81 c -0.16,0.05 -3.76,0.08 -3.93,0.08 H 31.82 c -5.08,0 -11.34,-4.12 -11.34,-9.2 -0.93,0 -1.69,-12.41 -1.69,-13.34 V 30.19 a 13.78,13.78 0 0 1 0.36,-3.2 10.75,10.75 0 0 1 10.41,-8.29 h 8.52"
       class="cls-101"
       inkscape:connector-curvature="0"
       style="fill:#a14e81" />
    <path
       id="path665"
       transform="translate(-7.83,-7.78)"
       d="m 84.64,18.76 a 10.89,10.89 0 0 1 10.88,10.88 v 0 54.91 A 10.8,10.8 0 0 1 85.17,95.35 C 85,95.4 81.44,95.43 81.25,95.43 H 32 c -5,0 -11.35,-4.07 -11.35,-9.09 -1,0 -1.78,-12.31 -1.79,-13.29 V 30.27 a 14,14 0 0 1 0.35,-3.2 10.73,10.73 0 0 1 10.41,-8.31 h 9"
       class="cls-102"
       inkscape:connector-curvature="0"
       style="fill:#a24f82" />
    <path
       id="path667"
       transform="translate(-7.83,-7.78)"
       d="m 84.59,18.82 a 10.88,10.88 0 0 1 10.87,10.86 v 0 54.82 a 10.78,10.78 0 0 1 -10.3,10.78 c -0.18,0.06 -3.71,0.09 -3.91,0.09 H 32.14 c -5,0 -11.36,-4 -11.36,-9 -1,0 -1.87,-12.21 -1.88,-13.25 V 30.34 a 14.15,14.15 0 0 1 0.35,-3.21 10.71,10.71 0 0 1 10.4,-8.32 h 9.47"
       class="cls-102"
       inkscape:connector-curvature="0"
       style="fill:#a24f82" />
    <path
       id="path669"
       transform="translate(-7.83,-7.78)"
       d="M 84.55,18.87 A 10.86,10.86 0 0 1 95.4,29.72 v 0 54.74 A 10.76,10.76 0 0 1 85.14,95.21 c -0.19,0.06 -3.69,0.09 -3.89,0.09 H 32.3 c -4.9,0 -11.36,-4 -11.36,-8.87 -1.09,0 -2,-12.11 -2,-13.2 V 30.42 a 14.34,14.34 0 0 1 0.35,-3.21 10.69,10.69 0 0 1 10.41,-8.34 h 9.94"
       class="cls-103"
       inkscape:connector-curvature="0"
       style="fill:#a34f82" />
    <path
       id="path671"
       transform="translate(-7.83,-7.78)"
       d="m 84.51,18.93 a 10.84,10.84 0 0 1 10.83,10.83 v 0 54.65 A 10.74,10.74 0 0 1 85.12,95.15 c -0.19,0.06 -3.67,0.1 -3.88,0.1 H 32.46 C 27.62,95.25 21.09,91.33 21.09,86.49 20,86.48 19,74.47 19,73.33 V 30.49 a 14.54,14.54 0 0 1 0.34,-3.21 10.67,10.67 0 0 1 10.38,-8.35 h 10.43"
       class="cls-104"
       inkscape:connector-curvature="0"
       style="fill:#a34f83" />
    <path
       id="path673"
       transform="translate(-7.83,-7.78)"
       d="m 84.46,19 a 10.83,10.83 0 0 1 10.82,10.8 v 0 54.57 A 10.72,10.72 0 0 1 85.11,95.08 c -0.2,0.06 -3.64,0.1 -3.87,0.1 H 32.63 c -4.78,0 -11.38,-3.87 -11.38,-8.65 -1.19,0 -2.16,-11.92 -2.16,-13.11 V 30.57 A 14.74,14.74 0 0 1 19.43,27.36 10.66,10.66 0 0 1 29.79,19 h 10.88"
       class="cls-105"
       inkscape:connector-curvature="0"
       style="fill:#a44f83" />
    <path
       id="path675"
       transform="translate(-7.83,-7.78)"
       d="m 84.42,19.05 a 10.81,10.81 0 0 1 10.8,10.8 v 0 54.47 A 10.71,10.71 0 0 1 85.09,95 c -0.21,0.07 -3.62,0.1 -3.85,0.11 H 32.79 c -4.72,0 -11.39,-3.82 -11.39,-8.54 -1.24,0 -2.25,-11.82 -2.26,-13.06 V 30.64 a 15,15 0 0 1 0.33,-3.21 10.64,10.64 0 0 1 10.35,-8.38 h 11.37"
       class="cls-106"
       inkscape:connector-curvature="0"
       style="fill:#a45084" />
    <path
       id="path677"
       transform="translate(-7.83,-7.78)"
       d="m 84.38,19.11 a 10.79,10.79 0 0 1 10.77,10.78 v 0 54.39 A 10.69,10.69 0 0 1 85.08,94.95 c -0.22,0.07 -3.6,0.11 -3.84,0.11 H 33 c -4.65,0 -11.39,-3.77 -11.39,-8.43 -1.3,0 -2.34,-11.72 -2.35,-13 V 30.72 a 15.16,15.16 0 0 1 0.33,-3.21 10.62,10.62 0 0 1 10.34,-8.39 h 11.78"
       class="cls-107"
       inkscape:connector-curvature="0"
       style="fill:#a55084" />
    <path
       id="path679"
       transform="translate(-7.83,-7.78)"
       d="m 84.33,19.17 a 10.78,10.78 0 0 1 10.76,10.76 v 0 54.3 a 10.67,10.67 0 0 1 -10,10.65 c -0.23,0.07 -3.57,0.11 -3.83,0.11 H 33.11 c -4.59,0 -11.4,-3.72 -11.4,-8.32 -1.35,0 -2.44,-11.62 -2.45,-13 V 30.79 a 15.38,15.38 0 0 1 0.32,-3.22 10.6,10.6 0 0 1 10.33,-8.41 h 12.3"
       class="cls-107"
       inkscape:connector-curvature="0"
       style="fill:#a55084" />
    <path
       id="path681"
       transform="translate(-7.83,-7.78)"
       d="M 84.29,19.23 A 10.76,10.76 0 0 1 95,30 v 0 54.19 A 10.65,10.65 0 0 1 85,94.82 c -0.24,0.08 -3.55,0.12 -3.81,0.12 h -48 c -4.53,0 -11.41,-3.67 -11.41,-8.21 -1.4,0 -2.53,-11.53 -2.54,-12.92 V 30.87 A 15.61,15.61 0 0 1 19.56,27.65 10.58,10.58 0 0 1 30,19.23 h 12.74"
       class="cls-108"
       inkscape:connector-curvature="0"
       style="fill:#a65085" />
    <path
       id="path683"
       transform="translate(-7.83,-7.78)"
       d="M 84.25,19.28 A 10.75,10.75 0 0 1 95,30 v 0 54.14 A 10.63,10.63 0 0 1 85,94.75 c -0.25,0.08 -3.53,0.12 -3.8,0.12 H 33.44 C 29,94.87 22,91.25 22,86.78 20.55,86.78 19.38,75.35 19.37,73.9 v -43 A 15.84,15.84 0 0 1 19.69,27.68 10.56,10.56 0 0 1 30,19.28 h 13.26"
       class="cls-109"
       inkscape:connector-curvature="0"
       style="fill:#a65185" />
    <path
       id="path685"
       transform="translate(-7.83,-7.78)"
       d="m 84.2,19.34 a 10.73,10.73 0 0 1 10.71,10.71 v 0 54 A 10.61,10.61 0 0 1 85,94.68 c -0.26,0.08 -3.5,0.13 -3.79,0.13 H 33.6 c -4.41,0 -11.43,-3.57 -11.43,-8 -1.5,0 -2.72,-11.33 -2.73,-12.83 V 31 a 16.07,16.07 0 0 1 0.31,-3.22 10.54,10.54 0 0 1 10.3,-8.45 h 13.73"
       class="cls-110"
       inkscape:connector-curvature="0"
       style="fill:#a75185" />
    <path
       id="path687"
       transform="translate(-7.83,-7.78)"
       d="m 84.16,19.4 a 10.71,10.71 0 0 1 10.7,10.7 v 0 54 A 10.59,10.59 0 0 1 85,94.62 c -0.27,0.08 -3.48,0.13 -3.77,0.13 H 33.76 c -4.35,0 -11.43,-3.52 -11.43,-7.87 -1.55,0 -2.81,-11.23 -2.82,-12.79 v -43 A 16.32,16.32 0 0 1 19.82,27.87 10.52,10.52 0 0 1 30.1,19.4 h 14.2"
       class="cls-111"
       inkscape:connector-curvature="0"
       style="fill:#a75186" />
    <path
       id="path689"
       transform="translate(-7.83,-7.78)"
       d="m 84.12,19.46 a 10.7,10.7 0 0 1 10.67,10.68 v 0 V 84 A 10.57,10.57 0 0 1 85,94.55 c -0.27,0.09 -3.46,0.13 -3.76,0.14 H 33.92 c -4.29,0 -11.44,-3.48 -11.44,-7.76 -1.61,0 -2.91,-11.13 -2.92,-12.74 v -43 a 16.57,16.57 0 0 1 0.3,-3.23 10.51,10.51 0 0 1 10.28,-8.48 h 14.68"
       class="cls-112"
       inkscape:connector-curvature="0"
       style="fill:#a85186" />
    <path
       id="path691"
       transform="translate(-7.83,-7.78)"
       d="m 84.07,19.52 a 10.68,10.68 0 0 1 10.66,10.66 v 0 V 84 A 10.55,10.55 0 0 1 85,94.48 c -0.28,0.09 -3.43,0.14 -3.75,0.14 H 34.08 c -4.23,0 -11.45,-3.43 -11.45,-7.65 -1.66,0 -3,-11 -3,-12.69 v -43 a 16.83,16.83 0 0 1 0.3,-3.23 10.49,10.49 0 0 1 10.26,-8.5 h 15.14"
       class="cls-113"
       inkscape:connector-curvature="0"
       style="fill:#a85287" />
    <path
       id="path693"
       transform="translate(-7.83,-7.78)"
       d="m 84,19.58 a 10.66,10.66 0 0 1 10.67,10.64 v 0 53.7 A 10.53,10.53 0 0 1 85,94.42 c -0.29,0.09 -3.41,0.14 -3.73,0.15 h -47 c -4.16,0 -11.46,-3.38 -11.46,-7.54 -1.71,0 -3.09,-10.94 -3.1,-12.65 V 31.32 A 17.09,17.09 0 0 1 20,28.09 10.47,10.47 0 0 1 30.25,19.58 h 15.6"
       class="cls-114"
       inkscape:connector-curvature="0"
       style="fill:#a95287" />
    <path
       id="path695"
       transform="translate(-7.83,-7.78)"
       d="m 84,19.64 a 10.65,10.65 0 0 1 10.61,10.62 v 0 53.61 a 10.51,10.51 0 0 1 -9.67,10.48 c -0.3,0.1 -3.39,0.15 -3.72,0.15 H 34.41 c -4.1,0 -11.46,-3.33 -11.46,-7.43 -1.76,0 -3.19,-10.84 -3.2,-12.6 V 31.39 A 17.37,17.37 0 0 1 20,28.16 10.45,10.45 0 0 1 30.24,19.63 h 16.13"
       class="cls-114"
       inkscape:connector-curvature="0"
       style="fill:#a95287" />
    <path
       id="path697"
       transform="translate(-7.83,-7.78)"
       d="M 83.94,19.69 A 10.63,10.63 0 0 1 94.55,30.3 v 0 53.53 a 10.49,10.49 0 0 1 -9.63,10.46 c -0.31,0.1 -3.37,0.15 -3.71,0.15 H 34.57 c -4,0 -11.47,-3.28 -11.47,-7.32 -1.81,0 -3.28,-10.74 -3.29,-12.55 V 31.47 A 17.65,17.65 0 0 1 20.1,28.24 10.43,10.43 0 0 1 30.33,19.7 h 16.56"
       class="cls-115"
       inkscape:connector-curvature="0"
       style="fill:#aa5288" />
    <path
       id="path699"
       transform="translate(-7.83,-7.78)"
       d="m 83.9,19.75 a 10.62,10.62 0 0 1 10.59,10.6 v 0 53.43 a 10.47,10.47 0 0 1 -9.58,10.44 c -0.32,0.1 -3.34,0.16 -3.69,0.16 H 34.73 c -4,0 -11.48,-3.23 -11.48,-7.21 -1.87,0 -3.37,-10.64 -3.39,-12.51 V 31.54 a 17.94,17.94 0 0 1 0.28,-3.23 10.42,10.42 0 0 1 10.22,-8.55 h 17"
       class="cls-116"
       inkscape:connector-curvature="0"
       style="fill:#aa5388" />
    <path
       id="path701"
       transform="translate(-7.83,-7.78)"
       d="m 83.86,19.81 a 10.6,10.6 0 0 1 10.57,10.58 v 0 53.35 a 10.46,10.46 0 0 1 -9.54,10.41 c -0.33,0.1 -3.32,0.16 -3.68,0.16 H 34.89 c -3.92,0 -11.49,-3.18 -11.49,-7.1 -1.92,0 -3.47,-10.54 -3.48,-12.46 V 31.62 a 18.25,18.25 0 0 1 0.28,-3.24 10.4,10.4 0 0 1 10.21,-8.57 h 17.51"
       class="cls-117"
       inkscape:connector-curvature="0"
       style="fill:#ab5389" />
    <path
       id="path703"
       transform="translate(-7.83,-7.78)"
       d="m 83.81,19.87 a 10.58,10.58 0 0 1 10.56,10.56 v 0 53.26 a 10.44,10.44 0 0 1 -9.5,10.39 c -0.34,0.11 -3.3,0.17 -3.67,0.17 H 35.06 c -3.86,0 -11.5,-3.13 -11.5,-7 -2,0 -3.56,-10.45 -3.57,-12.42 V 31.69 a 18.56,18.56 0 0 1 0.27,-3.24 10.38,10.38 0 0 1 10.2,-8.58 h 18"
       class="cls-117"
       inkscape:connector-curvature="0"
       style="fill:#ab5389" />
    <path
       id="path705"
       transform="translate(-7.83,-7.78)"
       d="m 83.77,19.93 a 10.57,10.57 0 0 1 10.54,10.54 v 0 53.18 A 10.42,10.42 0 0 1 84.86,94 c -0.35,0.11 -3.27,0.17 -3.65,0.17 h -46 c -3.8,0 -11.5,-3.08 -11.5,-6.88 -2,0 -3.66,-10.35 -3.67,-12.37 V 31.77 a 18.88,18.88 0 0 1 0.27,-3.24 10.36,10.36 0 0 1 10.19,-8.6 H 49"
       class="cls-118"
       inkscape:connector-curvature="0"
       style="fill:#ac5389" />
    <path
       id="path707"
       transform="translate(-7.83,-7.78)"
       d="m 83.73,20 a 10.55,10.55 0 0 1 10.52,10.51 v 0 53.09 A 10.4,10.4 0 0 1 84.85,94 c -0.35,0.11 -3.25,0.17 -3.64,0.18 H 35.38 c -3.74,0 -11.51,-3 -11.51,-6.76 -2.07,0 -3.75,-10.25 -3.76,-12.32 V 31.84 A 19.21,19.21 0 0 1 20.37,28.6 10.35,10.35 0 0 1 30.55,20 h 18.93"
       class="cls-119"
       inkscape:connector-curvature="0"
       style="fill:#ac548a" />
    <path
       id="path709"
       transform="translate(-7.83,-7.78)"
       d="m 83.68,20 a 10.53,10.53 0 0 1 10.51,10.55 v 0 53 a 10.38,10.38 0 0 1 -9.36,10.33 c -0.36,0.11 -3.23,0.18 -3.63,0.18 H 35.54 c -3.67,0 -11.52,-3 -11.52,-6.65 -2.12,0 -3.84,-10.15 -3.86,-12.28 V 31.92 A 19.55,19.55 0 0 1 20.42,28.68 10.33,10.33 0 0 1 30.59,20 H 50"
       class="cls-120"
       inkscape:connector-curvature="0"
       style="fill:#ad548a" />
    <path
       id="path711"
       transform="translate(-7.83,-7.78)"
       d="m 83.64,20.1 a 10.52,10.52 0 0 1 10.49,10.5 v 0 52.91 A 10.36,10.36 0 0 1 84.81,93.82 C 84.44,93.94 81.61,94 81.2,94 H 35.71 C 32.1,94 24.18,91.07 24.18,87.46 22,87.46 20.24,77.41 20.18,75.23 V 32 a 19.91,19.91 0 0 1 0.25,-3.25 10.31,10.31 0 0 1 10.21,-8.65 h 19.87"
       class="cls-121"
       inkscape:connector-curvature="0"
       style="fill:#ad548b" />
    <path
       id="path713"
       transform="translate(-7.83,-7.78)"
       d="m 83.59,20.16 a 10.5,10.5 0 0 1 10.48,10.48 v 0 52.83 A 10.35,10.35 0 0 1 84.8,93.76 c -0.38,0.12 -3.18,0.19 -3.6,0.19 H 35.87 c -3.55,0 -11.53,-2.88 -11.53,-6.43 -2.23,0 -4,-10 -4,-12.18 V 32.07 a 20.27,20.27 0 0 1 0.25,-3.25 10.3,10.3 0 0 1 10.14,-8.66 H 51"
       class="cls-122"
       inkscape:connector-curvature="0"
       style="fill:#ae548b" />
    <path
       id="path715"
       transform="translate(-7.83,-7.78)"
       d="M 83.55,20.22 A 10.49,10.49 0 0 1 94,30.68 v 0 52.74 a 10.33,10.33 0 0 1 -9.23,10.27 35.1,35.1 0 0 1 -3.59,0.19 H 36 c -3.49,0 -11.54,-2.83 -11.54,-6.32 -2.28,0 -4.12,-9.86 -4.14,-12.14 V 32.14 a 20.65,20.65 0 0 1 0.25,-3.25 10.28,10.28 0 0 1 10.13,-8.67 h 20.85"
       class="cls-122"
       inkscape:connector-curvature="0"
       style="fill:#ae548b" />
    <path
       id="path717"
       transform="translate(-7.83,-7.78)"
       d="M 83.51,20.28 A 10.47,10.47 0 0 1 94,30.72 v 0 52.66 a 10.31,10.31 0 0 1 -9.18,10.24 34.06,34.06 0 0 1 -3.57,0.2 h -45 c -3.43,0 -11.55,-2.78 -11.55,-6.21 -2.33,0 -4.22,-9.76 -4.23,-12.09 V 32.22 A 21,21 0 0 1 20.65,29 10.26,10.26 0 0 1 30.77,20.31 h 21.3"
       class="cls-123"
       inkscape:connector-curvature="0"
       style="fill:#af558c" />
    <path
       id="path719"
       transform="translate(-7.83,-7.78)"
       d="m 83.46,20.34 a 10.45,10.45 0 0 1 10.43,10.42 v 0 52.57 a 10.29,10.29 0 0 1 -9.14,10.22 33.07,33.07 0 0 1 -3.56,0.2 H 36.35 C 33,93.76 24.8,91 24.8,87.66 c -2.38,0 -4.31,-9.66 -4.33,-12 V 32.29 A 21.46,21.46 0 0 1 20.71,29 10.25,10.25 0 0 1 30.82,20.3 h 21.77"
       class="cls-123"
       inkscape:connector-curvature="0"
       style="fill:#af558c" />
    <path
       id="path721"
       transform="translate(-7.83,-7.78)"
       d="m 83.42,20.4 a 10.44,10.44 0 0 1 10.41,10.4 v 0 52.49 a 10.28,10.28 0 0 1 -9.09,10.2 32.11,32.11 0 0 1 -3.55,0.21 H 36.52 c -3.31,0 -11.57,-2.68 -11.57,-6 -2.44,0 -4.41,-9.56 -4.42,-12 V 32.37 a 21.88,21.88 0 0 1 0.23,-3.26 10.23,10.23 0 0 1 10.1,-8.71 H 53.1"
       class="cls-124"
       inkscape:connector-curvature="0"
       style="fill:#b0558d" />
    <path
       id="path723"
       transform="translate(-7.83,-7.78)"
       d="m 83.38,20.45 a 10.42,10.42 0 0 1 10.39,10.4 v 0 52.4 a 10.26,10.26 0 0 1 -9,10.18 31.2,31.2 0 0 1 -3.53,0.21 H 36.68 c -3.25,0 -11.57,-2.63 -11.57,-5.88 -2.49,0 -4.5,-9.47 -4.51,-12 V 32.44 a 22.32,22.32 0 0 1 0.23,-3.26 10.21,10.21 0 0 1 10.09,-8.73 h 22.7"
       class="cls-124"
       inkscape:connector-curvature="0"
       style="fill:#b0558d" />
    <path
       id="path725"
       transform="translate(-7.83,-7.78)"
       d="m 83.33,20.51 a 10.4,10.4 0 0 1 10.38,10.38 v 0 52.31 a 10.24,10.24 0 0 1 -9,10.16 30.33,30.33 0 0 1 -3.52,0.22 H 36.84 c -3.18,0 -11.58,-2.58 -11.58,-5.77 -2.54,0 -4.59,-9.37 -4.61,-11.91 V 32.51 A 22.78,22.78 0 0 1 20.87,29.25 10.2,10.2 0 0 1 31,20.51 h 23.14"
       class="cls-125"
       inkscape:connector-curvature="0"
       style="fill:#b1568d" />
    <path
       id="path727"
       transform="translate(-7.83,-7.78)"
       d="m 83.29,20.57 a 10.39,10.39 0 0 1 10.36,10.36 v 0 52.22 a 10.22,10.22 0 0 1 -9,10.14 29.5,29.5 0 0 1 -3.51,0.22 H 37 c -3.12,0 -11.59,-2.53 -11.59,-5.66 -2.59,0 -4.69,-9.27 -4.7,-11.86 V 32.59 A 23.25,23.25 0 0 1 20.93,29.33 10.18,10.18 0 0 1 31,20.57 h 23.66"
       class="cls-126"
       inkscape:connector-curvature="0"
       style="fill:#b1568e" />
    <path
       id="path729"
       transform="translate(-7.83,-7.78)"
       d="M 83.25,20.63 A 10.37,10.37 0 0 1 93.59,31 v 0 52.11 a 10.21,10.21 0 0 1 -8.91,10.12 28.7,28.7 0 0 1 -3.5,0.22 h -44 c -3.06,0 -11.6,-2.48 -11.6,-5.54 -2.64,0 -4.78,-9.17 -4.8,-11.81 V 32.66 A 23.75,23.75 0 0 1 21,29.4 10.17,10.17 0 0 1 31,20.63 h 24.18"
       class="cls-127"
       inkscape:connector-curvature="0"
       style="fill:#b2568e" />
    <path
       id="path731"
       transform="translate(-7.83,-7.78)"
       d="M 83.2,20.69 A 10.36,10.36 0 0 1 93.53,31 v 0 52 a 10.19,10.19 0 0 1 -8.87,10.1 27.93,27.93 0 0 1 -3.48,0.23 H 37.33 c -3,0 -11.6,-2.43 -11.6,-5.43 -2.69,0 -4.87,-9.07 -4.89,-11.77 V 32.74 A 24.26,24.26 0 0 1 21,29.48 10.15,10.15 0 0 1 31,20.69 h 24.69"
       class="cls-128"
       inkscape:connector-curvature="0"
       style="fill:#b2568f" />
    <path
       id="path733"
       transform="translate(-7.83,-7.78)"
       d="m 83.16,20.75 a 10.34,10.34 0 0 1 10.31,10.3 v 0 V 83 A 10.17,10.17 0 0 1 84.65,93.07 27.19,27.19 0 0 1 81.18,93.3 H 37.49 c -2.94,0 -11.61,-2.38 -11.61,-5.32 -2.75,0 -5,-9 -5,-11.72 V 32.81 a 24.8,24.8 0 0 1 0.21,-3.27 10.13,10.13 0 0 1 10,-8.8 h 25.12"
       class="cls-129"
       inkscape:connector-curvature="0"
       style="fill:#b3578f" />
    <path
       id="path735"
       transform="translate(-7.83,-7.78)"
       d="m 83.12,20.8 a 10.32,10.32 0 0 1 10.29,10.3 v 0 51.9 a 10.16,10.16 0 0 1 -8.78,10 26.48,26.48 0 0 1 -3.46,0.24 H 37.65 C 34.77,93.26 26,90.93 26,88.05 23.23,88 21,79.17 21,76.38 V 32.89 a 25.36,25.36 0 0 1 0.2,-3.27 10.12,10.12 0 0 1 10,-8.82 h 25.53"
       class="cls-129"
       inkscape:connector-curvature="0"
       style="fill:#b3578f" />
    <path
       id="path737"
       transform="translate(-7.83,-7.78)"
       d="m 83.07,20.86 a 10.31,10.31 0 0 1 10.28,10.28 v 0 51.79 a 10.14,10.14 0 0 1 -8.73,10 25.79,25.79 0 0 1 -3.44,0.24 H 37.81 c -2.82,0 -11.63,-2.28 -11.63,-5.1 -2.85,0 -5.16,-8.78 -5.17,-11.63 V 33 a 25.94,25.94 0 0 1 0.2,-3.27 10.1,10.1 0 0 1 10,-8.83 h 26"
       class="cls-130"
       inkscape:connector-curvature="0"
       style="fill:#b45790" />
    <path
       id="path739"
       transform="translate(-7.83,-7.78)"
       d="m 83,20.92 a 10.29,10.29 0 0 1 10.29,10.26 v 0 51.7 a 10.12,10.12 0 0 1 -8.69,10 25.13,25.13 0 0 1 -3.43,0.25 H 38 c -2.76,0 -11.64,-2.23 -11.64,-5 -2.9,0 -5.25,-8.68 -5.27,-11.58 V 33 a 26.55,26.55 0 0 1 0.19,-3.27 10.09,10.09 0 0 1 10,-8.85 h 26.5"
       class="cls-130"
       inkscape:connector-curvature="0"
       style="fill:#b45790" />
    <path
       id="path741"
       transform="translate(-7.83,-7.78)"
       d="m 83,21 a 10.27,10.27 0 0 1 10.23,10.22 v 0 51.62 a 10.11,10.11 0 0 1 -8.64,10 24.5,24.5 0 0 1 -3.42,0.25 h -43 c -2.69,0 -11.64,-2.18 -11.64,-4.88 -3,0 -5.34,-8.58 -5.36,-11.54 V 33.11 a 27.19,27.19 0 0 1 0.19,-3.27 10.07,10.07 0 0 1 10,-8.86 h 27"
       class="cls-131"
       inkscape:connector-curvature="0"
       style="fill:#b55891" />
    <path
       id="path743"
       transform="translate(-7.83,-7.78)"
       d="m 82.94,21 a 10.26,10.26 0 0 1 10.23,10.26 v 0 51.53 a 10.09,10.09 0 0 1 -8.6,10 23.89,23.89 0 0 1 -3.4,0.26 H 38.3 c -2.63,0 -11.65,-2.13 -11.65,-4.77 -3,0 -5.44,-8.48 -5.46,-11.49 v -43.6 a 27.86,27.86 0 0 1 0.19,-3.28 10.06,10.06 0 0 1 10,-8.87 H 58.8"
       class="cls-131"
       inkscape:connector-curvature="0"
       style="fill:#b55891" />
    <path
       id="path745"
       transform="translate(-7.83,-7.78)"
       d="m 82.9,21.1 a 10.24,10.24 0 0 1 10.21,10.2 v 0 51.45 a 10.08,10.08 0 0 1 -8.55,9.95 23.3,23.3 0 0 1 -3.39,0.26 H 38.46 C 35.89,93 26.8,90.87 26.8,88.3 c -3.06,0 -5.53,-8.39 -5.55,-11.44 v -43.6 a 28.56,28.56 0 0 1 0.18,-3.26 10,10 0 0 1 10,-8.89 h 27.89"
       class="cls-132"
       inkscape:connector-curvature="0"
       style="fill:#b65891" />
    <path
       id="path747"
       transform="translate(-7.83,-7.78)"
       d="M 82.86,21.16 A 10.23,10.23 0 0 1 93,31.35 v 0 51.35 a 10.06,10.06 0 0 1 -8.51,9.93 22.73,22.73 0 0 1 -3.38,0.26 H 38.62 c -2.51,0 -11.67,-2 -11.67,-4.55 -3.11,0 -5.62,-8.29 -5.64,-11.4 v -43.6 a 29.29,29.29 0 0 1 0.18,-3.28 10,10 0 0 1 10,-8.9 h 28.4"
       class="cls-133"
       inkscape:connector-curvature="0"
       style="fill:#b65892" />
    <path
       id="path749"
       transform="translate(-7.83,-7.78)"
       d="M 82.81,21.21 A 10.21,10.21 0 0 1 93,31.39 v 0 51.27 a 10,10 0 0 1 -8.46,9.9 22.18,22.18 0 0 1 -3.36,0.27 h -42.4 c -2.45,0 -11.67,-2 -11.67,-4.44 -3.16,0 -5.72,-8.19 -5.74,-11.35 V 33.41 a 30.06,30.06 0 0 1 0.17,-3.28 10,10 0 0 1 9.94,-8.92 h 28.88"
       class="cls-134"
       inkscape:connector-curvature="0"
       style="fill:#b75892" />
    <path
       id="path751"
       transform="translate(-7.83,-7.78)"
       d="m 82.77,21.27 a 10.19,10.19 0 0 1 10.16,10.16 v 0 51.18 a 10,10 0 0 1 -8.42,9.88 21.64,21.64 0 0 1 -3.35,0.27 H 38.95 c -2.39,0 -11.68,-1.94 -11.68,-4.32 -3.21,0 -5.81,-8.09 -5.83,-11.3 V 33.49 a 30.87,30.87 0 0 1 0.17,-3.28 10,10 0 0 1 9.93,-8.93 h 29.34"
       class="cls-135"
       inkscape:connector-curvature="0"
       style="fill:#b75993" />
    <path
       id="path753"
       transform="translate(-7.83,-7.78)"
       d="m 82.73,21.33 a 10.18,10.18 0 0 1 10.14,10.14 v 0 51.1 a 10,10 0 0 1 -8.37,9.86 21.13,21.13 0 0 1 -3.34,0.28 h -42 c -2.33,0 -11.69,-1.89 -11.69,-4.21 -3.26,0 -5.91,-8 -5.93,-11.26 V 33.56 a 31.72,31.72 0 0 1 0.16,-3.28 10,10 0 0 1 9.92,-8.95 h 29.77"
       class="cls-136"
       inkscape:connector-curvature="0"
       style="fill:#b85993" />
    <path
       id="path755"
       transform="translate(-7.83,-7.78)"
       d="m 82.68,21.39 a 10.16,10.16 0 0 1 10.13,10.12 v 0 51 a 10,10 0 0 1 -8.33,9.84 20.63,20.63 0 0 1 -3.32,0.28 H 39.27 c -2.27,0 -11.7,-1.84 -11.7,-4.1 -3.32,0 -6,-7.9 -6,-11.21 V 33.64 a 32.62,32.62 0 0 1 0.16,-3.29 10,10 0 0 1 9.91,-9 h 30.27"
       class="cls-136"
       inkscape:connector-curvature="0"
       style="fill:#b85993" />
    <path
       id="path757"
       transform="translate(-7.83,-7.78)"
       d="m 82.64,21.45 a 10.14,10.14 0 0 1 10.11,10.1 v 0 50.93 a 10,10 0 0 1 -8.28,9.82 20.15,20.15 0 0 1 -3.31,0.29 H 39.43 c -2.2,0 -11.71,-1.79 -11.71,-4 -3.37,0 -6.09,-7.8 -6.11,-11.17 V 33.71 c 0,-0.39 0.05,-2.93 0.16,-3.29 a 10,10 0 0 1 9.9,-9 h 30.76"
       class="cls-137"
       inkscape:connector-curvature="0"
       style="fill:#b95994" />
    <path
       id="path759"
       transform="translate(-7.83,-7.78)"
       d="M 82.6,21.51 A 10.13,10.13 0 0 1 92.69,31.6 v 0 50.83 a 10,10 0 0 1 -8.24,9.8 19.69,19.69 0 0 1 -3.3,0.29 H 39.59 c -2.14,0 -11.71,-1.74 -11.71,-3.88 -3.42,0 -6.19,-7.7 -6.21,-11.12 V 33.79 c 0,-0.38 0.05,-2.94 0.15,-3.29 a 9.94,9.94 0 0 1 9.89,-9 h 31.24"
       class="cls-138"
       inkscape:connector-curvature="0"
       style="fill:#b95a94" />
    <path
       id="path761"
       transform="translate(-7.83,-7.78)"
       d="m 82.55,21.57 a 10.11,10.11 0 0 1 10.08,10.07 v 0 50.75 a 10,10 0 0 1 -8.19,9.78 19.24,19.24 0 0 1 -3.28,0.3 H 39.76 C 37.67,92.46 28,90.77 28,88.69 c -3.47,0 -6.28,-7.6 -6.3,-11.07 V 33.86 c 0,-0.37 0,-3 0.15,-3.29 a 9.93,9.93 0 0 1 9.88,-9 h 31.74"
       class="cls-139"
       inkscape:connector-curvature="0"
       style="fill:#ba5a95" />
    <path
       id="path763"
       transform="translate(-7.83,-7.78)"
       d="m 82.51,21.62 a 10.1,10.1 0 0 1 10.06,10.06 v 0 50.66 a 9.94,9.94 0 0 1 -8.15,9.76 18.8,18.8 0 0 1 -3.27,0.3 H 39.92 c -2,0 -11.73,-1.64 -11.73,-3.66 -3.52,0 -6.37,-7.5 -6.4,-11 v -43.8 c 0,-0.36 0,-3 0.14,-3.29 a 9.91,9.91 0 0 1 9.87,-9 H 64"
       class="cls-139"
       inkscape:connector-curvature="0"
       style="fill:#ba5a95" />
    <path
       id="path765"
       transform="translate(-7.83,-7.78)"
       d="m 82.47,21.68 a 10.08,10.08 0 0 1 10,10 v 0 50.62 A 9.92,9.92 0 0 1 84.4,92 18.38,18.38 0 0 1 81.14,92.3 H 40.08 c -2,0 -11.74,-1.59 -11.74,-3.55 -3.58,0 -6.47,-7.41 -6.49,-11 V 34 c 0,-0.35 0,-3 0.14,-3.3 a 9.9,9.9 0 0 1 9.85,-9 H 64.5"
       class="cls-140"
       inkscape:connector-curvature="0"
       style="fill:#bb5a95" />
    <path
       id="path767"
       transform="translate(-7.83,-7.78)"
       d="m 82.42,21.74 a 10.06,10.06 0 0 1 10,10 v 0 50.51 A 9.91,9.91 0 0 1 84.39,92 18,18 0 0 1 81.15,92.31 H 40.24 c -1.9,0 -11.74,-1.54 -11.74,-3.44 -3.63,0 -6.56,-7.31 -6.58,-10.93 V 34.09 c 0,-0.34 0,-3 0.13,-3.3 a 9.88,9.88 0 0 1 9.84,-9 H 65"
       class="cls-141"
       inkscape:connector-curvature="0"
       style="fill:#bb5b96" />
    <path
       id="path769"
       transform="translate(-7.83,-7.78)"
       d="m 82.38,21.8 a 10,10 0 0 1 10,10 v 0 50.4 a 9.89,9.89 0 0 1 -8,9.69 17.57,17.57 0 0 1 -3.23,0.31 H 40.4 C 38.56,92.2 28.65,90.71 28.65,88.87 25,88.86 22,81.68 22,78 V 34.16 c 0,-0.33 0,-3 0.13,-3.3 a 9.87,9.87 0 0 1 9.83,-9.06 h 33.6"
       class="cls-142"
       inkscape:connector-curvature="0"
       style="fill:#bc5b96" />
    <path
       id="path771"
       transform="translate(-7.83,-7.78)"
       d="m 82.34,21.86 a 10,10 0 0 1 10,10 v 0 50.3 a 9.88,9.88 0 0 1 -8,9.67 17.18,17.18 0 0 1 -3.22,0.32 H 40.57 c -1.78,0 -11.76,-1.44 -11.76,-3.22 -3.73,0 -6.75,-7.11 -6.77,-10.84 V 34.24 c 0,-0.32 0,-3 0.13,-3.3 A 9.86,9.86 0 0 1 32,21.86 h 34.06"
       class="cls-143"
       inkscape:connector-curvature="0"
       style="fill:#bc5b97" />
    <path
       id="path773"
       transform="translate(-7.83,-7.78)"
       d="m 82.29,21.92 a 10,10 0 0 1 10,10 v 0 50.2 a 9.87,9.87 0 0 1 -7.93,9.65 16.81,16.81 0 0 1 -3.2,0.32 H 40.73 C 39,92.09 29,90.7 29,89 25.22,89 22.16,82 22.13,78.2 V 34.31 c 0,-0.3 0,-3 0.12,-3.3 A 9.84,9.84 0 0 1 32,21.92 h 34.57"
       class="cls-144"
       inkscape:connector-curvature="0"
       style="fill:#bd5b97" />
    <path
       id="path775"
       transform="translate(-7.83,-7.78)"
       d="m 82.25,22 a 10,10 0 0 1 10,10 v 0 50.07 a 9.85,9.85 0 0 1 -7.88,9.63 16.45,16.45 0 0 1 -3.19,0.33 H 40.89 c -1.65,0 -11.78,-1.34 -11.78,-3 -3.83,0 -6.94,-6.92 -7,-10.75 V 34.39 c 0,-0.29 0,-3 0.12,-3.3 A 9.83,9.83 0 0 1 32.07,22 h 35"
       class="cls-145"
       inkscape:connector-curvature="0"
       style="fill:#bd5c97" />
    <path
       id="path777"
       transform="translate(-7.83,-7.78)"
       d="m 82.21,22 a 10,10 0 0 1 9.93,10 v 0 50 a 9.84,9.84 0 0 1 -7.84,9.61 16.09,16.09 0 0 1 -3.18,0.33 H 41.05 c -1.59,0 -11.78,-1.29 -11.78,-2.88 -3.89,0 -7,-6.82 -7.05,-10.7 v -43.9 c 0,-0.28 0,-3 0.11,-3.31 A 9.82,9.82 0 0 1 32.11,22 h 35.5"
       class="cls-146"
       inkscape:connector-curvature="0"
       style="fill:#be5c98" />
    <path
       id="path779"
       transform="translate(-7.83,-7.78)"
       d="M 82.16,22.09 A 10,10 0 0 1 92.08,32 v 0 50 a 9.83,9.83 0 0 1 -7.79,9.59 15.75,15.75 0 0 1 -3.16,0.33 H 41.21 c -1.53,0 -11.79,-1.24 -11.79,-2.77 -3.94,0 -7.12,-6.72 -7.15,-10.66 V 34.54 c 0,-0.27 0,-3.06 0.11,-3.31 a 9.8,9.8 0 0 1 9.78,-9.14 h 36"
       class="cls-146"
       inkscape:connector-curvature="0"
       style="fill:#be5c98" />
    <path
       id="path781"
       transform="translate(-7.83,-7.78)"
       d="m 82.12,22.15 a 10,10 0 0 1 9.9,9.9 v 0 49.89 a 9.81,9.81 0 0 1 -7.75,9.56 15.42,15.42 0 0 1 -3.15,0.34 H 41.38 c -1.47,0 -11.8,-1.19 -11.8,-2.66 -4,0 -7.22,-6.62 -7.24,-10.61 v -44 c 0,-0.26 0,-3.07 0.1,-3.31 a 9.79,9.79 0 0 1 9.77,-9.15 h 36.44"
       class="cls-147"
       inkscape:connector-curvature="0"
       style="fill:#bf5c98" />
    <path
       id="path783"
       transform="translate(-7.83,-7.78)"
       d="M 82.08,22.21 A 9.93,9.93 0 0 1 92,32.1 v 0 49.79 a 9.8,9.8 0 0 1 -7.7,9.54 15.09,15.09 0 0 1 -3.14,0.34 H 41.54 c -1.41,0 -11.81,-1.14 -11.81,-2.55 -4,0 -7.31,-6.52 -7.34,-10.56 v -44 c 0,-0.25 0,-3.08 0.1,-3.31 a 9.78,9.78 0 0 1 9.75,-9.17 h 36.92"
       class="cls-148"
       inkscape:connector-curvature="0"
       style="fill:#bf5d99" />
    <path
       id="path785"
       transform="translate(-7.83,-7.78)"
       d="m 82,22.27 a 9.92,9.92 0 0 1 9.87,9.87 v 0 49.71 a 9.79,9.79 0 0 1 -7.66,9.52 14.78,14.78 0 0 1 -3.12,0.35 H 41.7 c -1.35,0 -11.81,-1.09 -11.81,-2.44 -4.09,0 -7.41,-6.42 -7.43,-10.52 v -44 c 0,-0.24 0,-3.09 0.1,-3.31 a 9.76,9.76 0 0 1 9.74,-9.18 h 37.38"
       class="cls-149"
       inkscape:connector-curvature="0"
       style="fill:#c05d99" />
    <path
       id="path787"
       transform="translate(-7.83,-7.78)"
       d="m 82,22.33 a 9.9,9.9 0 0 1 9.85,9.85 v 0 49.62 a 9.77,9.77 0 0 1 -7.61,9.5 14.47,14.47 0 0 1 -3.11,0.35 H 41.86 c -1.29,0 -11.82,-1 -11.82,-2.33 -4.15,0 -7.5,-6.33 -7.52,-10.47 v -44 c 0,-0.23 0,-3.11 0.09,-3.32 a 9.75,9.75 0 0 1 9.73,-9.19 H 70.2"
       class="cls-150"
       inkscape:connector-curvature="0"
       style="fill:#c05d9a" />
    <path
       id="path789"
       transform="translate(-7.83,-7.78)"
       d="m 81.95,22.38 a 9.88,9.88 0 0 1 9.84,9.84 v 0 49.54 a 9.76,9.76 0 0 1 -7.57,9.48 14.17,14.17 0 0 1 -3.1,0.36 H 42 c -1.22,0 -11.83,-1 -11.83,-2.22 -4.2,0 -7.59,-6.23 -7.62,-10.43 v -44 c 0,-0.22 0,-3.12 0.09,-3.32 a 9.74,9.74 0 0 1 9.72,-9.21 h 38.36"
       class="cls-151"
       inkscape:connector-curvature="0"
       style="fill:#c15d9a" />
    <path
       id="path791"
       transform="translate(-7.83,-7.78)"
       d="m 81.9,22.44 a 9.87,9.87 0 0 1 9.82,9.82 v 0 49.45 a 9.75,9.75 0 0 1 -7.52,9.46 13.88,13.88 0 0 1 -3.08,0.36 H 42.19 c -1.16,0 -11.84,-0.94 -11.84,-2.11 -4.25,0 -7.69,-6.13 -7.71,-10.38 V 35 c 0,-0.21 0,-3.13 0.08,-3.32 a 9.72,9.72 0 0 1 9.71,-9.22 h 38.81"
       class="cls-151"
       inkscape:connector-curvature="0"
       style="fill:#c15d9a" />
    <path
       id="path793"
       transform="translate(-7.83,-7.78)"
       d="m 81.86,22.5 a 9.85,9.85 0 0 1 9.8,9.8 v 0 49.37 a 9.74,9.74 0 0 1 -7.48,9.44 13.6,13.6 0 0 1 -3.07,0.37 H 42.35 c -1.1,0 -11.85,-0.89 -11.85,-2 -4.3,0 -7.78,-6 -7.81,-10.33 V 35.06 c 0,-0.2 0,-3.14 0.08,-3.32 a 9.71,9.71 0 0 1 9.7,-9.24 h 39.28"
       class="cls-152"
       inkscape:connector-curvature="0"
       style="fill:#c25e9b" />
    <path
       id="path795"
       transform="translate(-7.83,-7.78)"
       d="m 81.82,22.56 a 9.84,9.84 0 0 1 9.79,9.79 v 0 49.27 A 9.73,9.73 0 0 1 84.17,91 13.32,13.32 0 0 1 81.11,91.37 h -38.6 c -1,0 -11.85,-0.84 -11.85,-1.89 -4.35,0 -7.87,-5.93 -7.9,-10.29 V 35.14 c 0,-0.19 0,-3.15 0.07,-3.32 a 9.7,9.7 0 0 1 9.69,-9.25 h 39.75"
       class="cls-152"
       inkscape:connector-curvature="0"
       style="fill:#c25e9b" />
    <path
       id="path797"
       transform="translate(-7.83,-7.78)"
       d="m 81.77,22.62 a 9.82,9.82 0 0 1 9.77,9.77 v 0 49.19 a 9.72,9.72 0 0 1 -7.38,9.42 13.05,13.05 0 0 1 -3,0.37 H 42.67 c -1,0 -11.86,-0.79 -11.86,-1.77 -4.4,0 -8,-5.84 -8,-10.24 V 35.21 c 0,-0.17 0,-3.17 0.07,-3.32 a 9.69,9.69 0 0 1 9.68,-9.27 h 40.23"
       class="cls-153"
       inkscape:connector-curvature="0"
       style="fill:#c35e9c" />
    <path
       id="path799"
       transform="translate(-7.83,-7.78)"
       d="m 81.73,22.68 a 9.8,9.8 0 0 1 9.75,9.75 v 0 49.1 a 9.7,9.7 0 0 1 -7.34,9.37 12.79,12.79 0 0 1 -3,0.38 H 42.83 c -0.92,0 -11.87,-0.74 -11.87,-1.66 -4.46,0 -8.06,-5.74 -8.09,-10.19 V 35.29 c 0,-0.16 0,-3.18 0.06,-3.33 a 9.67,9.67 0 0 1 9.67,-9.28 h 40.7"
       class="cls-153"
       inkscape:connector-curvature="0"
       style="fill:#c35e9c" />
    <path
       id="path801"
       transform="translate(-7.83,-7.78)"
       d="m 81.69,22.74 a 9.79,9.79 0 0 1 9.74,9.74 v 0 49 a 9.69,9.69 0 0 1 -7.3,9.35 12.54,12.54 0 0 1 -3,0.38 H 43 c -0.86,0 -11.88,-0.7 -11.88,-1.55 -4.51,0 -8.15,-5.64 -8.18,-10.15 V 35.36 c 0,-0.15 0,-3.19 0.06,-3.33 a 9.66,9.66 0 0 1 9.66,-9.3 h 41.17"
       class="cls-154"
       inkscape:connector-curvature="0"
       style="fill:#c45f9c" />
    <path
       id="path803"
       transform="translate(-7.83,-7.78)"
       d="m 81.64,22.79 a 9.77,9.77 0 0 1 9.72,9.72 v 0 48.93 a 9.68,9.68 0 0 1 -7.25,9.33 12.29,12.29 0 0 1 -3,0.39 H 43.16 c -0.8,0 -11.88,-0.65 -11.88,-1.44 -4.56,0 -8.25,-5.54 -8.28,-10.1 V 35.44 c 0,-0.14 0,-3.2 0.06,-3.33 A 9.65,9.65 0 0 1 32.7,22.8 h 41.64"
       class="cls-155"
       inkscape:connector-curvature="0"
       style="fill:#c45f9d" />
    <path
       id="path805"
       transform="translate(-7.83,-7.78)"
       d="m 81.6,22.85 a 9.75,9.75 0 0 1 9.7,9.7 v 0 48.85 a 9.67,9.67 0 0 1 -7.21,9.31 12,12 0 0 1 -3,0.39 H 43.32 c -0.73,0 -11.89,-0.6 -11.89,-1.33 -4.61,0 -8.34,-5.44 -8.37,-10.06 v -44.2 c 0,-0.13 0,-3.21 0.05,-3.33 a 9.64,9.64 0 0 1 9.63,-9.33 h 42.12"
       class="cls-156"
       inkscape:connector-curvature="0"
       style="fill:#c55f9d" />
    <path
       id="path807"
       transform="translate(-7.83,-7.78)"
       d="m 81.56,22.91 a 9.74,9.74 0 0 1 9.69,9.69 v 0 48.75 a 9.66,9.66 0 0 1 -7.16,9.29 11.81,11.81 0 0 1 -3,0.4 H 43.48 c -0.67,0 -11.9,-0.55 -11.9,-1.22 -4.66,0 -8.44,-5.35 -8.47,-10 V 35.58 c 0,-0.12 0,-3.22 0,-3.33 a 9.63,9.63 0 0 1 9.62,-9.34 h 42.65"
       class="cls-157"
       inkscape:connector-curvature="0"
       style="fill:#c55f9e" />
    <path
       id="path809"
       transform="translate(-7.83,-7.78)"
       d="m 81.51,23 a 9.72,9.72 0 0 1 9.67,9.67 v 0 48.64 a 9.65,9.65 0 0 1 -7.12,9.27 11.58,11.58 0 0 1 -3,0.4 H 43.64 c -0.61,0 -11.91,-0.5 -11.91,-1.11 -4.71,0 -8.53,-5.25 -8.56,-10 V 35.66 c 0,-0.11 0,-3.24 0,-3.34 A 9.61,9.61 0 0 1 32.83,23 H 75.9"
       class="cls-158"
       inkscape:connector-curvature="0"
       style="fill:#c6609e" />
    <path
       id="path811"
       transform="translate(-7.83,-7.78)"
       d="m 81.47,23 a 9.71,9.71 0 0 1 9.65,9.65 v 0 48.61 A 9.64,9.64 0 0 1 84,90.51 11.36,11.36 0 0 1 81,90.92 H 43.81 c -0.55,0 -11.92,-0.45 -11.92,-1 -4.77,0 -8.62,-5.15 -8.65,-9.92 V 35.73 c 0,-0.1 0,-3.25 0,-3.34 A 9.6,9.6 0 0 1 32.88,23 h 43.54"
       class="cls-158"
       inkscape:connector-curvature="0"
       style="fill:#c6609e" />
    <path
       id="path813"
       transform="translate(-7.83,-7.78)"
       d="m 81.43,23.09 a 9.69,9.69 0 0 1 9.63,9.63 v 0 48.49 a 9.63,9.63 0 0 1 -7,9.23 11.14,11.14 0 0 1 -2.94,0.41 H 44 c -0.49,0 -11.92,-0.4 -11.92,-0.89 -4.82,0 -8.72,-5.05 -8.75,-9.87 V 35.81 c 0,-0.09 0,-3.26 0,-3.34 a 9.59,9.59 0 0 1 9.59,-9.38 h 44"
       class="cls-159"
       inkscape:connector-curvature="0"
       style="fill:#c7609f" />
    <path
       id="path815"
       transform="translate(-7.83,-7.78)"
       d="M 81.38,23.14 A 9.67,9.67 0 0 1 91,32.76 v 0 48.41 a 9.62,9.62 0 0 1 -7,9.2 10.92,10.92 0 0 1 -2.92,0.41 h -37 c -0.43,0 -11.93,-0.35 -11.93,-0.78 -4.87,0 -8.81,-5 -8.84,-9.82 v -44.3 c 0,-0.08 0,-3.27 0,-3.34 A 9.58,9.58 0 0 1 33,23.14 h 44.45"
       class="cls-159"
       inkscape:connector-curvature="0"
       style="fill:#c7609f" />
    <path
       id="path817"
       transform="translate(-7.83,-7.78)"
       d="m 81.34,23.2 a 9.66,9.66 0 0 1 9.6,9.6 v 0 48.32 A 9.61,9.61 0 0 1 84,90.31 10.71,10.71 0 0 1 81.09,90.73 h -36.8 c -0.37,0 -11.94,-0.3 -11.94,-0.67 -4.92,0 -8.9,-4.86 -8.94,-9.78 V 36 c 0,-0.07 0,-3.28 0,-3.34 A 9.57,9.57 0 0 1 33,23.2 h 45"
       class="cls-160"
       inkscape:connector-curvature="0"
       style="fill:#c861a0" />
    <path
       id="path819"
       transform="translate(-7.83,-7.78)"
       d="m 81.3,23.26 a 9.64,9.64 0 0 1 9.58,9.58 v 0 48.24 A 9.6,9.6 0 0 1 84,90.24 10.51,10.51 0 0 1 81.1,90.66 H 44.45 c -0.31,0 -11.95,-0.25 -11.95,-0.55 -5,0 -9,-4.76 -9,-9.73 V 36 c 0,-0.05 0,-3.3 0,-3.34 a 9.56,9.56 0 0 1 9.56,-9.43 h 45.43"
       class="cls-160"
       inkscape:connector-curvature="0"
       style="fill:#c861a0" />
    <path
       id="path821"
       transform="translate(-7.83,-7.78)"
       d="m 81.25,23.32 a 9.62,9.62 0 0 1 9.57,9.57 v 0 V 81 A 9.6,9.6 0 0 1 84,90.17 10.31,10.31 0 0 1 81.12,90.6 h -36.5 c -0.24,0 -12,-0.2 -12,-0.44 -5,0 -9.09,-4.66 -9.12,-9.69 V 36.11 c 0,0 0,-3.31 0,-3.35 a 9.54,9.54 0 0 1 9.54,-9.44 H 79"
       class="cls-161"
       inkscape:connector-curvature="0"
       style="fill:#c961a0" />
    <path
       id="path823"
       transform="translate(-7.83,-7.78)"
       d="m 81.21,23.38 a 9.61,9.61 0 0 1 9.55,9.55 v 0 V 81 A 9.59,9.59 0 0 1 84,90.11 10.11,10.11 0 0 1 81.13,90.54 H 44.78 c -0.18,0 -12,-0.15 -12,-0.33 -5.08,0 -9.19,-4.56 -9.22,-9.64 V 36.18 c 0,0 0,-3.32 0,-3.35 a 9.53,9.53 0 0 1 9.53,-9.46 h 46.44"
       class="cls-162"
       inkscape:connector-curvature="0"
       style="fill:#c961a1" />
    <path
       id="path825"
       transform="translate(-7.83,-7.78)"
       d="M 81.17,23.44 A 9.59,9.59 0 0 1 90.7,33 v 0 48 a 9.58,9.58 0 0 1 -6.76,9 9.92,9.92 0 0 1 -2.86,0.44 H 44.94 c -0.12,0 -12,-0.1 -12,-0.22 A 9.62,9.62 0 0 1 23.63,80.63 V 36.26 c 0,0 0,-3.33 0,-3.35 a 9.52,9.52 0 0 1 9.52,-9.47 H 80"
       class="cls-163"
       inkscape:connector-curvature="0"
       style="fill:#ca62a1" />
    <path
       id="path827"
       transform="translate(-7.83,-7.78)"
       d="m 81.12,23.5 a 9.58,9.58 0 0 1 9.52,9.5 v 0 47.9 a 9.57,9.57 0 0 1 -6.71,9.1 9.74,9.74 0 0 1 -2.84,0.44 h -36 c -0.06,0 -12,0 -12,-0.11 A 9.59,9.59 0 0 1 23.68,80.78 V 36.33 c 0,0 0,-3.34 0,-3.35 a 9.51,9.51 0 0 1 9.51,-9.49 h 47.37"
       class="cls-164"
       inkscape:connector-curvature="0"
       style="fill:#ca62a2" />
    <path
       id="path829"
       transform="translate(-7.83,-7.78)"
       d="m 33.28,23.55 h 47.8 a 9.56,9.56 0 0 1 9.5,9.5 v 47.8 a 9.56,9.56 0 0 1 -9.5,9.5 h -47.8 a 9.56,9.56 0 0 1 -9.5,-9.5 v -47.8 a 9.5,9.5 0 0 1 9.5,-9.5 z"
       class="cls-165"
       inkscape:connector-curvature="0"
       style="fill:#cb62a2" />
  </g>
</svg>
