<?xml version="1.0" encoding="UTF-8" standalone="no"?>
<svg
   xmlns:dc="http://purl.org/dc/elements/1.1/"
   xmlns:cc="http://creativecommons.org/ns#"
   xmlns:rdf="http://www.w3.org/1999/02/22-rdf-syntax-ns#"
   xmlns:svg="http://www.w3.org/2000/svg"
   xmlns="http://www.w3.org/2000/svg"
   xmlns:sodipodi="http://sodipodi.sourceforge.net/DTD/sodipodi-0.dtd"
   xmlns:inkscape="http://www.inkscape.org/namespaces/inkscape"
   id="Слой_1"
   data-name="Слой 1"
   viewBox="0 0 98.7 98.7"
   version="1.1"
   sodipodi:docname="color16.svg"
   inkscape:version="0.92.1 r15371">
  <metadata
     id="metadata6672">
    <rdf:RDF>
      <cc:Work
         rdf:about="">
        <dc:format>image/svg+xml</dc:format>
        <dc:type
           rdf:resource="http://purl.org/dc/dcmitype/StillImage" />
      </cc:Work>
    </rdf:RDF>
  </metadata>
  <sodipodi:namedview
     pagecolor="#ffffff"
     bordercolor="#666666"
     borderopacity="1"
     objecttolerance="10"
     gridtolerance="10"
     guidetolerance="10"
     inkscape:pageopacity="0"
     inkscape:pageshadow="2"
     inkscape:window-width="1920"
     inkscape:window-height="1031"
     id="namedview6670"
     showgrid="false"
     inkscape:zoom="6.7630073"
     inkscape:cx="71.57248"
     inkscape:cy="43.327005"
     inkscape:window-x="0"
     inkscape:window-y="0"
     inkscape:window-maximized="1"
     inkscape:current-layer="Слой_1" />
  <defs
     id="defs6259">
    <style
       id="style6257">.cls-1{fill:#501f3a;}.cls-2{fill:#51203b;}.cls-3{fill:#51213c;}.cls-4{fill:#52213c;}.cls-5{fill:#52223c;}.cls-6{fill:#52223d;}.cls-7{fill:#53233d;}.cls-8{fill:#53233e;}.cls-9{fill:#54243e;}.cls-10{fill:#54243f;}.cls-11{fill:#55253f;}.cls-12{fill:#552640;}.cls-13{fill:#562640;}.cls-14{fill:#562741;}.cls-15{fill:#572741;}.cls-16{fill:#572842;}.cls-17{fill:#582942;}.cls-18{fill:#582943;}.cls-19{fill:#582a43;}.cls-20{fill:#592a44;}.cls-21{fill:#592b44;}.cls-22{fill:#5a2b45;}.cls-23{fill:#5a2c45;}.cls-24{fill:#5a2c46;}.cls-25{fill:#5b2d46;}.cls-26{fill:#5b2e47;}.cls-27{fill:#5c2e47;}.cls-28{fill:#5c2f48;}.cls-29{fill:#5d2f48;}.cls-30{fill:#5d3049;}.cls-31{fill:#5e3049;}.cls-32{fill:#5e3149;}.cls-33{fill:#5e314a;}.cls-34{fill:#5f324a;}.cls-35{fill:#5f324b;}.cls-36{fill:#5f334b;}.cls-37{fill:#60334b;}.cls-38{fill:#60334c;}.cls-39{fill:#60344c;}.cls-40{fill:#61344d;}.cls-41{fill:#61354d;}.cls-42{fill:#62364e;}.cls-43{fill:#62374e;}.cls-44{fill:#63374f;}.cls-45{fill:#63384f;}.cls-46{fill:#633850;}.cls-47{fill:#643850;}.cls-48{fill:#643950;}.cls-49{fill:#643951;}.cls-50{fill:#653a51;}.cls-51{fill:#653a52;}.cls-52{fill:#653b52;}.cls-53{fill:#663b52;}.cls-54{fill:#663c53;}.cls-55{fill:#673c53;}.cls-56{fill:#673d54;}.cls-57{fill:#683d54;}.cls-58{fill:#683e55;}.cls-59{fill:#693f55;}.cls-60{fill:#693f56;}.cls-61{fill:#694056;}.cls-62{fill:#6a4057;}.cls-63{fill:#6a4157;}.cls-64{fill:#6b4158;}.cls-65{fill:#6b4258;}.cls-66{fill:#6b4259;}.cls-67{fill:#6c4359;}.cls-68{fill:#6c445a;}.cls-69{fill:#6d445a;}.cls-70{fill:#6d455b;}.cls-71{fill:#6e455b;}.cls-72{fill:#6e465c;}.cls-73{fill:#6f475c;}.cls-74{fill:#6f475d;}.cls-75{fill:#70485d;}.cls-76{fill:#70485e;}.cls-77{fill:#71495e;}.cls-78{fill:#71495f;}.cls-79{fill:#714a5f;}.cls-80{fill:#724a5f;}.cls-81{fill:#724b60;}.cls-82{fill:#734c61;}.cls-83{fill:#744d62;}.cls-84{fill:#744e63;}.cls-85{fill:#754e63;}.cls-86{fill:#754f63;}.cls-87{fill:#754f64;}.cls-88{fill:#765064;}.cls-89{fill:#765065;}.cls-90{fill:#775165;}.cls-91{fill:#775166;}.cls-92{fill:#785266;}.cls-93{fill:#785267;}.cls-94{fill:#785367;}.cls-95{fill:#795367;}.cls-96{fill:#795468;}.cls-97{fill:#7a5469;}.cls-98{fill:#7a5569;}.cls-99{fill:#7b566a;}.cls-100{fill:#7b576b;}.cls-101{fill:#7c576b;}.cls-102{fill:#7c586b;}.cls-103{fill:#7c586c;}.cls-104{fill:#7d586c;}.cls-105{fill:#7d596c;}.cls-106{fill:#7d596d;}.cls-107{fill:#7e5a6d;}.cls-108{fill:#7e5a6e;}.cls-109{fill:#7e5b6e;}.cls-110{fill:#7f5b6e;}.cls-111{fill:#7f5c6f;}.cls-112{fill:#805c70;}.cls-113{fill:#805d70;}.cls-114{fill:#815d70;}.cls-115{fill:#815e71;}.cls-116{fill:#825f72;}.cls-117{fill:#826072;}.cls-118{fill:#836073;}.cls-119{fill:#836174;}.cls-120{fill:#846174;}.cls-121{fill:#846274;}.cls-122{fill:#846275;}.cls-123{fill:#856375;}.cls-124{fill:#856376;}.cls-125{fill:#856476;}.cls-126{fill:#866476;}.cls-127{fill:#866577;}.cls-128{fill:#876578;}.cls-129{fill:#876678;}.cls-130{fill:#886779;}.cls-131{fill:#88687a;}.cls-132{fill:#89687a;}.cls-133{fill:#89697a;}.cls-134{fill:#8a697b;}.cls-135{fill:#8a6a7c;}.cls-136{fill:#8b6a7c;}.cls-137{fill:#8b6b7c;}.cls-138{fill:#8b6b7d;}.cls-139{fill:#8c6c7d;}.cls-140{fill:#8c6c7e;}.cls-141{fill:#8c6d7e;}.cls-142{fill:#8d6d7e;}.cls-143{fill:#8d6d7f;}.cls-144{fill:#8d6e7f;}.cls-145{fill:#8e6e7f;}.cls-146{fill:#8e6f80;}.cls-147{fill:#8f7081;}.cls-148{fill:#8f7181;}.cls-149{fill:#907182;}.cls-150{fill:#907283;}.cls-151{fill:#917283;}.cls-152{fill:#917383;}.cls-153{fill:#917384;}.cls-154{fill:#927484;}.cls-155{fill:#927485;}.cls-156{fill:#937585;}.cls-157{fill:#937586;}.cls-158{fill:#947686;}.cls-159{fill:#947687;}.cls-160{fill:#947787;}.cls-161{fill:#957787;}.cls-162{fill:#957888;}.cls-163{fill:#967989;}</style>
  </defs>
  <title
     id="title6261">color16</title>
  <g
     id="g13256">
    <path
       id="path6263"
       transform="translate(-7.77,-7.58)"
       d="m 92.47,7.58 a 14,14 0 0 1 14,14 v 0 70.7 a 14,14 0 0 1 -14,14 h -70.7 a 14,14 0 0 1 -14,-14 v -70.7 a 13.91,13.91 0 0 1 13.82,-14"
       class="cls-1"
       inkscape:connector-curvature="0"
       style="fill:#501f3a" />
    <path
       id="path6265"
       transform="translate(-7.77,-7.58)"
       d="m 92.4,7.68 a 14,14 0 0 1 14,14 v 0 70.53 a 14,14 0 0 1 -14,14 H 21.84 a 14,14 0 0 1 -14,-14 V 21.65 a 13.88,13.88 0 0 1 13.79,-14"
       class="cls-1"
       inkscape:connector-curvature="0"
       style="fill:#501f3a" />
    <path
       id="path6267"
       transform="translate(-7.77,-7.58)"
       d="m 92.33,7.78 a 13.94,13.94 0 0 1 13.94,13.94 v 0 70.42 A 13.94,13.94 0 0 1 92.33,106.08 H 21.91 A 13.94,13.94 0 0 1 8,92.14 V 21.72 A 13.85,13.85 0 0 1 21.73,7.78"
       class="cls-2"
       inkscape:connector-curvature="0"
       style="fill:#51203b" />
    <path
       id="path6269"
       transform="translate(-7.77,-7.58)"
       d="m 92.26,7.87 a 13.92,13.92 0 0 1 13.92,13.92 v 0 70.28 A 13.92,13.92 0 0 1 92.26,106 H 22 A 13.92,13.92 0 0 1 8.06,92.07 V 21.79 A 13.83,13.83 0 0 1 21.8,7.87"
       class="cls-2"
       inkscape:connector-curvature="0"
       style="fill:#51203b" />
    <path
       id="path6271"
       transform="translate(-7.77,-7.58)"
       d="m 92.19,8 a 13.89,13.89 0 0 1 13.89,13.89 v 0 V 92 A 13.89,13.89 0 0 1 92.19,105.89 H 22 A 13.89,13.89 0 0 1 8.16,92 V 21.86 A 13.8,13.8 0 0 1 21.87,8"
       class="cls-3"
       inkscape:connector-curvature="0"
       style="fill:#51213c" />
    <path
       id="path6273"
       transform="translate(-7.77,-7.58)"
       d="M 92.12,8.07 A 13.86,13.86 0 0 1 106,21.93 v 0 70 a 13.86,13.86 0 0 1 -13.86,13.86 h -70 A 13.86,13.86 0 0 1 8.26,91.93 v -70 A 13.77,13.77 0 0 1 21.94,8.07"
       class="cls-4"
       inkscape:connector-curvature="0"
       style="fill:#52213c" />
    <path
       id="path6275"
       transform="translate(-7.77,-7.58)"
       d="M 92,8.17 A 13.83,13.83 0 0 1 105.88,22 v 0 69.86 A 13.83,13.83 0 0 1 92,105.7 H 22.19 A 13.83,13.83 0 0 1 8.36,91.86 V 22 A 13.74,13.74 0 0 1 22,8.17"
       class="cls-5"
       inkscape:connector-curvature="0"
       style="fill:#52223c" />
    <path
       id="path6277"
       transform="translate(-7.77,-7.58)"
       d="m 92,8.27 a 13.81,13.81 0 0 1 13.81,13.81 v 0 69.71 A 13.81,13.81 0 0 1 92,105.6 H 22.26 A 13.81,13.81 0 0 1 8.45,91.79 V 22.07 A 13.72,13.72 0 0 1 22.08,8.27"
       class="cls-6"
       inkscape:connector-curvature="0"
       style="fill:#52223d" />
    <path
       id="path6279"
       transform="translate(-7.77,-7.58)"
       d="m 91.91,8.36 a 13.78,13.78 0 0 1 13.78,13.78 v 0 69.58 A 13.78,13.78 0 0 1 91.91,105.5 H 22.33 A 13.78,13.78 0 0 1 8.55,91.72 V 22.14 A 13.69,13.69 0 0 1 22.15,8.36"
       class="cls-7"
       inkscape:connector-curvature="0"
       style="fill:#53233d" />
    <path
       id="path6281"
       transform="translate(-7.77,-7.58)"
       d="m 91.84,8.46 a 13.75,13.75 0 0 1 13.75,13.75 v 0 69.44 A 13.75,13.75 0 0 1 91.84,105.4 H 22.4 A 13.75,13.75 0 0 1 8.65,91.65 V 22.21 A 13.66,13.66 0 0 1 22.22,8.46"
       class="cls-7"
       inkscape:connector-curvature="0"
       style="fill:#53233d" />
    <path
       id="path6283"
       transform="translate(-7.77,-7.58)"
       d="m 91.77,8.56 a 13.72,13.72 0 0 1 13.72,13.72 v 0 69.3 A 13.72,13.72 0 0 1 91.77,105.3 H 22.47 A 13.72,13.72 0 0 1 8.75,91.58 V 22.28 A 13.63,13.63 0 0 1 22.29,8.56"
       class="cls-8"
       inkscape:connector-curvature="0"
       style="fill:#53233e" />
    <path
       id="path6285"
       transform="translate(-7.77,-7.58)"
       d="m 91.7,8.66 a 13.7,13.7 0 0 1 13.7,13.7 v 0 69.15 a 13.7,13.7 0 0 1 -13.7,13.7 H 22.54 A 13.7,13.7 0 0 1 8.84,91.51 V 22.35 A 13.61,13.61 0 0 1 22.36,8.66"
       class="cls-9"
       inkscape:connector-curvature="0"
       style="fill:#54243e" />
    <path
       id="path6287"
       transform="translate(-7.77,-7.58)"
       d="m 91.63,8.75 a 13.67,13.67 0 0 1 13.67,13.67 v 0 69 a 13.67,13.67 0 0 1 -13.67,13.67 h -69 A 13.67,13.67 0 0 1 8.94,91.44 v -69 A 13.58,13.58 0 0 1 22.43,8.75"
       class="cls-10"
       inkscape:connector-curvature="0"
       style="fill:#54243f" />
    <path
       id="path6289"
       transform="translate(-7.77,-7.58)"
       d="m 91.56,8.85 a 13.64,13.64 0 0 1 13.64,13.64 v 0 68.88 A 13.64,13.64 0 0 1 91.56,105 H 22.68 A 13.64,13.64 0 0 1 9,91.37 V 22.49 A 13.55,13.55 0 0 1 22.5,8.85"
       class="cls-11"
       inkscape:connector-curvature="0"
       style="fill:#55253f" />
    <path
       id="path6291"
       transform="translate(-7.77,-7.58)"
       d="m 91.49,8.95 a 13.61,13.61 0 0 1 13.61,13.61 v 0 68.74 A 13.61,13.61 0 0 1 91.49,104.91 H 22.75 A 13.61,13.61 0 0 1 9.14,91.3 V 22.56 A 13.52,13.52 0 0 1 22.57,8.95"
       class="cls-11"
       inkscape:connector-curvature="0"
       style="fill:#55253f" />
    <path
       id="path6293"
       transform="translate(-7.77,-7.58)"
       d="M 91.42,9 A 13.58,13.58 0 0 1 105,22.63 v 0 68.6 A 13.58,13.58 0 0 1 91.42,104.81 H 22.82 A 13.58,13.58 0 0 1 9.24,91.23 V 22.63 A 13.5,13.5 0 0 1 22.64,9"
       class="cls-12"
       inkscape:connector-curvature="0"
       style="fill:#552640" />
    <path
       id="path6295"
       transform="translate(-7.77,-7.58)"
       d="m 91.35,9.15 a 13.56,13.56 0 0 1 13.56,13.55 v 0 68.46 A 13.56,13.56 0 0 1 91.35,104.72 H 22.89 A 13.56,13.56 0 0 1 9.33,91.16 V 22.7 A 13.47,13.47 0 0 1 22.72,9.15"
       class="cls-13"
       inkscape:connector-curvature="0"
       style="fill:#562640" />
    <path
       id="path6297"
       transform="translate(-7.77,-7.58)"
       d="m 91.28,9.24 a 13.53,13.53 0 0 1 13.53,13.53 v 0 68.32 A 13.53,13.53 0 0 1 91.28,104.62 H 23 A 13.53,13.53 0 0 1 9.43,91.09 V 22.77 A 13.44,13.44 0 0 1 22.79,9.24"
       class="cls-14"
       inkscape:connector-curvature="0"
       style="fill:#562741" />
    <path
       id="path6299"
       transform="translate(-7.77,-7.58)"
       d="m 91.21,9.34 a 13.5,13.5 0 0 1 13.5,13.5 v 0 V 91 a 13.5,13.5 0 0 1 -13.5,13.5 H 23 A 13.5,13.5 0 0 1 9.53,91 V 22.84 A 13.41,13.41 0 0 1 22.86,9.34"
       class="cls-14"
       inkscape:connector-curvature="0"
       style="fill:#562741" />
    <path
       id="path6301"
       transform="translate(-7.77,-7.58)"
       d="m 91.14,9.44 a 13.47,13.47 0 0 1 13.47,13.47 v 0 V 91 a 13.47,13.47 0 0 1 -13.47,13.47 h -68 A 13.47,13.47 0 0 1 9.63,91 V 23 A 13.39,13.39 0 0 1 22.93,9.44"
       class="cls-15"
       inkscape:connector-curvature="0"
       style="fill:#572741" />
    <path
       id="path6303"
       transform="translate(-7.77,-7.58)"
       d="M 91.07,9.54 A 13.45,13.45 0 0 1 104.52,23 v 0 67.9 A 13.45,13.45 0 0 1 91.07,104.35 H 23.17 A 13.45,13.45 0 0 1 9.72,90.88 V 23 A 13.36,13.36 0 0 1 23,9.54"
       class="cls-16"
       inkscape:connector-curvature="0"
       style="fill:#572842" />
    <path
       id="path6305"
       transform="translate(-7.77,-7.58)"
       d="m 91,9.63 a 13.42,13.42 0 0 1 13.42,13.42 v 0 67.76 A 13.42,13.42 0 0 1 91,104.23 H 23.24 A 13.42,13.42 0 0 1 9.82,90.81 V 23.05 A 13.33,13.33 0 0 1 23.07,9.63"
       class="cls-16"
       inkscape:connector-curvature="0"
       style="fill:#572842" />
    <path
       id="path6307"
       transform="translate(-7.77,-7.58)"
       d="m 90.93,9.73 a 13.39,13.39 0 0 1 13.39,13.39 v 0 67.62 A 13.39,13.39 0 0 1 90.93,104.13 H 23.31 A 13.39,13.39 0 0 1 9.92,90.74 V 23.12 A 13.3,13.3 0 0 1 23.14,9.73"
       class="cls-17"
       inkscape:connector-curvature="0"
       style="fill:#582942" />
    <path
       id="path6309"
       transform="translate(-7.77,-7.58)"
       d="m 90.86,9.83 a 13.36,13.36 0 0 1 13.36,13.36 v 0 67.48 A 13.36,13.36 0 0 1 90.86,104 H 23.38 A 13.36,13.36 0 0 1 10,90.67 V 23.19 A 13.28,13.28 0 0 1 23.21,9.83"
       class="cls-18"
       inkscape:connector-curvature="0"
       style="fill:#582943" />
    <path
       id="path6311"
       transform="translate(-7.77,-7.58)"
       d="m 90.79,9.93 a 13.33,13.33 0 0 1 13.33,13.33 v 0 67.34 A 13.33,13.33 0 0 1 90.79,103.93 H 23.45 A 13.33,13.33 0 0 1 10.12,90.6 V 23.26 A 13.25,13.25 0 0 1 23.28,9.93"
       class="cls-19"
       inkscape:connector-curvature="0"
       style="fill:#582a43" />
    <path
       id="path6313"
       transform="translate(-7.77,-7.58)"
       d="M 90.72,10 A 13.31,13.31 0 0 1 104,23.33 v 0 67.2 A 13.31,13.31 0 0 1 90.69,103.84 H 23.52 A 13.31,13.31 0 0 1 10.21,90.53 V 23.33 A 13.22,13.22 0 0 1 23.35,10"
       class="cls-20"
       inkscape:connector-curvature="0"
       style="fill:#592a44" />
    <path
       id="path6315"
       transform="translate(-7.77,-7.58)"
       d="m 90.65,10.12 a 13.28,13.28 0 0 1 13.28,13.28 v 0 67.06 A 13.28,13.28 0 0 1 90.65,103.74 H 23.59 A 13.28,13.28 0 0 1 10.31,90.46 V 23.4 A 13.19,13.19 0 0 1 23.42,10.12"
       class="cls-21"
       inkscape:connector-curvature="0"
       style="fill:#592b44" />
    <path
       id="path6317"
       transform="translate(-7.77,-7.58)"
       d="m 90.58,10.22 a 13.25,13.25 0 0 1 13.25,13.25 v 0 66.92 A 13.25,13.25 0 0 1 90.58,103.64 H 23.66 A 13.25,13.25 0 0 1 10.41,90.39 V 23.47 A 13.17,13.17 0 0 1 23.49,10.22"
       class="cls-21"
       inkscape:connector-curvature="0"
       style="fill:#592b44" />
    <path
       id="path6319"
       transform="translate(-7.77,-7.58)"
       d="m 90.51,10.32 a 13.22,13.22 0 0 1 13.22,13.22 v 0 66.78 A 13.22,13.22 0 0 1 90.51,103.54 H 23.73 A 13.22,13.22 0 0 1 10.51,90.32 V 23.54 A 13.14,13.14 0 0 1 23.56,10.32"
       class="cls-22"
       inkscape:connector-curvature="0"
       style="fill:#5a2b45" />
    <path
       id="path6321"
       transform="translate(-7.77,-7.58)"
       d="m 90.44,10.42 a 13.2,13.2 0 0 1 13.2,13.2 v 0 66.63 a 13.2,13.2 0 0 1 -13.2,13.2 H 23.8 A 13.2,13.2 0 0 1 10.6,90.25 V 23.61 a 13.11,13.11 0 0 1 13,-13.2"
       class="cls-23"
       inkscape:connector-curvature="0"
       style="fill:#5a2c45" />
    <path
       id="path6323"
       transform="translate(-7.77,-7.58)"
       d="m 90.37,10.51 a 13.17,13.17 0 0 1 13.17,13.17 v 0 66.5 A 13.17,13.17 0 0 1 90.37,103.35 H 23.87 A 13.17,13.17 0 0 1 10.7,90.18 v -66.5 a 13.08,13.08 0 0 1 13,-13.17"
       class="cls-24"
       inkscape:connector-curvature="0"
       style="fill:#5a2c46" />
    <path
       id="path6325"
       transform="translate(-7.77,-7.58)"
       d="m 90.3,10.61 a 13.14,13.14 0 0 1 13.14,13.14 v 0 66.36 A 13.14,13.14 0 0 1 90.3,103.25 H 23.94 A 13.14,13.14 0 0 1 10.8,90.11 V 23.75 a 13.06,13.06 0 0 1 13,-13.14"
       class="cls-25"
       inkscape:connector-curvature="0"
       style="fill:#5b2d46" />
    <path
       id="path6327"
       transform="translate(-7.77,-7.58)"
       d="m 90.23,10.71 a 13.11,13.11 0 0 1 13.11,13.11 v 0 V 90 A 13.11,13.11 0 0 1 90.23,103.11 H 24 A 13.11,13.11 0 0 1 10.9,90 V 23.82 A 13,13 0 0 1 23.84,10.71"
       class="cls-25"
       inkscape:connector-curvature="0"
       style="fill:#5b2d46" />
    <path
       id="path6329"
       transform="translate(-7.77,-7.58)"
       d="m 90.16,10.81 a 13.09,13.09 0 0 1 13.09,13.09 v 0 V 90 A 13.09,13.09 0 0 1 90.16,103.09 H 24.08 A 13.09,13.09 0 0 1 11,90 V 23.89 A 13,13 0 0 1 23.91,10.81"
       class="cls-26"
       inkscape:connector-curvature="0"
       style="fill:#5b2e47" />
    <path
       id="path6331"
       transform="translate(-7.77,-7.58)"
       d="M 90.09,10.9 A 13.06,13.06 0 0 1 103.15,24 v 0 65.9 A 13.06,13.06 0 0 1 90.09,103 H 24.15 A 13.06,13.06 0 0 1 11.09,89.9 V 24 A 13,13 0 0 1 24,10.9"
       class="cls-27"
       inkscape:connector-curvature="0"
       style="fill:#5c2e47" />
    <path
       id="path6333"
       transform="translate(-7.77,-7.58)"
       d="m 90,11 a 13,13 0 0 1 13,13 v 0 65.8 a 13,13 0 0 1 -13,13 H 24.22 a 13,13 0 0 1 -13,-13 V 24 A 13,13 0 0 1 24.05,11"
       class="cls-28"
       inkscape:connector-curvature="0"
       style="fill:#5c2f48" />
    <path
       id="path6335"
       transform="translate(-7.77,-7.58)"
       d="m 89.95,11.1 a 13,13 0 0 1 13,13 v 0 65.66 a 13,13 0 0 1 -13,13 H 24.29 a 13,13 0 0 1 -13,-13 V 24.1 a 12.92,12.92 0 0 1 12.83,-13"
       class="cls-28"
       inkscape:connector-curvature="0"
       style="fill:#5c2f48" />
    <path
       id="path6337"
       transform="translate(-7.77,-7.58)"
       d="m 89.88,11.2 a 13,13 0 0 1 13,13 v 0 65.49 a 13,13 0 0 1 -13,13 H 24.36 a 13,13 0 0 1 -13,-13 V 24.17 a 12.89,12.89 0 0 1 12.81,-13"
       class="cls-29"
       inkscape:connector-curvature="0"
       style="fill:#5d2f48" />
    <path
       id="path6339"
       transform="translate(-7.77,-7.58)"
       d="m 89.81,11.3 a 13,13 0 0 1 12.95,12.95 v 0 65.37 A 13,13 0 0 1 89.81,102.57 H 24.43 A 13,13 0 0 1 11.48,89.62 V 24.24 A 12.86,12.86 0 0 1 24.26,11.3"
       class="cls-30"
       inkscape:connector-curvature="0"
       style="fill:#5d3049" />
    <path
       id="path6341"
       transform="translate(-7.77,-7.58)"
       d="m 89.74,11.39 a 12.92,12.92 0 0 1 12.92,12.92 v 0 65.24 A 12.92,12.92 0 0 1 89.74,102.47 H 24.5 A 12.92,12.92 0 0 1 11.58,89.55 V 24.31 A 12.84,12.84 0 0 1 24.33,11.39"
       class="cls-31"
       inkscape:connector-curvature="0"
       style="fill:#5e3049" />
    <path
       id="path6343"
       transform="translate(-7.77,-7.58)"
       d="m 89.67,11.49 a 12.89,12.89 0 0 1 12.89,12.89 v 0 65.1 A 12.89,12.89 0 0 1 89.67,102.37 H 24.57 A 12.89,12.89 0 0 1 11.68,89.48 V 24.38 A 12.81,12.81 0 0 1 24.4,11.49"
       class="cls-32"
       inkscape:connector-curvature="0"
       style="fill:#5e3149" />
    <path
       id="path6345"
       transform="translate(-7.77,-7.58)"
       d="m 89.6,11.59 a 12.86,12.86 0 0 1 12.86,12.86 v 0 65 A 12.86,12.86 0 0 1 89.6,102.28 h -65 A 12.86,12.86 0 0 1 11.78,89.41 v -65 a 12.78,12.78 0 0 1 12.7,-12.86"
       class="cls-33"
       inkscape:connector-curvature="0"
       style="fill:#5e314a" />
    <path
       id="path6347"
       transform="translate(-7.77,-7.58)"
       d="m 89.53,11.69 a 12.84,12.84 0 0 1 12.84,12.84 v 0 64.81 A 12.84,12.84 0 0 1 89.53,102.18 H 24.71 A 12.84,12.84 0 0 1 11.87,89.34 V 24.52 A 12.75,12.75 0 0 1 24.54,11.69"
       class="cls-34"
       inkscape:connector-curvature="0"
       style="fill:#5f324a" />
    <path
       id="path6349"
       transform="translate(-7.77,-7.58)"
       d="m 89.46,11.78 a 12.81,12.81 0 0 1 12.81,12.81 v 0 64.68 A 12.81,12.81 0 0 1 89.46,102.08 H 24.78 A 12.81,12.81 0 0 1 12,89.27 V 24.59 A 12.73,12.73 0 0 1 24.61,11.78"
       class="cls-35"
       inkscape:connector-curvature="0"
       style="fill:#5f324b" />
    <path
       id="path6351"
       transform="translate(-7.77,-7.58)"
       d="m 89.39,11.88 a 12.78,12.78 0 0 1 12.78,12.78 v 0 64.54 A 12.78,12.78 0 0 1 89.39,102 H 24.85 A 12.78,12.78 0 0 1 12.07,89.2 V 24.66 A 12.7,12.7 0 0 1 24.69,11.88"
       class="cls-36"
       inkscape:connector-curvature="0"
       style="fill:#5f334b" />
    <path
       id="path6353"
       transform="translate(-7.77,-7.58)"
       d="m 89.32,12 a 12.75,12.75 0 0 1 12.75,12.75 v 0 64.4 A 12.75,12.75 0 0 1 89.32,101.9 H 24.92 A 12.75,12.75 0 0 1 12.17,89.13 V 24.73 A 12.67,12.67 0 0 1 24.76,12"
       class="cls-37"
       inkscape:connector-curvature="0"
       style="fill:#60334b" />
    <path
       id="path6355"
       transform="translate(-7.77,-7.58)"
       d="M 89.25,12.08 A 12.72,12.72 0 0 1 102,24.8 v 0 64.26 A 12.72,12.72 0 0 1 89.28,101.78 H 25 A 12.72,12.72 0 0 1 12.27,89.06 V 24.8 A 12.64,12.64 0 0 1 24.83,12.08"
       class="cls-38"
       inkscape:connector-curvature="0"
       style="fill:#60334c" />
    <path
       id="path6357"
       transform="translate(-7.77,-7.58)"
       d="m 89.18,12.17 a 12.7,12.7 0 0 1 12.7,12.7 v 0 V 89 a 12.7,12.7 0 0 1 -12.7,12.7 H 25.06 A 12.7,12.7 0 0 1 12.36,89 V 24.87 A 12.62,12.62 0 0 1 24.9,12.17"
       class="cls-39"
       inkscape:connector-curvature="0"
       style="fill:#60344c" />
    <path
       id="path6359"
       transform="translate(-7.77,-7.58)"
       d="m 89.11,12.27 a 12.67,12.67 0 0 1 12.67,12.67 v 0 64 a 12.67,12.67 0 0 1 -12.67,12.67 h -64 A 12.67,12.67 0 0 1 12.46,88.92 v -64 A 12.59,12.59 0 0 1 25,12.27"
       class="cls-40"
       inkscape:connector-curvature="0"
       style="fill:#61344d" />
    <path
       style="fill:#61354d"
       inkscape:connector-curvature="0"
       id="path6361"
       d="M 81.16,4.87 A 12.64,12.64 0 0 1 93.84,17.5 v 0 63.85 A 12.64,12.64 0 0 1 81.16,93.99 H 17.36 A 12.64,12.64 0 0 1 4.72,81.35 V 17.5 A 12.56,12.56 0 0 1 17.16,4.87"
       class="cls-41" />
    <path
       id="path6363"
       transform="translate(-7.77,-7.58)"
       d="m 89,12.47 a 12.61,12.61 0 0 1 12.61,12.61 v 0 63.7 A 12.61,12.61 0 0 1 89,101.4 H 25.27 A 12.61,12.61 0 0 1 12.66,88.78 V 25.08 A 12.53,12.53 0 0 1 25.11,12.47"
       class="cls-41"
       inkscape:connector-curvature="0"
       style="fill:#61354d" />
    <path
       id="path6365"
       transform="translate(-7.77,-7.58)"
       d="m 88.9,12.57 a 12.59,12.59 0 0 1 12.59,12.59 v 0 63.55 A 12.59,12.59 0 0 1 88.9,101.3 H 25.34 A 12.59,12.59 0 0 1 12.75,88.71 V 25.15 A 12.51,12.51 0 0 1 25.18,12.57"
       class="cls-42"
       inkscape:connector-curvature="0"
       style="fill:#62364e" />
    <path
       id="path6367"
       transform="translate(-7.77,-7.58)"
       d="m 88.83,12.66 a 12.56,12.56 0 0 1 12.56,12.56 v 0 63.42 A 12.56,12.56 0 0 1 88.83,101.2 H 25.41 A 12.56,12.56 0 0 1 12.85,88.64 V 25.22 a 12.48,12.48 0 0 1 12.4,-12.56"
       class="cls-42"
       inkscape:connector-curvature="0"
       style="fill:#62364e" />
    <path
       id="path6369"
       transform="translate(-7.77,-7.58)"
       d="m 88.76,12.76 a 12.53,12.53 0 0 1 12.53,12.53 v 0 63.28 A 12.53,12.53 0 0 1 88.76,101.1 H 25.48 A 12.53,12.53 0 0 1 12.95,88.57 V 25.29 A 12.45,12.45 0 0 1 25.32,12.76"
       class="cls-43"
       inkscape:connector-curvature="0"
       style="fill:#62374e" />
    <path
       id="path6371"
       transform="translate(-7.77,-7.58)"
       d="m 88.69,12.86 a 12.5,12.5 0 0 1 12.5,12.5 v 0 63.14 A 12.5,12.5 0 0 1 88.69,101 H 25.55 A 12.5,12.5 0 0 1 13,88.5 V 25.36 a 12.42,12.42 0 0 1 12.34,-12.5"
       class="cls-44"
       inkscape:connector-curvature="0"
       style="fill:#63374f" />
    <path
       id="path6373"
       transform="translate(-7.77,-7.58)"
       d="m 88.62,13 a 12.48,12.48 0 0 1 12.48,12.48 v 0 63 a 12.48,12.48 0 0 1 -12.48,12.48 h -63 A 12.48,12.48 0 0 1 13.14,88.43 v -63 A 12.4,12.4 0 0 1 25.46,13"
       class="cls-45"
       inkscape:connector-curvature="0"
       style="fill:#63384f" />
    <path
       id="path6375"
       transform="translate(-7.77,-7.58)"
       d="M 88.55,13.05 A 12.45,12.45 0 0 1 101,25.5 v 0 62.86 A 12.45,12.45 0 0 1 88.55,100.81 H 25.69 A 12.45,12.45 0 0 1 13.24,88.36 V 25.5 A 12.37,12.37 0 0 1 25.53,13.05"
       class="cls-46"
       inkscape:connector-curvature="0"
       style="fill:#633850" />
    <path
       id="path6377"
       transform="translate(-7.77,-7.58)"
       d="m 88.48,13.15 a 12.42,12.42 0 0 1 12.42,12.42 v 0 62.72 A 12.42,12.42 0 0 1 88.48,100.71 H 25.76 A 12.42,12.42 0 0 1 13.34,88.29 V 25.57 A 12.34,12.34 0 0 1 25.6,13.15"
       class="cls-47"
       inkscape:connector-curvature="0"
       style="fill:#643850" />
    <path
       id="path6379"
       transform="translate(-7.77,-7.58)"
       d="m 88.41,13.25 a 12.39,12.39 0 0 1 12.39,12.39 v 0 62.58 A 12.39,12.39 0 0 1 88.41,100.61 H 25.83 A 12.39,12.39 0 0 1 13.44,88.22 V 25.64 A 12.31,12.31 0 0 1 25.67,13.25"
       class="cls-48"
       inkscape:connector-curvature="0"
       style="fill:#643950" />
    <path
       id="path6381"
       transform="translate(-7.77,-7.58)"
       d="m 88.34,13.35 a 12.36,12.36 0 0 1 12.36,12.36 v 0 62.44 A 12.36,12.36 0 0 1 88.34,100.51 H 25.9 A 12.36,12.36 0 0 1 13.54,88.15 V 25.71 a 12.28,12.28 0 0 1 12.2,-12.36"
       class="cls-49"
       inkscape:connector-curvature="0"
       style="fill:#643951" />
    <path
       id="path6383"
       transform="translate(-7.77,-7.58)"
       d="m 88.27,13.45 a 12.34,12.34 0 0 1 12.34,12.34 v 0 62.3 A 12.34,12.34 0 0 1 88.27,100.43 H 26 A 12.34,12.34 0 0 1 13.63,88.08 V 25.78 A 12.26,12.26 0 0 1 25.81,13.45"
       class="cls-50"
       inkscape:connector-curvature="0"
       style="fill:#653a51" />
    <path
       id="path6385"
       transform="translate(-7.77,-7.58)"
       d="m 88.2,13.54 a 12.31,12.31 0 0 1 12.31,12.31 v 0 V 88 A 12.31,12.31 0 0 1 88.2,100.32 H 26 A 12.31,12.31 0 0 1 13.73,88 V 25.85 A 12.23,12.23 0 0 1 25.88,13.54"
       class="cls-51"
       inkscape:connector-curvature="0"
       style="fill:#653a52" />
    <path
       id="path6387"
       transform="translate(-7.77,-7.58)"
       d="m 88.13,13.64 a 12.28,12.28 0 0 1 12.28,12.28 v 0 62 A 12.28,12.28 0 0 1 88.13,100.2 h -62 A 12.28,12.28 0 0 1 13.83,87.94 v -62 A 12.2,12.2 0 0 1 26,13.64"
       class="cls-52"
       inkscape:connector-curvature="0"
       style="fill:#653b52" />
    <path
       id="path6389"
       transform="translate(-7.77,-7.58)"
       d="M 88.06,13.74 A 12.25,12.25 0 0 1 100.31,26 v 0 61.87 A 12.25,12.25 0 0 1 88.06,100.12 H 26.18 A 12.25,12.25 0 0 1 13.93,87.87 V 26 A 12.17,12.17 0 0 1 26,13.74"
       class="cls-53"
       inkscape:connector-curvature="0"
       style="fill:#663b52" />
    <path
       id="path6391"
       transform="translate(-7.77,-7.58)"
       d="m 88,13.84 a 12.23,12.23 0 0 1 12.23,12.23 v 0 61.73 A 12.23,12.23 0 0 1 88,100 H 26.25 A 12.23,12.23 0 0 1 14,87.8 V 26.06 A 12.15,12.15 0 0 1 26.09,13.84"
       class="cls-54"
       inkscape:connector-curvature="0"
       style="fill:#663c53" />
    <path
       id="path6393"
       transform="translate(-7.77,-7.58)"
       d="m 87.92,13.93 a 12.2,12.2 0 0 1 12.2,12.2 v 0 61.6 a 12.2,12.2 0 0 1 -12.2,12.2 h -61.6 a 12.2,12.2 0 0 1 -12.2,-12.2 v -61.6 a 12.12,12.12 0 0 1 12,-12.2"
       class="cls-55"
       inkscape:connector-curvature="0"
       style="fill:#673c53" />
    <path
       id="path6395"
       transform="translate(-7.77,-7.58)"
       d="M 87.85,14 A 12.17,12.17 0 0 1 100,26.2 v 0 61.46 A 12.17,12.17 0 0 1 87.85,99.83 H 26.39 A 12.17,12.17 0 0 1 14.22,87.66 V 26.2 A 12.09,12.09 0 0 1 26.23,14"
       class="cls-55"
       inkscape:connector-curvature="0"
       style="fill:#673c53" />
    <path
       id="path6397"
       transform="translate(-7.77,-7.58)"
       d="m 87.78,14.13 a 12.14,12.14 0 0 1 12.14,12.14 v 0 61.32 A 12.14,12.14 0 0 1 87.78,99.73 H 26.46 A 12.14,12.14 0 0 1 14.32,87.59 V 26.27 a 12.06,12.06 0 0 1 12,-12.14"
       class="cls-56"
       inkscape:connector-curvature="0"
       style="fill:#673d54" />
    <path
       id="path6399"
       transform="translate(-7.77,-7.58)"
       d="m 87.71,14.23 a 12.11,12.11 0 0 1 12.11,12.11 v 0 61.18 A 12.11,12.11 0 0 1 87.71,99.64 H 26.53 A 12.11,12.11 0 0 1 14.42,87.52 V 26.34 a 12,12 0 0 1 12,-12.11"
       class="cls-57"
       inkscape:connector-curvature="0"
       style="fill:#683d54" />
    <path
       id="path6401"
       transform="translate(-7.77,-7.58)"
       d="m 87.64,14.32 a 12.09,12.09 0 0 1 12.09,12.09 v 0 61 A 12.09,12.09 0 0 1 87.64,99.54 h -61 A 12.09,12.09 0 0 1 14.51,87.45 v -61 A 12,12 0 0 1 26.44,14.32"
       class="cls-58"
       inkscape:connector-curvature="0"
       style="fill:#683e55" />
    <path
       id="path6403"
       transform="translate(-7.77,-7.58)"
       d="m 87.57,14.42 a 12.06,12.06 0 0 1 12.06,12.06 v 0 60.9 A 12.06,12.06 0 0 1 87.57,99.44 H 26.67 A 12.06,12.06 0 0 1 14.61,87.38 v -60.9 a 12,12 0 0 1 11.9,-12.06"
       class="cls-58"
       inkscape:connector-curvature="0"
       style="fill:#683e55" />
    <path
       id="path6405"
       transform="translate(-7.77,-7.58)"
       d="m 87.5,14.52 a 12,12 0 0 1 12,12 v 0 60.79 a 12,12 0 0 1 -12,12 H 26.74 a 12,12 0 0 1 -12,-12 V 26.55 a 12,12 0 0 1 11.88,-12"
       class="cls-59"
       inkscape:connector-curvature="0"
       style="fill:#693f55" />
    <path
       id="path6407"
       transform="translate(-7.77,-7.58)"
       d="m 87.43,14.62 a 12,12 0 0 1 12,12 v 0 60.62 a 12,12 0 0 1 -12,12 H 26.81 a 12,12 0 0 1 -12,-12 V 26.62 a 11.93,11.93 0 0 1 11.85,-12"
       class="cls-60"
       inkscape:connector-curvature="0"
       style="fill:#693f56" />
    <path
       id="path6409"
       transform="translate(-7.77,-7.58)"
       d="m 87.36,14.72 a 12,12 0 0 1 12,12 v 0 60.45 a 12,12 0 0 1 -12,12 H 26.88 a 12,12 0 0 1 -12,-12 V 26.69 a 11.9,11.9 0 0 1 11.82,-12"
       class="cls-61"
       inkscape:connector-curvature="0"
       style="fill:#694056" />
    <path
       id="path6411"
       transform="translate(-7.77,-7.58)"
       d="m 87.29,14.81 a 12,12 0 0 1 11.95,11.95 v 0 60.34 A 12,12 0 0 1 87.29,99.05 H 26.95 A 12,12 0 0 1 15,87.1 V 26.76 A 11.87,11.87 0 0 1 26.8,14.81"
       class="cls-62"
       inkscape:connector-curvature="0"
       style="fill:#6a4057" />
    <path
       id="path6413"
       transform="translate(-7.77,-7.58)"
       d="m 87.22,14.91 a 11.92,11.92 0 0 1 11.92,11.92 v 0 V 87 A 11.92,11.92 0 0 1 87.22,99 H 27 A 11.92,11.92 0 0 1 15.1,87 V 26.83 A 11.84,11.84 0 0 1 26.87,14.91"
       class="cls-62"
       inkscape:connector-curvature="0"
       style="fill:#6a4057" />
    <path
       id="path6415"
       transform="translate(-7.77,-7.58)"
       d="M 87.15,15 A 11.89,11.89 0 0 1 99,26.9 v 0 V 87 A 11.89,11.89 0 0 1 87.15,98.85 H 27.09 A 11.89,11.89 0 0 1 15.2,87 V 26.9 A 11.82,11.82 0 0 1 26.94,15"
       class="cls-63"
       inkscape:connector-curvature="0"
       style="fill:#6a4157" />
    <path
       id="path6417"
       transform="translate(-7.77,-7.58)"
       d="M 87.08,15.11 A 11.87,11.87 0 0 1 98.95,27 v 0 59.89 A 11.87,11.87 0 0 1 87.08,98.76 H 27.16 A 11.87,11.87 0 0 1 15.29,86.89 V 27 A 11.79,11.79 0 0 1 27,15.11"
       class="cls-64"
       inkscape:connector-curvature="0"
       style="fill:#6b4158" />
    <path
       id="path6419"
       transform="translate(-7.77,-7.58)"
       d="M 87,15.2 A 11.84,11.84 0 0 1 98.85,27 v 0 59.82 A 11.84,11.84 0 0 1 87,98.66 H 27.23 A 11.84,11.84 0 0 1 15.39,86.82 V 27 A 11.76,11.76 0 0 1 27.08,15.2"
       class="cls-65"
       inkscape:connector-curvature="0"
       style="fill:#6b4258" />
    <path
       id="path6421"
       transform="translate(-7.77,-7.58)"
       d="m 86.94,15.3 a 11.81,11.81 0 0 1 11.81,11.81 v 0 59.64 A 11.81,11.81 0 0 1 86.94,98.56 H 27.3 A 11.81,11.81 0 0 1 15.49,86.75 V 27.11 A 11.73,11.73 0 0 1 27.15,15.3"
       class="cls-66"
       inkscape:connector-curvature="0"
       style="fill:#6b4259" />
    <path
       id="path6423"
       transform="translate(-7.77,-7.58)"
       d="m 86.87,15.4 a 11.78,11.78 0 0 1 11.78,11.78 v 0 59.5 A 11.78,11.78 0 0 1 86.87,98.46 H 27.37 A 11.78,11.78 0 0 1 15.59,86.68 V 27.18 A 11.71,11.71 0 0 1 27.22,15.4"
       class="cls-67"
       inkscape:connector-curvature="0"
       style="fill:#6c4359" />
    <path
       id="path6425"
       transform="translate(-7.77,-7.58)"
       d="m 86.8,15.5 a 11.75,11.75 0 0 1 11.75,11.75 v 0 59.36 A 11.75,11.75 0 0 1 86.8,98.37 H 27.44 A 11.75,11.75 0 0 1 15.69,86.61 V 27.25 A 11.68,11.68 0 0 1 27.29,15.5"
       class="cls-67"
       inkscape:connector-curvature="0"
       style="fill:#6c4359" />
    <path
       id="path6427"
       transform="translate(-7.77,-7.58)"
       d="m 86.73,15.6 a 11.73,11.73 0 0 1 11.73,11.72 v 0 59.22 A 11.73,11.73 0 0 1 86.73,98.27 H 27.51 A 11.73,11.73 0 0 1 15.78,86.54 V 27.32 A 11.65,11.65 0 0 1 27.36,15.6"
       class="cls-68"
       inkscape:connector-curvature="0"
       style="fill:#6c445a" />
    <path
       id="path6429"
       transform="translate(-7.77,-7.58)"
       d="m 86.66,15.69 a 11.7,11.7 0 0 1 11.7,11.7 v 0 59.08 a 11.7,11.7 0 0 1 -11.7,11.7 H 27.58 A 11.7,11.7 0 0 1 15.88,86.47 V 27.39 a 11.62,11.62 0 0 1 11.55,-11.7"
       class="cls-69"
       inkscape:connector-curvature="0"
       style="fill:#6d445a" />
    <path
       id="path6431"
       transform="translate(-7.77,-7.58)"
       d="m 86.59,15.79 a 11.67,11.67 0 0 1 11.67,11.67 v 0 58.94 A 11.67,11.67 0 0 1 86.59,98.07 H 27.65 A 11.67,11.67 0 0 1 16,86.4 V 27.46 A 11.6,11.6 0 0 1 27.5,15.79"
       class="cls-69"
       inkscape:connector-curvature="0"
       style="fill:#6d445a" />
    <path
       id="path6433"
       transform="translate(-7.77,-7.58)"
       d="m 86.52,15.89 a 11.64,11.64 0 0 1 11.64,11.64 v 0 58.8 A 11.64,11.64 0 0 1 86.52,98 H 27.72 A 11.64,11.64 0 0 1 16.08,86.33 V 27.53 A 11.57,11.57 0 0 1 27.57,15.89"
       class="cls-70"
       inkscape:connector-curvature="0"
       style="fill:#6d455b" />
    <path
       id="path6435"
       transform="translate(-7.77,-7.58)"
       d="m 86.45,16 a 11.62,11.62 0 0 1 11.62,11.6 v 0 58.66 A 11.62,11.62 0 0 1 86.45,97.88 H 27.79 A 11.62,11.62 0 0 1 16.17,86.26 V 27.6 A 11.54,11.54 0 0 1 27.64,16"
       class="cls-71"
       inkscape:connector-curvature="0"
       style="fill:#6e455b" />
    <path
       id="path6437"
       transform="translate(-7.77,-7.58)"
       d="M 86.38,16.08 A 11.59,11.59 0 0 1 98,27.67 v 0 58.52 A 11.59,11.59 0 0 1 86.38,97.78 H 27.86 A 11.59,11.59 0 0 1 16.27,86.19 V 27.67 A 11.51,11.51 0 0 1 27.71,16.08"
       class="cls-72"
       inkscape:connector-curvature="0"
       style="fill:#6e465c" />
    <path
       id="path6439"
       transform="translate(-7.77,-7.58)"
       d="m 86.31,16.18 a 11.56,11.56 0 0 1 11.56,11.56 v 0 58.38 A 11.56,11.56 0 0 1 86.31,97.68 H 27.93 A 11.56,11.56 0 0 1 16.37,86.12 V 27.74 A 11.49,11.49 0 0 1 27.78,16.18"
       class="cls-72"
       inkscape:connector-curvature="0"
       style="fill:#6e465c" />
    <path
       id="path6441"
       transform="translate(-7.77,-7.58)"
       d="m 86.24,16.28 a 11.53,11.53 0 0 1 11.53,11.53 v 0 58.24 A 11.53,11.53 0 0 1 86.24,97.58 H 28 A 11.53,11.53 0 0 1 16.47,86.05 V 27.81 A 11.46,11.46 0 0 1 27.85,16.28"
       class="cls-73"
       inkscape:connector-curvature="0"
       style="fill:#6f475c" />
    <path
       id="path6443"
       transform="translate(-7.77,-7.58)"
       d="m 86.17,16.38 a 11.5,11.5 0 0 1 11.5,11.5 v 0 V 86 A 11.5,11.5 0 0 1 86.17,97.5 H 28.07 A 11.5,11.5 0 0 1 16.56,86 V 27.88 a 11.43,11.43 0 0 1 11.36,-11.5"
       class="cls-74"
       inkscape:connector-curvature="0"
       style="fill:#6f475d" />
    <path
       id="path6445"
       transform="translate(-7.77,-7.58)"
       d="M 86.1,16.47 A 11.48,11.48 0 0 1 97.58,28 v 0 58 A 11.48,11.48 0 0 1 86.1,97.39 h -58 A 11.48,11.48 0 0 1 16.66,85.91 V 28 A 11.4,11.4 0 0 1 28,16.47"
       class="cls-75"
       inkscape:connector-curvature="0"
       style="fill:#70485d" />
    <path
       id="path6447"
       transform="translate(-7.77,-7.58)"
       d="M 86,16.57 A 11.45,11.45 0 0 1 97.48,28 v 0 57.84 A 11.45,11.45 0 0 1 86,97.29 H 28.21 A 11.45,11.45 0 0 1 16.76,85.84 V 28 a 11.38,11.38 0 0 1 11.3,-11.45"
       class="cls-76"
       inkscape:connector-curvature="0"
       style="fill:#70485e" />
    <path
       id="path6449"
       transform="translate(-7.77,-7.58)"
       d="m 86,16.67 a 11.42,11.42 0 0 1 11.38,11.42 v 0 57.68 A 11.42,11.42 0 0 1 86,97.19 H 28.28 A 11.42,11.42 0 0 1 16.86,85.77 V 28.09 A 11.35,11.35 0 0 1 28.13,16.67"
       class="cls-76"
       inkscape:connector-curvature="0"
       style="fill:#70485e" />
    <path
       id="path6451"
       transform="translate(-7.77,-7.58)"
       d="m 85.89,16.77 a 11.39,11.39 0 0 1 11.39,11.39 v 0 57.54 A 11.39,11.39 0 0 1 85.89,97.1 H 28.35 A 11.39,11.39 0 0 1 17,85.7 V 28.16 A 11.32,11.32 0 0 1 28.2,16.77"
       class="cls-77"
       inkscape:connector-curvature="0"
       style="fill:#71495e" />
    <path
       id="path6453"
       transform="translate(-7.77,-7.58)"
       d="m 85.82,16.87 a 11.37,11.37 0 0 1 11.37,11.36 v 0 57.4 A 11.37,11.37 0 0 1 85.82,97 H 28.42 A 11.37,11.37 0 0 1 17.05,85.63 V 28.23 A 11.29,11.29 0 0 1 28.27,16.87"
       class="cls-78"
       inkscape:connector-curvature="0"
       style="fill:#71495f" />
    <path
       id="path6455"
       transform="translate(-7.77,-7.58)"
       d="m 85.75,17 a 11.34,11.34 0 0 1 11.34,11.3 v 0 57.26 A 11.34,11.34 0 0 1 85.75,96.9 H 28.49 A 11.34,11.34 0 0 1 17.15,85.56 V 28.3 A 11.27,11.27 0 0 1 28.34,17"
       class="cls-79"
       inkscape:connector-curvature="0"
       style="fill:#714a5f" />
    <path
       id="path6457"
       transform="translate(-7.77,-7.58)"
       d="M 85.68,17.06 A 11.31,11.31 0 0 1 97,28.37 v 0 57.12 A 11.31,11.31 0 0 1 85.68,96.8 H 28.56 A 11.31,11.31 0 0 1 17.25,85.49 V 28.37 A 11.24,11.24 0 0 1 28.41,17.06"
       class="cls-80"
       inkscape:connector-curvature="0"
       style="fill:#724a5f" />
    <path
       id="path6459"
       transform="translate(-7.77,-7.58)"
       d="m 85.61,17.16 a 11.28,11.28 0 0 1 11.28,11.28 v 0 57 A 11.28,11.28 0 0 1 85.61,96.71 h -57 A 11.28,11.28 0 0 1 17.35,85.42 v -57 A 11.21,11.21 0 0 1 28.48,17.16"
       class="cls-81"
       inkscape:connector-curvature="0"
       style="fill:#724b60" />
    <path
       id="path6461"
       transform="translate(-7.77,-7.58)"
       d="M 85.54,17.26 A 11.26,11.26 0 0 1 96.8,28.51 v 0 56.84 A 11.26,11.26 0 0 1 85.54,96.61 H 28.7 A 11.26,11.26 0 0 1 17.44,85.35 V 28.51 A 11.18,11.18 0 0 1 28.55,17.26"
       class="cls-81"
       inkscape:connector-curvature="0"
       style="fill:#724b60" />
    <path
       id="path6463"
       transform="translate(-7.77,-7.58)"
       d="M 85.47,17.35 A 11.23,11.23 0 0 1 96.7,28.58 v 0 56.7 A 11.23,11.23 0 0 1 85.47,96.51 H 28.77 A 11.23,11.23 0 0 1 17.54,85.28 V 28.58 A 11.16,11.16 0 0 1 28.62,17.35"
       class="cls-82"
       inkscape:connector-curvature="0"
       style="fill:#734c61" />
    <path
       id="path6465"
       transform="translate(-7.77,-7.58)"
       d="m 85.4,17.45 a 11.2,11.2 0 0 1 11.2,11.2 v 0 56.56 A 11.2,11.2 0 0 1 85.4,96.41 H 28.84 A 11.2,11.2 0 0 1 17.64,85.21 V 28.65 A 11.13,11.13 0 0 1 28.7,17.45"
       class="cls-82"
       inkscape:connector-curvature="0"
       style="fill:#734c61" />
    <path
       id="path6467"
       transform="translate(-7.77,-7.58)"
       d="m 85.36,17.51 a 11.18,11.18 0 0 1 11.18,11.18 v 0 56.48 A 11.18,11.18 0 0 1 85.38,96.35 H 29 A 11.19,11.19 0 0 1 17.79,85.26 c -0.05,0 -0.09,-14.08 -0.09,-14.13 v -42.4 a 11.25,11.25 0 0 1 0.43,-3.17 11.11,11.11 0 0 1 10.61,-8 h 0.47"
       class="cls-82"
       inkscape:connector-curvature="0"
       style="fill:#734c61" />
    <path
       id="path6469"
       transform="translate(-7.77,-7.58)"
       d="m 85.31,17.57 a 11.17,11.17 0 0 1 11.17,11.17 v 0 56.38 A 11.16,11.16 0 0 1 85.37,96.28 H 29.16 a 11.18,11.18 0 0 1 -11.22,-11 c -0.1,0 -0.19,-14 -0.19,-14.08 V 28.8 a 11.38,11.38 0 0 1 0.43,-3.17 11.09,11.09 0 0 1 10.6,-8.06 h 0.95"
       class="cls-83"
       inkscape:connector-curvature="0"
       style="fill:#744d62" />
    <path
       id="path6471"
       transform="translate(-7.77,-7.58)"
       d="m 85.27,17.63 a 11.15,11.15 0 0 1 11.15,11.15 v 0 56.3 A 11.14,11.14 0 0 1 85.35,96.21 h -56 A 11.18,11.18 0 0 1 18.1,85.36 c -0.16,0 -0.28,-13.88 -0.28,-14 V 28.88 a 11.5,11.5 0 0 1 0.42,-3.17 11.07,11.07 0 0 1 10.59,-8.07 h 1.42"
       class="cls-83"
       inkscape:connector-curvature="0"
       style="fill:#744d62" />
    <path
       id="path6473"
       transform="translate(-7.77,-7.58)"
       d="m 85.23,17.69 a 11.14,11.14 0 0 1 11.13,11.13 v 0 V 85 a 11.11,11.11 0 0 1 -11,11.12 c 0,0 -4.08,0 -4.12,0 H 29.49 c -5.94,0 -11.23,-4.82 -11.23,-10.76 -0.21,0 -0.37,-13.78 -0.38,-14 V 29 a 11.63,11.63 0 0 1 0.42,-3.18 11,11 0 0 1 10.57,-8.09 h 1.89"
       class="cls-84"
       inkscape:connector-curvature="0"
       style="fill:#744e63" />
    <path
       id="path6475"
       transform="translate(-7.77,-7.58)"
       d="M 85.18,17.74 A 11.12,11.12 0 0 1 96.3,28.86 v 0 V 85 a 11.09,11.09 0 0 1 -11,11.09 c 0,0 -4.06,0 -4.11,0 H 29.65 c -5.88,0 -11.24,-4.77 -11.24,-10.65 -0.26,0 -0.47,-13.68 -0.47,-13.94 V 29 a 11.76,11.76 0 0 1 0.41,-3.18 11,11 0 0 1 10.56,-8.1 h 2.37"
       class="cls-85"
       inkscape:connector-curvature="0"
       style="fill:#754e63" />
    <path
       id="path6477"
       transform="translate(-7.77,-7.58)"
       d="m 85.14,17.8 a 11.1,11.1 0 0 1 11.1,11.1 v 0 56 A 11.07,11.07 0 0 1 85.31,96 c -0.05,0 -4,0 -4.09,0 H 29.81 C 24,96 18.57,91.32 18.57,85.51 c -0.31,0 -0.56,-13.58 -0.56,-13.9 V 29.1 A 11.9,11.9 0 0 1 18.42,25.92 11,11 0 0 1 29,17.8 h 2.8"
       class="cls-86"
       inkscape:connector-curvature="0"
       style="fill:#754f63" />
    <path
       id="path6479"
       transform="translate(-7.77,-7.58)"
       d="m 85.1,17.86 a 11.09,11.09 0 0 1 11.08,11.08 v 0 56 A 11.05,11.05 0 0 1 85.29,95.95 c -0.06,0 -4,0 -4.08,0 H 30 c -5.76,0 -11.25,-4.67 -11.25,-10.42 -0.36,0 -0.66,-13.49 -0.66,-13.85 V 29.18 A 12,12 0 0 1 18.47,26 11,11 0 0 1 29,17.86 h 3.31"
       class="cls-87"
       inkscape:connector-curvature="0"
       style="fill:#754f64" />
    <path
       id="path6481"
       transform="translate(-7.77,-7.58)"
       d="M 85.05,17.92 A 11.07,11.07 0 0 1 96.12,29 v 0 55.85 a 11,11 0 0 1 -10.84,11 c -0.07,0 -4,0 -4.07,0 H 30.14 c -5.7,0 -11.26,-4.62 -11.26,-10.31 -0.41,0 -0.75,-13.39 -0.75,-13.8 V 29.25 a 12.18,12.18 0 0 1 0.4,-3.18 11,11 0 0 1 10.53,-8.15 h 3.79"
       class="cls-88"
       inkscape:connector-curvature="0"
       style="fill:#765064" />
    <path
       id="path6483"
       transform="translate(-7.77,-7.58)"
       d="m 85,18 a 11.05,11.05 0 0 1 11,11 v 0 55.81 a 11,11 0 0 1 -10.8,11 c -0.08,0 -4,0 -4.05,0 H 30.3 C 24.66,95.85 19,91.29 19,85.65 18.53,85.65 18.16,72.36 18.15,71.89 V 29.33 A 12.32,12.32 0 0 1 18.55,26.14 10.94,10.94 0 0 1 29.1,18 h 4.26"
       class="cls-89"
       inkscape:connector-curvature="0"
       style="fill:#765065" />
    <path
       id="path6485"
       transform="translate(-7.77,-7.58)"
       d="m 85,18 a 11,11 0 0 1 11,11 v 0 55.76 a 11,11 0 0 1 -10.75,11 c -0.09,0 -3.94,0 -4,0 H 30.46 c -5.57,0 -11.28,-4.52 -11.28,-10.09 -0.52,0 -0.94,-13.19 -0.94,-13.71 V 29.4 A 12.47,12.47 0 0 1 18.63,26.21 10.92,10.92 0 0 1 29.14,18 h 4.73"
       class="cls-89"
       inkscape:connector-curvature="0"
       style="fill:#765065" />
    <path
       id="path6487"
       transform="translate(-7.77,-7.58)"
       d="m 84.92,18.1 a 11,11 0 0 1 11,11 v 0 55.62 a 11,11 0 0 1 -10.71,11 c -0.1,0 -3.92,0 -4,0 H 30.62 c -5.51,0 -11.29,-4.47 -11.29,-10 -0.57,0 -1,-13.09 -1,-13.66 V 29.48 a 12.62,12.62 0 0 1 0.39,-3.19 10.9,10.9 0 0 1 10.5,-8.19 h 5.21"
       class="cls-90"
       inkscape:connector-curvature="0"
       style="fill:#775165" />
    <path
       id="path6489"
       transform="translate(-7.77,-7.58)"
       d="m 84.88,18.15 a 11,11 0 0 1 11,11 v 0 55.52 A 11,11 0 0 1 85.22,95.62 c -0.11,0 -3.9,0.05 -4,0.05 H 30.78 c -5.45,0 -11.29,-4.42 -11.29,-9.87 -0.62,0 -1.12,-13 -1.13,-13.62 V 29.55 a 12.78,12.78 0 0 1 0.38,-3.19 10.87,10.87 0 0 1 10.49,-8.21 h 5.68"
       class="cls-91"
       inkscape:connector-curvature="0"
       style="fill:#775166" />
    <path
       id="path6491"
       transform="translate(-7.77,-7.58)"
       d="m 84.84,18.21 a 11,11 0 0 1 11,11 v 0 55.42 A 10.93,10.93 0 0 1 85.2,95.55 c -0.12,0 -3.87,0.06 -4,0.06 H 30.95 c -5.39,0 -11.3,-4.37 -11.3,-9.76 -0.67,0 -1.22,-12.9 -1.22,-13.57 V 29.63 a 12.93,12.93 0 0 1 0.38,-3.19 10.85,10.85 0 0 1 10.48,-8.22 h 6.15"
       class="cls-92"
       inkscape:connector-curvature="0"
       style="fill:#785266" />
    <path
       id="path6493"
       transform="translate(-7.77,-7.58)"
       d="m 84.79,18.27 a 11,11 0 0 1 11,11 v 0 55.31 a 10.91,10.91 0 0 1 -10.57,10.9 c -0.12,0 -3.85,0.06 -4,0.06 H 31.11 c -5.33,0 -11.31,-4.32 -11.31,-9.65 -0.73,0 -1.31,-12.8 -1.32,-13.53 V 29.7 a 13.09,13.09 0 0 1 0.38,-3.19 10.83,10.83 0 0 1 10.46,-8.23 h 6.63"
       class="cls-93"
       inkscape:connector-curvature="0"
       style="fill:#785267" />
    <path
       id="path6495"
       transform="translate(-7.77,-7.58)"
       d="M 84.75,18.33 A 11,11 0 0 1 95.7,29.28 v 0 55.26 A 10.89,10.89 0 0 1 85.17,95.42 c -0.13,0 -3.83,0.07 -4,0.07 H 31.27 C 26,95.48 20,91.21 20,85.95 c -0.78,0 -1.41,-12.7 -1.41,-13.48 V 29.78 a 13.26,13.26 0 0 1 0.37,-3.2 10.81,10.81 0 0 1 10.45,-8.25 h 7.1"
       class="cls-94"
       inkscape:connector-curvature="0"
       style="fill:#785367" />
    <path
       id="path6497"
       transform="translate(-7.77,-7.58)"
       d="m 84.71,18.39 a 10.94,10.94 0 0 1 10.93,10.93 v 0 55.17 A 10.87,10.87 0 0 1 85.15,95.35 c -0.14,0 -3.8,0.07 -4,0.07 H 31.43 c -5.21,0 -11.32,-4.22 -11.32,-9.43 -0.83,0 -1.5,-12.6 -1.5,-13.43 V 29.85 a 13.43,13.43 0 0 1 0.37,-3.2 10.79,10.79 0 0 1 10.44,-8.26 H 37"
       class="cls-95"
       inkscape:connector-curvature="0"
       style="fill:#795367" />
    <path
       id="path6499"
       transform="translate(-7.77,-7.58)"
       d="m 84.66,18.45 a 10.92,10.92 0 0 1 10.92,10.91 v 0 55.09 A 10.85,10.85 0 0 1 85.14,95.28 c -0.15,0 -3.78,0.07 -3.95,0.07 h -49.6 c -5.14,0 -11.33,-4.17 -11.33,-9.31 -0.88,0 -1.59,-12.51 -1.6,-13.39 V 29.92 a 13.6,13.6 0 0 1 0.36,-3.2 10.77,10.77 0 0 1 10.43,-8.28 h 8"
       class="cls-96"
       inkscape:connector-curvature="0"
       style="fill:#795468" />
    <path
       id="path6501"
       transform="translate(-7.77,-7.58)"
       d="m 84.62,18.5 a 10.91,10.91 0 0 1 10.9,10.9 v 0 55 a 10.82,10.82 0 0 1 -10.4,10.82 c -0.16,0.05 -3.76,0.08 -3.93,0.08 H 31.76 c -5.08,0 -11.34,-4.12 -11.34,-9.2 -0.93,0 -1.69,-12.41 -1.69,-13.34 V 30 A 13.78,13.78 0 0 1 19.09,26.8 10.75,10.75 0 0 1 29.5,18.5 H 38"
       class="cls-96"
       inkscape:connector-curvature="0"
       style="fill:#795468" />
    <path
       id="path6503"
       transform="translate(-7.77,-7.58)"
       d="m 84.58,18.56 a 10.89,10.89 0 0 1 10.88,10.88 v 0 54.92 a 10.8,10.8 0 0 1 -10.35,10.8 c -0.17,0.05 -3.73,0.08 -3.92,0.08 H 31.92 c -5,0 -11.35,-4.07 -11.35,-9.09 -1,0 -1.78,-12.31 -1.79,-13.29 V 30.07 a 14,14 0 0 1 0.35,-3.2 10.73,10.73 0 0 1 10.41,-8.31 h 9"
       class="cls-97"
       inkscape:connector-curvature="0"
       style="fill:#7a5469" />
    <path
       id="path6505"
       transform="translate(-7.77,-7.58)"
       d="M 84.53,18.62 A 10.88,10.88 0 0 1 95.4,29.49 v 0 54.82 A 10.78,10.78 0 0 1 85.1,95.09 c -0.18,0.06 -3.71,0.09 -3.91,0.09 H 32.08 c -5,0 -11.36,-4 -11.36,-9 -1,0 -1.87,-12.21 -1.88,-13.25 V 30.15 a 14.15,14.15 0 0 1 0.35,-3.21 10.71,10.71 0 0 1 10.4,-8.32 h 9.47"
       class="cls-98"
       inkscape:connector-curvature="0"
       style="fill:#7a5569" />
    <path
       id="path6507"
       transform="translate(-7.77,-7.58)"
       d="m 84.49,18.68 a 10.86,10.86 0 0 1 10.85,10.85 v 0 54.74 A 10.76,10.76 0 0 1 85.08,95 c -0.19,0.06 -3.69,0.09 -3.89,0.09 H 32.24 c -4.9,0 -11.36,-4 -11.36,-8.87 -1.09,0 -2,-12.11 -2,-13.2 V 30.22 A 14.34,14.34 0 0 1 19.25,27 10.69,10.69 0 0 1 29.64,18.66 h 9.94"
       class="cls-98"
       inkscape:connector-curvature="0"
       style="fill:#7a5569" />
    <path
       id="path6509"
       transform="translate(-7.77,-7.58)"
       d="m 84.45,18.74 a 10.84,10.84 0 0 1 10.83,10.83 v 0 54.65 A 10.74,10.74 0 0 1 85.06,95 c -0.19,0.06 -3.67,0.1 -3.88,0.1 H 32.4 C 27.57,95.05 21,91.13 21,86.29 c -1.14,0 -2.06,-12 -2.07,-13.16 V 30.3 a 14.54,14.54 0 0 1 0.34,-3.21 10.67,10.67 0 0 1 10.38,-8.35 h 10.44"
       class="cls-99"
       inkscape:connector-curvature="0"
       style="fill:#7b566a" />
    <path
       id="path6511"
       transform="translate(-7.77,-7.58)"
       d="m 84.4,18.8 a 10.83,10.83 0 0 1 10.82,10.81 v 0 54.57 A 10.72,10.72 0 0 1 85,94.89 c -0.2,0.06 -3.64,0.1 -3.87,0.1 H 32.57 C 27.79,94.99 21.19,91.12 21.19,86.34 20,86.33 19,74.42 19,73.23 V 30.37 a 14.74,14.74 0 0 1 0.34,-3.21 10.66,10.66 0 0 1 10.39,-8.36 h 10.88"
       class="cls-99"
       inkscape:connector-curvature="0"
       style="fill:#7b566a" />
    <path
       id="path6513"
       transform="translate(-7.77,-7.58)"
       d="m 84.36,18.86 a 10.81,10.81 0 0 1 10.8,10.8 v 0 54.47 A 10.71,10.71 0 0 1 85,94.82 c -0.21,0.07 -3.62,0.1 -3.85,0.11 H 32.73 c -4.72,0 -11.39,-3.82 -11.39,-8.54 -1.24,0 -2.25,-11.82 -2.26,-13.06 V 30.45 a 15,15 0 0 1 0.33,-3.21 10.64,10.64 0 0 1 10.35,-8.38 h 11.37"
       class="cls-100"
       inkscape:connector-curvature="0"
       style="fill:#7b576b" />
    <path
       id="path6515"
       transform="translate(-7.77,-7.58)"
       d="m 84.32,18.91 a 10.79,10.79 0 0 1 10.77,10.78 v 0 54.4 A 10.69,10.69 0 0 1 85,94.75 c -0.22,0.07 -3.6,0.11 -3.84,0.11 H 32.89 c -4.65,0 -11.39,-3.77 -11.39,-8.43 -1.3,0 -2.34,-11.72 -2.35,-13 V 30.52 a 15.16,15.16 0 0 1 0.33,-3.21 10.62,10.62 0 0 1 10.34,-8.39 h 11.83"
       class="cls-101"
       inkscape:connector-curvature="0"
       style="fill:#7c576b" />
    <path
       id="path6517"
       transform="translate(-7.77,-7.58)"
       d="M 84.27,19 A 10.78,10.78 0 0 1 95,29.74 v 0 V 84 A 10.67,10.67 0 0 1 85,94.69 c -0.23,0.07 -3.57,0.11 -3.83,0.11 H 33.05 c -4.59,0 -11.4,-3.72 -11.4,-8.32 -1.35,0 -2.44,-11.62 -2.45,-13 V 30.6 A 15.38,15.38 0 0 1 19.52,27.38 10.6,10.6 0 0 1 29.86,19 h 12.3"
       class="cls-102"
       inkscape:connector-curvature="0"
       style="fill:#7c586b" />
    <path
       id="path6519"
       transform="translate(-7.77,-7.58)"
       d="M 84.23,19 A 10.76,10.76 0 0 1 95,29.78 v 0 V 84 A 10.65,10.65 0 0 1 85,94.62 c -0.24,0.08 -3.55,0.12 -3.81,0.12 h -48 c -4.53,0 -11.41,-3.67 -11.41,-8.21 -1.4,0 -2.53,-11.53 -2.54,-12.92 V 30.67 A 15.61,15.61 0 0 1 19.56,27.45 10.58,10.58 0 0 1 29.9,19 h 12.78"
       class="cls-103"
       inkscape:connector-curvature="0"
       style="fill:#7c586c" />
    <path
       id="path6521"
       transform="translate(-7.77,-7.58)"
       d="m 84.19,19.09 a 10.75,10.75 0 0 1 10.72,10.73 v 0 V 84 A 10.63,10.63 0 0 1 85,94.56 c -0.25,0.08 -3.53,0.12 -3.8,0.12 H 33.38 c -4.47,0 -11.42,-3.62 -11.42,-8.1 -1.45,0 -2.62,-11.43 -2.63,-12.88 v -43 a 15.84,15.84 0 0 1 0.32,-3.22 10.56,10.56 0 0 1 10.31,-8.44 H 43.2"
       class="cls-104"
       inkscape:connector-curvature="0"
       style="fill:#7d586c" />
    <path
       id="path6523"
       transform="translate(-7.77,-7.58)"
       d="m 84.14,19.15 a 10.73,10.73 0 0 1 10.71,10.71 v 0 54 A 10.61,10.61 0 0 1 85,94.49 c -0.26,0.08 -3.5,0.13 -3.79,0.13 H 33.54 c -4.41,0 -11.43,-3.57 -11.43,-8 -1.5,0 -2.72,-11.33 -2.73,-12.83 v -43 A 16.07,16.07 0 0 1 19.69,27.57 10.54,10.54 0 0 1 30,19.15 h 13.72"
       class="cls-105"
       inkscape:connector-curvature="0"
       style="fill:#7d596c" />
    <path
       id="path6525"
       transform="translate(-7.77,-7.58)"
       d="m 84.1,19.21 a 10.71,10.71 0 0 1 10.7,10.7 v 0 54 a 10.59,10.59 0 0 1 -9.85,10.56 c -0.27,0.08 -3.48,0.13 -3.77,0.13 H 33.7 c -4.35,0 -11.43,-3.52 -11.43,-7.87 -1.55,0 -2.81,-11.23 -2.82,-12.79 v -43 A 16.32,16.32 0 0 1 19.76,27.72 10.52,10.52 0 0 1 30,19.21 h 14.2"
       class="cls-106"
       inkscape:connector-curvature="0"
       style="fill:#7d596d" />
    <path
       id="path6527"
       transform="translate(-7.77,-7.58)"
       d="m 84.06,19.27 a 10.7,10.7 0 0 1 10.67,10.67 v 0 53.87 a 10.57,10.57 0 0 1 -9.81,10.54 c -0.27,0.09 -3.46,0.13 -3.76,0.14 h -47.3 c -4.29,0 -11.44,-3.48 -11.44,-7.76 -1.61,0 -2.91,-11.13 -2.92,-12.74 V 31 a 16.57,16.57 0 0 1 0.3,-3.23 10.51,10.51 0 0 1 10.28,-8.48 h 14.68"
       class="cls-107"
       inkscape:connector-curvature="0"
       style="fill:#7e5a6d" />
    <path
       id="path6529"
       transform="translate(-7.77,-7.58)"
       d="M 84,19.32 A 10.68,10.68 0 0 1 94.67,30 v 0 53.77 a 10.55,10.55 0 0 1 -9.76,10.52 c -0.28,0.09 -3.43,0.14 -3.75,0.14 H 34 c -4.23,0 -11.45,-3.43 -11.45,-7.65 -1.66,0 -3,-11 -3,-12.69 V 31 a 16.83,16.83 0 0 1 0.3,-3.23 10.49,10.49 0 0 1 10.26,-8.5 h 15.16"
       class="cls-108"
       inkscape:connector-curvature="0"
       style="fill:#7e5a6e" />
    <path
       id="path6531"
       transform="translate(-7.77,-7.58)"
       d="M 84,19.38 A 10.66,10.66 0 0 1 94.61,30 v 0 53.7 a 10.53,10.53 0 0 1 -9.72,10.5 c -0.29,0.09 -3.41,0.14 -3.73,0.15 h -47 C 30,94.37 22.73,91 22.73,86.83 c -1.71,0 -3.09,-10.94 -3.1,-12.65 V 31.12 a 17.09,17.09 0 0 1 0.29,-3.23 10.47,10.47 0 0 1 10.25,-8.51 h 15.62"
       class="cls-109"
       inkscape:connector-curvature="0"
       style="fill:#7e5b6e" />
    <path
       id="path6533"
       transform="translate(-7.77,-7.58)"
       d="m 83.93,19.44 a 10.65,10.65 0 0 1 10.62,10.63 v 0 53.61 a 10.51,10.51 0 0 1 -9.67,10.48 c -0.3,0.1 -3.39,0.15 -3.72,0.15 H 34.35 c -4.1,0 -11.46,-3.33 -11.46,-7.43 -1.76,0 -3.19,-10.84 -3.2,-12.6 V 31.2 A 17.37,17.37 0 0 1 20,28 10.45,10.45 0 0 1 30.24,19.47 h 16.07"
       class="cls-110"
       inkscape:connector-curvature="0"
       style="fill:#7f5b6e" />
    <path
       id="path6535"
       transform="translate(-7.77,-7.58)"
       d="m 83.88,19.5 a 10.63,10.63 0 0 1 10.61,10.61 v 0 53.52 a 10.49,10.49 0 0 1 -9.63,10.46 c -0.31,0.1 -3.37,0.15 -3.71,0.15 H 34.51 C 30.47,94.25 23,91 23,86.93 21.19,86.93 19.72,76.19 19.71,74.38 V 31.27 A 17.65,17.65 0 0 1 20,28 10.43,10.43 0 0 1 30.26,19.5 h 16.57"
       class="cls-111"
       inkscape:connector-curvature="0"
       style="fill:#7f5c6f" />
    <path
       id="path6537"
       transform="translate(-7.77,-7.58)"
       d="m 83.84,19.56 a 10.62,10.62 0 0 1 10.59,10.59 v 0 53.44 A 10.47,10.47 0 0 1 84.85,94 c -0.32,0.1 -3.34,0.16 -3.69,0.16 H 34.67 c -4,0 -11.48,-3.23 -11.48,-7.21 -1.87,0 -3.37,-10.64 -3.39,-12.51 V 31.35 a 17.94,17.94 0 0 1 0.28,-3.23 10.42,10.42 0 0 1 10.22,-8.55 h 17"
       class="cls-111"
       inkscape:connector-curvature="0"
       style="fill:#7f5c6f" />
    <path
       id="path6539"
       transform="translate(-7.77,-7.58)"
       d="m 83.8,19.62 a 10.6,10.6 0 0 1 10.57,10.57 v 0 53.35 A 10.46,10.46 0 0 1 84.83,94 c -0.33,0.1 -3.32,0.16 -3.68,0.16 H 34.84 c -3.92,0 -11.49,-3.18 -11.49,-7.1 -1.92,0 -3.47,-10.54 -3.48,-12.46 V 31.42 a 18.25,18.25 0 0 1 0.28,-3.24 10.4,10.4 0 0 1 10.21,-8.57 h 17.5"
       class="cls-112"
       inkscape:connector-curvature="0"
       style="fill:#805c70" />
    <path
       id="path6541"
       transform="translate(-7.77,-7.58)"
       d="m 83.75,19.67 a 10.58,10.58 0 0 1 10.56,10.57 v 0 53.26 a 10.44,10.44 0 0 1 -9.5,10.39 c -0.34,0.11 -3.3,0.17 -3.67,0.17 H 35 c -3.86,0 -11.5,-3.13 -11.5,-7 -2,0 -3.56,-10.45 -3.57,-12.42 V 31.5 a 18.56,18.56 0 0 1 0.27,-3.24 10.38,10.38 0 0 1 10.2,-8.58 h 18"
       class="cls-113"
       inkscape:connector-curvature="0"
       style="fill:#805d70" />
    <path
       id="path6543"
       transform="translate(-7.77,-7.58)"
       d="m 83.71,19.73 a 10.57,10.57 0 0 1 10.54,10.55 v 0 53.17 A 10.42,10.42 0 0 1 84.8,93.83 C 84.45,93.94 81.53,94 81.15,94 h -46 c -3.8,0 -11.5,-3.08 -11.5,-6.88 -2,0 -3.66,-10.35 -3.67,-12.37 V 31.57 a 18.88,18.88 0 0 1 0.27,-3.24 10.36,10.36 0 0 1 10.19,-8.6 H 48.9"
       class="cls-114"
       inkscape:connector-curvature="0"
       style="fill:#815d70" />
    <path
       id="path6545"
       transform="translate(-7.77,-7.58)"
       d="m 83.67,19.79 a 10.55,10.55 0 0 1 10.52,10.53 v 0 53.09 a 10.4,10.4 0 0 1 -9.41,10.35 c -0.35,0.11 -3.25,0.17 -3.64,0.18 H 35.32 c -3.74,0 -11.51,-3 -11.51,-6.76 -2.07,0 -3.75,-10.25 -3.76,-12.32 V 31.65 a 19.21,19.21 0 0 1 0.26,-3.24 10.35,10.35 0 0 1 10.18,-8.61 h 18.93"
       class="cls-115"
       inkscape:connector-curvature="0"
       style="fill:#815e71" />
    <path
       id="path6547"
       transform="translate(-7.77,-7.58)"
       d="m 83.62,19.85 a 10.53,10.53 0 0 1 10.51,10.51 v 0 53 a 10.38,10.38 0 0 1 -9.36,10.33 c -0.36,0.11 -3.23,0.18 -3.63,0.18 H 35.48 c -3.67,0 -11.52,-3 -11.52,-6.65 -2.12,0 -3.84,-10.15 -3.86,-12.28 V 31.72 a 19.55,19.55 0 0 1 0.26,-3.24 10.33,10.33 0 0 1 10.16,-8.63 h 19.4"
       class="cls-115"
       inkscape:connector-curvature="0"
       style="fill:#815e71" />
    <path
       id="path6549"
       transform="translate(-7.77,-7.58)"
       d="M 83.58,19.91 A 10.52,10.52 0 0 1 94.07,30.4 v 0 52.92 a 10.36,10.36 0 0 1 -9.32,10.31 c -0.37,0.12 -3.2,0.18 -3.61,0.18 H 35.65 c -3.61,0 -11.53,-2.93 -11.53,-6.54 -2.18,0 -3.94,-10.05 -4,-12.23 V 31.8 a 19.91,19.91 0 0 1 0.25,-3.25 10.31,10.31 0 0 1 10.15,-8.64 h 19.93"
       class="cls-116"
       inkscape:connector-curvature="0"
       style="fill:#825f72" />
    <path
       id="path6551"
       transform="translate(-7.77,-7.58)"
       d="M 83.54,20 A 10.5,10.5 0 0 1 94,30.44 v 0 52.83 a 10.35,10.35 0 0 1 -9.27,10.29 c -0.38,0.12 -3.18,0.19 -3.6,0.19 H 35.81 c -3.55,0 -11.53,-2.88 -11.53,-6.43 -2.23,0 -4,-10 -4,-12.18 V 31.87 A 20.27,20.27 0 0 1 20.53,28.62 10.3,10.3 0 0 1 30.62,20 H 51"
       class="cls-116"
       inkscape:connector-curvature="0"
       style="fill:#825f72" />
    <path
       id="path6553"
       transform="translate(-7.77,-7.58)"
       d="M 83.49,20 A 10.49,10.49 0 0 1 94,30.49 v 0 52.74 A 10.33,10.33 0 0 1 84.77,93.5 35.1,35.1 0 0 1 81.18,93.69 H 36 c -3.49,0 -11.54,-2.83 -11.54,-6.32 -2.28,0 -4.12,-9.86 -4.14,-12.14 V 31.95 A 20.65,20.65 0 0 1 20.57,28.7 10.28,10.28 0 0 1 30.67,20 h 20.82"
       class="cls-117"
       inkscape:connector-curvature="0"
       style="fill:#826072" />
    <path
       id="path6555"
       transform="translate(-7.77,-7.58)"
       d="m 83.45,20.08 a 10.47,10.47 0 0 1 10.44,10.45 v 0 52.65 a 10.31,10.31 0 0 1 -9.18,10.24 34.06,34.06 0 0 1 -3.57,0.2 h -45 c -3.43,0 -11.55,-2.78 -11.55,-6.21 -2.33,0 -4.22,-9.76 -4.23,-12.09 V 32 A 21,21 0 0 1 20.6,28.75 10.26,10.26 0 0 1 30.72,20.06 H 52"
       class="cls-118"
       inkscape:connector-curvature="0"
       style="fill:#836073" />
    <path
       id="path6557"
       transform="translate(-7.77,-7.58)"
       d="m 83.4,20.14 a 10.45,10.45 0 0 1 10.43,10.43 v 0 52.57 a 10.29,10.29 0 0 1 -9.14,10.22 33.07,33.07 0 0 1 -3.56,0.2 H 36.29 c -3.37,0 -11.56,-2.73 -11.56,-6.1 -2.38,0 -4.31,-9.66 -4.33,-12 V 32.1 a 21.46,21.46 0 0 1 0.24,-3.25 10.25,10.25 0 0 1 10.11,-8.7 h 21.78"
       class="cls-118"
       inkscape:connector-curvature="0"
       style="fill:#836073" />
    <path
       id="path6559"
       transform="translate(-7.77,-7.58)"
       d="m 83.36,20.2 a 10.44,10.44 0 0 1 10.41,10.41 v 0 52.48 a 10.28,10.28 0 0 1 -9.09,10.2 32.11,32.11 0 0 1 -3.55,0.21 H 36.46 c -3.31,0 -11.57,-2.68 -11.57,-6 -2.44,0 -4.41,-9.56 -4.42,-12 V 32.17 A 21.88,21.88 0 0 1 20.7,28.91 10.23,10.23 0 0 1 30.8,20.2 H 53"
       class="cls-119"
       inkscape:connector-curvature="0"
       style="fill:#836174" />
    <path
       id="path6561"
       transform="translate(-7.77,-7.58)"
       d="m 83.32,20.26 a 10.42,10.42 0 0 1 10.39,10.39 v 0 V 83 a 10.26,10.26 0 0 1 -9,10.18 31.2,31.2 0 0 1 -3.53,0.21 H 36.62 C 33.37,93.44 25,90.81 25,87.56 c -2.49,0 -4.5,-9.47 -4.51,-12 V 32.25 A 22.32,22.32 0 0 1 20.76,29 10.21,10.21 0 0 1 30.85,20.27 h 22.71"
       class="cls-120"
       inkscape:connector-curvature="0"
       style="fill:#846174" />
    <path
       id="path6563"
       transform="translate(-7.77,-7.58)"
       d="m 83.27,20.32 a 10.4,10.4 0 0 1 10.38,10.37 v 0 V 83 a 10.24,10.24 0 0 1 -9,10.16 30.33,30.33 0 0 1 -3.52,0.22 H 36.78 C 33.6,93.38 25.2,90.8 25.2,87.61 22.66,87.61 20.61,78.24 20.59,75.7 V 32.32 a 22.78,22.78 0 0 1 0.22,-3.26 10.2,10.2 0 0 1 10.08,-8.74 h 23.19"
       class="cls-121"
       inkscape:connector-curvature="0"
       style="fill:#846274" />
    <path
       id="path6565"
       transform="translate(-7.77,-7.58)"
       d="m 83.23,20.38 a 10.39,10.39 0 0 1 10.36,10.36 v 0 V 83 a 10.22,10.22 0 0 1 -9,10.14 29.5,29.5 0 0 1 -3.51,0.22 H 36.94 c -3.12,0 -11.59,-2.53 -11.59,-5.66 -2.59,0 -4.69,-9.27 -4.7,-11.86 V 32.4 a 23.25,23.25 0 0 1 0.22,-3.26 10.18,10.18 0 0 1 10.07,-8.76 H 54.6"
       class="cls-122"
       inkscape:connector-curvature="0"
       style="fill:#846275" />
    <path
       id="path6567"
       transform="translate(-7.77,-7.58)"
       d="m 83.19,20.44 a 10.37,10.37 0 0 1 10.34,10.34 v 0 52.13 A 10.21,10.21 0 0 1 84.62,93 a 28.7,28.7 0 0 1 -3.5,0.22 h -44 c -3.06,0 -11.6,-2.48 -11.6,-5.54 -2.64,0 -4.78,-9.17 -4.8,-11.81 V 32.47 A 23.75,23.75 0 0 1 20.94,29.21 10.17,10.17 0 0 1 31,20.44 h 24.12"
       class="cls-123"
       inkscape:connector-curvature="0"
       style="fill:#856375" />
    <path
       id="path6569"
       transform="translate(-7.77,-7.58)"
       d="m 83.14,20.49 a 10.36,10.36 0 0 1 10.33,10.33 v 0 52 A 10.19,10.19 0 0 1 84.6,93 27.93,27.93 0 0 1 81.12,93.23 H 37.27 c -3,0 -11.6,-2.43 -11.6,-5.43 -2.69,0 -4.87,-9.07 -4.89,-11.77 V 32.55 A 24.26,24.26 0 0 1 21,29.28 10.15,10.15 0 0 1 31,20.49 h 24.63"
       class="cls-124"
       inkscape:connector-curvature="0"
       style="fill:#856376" />
    <path
       id="path6571"
       transform="translate(-7.77,-7.58)"
       d="m 83.1,20.55 a 10.34,10.34 0 0 1 10.31,10.31 v 0 52 A 10.17,10.17 0 0 1 84.59,92.9 27.19,27.19 0 0 1 81.12,93.13 H 37.43 c -2.94,0 -11.61,-2.38 -11.61,-5.32 -2.75,0 -5,-9 -5,-11.72 V 32.62 A 24.8,24.8 0 0 1 21,29.35 10.13,10.13 0 0 1 31,20.55 h 25.15"
       class="cls-125"
       inkscape:connector-curvature="0"
       style="fill:#856476" />
    <path
       id="path6573"
       transform="translate(-7.77,-7.58)"
       d="M 83.06,20.61 A 10.32,10.32 0 0 1 93.35,30.9 v 0 51.88 a 10.16,10.16 0 0 1 -8.78,10.05 26.48,26.48 0 0 1 -3.46,0.24 H 37.59 C 34.71,93.07 26,90.74 26,87.86 c -2.8,0 -5.06,-8.88 -5.08,-11.67 V 32.7 a 25.36,25.36 0 0 1 0.2,-3.27 10.12,10.12 0 0 1 10,-8.82 h 25.55"
       class="cls-126"
       inkscape:connector-curvature="0"
       style="fill:#866476" />
    <path
       id="path6575"
       transform="translate(-7.77,-7.58)"
       d="m 83,20.67 a 10.31,10.31 0 0 1 10.29,10.27 v 0 51.79 a 10.14,10.14 0 0 1 -8.73,10 25.79,25.79 0 0 1 -3.44,0.24 H 37.75 c -2.82,0 -11.63,-2.28 -11.63,-5.1 -2.85,0 -5.16,-8.78 -5.17,-11.63 V 32.77 a 25.94,25.94 0 0 1 0.2,-3.27 10.1,10.1 0 0 1 10,-8.83 h 26"
       class="cls-127"
       inkscape:connector-curvature="0"
       style="fill:#866577" />
    <path
       id="path6577"
       transform="translate(-7.77,-7.58)"
       d="M 83,20.73 A 10.29,10.29 0 0 1 93.23,31 v 0 51.7 a 10.12,10.12 0 0 1 -8.69,10 25.13,25.13 0 0 1 -3.43,0.25 h -43.2 c -2.76,0 -11.64,-2.23 -11.64,-5 -2.9,0 -5.25,-8.68 -5.27,-11.58 V 32.84 a 26.55,26.55 0 0 1 0.19,-3.27 10.09,10.09 0 0 1 10,-8.85 h 26.5"
       class="cls-127"
       inkscape:connector-curvature="0"
       style="fill:#866577" />
    <path
       id="path6579"
       transform="translate(-7.77,-7.58)"
       d="M 82.93,20.79 A 10.27,10.27 0 0 1 93.17,31 v 0 51.64 a 10.11,10.11 0 0 1 -8.64,10 24.5,24.5 0 0 1 -3.42,0.25 h -43 c -2.69,0 -11.64,-2.18 -11.64,-4.88 -3,0 -5.34,-8.58 -5.36,-11.54 V 32.92 a 27.19,27.19 0 0 1 0.19,-3.27 10.07,10.07 0 0 1 10,-8.86 h 27"
       class="cls-128"
       inkscape:connector-curvature="0"
       style="fill:#876578" />
    <path
       id="path6581"
       transform="translate(-7.77,-7.58)"
       d="m 82.88,20.84 a 10.26,10.26 0 0 1 10.23,10.23 v 0 51.53 a 10.09,10.09 0 0 1 -8.6,10 23.89,23.89 0 0 1 -3.4,0.26 H 38.24 c -2.63,0 -11.65,-2.13 -11.65,-4.77 -3,0 -5.44,-8.48 -5.46,-11.49 V 33 a 27.86,27.86 0 0 1 0.19,-3.28 10.06,10.06 0 0 1 10,-8.87 h 27.42"
       class="cls-129"
       inkscape:connector-curvature="0"
       style="fill:#876678" />
    <path
       id="path6583"
       transform="translate(-7.77,-7.58)"
       d="M 82.84,20.9 A 10.24,10.24 0 0 1 93,31.11 v 0 51.44 a 10.08,10.08 0 0 1 -8.55,9.95 23.3,23.3 0 0 1 -3.39,0.26 H 38.4 c -2.57,0 -11.66,-2.09 -11.66,-4.66 -3.06,0 -5.53,-8.39 -5.55,-11.44 V 33.07 a 28.56,28.56 0 0 1 0.18,-3.28 10,10 0 0 1 10,-8.89 h 27.89"
       class="cls-129"
       inkscape:connector-curvature="0"
       style="fill:#876678" />
    <path
       id="path6585"
       transform="translate(-7.77,-7.58)"
       d="M 82.8,21 A 10.23,10.23 0 0 1 93,31.15 v 0 51.36 a 10.06,10.06 0 0 1 -8.51,9.93 22.73,22.73 0 0 1 -3.38,0.26 H 38.56 c -2.51,0 -11.67,-2 -11.67,-4.55 -3.11,0 -5.62,-8.29 -5.64,-11.4 V 33.14 a 29.29,29.29 0 0 1 0.18,-3.28 10,10 0 0 1 10,-8.9 h 28.4"
       class="cls-130"
       inkscape:connector-curvature="0"
       style="fill:#886779" />
    <path
       id="path6587"
       transform="translate(-7.77,-7.58)"
       d="m 82.75,21 a 10.21,10.21 0 0 1 10.18,10.19 v 0 51.27 a 10,10 0 0 1 -8.46,9.9 22.18,22.18 0 0 1 -3.36,0.27 H 38.72 c -2.45,0 -11.67,-2 -11.67,-4.44 -3.16,0 -5.72,-8.19 -5.74,-11.35 V 33.22 A 30.06,30.06 0 0 1 21.48,29.94 10,10 0 0 1 31.43,21 H 60.3"
       class="cls-130"
       inkscape:connector-curvature="0"
       style="fill:#886779" />
    <path
       id="path6589"
       transform="translate(-7.77,-7.58)"
       d="m 82.71,21.08 a 10.19,10.19 0 0 1 10.16,10.16 v 0 51.18 A 10,10 0 0 1 84.45,92.3 21.64,21.64 0 0 1 81.1,92.57 H 38.89 c -2.39,0 -11.68,-1.94 -11.68,-4.32 -3.21,0 -5.81,-8.09 -5.83,-11.3 V 33.29 A 30.87,30.87 0 0 1 21.54,30 10,10 0 0 1 31.47,21.07 h 29.35"
       class="cls-131"
       inkscape:connector-curvature="0"
       style="fill:#88687a" />
    <path
       id="path6591"
       transform="translate(-7.77,-7.58)"
       d="m 82.67,21.14 a 10.18,10.18 0 0 1 10.14,10.14 v 0 51.1 a 10,10 0 0 1 -8.37,9.86 21.13,21.13 0 0 1 -3.34,0.28 H 39 c -2.33,0 -11.69,-1.89 -11.69,-4.21 -3.26,0 -5.91,-8 -5.93,-11.26 V 33.37 a 31.72,31.72 0 0 1 0.16,-3.28 10,10 0 0 1 9.92,-8.95 h 29.87"
       class="cls-132"
       inkscape:connector-curvature="0"
       style="fill:#89687a" />
    <path
       id="path6593"
       transform="translate(-7.77,-7.58)"
       d="m 82.62,21.2 a 10.16,10.16 0 0 1 10.13,10.12 v 0 51 a 10,10 0 0 1 -8.33,9.84 20.63,20.63 0 0 1 -3.32,0.28 H 39.21 c -2.27,0 -11.7,-1.84 -11.7,-4.1 -3.32,0 -6,-7.9 -6,-11.21 V 33.44 a 32.62,32.62 0 0 1 0.16,-3.29 10,10 0 0 1 9.91,-9 h 30.27"
       class="cls-133"
       inkscape:connector-curvature="0"
       style="fill:#89697a" />
    <path
       id="path6595"
       transform="translate(-7.77,-7.58)"
       d="m 82.58,21.25 a 10.14,10.14 0 0 1 10.11,10.11 v 0 50.92 A 10,10 0 0 1 84.4,92.1 20.15,20.15 0 0 1 81.09,92.39 H 39.37 c -2.2,0 -11.71,-1.79 -11.71,-4 -3.37,0 -6.09,-7.8 -6.11,-11.17 v -43.7 c 0,-0.39 0.05,-2.93 0.16,-3.29 a 10,10 0 0 1 9.9,-9 h 30.76"
       class="cls-134"
       inkscape:connector-curvature="0"
       style="fill:#8a697b" />
    <path
       id="path6597"
       transform="translate(-7.77,-7.58)"
       d="M 82.54,21.31 A 10.13,10.13 0 0 1 92.63,31.4 v 0 50.84 A 10,10 0 0 1 84.39,92 19.69,19.69 0 0 1 81.09,92.29 H 39.53 c -2.14,0 -11.71,-1.74 -11.71,-3.88 -3.42,0 -6.19,-7.7 -6.21,-11.12 v -43.7 c 0,-0.38 0.05,-2.94 0.15,-3.29 a 9.94,9.94 0 0 1 9.89,-9 h 31.24"
       class="cls-134"
       inkscape:connector-curvature="0"
       style="fill:#8a697b" />
    <path
       id="path6599"
       transform="translate(-7.77,-7.58)"
       d="m 82.49,21.37 a 10.11,10.11 0 0 1 10.08,10.07 v 0 50.75 A 10,10 0 0 1 84.37,92 19.24,19.24 0 0 1 81.09,92.3 H 39.7 C 37.61,92.26 28,90.58 28,88.49 c -3.47,0 -6.28,-7.6 -6.3,-11.07 V 33.67 c 0,-0.37 0,-3 0.15,-3.29 a 9.93,9.93 0 0 1 9.88,-9 h 31.68"
       class="cls-135"
       inkscape:connector-curvature="0"
       style="fill:#8a6a7c" />
    <path
       id="path6601"
       transform="translate(-7.77,-7.58)"
       d="m 82.45,21.43 a 10.1,10.1 0 0 1 10.06,10.06 v 0 50.66 a 9.94,9.94 0 0 1 -8.15,9.76 18.8,18.8 0 0 1 -3.27,0.3 H 39.86 c -2,0 -11.73,-1.64 -11.73,-3.66 -3.52,0 -6.37,-7.5 -6.4,-11 V 33.74 c 0,-0.36 0,-3 0.14,-3.29 a 9.91,9.91 0 0 1 9.87,-9 h 32.18"
       class="cls-136"
       inkscape:connector-curvature="0"
       style="fill:#8b6a7c" />
    <path
       id="path6603"
       transform="translate(-7.77,-7.58)"
       d="m 82.41,21.49 a 10.08,10.08 0 0 1 10,10 v 0 50.61 a 9.92,9.92 0 0 1 -8.1,9.73 18.38,18.38 0 0 1 -3.26,0.3 H 40 c -2,0 -11.74,-1.59 -11.74,-3.55 -3.58,0 -6.47,-7.41 -6.49,-11 V 33.82 c 0,-0.35 0,-3 0.14,-3.3 a 9.9,9.9 0 0 1 9.85,-9 h 32.68"
       class="cls-137"
       inkscape:connector-curvature="0"
       style="fill:#8b6b7c" />
    <path
       id="path6605"
       transform="translate(-7.77,-7.58)"
       d="m 82.36,21.55 a 10.06,10.06 0 0 1 10,10 v 0 50.51 a 9.91,9.91 0 0 1 -8.06,9.71 18,18 0 0 1 -3.24,0.31 H 40.18 c -1.9,0 -11.74,-1.54 -11.74,-3.44 -3.63,0 -6.56,-7.31 -6.58,-10.93 V 33.89 c 0,-0.34 0,-3 0.13,-3.3 a 9.88,9.88 0 0 1 9.84,-9 H 65"
       class="cls-138"
       inkscape:connector-curvature="0"
       style="fill:#8b6b7d" />
    <path
       id="path6607"
       transform="translate(-7.77,-7.58)"
       d="m 82.32,21.61 a 10,10 0 0 1 10,10 v 0 V 82 a 9.89,9.89 0 0 1 -8,9.69 A 17.57,17.57 0 0 1 81.09,92 H 40.34 c -1.84,0 -11.75,-1.49 -11.75,-3.33 -3.68,0 -6.66,-7.21 -6.68,-10.89 V 34 c 0,-0.33 0,-3 0.13,-3.3 a 9.87,9.87 0 0 1 9.83,-9.06 h 33.6"
       class="cls-139"
       inkscape:connector-curvature="0"
       style="fill:#8c6c7d" />
    <path
       id="path6609"
       transform="translate(-7.77,-7.58)"
       d="m 82.28,21.66 a 10,10 0 0 1 10,10 v 0 V 82 a 9.88,9.88 0 0 1 -8,9.67 17.18,17.18 0 0 1 -3.22,0.32 H 40.51 C 38.73,91.99 28.75,90.55 28.75,88.77 25,88.72 22,81.63 22,77.9 V 34 c 0,-0.32 0,-3 0.13,-3.3 a 9.86,9.86 0 0 1 9.82,-9.08 H 66"
       class="cls-140"
       inkscape:connector-curvature="0"
       style="fill:#8c6c7e" />
    <path
       id="path6611"
       transform="translate(-7.77,-7.58)"
       d="m 82.23,21.72 a 10,10 0 0 1 10,10 v 0 50.2 a 9.87,9.87 0 0 1 -7.93,9.65 16.81,16.81 0 0 1 -3.2,0.32 H 40.67 c -1.71,0 -11.77,-1.39 -11.77,-3.1 -3.78,0 -6.84,-7 -6.87,-10.8 V 34.12 c 0,-0.3 0,-3 0.12,-3.3 A 9.84,9.84 0 0 1 32,21.72 h 34.51"
       class="cls-141"
       inkscape:connector-curvature="0"
       style="fill:#8c6d7e" />
    <path
       id="path6613"
       transform="translate(-7.77,-7.58)"
       d="m 82.19,21.78 a 10,10 0 0 1 10,10 v 0 50.1 a 9.85,9.85 0 0 1 -7.88,9.63 16.45,16.45 0 0 1 -3.19,0.33 H 40.83 c -1.65,0 -11.78,-1.34 -11.78,-3 -3.83,0 -6.94,-6.92 -7,-10.75 v -43.9 c 0,-0.29 0,-3 0.12,-3.3 A 9.83,9.83 0 0 1 32,21.78 h 35"
       class="cls-142"
       inkscape:connector-curvature="0"
       style="fill:#8d6d7e" />
    <path
       id="path6615"
       transform="translate(-7.77,-7.58)"
       d="m 82.15,21.84 a 10,10 0 0 1 9.94,9.94 v 0 50.05 a 9.84,9.84 0 0 1 -7.84,9.61 16.09,16.09 0 0 1 -3.18,0.33 H 41 c -1.59,0 -11.78,-1.29 -11.78,-2.88 -3.89,0 -7,-6.82 -7.05,-10.7 V 34.27 c 0,-0.28 0,-3 0.11,-3.31 a 9.82,9.82 0 0 1 9.79,-9.12 h 35.5"
       class="cls-143"
       inkscape:connector-curvature="0"
       style="fill:#8d6d7f" />
    <path
       id="path6617"
       transform="translate(-7.77,-7.58)"
       d="m 82.1,21.9 a 10,10 0 0 1 9.9,9.92 v 0 50 a 9.83,9.83 0 0 1 -7.79,9.59 15.75,15.75 0 0 1 -3.16,0.33 h -39.9 c -1.53,0 -11.79,-1.24 -11.79,-2.77 -3.94,0 -7.12,-6.72 -7.15,-10.66 V 34.34 c 0,-0.27 0,-3.06 0.11,-3.31 A 9.8,9.8 0 0 1 32.1,21.9 h 36"
       class="cls-144"
       inkscape:connector-curvature="0"
       style="fill:#8d6e7f" />
    <path
       id="path6619"
       transform="translate(-7.77,-7.58)"
       d="m 82.06,22 a 10,10 0 0 1 9.9,9.9 v 0 49.84 a 9.81,9.81 0 0 1 -7.75,9.56 15.42,15.42 0 0 1 -3.15,0.34 H 41.32 c -1.47,0 -11.8,-1.19 -11.8,-2.66 -4,0 -7.22,-6.62 -7.24,-10.61 v -44 c 0,-0.26 0,-3.07 0.1,-3.31 A 9.79,9.79 0 0 1 32.14,22 h 36.45"
       class="cls-145"
       inkscape:connector-curvature="0"
       style="fill:#8e6e7f" />
    <path
       id="path6621"
       transform="translate(-7.77,-7.58)"
       d="m 82,22 a 9.93,9.93 0 0 1 9.9,9.9 v 0 49.8 a 9.8,9.8 0 0 1 -7.7,9.54 15.09,15.09 0 0 1 -3.14,0.34 H 41.48 c -1.41,0 -11.81,-1.14 -11.81,-2.55 -4,0 -7.31,-6.52 -7.34,-10.56 v -44 c 0,-0.25 0,-3.08 0.1,-3.31 A 9.78,9.78 0 0 1 32.19,22 H 69.1"
       class="cls-146"
       inkscape:connector-curvature="0"
       style="fill:#8e6f80" />
    <path
       id="path6623"
       transform="translate(-7.77,-7.58)"
       d="m 82,22.07 a 9.92,9.92 0 0 1 9.87,9.87 v 0 49.71 a 9.79,9.79 0 0 1 -7.66,9.52 14.78,14.78 0 0 1 -3.12,0.35 H 41.64 c -1.35,0 -11.81,-1.09 -11.81,-2.44 -4.09,0 -7.41,-6.42 -7.43,-10.52 v -44 c 0,-0.24 0,-3.09 0.1,-3.31 a 9.76,9.76 0 0 1 9.74,-9.18 h 37.38"
       class="cls-146"
       inkscape:connector-curvature="0"
       style="fill:#8e6f80" />
    <path
       id="path6625"
       transform="translate(-7.77,-7.58)"
       d="M 81.93,22.13 A 9.9,9.9 0 0 1 91.78,32 v 0 49.61 a 9.77,9.77 0 0 1 -7.61,9.5 14.47,14.47 0 0 1 -3.11,0.35 H 41.8 c -1.29,0 -11.82,-1 -11.82,-2.33 -4.15,0 -7.5,-6.33 -7.52,-10.47 v -44 c 0,-0.23 0,-3.11 0.09,-3.32 a 9.75,9.75 0 0 1 9.73,-9.19 h 37.86"
       class="cls-147"
       inkscape:connector-curvature="0"
       style="fill:#8f7081" />
    <path
       id="path6627"
       transform="translate(-7.77,-7.58)"
       d="M 81.89,22.19 A 9.88,9.88 0 0 1 91.72,32 v 0 49.56 A 9.76,9.76 0 0 1 84.16,91 14.17,14.17 0 0 1 81.06,91.36 H 42 c -1.22,0 -11.83,-1 -11.83,-2.22 -4.2,0 -7.59,-6.23 -7.62,-10.43 v -44 c 0,-0.22 0,-3.12 0.09,-3.32 a 9.74,9.74 0 0 1 9.72,-9.21 h 38.3"
       class="cls-147"
       inkscape:connector-curvature="0"
       style="fill:#8f7081" />
    <path
       id="path6629"
       transform="translate(-7.77,-7.58)"
       d="m 81.84,22.25 a 9.87,9.87 0 0 1 9.82,9.82 v 0 49.45 A 9.75,9.75 0 0 1 84.14,91 13.88,13.88 0 0 1 81.06,91.36 H 42.13 c -1.16,0 -11.84,-0.94 -11.84,-2.11 -4.25,0 -7.69,-6.13 -7.71,-10.38 V 34.79 c 0,-0.21 0,-3.13 0.08,-3.32 a 9.72,9.72 0 0 1 9.71,-9.22 h 38.81"
       class="cls-148"
       inkscape:connector-curvature="0"
       style="fill:#8f7181" />
    <path
       id="path6631"
       transform="translate(-7.77,-7.58)"
       d="m 81.8,22.31 a 9.85,9.85 0 0 1 9.8,9.8 v 0 49.36 a 9.74,9.74 0 0 1 -7.48,9.44 13.6,13.6 0 0 1 -3.07,0.37 H 42.29 c -1.1,0 -11.85,-0.89 -11.85,-2 -4.3,0 -7.78,-6 -7.81,-10.33 V 34.87 c 0,-0.2 0,-3.14 0.08,-3.32 a 9.71,9.71 0 0 1 9.7,-9.24 h 39.28"
       class="cls-149"
       inkscape:connector-curvature="0"
       style="fill:#907182" />
    <path
       id="path6633"
       transform="translate(-7.77,-7.58)"
       d="m 81.76,22.37 a 9.84,9.84 0 0 1 9.79,9.79 v 0 49.27 a 9.73,9.73 0 0 1 -7.43,9.42 13.32,13.32 0 0 1 -3.06,0.37 H 42.45 c -1,0 -11.85,-0.84 -11.85,-1.89 -4.35,0 -7.87,-5.93 -7.9,-10.29 v -44.1 c 0,-0.19 0,-3.15 0.07,-3.32 a 9.7,9.7 0 0 1 9.69,-9.25 h 39.75"
       class="cls-149"
       inkscape:connector-curvature="0"
       style="fill:#907182" />
    <path
       id="path6635"
       transform="translate(-7.77,-7.58)"
       d="m 81.71,22.42 a 9.82,9.82 0 0 1 9.77,9.77 v 0 49.19 a 9.72,9.72 0 0 1 -7.39,9.39 13.05,13.05 0 0 1 -3,0.37 H 42.61 c -1,0 -11.86,-0.79 -11.86,-1.77 -4.4,0 -8,-5.84 -8,-10.24 V 35 c 0,-0.17 0,-3.17 0.07,-3.32 a 9.69,9.69 0 0 1 9.68,-9.27 h 40.23"
       class="cls-150"
       inkscape:connector-curvature="0"
       style="fill:#907283" />
    <path
       id="path6637"
       transform="translate(-7.77,-7.58)"
       d="m 81.67,22.48 a 9.8,9.8 0 0 1 9.75,9.75 v 0 49.1 a 9.7,9.7 0 0 1 -7.34,9.37 12.79,12.79 0 0 1 -3,0.38 H 42.77 c -0.92,0 -11.87,-0.74 -11.87,-1.66 -4.46,0 -8.06,-5.74 -8.09,-10.19 V 35.09 c 0,-0.16 0,-3.18 0.06,-3.33 a 9.67,9.67 0 0 1 9.67,-9.28 h 40.7"
       class="cls-151"
       inkscape:connector-curvature="0"
       style="fill:#917283" />
    <path
       id="path6639"
       transform="translate(-7.77,-7.58)"
       d="m 81.63,22.54 a 9.79,9.79 0 0 1 9.74,9.74 v 0 49 A 9.69,9.69 0 0 1 84.07,90.63 12.54,12.54 0 0 1 81,91 H 42.94 c -0.86,0 -11.88,-0.7 -11.88,-1.55 -4.51,0 -8.15,-5.64 -8.18,-10.15 V 35.17 c 0,-0.15 0,-3.19 0.06,-3.33 a 9.66,9.66 0 0 1 9.66,-9.3 h 41.17"
       class="cls-152"
       inkscape:connector-curvature="0"
       style="fill:#917383" />
    <path
       id="path6641"
       transform="translate(-7.77,-7.58)"
       d="m 81.58,22.6 a 9.77,9.77 0 0 1 9.72,9.72 v 0 48.93 A 9.68,9.68 0 0 1 84.05,90.58 12.29,12.29 0 0 1 81,91 H 43.1 c -0.8,0 -11.88,-0.65 -11.88,-1.44 -4.56,0 -8.25,-5.54 -8.28,-10.1 V 35.24 c 0,-0.14 0,-3.2 0.06,-3.33 a 9.65,9.65 0 0 1 9.64,-9.31 h 41.64"
       class="cls-153"
       inkscape:connector-curvature="0"
       style="fill:#917384" />
    <path
       id="path6643"
       transform="translate(-7.77,-7.58)"
       d="m 81.54,22.66 a 9.75,9.75 0 0 1 9.7,9.7 v 0 48.84 A 9.67,9.67 0 0 1 84,90.51 12,12 0 0 1 81,90.9 H 43.26 c -0.73,0 -11.89,-0.6 -11.89,-1.33 -4.61,0 -8.34,-5.44 -8.37,-10.06 V 35.32 c 0,-0.13 0,-3.21 0.05,-3.33 a 9.64,9.64 0 0 1 9.63,-9.33 H 74.8"
       class="cls-154"
       inkscape:connector-curvature="0"
       style="fill:#927484" />
    <path
       id="path6645"
       transform="translate(-7.77,-7.58)"
       d="m 81.5,22.72 a 9.74,9.74 0 0 1 9.69,9.69 v 0 48.75 A 9.66,9.66 0 0 1 84,90.44 11.81,11.81 0 0 1 81,90.84 H 43.42 c -0.67,0 -11.9,-0.55 -11.9,-1.22 -4.66,0 -8.44,-5.35 -8.47,-10 V 35.39 c 0,-0.12 0,-3.22 0,-3.33 a 9.63,9.63 0 0 1 9.62,-9.34 h 42.65"
       class="cls-155"
       inkscape:connector-curvature="0"
       style="fill:#927485" />
    <path
       id="path6647"
       transform="translate(-7.77,-7.58)"
       d="m 81.45,22.78 a 9.72,9.72 0 0 1 9.67,9.67 v 0 48.66 A 9.65,9.65 0 0 1 84,90.38 11.58,11.58 0 0 1 81,90.78 H 43.58 c -0.61,0 -11.91,-0.5 -11.91,-1.11 -4.71,0 -8.53,-5.25 -8.56,-10 v -44.2 c 0,-0.11 0,-3.24 0,-3.34 a 9.61,9.61 0 0 1 9.61,-9.35 h 43.12"
       class="cls-156"
       inkscape:connector-curvature="0"
       style="fill:#937585" />
    <path
       id="path6649"
       transform="translate(-7.77,-7.58)"
       d="m 81.41,22.83 a 9.71,9.71 0 0 1 9.65,9.65 v 0 48.59 A 9.64,9.64 0 0 1 84,90.31 11.36,11.36 0 0 1 81,90.72 H 43.75 c -0.55,0 -11.92,-0.45 -11.92,-1 -4.77,0 -8.62,-5.15 -8.65,-9.92 V 35.54 c 0,-0.1 0,-3.25 0,-3.34 a 9.6,9.6 0 0 1 9.6,-9.37 h 43.58"
       class="cls-156"
       inkscape:connector-curvature="0"
       style="fill:#937585" />
    <path
       id="path6651"
       transform="translate(-7.77,-7.58)"
       d="M 81.37,22.89 A 9.69,9.69 0 0 1 91,32.53 v 0 V 81 a 9.63,9.63 0 0 1 -7,9.23 11.14,11.14 0 0 1 -2.94,0.41 H 43.91 c -0.49,0 -11.92,-0.4 -11.92,-0.89 -4.82,0 -8.72,-5.05 -8.75,-9.87 V 35.62 c 0,-0.09 0,-3.26 0,-3.34 a 9.59,9.59 0 0 1 9.59,-9.38 h 44"
       class="cls-157"
       inkscape:connector-curvature="0"
       style="fill:#937586" />
    <path
       id="path6653"
       transform="translate(-7.77,-7.58)"
       d="m 81.32,23 a 9.67,9.67 0 0 1 9.62,9.62 v 0 V 81 a 9.62,9.62 0 0 1 -7,9.2 10.92,10.92 0 0 1 -2.92,0.41 h -37 c -0.43,0 -11.93,-0.35 -11.93,-0.78 -4.87,0 -8.81,-5 -8.84,-9.82 V 35.69 c 0,-0.08 0,-3.27 0,-3.34 A 9.58,9.58 0 0 1 32.91,23 h 44.48"
       class="cls-158"
       inkscape:connector-curvature="0"
       style="fill:#947686" />
    <path
       id="path6655"
       transform="translate(-7.77,-7.58)"
       d="m 81.28,23 a 9.66,9.66 0 0 1 9.6,9.6 v 0 48.33 a 9.61,9.61 0 0 1 -6.94,9.18 10.71,10.71 0 0 1 -2.91,0.42 h -36.8 c -0.37,0 -11.94,-0.3 -11.94,-0.67 -4.92,0 -8.9,-4.86 -8.94,-9.78 V 35.77 c 0,-0.07 0,-3.28 0,-3.34 A 9.57,9.57 0 0 1 33,23 h 45"
       class="cls-159"
       inkscape:connector-curvature="0"
       style="fill:#947687" />
    <path
       id="path6657"
       transform="translate(-7.77,-7.58)"
       d="m 81.24,23.07 a 9.64,9.64 0 0 1 9.58,9.58 v 0 48.24 A 9.6,9.6 0 0 1 83.93,90 10.51,10.51 0 0 1 81.03,90.42 H 44.4 c -0.31,0 -11.95,-0.25 -11.95,-0.55 -5,0 -9,-4.76 -9,-9.73 v -44.3 c 0,-0.05 0,-3.3 0,-3.34 A 9.56,9.56 0 0 1 33,23.07 h 45.43"
       class="cls-160"
       inkscape:connector-curvature="0"
       style="fill:#947787" />
    <path
       id="path6659"
       transform="translate(-7.77,-7.58)"
       d="m 81.19,23.13 a 9.62,9.62 0 0 1 9.57,9.57 v 0 48.14 A 9.6,9.6 0 0 1 83.91,90 10.31,10.31 0 0 1 81.03,90.43 H 44.56 c -0.24,0 -12,-0.2 -12,-0.44 -5,0 -9.09,-4.66 -9.12,-9.69 V 35.91 c 0,0 0,-3.31 0,-3.35 A 9.54,9.54 0 0 1 33,23.13 h 45.95"
       class="cls-161"
       inkscape:connector-curvature="0"
       style="fill:#957787" />
    <path
       id="path6661"
       transform="translate(-7.77,-7.58)"
       d="m 81.15,23.18 a 9.61,9.61 0 0 1 9.55,9.55 v 0 48.07 a 9.59,9.59 0 0 1 -6.8,9.12 10.11,10.11 0 0 1 -2.87,0.43 H 44.72 c -0.18,0 -12,-0.15 -12,-0.33 -5.08,0 -9.19,-4.56 -9.22,-9.64 V 36 c 0,0 0,-3.32 0,-3.35 a 9.53,9.53 0 0 1 9.53,-9.46 h 46.44"
       class="cls-162"
       inkscape:connector-curvature="0"
       style="fill:#957888" />
    <path
       id="path6663"
       transform="translate(-7.77,-7.58)"
       d="m 81.11,23.24 a 9.59,9.59 0 0 1 9.53,9.53 v 0 48 a 9.58,9.58 0 0 1 -6.76,9.1 9.92,9.92 0 0 1 -2.86,0.44 H 44.88 c -0.12,0 -12,-0.1 -12,-0.22 A 9.62,9.62 0 0 1 23.57,80.5 V 36.06 c 0,0 0,-3.33 0,-3.35 a 9.52,9.52 0 0 1 9.52,-9.47 H 80"
       class="cls-162"
       inkscape:connector-curvature="0"
       style="fill:#957888" />
    <path
       id="path6665"
       transform="translate(-7.77,-7.58)"
       d="m 81.06,23.3 a 9.58,9.58 0 0 1 9.52,9.52 v 0 47.89 a 9.57,9.57 0 0 1 -6.71,9.08 9.74,9.74 0 0 1 -2.84,0.44 H 45 c -0.06,0 -12,0 -12,-0.11 A 9.59,9.59 0 0 1 23.59,80.57 V 36.14 c 0,0 0,-3.34 0,-3.35 A 9.51,9.51 0 0 1 33.1,23.3 h 47.4"
       class="cls-163"
       inkscape:connector-curvature="0"
       style="fill:#967989" />
    <path
       id="path6667"
       transform="translate(-7.77,-7.58)"
       d="M 33.22,23.36 H 81 a 9.56,9.56 0 0 1 9.5,9.5 v 47.8 A 9.56,9.56 0 0 1 81,90.16 H 33.22 a 9.56,9.56 0 0 1 -9.5,-9.5 v -47.8 a 9.5,9.5 0 0 1 9.5,-9.5 z"
       class="cls-163"
       inkscape:connector-curvature="0"
       style="fill:#967989" />
  </g>
</svg>
