<?xml version="1.0" encoding="UTF-8" standalone="no"?>
<svg
   xmlns:dc="http://purl.org/dc/elements/1.1/"
   xmlns:cc="http://creativecommons.org/ns#"
   xmlns:rdf="http://www.w3.org/1999/02/22-rdf-syntax-ns#"
   xmlns:svg="http://www.w3.org/2000/svg"
   xmlns="http://www.w3.org/2000/svg"
   xmlns:sodipodi="http://sodipodi.sourceforge.net/DTD/sodipodi-0.dtd"
   xmlns:inkscape="http://www.inkscape.org/namespaces/inkscape"
   id="Слой_1"
   data-name="Слой 1"
   viewBox="0 0 98.7 98.7"
   version="1.1"
   sodipodi:docname="color3.svg"
   inkscape:version="0.92.1 r15371">
  <metadata
     id="metadata1251">
    <rdf:RDF>
      <cc:Work
         rdf:about="">
        <dc:format>image/svg+xml</dc:format>
        <dc:type
           rdf:resource="http://purl.org/dc/dcmitype/StillImage" />
      </cc:Work>
    </rdf:RDF>
  </metadata>
  <sodipodi:namedview
     pagecolor="#ffffff"
     bordercolor="#666666"
     borderopacity="1"
     objecttolerance="10"
     gridtolerance="10"
     guidetolerance="10"
     inkscape:pageopacity="0"
     inkscape:pageshadow="2"
     inkscape:window-width="1920"
     inkscape:window-height="1031"
     id="namedview1249"
     showgrid="false"
     inkscape:zoom="2.3910842"
     inkscape:cx="-3.7639829"
     inkscape:cy="49.349998"
     inkscape:window-x="0"
     inkscape:window-y="0"
     inkscape:window-maximized="1"
     inkscape:current-layer="Слой_1" />
  <defs
     id="defs838">
    <style
       id="style836">.cls-1{fill:#657d50;}.cls-2{fill:#657e50;}.cls-3{fill:#667e50;}.cls-4{fill:#667f50;}.cls-5{fill:#668050;}.cls-6{fill:#678050;}.cls-7{fill:#678150;}.cls-8{fill:#678250;}.cls-9{fill:#688250;}.cls-10{fill:#688350;}.cls-11{fill:#688451;}.cls-12{fill:#698451;}.cls-13{fill:#698551;}.cls-14{fill:#698651;}.cls-15{fill:#6a8651;}.cls-16{fill:#6a8751;}.cls-17{fill:#6a8851;}.cls-18{fill:#6b8851;}.cls-19{fill:#6b8951;}.cls-20{fill:#6b8a51;}.cls-21{fill:#6c8a51;}.cls-22{fill:#6c8b51;}.cls-23{fill:#6c8c51;}.cls-24{fill:#6d8c51;}.cls-25{fill:#6d8d51;}.cls-26{fill:#6d8e51;}.cls-27{fill:#6e8e51;}.cls-28{fill:#6e8f51;}.cls-29{fill:#6e9051;}.cls-30{fill:#6f9051;}.cls-31{fill:#6f9152;}.cls-32{fill:#6f9252;}.cls-33{fill:#709252;}.cls-34{fill:#709352;}.cls-35{fill:#709452;}.cls-36{fill:#719452;}.cls-37{fill:#719552;}.cls-38{fill:#719652;}.cls-39{fill:#729652;}.cls-40{fill:#729752;}.cls-41{fill:#729852;}.cls-42{fill:#739853;}.cls-43{fill:#739953;}.cls-44{fill:#749953;}.cls-45{fill:#749a53;}.cls-46{fill:#749a54;}.cls-47{fill:#759b54;}.cls-48{fill:#759c54;}.cls-49{fill:#769c55;}.cls-50{fill:#769d55;}.cls-51{fill:#779d55;}.cls-52{fill:#779e55;}.cls-53{fill:#779e56;}.cls-54{fill:#789f56;}.cls-55{fill:#78a057;}.cls-56{fill:#79a057;}.cls-57{fill:#79a157;}.cls-58{fill:#7aa157;}.cls-59{fill:#7aa258;}.cls-60{fill:#7ba358;}.cls-61{fill:#7ba459;}.cls-62{fill:#7ca459;}.cls-63{fill:#7ca559;}.cls-64{fill:#7da559;}.cls-65{fill:#7da65a;}.cls-66{fill:#7ea75a;}.cls-67{fill:#7ea75b;}.cls-68{fill:#7ea85b;}.cls-69{fill:#7fa85b;}.cls-70{fill:#7fa95b;}.cls-71{fill:#80a95c;}.cls-72{fill:#80aa5c;}.cls-73{fill:#81ab5c;}.cls-74{fill:#81ab5d;}.cls-75{fill:#81ac5d;}.cls-76{fill:#82ac5d;}.cls-77{fill:#82ad5d;}.cls-78{fill:#83ad5e;}.cls-79{fill:#83ae5e;}.cls-80{fill:#84af5f;}.cls-81{fill:#84b05f;}.cls-82{fill:#85b05f;}.cls-83{fill:#85b160;}.cls-84{fill:#86b160;}.cls-85{fill:#86b260;}.cls-86{fill:#87b361;}.cls-87{fill:#87b461;}.cls-88{fill:#88b462;}.cls-89{fill:#88b562;}.cls-90{fill:#89b562;}.cls-91{fill:#89b662;}.cls-92{fill:#89b663;}.cls-93{fill:#8ab763;}.cls-94{fill:#8ab863;}.cls-95{fill:#8bb864;}.cls-96{fill:#8bb964;}.cls-97{fill:#8cb964;}.cls-98{fill:#8cba64;}.cls-99{fill:#8cba65;}.cls-100{fill:#8dbb65;}.cls-101{fill:#8dbc66;}.cls-102{fill:#8ebc66;}.cls-103{fill:#8ebd66;}.cls-104{fill:#8fbd66;}.cls-105{fill:#8fbe67;}.cls-106{fill:#90bf67;}.cls-107{fill:#90c068;}.cls-108{fill:#91c068;}.cls-109{fill:#91c168;}.cls-110{fill:#92c168;}.cls-111{fill:#92c269;}.cls-112{fill:#93c369;}.cls-113{fill:#93c36a;}.cls-114{fill:#93c46a;}.cls-115{fill:#94c46a;}.cls-116{fill:#94c56a;}.cls-117{fill:#95c56b;}.cls-118{fill:#95c66b;}.cls-119{fill:#96c76b;}.cls-120{fill:#96c76c;}.cls-121{fill:#96c86c;}.cls-122{fill:#97c86c;}.cls-123{fill:#97c96c;}.cls-124{fill:#98c96d;}.cls-125{fill:#98ca6d;}</style>
  </defs>
  <title
     id="title840">color3</title>
  <g
     id="g10591">
    <path
       id="path842"
       transform="translate(-7.38,-7.29)"
       d="m 92.08,7.29 a 14,14 0 0 1 14,14 v 0 V 92 a 14,14 0 0 1 -14,14 H 21.38 A 14,14 0 0 1 7.38,92 V 21.29 a 13.91,13.91 0 0 1 13.82,-14"
       class="cls-1"
       inkscape:connector-curvature="0"
       style="fill:#657d50" />
    <path
       id="path844"
       transform="translate(-7.38,-7.29)"
       d="m 92,7.39 a 14,14 0 0 1 14,14 v 0 70.53 a 14,14 0 0 1 -14,14 H 21.45 a 14,14 0 0 1 -14,-14 V 21.36 a 13.88,13.88 0 0 1 13.79,-14"
       class="cls-1"
       inkscape:connector-curvature="0"
       style="fill:#657d50" />
    <path
       id="path846"
       transform="translate(-7.38,-7.29)"
       d="m 91.94,7.49 a 13.94,13.94 0 0 1 13.94,13.94 v 0 70.42 A 13.94,13.94 0 0 1 91.94,105.8 H 21.52 A 13.94,13.94 0 0 1 7.57,91.85 V 21.43 A 13.85,13.85 0 0 1 21.34,7.49"
       class="cls-2"
       inkscape:connector-curvature="0"
       style="fill:#657e50" />
    <path
       id="path848"
       transform="translate(-7.38,-7.29)"
       d="m 91.87,7.58 a 13.92,13.92 0 0 1 13.91,13.92 v 0 70.28 A 13.92,13.92 0 0 1 91.87,105.7 H 21.59 A 13.92,13.92 0 0 1 7.67,91.78 V 21.5 A 13.83,13.83 0 0 1 21.41,7.58"
       class="cls-2"
       inkscape:connector-curvature="0"
       style="fill:#657e50" />
    <path
       id="path850"
       transform="translate(-7.38,-7.29)"
       d="m 91.8,7.68 a 13.89,13.89 0 0 1 13.89,13.89 v 0 70.14 A 13.89,13.89 0 0 1 91.8,105.6 H 21.66 A 13.89,13.89 0 0 1 7.77,91.71 V 21.57 A 13.8,13.8 0 0 1 21.48,7.68"
       class="cls-3"
       inkscape:connector-curvature="0"
       style="fill:#667e50" />
    <path
       id="path852"
       transform="translate(-7.38,-7.29)"
       d="m 91.73,7.78 a 13.86,13.86 0 0 1 13.86,13.86 v 0 70 A 13.86,13.86 0 0 1 91.73,105.5 h -70 A 13.86,13.86 0 0 1 7.86,91.64 v -70 A 13.77,13.77 0 0 1 21.55,7.78"
       class="cls-3"
       inkscape:connector-curvature="0"
       style="fill:#667e50" />
    <path
       id="path854"
       transform="translate(-7.38,-7.29)"
       d="m 91.66,7.88 a 13.83,13.83 0 0 1 13.83,13.83 v 0 69.86 A 13.83,13.83 0 0 1 91.66,105.4 H 21.8 A 13.83,13.83 0 0 1 8,91.57 V 21.71 A 13.74,13.74 0 0 1 21.62,7.88"
       class="cls-4"
       inkscape:connector-curvature="0"
       style="fill:#667f50" />
    <path
       id="path856"
       transform="translate(-7.38,-7.29)"
       d="m 91.59,8 a 13.81,13.81 0 0 1 13.81,13.81 v 0 69.69 A 13.81,13.81 0 0 1 91.59,105.31 H 21.87 A 13.81,13.81 0 0 1 8.06,91.5 V 21.78 A 13.72,13.72 0 0 1 21.69,8"
       class="cls-4"
       inkscape:connector-curvature="0"
       style="fill:#667f50" />
    <path
       id="path858"
       transform="translate(-7.38,-7.29)"
       d="m 91.52,8.07 a 13.78,13.78 0 0 1 13.78,13.78 v 0 69.58 A 13.78,13.78 0 0 1 91.52,105.21 H 21.94 A 13.78,13.78 0 0 1 8.16,91.43 V 21.85 A 13.69,13.69 0 0 1 21.76,8.07"
       class="cls-4"
       inkscape:connector-curvature="0"
       style="fill:#667f50" />
    <path
       id="path860"
       transform="translate(-7.38,-7.29)"
       d="m 91.45,8.17 a 13.75,13.75 0 0 1 13.75,13.75 v 0 69.44 A 13.75,13.75 0 0 1 91.45,105.11 H 22 A 13.75,13.75 0 0 1 8.26,91.36 V 21.92 A 13.66,13.66 0 0 1 21.83,8.17"
       class="cls-4"
       inkscape:connector-curvature="0"
       style="fill:#667f50" />
    <path
       id="path862"
       transform="translate(-7.38,-7.29)"
       d="M 91.38,8.27 A 13.72,13.72 0 0 1 105.1,22 v 0 69.3 A 13.72,13.72 0 0 1 91.38,105 H 22.08 A 13.72,13.72 0 0 1 8.35,91.29 V 22 A 13.63,13.63 0 0 1 21.9,8.27"
       class="cls-5"
       inkscape:connector-curvature="0"
       style="fill:#668050" />
    <path
       id="path864"
       transform="translate(-7.38,-7.29)"
       d="M 91.31,8.37 A 13.7,13.7 0 0 1 105,22.06 v 0 69.16 a 13.7,13.7 0 0 1 -13.7,13.7 H 22.15 A 13.7,13.7 0 0 1 8.45,91.22 V 22.06 A 13.61,13.61 0 0 1 22,8.37"
       class="cls-5"
       inkscape:connector-curvature="0"
       style="fill:#668050" />
    <path
       id="path866"
       transform="translate(-7.38,-7.29)"
       d="m 91.24,8.46 a 13.67,13.67 0 0 1 13.66,13.67 v 0 69 A 13.67,13.67 0 0 1 91.23,104.8 h -69 A 13.67,13.67 0 0 1 8.55,91.15 v -69 A 13.58,13.58 0 0 1 22,8.46"
       class="cls-6"
       inkscape:connector-curvature="0"
       style="fill:#678050" />
    <path
       id="path868"
       transform="translate(-7.38,-7.29)"
       d="m 91.17,8.56 a 13.64,13.64 0 0 1 13.64,13.64 v 0 68.88 A 13.64,13.64 0 0 1 91.17,104.72 H 22.29 A 13.64,13.64 0 0 1 8.65,91.08 V 22.2 A 13.55,13.55 0 0 1 22.11,8.56"
       class="cls-6"
       inkscape:connector-curvature="0"
       style="fill:#678050" />
    <path
       id="path870"
       transform="translate(-7.38,-7.29)"
       d="m 91.1,8.66 a 13.61,13.61 0 0 1 13.61,13.61 v 0 V 91 A 13.61,13.61 0 0 1 91.1,104.62 H 22.36 A 13.61,13.61 0 0 1 8.74,91 V 22.27 A 13.52,13.52 0 0 1 22.18,8.66"
       class="cls-7"
       inkscape:connector-curvature="0"
       style="fill:#678150" />
    <path
       id="path872"
       transform="translate(-7.38,-7.29)"
       d="m 91,8.76 a 13.58,13.58 0 0 1 13.58,13.58 v 0 68.6 A 13.58,13.58 0 0 1 91,104.53 H 22.43 A 13.58,13.58 0 0 1 8.84,90.94 V 22.34 A 13.5,13.5 0 0 1 22.25,8.76"
       class="cls-7"
       inkscape:connector-curvature="0"
       style="fill:#678150" />
    <path
       id="path874"
       transform="translate(-7.38,-7.29)"
       d="m 91,8.85 a 13.56,13.56 0 0 1 13.56,13.56 v 0 68.46 A 13.56,13.56 0 0 1 91,104.43 H 22.5 A 13.56,13.56 0 0 1 8.94,90.87 V 22.41 A 13.47,13.47 0 0 1 22.32,8.85"
       class="cls-7"
       inkscape:connector-curvature="0"
       style="fill:#678150" />
    <path
       id="path876"
       transform="translate(-7.38,-7.29)"
       d="m 90.89,9 a 13.53,13.53 0 0 1 13.53,13.53 v 0 68.27 A 13.53,13.53 0 0 1 90.89,104.33 H 22.57 A 13.53,13.53 0 0 1 9,90.8 V 22.48 A 13.44,13.44 0 0 1 22.39,9"
       class="cls-7"
       inkscape:connector-curvature="0"
       style="fill:#678150" />
    <path
       id="path878"
       transform="translate(-7.38,-7.29)"
       d="m 90.82,9.05 a 13.5,13.5 0 0 1 13.5,13.5 v 0 68.18 a 13.5,13.5 0 0 1 -13.5,13.5 H 22.64 A 13.5,13.5 0 0 1 9.14,90.73 V 22.55 A 13.41,13.41 0 0 1 22.46,9.05"
       class="cls-8"
       inkscape:connector-curvature="0"
       style="fill:#678250" />
    <path
       id="path880"
       transform="translate(-7.38,-7.29)"
       d="m 90.75,9.15 a 13.47,13.47 0 0 1 13.47,13.47 v 0 68 a 13.47,13.47 0 0 1 -13.47,13.47 h -68 A 13.47,13.47 0 0 1 9.23,90.66 v -68 A 13.39,13.39 0 0 1 22.53,9.15"
       class="cls-8"
       inkscape:connector-curvature="0"
       style="fill:#678250" />
    <path
       id="path882"
       transform="translate(-7.38,-7.29)"
       d="m 90.68,9.25 a 13.45,13.45 0 0 1 13.45,13.45 v 0 67.9 A 13.45,13.45 0 0 1 90.68,104 H 22.78 A 13.45,13.45 0 0 1 9.33,90.59 V 22.69 A 13.36,13.36 0 0 1 22.6,9.25"
       class="cls-9"
       inkscape:connector-curvature="0"
       style="fill:#688250" />
    <path
       id="path884"
       transform="translate(-7.38,-7.29)"
       d="M 90.61,9.34 A 13.42,13.42 0 0 1 104,22.76 v 0 67.76 A 13.42,13.42 0 0 1 90.58,103.94 H 22.85 A 13.42,13.42 0 0 1 9.43,90.52 V 22.76 A 13.33,13.33 0 0 1 22.67,9.34"
       class="cls-9"
       inkscape:connector-curvature="0"
       style="fill:#688250" />
    <path
       id="path886"
       transform="translate(-7.38,-7.29)"
       d="m 90.54,9.44 a 13.39,13.39 0 0 1 13.39,13.39 v 0 67.62 A 13.39,13.39 0 0 1 90.54,103.84 H 22.92 A 13.39,13.39 0 0 1 9.53,90.45 V 22.83 A 13.3,13.3 0 0 1 22.74,9.44"
       class="cls-10"
       inkscape:connector-curvature="0"
       style="fill:#688350" />
    <path
       id="path888"
       transform="translate(-7.38,-7.29)"
       d="m 90.47,9.54 a 13.36,13.36 0 0 1 13.36,13.36 v 0 67.48 A 13.36,13.36 0 0 1 90.47,103.74 H 23 A 13.36,13.36 0 0 1 9.62,90.38 V 22.9 A 13.28,13.28 0 0 1 22.81,9.54"
       class="cls-10"
       inkscape:connector-curvature="0"
       style="fill:#688350" />
    <path
       id="path890"
       transform="translate(-7.38,-7.29)"
       d="M 90.4,9.64 A 13.33,13.33 0 0 1 103.73,23 v 0 67.31 A 13.33,13.33 0 0 1 90.4,103.65 H 23.06 A 13.33,13.33 0 0 1 9.72,90.31 V 23 A 13.25,13.25 0 0 1 22.88,9.64"
       class="cls-10"
       inkscape:connector-curvature="0"
       style="fill:#688350" />
    <path
       id="path892"
       transform="translate(-7.38,-7.29)"
       d="M 90.33,9.73 A 13.31,13.31 0 0 1 103.63,23 v 0 67.2 A 13.31,13.31 0 0 1 90.32,103.51 H 23.13 A 13.31,13.31 0 0 1 9.82,90.24 V 23 A 13.22,13.22 0 0 1 23,9.73"
       class="cls-10"
       inkscape:connector-curvature="0"
       style="fill:#688350" />
    <path
       id="path894"
       transform="translate(-7.38,-7.29)"
       d="m 90.26,9.83 a 13.28,13.28 0 0 1 13.28,13.28 v 0 67.06 A 13.28,13.28 0 0 1 90.26,103.45 H 23.2 A 13.28,13.28 0 0 1 9.92,90.17 V 23.11 A 13.19,13.19 0 0 1 23,9.83"
       class="cls-11"
       inkscape:connector-curvature="0"
       style="fill:#688451" />
    <path
       id="path896"
       transform="translate(-7.38,-7.29)"
       d="m 90.19,9.93 a 13.25,13.25 0 0 1 13.25,13.25 v 0 66.92 A 13.25,13.25 0 0 1 90.19,103.35 H 23.27 A 13.25,13.25 0 0 1 10,90.1 V 23.18 A 13.17,13.17 0 0 1 23.1,9.93"
       class="cls-11"
       inkscape:connector-curvature="0"
       style="fill:#688451" />
    <path
       id="path898"
       transform="translate(-7.38,-7.29)"
       d="m 90.12,10 a 13.22,13.22 0 0 1 13.22,13.22 v 0 V 90 A 13.22,13.22 0 0 1 90.12,103.22 H 23.34 A 13.22,13.22 0 0 1 10.11,90 V 23.25 A 13.14,13.14 0 0 1 23.17,10"
       class="cls-12"
       inkscape:connector-curvature="0"
       style="fill:#698451" />
    <path
       id="path900"
       transform="translate(-7.38,-7.29)"
       d="m 90,10.13 a 13.2,13.2 0 0 1 13.2,13.2 v 0 V 90 A 13.2,13.2 0 0 1 90,103.16 H 23.41 A 13.2,13.2 0 0 1 10.21,90 V 23.32 a 13.11,13.11 0 0 1 13,-13.2"
       class="cls-12"
       inkscape:connector-curvature="0"
       style="fill:#698451" />
    <path
       id="path902"
       transform="translate(-7.38,-7.29)"
       d="m 90,10.22 a 13.17,13.17 0 0 1 13.17,13.17 v 0 66.5 A 13.17,13.17 0 0 1 90,103.06 H 23.48 A 13.17,13.17 0 0 1 10.31,89.89 v -66.5 a 13.08,13.08 0 0 1 13,-13.17"
       class="cls-13"
       inkscape:connector-curvature="0"
       style="fill:#698551" />
    <path
       id="path904"
       transform="translate(-7.38,-7.29)"
       d="M 89.91,10.32 A 13.14,13.14 0 0 1 103,23.46 v 0 66.36 A 13.14,13.14 0 0 1 89.91,103 H 23.55 A 13.14,13.14 0 0 1 10.41,89.82 V 23.46 a 13.06,13.06 0 0 1 13,-13.14"
       class="cls-13"
       inkscape:connector-curvature="0"
       style="fill:#698551" />
    <path
       id="path906"
       transform="translate(-7.38,-7.29)"
       d="m 89.84,10.42 a 13.11,13.11 0 0 1 13.11,13.11 v 0 66.22 A 13.11,13.11 0 0 1 89.84,102.86 H 23.62 A 13.11,13.11 0 0 1 10.5,89.75 V 23.53 A 13,13 0 0 1 23.45,10.42"
       class="cls-13"
       inkscape:connector-curvature="0"
       style="fill:#698551" />
    <path
       id="path908"
       transform="translate(-7.38,-7.29)"
       d="m 89.77,10.52 a 13.09,13.09 0 0 1 13.08,13.08 v 0 66.08 A 13.09,13.09 0 0 1 89.76,102.77 H 23.69 A 13.09,13.09 0 0 1 10.6,89.68 V 23.6 A 13,13 0 0 1 23.52,10.52"
       class="cls-13"
       inkscape:connector-curvature="0"
       style="fill:#698551" />
    <path
       id="path910"
       transform="translate(-7.38,-7.29)"
       d="m 89.7,10.61 a 13.06,13.06 0 0 1 13.06,13.06 v 0 65.94 A 13.06,13.06 0 0 1 89.7,102.67 H 23.76 A 13.06,13.06 0 0 1 10.7,89.61 V 23.67 A 13,13 0 0 1 23.59,10.61"
       class="cls-14"
       inkscape:connector-curvature="0"
       style="fill:#698651" />
    <path
       id="path912"
       transform="translate(-7.38,-7.29)"
       d="m 89.63,10.71 a 13,13 0 0 1 13,13 v 0 65.8 a 13,13 0 0 1 -13,13 h -65.8 a 13,13 0 0 1 -13,-13 V 23.74 a 13,13 0 0 1 12.86,-13"
       class="cls-15"
       inkscape:connector-curvature="0"
       style="fill:#6a8651" />
    <path
       id="path914"
       transform="translate(-7.38,-7.29)"
       d="m 89.56,10.81 a 13,13 0 0 1 13,13 v 0 65.66 a 13,13 0 0 1 -13,13 H 23.9 a 13,13 0 0 1 -13,-13 V 23.81 a 12.92,12.92 0 0 1 12.83,-13"
       class="cls-15"
       inkscape:connector-curvature="0"
       style="fill:#6a8651" />
    <path
       id="path916"
       transform="translate(-7.38,-7.29)"
       d="m 89.49,10.91 a 13,13 0 0 1 13,13 v 0 65.49 a 13,13 0 0 1 -13,13 H 24 A 13,13 0 0 1 11,89.4 V 23.88 a 12.89,12.89 0 0 1 12.81,-13"
       class="cls-16"
       inkscape:connector-curvature="0"
       style="fill:#6a8751" />
    <path
       id="path918"
       transform="translate(-7.38,-7.29)"
       d="m 89.42,11 a 13,13 0 0 1 12.94,13 v 0 65.33 A 13,13 0 0 1 89.41,102.28 H 24 A 13,13 0 0 1 11.09,89.33 V 24 A 12.86,12.86 0 0 1 23.87,11"
       class="cls-16"
       inkscape:connector-curvature="0"
       style="fill:#6a8751" />
    <path
       id="path920"
       transform="translate(-7.38,-7.29)"
       d="M 89.35,11.1 A 12.92,12.92 0 0 1 102.26,24 v 0 65.26 A 12.92,12.92 0 0 1 89.34,102.18 H 24.11 A 12.92,12.92 0 0 1 11.19,89.26 V 24 A 12.84,12.84 0 0 1 23.94,11.1"
       class="cls-16"
       inkscape:connector-curvature="0"
       style="fill:#6a8751" />
    <path
       id="path922"
       transform="translate(-7.38,-7.29)"
       d="m 89.28,11.2 a 12.89,12.89 0 0 1 12.89,12.89 v 0 65.1 A 12.89,12.89 0 0 1 89.28,102.08 H 24.18 A 12.89,12.89 0 0 1 11.28,89.19 V 24.09 A 12.81,12.81 0 0 1 24,11.2"
       class="cls-16"
       inkscape:connector-curvature="0"
       style="fill:#6a8751" />
    <path
       id="path924"
       transform="translate(-7.38,-7.29)"
       d="m 89.21,11.3 a 12.86,12.86 0 0 1 12.86,12.86 v 0 65 A 12.86,12.86 0 0 1 89.21,102 h -65 A 12.86,12.86 0 0 1 11.38,89.12 v -65 A 12.78,12.78 0 0 1 24.08,11.3"
       class="cls-17"
       inkscape:connector-curvature="0"
       style="fill:#6a8851" />
    <path
       id="path926"
       transform="translate(-7.38,-7.29)"
       d="M 89.14,11.4 A 12.84,12.84 0 0 1 102,24.23 v 0 64.82 A 12.84,12.84 0 0 1 89.16,101.89 H 24.32 A 12.84,12.84 0 0 1 11.48,89.05 V 24.23 A 12.75,12.75 0 0 1 24.15,11.4"
       class="cls-17"
       inkscape:connector-curvature="0"
       style="fill:#6a8851" />
    <path
       id="path928"
       transform="translate(-7.38,-7.29)"
       d="m 89.07,11.49 a 12.81,12.81 0 0 1 12.8,12.81 v 0 V 89 A 12.81,12.81 0 0 1 89.06,101.81 H 24.39 A 12.81,12.81 0 0 1 11.58,89 V 24.3 A 12.73,12.73 0 0 1 24.22,11.49"
       class="cls-18"
       inkscape:connector-curvature="0"
       style="fill:#6b8851" />
    <path
       id="path930"
       transform="translate(-7.38,-7.29)"
       d="m 89,11.59 a 12.78,12.78 0 0 1 12.78,12.78 v 0 64.54 A 12.78,12.78 0 0 1 89,101.69 H 24.46 A 12.78,12.78 0 0 1 11.68,88.91 V 24.37 A 12.7,12.7 0 0 1 24.29,11.59"
       class="cls-18"
       inkscape:connector-curvature="0"
       style="fill:#6b8851" />
    <path
       id="path932"
       transform="translate(-7.38,-7.29)"
       d="m 88.93,11.69 a 12.75,12.75 0 0 1 12.75,12.75 v 0 64.4 A 12.75,12.75 0 0 1 88.93,101.59 H 24.53 A 12.75,12.75 0 0 1 11.77,88.84 V 24.44 A 12.67,12.67 0 0 1 24.36,11.69"
       class="cls-19"
       inkscape:connector-curvature="0"
       style="fill:#6b8951" />
    <path
       id="path934"
       transform="translate(-7.38,-7.29)"
       d="m 88.86,11.79 a 12.72,12.72 0 0 1 12.72,12.72 v 0 64.26 A 12.72,12.72 0 0 1 88.86,101.5 H 24.6 A 12.72,12.72 0 0 1 11.87,88.77 V 24.51 A 12.64,12.64 0 0 1 24.43,11.79"
       class="cls-19"
       inkscape:connector-curvature="0"
       style="fill:#6b8951" />
    <path
       id="path936"
       transform="translate(-7.38,-7.29)"
       d="m 88.79,11.88 a 12.7,12.7 0 0 1 12.7,12.7 v 0 64.12 a 12.7,12.7 0 0 1 -12.7,12.7 H 24.67 A 12.7,12.7 0 0 1 12,88.7 V 24.58 a 12.62,12.62 0 0 1 12.5,-12.7"
       class="cls-19"
       inkscape:connector-curvature="0"
       style="fill:#6b8951" />
    <path
       id="path938"
       transform="translate(-7.38,-7.29)"
       d="m 88.72,12 a 12.67,12.67 0 0 1 12.67,12.67 v 0 64 A 12.67,12.67 0 0 1 88.72,101.3 h -64 A 12.67,12.67 0 0 1 12.07,88.63 v -64 A 12.59,12.59 0 0 1 24.57,12"
       class="cls-19"
       inkscape:connector-curvature="0"
       style="fill:#6b8951" />
    <path
       id="path940"
       transform="translate(-7.38,-7.29)"
       d="m 88.65,12.08 a 12.64,12.64 0 0 1 12.64,12.64 v 0 63.84 A 12.64,12.64 0 0 1 88.65,101.2 H 24.81 A 12.64,12.64 0 0 1 12.16,88.56 V 24.72 A 12.56,12.56 0 0 1 24.64,12.08"
       class="cls-20"
       inkscape:connector-curvature="0"
       style="fill:#6b8a51" />
    <path
       id="path942"
       transform="translate(-7.38,-7.29)"
       d="m 88.58,12.18 a 12.61,12.61 0 0 1 12.61,12.61 v 0 63.7 A 12.61,12.61 0 0 1 88.58,101.1 H 24.88 A 12.61,12.61 0 0 1 12.26,88.49 V 24.79 A 12.53,12.53 0 0 1 24.71,12.18"
       class="cls-20"
       inkscape:connector-curvature="0"
       style="fill:#6b8a51" />
    <path
       id="path944"
       transform="translate(-7.38,-7.29)"
       d="m 88.51,12.27 a 12.59,12.59 0 0 1 12.59,12.59 v 0 63.56 A 12.59,12.59 0 0 1 88.51,101 H 24.95 A 12.59,12.59 0 0 1 12.36,88.42 V 24.86 A 12.51,12.51 0 0 1 24.78,12.27"
       class="cls-21"
       inkscape:connector-curvature="0"
       style="fill:#6c8a51" />
    <path
       id="path946"
       transform="translate(-7.38,-7.29)"
       d="M 88.44,12.37 A 12.56,12.56 0 0 1 101,24.93 v 0 63.42 A 12.56,12.56 0 0 1 88.44,100.91 H 25 A 12.56,12.56 0 0 1 12.46,88.35 V 24.93 a 12.48,12.48 0 0 1 12.4,-12.56"
       class="cls-21"
       inkscape:connector-curvature="0"
       style="fill:#6c8a51" />
    <path
       id="path948"
       transform="translate(-7.38,-7.29)"
       d="M 88.37,12.47 A 12.53,12.53 0 0 1 100.9,25 v 0 63.28 A 12.53,12.53 0 0 1 88.37,100.81 H 25.09 A 12.53,12.53 0 0 1 12.56,88.28 V 25 A 12.45,12.45 0 0 1 24.92,12.47"
       class="cls-22"
       inkscape:connector-curvature="0"
       style="fill:#6c8b51" />
    <path
       id="path950"
       transform="translate(-7.38,-7.29)"
       d="m 88.3,12.57 a 12.5,12.5 0 0 1 12.5,12.5 v 0 63.14 a 12.5,12.5 0 0 1 -12.5,12.5 H 25.16 A 12.5,12.5 0 0 1 12.66,88.21 V 25.07 A 12.42,12.42 0 0 1 25,12.57"
       class="cls-22"
       inkscape:connector-curvature="0"
       style="fill:#6c8b51" />
    <path
       id="path952"
       transform="translate(-7.38,-7.29)"
       d="m 88.23,12.67 a 12.48,12.48 0 0 1 12.47,12.47 v 0 63 a 12.48,12.48 0 0 1 -12.48,12.48 h -63 A 12.48,12.48 0 0 1 12.75,88.14 v -63 A 12.4,12.4 0 0 1 25.07,12.67"
       class="cls-22"
       inkscape:connector-curvature="0"
       style="fill:#6c8b51" />
    <path
       id="path954"
       transform="translate(-7.38,-7.29)"
       d="m 88.16,12.76 a 12.45,12.45 0 0 1 12.44,12.45 v 0 62.86 A 12.45,12.45 0 0 1 88.15,100.52 H 25.3 A 12.45,12.45 0 0 1 12.85,88.07 V 25.21 A 12.37,12.37 0 0 1 25.14,12.76"
       class="cls-22"
       inkscape:connector-curvature="0"
       style="fill:#6c8b51" />
    <path
       id="path956"
       transform="translate(-7.38,-7.29)"
       d="m 88.09,12.86 a 12.42,12.42 0 0 1 12.42,12.42 v 0 V 88 A 12.42,12.42 0 0 1 88.09,100.42 H 25.37 A 12.42,12.42 0 0 1 12.95,88 V 25.28 A 12.34,12.34 0 0 1 25.21,12.86"
       class="cls-23"
       inkscape:connector-curvature="0"
       style="fill:#6c8c51" />
    <path
       id="path958"
       transform="translate(-7.38,-7.29)"
       d="m 88,13 a 12.39,12.39 0 0 1 12.39,12.39 v 0 62.54 A 12.39,12.39 0 0 1 88,100.32 H 25.44 A 12.39,12.39 0 0 1 13,87.93 V 25.35 A 12.31,12.31 0 0 1 25.28,13"
       class="cls-23"
       inkscape:connector-curvature="0"
       style="fill:#6c8c51" />
    <path
       id="path960"
       transform="translate(-7.38,-7.29)"
       d="m 87.95,13.06 a 12.36,12.36 0 0 1 12.36,12.36 v 0 62.44 A 12.36,12.36 0 0 1 87.95,100.22 H 25.51 A 12.36,12.36 0 0 1 13.14,87.86 V 25.42 a 12.28,12.28 0 0 1 12.2,-12.36"
       class="cls-24"
       inkscape:connector-curvature="0"
       style="fill:#6d8c51" />
    <path
       id="path962"
       transform="translate(-7.38,-7.29)"
       d="m 87.88,13.15 a 12.34,12.34 0 0 1 12.34,12.34 v 0 62.3 A 12.34,12.34 0 0 1 87.88,100.13 H 25.58 A 12.34,12.34 0 0 1 13.24,87.79 V 25.49 A 12.26,12.26 0 0 1 25.42,13.15"
       class="cls-24"
       inkscape:connector-curvature="0"
       style="fill:#6d8c51" />
    <path
       id="path964"
       transform="translate(-7.38,-7.29)"
       d="m 87.81,13.25 a 12.31,12.31 0 0 1 12.31,12.31 v 0 62.16 A 12.31,12.31 0 0 1 87.81,100 H 25.65 A 12.31,12.31 0 0 1 13.34,87.72 V 25.56 A 12.23,12.23 0 0 1 25.49,13.25"
       class="cls-25"
       inkscape:connector-curvature="0"
       style="fill:#6d8d51" />
    <path
       id="path966"
       transform="translate(-7.38,-7.29)"
       d="M 87.74,13.35 A 12.28,12.28 0 0 1 100,25.63 v 0 62 a 12.28,12.28 0 0 1 -12.26,12.3 h -62 A 12.28,12.28 0 0 1 13.43,87.65 v -62 a 12.2,12.2 0 0 1 12.13,-12.3"
       class="cls-25"
       inkscape:connector-curvature="0"
       style="fill:#6d8d51" />
    <path
       id="path968"
       transform="translate(-7.38,-7.29)"
       d="M 87.67,13.45 A 12.25,12.25 0 0 1 99.92,25.7 v 0 61.88 A 12.25,12.25 0 0 1 87.67,99.83 H 25.79 A 12.25,12.25 0 0 1 13.53,87.58 V 25.7 a 12.17,12.17 0 0 1 12.1,-12.25"
       class="cls-25"
       inkscape:connector-curvature="0"
       style="fill:#6d8d51" />
    <path
       id="path970"
       transform="translate(-7.38,-7.29)"
       d="m 87.6,13.55 a 12.23,12.23 0 0 1 12.22,12.22 v 0 61.74 A 12.23,12.23 0 0 1 87.6,99.74 H 25.86 A 12.23,12.23 0 0 1 13.63,87.51 V 25.77 A 12.15,12.15 0 0 1 25.7,13.55"
       class="cls-25"
       inkscape:connector-curvature="0"
       style="fill:#6d8d51" />
    <path
       id="path972"
       transform="translate(-7.38,-7.29)"
       d="m 87.53,13.64 a 12.2,12.2 0 0 1 12.2,12.2 v 0 61.6 a 12.2,12.2 0 0 1 -12.2,12.2 h -61.6 a 12.2,12.2 0 0 1 -12.2,-12.2 v -61.6 a 12.12,12.12 0 0 1 12,-12.2"
       class="cls-26"
       inkscape:connector-curvature="0"
       style="fill:#6d8e51" />
    <path
       id="path974"
       transform="translate(-7.38,-7.29)"
       d="m 87.46,13.74 a 12.17,12.17 0 0 1 12.17,12.17 v 0 61.46 A 12.17,12.17 0 0 1 87.46,99.54 H 26 A 12.17,12.17 0 0 1 13.83,87.37 V 25.91 a 12.09,12.09 0 0 1 12,-12.17"
       class="cls-26"
       inkscape:connector-curvature="0"
       style="fill:#6d8e51" />
    <path
       id="path976"
       transform="translate(-7.38,-7.29)"
       d="M 87.39,13.84 A 12.14,12.14 0 0 1 99.53,26 v 0 61.3 A 12.14,12.14 0 0 1 87.39,99.44 H 26.07 A 12.14,12.14 0 0 1 13.92,87.3 V 26 a 12.06,12.06 0 0 1 12,-12.14"
       class="cls-27"
       inkscape:connector-curvature="0"
       style="fill:#6e8e51" />
    <path
       id="path978"
       transform="translate(-7.38,-7.29)"
       d="m 87.32,13.94 a 12.11,12.11 0 0 1 12.11,12.11 v 0 61.18 A 12.11,12.11 0 0 1 87.32,99.35 H 26.14 A 12.11,12.11 0 0 1 14,87.23 V 26.05 A 12,12 0 0 1 26,13.94"
       class="cls-28"
       inkscape:connector-curvature="0"
       style="fill:#6e8f51" />
    <path
       id="path980"
       transform="translate(-7.38,-7.29)"
       d="m 87.25,14 a 12.09,12.09 0 0 1 12.08,12.12 v 0 61 A 12.09,12.09 0 0 1 87.25,99.25 h -61 A 12.09,12.09 0 0 1 14.12,87.16 v -61 A 12,12 0 0 1 26.05,14"
       class="cls-28"
       inkscape:connector-curvature="0"
       style="fill:#6e8f51" />
    <path
       id="path982"
       transform="translate(-7.38,-7.29)"
       d="m 87.18,14.13 a 12.06,12.06 0 0 1 12.06,12.06 v 0 60.9 A 12.06,12.06 0 0 1 87.18,99.15 H 26.28 A 12.06,12.06 0 0 1 14.22,87.09 v -60.9 a 12,12 0 0 1 11.9,-12.06"
       class="cls-28"
       inkscape:connector-curvature="0"
       style="fill:#6e8f51" />
    <path
       id="path984"
       transform="translate(-7.38,-7.29)"
       d="m 87.11,14.23 a 12,12 0 0 1 12,12 v 0 V 87 a 12,12 0 0 1 -12,12 H 26.35 a 12,12 0 0 1 -12,-12 V 26.26 a 12,12 0 0 1 11.88,-12"
       class="cls-28"
       inkscape:connector-curvature="0"
       style="fill:#6e8f51" />
    <path
       id="path986"
       transform="translate(-7.38,-7.29)"
       d="m 87,14.33 a 12,12 0 0 1 12,12 v 0 V 87 A 12,12 0 0 1 87,99 H 26.42 a 12,12 0 0 1 -12,-12 V 26.33 a 11.93,11.93 0 0 1 11.85,-12"
       class="cls-29"
       inkscape:connector-curvature="0"
       style="fill:#6e9051" />
    <path
       id="path988"
       transform="translate(-7.38,-7.29)"
       d="m 87,14.42 a 12,12 0 0 1 12,12 v 0 60.46 a 12,12 0 0 1 -12,12 H 26.49 a 12,12 0 0 1 -12,-12 V 26.4 a 11.9,11.9 0 0 1 11.82,-12"
       class="cls-29"
       inkscape:connector-curvature="0"
       style="fill:#6e9051" />
    <path
       id="path990"
       transform="translate(-7.38,-7.29)"
       d="m 86.9,14.52 a 12,12 0 0 1 11.94,11.95 v 0 60.34 A 12,12 0 0 1 86.9,98.76 H 26.56 A 12,12 0 0 1 14.61,86.81 V 26.47 A 11.87,11.87 0 0 1 26.4,14.52"
       class="cls-30"
       inkscape:connector-curvature="0"
       style="fill:#6f9051" />
    <path
       id="path992"
       transform="translate(-7.38,-7.29)"
       d="m 86.83,14.62 a 11.92,11.92 0 0 1 11.92,11.92 v 0 60.2 A 11.92,11.92 0 0 1 86.83,98.66 H 26.63 A 11.92,11.92 0 0 1 14.71,86.74 V 26.54 A 11.84,11.84 0 0 1 26.47,14.62"
       class="cls-30"
       inkscape:connector-curvature="0"
       style="fill:#6f9051" />
    <path
       id="path994"
       transform="translate(-7.38,-7.29)"
       d="m 86.76,14.72 a 11.89,11.89 0 0 1 11.89,11.89 v 0 60.06 A 11.89,11.89 0 0 1 86.76,98.56 H 26.7 A 11.89,11.89 0 0 1 14.8,86.67 V 26.61 A 11.82,11.82 0 0 1 26.54,14.72"
       class="cls-31"
       inkscape:connector-curvature="0"
       style="fill:#6f9152" />
    <path
       id="path996"
       transform="translate(-7.38,-7.29)"
       d="m 86.69,14.82 a 11.87,11.87 0 0 1 11.86,11.86 v 0 59.92 A 11.87,11.87 0 0 1 86.69,98.47 H 26.77 A 11.87,11.87 0 0 1 14.9,86.6 V 26.68 A 11.79,11.79 0 0 1 26.61,14.82"
       class="cls-31"
       inkscape:connector-curvature="0"
       style="fill:#6f9152" />
    <path
       id="path998"
       transform="translate(-7.38,-7.29)"
       d="m 86.62,14.91 a 11.84,11.84 0 0 1 11.83,11.84 v 0 59.78 A 11.84,11.84 0 0 1 86.62,98.37 H 26.84 A 11.84,11.84 0 0 1 15,86.53 V 26.75 A 11.76,11.76 0 0 1 26.68,14.91"
       class="cls-31"
       inkscape:connector-curvature="0"
       style="fill:#6f9152" />
    <path
       id="path1000"
       transform="translate(-7.38,-7.29)"
       d="m 86.55,15 a 11.81,11.81 0 0 1 11.81,11.82 v 0 59.64 A 11.81,11.81 0 0 1 86.55,98.27 H 26.91 A 11.81,11.81 0 0 1 15.1,86.46 V 26.82 A 11.73,11.73 0 0 1 26.75,15"
       class="cls-31"
       inkscape:connector-curvature="0"
       style="fill:#6f9152" />
    <path
       id="path1002"
       transform="translate(-7.38,-7.29)"
       d="m 86.48,15.11 a 11.78,11.78 0 0 1 11.78,11.78 v 0 59.5 A 11.78,11.78 0 0 1 86.48,98.17 H 27 A 11.78,11.78 0 0 1 15.19,86.39 V 26.89 A 11.71,11.71 0 0 1 26.82,15.11"
       class="cls-32"
       inkscape:connector-curvature="0"
       style="fill:#6f9252" />
    <path
       id="path1004"
       transform="translate(-7.38,-7.29)"
       d="M 86.41,15.21 A 11.75,11.75 0 0 1 98.16,27 v 0 59.32 A 11.75,11.75 0 0 1 86.41,98.08 H 27 A 11.75,11.75 0 0 1 15.29,86.32 V 27 a 11.68,11.68 0 0 1 11.6,-11.75"
       class="cls-32"
       inkscape:connector-curvature="0"
       style="fill:#6f9252" />
    <path
       id="path1006"
       transform="translate(-7.38,-7.29)"
       d="M 86.34,15.3 A 11.73,11.73 0 0 1 98.06,27 v 0 59.25 A 11.73,11.73 0 0 1 86.34,98 H 27.12 A 11.73,11.73 0 0 1 15.39,86.25 V 27 A 11.65,11.65 0 0 1 27,15.3"
       class="cls-33"
       inkscape:connector-curvature="0"
       style="fill:#709252" />
    <path
       id="path1008"
       transform="translate(-7.38,-7.29)"
       d="M 86.27,15.4 A 11.7,11.7 0 0 1 98,27.1 v 0 59.08 A 11.7,11.7 0 0 1 86.3,97.88 H 27.19 A 11.7,11.7 0 0 1 15.49,86.18 V 27.1 A 11.62,11.62 0 0 1 27,15.4"
       class="cls-33"
       inkscape:connector-curvature="0"
       style="fill:#709252" />
    <path
       id="path1010"
       transform="translate(-7.38,-7.29)"
       d="m 86.2,15.5 a 11.67,11.67 0 0 1 11.67,11.67 v 0 58.94 A 11.67,11.67 0 0 1 86.2,97.78 H 27.26 A 11.67,11.67 0 0 1 15.58,86.11 V 27.17 A 11.6,11.6 0 0 1 27.11,15.5"
       class="cls-34"
       inkscape:connector-curvature="0"
       style="fill:#709352" />
    <path
       id="path1012"
       transform="translate(-7.38,-7.29)"
       d="m 86.13,15.6 a 11.64,11.64 0 0 1 11.64,11.64 v 0 V 86 A 11.64,11.64 0 0 1 86.13,97.68 H 27.33 A 11.64,11.64 0 0 1 15.68,86 V 27.24 A 11.57,11.57 0 0 1 27.18,15.6"
       class="cls-34"
       inkscape:connector-curvature="0"
       style="fill:#709352" />
    <path
       id="path1014"
       transform="translate(-7.38,-7.29)"
       d="m 86.06,15.7 a 11.62,11.62 0 0 1 11.61,11.61 v 0 V 86 A 11.62,11.62 0 0 1 86.06,97.59 H 27.4 A 11.62,11.62 0 0 1 15.78,86 V 27.31 A 11.54,11.54 0 0 1 27.25,15.7"
       class="cls-34"
       inkscape:connector-curvature="0"
       style="fill:#709352" />
    <path
       id="path1016"
       transform="translate(-7.38,-7.29)"
       d="m 86,15.79 a 11.59,11.59 0 0 1 11.57,11.59 v 0 58.52 A 11.59,11.59 0 0 1 86,97.49 H 27.47 A 11.59,11.59 0 0 1 15.88,85.9 V 27.38 A 11.51,11.51 0 0 1 27.32,15.79"
       class="cls-34"
       inkscape:connector-curvature="0"
       style="fill:#709352" />
    <path
       id="path1018"
       transform="translate(-7.38,-7.29)"
       d="m 85.92,15.89 a 11.56,11.56 0 0 1 11.56,11.56 v 0 58.38 A 11.56,11.56 0 0 1 85.92,97.39 H 27.54 A 11.56,11.56 0 0 1 16,85.83 V 27.45 A 11.49,11.49 0 0 1 27.39,15.89"
       class="cls-35"
       inkscape:connector-curvature="0"
       style="fill:#709452" />
    <path
       id="path1020"
       transform="translate(-7.38,-7.29)"
       d="m 85.85,16 a 11.53,11.53 0 0 1 11.53,11.52 v 0 58.24 A 11.53,11.53 0 0 1 85.85,97.29 H 27.61 A 11.53,11.53 0 0 1 16.07,85.76 V 27.52 A 11.46,11.46 0 0 1 27.46,16"
       class="cls-35"
       inkscape:connector-curvature="0"
       style="fill:#709452" />
    <path
       id="path1022"
       transform="translate(-7.38,-7.29)"
       d="m 85.78,16.09 a 11.5,11.5 0 0 1 11.5,11.5 v 0 58.1 a 11.5,11.5 0 0 1 -11.5,11.5 h -58.1 a 11.5,11.5 0 0 1 -11.5,-11.5 v -58.1 a 11.43,11.43 0 0 1 11.36,-11.5"
       class="cls-36"
       inkscape:connector-curvature="0"
       style="fill:#719452" />
    <path
       id="path1024"
       transform="translate(-7.38,-7.29)"
       d="m 85.71,16.18 a 11.48,11.48 0 0 1 11.47,11.48 v 0 58 A 11.48,11.48 0 0 1 85.71,97.1 h -58 A 11.48,11.48 0 0 1 16.27,85.62 v -58 A 11.4,11.4 0 0 1 27.6,16.18"
       class="cls-36"
       inkscape:connector-curvature="0"
       style="fill:#719452" />
    <path
       id="path1026"
       transform="translate(-7.38,-7.29)"
       d="m 85.64,16.28 a 11.45,11.45 0 0 1 11.45,11.45 v 0 57.82 A 11.45,11.45 0 0 1 85.64,97 H 27.82 A 11.45,11.45 0 0 1 16.37,85.55 V 27.73 a 11.38,11.38 0 0 1 11.3,-11.45"
       class="cls-37"
       inkscape:connector-curvature="0"
       style="fill:#719552" />
    <path
       id="path1028"
       transform="translate(-7.38,-7.29)"
       d="M 85.57,16.38 A 11.42,11.42 0 0 1 97,27.8 v 0 57.68 A 11.42,11.42 0 0 1 85.57,96.9 H 27.89 A 11.42,11.42 0 0 1 16.46,85.48 V 27.8 A 11.35,11.35 0 0 1 27.74,16.38"
       class="cls-37"
       inkscape:connector-curvature="0"
       style="fill:#719552" />
    <path
       id="path1030"
       transform="translate(-7.38,-7.29)"
       d="m 85.5,16.48 a 11.39,11.39 0 0 1 11.39,11.39 v 0 57.54 A 11.39,11.39 0 0 1 85.5,96.81 H 28 A 11.39,11.39 0 0 1 16.56,85.41 V 27.87 A 11.32,11.32 0 0 1 27.81,16.48"
       class="cls-37"
       inkscape:connector-curvature="0"
       style="fill:#719552" />
    <path
       id="path1032"
       transform="translate(-7.38,-7.29)"
       d="m 85.43,16.57 a 11.37,11.37 0 0 1 11.36,11.37 v 0 57.4 A 11.37,11.37 0 0 1 85.43,96.71 H 28 A 11.37,11.37 0 0 1 16.66,85.34 V 27.94 A 11.29,11.29 0 0 1 27.88,16.57"
       class="cls-37"
       inkscape:connector-curvature="0"
       style="fill:#719552" />
    <path
       id="path1034"
       transform="translate(-7.38,-7.29)"
       d="M 85.36,16.67 A 11.34,11.34 0 0 1 96.69,28 v 0 57.27 A 11.34,11.34 0 0 1 85.36,96.61 H 28.1 A 11.34,11.34 0 0 1 16.76,85.27 V 28 A 11.27,11.27 0 0 1 27.95,16.67"
       class="cls-38"
       inkscape:connector-curvature="0"
       style="fill:#719652" />
    <path
       id="path1036"
       transform="translate(-7.38,-7.29)"
       d="M 85.29,16.77 A 11.31,11.31 0 0 1 96.6,28.08 v 0 57.12 A 11.31,11.31 0 0 1 85.29,96.51 H 28.17 A 11.31,11.31 0 0 1 16.85,85.2 V 28.08 A 11.24,11.24 0 0 1 28,16.77"
       class="cls-38"
       inkscape:connector-curvature="0"
       style="fill:#719652" />
    <path
       id="path1038"
       transform="translate(-7.38,-7.29)"
       d="M 85.22,16.87 A 11.28,11.28 0 0 1 96.5,28.15 v 0 57 A 11.28,11.28 0 0 1 85.22,96.41 h -57 A 11.28,11.28 0 0 1 17,85.13 v -57 A 11.21,11.21 0 0 1 28.09,16.87"
       class="cls-39"
       inkscape:connector-curvature="0"
       style="fill:#729652" />
    <path
       id="path1040"
       transform="translate(-7.38,-7.29)"
       d="M 85.15,17 A 11.26,11.26 0 0 1 96.4,28.22 v 0 56.84 A 11.26,11.26 0 0 1 85.15,96.32 H 28.31 A 11.26,11.26 0 0 1 17.05,85.06 V 28.22 A 11.18,11.18 0 0 1 28.16,17"
       class="cls-39"
       inkscape:connector-curvature="0"
       style="fill:#729652" />
    <path
       id="path1042"
       transform="translate(-7.38,-7.29)"
       d="M 85.08,17.06 A 11.23,11.23 0 0 1 96.3,28.29 v 0 V 85 A 11.23,11.23 0 0 1 85.08,96.22 H 28.38 A 11.23,11.23 0 0 1 17.15,85 V 28.29 A 11.16,11.16 0 0 1 28.23,17.06"
       class="cls-40"
       inkscape:connector-curvature="0"
       style="fill:#729752" />
    <path
       id="path1044"
       transform="translate(-7.38,-7.29)"
       d="m 85,17.16 a 11.2,11.2 0 0 1 11.2,11.2 v 0 56.56 A 11.2,11.2 0 0 1 85,96.12 H 28.45 A 11.2,11.2 0 0 1 17.25,84.92 V 28.36 A 11.13,11.13 0 0 1 28.3,17.16"
       class="cls-40"
       inkscape:connector-curvature="0"
       style="fill:#729752" />
    <path
       id="path1046"
       transform="translate(-7.38,-7.29)"
       d="M 85,17.22 A 11.18,11.18 0 0 1 96.15,28.4 v 0 56.48 A 11.18,11.18 0 0 1 85,96.05 H 28.61 A 11.19,11.19 0 0 1 17.4,85 C 17.35,85 17.31,70.92 17.31,70.87 V 28.44 a 11.25,11.25 0 0 1 0.43,-3.17 11.11,11.11 0 0 1 10.61,-8 h 0.47"
       class="cls-41"
       inkscape:connector-curvature="0"
       style="fill:#729852" />
    <path
       id="path1048"
       transform="translate(-7.38,-7.29)"
       d="m 84.92,17.28 a 11.17,11.17 0 0 1 11.17,11.16 v 0 56.39 A 11.16,11.16 0 0 1 85,96 H 28.77 A 11.18,11.18 0 0 1 17.55,85 C 17.45,85 17.36,71 17.36,70.92 V 28.51 a 11.38,11.38 0 0 1 0.43,-3.17 11.09,11.09 0 0 1 10.6,-8.06 h 0.95"
       class="cls-42"
       inkscape:connector-curvature="0"
       style="fill:#739853" />
    <path
       id="path1050"
       transform="translate(-7.38,-7.29)"
       d="M 84.88,17.34 A 11.15,11.15 0 0 1 96,28.49 v 0 56.3 A 11.14,11.14 0 0 1 85,95.92 H 29 A 11.18,11.18 0 0 1 17.71,85.07 c -0.16,0 -0.28,-13.88 -0.28,-14 V 28.59 a 11.5,11.5 0 0 1 0.42,-3.17 11.07,11.07 0 0 1 10.59,-8.07 h 1.42"
       class="cls-43"
       inkscape:connector-curvature="0"
       style="fill:#739953" />
    <path
       id="path1052"
       transform="translate(-7.38,-7.29)"
       d="M 84.83,17.4 A 11.14,11.14 0 0 1 96,28.53 v 0 56.21 A 11.11,11.11 0 0 1 85,95.86 c 0,0 -4.08,0 -4.12,0 H 29.09 c -5.94,0 -11.23,-4.82 -11.23,-10.76 -0.21,0 -0.37,-13.78 -0.38,-14 V 28.66 A 11.63,11.63 0 0 1 17.9,25.48 11,11 0 0 1 28.48,17.4 h 1.89"
       class="cls-44"
       inkscape:connector-curvature="0"
       style="fill:#749953" />
    <path
       id="path1054"
       transform="translate(-7.38,-7.29)"
       d="M 84.79,17.45 A 11.12,11.12 0 0 1 95.9,28.57 v 0 56.13 a 11.09,11.09 0 0 1 -11,11.09 c 0,0 -4.06,0 -4.11,0 H 29.26 C 23.38,95.81 18,91 18,85.17 17.74,85.17 17.53,71.49 17.53,71.23 V 28.74 A 11.76,11.76 0 0 1 18,25.56 11,11 0 0 1 28.56,17.46 h 2.37"
       class="cls-45"
       inkscape:connector-curvature="0"
       style="fill:#749a53" />
    <path
       id="path1056"
       transform="translate(-7.38,-7.29)"
       d="m 84.75,17.51 a 11.1,11.1 0 0 1 11.1,11.1 v 0 56 A 11.07,11.07 0 0 1 84.91,95.72 c -0.05,0 -4,0 -4.09,0 H 29.42 C 23.6,95.72 18.17,91 18.17,85.19 c -0.31,0 -0.56,-13.58 -0.56,-13.9 V 28.81 A 11.9,11.9 0 0 1 18,25.63 11,11 0 0 1 28.55,17.51 h 2.84"
       class="cls-46"
       inkscape:connector-curvature="0"
       style="fill:#749a54" />
    <path
       id="path1058"
       transform="translate(-7.38,-7.29)"
       d="m 84.7,17.57 a 11.09,11.09 0 0 1 11.08,11.08 v 0 56 A 11.05,11.05 0 0 1 84.9,95.66 c -0.06,0 -4,0 -4.08,0 H 29.58 c -5.76,0 -11.25,-4.67 -11.25,-10.42 -0.36,0 -0.66,-13.49 -0.66,-13.85 v -42.5 a 12,12 0 0 1 0.41,-3.18 11,11 0 0 1 10.54,-8.13 h 3.31"
       class="cls-47"
       inkscape:connector-curvature="0"
       style="fill:#759b54" />
    <path
       id="path1060"
       transform="translate(-7.38,-7.29)"
       d="m 84.66,17.63 a 11.07,11.07 0 0 1 11.06,11.06 v 0 55.87 a 11,11 0 0 1 -10.84,11 c -0.07,0 -4,0 -4.07,0 H 29.74 C 24,95.63 18.48,91 18.48,85.31 c -0.41,0 -0.75,-13.39 -0.75,-13.8 V 29 a 12.18,12.18 0 0 1 0.4,-3.18 11,11 0 0 1 10.53,-8.15 h 3.79"
       class="cls-47"
       inkscape:connector-curvature="0"
       style="fill:#759b54" />
    <path
       id="path1062"
       transform="translate(-7.38,-7.29)"
       d="m 84.62,17.69 a 11.05,11.05 0 0 1 11,11 v 0 55.83 a 11,11 0 0 1 -10.8,11 c -0.08,0 -4,0 -4.05,0 H 29.9 c -5.63,0 -11.27,-4.57 -11.27,-10.2 -0.47,0 -0.84,-13.29 -0.85,-13.76 V 29 a 12.32,12.32 0 0 1 0.4,-3.19 10.94,10.94 0 0 1 10.52,-8.12 H 33"
       class="cls-48"
       inkscape:connector-curvature="0"
       style="fill:#759c54" />
    <path
       id="path1064"
       transform="translate(-7.38,-7.29)"
       d="m 84.57,17.75 a 11,11 0 0 1 11,11 v 0 55.72 a 11,11 0 0 1 -10.75,11 c -0.09,0 -3.94,0 -4,0 H 30.07 c -5.57,0 -11.28,-4.52 -11.28,-10.09 -0.52,0 -0.94,-13.19 -0.94,-13.71 V 29.11 a 12.47,12.47 0 0 1 0.39,-3.19 10.92,10.92 0 0 1 10.51,-8.18 h 4.73"
       class="cls-49"
       inkscape:connector-curvature="0"
       style="fill:#769c55" />
    <path
       id="path1066"
       transform="translate(-7.38,-7.29)"
       d="m 84.53,17.8 a 11,11 0 0 1 11,11 v 0 55.63 a 11,11 0 0 1 -10.71,11 c -0.1,0 -3.92,0 -4,0 H 30.23 c -5.51,0 -11.29,-4.47 -11.29,-10 -0.57,0 -1,-13.09 -1,-13.66 V 29.18 A 12.62,12.62 0 0 1 18.3,26 10.9,10.9 0 0 1 28.8,17.81 H 34"
       class="cls-50"
       inkscape:connector-curvature="0"
       style="fill:#769d55" />
    <path
       id="path1068"
       transform="translate(-7.38,-7.29)"
       d="m 84.49,17.86 a 11,11 0 0 1 11,11 v 0 55.52 A 11,11 0 0 1 84.82,95.33 c -0.11,0 -3.9,0.05 -4,0.05 H 30.39 c -5.45,0 -11.29,-4.42 -11.29,-9.87 -0.62,0 -1.12,-13 -1.13,-13.62 V 29.26 a 12.78,12.78 0 0 1 0.38,-3.19 10.87,10.87 0 0 1 10.49,-8.21 h 5.68"
       class="cls-51"
       inkscape:connector-curvature="0"
       style="fill:#779d55" />
    <path
       id="path1070"
       transform="translate(-7.38,-7.29)"
       d="m 84.44,17.92 a 11,11 0 0 1 11,11 v 0 55.42 A 10.93,10.93 0 0 1 84.81,95.26 c -0.12,0 -3.87,0.06 -4,0.06 H 30.55 c -5.39,0 -11.3,-4.37 -11.3,-9.76 C 18.58,85.55 18,72.66 18,72 V 29.33 a 12.93,12.93 0 0 1 0.38,-3.19 10.85,10.85 0 0 1 10.48,-8.22 H 35"
       class="cls-52"
       inkscape:connector-curvature="0"
       style="fill:#779e55" />
    <path
       id="path1072"
       transform="translate(-7.38,-7.29)"
       d="m 84.4,18 a 11,11 0 0 1 11,11 v 0 55.29 a 10.91,10.91 0 0 1 -10.57,10.9 c -0.12,0 -3.85,0.06 -4,0.06 H 30.71 C 25.38,95.25 19.4,90.93 19.4,85.6 18.67,85.6 18.09,72.8 18.08,72.07 V 29.41 A 13.09,13.09 0 0 1 18.46,26.22 10.83,10.83 0 0 1 28.93,18 h 6.63"
       class="cls-53"
       inkscape:connector-curvature="0"
       style="fill:#779e56" />
    <path
       id="path1074"
       transform="translate(-7.38,-7.29)"
       d="M 84.36,18 A 11,11 0 0 1 95.3,29 v 0 55.25 A 10.89,10.89 0 0 1 84.78,95.13 c -0.13,0 -3.83,0.07 -4,0.07 h -49.9 c -5.27,0 -11.32,-4.27 -11.32,-9.54 -0.78,0 -1.41,-12.7 -1.41,-13.48 V 29.48 A 13.26,13.26 0 0 1 18.52,26.28 10.81,10.81 0 0 1 29,18 h 7.1"
       class="cls-54"
       inkscape:connector-curvature="0"
       style="fill:#789f56" />
    <path
       id="path1076"
       transform="translate(-7.38,-7.29)"
       d="M 84.31,18.1 A 10.94,10.94 0 0 1 95.24,29 v 0 55.2 A 10.87,10.87 0 0 1 84.76,95.06 c -0.14,0 -3.8,0.07 -4,0.07 H 31 c -5.21,0 -11.32,-4.22 -11.32,-9.43 -0.83,0 -1.5,-12.6 -1.5,-13.43 V 29.56 A 13.43,13.43 0 0 1 18.55,26.36 10.79,10.79 0 0 1 29,18.1 h 7.57"
       class="cls-54"
       inkscape:connector-curvature="0"
       style="fill:#789f56" />
    <path
       id="path1078"
       transform="translate(-7.38,-7.29)"
       d="m 84.27,18.16 a 10.92,10.92 0 0 1 10.91,10.91 v 0 55.09 A 10.85,10.85 0 0 1 84.75,95 c -0.15,0 -3.78,0.07 -3.95,0.07 H 31.2 c -5.14,0 -11.33,-4.17 -11.33,-9.31 -0.88,0 -1.59,-12.51 -1.6,-13.39 V 29.63 a 13.6,13.6 0 0 1 0.36,-3.2 10.77,10.77 0 0 1 10.43,-8.28 h 8"
       class="cls-55"
       inkscape:connector-curvature="0"
       style="fill:#78a057" />
    <path
       id="path1080"
       transform="translate(-7.38,-7.29)"
       d="m 84.23,18.21 a 10.91,10.91 0 0 1 10.9,10.9 v 0 55 A 10.82,10.82 0 0 1 84.73,94.93 C 84.57,95 81,95 80.8,95 H 31.36 C 26.28,95 20,90.89 20,85.8 19.07,85.8 18.31,73.39 18.31,72.46 V 29.71 a 13.78,13.78 0 0 1 0.36,-3.2 10.75,10.75 0 0 1 10.42,-8.29 h 8.52"
       class="cls-56"
       inkscape:connector-curvature="0"
       style="fill:#79a057" />
    <path
       id="path1082"
       transform="translate(-7.38,-7.29)"
       d="m 84.18,18.27 a 10.89,10.89 0 0 1 10.88,10.88 v 0 54.91 a 10.8,10.8 0 0 1 -10.35,10.8 c -0.17,0.05 -3.73,0.08 -3.92,0.08 H 31.52 c -5,0 -11.35,-4.07 -11.35,-9.09 -1,0 -1.78,-12.31 -1.79,-13.29 V 29.78 a 14,14 0 0 1 0.35,-3.2 10.73,10.73 0 0 1 10.41,-8.31 h 9"
       class="cls-57"
       inkscape:connector-curvature="0"
       style="fill:#79a157" />
    <path
       id="path1084"
       transform="translate(-7.38,-7.29)"
       d="M 84.14,18.33 A 10.88,10.88 0 0 1 95,29.19 v 0 V 84 A 10.78,10.78 0 0 1 84.7,94.8 c -0.18,0.06 -3.71,0.09 -3.91,0.09 h -49.1 c -5,0 -11.36,-4 -11.36,-9 -1,0 -1.87,-12.21 -1.88,-13.25 V 29.86 a 14.15,14.15 0 0 1 0.35,-3.21 10.71,10.71 0 0 1 10.4,-8.32 h 9.47"
       class="cls-58"
       inkscape:connector-curvature="0"
       style="fill:#7aa157" />
    <path
       id="path1086"
       transform="translate(-7.38,-7.29)"
       d="m 84.1,18.39 a 10.86,10.86 0 0 1 10.84,10.85 v 0 V 84 A 10.76,10.76 0 0 1 84.68,94.73 c -0.19,0.06 -3.69,0.09 -3.89,0.09 H 31.85 c -4.9,0 -11.36,-4 -11.36,-8.87 -1.09,0 -2,-12.11 -2,-13.2 V 29.93 a 14.34,14.34 0 0 1 0.35,-3.21 10.69,10.69 0 0 1 10.39,-8.34 h 9.94"
       class="cls-59"
       inkscape:connector-curvature="0"
       style="fill:#7aa258" />
    <path
       id="path1088"
       transform="translate(-7.38,-7.29)"
       d="m 84.05,18.45 a 10.84,10.84 0 0 1 10.83,10.83 v 0 54.65 A 10.74,10.74 0 0 1 84.67,94.66 c -0.19,0.06 -3.67,0.1 -3.88,0.1 H 32 C 27.16,94.76 20.63,90.84 20.63,86 19.49,86 18.57,74 18.56,72.84 V 30 A 14.54,14.54 0 0 1 18.9,26.79 10.67,10.67 0 0 1 29.28,18.44 H 39.7"
       class="cls-59"
       inkscape:connector-curvature="0"
       style="fill:#7aa258" />
    <path
       id="path1090"
       transform="translate(-7.38,-7.29)"
       d="m 84,18.51 a 10.83,10.83 0 0 1 10.82,10.81 v 0 54.56 A 10.72,10.72 0 0 1 84.65,94.6 c -0.2,0.06 -3.64,0.1 -3.87,0.1 H 32.17 c -4.78,0 -11.38,-3.87 -11.38,-8.65 -1.19,0 -2.16,-11.92 -2.16,-13.11 V 30.08 A 14.74,14.74 0 0 1 19,26.87 10.66,10.66 0 0 1 29.36,18.5 h 10.86"
       class="cls-60"
       inkscape:connector-curvature="0"
       style="fill:#7ba358" />
    <path
       id="path1092"
       transform="translate(-7.38,-7.29)"
       d="m 84,18.57 a 10.81,10.81 0 0 1 10.8,10.8 v 0 54.47 A 10.71,10.71 0 0 1 84.64,94.53 c -0.21,0.07 -3.62,0.1 -3.85,0.11 H 32.33 c -4.72,0 -11.39,-3.82 -11.39,-8.54 -1.24,0 -2.25,-11.82 -2.26,-13.06 V 30.16 A 15,15 0 0 1 19,26.95 10.64,10.64 0 0 1 29.35,18.57 h 11.38"
       class="cls-60"
       inkscape:connector-curvature="0"
       style="fill:#7ba358" />
    <path
       id="path1094"
       transform="translate(-7.38,-7.29)"
       d="M 83.92,18.62 A 10.79,10.79 0 0 1 94.7,29.4 v 0 54.39 A 10.69,10.69 0 0 1 84.62,94.46 c -0.22,0.07 -3.6,0.11 -3.84,0.11 H 32.5 c -4.65,0 -11.39,-3.77 -11.39,-8.43 -1.3,0 -2.34,-11.72 -2.35,-13 V 30.23 A 15.16,15.16 0 0 1 19.08,27 10.62,10.62 0 0 1 29.42,18.61 h 11.83"
       class="cls-61"
       inkscape:connector-curvature="0"
       style="fill:#7ba459" />
    <path
       id="path1096"
       transform="translate(-7.38,-7.29)"
       d="m 83.88,18.68 a 10.78,10.78 0 0 1 10.76,10.76 v 0 54.3 a 10.67,10.67 0 0 1 -10,10.65 c -0.23,0.07 -3.57,0.11 -3.83,0.11 H 32.66 c -4.59,0 -11.4,-3.72 -11.4,-8.32 -1.35,0 -2.44,-11.62 -2.45,-13 V 30.31 a 15.38,15.38 0 0 1 0.32,-3.22 10.6,10.6 0 0 1 10.33,-8.41 h 12.3"
       class="cls-62"
       inkscape:connector-curvature="0"
       style="fill:#7ca459" />
    <path
       id="path1098"
       transform="translate(-7.38,-7.29)"
       d="m 83.83,18.74 a 10.76,10.76 0 0 1 10.75,10.75 v 0 54.21 a 10.65,10.65 0 0 1 -10,10.63 c -0.24,0.08 -3.55,0.12 -3.81,0.12 h -48 c -4.53,0 -11.41,-3.67 -11.41,-8.21 -1.4,0 -2.53,-11.53 -2.54,-12.92 V 30.38 a 15.61,15.61 0 0 1 0.32,-3.22 10.58,10.58 0 0 1 10.32,-8.42 h 12.83"
       class="cls-63"
       inkscape:connector-curvature="0"
       style="fill:#7ca559" />
    <path
       id="path1100"
       transform="translate(-7.38,-7.29)"
       d="m 83.79,18.8 a 10.75,10.75 0 0 1 10.73,10.73 v 0 54.13 a 10.63,10.63 0 0 1 -9.94,10.61 c -0.25,0.08 -3.53,0.12 -3.8,0.12 H 33 c -4.47,0 -11.42,-3.62 -11.42,-8.1 -1.45,0 -2.62,-11.43 -2.63,-12.88 v -43 a 15.84,15.84 0 0 1 0.32,-3.22 10.56,10.56 0 0 1 10.29,-8.39 h 13.25"
       class="cls-64"
       inkscape:connector-curvature="0"
       style="fill:#7da559" />
    <path
       id="path1102"
       transform="translate(-7.38,-7.29)"
       d="m 83.75,18.86 a 10.73,10.73 0 0 1 10.71,10.71 v 0 54 a 10.61,10.61 0 0 1 -9.9,10.58 c -0.26,0.08 -3.5,0.13 -3.79,0.13 H 33.14 c -4.41,0 -11.43,-3.57 -11.43,-8 C 20.22,86.33 19,75 19,73.51 v -43 a 16.07,16.07 0 0 1 0.31,-3.22 10.54,10.54 0 0 1 10.3,-8.45 h 13.72"
       class="cls-65"
       inkscape:connector-curvature="0"
       style="fill:#7da65a" />
    <path
       id="path1104"
       transform="translate(-7.38,-7.29)"
       d="m 83.7,18.92 a 10.71,10.71 0 0 1 10.7,10.7 v 0 54 a 10.59,10.59 0 0 1 -9.85,10.56 c -0.27,0.08 -3.48,0.13 -3.77,0.13 H 33.31 c -4.35,0 -11.43,-3.52 -11.43,-7.87 -1.55,0 -2.81,-11.23 -2.82,-12.79 v -43 a 16.32,16.32 0 0 1 0.31,-3.22 10.52,10.52 0 0 1 10.29,-8.47 h 14.2"
       class="cls-65"
       inkscape:connector-curvature="0"
       style="fill:#7da65a" />
    <path
       id="path1106"
       transform="translate(-7.38,-7.29)"
       d="m 83.66,19 a 10.7,10.7 0 0 1 10.68,10.65 v 0 53.87 a 10.57,10.57 0 0 1 -9.81,10.54 c -0.27,0.09 -3.46,0.13 -3.76,0.14 H 33.47 C 29.18,94.2 22,90.73 22,86.44 20.39,86.44 19.09,75.31 19.08,73.7 v -43 A 16.57,16.57 0 0 1 19.38,27.47 10.51,10.51 0 0 1 29.69,19 h 14.67"
       class="cls-66"
       inkscape:connector-curvature="0"
       style="fill:#7ea75a" />
    <path
       id="path1108"
       transform="translate(-7.38,-7.29)"
       d="m 83.62,19 a 10.68,10.68 0 0 1 10.66,10.69 v 0 53.79 A 10.55,10.55 0 0 1 84.52,94 c -0.28,0.09 -3.43,0.14 -3.75,0.14 H 33.63 c -4.23,0 -11.45,-3.43 -11.45,-7.65 -1.66,0 -3,-11 -3,-12.69 v -43 A 16.83,16.83 0 0 1 19.48,27.57 10.49,10.49 0 0 1 29.73,19 h 15.15"
       class="cls-67"
       inkscape:connector-curvature="0"
       style="fill:#7ea75b" />
    <path
       id="path1110"
       transform="translate(-7.38,-7.29)"
       d="m 83.57,19.09 a 10.66,10.66 0 0 1 10.65,10.65 v 0 53.7 a 10.53,10.53 0 0 1 -9.72,10.5 c -0.29,0.09 -3.41,0.14 -3.73,0.15 h -47 c -4.16,0 -11.46,-3.38 -11.46,-7.54 -1.71,0 -3.09,-10.94 -3.1,-12.65 V 30.83 A 17.09,17.09 0 0 1 19.5,27.6 10.47,10.47 0 0 1 29.75,19.09 H 45.4"
       class="cls-68"
       inkscape:connector-curvature="0"
       style="fill:#7ea85b" />
    <path
       id="path1112"
       transform="translate(-7.38,-7.29)"
       d="m 83.53,19.15 a 10.65,10.65 0 0 1 10.63,10.63 v 0 53.61 a 10.51,10.51 0 0 1 -9.67,10.48 c -0.3,0.1 -3.39,0.15 -3.72,0.15 H 34 c -4.1,0 -11.46,-3.33 -11.46,-7.43 -1.76,0 -3.19,-10.84 -3.2,-12.6 V 30.91 a 17.37,17.37 0 0 1 0.29,-3.23 10.45,10.45 0 0 1 10.24,-8.53 h 16.05"
       class="cls-69"
       inkscape:connector-curvature="0"
       style="fill:#7fa85b" />
    <path
       id="path1114"
       transform="translate(-7.38,-7.29)"
       d="M 83.49,19.21 A 10.63,10.63 0 0 1 94.1,29.82 v 0 53.52 A 10.49,10.49 0 0 1 84.47,93.8 c -0.31,0.1 -3.37,0.15 -3.71,0.15 H 34.12 c -4,0 -11.47,-3.28 -11.47,-7.32 -1.81,0 -3.28,-10.74 -3.29,-12.55 V 31 a 17.65,17.65 0 0 1 0.29,-3.23 10.43,10.43 0 0 1 10.23,-8.54 h 16.55"
       class="cls-70"
       inkscape:connector-curvature="0"
       style="fill:#7fa95b" />
    <path
       id="path1116"
       transform="translate(-7.38,-7.29)"
       d="M 83.44,19.27 A 10.62,10.62 0 0 1 94,29.86 v 0 53.44 a 10.47,10.47 0 0 1 -9.58,10.44 c -0.32,0.1 -3.34,0.16 -3.69,0.16 H 34.28 c -4,0 -11.48,-3.23 -11.48,-7.21 -1.87,0 -3.37,-10.64 -3.39,-12.51 V 31.06 a 17.94,17.94 0 0 1 0.28,-3.23 10.42,10.42 0 0 1 10.22,-8.55 H 47"
       class="cls-71"
       inkscape:connector-curvature="0"
       style="fill:#80a95c" />
    <path
       id="path1118"
       transform="translate(-7.38,-7.29)"
       d="M 83.4,19.33 A 10.6,10.6 0 0 1 94,29.9 v 0 53.35 a 10.46,10.46 0 0 1 -9.54,10.41 c -0.33,0.1 -3.32,0.16 -3.68,0.16 H 34.44 c -3.92,0 -11.49,-3.18 -11.49,-7.1 -1.92,0 -3.47,-10.54 -3.48,-12.46 V 31.13 A 18.25,18.25 0 0 1 19.75,27.89 10.4,10.4 0 0 1 30,19.33 h 17.47"
       class="cls-72"
       inkscape:connector-curvature="0"
       style="fill:#80aa5c" />
    <path
       id="path1120"
       transform="translate(-7.38,-7.29)"
       d="m 83.36,19.38 a 10.58,10.58 0 0 1 10.56,10.56 v 0 53.27 a 10.44,10.44 0 0 1 -9.5,10.39 c -0.34,0.11 -3.3,0.17 -3.67,0.17 H 34.6 c -3.86,0 -11.5,-3.13 -11.5,-7 -2,0 -3.56,-10.45 -3.57,-12.42 V 31.21 A 18.56,18.56 0 0 1 19.81,28 10.38,10.38 0 0 1 30,19.38 h 18"
       class="cls-72"
       inkscape:connector-curvature="0"
       style="fill:#80aa5c" />
    <path
       id="path1122"
       transform="translate(-7.38,-7.29)"
       d="M 83.31,19.44 A 10.57,10.57 0 0 1 93.86,30 v 0 53.16 a 10.42,10.42 0 0 1 -9.45,10.37 c -0.35,0.11 -3.27,0.17 -3.65,0.17 h -46 c -3.8,0 -11.5,-3.08 -11.5,-6.88 -2,0 -3.66,-10.35 -3.67,-12.37 V 31.28 A 18.88,18.88 0 0 1 19.86,28 10.36,10.36 0 0 1 30,19.44 h 18.51"
       class="cls-73"
       inkscape:connector-curvature="0"
       style="fill:#81ab5c" />
    <path
       id="path1124"
       transform="translate(-7.38,-7.29)"
       d="M 83.27,19.5 A 10.55,10.55 0 0 1 93.8,30 v 0 53.12 a 10.4,10.4 0 0 1 -9.41,10.35 c -0.35,0.11 -3.25,0.17 -3.64,0.18 H 34.93 c -3.74,0 -11.51,-3 -11.51,-6.76 -2.07,0 -3.75,-10.25 -3.76,-12.32 V 31.36 A 19.21,19.21 0 0 1 19.92,28.12 10.35,10.35 0 0 1 30.09,19.5 H 49"
       class="cls-74"
       inkscape:connector-curvature="0"
       style="fill:#81ab5d" />
    <path
       id="path1126"
       transform="translate(-7.38,-7.29)"
       d="m 83.23,19.56 a 10.53,10.53 0 0 1 10.51,10.51 v 0 53 A 10.38,10.38 0 0 1 84.38,93.4 c -0.36,0.11 -3.23,0.18 -3.63,0.18 H 35.09 c -3.67,0 -11.52,-3 -11.52,-6.65 -2.12,0 -3.84,-10.15 -3.86,-12.28 V 31.43 A 19.55,19.55 0 0 1 20,28.19 10.33,10.33 0 0 1 30.16,19.56 h 19.4"
       class="cls-75"
       inkscape:connector-curvature="0"
       style="fill:#81ac5d" />
    <path
       id="path1128"
       transform="translate(-7.38,-7.29)"
       d="m 83.18,19.62 a 10.52,10.52 0 0 1 10.5,10.49 v 0 V 83 a 10.36,10.36 0 0 1 -9.32,10.31 c -0.37,0.12 -3.2,0.18 -3.61,0.18 h -45.5 c -3.61,0 -11.53,-2.93 -11.53,-6.54 -2.18,0 -3.94,-10.05 -4,-12.23 V 31.51 A 19.91,19.91 0 0 1 20,28.26 10.31,10.31 0 0 1 30.15,19.62 h 19.91"
       class="cls-76"
       inkscape:connector-curvature="0"
       style="fill:#82ac5d" />
    <path
       id="path1130"
       transform="translate(-7.38,-7.29)"
       d="m 83.14,19.68 a 10.5,10.5 0 0 1 10.48,10.47 v 0 V 83 a 10.35,10.35 0 0 1 -9.27,10.29 c -0.38,0.12 -3.18,0.19 -3.6,0.19 H 35.41 c -3.55,0 -11.53,-2.88 -11.53,-6.43 -2.23,0 -4,-10 -4,-12.18 V 31.58 a 20.27,20.27 0 0 1 0.25,-3.25 10.3,10.3 0 0 1 10.14,-8.66 h 20.31"
       class="cls-77"
       inkscape:connector-curvature="0"
       style="fill:#82ad5d" />
    <path
       id="path1132"
       transform="translate(-7.38,-7.29)"
       d="m 83.1,19.74 a 10.49,10.49 0 0 1 10.46,10.45 v 0 52.75 A 10.33,10.33 0 0 1 84.33,93.2 35.1,35.1 0 0 1 80.74,93.39 H 35.58 C 32.08,93.4 24,90.57 24,87.08 c -2.28,0 -4.12,-9.86 -4.14,-12.14 V 31.66 a 20.65,20.65 0 0 1 0.25,-3.25 10.28,10.28 0 0 1 10.13,-8.67 H 51.1"
       class="cls-78"
       inkscape:connector-curvature="0"
       style="fill:#83ad5e" />
    <path
       id="path1134"
       transform="translate(-7.38,-7.29)"
       d="M 83.05,19.79 A 10.47,10.47 0 0 1 93.5,30.24 v 0 52.65 a 10.31,10.31 0 0 1 -9.18,10.24 34.06,34.06 0 0 1 -3.57,0.2 h -45 C 32.32,93.33 24.2,90.55 24.2,87.12 21.86,87.11 20,77.37 20,75 V 31.73 a 21,21 0 0 1 0.24,-3.25 10.26,10.26 0 0 1 10.12,-8.69 h 21.3"
       class="cls-79"
       inkscape:connector-curvature="0"
       style="fill:#83ae5e" />
    <path
       id="path1136"
       transform="translate(-7.38,-7.29)"
       d="m 83,19.85 a 10.45,10.45 0 0 1 10.44,10.43 v 0 52.57 a 10.29,10.29 0 0 1 -9.14,10.22 33.07,33.07 0 0 1 -3.56,0.2 H 35.9 c -3.37,0 -11.56,-2.73 -11.56,-6.1 -2.38,0 -4.31,-9.66 -4.33,-12 V 31.81 a 21.46,21.46 0 0 1 0.24,-3.25 10.25,10.25 0 0 1 10.11,-8.7 h 21.77"
       class="cls-79"
       inkscape:connector-curvature="0"
       style="fill:#83ae5e" />
    <path
       id="path1138"
       transform="translate(-7.38,-7.29)"
       d="m 83,19.91 a 10.44,10.44 0 0 1 10.38,10.41 v 0 52.48 A 10.28,10.28 0 0 1 84.29,93 32.11,32.11 0 0 1 80.74,93.21 H 36.06 c -3.31,0 -11.57,-2.68 -11.57,-6 -2.44,0 -4.41,-9.56 -4.42,-12 V 31.88 a 21.88,21.88 0 0 1 0.23,-3.26 10.23,10.23 0 0 1 10.1,-8.71 h 22.25"
       class="cls-80"
       inkscape:connector-curvature="0"
       style="fill:#84af5f" />
    <path
       id="path1140"
       transform="translate(-7.38,-7.29)"
       d="m 82.92,20 a 10.42,10.42 0 0 1 10.4,10.36 v 0 52.4 a 10.26,10.26 0 0 1 -9,10.18 31.2,31.2 0 0 1 -3.53,0.21 H 36.22 c -3.25,0 -11.57,-2.63 -11.57,-5.88 -2.49,0 -4.5,-9.47 -4.51,-12 V 32 A 22.32,22.32 0 0 1 20.37,28.74 10.21,10.21 0 0 1 30.45,20 h 22.72"
       class="cls-80"
       inkscape:connector-curvature="0"
       style="fill:#84af5f" />
    <path
       id="path1142"
       transform="translate(-7.38,-7.29)"
       d="m 82.88,20 a 10.4,10.4 0 0 1 10.38,10.4 v 0 52.31 a 10.24,10.24 0 0 1 -9,10.16 30.33,30.33 0 0 1 -3.52,0.22 H 36.39 c -3.18,0 -11.58,-2.58 -11.58,-5.77 -2.54,0 -4.59,-9.37 -4.61,-11.91 V 32 A 22.78,22.78 0 0 1 20.42,28.74 10.2,10.2 0 0 1 30.5,20 h 23.19"
       class="cls-81"
       inkscape:connector-curvature="0"
       style="fill:#84b05f" />
    <path
       id="path1144"
       transform="translate(-7.38,-7.29)"
       d="M 82.84,20.09 A 10.39,10.39 0 0 1 93.2,30.44 v 0 52.23 a 10.22,10.22 0 0 1 -9,10.14 29.5,29.5 0 0 1 -3.51,0.22 H 36.55 C 33.42,93 25,90.49 25,87.37 22.41,87.37 20.31,78.1 20.3,75.51 V 32.1 a 23.25,23.25 0 0 1 0.22,-3.26 10.18,10.18 0 0 1 10.07,-8.76 H 54.2"
       class="cls-82"
       inkscape:connector-curvature="0"
       style="fill:#85b05f" />
    <path
       id="path1146"
       transform="translate(-7.38,-7.29)"
       d="m 82.79,20.14 a 10.37,10.37 0 0 1 10.35,10.35 v 0 52.13 a 10.21,10.21 0 0 1 -8.91,10.12 28.7,28.7 0 0 1 -3.5,0.22 h -44 c -3.06,0 -11.6,-2.48 -11.6,-5.54 -2.64,0 -4.78,-9.17 -4.8,-11.81 V 32.18 a 23.75,23.75 0 0 1 0.22,-3.26 10.17,10.17 0 0 1 10.05,-8.77 h 24.12"
       class="cls-83"
       inkscape:connector-curvature="0"
       style="fill:#85b160" />
    <path
       id="path1148"
       transform="translate(-7.38,-7.29)"
       d="m 82.75,20.2 a 10.36,10.36 0 0 1 10.33,10.33 v 0 52 a 10.19,10.19 0 0 1 -8.87,10.1 27.93,27.93 0 0 1 -3.48,0.23 H 36.87 c -3,0 -11.6,-2.43 -11.6,-5.43 -2.69,0 -4.87,-9.07 -4.89,-11.77 V 32.25 a 24.26,24.26 0 0 1 0.21,-3.25 10.15,10.15 0 0 1 10,-8.79 h 24.65"
       class="cls-84"
       inkscape:connector-curvature="0"
       style="fill:#86b160" />
    <path
       id="path1150"
       transform="translate(-7.38,-7.29)"
       d="M 82.71,20.26 A 10.34,10.34 0 0 1 93,30.57 v 0 52 a 10.17,10.17 0 0 1 -8.82,10.07 27.19,27.19 0 0 1 -3.47,0.23 H 37 c -2.94,0 -11.61,-2.38 -11.61,-5.32 -2.75,0 -5,-9 -5,-11.72 v -43.5 a 24.8,24.8 0 0 1 0.21,-3.27 10.13,10.13 0 0 1 10,-8.8 h 25.16"
       class="cls-85"
       inkscape:connector-curvature="0"
       style="fill:#86b260" />
    <path
       id="path1152"
       transform="translate(-7.38,-7.29)"
       d="M 82.66,20.32 A 10.32,10.32 0 0 1 93,30.61 v 0 51.88 a 10.16,10.16 0 0 1 -8.78,10.05 26.48,26.48 0 0 1 -3.46,0.24 H 37.2 c -2.88,0 -11.62,-2.33 -11.62,-5.21 -2.8,0 -5.06,-8.88 -5.08,-11.67 V 32.4 a 25.36,25.36 0 0 1 0.2,-3.27 10.12,10.12 0 0 1 10,-8.82 h 25.58"
       class="cls-85"
       inkscape:connector-curvature="0"
       style="fill:#86b260" />
    <path
       id="path1154"
       transform="translate(-7.38,-7.29)"
       d="m 82.62,20.38 a 10.31,10.31 0 0 1 10.27,10.27 v 0 51.79 a 10.14,10.14 0 0 1 -8.73,10 25.79,25.79 0 0 1 -3.44,0.24 H 37.36 c -2.82,0 -11.63,-2.28 -11.63,-5.1 -2.85,0 -5.16,-8.78 -5.17,-11.63 V 32.48 a 25.94,25.94 0 0 1 0.2,-3.27 10.1,10.1 0 0 1 10,-8.83 h 26"
       class="cls-86"
       inkscape:connector-curvature="0"
       style="fill:#87b361" />
    <path
       id="path1156"
       transform="translate(-7.38,-7.29)"
       d="m 82.58,20.44 a 10.29,10.29 0 0 1 10.25,10.25 v 0 51.71 a 10.12,10.12 0 0 1 -8.69,10 25.13,25.13 0 0 1 -3.43,0.25 H 37.52 c -2.76,0 -11.64,-2.23 -11.64,-5 -2.9,0 -5.25,-8.68 -5.27,-11.58 V 32.55 a 26.55,26.55 0 0 1 0.19,-3.27 10.09,10.09 0 0 1 10,-8.85 h 26.5"
       class="cls-86"
       inkscape:connector-curvature="0"
       style="fill:#87b361" />
    <path
       id="path1158"
       transform="translate(-7.38,-7.29)"
       d="m 82.53,20.5 a 10.27,10.27 0 0 1 10.24,10.24 v 0 51.61 a 10.11,10.11 0 0 1 -8.64,10 24.5,24.5 0 0 1 -3.42,0.25 h -43 C 35,92.59 26,90.41 26,87.71 c -3,0 -5.34,-8.58 -5.36,-11.54 V 32.63 a 27.19,27.19 0 0 1 0.19,-3.27 10.07,10.07 0 0 1 10,-8.86 h 27"
       class="cls-87"
       inkscape:connector-curvature="0"
       style="fill:#87b461" />
    <path
       id="path1160"
       transform="translate(-7.38,-7.29)"
       d="m 82.49,20.55 a 10.26,10.26 0 0 1 10.22,10.23 v 0 51.53 a 10.09,10.09 0 0 1 -8.6,10 23.89,23.89 0 0 1 -3.4,0.26 H 37.84 c -2.63,0 -11.65,-2.13 -11.65,-4.77 -3,0 -5.44,-8.48 -5.46,-11.49 V 32.7 a 27.86,27.86 0 0 1 0.19,-3.28 10.06,10.06 0 0 1 10,-8.87 h 27.43"
       class="cls-88"
       inkscape:connector-curvature="0"
       style="fill:#88b462" />
    <path
       id="path1162"
       transform="translate(-7.38,-7.29)"
       d="m 82.45,20.61 a 10.24,10.24 0 0 1 10.2,10.21 v 0 51.44 a 10.08,10.08 0 0 1 -8.55,9.95 23.3,23.3 0 0 1 -3.39,0.26 H 38 c -2.57,0 -11.66,-2.09 -11.66,-4.66 -3.06,0 -5.53,-8.39 -5.55,-11.44 V 32.78 A 28.56,28.56 0 0 1 21,29.5 10,10 0 0 1 31,20.61 h 27.87"
       class="cls-89"
       inkscape:connector-curvature="0"
       style="fill:#88b562" />
    <path
       id="path1164"
       transform="translate(-7.38,-7.29)"
       d="m 82.4,20.67 a 10.23,10.23 0 0 1 10.19,10.19 v 0 51.36 a 10.06,10.06 0 0 1 -8.51,9.93 22.73,22.73 0 0 1 -3.38,0.26 H 38.17 c -2.51,0 -11.67,-2 -11.67,-4.55 -3.11,0 -5.62,-8.29 -5.64,-11.4 V 32.85 A 29.29,29.29 0 0 1 21,29.57 10,10 0 0 1 31,20.67 h 28.4"
       class="cls-90"
       inkscape:connector-curvature="0"
       style="fill:#89b562" />
    <path
       id="path1166"
       transform="translate(-7.38,-7.29)"
       d="M 82.36,20.73 A 10.21,10.21 0 0 1 92.53,30.9 v 0 51.27 a 10,10 0 0 1 -8.46,9.9 22.18,22.18 0 0 1 -3.36,0.27 H 38.33 c -2.45,0 -11.67,-2 -11.67,-4.44 -3.16,0 -5.72,-8.19 -5.74,-11.35 V 32.93 A 30.06,30.06 0 0 1 21.09,29.65 10,10 0 0 1 31,20.73 h 28.9"
       class="cls-91"
       inkscape:connector-curvature="0"
       style="fill:#89b662" />
    <path
       id="path1168"
       transform="translate(-7.38,-7.29)"
       d="m 82.32,20.79 a 10.19,10.19 0 0 1 10.15,10.15 v 0 51.19 A 10,10 0 0 1 84.05,92 21.64,21.64 0 0 1 80.7,92.27 H 38.49 c -2.39,0 -11.68,-1.94 -11.68,-4.32 -3.21,0 -5.81,-8.09 -5.83,-11.3 V 33 a 30.87,30.87 0 0 1 0.17,-3.28 10,10 0 0 1 9.93,-8.93 h 29.34"
       class="cls-92"
       inkscape:connector-curvature="0"
       style="fill:#89b663" />
    <path
       id="path1170"
       transform="translate(-7.38,-7.29)"
       d="M 82.27,20.85 A 10.18,10.18 0 0 1 92.41,31 v 0 51.1 A 10,10 0 0 1 84,91.94 21.13,21.13 0 0 1 80.66,92.22 h -42 C 36.33,92.22 27,90.33 27,88 23.7,88 21.06,80 21,76.75 V 33.08 a 31.72,31.72 0 0 1 0.16,-3.28 10,10 0 0 1 9.92,-8.95 h 29.86"
       class="cls-93"
       inkscape:connector-curvature="0"
       style="fill:#8ab763" />
    <path
       id="path1172"
       transform="translate(-7.38,-7.29)"
       d="M 82.23,20.91 A 10.16,10.16 0 0 1 92.35,31 v 0 51 A 10,10 0 0 1 84,91.88 20.63,20.63 0 0 1 80.68,92.16 H 38.82 c -2.27,0 -11.7,-1.84 -11.7,-4.1 -3.32,0 -6,-7.9 -6,-11.21 v -43.7 a 32.62,32.62 0 0 1 0.16,-3.29 10,10 0 0 1 9.91,-9 h 30.27"
       class="cls-93"
       inkscape:connector-curvature="0"
       style="fill:#8ab763" />
    <path
       id="path1174"
       transform="translate(-7.38,-7.29)"
       d="m 82.19,21 a 10.14,10.14 0 0 1 10.1,10.07 v 0 V 82 A 10,10 0 0 1 84,91.81 20.15,20.15 0 0 1 80.69,92.1 H 39 c -2.2,0 -11.71,-1.79 -11.71,-4 -3.37,0 -6.09,-7.8 -6.11,-11.17 v -43.7 c 0,-0.39 0.05,-2.93 0.16,-3.29 a 10,10 0 0 1 9.9,-9 H 62"
       class="cls-94"
       inkscape:connector-curvature="0"
       style="fill:#8ab863" />
    <path
       id="path1176"
       transform="translate(-7.38,-7.29)"
       d="m 82.14,21 a 10.13,10.13 0 0 1 10.09,10.11 v 0 50.84 A 10,10 0 0 1 84,91.75 19.69,19.69 0 0 1 80.7,92.04 H 39.14 C 37,92 27.43,90.3 27.43,88.15 c -3.42,0 -6.19,-7.7 -6.21,-11.12 V 33.3 c 0,-0.38 0.05,-2.94 0.15,-3.29 a 9.94,9.94 0 0 1 9.89,-9 h 31.23"
       class="cls-95"
       inkscape:connector-curvature="0"
       style="fill:#8bb864" />
    <path
       id="path1178"
       transform="translate(-7.38,-7.29)"
       d="m 82.1,21.08 a 10.11,10.11 0 0 1 10.07,10.07 v 0 50.75 A 10,10 0 0 1 84,91.68 19.24,19.24 0 0 1 80.72,91.98 H 39.3 c -2.08,0 -11.72,-1.69 -11.72,-3.77 -3.47,0 -6.28,-7.6 -6.3,-11.07 V 33.38 c 0,-0.37 0,-3 0.15,-3.29 a 9.93,9.93 0 0 1 9.88,-9 H 63"
       class="cls-96"
       inkscape:connector-curvature="0"
       style="fill:#8bb964" />
    <path
       id="path1180"
       transform="translate(-7.38,-7.29)"
       d="m 82.06,21.14 a 10.1,10.1 0 0 1 10.05,10.05 v 0 50.67 A 9.94,9.94 0 0 1 84,91.61 18.8,18.8 0 0 1 80.73,91.91 H 39.46 c -2,0 -11.73,-1.64 -11.73,-3.66 -3.52,0 -6.37,-7.5 -6.4,-11 v -43.8 c 0,-0.36 0,-3 0.14,-3.29 a 9.91,9.91 0 0 1 9.87,-9 h 32.19"
       class="cls-97"
       inkscape:connector-curvature="0"
       style="fill:#8cb964" />
    <path
       id="path1182"
       transform="translate(-7.38,-7.29)"
       d="m 82,21.2 a 10.08,10.08 0 0 1 10,10 v 0 50.61 a 9.92,9.92 0 0 1 -8.1,9.73 18.38,18.38 0 0 1 -3.26,0.3 H 39.63 c -2,0 -11.74,-1.59 -11.74,-3.55 -3.58,0 -6.47,-7.41 -6.49,-11 V 33.53 c 0,-0.35 0,-3 0.14,-3.3 a 9.9,9.9 0 0 1 9.85,-9 H 64"
       class="cls-98"
       inkscape:connector-curvature="0"
       style="fill:#8cba64" />
    <path
       id="path1184"
       transform="translate(-7.38,-7.29)"
       d="m 82,21.26 a 10.06,10.06 0 0 1 10,10 v 0 50.51 a 9.91,9.91 0 0 1 -8.06,9.71 18,18 0 0 1 -3.24,0.31 H 39.79 c -1.9,0 -11.74,-1.54 -11.74,-3.44 -3.63,0 -6.56,-7.31 -6.58,-10.93 V 33.6 c 0,-0.34 0,-3 0.13,-3.3 a 9.88,9.88 0 0 1 9.84,-9 h 33.13"
       class="cls-99"
       inkscape:connector-curvature="0"
       style="fill:#8cba65" />
    <path
       id="path1186"
       transform="translate(-7.38,-7.29)"
       d="m 81.93,21.31 a 10,10 0 0 1 10,10 v 0 50.4 a 9.89,9.89 0 0 1 -8,9.69 17.57,17.57 0 0 1 -3.23,0.31 H 40 c -1.84,0 -11.75,-1.49 -11.75,-3.33 -3.68,0 -6.66,-7.21 -6.68,-10.89 V 33.68 c 0,-0.33 0,-3 0.13,-3.3 a 9.87,9.87 0 0 1 9.83,-9.06 h 33.6"
       class="cls-100"
       inkscape:connector-curvature="0"
       style="fill:#8dbb65" />
    <path
       id="path1188"
       transform="translate(-7.38,-7.29)"
       d="m 81.88,21.37 a 10,10 0 0 1 10,10 v 0 50.31 a 9.88,9.88 0 0 1 -8,9.67 17.18,17.18 0 0 1 -3.22,0.32 H 40.11 c -1.78,0 -11.76,-1.44 -11.76,-3.22 -3.73,0 -6.75,-7.11 -6.77,-10.84 V 33.75 c 0,-0.32 0,-3 0.13,-3.3 a 9.86,9.86 0 0 1 9.82,-9.08 H 65.6"
       class="cls-100"
       inkscape:connector-curvature="0"
       style="fill:#8dbb65" />
    <path
       id="path1190"
       transform="translate(-7.38,-7.29)"
       d="m 81.84,21.43 a 10,10 0 0 1 10,10 v 0 50.2 a 9.87,9.87 0 0 1 -7.93,9.65 16.81,16.81 0 0 1 -3.2,0.32 H 40.27 c -1.71,0 -11.77,-1.39 -11.77,-3.1 -3.78,0 -6.84,-7 -6.87,-10.8 V 33.83 c 0,-0.3 0,-3 0.12,-3.3 a 9.84,9.84 0 0 1 9.81,-9.09 h 34.56"
       class="cls-101"
       inkscape:connector-curvature="0"
       style="fill:#8dbc66" />
    <path
       id="path1192"
       transform="translate(-7.38,-7.29)"
       d="m 81.8,21.49 a 10,10 0 0 1 10,10 v 0 50.1 a 9.85,9.85 0 0 1 -7.88,9.63 16.45,16.45 0 0 1 -3.19,0.33 H 40.44 c -1.65,0 -11.78,-1.34 -11.78,-3 -3.83,0 -6.94,-6.92 -7,-10.75 V 33.9 c 0,-0.29 0,-3 0.12,-3.3 a 9.83,9.83 0 0 1 9.8,-9.11 h 35"
       class="cls-102"
       inkscape:connector-curvature="0"
       style="fill:#8ebc66" />
    <path
       id="path1194"
       transform="translate(-7.38,-7.29)"
       d="m 81.75,21.55 a 10,10 0 0 1 9.94,9.94 v 0 50.05 a 9.84,9.84 0 0 1 -7.84,9.61 16.09,16.09 0 0 1 -3.18,0.33 H 40.6 c -1.59,0 -11.78,-1.29 -11.78,-2.88 -3.89,0 -7,-6.82 -7.05,-10.7 V 34 c 0,-0.28 0,-3 0.11,-3.31 a 9.82,9.82 0 0 1 9.79,-9.12 h 35.5"
       class="cls-103"
       inkscape:connector-curvature="0"
       style="fill:#8ebd66" />
    <path
       id="path1196"
       transform="translate(-7.38,-7.29)"
       d="m 81.71,21.61 a 10,10 0 0 1 9.92,9.92 v 0 50 a 9.83,9.83 0 0 1 -7.79,9.59 15.75,15.75 0 0 1 -3.16,0.33 H 40.76 C 39.23,91.42 29,90.18 29,88.64 c -3.94,0 -7.12,-6.72 -7.15,-10.66 V 34.05 c 0,-0.27 0,-3.06 0.11,-3.31 a 9.8,9.8 0 0 1 9.78,-9.14 h 36"
       class="cls-104"
       inkscape:connector-curvature="0"
       style="fill:#8fbd66" />
    <path
       id="path1198"
       transform="translate(-7.38,-7.29)"
       d="m 81.67,21.67 a 10,10 0 0 1 9.9,9.9 v 0 49.88 A 9.81,9.81 0 0 1 83.82,91 15.42,15.42 0 0 1 80.67,91.34 H 40.92 c -1.47,0 -11.8,-1.19 -11.8,-2.66 -4,0 -7.22,-6.62 -7.24,-10.61 v -44 c 0,-0.26 0,-3.07 0.1,-3.31 a 9.79,9.79 0 0 1 9.77,-9.15 h 36.44"
       class="cls-105"
       inkscape:connector-curvature="0"
       style="fill:#8fbe67" />
    <path
       id="path1200"
       transform="translate(-7.38,-7.29)"
       d="m 81.62,21.72 a 9.93,9.93 0 0 1 9.89,9.89 v 0 49.8 a 9.8,9.8 0 0 1 -7.7,9.54 15.09,15.09 0 0 1 -3.14,0.34 H 41.08 c -1.41,0 -11.81,-1.14 -11.81,-2.55 -4,0 -7.31,-6.52 -7.34,-10.56 v -44 c 0,-0.25 0,-3.08 0.1,-3.31 a 9.78,9.78 0 0 1 9.75,-9.17 h 36.93"
       class="cls-105"
       inkscape:connector-curvature="0"
       style="fill:#8fbe67" />
    <path
       id="path1202"
       transform="translate(-7.38,-7.29)"
       d="m 81.58,21.78 a 9.92,9.92 0 0 1 9.87,9.87 v 0 49.71 a 9.79,9.79 0 0 1 -7.66,9.52 14.78,14.78 0 0 1 -3.12,0.35 H 41.25 c -1.35,0 -11.81,-1.09 -11.81,-2.44 -4.09,0 -7.41,-6.42 -7.43,-10.52 v -44 c 0,-0.24 0,-3.09 0.1,-3.31 a 9.76,9.76 0 0 1 9.74,-9.18 h 37.38"
       class="cls-106"
       inkscape:connector-curvature="0"
       style="fill:#90bf67" />
    <path
       id="path1204"
       transform="translate(-7.38,-7.29)"
       d="m 81.54,21.84 a 9.9,9.9 0 0 1 9.85,9.85 v 0 49.63 a 9.77,9.77 0 0 1 -7.61,9.5 14.47,14.47 0 0 1 -3.11,0.35 H 41.41 c -1.29,0 -11.82,-1 -11.82,-2.33 -4.15,0 -7.5,-6.33 -7.52,-10.47 v -44 c 0,-0.23 0,-3.11 0.09,-3.32 a 9.75,9.75 0 0 1 9.73,-9.19 h 37.86"
       class="cls-106"
       inkscape:connector-curvature="0"
       style="fill:#90bf67" />
    <path
       id="path1206"
       transform="translate(-7.38,-7.29)"
       d="m 81.49,21.9 a 9.88,9.88 0 0 1 9.84,9.84 v 0 49.53 a 9.76,9.76 0 0 1 -7.57,9.48 14.17,14.17 0 0 1 -3.1,0.36 H 41.57 c -1.22,0 -11.83,-1 -11.83,-2.22 -4.2,0 -7.59,-6.23 -7.62,-10.43 v -44 c 0,-0.22 0,-3.12 0.09,-3.32 a 9.74,9.74 0 0 1 9.72,-9.21 h 38.33"
       class="cls-107"
       inkscape:connector-curvature="0"
       style="fill:#90c068" />
    <path
       id="path1208"
       transform="translate(-7.38,-7.29)"
       d="m 81.45,22 a 9.87,9.87 0 0 1 9.82,9.82 v 0 49.41 a 9.75,9.75 0 0 1 -7.52,9.46 13.88,13.88 0 0 1 -3.08,0.36 H 41.73 c -1.16,0 -11.84,-0.94 -11.84,-2.11 -4.25,0 -7.69,-6.13 -7.71,-10.38 V 34.5 c 0,-0.21 0,-3.13 0.08,-3.32 A 9.72,9.72 0 0 1 32,22 h 38.78"
       class="cls-108"
       inkscape:connector-curvature="0"
       style="fill:#91c068" />
    <path
       id="path1210"
       transform="translate(-7.38,-7.29)"
       d="m 81.41,22 a 9.85,9.85 0 0 1 9.8,9.8 v 0 49.38 a 9.74,9.74 0 0 1 -7.48,9.44 13.6,13.6 0 0 1 -3.07,0.37 H 41.89 C 40.79,91 30,90.09 30,89 25.7,89 22.22,83 22.19,78.67 V 34.58 c 0,-0.2 0,-3.14 0.08,-3.32 A 9.71,9.71 0 0 1 32,22 h 39.3"
       class="cls-109"
       inkscape:connector-curvature="0"
       style="fill:#91c168" />
    <path
       id="path1212"
       transform="translate(-7.38,-7.29)"
       d="m 81.36,22.08 a 9.84,9.84 0 0 1 9.79,9.79 v 0 49.27 a 9.73,9.73 0 0 1 -7.43,9.42 13.32,13.32 0 0 1 -3.06,0.37 h -38.6 c -1,0 -11.85,-0.84 -11.85,-1.89 -4.35,0 -7.87,-5.93 -7.9,-10.29 v -44.1 c 0,-0.19 0,-3.15 0.07,-3.32 a 9.7,9.7 0 0 1 9.69,-9.25 h 39.75"
       class="cls-110"
       inkscape:connector-curvature="0"
       style="fill:#92c168" />
    <path
       id="path1214"
       transform="translate(-7.38,-7.29)"
       d="m 81.32,22.13 a 9.82,9.82 0 0 1 9.77,9.77 v 0 49.19 a 9.72,9.72 0 0 1 -7.39,9.39 13.05,13.05 0 0 1 -3,0.37 H 42.22 c -1,0 -11.86,-0.79 -11.86,-1.77 -4.4,0 -8,-5.84 -8,-10.24 V 34.73 c 0,-0.17 0,-3.17 0.07,-3.32 a 9.69,9.69 0 0 1 9.68,-9.27 h 40.23"
       class="cls-111"
       inkscape:connector-curvature="0"
       style="fill:#92c269" />
    <path
       id="path1216"
       transform="translate(-7.38,-7.29)"
       d="M 81.28,22.19 A 9.8,9.8 0 0 1 91,31.94 v 0 V 81 a 9.7,9.7 0 0 1 -7.34,9.37 12.79,12.79 0 0 1 -3,0.38 H 42.38 c -0.92,0 -11.87,-0.74 -11.87,-1.66 -4.46,0 -8.06,-5.74 -8.09,-10.19 V 34.8 c 0,-0.16 0,-3.18 0.06,-3.33 a 9.67,9.67 0 0 1 9.67,-9.28 h 40.7"
       class="cls-111"
       inkscape:connector-curvature="0"
       style="fill:#92c269" />
    <path
       id="path1218"
       transform="translate(-7.38,-7.29)"
       d="M 81.23,22.25 A 9.79,9.79 0 0 1 91,32 v 0 49 a 9.69,9.69 0 0 1 -7.3,9.35 12.54,12.54 0 0 1 -3,0.38 H 42.54 c -0.86,0 -11.88,-0.7 -11.88,-1.55 -4.51,0 -8.15,-5.64 -8.18,-10.15 V 34.88 c 0,-0.15 0,-3.19 0.06,-3.33 a 9.66,9.66 0 0 1 9.66,-9.3 h 41.17"
       class="cls-112"
       inkscape:connector-curvature="0"
       style="fill:#93c369" />
    <path
       id="path1220"
       transform="translate(-7.38,-7.29)"
       d="M 81.19,22.31 A 9.77,9.77 0 0 1 90.91,32 v 0 49 a 9.68,9.68 0 0 1 -7.25,9.33 12.29,12.29 0 0 1 -3,0.39 H 42.7 c -0.8,0 -11.88,-0.65 -11.88,-1.44 -4.56,0 -8.25,-5.54 -8.28,-10.1 V 35 c 0,-0.14 0,-3.2 0.06,-3.33 a 9.65,9.65 0 0 1 9.64,-9.31 h 41.65"
       class="cls-113"
       inkscape:connector-curvature="0"
       style="fill:#93c36a" />
    <path
       id="path1222"
       transform="translate(-7.38,-7.29)"
       d="m 81.15,22.37 a 9.75,9.75 0 0 1 9.7,9.7 v 0 48.84 a 9.67,9.67 0 0 1 -7.21,9.31 12,12 0 0 1 -3,0.39 H 42.87 C 42.13,90.61 31,90 31,89.28 c -4.61,0 -8.34,-5.44 -8.37,-10.06 V 35 c 0,-0.13 0,-3.21 0.05,-3.33 a 9.64,9.64 0 0 1 9.63,-9.33 h 42.1"
       class="cls-114"
       inkscape:connector-curvature="0"
       style="fill:#93c46a" />
    <path
       id="path1224"
       transform="translate(-7.38,-7.29)"
       d="m 81.1,22.43 a 9.74,9.74 0 0 1 9.69,9.69 v 0 48.75 a 9.66,9.66 0 0 1 -7.16,9.29 11.81,11.81 0 0 1 -3,0.4 H 43 c -0.67,0 -11.9,-0.55 -11.9,-1.22 -4.66,0 -8.44,-5.35 -8.47,-10 V 35.1 c 0,-0.12 0,-3.22 0,-3.33 a 9.63,9.63 0 0 1 9.62,-9.34 h 42.68"
       class="cls-115"
       inkscape:connector-curvature="0"
       style="fill:#94c46a" />
    <path
       id="path1226"
       transform="translate(-7.38,-7.29)"
       d="m 81.06,22.48 a 9.72,9.72 0 0 1 9.67,9.67 v 0 48.67 a 9.65,9.65 0 0 1 -7.12,9.27 11.58,11.58 0 0 1 -3,0.4 H 43.19 c -0.61,0 -11.91,-0.5 -11.91,-1.11 -4.71,0 -8.53,-5.25 -8.56,-10 V 35.17 c 0,-0.11 0,-3.24 0,-3.34 a 9.61,9.61 0 0 1 9.61,-9.35 h 43.12"
       class="cls-116"
       inkscape:connector-curvature="0"
       style="fill:#94c56a" />
    <path
       id="path1228"
       transform="translate(-7.38,-7.29)"
       d="m 81,22.54 a 9.71,9.71 0 0 1 9.65,9.65 v 0 48.59 a 9.64,9.64 0 0 1 -7.06,9.22 11.36,11.36 0 0 1 -3,0.41 H 43.35 c -0.55,0 -11.92,-0.45 -11.92,-1 -4.77,0 -8.62,-5.15 -8.65,-9.92 V 35.25 c 0,-0.1 0,-3.25 0,-3.34 a 9.6,9.6 0 0 1 9.6,-9.37 H 76"
       class="cls-117"
       inkscape:connector-curvature="0"
       style="fill:#95c56b" />
    <path
       id="path1230"
       transform="translate(-7.38,-7.29)"
       d="m 81,22.6 a 9.69,9.69 0 0 1 9.63,9.63 v 0 48.5 a 9.63,9.63 0 0 1 -7,9.23 11.14,11.14 0 0 1 -2.94,0.41 H 43.52 c -0.49,0 -11.92,-0.4 -11.92,-0.89 -4.82,0 -8.72,-5.05 -8.75,-9.87 V 35.32 c 0,-0.09 0,-3.26 0,-3.34 a 9.59,9.59 0 0 1 9.59,-9.38 h 44"
       class="cls-118"
       inkscape:connector-curvature="0"
       style="fill:#95c66b" />
    <path
       id="path1232"
       transform="translate(-7.38,-7.29)"
       d="m 80.93,22.66 a 9.67,9.67 0 0 1 9.62,9.62 v 0 48.4 a 9.62,9.62 0 0 1 -7,9.2 10.92,10.92 0 0 1 -2.92,0.41 h -37 c -0.43,0 -11.93,-0.35 -11.93,-0.78 -4.87,0 -8.81,-5 -8.84,-9.82 V 35.4 c 0,-0.08 0,-3.27 0,-3.34 a 9.58,9.58 0 0 1 9.58,-9.4 H 77"
       class="cls-118"
       inkscape:connector-curvature="0"
       style="fill:#95c66b" />
    <path
       id="path1234"
       transform="translate(-7.38,-7.29)"
       d="m 80.89,22.72 a 9.66,9.66 0 0 1 9.6,9.6 v 0 48.32 a 9.61,9.61 0 0 1 -6.94,9.18 10.71,10.71 0 0 1 -2.91,0.42 H 43.84 C 43.47,90.24 31.9,89.94 31.9,89.57 27,89.54 23,84.72 23,79.8 V 35.47 c 0,-0.07 0,-3.28 0,-3.34 a 9.57,9.57 0 0 1 9.57,-9.41 h 45"
       class="cls-119"
       inkscape:connector-curvature="0"
       style="fill:#96c76b" />
    <path
       id="path1236"
       transform="translate(-7.38,-7.29)"
       d="m 80.84,22.78 a 9.64,9.64 0 0 1 9.58,9.58 v 0 48.23 a 9.6,9.6 0 0 1 -6.89,9.16 10.51,10.51 0 0 1 -2.9,0.42 H 44 c -0.31,0 -11.95,-0.25 -11.95,-0.55 -5,0 -9,-4.76 -9,-9.73 V 35.55 c 0,-0.05 0,-3.3 0,-3.34 a 9.56,9.56 0 0 1 9.56,-9.43 H 78"
       class="cls-120"
       inkscape:connector-curvature="0"
       style="fill:#96c76c" />
    <path
       id="path1238"
       transform="translate(-7.38,-7.29)"
       d="m 80.8,22.84 a 9.62,9.62 0 0 1 9.57,9.57 v 0 48.14 a 9.6,9.6 0 0 1 -6.85,9.14 10.31,10.31 0 0 1 -2.88,0.43 H 44.16 c -0.24,0 -12,-0.2 -12,-0.44 -5,0 -9.09,-4.66 -9.12,-9.69 V 35.62 c 0,0 0,-3.31 0,-3.35 a 9.54,9.54 0 0 1 9.54,-9.44 h 45.97"
       class="cls-121"
       inkscape:connector-curvature="0"
       style="fill:#96c86c" />
    <path
       id="path1240"
       transform="translate(-7.38,-7.29)"
       d="m 80.76,22.89 a 9.61,9.61 0 0 1 9.55,9.55 v 0 48.06 a 9.59,9.59 0 0 1 -6.8,9.12 10.11,10.11 0 0 1 -2.87,0.43 H 44.33 c -0.18,0 -12,-0.15 -12,-0.33 -5.08,0 -9.19,-4.56 -9.22,-9.64 V 35.7 c 0,0 0,-3.32 0,-3.35 a 9.53,9.53 0 0 1 9.53,-9.46 h 46.43"
       class="cls-122"
       inkscape:connector-curvature="0"
       style="fill:#97c86c" />
    <path
       id="path1242"
       transform="translate(-7.38,-7.29)"
       d="m 80.71,23 a 9.59,9.59 0 0 1 9.53,9.53 v 0 48 a 9.58,9.58 0 0 1 -6.76,9.1 9.92,9.92 0 0 1 -2.86,0.44 H 44.49 c -0.12,0 -12,-0.1 -12,-0.22 A 9.62,9.62 0 0 1 23.18,80.26 V 35.77 c 0,0 0,-3.33 0,-3.35 A 9.52,9.52 0 0 1 32.74,23 h 46.85"
       class="cls-123"
       inkscape:connector-curvature="0"
       style="fill:#97c96c" />
    <path
       id="path1244"
       transform="translate(-7.38,-7.29)"
       d="m 80.67,23 a 9.58,9.58 0 0 1 9.52,9.52 v 0 47.89 a 9.57,9.57 0 0 1 -6.71,9.08 9.74,9.74 0 0 1 -2.84,0.44 h -36 c -0.06,0 -12,0 -12,-0.11 A 9.59,9.59 0 0 1 23.23,80.27 V 35.85 c 0,0 0,-3.34 0,-3.35 A 9.51,9.51 0 0 1 32.78,23 h 47.33"
       class="cls-124"
       inkscape:connector-curvature="0"
       style="fill:#98c96d" />
    <path
       id="path1246"
       transform="translate(-7.38,-7.29)"
       d="m 32.83,23.07 h 47.8 a 9.56,9.56 0 0 1 9.5,9.5 v 47.8 a 9.56,9.56 0 0 1 -9.5,9.5 h -47.8 a 9.56,9.56 0 0 1 -9.5,-9.5 v -47.8 a 9.5,9.5 0 0 1 9.5,-9.5 z"
       class="cls-125"
       inkscape:connector-curvature="0"
       style="fill:#98ca6d" />
  </g>
</svg>
