<?xml version="1.0" encoding="UTF-8" standalone="no"?>
<svg
   xmlns:dc="http://purl.org/dc/elements/1.1/"
   xmlns:cc="http://creativecommons.org/ns#"
   xmlns:rdf="http://www.w3.org/1999/02/22-rdf-syntax-ns#"
   xmlns:svg="http://www.w3.org/2000/svg"
   xmlns="http://www.w3.org/2000/svg"
   xmlns:sodipodi="http://sodipodi.sourceforge.net/DTD/sodipodi-0.dtd"
   xmlns:inkscape="http://www.inkscape.org/namespaces/inkscape"
   id="Слой_1"
   data-name="Слой 1"
   viewBox="0 0 98.7 98.7"
   version="1.1"
   sodipodi:docname="color5.svg"
   inkscape:version="0.92.1 r15371">
  <metadata
     id="metadata2085">
    <rdf:RDF>
      <cc:Work
         rdf:about="">
        <dc:format>image/svg+xml</dc:format>
        <dc:type
           rdf:resource="http://purl.org/dc/dcmitype/StillImage" />
      </cc:Work>
    </rdf:RDF>
  </metadata>
  <sodipodi:namedview
     pagecolor="#ffffff"
     bordercolor="#666666"
     borderopacity="1"
     objecttolerance="10"
     gridtolerance="10"
     guidetolerance="10"
     inkscape:pageopacity="0"
     inkscape:pageshadow="2"
     inkscape:window-width="1920"
     inkscape:window-height="1031"
     id="namedview2083"
     showgrid="false"
     inkscape:zoom="2.3910842"
     inkscape:cx="-3.7639829"
     inkscape:cy="49.349998"
     inkscape:window-x="0"
     inkscape:window-y="0"
     inkscape:window-maximized="1"
     inkscape:current-layer="Слой_1" />
  <defs
     id="defs1672">
    <style
       id="style1670">.cls-1{fill:#2b3356;}.cls-2{fill:#2b3457;}.cls-3{fill:#2c3457;}.cls-4{fill:#2c3458;}.cls-5{fill:#2c3558;}.cls-6{fill:#2c3559;}.cls-7{fill:#2d3559;}.cls-8{fill:#2d355a;}.cls-9{fill:#2d365a;}.cls-10{fill:#2d365b;}.cls-11{fill:#2e365b;}.cls-12{fill:#2e375c;}.cls-13{fill:#2e375d;}.cls-14{fill:#2f375d;}.cls-15{fill:#2f385d;}.cls-16{fill:#2f385e;}.cls-17{fill:#2f385f;}.cls-18{fill:#30395f;}.cls-19{fill:#303960;}.cls-20{fill:#303a61;}.cls-21{fill:#313a61;}.cls-22{fill:#313a62;}.cls-23{fill:#313b62;}.cls-24{fill:#313b63;}.cls-25{fill:#323b63;}.cls-26{fill:#323b64;}.cls-27{fill:#323c64;}.cls-28{fill:#323c65;}.cls-29{fill:#333d65;}.cls-30{fill:#333d66;}.cls-31{fill:#333d67;}.cls-32{fill:#343e67;}.cls-33{fill:#343e68;}.cls-34{fill:#343f69;}.cls-35{fill:#353f69;}.cls-36{fill:#353f6a;}.cls-37{fill:#35406a;}.cls-38{fill:#35406b;}.cls-39{fill:#36406b;}.cls-40{fill:#36406c;}.cls-41{fill:#36416c;}.cls-42{fill:#36416d;}.cls-43{fill:#37416d;}.cls-44{fill:#37426e;}.cls-45{fill:#37426f;}.cls-46{fill:#38436f;}.cls-47{fill:#384370;}.cls-48{fill:#384371;}.cls-49{fill:#394471;}.cls-50{fill:#394472;}.cls-51{fill:#394572;}.cls-52{fill:#394573;}.cls-53{fill:#3a4573;}.cls-54{fill:#3a4574;}.cls-55{fill:#3a4674;}.cls-56{fill:#3a4675;}.cls-57{fill:#3b4675;}.cls-58{fill:#3b4776;}.cls-59{fill:#3b4777;}.cls-60{fill:#3c4877;}.cls-61{fill:#3c4878;}.cls-62{fill:#3c4879;}.cls-63{fill:#3c4979;}.cls-64{fill:#3d4979;}.cls-65{fill:#3d497a;}.cls-66{fill:#3d4a7b;}.cls-67{fill:#3e4a7b;}.cls-68{fill:#3e4a7c;}.cls-69{fill:#3e4b7c;}.cls-70{fill:#3e4b7d;}.cls-71{fill:#3f4b7d;}.cls-72{fill:#3f4b7e;}.cls-73{fill:#3f4c7e;}.cls-74{fill:#3f4c7f;}.cls-75{fill:#404c7f;}.cls-76{fill:#404d80;}.cls-77{fill:#404d81;}.cls-78{fill:#414e81;}.cls-79{fill:#414e82;}.cls-80{fill:#414e83;}.cls-81{fill:#414f83;}.cls-82{fill:#424f83;}.cls-83{fill:#424f84;}.cls-84{fill:#425085;}.cls-85{fill:#435086;}.cls-86{fill:#435186;}.cls-87{fill:#435187;}.cls-88{fill:#445187;}.cls-89{fill:#445188;}.cls-90{fill:#445288;}.cls-91{fill:#445289;}.cls-92{fill:#455289;}.cls-93{fill:#45538a;}.cls-94{fill:#45538b;}.cls-95{fill:#46548b;}.cls-96{fill:#46548c;}.cls-97{fill:#46548d;}.cls-98{fill:#46558d;}.cls-99{fill:#47558e;}.cls-100{fill:#47568f;}.cls-101{fill:#485690;}.cls-102{fill:#485791;}.cls-103{fill:#495791;}.cls-104{fill:#495792;}.cls-105{fill:#495892;}.cls-106{fill:#495893;}.cls-107{fill:#4a5894;}.cls-108{fill:#4a5994;}.cls-109{fill:#4a5995;}.cls-110{fill:#4b5a96;}.cls-111{fill:#4b5a97;}.cls-112{fill:#4b5b97;}.cls-113{fill:#4c5b98;}.cls-114{fill:#4c5b99;}.cls-115{fill:#4c5c99;}.cls-116{fill:#4c5c9a;}.cls-117{fill:#4d5c9a;}.cls-118{fill:#4d5d9b;}.cls-119{fill:#4e5d9c;}.cls-120{fill:#4e5e9d;}.cls-121{fill:#4f5e9e;}.cls-122{fill:#4f5f9e;}.cls-123{fill:#4f5f9f;}.cls-124{fill:#4f5fa0;}.cls-125{fill:#5060a0;}.cls-126{fill:#5060a1;}.cls-127{fill:#5061a2;}.cls-128{fill:#5161a2;}.cls-129{fill:#5161a3;}.cls-130{fill:#5162a3;}.cls-131{fill:#5162a4;}.cls-132{fill:#5262a4;}.cls-133{fill:#5262a5;}.cls-134{fill:#5263a5;}.cls-135{fill:#5363a6;}.cls-136{fill:#5364a7;}.cls-137{fill:#5364a8;}.cls-138{fill:#5464a8;}.cls-139{fill:#5465a8;}.cls-140{fill:#5465a9;}.cls-141{fill:#5465aa;}.cls-142{fill:#56a;}.cls-143{fill:#5566ab;}</style>
  </defs>
  <title
     id="title1674">color5</title>
  <g
     id="g11001">
    <path
       id="path1676"
       transform="translate(-7.17,-7.95)"
       d="m 91.87,7.95 a 14,14 0 0 1 14,14 v 0 70.7 a 14,14 0 0 1 -14,14 h -70.7 a 14,14 0 0 1 -14,-14 V 21.95 A 13.91,13.91 0 0 1 21,7.95"
       class="cls-1"
       inkscape:connector-curvature="0"
       style="fill:#2b3356" />
    <path
       id="path1678"
       transform="translate(-7.17,-7.95)"
       d="m 91.8,8 a 14,14 0 0 1 14,14 v 0 70.58 a 14,14 0 0 1 -14,14 H 21.24 a 14,14 0 0 1 -14,-14 V 22 A 13.88,13.88 0 0 1 21.06,8"
       class="cls-1"
       inkscape:connector-curvature="0"
       style="fill:#2b3356" />
    <path
       id="path1680"
       transform="translate(-7.17,-7.95)"
       d="m 91.73,8.14 a 13.94,13.94 0 0 1 13.94,13.94 v 0 70.43 A 13.94,13.94 0 0 1 91.73,106.45 H 21.31 A 13.94,13.94 0 0 1 7.36,92.51 V 22.09 A 13.85,13.85 0 0 1 21.13,8.14"
       class="cls-2"
       inkscape:connector-curvature="0"
       style="fill:#2b3457" />
    <path
       id="path1682"
       transform="translate(-7.17,-7.95)"
       d="m 91.66,8.24 a 13.92,13.92 0 0 1 13.92,13.92 v 0 70.28 A 13.92,13.92 0 0 1 91.66,106.36 H 21.38 A 13.92,13.92 0 0 1 7.46,92.44 V 22.16 A 13.83,13.83 0 0 1 21.2,8.24"
       class="cls-3"
       inkscape:connector-curvature="0"
       style="fill:#2c3457" />
    <path
       id="path1684"
       transform="translate(-7.17,-7.95)"
       d="m 91.59,8.34 a 13.89,13.89 0 0 1 13.89,13.89 v 0 70.14 A 13.89,13.89 0 0 1 91.59,106.26 H 21.45 A 13.89,13.89 0 0 1 7.56,92.37 V 22.23 A 13.8,13.8 0 0 1 21.27,8.34"
       class="cls-4"
       inkscape:connector-curvature="0"
       style="fill:#2c3458" />
    <path
       id="path1686"
       transform="translate(-7.17,-7.95)"
       d="m 91.52,8.44 a 13.86,13.86 0 0 1 13.86,13.86 v 0 70 a 13.86,13.86 0 0 1 -13.86,13.86 h -70 A 13.86,13.86 0 0 1 7.66,92.3 v -70 A 13.77,13.77 0 0 1 21.34,8.44"
       class="cls-4"
       inkscape:connector-curvature="0"
       style="fill:#2c3458" />
    <path
       id="path1688"
       transform="translate(-7.17,-7.95)"
       d="m 91.45,8.53 a 13.83,13.83 0 0 1 13.83,13.83 v 0 69.87 A 13.83,13.83 0 0 1 91.45,106.06 H 21.59 A 13.83,13.83 0 0 1 7.75,92.23 V 22.37 A 13.74,13.74 0 0 1 21.41,8.53"
       class="cls-5"
       inkscape:connector-curvature="0"
       style="fill:#2c3558" />
    <path
       id="path1690"
       transform="translate(-7.17,-7.95)"
       d="m 91.38,8.63 a 13.81,13.81 0 0 1 13.81,13.81 v 0 69.72 A 13.81,13.81 0 0 1 91.38,106 H 21.66 A 13.81,13.81 0 0 1 7.85,92.16 V 22.44 A 13.72,13.72 0 0 1 21.48,8.63"
       class="cls-6"
       inkscape:connector-curvature="0"
       style="fill:#2c3559" />
    <path
       id="path1692"
       transform="translate(-7.17,-7.95)"
       d="m 91.31,8.73 a 13.78,13.78 0 0 1 13.78,13.78 v 0 69.58 A 13.78,13.78 0 0 1 91.31,105.87 H 21.73 A 13.78,13.78 0 0 1 7.95,92.09 V 22.51 A 13.69,13.69 0 0 1 21.55,8.73"
       class="cls-7"
       inkscape:connector-curvature="0"
       style="fill:#2d3559" />
    <path
       id="path1694"
       transform="translate(-7.17,-7.95)"
       d="M 91.24,8.83 A 13.75,13.75 0 0 1 105,22.58 v 0 V 92 A 13.75,13.75 0 0 1 91.25,105.75 H 21.8 A 13.75,13.75 0 0 1 8,92 V 22.58 A 13.66,13.66 0 0 1 21.62,8.83"
       class="cls-8"
       inkscape:connector-curvature="0"
       style="fill:#2d355a" />
    <path
       id="path1696"
       transform="translate(-7.17,-7.95)"
       d="m 91.17,8.92 a 13.72,13.72 0 0 1 13.72,13.72 v 0 69.3 A 13.72,13.72 0 0 1 91.17,105.66 H 21.87 A 13.72,13.72 0 0 1 8.14,91.95 V 22.65 A 13.63,13.63 0 0 1 21.69,8.92"
       class="cls-9"
       inkscape:connector-curvature="0"
       style="fill:#2d365a" />
    <path
       id="path1698"
       transform="translate(-7.17,-7.95)"
       d="m 91.1,9 a 13.7,13.7 0 0 1 13.7,13.7 v 0 69.18 a 13.7,13.7 0 0 1 -13.7,13.7 H 21.94 A 13.7,13.7 0 0 1 8.24,91.88 V 22.72 A 13.61,13.61 0 0 1 21.76,9"
       class="cls-10"
       inkscape:connector-curvature="0"
       style="fill:#2d365b" />
    <path
       id="path1700"
       transform="translate(-7.17,-7.95)"
       d="m 91,9.12 a 13.67,13.67 0 0 1 13.67,13.67 v 0 69 A 13.67,13.67 0 0 1 91,105.48 H 22 A 13.67,13.67 0 0 1 8.34,91.81 v -69 A 13.58,13.58 0 0 1 21.83,9.12"
       class="cls-10"
       inkscape:connector-curvature="0"
       style="fill:#2d365b" />
    <path
       id="path1702"
       transform="translate(-7.17,-7.95)"
       d="m 91,9.22 a 13.64,13.64 0 0 1 13.6,13.64 v 0 68.88 A 13.64,13.64 0 0 1 91,105.38 H 22.08 A 13.64,13.64 0 0 1 8.44,91.74 V 22.86 A 13.55,13.55 0 0 1 21.9,9.22"
       class="cls-11"
       inkscape:connector-curvature="0"
       style="fill:#2e365b" />
    <path
       id="path1704"
       transform="translate(-7.17,-7.95)"
       d="m 90.89,9.32 a 13.61,13.61 0 0 1 13.61,13.61 v 0 68.74 A 13.61,13.61 0 0 1 90.89,105.28 H 22.15 A 13.61,13.61 0 0 1 8.53,91.67 V 22.93 A 13.52,13.52 0 0 1 22,9.32"
       class="cls-12"
       inkscape:connector-curvature="0"
       style="fill:#2e375c" />
    <path
       id="path1706"
       transform="translate(-7.17,-7.95)"
       d="M 90.82,9.41 A 13.58,13.58 0 0 1 104.4,23 v 0 68.6 A 13.58,13.58 0 0 1 90.82,105.18 H 22.22 A 13.58,13.58 0 0 1 8.63,91.6 V 23 A 13.5,13.5 0 0 1 22,9.41"
       class="cls-12"
       inkscape:connector-curvature="0"
       style="fill:#2e375c" />
    <path
       id="path1708"
       transform="translate(-7.17,-7.95)"
       d="m 90.75,9.51 a 13.56,13.56 0 0 1 13.55,13.56 v 0 68.46 A 13.56,13.56 0 0 1 90.74,105.09 H 22.29 A 13.56,13.56 0 0 1 8.73,91.53 V 23.07 A 13.47,13.47 0 0 1 22.11,9.51"
       class="cls-13"
       inkscape:connector-curvature="0"
       style="fill:#2e375d" />
    <path
       id="path1710"
       transform="translate(-7.17,-7.95)"
       d="m 90.68,9.61 a 13.53,13.53 0 0 1 13.53,13.53 v 0 68.32 A 13.53,13.53 0 0 1 90.68,105 H 22.36 A 13.53,13.53 0 0 1 8.83,91.46 V 23.14 A 13.44,13.44 0 0 1 22.18,9.61"
       class="cls-14"
       inkscape:connector-curvature="0"
       style="fill:#2f375d" />
    <path
       id="path1712"
       transform="translate(-7.17,-7.95)"
       d="m 90.61,9.71 a 13.5,13.5 0 0 1 13.5,13.5 v 0 68.18 a 13.5,13.5 0 0 1 -13.5,13.5 H 22.43 A 13.5,13.5 0 0 1 8.93,91.39 V 23.21 A 13.41,13.41 0 0 1 22.25,9.71"
       class="cls-15"
       inkscape:connector-curvature="0"
       style="fill:#2f385d" />
    <path
       id="path1714"
       transform="translate(-7.17,-7.95)"
       d="M 90.54,9.8 A 13.47,13.47 0 0 1 104,23.28 v 0 68 a 13.47,13.47 0 0 1 -13.47,13.47 h -68 A 13.47,13.47 0 0 1 9,91.32 v -68 A 13.39,13.39 0 0 1 22.32,9.8"
       class="cls-16"
       inkscape:connector-curvature="0"
       style="fill:#2f385e" />
    <path
       id="path1716"
       transform="translate(-7.17,-7.95)"
       d="m 90.47,9.9 a 13.45,13.45 0 0 1 13.45,13.45 v 0 67.9 A 13.45,13.45 0 0 1 90.47,104.7 H 22.57 A 13.45,13.45 0 0 1 9.12,91.25 V 23.35 A 13.36,13.36 0 0 1 22.39,9.9"
       class="cls-16"
       inkscape:connector-curvature="0"
       style="fill:#2f385e" />
    <path
       id="path1718"
       transform="translate(-7.17,-7.95)"
       d="m 90.4,10 a 13.42,13.42 0 0 1 13.42,13.42 v 0 67.76 A 13.42,13.42 0 0 1 90.4,104.6 H 22.64 A 13.42,13.42 0 0 1 9.22,91.18 V 23.42 A 13.33,13.33 0 0 1 22.46,10"
       class="cls-17"
       inkscape:connector-curvature="0"
       style="fill:#2f385f" />
    <path
       id="path1720"
       transform="translate(-7.17,-7.95)"
       d="m 90.33,10.1 a 13.39,13.39 0 0 1 13.39,13.39 v 0 67.62 A 13.39,13.39 0 0 1 90.33,104.5 H 22.71 A 13.39,13.39 0 0 1 9.32,91.11 V 23.49 A 13.3,13.3 0 0 1 22.53,10.1"
       class="cls-18"
       inkscape:connector-curvature="0"
       style="fill:#30395f" />
    <path
       id="path1722"
       transform="translate(-7.17,-7.95)"
       d="m 90.26,10.2 a 13.36,13.36 0 0 1 13.36,13.36 v 0 V 91 A 13.36,13.36 0 0 1 90.26,104.4 H 22.78 A 13.36,13.36 0 0 1 9.41,91 V 23.56 A 13.28,13.28 0 0 1 22.6,10.2"
       class="cls-19"
       inkscape:connector-curvature="0"
       style="fill:#303960" />
    <path
       id="path1724"
       transform="translate(-7.17,-7.95)"
       d="m 90.19,10.29 a 13.33,13.33 0 0 1 13.33,13.33 v 0 V 91 A 13.33,13.33 0 0 1 90.19,104.3 H 22.85 A 13.33,13.33 0 0 1 9.51,91 V 23.63 A 13.25,13.25 0 0 1 22.67,10.29"
       class="cls-19"
       inkscape:connector-curvature="0"
       style="fill:#303960" />
    <path
       id="path1726"
       transform="translate(-7.17,-7.95)"
       d="m 90.12,10.39 a 13.31,13.31 0 0 1 13.3,13.31 v 0 67.2 a 13.31,13.31 0 0 1 -13.3,13.3 H 22.92 A 13.31,13.31 0 0 1 9.61,90.9 V 23.7 A 13.22,13.22 0 0 1 22.75,10.39"
       class="cls-19"
       inkscape:connector-curvature="0"
       style="fill:#303960" />
    <path
       id="path1728"
       transform="translate(-7.17,-7.95)"
       d="m 90,10.49 a 13.28,13.28 0 0 1 13.28,13.28 v 0 67.06 A 13.28,13.28 0 0 1 90,104.11 H 23 A 13.28,13.28 0 0 1 9.71,90.83 V 23.77 A 13.19,13.19 0 0 1 22.82,10.49"
       class="cls-20"
       inkscape:connector-curvature="0"
       style="fill:#303a61" />
    <path
       id="path1730"
       transform="translate(-7.17,-7.95)"
       d="m 90,10.59 a 13.25,13.25 0 0 1 13.25,13.25 v 0 66.92 A 13.25,13.25 0 0 1 90,104 H 23.06 A 13.25,13.25 0 0 1 9.81,90.76 V 23.84 A 13.17,13.17 0 0 1 22.89,10.59"
       class="cls-21"
       inkscape:connector-curvature="0"
       style="fill:#313a61" />
    <path
       id="path1732"
       transform="translate(-7.17,-7.95)"
       d="m 89.91,10.68 a 13.22,13.22 0 0 1 13.22,13.22 v 0 66.79 A 13.22,13.22 0 0 1 89.91,103.91 H 23.13 A 13.22,13.22 0 0 1 9.9,90.69 V 23.91 A 13.14,13.14 0 0 1 23,10.68"
       class="cls-22"
       inkscape:connector-curvature="0"
       style="fill:#313a62" />
    <path
       id="path1734"
       transform="translate(-7.17,-7.95)"
       d="M 89.84,10.78 A 13.2,13.2 0 0 1 103,24 v 0 66.62 a 13.2,13.2 0 0 1 -13.2,13.2 H 23.2 A 13.2,13.2 0 0 1 10,90.62 V 24 A 13.11,13.11 0 0 1 23,10.8"
       class="cls-22"
       inkscape:connector-curvature="0"
       style="fill:#313a62" />
    <path
       id="path1736"
       transform="translate(-7.17,-7.95)"
       d="M 89.77,10.88 A 13.17,13.17 0 0 1 102.93,24 v 0 66.5 A 13.17,13.17 0 0 1 89.76,103.67 H 23.27 A 13.17,13.17 0 0 1 10.1,90.55 V 24 a 13.08,13.08 0 0 1 13,-13.17"
       class="cls-23"
       inkscape:connector-curvature="0"
       style="fill:#313b62" />
    <path
       id="path1738"
       transform="translate(-7.17,-7.95)"
       d="m 89.7,11 a 13.14,13.14 0 0 1 13.14,13.14 v 0 66.34 A 13.14,13.14 0 0 1 89.7,103.62 H 23.34 A 13.14,13.14 0 0 1 10.2,90.48 V 24.12 A 13.06,13.06 0 0 1 23.17,11"
       class="cls-24"
       inkscape:connector-curvature="0"
       style="fill:#313b63" />
    <path
       id="path1740"
       transform="translate(-7.17,-7.95)"
       d="m 89.63,11.07 a 13.11,13.11 0 0 1 13.11,13.11 v 0 66.23 A 13.11,13.11 0 0 1 89.63,103.52 H 23.41 A 13.11,13.11 0 0 1 10.29,90.41 V 24.19 A 13,13 0 0 1 23.24,11.07"
       class="cls-25"
       inkscape:connector-curvature="0"
       style="fill:#323b63" />
    <path
       id="path1742"
       transform="translate(-7.17,-7.95)"
       d="m 89.56,11.17 a 13.09,13.09 0 0 1 13.09,13.09 v 0 66.08 A 13.09,13.09 0 0 1 89.56,103.43 H 23.48 A 13.09,13.09 0 0 1 10.39,90.34 V 24.26 A 13,13 0 0 1 23.31,11.17"
       class="cls-26"
       inkscape:connector-curvature="0"
       style="fill:#323b64" />
    <path
       id="path1744"
       transform="translate(-7.17,-7.95)"
       d="m 89.49,11.27 a 13.06,13.06 0 0 1 13.06,13.06 v 0 65.94 A 13.06,13.06 0 0 1 89.49,103.33 H 23.55 A 13.06,13.06 0 0 1 10.49,90.27 V 24.33 A 13,13 0 0 1 23.38,11.27"
       class="cls-27"
       inkscape:connector-curvature="0"
       style="fill:#323c64" />
    <path
       id="path1746"
       transform="translate(-7.17,-7.95)"
       d="m 89.42,11.37 a 13,13 0 0 1 13,13 v 0 65.83 a 13,13 0 0 1 -13,13 h -65.8 a 13,13 0 0 1 -13,-13 V 24.4 a 13,13 0 0 1 12.86,-13"
       class="cls-28"
       inkscape:connector-curvature="0"
       style="fill:#323c65" />
    <path
       id="path1748"
       transform="translate(-7.17,-7.95)"
       d="m 89.35,11.47 a 13,13 0 0 1 13,13 v 0 65.66 a 13,13 0 0 1 -13,13 H 23.69 a 13,13 0 0 1 -13,-13 V 24.47 a 12.92,12.92 0 0 1 12.83,-13"
       class="cls-28"
       inkscape:connector-curvature="0"
       style="fill:#323c65" />
    <path
       id="path1750"
       transform="translate(-7.17,-7.95)"
       d="m 89.28,11.56 a 13,13 0 0 1 13,13 v 0 65.5 a 13,13 0 0 1 -13,13 H 23.76 a 13,13 0 0 1 -13,-13 V 24.54 a 12.89,12.89 0 0 1 12.81,-13"
       class="cls-29"
       inkscape:connector-curvature="0"
       style="fill:#333d65" />
    <path
       id="path1752"
       transform="translate(-7.17,-7.95)"
       d="m 89.21,11.66 a 13,13 0 0 1 12.95,12.95 v 0 V 90 A 13,13 0 0 1 89.21,102.95 H 23.83 A 13,13 0 0 1 10.88,90 V 24.61 A 12.86,12.86 0 0 1 23.66,11.66"
       class="cls-30"
       inkscape:connector-curvature="0"
       style="fill:#333d66" />
    <path
       id="path1754"
       transform="translate(-7.17,-7.95)"
       d="m 89.14,11.76 a 12.92,12.92 0 0 1 12.92,12.92 v 0 65.24 A 12.92,12.92 0 0 1 89.14,102.84 H 23.9 A 12.92,12.92 0 0 1 11,89.92 V 24.68 A 12.84,12.84 0 0 1 23.73,11.76"
       class="cls-30"
       inkscape:connector-curvature="0"
       style="fill:#333d66" />
    <path
       id="path1756"
       transform="translate(-7.17,-7.95)"
       d="M 89.07,11.86 A 12.89,12.89 0 0 1 102,24.75 v 0 65.1 A 12.89,12.89 0 0 1 89.11,102.74 H 24 A 12.89,12.89 0 0 1 11.08,89.85 V 24.75 A 12.81,12.81 0 0 1 23.8,11.86"
       class="cls-31"
       inkscape:connector-curvature="0"
       style="fill:#333d67" />
    <path
       id="path1758"
       transform="translate(-7.17,-7.95)"
       d="m 89,12 a 12.86,12.86 0 0 1 12.86,12.86 v 0 65 A 12.86,12.86 0 0 1 89,102.64 H 24 A 12.86,12.86 0 0 1 11.17,89.78 v -65 A 12.78,12.78 0 0 1 23.87,12"
       class="cls-32"
       inkscape:connector-curvature="0"
       style="fill:#343e67" />
    <path
       id="path1760"
       transform="translate(-7.17,-7.95)"
       d="m 88.93,12.05 a 12.84,12.84 0 0 1 12.84,12.84 v 0 64.82 A 12.84,12.84 0 0 1 88.93,102.55 H 24.11 A 12.84,12.84 0 0 1 11.27,89.71 V 24.89 A 12.75,12.75 0 0 1 23.94,12.05"
       class="cls-32"
       inkscape:connector-curvature="0"
       style="fill:#343e67" />
    <path
       id="path1762"
       transform="translate(-7.17,-7.95)"
       d="M 88.86,12.15 A 12.81,12.81 0 0 1 101.66,25 v 0 64.64 A 12.81,12.81 0 0 1 88.85,102.45 H 24.18 A 12.81,12.81 0 0 1 11.37,89.64 V 25 A 12.73,12.73 0 0 1 24,12.15"
       class="cls-33"
       inkscape:connector-curvature="0"
       style="fill:#343e68" />
    <path
       id="path1764"
       transform="translate(-7.17,-7.95)"
       d="M 88.79,12.25 A 12.78,12.78 0 0 1 101.57,25 v 0 64.57 A 12.78,12.78 0 0 1 88.79,102.35 H 24.25 A 12.78,12.78 0 0 1 11.47,89.57 V 25 A 12.7,12.7 0 0 1 24.08,12.25"
       class="cls-33"
       inkscape:connector-curvature="0"
       style="fill:#343e68" />
    <path
       id="path1766"
       transform="translate(-7.17,-7.95)"
       d="m 88.72,12.35 a 12.75,12.75 0 0 1 12.75,12.75 v 0 64.4 A 12.75,12.75 0 0 1 88.72,102.25 H 24.32 A 12.75,12.75 0 0 1 11.56,89.5 V 25.1 A 12.67,12.67 0 0 1 24.15,12.35"
       class="cls-34"
       inkscape:connector-curvature="0"
       style="fill:#343f69" />
    <path
       id="path1768"
       transform="translate(-7.17,-7.95)"
       d="m 88.65,12.44 a 12.72,12.72 0 0 1 12.72,12.72 v 0 64.27 A 12.72,12.72 0 0 1 88.65,102.15 H 24.39 A 12.72,12.72 0 0 1 11.66,89.43 V 25.17 A 12.64,12.64 0 0 1 24.22,12.44"
       class="cls-35"
       inkscape:connector-curvature="0"
       style="fill:#353f69" />
    <path
       id="path1770"
       transform="translate(-7.17,-7.95)"
       d="m 88.58,12.54 a 12.7,12.7 0 0 1 12.7,12.7 v 0 64.12 a 12.7,12.7 0 0 1 -12.7,12.7 H 24.46 A 12.7,12.7 0 0 1 11.76,89.36 V 25.24 a 12.62,12.62 0 0 1 12.53,-12.7"
       class="cls-36"
       inkscape:connector-curvature="0"
       style="fill:#353f6a" />
    <path
       id="path1772"
       transform="translate(-7.17,-7.95)"
       d="m 88.51,12.64 a 12.67,12.67 0 0 1 12.67,12.67 v 0 64 A 12.67,12.67 0 0 1 88.51,102 h -64 A 12.67,12.67 0 0 1 11.86,89.29 v -64 a 12.59,12.59 0 0 1 12.5,-12.65"
       class="cls-36"
       inkscape:connector-curvature="0"
       style="fill:#353f6a" />
    <path
       id="path1774"
       transform="translate(-7.17,-7.95)"
       d="m 88.44,12.74 a 12.64,12.64 0 0 1 12.64,12.64 v 0 63.84 A 12.64,12.64 0 0 1 88.44,101.86 H 24.6 A 12.64,12.64 0 0 1 12,89.22 V 25.38 A 12.56,12.56 0 0 1 24.43,12.74"
       class="cls-37"
       inkscape:connector-curvature="0"
       style="fill:#35406a" />
    <path
       id="path1776"
       transform="translate(-7.17,-7.95)"
       d="M 88.37,12.83 A 12.61,12.61 0 0 1 101,25.45 v 0 63.7 A 12.61,12.61 0 0 1 88.39,101.76 H 24.67 A 12.61,12.61 0 0 1 12.05,89.15 V 25.45 A 12.53,12.53 0 0 1 24.5,12.83"
       class="cls-38"
       inkscape:connector-curvature="0"
       style="fill:#35406b" />
    <path
       id="path1778"
       transform="translate(-7.17,-7.95)"
       d="m 88.3,12.93 a 12.59,12.59 0 0 1 12.59,12.59 v 0 63.56 A 12.59,12.59 0 0 1 88.3,101.66 H 24.74 A 12.59,12.59 0 0 1 12.15,89.08 V 25.52 A 12.51,12.51 0 0 1 24.57,12.93"
       class="cls-39"
       inkscape:connector-curvature="0"
       style="fill:#36406b" />
    <path
       id="path1780"
       transform="translate(-7.17,-7.95)"
       d="m 88.23,13 a 12.56,12.56 0 0 1 12.56,12.56 v 0 V 89 A 12.56,12.56 0 0 1 88.23,101.56 H 24.81 A 12.56,12.56 0 0 1 12.25,89 V 25.59 A 12.48,12.48 0 0 1 24.64,13"
       class="cls-40"
       inkscape:connector-curvature="0"
       style="fill:#36406c" />
    <path
       id="path1782"
       transform="translate(-7.17,-7.95)"
       d="m 88.16,13.13 a 12.53,12.53 0 0 1 12.53,12.53 v 0 63.28 A 12.53,12.53 0 0 1 88.16,101.47 H 24.88 A 12.53,12.53 0 0 1 12.35,88.94 V 25.66 A 12.45,12.45 0 0 1 24.71,13.13"
       class="cls-41"
       inkscape:connector-curvature="0"
       style="fill:#36416c" />
    <path
       id="path1784"
       transform="translate(-7.17,-7.95)"
       d="m 88.09,13.22 a 12.5,12.5 0 0 1 12.5,12.5 v 0 63.15 a 12.5,12.5 0 0 1 -12.5,12.5 H 24.95 A 12.5,12.5 0 0 1 12.45,88.87 V 25.73 a 12.42,12.42 0 0 1 12.34,-12.5"
       class="cls-41"
       inkscape:connector-curvature="0"
       style="fill:#36416c" />
    <path
       id="path1786"
       transform="translate(-7.17,-7.95)"
       d="m 88,13.32 a 12.48,12.48 0 0 1 12.49,12.48 v 0 63 A 12.48,12.48 0 0 1 88,101.27 H 25 A 12.48,12.48 0 0 1 12.54,88.8 v -63 A 12.4,12.4 0 0 1 24.86,13.32"
       class="cls-42"
       inkscape:connector-curvature="0"
       style="fill:#36416d" />
    <path
       id="path1788"
       transform="translate(-7.17,-7.95)"
       d="m 87.95,13.42 a 12.45,12.45 0 0 1 12.45,12.45 v 0 62.86 A 12.45,12.45 0 0 1 87.95,101.18 H 25.09 A 12.45,12.45 0 0 1 12.64,88.73 V 25.87 A 12.37,12.37 0 0 1 24.93,13.42"
       class="cls-43"
       inkscape:connector-curvature="0"
       style="fill:#37416d" />
    <path
       id="path1790"
       transform="translate(-7.17,-7.95)"
       d="m 87.88,13.52 a 12.42,12.42 0 0 1 12.42,12.42 v 0 62.72 A 12.42,12.42 0 0 1 87.88,101.08 H 25.16 A 12.42,12.42 0 0 1 12.74,88.66 V 25.94 A 12.34,12.34 0 0 1 25,13.52"
       class="cls-44"
       inkscape:connector-curvature="0"
       style="fill:#37426e" />
    <path
       id="path1792"
       transform="translate(-7.17,-7.95)"
       d="M 87.81,13.62 A 12.39,12.39 0 0 1 100.2,26 v 0 62.59 A 12.39,12.39 0 0 1 87.81,101 H 25.23 A 12.39,12.39 0 0 1 12.83,88.59 V 26 A 12.31,12.31 0 0 1 25.07,13.62"
       class="cls-44"
       inkscape:connector-curvature="0"
       style="fill:#37426e" />
    <path
       id="path1794"
       transform="translate(-7.17,-7.95)"
       d="m 87.74,13.71 a 12.36,12.36 0 0 1 12.36,12.37 v 0 62.44 A 12.36,12.36 0 0 1 87.74,100.88 H 25.3 A 12.36,12.36 0 0 1 12.93,88.52 V 26.08 a 12.28,12.28 0 0 1 12.2,-12.36"
       class="cls-45"
       inkscape:connector-curvature="0"
       style="fill:#37426f" />
    <path
       id="path1796"
       transform="translate(-7.17,-7.95)"
       d="M 87.67,13.81 A 12.34,12.34 0 0 1 100,26.15 v 0 62.3 A 12.34,12.34 0 0 1 87.66,100.79 H 25.37 A 12.34,12.34 0 0 1 13,88.45 V 26.15 A 12.26,12.26 0 0 1 25.21,13.81"
       class="cls-45"
       inkscape:connector-curvature="0"
       style="fill:#37426f" />
    <path
       id="path1798"
       transform="translate(-7.17,-7.95)"
       d="m 87.6,13.91 a 12.31,12.31 0 0 1 12.31,12.31 v 0 62.16 A 12.31,12.31 0 0 1 87.6,100.69 H 25.44 A 12.31,12.31 0 0 1 13.13,88.38 V 26.22 A 12.23,12.23 0 0 1 25.28,13.91"
       class="cls-46"
       inkscape:connector-curvature="0"
       style="fill:#38436f" />
    <path
       id="path1800"
       transform="translate(-7.17,-7.95)"
       d="m 87.53,14 a 12.28,12.28 0 0 1 12.28,12.29 v 0 62 a 12.28,12.28 0 0 1 -12.28,12.28 h -62 A 12.28,12.28 0 0 1 13.23,88.31 v -62 A 12.2,12.2 0 0 1 25.35,14"
       class="cls-47"
       inkscape:connector-curvature="0"
       style="fill:#384370" />
    <path
       id="path1802"
       transform="translate(-7.17,-7.95)"
       d="m 87.46,14.1 a 12.25,12.25 0 0 1 12.25,12.26 v 0 61.88 A 12.25,12.25 0 0 1 87.46,100.49 H 25.58 A 12.25,12.25 0 0 1 13.32,88.24 V 26.36 A 12.17,12.17 0 0 1 25.42,14.1"
       class="cls-47"
       inkscape:connector-curvature="0"
       style="fill:#384370" />
    <path
       id="path1804"
       transform="translate(-7.17,-7.95)"
       d="m 87.39,14.2 a 12.23,12.23 0 0 1 12.22,12.23 v 0 61.74 A 12.23,12.23 0 0 1 87.38,100.4 H 25.65 A 12.23,12.23 0 0 1 13.42,88.17 V 26.43 A 12.15,12.15 0 0 1 25.49,14.2"
       class="cls-48"
       inkscape:connector-curvature="0"
       style="fill:#384371" />
    <path
       id="path1806"
       transform="translate(-7.17,-7.95)"
       d="m 87.32,14.3 a 12.2,12.2 0 0 1 12.2,12.2 v 0 61.6 a 12.2,12.2 0 0 1 -12.2,12.2 H 25.72 A 12.2,12.2 0 0 1 13.52,88.1 V 26.5 a 12.12,12.12 0 0 1 12,-12.2"
       class="cls-49"
       inkscape:connector-curvature="0"
       style="fill:#394471" />
    <path
       id="path1808"
       transform="translate(-7.17,-7.95)"
       d="m 87.25,14.4 a 12.17,12.17 0 0 1 12.17,12.17 v 0 V 88 A 12.17,12.17 0 0 1 87.25,100.2 H 25.79 A 12.17,12.17 0 0 1 13.62,88 V 26.57 a 12.09,12.09 0 0 1 12,-12.17"
       class="cls-49"
       inkscape:connector-curvature="0"
       style="fill:#394471" />
    <path
       id="path1810"
       transform="translate(-7.17,-7.95)"
       d="m 87.18,14.5 a 12.14,12.14 0 0 1 12.14,12.14 v 0 V 88 A 12.14,12.14 0 0 1 87.18,100.1 H 25.86 A 12.14,12.14 0 0 1 13.71,88 V 26.64 a 12.06,12.06 0 0 1 12,-12.14"
       class="cls-50"
       inkscape:connector-curvature="0"
       style="fill:#394472" />
    <path
       id="path1812"
       transform="translate(-7.17,-7.95)"
       d="m 87.11,14.59 a 12.11,12.11 0 0 1 12.11,12.12 v 0 61.18 A 12.11,12.11 0 0 1 87.11,100 H 25.93 A 12.11,12.11 0 0 1 13.81,87.89 V 26.71 a 12,12 0 0 1 12,-12.11"
       class="cls-51"
       inkscape:connector-curvature="0"
       style="fill:#394572" />
    <path
       id="path1814"
       transform="translate(-7.17,-7.95)"
       d="m 87,14.69 a 12.09,12.09 0 0 1 12.12,12.09 v 0 61 A 12.09,12.09 0 0 1 87,99.9 H 26 A 12.09,12.09 0 0 1 13.91,87.82 v -61 A 12,12 0 0 1 25.84,14.69"
       class="cls-52"
       inkscape:connector-curvature="0"
       style="fill:#394573" />
    <path
       id="path1816"
       transform="translate(-7.17,-7.95)"
       d="m 87,14.79 a 12.06,12.06 0 0 1 12,12.06 v 0 60.9 A 12.06,12.06 0 0 1 87,99.81 H 26.07 A 12.06,12.06 0 0 1 14,87.75 V 26.85 A 12,12 0 0 1 25.9,14.79"
       class="cls-53"
       inkscape:connector-curvature="0"
       style="fill:#3a4573" />
    <path
       id="path1818"
       transform="translate(-7.17,-7.95)"
       d="m 86.9,14.89 a 12,12 0 0 1 12,12 v 0 60.79 a 12,12 0 0 1 -12,12 H 26.14 a 12,12 0 0 1 -12,-12 V 26.92 A 12,12 0 0 1 26,14.89"
       class="cls-54"
       inkscape:connector-curvature="0"
       style="fill:#3a4574" />
    <path
       id="path1820"
       transform="translate(-7.17,-7.95)"
       d="m 86.83,15 a 12,12 0 0 1 12,12 v 0 60.61 a 12,12 0 0 1 -12,12 H 26.21 a 12,12 0 0 1 -12,-12 V 27 A 11.93,11.93 0 0 1 26.05,15"
       class="cls-55"
       inkscape:connector-curvature="0"
       style="fill:#3a4674" />
    <path
       id="path1822"
       transform="translate(-7.17,-7.95)"
       d="m 86.76,15.08 a 12,12 0 0 1 12,12 v 0 60.46 a 12,12 0 0 1 -12,12 H 26.28 a 12,12 0 0 1 -12,-12 V 27.06 a 11.9,11.9 0 0 1 11.82,-12"
       class="cls-55"
       inkscape:connector-curvature="0"
       style="fill:#3a4674" />
    <path
       id="path1824"
       transform="translate(-7.17,-7.95)"
       d="m 86.69,15.18 a 12,12 0 0 1 11.95,11.95 v 0 60.34 A 12,12 0 0 1 86.69,99.42 H 26.35 A 12,12 0 0 1 14.4,87.47 V 27.13 A 11.87,11.87 0 0 1 26.19,15.18"
       class="cls-56"
       inkscape:connector-curvature="0"
       style="fill:#3a4675" />
    <path
       id="path1826"
       transform="translate(-7.17,-7.95)"
       d="M 86.62,15.28 A 11.92,11.92 0 0 1 98.54,27.2 v 0 60.2 A 11.92,11.92 0 0 1 86.62,99.32 H 26.42 A 11.92,11.92 0 0 1 14.5,87.4 V 27.2 A 11.84,11.84 0 0 1 26.26,15.28"
       class="cls-57"
       inkscape:connector-curvature="0"
       style="fill:#3b4675" />
    <path
       id="path1828"
       transform="translate(-7.17,-7.95)"
       d="m 86.55,15.37 a 11.89,11.89 0 0 1 11.89,11.9 v 0 60.06 A 11.89,11.89 0 0 1 86.55,99.22 H 26.49 A 11.89,11.89 0 0 1 14.59,87.33 V 27.27 a 11.82,11.82 0 0 1 11.74,-11.9"
       class="cls-58"
       inkscape:connector-curvature="0"
       style="fill:#3b4776" />
    <path
       id="path1830"
       transform="translate(-7.17,-7.95)"
       d="m 86.48,15.47 a 11.87,11.87 0 0 1 11.86,11.87 v 0 59.92 A 11.87,11.87 0 0 1 86.48,99.12 H 26.56 A 11.87,11.87 0 0 1 14.69,87.26 V 27.34 A 11.79,11.79 0 0 1 26.4,15.47"
       class="cls-58"
       inkscape:connector-curvature="0"
       style="fill:#3b4776" />
    <path
       id="path1832"
       transform="translate(-7.17,-7.95)"
       d="m 86.41,15.57 a 11.84,11.84 0 0 1 11.83,11.84 v 0 59.78 A 11.84,11.84 0 0 1 86.41,99 H 26.63 A 11.84,11.84 0 0 1 14.79,87.19 V 27.41 A 11.76,11.76 0 0 1 26.47,15.57"
       class="cls-58"
       inkscape:connector-curvature="0"
       style="fill:#3b4776" />
    <path
       id="path1834"
       transform="translate(-7.17,-7.95)"
       d="m 86.34,15.67 a 11.81,11.81 0 0 1 11.81,11.81 v 0 59.64 A 11.81,11.81 0 0 1 86.34,98.93 H 26.7 A 11.81,11.81 0 0 1 14.89,87.12 V 27.48 A 11.73,11.73 0 0 1 26.54,15.67"
       class="cls-59"
       inkscape:connector-curvature="0"
       style="fill:#3b4777" />
    <path
       id="path1836"
       transform="translate(-7.17,-7.95)"
       d="M 86.27,15.77 A 11.78,11.78 0 0 1 98,27.55 v 0 V 87 A 11.78,11.78 0 0 1 86.27,98.83 H 26.77 A 11.78,11.78 0 0 1 15,87 V 27.55 A 11.71,11.71 0 0 1 26.61,15.77"
       class="cls-60"
       inkscape:connector-curvature="0"
       style="fill:#3c4877" />
    <path
       id="path1838"
       transform="translate(-7.17,-7.95)"
       d="M 86.2,15.86 A 11.75,11.75 0 0 1 98,27.62 v 0 V 87 A 11.75,11.75 0 0 1 86.2,98.73 H 26.84 A 11.75,11.75 0 0 1 15.08,87 V 27.62 a 11.68,11.68 0 0 1 11.6,-11.75"
       class="cls-61"
       inkscape:connector-curvature="0"
       style="fill:#3c4878" />
    <path
       id="path1840"
       transform="translate(-7.17,-7.95)"
       d="m 86.13,16 a 11.73,11.73 0 0 1 11.72,11.69 v 0 59.22 A 11.73,11.73 0 0 1 86.13,98.63 H 26.91 A 11.73,11.73 0 0 1 15.18,86.91 V 27.69 A 11.65,11.65 0 0 1 26.76,16"
       class="cls-61"
       inkscape:connector-curvature="0"
       style="fill:#3c4878" />
    <path
       id="path1842"
       transform="translate(-7.17,-7.95)"
       d="m 86.06,16.06 a 11.7,11.7 0 0 1 11.7,11.7 v 0 59.08 a 11.7,11.7 0 0 1 -11.7,11.7 H 27 A 11.7,11.7 0 0 1 15.3,86.84 V 27.76 a 11.62,11.62 0 0 1 11.55,-11.7"
       class="cls-62"
       inkscape:connector-curvature="0"
       style="fill:#3c4879" />
    <path
       id="path1844"
       transform="translate(-7.17,-7.95)"
       d="m 86,16.16 a 11.67,11.67 0 0 1 11.66,11.67 v 0 58.94 A 11.67,11.67 0 0 1 86,98.44 H 27 A 11.67,11.67 0 0 1 15.38,86.77 V 27.83 A 11.6,11.6 0 0 1 26.9,16.16"
       class="cls-63"
       inkscape:connector-curvature="0"
       style="fill:#3c4979" />
    <path
       id="path1846"
       transform="translate(-7.17,-7.95)"
       d="M 85.92,16.25 A 11.64,11.64 0 0 1 97.56,27.9 v 0 58.8 A 11.64,11.64 0 0 1 85.92,98.34 H 27.12 A 11.64,11.64 0 0 1 15.47,86.7 V 27.9 A 11.57,11.57 0 0 1 27,16.25"
       class="cls-64"
       inkscape:connector-curvature="0"
       style="fill:#3d4979" />
    <path
       id="path1848"
       transform="translate(-7.17,-7.95)"
       d="M 85.85,16.35 A 11.62,11.62 0 0 1 97.46,28 v 0 58.63 A 11.62,11.62 0 0 1 85.85,98.24 H 27.19 A 11.62,11.62 0 0 1 15.57,86.63 V 28 A 11.54,11.54 0 0 1 27,16.35"
       class="cls-65"
       inkscape:connector-curvature="0"
       style="fill:#3d497a" />
    <path
       id="path1850"
       transform="translate(-7.17,-7.95)"
       d="M 85.78,16.45 A 11.59,11.59 0 0 1 97.36,28 v 0 58.56 A 11.59,11.59 0 0 1 85.78,98.15 H 27.26 A 11.59,11.59 0 0 1 15.67,86.56 V 28 A 11.51,11.51 0 0 1 27.11,16.45"
       class="cls-65"
       inkscape:connector-curvature="0"
       style="fill:#3d497a" />
    <path
       id="path1852"
       transform="translate(-7.17,-7.95)"
       d="m 85.71,16.55 a 11.56,11.56 0 0 1 11.56,11.56 v 0 58.38 A 11.56,11.56 0 0 1 85.71,98 H 27.33 A 11.56,11.56 0 0 1 15.77,86.49 V 28.11 A 11.49,11.49 0 0 1 27.18,16.55"
       class="cls-66"
       inkscape:connector-curvature="0"
       style="fill:#3d4a7b" />
    <path
       id="path1854"
       transform="translate(-7.17,-7.95)"
       d="m 85.64,16.65 a 11.53,11.53 0 0 1 11.53,11.53 v 0 58.24 A 11.53,11.53 0 0 1 85.64,98 H 27.4 A 11.53,11.53 0 0 1 15.86,86.42 V 28.18 A 11.46,11.46 0 0 1 27.25,16.65"
       class="cls-67"
       inkscape:connector-curvature="0"
       style="fill:#3e4a7b" />
    <path
       id="path1856"
       transform="translate(-7.17,-7.95)"
       d="m 85.57,16.74 a 11.5,11.5 0 0 1 11.5,11.5 v 0 58.1 a 11.5,11.5 0 0 1 -11.5,11.5 H 27.47 A 11.5,11.5 0 0 1 16,86.35 v -58.1 a 11.43,11.43 0 0 1 11.36,-11.5"
       class="cls-67"
       inkscape:connector-curvature="0"
       style="fill:#3e4a7b" />
    <path
       id="path1858"
       transform="translate(-7.17,-7.95)"
       d="M 85.5,16.84 A 11.48,11.48 0 0 1 97,28.32 v 0 58 A 11.48,11.48 0 0 1 85.5,97.76 h -58 A 11.48,11.48 0 0 1 16.06,86.28 v -58 A 11.4,11.4 0 0 1 27.39,16.84"
       class="cls-68"
       inkscape:connector-curvature="0"
       style="fill:#3e4a7c" />
    <path
       id="path1860"
       transform="translate(-7.17,-7.95)"
       d="m 85.43,16.94 a 11.45,11.45 0 0 1 11.45,11.45 v 0 57.82 A 11.45,11.45 0 0 1 85.43,97.66 H 27.61 A 11.45,11.45 0 0 1 16.16,86.21 V 28.39 a 11.38,11.38 0 0 1 11.3,-11.45"
       class="cls-69"
       inkscape:connector-curvature="0"
       style="fill:#3e4b7c" />
    <path
       id="path1862"
       transform="translate(-7.17,-7.95)"
       d="m 85.36,17 a 11.42,11.42 0 0 1 11.42,11.46 v 0 57.68 A 11.42,11.42 0 0 1 85.36,97.56 H 27.68 A 11.42,11.42 0 0 1 16.25,86.14 V 28.46 A 11.35,11.35 0 0 1 27.53,17"
       class="cls-70"
       inkscape:connector-curvature="0"
       style="fill:#3e4b7d" />
    <path
       id="path1864"
       transform="translate(-7.17,-7.95)"
       d="m 85.29,17.13 a 11.39,11.39 0 0 1 11.39,11.4 v 0 57.54 A 11.39,11.39 0 0 1 85.29,97.46 H 27.75 A 11.39,11.39 0 0 1 16.35,86.07 V 28.53 A 11.32,11.32 0 0 1 27.6,17.13"
       class="cls-71"
       inkscape:connector-curvature="0"
       style="fill:#3f4b7d" />
    <path
       id="path1866"
       transform="translate(-7.17,-7.95)"
       d="M 85.22,17.23 A 11.37,11.37 0 0 1 96.58,28.6 v 0 V 86 A 11.37,11.37 0 0 1 85.22,97.36 H 27.82 A 11.37,11.37 0 0 1 16.45,86 V 28.6 A 11.29,11.29 0 0 1 27.67,17.23"
       class="cls-72"
       inkscape:connector-curvature="0"
       style="fill:#3f4b7e" />
    <path
       id="path1868"
       transform="translate(-7.17,-7.95)"
       d="m 85.15,17.33 a 11.34,11.34 0 0 1 11.34,11.34 v 0 57.26 A 11.34,11.34 0 0 1 85.15,97.27 H 27.89 A 11.34,11.34 0 0 1 16.55,85.93 V 28.67 A 11.27,11.27 0 0 1 27.74,17.33"
       class="cls-73"
       inkscape:connector-curvature="0"
       style="fill:#3f4c7e" />
    <path
       id="path1870"
       transform="translate(-7.17,-7.95)"
       d="m 85.08,17.43 a 11.31,11.31 0 0 1 11.31,11.31 v 0 57.12 A 11.31,11.31 0 0 1 85.08,97.17 H 28 A 11.31,11.31 0 0 1 16.65,85.86 V 28.74 A 11.24,11.24 0 0 1 27.81,17.43"
       class="cls-73"
       inkscape:connector-curvature="0"
       style="fill:#3f4c7e" />
    <path
       id="path1872"
       transform="translate(-7.17,-7.95)"
       d="m 85,17.52 a 11.28,11.28 0 0 1 11.29,11.29 v 0 57 A 11.28,11.28 0 0 1 85,97.07 H 28 A 11.28,11.28 0 0 1 16.74,85.79 v -57 A 11.21,11.21 0 0 1 27.88,17.52"
       class="cls-74"
       inkscape:connector-curvature="0"
       style="fill:#3f4c7f" />
    <path
       id="path1874"
       transform="translate(-7.17,-7.95)"
       d="m 84.94,17.62 a 11.26,11.26 0 0 1 11.25,11.26 v 0 56.84 A 11.26,11.26 0 0 1 84.94,97 H 28.1 A 11.26,11.26 0 0 1 16.84,85.72 V 28.88 A 11.18,11.18 0 0 1 28,17.62"
       class="cls-75"
       inkscape:connector-curvature="0"
       style="fill:#404c7f" />
    <path
       id="path1876"
       transform="translate(-7.17,-7.95)"
       d="m 84.87,17.72 a 11.23,11.23 0 0 1 11.22,11.23 v 0 56.7 A 11.23,11.23 0 0 1 84.87,96.88 H 28.17 A 11.23,11.23 0 0 1 16.94,85.65 V 28.95 A 11.16,11.16 0 0 1 28,17.72"
       class="cls-76"
       inkscape:connector-curvature="0"
       style="fill:#404d80" />
    <path
       id="path1878"
       transform="translate(-7.17,-7.95)"
       d="M 84.8,17.82 A 11.2,11.2 0 0 1 96,29 v 0 56.58 A 11.2,11.2 0 0 1 84.8,96.78 H 28.24 A 11.2,11.2 0 0 1 17,85.58 V 29 A 11.13,11.13 0 0 1 28.06,17.8"
       class="cls-76"
       inkscape:connector-curvature="0"
       style="fill:#404d80" />
    <path
       id="path1880"
       transform="translate(-7.17,-7.95)"
       d="m 84.75,17.88 a 11.18,11.18 0 0 1 11.19,11.18 v 0 56.47 A 11.18,11.18 0 0 1 84.78,96.71 H 28.4 A 11.19,11.19 0 0 1 17.19,85.63 C 17.14,85.63 17.1,71.55 17.1,71.5 V 29.09 a 11.25,11.25 0 0 1 0.43,-3.17 11.11,11.11 0 0 1 10.61,-8 h 0.47"
       class="cls-76"
       inkscape:connector-curvature="0"
       style="fill:#404d80" />
    <path
       id="path1882"
       transform="translate(-7.17,-7.95)"
       d="M 84.71,17.93 A 11.17,11.17 0 0 1 95.88,29.1 v 0 56.39 A 11.16,11.16 0 0 1 84.77,96.65 H 28.56 a 11.18,11.18 0 0 1 -11.22,-11 c -0.1,0 -0.19,-14 -0.19,-14.08 V 29.17 A 11.38,11.38 0 0 1 17.58,26 11.09,11.09 0 0 1 28.18,17.94 h 0.95"
       class="cls-77"
       inkscape:connector-curvature="0"
       style="fill:#404d81" />
    <path
       id="path1884"
       transform="translate(-7.17,-7.95)"
       d="m 84.67,18 a 11.15,11.15 0 0 1 11.15,11.14 v 0 56.3 A 11.14,11.14 0 0 1 84.75,96.58 h -56 A 11.18,11.18 0 0 1 17.5,85.72 c -0.16,0 -0.28,-13.88 -0.28,-14 V 29.24 A 11.5,11.5 0 0 1 17.64,26.07 11.07,11.07 0 0 1 28.23,18 h 1.42"
       class="cls-78"
       inkscape:connector-curvature="0"
       style="fill:#414e81" />
    <path
       id="path1886"
       transform="translate(-7.17,-7.95)"
       d="m 84.62,18.05 a 11.14,11.14 0 0 1 11.14,11.13 v 0 56.22 a 11.11,11.11 0 0 1 -11,11.12 c 0,0 -4.08,0 -4.12,0 H 28.88 c -5.94,0 -11.23,-4.82 -11.23,-10.76 -0.21,0 -0.37,-13.78 -0.38,-14 V 29.32 a 11.63,11.63 0 0 1 0.42,-3.18 11,11 0 0 1 10.57,-8.09 h 1.89"
       class="cls-79"
       inkscape:connector-curvature="0"
       style="fill:#414e82" />
    <path
       id="path1888"
       transform="translate(-7.17,-7.95)"
       d="M 84.58,18.11 A 11.12,11.12 0 0 1 95.7,29.23 v 0 56.12 a 11.09,11.09 0 0 1 -11,11.09 c 0,0 -4.06,0 -4.11,0 H 29 c -5.88,0 -11.24,-4.77 -11.24,-10.65 -0.26,0 -0.47,-13.68 -0.47,-13.94 V 29.39 a 11.76,11.76 0 0 1 0.41,-3.18 11,11 0 0 1 10.56,-8.1 h 2.37"
       class="cls-79"
       inkscape:connector-curvature="0"
       style="fill:#414e82" />
    <path
       id="path1890"
       transform="translate(-7.17,-7.95)"
       d="m 84.54,18.17 a 11.1,11.1 0 0 1 11.1,11.1 v 0 56 A 11.07,11.07 0 0 1 84.7,96.38 c -0.05,0 -4,0 -4.09,0 H 29.21 C 23.39,96.41 18,91.69 18,85.87 c -0.31,0 -0.56,-13.58 -0.56,-13.9 v -42.5 a 11.9,11.9 0 0 1 0.41,-3.18 11,11 0 0 1 10.55,-8.12 h 2.8"
       class="cls-80"
       inkscape:connector-curvature="0"
       style="fill:#414e83" />
    <path
       id="path1892"
       transform="translate(-7.17,-7.95)"
       d="m 84.49,18.23 a 11.09,11.09 0 0 1 11.09,11.08 v 0 56 a 11.05,11.05 0 0 1 -10.89,11 c -0.06,0 -4,0 -4.08,0 H 29.37 c -5.76,0 -11.25,-4.67 -11.25,-10.42 -0.36,0 -0.66,-13.49 -0.66,-13.85 v -42.5 a 12,12 0 0 1 0.41,-3.18 11,11 0 0 1 10.54,-8.13 h 3.31"
       class="cls-81"
       inkscape:connector-curvature="0"
       style="fill:#414f83" />
    <path
       id="path1894"
       transform="translate(-7.17,-7.95)"
       d="m 84.45,18.29 a 11.07,11.07 0 0 1 11.06,11.06 v 0 55.87 a 11,11 0 0 1 -10.84,11 c -0.07,0 -4,0 -4.07,0 H 29.53 c -5.7,0 -11.26,-4.62 -11.26,-10.31 -0.41,0 -0.75,-13.39 -0.75,-13.8 V 29.62 a 12.18,12.18 0 0 1 0.4,-3.18 11,11 0 0 1 10.53,-8.15 h 3.79"
       class="cls-82"
       inkscape:connector-curvature="0"
       style="fill:#424f83" />
    <path
       id="path1896"
       transform="translate(-7.17,-7.95)"
       d="m 84.41,18.34 a 11.05,11.05 0 0 1 11,11 v 0 55.83 a 11,11 0 0 1 -10.8,11 c -0.08,0 -4,0 -4.05,0 H 29.69 c -5.63,0 -11.27,-4.57 -11.27,-10.2 -0.47,0 -0.84,-13.29 -0.85,-13.76 V 29.69 a 12.32,12.32 0 0 1 0.4,-3.19 10.94,10.94 0 0 1 10.53,-8.16 h 4.26"
       class="cls-83"
       inkscape:connector-curvature="0"
       style="fill:#424f84" />
    <path
       id="path1898"
       transform="translate(-7.17,-7.95)"
       d="m 84.36,18.4 a 11,11 0 0 1 11,11 v 0 55.73 a 11,11 0 0 1 -10.75,11 c -0.09,0 -3.94,0 -4,0 H 29.86 c -5.57,0 -11.28,-4.52 -11.28,-10.09 -0.52,0 -0.94,-13.19 -0.94,-13.71 V 29.77 A 12.47,12.47 0 0 1 18,26.58 10.92,10.92 0 0 1 28.54,18.4 h 4.73"
       class="cls-83"
       inkscape:connector-curvature="0"
       style="fill:#424f84" />
    <path
       id="path1900"
       transform="translate(-7.17,-7.95)"
       d="m 84.32,18.46 a 11,11 0 0 1 11,11 v 0 55.62 A 11,11 0 0 1 84.63,96 c -0.1,0 -3.92,0 -4,0 H 30 c -5.51,0 -11.29,-4.47 -11.29,-10 -0.57,0 -1,-13.09 -1,-13.66 v -42.5 a 12.62,12.62 0 0 1 0.39,-3.19 10.9,10.9 0 0 1 10.5,-8.19 h 5.21"
       class="cls-84"
       inkscape:connector-curvature="0"
       style="fill:#425085" />
    <path
       id="path1902"
       transform="translate(-7.17,-7.95)"
       d="m 84.28,18.52 a 11,11 0 0 1 11,11 v 0 V 85 A 11,11 0 0 1 84.61,96 c -0.11,0 -3.9,0.05 -4,0.05 H 30.18 c -5.45,0 -11.29,-4.42 -11.29,-9.87 -0.62,0 -1.12,-13 -1.13,-13.62 V 29.92 a 12.78,12.78 0 0 1 0.38,-3.19 10.87,10.87 0 0 1 10.49,-8.21 h 5.68"
       class="cls-84"
       inkscape:connector-curvature="0"
       style="fill:#425085" />
    <path
       id="path1904"
       transform="translate(-7.17,-7.95)"
       d="m 84.23,18.58 a 11,11 0 0 1 11,11 v 0 V 85 A 10.93,10.93 0 0 1 84.6,95.92 c -0.12,0 -3.87,0.06 -4,0.06 H 30.34 C 25,96 19,91.6 19,86.21 c -0.67,0 -1.22,-12.9 -1.22,-13.57 V 30 a 12.93,12.93 0 0 1 0.38,-3.19 10.85,10.85 0 0 1 10.48,-8.22 h 6.15"
       class="cls-85"
       inkscape:connector-curvature="0"
       style="fill:#435086" />
    <path
       id="path1906"
       transform="translate(-7.17,-7.95)"
       d="m 84.19,18.64 a 11,11 0 0 1 11,11 v 0 55.31 a 10.91,10.91 0 0 1 -10.57,10.9 c -0.12,0 -3.85,0.06 -4,0.06 H 30.51 c -5.33,0 -11.31,-4.32 -11.31,-9.65 -0.73,0 -1.31,-12.8 -1.32,-13.53 V 30.07 a 13.09,13.09 0 0 1 0.38,-3.19 10.83,10.83 0 0 1 10.46,-8.23 h 6.63"
       class="cls-85"
       inkscape:connector-curvature="0"
       style="fill:#435086" />
    <path
       id="path1908"
       transform="translate(-7.17,-7.95)"
       d="m 84.15,18.7 a 11,11 0 0 1 10.94,10.94 v 0 55.26 A 10.89,10.89 0 0 1 84.57,95.78 c -0.13,0 -3.83,0.07 -4,0.07 h -49.9 c -5.27,0 -11.32,-4.27 -11.32,-9.54 -0.78,0 -1.41,-12.7 -1.41,-13.48 V 30.14 a 13.26,13.26 0 0 1 0.37,-3.2 10.81,10.81 0 0 1 10.45,-8.24 h 7.1"
       class="cls-86"
       inkscape:connector-curvature="0"
       style="fill:#435186" />
    <path
       id="path1910"
       transform="translate(-7.17,-7.95)"
       d="M 84.1,18.75 A 10.94,10.94 0 0 1 95,29.68 v 0 55.18 A 10.87,10.87 0 0 1 84.55,95.72 c -0.14,0 -3.8,0.07 -4,0.07 H 30.83 c -5.21,0 -11.32,-4.22 -11.32,-9.43 -0.83,0 -1.5,-12.6 -1.5,-13.43 V 30.22 a 13.43,13.43 0 0 1 0.37,-3.2 10.79,10.79 0 0 1 10.44,-8.26 h 7.57"
       class="cls-87"
       inkscape:connector-curvature="0"
       style="fill:#435187" />
    <path
       id="path1912"
       transform="translate(-7.17,-7.95)"
       d="M 84.06,18.81 A 10.92,10.92 0 0 1 95,29.73 v 0 55.08 A 10.85,10.85 0 0 1 84.54,95.65 c -0.15,0 -3.78,0.07 -3.95,0.07 H 31 c -5.14,0 -11.33,-4.17 -11.33,-9.31 -0.88,0 -1.59,-12.51 -1.6,-13.39 V 30.29 a 13.6,13.6 0 0 1 0.36,-3.2 10.77,10.77 0 0 1 10.43,-8.28 h 8"
       class="cls-88"
       inkscape:connector-curvature="0"
       style="fill:#445187" />
    <path
       id="path1914"
       transform="translate(-7.17,-7.95)"
       d="m 84,18.87 a 10.91,10.91 0 0 1 10.9,10.9 v 0 55 A 10.82,10.82 0 0 1 84.52,95.58 c -0.16,0.05 -3.76,0.08 -3.93,0.08 H 31.15 c -5.08,0 -11.34,-4.12 -11.34,-9.2 -0.93,0 -1.69,-12.41 -1.69,-13.34 V 30.37 a 13.78,13.78 0 0 1 0.36,-3.2 10.75,10.75 0 0 1 10.42,-8.3 h 8.52"
       class="cls-89"
       inkscape:connector-curvature="0"
       style="fill:#445188" />
    <path
       id="path1916"
       transform="translate(-7.17,-7.95)"
       d="m 84,18.93 a 10.89,10.89 0 0 1 10.85,10.88 v 0 54.91 A 10.8,10.8 0 0 1 84.5,95.52 c -0.17,0.05 -3.73,0.08 -3.92,0.08 H 31.32 c -5,0 -11.35,-4.07 -11.35,-9.09 -1,0 -1.78,-12.31 -1.79,-13.29 V 30.44 a 14,14 0 0 1 0.35,-3.2 10.73,10.73 0 0 1 10.41,-8.31 h 9"
       class="cls-90"
       inkscape:connector-curvature="0"
       style="fill:#445288" />
    <path
       id="path1918"
       transform="translate(-7.17,-7.95)"
       d="m 83.93,19 a 10.88,10.88 0 0 1 10.86,10.85 v 0 54.83 a 10.78,10.78 0 0 1 -10.3,10.78 c -0.18,0.06 -3.71,0.09 -3.91,0.09 h -49.1 c -5,0 -11.36,-4 -11.36,-9 -1,0 -1.87,-12.21 -1.88,-13.25 V 30.52 A 14.15,14.15 0 0 1 18.59,27.31 10.71,10.71 0 0 1 29,19 h 9.47"
       class="cls-91"
       inkscape:connector-curvature="0"
       style="fill:#445289" />
    <path
       id="path1920"
       transform="translate(-7.17,-7.95)"
       d="m 83.89,19 a 10.86,10.86 0 0 1 10.84,10.89 v 0 54.74 A 10.76,10.76 0 0 1 84.47,95.39 c -0.19,0.06 -3.69,0.09 -3.89,0.09 H 31.64 c -4.9,0 -11.36,-4 -11.36,-8.87 -1.09,0 -2,-12.11 -2,-13.2 V 30.59 A 14.34,14.34 0 0 1 18.63,27.38 10.69,10.69 0 0 1 29,19 h 10"
       class="cls-91"
       inkscape:connector-curvature="0"
       style="fill:#445289" />
    <path
       id="path1922"
       transform="translate(-7.17,-7.95)"
       d="m 83.84,19.1 a 10.84,10.84 0 0 1 10.83,10.83 v 0 54.66 A 10.74,10.74 0 0 1 84.46,95.32 c -0.19,0.06 -3.67,0.1 -3.88,0.1 H 31.8 c -4.84,0 -11.37,-3.92 -11.37,-8.76 -1.14,0 -2.06,-12 -2.07,-13.16 V 30.67 A 14.54,14.54 0 0 1 18.7,27.46 10.67,10.67 0 0 1 29.08,19.1 h 10.41"
       class="cls-92"
       inkscape:connector-curvature="0"
       style="fill:#455289" />
    <path
       id="path1924"
       transform="translate(-7.17,-7.95)"
       d="M 83.8,19.16 A 10.83,10.83 0 0 1 94.61,30 v 0 54.54 A 10.72,10.72 0 0 1 84.44,95.25 c -0.2,0.06 -3.64,0.1 -3.87,0.1 H 32 c -4.78,0 -11.38,-3.87 -11.38,-8.65 -1.19,0 -2.16,-11.92 -2.16,-13.11 V 30.74 A 14.74,14.74 0 0 1 18.8,27.53 10.66,10.66 0 0 1 29.16,19.16 H 40"
       class="cls-93"
       inkscape:connector-curvature="0"
       style="fill:#45538a" />
    <path
       id="path1926"
       transform="translate(-7.17,-7.95)"
       d="M 83.76,19.22 A 10.81,10.81 0 0 1 94.55,30 v 0 54.5 A 10.71,10.71 0 0 1 84.43,95.19 c -0.21,0.07 -3.62,0.1 -3.85,0.11 H 32.13 c -4.72,0 -11.39,-3.82 -11.39,-8.54 -1.24,0 -2.25,-11.82 -2.26,-13.06 V 30.81 a 15,15 0 0 1 0.33,-3.21 10.64,10.64 0 0 1 10.35,-8.38 h 11.37"
       class="cls-93"
       inkscape:connector-curvature="0"
       style="fill:#45538a" />
    <path
       id="path1928"
       transform="translate(-7.17,-7.95)"
       d="m 83.71,19.28 a 10.79,10.79 0 0 1 10.78,10.78 v 0 54.39 A 10.69,10.69 0 0 1 84.41,95.12 c -0.22,0.07 -3.6,0.11 -3.84,0.11 H 32.29 c -4.65,0 -11.39,-3.77 -11.39,-8.43 -1.3,0 -2.34,-11.72 -2.35,-13 V 30.89 a 15.16,15.16 0 0 1 0.33,-3.21 10.62,10.62 0 0 1 10.34,-8.39 H 41"
       class="cls-94"
       inkscape:connector-curvature="0"
       style="fill:#45538b" />
    <path
       id="path1930"
       transform="translate(-7.17,-7.95)"
       d="M 83.67,19.34 A 10.78,10.78 0 0 1 94.43,30.1 v 0 54.3 a 10.67,10.67 0 0 1 -10,10.65 c -0.23,0.07 -3.57,0.11 -3.83,0.11 H 32.45 c -4.59,0 -11.4,-3.72 -11.4,-8.32 -1.35,0 -2.44,-11.62 -2.45,-13 V 31 a 15.38,15.38 0 0 1 0.32,-3.22 10.6,10.6 0 0 1 10.33,-8.41 h 12.3"
       class="cls-94"
       inkscape:connector-curvature="0"
       style="fill:#45538b" />
    <path
       id="path1932"
       transform="translate(-7.17,-7.95)"
       d="m 83.63,19.4 a 10.76,10.76 0 0 1 10.74,10.74 v 0 54.22 A 10.65,10.65 0 0 1 84.38,95 c -0.24,0.08 -3.55,0.12 -3.81,0.12 h -48 c -4.53,0 -11.41,-3.67 -11.41,-8.21 -1.4,0 -2.53,-11.53 -2.54,-12.92 V 31 A 15.61,15.61 0 0 1 19,27.82 10.58,10.58 0 0 1 29.3,19.4 h 12.78"
       class="cls-95"
       inkscape:connector-curvature="0"
       style="fill:#46548b" />
    <path
       id="path1934"
       transform="translate(-7.17,-7.95)"
       d="m 83.58,19.46 a 10.75,10.75 0 0 1 10.73,10.72 v 0 54.14 a 10.63,10.63 0 0 1 -9.94,10.61 c -0.25,0.08 -3.53,0.12 -3.8,0.12 h -47.8 c -4.47,0 -11.42,-3.62 -11.42,-8.1 -1.45,0 -2.62,-11.43 -2.63,-12.88 v -43 A 15.84,15.84 0 0 1 19,27.89 10.56,10.56 0 0 1 29.31,19.45 H 42.6"
       class="cls-96"
       inkscape:connector-curvature="0"
       style="fill:#46548c" />
    <path
       id="path1936"
       transform="translate(-7.17,-7.95)"
       d="m 83.54,19.51 a 10.73,10.73 0 0 1 10.71,10.72 v 0 54 a 10.61,10.61 0 0 1 -9.9,10.58 c -0.26,0.08 -3.5,0.13 -3.79,0.13 H 32.94 c -4.41,0 -11.43,-3.57 -11.43,-8 -1.5,0 -2.72,-11.33 -2.73,-12.83 v -43 A 16.07,16.07 0 0 1 19.09,28 10.54,10.54 0 0 1 29.39,19.55 h 13.73"
       class="cls-96"
       inkscape:connector-curvature="0"
       style="fill:#46548c" />
    <path
       id="path1938"
       transform="translate(-7.17,-7.95)"
       d="m 83.5,19.57 a 10.71,10.71 0 0 1 10.7,10.7 v 0 54 a 10.59,10.59 0 0 1 -9.85,10.56 c -0.27,0.08 -3.48,0.13 -3.77,0.13 H 33.1 c -4.35,0 -11.43,-3.52 -11.43,-7.87 -1.55,0 -2.81,-11.23 -2.82,-12.79 v -43 a 16.32,16.32 0 0 1 0.3,-3.3 10.52,10.52 0 0 1 10.29,-8.47 h 14.2"
       class="cls-97"
       inkscape:connector-curvature="0"
       style="fill:#46548d" />
    <path
       id="path1940"
       transform="translate(-7.17,-7.95)"
       d="m 83.45,19.63 a 10.7,10.7 0 0 1 10.68,10.68 v 0 53.87 a 10.57,10.57 0 0 1 -9.81,10.54 c -0.27,0.09 -3.46,0.13 -3.76,0.14 h -47.3 c -4.29,0 -11.44,-3.48 -11.44,-7.76 -1.61,0 -2.91,-11.13 -2.92,-12.74 v -43 a 16.57,16.57 0 0 1 0.3,-3.23 10.51,10.51 0 0 1 10.28,-8.48 h 14.67"
       class="cls-98"
       inkscape:connector-curvature="0"
       style="fill:#46558d" />
    <path
       id="path1942"
       transform="translate(-7.17,-7.95)"
       d="m 83.41,19.69 a 10.68,10.68 0 0 1 10.66,10.66 v 0 53.79 a 10.55,10.55 0 0 1 -9.76,10.52 c -0.28,0.09 -3.43,0.14 -3.75,0.14 H 33.42 C 29.2,94.8 22,91.37 22,87.15 c -1.66,0 -3,-11 -3,-12.69 v -43 a 16.83,16.83 0 0 1 0.3,-3.23 10.49,10.49 0 0 1 10.26,-8.5 h 15.11"
       class="cls-99"
       inkscape:connector-curvature="0"
       style="fill:#47558e" />
    <path
       id="path1944"
       transform="translate(-7.17,-7.95)"
       d="M 83.37,19.75 A 10.66,10.66 0 0 1 94,30.39 v 0 53.7 a 10.53,10.53 0 0 1 -9.72,10.5 c -0.29,0.09 -3.41,0.14 -3.73,0.15 h -47 C 29.39,94.74 22.09,91.36 22.09,87.2 20.38,87.2 19,76.26 18.99,74.55 V 31.49 a 17.09,17.09 0 0 1 0.29,-3.23 10.47,10.47 0 0 1 10.25,-8.51 h 15.66"
       class="cls-99"
       inkscape:connector-curvature="0"
       style="fill:#47558e" />
    <path
       id="path1946"
       transform="translate(-7.17,-7.95)"
       d="m 83.32,19.81 a 10.65,10.65 0 0 1 10.63,10.62 v 0 V 84 a 10.51,10.51 0 0 1 -9.67,10.48 c -0.3,0.1 -3.39,0.15 -3.72,0.15 H 33.75 c -4.1,0 -11.46,-3.33 -11.46,-7.43 -1.76,0 -3.19,-10.84 -3.2,-12.6 V 31.56 a 17.37,17.37 0 0 1 0.29,-3.23 10.45,10.45 0 0 1 10.24,-8.53 h 16.09"
       class="cls-99"
       inkscape:connector-curvature="0"
       style="fill:#47558e" />
    <path
       id="path1948"
       transform="translate(-7.17,-7.95)"
       d="m 83.28,19.87 a 10.63,10.63 0 0 1 10.61,10.61 v 0 V 84 a 10.49,10.49 0 0 1 -9.63,10.46 c -0.31,0.1 -3.37,0.15 -3.71,0.15 H 33.91 c -4,0 -11.47,-3.28 -11.47,-7.32 -1.81,0 -3.28,-10.74 -3.29,-12.55 v -43.1 a 17.65,17.65 0 0 1 0.29,-3.23 10.43,10.43 0 0 1 10.23,-8.54 h 16.55"
       class="cls-100"
       inkscape:connector-curvature="0"
       style="fill:#47568f" />
    <path
       id="path1950"
       transform="translate(-7.17,-7.95)"
       d="m 83.24,19.92 a 10.62,10.62 0 0 1 10.59,10.6 v 0 V 84 a 10.47,10.47 0 0 1 -9.58,10.44 c -0.32,0.1 -3.34,0.16 -3.69,0.16 H 34.07 c -4,0 -11.48,-3.23 -11.48,-7.21 -1.87,0 -3.37,-10.64 -3.39,-12.51 V 31.71 a 17.94,17.94 0 0 1 0.28,-3.23 10.42,10.42 0 0 1 10.22,-8.56 h 17"
       class="cls-100"
       inkscape:connector-curvature="0"
       style="fill:#47568f" />
    <path
       id="path1952"
       transform="translate(-7.17,-7.95)"
       d="m 83.19,20 a 10.6,10.6 0 0 1 10.58,10.56 v 0 53.35 a 10.46,10.46 0 0 1 -9.54,10.41 c -0.33,0.1 -3.32,0.16 -3.68,0.16 H 34.23 c -3.92,0 -11.49,-3.18 -11.49,-7.1 -1.92,0 -3.47,-10.54 -3.48,-12.46 V 31.79 A 18.25,18.25 0 0 1 19.54,28.55 10.4,10.4 0 0 1 29.75,20 h 17.51"
       class="cls-101"
       inkscape:connector-curvature="0"
       style="fill:#485690" />
    <path
       id="path1954"
       transform="translate(-7.17,-7.95)"
       d="m 83.15,20 a 10.58,10.58 0 0 1 10.56,10.6 v 0 53.27 a 10.44,10.44 0 0 1 -9.5,10.39 c -0.34,0.11 -3.3,0.17 -3.67,0.17 H 34.39 c -3.86,0 -11.5,-3.13 -11.5,-7 -2,0 -3.56,-10.45 -3.57,-12.42 V 31.86 A 18.56,18.56 0 0 1 19.59,28.62 10.38,10.38 0 0 1 29.79,20 h 18"
       class="cls-101"
       inkscape:connector-curvature="0"
       style="fill:#485690" />
    <path
       id="path1956"
       transform="translate(-7.17,-7.95)"
       d="m 83.11,20.1 a 10.57,10.57 0 0 1 10.54,10.54 v 0 53.18 A 10.42,10.42 0 0 1 84.2,94.19 c -0.35,0.11 -3.27,0.17 -3.65,0.17 h -46 c -3.8,0 -11.5,-3.08 -11.5,-6.88 -2,0 -3.66,-10.35 -3.67,-12.37 V 31.94 A 18.88,18.88 0 0 1 19.65,28.7 10.36,10.36 0 0 1 29.84,20.1 H 48.3"
       class="cls-102"
       inkscape:connector-curvature="0"
       style="fill:#485791" />
    <path
       id="path1958"
       transform="translate(-7.17,-7.95)"
       d="m 83.06,20.16 a 10.55,10.55 0 0 1 10.53,10.52 v 0 53.1 a 10.4,10.4 0 0 1 -9.41,10.35 c -0.35,0.11 -3.25,0.17 -3.64,0.18 H 34.72 c -3.74,0 -11.51,-3 -11.51,-6.76 -2.07,0 -3.75,-10.25 -3.76,-12.32 V 32 a 19.21,19.21 0 0 1 0.26,-3.24 10.35,10.35 0 0 1 10.18,-8.61 h 18.92"
       class="cls-102"
       inkscape:connector-curvature="0"
       style="fill:#485791" />
    <path
       id="path1960"
       transform="translate(-7.17,-7.95)"
       d="m 83,20.22 a 10.53,10.53 0 0 1 10.53,10.51 v 0 53 a 10.38,10.38 0 0 1 -9.36,10.33 c -0.36,0.11 -3.23,0.18 -3.63,0.18 H 34.88 c -3.67,0 -11.52,-3 -11.52,-6.65 -2.12,0 -3.84,-10.15 -3.86,-12.28 V 32.09 a 19.55,19.55 0 0 1 0.26,-3.24 10.33,10.33 0 0 1 10.16,-8.63 h 19.4"
       class="cls-103"
       inkscape:connector-curvature="0"
       style="fill:#495791" />
    <path
       id="path1962"
       transform="translate(-7.17,-7.95)"
       d="m 83,20.27 a 10.52,10.52 0 0 1 10.47,10.5 v 0 52.91 A 10.36,10.36 0 0 1 84.15,94 c -0.37,0.12 -3.2,0.18 -3.61,0.18 H 35 c -3.61,0 -11.53,-2.93 -11.53,-6.54 -2.18,0 -3.94,-10.05 -4,-12.23 V 32.16 A 19.91,19.91 0 0 1 19.72,28.91 10.31,10.31 0 0 1 30,20.27 h 19.85"
       class="cls-104"
       inkscape:connector-curvature="0"
       style="fill:#495792" />
    <path
       id="path1964"
       transform="translate(-7.17,-7.95)"
       d="m 82.93,20.33 a 10.5,10.5 0 0 1 10.48,10.48 v 0 52.83 a 10.35,10.35 0 0 1 -9.27,10.29 c -0.38,0.12 -3.18,0.19 -3.6,0.19 H 35.2 c -3.55,0 -11.53,-2.88 -11.53,-6.43 -2.23,0 -4,-10 -4,-12.18 V 32.24 A 20.27,20.27 0 0 1 19.88,29 10.3,10.3 0 0 1 30,20.33 h 20.37"
       class="cls-105"
       inkscape:connector-curvature="0"
       style="fill:#495892" />
    <path
       id="path1966"
       transform="translate(-7.17,-7.95)"
       d="m 82.89,20.39 a 10.49,10.49 0 0 1 10.46,10.46 v 0 52.74 a 10.33,10.33 0 0 1 -9.23,10.27 35.1,35.1 0 0 1 -3.59,0.19 H 35.37 c -3.49,0 -11.54,-2.83 -11.54,-6.32 -2.28,0 -4.12,-9.86 -4.14,-12.14 V 32.31 a 20.65,20.65 0 0 1 0.25,-3.25 10.28,10.28 0 0 1 10.13,-8.67 h 20.82"
       class="cls-106"
       inkscape:connector-curvature="0"
       style="fill:#495893" />
    <path
       id="path1968"
       transform="translate(-7.17,-7.95)"
       d="m 82.85,20.45 a 10.47,10.47 0 0 1 10.44,10.44 v 0 52.66 a 10.31,10.31 0 0 1 -9.18,10.24 34.06,34.06 0 0 1 -3.57,0.2 h -45 C 32.1,94 24,91.21 24,87.78 c -2.33,0 -4.22,-9.76 -4.23,-12.09 V 32.39 A 21,21 0 0 1 20,29.14 10.26,10.26 0 0 1 30.12,20.45 H 51.4"
       class="cls-106"
       inkscape:connector-curvature="0"
       style="fill:#495893" />
    <path
       id="path1970"
       transform="translate(-7.17,-7.95)"
       d="m 82.8,20.51 a 10.45,10.45 0 0 1 10.43,10.42 v 0 52.57 a 10.29,10.29 0 0 1 -9.14,10.22 33.07,33.07 0 0 1 -3.56,0.2 H 35.69 c -3.37,0 -11.56,-2.73 -11.56,-6.1 -2.38,0 -4.31,-9.66 -4.33,-12 V 32.46 a 21.46,21.46 0 0 1 0.2,-3.25 10.25,10.25 0 0 1 10.11,-8.7 h 21.81"
       class="cls-107"
       inkscape:connector-curvature="0"
       style="fill:#4a5894" />
    <path
       id="path1972"
       transform="translate(-7.17,-7.95)"
       d="M 82.76,20.57 A 10.44,10.44 0 0 1 93.17,31 v 0 52.46 a 10.28,10.28 0 0 1 -9.09,10.2 32.11,32.11 0 0 1 -3.55,0.21 H 35.85 c -3.31,0 -11.57,-2.68 -11.57,-6 -2.44,0 -4.41,-9.56 -4.42,-12 V 32.54 a 21.88,21.88 0 0 1 0.23,-3.26 10.23,10.23 0 0 1 10.1,-8.71 h 22.25"
       class="cls-108"
       inkscape:connector-curvature="0"
       style="fill:#4a5994" />
    <path
       id="path1974"
       transform="translate(-7.17,-7.95)"
       d="M 82.71,20.63 A 10.42,10.42 0 0 1 93.11,31 v 0 52.4 a 10.26,10.26 0 0 1 -9,10.18 31.2,31.2 0 0 1 -3.53,0.21 H 36 c -3.25,0 -11.57,-2.63 -11.57,-5.88 -2.49,0 -4.5,-9.47 -4.51,-12 v -43.3 a 22.32,22.32 0 0 1 0.23,-3.26 10.21,10.21 0 0 1 10.09,-8.73 H 53"
       class="cls-108"
       inkscape:connector-curvature="0"
       style="fill:#4a5994" />
    <path
       id="path1976"
       transform="translate(-7.17,-7.95)"
       d="M 82.67,20.68 A 10.4,10.4 0 0 1 93,31.06 v 0 52.31 a 10.24,10.24 0 0 1 -9,10.16 30.33,30.33 0 0 1 -3.52,0.22 H 36.18 C 33,93.74 24.6,91.16 24.6,88 22.06,88 20,78.61 20,76.07 V 32.69 a 22.78,22.78 0 0 1 0.22,-3.26 10.2,10.2 0 0 1 10.08,-8.74 h 23.18"
       class="cls-109"
       inkscape:connector-curvature="0"
       style="fill:#4a5995" />
    <path
       id="path1978"
       transform="translate(-7.17,-7.95)"
       d="M 82.63,20.74 A 10.39,10.39 0 0 1 93,31.1 v 0 52.22 a 10.22,10.22 0 0 1 -9,10.14 29.5,29.5 0 0 1 -3.51,0.22 H 36.34 c -3.12,0 -11.59,-2.53 -11.59,-5.66 -2.59,0 -4.69,-9.27 -4.7,-11.86 V 32.76 A 23.25,23.25 0 0 1 20.27,29.5 10.18,10.18 0 0 1 30.34,20.74 H 54"
       class="cls-109"
       inkscape:connector-curvature="0"
       style="fill:#4a5995" />
    <path
       id="path1980"
       transform="translate(-7.17,-7.95)"
       d="m 82.58,20.8 a 10.37,10.37 0 0 1 10.35,10.34 v 0 52.14 A 10.21,10.21 0 0 1 84,93.4 28.7,28.7 0 0 1 80.5,93.62 h -44 c -3.06,0 -11.6,-2.48 -11.6,-5.54 -2.64,0 -4.78,-9.17 -4.8,-11.81 V 32.84 a 23.75,23.75 0 0 1 0.22,-3.26 10.17,10.17 0 0 1 10.06,-8.78 h 24.13"
       class="cls-110"
       inkscape:connector-curvature="0"
       style="fill:#4b5a96" />
    <path
       id="path1982"
       transform="translate(-7.17,-7.95)"
       d="m 82.54,20.86 a 10.36,10.36 0 0 1 10.33,10.32 v 0 52 A 10.19,10.19 0 0 1 84,93.33 27.93,27.93 0 0 1 80.52,93.56 H 36.66 c -3,0 -11.6,-2.43 -11.6,-5.43 -2.69,0 -4.87,-9.07 -4.89,-11.77 V 32.91 a 24.26,24.26 0 0 1 0.21,-3.26 10.15,10.15 0 0 1 10,-8.79 H 55"
       class="cls-110"
       inkscape:connector-curvature="0"
       style="fill:#4b5a96" />
    <path
       id="path1984"
       transform="translate(-7.17,-7.95)"
       d="m 82.5,20.92 a 10.34,10.34 0 0 1 10.31,10.31 v 0 52 A 10.17,10.17 0 0 1 84,93.26 27.19,27.19 0 0 1 80.53,93.49 H 36.82 c -2.94,0 -11.61,-2.38 -11.61,-5.32 -2.75,0 -5,-9 -5,-11.72 V 33 a 24.8,24.8 0 0 1 0.21,-3.27 10.13,10.13 0 0 1 10,-8.8 h 25.13"
       class="cls-111"
       inkscape:connector-curvature="0"
       style="fill:#4b5a97" />
    <path
       id="path1986"
       transform="translate(-7.17,-7.95)"
       d="m 82.45,21 a 10.32,10.32 0 0 1 10.3,10.27 v 0 51.87 A 10.16,10.16 0 0 1 84,93.2 26.48,26.48 0 0 1 80.54,93.44 H 37 c -2.88,0 -11.62,-2.33 -11.62,-5.21 -2.8,0 -5.06,-8.88 -5.08,-11.67 v -43.5 a 25.36,25.36 0 0 1 0.2,-3.27 10.12,10.12 0 0 1 10,-8.82 h 25.57"
       class="cls-111"
       inkscape:connector-curvature="0"
       style="fill:#4b5a97" />
    <path
       id="path1988"
       transform="translate(-7.17,-7.95)"
       d="m 82.41,21 a 10.31,10.31 0 0 1 10.28,10.31 v 0 51.79 a 10.14,10.14 0 0 1 -8.73,10 25.79,25.79 0 0 1 -3.44,0.24 H 37.15 c -2.82,0 -11.63,-2.28 -11.63,-5.1 -2.85,0 -5.16,-8.78 -5.17,-11.63 V 33.14 a 25.94,25.94 0 0 1 0.2,-3.27 10.1,10.1 0 0 1 10,-8.83 h 26"
       class="cls-112"
       inkscape:connector-curvature="0"
       style="fill:#4b5b97" />
    <path
       id="path1990"
       transform="translate(-7.17,-7.95)"
       d="m 82.37,21.09 a 10.29,10.29 0 0 1 10.26,10.26 v 0 51.7 a 10.12,10.12 0 0 1 -8.69,10 25.13,25.13 0 0 1 -3.43,0.25 h -43.2 c -2.76,0 -11.64,-2.23 -11.64,-5 -2.9,0 -5.25,-8.68 -5.27,-11.58 V 33.21 a 26.55,26.55 0 0 1 0.19,-3.27 10.09,10.09 0 0 1 10,-8.85 H 57.1"
       class="cls-113"
       inkscape:connector-curvature="0"
       style="fill:#4c5b98" />
    <path
       id="path1992"
       transform="translate(-7.17,-7.95)"
       d="m 82.32,21.15 a 10.27,10.27 0 0 1 10.25,10.24 v 0 V 83 a 10.11,10.11 0 0 1 -8.64,10 24.5,24.5 0 0 1 -3.42,0.25 h -43 c -2.69,0 -11.64,-2.18 -11.64,-4.88 -3,0 -5.34,-8.58 -5.36,-11.54 V 33.29 a 27.19,27.19 0 0 1 0.15,-3.29 10.07,10.07 0 0 1 10,-8.86 h 27"
       class="cls-113"
       inkscape:connector-curvature="0"
       style="fill:#4c5b98" />
    <path
       id="path1994"
       transform="translate(-7.17,-7.95)"
       d="M 82.28,21.21 A 10.26,10.26 0 0 1 92.5,31.43 v 0 V 83 a 10.09,10.09 0 0 1 -8.6,10 23.89,23.89 0 0 1 -3.4,0.26 H 37.63 C 35,93.19 26,91.05 26,88.42 c -3,0 -5.44,-8.48 -5.46,-11.49 V 33.36 a 27.86,27.86 0 0 1 0.19,-3.28 10.06,10.06 0 0 1 10,-8.87 h 27.41"
       class="cls-114"
       inkscape:connector-curvature="0"
       style="fill:#4c5b99" />
    <path
       id="path1996"
       transform="translate(-7.17,-7.95)"
       d="m 82.24,21.27 a 10.24,10.24 0 0 1 10.2,10.21 v 0 51.44 a 10.08,10.08 0 0 1 -8.55,9.95 23.3,23.3 0 0 1 -3.39,0.26 H 37.8 c -2.57,0 -11.66,-2.09 -11.66,-4.66 -3.06,0 -5.53,-8.39 -5.55,-11.44 V 33.44 a 28.56,28.56 0 0 1 0.18,-3.28 10,10 0 0 1 10,-8.89 h 27.89"
       class="cls-115"
       inkscape:connector-curvature="0"
       style="fill:#4c5c99" />
    <path
       id="path1998"
       transform="translate(-7.17,-7.95)"
       d="m 82.19,21.33 a 10.23,10.23 0 0 1 10.19,10.19 v 0 51.35 a 10.06,10.06 0 0 1 -8.51,9.93 22.73,22.73 0 0 1 -3.38,0.26 H 38 c -2.51,0 -11.67,-2 -11.67,-4.55 -3.11,0 -5.62,-8.29 -5.64,-11.4 v -43.6 a 29.29,29.29 0 0 1 0.18,-3.28 10,10 0 0 1 10,-8.9 h 28.4"
       class="cls-116"
       inkscape:connector-curvature="0"
       style="fill:#4c5c9a" />
    <path
       id="path2000"
       transform="translate(-7.17,-7.95)"
       d="m 82.15,21.39 a 10.21,10.21 0 0 1 10.17,10.17 v 0 51.27 A 10,10 0 0 1 83.86,92.73 22.18,22.18 0 0 1 80.5,93 H 38.12 c -2.45,0 -11.67,-2 -11.67,-4.44 -3.16,0 -5.72,-8.19 -5.74,-11.35 V 33.59 a 30.06,30.06 0 0 1 0.17,-3.28 10,10 0 0 1 9.94,-8.92 h 28.87"
       class="cls-117"
       inkscape:connector-curvature="0"
       style="fill:#4d5c9a" />
    <path
       id="path2002"
       transform="translate(-7.17,-7.95)"
       d="M 82.11,21.44 A 10.19,10.19 0 0 1 92.26,31.6 v 0 51.18 a 10,10 0 0 1 -8.42,9.88 21.64,21.64 0 0 1 -3.35,0.27 H 38.28 c -2.39,0 -11.68,-1.94 -11.68,-4.32 -3.21,0 -5.81,-8.09 -5.83,-11.3 V 33.66 a 30.87,30.87 0 0 1 0.17,-3.28 10,10 0 0 1 9.93,-8.93 h 29.34"
       class="cls-117"
       inkscape:connector-curvature="0"
       style="fill:#4d5c9a" />
    <path
       id="path2004"
       transform="translate(-7.17,-7.95)"
       d="M 82.06,21.5 A 10.18,10.18 0 0 1 92.2,31.64 v 0 51.1 a 10,10 0 0 1 -8.37,9.86 21.13,21.13 0 0 1 -3.34,0.28 h -42 c -2.33,0 -11.69,-1.89 -11.69,-4.21 -3.26,0 -5.91,-8 -5.93,-11.26 V 33.73 A 31.72,31.72 0 0 1 21,30.45 10,10 0 0 1 30.92,21.5 h 29.81"
       class="cls-118"
       inkscape:connector-curvature="0"
       style="fill:#4d5d9b" />
    <path
       id="path2006"
       transform="translate(-7.17,-7.95)"
       d="m 82,21.56 a 10.16,10.16 0 0 1 10.14,10.12 v 0 51 a 10,10 0 0 1 -8.33,9.84 20.63,20.63 0 0 1 -3.32,0.28 H 38.61 c -2.27,0 -11.7,-1.84 -11.7,-4.1 -3.32,0 -6,-7.9 -6,-11.21 V 33.81 a 32.62,32.62 0 0 1 0.09,-3.29 10,10 0 0 1 9.91,-9 h 30.34"
       class="cls-118"
       inkscape:connector-curvature="0"
       style="fill:#4d5d9b" />
    <path
       id="path2008"
       transform="translate(-7.17,-7.95)"
       d="m 82,21.62 a 10.14,10.14 0 0 1 10.08,10.11 v 0 50.92 a 10,10 0 0 1 -8.28,9.82 20.15,20.15 0 0 1 -3.31,0.29 H 38.77 c -2.2,0 -11.71,-1.79 -11.71,-4 C 23.7,88.74 21,81 20.95,77.6 V 33.88 c 0,-0.39 0.05,-2.93 0.16,-3.29 a 10,10 0 0 1 9.9,-9 h 30.76"
       class="cls-119"
       inkscape:connector-curvature="0"
       style="fill:#4e5d9c" />
    <path
       id="path2010"
       transform="translate(-7.17,-7.95)"
       d="M 81.93,21.68 A 10.13,10.13 0 0 1 92,31.77 v 0 50.83 a 10,10 0 0 1 -8.24,9.8 19.69,19.69 0 0 1 -3.3,0.29 H 38.93 c -2.14,0 -11.71,-1.74 -11.71,-3.88 -3.42,0 -6.19,-7.7 -6.21,-11.12 V 34 c 0,-0.38 0.05,-2.94 0.15,-3.29 a 9.94,9.94 0 0 1 9.89,-9 h 31.23"
       class="cls-119"
       inkscape:connector-curvature="0"
       style="fill:#4e5d9c" />
    <path
       id="path2012"
       transform="translate(-7.17,-7.95)"
       d="M 81.89,21.74 A 10.11,10.11 0 0 1 92,31.81 v 0 50.75 a 10,10 0 0 1 -8.19,9.78 19.24,19.24 0 0 1 -3.28,0.3 H 39.09 c -2.08,0 -11.72,-1.69 -11.72,-3.77 -3.47,0 -6.28,-7.6 -6.3,-11.07 V 34 c 0,-0.37 0,-3 0.15,-3.29 a 9.93,9.93 0 0 1 9.88,-9 h 31.7"
       class="cls-120"
       inkscape:connector-curvature="0"
       style="fill:#4e5e9d" />
    <path
       id="path2014"
       transform="translate(-7.17,-7.95)"
       d="M 81.85,21.8 A 10.1,10.1 0 0 1 91.9,31.85 v 0 50.66 a 9.94,9.94 0 0 1 -8.15,9.76 18.8,18.8 0 0 1 -3.27,0.3 H 39.25 c -2,0 -11.73,-1.64 -11.73,-3.66 -3.52,0 -6.37,-7.5 -6.4,-11 v -43.8 c 0,-0.36 0,-3 0.14,-3.29 a 9.91,9.91 0 0 1 9.87,-9 h 32.19"
       class="cls-120"
       inkscape:connector-curvature="0"
       style="fill:#4e5e9d" />
    <path
       id="path2016"
       transform="translate(-7.17,-7.95)"
       d="m 81.8,21.85 a 10.08,10.08 0 0 1 10,10 v 0 50.62 a 9.92,9.92 0 0 1 -8.1,9.73 18.38,18.38 0 0 1 -3.26,0.3 H 39.42 c -2,0 -11.74,-1.59 -11.74,-3.55 -3.58,0 -6.47,-7.41 -6.49,-11 V 34.18 c 0,-0.35 0,-3 0.14,-3.3 a 9.9,9.9 0 0 1 9.85,-9 h 32.66"
       class="cls-120"
       inkscape:connector-curvature="0"
       style="fill:#4e5e9d" />
    <path
       id="path2018"
       transform="translate(-7.17,-7.95)"
       d="m 81.76,21.91 a 10.06,10.06 0 0 1 10,10 v 0 50.51 a 9.91,9.91 0 0 1 -8.06,9.71 18,18 0 0 1 -3.24,0.31 H 39.58 C 37.68,92.44 27.84,90.9 27.84,89 24.21,89 21.28,81.69 21.26,78.07 V 34.26 c 0,-0.34 0,-3 0.13,-3.3 a 9.88,9.88 0 0 1 9.84,-9 h 33.13"
       class="cls-121"
       inkscape:connector-curvature="0"
       style="fill:#4f5e9e" />
    <path
       id="path2020"
       transform="translate(-7.17,-7.95)"
       d="m 81.72,22 a 10,10 0 0 1 10,10 v 0 50.4 a 9.89,9.89 0 0 1 -8,9.69 17.57,17.57 0 0 1 -3.23,0.31 H 39.74 C 37.9,92.38 28,90.89 28,89.06 c -3.68,0 -6.66,-7.21 -6.68,-10.89 V 34.33 c 0,-0.33 0,-3 0.13,-3.3 A 9.87,9.87 0 0 1 31.27,22 h 33.6"
       class="cls-122"
       inkscape:connector-curvature="0"
       style="fill:#4f5f9e" />
    <path
       id="path2022"
       transform="translate(-7.17,-7.95)"
       d="m 81.67,22 a 10,10 0 0 1 10,10 v 0 50.33 a 9.88,9.88 0 0 1 -8,9.67 17.18,17.18 0 0 1 -3.22,0.32 H 39.9 c -1.78,0 -11.76,-1.44 -11.76,-3.22 -3.73,0 -6.75,-7.11 -6.77,-10.84 V 34.41 c 0,-0.32 0,-3 0.13,-3.3 A 9.86,9.86 0 0 1 31.32,22 h 34.07"
       class="cls-123"
       inkscape:connector-curvature="0"
       style="fill:#4f5f9f" />
    <path
       id="path2024"
       transform="translate(-7.17,-7.95)"
       d="m 81.63,22.09 a 10,10 0 0 1 10,10 v 0 50.2 a 9.87,9.87 0 0 1 -7.93,9.65 16.81,16.81 0 0 1 -3.2,0.32 H 40.07 c -1.71,0 -11.77,-1.39 -11.77,-3.1 -3.78,0 -6.84,-7 -6.87,-10.8 V 34.48 c 0,-0.3 0,-3 0.12,-3.3 a 9.84,9.84 0 0 1 9.81,-9.09 h 34.55"
       class="cls-123"
       inkscape:connector-curvature="0"
       style="fill:#4f5f9f" />
    <path
       id="path2026"
       transform="translate(-7.17,-7.95)"
       d="m 81.59,22.15 a 10,10 0 0 1 10,10 v 0 50.09 a 9.85,9.85 0 0 1 -7.88,9.63 16.45,16.45 0 0 1 -3.19,0.33 H 40.23 c -1.65,0 -11.78,-1.34 -11.78,-3 -3.83,0 -6.94,-6.92 -7,-10.75 V 34.56 c 0,-0.29 0,-3 0.12,-3.3 a 9.83,9.83 0 0 1 9.8,-9.11 h 35"
       class="cls-124"
       inkscape:connector-curvature="0"
       style="fill:#4f5fa0" />
    <path
       id="path2028"
       transform="translate(-7.17,-7.95)"
       d="m 81.54,22.21 a 10,10 0 0 1 9.94,9.94 v 0 50.05 a 9.84,9.84 0 0 1 -7.84,9.61 16.09,16.09 0 0 1 -3.18,0.33 H 40.39 c -1.59,0 -11.78,-1.29 -11.78,-2.88 -3.89,0 -7,-6.82 -7.05,-10.7 V 34.63 c 0,-0.28 0,-3 0.11,-3.31 a 9.82,9.82 0 0 1 9.79,-9.12 h 35.5"
       class="cls-125"
       inkscape:connector-curvature="0"
       style="fill:#5060a0" />
    <path
       id="path2030"
       transform="translate(-7.17,-7.95)"
       d="m 81.5,22.26 a 10,10 0 0 1 9.92,9.92 v 0 50 a 9.83,9.83 0 0 1 -7.79,9.59 15.75,15.75 0 0 1 -3.16,0.33 H 40.55 c -1.53,0 -11.79,-1.24 -11.79,-2.77 -3.94,0 -7.12,-6.72 -7.15,-10.66 V 34.71 c 0,-0.27 0,-3.06 0.11,-3.31 a 9.8,9.8 0 0 1 9.78,-9.14 h 36"
       class="cls-125"
       inkscape:connector-curvature="0"
       style="fill:#5060a0" />
    <path
       id="path2032"
       transform="translate(-7.17,-7.95)"
       d="m 81.46,22.32 a 10,10 0 0 1 9.9,9.9 v 0 49.89 a 9.81,9.81 0 0 1 -7.75,9.56 15.42,15.42 0 0 1 -3.15,0.34 H 40.71 c -1.47,0 -11.8,-1.19 -11.8,-2.66 -4,0 -7.22,-6.62 -7.24,-10.61 v -44 c 0,-0.26 0,-3.07 0.1,-3.31 a 9.79,9.79 0 0 1 9.77,-9.15 H 68"
       class="cls-126"
       inkscape:connector-curvature="0"
       style="fill:#5060a1" />
    <path
       id="path2034"
       transform="translate(-7.17,-7.95)"
       d="m 81.41,22.38 a 9.93,9.93 0 0 1 9.89,9.89 v 0 49.79 a 9.8,9.8 0 0 1 -7.7,9.54 15.09,15.09 0 0 1 -3.14,0.34 H 40.88 c -1.41,0 -11.81,-1.14 -11.81,-2.55 -4,0 -7.31,-6.52 -7.34,-10.56 v -44 c 0,-0.25 0,-3.08 0.1,-3.31 a 9.78,9.78 0 0 1 9.75,-9.17 H 68.5"
       class="cls-126"
       inkscape:connector-curvature="0"
       style="fill:#5060a1" />
    <path
       id="path2036"
       transform="translate(-7.17,-7.95)"
       d="m 81.37,22.44 a 9.92,9.92 0 0 1 9.87,9.87 v 0 V 82 a 9.79,9.79 0 0 1 -7.66,9.52 14.78,14.78 0 0 1 -3.12,0.35 H 41 c -1.35,0 -11.81,-1.09 -11.81,-2.44 -4.09,0 -7.41,-6.42 -7.43,-10.52 v -44 c 0,-0.24 0,-3.09 0.1,-3.31 A 9.76,9.76 0 0 1 31.6,22.42 H 69"
       class="cls-127"
       inkscape:connector-curvature="0"
       style="fill:#5061a2" />
    <path
       id="path2038"
       transform="translate(-7.17,-7.95)"
       d="m 81.33,22.5 a 9.9,9.9 0 0 1 9.85,9.85 v 0 V 82 a 9.77,9.77 0 0 1 -7.61,9.5 14.47,14.47 0 0 1 -3.11,0.35 H 41.2 c -1.29,0 -11.82,-1 -11.82,-2.33 -4.15,0 -7.5,-6.33 -7.52,-10.47 V 35 c 0,-0.23 0,-3.11 0.09,-3.32 a 9.75,9.75 0 0 1 9.73,-9.19 h 37.86"
       class="cls-128"
       inkscape:connector-curvature="0"
       style="fill:#5161a2" />
    <path
       id="path2040"
       transform="translate(-7.17,-7.95)"
       d="m 81.28,22.56 a 9.88,9.88 0 0 1 9.84,9.84 v 0 49.53 a 9.76,9.76 0 0 1 -7.57,9.48 14.17,14.17 0 0 1 -3.1,0.36 H 41.36 c -1.22,0 -11.83,-1 -11.83,-2.22 -4.2,0 -7.59,-6.23 -7.62,-10.43 v -44 c 0,-0.22 0,-3.12 0.09,-3.32 a 9.74,9.74 0 0 1 9.72,-9.21 h 38.34"
       class="cls-128"
       inkscape:connector-curvature="0"
       style="fill:#5161a2" />
    <path
       id="path2042"
       transform="translate(-7.17,-7.95)"
       d="m 81.24,22.61 a 9.87,9.87 0 0 1 9.82,9.82 v 0 49.45 a 9.75,9.75 0 0 1 -7.52,9.46 13.88,13.88 0 0 1 -3.08,0.36 H 41.52 c -1.16,0 -11.84,-0.94 -11.84,-2.11 -4.25,0 -7.69,-6.13 -7.71,-10.38 V 35.16 c 0,-0.21 0,-3.13 0.08,-3.32 a 9.72,9.72 0 0 1 9.71,-9.22 h 38.81"
       class="cls-129"
       inkscape:connector-curvature="0"
       style="fill:#5161a3" />
    <path
       id="path2044"
       transform="translate(-7.17,-7.95)"
       d="m 81.2,22.67 a 9.85,9.85 0 0 1 9.8,9.8 v 0 49.37 a 9.74,9.74 0 0 1 -7.48,9.44 13.6,13.6 0 0 1 -3.07,0.37 H 41.69 c -1.1,0 -11.85,-0.89 -11.85,-2 -4.3,0 -7.78,-6 -7.81,-10.33 V 35.23 c 0,-0.2 0,-3.14 0.08,-3.32 a 9.71,9.71 0 0 1 9.7,-9.24 h 39.28"
       class="cls-130"
       inkscape:connector-curvature="0"
       style="fill:#5162a3" />
    <path
       id="path2046"
       transform="translate(-7.17,-7.95)"
       d="m 81.15,22.73 a 9.84,9.84 0 0 1 9.79,9.79 v 0 49.27 a 9.73,9.73 0 0 1 -7.43,9.42 13.32,13.32 0 0 1 -3.06,0.37 h -38.6 c -1,0 -11.85,-0.84 -11.85,-1.89 -4.35,0 -7.87,-5.93 -7.9,-10.29 V 35.31 c 0,-0.19 0,-3.15 0.07,-3.32 a 9.7,9.7 0 0 1 9.69,-9.25 h 39.75"
       class="cls-131"
       inkscape:connector-curvature="0"
       style="fill:#5162a4" />
    <path
       id="path2048"
       transform="translate(-7.17,-7.95)"
       d="m 81.11,22.79 a 9.82,9.82 0 0 1 9.77,9.77 v 0 49.19 a 9.72,9.72 0 0 1 -7.39,9.39 13.05,13.05 0 0 1 -3,0.37 H 42 c -1,0 -11.86,-0.79 -11.86,-1.77 -4.4,0 -8,-5.84 -8,-10.24 V 35.38 c 0,-0.17 0,-3.17 0.07,-3.32 a 9.69,9.69 0 0 1 9.68,-9.27 h 40.24"
       class="cls-132"
       inkscape:connector-curvature="0"
       style="fill:#5262a4" />
    <path
       id="path2050"
       transform="translate(-7.17,-7.95)"
       d="m 81.07,22.85 a 9.8,9.8 0 0 1 9.75,9.75 v 0 49.1 a 9.7,9.7 0 0 1 -7.34,9.37 12.79,12.79 0 0 1 -3,0.38 H 42.17 c -0.92,0 -11.87,-0.74 -11.87,-1.66 -4.46,0 -8.06,-5.74 -8.09,-10.19 V 35.46 c 0,-0.16 0,-3.18 0.06,-3.33 a 9.67,9.67 0 0 1 9.67,-9.28 h 40.7"
       class="cls-133"
       inkscape:connector-curvature="0"
       style="fill:#5262a5" />
    <path
       id="path2052"
       transform="translate(-7.17,-7.95)"
       d="m 81,22.91 a 9.79,9.79 0 0 1 9.74,9.74 v 0 49 a 9.69,9.69 0 0 1 -7.28,9.35 12.54,12.54 0 0 1 -3,0.38 H 42.33 c -0.86,0 -11.88,-0.7 -11.88,-1.55 -4.51,0 -8.15,-5.64 -8.18,-10.15 V 35.53 c 0,-0.15 0,-3.19 0.06,-3.33 A 9.66,9.66 0 0 1 32,22.91 h 41.16"
       class="cls-134"
       inkscape:connector-curvature="0"
       style="fill:#5263a5" />
    <path
       id="path2054"
       transform="translate(-7.17,-7.95)"
       d="m 81,23 a 9.77,9.77 0 0 1 9.72,9.72 v 0 48.89 a 9.68,9.68 0 0 1 -7.25,9.33 12.29,12.29 0 0 1 -3,0.39 H 42.5 c -0.8,0 -11.88,-0.65 -11.88,-1.44 -4.56,0 -8.25,-5.54 -8.28,-10.1 V 35.61 c 0,-0.14 0,-3.2 0.06,-3.33 A 9.65,9.65 0 0 1 32,23 h 41.68"
       class="cls-134"
       inkscape:connector-curvature="0"
       style="fill:#5263a5" />
    <path
       id="path2056"
       transform="translate(-7.17,-7.95)"
       d="m 80.94,23 a 9.75,9.75 0 0 1 9.7,9.7 v 0 48.87 a 9.67,9.67 0 0 1 -7.21,9.31 12,12 0 0 1 -3,0.39 H 42.66 c -0.73,0 -11.89,-0.6 -11.89,-1.33 -4.61,0 -8.34,-5.44 -8.37,-10.06 v -44.2 c 0,-0.13 0,-3.21 0.05,-3.33 A 9.64,9.64 0 0 1 32.08,23 H 74.2"
       class="cls-135"
       inkscape:connector-curvature="0"
       style="fill:#5363a6" />
    <path
       id="path2058"
       transform="translate(-7.17,-7.95)"
       d="m 80.89,23.08 a 9.74,9.74 0 0 1 9.69,9.69 v 0 48.75 a 9.66,9.66 0 0 1 -7.16,9.29 11.81,11.81 0 0 1 -3,0.4 h -37.6 c -0.67,0 -11.9,-0.55 -11.9,-1.22 -4.66,0 -8.44,-5.35 -8.47,-10 V 35.76 c 0,-0.12 0,-3.22 0,-3.33 a 9.63,9.63 0 0 1 9.62,-9.34 h 42.65"
       class="cls-135"
       inkscape:connector-curvature="0"
       style="fill:#5363a6" />
    <path
       id="path2060"
       transform="translate(-7.17,-7.95)"
       d="m 80.85,23.14 a 9.72,9.72 0 0 1 9.67,9.67 v 0 48.67 a 9.65,9.65 0 0 1 -7.12,9.27 11.58,11.58 0 0 1 -3,0.4 H 43 c -0.61,0 -11.91,-0.5 -11.91,-1.11 -4.71,0 -8.53,-5.25 -8.56,-10 V 35.83 c 0,-0.11 0,-3.24 0,-3.34 a 9.61,9.61 0 0 1 9.61,-9.35 h 43.1"
       class="cls-136"
       inkscape:connector-curvature="0"
       style="fill:#5364a7" />
    <path
       id="path2062"
       transform="translate(-7.17,-7.95)"
       d="m 80.81,23.2 a 9.71,9.71 0 0 1 9.65,9.65 v 0 48.58 a 9.64,9.64 0 0 1 -7.07,9.25 11.36,11.36 0 0 1 -3,0.41 H 43.14 c -0.55,0 -11.92,-0.45 -11.92,-1 -4.77,0 -8.62,-5.15 -8.65,-9.92 V 35.91 c 0,-0.1 0,-3.25 0,-3.34 a 9.6,9.6 0 0 1 9.6,-9.37 h 43.58"
       class="cls-136"
       inkscape:connector-curvature="0"
       style="fill:#5364a7" />
    <path
       id="path2064"
       transform="translate(-7.17,-7.95)"
       d="m 80.76,23.26 a 9.69,9.69 0 0 1 9.63,9.63 v 0 48.5 a 9.63,9.63 0 0 1 -7,9.23 11.14,11.14 0 0 1 -2.94,0.41 H 43.31 c -0.49,0 -11.92,-0.4 -11.92,-0.89 -4.82,0 -8.72,-5.05 -8.75,-9.87 V 36 c 0,-0.09 0,-3.26 0,-3.34 a 9.59,9.59 0 0 1 9.59,-9.38 h 44"
       class="cls-137"
       inkscape:connector-curvature="0"
       style="fill:#5364a8" />
    <path
       id="path2066"
       transform="translate(-7.17,-7.95)"
       d="m 80.72,23.32 a 9.67,9.67 0 0 1 9.62,9.62 v 0 48.4 a 9.62,9.62 0 0 1 -7,9.2 10.92,10.92 0 0 1 -2.92,0.41 h -37 c -0.43,0 -11.93,-0.35 -11.93,-0.78 -4.87,0 -8.81,-5 -8.84,-9.82 V 36.06 c 0,-0.08 0,-3.27 0,-3.34 a 9.58,9.58 0 0 1 9.58,-9.4 h 44.56"
       class="cls-138"
       inkscape:connector-curvature="0"
       style="fill:#5464a8" />
    <path
       id="path2068"
       transform="translate(-7.17,-7.95)"
       d="m 80.68,23.38 a 9.66,9.66 0 0 1 9.6,9.6 v 0 48.32 a 9.61,9.61 0 0 1 -6.94,9.18 10.71,10.71 0 0 1 -2.91,0.42 h -36.8 c -0.37,0 -11.94,-0.3 -11.94,-0.67 -4.92,0 -8.9,-4.86 -8.94,-9.78 V 36.13 c 0,-0.07 0,-3.28 0,-3.34 a 9.57,9.57 0 0 1 9.57,-9.41 h 45"
       class="cls-139"
       inkscape:connector-curvature="0"
       style="fill:#5465a8" />
    <path
       id="path2070"
       transform="translate(-7.17,-7.95)"
       d="M 80.63,23.43 A 9.64,9.64 0 0 1 90.22,33 v 0 48.25 a 9.6,9.6 0 0 1 -6.89,9.16 10.51,10.51 0 0 1 -2.9,0.42 H 43.79 c -0.31,0 -11.95,-0.25 -11.95,-0.55 -5,0 -9,-4.76 -9,-9.73 V 36.21 c 0,-0.05 0,-3.3 0,-3.34 a 9.56,9.56 0 0 1 9.56,-9.43 h 45.43"
       class="cls-140"
       inkscape:connector-curvature="0"
       style="fill:#5465a9" />
    <path
       id="path2072"
       transform="translate(-7.17,-7.95)"
       d="m 80.59,23.49 a 9.62,9.62 0 0 1 9.57,9.57 v 0 48.15 a 9.6,9.6 0 0 1 -6.85,9.14 10.31,10.31 0 0 1 -2.88,0.43 H 44 c -0.24,0 -12,-0.2 -12,-0.44 -5,0 -9.09,-4.66 -9.12,-9.69 V 36.28 c 0,0 0,-3.31 0,-3.35 a 9.54,9.54 0 0 1 9.54,-9.44 h 45.92"
       class="cls-140"
       inkscape:connector-curvature="0"
       style="fill:#5465a9" />
    <path
       id="path2074"
       transform="translate(-7.17,-7.95)"
       d="m 80.55,23.55 a 9.61,9.61 0 0 1 9.55,9.55 v 0 48.06 a 9.59,9.59 0 0 1 -6.8,9.12 10.11,10.11 0 0 1 -2.87,0.43 H 44.12 c -0.18,0 -12,-0.15 -12,-0.33 -5.08,0 -9.19,-4.56 -9.22,-9.64 V 36.36 c 0,0 0,-3.32 0,-3.35 a 9.53,9.53 0 0 1 9.53,-9.46 h 46.43"
       class="cls-141"
       inkscape:connector-curvature="0"
       style="fill:#5465aa" />
    <path
       id="path2076"
       transform="translate(-7.17,-7.95)"
       d="m 80.5,23.61 a 9.59,9.59 0 0 1 9.5,9.53 v 0 48 a 9.58,9.58 0 0 1 -6.76,9.1 9.92,9.92 0 0 1 -2.86,0.44 h -36.1 c -0.12,0 -12,-0.1 -12,-0.22 A 9.62,9.62 0 0 1 23,80.84 V 36.43 c 0,0 0,-3.33 0,-3.35 a 9.52,9.52 0 0 1 9.52,-9.47 h 46.86"
       class="cls-142"
       inkscape:connector-curvature="0"
       style="fill:#5566aa" />
    <path
       id="path2078"
       transform="translate(-7.17,-7.95)"
       d="M 80.46,23.67 A 9.58,9.58 0 0 1 90,33.18 v 0 47.89 a 9.57,9.57 0 0 1 -6.71,9.08 9.74,9.74 0 0 1 -2.84,0.44 h -36 c -0.06,0 -12,0 -12,-0.11 A 9.59,9.59 0 0 1 23.04,80.93 V 36.51 c 0,0 0,-3.34 0,-3.35 a 9.51,9.51 0 0 1 9.51,-9.49 H 79.9"
       class="cls-143"
       inkscape:connector-curvature="0"
       style="fill:#5566ab" />
    <path
       id="path2080"
       transform="translate(-7.17,-7.95)"
       d="m 32.62,23.73 h 47.8 a 9.56,9.56 0 0 1 9.5,9.5 V 81 a 9.56,9.56 0 0 1 -9.5,9.5 H 32.62 A 9.56,9.56 0 0 1 23.12,81 V 33.23 a 9.5,9.5 0 0 1 9.5,-9.5 z"
       class="cls-143"
       inkscape:connector-curvature="0"
       style="fill:#5566ab" />
  </g>
</svg>
