<?xml version="1.0" encoding="UTF-8" standalone="no"?>
<svg
   xmlns:dc="http://purl.org/dc/elements/1.1/"
   xmlns:cc="http://creativecommons.org/ns#"
   xmlns:rdf="http://www.w3.org/1999/02/22-rdf-syntax-ns#"
   xmlns:svg="http://www.w3.org/2000/svg"
   xmlns="http://www.w3.org/2000/svg"
   xmlns:sodipodi="http://sodipodi.sourceforge.net/DTD/sodipodi-0.dtd"
   xmlns:inkscape="http://www.inkscape.org/namespaces/inkscape"
   id="Слой_1"
   data-name="Слой 1"
   viewBox="0 0 98.7 98.7"
   version="1.1"
   sodipodi:docname="color15.svg"
   inkscape:version="0.92.1 r15371">
  <metadata
     id="metadata6255">
    <rdf:RDF>
      <cc:Work
         rdf:about="">
        <dc:format>image/svg+xml</dc:format>
        <dc:type
           rdf:resource="http://purl.org/dc/dcmitype/StillImage" />
      </cc:Work>
    </rdf:RDF>
  </metadata>
  <sodipodi:namedview
     pagecolor="#ffffff"
     bordercolor="#666666"
     borderopacity="1"
     objecttolerance="10"
     gridtolerance="10"
     guidetolerance="10"
     inkscape:pageopacity="0"
     inkscape:pageshadow="2"
     inkscape:window-width="657"
     inkscape:window-height="480"
     id="namedview6253"
     showgrid="false"
     inkscape:zoom="2.3910842"
     inkscape:cx="49.349998"
     inkscape:cy="49.349998"
     inkscape:window-x="0"
     inkscape:window-y="0"
     inkscape:window-maximized="0"
     inkscape:current-layer="Слой_1" />
  <defs
     id="defs5842">
    <style
       id="style5840">.cls-1{fill:#396b60;}.cls-2{fill:#396c60;}.cls-3{fill:#3a6c61;}.cls-4{fill:#3a6d61;}.cls-5{fill:#3a6d62;}.cls-6{fill:#3a6e62;}.cls-7{fill:#3b6e63;}.cls-8{fill:#3b6f63;}.cls-9{fill:#3b6f64;}.cls-10{fill:#3c7064;}.cls-11{fill:#3c7065;}.cls-12{fill:#3c7165;}.cls-13{fill:#3c7166;}.cls-14{fill:#3d7266;}.cls-15{fill:#3d7267;}.cls-16{fill:#3d7367;}.cls-17{fill:#3e7368;}.cls-18{fill:#3e7468;}.cls-19{fill:#3e7469;}.cls-20{fill:#3e7569;}.cls-21{fill:#3f756a;}.cls-22{fill:#3f766a;}.cls-23{fill:#3f776a;}.cls-24{fill:#40776b;}.cls-25{fill:#40786b;}.cls-26{fill:#40786c;}.cls-27{fill:#40796c;}.cls-28{fill:#41796d;}.cls-29{fill:#417a6d;}.cls-30{fill:#417a6e;}.cls-31{fill:#427b6e;}.cls-32{fill:#427b6f;}.cls-33{fill:#427c6f;}.cls-34{fill:#427c70;}.cls-35{fill:#437d70;}.cls-36{fill:#437d71;}.cls-37{fill:#437e71;}.cls-38{fill:#447e72;}.cls-39{fill:#447f72;}.cls-40{fill:#447f73;}.cls-41{fill:#448073;}.cls-42{fill:#458173;}.cls-43{fill:#458174;}.cls-44{fill:#458274;}.cls-45{fill:#468275;}.cls-46{fill:#468375;}.cls-47{fill:#468376;}.cls-48{fill:#468476;}.cls-49{fill:#478477;}.cls-50{fill:#478577;}.cls-51{fill:#478578;}.cls-52{fill:#488678;}.cls-53{fill:#488679;}.cls-54{fill:#488779;}.cls-55{fill:#49877a;}.cls-56{fill:#49887a;}.cls-57{fill:#49887b;}.cls-58{fill:#49897b;}.cls-59{fill:#4a897c;}.cls-60{fill:#4a8a7c;}.cls-61{fill:#4a8a7d;}.cls-62{fill:#4b8b7d;}.cls-63{fill:#4b8c7d;}.cls-64{fill:#4b8c7e;}.cls-65{fill:#4b8d7e;}.cls-66{fill:#4c8d7f;}.cls-67{fill:#4c8e7f;}.cls-68{fill:#4c8e80;}.cls-69{fill:#4d8f80;}.cls-70{fill:#4d8f81;}.cls-71{fill:#4d9081;}.cls-72{fill:#4d9082;}.cls-73{fill:#4e9182;}.cls-74{fill:#4e9183;}.cls-75{fill:#4e9283;}.cls-76{fill:#4f9284;}.cls-77{fill:#4f9384;}.cls-78{fill:#4f9385;}.cls-79{fill:#4f9485;}.cls-80{fill:#509486;}.cls-81{fill:#509586;}.cls-82{fill:#509686;}.cls-83{fill:#519687;}.cls-84{fill:#519787;}.cls-85{fill:#519788;}.cls-86{fill:#519888;}.cls-87{fill:#529889;}.cls-88{fill:#529989;}.cls-89{fill:#52998a;}.cls-90{fill:#539a8a;}.cls-91{fill:#539a8b;}.cls-92{fill:#539b8b;}.cls-93{fill:#539b8c;}.cls-94{fill:#549c8c;}.cls-95{fill:#549c8d;}.cls-96{fill:#549d8d;}.cls-97{fill:#559d8e;}.cls-98{fill:#559e8e;}.cls-99{fill:#559e8f;}.cls-100{fill:#559f8f;}.cls-101{fill:#569f90;}.cls-102{fill:#56a090;}.cls-103{fill:#56a190;}.cls-104{fill:#57a191;}.cls-105{fill:#57a291;}.cls-106{fill:#57a292;}.cls-107{fill:#57a392;}.cls-108{fill:#58a393;}.cls-109{fill:#58a493;}.cls-110{fill:#58a494;}.cls-111{fill:#58a594;}.cls-112{fill:#59a595;}.cls-113{fill:#59a695;}.cls-114{fill:#59a696;}.cls-115{fill:#5aa796;}.cls-116{fill:#5aa797;}.cls-117{fill:#5aa897;}.cls-118{fill:#5aa898;}.cls-119{fill:#5ba998;}.cls-120{fill:#5ba999;}.cls-121{fill:#5baa99;}.cls-122{fill:#5caa9a;}.cls-123{fill:#5cab9a;}.cls-124{fill:#5cac9a;}.cls-125{fill:#5cac9b;}.cls-126{fill:#5dad9b;}.cls-127{fill:#5dad9c;}.cls-128{fill:#5dae9c;}.cls-129{fill:#5dae9d;}.cls-130{fill:#5eaf9d;}.cls-131{fill:#5eaf9e;}.cls-132{fill:#5eb09e;}.cls-133{fill:#5fb09f;}.cls-134{fill:#5fb19f;}.cls-135{fill:#5fb1a0;}.cls-136{fill:#5fb2a0;}.cls-137{fill:#60b2a1;}.cls-138{fill:#60b3a1;}.cls-139{fill:#60b3a2;}.cls-140{fill:#61b4a2;}.cls-141{fill:#61b4a3;}.cls-142{fill:#61b5a3;}.cls-143{fill:#61b6a3;}.cls-144{fill:#62b6a4;}.cls-145{fill:#62b7a4;}.cls-146{fill:#62b7a5;}.cls-147{fill:#62b8a5;}.cls-148{fill:#63b8a6;}.cls-149{fill:#63b9a6;}.cls-150{fill:#63b9a7;}.cls-151{fill:#64baa7;}.cls-152{fill:#64baa8;}.cls-153{fill:#64bba8;}.cls-154{fill:#64bba9;}.cls-155{fill:#65bca9;}.cls-156{fill:#65bcaa;}.cls-157{fill:#65bdaa;}.cls-158{fill:#66bdab;}.cls-159{fill:#66beab;}.cls-160{fill:#66beac;}.cls-161{fill:#66bfac;}.cls-162{fill:#67bfad;}.cls-163{fill:#67c0ad;}.cls-164{fill:#67c1ad;}.cls-165{fill:#67c1ae;}.cls-166{fill:#68c2ae;}.cls-167{fill:#68c2af;}.cls-168{fill:#68c3af;}.cls-169{fill:#69c3b0;}.cls-170{fill:#69c4b0;}.cls-171{fill:#69c4b1;}.cls-172{fill:#69c5b1;}.cls-173{fill:#6ac5b2;}.cls-174{fill:#6ac6b2;}.cls-175{fill:#6ac6b3;}.cls-176{fill:#6bc7b3;}.cls-177{fill:#6bc7b4;}.cls-178{fill:#6bc8b4;}.cls-179{fill:#6bc8b5;}.cls-180{fill:#6cc9b5;}.cls-181{fill:#6cc9b6;}.cls-182{fill:#6ccab6;}.cls-183{fill:#6ccbb6;}.cls-184{fill:#6dcbb7;}.cls-185{fill:#6dccb7;}.cls-186{fill:#6dccb8;}.cls-187{fill:#6ecdb8;}.cls-188{fill:#6ecdb9;}.cls-189{fill:#6eceb9;}.cls-190{fill:#6eceba;}.cls-191{fill:#6fcfba;}.cls-192{fill:#6fcfbb;}.cls-193{fill:#6fd0bb;}.cls-194{fill:#70d0bc;}.cls-195{fill:#70d1bc;}.cls-196{fill:#70d1bd;}.cls-197{fill:#70d2bd;}.cls-198{fill:#71d2be;}.cls-199{fill:#71d3be;}.cls-200{fill:#71d3bf;}.cls-201{fill:#71d4bf;}.cls-202{fill:#72d4c0;}.cls-203{fill:#72d5c0;}</style>
  </defs>
  <title
     id="title5844">color15</title>
  <g
     id="g13051">
    <path
       id="path5846"
       transform="translate(-6.9,-7.58)"
       d="m 91.6,7.58 a 14,14 0 0 1 14,14 v 0 70.7 a 14,14 0 0 1 -14,14 H 20.9 a 14,14 0 0 1 -14,-14 v -70.7 a 13.91,13.91 0 0 1 13.82,-14"
       class="cls-1"
       inkscape:connector-curvature="0"
       style="fill:#396b60" />
    <path
       id="path5848"
       transform="translate(-6.9,-7.58)"
       d="m 91.53,7.68 a 14,14 0 0 1 14,14 v 0 70.53 a 14,14 0 0 1 -14,14 H 21 A 14,14 0 0 1 7,92.21 V 21.65 a 13.88,13.88 0 0 1 13.79,-14"
       class="cls-2"
       inkscape:connector-curvature="0"
       style="fill:#396c60" />
    <path
       id="path5850"
       transform="translate(-6.9,-7.58)"
       d="m 91.46,7.78 a 13.94,13.94 0 0 1 13.94,13.94 v 0 70.42 A 13.94,13.94 0 0 1 91.46,106.08 H 21 A 13.94,13.94 0 0 1 7.1,92.14 V 21.72 A 13.85,13.85 0 0 1 20.86,7.78"
       class="cls-3"
       inkscape:connector-curvature="0"
       style="fill:#3a6c61" />
    <path
       id="path5852"
       transform="translate(-6.9,-7.58)"
       d="m 91.39,7.87 a 13.92,13.92 0 0 1 13.92,13.92 v 0 70.28 A 13.92,13.92 0 0 1 91.39,106 H 21.11 A 13.92,13.92 0 0 1 7.2,92.07 V 21.79 A 13.83,13.83 0 0 1 20.93,7.87"
       class="cls-4"
       inkscape:connector-curvature="0"
       style="fill:#3a6d61" />
    <path
       id="path5854"
       transform="translate(-6.9,-7.58)"
       d="m 91.32,8 a 13.89,13.89 0 0 1 13.89,13.89 v 0 V 92 A 13.89,13.89 0 0 1 91.32,105.89 H 21.18 A 13.89,13.89 0 0 1 7.29,92 V 21.86 A 13.8,13.8 0 0 1 21,8"
       class="cls-5"
       inkscape:connector-curvature="0"
       style="fill:#3a6d62" />
    <path
       id="path5856"
       transform="translate(-6.9,-7.58)"
       d="m 91.25,8.07 a 13.86,13.86 0 0 1 13.86,13.86 v 0 70 a 13.86,13.86 0 0 1 -13.86,13.86 h -70 A 13.86,13.86 0 0 1 7.39,91.93 v -70 A 13.77,13.77 0 0 1 21.07,8.07"
       class="cls-6"
       inkscape:connector-curvature="0"
       style="fill:#3a6e62" />
    <path
       id="path5858"
       transform="translate(-6.9,-7.58)"
       d="M 91.18,8.17 A 13.83,13.83 0 0 1 105,22 v 0 69.86 A 13.83,13.83 0 0 1 91.18,105.7 H 21.32 A 13.83,13.83 0 0 1 7.49,91.86 V 22 A 13.74,13.74 0 0 1 21.15,8.17"
       class="cls-7"
       inkscape:connector-curvature="0"
       style="fill:#3b6e63" />
    <path
       id="path5860"
       transform="translate(-6.9,-7.58)"
       d="m 91.11,8.27 a 13.81,13.81 0 0 1 13.81,13.81 v 0 69.71 A 13.81,13.81 0 0 1 91.11,105.6 H 21.39 A 13.81,13.81 0 0 1 7.59,91.79 V 22.07 A 13.72,13.72 0 0 1 21.22,8.27"
       class="cls-8"
       inkscape:connector-curvature="0"
       style="fill:#3b6f63" />
    <path
       id="path5862"
       transform="translate(-6.9,-7.58)"
       d="m 91,8.36 a 13.78,13.78 0 0 1 13.78,13.78 v 0 69.58 A 13.78,13.78 0 0 1 91,105.5 H 21.46 A 13.78,13.78 0 0 1 7.69,91.72 V 22.14 A 13.69,13.69 0 0 1 21.29,8.36"
       class="cls-9"
       inkscape:connector-curvature="0"
       style="fill:#3b6f64" />
    <path
       id="path5864"
       transform="translate(-6.9,-7.58)"
       d="m 91,8.46 a 13.75,13.75 0 0 1 13.75,13.75 v 0 69.44 A 13.75,13.75 0 0 1 91,105.4 H 21.53 A 13.75,13.75 0 0 1 7.78,91.65 V 22.21 A 13.66,13.66 0 0 1 21.36,8.46"
       class="cls-10"
       inkscape:connector-curvature="0"
       style="fill:#3c7064" />
    <path
       id="path5866"
       transform="translate(-6.9,-7.58)"
       d="m 90.9,8.56 a 13.72,13.72 0 0 1 13.72,13.72 v 0 69.3 A 13.72,13.72 0 0 1 90.9,105.3 H 21.6 A 13.72,13.72 0 0 1 7.88,91.58 V 22.28 A 13.63,13.63 0 0 1 21.43,8.56"
       class="cls-11"
       inkscape:connector-curvature="0"
       style="fill:#3c7065" />
    <path
       id="path5868"
       transform="translate(-6.9,-7.58)"
       d="m 90.83,8.66 a 13.7,13.7 0 0 1 13.7,13.7 v 0 69.15 a 13.7,13.7 0 0 1 -13.7,13.7 H 21.67 A 13.7,13.7 0 0 1 8,91.51 V 22.35 A 13.61,13.61 0 0 1 21.5,8.66"
       class="cls-12"
       inkscape:connector-curvature="0"
       style="fill:#3c7165" />
    <path
       id="path5870"
       transform="translate(-6.9,-7.58)"
       d="m 90.76,8.75 a 13.67,13.67 0 0 1 13.67,13.67 v 0 69 a 13.67,13.67 0 0 1 -13.67,13.67 h -69 A 13.67,13.67 0 0 1 8.08,91.44 v -69 A 13.58,13.58 0 0 1 21.57,8.75"
       class="cls-13"
       inkscape:connector-curvature="0"
       style="fill:#3c7166" />
    <path
       id="path5872"
       transform="translate(-6.9,-7.58)"
       d="m 90.69,8.85 a 13.64,13.64 0 0 1 13.64,13.64 v 0 68.88 A 13.64,13.64 0 0 1 90.69,105 H 21.81 A 13.64,13.64 0 0 1 8.17,91.37 V 22.49 A 13.55,13.55 0 0 1 21.64,8.85"
       class="cls-14"
       inkscape:connector-curvature="0"
       style="fill:#3d7266" />
    <path
       id="path5874"
       transform="translate(-6.9,-7.58)"
       d="m 90.62,8.95 a 13.61,13.61 0 0 1 13.61,13.61 v 0 68.74 A 13.61,13.61 0 0 1 90.62,104.91 H 21.88 A 13.61,13.61 0 0 1 8.27,91.3 V 22.56 A 13.52,13.52 0 0 1 21.71,8.95"
       class="cls-15"
       inkscape:connector-curvature="0"
       style="fill:#3d7267" />
    <path
       id="path5876"
       transform="translate(-6.9,-7.58)"
       d="m 90.55,9 a 13.58,13.58 0 0 1 13.58,13.58 v 0 68.6 A 13.58,13.58 0 0 1 90.55,104.76 H 22 A 13.58,13.58 0 0 1 8.37,91.23 V 22.63 A 13.5,13.5 0 0 1 21.78,9"
       class="cls-16"
       inkscape:connector-curvature="0"
       style="fill:#3d7367" />
    <path
       id="path5878"
       transform="translate(-6.9,-7.58)"
       d="M 90.48,9.15 A 13.56,13.56 0 0 1 104,22.7 v 0 68.46 A 13.56,13.56 0 0 1 90.44,104.72 H 22 A 13.56,13.56 0 0 1 8.47,91.16 V 22.7 A 13.47,13.47 0 0 1 21.85,9.15"
       class="cls-17"
       inkscape:connector-curvature="0"
       style="fill:#3e7368" />
    <path
       id="path5880"
       transform="translate(-6.9,-7.58)"
       d="m 90.41,9.24 a 13.53,13.53 0 0 1 13.53,13.53 v 0 68.32 A 13.53,13.53 0 0 1 90.41,104.62 H 22.09 A 13.53,13.53 0 0 1 8.56,91.09 V 22.77 A 13.44,13.44 0 0 1 21.92,9.24"
       class="cls-18"
       inkscape:connector-curvature="0"
       style="fill:#3e7468" />
    <path
       id="path5882"
       transform="translate(-6.9,-7.58)"
       d="m 90.34,9.34 a 13.5,13.5 0 0 1 13.5,13.5 v 0 V 91 a 13.5,13.5 0 0 1 -13.5,13.5 H 22.16 A 13.5,13.5 0 0 1 8.66,91 V 22.84 A 13.41,13.41 0 0 1 22,9.34"
       class="cls-19"
       inkscape:connector-curvature="0"
       style="fill:#3e7469" />
    <path
       id="path5884"
       transform="translate(-6.9,-7.58)"
       d="m 90.27,9.44 a 13.47,13.47 0 0 1 13.47,13.47 v 0 V 91 a 13.47,13.47 0 0 1 -13.47,13.47 h -68 A 13.47,13.47 0 0 1 8.76,91 V 23 A 13.39,13.39 0 0 1 22.06,9.44"
       class="cls-20"
       inkscape:connector-curvature="0"
       style="fill:#3e7569" />
    <path
       id="path5886"
       transform="translate(-6.9,-7.58)"
       d="M 90.2,9.54 A 13.45,13.45 0 0 1 103.65,23 v 0 67.9 A 13.45,13.45 0 0 1 90.2,104.33 H 22.3 A 13.45,13.45 0 0 1 8.86,90.88 V 23 A 13.36,13.36 0 0 1 22.13,9.54"
       class="cls-21"
       inkscape:connector-curvature="0"
       style="fill:#3f756a" />
    <path
       id="path5888"
       transform="translate(-6.9,-7.58)"
       d="m 90.13,9.63 a 13.42,13.42 0 0 1 13.42,13.42 v 0 67.76 A 13.42,13.42 0 0 1 90.13,104.23 H 22.37 A 13.42,13.42 0 0 1 9,90.81 V 23.05 A 13.33,13.33 0 0 1 22.2,9.63"
       class="cls-22"
       inkscape:connector-curvature="0"
       style="fill:#3f766a" />
    <path
       id="path5890"
       transform="translate(-6.9,-7.58)"
       d="m 90.06,9.73 a 13.39,13.39 0 0 1 13.39,13.39 v 0 67.62 A 13.39,13.39 0 0 1 90.06,104.13 H 22.44 A 13.39,13.39 0 0 1 9.05,90.74 V 23.12 A 13.3,13.3 0 0 1 22.27,9.73"
       class="cls-23"
       inkscape:connector-curvature="0"
       style="fill:#3f776a" />
    <path
       id="path5892"
       transform="translate(-6.9,-7.58)"
       d="m 90,9.83 a 13.36,13.36 0 0 1 13.36,13.36 v 0 67.48 A 13.36,13.36 0 0 1 90,104 H 22.51 A 13.36,13.36 0 0 1 9.15,90.67 V 23.19 A 13.28,13.28 0 0 1 22.34,9.83"
       class="cls-24"
       inkscape:connector-curvature="0"
       style="fill:#40776b" />
    <path
       id="path5894"
       transform="translate(-6.9,-7.58)"
       d="m 89.92,9.93 a 13.33,13.33 0 0 1 13.33,13.33 v 0 67.34 A 13.33,13.33 0 0 1 89.92,103.93 H 22.58 A 13.33,13.33 0 0 1 9.25,90.6 V 23.26 A 13.25,13.25 0 0 1 22.41,9.93"
       class="cls-25"
       inkscape:connector-curvature="0"
       style="fill:#40786b" />
    <path
       id="path5896"
       transform="translate(-6.9,-7.58)"
       d="m 89.85,10 a 13.31,13.31 0 0 1 13.31,13.31 v 0 67.2 A 13.31,13.31 0 0 1 89.85,103.82 H 22.65 A 13.31,13.31 0 0 1 9.35,90.53 V 23.33 A 13.22,13.22 0 0 1 22.48,10"
       class="cls-26"
       inkscape:connector-curvature="0"
       style="fill:#40786c" />
    <path
       id="path5898"
       transform="translate(-6.9,-7.58)"
       d="m 89.78,10.12 a 13.28,13.28 0 0 1 13.28,13.28 v 0 67.06 A 13.28,13.28 0 0 1 89.78,103.74 H 22.72 A 13.28,13.28 0 0 1 9.44,90.46 V 23.4 A 13.19,13.19 0 0 1 22.55,10.12"
       class="cls-27"
       inkscape:connector-curvature="0"
       style="fill:#40796c" />
    <path
       id="path5900"
       transform="translate(-6.9,-7.58)"
       d="M 89.71,10.22 A 13.25,13.25 0 0 1 103,23.47 v 0 66.92 A 13.25,13.25 0 0 1 89.75,103.64 H 22.79 A 13.25,13.25 0 0 1 9.54,90.39 V 23.47 A 13.17,13.17 0 0 1 22.62,10.22"
       class="cls-28"
       inkscape:connector-curvature="0"
       style="fill:#41796d" />
    <path
       id="path5902"
       transform="translate(-6.9,-7.58)"
       d="m 89.64,10.32 a 13.22,13.22 0 0 1 13.22,13.22 v 0 66.78 A 13.22,13.22 0 0 1 89.64,103.54 H 22.86 A 13.22,13.22 0 0 1 9.64,90.32 V 23.54 A 13.14,13.14 0 0 1 22.69,10.32"
       class="cls-29"
       inkscape:connector-curvature="0"
       style="fill:#417a6d" />
    <path
       id="path5904"
       transform="translate(-6.9,-7.58)"
       d="m 89.57,10.42 a 13.2,13.2 0 0 1 13.2,13.2 v 0 66.63 a 13.2,13.2 0 0 1 -13.2,13.2 H 22.93 A 13.2,13.2 0 0 1 9.73,90.25 V 23.61 a 13.11,13.11 0 0 1 13,-13.2"
       class="cls-30"
       inkscape:connector-curvature="0"
       style="fill:#417a6e" />
    <path
       id="path5906"
       transform="translate(-6.9,-7.58)"
       d="m 89.5,10.51 a 13.17,13.17 0 0 1 13.17,13.17 v 0 66.5 A 13.17,13.17 0 0 1 89.5,103.35 H 23 A 13.17,13.17 0 0 1 9.84,90.18 v -66.5 a 13.08,13.08 0 0 1 13,-13.17"
       class="cls-31"
       inkscape:connector-curvature="0"
       style="fill:#427b6e" />
    <path
       id="path5908"
       transform="translate(-6.9,-7.58)"
       d="m 89.43,10.61 a 13.14,13.14 0 0 1 13.14,13.14 v 0 66.36 A 13.14,13.14 0 0 1 89.43,103.25 H 23.07 A 13.14,13.14 0 0 1 9.93,90.11 V 23.75 a 13.06,13.06 0 0 1 13,-13.14"
       class="cls-32"
       inkscape:connector-curvature="0"
       style="fill:#427b6f" />
    <path
       id="path5910"
       transform="translate(-6.9,-7.58)"
       d="m 89.36,10.71 a 13.11,13.11 0 0 1 13.11,13.11 v 0 V 90 A 13.11,13.11 0 0 1 89.36,103.11 H 23.14 A 13.11,13.11 0 0 1 10,90 V 23.82 A 13,13 0 0 1 23,10.71"
       class="cls-33"
       inkscape:connector-curvature="0"
       style="fill:#427c6f" />
    <path
       id="path5912"
       transform="translate(-6.9,-7.58)"
       d="m 89.29,10.81 a 13.09,13.09 0 0 1 13.09,13.09 v 0 V 90 A 13.09,13.09 0 0 1 89.29,103.09 H 23.21 A 13.09,13.09 0 0 1 10.13,90 V 23.89 A 13,13 0 0 1 23,10.81"
       class="cls-34"
       inkscape:connector-curvature="0"
       style="fill:#427c70" />
    <path
       id="path5914"
       transform="translate(-6.9,-7.58)"
       d="M 89.22,10.9 A 13.06,13.06 0 0 1 102.28,24 v 0 65.9 A 13.06,13.06 0 0 1 89.22,103 H 23.28 A 13.06,13.06 0 0 1 10.23,89.9 V 24 A 13,13 0 0 1 23.12,10.9"
       class="cls-35"
       inkscape:connector-curvature="0"
       style="fill:#437d70" />
    <path
       id="path5916"
       transform="translate(-6.9,-7.58)"
       d="m 89.15,11 a 13,13 0 0 1 13,13 v 0 65.8 a 13,13 0 0 1 -13,13 h -65.8 a 13,13 0 0 1 -13,-13 V 24 A 13,13 0 0 1 23.19,11"
       class="cls-36"
       inkscape:connector-curvature="0"
       style="fill:#437d71" />
    <path
       id="path5918"
       transform="translate(-6.9,-7.58)"
       d="m 89.08,11.1 a 13,13 0 0 1 13,13 v 0 65.66 a 13,13 0 0 1 -13,13 H 23.42 a 13,13 0 0 1 -13,-13 V 24.1 a 12.92,12.92 0 0 1 12.83,-13"
       class="cls-37"
       inkscape:connector-curvature="0"
       style="fill:#437e71" />
    <path
       id="path5920"
       transform="translate(-6.9,-7.58)"
       d="m 89,11.2 a 13,13 0 0 1 13,13 v 0 65.49 a 13,13 0 0 1 -13,13 H 23.49 a 13,13 0 0 1 -13,-13 V 24.17 a 12.89,12.89 0 0 1 12.81,-13"
       class="cls-38"
       inkscape:connector-curvature="0"
       style="fill:#447e72" />
    <path
       id="path5922"
       transform="translate(-6.9,-7.58)"
       d="m 88.94,11.3 a 13,13 0 0 1 12.95,12.95 v 0 65.37 A 13,13 0 0 1 88.94,102.57 H 23.56 A 13,13 0 0 1 10.62,89.62 V 24.24 A 12.86,12.86 0 0 1 23.4,11.3"
       class="cls-39"
       inkscape:connector-curvature="0"
       style="fill:#447f72" />
    <path
       id="path5924"
       transform="translate(-6.9,-7.58)"
       d="m 88.87,11.39 a 12.92,12.92 0 0 1 12.92,12.92 v 0 65.24 A 12.92,12.92 0 0 1 88.87,102.47 H 23.63 A 12.92,12.92 0 0 1 10.71,89.55 V 24.31 A 12.84,12.84 0 0 1 23.47,11.39"
       class="cls-40"
       inkscape:connector-curvature="0"
       style="fill:#447f73" />
    <path
       id="path5926"
       transform="translate(-6.9,-7.58)"
       d="m 88.8,11.49 a 12.89,12.89 0 0 1 12.89,12.89 v 0 65.1 A 12.89,12.89 0 0 1 88.8,102.37 H 23.7 A 12.89,12.89 0 0 1 10.81,89.48 V 24.38 A 12.81,12.81 0 0 1 23.54,11.49"
       class="cls-41"
       inkscape:connector-curvature="0"
       style="fill:#448073" />
    <path
       id="path5928"
       transform="translate(-6.9,-7.58)"
       d="m 88.73,11.59 a 12.86,12.86 0 0 1 12.87,12.86 v 0 65 a 12.86,12.86 0 0 1 -12.86,12.86 h -65 A 12.86,12.86 0 0 1 10.91,89.41 v -65 a 12.78,12.78 0 0 1 12.7,-12.86"
       class="cls-42"
       inkscape:connector-curvature="0"
       style="fill:#458173" />
    <path
       id="path5930"
       transform="translate(-6.9,-7.58)"
       d="m 88.66,11.69 a 12.84,12.84 0 0 1 12.84,12.83 v 0 64.82 A 12.84,12.84 0 0 1 88.66,102.18 H 23.84 A 12.84,12.84 0 0 1 11,89.34 V 24.52 A 12.75,12.75 0 0 1 23.68,11.69"
       class="cls-43"
       inkscape:connector-curvature="0"
       style="fill:#458174" />
    <path
       id="path5932"
       transform="translate(-6.9,-7.58)"
       d="m 88.59,11.78 a 12.81,12.81 0 0 1 12.81,12.81 v 0 64.68 A 12.81,12.81 0 0 1 88.59,102.08 H 23.91 A 12.81,12.81 0 0 1 11.11,89.27 V 24.59 A 12.73,12.73 0 0 1 23.75,11.78"
       class="cls-44"
       inkscape:connector-curvature="0"
       style="fill:#458274" />
    <path
       id="path5934"
       transform="translate(-6.9,-7.58)"
       d="m 88.52,11.88 a 12.78,12.78 0 0 1 12.78,12.78 v 0 64.54 A 12.78,12.78 0 0 1 88.52,102 H 24 A 12.78,12.78 0 0 1 11.2,89.2 V 24.66 A 12.7,12.7 0 0 1 23.82,11.88"
       class="cls-45"
       inkscape:connector-curvature="0"
       style="fill:#468275" />
    <path
       id="path5936"
       transform="translate(-6.9,-7.58)"
       d="m 88.45,12 a 12.75,12.75 0 0 1 12.75,12.75 v 0 64.4 A 12.75,12.75 0 0 1 88.45,101.9 H 24.05 A 12.75,12.75 0 0 1 11.3,89.13 V 24.73 A 12.67,12.67 0 0 1 23.89,12"
       class="cls-46"
       inkscape:connector-curvature="0"
       style="fill:#468375" />
    <path
       id="path5938"
       transform="translate(-6.9,-7.58)"
       d="m 88.38,12.08 a 12.72,12.72 0 0 1 12.73,12.72 v 0 64.26 A 12.72,12.72 0 0 1 88.39,101.78 H 24.12 A 12.72,12.72 0 0 1 11.4,89.06 V 24.8 A 12.64,12.64 0 0 1 24,12.08"
       class="cls-47"
       inkscape:connector-curvature="0"
       style="fill:#468376" />
    <path
       id="path5940"
       transform="translate(-6.9,-7.58)"
       d="M 88.31,12.17 A 12.7,12.7 0 0 1 101,24.87 v 0 V 89 A 12.7,12.7 0 0 1 88.3,101.7 H 24.19 A 12.7,12.7 0 0 1 11.5,89 V 24.87 A 12.62,12.62 0 0 1 24,12.17"
       class="cls-48"
       inkscape:connector-curvature="0"
       style="fill:#468476" />
    <path
       id="path5942"
       transform="translate(-6.9,-7.58)"
       d="m 88.24,12.27 a 12.67,12.67 0 0 1 12.67,12.67 v 0 64 a 12.67,12.67 0 0 1 -12.67,12.67 h -64 A 12.67,12.67 0 0 1 11.59,88.92 v -64 A 12.59,12.59 0 0 1 24.1,12.27"
       class="cls-49"
       inkscape:connector-curvature="0"
       style="fill:#478477" />
    <path
       id="path5944"
       transform="translate(-6.9,-7.58)"
       d="M 88.17,12.37 A 12.64,12.64 0 0 1 100.82,25 v 0 63.85 A 12.64,12.64 0 0 1 88.18,101.49 H 24.33 A 12.64,12.64 0 0 1 11.69,88.85 V 25 A 12.56,12.56 0 0 1 24.17,12.37"
       class="cls-50"
       inkscape:connector-curvature="0"
       style="fill:#478577" />
    <path
       id="path5946"
       transform="translate(-6.9,-7.58)"
       d="m 88.1,12.47 a 12.61,12.61 0 0 1 12.61,12.61 v 0 63.7 A 12.61,12.61 0 0 1 88.1,101.4 H 24.4 A 12.61,12.61 0 0 1 11.79,88.78 V 25.08 A 12.53,12.53 0 0 1 24.24,12.47"
       class="cls-51"
       inkscape:connector-curvature="0"
       style="fill:#478578" />
    <path
       id="path5948"
       transform="translate(-6.9,-7.58)"
       d="m 88,12.57 a 12.59,12.59 0 0 1 12.59,12.59 v 0 63.55 A 12.59,12.59 0 0 1 88,101.3 H 24.47 A 12.59,12.59 0 0 1 11.89,88.71 V 25.15 A 12.51,12.51 0 0 1 24.31,12.57"
       class="cls-52"
       inkscape:connector-curvature="0"
       style="fill:#488678" />
    <path
       id="path5950"
       transform="translate(-6.9,-7.58)"
       d="m 88,12.66 a 12.56,12.56 0 0 1 12.56,12.56 v 0 63.42 A 12.56,12.56 0 0 1 88,101.2 H 24.54 A 12.56,12.56 0 0 1 12,88.64 V 25.22 A 12.48,12.48 0 0 1 24.4,12.66"
       class="cls-53"
       inkscape:connector-curvature="0"
       style="fill:#488679" />
    <path
       id="path5952"
       transform="translate(-6.9,-7.58)"
       d="m 87.89,12.76 a 12.53,12.53 0 0 1 12.53,12.53 v 0 63.28 A 12.53,12.53 0 0 1 87.89,101.1 H 24.61 A 12.53,12.53 0 0 1 12.08,88.57 V 25.29 A 12.45,12.45 0 0 1 24.45,12.76"
       class="cls-54"
       inkscape:connector-curvature="0"
       style="fill:#488779" />
    <path
       id="path5954"
       transform="translate(-6.9,-7.58)"
       d="m 87.82,12.86 a 12.5,12.5 0 0 1 12.5,12.5 v 0 63.14 A 12.5,12.5 0 0 1 87.82,101 H 24.68 A 12.5,12.5 0 0 1 12.18,88.5 V 25.36 a 12.42,12.42 0 0 1 12.34,-12.5"
       class="cls-55"
       inkscape:connector-curvature="0"
       style="fill:#49877a" />
    <path
       id="path5956"
       transform="translate(-6.9,-7.58)"
       d="m 87.75,13 a 12.48,12.48 0 0 1 12.48,12.48 v 0 63 a 12.48,12.48 0 0 1 -12.48,12.48 h -63 A 12.48,12.48 0 0 1 12.28,88.43 v -63 A 12.4,12.4 0 0 1 24.59,13"
       class="cls-56"
       inkscape:connector-curvature="0"
       style="fill:#49887a" />
    <path
       id="path5958"
       transform="translate(-6.9,-7.58)"
       d="m 87.68,13.05 a 12.45,12.45 0 0 1 12.45,12.45 v 0 62.86 A 12.45,12.45 0 0 1 87.68,100.81 H 24.82 A 12.45,12.45 0 0 1 12.38,88.36 V 25.5 A 12.37,12.37 0 0 1 24.66,13.05"
       class="cls-57"
       inkscape:connector-curvature="0"
       style="fill:#49887b" />
    <path
       id="path5960"
       transform="translate(-6.9,-7.58)"
       d="M 87.61,13.15 A 12.42,12.42 0 0 1 100,25.57 v 0 62.72 A 12.42,12.42 0 0 1 87.58,100.71 H 24.89 A 12.42,12.42 0 0 1 12.47,88.29 V 25.57 A 12.34,12.34 0 0 1 24.73,13.15"
       class="cls-58"
       inkscape:connector-curvature="0"
       style="fill:#49897b" />
    <path
       id="path5962"
       transform="translate(-6.9,-7.58)"
       d="m 87.54,13.25 a 12.39,12.39 0 0 1 12.4,12.39 v 0 62.58 A 12.39,12.39 0 0 1 87.55,100.61 H 25 A 12.39,12.39 0 0 1 12.57,88.22 V 25.64 A 12.31,12.31 0 0 1 24.8,13.25"
       class="cls-59"
       inkscape:connector-curvature="0"
       style="fill:#4a897c" />
    <path
       id="path5964"
       transform="translate(-6.9,-7.58)"
       d="m 87.47,13.35 a 12.36,12.36 0 0 1 12.37,12.36 v 0 62.44 A 12.36,12.36 0 0 1 87.48,100.51 H 25 A 12.36,12.36 0 0 1 12.67,88.15 V 25.71 a 12.28,12.28 0 0 1 12.2,-12.36"
       class="cls-60"
       inkscape:connector-curvature="0"
       style="fill:#4a8a7c" />
    <path
       id="path5966"
       transform="translate(-6.9,-7.58)"
       d="m 87.4,13.45 a 12.34,12.34 0 0 1 12.34,12.33 v 0 62.3 A 12.34,12.34 0 0 1 87.4,100.42 H 25.1 A 12.34,12.34 0 0 1 12.77,88.08 V 25.78 A 12.26,12.26 0 0 1 24.94,13.45"
       class="cls-61"
       inkscape:connector-curvature="0"
       style="fill:#4a8a7d" />
    <path
       id="path5968"
       transform="translate(-6.9,-7.58)"
       d="m 87.33,13.54 a 12.31,12.31 0 0 1 12.31,12.31 v 0 V 88 A 12.31,12.31 0 0 1 87.33,100.31 H 25.17 A 12.31,12.31 0 0 1 12.86,88 V 25.85 A 12.23,12.23 0 0 1 25,13.54"
       class="cls-62"
       inkscape:connector-curvature="0"
       style="fill:#4b8b7d" />
    <path
       id="path5970"
       transform="translate(-6.9,-7.58)"
       d="m 87.26,13.64 a 12.28,12.28 0 0 1 12.28,12.28 v 0 62 A 12.28,12.28 0 0 1 87.26,100.2 h -62 A 12.28,12.28 0 0 1 13,87.94 v -62 a 12.2,12.2 0 0 1 12.09,-12.3"
       class="cls-63"
       inkscape:connector-curvature="0"
       style="fill:#4b8c7d" />
    <path
       id="path5972"
       transform="translate(-6.9,-7.58)"
       d="M 87.19,13.74 A 12.25,12.25 0 0 1 99.45,26 v 0 61.87 A 12.25,12.25 0 0 1 87.2,100.12 H 25.31 A 12.25,12.25 0 0 1 13.06,87.87 V 26 a 12.17,12.17 0 0 1 12.1,-12.25"
       class="cls-64"
       inkscape:connector-curvature="0"
       style="fill:#4b8c7e" />
    <path
       id="path5974"
       transform="translate(-6.9,-7.58)"
       d="m 87.12,13.84 a 12.23,12.23 0 0 1 12.23,12.22 v 0 61.74 A 12.23,12.23 0 0 1 87.12,100 H 25.38 A 12.23,12.23 0 0 1 13.16,87.8 V 26.06 A 12.15,12.15 0 0 1 25.23,13.84"
       class="cls-65"
       inkscape:connector-curvature="0"
       style="fill:#4b8d7e" />
    <path
       id="path5976"
       transform="translate(-6.9,-7.58)"
       d="m 87.05,13.93 a 12.2,12.2 0 0 1 12.2,12.2 v 0 61.6 a 12.2,12.2 0 0 1 -12.2,12.2 h -61.6 a 12.2,12.2 0 0 1 -12.2,-12.2 v -61.6 a 12.12,12.12 0 0 1 12,-12.2"
       class="cls-66"
       inkscape:connector-curvature="0"
       style="fill:#4c8d7f" />
    <path
       id="path5978"
       transform="translate(-6.9,-7.58)"
       d="m 87,14 a 12.17,12.17 0 0 1 12.15,12.2 v 0 61.46 A 12.17,12.17 0 0 1 87,99.83 H 25.52 A 12.17,12.17 0 0 1 13.35,87.66 V 26.2 A 12.09,12.09 0 0 1 25.37,14"
       class="cls-67"
       inkscape:connector-curvature="0"
       style="fill:#4c8e7f" />
    <path
       id="path5980"
       transform="translate(-6.9,-7.58)"
       d="m 86.91,14.13 a 12.14,12.14 0 0 1 12.15,12.14 v 0 61.32 A 12.14,12.14 0 0 1 86.91,99.73 H 25.59 A 12.14,12.14 0 0 1 13.45,87.59 V 26.27 a 12.06,12.06 0 0 1 12,-12.14"
       class="cls-68"
       inkscape:connector-curvature="0"
       style="fill:#4c8e80" />
    <path
       id="path5982"
       transform="translate(-6.9,-7.58)"
       d="M 86.84,14.23 A 12.11,12.11 0 0 1 99,26.34 v 0 61.18 A 12.11,12.11 0 0 1 86.84,99.64 H 25.66 A 12.11,12.11 0 0 1 13.55,87.52 V 26.34 a 12,12 0 0 1 12,-12.11"
       class="cls-69"
       inkscape:connector-curvature="0"
       style="fill:#4d8f80" />
    <path
       id="path5984"
       transform="translate(-6.9,-7.58)"
       d="m 86.77,14.32 a 12.09,12.09 0 0 1 12.09,12.09 v 0 61 A 12.09,12.09 0 0 1 86.77,99.54 h -61 A 12.09,12.09 0 0 1 13.65,87.45 v -61 A 12,12 0 0 1 25.58,14.32"
       class="cls-70"
       inkscape:connector-curvature="0"
       style="fill:#4d8f81" />
    <path
       id="path5986"
       transform="translate(-6.9,-7.58)"
       d="m 86.7,14.42 a 12.06,12.06 0 0 1 12.06,12.06 v 0 60.9 A 12.06,12.06 0 0 1 86.7,99.44 H 25.8 A 12.06,12.06 0 0 1 13.74,87.38 v -60.9 a 12,12 0 0 1 11.9,-12.06"
       class="cls-71"
       inkscape:connector-curvature="0"
       style="fill:#4d9081" />
    <path
       id="path5988"
       transform="translate(-6.9,-7.58)"
       d="m 86.63,14.52 a 12,12 0 0 1 12,12 v 0 60.79 a 12,12 0 0 1 -12,12 H 25.87 a 12,12 0 0 1 -12,-12 V 26.55 a 12,12 0 0 1 11.88,-12"
       class="cls-72"
       inkscape:connector-curvature="0"
       style="fill:#4d9082" />
    <path
       id="path5990"
       transform="translate(-6.9,-7.58)"
       d="m 86.56,14.62 a 12,12 0 0 1 12,12 v 0 60.62 a 12,12 0 0 1 -12,12 H 25.94 a 12,12 0 0 1 -12,-12 V 26.62 a 11.93,11.93 0 0 1 11.85,-12"
       class="cls-73"
       inkscape:connector-curvature="0"
       style="fill:#4e9182" />
    <path
       id="path5992"
       transform="translate(-6.9,-7.58)"
       d="m 86.49,14.72 a 12,12 0 0 1 12,12 v 0 60.45 a 12,12 0 0 1 -12,12 H 26 a 12,12 0 0 1 -12,-12 V 26.69 a 11.9,11.9 0 0 1 11.82,-12"
       class="cls-74"
       inkscape:connector-curvature="0"
       style="fill:#4e9183" />
    <path
       id="path5994"
       transform="translate(-6.9,-7.58)"
       d="m 86.42,14.81 a 12,12 0 0 1 11.95,11.95 v 0 60.34 A 12,12 0 0 1 86.42,99.05 H 26.08 A 12,12 0 0 1 14.14,87.1 V 26.76 A 11.87,11.87 0 0 1 25.93,14.81"
       class="cls-75"
       inkscape:connector-curvature="0"
       style="fill:#4e9283" />
    <path
       id="path5996"
       transform="translate(-6.9,-7.58)"
       d="m 86.35,14.91 a 11.92,11.92 0 0 1 11.92,11.92 v 0 V 87 A 11.92,11.92 0 0 1 86.35,99 H 26.15 A 11.92,11.92 0 0 1 14.23,87 V 26.83 A 11.84,11.84 0 0 1 26,14.91"
       class="cls-76"
       inkscape:connector-curvature="0"
       style="fill:#4f9284" />
    <path
       id="path5998"
       transform="translate(-6.9,-7.58)"
       d="m 86.28,15 a 11.89,11.89 0 0 1 11.9,11.9 v 0 V 87 A 11.89,11.89 0 0 1 86.28,98.85 H 26.22 A 11.89,11.89 0 0 1 14.33,87 V 26.9 A 11.82,11.82 0 0 1 26.07,15"
       class="cls-77"
       inkscape:connector-curvature="0"
       style="fill:#4f9384" />
    <path
       id="path6000"
       transform="translate(-6.9,-7.58)"
       d="M 86.21,15.11 A 11.87,11.87 0 0 1 98.08,27 v 0 59.89 A 11.87,11.87 0 0 1 86.21,98.76 H 26.29 A 11.87,11.87 0 0 1 14.43,86.89 V 27 A 11.79,11.79 0 0 1 26.14,15.11"
       class="cls-78"
       inkscape:connector-curvature="0"
       style="fill:#4f9385" />
    <path
       id="path6002"
       transform="translate(-6.9,-7.58)"
       d="M 86.14,15.2 A 11.84,11.84 0 0 1 98,27 v 0 59.82 A 11.84,11.84 0 0 1 86.14,98.66 H 26.36 A 11.84,11.84 0 0 1 14.53,86.82 V 27 A 11.76,11.76 0 0 1 26.21,15.2"
       class="cls-79"
       inkscape:connector-curvature="0"
       style="fill:#4f9485" />
    <path
       id="path6004"
       transform="translate(-6.9,-7.58)"
       d="m 86.07,15.3 a 11.81,11.81 0 0 1 11.81,11.81 v 0 59.64 A 11.81,11.81 0 0 1 86.07,98.56 H 26.43 A 11.81,11.81 0 0 1 14.62,86.75 V 27.11 A 11.73,11.73 0 0 1 26.28,15.3"
       class="cls-80"
       inkscape:connector-curvature="0"
       style="fill:#509486" />
    <path
       id="path6006"
       transform="translate(-6.9,-7.58)"
       d="m 86,15.4 a 11.78,11.78 0 0 1 11.79,11.78 v 0 59.5 A 11.78,11.78 0 0 1 86,98.46 H 26.5 A 11.78,11.78 0 0 1 14.72,86.68 V 27.18 A 11.71,11.71 0 0 1 26.35,15.4"
       class="cls-81"
       inkscape:connector-curvature="0"
       style="fill:#509586" />
    <path
       id="path6008"
       transform="translate(-6.9,-7.58)"
       d="m 85.93,15.5 a 11.75,11.75 0 0 1 11.76,11.75 v 0 59.36 A 11.75,11.75 0 0 1 85.93,98.37 H 26.57 A 11.75,11.75 0 0 1 14.82,86.61 V 27.25 A 11.68,11.68 0 0 1 26.42,15.5"
       class="cls-82"
       inkscape:connector-curvature="0"
       style="fill:#509686" />
    <path
       id="path6010"
       transform="translate(-6.9,-7.58)"
       d="m 85.86,15.6 a 11.73,11.73 0 0 1 11.73,11.72 v 0 59.22 A 11.73,11.73 0 0 1 85.86,98.27 H 26.64 A 11.73,11.73 0 0 1 14.92,86.54 V 27.32 A 11.65,11.65 0 0 1 26.49,15.6"
       class="cls-83"
       inkscape:connector-curvature="0"
       style="fill:#519687" />
    <path
       id="path6012"
       transform="translate(-6.9,-7.58)"
       d="m 85.79,15.69 a 11.7,11.7 0 0 1 11.7,11.7 v 0 59.08 a 11.7,11.7 0 0 1 -11.7,11.7 H 26.71 A 11.7,11.7 0 0 1 15,86.47 V 27.39 a 11.62,11.62 0 0 1 11.55,-11.7"
       class="cls-84"
       inkscape:connector-curvature="0"
       style="fill:#519787" />
    <path
       id="path6014"
       transform="translate(-6.9,-7.58)"
       d="m 85.72,15.79 a 11.67,11.67 0 0 1 11.67,11.67 v 0 58.94 A 11.67,11.67 0 0 1 85.72,98.07 H 26.78 A 11.67,11.67 0 0 1 15.11,86.4 V 27.46 A 11.6,11.6 0 0 1 26.63,15.79"
       class="cls-85"
       inkscape:connector-curvature="0"
       style="fill:#519788" />
    <path
       id="path6016"
       transform="translate(-6.9,-7.58)"
       d="M 85.65,15.89 A 11.64,11.64 0 0 1 97.3,27.53 v 0 58.8 A 11.64,11.64 0 0 1 85.65,98 H 26.85 A 11.64,11.64 0 0 1 15.21,86.33 V 27.53 A 11.57,11.57 0 0 1 26.7,15.89"
       class="cls-86"
       inkscape:connector-curvature="0"
       style="fill:#519888" />
    <path
       id="path6018"
       transform="translate(-6.9,-7.58)"
       d="M 85.58,16 A 11.62,11.62 0 0 1 97.2,27.6 v 0 58.66 A 11.62,11.62 0 0 1 85.58,97.88 H 26.92 A 11.62,11.62 0 0 1 15.31,86.26 V 27.6 A 11.54,11.54 0 0 1 26.77,16"
       class="cls-87"
       inkscape:connector-curvature="0"
       style="fill:#529889" />
    <path
       id="path6020"
       transform="translate(-6.9,-7.58)"
       d="M 85.51,16.08 A 11.59,11.59 0 0 1 97.1,27.67 v 0 58.52 A 11.59,11.59 0 0 1 85.51,97.78 H 27 A 11.59,11.59 0 0 1 15.41,86.19 V 27.67 A 11.51,11.51 0 0 1 26.84,16.08"
       class="cls-88"
       inkscape:connector-curvature="0"
       style="fill:#529989" />
    <path
       id="path6022"
       transform="translate(-6.9,-7.58)"
       d="M 85.44,16.18 A 11.56,11.56 0 0 1 97,27.74 v 0 58.38 A 11.56,11.56 0 0 1 85.44,97.68 H 27.06 A 11.56,11.56 0 0 1 15.5,86.12 V 27.74 A 11.49,11.49 0 0 1 26.91,16.18"
       class="cls-89"
       inkscape:connector-curvature="0"
       style="fill:#52998a" />
    <path
       id="path6024"
       transform="translate(-6.9,-7.58)"
       d="m 85.37,16.28 a 11.53,11.53 0 0 1 11.54,11.53 v 0 58.24 A 11.53,11.53 0 0 1 85.37,97.58 H 27.13 A 11.53,11.53 0 0 1 15.6,86.05 V 27.81 A 11.46,11.46 0 0 1 27,16.28"
       class="cls-90"
       inkscape:connector-curvature="0"
       style="fill:#539a8a" />
    <path
       id="path6026"
       transform="translate(-6.9,-7.58)"
       d="m 85.3,16.38 a 11.5,11.5 0 0 1 11.5,11.5 v 0 V 86 A 11.5,11.5 0 0 1 85.3,97.5 H 27.2 A 11.5,11.5 0 0 1 15.7,86 V 27.88 a 11.43,11.43 0 0 1 11.36,-11.5"
       class="cls-91"
       inkscape:connector-curvature="0"
       style="fill:#539a8b" />
    <path
       id="path6028"
       transform="translate(-6.9,-7.58)"
       d="M 85.23,16.47 A 11.48,11.48 0 0 1 96.71,28 v 0 58 A 11.48,11.48 0 0 1 85.23,97.39 h -58 A 11.48,11.48 0 0 1 15.8,85.91 V 28 A 11.4,11.4 0 0 1 27.13,16.47"
       class="cls-92"
       inkscape:connector-curvature="0"
       style="fill:#539b8b" />
    <path
       id="path6030"
       transform="translate(-6.9,-7.58)"
       d="M 85.16,16.57 A 11.45,11.45 0 0 1 96.61,28 v 0 57.84 A 11.45,11.45 0 0 1 85.16,97.29 H 27.34 A 11.45,11.45 0 0 1 15.89,85.84 V 28 A 11.38,11.38 0 0 1 27.2,16.57"
       class="cls-93"
       inkscape:connector-curvature="0"
       style="fill:#539b8c" />
    <path
       id="path6032"
       transform="translate(-6.9,-7.58)"
       d="m 85.09,16.67 a 11.42,11.42 0 0 1 11.43,11.42 v 0 57.68 A 11.42,11.42 0 0 1 85.09,97.19 H 27.41 A 11.42,11.42 0 0 1 16,85.77 V 28.09 A 11.35,11.35 0 0 1 27.27,16.67"
       class="cls-94"
       inkscape:connector-curvature="0"
       style="fill:#549c8c" />
    <path
       id="path6034"
       transform="translate(-6.9,-7.58)"
       d="m 85,16.77 a 11.39,11.39 0 0 1 11.42,11.39 v 0 57.54 A 11.39,11.39 0 0 1 85,97.1 H 27.48 A 11.39,11.39 0 0 1 16.09,85.7 V 28.16 A 11.32,11.32 0 0 1 27.34,16.77"
       class="cls-95"
       inkscape:connector-curvature="0"
       style="fill:#549c8d" />
    <path
       id="path6036"
       transform="translate(-6.9,-7.58)"
       d="m 85,16.87 a 11.37,11.37 0 0 1 11.32,11.36 v 0 57.4 A 11.37,11.37 0 0 1 85,97 H 27.55 A 11.37,11.37 0 0 1 16.19,85.63 V 28.23 A 11.29,11.29 0 0 1 27.41,16.87"
       class="cls-96"
       inkscape:connector-curvature="0"
       style="fill:#549d8d" />
    <path
       id="path6038"
       transform="translate(-6.9,-7.58)"
       d="m 84.88,17 a 11.34,11.34 0 0 1 11.34,11.3 v 0 57.26 A 11.34,11.34 0 0 1 84.88,96.9 H 27.62 A 11.34,11.34 0 0 1 16.28,85.56 V 28.3 A 11.27,11.27 0 0 1 27.48,17"
       class="cls-97"
       inkscape:connector-curvature="0"
       style="fill:#559d8e" />
    <path
       id="path6040"
       transform="translate(-6.9,-7.58)"
       d="m 84.81,17.06 a 11.31,11.31 0 0 1 11.31,11.31 v 0 57.12 A 11.31,11.31 0 0 1 84.81,96.8 H 27.69 A 11.31,11.31 0 0 1 16.38,85.49 V 28.37 A 11.24,11.24 0 0 1 27.55,17.06"
       class="cls-98"
       inkscape:connector-curvature="0"
       style="fill:#559e8e" />
    <path
       id="path6042"
       transform="translate(-6.9,-7.58)"
       d="M 84.74,17.16 A 11.28,11.28 0 0 1 96,28.44 v 0 57 A 11.28,11.28 0 0 1 84.74,96.71 h -57 A 11.28,11.28 0 0 1 16.48,85.42 v -57 A 11.21,11.21 0 0 1 27.62,17.16"
       class="cls-99"
       inkscape:connector-curvature="0"
       style="fill:#559e8f" />
    <path
       id="path6044"
       transform="translate(-6.9,-7.58)"
       d="m 84.67,17.26 a 11.26,11.26 0 0 1 11.26,11.25 v 0 56.84 A 11.26,11.26 0 0 1 84.67,96.61 H 27.83 A 11.26,11.26 0 0 1 16.58,85.35 V 28.51 A 11.18,11.18 0 0 1 27.69,17.26"
       class="cls-100"
       inkscape:connector-curvature="0"
       style="fill:#559f8f" />
    <path
       id="path6046"
       transform="translate(-6.9,-7.58)"
       d="m 84.6,17.35 a 11.23,11.23 0 0 1 11.23,11.23 v 0 56.7 A 11.23,11.23 0 0 1 84.6,96.51 H 27.9 A 11.23,11.23 0 0 1 16.68,85.28 V 28.58 A 11.16,11.16 0 0 1 27.76,17.35"
       class="cls-101"
       inkscape:connector-curvature="0"
       style="fill:#569f90" />
    <path
       id="path6048"
       transform="translate(-6.9,-7.58)"
       d="m 84.53,17.45 a 11.2,11.2 0 0 1 11.2,11.2 v 0 56.56 a 11.2,11.2 0 0 1 -11.2,11.2 H 28 A 11.2,11.2 0 0 1 16.8,85.21 V 28.65 a 11.13,11.13 0 0 1 11.06,-11.2"
       class="cls-102"
       inkscape:connector-curvature="0"
       style="fill:#56a090" />
    <path
       id="path6050"
       transform="translate(-6.9,-7.58)"
       d="m 84.49,17.51 a 11.18,11.18 0 0 1 11.18,11.18 v 0 56.48 A 11.18,11.18 0 0 1 84.52,96.35 H 28.14 A 11.19,11.19 0 0 1 16.93,85.26 c -0.05,0 -0.09,-14.08 -0.09,-14.13 v -42.4 a 11.25,11.25 0 0 1 0.43,-3.17 11.11,11.11 0 0 1 10.61,-8 h 0.47"
       class="cls-103"
       inkscape:connector-curvature="0"
       style="fill:#56a190" />
    <path
       id="path6052"
       transform="translate(-6.9,-7.58)"
       d="m 84.45,17.57 a 11.17,11.17 0 0 1 11.16,11.17 v 0 56.38 A 11.16,11.16 0 0 1 84.5,96.28 H 28.3 a 11.18,11.18 0 0 1 -11.22,-11 c -0.1,0 -0.19,-14 -0.19,-14.08 V 28.8 a 11.38,11.38 0 0 1 0.43,-3.17 11.09,11.09 0 0 1 10.6,-8.06 h 0.95"
       class="cls-104"
       inkscape:connector-curvature="0"
       style="fill:#57a191" />
    <path
       id="path6054"
       transform="translate(-6.9,-7.58)"
       d="m 84.4,17.63 a 11.15,11.15 0 0 1 11.15,11.15 v 0 56.3 A 11.14,11.14 0 0 1 84.49,96.21 h -56 A 11.18,11.18 0 0 1 17.24,85.36 c -0.16,0 -0.28,-13.88 -0.28,-14 V 28.88 A 11.5,11.5 0 0 1 17.38,25.71 11.07,11.07 0 0 1 28,17.63 h 1.42"
       class="cls-105"
       inkscape:connector-curvature="0"
       style="fill:#57a291" />
    <path
       id="path6056"
       transform="translate(-6.9,-7.58)"
       d="m 84.36,17.69 a 11.14,11.14 0 0 1 11.13,11.13 v 0 V 85 a 11.11,11.11 0 0 1 -11,11.12 c 0,0 -4.08,0 -4.12,0 H 28.62 c -5.94,0 -11.23,-4.82 -11.23,-10.76 -0.21,0 -0.37,-13.78 -0.38,-14 V 29 A 11.63,11.63 0 0 1 17.43,25.82 11,11 0 0 1 28,17.69 h 1.9"
       class="cls-106"
       inkscape:connector-curvature="0"
       style="fill:#57a292" />
    <path
       id="path6058"
       transform="translate(-6.9,-7.58)"
       d="m 84.32,17.74 a 11.12,11.12 0 0 1 11.11,11.12 v 0 V 85 a 11.09,11.09 0 0 1 -11,11.09 c 0,0 -4.06,0 -4.11,0 H 28.78 c -5.88,0 -11.24,-4.77 -11.24,-10.65 -0.26,0 -0.47,-13.68 -0.47,-13.94 V 29 a 11.76,11.76 0 0 1 0.41,-3.18 11,11 0 0 1 10.56,-8.1 h 2.37"
       class="cls-107"
       inkscape:connector-curvature="0"
       style="fill:#57a392" />
    <path
       id="path6060"
       transform="translate(-6.9,-7.58)"
       d="m 84.27,17.8 a 11.1,11.1 0 0 1 11.1,11.1 v 0 56 A 11.07,11.07 0 0 1 84.44,96 c -0.05,0 -4,0 -4.09,0 H 28.95 C 23.13,96 17.7,91.32 17.7,85.51 c -0.31,0 -0.56,-13.58 -0.56,-13.9 V 29.1 A 11.9,11.9 0 0 1 17.55,25.92 11,11 0 0 1 28.1,17.8 h 2.84"
       class="cls-108"
       inkscape:connector-curvature="0"
       style="fill:#58a393" />
    <path
       id="path6062"
       transform="translate(-6.9,-7.58)"
       d="m 84.23,17.86 a 11.09,11.09 0 0 1 11.08,11.08 v 0 56 A 11.05,11.05 0 0 1 84.43,95.95 c -0.06,0 -4,0 -4.08,0 H 29.11 C 23.35,95.95 17.86,91.28 17.86,85.53 17.5,85.53 17.2,72.04 17.2,71.68 V 29.18 A 12,12 0 0 1 17.6,26 11,11 0 0 1 28.14,17.87 h 3.31"
       class="cls-109"
       inkscape:connector-curvature="0"
       style="fill:#58a493" />
    <path
       id="path6064"
       transform="translate(-6.9,-7.58)"
       d="M 84.19,17.92 A 11.07,11.07 0 0 1 95.25,29 v 0 55.85 a 11,11 0 0 1 -10.84,11 c -0.07,0 -4,0 -4.07,0 H 29.27 C 23.57,95.92 18,91.3 18,85.6 17.59,85.6 17.25,72.21 17.25,71.8 V 29.25 a 12.18,12.18 0 0 1 0.4,-3.18 11,11 0 0 1 10.53,-8.15 H 32"
       class="cls-110"
       inkscape:connector-curvature="0"
       style="fill:#58a494" />
    <path
       id="path6066"
       transform="translate(-6.9,-7.58)"
       d="m 84.14,18 a 11.05,11.05 0 0 1 11,11 v 0 55.81 a 11,11 0 0 1 -10.8,11 c -0.08,0 -4,0 -4.05,0 H 29.43 c -5.63,0 -11.27,-4.57 -11.27,-10.2 -0.47,0 -0.84,-13.29 -0.85,-13.76 V 29.33 A 12.32,12.32 0 0 1 17.71,26.14 10.94,10.94 0 0 1 28.23,18 h 4.26"
       class="cls-111"
       inkscape:connector-curvature="0"
       style="fill:#58a594" />
    <path
       id="path6068"
       transform="translate(-6.9,-7.58)"
       d="m 84.1,18 a 11,11 0 0 1 11,11 v 0 55.76 a 11,11 0 0 1 -10.75,11 c -0.09,0 -3.94,0 -4,0 H 29.59 c -5.57,0 -11.28,-4.52 -11.28,-10.09 -0.52,0 -0.94,-13.19 -0.94,-13.71 V 29.4 A 12.47,12.47 0 0 1 17.76,26.21 10.92,10.92 0 0 1 28.28,18 H 33"
       class="cls-112"
       inkscape:connector-curvature="0"
       style="fill:#59a595" />
    <path
       id="path6070"
       transform="translate(-6.9,-7.58)"
       d="m 84.06,18.1 a 11,11 0 0 1 11,11 v 0 55.62 a 11,11 0 0 1 -10.71,11 c -0.1,0 -3.92,0 -4,0 H 29.76 c -5.51,0 -11.29,-4.47 -11.29,-10 -0.57,0 -1,-13.09 -1,-13.66 V 29.48 a 12.62,12.62 0 0 1 0.39,-3.19 10.9,10.9 0 0 1 10.5,-8.19 h 5.21"
       class="cls-113"
       inkscape:connector-curvature="0"
       style="fill:#59a695" />
    <path
       id="path6072"
       transform="translate(-6.9,-7.58)"
       d="m 84,18.15 a 11,11 0 0 1 11,11 v 0 55.52 A 11,11 0 0 1 84.35,95.62 c -0.11,0 -3.9,0.05 -4,0.05 H 29.92 c -5.45,0 -11.29,-4.42 -11.29,-9.87 -0.62,0 -1.12,-13 -1.13,-13.62 V 29.55 a 12.78,12.78 0 0 1 0.38,-3.19 10.87,10.87 0 0 1 10.49,-8.21 H 34"
       class="cls-114"
       inkscape:connector-curvature="0"
       style="fill:#59a696" />
    <path
       id="path6074"
       transform="translate(-6.9,-7.58)"
       d="m 84,18.21 a 11,11 0 0 1 11,11 v 0 55.42 A 10.93,10.93 0 0 1 84.33,95.55 c -0.12,0 -3.87,0.06 -4,0.06 H 30.08 c -5.39,0 -11.3,-4.37 -11.3,-9.76 -0.67,0 -1.22,-12.9 -1.22,-13.57 V 29.63 a 12.93,12.93 0 0 1 0.38,-3.19 10.85,10.85 0 0 1 10.48,-8.22 h 6.15"
       class="cls-115"
       inkscape:connector-curvature="0"
       style="fill:#5aa796" />
    <path
       id="path6076"
       transform="translate(-6.9,-7.58)"
       d="m 83.93,18.27 a 11,11 0 0 1 11,11 v 0 55.31 a 10.91,10.91 0 0 1 -10.57,10.9 c -0.12,0 -3.85,0.06 -4,0.06 H 30.24 c -5.33,0 -11.31,-4.32 -11.31,-9.65 -0.73,0 -1.31,-12.8 -1.32,-13.53 V 29.7 A 13.09,13.09 0 0 1 18,26.51 10.83,10.83 0 0 1 28.46,18.28 h 6.63"
       class="cls-116"
       inkscape:connector-curvature="0"
       style="fill:#5aa797" />
    <path
       id="path6078"
       transform="translate(-6.9,-7.58)"
       d="m 83.88,18.33 a 11,11 0 0 1 10.95,10.95 v 0 55.26 A 10.89,10.89 0 0 1 84.3,95.42 c -0.13,0 -3.83,0.07 -4,0.07 H 30.4 c -5.27,0 -11.32,-4.27 -11.32,-9.54 -0.78,0 -1.41,-12.7 -1.41,-13.48 V 29.78 a 13.26,13.26 0 0 1 0.37,-3.2 10.81,10.81 0 0 1 10.46,-8.25 h 7.1"
       class="cls-117"
       inkscape:connector-curvature="0"
       style="fill:#5aa897" />
    <path
       id="path6080"
       transform="translate(-6.9,-7.58)"
       d="m 83.84,18.39 a 10.94,10.94 0 0 1 10.93,10.93 v 0 55.17 A 10.87,10.87 0 0 1 84.29,95.35 c -0.14,0 -3.8,0.07 -4,0.07 H 30.57 c -5.21,0 -11.32,-4.22 -11.32,-9.43 -0.83,0 -1.5,-12.6 -1.5,-13.43 V 29.85 a 13.43,13.43 0 0 1 0.37,-3.2 10.79,10.79 0 0 1 10.44,-8.26 h 7.57"
       class="cls-118"
       inkscape:connector-curvature="0"
       style="fill:#5aa898" />
    <path
       id="path6082"
       transform="translate(-6.9,-7.58)"
       d="m 83.8,18.45 a 10.92,10.92 0 0 1 10.91,10.91 v 0 55.09 A 10.85,10.85 0 0 1 84.27,95.28 c -0.15,0 -3.78,0.07 -3.95,0.07 H 30.73 c -5.14,0 -11.33,-4.17 -11.33,-9.31 -0.88,0 -1.59,-12.51 -1.6,-13.39 V 29.92 a 13.6,13.6 0 0 1 0.36,-3.2 10.77,10.77 0 0 1 10.43,-8.28 h 8"
       class="cls-119"
       inkscape:connector-curvature="0"
       style="fill:#5ba998" />
    <path
       id="path6084"
       transform="translate(-6.9,-7.58)"
       d="m 83.75,18.5 a 10.91,10.91 0 0 1 10.9,10.9 v 0 55 A 10.82,10.82 0 0 1 84.26,95.22 C 84.1,95.27 80.5,95.3 80.33,95.3 H 30.89 c -5.08,0 -11.34,-4.12 -11.34,-9.2 -0.93,0 -1.69,-12.41 -1.69,-13.34 V 30 a 13.78,13.78 0 0 1 0.36,-3.2 10.75,10.75 0 0 1 10.42,-8.3 h 8.52"
       class="cls-120"
       inkscape:connector-curvature="0"
       style="fill:#5ba999" />
    <path
       id="path6086"
       transform="translate(-6.9,-7.58)"
       d="m 83.71,18.56 a 10.89,10.89 0 0 1 10.88,10.88 v 0 54.92 a 10.8,10.8 0 0 1 -10.35,10.8 c -0.17,0.05 -3.73,0.08 -3.92,0.08 H 31.05 c -5,0 -11.35,-4.07 -11.35,-9.09 -1,0 -1.78,-12.31 -1.79,-13.29 V 30.07 a 14,14 0 0 1 0.35,-3.2 10.73,10.73 0 0 1 10.41,-8.31 h 9"
       class="cls-121"
       inkscape:connector-curvature="0"
       style="fill:#5baa99" />
    <path
       id="path6088"
       transform="translate(-6.9,-7.58)"
       d="m 83.67,18.62 a 10.88,10.88 0 0 1 10.86,10.87 v 0 54.82 a 10.78,10.78 0 0 1 -10.3,10.78 c -0.18,0.06 -3.71,0.09 -3.91,0.09 H 31.21 c -5,0 -11.36,-4 -11.36,-9 C 18.82,86.19 18,74 18,72.94 V 30.15 a 14.15,14.15 0 0 1 0.35,-3.21 10.71,10.71 0 0 1 10.4,-8.32 h 9.47"
       class="cls-122"
       inkscape:connector-curvature="0"
       style="fill:#5caa9a" />
    <path
       id="path6090"
       transform="translate(-6.9,-7.58)"
       d="m 83.62,18.68 a 10.86,10.86 0 0 1 10.85,10.85 v 0 54.74 A 10.76,10.76 0 0 1 84.21,95 c -0.19,0.06 -3.69,0.09 -3.89,0.09 H 31.38 c -4.9,0 -11.36,-4 -11.36,-8.87 -1.09,0 -2,-12.11 -2,-13.2 V 30.22 A 14.34,14.34 0 0 1 18.38,27 10.69,10.69 0 0 1 28.77,18.66 h 9.94"
       class="cls-123"
       inkscape:connector-curvature="0"
       style="fill:#5cab9a" />
    <path
       id="path6092"
       transform="translate(-6.9,-7.58)"
       d="m 83.58,18.74 a 10.84,10.84 0 0 1 10.83,10.83 v 0 54.65 A 10.74,10.74 0 0 1 84.2,95 c -0.19,0.06 -3.67,0.1 -3.88,0.1 H 31.54 c -4.84,0 -11.37,-3.92 -11.37,-8.76 -1.14,0 -2.06,-12 -2.07,-13.16 V 30.3 a 14.54,14.54 0 0 1 0.34,-3.21 10.67,10.67 0 0 1 10.38,-8.35 h 10.41"
       class="cls-124"
       inkscape:connector-curvature="0"
       style="fill:#5cac9a" />
    <path
       id="path6094"
       transform="translate(-6.9,-7.58)"
       d="m 83.54,18.8 a 10.83,10.83 0 0 1 10.81,10.81 v 0 54.57 A 10.72,10.72 0 0 1 84.18,94.89 c -0.2,0.06 -3.64,0.1 -3.87,0.1 H 31.7 c -4.78,0 -11.38,-3.87 -11.38,-8.65 -1.19,0 -2.16,-11.92 -2.16,-13.11 V 30.37 A 14.74,14.74 0 0 1 18.5,27.16 10.66,10.66 0 0 1 28.86,18.8 h 10.88"
       class="cls-125"
       inkscape:connector-curvature="0"
       style="fill:#5cac9b" />
    <path
       id="path6096"
       transform="translate(-6.9,-7.58)"
       d="m 83.49,18.86 a 10.81,10.81 0 0 1 10.8,10.8 v 0 54.47 A 10.71,10.71 0 0 1 84.17,94.82 c -0.21,0.07 -3.62,0.1 -3.85,0.11 H 31.86 c -4.72,0 -11.39,-3.82 -11.39,-8.54 -1.24,0 -2.25,-11.82 -2.26,-13.06 V 30.45 a 15,15 0 0 1 0.33,-3.21 10.64,10.64 0 0 1 10.36,-8.38 h 11.36"
       class="cls-126"
       inkscape:connector-curvature="0"
       style="fill:#5dad9b" />
    <path
       id="path6098"
       transform="translate(-6.9,-7.58)"
       d="m 83.45,18.91 a 10.79,10.79 0 0 1 10.78,10.78 v 0 54.4 A 10.69,10.69 0 0 1 84.15,94.75 c -0.22,0.07 -3.6,0.11 -3.84,0.11 H 32 c -4.65,0 -11.39,-3.77 -11.39,-8.43 -1.3,0 -2.34,-11.72 -2.35,-13 V 30.52 a 15.16,15.16 0 0 1 0.33,-3.21 10.62,10.62 0 0 1 10.34,-8.39 h 11.85"
       class="cls-127"
       inkscape:connector-curvature="0"
       style="fill:#5dad9c" />
    <path
       id="path6100"
       transform="translate(-6.9,-7.58)"
       d="m 83.41,19 a 10.78,10.78 0 0 1 10.76,10.74 v 0 V 84 a 10.67,10.67 0 0 1 -10,10.65 c -0.23,0.07 -3.57,0.11 -3.83,0.11 H 32.19 c -4.59,0 -11.4,-3.72 -11.4,-8.32 -1.35,0 -2.44,-11.62 -2.45,-13 V 30.6 A 15.38,15.38 0 0 1 18.66,27.38 10.6,10.6 0 0 1 29,19 h 12.3"
       class="cls-128"
       inkscape:connector-curvature="0"
       style="fill:#5dae9c" />
    <path
       id="path6102"
       transform="translate(-6.9,-7.58)"
       d="m 83.36,19 a 10.76,10.76 0 0 1 10.75,10.78 v 0 V 84 a 10.65,10.65 0 0 1 -10,10.63 c -0.24,0.08 -3.55,0.12 -3.81,0.12 h -48 c -4.53,0 -11.41,-3.67 -11.41,-8.21 -1.4,0 -2.53,-11.53 -2.54,-12.92 V 30.67 A 15.61,15.61 0 0 1 18.67,27.45 10.58,10.58 0 0 1 29,19 h 12.82"
       class="cls-129"
       inkscape:connector-curvature="0"
       style="fill:#5dae9d" />
    <path
       id="path6104"
       transform="translate(-6.9,-7.58)"
       d="M 83.32,19.09 A 10.75,10.75 0 0 1 94,29.82 v 0 V 84 a 10.63,10.63 0 0 1 -9.9,10.56 c -0.25,0.08 -3.53,0.12 -3.8,0.12 H 32.51 c -4.47,0 -11.42,-3.62 -11.42,-8.1 -1.45,0 -2.62,-11.43 -2.63,-12.88 v -43 a 15.84,15.84 0 0 1 0.32,-3.22 10.56,10.56 0 0 1 10.31,-8.44 h 13.24"
       class="cls-130"
       inkscape:connector-curvature="0"
       style="fill:#5eaf9d" />
    <path
       id="path6106"
       transform="translate(-6.9,-7.58)"
       d="M 83.28,19.15 A 10.73,10.73 0 0 1 94,29.86 v 0 54 a 10.61,10.61 0 0 1 -9.9,10.58 c -0.26,0.08 -3.5,0.13 -3.79,0.13 H 32.67 c -4.41,0 -11.43,-3.57 -11.43,-8 -1.5,0 -2.72,-11.33 -2.73,-12.83 v -43 a 16.07,16.07 0 0 1 0.31,-3.22 10.54,10.54 0 0 1 10.3,-8.45 h 13.73"
       class="cls-131"
       inkscape:connector-curvature="0"
       style="fill:#5eaf9e" />
    <path
       id="path6108"
       transform="translate(-6.9,-7.58)"
       d="m 83.23,19.21 a 10.71,10.71 0 0 1 10.7,10.7 v 0 54 A 10.59,10.59 0 0 1 84.08,94.47 C 83.81,94.55 80.6,94.6 80.31,94.6 H 32.83 c -4.35,0 -11.43,-3.52 -11.43,-7.87 -1.55,0 -2.81,-11.23 -2.82,-12.79 v -43 a 16.32,16.32 0 0 1 0.31,-3.22 10.52,10.52 0 0 1 10.29,-8.47 h 14.2"
       class="cls-132"
       inkscape:connector-curvature="0"
       style="fill:#5eb09e" />
    <path
       id="path6110"
       transform="translate(-6.9,-7.58)"
       d="m 83.19,19.27 a 10.7,10.7 0 0 1 10.68,10.67 v 0 53.87 a 10.57,10.57 0 0 1 -9.81,10.54 c -0.27,0.09 -3.46,0.13 -3.76,0.14 H 33 c -4.29,0 -11.44,-3.48 -11.44,-7.76 -1.61,0 -2.91,-11.13 -2.92,-12.74 V 31 a 16.57,16.57 0 0 1 0.3,-3.23 10.51,10.51 0 0 1 10.28,-8.48 h 14.67"
       class="cls-133"
       inkscape:connector-curvature="0"
       style="fill:#5fb09f" />
    <path
       id="path6112"
       transform="translate(-6.9,-7.58)"
       d="M 83.15,19.32 A 10.68,10.68 0 0 1 93.81,30 v 0 53.77 A 10.55,10.55 0 0 1 84,94.29 c -0.28,0.09 -3.43,0.14 -3.75,0.14 H 33.16 c -4.23,0 -11.45,-3.43 -11.45,-7.65 -1.66,0 -3,-11 -3,-12.69 V 31 a 16.83,16.83 0 0 1 0.3,-3.23 10.49,10.49 0 0 1 10.26,-8.5 h 15.14"
       class="cls-134"
       inkscape:connector-curvature="0"
       style="fill:#5fb19f" />
    <path
       id="path6114"
       transform="translate(-6.9,-7.58)"
       d="M 83.1,19.38 A 10.66,10.66 0 0 1 93.75,30 v 0 53.7 A 10.53,10.53 0 0 1 84,94.22 c -0.29,0.09 -3.41,0.14 -3.73,0.15 h -47 c -4.16,0 -11.46,-3.38 -11.46,-7.54 -1.71,0 -3.09,-10.94 -3.1,-12.65 V 31.12 A 17.09,17.09 0 0 1 19,27.89 10.47,10.47 0 0 1 29.25,19.38 h 15.68"
       class="cls-135"
       inkscape:connector-curvature="0"
       style="fill:#5fb1a0" />
    <path
       id="path6116"
       transform="translate(-6.9,-7.58)"
       d="m 83.06,19.44 a 10.65,10.65 0 0 1 10.63,10.63 v 0 53.61 A 10.51,10.51 0 0 1 84,94.16 c -0.3,0.1 -3.39,0.15 -3.72,0.15 H 33.48 C 29.38,94.31 22,91 22,86.88 c -1.76,0 -3.19,-10.84 -3.2,-12.6 V 31.2 A 17.37,17.37 0 0 1 19.11,28 10.45,10.45 0 0 1 29.35,19.47 h 16.09"
       class="cls-136"
       inkscape:connector-curvature="0"
       style="fill:#5fb2a0" />
    <path
       id="path6118"
       transform="translate(-6.9,-7.58)"
       d="m 83,19.5 a 10.63,10.63 0 0 1 10.63,10.61 v 0 53.52 A 10.49,10.49 0 0 1 84,94.09 c -0.31,0.1 -3.37,0.15 -3.71,0.15 H 33.64 c -4,0 -11.47,-3.28 -11.47,-7.32 -1.81,0 -3.28,-10.74 -3.29,-12.55 V 31.27 A 17.65,17.65 0 0 1 19.17,28 10.43,10.43 0 0 1 29.4,19.5 H 46"
       class="cls-137"
       inkscape:connector-curvature="0"
       style="fill:#60b2a1" />
    <path
       id="path6120"
       transform="translate(-6.9,-7.58)"
       d="m 83,19.56 a 10.62,10.62 0 0 1 10.57,10.59 v 0 53.44 A 10.47,10.47 0 0 1 84,94 c -0.32,0.1 -3.34,0.16 -3.69,0.16 h -46.5 c -4,0 -11.48,-3.23 -11.48,-7.21 C 20.46,87 19,76.33 18.94,74.47 V 31.35 a 17.94,17.94 0 0 1 0.28,-3.23 10.42,10.42 0 0 1 10.22,-8.55 h 17"
       class="cls-138"
       inkscape:connector-curvature="0"
       style="fill:#60b3a1" />
    <path
       id="path6122"
       transform="translate(-6.9,-7.58)"
       d="m 82.93,19.62 a 10.6,10.6 0 0 1 10.58,10.57 v 0 53.35 A 10.46,10.46 0 0 1 84,94 c -0.33,0.1 -3.32,0.16 -3.68,0.16 H 34 c -3.92,0 -11.49,-3.18 -11.49,-7.1 C 20.56,87 19,76.48 19,74.56 V 31.42 a 18.25,18.25 0 0 1 0.28,-3.24 10.4,10.4 0 0 1 10.21,-8.57 H 47"
       class="cls-139"
       inkscape:connector-curvature="0"
       style="fill:#60b3a2" />
    <path
       id="path6124"
       transform="translate(-6.9,-7.58)"
       d="m 82.89,19.67 a 10.58,10.58 0 0 1 10.56,10.57 v 0 53.26 A 10.44,10.44 0 0 1 84,93.89 c -0.34,0.11 -3.3,0.17 -3.67,0.17 h -46.2 c -3.86,0 -11.5,-3.13 -11.5,-7 -2,0 -3.56,-10.45 -3.57,-12.42 V 31.5 a 18.56,18.56 0 0 1 0.27,-3.24 10.38,10.38 0 0 1 10.2,-8.58 h 18"
       class="cls-140"
       inkscape:connector-curvature="0"
       style="fill:#61b4a2" />
    <path
       id="path6126"
       transform="translate(-6.9,-7.58)"
       d="m 82.84,19.73 a 10.57,10.57 0 0 1 10.55,10.55 v 0 53.17 a 10.42,10.42 0 0 1 -9.45,10.37 c -0.35,0.11 -3.27,0.17 -3.65,0.17 h -46 c -3.8,0 -11.5,-3.08 -11.5,-6.88 -2,0 -3.66,-10.35 -3.67,-12.37 V 31.57 a 18.88,18.88 0 0 1 0.27,-3.24 10.36,10.36 0 0 1 10.19,-8.6 H 48"
       class="cls-141"
       inkscape:connector-curvature="0"
       style="fill:#61b4a3" />
    <path
       id="path6128"
       transform="translate(-6.9,-7.58)"
       d="m 82.8,19.79 a 10.55,10.55 0 0 1 10.53,10.53 v 0 53.09 a 10.4,10.4 0 0 1 -9.41,10.35 c -0.35,0.11 -3.25,0.17 -3.64,0.18 H 34.45 c -3.74,0 -11.51,-3 -11.51,-6.76 -2.07,0 -3.75,-10.25 -3.76,-12.32 V 31.65 a 19.21,19.21 0 0 1 0.26,-3.24 10.35,10.35 0 0 1 10.18,-8.61 h 18.93"
       class="cls-142"
       inkscape:connector-curvature="0"
       style="fill:#61b5a3" />
    <path
       id="path6130"
       transform="translate(-6.9,-7.58)"
       d="m 82.76,19.85 a 10.53,10.53 0 0 1 10.51,10.51 v 0 53 A 10.38,10.38 0 0 1 83.9,93.69 c -0.36,0.11 -3.23,0.18 -3.63,0.18 H 34.62 c -3.67,0 -11.52,-3 -11.52,-6.65 -2.12,0 -3.84,-10.15 -3.86,-12.28 V 31.72 a 19.55,19.55 0 0 1 0.26,-3.24 10.33,10.33 0 0 1 10.16,-8.63 h 19.4"
       class="cls-143"
       inkscape:connector-curvature="0"
       style="fill:#61b6a3" />
    <path
       id="path6132"
       transform="translate(-6.9,-7.58)"
       d="m 82.71,19.91 a 10.52,10.52 0 0 1 10.5,10.49 v 0 52.92 a 10.36,10.36 0 0 1 -9.32,10.31 c -0.37,0.12 -3.2,0.18 -3.61,0.18 h -45.5 c -3.61,0 -11.53,-2.93 -11.53,-6.54 -2.18,0 -3.94,-10.05 -4,-12.23 V 31.8 a 19.91,19.91 0 0 1 0.25,-3.25 10.31,10.31 0 0 1 10.15,-8.64 h 19.94"
       class="cls-144"
       inkscape:connector-curvature="0"
       style="fill:#62b6a4" />
    <path
       id="path6134"
       transform="translate(-6.9,-7.58)"
       d="m 82.67,20 a 10.5,10.5 0 0 1 10.47,10.44 v 0 52.83 a 10.35,10.35 0 0 1 -9.27,10.29 c -0.38,0.12 -3.18,0.19 -3.6,0.19 H 34.94 c -3.55,0 -11.53,-2.88 -11.53,-6.43 -2.23,0 -4,-10 -4,-12.18 V 31.87 A 20.27,20.27 0 0 1 19.66,28.62 10.3,10.3 0 0 1 29.76,20 h 20.35"
       class="cls-145"
       inkscape:connector-curvature="0"
       style="fill:#62b7a4" />
    <path
       id="path6136"
       transform="translate(-6.9,-7.58)"
       d="m 82.63,20 a 10.49,10.49 0 0 1 10.45,10.49 v 0 52.74 A 10.33,10.33 0 0 1 83.85,93.5 35.1,35.1 0 0 1 80.26,93.69 H 35.1 c -3.49,0 -11.54,-2.83 -11.54,-6.32 -2.28,0 -4.12,-9.86 -4.14,-12.14 V 31.95 A 20.65,20.65 0 0 1 19.67,28.7 10.28,10.28 0 0 1 29.8,20 h 20.82"
       class="cls-146"
       inkscape:connector-curvature="0"
       style="fill:#62b7a5" />
    <path
       id="path6138"
       transform="translate(-6.9,-7.58)"
       d="M 82.58,20.08 A 10.47,10.47 0 0 1 93,30.53 v 0 52.65 a 10.31,10.31 0 0 1 -9.18,10.24 34.06,34.06 0 0 1 -3.57,0.2 h -45 c -3.43,0 -11.55,-2.78 -11.55,-6.21 -2.33,0 -4.22,-9.76 -4.23,-12.09 V 32 a 21,21 0 0 1 0.24,-3.25 10.26,10.26 0 0 1 10.12,-8.69 h 21.3"
       class="cls-147"
       inkscape:connector-curvature="0"
       style="fill:#62b8a5" />
    <path
       id="path6140"
       transform="translate(-6.9,-7.58)"
       d="M 82.54,20.14 A 10.45,10.45 0 0 1 93,30.57 v 0 52.57 a 10.29,10.29 0 0 1 -9.14,10.22 33.07,33.07 0 0 1 -3.56,0.2 H 35.43 c -3.37,0 -11.56,-2.73 -11.56,-6.1 -2.38,0 -4.31,-9.66 -4.33,-12 V 32.1 a 21.46,21.46 0 0 1 0.24,-3.25 10.25,10.25 0 0 1 10.11,-8.7 h 21.77"
       class="cls-148"
       inkscape:connector-curvature="0"
       style="fill:#63b8a6" />
    <path
       id="path6142"
       transform="translate(-6.9,-7.58)"
       d="m 82.5,20.2 a 10.44,10.44 0 0 1 10.4,10.41 v 0 52.48 a 10.28,10.28 0 0 1 -9.09,10.2 32.11,32.11 0 0 1 -3.55,0.21 H 35.59 c -3.31,0 -11.57,-2.68 -11.57,-6 -2.44,0 -4.41,-9.56 -4.42,-12 V 32.17 a 21.88,21.88 0 0 1 0.23,-3.26 10.23,10.23 0 0 1 10.1,-8.71 h 22.25"
       class="cls-149"
       inkscape:connector-curvature="0"
       style="fill:#63b9a6" />
    <path
       id="path6144"
       transform="translate(-6.9,-7.58)"
       d="m 82.45,20.26 a 10.42,10.42 0 0 1 10.39,10.39 v 0 V 83 a 10.26,10.26 0 0 1 -9,10.18 31.2,31.2 0 0 1 -3.53,0.21 H 35.75 c -3.25,0 -11.57,-2.63 -11.57,-5.88 -2.49,0 -4.5,-9.47 -4.51,-12 V 32.25 A 22.32,22.32 0 0 1 19.89,29 10.21,10.21 0 0 1 30,20.26 h 22.7"
       class="cls-150"
       inkscape:connector-curvature="0"
       style="fill:#63b9a7" />
    <path
       id="path6146"
       transform="translate(-6.9,-7.58)"
       d="m 82.41,20.32 a 10.4,10.4 0 0 1 10.37,10.37 v 0 V 83 a 10.24,10.24 0 0 1 -9,10.16 30.33,30.33 0 0 1 -3.52,0.22 H 35.91 c -3.18,0 -11.58,-2.58 -11.58,-5.77 -2.54,0 -4.59,-9.37 -4.61,-11.91 V 32.32 A 22.78,22.78 0 0 1 19.94,29.06 10.2,10.2 0 0 1 30,20.32 h 23.21"
       class="cls-151"
       inkscape:connector-curvature="0"
       style="fill:#64baa7" />
    <path
       id="path6148"
       transform="translate(-6.9,-7.58)"
       d="m 82.37,20.38 a 10.39,10.39 0 0 1 10.35,10.36 v 0 V 83 a 10.22,10.22 0 0 1 -9,10.14 29.5,29.5 0 0 1 -3.51,0.22 H 36.08 c -3.12,0 -11.59,-2.53 -11.59,-5.66 -2.59,0 -4.69,-9.27 -4.7,-11.86 V 32.4 A 23.25,23.25 0 0 1 20,29.14 10.18,10.18 0 0 1 30.07,20.38 h 23.66"
       class="cls-152"
       inkscape:connector-curvature="0"
       style="fill:#64baa8" />
    <path
       id="path6150"
       transform="translate(-6.9,-7.58)"
       d="m 82.32,20.44 a 10.37,10.37 0 0 1 10.34,10.34 v 0 52.13 A 10.21,10.21 0 0 1 83.75,93 a 28.7,28.7 0 0 1 -3.5,0.22 h -44 c -3.06,0 -11.6,-2.48 -11.6,-5.54 -2.64,0 -4.78,-9.17 -4.8,-11.81 v -43.4 a 23.75,23.75 0 0 1 0.22,-3.26 10.17,10.17 0 0 1 10.05,-8.77 h 24.13"
       class="cls-153"
       inkscape:connector-curvature="0"
       style="fill:#64bba8" />
    <path
       id="path6152"
       transform="translate(-6.9,-7.58)"
       d="M 82.28,20.49 A 10.36,10.36 0 0 1 92.6,30.82 v 0 52 A 10.19,10.19 0 0 1 83.74,93 27.93,27.93 0 0 1 80.26,93.23 H 36.4 c -3,0 -11.6,-2.43 -11.6,-5.43 -2.69,0 -4.87,-9.07 -4.89,-11.77 V 32.55 a 24.26,24.26 0 0 1 0.21,-3.26 10.15,10.15 0 0 1 10,-8.79 h 24.65"
       class="cls-154"
       inkscape:connector-curvature="0"
       style="fill:#64bba9" />
    <path
       id="path6154"
       transform="translate(-6.9,-7.58)"
       d="m 82.24,20.55 a 10.34,10.34 0 0 1 10.3,10.31 v 0 52 A 10.17,10.17 0 0 1 83.72,92.9 27.19,27.19 0 0 1 80.25,93.13 H 36.56 c -2.94,0 -11.61,-2.38 -11.61,-5.32 -2.75,0 -5,-9 -5,-11.72 V 32.62 a 24.8,24.8 0 0 1 0.21,-3.27 10.13,10.13 0 0 1 10,-8.8 h 25.13"
       class="cls-155"
       inkscape:connector-curvature="0"
       style="fill:#65bca9" />
    <path
       id="path6156"
       transform="translate(-6.9,-7.58)"
       d="M 82.19,20.61 A 10.32,10.32 0 0 1 92.48,30.9 v 0 51.88 A 10.16,10.16 0 0 1 83.7,92.83 26.48,26.48 0 0 1 80.24,93.07 H 36.72 C 33.84,93.07 25.1,90.74 25.1,87.86 22.31,87.84 20,79 20,76.18 V 32.7 a 25.36,25.36 0 0 1 0.2,-3.27 10.12,10.12 0 0 1 10,-8.82 h 25.6"
       class="cls-156"
       inkscape:connector-curvature="0"
       style="fill:#65bcaa" />
    <path
       id="path6158"
       transform="translate(-6.9,-7.58)"
       d="m 82.15,20.67 a 10.31,10.31 0 0 1 10.27,10.27 v 0 51.79 a 10.14,10.14 0 0 1 -8.73,10 25.79,25.79 0 0 1 -3.44,0.24 H 36.89 c -2.82,0 -11.63,-2.28 -11.63,-5.1 -2.85,0 -5.16,-8.78 -5.17,-11.63 V 32.77 a 25.94,25.94 0 0 1 0.2,-3.27 10.1,10.1 0 0 1 10,-8.83 h 26"
       class="cls-157"
       inkscape:connector-curvature="0"
       style="fill:#65bdaa" />
    <path
       id="path6160"
       transform="translate(-6.9,-7.58)"
       d="M 82.1,20.73 A 10.29,10.29 0 0 1 92.36,31 v 0 51.7 a 10.12,10.12 0 0 1 -8.69,10 25.13,25.13 0 0 1 -3.43,0.25 H 37 c -2.76,0 -11.64,-2.23 -11.64,-5 -2.9,0 -5.25,-8.68 -5.27,-11.58 V 32.84 a 26.55,26.55 0 0 1 0.19,-3.27 10.09,10.09 0 0 1 10,-8.85 h 26.5"
       class="cls-158"
       inkscape:connector-curvature="0"
       style="fill:#66bdab" />
    <path
       id="path6162"
       transform="translate(-6.9,-7.58)"
       d="M 82.06,20.79 A 10.27,10.27 0 0 1 92.3,31 v 0 51.64 a 10.11,10.11 0 0 1 -8.64,10 24.5,24.5 0 0 1 -3.42,0.25 h -43 c -2.69,0 -11.64,-2.18 -11.64,-4.88 -3,0 -5.34,-8.58 -5.36,-11.54 V 32.92 a 27.19,27.19 0 0 1 0.19,-3.27 10.07,10.07 0 0 1 10,-8.86 h 27"
       class="cls-159"
       inkscape:connector-curvature="0"
       style="fill:#66beab" />
    <path
       id="path6164"
       transform="translate(-6.9,-7.58)"
       d="m 82,20.84 a 10.26,10.26 0 0 1 10.24,10.23 v 0 51.53 a 10.09,10.09 0 0 1 -8.6,10 23.89,23.89 0 0 1 -3.4,0.26 H 37.37 c -2.63,0 -11.65,-2.13 -11.65,-4.77 -3,0 -5.44,-8.48 -5.46,-11.49 V 33 a 27.86,27.86 0 0 1 0.19,-3.28 10.06,10.06 0 0 1 10,-8.87 h 27.43"
       class="cls-160"
       inkscape:connector-curvature="0"
       style="fill:#66beac" />
    <path
       id="path6166"
       transform="translate(-6.9,-7.58)"
       d="m 82,20.9 a 10.24,10.24 0 0 1 10.18,10.21 v 0 51.44 a 10.08,10.08 0 0 1 -8.55,9.95 23.3,23.3 0 0 1 -3.39,0.26 H 37.53 c -2.57,0 -11.66,-2.09 -11.66,-4.66 -3.06,0 -5.53,-8.39 -5.55,-11.44 V 33.07 a 28.56,28.56 0 0 1 0.18,-3.28 10,10 0 0 1 10,-8.89 h 27.89"
       class="cls-161"
       inkscape:connector-curvature="0"
       style="fill:#66bfac" />
    <path
       id="path6168"
       transform="translate(-6.9,-7.58)"
       d="m 81.93,21 a 10.23,10.23 0 0 1 10.19,10.15 v 0 51.36 a 10.06,10.06 0 0 1 -8.51,9.93 22.73,22.73 0 0 1 -3.38,0.26 H 37.7 c -2.51,0 -11.67,-2 -11.67,-4.55 -3.11,0 -5.62,-8.29 -5.64,-11.4 V 33.14 a 29.29,29.29 0 0 1 0.18,-3.28 10,10 0 0 1 10,-8.9 h 28.4"
       class="cls-162"
       inkscape:connector-curvature="0"
       style="fill:#67bfad" />
    <path
       id="path6170"
       transform="translate(-6.9,-7.58)"
       d="m 81.89,21 a 10.21,10.21 0 0 1 10.17,10.19 v 0 51.27 a 10,10 0 0 1 -8.46,9.9 22.18,22.18 0 0 1 -3.36,0.27 H 37.86 c -2.45,0 -11.67,-2 -11.67,-4.44 -3.16,0 -5.72,-8.19 -5.74,-11.35 V 33.22 A 30.06,30.06 0 0 1 20.62,29.94 10,10 0 0 1 30.56,21 h 28.87"
       class="cls-163"
       inkscape:connector-curvature="0"
       style="fill:#67c0ad" />
    <path
       id="path6172"
       transform="translate(-6.9,-7.58)"
       d="M 81.84,21.08 A 10.19,10.19 0 0 1 92,31.24 v 0 51.18 a 10,10 0 0 1 -8.42,9.88 21.64,21.64 0 0 1 -3.35,0.27 H 38 c -2.39,0 -11.68,-1.94 -11.68,-4.32 -3.21,0 -5.81,-8.09 -5.83,-11.3 V 33.29 A 30.87,30.87 0 0 1 20.67,30 10,10 0 0 1 30.6,21.07 h 29.35"
       class="cls-164"
       inkscape:connector-curvature="0"
       style="fill:#67c1ad" />
    <path
       id="path6174"
       transform="translate(-6.9,-7.58)"
       d="m 81.8,21.14 a 10.18,10.18 0 0 1 10.14,10.14 v 0 51.1 a 10,10 0 0 1 -8.37,9.86 21.13,21.13 0 0 1 -3.34,0.28 h -42 c -2.33,0 -11.69,-1.89 -11.69,-4.21 -3.26,0 -5.91,-8 -5.93,-11.26 V 33.37 a 31.72,31.72 0 0 1 0.16,-3.28 10,10 0 0 1 9.92,-8.95 h 29.78"
       class="cls-165"
       inkscape:connector-curvature="0"
       style="fill:#67c1ae" />
    <path
       id="path6176"
       transform="translate(-6.9,-7.58)"
       d="m 81.76,21.2 a 10.16,10.16 0 0 1 10.12,10.12 v 0 51 a 10,10 0 0 1 -8.33,9.84 20.63,20.63 0 0 1 -3.32,0.28 H 38.34 c -2.27,0 -11.7,-1.84 -11.7,-4.1 -3.32,0 -6,-7.9 -6,-11.21 V 33.44 a 32.62,32.62 0 0 1 0.16,-3.29 10,10 0 0 1 9.91,-9 H 61"
       class="cls-166"
       inkscape:connector-curvature="0"
       style="fill:#68c2ae" />
    <path
       id="path6178"
       transform="translate(-6.9,-7.58)"
       d="m 81.71,21.25 a 10.14,10.14 0 0 1 10.11,10.11 v 0 50.92 a 10,10 0 0 1 -8.28,9.82 20.15,20.15 0 0 1 -3.31,0.29 H 38.51 c -2.2,0 -11.71,-1.79 -11.71,-4 -3.37,0 -6.09,-7.8 -6.11,-11.17 v -43.7 c 0,-0.39 0.05,-2.93 0.16,-3.29 a 10,10 0 0 1 9.9,-9 H 61.5"
       class="cls-167"
       inkscape:connector-curvature="0"
       style="fill:#68c2af" />
    <path
       id="path6180"
       transform="translate(-6.9,-7.58)"
       d="M 81.67,21.31 A 10.13,10.13 0 0 1 91.76,31.4 v 0 50.84 A 10,10 0 0 1 83.52,92 19.69,19.69 0 0 1 80.22,92.29 H 38.67 C 36.52,92.33 27,90.59 27,88.45 c -3.42,0 -6.19,-7.7 -6.21,-11.12 V 33.59 c 0,-0.38 0.05,-2.94 0.15,-3.29 a 9.94,9.94 0 0 1 9.89,-9 H 62"
       class="cls-168"
       inkscape:connector-curvature="0"
       style="fill:#68c3af" />
    <path
       id="path6182"
       transform="translate(-6.9,-7.58)"
       d="M 81.63,21.37 A 10.11,10.11 0 0 1 91.7,31.44 v 0 50.75 A 10,10 0 0 1 83.51,92 19.24,19.24 0 0 1 80.23,92.3 h -41.4 c -2.08,0 -11.72,-1.69 -11.72,-3.77 -3.47,0 -6.28,-7.6 -6.3,-11.07 V 33.67 c 0,-0.37 0,-3 0.15,-3.29 a 9.93,9.93 0 0 1 9.88,-9 h 31.7"
       class="cls-169"
       inkscape:connector-curvature="0"
       style="fill:#69c3b0" />
    <path
       id="path6184"
       transform="translate(-6.9,-7.58)"
       d="m 81.58,21.43 a 10.1,10.1 0 0 1 10.06,10.06 v 0 50.66 a 9.94,9.94 0 0 1 -8.15,9.76 18.8,18.8 0 0 1 -3.27,0.3 H 39 c -2,0 -11.73,-1.64 -11.73,-3.66 -3.52,0 -6.37,-7.5 -6.4,-11 V 33.74 c 0,-0.36 0,-3 0.14,-3.29 a 9.91,9.91 0 0 1 9.87,-9 h 32.18"
       class="cls-170"
       inkscape:connector-curvature="0"
       style="fill:#69c4b0" />
    <path
       id="path6186"
       transform="translate(-6.9,-7.58)"
       d="m 81.54,21.49 a 10.08,10.08 0 0 1 10,10 v 0 50.61 a 9.92,9.92 0 0 1 -8.1,9.73 18.38,18.38 0 0 1 -3.26,0.3 H 39.15 c -2,0 -11.74,-1.59 -11.74,-3.55 -3.58,0 -6.47,-7.41 -6.49,-11 V 33.82 c 0,-0.35 0,-3 0.14,-3.3 a 9.9,9.9 0 0 1 9.85,-9 h 32.67"
       class="cls-171"
       inkscape:connector-curvature="0"
       style="fill:#69c4b1" />
    <path
       id="path6188"
       transform="translate(-6.9,-7.58)"
       d="m 81.5,21.55 a 10.06,10.06 0 0 1 10,10 v 0 50.51 a 9.91,9.91 0 0 1 -8.06,9.71 18,18 0 0 1 -3.24,0.31 H 39.32 c -1.9,0 -11.74,-1.54 -11.74,-3.44 -3.63,0 -6.56,-7.31 -6.58,-10.93 V 33.89 c 0,-0.34 0,-3 0.13,-3.3 a 9.88,9.88 0 0 1 9.84,-9 h 33.12"
       class="cls-172"
       inkscape:connector-curvature="0"
       style="fill:#69c5b1" />
    <path
       id="path6190"
       transform="translate(-6.9,-7.58)"
       d="m 81.45,21.61 a 10,10 0 0 1 10,10 v 0 V 82 a 9.89,9.89 0 0 1 -8,9.69 A 17.57,17.57 0 0 1 80.22,92 H 39.48 C 37.64,92 27.73,90.51 27.73,88.67 24,88.67 21.07,81.48 21,77.8 V 34 c 0,-0.33 0,-3 0.13,-3.3 A 9.87,9.87 0 0 1 31,21.61 h 33.6"
       class="cls-173"
       inkscape:connector-curvature="0"
       style="fill:#6ac5b2" />
    <path
       id="path6192"
       transform="translate(-6.9,-7.58)"
       d="m 81.41,21.66 a 10,10 0 0 1 10,10 v 0 V 82 a 9.88,9.88 0 0 1 -8,9.67 17.18,17.18 0 0 1 -3.22,0.32 H 39.64 c -1.78,0 -11.76,-1.44 -11.76,-3.22 -3.73,0 -6.75,-7.11 -6.77,-10.84 V 34 c 0,-0.32 0,-3 0.13,-3.3 a 9.86,9.86 0 0 1 9.82,-9.08 h 34.07"
       class="cls-174"
       inkscape:connector-curvature="0"
       style="fill:#6ac6b2" />
    <path
       id="path6194"
       transform="translate(-6.9,-7.58)"
       d="m 81.37,21.72 a 10,10 0 0 1 10,10 v 0 50.2 a 9.87,9.87 0 0 1 -7.93,9.65 16.81,16.81 0 0 1 -3.2,0.32 H 39.8 c -1.71,0 -11.8,-1.39 -11.8,-3.1 -3.78,0 -6.84,-7 -6.87,-10.8 V 34.12 c 0,-0.3 0,-3 0.12,-3.3 a 9.84,9.84 0 0 1 9.81,-9.09 h 34.59"
       class="cls-175"
       inkscape:connector-curvature="0"
       style="fill:#6ac6b3" />
    <path
       id="path6196"
       transform="translate(-6.9,-7.58)"
       d="m 81.32,21.78 a 10,10 0 0 1 10,10 v 0 50.1 a 9.85,9.85 0 0 1 -7.88,9.63 16.45,16.45 0 0 1 -3.19,0.33 H 40 c -1.65,0 -11.78,-1.34 -11.78,-3 -3.83,0 -6.94,-6.92 -7,-10.75 v -43.9 c 0,-0.29 0,-3 0.12,-3.3 a 9.83,9.83 0 0 1 9.8,-9.11 h 35"
       class="cls-176"
       inkscape:connector-curvature="0"
       style="fill:#6bc7b3" />
    <path
       id="path6198"
       transform="translate(-6.9,-7.58)"
       d="m 81.28,21.84 a 10,10 0 0 1 9.94,9.94 v 0 50.05 a 9.84,9.84 0 0 1 -7.84,9.61 16.09,16.09 0 0 1 -3.18,0.33 H 40.13 c -1.59,0 -11.78,-1.29 -11.78,-2.88 -3.89,0 -7,-6.82 -7.05,-10.7 V 34.27 c 0,-0.28 0,-3 0.11,-3.31 a 9.82,9.82 0 0 1 9.79,-9.12 h 35.5"
       class="cls-177"
       inkscape:connector-curvature="0"
       style="fill:#6bc7b4" />
    <path
       id="path6200"
       transform="translate(-6.9,-7.58)"
       d="m 81.24,21.9 a 10,10 0 0 1 9.92,9.92 v 0 50 a 9.83,9.83 0 0 1 -7.79,9.59 15.75,15.75 0 0 1 -3.16,0.33 H 40.29 c -1.53,0 -11.79,-1.24 -11.79,-2.77 -3.94,0 -7.12,-6.72 -7.15,-10.66 V 34.34 c 0,-0.27 0,-3.06 0.11,-3.31 a 9.8,9.8 0 0 1 9.78,-9.14 h 36"
       class="cls-178"
       inkscape:connector-curvature="0"
       style="fill:#6bc8b4" />
    <path
       id="path6202"
       transform="translate(-6.9,-7.58)"
       d="m 81.19,22 a 10,10 0 0 1 9.9,9.9 v 0 49.84 a 9.81,9.81 0 0 1 -7.75,9.56 15.42,15.42 0 0 1 -3.15,0.34 H 40.45 c -1.47,0 -11.8,-1.19 -11.8,-2.66 -4,0 -7.22,-6.62 -7.24,-10.61 v -44 c 0,-0.26 0,-3.07 0.1,-3.31 A 9.79,9.79 0 0 1 31.28,22 h 36.44"
       class="cls-179"
       inkscape:connector-curvature="0"
       style="fill:#6bc8b5" />
    <path
       id="path6204"
       transform="translate(-6.9,-7.58)"
       d="M 81.15,22 A 9.93,9.93 0 0 1 91,31.9 v 0 49.8 a 9.8,9.8 0 0 1 -7.7,9.54 15.09,15.09 0 0 1 -3.14,0.34 H 40.61 c -1.41,0 -11.81,-1.14 -11.81,-2.55 -4,0 -7.31,-6.52 -7.34,-10.56 v -44 c 0,-0.25 0,-3.08 0.1,-3.31 A 9.78,9.78 0 0 1 31.32,22 h 36.92"
       class="cls-180"
       inkscape:connector-curvature="0"
       style="fill:#6cc9b5" />
    <path
       id="path6206"
       transform="translate(-6.9,-7.58)"
       d="M 81.11,22.07 A 9.92,9.92 0 0 1 91,31.94 v 0 49.71 a 9.79,9.79 0 0 1 -7.66,9.52 14.78,14.78 0 0 1 -3.12,0.35 H 40.77 C 39.43,91.52 29,90.43 29,89.08 c -4.09,0 -7.41,-6.42 -7.43,-10.52 v -44 c 0,-0.24 0,-3.09 0.1,-3.31 a 9.76,9.76 0 0 1 9.74,-9.18 h 37.35"
       class="cls-181"
       inkscape:connector-curvature="0"
       style="fill:#6cc9b6" />
    <path
       id="path6208"
       transform="translate(-6.9,-7.58)"
       d="M 81.06,22.13 A 9.9,9.9 0 0 1 90.92,32 v 0 49.61 a 9.77,9.77 0 0 1 -7.61,9.5 14.47,14.47 0 0 1 -3.11,0.35 H 40.94 c -1.29,0 -11.82,-1 -11.82,-2.33 -4.15,0 -7.5,-6.33 -7.52,-10.47 v -44 c 0,-0.23 0,-3.11 0.09,-3.32 a 9.75,9.75 0 0 1 9.73,-9.19 h 37.85"
       class="cls-182"
       inkscape:connector-curvature="0"
       style="fill:#6ccab6" />
    <path
       id="path6210"
       transform="translate(-6.9,-7.58)"
       d="M 81,22.19 A 9.88,9.88 0 0 1 90.86,32 v 0 49.56 A 9.76,9.76 0 0 1 83.29,91 14.17,14.17 0 0 1 80.19,91.36 H 41.1 c -1.22,0 -11.83,-1 -11.83,-2.22 -4.2,0 -7.59,-6.23 -7.62,-10.43 v -44 c 0,-0.22 0,-3.12 0.09,-3.32 a 9.74,9.74 0 0 1 9.72,-9.21 h 38.33"
       class="cls-183"
       inkscape:connector-curvature="0"
       style="fill:#6ccbb6" />
    <path
       id="path6212"
       transform="translate(-6.9,-7.58)"
       d="m 81,22.25 a 9.87,9.87 0 0 1 9.82,9.82 v 0 49.45 A 9.75,9.75 0 0 1 83.28,91 13.88,13.88 0 0 1 80.2,91.36 H 41.26 c -1.16,0 -11.84,-0.94 -11.84,-2.11 -4.25,0 -7.69,-6.13 -7.71,-10.38 V 34.79 c 0,-0.21 0,-3.13 0.08,-3.32 a 9.72,9.72 0 0 1 9.71,-9.22 h 38.81"
       class="cls-184"
       inkscape:connector-curvature="0"
       style="fill:#6dcbb7" />
    <path
       id="path6214"
       transform="translate(-6.9,-7.58)"
       d="m 80.93,22.31 a 9.85,9.85 0 0 1 9.8,9.8 v 0 49.36 a 9.74,9.74 0 0 1 -7.48,9.44 13.6,13.6 0 0 1 -3.07,0.37 H 41.42 c -1.1,0 -11.85,-0.89 -11.85,-2 -4.3,0 -7.78,-6 -7.81,-10.33 V 34.87 c 0,-0.2 0,-3.14 0.08,-3.32 a 9.71,9.71 0 0 1 9.7,-9.24 h 39.29"
       class="cls-185"
       inkscape:connector-curvature="0"
       style="fill:#6dccb7" />
    <path
       id="path6216"
       transform="translate(-6.9,-7.58)"
       d="m 80.89,22.37 a 9.84,9.84 0 0 1 9.79,9.79 v 0 49.27 a 9.73,9.73 0 0 1 -7.43,9.42 13.32,13.32 0 0 1 -3.06,0.37 H 41.58 c -1,0 -11.85,-0.84 -11.85,-1.89 -4.35,0 -7.87,-5.93 -7.9,-10.29 v -44.1 c 0,-0.19 0,-3.15 0.07,-3.32 a 9.7,9.7 0 0 1 9.69,-9.25 h 39.76"
       class="cls-186"
       inkscape:connector-curvature="0"
       style="fill:#6dccb8" />
    <path
       id="path6218"
       transform="translate(-6.9,-7.58)"
       d="m 80.85,22.42 a 9.82,9.82 0 0 1 9.77,9.77 v 0 49.19 a 9.72,9.72 0 0 1 -7.39,9.39 13.05,13.05 0 0 1 -3,0.37 H 41.75 c -1,0 -11.86,-0.79 -11.86,-1.77 -4.4,0 -8,-5.84 -8,-10.24 V 35 c 0,-0.17 0,-3.17 0.07,-3.32 a 9.69,9.69 0 0 1 9.68,-9.27 h 40.22"
       class="cls-187"
       inkscape:connector-curvature="0"
       style="fill:#6ecdb8" />
    <path
       id="path6220"
       transform="translate(-6.9,-7.58)"
       d="m 80.8,22.48 a 9.8,9.8 0 0 1 9.75,9.75 v 0 49.1 a 9.7,9.7 0 0 1 -7.34,9.37 12.79,12.79 0 0 1 -3,0.38 H 41.91 C 41,91.09 30,90.34 30,89.43 25.58,89.4 22,83.69 22,79.23 V 35.09 c 0,-0.16 0,-3.18 0.06,-3.33 a 9.67,9.67 0 0 1 9.67,-9.28 h 40.7"
       class="cls-188"
       inkscape:connector-curvature="0"
       style="fill:#6ecdb9" />
    <path
       id="path6222"
       transform="translate(-6.9,-7.58)"
       d="m 80.76,22.54 a 9.79,9.79 0 0 1 9.74,9.74 v 0 49 a 9.69,9.69 0 0 1 -7.3,9.35 12.54,12.54 0 0 1 -3,0.38 H 42.07 c -0.86,0 -11.88,-0.7 -11.88,-1.55 -4.51,0 -8.15,-5.64 -8.18,-10.15 V 35.17 c 0,-0.15 0,-3.19 0.06,-3.33 a 9.66,9.66 0 0 1 9.66,-9.3 H 72.9"
       class="cls-189"
       inkscape:connector-curvature="0"
       style="fill:#6eceb9" />
    <path
       id="path6224"
       transform="translate(-6.9,-7.58)"
       d="m 80.72,22.6 a 9.77,9.77 0 0 1 9.72,9.72 v 0 48.93 a 9.68,9.68 0 0 1 -7.25,9.33 12.29,12.29 0 0 1 -3,0.39 H 42.23 c -0.8,0 -11.88,-0.65 -11.88,-1.44 -4.56,0 -8.25,-5.54 -8.28,-10.1 V 35.24 c 0,-0.14 0,-3.2 0.06,-3.33 a 9.65,9.65 0 0 1 9.64,-9.31 h 41.65"
       class="cls-190"
       inkscape:connector-curvature="0"
       style="fill:#6eceba" />
    <path
       id="path6226"
       transform="translate(-6.9,-7.58)"
       d="m 80.67,22.66 a 9.75,9.75 0 0 1 9.7,9.7 v 0 48.84 a 9.67,9.67 0 0 1 -7.21,9.31 12,12 0 0 1 -3,0.39 H 42.39 c -0.73,0 -11.89,-0.6 -11.89,-1.33 -4.61,0 -8.34,-5.44 -8.37,-10.06 V 35.32 c 0,-0.13 0,-3.21 0.05,-3.33 a 9.64,9.64 0 0 1 9.63,-9.33 h 42.13"
       class="cls-191"
       inkscape:connector-curvature="0"
       style="fill:#6fcfba" />
    <path
       id="path6228"
       transform="translate(-6.9,-7.58)"
       d="m 80.63,22.72 a 9.74,9.74 0 0 1 9.69,9.69 v 0 48.75 a 9.66,9.66 0 0 1 -7.16,9.29 11.81,11.81 0 0 1 -3,0.4 h -37.6 c -0.67,0 -11.9,-0.55 -11.9,-1.22 -4.66,0 -8.44,-5.35 -8.47,-10 V 35.39 c 0,-0.12 0,-3.22 0,-3.33 a 9.63,9.63 0 0 1 9.62,-9.34 h 42.64"
       class="cls-192"
       inkscape:connector-curvature="0"
       style="fill:#6fcfbb" />
    <path
       id="path6230"
       transform="translate(-6.9,-7.58)"
       d="m 80.59,22.78 a 9.72,9.72 0 0 1 9.67,9.67 v 0 48.66 a 9.65,9.65 0 0 1 -7.12,9.27 11.58,11.58 0 0 1 -3,0.4 H 42.72 c -0.61,0 -11.91,-0.5 -11.91,-1.11 -4.71,0 -8.53,-5.25 -8.56,-10 v -44.2 c 0,-0.11 0,-3.24 0,-3.34 a 9.61,9.61 0 0 1 9.61,-9.35 H 75"
       class="cls-193"
       inkscape:connector-curvature="0"
       style="fill:#6fd0bb" />
    <path
       id="path6232"
       transform="translate(-6.9,-7.58)"
       d="m 80.54,22.83 a 9.71,9.71 0 0 1 9.65,9.65 v 0 48.59 a 9.64,9.64 0 0 1 -7.07,9.25 11.36,11.36 0 0 1 -3,0.41 H 42.88 c -0.55,0 -11.92,-0.45 -11.92,-1 -4.77,0 -8.62,-5.15 -8.65,-9.92 V 35.54 c 0,-0.1 0,-3.25 0,-3.34 A 9.6,9.6 0 0 1 32,22.83 h 43.49"
       class="cls-194"
       inkscape:connector-curvature="0"
       style="fill:#70d0bc" />
    <path
       id="path6234"
       transform="translate(-6.9,-7.58)"
       d="m 80.5,22.89 a 9.69,9.69 0 0 1 9.63,9.63 v 0 V 81 a 9.63,9.63 0 0 1 -7,9.23 11.14,11.14 0 0 1 -2.94,0.41 H 43 c -0.49,0 -11.92,-0.4 -11.92,-0.89 -4.82,0 -8.72,-5.05 -8.75,-9.87 V 35.62 c 0,-0.09 0,-3.26 0,-3.34 A 9.59,9.59 0 0 1 32,22.89 h 44"
       class="cls-195"
       inkscape:connector-curvature="0"
       style="fill:#70d1bc" />
    <path
       id="path6236"
       transform="translate(-6.9,-7.58)"
       d="m 80.46,23 a 9.67,9.67 0 0 1 9.62,9.62 v 0 V 81 a 9.62,9.62 0 0 1 -7,9.2 10.92,10.92 0 0 1 -2.92,0.41 h -37 c -0.43,0 -11.93,-0.35 -11.93,-0.78 -4.87,0 -8.81,-5 -8.84,-9.82 V 35.69 c 0,-0.08 0,-3.27 0,-3.34 A 9.58,9.58 0 0 1 32,23 h 44.53"
       class="cls-196"
       inkscape:connector-curvature="0"
       style="fill:#70d1bd" />
    <path
       id="path6238"
       transform="translate(-6.9,-7.58)"
       d="m 80.41,23 a 9.66,9.66 0 0 1 9.6,9.6 v 0 48.33 a 9.61,9.61 0 0 1 -6.94,9.18 10.71,10.71 0 0 1 -2.91,0.42 H 43.37 c -0.37,0 -11.94,-0.3 -11.94,-0.67 -4.92,0 -8.9,-4.86 -8.94,-9.78 V 35.77 c 0,-0.07 0,-3.28 0,-3.34 A 9.57,9.57 0 0 1 32.08,23 H 77"
       class="cls-197"
       inkscape:connector-curvature="0"
       style="fill:#70d2bd" />
    <path
       id="path6240"
       transform="translate(-6.9,-7.58)"
       d="M 80.37,23.07 A 9.64,9.64 0 0 1 90,32.65 v 0 48.24 A 9.6,9.6 0 0 1 83.06,90 10.51,10.51 0 0 1 80.16,90.42 H 43.53 c -0.31,0 -11.95,-0.25 -11.95,-0.55 -5,0 -9,-4.76 -9,-9.73 v -44.3 c 0,-0.05 0,-3.3 0,-3.34 a 9.56,9.56 0 0 1 9.56,-9.43 h 45.42"
       class="cls-198"
       inkscape:connector-curvature="0"
       style="fill:#71d2be" />
    <path
       id="path6242"
       transform="translate(-6.9,-7.58)"
       d="m 80.33,23.13 a 9.62,9.62 0 0 1 9.57,9.57 v 0 48.14 A 9.6,9.6 0 0 1 83,90 10.31,10.31 0 0 1 80.12,90.43 H 43.69 c -0.24,0 -12,-0.2 -12,-0.44 -5,0 -9.09,-4.66 -9.12,-9.69 V 35.91 c 0,0 0,-3.31 0,-3.35 a 9.54,9.54 0 0 1 9.54,-9.44 h 45.97"
       class="cls-199"
       inkscape:connector-curvature="0"
       style="fill:#71d3be" />
    <path
       id="path6244"
       transform="translate(-6.9,-7.58)"
       d="m 80.28,23.18 a 9.61,9.61 0 0 1 9.55,9.55 v 0 48.07 A 9.59,9.59 0 0 1 83,89.91 10.11,10.11 0 0 1 80.13,90.34 H 43.85 c -0.18,0 -12,-0.15 -12,-0.33 -5.08,0 -9.19,-4.56 -9.22,-9.64 V 36 c 0,0 0,-3.32 0,-3.35 a 9.53,9.53 0 0 1 9.53,-9.46 H 78.6"
       class="cls-200"
       inkscape:connector-curvature="0"
       style="fill:#71d3bf" />
    <path
       id="path6246"
       transform="translate(-6.9,-7.58)"
       d="m 80.24,23.24 a 9.59,9.59 0 0 1 9.53,9.53 v 0 48 A 9.58,9.58 0 0 1 83,89.85 9.92,9.92 0 0 1 80.14,90.29 H 44 c -0.12,0 -12,-0.1 -12,-0.22 A 9.62,9.62 0 0 1 22.69,80.48 V 36.06 c 0,0 0,-3.33 0,-3.35 a 9.52,9.52 0 0 1 9.52,-9.47 h 46.91"
       class="cls-201"
       inkscape:connector-curvature="0"
       style="fill:#71d4bf" />
    <path
       id="path6248"
       transform="translate(-6.9,-7.58)"
       d="m 80.2,23.3 a 9.58,9.58 0 0 1 9.52,9.52 v 0 47.89 A 9.57,9.57 0 0 1 83,89.78 9.74,9.74 0 0 1 80.16,90.22 h -36 c -0.06,0 -12,0 -12,-0.11 A 9.59,9.59 0 0 1 22.75,80.56 V 36.14 c 0,0 0,-3.34 0,-3.35 a 9.51,9.51 0 0 1 9.51,-9.49 h 47.38"
       class="cls-202"
       inkscape:connector-curvature="0"
       style="fill:#72d4c0" />
    <path
       id="path6250"
       transform="translate(-6.9,-7.58)"
       d="m 32.35,23.36 h 47.8 a 9.56,9.56 0 0 1 9.5,9.5 v 47.8 a 9.56,9.56 0 0 1 -9.5,9.5 h -47.8 a 9.56,9.56 0 0 1 -9.5,-9.5 v -47.8 a 9.5,9.5 0 0 1 9.5,-9.5 z"
       class="cls-203"
       inkscape:connector-curvature="0"
       style="fill:#72d5c0" />
  </g>
</svg>
