<?xml version="1.0" encoding="UTF-8" standalone="no"?>
<svg
   xmlns:dc="http://purl.org/dc/elements/1.1/"
   xmlns:cc="http://creativecommons.org/ns#"
   xmlns:rdf="http://www.w3.org/1999/02/22-rdf-syntax-ns#"
   xmlns:svg="http://www.w3.org/2000/svg"
   xmlns="http://www.w3.org/2000/svg"
   xmlns:sodipodi="http://sodipodi.sourceforge.net/DTD/sodipodi-0.dtd"
   xmlns:inkscape="http://www.inkscape.org/namespaces/inkscape"
   id="Слой_1"
   data-name="Слой 1"
   viewBox="0 0 98.7 98.7"
   version="1.1"
   sodipodi:docname="color9.svg"
   inkscape:version="0.92.1 r15371">
  <metadata
     id="metadata3753">
    <rdf:RDF>
      <cc:Work
         rdf:about="">
        <dc:format>image/svg+xml</dc:format>
        <dc:type
           rdf:resource="http://purl.org/dc/dcmitype/StillImage" />
      </cc:Work>
    </rdf:RDF>
  </metadata>
  <sodipodi:namedview
     pagecolor="#ffffff"
     bordercolor="#666666"
     borderopacity="1"
     objecttolerance="10"
     gridtolerance="10"
     guidetolerance="10"
     inkscape:pageopacity="0"
     inkscape:pageshadow="2"
     inkscape:window-width="657"
     inkscape:window-height="480"
     id="namedview3751"
     showgrid="false"
     inkscape:zoom="2.3910842"
     inkscape:cx="49.349998"
     inkscape:cy="49.349998"
     inkscape:window-x="0"
     inkscape:window-y="0"
     inkscape:window-maximized="0"
     inkscape:current-layer="Слой_1" />
  <defs
     id="defs3340">
    <style
       id="style3338">.cls-1{fill:#28382b;}.cls-2{fill:#28392b;}.cls-3{fill:#29392c;}.cls-4{fill:#293a2c;}.cls-5{fill:#293a2d;}.cls-6{fill:#2a3a2d;}.cls-7{fill:#2a3b2d;}.cls-8{fill:#2a3b2e;}.cls-9{fill:#2b3c2e;}.cls-10{fill:#2b3d2f;}.cls-11{fill:#2c3d2f;}.cls-12{fill:#2c3e2f;}.cls-13{fill:#2c3e30;}.cls-14{fill:#2d3e30;}.cls-15{fill:#2d3f30;}.cls-16{fill:#2d3f31;}.cls-17{fill:#2e4031;}.cls-18{fill:#2e4032;}.cls-19{fill:#2e4132;}.cls-20{fill:#2f4132;}.cls-21{fill:#2f4232;}.cls-22{fill:#2f4233;}.cls-23{fill:#304333;}.cls-24{fill:#304334;}.cls-25{fill:#304434;}.cls-26{fill:#314434;}.cls-27{fill:#314435;}.cls-28{fill:#314535;}.cls-29{fill:#324535;}.cls-30{fill:#324636;}.cls-31{fill:#334736;}.cls-32{fill:#334737;}.cls-33{fill:#334837;}.cls-34{fill:#344837;}.cls-35{fill:#344838;}.cls-36{fill:#344938;}.cls-37{fill:#354939;}.cls-38{fill:#354a39;}.cls-39{fill:#364b3a;}.cls-40{fill:#374b3b;}.cls-41{fill:#374c3b;}.cls-42{fill:#384c3c;}.cls-43{fill:#384d3c;}.cls-44{fill:#394d3d;}.cls-45{fill:#394e3d;}.cls-46{fill:#3a4e3e;}.cls-47{fill:#3a4f3e;}.cls-48{fill:#3b4f3f;}.cls-49{fill:#3b503f;}.cls-50{fill:#3c5040;}.cls-51{fill:#3d5141;}.cls-52{fill:#3e5242;}.cls-53{fill:#3f5343;}.cls-54{fill:#405444;}.cls-55{fill:#415545;}.cls-56{fill:#425546;}.cls-57{fill:#425646;}.cls-58{fill:#435647;}.cls-59{fill:#435747;}.cls-60{fill:#445748;}.cls-61{fill:#445848;}.cls-62{fill:#455849;}.cls-63{fill:#455949;}.cls-64{fill:#46594a;}.cls-65{fill:#465a4a;}.cls-66{fill:#475a4b;}.cls-67{fill:#485b4c;}.cls-68{fill:#495c4d;}.cls-69{fill:#4a5d4e;}.cls-70{fill:#4b5e4f;}.cls-71{fill:#4c5e50;}.cls-72{fill:#4c5f50;}.cls-73{fill:#4d5f51;}.cls-74{fill:#4d6051;}.cls-75{fill:#4e6052;}.cls-76{fill:#4e6152;}.cls-77{fill:#4f6153;}.cls-78{fill:#4f6253;}.cls-79{fill:#506254;}.cls-80{fill:#506354;}.cls-81{fill:#516355;}.cls-82{fill:#526456;}.cls-83{fill:#536557;}.cls-84{fill:#546658;}.cls-85{fill:#556759;}.cls-86{fill:#56685a;}.cls-87{fill:#57685b;}.cls-88{fill:#57695b;}.cls-89{fill:#58695c;}.cls-90{fill:#586a5c;}.cls-91{fill:#596a5d;}.cls-92{fill:#596b5d;}.cls-93{fill:#5a6b5e;}.cls-94{fill:#5a6c5e;}.cls-95{fill:#5b6c5f;}.cls-96{fill:#5b6d5f;}.cls-97{fill:#5c6d60;}.cls-98{fill:#5d6e61;}</style>
  </defs>
  <title
     id="title3342">color9</title>
  <g
     id="g12231">
    <path
       id="path3344"
       transform="translate(-6.95,-7.7)"
       d="m 91.65,7.7 a 14,14 0 0 1 14,14 v 0 70.7 a 14,14 0 0 1 -14,14 h -70.7 a 14,14 0 0 1 -14,-14 V 21.7 a 13.91,13.91 0 0 1 13.82,-14"
       class="cls-1"
       inkscape:connector-curvature="0"
       style="fill:#28382b" />
    <path
       id="path3346"
       transform="translate(-6.95,-7.7)"
       d="m 91.58,7.79 a 14,14 0 0 1 14,14 v 0 70.54 a 14,14 0 0 1 -14,14 H 21 A 14,14 0 0 1 7,92.33 V 21.77 a 13.88,13.88 0 0 1 13.79,-14"
       class="cls-1"
       inkscape:connector-curvature="0"
       style="fill:#28382b" />
    <path
       id="path3348"
       transform="translate(-6.95,-7.7)"
       d="m 91.51,7.89 a 13.94,13.94 0 0 1 13.94,13.94 v 0 70.43 A 13.94,13.94 0 0 1 91.51,106.2 H 21.09 A 13.94,13.94 0 0 1 7.14,92.26 V 21.84 A 13.85,13.85 0 0 1 20.91,7.89"
       class="cls-1"
       inkscape:connector-curvature="0"
       style="fill:#28382b" />
    <path
       id="path3350"
       transform="translate(-6.95,-7.7)"
       d="m 91.44,8 a 13.92,13.92 0 0 1 13.92,13.92 v 0 70.27 A 13.92,13.92 0 0 1 91.44,106.1 H 21.16 A 13.92,13.92 0 0 1 7.24,92.19 V 21.91 A 13.83,13.83 0 0 1 21,8"
       class="cls-2"
       inkscape:connector-curvature="0"
       style="fill:#28392b" />
    <path
       id="path3352"
       transform="translate(-6.95,-7.7)"
       d="M 91.37,8.09 A 13.89,13.89 0 0 1 105.26,22 v 0 70.12 A 13.89,13.89 0 0 1 91.37,106 H 21.23 A 13.89,13.89 0 0 1 7.34,92.12 V 22 A 13.8,13.8 0 0 1 21,8.09"
       class="cls-3"
       inkscape:connector-curvature="0"
       style="fill:#29392c" />
    <path
       id="path3354"
       transform="translate(-6.95,-7.7)"
       d="M 91.3,8.18 A 13.86,13.86 0 0 1 105.16,22 v 0 70 A 13.86,13.86 0 0 1 91.3,105.91 h -70 A 13.86,13.86 0 0 1 7.44,92 V 22 A 13.77,13.77 0 0 1 21.12,8.18"
       class="cls-3"
       inkscape:connector-curvature="0"
       style="fill:#29392c" />
    <path
       id="path3356"
       transform="translate(-6.95,-7.7)"
       d="m 91.23,8.28 a 13.83,13.83 0 0 1 13.83,13.83 v 0 V 92 A 13.83,13.83 0 0 1 91.23,105.83 H 21.37 A 13.83,13.83 0 0 1 7.53,92 V 22.12 A 13.74,13.74 0 0 1 21.19,8.28"
       class="cls-3"
       inkscape:connector-curvature="0"
       style="fill:#29392c" />
    <path
       id="path3358"
       transform="translate(-6.95,-7.7)"
       d="M 91.16,8.38 A 13.81,13.81 0 0 1 105,22.19 v 0 69.72 A 13.81,13.81 0 0 1 91.19,105.72 H 21.44 A 13.81,13.81 0 0 1 7.63,91.91 V 22.19 A 13.72,13.72 0 0 1 21.26,8.38"
       class="cls-3"
       inkscape:connector-curvature="0"
       style="fill:#29392c" />
    <path
       id="path3360"
       transform="translate(-6.95,-7.7)"
       d="m 91.09,8.48 a 13.78,13.78 0 0 1 13.78,13.78 v 0 69.58 A 13.78,13.78 0 0 1 91.09,105.62 H 21.51 A 13.78,13.78 0 0 1 7.73,91.84 V 22.26 A 13.69,13.69 0 0 1 21.33,8.48"
       class="cls-3"
       inkscape:connector-curvature="0"
       style="fill:#29392c" />
    <path
       id="path3362"
       transform="translate(-6.95,-7.7)"
       d="m 91,8.58 a 13.75,13.75 0 0 1 13.75,13.75 v 0 69.44 A 13.75,13.75 0 0 1 91,105.52 H 21.58 A 13.75,13.75 0 0 1 7.83,91.77 V 22.33 A 13.66,13.66 0 0 1 21.4,8.58"
       class="cls-4"
       inkscape:connector-curvature="0"
       style="fill:#293a2c" />
    <path
       id="path3364"
       transform="translate(-6.95,-7.7)"
       d="m 90.95,8.67 a 13.72,13.72 0 0 1 13.72,13.73 v 0 69.3 A 13.72,13.72 0 0 1 90.95,105.42 H 21.65 A 13.72,13.72 0 0 1 7.92,91.7 V 22.4 A 13.63,13.63 0 0 1 21.47,8.67"
       class="cls-4"
       inkscape:connector-curvature="0"
       style="fill:#293a2c" />
    <path
       id="path3366"
       transform="translate(-6.95,-7.7)"
       d="m 90.88,8.77 a 13.7,13.7 0 0 1 13.7,13.7 v 0 69.16 a 13.7,13.7 0 0 1 -13.7,13.7 H 21.72 A 13.7,13.7 0 0 1 8,91.63 V 22.47 A 13.61,13.61 0 0 1 21.54,8.77"
       class="cls-5"
       inkscape:connector-curvature="0"
       style="fill:#293a2d" />
    <path
       id="path3368"
       transform="translate(-6.95,-7.7)"
       d="m 90.81,8.87 a 13.67,13.67 0 0 1 13.67,13.67 v 0 69 a 13.67,13.67 0 0 1 -13.67,13.67 h -69 A 13.67,13.67 0 0 1 8.12,91.56 v -69 A 13.58,13.58 0 0 1 21.61,8.87"
       class="cls-6"
       inkscape:connector-curvature="0"
       style="fill:#2a3a2d" />
    <path
       id="path3370"
       transform="translate(-6.95,-7.7)"
       d="m 90.74,9 a 13.64,13.64 0 0 1 13.64,13.64 v 0 68.85 A 13.64,13.64 0 0 1 90.74,105.13 H 21.86 A 13.64,13.64 0 0 1 8.22,91.49 V 22.61 A 13.55,13.55 0 0 1 21.68,9"
       class="cls-6"
       inkscape:connector-curvature="0"
       style="fill:#2a3a2d" />
    <path
       id="path3372"
       transform="translate(-6.95,-7.7)"
       d="m 90.67,9.06 a 13.61,13.61 0 0 1 13.61,13.61 v 0 68.75 A 13.61,13.61 0 0 1 90.67,105 H 21.93 A 13.61,13.61 0 0 1 8.32,91.42 V 22.68 A 13.52,13.52 0 0 1 21.75,9.06"
       class="cls-6"
       inkscape:connector-curvature="0"
       style="fill:#2a3a2d" />
    <path
       id="path3374"
       transform="translate(-6.95,-7.7)"
       d="m 90.6,9.16 a 13.58,13.58 0 0 1 13.58,13.58 v 0 68.6 A 13.58,13.58 0 0 1 90.6,104.93 H 22 A 13.58,13.58 0 0 1 8.41,91.35 V 22.75 A 13.5,13.5 0 0 1 21.82,9.16"
       class="cls-7"
       inkscape:connector-curvature="0"
       style="fill:#2a3b2d" />
    <path
       id="path3376"
       transform="translate(-6.95,-7.7)"
       d="m 90.53,9.26 a 13.56,13.56 0 0 1 13.56,13.56 v 0 68.46 A 13.56,13.56 0 0 1 90.53,104.84 H 22.07 A 13.56,13.56 0 0 1 8.51,91.28 V 22.82 A 13.47,13.47 0 0 1 21.89,9.26"
       class="cls-7"
       inkscape:connector-curvature="0"
       style="fill:#2a3b2d" />
    <path
       id="path3378"
       transform="translate(-6.95,-7.7)"
       d="M 90.46,9.36 A 13.53,13.53 0 0 1 104,22.89 v 0 68.32 A 13.53,13.53 0 0 1 90.47,104.74 H 22.14 A 13.53,13.53 0 0 1 8.61,91.21 V 22.89 A 13.44,13.44 0 0 1 22,9.36"
       class="cls-7"
       inkscape:connector-curvature="0"
       style="fill:#2a3b2d" />
    <path
       id="path3380"
       transform="translate(-6.95,-7.7)"
       d="M 90.39,9.45 A 13.5,13.5 0 0 1 103.89,23 v 0 68.14 a 13.5,13.5 0 0 1 -13.5,13.5 H 22.21 A 13.5,13.5 0 0 1 8.71,91.14 V 23 A 13.41,13.41 0 0 1 22,9.45"
       class="cls-7"
       inkscape:connector-curvature="0"
       style="fill:#2a3b2d" />
    <path
       id="path3382"
       transform="translate(-6.95,-7.7)"
       d="M 90.32,9.55 A 13.47,13.47 0 0 1 103.79,23 v 0 68 a 13.47,13.47 0 0 1 -13.47,13.47 h -68 A 13.47,13.47 0 0 1 8.8,91.07 V 23 A 13.39,13.39 0 0 1 22.1,9.55"
       class="cls-8"
       inkscape:connector-curvature="0"
       style="fill:#2a3b2e" />
    <path
       id="path3384"
       transform="translate(-6.95,-7.7)"
       d="m 90.25,9.65 a 13.45,13.45 0 0 1 13.44,13.45 v 0 V 91 A 13.45,13.45 0 0 1 90.24,104.45 H 22.35 A 13.45,13.45 0 0 1 8.9,91 V 23.1 A 13.36,13.36 0 0 1 22.17,9.65"
       class="cls-9"
       inkscape:connector-curvature="0"
       style="fill:#2b3c2e" />
    <path
       id="path3386"
       transform="translate(-6.95,-7.7)"
       d="m 90.18,9.75 a 13.42,13.42 0 0 1 13.42,13.42 v 0 67.76 A 13.42,13.42 0 0 1 90.18,104.35 H 22.42 A 13.42,13.42 0 0 1 9,90.93 V 23.17 A 13.33,13.33 0 0 1 22.24,9.75"
       class="cls-9"
       inkscape:connector-curvature="0"
       style="fill:#2b3c2e" />
    <path
       id="path3388"
       transform="translate(-6.95,-7.7)"
       d="m 90.11,9.85 a 13.39,13.39 0 0 1 13.39,13.39 v 0 67.62 A 13.39,13.39 0 0 1 90.11,104.25 H 22.49 A 13.39,13.39 0 0 1 9.1,90.86 V 23.24 A 13.3,13.3 0 0 1 22.31,9.85"
       class="cls-9"
       inkscape:connector-curvature="0"
       style="fill:#2b3c2e" />
    <path
       id="path3390"
       transform="translate(-6.95,-7.7)"
       d="m 90,9.94 a 13.36,13.36 0 0 1 13.4,13.37 v 0 67.48 A 13.36,13.36 0 0 1 90,104.15 H 22.56 A 13.36,13.36 0 0 1 9.19,90.79 V 23.31 A 13.28,13.28 0 0 1 22.38,9.94"
       class="cls-9"
       inkscape:connector-curvature="0"
       style="fill:#2b3c2e" />
    <path
       id="path3392"
       transform="translate(-6.95,-7.7)"
       d="m 90,10 a 13.33,13.33 0 0 1 13.3,13.38 v 0 67.34 A 13.33,13.33 0 0 1 90,104.05 H 22.63 A 13.33,13.33 0 0 1 9.29,90.72 V 23.38 A 13.25,13.25 0 0 1 22.46,10"
       class="cls-9"
       inkscape:connector-curvature="0"
       style="fill:#2b3c2e" />
    <path
       id="path3394"
       transform="translate(-6.95,-7.7)"
       d="m 89.9,10.14 a 13.31,13.31 0 0 1 13.3,13.31 v 0 67.2 A 13.31,13.31 0 0 1 89.9,104 H 22.7 A 13.31,13.31 0 0 1 9.39,90.65 V 23.45 A 13.22,13.22 0 0 1 22.53,10.14"
       class="cls-9"
       inkscape:connector-curvature="0"
       style="fill:#2b3c2e" />
    <path
       id="path3396"
       transform="translate(-6.95,-7.7)"
       d="m 89.83,10.24 a 13.28,13.28 0 0 1 13.28,13.28 v 0 67.06 A 13.28,13.28 0 0 1 89.83,103.86 H 22.77 A 13.28,13.28 0 0 1 9.49,90.58 V 23.52 A 13.19,13.19 0 0 1 22.6,10.24"
       class="cls-10"
       inkscape:connector-curvature="0"
       style="fill:#2b3d2f" />
    <path
       id="path3398"
       transform="translate(-6.95,-7.7)"
       d="M 89.76,10.33 A 13.25,13.25 0 0 1 103,23.59 v 0 66.92 A 13.25,13.25 0 0 1 89.75,103.76 H 22.84 A 13.25,13.25 0 0 1 9.59,90.51 V 23.59 A 13.17,13.17 0 0 1 22.67,10.33"
       class="cls-10"
       inkscape:connector-curvature="0"
       style="fill:#2b3d2f" />
    <path
       id="path3400"
       transform="translate(-6.95,-7.7)"
       d="m 89.69,10.43 a 13.22,13.22 0 0 1 13.22,13.22 v 0 66.79 A 13.22,13.22 0 0 1 89.69,103.66 H 22.91 A 13.22,13.22 0 0 1 9.68,90.44 V 23.66 A 13.14,13.14 0 0 1 22.74,10.43"
       class="cls-11"
       inkscape:connector-curvature="0"
       style="fill:#2c3d2f" />
    <path
       id="path3402"
       transform="translate(-6.95,-7.7)"
       d="m 89.62,10.53 a 13.2,13.2 0 0 1 13.2,13.2 v 0 66.64 a 13.2,13.2 0 0 1 -13.2,13.2 H 23 A 13.2,13.2 0 0 1 9.8,90.37 V 23.73 a 13.11,13.11 0 0 1 13,-13.2"
       class="cls-11"
       inkscape:connector-curvature="0"
       style="fill:#2c3d2f" />
    <path
       id="path3404"
       transform="translate(-6.95,-7.7)"
       d="m 89.55,10.63 a 13.17,13.17 0 0 1 13.17,13.17 v 0 66.5 A 13.17,13.17 0 0 1 89.55,103.47 H 23 A 13.17,13.17 0 0 1 9.88,90.3 V 23.8 a 13.08,13.08 0 0 1 13,-13.17"
       class="cls-11"
       inkscape:connector-curvature="0"
       style="fill:#2c3d2f" />
    <path
       id="path3406"
       transform="translate(-6.95,-7.7)"
       d="m 89.48,10.73 a 13.14,13.14 0 0 1 13.14,13.14 v 0 66.36 A 13.14,13.14 0 0 1 89.48,103.37 H 23.12 A 13.14,13.14 0 0 1 10,90.23 V 23.87 A 13.06,13.06 0 0 1 23,10.73"
       class="cls-12"
       inkscape:connector-curvature="0"
       style="fill:#2c3e2f" />
    <path
       id="path3408"
       transform="translate(-6.95,-7.7)"
       d="m 89.41,10.82 a 13.11,13.11 0 0 1 13.11,13.11 v 0 66.23 A 13.11,13.11 0 0 1 89.41,103.27 H 23.19 A 13.11,13.11 0 0 1 10.07,90.16 V 23.94 A 13,13 0 0 1 23,10.82"
       class="cls-12"
       inkscape:connector-curvature="0"
       style="fill:#2c3e2f" />
    <path
       id="path3410"
       transform="translate(-6.95,-7.7)"
       d="M 89.34,10.92 A 13.09,13.09 0 0 1 102.42,24 v 0 66.09 A 13.09,13.09 0 0 1 89.33,103.18 H 23.26 A 13.09,13.09 0 0 1 10.17,90.09 V 24 A 13,13 0 0 1 23.09,10.92"
       class="cls-13"
       inkscape:connector-curvature="0"
       style="fill:#2c3e30" />
    <path
       id="path3412"
       transform="translate(-6.95,-7.7)"
       d="m 89.27,11 a 13.06,13.06 0 0 1 13.06,13.06 v 0 V 90 A 13.06,13.06 0 0 1 89.27,103.06 H 23.33 A 13.06,13.06 0 0 1 10.27,90 V 24.08 A 13,13 0 0 1 23.16,11"
       class="cls-13"
       inkscape:connector-curvature="0"
       style="fill:#2c3e30" />
    <path
       id="path3414"
       transform="translate(-6.95,-7.7)"
       d="m 89.2,11.12 a 13,13 0 0 1 13,13 v 0 65.8 a 13,13 0 0 1 -13,13 H 23.4 a 13,13 0 0 1 -13,-13 V 24.15 a 13,13 0 0 1 12.86,-13"
       class="cls-14"
       inkscape:connector-curvature="0"
       style="fill:#2d3e30" />
    <path
       id="path3416"
       transform="translate(-6.95,-7.7)"
       d="m 89.13,11.21 a 13,13 0 0 1 13,13 v 0 65.67 a 13,13 0 0 1 -13,13 H 23.47 a 13,13 0 0 1 -13,-13 V 24.22 a 12.92,12.92 0 0 1 12.83,-13"
       class="cls-14"
       inkscape:connector-curvature="0"
       style="fill:#2d3e30" />
    <path
       id="path3418"
       transform="translate(-6.95,-7.7)"
       d="m 89.06,11.31 a 13,13 0 0 1 13,13 v 0 65.5 a 13,13 0 0 1 -13,13 H 23.54 a 13,13 0 0 1 -13,-13 V 24.29 a 12.89,12.89 0 0 1 12.81,-13"
       class="cls-15"
       inkscape:connector-curvature="0"
       style="fill:#2d3f30" />
    <path
       id="path3420"
       transform="translate(-6.95,-7.7)"
       d="m 89,11.41 a 13,13 0 0 1 12.95,12.95 v 0 65.38 A 13,13 0 0 1 89,102.68 H 23.61 A 13,13 0 0 1 10.66,89.74 V 24.36 A 12.86,12.86 0 0 1 23.44,11.41"
       class="cls-15"
       inkscape:connector-curvature="0"
       style="fill:#2d3f30" />
    <path
       id="path3422"
       transform="translate(-6.95,-7.7)"
       d="m 88.92,11.51 a 12.92,12.92 0 0 1 12.92,12.92 v 0 65.24 A 12.92,12.92 0 0 1 88.92,102.59 H 23.68 A 12.92,12.92 0 0 1 10.76,89.67 V 24.43 A 12.84,12.84 0 0 1 23.51,11.51"
       class="cls-15"
       inkscape:connector-curvature="0"
       style="fill:#2d3f30" />
    <path
       id="path3424"
       transform="translate(-6.95,-7.7)"
       d="m 88.85,11.6 a 12.89,12.89 0 0 1 12.89,12.9 v 0 65.1 A 12.89,12.89 0 0 1 88.85,102.49 H 23.75 A 12.89,12.89 0 0 1 10.86,89.6 V 24.5 A 12.81,12.81 0 0 1 23.58,11.6"
       class="cls-16"
       inkscape:connector-curvature="0"
       style="fill:#2d3f31" />
    <path
       id="path3426"
       transform="translate(-6.95,-7.7)"
       d="m 88.78,11.7 a 12.86,12.86 0 0 1 12.86,12.86 v 0 65 a 12.86,12.86 0 0 1 -12.86,12.86 h -65 A 12.86,12.86 0 0 1 11,89.53 v -65 A 12.78,12.78 0 0 1 23.65,11.7"
       class="cls-16"
       inkscape:connector-curvature="0"
       style="fill:#2d3f31" />
    <path
       id="path3428"
       transform="translate(-6.95,-7.7)"
       d="m 88.71,11.8 a 12.84,12.84 0 0 1 12.84,12.84 v 0 64.82 A 12.84,12.84 0 0 1 88.71,102.3 H 23.89 A 12.84,12.84 0 0 1 11.05,89.46 V 24.64 A 12.75,12.75 0 0 1 23.72,11.8"
       class="cls-16"
       inkscape:connector-curvature="0"
       style="fill:#2d3f31" />
    <path
       id="path3430"
       transform="translate(-6.95,-7.7)"
       d="m 88.64,11.9 a 12.81,12.81 0 0 1 12.81,12.81 v 0 64.68 A 12.81,12.81 0 0 1 88.64,102.2 H 24 A 12.81,12.81 0 0 1 11.15,89.39 V 24.71 A 12.73,12.73 0 0 1 23.79,11.9"
       class="cls-17"
       inkscape:connector-curvature="0"
       style="fill:#2e4031" />
    <path
       id="path3432"
       transform="translate(-6.95,-7.7)"
       d="m 88.57,12 a 12.78,12.78 0 0 1 12.78,12.78 v 0 64.54 A 12.78,12.78 0 0 1 88.57,102.1 H 24 A 12.78,12.78 0 0 1 11.25,89.32 V 24.78 A 12.7,12.7 0 0 1 23.86,12"
       class="cls-17"
       inkscape:connector-curvature="0"
       style="fill:#2e4031" />
    <path
       id="path3434"
       transform="translate(-6.95,-7.7)"
       d="m 88.5,12.09 a 12.75,12.75 0 0 1 12.75,12.75 v 0 64.4 A 12.75,12.75 0 0 1 88.5,102 H 24.1 A 12.75,12.75 0 0 1 11.34,89.25 V 24.85 A 12.67,12.67 0 0 1 23.93,12.09"
       class="cls-17"
       inkscape:connector-curvature="0"
       style="fill:#2e4031" />
    <path
       id="path3436"
       transform="translate(-6.95,-7.7)"
       d="m 88.43,12.19 a 12.72,12.72 0 0 1 12.72,12.72 v 0 64.27 A 12.72,12.72 0 0 1 88.43,101.9 H 24.17 A 12.72,12.72 0 0 1 11.44,89.18 V 24.92 A 12.64,12.64 0 0 1 24,12.19"
       class="cls-17"
       inkscape:connector-curvature="0"
       style="fill:#2e4031" />
    <path
       id="path3438"
       transform="translate(-6.95,-7.7)"
       d="M 88.36,12.29 A 12.7,12.7 0 0 1 101.05,25 v 0 64.11 a 12.7,12.7 0 0 1 -12.7,12.7 H 24.24 A 12.7,12.7 0 0 1 11.54,89.11 V 25 A 12.62,12.62 0 0 1 24.07,12.3"
       class="cls-18"
       inkscape:connector-curvature="0"
       style="fill:#2e4032" />
    <path
       id="path3440"
       transform="translate(-6.95,-7.7)"
       d="M 88.29,12.39 A 12.67,12.67 0 0 1 101,25.06 v 0 V 89 a 12.67,12.67 0 0 1 -12.67,12.67 h -64 A 12.67,12.67 0 0 1 11.64,89 V 25 a 12.59,12.59 0 0 1 12.5,-12.61"
       class="cls-19"
       inkscape:connector-curvature="0"
       style="fill:#2e4132" />
    <path
       id="path3442"
       transform="translate(-6.95,-7.7)"
       d="m 88.22,12.48 a 12.64,12.64 0 0 1 12.64,12.64 v 0 V 89 A 12.64,12.64 0 0 1 88.22,101.64 H 24.38 A 12.64,12.64 0 0 1 11.74,89 V 25.13 A 12.56,12.56 0 0 1 24.21,12.48"
       class="cls-19"
       inkscape:connector-curvature="0"
       style="fill:#2e4132" />
    <path
       id="path3444"
       transform="translate(-6.95,-7.7)"
       d="m 88.15,12.58 a 12.61,12.61 0 0 1 12.61,12.62 v 0 63.7 A 12.61,12.61 0 0 1 88.15,101.51 H 24.45 A 12.61,12.61 0 0 1 11.83,88.9 V 25.2 A 12.53,12.53 0 0 1 24.28,12.58"
       class="cls-19"
       inkscape:connector-curvature="0"
       style="fill:#2e4132" />
    <path
       id="path3446"
       transform="translate(-6.95,-7.7)"
       d="m 88.08,12.68 a 12.59,12.59 0 0 1 12.59,12.59 v 0 63.56 A 12.59,12.59 0 0 1 88.08,101.42 H 24.52 A 12.59,12.59 0 0 1 11.93,88.83 V 25.27 A 12.51,12.51 0 0 1 24.35,12.68"
       class="cls-20"
       inkscape:connector-curvature="0"
       style="fill:#2f4132" />
    <path
       id="path3448"
       transform="translate(-6.95,-7.7)"
       d="m 88,12.78 a 12.56,12.56 0 0 1 12.56,12.56 v 0 63.42 A 12.56,12.56 0 0 1 88,101.31 H 24.59 A 12.56,12.56 0 0 1 12,88.76 V 25.34 A 12.48,12.48 0 0 1 24.4,12.78"
       class="cls-20"
       inkscape:connector-curvature="0"
       style="fill:#2f4132" />
    <path
       id="path3450"
       transform="translate(-6.95,-7.7)"
       d="m 87.94,12.88 a 12.53,12.53 0 0 1 12.53,12.53 v 0 63.28 A 12.53,12.53 0 0 1 87.94,101.22 H 24.66 A 12.53,12.53 0 0 1 12.13,88.69 V 25.41 A 12.45,12.45 0 0 1 24.5,12.88"
       class="cls-20"
       inkscape:connector-curvature="0"
       style="fill:#2f4132" />
    <path
       id="path3452"
       transform="translate(-6.95,-7.7)"
       d="m 87.87,13 a 12.5,12.5 0 0 1 12.5,12.5 v 0 63.12 a 12.5,12.5 0 0 1 -12.5,12.5 H 24.73 A 12.5,12.5 0 0 1 12.23,88.62 V 25.48 A 12.42,12.42 0 0 1 24.57,13"
       class="cls-21"
       inkscape:connector-curvature="0"
       style="fill:#2f4232" />
    <path
       id="path3454"
       transform="translate(-6.95,-7.7)"
       d="m 87.8,13.07 a 12.48,12.48 0 0 1 12.48,12.48 v 0 63 A 12.48,12.48 0 0 1 87.8,101 h -63 A 12.48,12.48 0 0 1 12.32,88.55 v -63 A 12.4,12.4 0 0 1 24.64,13.07"
       class="cls-22"
       inkscape:connector-curvature="0"
       style="fill:#2f4233" />
    <path
       id="path3456"
       transform="translate(-6.95,-7.7)"
       d="m 87.73,13.17 a 12.45,12.45 0 0 1 12.45,12.45 v 0 62.86 A 12.45,12.45 0 0 1 87.73,100.93 H 24.87 A 12.45,12.45 0 0 1 12.42,88.48 V 25.62 A 12.37,12.37 0 0 1 24.71,13.17"
       class="cls-22"
       inkscape:connector-curvature="0"
       style="fill:#2f4233" />
    <path
       id="path3458"
       transform="translate(-6.95,-7.7)"
       d="m 87.66,13.27 a 12.42,12.42 0 0 1 12.42,12.42 v 0 62.72 A 12.42,12.42 0 0 1 87.66,100.83 H 24.94 A 12.42,12.42 0 0 1 12.52,88.41 V 25.69 A 12.34,12.34 0 0 1 24.78,13.27"
       class="cls-22"
       inkscape:connector-curvature="0"
       style="fill:#2f4233" />
    <path
       id="path3460"
       transform="translate(-6.95,-7.7)"
       d="M 87.59,13.36 A 12.39,12.39 0 0 1 100,25.76 v 0 62.58 A 12.39,12.39 0 0 1 87.61,100.73 H 25 A 12.39,12.39 0 0 1 12.62,88.34 V 25.76 a 12.31,12.31 0 0 1 12.23,-12.4"
       class="cls-22"
       inkscape:connector-curvature="0"
       style="fill:#2f4233" />
    <path
       id="path3462"
       transform="translate(-6.95,-7.7)"
       d="m 87.52,13.46 a 12.36,12.36 0 0 1 12.36,12.37 v 0 62.44 A 12.36,12.36 0 0 1 87.52,100.63 H 25.08 A 12.36,12.36 0 0 1 12.71,88.27 V 25.83 a 12.28,12.28 0 0 1 12.2,-12.36"
       class="cls-23"
       inkscape:connector-curvature="0"
       style="fill:#304333" />
    <path
       id="path3464"
       transform="translate(-6.95,-7.7)"
       d="M 87.45,13.56 A 12.34,12.34 0 0 1 99.78,25.9 v 0 62.3 A 12.34,12.34 0 0 1 87.44,100.54 H 25.15 A 12.34,12.34 0 0 1 12.81,88.2 V 25.9 A 12.26,12.26 0 0 1 25,13.56"
       class="cls-23"
       inkscape:connector-curvature="0"
       style="fill:#304333" />
    <path
       id="path3466"
       transform="translate(-6.95,-7.7)"
       d="M 87.38,13.66 A 12.31,12.31 0 0 1 99.69,26 v 0 62.13 A 12.31,12.31 0 0 1 87.38,100.44 H 25.22 A 12.31,12.31 0 0 1 12.91,88.13 V 26 A 12.23,12.23 0 0 1 25.06,13.66"
       class="cls-23"
       inkscape:connector-curvature="0"
       style="fill:#304333" />
    <path
       id="path3468"
       transform="translate(-6.95,-7.7)"
       d="M 87.31,13.75 A 12.28,12.28 0 0 1 99.59,26 v 0 62 a 12.28,12.28 0 0 1 -12.28,12.28 h -62 A 12.28,12.28 0 0 1 13,88.06 V 26 A 12.2,12.2 0 0 1 25.13,13.75"
       class="cls-24"
       inkscape:connector-curvature="0"
       style="fill:#304334" />
    <path
       id="path3470"
       transform="translate(-6.95,-7.7)"
       d="m 87.24,13.85 a 12.25,12.25 0 0 1 12.25,12.26 v 0 V 88 A 12.25,12.25 0 0 1 87.24,100.25 H 25.36 A 12.25,12.25 0 0 1 13.1,88 V 26.11 A 12.17,12.17 0 0 1 25.2,13.85"
       class="cls-24"
       inkscape:connector-curvature="0"
       style="fill:#304334" />
    <path
       id="path3472"
       transform="translate(-6.95,-7.7)"
       d="m 87.17,13.95 a 12.23,12.23 0 0 1 12.22,12.23 v 0 61.74 A 12.23,12.23 0 0 1 87.16,100.15 H 25.43 A 12.23,12.23 0 0 1 13.2,87.92 V 26.18 A 12.15,12.15 0 0 1 25.27,13.95"
       class="cls-24"
       inkscape:connector-curvature="0"
       style="fill:#304334" />
    <path
       id="path3474"
       transform="translate(-6.95,-7.7)"
       d="m 87.1,14 a 12.2,12.2 0 0 1 12.2,12.2 v 0 61.6 A 12.2,12.2 0 0 1 87.1,100 H 25.5 A 12.2,12.2 0 0 1 13.3,87.8 V 26.25 a 12.12,12.12 0 0 1 12,-12.2"
       class="cls-25"
       inkscape:connector-curvature="0"
       style="fill:#304434" />
    <path
       id="path3476"
       transform="translate(-6.95,-7.7)"
       d="m 87,14.15 a 12.17,12.17 0 0 1 12.2,12.17 v 0 61.46 A 12.17,12.17 0 0 1 87,99.95 H 25.57 A 12.17,12.17 0 0 1 13.4,87.78 V 26.32 a 12.09,12.09 0 0 1 12,-12.17"
       class="cls-25"
       inkscape:connector-curvature="0"
       style="fill:#304434" />
    <path
       id="path3478"
       transform="translate(-6.95,-7.7)"
       d="m 87,14.24 a 12.14,12.14 0 0 1 12.1,12.15 v 0 61.32 A 12.14,12.14 0 0 1 87,99.85 H 25.64 A 12.14,12.14 0 0 1 13.49,87.71 V 26.39 a 12.06,12.06 0 0 1 12,-12.14"
       class="cls-26"
       inkscape:connector-curvature="0"
       style="fill:#314434" />
    <path
       id="path3480"
       transform="translate(-6.95,-7.7)"
       d="M 86.89,14.34 A 12.11,12.11 0 0 1 99,26.46 v 0 61.18 A 12.11,12.11 0 0 1 86.89,99.75 H 25.71 A 12.11,12.11 0 0 1 13.59,87.64 V 26.46 a 12,12 0 0 1 12,-12.11"
       class="cls-26"
       inkscape:connector-curvature="0"
       style="fill:#314434" />
    <path
       id="path3482"
       transform="translate(-6.95,-7.7)"
       d="M 86.82,14.44 A 12.09,12.09 0 0 1 98.9,26.53 v 0 61 A 12.09,12.09 0 0 1 86.82,99.65 h -61 A 12.09,12.09 0 0 1 13.69,87.57 v -61 A 12,12 0 0 1 25.62,14.44"
       class="cls-27"
       inkscape:connector-curvature="0"
       style="fill:#314435" />
    <path
       id="path3484"
       transform="translate(-6.95,-7.7)"
       d="M 86.75,14.54 A 12.06,12.06 0 0 1 98.81,26.6 v 0 60.9 A 12.06,12.06 0 0 1 86.75,99.56 H 25.85 A 12.06,12.06 0 0 1 13.79,87.5 V 26.6 a 12,12 0 0 1 11.9,-12.06"
       class="cls-27"
       inkscape:connector-curvature="0"
       style="fill:#314435" />
    <path
       id="path3486"
       transform="translate(-6.95,-7.7)"
       d="m 86.68,14.63 a 12,12 0 0 1 12,12 v 0 60.8 a 12,12 0 0 1 -12,12 H 25.92 a 12,12 0 0 1 -12,-12 V 26.67 a 12,12 0 0 1 11.88,-12"
       class="cls-28"
       inkscape:connector-curvature="0"
       style="fill:#314535" />
    <path
       id="path3488"
       transform="translate(-6.95,-7.7)"
       d="m 86.61,14.73 a 12,12 0 0 1 12,12 v 0 60.63 a 12,12 0 0 1 -12,12 H 26 a 12,12 0 0 1 -12,-12 V 26.74 a 11.93,11.93 0 0 1 11.85,-12"
       class="cls-28"
       inkscape:connector-curvature="0"
       style="fill:#314535" />
    <path
       id="path3490"
       transform="translate(-6.95,-7.7)"
       d="m 86.54,14.83 a 12,12 0 0 1 12,12 v 0 60.46 a 12,12 0 0 1 -12,12 H 26.06 a 12,12 0 0 1 -12,-12 V 26.81 a 11.9,11.9 0 0 1 11.82,-12"
       class="cls-28"
       inkscape:connector-curvature="0"
       style="fill:#314535" />
    <path
       id="path3492"
       transform="translate(-6.95,-7.7)"
       d="m 86.47,14.93 a 12,12 0 0 1 11.95,11.95 v 0 60.34 A 12,12 0 0 1 86.47,99.16 H 26.13 A 12,12 0 0 1 14.18,87.22 V 26.88 A 11.87,11.87 0 0 1 26,14.93"
       class="cls-29"
       inkscape:connector-curvature="0"
       style="fill:#324535" />
    <path
       id="path3494"
       transform="translate(-6.95,-7.7)"
       d="m 86.4,15 a 11.92,11.92 0 0 1 11.92,11.95 v 0 60.2 A 11.92,11.92 0 0 1 86.4,99.07 H 26.2 A 11.92,11.92 0 0 1 14.28,87.15 V 26.95 A 11.84,11.84 0 0 1 26,15"
       class="cls-29"
       inkscape:connector-curvature="0"
       style="fill:#324535" />
    <path
       id="path3496"
       transform="translate(-6.95,-7.7)"
       d="M 86.33,15.12 A 11.89,11.89 0 0 1 98.22,27 v 0 60.08 A 11.89,11.89 0 0 1 86.33,99 H 26.27 A 11.89,11.89 0 0 1 14.37,87.08 V 27 A 11.82,11.82 0 0 1 26.11,15.12"
       class="cls-30"
       inkscape:connector-curvature="0"
       style="fill:#324636" />
    <path
       id="path3498"
       transform="translate(-6.95,-7.7)"
       d="m 86.26,15.22 a 11.87,11.87 0 0 1 11.86,11.87 v 0 V 87 A 11.87,11.87 0 0 1 86.26,98.87 H 26.34 A 11.87,11.87 0 0 1 14.47,87 V 27.09 A 11.79,11.79 0 0 1 26.18,15.22"
       class="cls-30"
       inkscape:connector-curvature="0"
       style="fill:#324636" />
    <path
       id="path3500"
       transform="translate(-6.95,-7.7)"
       d="M 86.19,15.32 A 11.84,11.84 0 0 1 98,27.16 v 0 59.78 A 11.84,11.84 0 0 1 86.19,98.77 H 26.41 A 11.84,11.84 0 0 1 14.57,86.94 V 27.16 A 11.76,11.76 0 0 1 26.25,15.32"
       class="cls-30"
       inkscape:connector-curvature="0"
       style="fill:#324636" />
    <path
       id="path3502"
       transform="translate(-6.95,-7.7)"
       d="m 86.12,15.42 a 11.81,11.81 0 0 1 11.81,11.81 v 0 59.64 A 11.81,11.81 0 0 1 86.12,98.68 H 26.48 A 11.81,11.81 0 0 1 14.67,86.87 V 27.23 A 11.73,11.73 0 0 1 26.32,15.42"
       class="cls-30"
       inkscape:connector-curvature="0"
       style="fill:#324636" />
    <path
       id="path3504"
       transform="translate(-6.95,-7.7)"
       d="M 86,15.51 A 11.78,11.78 0 0 1 97.83,27.3 v 0 59.5 A 11.78,11.78 0 0 1 86,98.58 H 26.55 A 11.78,11.78 0 0 1 14.76,86.8 V 27.3 A 11.71,11.71 0 0 1 26.4,15.51"
       class="cls-30"
       inkscape:connector-curvature="0"
       style="fill:#324636" />
    <path
       id="path3506"
       transform="translate(-6.95,-7.7)"
       d="m 86,15.61 a 11.75,11.75 0 0 1 11.73,11.76 v 0 59.36 A 11.75,11.75 0 0 1 86,98.48 H 26.62 A 11.75,11.75 0 0 1 14.86,86.73 V 27.37 a 11.68,11.68 0 0 1 11.6,-11.75"
       class="cls-30"
       inkscape:connector-curvature="0"
       style="fill:#324636" />
    <path
       id="path3508"
       transform="translate(-6.95,-7.7)"
       d="m 85.91,15.71 a 11.73,11.73 0 0 1 11.72,11.73 v 0 59.22 A 11.73,11.73 0 0 1 85.91,98.38 H 26.69 A 11.73,11.73 0 0 1 15,86.66 V 27.44 A 11.65,11.65 0 0 1 26.54,15.71"
       class="cls-31"
       inkscape:connector-curvature="0"
       style="fill:#334736" />
    <path
       id="path3510"
       transform="translate(-6.95,-7.7)"
       d="m 85.84,15.81 a 11.7,11.7 0 0 1 11.7,11.7 v 0 59.08 a 11.7,11.7 0 0 1 -11.7,11.7 H 26.76 A 11.7,11.7 0 0 1 15.06,86.59 V 27.51 a 11.62,11.62 0 0 1 11.55,-11.7"
       class="cls-32"
       inkscape:connector-curvature="0"
       style="fill:#334737" />
    <path
       id="path3512"
       transform="translate(-6.95,-7.7)"
       d="m 85.77,15.9 a 11.67,11.67 0 0 1 11.67,11.68 v 0 58.94 A 11.67,11.67 0 0 1 85.77,98.19 H 26.83 A 11.67,11.67 0 0 1 15.16,86.52 V 27.58 A 11.6,11.6 0 0 1 26.68,15.9"
       class="cls-32"
       inkscape:connector-curvature="0"
       style="fill:#334737" />
    <path
       id="path3514"
       transform="translate(-6.95,-7.7)"
       d="m 85.7,16 a 11.64,11.64 0 0 1 11.64,11.65 v 0 58.8 A 11.64,11.64 0 0 1 85.7,98.09 H 26.9 A 11.64,11.64 0 0 1 15.25,86.45 V 27.65 A 11.57,11.57 0 0 1 26.75,16"
       class="cls-32"
       inkscape:connector-curvature="0"
       style="fill:#334737" />
    <path
       id="path3516"
       transform="translate(-6.95,-7.7)"
       d="m 85.63,16.1 a 11.62,11.62 0 0 1 11.61,11.62 v 0 58.66 A 11.62,11.62 0 0 1 85.63,98 H 27 A 11.62,11.62 0 0 1 15.35,86.38 V 27.72 A 11.54,11.54 0 0 1 26.82,16.1"
       class="cls-32"
       inkscape:connector-curvature="0"
       style="fill:#334737" />
    <path
       id="path3518"
       transform="translate(-6.95,-7.7)"
       d="m 85.56,16.2 a 11.59,11.59 0 0 1 11.59,11.59 v 0 58.52 A 11.59,11.59 0 0 1 85.56,97.89 H 27 A 11.59,11.59 0 0 1 15.45,86.31 V 27.79 A 11.51,11.51 0 0 1 26.89,16.2"
       class="cls-33"
       inkscape:connector-curvature="0"
       style="fill:#334837" />
    <path
       id="path3520"
       transform="translate(-6.95,-7.7)"
       d="M 85.49,16.3 A 11.56,11.56 0 0 1 97,27.86 v 0 58.38 A 11.56,11.56 0 0 1 85.49,97.8 H 27.11 A 11.56,11.56 0 0 1 15.55,86.24 V 27.86 A 11.49,11.49 0 0 1 27,16.3"
       class="cls-33"
       inkscape:connector-curvature="0"
       style="fill:#334837" />
    <path
       id="path3522"
       transform="translate(-6.95,-7.7)"
       d="m 85.42,16.39 a 11.53,11.53 0 0 1 11.53,11.54 v 0 58.24 A 11.53,11.53 0 0 1 85.42,97.7 H 27.18 A 11.53,11.53 0 0 1 15.64,86.17 V 27.93 A 11.46,11.46 0 0 1 27,16.39"
       class="cls-33"
       inkscape:connector-curvature="0"
       style="fill:#334837" />
    <path
       id="path3524"
       transform="translate(-6.95,-7.7)"
       d="M 85.35,16.49 A 11.5,11.5 0 0 1 96.85,28 v 0 58.1 A 11.5,11.5 0 0 1 85.35,97.6 H 27.25 A 11.5,11.5 0 0 1 15.75,86.1 V 28 A 11.43,11.43 0 0 1 27.1,16.49"
       class="cls-34"
       inkscape:connector-curvature="0"
       style="fill:#344837" />
    <path
       id="path3526"
       transform="translate(-6.95,-7.7)"
       d="m 85.28,16.59 a 11.48,11.48 0 0 1 11.47,11.48 v 0 V 86 A 11.48,11.48 0 0 1 85.28,97.5 h -58 A 11.48,11.48 0 0 1 15.84,86 V 28 A 11.4,11.4 0 0 1 27.17,16.59"
       class="cls-35"
       inkscape:connector-curvature="0"
       style="fill:#344838" />
    <path
       id="path3528"
       transform="translate(-6.95,-7.7)"
       d="m 85.21,16.69 a 11.45,11.45 0 0 1 11.45,11.45 v 0 V 86 A 11.45,11.45 0 0 1 85.21,97.41 H 27.39 A 11.45,11.45 0 0 1 15.94,86 V 28.14 a 11.38,11.38 0 0 1 11.3,-11.45"
       class="cls-35"
       inkscape:connector-curvature="0"
       style="fill:#344838" />
    <path
       id="path3530"
       transform="translate(-6.95,-7.7)"
       d="m 85.14,16.78 a 11.42,11.42 0 0 1 11.42,11.43 v 0 57.68 A 11.42,11.42 0 0 1 85.14,97.31 H 27.46 A 11.42,11.42 0 0 1 16,85.89 V 28.21 A 11.35,11.35 0 0 1 27.31,16.78"
       class="cls-36"
       inkscape:connector-curvature="0"
       style="fill:#344938" />
    <path
       id="path3532"
       transform="translate(-6.95,-7.7)"
       d="m 85.07,16.88 a 11.39,11.39 0 0 1 11.39,11.4 v 0 57.54 A 11.39,11.39 0 0 1 85.07,97.21 H 27.53 A 11.39,11.39 0 0 1 16.13,85.82 V 28.28 a 11.32,11.32 0 0 1 11.25,-11.4"
       class="cls-36"
       inkscape:connector-curvature="0"
       style="fill:#344938" />
    <path
       id="path3534"
       transform="translate(-6.95,-7.7)"
       d="m 85,17 a 11.37,11.37 0 0 1 11.36,11.35 v 0 57.4 A 11.37,11.37 0 0 1 85,97.11 H 27.6 A 11.37,11.37 0 0 1 16.23,85.75 V 28.35 A 11.29,11.29 0 0 1 27.45,17"
       class="cls-36"
       inkscape:connector-curvature="0"
       style="fill:#344938" />
    <path
       id="path3536"
       transform="translate(-6.95,-7.7)"
       d="m 84.93,17.08 a 11.34,11.34 0 0 1 11.34,11.34 v 0 57.26 A 11.34,11.34 0 0 1 84.93,97 H 27.67 A 11.34,11.34 0 0 1 16.33,85.68 V 28.42 A 11.27,11.27 0 0 1 27.52,17.08"
       class="cls-36"
       inkscape:connector-curvature="0"
       style="fill:#344938" />
    <path
       id="path3538"
       transform="translate(-6.95,-7.7)"
       d="m 84.86,17.17 a 11.31,11.31 0 0 1 11.31,11.32 v 0 57.12 A 11.31,11.31 0 0 1 84.86,96.92 H 27.74 A 11.31,11.31 0 0 1 16.43,85.61 V 28.49 A 11.24,11.24 0 0 1 27.59,17.17"
       class="cls-36"
       inkscape:connector-curvature="0"
       style="fill:#344938" />
    <path
       id="path3540"
       transform="translate(-6.95,-7.7)"
       d="m 84.79,17.27 a 11.28,11.28 0 0 1 11.28,11.29 v 0 57 A 11.28,11.28 0 0 1 84.79,96.82 h -57 A 11.28,11.28 0 0 1 16.52,85.54 v -57 A 11.21,11.21 0 0 1 27.66,17.27"
       class="cls-37"
       inkscape:connector-curvature="0"
       style="fill:#354939" />
    <path
       id="path3542"
       transform="translate(-6.95,-7.7)"
       d="M 84.72,17.37 A 11.26,11.26 0 0 1 96,28.63 v 0 56.84 A 11.26,11.26 0 0 1 84.72,96.72 H 27.88 A 11.26,11.26 0 0 1 16.62,85.47 V 28.63 A 11.18,11.18 0 0 1 27.73,17.37"
       class="cls-38"
       inkscape:connector-curvature="0"
       style="fill:#354a39" />
    <path
       id="path3544"
       transform="translate(-6.95,-7.7)"
       d="M 84.65,17.47 A 11.23,11.23 0 0 1 95.87,28.7 v 0 56.7 A 11.23,11.23 0 0 1 84.65,96.62 H 27.95 A 11.23,11.23 0 0 1 16.72,85.4 V 28.7 A 11.16,11.16 0 0 1 27.8,17.47"
       class="cls-38"
       inkscape:connector-curvature="0"
       style="fill:#354a39" />
    <path
       id="path3546"
       transform="translate(-6.95,-7.7)"
       d="m 84.58,17.57 a 11.2,11.2 0 0 1 11.2,11.2 v 0 56.56 a 11.2,11.2 0 0 1 -11.2,11.2 H 28 A 11.2,11.2 0 0 1 16.8,85.33 V 28.77 a 11.13,11.13 0 0 1 11.06,-11.2"
       class="cls-38"
       inkscape:connector-curvature="0"
       style="fill:#354a39" />
    <path
       id="path3548"
       transform="translate(-6.95,-7.7)"
       d="m 84.53,17.62 a 11.18,11.18 0 0 1 11.19,11.19 v 0 56.47 A 11.18,11.18 0 0 1 84.53,96.46 H 28.06 A 11.18,11.18 0 0 1 16.88,85.28 V 28.81 a 11.11,11.11 0 0 1 11,-11.18 h 0.47"
       class="cls-38"
       inkscape:connector-curvature="0"
       style="fill:#354a39" />
    <path
       id="path3550"
       transform="translate(-6.95,-7.7)"
       d="m 84.49,17.68 a 11.17,11.17 0 0 1 11.17,11.17 v 0 56.39 A 11.17,11.17 0 0 1 84.49,96.4 H 28.1 A 11.17,11.17 0 0 1 16.94,85.24 V 28.85 A 11.1,11.1 0 0 1 28,17.68 h 0.95"
       class="cls-39"
       inkscape:connector-curvature="0"
       style="fill:#364b3a" />
    <path
       id="path3552"
       transform="translate(-6.95,-7.7)"
       d="M 84.45,17.74 A 11.15,11.15 0 0 1 95.6,28.89 v 0 56.3 A 11.15,11.15 0 0 1 84.45,96.34 H 28.15 A 11.15,11.15 0 0 1 17,85.19 V 28.89 A 11.08,11.08 0 0 1 28,17.74 h 1.42"
       class="cls-39"
       inkscape:connector-curvature="0"
       style="fill:#364b3a" />
    <path
       id="path3554"
       transform="translate(-6.95,-7.7)"
       d="m 84.4,17.8 a 11.14,11.14 0 0 1 11.14,11.13 v 0 56.22 A 11.14,11.14 0 0 1 84.4,96.28 H 28.19 A 11.14,11.14 0 0 1 17.06,85.15 V 28.93 a 11.06,11.06 0 0 1 11,-11.13 h 1.89"
       class="cls-40"
       inkscape:connector-curvature="0"
       style="fill:#374b3b" />
    <path
       id="path3556"
       transform="translate(-6.95,-7.7)"
       d="M 84.36,17.86 A 11.12,11.12 0 0 1 95.48,29 v 0 56.1 A 11.12,11.12 0 0 1 84.36,96.22 H 28.23 A 11.12,11.12 0 0 1 17.12,85.1 V 29 a 11,11 0 0 1 11,-11.12 h 2.37"
       class="cls-41"
       inkscape:connector-curvature="0"
       style="fill:#374c3b" />
    <path
       id="path3558"
       transform="translate(-6.95,-7.7)"
       d="M 84.32,17.92 A 11.1,11.1 0 0 1 95.42,29 v 0 56 a 11.1,11.1 0 0 1 -11.1,11.1 h -56 A 11.1,11.1 0 0 1 17.22,85 V 29 a 11,11 0 0 1 11,-11.1 H 31"
       class="cls-41"
       inkscape:connector-curvature="0"
       style="fill:#374c3b" />
    <path
       id="path3560"
       transform="translate(-6.95,-7.7)"
       d="m 84.27,18 a 11.09,11.09 0 0 1 11.09,11.06 v 0 V 85 A 11.09,11.09 0 0 1 84.27,96.09 h -56 A 11.09,11.09 0 0 1 17.24,85 V 29 A 11,11 0 0 1 28.19,18 h 3.31"
       class="cls-42"
       inkscape:connector-curvature="0"
       style="fill:#384c3c" />
    <path
       id="path3562"
       transform="translate(-6.95,-7.7)"
       d="M 84.23,18 A 11.07,11.07 0 0 1 95.3,29.1 v 0 V 85 A 11.07,11.07 0 0 1 84.23,96 H 28.36 A 11.07,11.07 0 0 1 17.3,85 V 29.1 A 11,11 0 0 1 28.23,18 H 32"
       class="cls-43"
       inkscape:connector-curvature="0"
       style="fill:#384d3c" />
    <path
       id="path3564"
       transform="translate(-6.95,-7.7)"
       d="m 84.19,18.09 a 11.05,11.05 0 0 1 11,11 v 0 55.83 a 11.05,11.05 0 0 1 -11,11 H 28.41 a 11.05,11.05 0 0 1 -11,-11 V 29.14 a 11,11 0 0 1 10.92,-11 h 4.26"
       class="cls-44"
       inkscape:connector-curvature="0"
       style="fill:#394d3d" />
    <path
       id="path3566"
       transform="translate(-6.95,-7.7)"
       d="m 84.14,18.15 a 11,11 0 0 1 11,11 v 0 55.73 a 11,11 0 0 1 -11,11 H 28.45 a 11,11 0 0 1 -11,-11 v -55.7 a 11,11 0 0 1 10.9,-11 h 4.73"
       class="cls-45"
       inkscape:connector-curvature="0"
       style="fill:#394e3d" />
    <path
       id="path3568"
       transform="translate(-6.95,-7.7)"
       d="m 84.1,18.21 a 11,11 0 0 1 11,11 v 0 55.62 a 11,11 0 0 1 -11,11 H 28.49 a 11,11 0 0 1 -11,-11 V 29.22 a 11,11 0 0 1 10.89,-11 h 5.21"
       class="cls-45"
       inkscape:connector-curvature="0"
       style="fill:#394e3d" />
    <path
       id="path3570"
       transform="translate(-6.95,-7.7)"
       d="m 84.06,18.27 a 11,11 0 0 1 11,11 v 0 55.51 a 11,11 0 0 1 -11,11 H 28.54 a 11,11 0 0 1 -11,-11 V 29.27 a 10.93,10.93 0 0 1 10.87,-11 h 5.68"
       class="cls-46"
       inkscape:connector-curvature="0"
       style="fill:#3a4e3e" />
    <path
       id="path3572"
       transform="translate(-6.95,-7.7)"
       d="m 84,18.33 a 11,11 0 0 1 11,11 v 0 55.41 a 11,11 0 0 1 -11,11 H 28.58 a 11,11 0 0 1 -11,-11 V 29.31 a 10.92,10.92 0 0 1 10.86,-11 h 6.15"
       class="cls-47"
       inkscape:connector-curvature="0"
       style="fill:#3a4f3e" />
    <path
       id="path3574"
       transform="translate(-6.95,-7.7)"
       d="m 84,18.38 a 11,11 0 0 1 11,11 v 0 55.31 a 11,11 0 0 1 -11,11 H 28.62 a 11,11 0 0 1 -11,-11 V 29.35 a 10.9,10.9 0 0 1 10.84,-11 h 6.63"
       class="cls-48"
       inkscape:connector-curvature="0"
       style="fill:#3b4f3f" />
    <path
       id="path3576"
       transform="translate(-6.95,-7.7)"
       d="m 83.93,18.44 a 11,11 0 0 1 10.94,10.95 v 0 55.26 A 11,11 0 0 1 83.93,95.6 H 28.67 A 11,11 0 0 1 17.72,84.65 V 29.39 A 10.89,10.89 0 0 1 28.54,18.44 h 7.1"
       class="cls-48"
       inkscape:connector-curvature="0"
       style="fill:#3b4f3f" />
    <path
       id="path3578"
       transform="translate(-6.95,-7.7)"
       d="m 83.88,18.5 a 10.94,10.94 0 0 1 10.93,10.93 v 0 55.17 A 10.94,10.94 0 0 1 83.88,95.54 H 28.71 A 10.94,10.94 0 0 1 17.78,84.6 V 29.43 A 10.87,10.87 0 0 1 28.59,18.5 h 7.57"
       class="cls-49"
       inkscape:connector-curvature="0"
       style="fill:#3b503f" />
    <path
       id="path3580"
       transform="translate(-6.95,-7.7)"
       d="m 83.84,18.56 a 10.92,10.92 0 0 1 10.91,10.91 v 0 55.09 A 10.92,10.92 0 0 1 83.84,95.47 H 28.75 A 10.92,10.92 0 0 1 17.84,84.56 V 29.47 A 10.85,10.85 0 0 1 28.63,18.56 h 8"
       class="cls-50"
       inkscape:connector-curvature="0"
       style="fill:#3c5040" />
    <path
       id="path3582"
       transform="translate(-6.95,-7.7)"
       d="m 83.8,18.62 a 10.91,10.91 0 0 1 10.9,10.9 v 0 55 a 10.91,10.91 0 0 1 -10.9,10.9 h -55 A 10.91,10.91 0 0 1 17.9,84.52 v -55 a 10.84,10.84 0 0 1 10.78,-10.9 h 8.52"
       class="cls-50"
       inkscape:connector-curvature="0"
       style="fill:#3c5040" />
    <path
       id="path3584"
       transform="translate(-6.95,-7.7)"
       d="m 83.75,18.68 a 10.89,10.89 0 0 1 10.88,10.88 v 0 54.91 A 10.89,10.89 0 0 1 83.75,95.35 H 28.84 A 10.89,10.89 0 0 1 18,84.47 V 29.56 A 10.82,10.82 0 0 1 28.72,18.68 h 9"
       class="cls-51"
       inkscape:connector-curvature="0"
       style="fill:#3d5141" />
    <path
       id="path3586"
       transform="translate(-6.95,-7.7)"
       d="M 83.71,18.74 A 10.88,10.88 0 0 1 94.57,29.6 v 0 54.82 A 10.88,10.88 0 0 1 83.71,95.29 H 28.88 A 10.88,10.88 0 0 1 18,84.42 V 29.6 A 10.81,10.81 0 0 1 28.77,18.74 h 9.47"
       class="cls-51"
       inkscape:connector-curvature="0"
       style="fill:#3d5141" />
    <path
       id="path3588"
       transform="translate(-6.95,-7.7)"
       d="m 83.67,18.79 a 10.86,10.86 0 0 1 10.84,10.85 v 0 54.74 A 10.86,10.86 0 0 1 83.67,95.23 H 28.93 A 10.86,10.86 0 0 1 18.08,84.38 V 29.64 A 10.79,10.79 0 0 1 28.81,18.79 h 9.94"
       class="cls-51"
       inkscape:connector-curvature="0"
       style="fill:#3d5141" />
    <path
       id="path3590"
       transform="translate(-6.95,-7.7)"
       d="m 83.62,18.85 a 10.84,10.84 0 0 1 10.83,10.83 v 0 54.65 A 10.84,10.84 0 0 1 83.62,95.16 H 29 A 10.84,10.84 0 0 1 18.14,84.33 V 29.68 A 10.77,10.77 0 0 1 28.86,18.85 h 10.41"
       class="cls-52"
       inkscape:connector-curvature="0"
       style="fill:#3e5242" />
    <path
       id="path3592"
       transform="translate(-6.95,-7.7)"
       d="m 83.58,18.91 a 10.83,10.83 0 0 1 10.81,10.81 v 0 54.57 A 10.83,10.83 0 0 1 83.58,95.1 H 29 A 10.83,10.83 0 0 1 18.2,84.29 V 29.72 A 10.76,10.76 0 0 1 28.9,18.91 h 10.89"
       class="cls-52"
       inkscape:connector-curvature="0"
       style="fill:#3e5242" />
    <path
       id="path3594"
       transform="translate(-6.95,-7.7)"
       d="m 83.54,19 a 10.81,10.81 0 0 1 10.8,10.8 v 0 54.44 A 10.81,10.81 0 0 1 83.54,95 H 29.06 A 10.81,10.81 0 0 1 18.26,84.2 V 29.77 A 10.74,10.74 0 0 1 28.95,19 h 11.36"
       class="cls-53"
       inkscape:connector-curvature="0"
       style="fill:#3f5343" />
    <path
       id="path3596"
       transform="translate(-6.95,-7.7)"
       d="m 83.49,19 a 10.79,10.79 0 0 1 10.78,10.81 v 0 54.39 A 10.79,10.79 0 0 1 83.49,95 H 29.1 A 10.79,10.79 0 0 1 18.32,84.2 V 29.81 A 10.72,10.72 0 0 1 29,19 h 11.82"
       class="cls-53"
       inkscape:connector-curvature="0"
       style="fill:#3f5343" />
    <path
       id="path3598"
       transform="translate(-6.95,-7.7)"
       d="m 83.45,19.09 a 10.78,10.78 0 0 1 10.76,10.76 v 0 54.3 A 10.78,10.78 0 0 1 83.45,94.92 H 29.14 A 10.78,10.78 0 0 1 18.38,84.15 V 29.85 A 10.71,10.71 0 0 1 29,19.09 h 12.3"
       class="cls-53"
       inkscape:connector-curvature="0"
       style="fill:#3f5343" />
    <path
       id="path3600"
       transform="translate(-6.95,-7.7)"
       d="m 83.41,19.15 a 10.76,10.76 0 0 1 10.74,10.74 v 0 54.22 A 10.76,10.76 0 0 1 83.41,94.85 H 29.19 A 10.76,10.76 0 0 1 18.44,84.11 V 29.89 A 10.69,10.69 0 0 1 29.08,19.15 h 12.78"
       class="cls-54"
       inkscape:connector-curvature="0"
       style="fill:#405444" />
    <path
       id="path3602"
       transform="translate(-6.95,-7.7)"
       d="m 83.36,19.2 a 10.75,10.75 0 0 1 10.73,10.73 v 0 54.13 A 10.75,10.75 0 0 1 83.36,94.79 H 29.23 A 10.75,10.75 0 0 1 18.5,84.06 V 29.93 A 10.68,10.68 0 0 1 29.13,19.2 h 13.25"
       class="cls-54"
       inkscape:connector-curvature="0"
       style="fill:#405444" />
    <path
       id="path3604"
       transform="translate(-6.95,-7.7)"
       d="M 83.32,19.26 A 10.73,10.73 0 0 1 94,30 v 0 54 A 10.73,10.73 0 0 1 83.32,94.73 h -54 A 10.73,10.73 0 0 1 18.56,84 V 30 A 10.66,10.66 0 0 1 29.17,19.26 H 42.9"
       class="cls-54"
       inkscape:connector-curvature="0"
       style="fill:#405444" />
    <path
       id="path3606"
       transform="translate(-6.95,-7.7)"
       d="M 83.28,19.32 A 10.71,10.71 0 0 1 94,30 v 0 54 A 10.71,10.71 0 0 1 83.3,94.7 h -54 A 10.71,10.71 0 0 1 18.62,84 V 30 A 10.64,10.64 0 0 1 29.21,19.3 h 14.2"
       class="cls-55"
       inkscape:connector-curvature="0"
       style="fill:#415545" />
    <path
       id="path3608"
       transform="translate(-6.95,-7.7)"
       d="m 83.23,19.38 a 10.7,10.7 0 0 1 10.68,10.68 v 0 53.87 A 10.7,10.7 0 0 1 83.23,94.61 H 29.36 A 10.7,10.7 0 0 1 18.68,83.93 V 30.06 A 10.63,10.63 0 0 1 29.26,19.38 h 14.67"
       class="cls-55"
       inkscape:connector-curvature="0"
       style="fill:#415545" />
    <path
       id="path3610"
       transform="translate(-6.95,-7.7)"
       d="M 83.19,19.44 A 10.68,10.68 0 0 1 93.85,30.1 v 0 53.78 A 10.68,10.68 0 0 1 83.19,94.55 H 29.4 A 10.68,10.68 0 0 1 18.74,83.88 V 30.1 A 10.61,10.61 0 0 1 29.31,19.44 h 15.14"
       class="cls-56"
       inkscape:connector-curvature="0"
       style="fill:#425546" />
    <path
       id="path3612"
       transform="translate(-6.95,-7.7)"
       d="m 83.15,19.5 a 10.66,10.66 0 0 1 10.64,10.64 v 0 53.7 A 10.66,10.66 0 0 1 83.15,94.48 H 29.45 A 10.66,10.66 0 0 1 18.8,83.84 V 30.14 A 10.6,10.6 0 0 1 29.35,19.5 H 45"
       class="cls-57"
       inkscape:connector-curvature="0"
       style="fill:#425646" />
    <path
       id="path3614"
       transform="translate(-6.95,-7.7)"
       d="m 83.1,19.55 a 10.65,10.65 0 0 1 10.63,10.63 v 0 53.61 A 10.65,10.65 0 0 1 83.1,94.42 H 29.49 A 10.65,10.65 0 0 1 18.86,83.79 V 30.18 A 10.58,10.58 0 0 1 29.4,19.55 h 16.09"
       class="cls-57"
       inkscape:connector-curvature="0"
       style="fill:#425646" />
    <path
       id="path3616"
       transform="translate(-6.95,-7.7)"
       d="m 83.06,19.61 a 10.63,10.63 0 0 1 10.61,10.61 v 0 53.53 A 10.63,10.63 0 0 1 83.06,94.36 H 29.53 A 10.63,10.63 0 0 1 18.92,83.75 V 30.22 A 10.56,10.56 0 0 1 29.44,19.61 H 46"
       class="cls-58"
       inkscape:connector-curvature="0"
       style="fill:#435647" />
    <path
       id="path3618"
       transform="translate(-6.95,-7.7)"
       d="m 83,19.67 a 10.62,10.62 0 0 1 10.61,10.6 v 0 53.43 A 10.62,10.62 0 0 1 83,94.3 H 29.58 A 10.62,10.62 0 0 1 19,83.7 V 30.27 A 10.55,10.55 0 0 1 29.5,19.68 h 17"
       class="cls-59"
       inkscape:connector-curvature="0"
       style="fill:#435747" />
    <path
       id="path3620"
       transform="translate(-6.95,-7.7)"
       d="m 83,19.73 a 10.6,10.6 0 0 1 10.55,10.58 v 0 53.35 A 10.6,10.6 0 0 1 83,94.24 H 29.62 A 10.6,10.6 0 0 1 19,83.66 V 30.31 A 10.53,10.53 0 0 1 29.53,19.73 H 47"
       class="cls-60"
       inkscape:connector-curvature="0"
       style="fill:#445748" />
    <path
       id="path3622"
       transform="translate(-6.95,-7.7)"
       d="m 82.93,19.79 a 10.58,10.58 0 0 1 10.56,10.56 v 0 53.26 A 10.58,10.58 0 0 1 82.93,94.17 H 29.66 A 10.58,10.58 0 0 1 19.1,83.61 V 30.35 A 10.52,10.52 0 0 1 29.57,19.79 h 18"
       class="cls-61"
       inkscape:connector-curvature="0"
       style="fill:#445848" />
    <path
       id="path3624"
       transform="translate(-6.95,-7.7)"
       d="m 82.89,19.85 a 10.57,10.57 0 0 1 10.54,10.54 v 0 53.18 A 10.57,10.57 0 0 1 82.89,94.11 H 29.71 A 10.57,10.57 0 0 1 19.16,83.57 V 30.39 A 10.5,10.5 0 0 1 29.62,19.85 h 18.46"
       class="cls-61"
       inkscape:connector-curvature="0"
       style="fill:#445848" />
    <path
       id="path3626"
       transform="translate(-6.95,-7.7)"
       d="m 82.84,19.91 a 10.55,10.55 0 0 1 10.53,10.52 v 0 53.09 A 10.55,10.55 0 0 1 82.84,94 H 29.75 A 10.55,10.55 0 0 1 19.22,83.52 V 30.43 A 10.48,10.48 0 0 1 29.66,19.91 H 48.6"
       class="cls-62"
       inkscape:connector-curvature="0"
       style="fill:#455849" />
    <path
       id="path3628"
       transform="translate(-6.95,-7.7)"
       d="m 82.8,20 a 10.53,10.53 0 0 1 10.51,10.47 v 0 53 A 10.53,10.53 0 0 1 82.8,94 h -53 A 10.53,10.53 0 0 1 19.29,83.48 v -53 A 10.47,10.47 0 0 1 29.71,20 h 19.4"
       class="cls-63"
       inkscape:connector-curvature="0"
       style="fill:#455949" />
    <path
       id="path3630"
       transform="translate(-6.95,-7.7)"
       d="m 82.76,20 a 10.52,10.52 0 0 1 10.49,10.52 v 0 52.91 A 10.52,10.52 0 0 1 82.76,93.93 H 29.84 A 10.52,10.52 0 0 1 19.35,83.43 V 30.52 A 10.45,10.45 0 0 1 29.75,20 h 19.88"
       class="cls-64"
       inkscape:connector-curvature="0"
       style="fill:#46594a" />
    <path
       id="path3632"
       transform="translate(-6.95,-7.7)"
       d="m 82.71,20.08 a 10.5,10.5 0 0 1 10.48,10.48 v 0 52.83 A 10.5,10.5 0 0 1 82.71,93.86 H 29.88 A 10.5,10.5 0 0 1 19.41,83.39 V 30.56 A 10.43,10.43 0 0 1 29.8,20.08 h 20.35"
       class="cls-64"
       inkscape:connector-curvature="0"
       style="fill:#46594a" />
    <path
       id="path3634"
       transform="translate(-6.95,-7.7)"
       d="M 82.67,20.14 A 10.49,10.49 0 0 1 93.13,30.6 v 0 52.74 A 10.49,10.49 0 0 1 82.67,93.8 H 29.93 A 10.49,10.49 0 0 1 19.47,83.34 V 30.6 A 10.42,10.42 0 0 1 29.84,20.14 h 20.83"
       class="cls-65"
       inkscape:connector-curvature="0"
       style="fill:#465a4a" />
    <path
       id="path3636"
       transform="translate(-6.95,-7.7)"
       d="m 82.63,20.2 a 10.47,10.47 0 0 1 10.44,10.44 v 0 52.66 A 10.47,10.47 0 0 1 82.63,93.74 H 30 A 10.47,10.47 0 0 1 19.53,83.3 V 30.64 A 10.4,10.4 0 0 1 29.89,20.2 h 21.3"
       class="cls-66"
       inkscape:connector-curvature="0"
       style="fill:#475a4b" />
    <path
       id="path3638"
       transform="translate(-6.95,-7.7)"
       d="M 82.58,20.26 A 10.45,10.45 0 0 1 93,30.68 v 0 52.57 A 10.45,10.45 0 0 1 82.58,93.68 H 30 A 10.45,10.45 0 0 1 19.59,83.25 V 30.68 A 10.39,10.39 0 0 1 29.93,20.26 H 51.7"
       class="cls-66"
       inkscape:connector-curvature="0"
       style="fill:#475a4b" />
    <path
       id="path3640"
       transform="translate(-6.95,-7.7)"
       d="m 82.54,20.32 a 10.44,10.44 0 0 1 10.41,10.4 v 0 52.49 A 10.44,10.44 0 0 1 82.54,93.62 H 30.06 A 10.44,10.44 0 0 1 19.65,83.21 V 30.72 A 10.37,10.37 0 0 1 30,20.32 h 22.22"
       class="cls-67"
       inkscape:connector-curvature="0"
       style="fill:#485b4c" />
    <path
       id="path3642"
       transform="translate(-6.95,-7.7)"
       d="m 82.5,20.37 a 10.42,10.42 0 0 1 10.39,10.4 v 0 52.4 A 10.42,10.42 0 0 1 82.5,93.55 H 30.1 A 10.42,10.42 0 0 1 19.71,83.16 V 30.77 A 10.35,10.35 0 0 1 30,20.37 h 22.74"
       class="cls-67"
       inkscape:connector-curvature="0"
       style="fill:#485b4c" />
    <path
       id="path3644"
       transform="translate(-6.95,-7.7)"
       d="m 82.45,20.43 a 10.4,10.4 0 0 1 10.38,10.38 v 0 52.31 A 10.4,10.4 0 0 1 82.45,93.49 H 30.14 A 10.4,10.4 0 0 1 19.77,83.12 V 30.81 a 10.34,10.34 0 0 1 10.3,-10.38 h 23.19"
       class="cls-67"
       inkscape:connector-curvature="0"
       style="fill:#485b4c" />
    <path
       id="path3646"
       transform="translate(-6.95,-7.7)"
       d="m 82.41,20.49 a 10.39,10.39 0 0 1 10.36,10.36 v 0 52.22 A 10.39,10.39 0 0 1 82.41,93.43 H 30.19 A 10.39,10.39 0 0 1 19.83,83.07 V 30.85 A 10.32,10.32 0 0 1 30.11,20.49 h 23.67"
       class="cls-68"
       inkscape:connector-curvature="0"
       style="fill:#495c4d" />
    <path
       id="path3648"
       transform="translate(-6.95,-7.7)"
       d="m 82.37,20.55 a 10.37,10.37 0 0 1 10.34,10.34 v 0 V 83 A 10.37,10.37 0 0 1 82.37,93.37 H 30.23 A 10.37,10.37 0 0 1 19.89,83 V 30.89 A 10.31,10.31 0 0 1 30.16,20.55 h 24.13"
       class="cls-68"
       inkscape:connector-curvature="0"
       style="fill:#495c4d" />
    <path
       id="path3650"
       transform="translate(-6.95,-7.7)"
       d="m 82.32,20.61 a 10.36,10.36 0 0 1 10.33,10.32 v 0 V 83 A 10.36,10.36 0 0 1 82.32,93.31 h -52 A 10.36,10.36 0 0 1 19.95,83 V 31 A 10.29,10.29 0 0 1 30.2,20.61 h 24.61"
       class="cls-69"
       inkscape:connector-curvature="0"
       style="fill:#4a5d4e" />
    <path
       id="path3652"
       transform="translate(-6.95,-7.7)"
       d="M 82.28,20.67 A 10.34,10.34 0 0 1 92.59,31 v 0 52 A 10.34,10.34 0 0 1 82.28,93.25 h -52 A 10.34,10.34 0 0 1 20,82.94 V 31 A 10.27,10.27 0 0 1 30.25,20.67 h 25.08"
       class="cls-69"
       inkscape:connector-curvature="0"
       style="fill:#4a5d4e" />
    <path
       id="path3654"
       transform="translate(-6.95,-7.7)"
       d="M 82.24,20.72 A 10.32,10.32 0 0 1 92.53,31 v 0 51.89 A 10.32,10.32 0 0 1 82.24,93.18 H 30.36 A 10.32,10.32 0 0 1 20.07,82.89 V 31 A 10.26,10.26 0 0 1 30.29,20.72 h 25.56"
       class="cls-69"
       inkscape:connector-curvature="0"
       style="fill:#4a5d4e" />
    <path
       id="path3656"
       transform="translate(-6.95,-7.7)"
       d="m 82.19,20.78 a 10.31,10.31 0 0 1 10.28,10.28 v 0 51.79 A 10.31,10.31 0 0 1 82.19,93.12 H 30.4 A 10.31,10.31 0 0 1 20.13,82.85 V 31.06 A 10.24,10.24 0 0 1 30.34,20.78 h 26"
       class="cls-70"
       inkscape:connector-curvature="0"
       style="fill:#4b5e4f" />
    <path
       id="path3658"
       transform="translate(-6.95,-7.7)"
       d="M 82.15,20.84 A 10.29,10.29 0 0 1 92.41,31.1 v 0 51.7 A 10.29,10.29 0 0 1 82.15,93.06 H 30.45 A 10.29,10.29 0 0 1 20.19,82.8 V 31.1 A 10.23,10.23 0 0 1 30.38,20.84 h 26.5"
       class="cls-70"
       inkscape:connector-curvature="0"
       style="fill:#4b5e4f" />
    <path
       id="path3660"
       transform="translate(-6.95,-7.7)"
       d="m 82.11,20.9 a 10.27,10.27 0 0 1 10.24,10.24 v 0 51.62 A 10.27,10.27 0 0 1 82.11,93 H 30.49 A 10.27,10.27 0 0 1 20.25,82.76 V 31.14 A 10.21,10.21 0 0 1 30.43,20.9 h 27"
       class="cls-71"
       inkscape:connector-curvature="0"
       style="fill:#4c5e50" />
    <path
       id="path3662"
       transform="translate(-6.95,-7.7)"
       d="m 82.06,21 a 10.26,10.26 0 0 1 10.23,10.18 v 0 51.53 A 10.26,10.26 0 0 1 82.06,92.94 H 30.53 A 10.26,10.26 0 0 1 20.31,82.71 V 31.18 A 10.19,10.19 0 0 1 30.47,21 h 27.45"
       class="cls-72"
       inkscape:connector-curvature="0"
       style="fill:#4c5f50" />
    <path
       id="path3664"
       transform="translate(-6.95,-7.7)"
       d="m 82,21 a 10.24,10.24 0 0 1 10.23,10.22 v 0 51.45 A 10.24,10.24 0 0 1 82,92.87 H 30.58 A 10.24,10.24 0 0 1 20.37,82.67 V 31.22 A 10.18,10.18 0 0 1 30.52,21 h 27.92"
       class="cls-72"
       inkscape:connector-curvature="0"
       style="fill:#4c5f50" />
    <path
       id="path3666"
       transform="translate(-6.95,-7.7)"
       d="m 82,21.08 a 10.23,10.23 0 0 1 10.17,10.19 v 0 51.35 A 10.23,10.23 0 0 1 82,92.81 H 30.62 A 10.23,10.23 0 0 1 20.43,82.62 V 31.27 A 10.16,10.16 0 0 1 30.56,21.08 H 59"
       class="cls-73"
       inkscape:connector-curvature="0"
       style="fill:#4d5f51" />
    <path
       id="path3668"
       transform="translate(-6.95,-7.7)"
       d="M 81.93,21.13 A 10.21,10.21 0 0 1 92.1,31.31 v 0 51.27 A 10.21,10.21 0 0 1 81.93,92.75 H 30.66 A 10.21,10.21 0 0 1 20.49,82.58 V 31.31 A 10.14,10.14 0 0 1 30.61,21.13 h 28.86"
       class="cls-74"
       inkscape:connector-curvature="0"
       style="fill:#4d6051" />
    <path
       id="path3670"
       transform="translate(-6.95,-7.7)"
       d="M 81.89,21.19 A 10.19,10.19 0 0 1 92,31.35 v 0 51.18 A 10.19,10.19 0 0 1 81.89,92.69 H 30.71 A 10.19,10.19 0 0 1 20.55,82.53 V 31.35 A 10.13,10.13 0 0 1 30.65,21.19 H 60"
       class="cls-75"
       inkscape:connector-curvature="0"
       style="fill:#4e6052" />
    <path
       id="path3672"
       transform="translate(-6.95,-7.7)"
       d="M 81.84,21.25 A 10.18,10.18 0 0 1 92,31.39 v 0 51.1 A 10.18,10.18 0 0 1 81.84,92.63 H 30.75 A 10.18,10.18 0 0 1 20.61,82.49 V 31.39 A 10.11,10.11 0 0 1 30.69,21.25 h 29.82"
       class="cls-75"
       inkscape:connector-curvature="0"
       style="fill:#4e6052" />
    <path
       id="path3674"
       transform="translate(-6.95,-7.7)"
       d="m 81.8,21.31 a 10.16,10.16 0 0 1 10.12,10.12 v 0 51 A 10.16,10.16 0 0 1 81.8,92.56 h -51 A 10.16,10.16 0 0 1 20.67,82.44 v -51 A 10.1,10.1 0 0 1 30.74,21.31 H 61"
       class="cls-76"
       inkscape:connector-curvature="0"
       style="fill:#4e6152" />
    <path
       id="path3676"
       transform="translate(-6.95,-7.7)"
       d="m 81.76,21.37 a 10.14,10.14 0 0 1 10.1,10.1 v 0 50.93 A 10.14,10.14 0 0 1 81.76,92.5 H 30.84 A 10.14,10.14 0 0 1 20.73,82.4 V 31.47 a 10.08,10.08 0 0 1 10.05,-10.1 h 30.77"
       class="cls-77"
       inkscape:connector-curvature="0"
       style="fill:#4f6153" />
    <path
       id="path3678"
       transform="translate(-6.95,-7.7)"
       d="M 81.71,21.43 A 10.13,10.13 0 0 1 91.8,31.52 v 0 50.83 A 10.13,10.13 0 0 1 81.71,92.44 H 30.88 A 10.13,10.13 0 0 1 20.79,82.35 V 31.52 a 10.06,10.06 0 0 1 10,-10.09 h 31.27"
       class="cls-78"
       inkscape:connector-curvature="0"
       style="fill:#4f6253" />
    <path
       id="path3680"
       transform="translate(-6.95,-7.7)"
       d="m 81.67,21.49 a 10.11,10.11 0 0 1 10.07,10.07 v 0 50.75 A 10.11,10.11 0 0 1 81.67,92.38 H 30.92 A 10.11,10.11 0 0 1 20.85,82.31 V 31.56 a 10,10 0 0 1 10,-10.07 h 31.73"
       class="cls-79"
       inkscape:connector-curvature="0"
       style="fill:#506254" />
    <path
       id="path3682"
       transform="translate(-6.95,-7.7)"
       d="M 81.63,21.54 A 10.1,10.1 0 0 1 91.68,31.6 v 0 50.66 A 10.1,10.1 0 0 1 81.63,92.32 H 31 A 10.1,10.1 0 0 1 20.91,82.26 V 31.6 a 10,10 0 0 1 10,-10.06 H 63.1"
       class="cls-79"
       inkscape:connector-curvature="0"
       style="fill:#506254" />
    <path
       id="path3684"
       transform="translate(-6.95,-7.7)"
       d="m 81.58,21.6 a 10.08,10.08 0 0 1 10,10 v 0 50.62 a 10.08,10.08 0 0 1 -10,10 H 31 a 10.08,10.08 0 0 1 -10,-10 V 31.64 a 10,10 0 0 1 10,-10 h 32.62"
       class="cls-80"
       inkscape:connector-curvature="0"
       style="fill:#506354" />
    <path
       id="path3686"
       transform="translate(-6.95,-7.7)"
       d="m 81.54,21.66 a 10.06,10.06 0 0 1 10,10 v 0 50.51 a 10.06,10.06 0 0 1 -10,10 H 31.05 a 10.06,10.06 0 0 1 -10,-10 V 31.68 a 10,10 0 0 1 10,-10 h 33.09"
       class="cls-81"
       inkscape:connector-curvature="0"
       style="fill:#516355" />
    <path
       id="path3688"
       transform="translate(-6.95,-7.7)"
       d="m 81.5,21.72 a 10,10 0 0 1 10,10 v 0 50.4 a 10,10 0 0 1 -10,10 H 31.1 a 10,10 0 0 1 -10,-10 v -50.4 a 10,10 0 0 1 10,-10 h 33.6"
       class="cls-81"
       inkscape:connector-curvature="0"
       style="fill:#516355" />
    <path
       id="path3690"
       transform="translate(-6.95,-7.7)"
       d="m 81.45,21.78 a 10,10 0 0 1 10,10 v 0 50.3 a 10,10 0 0 1 -10,10 H 31.14 a 10,10 0 0 1 -10,-10 V 31.77 a 10,10 0 0 1 9.95,-10 h 34.08"
       class="cls-82"
       inkscape:connector-curvature="0"
       style="fill:#526456" />
    <path
       id="path3692"
       transform="translate(-6.95,-7.7)"
       d="m 81.41,21.84 a 10,10 0 0 1 10,10 v 0 V 82 a 10,10 0 0 1 -10,10 H 31.18 a 10,10 0 0 1 -10,-10 V 31.81 a 10,10 0 0 1 9.93,-10 h 34.58"
       class="cls-82"
       inkscape:connector-curvature="0"
       style="fill:#526456" />
    <path
       id="path3694"
       transform="translate(-6.95,-7.7)"
       d="m 81.37,21.89 a 10,10 0 0 1 10,10 v 0 V 82 a 10,10 0 0 1 -10,10 H 31.23 a 10,10 0 0 1 -10,-10 V 31.85 a 9.94,9.94 0 0 1 9.92,-10 h 35"
       class="cls-82"
       inkscape:connector-curvature="0"
       style="fill:#526456" />
    <path
       id="path3696"
       transform="translate(-6.95,-7.7)"
       d="m 81.32,22 a 10,10 0 0 1 9.94,9.94 v 0 50.01 a 10,10 0 0 1 -9.94,9.94 H 31.27 A 10,10 0 0 1 21.33,81.95 V 31.89 A 9.92,9.92 0 0 1 31.23,22 h 35.5"
       class="cls-83"
       inkscape:connector-curvature="0"
       style="fill:#536557" />
    <path
       id="path3698"
       transform="translate(-6.95,-7.7)"
       d="m 81.28,22 a 10,10 0 0 1 9.92,9.92 v 0 50 a 10,10 0 0 1 -9.92,9.92 h -50 a 10,10 0 0 1 -9.92,-9.92 v -50 A 9.9,9.9 0 0 1 31.28,22 h 36"
       class="cls-83"
       inkscape:connector-curvature="0"
       style="fill:#536557" />
    <path
       id="path3700"
       transform="translate(-6.95,-7.7)"
       d="m 81.24,22.07 a 10,10 0 0 1 9.9,9.9 v 0 49.89 a 10,10 0 0 1 -9.9,9.9 H 31.36 a 10,10 0 0 1 -9.9,-9.9 V 32 a 9.89,9.89 0 0 1 9.87,-9.9 h 36.43"
       class="cls-83"
       inkscape:connector-curvature="0"
       style="fill:#536557" />
    <path
       id="path3702"
       transform="translate(-6.95,-7.7)"
       d="M 81.19,22.13 A 9.93,9.93 0 0 1 91.08,32 v 0 49.81 A 9.93,9.93 0 0 1 81.19,91.7 H 31.4 A 9.93,9.93 0 0 1 21.51,81.81 V 32 a 9.87,9.87 0 0 1 9.85,-9.89 h 36.92"
       class="cls-84"
       inkscape:connector-curvature="0"
       style="fill:#546658" />
    <path
       id="path3704"
       transform="translate(-6.95,-7.7)"
       d="M 81.15,22.19 A 9.92,9.92 0 0 1 91,32.06 v 0 49.71 a 9.92,9.92 0 0 1 -9.87,9.87 H 31.44 A 9.92,9.92 0 0 1 21.57,81.77 V 32.06 a 9.85,9.85 0 0 1 9.84,-9.87 H 68.8"
       class="cls-84"
       inkscape:connector-curvature="0"
       style="fill:#546658" />
    <path
       id="path3706"
       transform="translate(-6.95,-7.7)"
       d="M 81.11,22.25 A 9.9,9.9 0 0 1 91,32.1 v 0 49.62 a 9.9,9.9 0 0 1 -9.85,9.85 H 31.49 A 9.9,9.9 0 0 1 21.64,81.72 V 32.1 a 9.84,9.84 0 0 1 9.82,-9.85 h 37.86"
       class="cls-85"
       inkscape:connector-curvature="0"
       style="fill:#556759" />
    <path
       id="path3708"
       transform="translate(-6.95,-7.7)"
       d="m 81.06,22.3 a 9.88,9.88 0 0 1 9.84,9.84 v 0 49.54 a 9.88,9.88 0 0 1 -9.84,9.84 H 31.53 A 9.88,9.88 0 0 1 21.69,81.68 V 32.14 A 9.82,9.82 0 0 1 31.5,22.3 h 38.34"
       class="cls-85"
       inkscape:connector-curvature="0"
       style="fill:#556759" />
    <path
       id="path3710"
       transform="translate(-6.95,-7.7)"
       d="m 81,22.36 a 9.87,9.87 0 0 1 9.82,9.82 v 0 49.45 A 9.87,9.87 0 0 1 81,91.45 H 31.57 A 9.87,9.87 0 0 1 21.75,81.63 V 32.18 a 9.81,9.81 0 0 1 9.79,-9.82 h 38.81"
       class="cls-85"
       inkscape:connector-curvature="0"
       style="fill:#556759" />
    <path
       id="path3712"
       transform="translate(-6.95,-7.7)"
       d="m 81,22.42 a 9.85,9.85 0 0 1 9.8,9.8 v 0 49.37 A 9.85,9.85 0 0 1 81,91.39 H 31.62 a 9.85,9.85 0 0 1 -9.8,-9.8 V 32.22 a 9.79,9.79 0 0 1 9.78,-9.8 h 39.27"
       class="cls-86"
       inkscape:connector-curvature="0"
       style="fill:#56685a" />
    <path
       id="path3714"
       transform="translate(-6.95,-7.7)"
       d="m 80.93,22.48 a 9.84,9.84 0 0 1 9.79,9.79 v 0 49.27 a 9.84,9.84 0 0 1 -9.79,9.79 H 31.66 A 9.84,9.84 0 0 1 21.87,81.54 V 32.27 a 9.77,9.77 0 0 1 9.76,-9.79 h 39.76"
       class="cls-86"
       inkscape:connector-curvature="0"
       style="fill:#56685a" />
    <path
       id="path3716"
       transform="translate(-6.95,-7.7)"
       d="m 80.89,22.54 a 9.82,9.82 0 0 1 9.77,9.77 v 0 49.19 a 9.82,9.82 0 0 1 -9.77,9.77 H 31.7 A 9.82,9.82 0 0 1 21.93,81.5 V 32.31 a 9.76,9.76 0 0 1 9.75,-9.77 h 40.23"
       class="cls-87"
       inkscape:connector-curvature="0"
       style="fill:#57685b" />
    <path
       id="path3718"
       transform="translate(-6.95,-7.7)"
       d="m 80.85,22.6 a 9.8,9.8 0 0 1 9.75,9.75 v 0 49.1 A 9.8,9.8 0 0 1 80.85,91.2 H 31.75 A 9.8,9.8 0 0 1 22,81.45 v -49.1 a 9.74,9.74 0 0 1 9.73,-9.75 h 40.7"
       class="cls-88"
       inkscape:connector-curvature="0"
       style="fill:#57695b" />
    <path
       id="path3720"
       transform="translate(-6.95,-7.7)"
       d="m 80.8,22.66 a 9.79,9.79 0 0 1 9.74,9.74 v 0 49 a 9.79,9.79 0 0 1 -9.74,9.74 h -49 A 9.79,9.79 0 0 1 22.06,81.4 v -49 a 9.73,9.73 0 0 1 9.72,-9.74 h 41.16"
       class="cls-88"
       inkscape:connector-curvature="0"
       style="fill:#57695b" />
    <path
       id="path3722"
       transform="translate(-6.95,-7.7)"
       d="m 80.76,22.71 a 9.77,9.77 0 0 1 9.72,9.72 v 0 48.93 a 9.77,9.77 0 0 1 -9.72,9.72 H 31.83 A 9.77,9.77 0 0 1 22.11,81.36 V 32.43 a 9.71,9.71 0 0 1 9.7,-9.72 h 41.65"
       class="cls-89"
       inkscape:connector-curvature="0"
       style="fill:#58695c" />
    <path
       id="path3724"
       transform="translate(-6.95,-7.7)"
       d="m 80.72,22.77 a 9.75,9.75 0 0 1 9.7,9.7 v 0 48.84 a 9.75,9.75 0 0 1 -9.7,9.7 H 31.88 a 9.75,9.75 0 0 1 -9.7,-9.7 V 32.47 a 9.69,9.69 0 0 1 9.68,-9.7 H 74"
       class="cls-90"
       inkscape:connector-curvature="0"
       style="fill:#586a5c" />
    <path
       id="path3726"
       transform="translate(-6.95,-7.7)"
       d="m 80.67,22.83 a 9.74,9.74 0 0 1 9.69,9.69 v 0 48.75 A 9.74,9.74 0 0 1 80.67,91 H 31.92 A 9.74,9.74 0 0 1 22.23,81.31 V 32.52 a 9.68,9.68 0 0 1 9.67,-9.69 h 42.6"
       class="cls-91"
       inkscape:connector-curvature="0"
       style="fill:#596a5d" />
    <path
       id="path3728"
       transform="translate(-6.95,-7.7)"
       d="m 80.63,22.89 a 9.72,9.72 0 0 1 9.67,9.67 v 0 48.66 a 9.72,9.72 0 0 1 -9.67,9.67 H 32 A 9.72,9.72 0 0 1 22.33,81.22 V 32.56 a 9.66,9.66 0 0 1 9.65,-9.67 H 75"
       class="cls-91"
       inkscape:connector-curvature="0"
       style="fill:#596a5d" />
    <path
       id="path3730"
       transform="translate(-6.95,-7.7)"
       d="m 80.59,22.95 a 9.71,9.71 0 0 1 9.65,9.65 v 0 48.58 a 9.71,9.71 0 0 1 -9.65,9.65 H 32 A 9.71,9.71 0 0 1 22.35,81.18 V 32.6 A 9.65,9.65 0 0 1 32,22.95 h 43.53"
       class="cls-92"
       inkscape:connector-curvature="0"
       style="fill:#596b5d" />
    <path
       id="path3732"
       transform="translate(-6.95,-7.7)"
       d="m 80.54,23 a 9.69,9.69 0 0 1 9.63,9.63 v 0 48.5 a 9.69,9.69 0 0 1 -9.63,9.63 H 32.05 A 9.69,9.69 0 0 1 22.42,81.13 V 32.64 A 9.63,9.63 0 0 1 32,23 h 44"
       class="cls-93"
       inkscape:connector-curvature="0"
       style="fill:#5a6b5e" />
    <path
       id="path3734"
       transform="translate(-6.95,-7.7)"
       d="m 80.5,23.06 a 9.67,9.67 0 0 1 9.62,9.62 v 0 48.41 A 9.67,9.67 0 0 1 80.5,90.71 H 32.09 A 9.67,9.67 0 0 1 22.47,81.09 V 32.68 a 9.61,9.61 0 0 1 9.61,-9.62 h 44.49"
       class="cls-94"
       inkscape:connector-curvature="0"
       style="fill:#5a6c5e" />
    <path
       id="path3736"
       transform="translate(-6.95,-7.7)"
       d="m 80.46,23.12 a 9.66,9.66 0 0 1 9.6,9.6 v 0 V 81 a 9.66,9.66 0 0 1 -9.6,9.6 H 32.14 A 9.66,9.66 0 0 1 22.54,81 V 32.72 a 9.6,9.6 0 0 1 9.59,-9.6 h 45"
       class="cls-95"
       inkscape:connector-curvature="0"
       style="fill:#5b6c5f" />
    <path
       id="path3738"
       transform="translate(-6.95,-7.7)"
       d="M 80.41,23.18 A 9.64,9.64 0 0 1 90,32.77 v 0 V 81 a 9.64,9.64 0 0 1 -9.58,9.58 H 32.18 A 9.64,9.64 0 0 1 22.6,81 V 32.77 a 9.58,9.58 0 0 1 9.58,-9.58 h 45.43"
       class="cls-95"
       inkscape:connector-curvature="0"
       style="fill:#5b6c5f" />
    <path
       id="path3740"
       transform="translate(-6.95,-7.7)"
       d="m 80.37,23.24 a 9.62,9.62 0 0 1 9.57,9.57 v 0 V 81 a 9.62,9.62 0 0 1 -9.57,9.57 H 32.22 A 9.62,9.62 0 0 1 22.66,81 V 32.81 a 9.56,9.56 0 0 1 9.56,-9.57 h 45.9"
       class="cls-96"
       inkscape:connector-curvature="0"
       style="fill:#5b6d5f" />
    <path
       id="path3742"
       transform="translate(-6.95,-7.7)"
       d="m 80.33,23.3 a 9.61,9.61 0 0 1 9.55,9.55 v 0 48.06 a 9.61,9.61 0 0 1 -9.55,9.55 H 32.27 A 9.61,9.61 0 0 1 22.72,80.91 V 32.85 a 9.55,9.55 0 0 1 9.55,-9.55 h 46.37"
       class="cls-97"
       inkscape:connector-curvature="0"
       style="fill:#5c6d60" />
    <path
       id="path3744"
       transform="translate(-6.95,-7.7)"
       d="m 80.28,23.36 a 9.59,9.59 0 0 1 9.53,9.53 v 0 48 a 9.59,9.59 0 0 1 -9.53,9.53 h -48 a 9.59,9.59 0 0 1 -9.53,-9.53 v -48 a 9.53,9.53 0 0 1 9.53,-9.53 h 46.88"
       class="cls-97"
       inkscape:connector-curvature="0"
       style="fill:#5c6d60" />
    <path
       id="path3746"
       transform="translate(-6.95,-7.7)"
       d="m 80.24,23.42 a 9.58,9.58 0 0 1 9.52,9.52 v 0 47.88 a 9.58,9.58 0 0 1 -9.52,9.52 H 32.35 A 9.58,9.58 0 0 1 22.83,80.82 V 32.93 a 9.52,9.52 0 0 1 9.52,-9.52 h 47.33"
       class="cls-98"
       inkscape:connector-curvature="0"
       style="fill:#5d6e61" />
    <path
       id="path3748"
       transform="translate(-6.95,-7.7)"
       d="M 32.4,23.47 H 80.2 A 9.56,9.56 0 0 1 89.7,33 v 47.8 a 9.56,9.56 0 0 1 -9.5,9.5 H 32.4 A 9.56,9.56 0 0 1 22.9,80.8 V 33 a 9.5,9.5 0 0 1 9.5,-9.53 z"
       class="cls-98"
       inkscape:connector-curvature="0"
       style="fill:#5d6e61" />
  </g>
</svg>
