<?xml version="1.0" encoding="UTF-8"?>
<!DOCTYPE svg PUBLIC "-//W3C//DTD SVG 1.1//EN" "http://www.w3.org/Graphics/SVG/1.1/DTD/svg11.dtd">
<!-- Creator: CorelDRAW -->
<svg xmlns="http://www.w3.org/2000/svg" xml:space="preserve" width="32px" height="32px" style="shape-rendering:geometricPrecision; text-rendering:geometricPrecision; image-rendering:optimizeQuality; fill-rule:evenodd; clip-rule:evenodd"
viewBox="0 0 32 32"
 xmlns:xlink="http://www.w3.org/1999/xlink">
 <defs>
  <style type="text/css">
   <![CDATA[
    .str1 {stroke:#366F9E;stroke-width:1.28}
    .str0 {stroke:#4E8DBF;stroke-width:1.28}
    .fil0 {fill:none}
    .fil2 {fill:#FEFEFE;fill-rule:nonzero}
    .fil1 {fill:url(#id0)}
   ]]>
  </style>
  <linearGradient id="id0" gradientUnits="userSpaceOnUse" x1="16" y1="30.208" x2="16" y2="1.792">
   <stop offset="0" style="stop-color:#69A7D6"/>
   <stop offset="1" style="stop-color:#2B699C"/>
  </linearGradient>
 </defs>
 <g id="Layer_x0020_1">
  <metadata id="CorelCorpID_0Corel-Layer"/>
  <circle class="fil0 str0" cx="16" cy="16" r="15.36"/>
  <circle class="fil1 str1" cx="16" cy="16" r="14.208"/>
  <path class="fil2" d="M5.27488 13.9891l0 5.71507c0.637696,0 1.27514,0 1.9127,0l0 -5.71507 1.84781 0c0,-0.285824 0,-0.569856 0,-0.850304 0,-0.28224 0,-0.562688 0,-0.843136l-5.61907 0c0,0.280448 0,0.560896 0,0.843136 0,0.280448 0,0.56448 0,0.850304l1.85856 0z"/>
  <path id="1" class="fil2" d="M15.1407 17.0794c0.27392,-0.185216 0.497152,-0.405632 0.67008,-0.66496 0.172928,-0.257536 0.295424,-0.537984 0.36928,-0.837888 0.073856,-0.298112 0.097152,-0.603264 0.070144,-0.910208 -0.02688,-0.306816 -0.102528,-0.601472 -0.228736,-0.883712 -0.127744,-0.28224 -0.302464,-0.5344 -0.529408,-0.756736 -0.225152,-0.222208 -0.500736,-0.398592 -0.826752,-0.529152 -0.324096,-0.13056 -0.69888,-0.197504 -1.12384,-0.201088 -0.552832,0 -1.10579,0 -1.66234,0 -0.556544,0 -1.10758,0 -1.65517,0 0,1.23827 0,2.47475 0,3.70778 0,1.23482 0,2.46771 0,3.70074 0.315264,0 0.633984,0 0.96,0 0.324224,0 0.650112,0 0.974336,0l0 -2.18022 1.00493 0 1.29677 2.18022 2.16128 0 0 -0.2752 -1.48058 -2.34957zm-1.59923 -1.25939l-1.38317 0c0,-0.298112 0,-0.601472 0,-0.912 0,-0.308608 0,-0.615552 0,-0.918912 0.226944,-0.001792 0.457472,-0.001792 0.691584,-0.003584 0.23232,-0.003456 0.462848,-0.001792 0.691584,0.003584 0.183808,0.003456 0.334976,0.051072 0.45568,0.139264 0.120704,0.088192 0.208896,0.201088 0.266496,0.34048 0.05952,0.1376 0.086528,0.284032 0.084736,0.439168 -0.003712,0.155264 -0.034304,0.301696 -0.09536,0.439296 -0.061312,0.1376 -0.151424,0.250496 -0.270336,0.338688 -0.118784,0.0864 -0.266496,0.130432 -0.441216,0.134016z"/>
  <path id="12" class="fil2" d="M20.0361 18.0426l0 -4.09587 0.886016 0c0,-0.208128 0,-0.39872 0,-0.57152 0,-0.172928 0,-0.343936 0,-0.515072 0,-0.171136 0,-0.359808 0,-0.56448 -0.615936,0 -1.23008,0 -1.8423,0 -0.61248,0 -1.22662,0 -1.84256,0 0,0.204672 0,0.393344 0,0.56448 0,0.171136 0,0.342144 0,0.515072 0,0.1728 0,0.363392 0,0.57152l0.886144 0 0 4.09587 -0.961792 0c0,0.155136 0,0.298112 0,0.432128 0,0.134016 0,0.262784 0,0.38976 0,0.128768 0,0.259328 0,0.395136 0,0.135808 0,0.284032 0,0.444544 0.642944,0 1.2823,0 1.91821,0 0.63744,0 1.27501,0 1.91795,0 0,-0.160512 0,-0.308736 0,-0.444544 0,-0.135808 0,-0.266368 0,-0.395136 0,-0.126976 0,-0.255744 0,-0.38976 0,-0.134016 0,-0.276992 0,-0.432128l-0.961664 0z"/>
  <path id="123" class="fil2" d="M24.2396 19.7042l0 -2.82586c0.124288,0 0.246784,-0.001664 0.36928,-0.005248 0.122368,-0.005248 0.246656,-0.017664 0.37632,-0.036992l1.66426 2.8681 2.1504 0 0 -0.29632 -2.05312 -3.25978c0.29888,-0.188672 0.54208,-0.395136 0.729344,-0.617344 0.187264,-0.222208 0.331392,-0.458624 0.432256,-0.70912 0.102656,-0.252288 0.17472,-0.51328 0.216064,-0.786688 0.041472,-0.2752 0.066688,-0.55744 0.073856,-0.848512 0.007168,-0.290944 0.009088,-0.587392 0.007168,-0.890752 -0.334848,0 -0.66816,0 -0.997632,0 -0.33152,0 -0.66112,0 -0.99072,0 0.003712,0.278784 0.00192,0.553856 -0.005248,0.823808 -0.005376,0.269824 -0.034304,0.523904 -0.084736,0.761984 -0.04864,0.23808 -0.136832,0.448 -0.264832,0.631424 -0.125952,0.18176 -0.30976,0.324608 -0.547456,0.428672 -0.239488,0.104064 -0.551168,0.157056 -0.934656,0.15872l-0.140544 0 0 -2.80461c-0.334976,0 -0.664576,0 -0.990464,0 -0.327808,0 -0.652032,0 -0.976128,0l0 7.40851c0.324096,0 0.64832,0 0.976128,0 0.325888,0 0.655488,0 0.990464,0z"/>
 </g>
</svg>
