<?xml version="1.0" encoding="UTF-8"?>
<!DOCTYPE svg PUBLIC "-//W3C//DTD SVG 1.1//EN" "http://www.w3.org/Graphics/SVG/1.1/DTD/svg11.dtd">
<!-- Creator: CorelDRAW X6 -->
<svg xmlns="http://www.w3.org/2000/svg" xml:space="preserve" width="150px" height="150px" version="1.1" style="shape-rendering:geometricPrecision; text-rendering:geometricPrecision; image-rendering:optimizeQuality; fill-rule:evenodd; clip-rule:evenodd"
viewBox="0 0 15000 15000"
 xmlns:xlink="http://www.w3.org/1999/xlink">
 <defs>
  <style type="text/css">
   <![CDATA[
    .str0 {stroke:#8BB832;stroke-width:39.69}
    .fil48 {fill:none}
    .fil0 {fill:#5E4377}
    .fil2 {fill:#5E4378}
    .fil3 {fill:#5F4378}
    .fil4 {fill:#5F4479}
    .fil5 {fill:#60447A}
    .fil6 {fill:#61457B}
    .fil7 {fill:#61457C}
    .fil8 {fill:#62457C}
    .fil9 {fill:#62467D}
    .fil10 {fill:#63467D}
    .fil11 {fill:#63467E}
    .fil12 {fill:#64477F}
    .fil13 {fill:#654780}
    .fil14 {fill:#654881}
    .fil15 {fill:#664881}
    .fil16 {fill:#664882}
    .fil17 {fill:#674882}
    .fil18 {fill:#674983}
    .fil19 {fill:#684984}
    .fil20 {fill:#694A85}
    .fil21 {fill:#694A86}
    .fil22 {fill:#6A4A86}
    .fil23 {fill:#6A4B87}
    .fil24 {fill:#6B4B88}
    .fil25 {fill:#6B4C89}
    .fil26 {fill:#6C4C89}
    .fil27 {fill:#6C4C8A}
    .fil28 {fill:#6D4D8B}
    .fil29 {fill:#6E4D8C}
    .fil30 {fill:#6E4E8D}
    .fil31 {fill:#6F4E8D}
    .fil32 {fill:#6F4E8E}
    .fil33 {fill:#704E8E}
    .fil34 {fill:#704F8F}
    .fil35 {fill:#714F90}
    .fil36 {fill:#725091}
    .fil37 {fill:#725092}
    .fil38 {fill:#735092}
    .fil39 {fill:#735193}
    .fil40 {fill:#745193}
    .fil41 {fill:#745194}
    .fil42 {fill:#755295}
    .fil43 {fill:#765296}
    .fil44 {fill:#765397}
    .fil45 {fill:#775397}
    .fil46 {fill:#775398}
    .fil47 {fill:#785499}
    .fil51 {fill:#999999}
    .fil50 {fill:#B3B3B3}
    .fil1 {fill:black;fill-opacity:0.000000}
    .fil52 {fill:url(#id2)}
    .fil56 {fill:url(#id3)}
    .fil55 {fill:url(#id4)}
    .fil49 {fill:url(#id5)}
    .fil54 {fill:url(#id6)}
    .fil53 {fill:url(#id7)}
   ]]>
  </style>
      <clipPath id="id0">
       <path d="M2377 14068l10257 0c790,0 1437,-647 1437,-1437l0 -10257c0,-790 -647,-1437 -1437,-1437l-10257 0c-790,0 -1437,647 -1437,1437l0 10257c0,790 647,1437 1437,1437z"/>
      </clipPath>
      <clipPath id="id1">
       <path d="M2377 14068l10257 0c790,0 1437,-647 1437,-1437l0 -10257c0,-790 -647,-1437 -1437,-1437l-10257 0c-790,0 -1437,647 -1437,1437l0 10257c0,790 647,1437 1437,1437z"/>
      </clipPath>
  <linearGradient id="id2" gradientUnits="userSpaceOnUse" x1="2914.85" y1="11232.9" x2="6931.31" y2="11232.9">
   <stop offset="0" style="stop-color:#666666"/>
   <stop offset="0.490196" style="stop-color:#B3B3B3"/>
   <stop offset="1" style="stop-color:#666666"/>
  </linearGradient>
  <linearGradient id="id3" gradientUnits="userSpaceOnUse" x1="8257.34" y1="13446.2" x2="8257.34" y2="1367.8">
   <stop offset="0" style="stop-color:#99CC33"/>
   <stop offset="1" style="stop-color:#CCFF66"/>
  </linearGradient>
  <linearGradient id="id4" gradientUnits="userSpaceOnUse" x1="4916.05" y1="10144.8" x2="4916.05" y2="6013.43">
   <stop offset="0" style="stop-color:#B3B3B3"/>
   <stop offset="1" style="stop-color:#E6E6E6"/>
  </linearGradient>
  <linearGradient id="id5" gradientUnits="userSpaceOnUse" xlink:href="#id4" x1="4904.94" y1="8740.7" x2="4904.94" y2="3248.34">
  </linearGradient>
  <linearGradient id="id6" gradientUnits="userSpaceOnUse" x1="4904.93" y1="11195" x2="4904.93" y2="9838.05">
   <stop offset="0" style="stop-color:#E6E6E6"/>
   <stop offset="0.619608" style="stop-color:#B3B3B3"/>
   <stop offset="1" style="stop-color:#B3B3B3"/>
  </linearGradient>
  <linearGradient id="id7" gradientUnits="userSpaceOnUse" x1="4923.08" y1="11538.7" x2="4923.08" y2="10685.1">
   <stop offset="0" style="stop-color:#B3B3B3"/>
   <stop offset="0.529412" style="stop-color:#E6E6E6"/>
   <stop offset="1" style="stop-color:#B3B3B3"/>
  </linearGradient>
 </defs>
 <g id="Layer_x0020_1">
  <metadata id="CorelCorpID_0Corel-Layer"/>
  <g id="_290801128">
   <g id="_348901048">
    <path class="fil0" d="M2168 45l10675 0c1170,0 2119,949 2119,2119l0 10675c0,1170 -949,2119 -2119,2119l-10675 0c-1170,0 -2119,-949 -2119,-2119l0 -10675c0,-1170 949,-2119 2119,-2119z"/>
    <g>
     <g style="clip-path:url(#id0)">
      <polygon class="fil1" points="941,937 14071,937 14071,14068 941,14068 "/>
     </g>
     <g style="clip-path:url(#id1)">
      <g>
       <polygon id="1" class="fil0" points="941,937 14071,937 14071,14068 941,14068 941,937 984,981 14028,981 14028,14024 984,14024 984,981 "/>
       <polygon id="_1" class="fil0" points="962,959 14049,959 14049,14046 962,14046 962,959 1006,1003 14006,1003 14006,14002 1006,14002 1006,1003 "/>
       <polygon id="_2" class="fil2" points="984,981 14028,981 14028,14024 984,14024 984,981 1028,1025 13984,1025 13984,13980 1028,13980 1028,1025 "/>
       <polygon id="_3" class="fil3" points="1006,1003 14006,1003 14006,14002 1006,14002 1006,1003 1050,1047 13962,1047 13962,13959 1050,13959 1050,1047 "/>
       <polygon id="_4" class="fil4" points="1028,1025 13984,1025 13984,13980 1028,13980 1028,1025 1072,1068 13940,1068 13940,13937 1072,13937 1072,1068 "/>
       <polygon id="_5" class="fil5" points="1050,1047 13962,1047 13962,13959 1050,13959 1050,1047 1094,1090 13918,1090 13918,13915 1094,13915 1094,1090 "/>
       <polygon id="_6" class="fil5" points="1072,1068 13940,1068 13940,13937 1072,13937 1072,1068 1116,1112 13896,1112 13896,13893 1116,13893 1116,1112 "/>
       <polygon id="_7" class="fil6" points="1094,1090 13918,1090 13918,13915 1094,13915 1094,1090 1138,1134 13874,1134 13874,13871 1138,13871 1138,1134 "/>
       <polygon id="_8" class="fil7" points="1116,1112 13896,1112 13896,13893 1116,13893 1116,1112 1159,1156 13853,1156 13853,13849 1159,13849 1159,1156 "/>
       <polygon id="_9" class="fil8" points="1138,1134 13874,1134 13874,13871 1138,13871 1138,1134 1181,1178 13831,1178 13831,13827 1181,13827 1181,1178 "/>
       <polygon id="_10" class="fil9" points="1159,1156 13853,1156 13853,13849 1159,13849 1159,1156 1203,1200 13809,1200 13809,13805 1203,13805 1203,1200 "/>
       <polygon id="_11" class="fil10" points="1181,1178 13831,1178 13831,13827 1181,13827 1181,1178 1225,1222 13787,1222 13787,13783 1225,13783 1225,1222 "/>
       <polygon id="_12" class="fil11" points="1203,1200 13809,1200 13809,13805 1203,13805 1203,1200 1247,1244 13765,1244 13765,13762 1247,13762 1247,1244 "/>
       <polygon id="_13" class="fil12" points="1225,1222 13787,1222 13787,13783 1225,13783 1225,1222 1269,1265 13743,1265 13743,13740 1269,13740 1269,1265 "/>
       <polygon id="_14" class="fil12" points="1247,1244 13765,1244 13765,13762 1247,13762 1247,1244 1291,1287 13721,1287 13721,13718 1291,13718 1291,1287 "/>
       <polygon id="_15" class="fil13" points="1269,1265 13743,1265 13743,13740 1269,13740 1269,1265 1313,1309 13699,1309 13699,13696 1313,13696 1313,1309 "/>
       <polygon id="_16" class="fil14" points="1291,1287 13721,1287 13721,13718 1291,13718 1291,1287 1335,1331 13677,1331 13677,13674 1335,13674 1335,1331 "/>
       <polygon id="_17" class="fil15" points="1313,1309 13699,1309 13699,13696 1313,13696 1313,1309 1356,1353 13656,1353 13656,13652 1356,13652 1356,1353 "/>
       <polygon id="_18" class="fil16" points="1335,1331 13677,1331 13677,13674 1335,13674 1335,1331 1378,1375 13634,1375 13634,13630 1378,13630 1378,1375 "/>
       <polygon id="_19" class="fil17" points="1356,1353 13656,1353 13656,13652 1356,13652 1356,1353 1400,1397 13612,1397 13612,13608 1400,13608 1400,1397 "/>
       <polygon id="_20" class="fil18" points="1378,1375 13634,1375 13634,13630 1378,13630 1378,1375 1422,1419 13590,1419 13590,13587 1422,13587 1422,1419 "/>
       <polygon id="_21" class="fil19" points="1400,1397 13612,1397 13612,13608 1400,13608 1400,1397 1444,1441 13568,1441 13568,13565 1444,13565 1444,1441 "/>
       <polygon id="_22" class="fil19" points="1422,1419 13590,1419 13590,13587 1422,13587 1422,1419 1466,1462 13546,1462 13546,13543 1466,13543 1466,1462 "/>
       <polygon id="_23" class="fil20" points="1444,1441 13568,1441 13568,13565 1444,13565 1444,1441 1488,1484 13524,1484 13524,13521 1488,13521 1488,1484 "/>
       <polygon id="_24" class="fil21" points="1466,1462 13546,1462 13546,13543 1466,13543 1466,1462 1510,1506 13502,1506 13502,13499 1510,13499 1510,1506 "/>
       <polygon id="_25" class="fil22" points="1488,1484 13524,1484 13524,13521 1488,13521 1488,1484 1531,1528 13480,1528 13480,13477 1531,13477 1531,1528 "/>
       <polygon id="_26" class="fil23" points="1510,1506 13502,1506 13502,13499 1510,13499 1510,1506 1553,1550 13459,1550 13459,13455 1553,13455 1553,1550 "/>
       <polygon id="_27" class="fil24" points="1531,1528 13480,1528 13480,13477 1531,13477 1531,1528 1575,1572 13437,1572 13437,13433 1575,13433 1575,1572 "/>
       <polygon id="_28" class="fil24" points="1553,1550 13459,1550 13459,13455 1553,13455 1553,1550 1597,1594 13415,1594 13415,13411 1597,13411 1597,1594 "/>
       <polygon id="_29" class="fil25" points="1575,1572 13437,1572 13437,13433 1575,13433 1575,1572 1619,1616 13393,1616 13393,13390 1619,13390 1619,1616 "/>
       <polygon id="_30" class="fil26" points="1597,1594 13415,1594 13415,13411 1597,13411 1597,1594 1641,1638 13371,1638 13371,13368 1641,13368 1641,1638 "/>
       <polygon id="_31" class="fil27" points="1619,1616 13393,1616 13393,13390 1619,13390 1619,1616 1663,1659 13349,1659 13349,13346 1663,13346 1663,1659 "/>
       <polygon id="_32" class="fil28" points="1641,1638 13371,1638 13371,13368 1641,13368 1641,1638 1685,1681 13327,1681 13327,13324 1685,13324 1685,1681 "/>
       <polygon id="_33" class="fil28" points="1663,1659 13349,1659 13349,13346 1663,13346 1663,1659 1707,1703 13305,1703 13305,13302 1707,13302 1707,1703 "/>
       <polygon id="_34" class="fil29" points="1685,1681 13327,1681 13327,13324 1685,13324 1685,1681 1728,1725 13284,1725 13284,13280 1728,13280 1728,1725 "/>
       <polygon id="_35" class="fil30" points="1707,1703 13305,1703 13305,13302 1707,13302 1707,1703 1750,1747 13262,1747 13262,13258 1750,13258 1750,1747 "/>
       <polygon id="_36" class="fil31" points="1728,1725 13284,1725 13284,13280 1728,13280 1728,1725 1772,1769 13240,1769 13240,13236 1772,13236 1772,1769 "/>
       <polygon id="_37" class="fil32" points="1750,1747 13262,1747 13262,13258 1750,13258 1750,1747 1794,1791 13218,1791 13218,13214 1794,13214 1794,1791 "/>
       <polygon id="_38" class="fil33" points="1772,1769 13240,1769 13240,13236 1772,13236 1772,1769 1816,1813 13196,1813 13196,13193 1816,13193 1816,1813 "/>
       <polygon id="_39" class="fil34" points="1794,1791 13218,1791 13218,13215 1794,13215 1794,1791 1838,1834 13174,1834 13174,13171 1838,13171 1838,1834 "/>
       <polygon id="_40" class="fil35" points="1816,1813 13196,1813 13196,13193 1816,13193 1816,1813 1860,1856 13152,1856 13152,13149 1860,13149 1860,1856 "/>
       <polygon id="_41" class="fil35" points="1838,1834 13174,1834 13174,13171 1838,13171 1838,1834 1882,1878 13130,1878 13130,13127 1882,13127 1882,1878 "/>
       <polygon id="_42" class="fil36" points="1860,1856 13152,1856 13152,13149 1860,13149 1860,1856 1903,1900 13108,1900 13108,13105 1903,13105 1903,1900 "/>
       <polygon id="_43" class="fil37" points="1882,1878 13130,1878 13130,13127 1882,13127 1882,1878 1925,1922 13087,1922 13087,13083 1925,13083 1925,1922 "/>
       <polygon id="_44" class="fil38" points="1903,1900 13108,1900 13108,13105 1903,13105 1903,1900 1947,1944 13065,1944 13065,13061 1947,13061 1947,1944 "/>
       <polygon id="_45" class="fil39" points="1925,1922 13087,1922 13087,13083 1925,13083 1925,1922 1969,1966 13043,1966 13043,13039 1969,13039 1969,1966 "/>
       <polygon id="_46" class="fil40" points="1947,1944 13065,1944 13065,13061 1947,13061 1947,1944 1991,1988 13021,1988 13021,13018 1991,13018 1991,1988 "/>
       <polygon id="_47" class="fil41" points="1969,1966 13043,1966 13043,13039 1969,13039 1969,1966 2013,2010 12999,2010 12999,12996 2013,12996 2013,2010 "/>
       <polygon id="_48" class="fil42" points="1991,1988 13021,1988 13021,13018 1991,13018 1991,1988 2035,2031 12977,2031 12977,12974 2035,12974 2035,2031 "/>
       <polygon id="_49" class="fil42" points="2013,2010 12999,2010 12999,12996 2013,12996 2013,2010 2057,2053 12955,2053 12955,12952 2057,12952 2057,2053 "/>
       <polygon id="_50" class="fil43" points="2035,2031 12977,2031 12977,12974 2035,12974 2035,2031 2079,2075 12933,2075 12933,12930 2079,12930 2079,2075 "/>
       <polygon id="_51" class="fil44" points="2057,2053 12955,2053 12955,12952 2057,12952 2057,2053 2100,2097 12911,2097 12911,12908 2100,12908 2100,2097 "/>
       <polygon id="_52" class="fil45" points="2079,2075 12933,2075 12933,12930 2079,12930 2079,2075 2122,2119 12890,2119 12890,12886 2122,12886 2122,2119 "/>
       <polygon id="_53" class="fil46" points="2100,2097 12911,2097 12911,12908 2100,12908 2100,2097 2144,2141 12868,2141 12868,12864 2144,12864 2144,2141 "/>
       <polygon id="_54" class="fil47" points="2122,2119 12890,2119 12890,12886 2122,12886 2122,2119 2166,2163 12846,2163 12846,12842 2166,12842 2166,2163 "/>
       <polygon id="_55" class="fil47" points="2144,2141 12868,2141 12868,12864 2144,12864 2144,2141 2188,2185 12824,2185 12824,12821 2188,12821 2188,2185 "/>
       <polygon id="_56" class="fil47" points="2166,2163 12846,2163 12846,12842 2166,12842 2166,2163 2210,2206 12802,2206 12802,12799 2210,12799 2210,2206 "/>
       <polygon id="_57" class="fil47" points="2188,2185 12824,2185 12824,12821 2188,12821 2188,2185 2232,2228 12780,2228 12780,12777 2232,12777 2232,2228 "/>
       <polygon id="_58" class="fil47" points="2210,2206 12802,2206 12802,12799 2210,12799 2210,2206 2254,2250 12758,2250 12758,12755 2254,12755 2254,2250 "/>
       <polygon id="_59" class="fil47" points="2232,2228 12780,2228 12780,12777 2232,12777 2232,2228 2276,2272 12736,2272 12736,12733 2276,12733 2276,2272 "/>
       <polygon id="_60" class="fil47" points="2254,2250 12758,2250 12758,12755 2254,12755 2254,2250 2297,2294 12715,2294 12715,12711 2297,12711 2297,2294 "/>
       <polygon id="_61" class="fil47" points="2276,2272 12736,2272 12736,12733 2276,12733 2276,2272 2319,2316 12693,2316 12693,12689 2319,12689 2319,2316 "/>
       <polygon id="_62" class="fil47" points="2297,2294 12715,2294 12715,12711 2297,12711 2297,2294 2341,2338 12671,2338 12671,12667 2341,12667 2341,2338 "/>
       <polygon id="_63" class="fil47" points="2319,2316 12693,2316 12693,12689 2319,12689 2319,2316 2363,2360 12649,2360 12649,12645 2363,12645 2363,2360 "/>
       <polygon id="_64" class="fil47" points="2341,2338 12671,2338 12671,12667 2341,12667 2341,2338 2385,2382 12627,2382 12627,12624 2385,12624 2385,2382 "/>
       <polygon id="_65" class="fil47" points="2363,2360 12649,2360 12649,12645 2363,12645 2363,2360 2407,2403 12605,2403 12605,12602 2407,12602 2407,2403 "/>
       <polygon id="_66" class="fil47" points="2385,2382 12627,2382 12627,12624 2385,12624 2385,2382 2429,2425 12583,2425 12583,12580 2429,12580 2429,2425 "/>
       <polygon id="_67" class="fil47" points="2407,2403 12605,2403 12605,12602 2407,12602 2407,2403 2451,2447 12561,2447 12561,12558 2451,12558 2451,2447 "/>
       <polygon id="_68" class="fil47" points="2429,2425 12583,2425 12583,12580 2429,12580 2429,2425 2472,2469 12539,2469 12539,12536 2472,12536 2472,2469 "/>
       <polygon id="_69" class="fil47" points="2451,2447 12561,2447 12561,12558 2451,12558 2451,2447 2494,2491 12518,2491 12518,12514 2494,12514 2494,2491 "/>
       <polygon id="_70" class="fil47" points="2472,2469 12539,2469 12539,12536 2472,12536 2472,2469 2516,2513 12496,2513 12496,12492 2516,12492 2516,2513 "/>
       <polygon id="_71" class="fil47" points="2494,2491 12518,2491 12518,12514 2494,12514 2494,2491 2538,2535 12474,2535 12474,12470 2538,12470 2538,2535 "/>
       <polygon id="_72" class="fil47" points="2516,2513 12496,2513 12496,12492 2516,12492 2516,2513 2560,2557 12452,2557 12452,12449 2560,12449 2560,2557 "/>
       <polygon id="_73" class="fil47" points="2538,2535 12474,2535 12474,12470 2538,12470 2538,2535 2582,2579 12430,2579 12430,12427 2582,12427 2582,2579 "/>
       <polygon id="_74" class="fil47" points="2560,2557 12452,2557 12452,12449 2560,12449 2560,2557 2604,2600 12408,2600 12408,12405 2604,12405 2604,2600 "/>
       <polygon id="_75" class="fil47" points="2582,2579 12430,2579 12430,12427 2582,12427 2582,2579 2626,2622 12386,2622 12386,12383 2626,12383 2626,2622 "/>
       <polygon id="_76" class="fil47" points="2604,2600 12408,2600 12408,12405 2604,12405 2604,2600 2648,2644 12364,2644 12364,12361 2648,12361 2648,2644 "/>
       <polygon id="_77" class="fil47" points="2626,2622 12386,2622 12386,12383 2626,12383 2626,2622 2669,2666 12342,2666 12342,12339 2669,12339 2669,2666 "/>
       <polygon id="_78" class="fil47" points="2648,2644 12364,2644 12364,12361 2648,12361 2648,2644 2691,2688 12321,2688 12321,12317 2691,12317 2691,2688 "/>
       <polygon id="_79" class="fil47" points="2669,2666 12342,2666 12342,12339 2669,12339 2669,2666 2713,2710 12299,2710 12299,12295 2713,12295 2713,2710 "/>
       <polygon id="_80" class="fil47" points="2691,2688 12321,2688 12321,12317 2691,12317 2691,2688 2735,2732 12277,2732 12277,12273 2735,12273 2735,2732 "/>
       <polygon id="_81" class="fil47" points="2713,2710 12299,2710 12299,12295 2713,12295 2713,2710 2757,2754 12255,2754 12255,12252 2757,12252 2757,2754 "/>
       <polygon id="_82" class="fil47" points="2735,2732 12277,2732 12277,12273 2735,12273 2735,2732 2779,2775 12233,2775 12233,12230 2779,12230 2779,2775 "/>
       <polygon id="_83" class="fil47" points="2757,2754 12255,2754 12255,12252 2757,12252 2757,2754 2801,2797 12211,2797 12211,12208 2801,12208 2801,2797 "/>
       <polygon id="_84" class="fil47" points="2779,2775 12233,2775 12233,12230 2779,12230 2779,2775 2823,2819 12189,2819 12189,12186 2823,12186 2823,2819 "/>
       <polygon id="_85" class="fil47" points="2801,2797 12211,2797 12211,12208 2801,12208 2801,2797 2845,2841 12167,2841 12167,12164 2845,12164 2845,2841 "/>
       <polygon id="_86" class="fil47" points="2823,2819 12189,2819 12189,12186 2823,12186 2823,2819 2866,2863 12145,2863 12145,12142 2866,12142 2866,2863 "/>
       <polygon id="_87" class="fil47" points="2845,2841 12167,2841 12167,12164 2845,12164 2845,2841 2888,2885 12124,2885 12124,12120 2888,12120 2888,2885 "/>
       <polygon id="_88" class="fil47" points="2866,2863 12145,2863 12145,12142 2866,12142 2866,2863 2910,2907 12102,2907 12102,12098 2910,12098 2910,2907 "/>
       <polygon id="_89" class="fil47" points="2888,2885 12124,2885 12124,12120 2888,12120 2888,2885 2932,2929 12080,2929 12080,12076 2932,12076 2932,2929 "/>
       <polygon id="_90" class="fil47" points="2910,2907 12102,2907 12102,12098 2910,12098 2910,2907 2954,2951 12058,2951 12058,12055 2954,12055 2954,2951 "/>
       <polygon id="_91" class="fil47" points="2932,2929 12080,2929 12080,12076 2932,12076 2932,2929 2976,2972 12036,2972 12036,12033 2976,12033 2976,2972 "/>
       <polygon id="_92" class="fil47" points="2954,2951 12058,2951 12058,12055 2954,12055 2954,2951 2998,2994 12014,2994 12014,12011 2998,12011 2998,2994 "/>
       <polygon id="_93" class="fil47" points="2976,2972 12036,2972 12036,12033 2976,12033 2976,2972 3020,3016 11992,3016 11992,11989 3020,11989 3020,3016 "/>
       <polygon id="_94" class="fil47" points="2998,2994 12014,2994 12014,12011 2998,12011 2998,2994 3041,3038 11970,3038 11970,11967 3041,11967 3041,3038 "/>
       <polygon id="_95" class="fil47" points="3020,3016 11992,3016 11992,11989 3020,11989 3020,3016 3063,3060 11949,3060 11949,11945 3063,11945 3063,3060 "/>
       <polygon id="_96" class="fil47" points="3041,3038 11970,3038 11970,11967 3041,11967 3041,3038 3085,3082 11927,3082 11927,11923 3085,11923 3085,3082 "/>
       <polygon id="_97" class="fil47" points="3063,3060 11949,3060 11949,11945 3063,11945 3063,3060 3107,3104 11905,3104 11905,11901 3107,11901 3107,3104 "/>
       <polygon id="_98" class="fil47" points="3085,3082 11927,3082 11927,11923 3085,11923 3085,3082 3129,3126 11883,3126 11883,11880 3129,11880 3129,3126 "/>
       <polygon id="_99" class="fil47" points="3107,3104 11905,3104 11905,11901 3107,11901 3107,3104 3151,3148 11861,3148 11861,11858 3151,11858 3151,3148 "/>
       <polygon id="_100" class="fil47" points="3129,3126 11883,3126 11883,11880 3129,11880 3129,3126 3173,3169 11839,3169 11839,11836 3173,11836 3173,3169 "/>
       <polygon id="_101" class="fil47" points="3151,3148 11861,3148 11861,11858 3151,11858 3151,3148 3195,3191 11817,3191 11817,11814 3195,11814 3195,3191 "/>
       <polygon id="_102" class="fil47" points="3173,3169 11839,3169 11839,11836 3173,11836 3173,3169 3217,3213 11795,3213 11795,11792 3217,11792 3217,3213 "/>
       <polygon id="_103" class="fil47" points="3195,3191 11817,3191 11817,11814 3195,11814 3195,3191 3238,3235 11773,3235 11773,11770 3238,11770 3238,3235 "/>
       <polygon id="_104" class="fil47" points="3217,3213 11795,3213 11795,11792 3217,11792 3217,3213 3260,3257 11752,3257 11752,11748 3260,11748 3260,3257 "/>
       <polygon id="_105" class="fil47" points="3238,3235 11773,3235 11773,11770 3238,11770 3238,3235 3282,3279 11730,3279 11730,11726 3282,11726 3282,3279 "/>
       <polygon id="_106" class="fil47" points="3260,3257 11752,3257 11752,11748 3260,11748 3260,3257 3304,3301 11708,3301 11708,11704 3304,11704 3304,3301 "/>
       <polygon id="_107" class="fil47" points="3282,3279 11730,3279 11730,11726 3282,11726 3282,3279 3326,3323 11686,3323 11686,11683 3326,11683 3326,3323 "/>
       <polygon id="_108" class="fil47" points="3304,3301 11708,3301 11708,11704 3304,11704 3304,3301 3348,3344 11664,3344 11664,11661 3348,11661 3348,3344 "/>
       <polygon id="_109" class="fil47" points="3326,3323 11686,3323 11686,11683 3326,11683 3326,3323 3370,3366 11642,3366 11642,11639 3370,11639 3370,3366 "/>
       <polygon id="_110" class="fil47" points="3348,3344 11664,3344 11664,11661 3348,11661 3348,3344 3392,3388 11620,3388 11620,11617 3392,11617 3392,3388 "/>
       <polygon id="_111" class="fil47" points="3370,3366 11642,3366 11642,11639 3370,11639 3370,3366 3414,3410 11598,3410 11598,11595 3414,11595 3414,3410 "/>
       <polygon id="_112" class="fil47" points="3392,3388 11620,3388 11620,11617 3392,11617 3392,3388 3435,3432 11577,3432 11577,11573 3435,11573 3435,3432 "/>
       <polygon id="_113" class="fil47" points="3414,3410 11598,3410 11598,11595 3414,11595 3414,3410 3457,3454 11555,3454 11555,11551 3457,11551 3457,3454 "/>
       <polygon id="_114" class="fil47" points="3435,3432 11577,3432 11577,11573 3435,11573 3435,3432 3479,3476 11533,3476 11533,11529 3479,11529 3479,3476 "/>
       <polygon id="_115" class="fil47" points="3457,3454 11555,3454 11555,11551 3457,11551 3457,3454 3501,3498 11511,3498 11511,11507 3501,11507 3501,3498 "/>
       <polygon id="_116" class="fil47" points="3479,3476 11533,3476 11533,11529 3479,11529 3479,3476 3523,3520 11489,3520 11489,11486 3523,11486 3523,3520 "/>
       <polygon id="_117" class="fil47" points="3501,3498 11511,3498 11511,11507 3501,11507 3501,3498 3545,3541 11467,3541 11467,11464 3545,11464 3545,3541 "/>
       <polygon id="_118" class="fil47" points="3523,3520 11489,3520 11489,11486 3523,11486 3523,3520 3567,3563 11445,3563 11445,11442 3567,11442 3567,3563 "/>
       <polygon id="_119" class="fil47" points="3545,3541 11467,3541 11467,11464 3545,11464 3545,3541 3589,3585 11423,3585 11423,11420 3589,11420 3589,3585 "/>
       <polygon id="_120" class="fil47" points="3567,3563 11445,3563 11445,11442 3567,11442 3567,3563 3611,3607 11401,3607 11401,11398 3611,11398 3611,3607 "/>
       <polygon id="_121" class="fil47" points="3589,3585 11423,3585 11423,11420 3589,11420 3589,3585 3632,3629 11380,3629 11380,11376 3632,11376 3632,3629 "/>
       <polygon id="_122" class="fil47" points="3611,3607 11401,3607 11401,11398 3611,11398 3611,3607 3654,3651 11358,3651 11358,11354 3654,11354 3654,3651 "/>
       <polygon id="_123" class="fil47" points="3632,3629 11380,3629 11380,11376 3632,11376 3632,3629 3676,3673 11336,3673 11336,11332 3676,11332 3676,3673 "/>
       <polygon id="_124" class="fil47" points="3654,3651 11358,3651 11358,11354 3654,11354 3654,3651 3698,3695 11314,3695 11314,11311 3698,11311 3698,3695 "/>
       <polygon id="_125" class="fil47" points="3676,3673 11336,3673 11336,11332 3676,11332 3676,3673 3720,3717 11292,3717 11292,11289 3720,11289 3720,3717 "/>
       <polygon id="_126" class="fil47" points="3698,3695 11314,3695 11314,11311 3698,11311 3698,3695 3742,3738 11270,3738 11270,11267 3742,11267 3742,3738 "/>
       <polygon id="_127" class="fil47" points="3720,3717 11292,3717 11292,11289 3720,11289 3720,3717 3764,3760 11248,3760 11248,11245 3764,11245 3764,3760 "/>
       <polygon id="_128" class="fil47" points="3742,3738 11270,3738 11270,11267 3742,11267 3742,3738 3786,3782 11226,3782 11226,11223 3786,11223 3786,3782 "/>
       <polygon id="_129" class="fil47" points="3764,3760 11248,3760 11248,11245 3764,11245 3764,3760 3807,3804 11204,3804 11204,11201 3807,11201 3807,3804 "/>
       <polygon id="_130" class="fil47" points="3786,3782 11226,3782 11226,11223 3786,11223 3786,3782 3829,3826 11183,3826 11183,11179 3829,11179 3829,3826 "/>
       <polygon id="_131" class="fil47" points="3807,3804 11204,3804 11204,11201 3807,11201 3807,3804 3851,3848 11161,3848 11161,11157 3851,11157 3851,3848 "/>
       <polygon id="_132" class="fil47" points="3829,3826 11183,3826 11183,11179 3829,11179 3829,3826 3873,3870 11139,3870 11139,11135 3873,11135 3873,3870 "/>
       <polygon id="_133" class="fil47" points="3851,3848 11161,3848 11161,11157 3851,11157 3851,3848 3895,3892 11117,3892 11117,11114 3895,11114 3895,3892 "/>
       <polygon id="_134" class="fil47" points="3873,3870 11139,3870 11139,11135 3873,11135 3873,3870 3917,3913 11095,3913 11095,11092 3917,11092 3917,3913 "/>
       <polygon id="_135" class="fil47" points="3895,3892 11117,3892 11117,11114 3895,11114 3895,3892 3939,3935 11073,3935 11073,11070 3939,11070 3939,3935 "/>
       <polygon id="_136" class="fil47" points="3917,3913 11095,3913 11095,11092 3917,11092 3917,3913 3961,3957 11051,3957 11051,11048 3961,11048 3961,3957 "/>
       <polygon id="_137" class="fil47" points="3939,3935 11073,3935 11073,11070 3939,11070 3939,3935 3983,3979 11029,3979 11029,11026 3983,11026 3983,3979 "/>
       <polygon id="_138" class="fil47" points="3961,3957 11051,3957 11051,11048 3961,11048 3961,3957 4004,4001 11008,4001 11008,11004 4004,11004 4004,4001 "/>
       <polygon id="_139" class="fil47" points="3983,3979 11029,3979 11029,11026 3983,11026 3983,3979 4026,4023 10986,4023 10986,10982 4026,10982 4026,4023 "/>
       <polygon id="_140" class="fil47" points="4004,4001 11008,4001 11008,11004 4004,11004 4004,4001 4048,4045 10964,4045 10964,10960 4048,10960 4048,4045 "/>
       <polygon id="_141" class="fil47" points="4026,4023 10986,4023 10986,10982 4026,10982 4026,4023 4070,4067 10942,4067 10942,10938 4070,10938 4070,4067 "/>
       <polygon id="_142" class="fil47" points="4048,4045 10964,4045 10964,10960 4048,10960 4048,4045 4092,4089 10920,4089 10920,10917 4092,10917 4092,4089 "/>
       <polygon id="_143" class="fil47" points="4070,4067 10942,4067 10942,10938 4070,10938 4070,4067 4114,4110 10898,4110 10898,10895 4114,10895 4114,4110 "/>
       <polygon id="_144" class="fil47" points="4092,4089 10920,4089 10920,10917 4092,10917 4092,4089 4136,4132 10876,4132 10876,10873 4136,10873 4136,4132 "/>
       <polygon id="_145" class="fil47" points="4114,4110 10898,4110 10898,10895 4114,10895 4114,4110 4158,4154 10854,4154 10854,10851 4158,10851 4158,4154 "/>
       <polygon id="_146" class="fil47" points="4136,4132 10876,4132 10876,10873 4136,10873 4136,4132 4180,4176 10832,4176 10832,10829 4180,10829 4180,4176 "/>
       <polygon id="_147" class="fil47" points="4158,4154 10854,4154 10854,10851 4158,10851 4158,4154 4201,4198 10811,4198 10811,10807 4201,10807 4201,4198 "/>
       <polygon id="_148" class="fil47" points="4180,4176 10832,4176 10832,10829 4180,10829 4180,4176 4223,4220 10789,4220 10789,10785 4223,10785 4223,4220 "/>
       <polygon id="_149" class="fil47" points="4201,4198 10811,4198 10811,10807 4201,10807 4201,4198 4245,4242 10767,4242 10767,10763 4245,10763 4245,4242 "/>
       <polygon id="_150" class="fil47" points="4223,4220 10789,4220 10789,10785 4223,10785 4223,4220 4267,4264 10745,4264 10745,10742 4267,10742 4267,4264 "/>
       <polygon id="_151" class="fil47" points="4245,4242 10767,4242 10767,10763 4245,10763 4245,4242 4289,4286 10723,4286 10723,10720 4289,10720 4289,4286 "/>
       <polygon id="_152" class="fil47" points="4267,4264 10745,4264 10745,10742 4267,10742 4267,4264 4311,4307 10701,4307 10701,10698 4311,10698 4311,4307 "/>
       <polygon id="_153" class="fil47" points="4289,4286 10723,4286 10723,10720 4289,10720 4289,4286 4333,4329 10679,4329 10679,10676 4333,10676 4333,4329 "/>
       <polygon id="_154" class="fil47" points="4311,4307 10701,4307 10701,10698 4311,10698 4311,4307 4355,4351 10657,4351 10657,10654 4355,10654 4355,4351 "/>
       <polygon id="_155" class="fil47" points="4333,4329 10679,4329 10679,10676 4333,10676 4333,4329 4376,4373 10635,4373 10635,10632 4376,10632 4376,4373 "/>
       <polygon id="_156" class="fil47" points="4355,4351 10657,4351 10657,10654 4355,10654 4355,4351 4398,4395 10614,4395 10614,10610 4398,10610 4398,4395 "/>
       <polygon id="_157" class="fil47" points="4376,4373 10635,4373 10635,10632 4376,10632 4376,4373 4420,4417 10592,4417 10592,10588 4420,10588 4420,4417 "/>
       <polygon id="_158" class="fil47" points="4398,4395 10614,4395 10614,10610 4398,10610 4398,4395 4442,4439 10570,4439 10570,10566 4442,10566 4442,4439 "/>
       <polygon id="_159" class="fil47" points="4420,4417 10592,4417 10592,10588 4420,10588 4420,4417 4464,4461 10548,4461 10548,10545 4464,10545 4464,4461 "/>
       <polygon id="_160" class="fil47" points="4442,4439 10570,4439 10570,10566 4442,10566 4442,4439 4486,4483 10526,4483 10526,10523 4486,10523 4486,4483 "/>
       <polygon id="_161" class="fil47" points="4464,4461 10548,4461 10548,10545 4464,10545 4464,4461 4508,4504 10504,4504 10504,10501 4508,10501 4508,4504 "/>
       <polygon id="_162" class="fil47" points="4486,4483 10526,4483 10526,10523 4486,10523 4486,4483 4530,4526 10482,4526 10482,10479 4530,10479 4530,4526 "/>
       <polygon id="_163" class="fil47" points="4508,4504 10504,4504 10504,10501 4508,10501 4508,4504 4552,4548 10460,4548 10460,10457 4552,10457 4552,4548 "/>
       <polygon id="_164" class="fil47" points="4530,4526 10482,4526 10482,10479 4530,10479 4530,4526 4573,4570 10439,4570 10439,10435 4573,10435 4573,4570 "/>
       <polygon id="_165" class="fil47" points="4552,4548 10460,4548 10460,10457 4552,10457 4552,4548 4595,4592 10417,4592 10417,10413 4595,10413 4595,4592 "/>
       <polygon id="_166" class="fil47" points="4573,4570 10439,4570 10439,10435 4573,10435 4573,4570 4617,4614 10395,4614 10395,10391 4617,10391 4617,4614 "/>
       <polygon id="_167" class="fil47" points="4595,4592 10417,4592 10417,10413 4595,10413 4595,4592 4639,4636 10373,4636 10373,10369 4639,10369 4639,4636 "/>
       <polygon id="_168" class="fil47" points="4617,4614 10395,4614 10395,10391 4617,10391 4617,4614 4661,4658 10351,4658 10351,10348 4661,10348 4661,4658 "/>
       <polygon id="_169" class="fil47" points="4639,4636 10373,4636 10373,10369 4639,10369 4639,4636 4683,4679 10329,4679 10329,10326 4683,10326 4683,4679 "/>
       <polygon id="_170" class="fil47" points="4661,4658 10351,4658 10351,10348 4661,10348 4661,4658 4705,4701 10307,4701 10307,10304 4705,10304 4705,4701 "/>
       <polygon id="_171" class="fil47" points="4683,4679 10329,4679 10329,10326 4683,10326 4683,4679 4727,4723 10285,4723 10285,10282 4727,10282 4727,4723 "/>
       <polygon id="_172" class="fil47" points="4705,4701 10307,4701 10307,10304 4705,10304 4705,4701 4749,4745 10263,4745 10263,10260 4749,10260 4749,4745 "/>
       <polygon id="_173" class="fil47" points="4727,4723 10285,4723 10285,10282 4727,10282 4727,4723 4770,4767 10242,4767 10242,10238 4770,10238 4770,4767 "/>
       <polygon id="_174" class="fil47" points="4749,4745 10263,4745 10263,10260 4749,10260 4749,4745 4792,4789 10220,4789 10220,10216 4792,10216 4792,4789 "/>
       <polygon id="_175" class="fil47" points="4770,4767 10242,4767 10242,10238 4770,10238 4770,4767 4814,4811 10198,4811 10198,10194 4814,10194 4814,4811 "/>
       <polygon id="_176" class="fil47" points="4792,4789 10220,4789 10220,10216 4792,10216 4792,4789 4836,4833 10176,4833 10176,10172 4836,10172 4836,4833 "/>
       <polygon id="_177" class="fil47" points="4814,4811 10198,4811 10198,10194 4814,10194 4814,4811 4858,4855 10154,4855 10154,10151 4858,10151 4858,4855 "/>
       <polygon id="_178" class="fil47" points="4836,4833 10176,4833 10176,10173 4836,10173 4836,4833 4880,4876 10132,4876 10132,10129 4880,10129 4880,4876 "/>
       <polygon id="_179" class="fil47" points="4858,4855 10154,4855 10154,10151 4858,10151 4858,4855 4902,4898 10110,4898 10110,10107 4902,10107 4902,4898 "/>
       <polygon id="_180" class="fil47" points="4880,4876 10132,4876 10132,10129 4880,10129 4880,4876 4924,4920 10088,4920 10088,10085 4924,10085 4924,4920 "/>
       <polygon id="_181" class="fil47" points="4902,4898 10110,4898 10110,10107 4902,10107 4902,4898 4945,4942 10066,4942 10066,10063 4945,10063 4945,4942 "/>
       <polygon id="_182" class="fil47" points="4924,4920 10088,4920 10088,10085 4924,10085 4924,4920 4967,4964 10045,4964 10045,10041 4967,10041 4967,4964 "/>
       <polygon id="_183" class="fil47" points="4945,4942 10066,4942 10066,10063 4945,10063 4945,4942 4989,4986 10023,4986 10023,10019 4989,10019 4989,4986 "/>
       <polygon id="_184" class="fil47" points="4967,4964 10045,4964 10045,10041 4967,10041 4967,4964 5011,5008 10001,5008 10001,9997 5011,9997 5011,5008 "/>
       <polygon id="_185" class="fil47" points="4989,4986 10023,4986 10023,10019 4989,10019 4989,4986 5033,5030 9979,5030 9979,9976 5033,9976 5033,5030 "/>
       <polygon id="_186" class="fil47" points="5011,5008 10001,5008 10001,9997 5011,9997 5011,5008 5055,5052 9957,5052 9957,9954 5055,9954 5055,5052 "/>
       <polygon id="_187" class="fil47" points="5033,5030 9979,5030 9979,9976 5033,9976 5033,5030 5077,5073 9935,5073 9935,9932 5077,9932 5077,5073 "/>
       <polygon id="_188" class="fil47" points="5055,5052 9957,5052 9957,9954 5055,9954 5055,5052 5099,5095 9913,5095 9913,9910 5099,9910 5099,5095 "/>
       <polygon id="_189" class="fil47" points="5077,5073 9935,5073 9935,9932 5077,9932 5077,5073 5121,5117 9891,5117 9891,9888 5121,9888 5121,5117 "/>
       <polygon id="_190" class="fil47" points="5099,5095 9913,5095 9913,9910 5099,9910 5099,5095 5142,5139 9870,5139 9870,9866 5142,9866 5142,5139 "/>
       <polygon id="_191" class="fil47" points="5121,5117 9891,5117 9891,9888 5121,9888 5121,5117 5164,5161 9848,5161 9848,9844 5164,9844 5164,5161 "/>
       <polygon id="_192" class="fil47" points="5142,5139 9870,5139 9870,9866 5142,9866 5142,5139 5186,5183 9826,5183 9826,9822 5186,9822 5186,5183 "/>
       <polygon id="_193" class="fil47" points="5164,5161 9848,5161 9848,9844 5164,9844 5164,5161 5208,5205 9804,5205 9804,9800 5208,9800 5208,5205 "/>
       <polygon id="_194" class="fil47" points="5186,5183 9826,5183 9826,9822 5186,9822 5186,5183 5230,5227 9782,5227 9782,9779 5230,9779 5230,5227 "/>
       <polygon id="_195" class="fil47" points="5208,5205 9804,5205 9804,9800 5208,9800 5208,5205 5252,5248 9760,5248 9760,9757 5252,9757 5252,5248 "/>
       <polygon id="_196" class="fil47" points="5230,5227 9782,5227 9782,9779 5230,9779 5230,5227 5274,5270 9738,5270 9738,9735 5274,9735 5274,5270 "/>
       <polygon id="_197" class="fil47" points="5252,5248 9760,5248 9760,9757 5252,9757 5252,5248 5296,5292 9716,5292 9716,9713 5296,9713 5296,5292 "/>
       <polygon id="_198" class="fil47" points="5274,5270 9738,5270 9738,9735 5274,9735 5274,5270 5317,5314 9694,5314 9694,9691 5317,9691 5317,5314 "/>
       <polygon id="_199" class="fil47" points="5296,5292 9716,5292 9716,9713 5296,9713 5296,5292 5339,5336 9673,5336 9673,9669 5339,9669 5339,5336 "/>
       <polygon id="_200" class="fil47" points="5317,5314 9694,5314 9694,9691 5317,9691 5317,5314 5361,5358 9651,5358 9651,9647 5361,9647 5361,5358 "/>
       <polygon id="_201" class="fil47" points="5339,5336 9673,5336 9673,9669 5339,9669 5339,5336 5383,5380 9629,5380 9629,9625 5383,9625 5383,5380 "/>
       <polygon id="_202" class="fil47" points="5361,5358 9651,5358 9651,9647 5361,9647 5361,5358 5405,5402 9607,5402 9607,9603 5405,9603 5405,5402 "/>
       <polygon id="_203" class="fil47" points="5383,5380 9629,5380 9629,9625 5383,9625 5383,5380 5427,5424 9585,5424 9585,9582 5427,9582 5427,5424 "/>
       <polygon id="_204" class="fil47" points="5405,5402 9607,5402 9607,9603 5405,9603 5405,5402 5449,5445 9563,5445 9563,9560 5449,9560 5449,5445 "/>
       <polygon id="_205" class="fil47" points="5427,5424 9585,5424 9585,9582 5427,9582 5427,5424 5471,5467 9541,5467 9541,9538 5471,9538 5471,5467 "/>
       <polygon id="_206" class="fil47" points="5449,5445 9563,5445 9563,9560 5449,9560 5449,5445 5493,5489 9519,5489 9519,9516 5493,9516 5493,5489 "/>
       <polygon id="_207" class="fil47" points="5471,5467 9541,5467 9541,9538 5471,9538 5471,5467 5514,5511 9497,5511 9497,9494 5514,9494 5514,5511 "/>
       <polygon id="_208" class="fil47" points="5493,5489 9519,5489 9519,9516 5493,9516 5493,5489 5536,5533 9476,5533 9476,9472 5536,9472 5536,5533 "/>
       <polygon id="_209" class="fil47" points="5514,5511 9497,5511 9497,9494 5514,9494 5514,5511 5558,5555 9454,5555 9454,9450 5558,9450 5558,5555 "/>
       <polygon id="_210" class="fil47" points="5536,5533 9476,5533 9476,9472 5536,9472 5536,5533 5580,5577 9432,5577 9432,9428 5580,9428 5580,5577 "/>
       <polygon id="_211" class="fil47" points="5558,5555 9454,5555 9454,9450 5558,9450 5558,5555 5602,5599 9410,5599 9410,9407 5602,9407 5602,5599 "/>
       <polygon id="_212" class="fil47" points="5580,5577 9432,5577 9432,9428 5580,9428 5580,5577 5624,5620 9388,5620 9388,9385 5624,9385 5624,5620 "/>
       <polygon id="_213" class="fil47" points="5602,5599 9410,5599 9410,9407 5602,9407 5602,5599 5646,5642 9366,5642 9366,9363 5646,9363 5646,5642 "/>
       <polygon id="_214" class="fil47" points="5624,5620 9388,5620 9388,9385 5624,9385 5624,5620 5668,5664 9344,5664 9344,9341 5668,9341 5668,5664 "/>
       <polygon id="_215" class="fil47" points="5646,5642 9366,5642 9366,9363 5646,9363 5646,5642 5690,5686 9322,5686 9322,9319 5690,9319 5690,5686 "/>
       <polygon id="_216" class="fil47" points="5668,5664 9344,5664 9344,9341 5668,9341 5668,5664 5711,5708 9300,5708 9300,9297 5711,9297 5711,5708 "/>
       <polygon id="_217" class="fil47" points="5690,5686 9322,5686 9322,9319 5690,9319 5690,5686 5733,5730 9279,5730 9279,9275 5733,9275 5733,5730 "/>
       <polygon id="_218" class="fil47" points="5711,5708 9300,5708 9300,9297 5711,9297 5711,5708 5755,5752 9257,5752 9257,9253 5755,9253 5755,5752 "/>
       <polygon id="_219" class="fil47" points="5733,5730 9279,5730 9279,9275 5733,9275 5733,5730 5777,5774 9235,5774 9235,9231 5777,9231 5777,5774 "/>
       <polygon id="_220" class="fil47" points="5755,5752 9257,5752 9257,9253 5755,9253 5755,5752 5799,5796 9213,5796 9213,9210 5799,9210 5799,5796 "/>
       <polygon id="_221" class="fil47" points="5777,5774 9235,5774 9235,9231 5777,9231 5777,5774 5821,5817 9191,5817 9191,9188 5821,9188 5821,5817 "/>
       <polygon id="_222" class="fil47" points="5799,5796 9213,5796 9213,9210 5799,9210 5799,5796 5843,5839 9169,5839 9169,9166 5843,9166 5843,5839 "/>
       <polygon id="_223" class="fil47" points="5821,5817 9191,5817 9191,9188 5821,9188 5821,5817 5865,5861 9147,5861 9147,9144 5865,9144 5865,5861 "/>
       <polygon id="_224" class="fil47" points="5843,5839 9169,5839 9169,9166 5843,9166 5843,5839 5886,5883 9125,5883 9125,9122 5886,9122 5886,5883 "/>
       <polygon id="_225" class="fil47" points="5865,5861 9147,5861 9147,9144 5865,9144 5865,5861 5908,5905 9104,5905 9104,9100 5908,9100 5908,5905 "/>
       <polygon id="_226" class="fil47" points="5886,5883 9125,5883 9125,9122 5886,9122 5886,5883 5930,5927 9082,5927 9082,9078 5930,9078 5930,5927 "/>
       <polygon id="_227" class="fil47" points="5908,5905 9104,5905 9104,9100 5908,9100 5908,5905 5952,5949 9060,5949 9060,9056 5952,9056 5952,5949 "/>
       <polygon id="_228" class="fil47" points="5930,5927 9082,5927 9082,9078 5930,9078 5930,5927 5974,5971 9038,5971 9038,9035 5974,9035 5974,5971 "/>
       <polygon id="_229" class="fil47" points="5952,5949 9060,5949 9060,9056 5952,9056 5952,5949 5996,5993 9016,5993 9016,9013 5996,9013 5996,5993 "/>
       <polygon id="_230" class="fil47" points="5974,5971 9038,5971 9038,9035 5974,9035 5974,5971 6018,6014 8994,6014 8994,8991 6018,8991 6018,6014 "/>
       <polygon id="_231" class="fil47" points="5996,5993 9016,5993 9016,9013 5996,9013 5996,5993 6040,6036 8972,6036 8972,8969 6040,8969 6040,6036 "/>
       <polygon id="_232" class="fil47" points="6018,6014 8994,6014 8994,8991 6018,8991 6018,6014 6062,6058 8950,6058 8950,8947 6062,8947 6062,6058 "/>
       <polygon id="_233" class="fil47" points="6040,6036 8972,6036 8972,8969 6040,8969 6040,6036 6083,6080 8928,6080 8928,8925 6083,8925 6083,6080 "/>
       <polygon id="_234" class="fil47" points="6062,6058 8950,6058 8950,8947 6062,8947 6062,6058 6105,6102 8907,6102 8907,8903 6105,8903 6105,6102 "/>
       <polygon id="_235" class="fil47" points="6083,6080 8928,6080 8928,8925 6083,8925 6083,6080 6127,6124 8885,6124 8885,8881 6127,8881 6127,6124 "/>
       <polygon id="_236" class="fil47" points="6105,6102 8907,6102 8907,8903 6105,8903 6105,6102 6149,6146 8863,6146 8863,8859 6149,8859 6149,6146 "/>
       <polygon id="_237" class="fil47" points="6127,6124 8885,6124 8885,8881 6127,8881 6127,6124 6171,6168 8841,6168 8841,8838 6171,8838 6171,6168 "/>
       <polygon id="_238" class="fil47" points="6149,6146 8863,6146 8863,8859 6149,8859 6149,6146 6193,6189 8819,6189 8819,8816 6193,8816 6193,6189 "/>
       <polygon id="_239" class="fil47" points="6171,6168 8841,6168 8841,8838 6171,8838 6171,6168 6215,6211 8797,6211 8797,8794 6215,8794 6215,6211 "/>
       <polygon id="_240" class="fil47" points="6193,6189 8819,6189 8819,8816 6193,8816 6193,6189 6237,6233 8775,6233 8775,8772 6237,8772 6237,6233 "/>
       <polygon id="_241" class="fil47" points="6215,6211 8797,6211 8797,8794 6215,8794 6215,6211 6259,6255 8753,6255 8753,8750 6259,8750 6259,6255 "/>
       <polygon id="_242" class="fil47" points="6237,6233 8775,6233 8775,8772 6237,8772 6237,6233 6280,6277 8731,6277 8731,8728 6280,8728 6280,6277 "/>
       <polygon id="_243" class="fil47" points="6259,6255 8753,6255 8753,8750 6259,8750 6259,6255 6302,6299 8710,6299 8710,8706 6302,8706 6302,6299 "/>
       <polygon id="_244" class="fil47" points="6280,6277 8731,6277 8731,8728 6280,8728 6280,6277 6324,6321 8688,6321 8688,8684 6324,8684 6324,6321 "/>
       <polygon id="_245" class="fil47" points="6302,6299 8710,6299 8710,8706 6302,8706 6302,6299 6346,6343 8666,6343 8666,8662 6346,8662 6346,6343 "/>
       <polygon id="_246" class="fil47" points="6324,6321 8688,6321 8688,8684 6324,8684 6324,6321 6368,6365 8644,6365 8644,8641 6368,8641 6368,6365 "/>
       <polygon id="_247" class="fil47" points="6346,6343 8666,6343 8666,8662 6346,8662 6346,6343 6390,6386 8622,6386 8622,8619 6390,8619 6390,6386 "/>
       <polygon id="_248" class="fil47" points="6368,6365 8644,6365 8644,8641 6368,8641 6368,6365 6412,6408 8600,6408 8600,8597 6412,8597 6412,6408 "/>
       <polygon id="_249" class="fil47" points="6390,6386 8622,6386 8622,8619 6390,8619 6390,6386 6434,6430 8578,6430 8578,8575 6434,8575 6434,6430 "/>
       <polygon id="_250" class="fil47" points="6412,6408 8600,6408 8600,8597 6412,8597 6412,6408 6456,6452 8556,6452 8556,8553 6456,8553 6456,6452 "/>
       <polygon id="_251" class="fil47" points="6434,6430 8578,6430 8578,8575 6434,8575 6434,6430 6477,6474 8535,6474 8535,8531 6477,8531 6477,6474 "/>
       <polygon id="_252" class="fil47" points="6455,6452 8556,6452 8556,8553 6455,8553 6455,6452 6499,6496 8513,6496 8513,8509 6499,8509 6499,6496 "/>
       <polygon id="_253" class="fil47" points="6477,6474 8535,6474 8535,8531 6477,8531 6477,6474 6521,6518 8491,6518 8491,8487 6521,8487 6521,6518 "/>
       <polygon id="_254" class="fil47" points="6499,6496 8513,6496 8513,8509 6499,8509 6499,6496 6543,6540 8469,6540 8469,8466 6543,8466 6543,6540 "/>
       <polygon id="_255" class="fil47" points="6521,6518 8491,6518 8491,8487 6521,8487 6521,6518 6565,6562 8447,6562 8447,8444 6565,8444 6565,6562 "/>
       <polygon id="_256" class="fil47" points="6543,6540 8469,6540 8469,8466 6543,8466 6543,6540 6587,6583 8425,6583 8425,8422 6587,8422 6587,6583 "/>
       <polygon id="_257" class="fil47" points="6565,6562 8447,6562 8447,8444 6565,8444 6565,6562 6609,6605 8403,6605 8403,8400 6609,8400 6609,6605 "/>
       <polygon id="_258" class="fil47" points="6587,6583 8425,6583 8425,8422 6587,8422 6587,6583 6631,6627 8381,6627 8381,8378 6631,8378 6631,6627 "/>
       <polygon id="_259" class="fil47" points="6609,6605 8403,6605 8403,8400 6609,8400 6609,6605 6652,6649 8359,6649 8359,8356 6652,8356 6652,6649 "/>
       <polygon id="_260" class="fil47" points="6631,6627 8381,6627 8381,8378 6631,8378 6631,6627 6674,6671 8338,6671 8338,8334 6674,8334 6674,6671 "/>
       <polygon id="_261" class="fil47" points="6652,6649 8359,6649 8359,8356 6652,8356 6652,6649 6696,6693 8316,6693 8316,8312 6696,8312 6696,6693 "/>
       <polygon id="_262" class="fil47" points="6674,6671 8338,6671 8338,8334 6674,8334 6674,6671 6718,6715 8294,6715 8294,8290 6718,8290 6718,6715 "/>
       <polygon id="_263" class="fil47" points="6696,6693 8316,6693 8316,8312 6696,8312 6696,6693 6740,6737 8272,6737 8272,8269 6740,8269 6740,6737 "/>
       <polygon id="_264" class="fil47" points="6718,6715 8294,6715 8294,8290 6718,8290 6718,6715 6762,6758 8250,6758 8250,8247 6762,8247 6762,6758 "/>
       <polygon id="_265" class="fil47" points="6740,6737 8272,6737 8272,8269 6740,8269 6740,6737 6784,6780 8228,6780 8228,8225 6784,8225 6784,6780 "/>
       <polygon id="_266" class="fil47" points="6762,6758 8250,6758 8250,8247 6762,8247 6762,6758 6806,6802 8206,6802 8206,8203 6806,8203 6806,6802 "/>
       <polygon id="_267" class="fil47" points="6784,6780 8228,6780 8228,8225 6784,8225 6784,6780 6828,6824 8184,6824 8184,8181 6828,8181 6828,6824 "/>
       <polygon id="_268" class="fil47" points="6806,6802 8206,6802 8206,8203 6806,8203 6806,6802 6849,6846 8163,6846 8163,8159 6849,8159 6849,6846 "/>
       <polygon id="_269" class="fil47" points="6828,6824 8184,6824 8184,8181 6828,8181 6828,6824 6871,6868 8141,6868 8141,8137 6871,8137 6871,6868 "/>
       <polygon id="_270" class="fil47" points="6849,6846 8163,6846 8163,8159 6849,8159 6849,6846 6893,6890 8119,6890 8119,8115 6893,8115 6893,6890 "/>
       <polygon id="_271" class="fil47" points="6871,6868 8141,6868 8141,8137 6871,8137 6871,6868 6915,6912 8097,6912 8097,8093 6915,8093 6915,6912 "/>
       <polygon id="_272" class="fil47" points="6893,6890 8119,6890 8119,8115 6893,8115 6893,6890 6937,6934 8075,6934 8075,8072 6937,8072 6937,6934 "/>
       <polygon id="_273" class="fil47" points="6915,6912 8097,6912 8097,8093 6915,8093 6915,6912 6959,6955 8053,6955 8053,8050 6959,8050 6959,6955 "/>
       <polygon id="_274" class="fil47" points="6937,6934 8075,6934 8075,8072 6937,8072 6937,6934 6981,6977 8031,6977 8031,8028 6981,8028 6981,6977 "/>
       <polygon id="_275" class="fil47" points="6959,6955 8053,6955 8053,8050 6959,8050 6959,6955 7003,6999 8009,6999 8009,8006 7003,8006 7003,6999 "/>
       <polygon id="_276" class="fil47" points="6981,6977 8031,6977 8031,8028 6981,8028 6981,6977 7025,7021 7987,7021 7987,7984 7025,7984 7025,7021 "/>
       <polygon id="_277" class="fil47" points="7003,6999 8009,6999 8009,8006 7003,8006 7003,6999 7046,7043 7966,7043 7966,7962 7046,7962 7046,7043 "/>
       <polygon id="_278" class="fil47" points="7025,7021 7987,7021 7987,7984 7025,7984 7025,7021 7068,7065 7944,7065 7944,7940 7068,7940 7068,7065 "/>
       <polygon id="_279" class="fil47" points="7046,7043 7966,7043 7966,7962 7046,7962 7046,7043 7090,7087 7922,7087 7922,7918 7090,7918 7090,7087 "/>
       <polygon id="_280" class="fil47" points="7068,7065 7944,7065 7944,7940 7068,7940 7068,7065 7112,7109 7900,7109 7900,7897 7112,7897 7112,7109 "/>
       <polygon id="_281" class="fil47" points="7090,7087 7922,7087 7922,7918 7090,7918 7090,7087 7134,7131 7878,7131 7878,7875 7134,7875 7134,7131 "/>
       <polygon id="_282" class="fil47" points="7112,7109 7900,7109 7900,7897 7112,7897 7112,7109 7156,7152 7856,7152 7856,7853 7156,7853 7156,7152 "/>
       <polygon id="_283" class="fil47" points="7134,7131 7878,7131 7878,7875 7134,7875 7134,7131 7178,7174 7834,7174 7834,7831 7178,7831 7178,7174 "/>
       <polygon id="_284" class="fil47" points="7156,7152 7856,7152 7856,7853 7156,7853 7156,7152 7200,7196 7812,7196 7812,7809 7200,7809 7200,7196 "/>
       <polygon id="_285" class="fil47" points="7178,7174 7834,7174 7834,7831 7178,7831 7178,7174 7221,7218 7790,7218 7790,7787 7221,7787 7221,7218 "/>
       <polygon id="_286" class="fil47" points="7200,7196 7812,7196 7812,7809 7200,7809 7200,7196 7243,7240 7769,7240 7769,7765 7243,7765 7243,7240 "/>
       <polygon id="_287" class="fil47" points="7221,7218 7790,7218 7790,7787 7221,7787 7221,7218 7265,7262 7747,7262 7747,7743 7265,7743 7265,7262 "/>
       <polygon id="_288" class="fil47" points="7243,7240 7769,7240 7769,7765 7243,7765 7243,7240 7287,7284 7725,7284 7725,7721 7287,7721 7287,7284 "/>
       <polygon id="_289" class="fil47" points="7265,7262 7747,7262 7747,7743 7265,7743 7265,7262 7309,7306 7703,7306 7703,7700 7309,7700 7309,7306 "/>
       <polygon id="_290" class="fil47" points="7287,7284 7725,7284 7725,7721 7287,7721 7287,7284 7331,7328 7681,7328 7681,7678 7331,7678 7331,7328 "/>
       <polygon id="_291" class="fil47" points="7309,7306 7703,7306 7703,7700 7309,7700 7309,7306 7353,7349 7659,7349 7659,7656 7353,7656 7353,7349 "/>
       <polygon id="_292" class="fil47" points="7331,7328 7681,7328 7681,7678 7331,7678 7331,7328 7375,7371 7637,7371 7637,7634 7375,7634 7375,7371 "/>
       <polygon id="_293" class="fil47" points="7353,7349 7659,7349 7659,7656 7353,7656 7353,7349 7397,7393 7615,7393 7615,7612 7397,7612 7397,7393 "/>
       <polygon id="_294" class="fil47" points="7375,7371 7637,7371 7637,7634 7375,7634 7375,7371 7418,7415 7594,7415 7594,7590 7418,7590 7418,7415 "/>
       <polygon id="_295" class="fil47" points="7397,7393 7615,7393 7615,7612 7397,7612 7397,7393 7440,7437 7572,7437 7572,7568 7440,7568 7440,7437 "/>
       <polygon id="_296" class="fil47" points="7418,7415 7594,7415 7594,7590 7418,7590 7418,7415 7462,7459 7550,7459 7550,7546 7462,7546 7462,7459 "/>
       <polygon id="_297" class="fil47" points="7440,7437 7572,7437 7572,7568 7440,7568 7440,7437 7484,7481 7528,7481 7528,7524 7484,7524 7484,7481 "/>
       <polygon id="_298" class="fil47" points="7462,7459 7550,7459 7550,7546 7462,7546 7462,7459 7506,7503 7506,7503 7506,7503 7506,7503 7506,7503 "/>
       <polygon id="_299" class="fil47" points="7484,7481 7528,7481 7528,7524 7484,7524 "/>
      </g>
     </g>
     <path class="fil48" d="M2377 14068l10257 0c790,0 1437,-647 1437,-1437l0 -10257c0,-790 -647,-1437 -1437,-1437l-10257 0c-790,0 -1437,647 -1437,1437l0 10257c0,790 647,1437 1437,1437z"/>
    </g>
   </g>
  </g>
 </g>
 <g id="_x0020_1">
  <metadata id="CorelCorpID_1Corel-Layer"/>
  <g id="">
   <rect class="fil49" x="2981" y="3248" width="3847" height="5492" rx="1839" ry="1839"/>
   <circle class="fil50" cx="3550" cy="5244" r="327"/>
   <circle class="fil50" cx="4451" cy="5244" r="327"/>
   <circle class="fil50" cx="5371" cy="5244" r="327"/>
   <circle class="fil50" cx="6248" cy="5244" r="327"/>
   <circle class="fil50" cx="3550" cy="6122" r="327"/>
   <circle class="fil50" cx="4433" cy="6122" r="327"/>
   <circle class="fil50" cx="5353" cy="6122" r="327"/>
   <circle class="fil50" cx="6284" cy="6122" r="327"/>
   <circle class="fil51" cx="3550" cy="7005" r="327"/>
   <circle class="fil51" cx="4445" cy="7005" r="327"/>
   <circle class="fil51" cx="5353" cy="7005" r="327"/>
   <circle class="fil51" cx="6272" cy="7005" r="327"/>
  </g>
  <path class="fil52" d="M4923 11826c420,0 2008,-26 2008,-714 0,-327 -899,-472 -2008,-472 -1109,0 -2008,129 -2008,457 0,720 1538,729 2008,729z"/>
  <ellipse class="fil53" cx="4923" cy="11112" rx="2008" ry="593"/>
  <path class="fil54" d="M4396 9600l1018 0c262,0 477,215 477,477l0 740c0,617 -1972,547 -1972,0l0 -740c0,-262 215,-477 477,-477z"/>
  <path class="fil55" d="M4982 10114c880,-20 1702,-347 2376,-1279 288,-398 539,-798 572,-2425l0 0 0 -6c1,-74 2,-151 3,-230l-3 0 0 -157 -786 0 0 393 250 0c109,2229 -1350,3071 -2436,3076 -1566,7 -2670,-1515 -2528,-3091l299 0 0 -381 -792 0c0,589 -38,1274 90,1826 311,1337 1571,2305 2956,2274z"/>
  <path class="fil56 str0" d="M9487 5229c-3,-527 -78,-486 449,-103 859,629 1718,1258 2577,1887 635,465 652,316 31,776 -871,645 -1733,1291 -2607,1936 -515,380 -420,335 -423,-180l-26 -4317z"/>
 </g>
</svg>
