<?xml version="1.0" encoding="UTF-8"?>
<!DOCTYPE svg PUBLIC "-//W3C//DTD SVG 1.1//EN" "http://www.w3.org/Graphics/SVG/1.1/DTD/svg11.dtd">
<!-- Creator: CorelDRAW X6 -->
<svg xmlns="http://www.w3.org/2000/svg" xml:space="preserve" width="150px" height="150px" version="1.1" style="shape-rendering:geometricPrecision; text-rendering:geometricPrecision; image-rendering:optimizeQuality; fill-rule:evenodd; clip-rule:evenodd"
viewBox="0 0 15000 15000"
 xmlns:xlink="http://www.w3.org/1999/xlink">
 <defs>
  <style type="text/css">
   <![CDATA[
    .fil2 {fill:black}
    .fil3 {fill:#000059}
    .fil1 {fill:#1F1F1F}
    .fil4 {fill:#222323}
    .fil7 {fill:#2B2A29}
    .fil6 {fill:#303030}
    .fil5 {fill:#ACACAC}
    .fil8 {fill:#D40F0F}
    .fil0 {fill:url(#id0)}
   ]]>
  </style>
  <radialGradient id="id0" gradientUnits="objectBoundingBox" cx="50%" cy="50%" r="50%" fx="50%" fy="50%">
   <stop offset="0" style="stop-color:#9CD448"/>
   <stop offset="0.811765" style="stop-color:#9CD448"/>
   <stop offset="1" style="stop-color:#85BA3F"/>
  </radialGradient>
 </defs>
 <g id="Layer_x0020_1">
  <metadata id="CorelCorpID_0Corel-Layer"/>
  <path class="fil0" d="M2817 285l9362 0c1418,0 2569,1150 2569,2569l0 9362c0,1418 -1150,2569 -2569,2569l-9362 0c-1418,0 -2569,-1150 -2569,-2569l0 -9362c0,-1418 1150,-2569 2569,-2569z"/>
 </g>
 <g id="робот">
  <metadata id="CorelCorpID_1Corel-Layer"/>
  <g id="_127330576">
   <path class="fil1" d="M10127 13894l-4924 0c-228,0 -413,-149 -413,-332l0 -7510c0,-184 185,-332 413,-332l4924 0c228,0 413,149 413,332l0 7510c0,184 -185,332 -413,332z"/>
   <rect class="fil2" x="5090" y="6019" width="5150" height="7575"/>
   <rect class="fil3" x="6305" y="8223" width="2720" height="3842"/>
   <g id="_395079184">
    <path id="_248793704" class="fil4" d="M9852 10454l-276 0c-89,0 -162,-73 -162,-162l0 -276c0,-89 73,-162 162,-162l276 0c89,0 162,73 162,162l0 276c0,89 -73,162 -162,162z"/>
    <path id="_248793464" class="fil5" d="M9925 10384l-276 0c-89,0 -162,-73 -162,-162l0 -276c0,-89 73,-162 162,-162l276 0c89,0 162,73 162,162l0 276c0,89 -73,162 -162,162z"/>
   </g>
   <path class="fil6" d="M9876 10419l-250 0c-97,0 -175,-78 -175,-175l0 -250c0,-97 78,-175 175,-175l250 0c97,0 175,78 175,175l0 250c0,97 -78,175 -175,175z"/>
   <g id="_395078896">
    <path id="_248794832" class="fil4" d="M5675 10454l-276 0c-89,0 -162,-73 -162,-162l0 -276c0,-89 73,-162 162,-162l276 0c89,0 162,73 162,162l0 276c0,89 -73,162 -162,162z"/>
    <path id="_248795072" class="fil5" d="M5747 10384l-276 0c-89,0 -162,-73 -162,-162l0 -276c0,-89 73,-162 162,-162l276 0c89,0 162,73 162,162l0 276c0,89 -73,162 -162,162z"/>
   </g>
   <path class="fil6" d="M5698 10419l-250 0c-97,0 -175,-78 -175,-175l0 -250c0,-97 78,-175 175,-175l250 0c97,0 175,78 175,175l0 250c0,97 -78,175 -175,175z"/>
   <g id="_395078608">
    <path id="_248794520" class="fil4" d="M5675 9704l-276 0c-89,0 -162,-73 -162,-162l0 -276c0,-89 73,-162 162,-162l276 0c89,0 162,73 162,162l0 276c0,89 -73,162 -162,162z"/>
    <path id="_248794760" class="fil5" d="M5747 9634l-276 0c-89,0 -162,-73 -162,-162l0 -276c0,-89 73,-162 162,-162l276 0c89,0 162,73 162,162l0 276c0,89 -73,162 -162,162z"/>
   </g>
   <path class="fil6" d="M5698 9669l-250 0c-97,0 -175,-78 -175,-175l0 -250c0,-97 78,-175 175,-175l250 0c97,0 175,78 175,175l0 250c0,97 -78,175 -175,175z"/>
   <g id="_395078320">
    <path id="_248794208" class="fil4" d="M5675 8954l-276 0c-89,0 -162,-73 -162,-162l0 -276c0,-89 73,-162 162,-162l276 0c89,0 162,73 162,162l0 276c0,89 -73,162 -162,162z"/>
    <path id="_248794448" class="fil5" d="M5747 8884l-276 0c-89,0 -162,-73 -162,-162l0 -276c0,-89 73,-162 162,-162l276 0c89,0 162,73 162,162l0 276c0,89 -73,162 -162,162z"/>
   </g>
   <path class="fil6" d="M5698 8919l-250 0c-97,0 -175,-78 -175,-175l0 -250c0,-97 78,-175 175,-175l250 0c97,0 175,78 175,175l0 250c0,97 -78,175 -175,175z"/>
   <g id="_395078032">
    <path id="_248795144" class="fil4" d="M5675 11604l-276 0c-89,0 -162,-73 -162,-162l0 -276c0,-89 73,-162 162,-162l276 0c89,0 162,73 162,162l0 276c0,89 -73,162 -162,162z"/>
    <path id="_248795384" class="fil5" d="M5747 11534l-276 0c-89,0 -162,-73 -162,-162l0 -276c0,-89 73,-162 162,-162l276 0c89,0 162,73 162,162l0 276c0,89 -73,162 -162,162z"/>
   </g>
   <path class="fil6" d="M5698 11569l-250 0c-97,0 -175,-78 -175,-175l0 -250c0,-97 78,-175 175,-175l250 0c97,0 175,78 175,175l0 250c0,97 -78,175 -175,175z"/>
   <g id="_395077744">
    <path id="_248793320" class="fil4" d="M9852 8954l-276 0c-89,0 -162,-73 -162,-162l0 -276c0,-89 73,-162 162,-162l276 0c89,0 162,73 162,162l0 276c0,89 -73,162 -162,162z"/>
    <path id="_248794088" class="fil5" d="M9925 8884l-276 0c-89,0 -162,-73 -162,-162l0 -276c0,-89 73,-162 162,-162l276 0c89,0 162,73 162,162l0 276c0,89 -73,162 -162,162z"/>
   </g>
   <path class="fil6" d="M9876 8919l-250 0c-97,0 -175,-78 -175,-175l0 -250c0,-97 78,-175 175,-175l250 0c97,0 175,78 175,175l0 250c0,97 -78,175 -175,175z"/>
   <g id="_395077456">
    <path id="_248793920" class="fil4" d="M9852 9704l-276 0c-89,0 -162,-73 -162,-162l0 -276c0,-89 73,-162 162,-162l276 0c89,0 162,73 162,162l0 276c0,89 -73,162 -162,162z"/>
    <path id="_248793776" class="fil5" d="M9925 9634l-276 0c-89,0 -162,-73 -162,-162l0 -276c0,-89 73,-162 162,-162l276 0c89,0 162,73 162,162l0 276c0,89 -73,162 -162,162z"/>
   </g>
   <path class="fil6" d="M9876 9669l-250 0c-97,0 -175,-78 -175,-175l0 -250c0,-97 78,-175 175,-175l250 0c97,0 175,78 175,175l0 250c0,97 -78,175 -175,175z"/>
   <path class="fil6" d="M4578 11422l0 1941c0,292 -237,529 -529,529l-241 0c-292,0 -529,-237 -529,-529l0 -1941c0,-292 237,-529 529,-529l241 0c292,0 529,237 529,529z"/>
   <path class="fil6" d="M12053 11422l0 1941c0,292 -237,529 -529,529l-241 0c-292,0 -529,-237 -529,-529l0 -1941c0,-292 237,-529 529,-529l241 0c292,0 529,237 529,529z"/>
   <rect class="fil7" transform="matrix(2.64845E-014 0.999999 -0.999999 2.64845E-014 10754.1 12267.2)" width="250" height="215"/>
   <rect class="fil7" transform="matrix(2.64845E-014 0.999999 -0.999999 2.64845E-014 4792.79 12267.2)" width="250" height="215"/>
  </g>
  <path class="fil8" d="M2870 5728c82,-5827 9391,-5555 9459,-69l801 447 -2068 307c-233,-635 -381,-1170 -614,-1805l765 427c-343,-3467 -6833,-3540 -7142,22l671 -375c-233,635 -381,1170 -614,1805l-2068 -307 809 -452z"/>
 </g>
</svg>
