<?xml version="1.0" encoding="UTF-8"?>
<!DOCTYPE svg PUBLIC "-//W3C//DTD SVG 1.1//EN" "http://www.w3.org/Graphics/SVG/1.1/DTD/svg11.dtd">
<!-- Creator: CorelDRAW X6 -->
<svg xmlns="http://www.w3.org/2000/svg" xml:space="preserve" width="150px" height="150px" version="1.1" style="shape-rendering:geometricPrecision; text-rendering:geometricPrecision; image-rendering:optimizeQuality; fill-rule:evenodd; clip-rule:evenodd"
viewBox="0 0 15000 15000"
 xmlns:xlink="http://www.w3.org/1999/xlink">
 <defs>
  <style type="text/css">
   <![CDATA[
    .str0 {stroke:#E6E6E6;stroke-width:79.375}
    .fil1 {fill:url(#id0)}
    .fil0 {fill:url(#id1)}
   ]]>
  </style>
  <linearGradient id="id0" gradientUnits="userSpaceOnUse" x1="7434.6" y1="12509.2" x2="7434.6" y2="2302.03">
   <stop offset="0" style="stop-color:#999999"/>
   <stop offset="0.4" style="stop-color:#E6E6E6"/>
   <stop offset="1" style="stop-color:white"/>
  </linearGradient>
  <radialGradient id="id1" gradientUnits="objectBoundingBox" cx="50%" cy="50%" r="50%" fx="50%" fy="50%">
   <stop offset="0" style="stop-color:#906BB3"/>
   <stop offset="0.619608" style="stop-color:#906BB3"/>
   <stop offset="1" style="stop-color:#684A83"/>
  </radialGradient>
 </defs>
 <g id="Layer_x0020_1">
  <metadata id="CorelCorpID_0Corel-Layer"/>
  <path class="fil0" d="M2817 285l9362 0c1418,0 2569,1150 2569,2569l0 9362c0,1418 -1150,2569 -2569,2569l-9362 0c-1418,0 -2569,-1150 -2569,-2569l0 -9362c0,-1418 1150,-2569 2569,-2569z"/>
  <path class="fil1 str0" d="M9620 4189c557,290 1548,940 1677,1931 68,523 -92,1012 -134,1047 -56,47 -339,-351 -651,-616 -564,-480 -1374,-1091 -2023,-1279l0 4662c0,21 -2,42 -7,61 9,513 -126,1246 -579,1661 -924,846 -2146,852 -2666,666 -1733,-621 -1457,-2045 -51,-2755 766,-387 1756,-401 2566,-189l0 -6790c0,-158 129,-287 287,-287l164 0c158,0 287,129 287,287l0 750c146,163 415,476 1131,850z"/>
 </g>
</svg>
