<?xml version="1.0" encoding="UTF-8"?>
<!DOCTYPE svg PUBLIC "-//W3C//DTD SVG 1.1//EN" "http://www.w3.org/Graphics/SVG/1.1/DTD/svg11.dtd">
<!-- Creator: CorelDRAW X6 -->
<svg xmlns="http://www.w3.org/2000/svg" xml:space="preserve" width="150px" height="150px" version="1.1" style="shape-rendering:geometricPrecision; text-rendering:geometricPrecision; image-rendering:optimizeQuality; fill-rule:evenodd; clip-rule:evenodd"
viewBox="0 0 15000 15000"
 xmlns:xlink="http://www.w3.org/1999/xlink">
 <defs>
  <style type="text/css">
   <![CDATA[
    .str0 {stroke:#CCCCCC;stroke-width:127}
    .fil2 {fill:url(#id0)}
    .fil1 {fill:url(#id1)}
    .fil0 {fill:url(#id2)}
   ]]>
  </style>
  <linearGradient id="id0" gradientUnits="userSpaceOnUse" x1="7920.81" y1="12731.4" x2="10024.7" y2="2817.48">
   <stop offset="0" style="stop-color:#B3B3B3"/>
   <stop offset="1" style="stop-color:#ADADAD"/>
  </linearGradient>
  <linearGradient id="id1" gradientUnits="userSpaceOnUse" x1="7150.9" y1="8757.51" x2="7512.92" y2="6389.82">
   <stop offset="0" style="stop-color:#E6E6E6"/>
   <stop offset="0.34902" style="stop-color:#CCCCCC"/>
   <stop offset="1" style="stop-color:#B3B3B3"/>
  </linearGradient>
  <radialGradient id="id2" gradientUnits="objectBoundingBox" cx="50%" cy="50%" r="50%" fx="50%" fy="50%">
   <stop offset="0" style="stop-color:#5C9C7C"/>
   <stop offset="0.701961" style="stop-color:#5C9C7C"/>
   <stop offset="1" style="stop-color:#518068"/>
  </radialGradient>
 </defs>
 <g id="Layer_x0020_1">
  <metadata id="CorelCorpID_0Corel-Layer"/>
  <path class="fil0" d="M2817 285l9362 0c1418,0 2569,1150 2569,2569l0 9362c0,1418 -1150,2569 -2569,2569l-9362 0c-1418,0 -2569,-1150 -2569,-2569l0 -9362c0,-1418 1150,-2569 2569,-2569z"/>
  <g id="clearScreenBlock.cdr">
   <path class="fil1 str0" d="M7165 2575l1739 251c1033,149 1756,1116 1607,2149l-864 5989c-149,1033 -1116,1756 -2149,1607l-1739 -251c-1033,-149 -1756,-1116 -1607,-2149l864 -5989c149,-1033 1116,-1756 2149,-1607z"/>
   <path class="fil2 str0" d="M8521 2775c298,46 607,66 952,221 1102,493 1343,1023 726,5002 -494,3184 -628,4212 -1852,4518 -451,113 -1245,7 -1243,-6 8,-47 1392,-347 1699,-1508 245,-926 305,-1330 581,-3029 77,-471 460,-2711 357,-3550 -148,-1207 -1256,-1654 -1221,-1648z"/>
  </g>
 </g>
</svg>
