<?xml version="1.0" encoding="UTF-8"?>
<!DOCTYPE svg PUBLIC "-//W3C//DTD SVG 1.1//EN" "http://www.w3.org/Graphics/SVG/1.1/DTD/svg11.dtd">
<!-- Creator: CorelDRAW X6 -->
<svg xmlns="http://www.w3.org/2000/svg" xml:space="preserve" width="150px" height="150px" version="1.1" style="shape-rendering:geometricPrecision; text-rendering:geometricPrecision; image-rendering:optimizeQuality; fill-rule:evenodd; clip-rule:evenodd"
viewBox="0 0 15000 15000"
 xmlns:xlink="http://www.w3.org/1999/xlink">
 <defs>
  <style type="text/css">
   <![CDATA[
    .fil1 {fill:#C70A17}
    .fil2 {fill:url(#id0)}
    .fil0 {fill:url(#id1)}
   ]]>
  </style>
  <linearGradient id="id0" gradientUnits="userSpaceOnUse" x1="6507.02" y1="13558.2" x2="6507.02" y2="1804.12">
   <stop offset="0" style="stop-color:gray"/>
   <stop offset="1" style="stop-color:#B3B3B3"/>
  </linearGradient>
  <radialGradient id="id1" gradientUnits="objectBoundingBox" cx="50%" cy="50%" r="50%" fx="50%" fy="50%">
   <stop offset="0" style="stop-color:yellow"/>
   <stop offset="0.74902" style="stop-color:yellow"/>
   <stop offset="1" style="stop-color:#E6DA33"/>
  </radialGradient>
 </defs>
 <g id="Layer_x0020_1">
  <metadata id="CorelCorpID_0Corel-Layer"/>
  <path class="fil0" d="M2824 264l9430 0c1429,0 2587,1159 2587,2587l0 9430c0,1429 -1159,2587 -2587,2587l-9430 0c-1429,0 -2587,-1159 -2587,-2588l0 -9430c0,-1429 1159,-2587 2588,-2587z"/>
  <rect class="fil1" x="812" y="9916" width="635" height="2364"/>
  <path class="fil2" d="M237 2896c3,-9 -4,2318 1,2318 6501,6 10215,-706 10142,2373 -71,3001 -2733,2414 -6187,2469l0 -1402 -2734 2505 2734 2399 0 -1225c3409,107 8587,466 8533,-4858 -58,-5672 -6330,-4491 -12489,-4579z"/>
 </g>
</svg>
