<?xml version="1.0" encoding="UTF-8"?>
<!DOCTYPE svg PUBLIC "-//W3C//DTD SVG 1.1//EN" "http://www.w3.org/Graphics/SVG/1.1/DTD/svg11.dtd">
<!-- Creator: CorelDRAW X6 -->
<svg xmlns="http://www.w3.org/2000/svg" xml:space="preserve" width="100px" height="100px" version="1.1" style="shape-rendering:geometricPrecision; text-rendering:geometricPrecision; image-rendering:optimizeQuality; fill-rule:evenodd; clip-rule:evenodd"
viewBox="0 0 10000 10000"
 xmlns:xlink="http://www.w3.org/1999/xlink">
 <defs>
  <style type="text/css">
   <![CDATA[
    .str2 {stroke:#333333;stroke-width:105.833}
    .str1 {stroke:#E30909;stroke-width:105.833}
    .str0 {stroke:black;stroke-width:281.94}
    .fil0 {fill:#D1C313}
    .fil1 {fill:#D2C413}
    .fil2 {fill:#D3C513}
    .fil3 {fill:#D4C513}
    .fil4 {fill:#D4C612}
    .fil5 {fill:#D5C712}
    .fil6 {fill:#D6C712}
    .fil7 {fill:#D7C812}
    .fil8 {fill:#D7C912}
    .fil9 {fill:#D8CA11}
    .fil10 {fill:#D9CA11}
    .fil11 {fill:#DACB11}
    .fil12 {fill:#DACC11}
    .fil13 {fill:#DBCC11}
    .fil14 {fill:#DCCD10}
    .fil15 {fill:#DDCE10}
    .fil16 {fill:#DECF10}
    .fil17 {fill:#DFD010}
    .fil18 {fill:#E0D10F}
    .fil19 {fill:#E1D20F}
    .fil20 {fill:#E2D30F}
    .fil21 {fill:#E3D30F}
    .fil22 {fill:#E3D40E}
    .fil23 {fill:#E4D50E}
    .fil24 {fill:#E5D60E}
    .fil25 {fill:#E6D60E}
    .fil26 {fill:#E7D70E}
    .fil27 {fill:#E7D80D}
    .fil28 {fill:#E8D80D}
    .fil29 {fill:#E9D90D}
    .fil30 {fill:#EADA0D}
    .fil31 {fill:#EBDB0C}
    .fil32 {fill:#ECDC0C}
    .fil33 {fill:#EDDD0C}
    .fil34 {fill:#EEDE0C}
    .fil35 {fill:#EFDF0B}
    .fil36 {fill:#F0DF0B}
    .fil37 {fill:#F0E00B}
    .fil38 {fill:#F1E10B}
    .fil39 {fill:#F2E10B}
    .fil40 {fill:#F3E20A}
    .fil41 {fill:#F3E30A}
    .fil42 {fill:#F4E40A}
    .fil43 {fill:#F5E40A}
    .fil44 {fill:#F6E50A}
    .fil45 {fill:#F6E609}
    .fil46 {fill:#F7E609}
    .fil47 {fill:#F8E709}
    .fil48 {fill:#F9E809}
    .fil49 {fill:#FAE908}
    .fil50 {fill:url(#id1)}
    .fil52 {fill:url(#id2)}
    .fil51 {fill:url(#id3)}
   ]]>
  </style>
     <clipPath id="id0">
      <path d="M1613 9377l6795 0c524,0 952,-428 952,-952l0 -6795c0,-524 -428,-952 -952,-952l-6795 0c-524,0 -952,428 -952,952l0 6795c0,524 428,952 952,952z"/>
     </clipPath>
  <linearGradient id="id1" gradientUnits="userSpaceOnUse" x1="2893.45" y1="5058.4" x2="7156.13" y2="5058.4">
   <stop offset="0" style="stop-color:#333333"/>
   <stop offset="0.129412" style="stop-color:black"/>
   <stop offset="0.709804" style="stop-color:#1A1A1A"/>
   <stop offset="0.831373" style="stop-color:#333333"/>
   <stop offset="0.909804" style="stop-color:#666666"/>
   <stop offset="1" style="stop-color:#1A1A1A"/>
  </linearGradient>
  <linearGradient id="id2" gradientUnits="userSpaceOnUse" x1="5753.59" y1="2559.5" x2="4356.02" y2="4555.42">
   <stop offset="0" style="stop-color:black"/>
   <stop offset="0.678431" style="stop-color:#262626"/>
   <stop offset="1" style="stop-color:#999999"/>
  </linearGradient>
  <radialGradient id="id3" gradientUnits="objectBoundingBox" cx="67%" cy="26%" r="30%" fx="67%" fy="26%">
   <stop offset="0" style="stop-color:#FC9494"/>
   <stop offset="1" style="stop-color:red"/>
  </radialGradient>
 </defs>
 <g id="Layer_x0020_1">
  <metadata id="CorelCorpID_0Corel-Layer"/>
  <g id="_343980560">
   <rect class="fil0" x="71" y="87" width="9880" height="9880" rx="1404" ry="1404"/>
   <g>
    <g style="clip-path:url(#id0)">
     <polygon class="fil0" points="661,678 9360,678 9360,9377 661,9377 661,678 690,707 9331,707 9331,9348 690,9348 690,707 "/>
     <polygon id="1" class="fil0" points="676,692 9346,692 9346,9362 676,9362 676,692 705,721 9317,721 9317,9333 705,9333 705,721 "/>
     <polygon id="2" class="fil1" points="690,707 9331,707 9331,9348 690,9348 690,707 719,736 9302,736 9302,9319 719,9319 719,736 "/>
     <polygon id="3" class="fil2" points="705,721 9317,721 9317,9333 705,9333 705,721 734,750 9288,750 9288,9304 734,9304 734,750 "/>
     <polygon id="4" class="fil3" points="719,736 9302,736 9302,9319 719,9319 719,736 748,765 9273,765 9273,9290 748,9290 748,765 "/>
     <polygon id="5" class="fil4" points="734,750 9288,750 9288,9304 734,9304 734,750 763,779 9259,779 9259,9275 763,9275 763,779 "/>
     <polygon id="6" class="fil5" points="748,765 9273,765 9273,9290 748,9290 748,765 777,794 9244,794 9244,9261 777,9261 777,794 "/>
     <polygon id="7" class="fil6" points="763,779 9259,779 9259,9275 763,9275 763,779 792,808 9230,808 9230,9246 792,9246 792,808 "/>
     <polygon id="8" class="fil7" points="777,794 9244,794 9244,9261 777,9261 777,794 806,823 9215,823 9215,9232 806,9232 806,823 "/>
     <polygon id="9" class="fil8" points="792,808 9230,808 9230,9246 792,9246 792,808 821,837 9201,837 9201,9217 821,9217 821,837 "/>
     <polygon id="10" class="fil9" points="806,823 9215,823 9215,9232 806,9232 806,823 835,852 9186,852 9186,9203 835,9203 835,852 "/>
     <polygon id="11" class="fil10" points="821,837 9201,837 9201,9217 821,9217 821,837 850,866 9172,866 9172,9188 850,9188 850,866 "/>
     <polygon id="12" class="fil11" points="835,852 9186,852 9186,9203 835,9203 835,852 864,881 9157,881 9157,9174 864,9174 864,881 "/>
     <polygon id="13" class="fil12" points="850,866 9172,866 9172,9188 850,9188 850,866 879,895 9143,895 9143,9159 879,9159 879,895 "/>
     <polygon id="14" class="fil13" points="864,881 9157,881 9157,9174 864,9174 864,881 893,910 9128,910 9128,9145 893,9145 893,910 "/>
     <polygon id="15" class="fil14" points="879,895 9143,895 9143,9159 879,9159 879,895 908,924 9114,924 9114,9130 908,9130 908,924 "/>
     <polygon id="16" class="fil15" points="893,910 9128,910 9128,9145 893,9145 893,910 922,939 9099,939 9099,9116 922,9116 922,939 "/>
     <polygon id="17" class="fil15" points="908,924 9114,924 9114,9130 908,9130 908,924 937,953 9085,953 9085,9101 937,9101 937,953 "/>
     <polygon id="18" class="fil16" points="922,939 9099,939 9099,9116 922,9116 922,939 951,968 9070,968 9070,9087 951,9087 951,968 "/>
     <polygon id="19" class="fil17" points="937,953 9085,953 9085,9101 937,9101 937,953 966,982 9056,982 9056,9072 966,9072 966,982 "/>
     <polygon id="20" class="fil18" points="951,968 9070,968 9070,9087 951,9087 951,968 980,997 9041,997 9041,9058 980,9058 980,997 "/>
     <polygon id="21" class="fil18" points="966,982 9056,982 9056,9072 966,9072 966,982 995,1011 9027,1011 9027,9043 995,9043 995,1011 "/>
     <polygon id="22" class="fil19" points="980,997 9041,997 9041,9058 980,9058 980,997 1009,1026 9012,1026 9012,9029 1009,9029 1009,1026 "/>
     <polygon id="23" class="fil20" points="995,1011 9027,1011 9027,9043 995,9043 995,1011 1024,1040 8998,1040 8998,9014 1024,9014 1024,1040 "/>
     <polygon id="24" class="fil21" points="1009,1026 9012,1026 9012,9029 1009,9029 1009,1026 1038,1055 8983,1055 8983,9000 1038,9000 1038,1055 "/>
     <polygon id="25" class="fil22" points="1024,1040 8998,1040 8998,9014 1024,9014 1024,1040 1053,1069 8969,1069 8969,8985 1053,8985 1053,1069 "/>
     <polygon id="26" class="fil23" points="1038,1055 8983,1055 8983,9000 1038,9000 1038,1055 1067,1084 8954,1084 8954,8971 1067,8971 1067,1084 "/>
     <polygon id="27" class="fil24" points="1053,1069 8969,1069 8969,8985 1053,8985 1053,1069 1082,1098 8940,1098 8940,8956 1082,8956 1082,1098 "/>
     <polygon id="28" class="fil25" points="1067,1084 8954,1084 8954,8971 1067,8971 1067,1084 1096,1113 8925,1113 8925,8942 1096,8942 1096,1113 "/>
     <polygon id="29" class="fil26" points="1082,1098 8940,1098 8940,8956 1082,8956 1082,1098 1111,1127 8911,1127 8911,8927 1111,8927 1111,1127 "/>
     <polygon id="30" class="fil27" points="1096,1113 8925,1113 8925,8942 1096,8942 1096,1113 1125,1142 8896,1142 8896,8913 1125,8913 1125,1142 "/>
     <polygon id="31" class="fil28" points="1111,1127 8911,1127 8911,8927 1111,8927 1111,1127 1140,1156 8882,1156 8882,8898 1140,8898 1140,1156 "/>
     <polygon id="32" class="fil29" points="1125,1142 8896,1142 8896,8913 1125,8913 1125,1142 1154,1171 8867,1171 8867,8884 1154,8884 1154,1171 "/>
     <polygon id="33" class="fil30" points="1140,1156 8882,1156 8882,8898 1140,8898 1140,1156 1169,1185 8853,1185 8853,8869 1169,8869 1169,1185 "/>
     <polygon id="34" class="fil30" points="1154,1171 8867,1171 8867,8884 1154,8884 1154,1171 1183,1200 8838,1200 8838,8855 1183,8855 1183,1200 "/>
     <polygon id="35" class="fil31" points="1169,1185 8853,1185 8853,8869 1169,8869 1169,1185 1198,1214 8824,1214 8824,8840 1198,8840 1198,1214 "/>
     <polygon id="36" class="fil32" points="1183,1200 8838,1200 8838,8855 1183,8855 1183,1200 1212,1229 8809,1229 8809,8826 1212,8826 1212,1229 "/>
     <polygon id="37" class="fil33" points="1198,1214 8824,1214 8824,8840 1198,8840 1198,1214 1227,1243 8795,1243 8795,8811 1227,8811 1227,1243 "/>
     <polygon id="38" class="fil33" points="1212,1229 8809,1229 8809,8826 1212,8826 1212,1229 1241,1258 8780,1258 8780,8797 1241,8797 1241,1258 "/>
     <polygon id="39" class="fil34" points="1227,1243 8795,1243 8795,8811 1227,8811 1227,1243 1256,1272 8766,1272 8766,8782 1256,8782 1256,1272 "/>
     <polygon id="40" class="fil35" points="1241,1258 8780,1258 8780,8797 1241,8797 1241,1258 1270,1287 8751,1287 8751,8768 1270,8768 1270,1287 "/>
     <polygon id="41" class="fil36" points="1256,1272 8766,1272 8766,8782 1256,8782 1256,1272 1285,1301 8737,1301 8737,8753 1285,8753 1285,1301 "/>
     <polygon id="42" class="fil37" points="1270,1287 8751,1287 8751,8768 1270,8768 1270,1287 1299,1316 8722,1316 8722,8739 1299,8739 1299,1316 "/>
     <polygon id="43" class="fil38" points="1285,1301 8737,1301 8737,8753 1285,8753 1285,1301 1314,1330 8708,1330 8708,8724 1314,8724 1314,1330 "/>
     <polygon id="44" class="fil39" points="1299,1316 8722,1316 8722,8739 1299,8739 1299,1316 1328,1345 8693,1345 8693,8710 1328,8710 1328,1345 "/>
     <polygon id="45" class="fil40" points="1314,1330 8708,1330 8708,8724 1314,8724 1314,1330 1343,1359 8679,1359 8679,8695 1343,8695 1343,1359 "/>
     <polygon id="46" class="fil41" points="1328,1345 8693,1345 8693,8710 1328,8710 1328,1345 1357,1374 8664,1374 8664,8681 1357,8681 1357,1374 "/>
     <polygon id="47" class="fil42" points="1343,1359 8679,1359 8679,8695 1343,8695 1343,1359 1372,1388 8650,1388 8650,8666 1372,8666 1372,1388 "/>
     <polygon id="48" class="fil43" points="1357,1374 8664,1374 8664,8681 1357,8681 1357,1374 1386,1403 8635,1403 8635,8652 1386,8652 1386,1403 "/>
     <polygon id="49" class="fil44" points="1372,1388 8650,1388 8650,8666 1372,8666 1372,1388 1401,1417 8621,1417 8621,8637 1401,8637 1401,1417 "/>
     <polygon id="50" class="fil45" points="1386,1403 8635,1403 8635,8652 1386,8652 1386,1403 1415,1432 8606,1432 8606,8623 1415,8623 1415,1432 "/>
     <polygon id="51" class="fil46" points="1401,1417 8621,1417 8621,8637 1401,8637 1401,1417 1430,1446 8592,1446 8592,8608 1430,8608 1430,1446 "/>
     <polygon id="52" class="fil47" points="1415,1432 8606,1432 8606,8623 1415,8623 1415,1432 1444,1461 8577,1461 8577,8594 1444,8594 1444,1461 "/>
     <polygon id="53" class="fil48" points="1430,1446 8592,1446 8592,8608 1430,8608 1430,1446 1459,1475 8563,1475 8563,8579 1459,8579 1459,1475 "/>
     <polygon id="54" class="fil49" points="1444,1461 8577,1461 8577,8594 1444,8594 1444,1461 1473,1490 8548,1490 8548,8565 1473,8565 1473,1490 "/>
     <polygon id="55" class="fil49" points="1459,1475 8563,1475 8563,8579 1459,8579 1459,1475 1488,1504 8534,1504 8534,8550 1488,8550 1488,1504 "/>
     <polygon id="56" class="fil49" points="1473,1490 8548,1490 8548,8565 1473,8565 1473,1490 1502,1519 8519,1519 8519,8536 1502,8536 1502,1519 "/>
     <polygon id="57" class="fil49" points="1488,1504 8534,1504 8534,8550 1488,8550 1488,1504 1517,1533 8505,1533 8505,8521 1517,8521 1517,1533 "/>
     <polygon id="58" class="fil49" points="1502,1519 8519,1519 8519,8536 1502,8536 1502,1519 1531,1548 8490,1548 8490,8507 1531,8507 1531,1548 "/>
     <polygon id="59" class="fil49" points="1517,1533 8505,1533 8505,8521 1517,8521 1517,1533 1546,1562 8476,1562 8476,8492 1546,8492 1546,1562 "/>
     <polygon id="60" class="fil49" points="1531,1548 8490,1548 8490,8507 1531,8507 1531,1548 1560,1577 8461,1577 8461,8478 1560,8478 1560,1577 "/>
     <polygon id="61" class="fil49" points="1546,1562 8476,1562 8476,8492 1546,8492 1546,1562 1575,1591 8447,1591 8447,8463 1575,8463 1575,1591 "/>
     <polygon id="62" class="fil49" points="1560,1577 8461,1577 8461,8478 1560,8478 1560,1577 1589,1606 8432,1606 8432,8449 1589,8449 1589,1606 "/>
     <polygon id="63" class="fil49" points="1575,1591 8447,1591 8447,8463 1575,8463 1575,1591 1604,1620 8418,1620 8418,8434 1604,8434 1604,1620 "/>
     <polygon id="64" class="fil49" points="1589,1606 8432,1606 8432,8449 1589,8449 1589,1606 1618,1635 8403,1635 8403,8420 1618,8420 1618,1635 "/>
     <polygon id="65" class="fil49" points="1604,1620 8418,1620 8418,8434 1604,8434 1604,1620 1633,1649 8389,1649 8389,8405 1633,8405 1633,1649 "/>
     <polygon id="66" class="fil49" points="1618,1635 8403,1635 8403,8420 1618,8420 1618,1635 1647,1664 8374,1664 8374,8391 1647,8391 1647,1664 "/>
     <polygon id="67" class="fil49" points="1633,1649 8389,1649 8389,8405 1633,8405 1633,1649 1662,1678 8360,1678 8360,8376 1662,8376 1662,1678 "/>
     <polygon id="68" class="fil49" points="1647,1664 8374,1664 8374,8391 1647,8391 1647,1664 1676,1693 8345,1693 8345,8362 1676,8362 1676,1693 "/>
     <polygon id="69" class="fil49" points="1662,1678 8360,1678 8360,8376 1662,8376 1662,1678 1691,1707 8331,1707 8331,8347 1691,8347 1691,1707 "/>
     <polygon id="70" class="fil49" points="1676,1693 8345,1693 8345,8362 1676,8362 1676,1693 1705,1722 8316,1722 8316,8333 1705,8333 1705,1722 "/>
     <polygon id="71" class="fil49" points="1691,1707 8331,1707 8331,8347 1691,8347 1691,1707 1720,1736 8302,1736 8302,8318 1720,8318 1720,1736 "/>
     <polygon id="72" class="fil49" points="1705,1722 8316,1722 8316,8333 1705,8333 1705,1722 1734,1751 8287,1751 8287,8304 1734,8304 1734,1751 "/>
     <polygon id="73" class="fil49" points="1720,1736 8302,1736 8302,8318 1720,8318 1720,1736 1749,1765 8273,1765 8273,8289 1749,8289 1749,1765 "/>
     <polygon id="74" class="fil49" points="1734,1751 8287,1751 8287,8304 1734,8304 1734,1751 1763,1780 8258,1780 8258,8275 1763,8275 1763,1780 "/>
     <polygon id="75" class="fil49" points="1749,1765 8273,1765 8273,8289 1749,8289 1749,1765 1778,1794 8244,1794 8244,8260 1778,8260 1778,1794 "/>
     <polygon id="76" class="fil49" points="1763,1780 8258,1780 8258,8275 1763,8275 1763,1780 1792,1809 8229,1809 8229,8246 1792,8246 1792,1809 "/>
     <polygon id="77" class="fil49" points="1778,1794 8244,1794 8244,8260 1778,8260 1778,1794 1807,1823 8215,1823 8215,8231 1807,8231 1807,1823 "/>
     <polygon id="78" class="fil49" points="1792,1809 8229,1809 8229,8246 1792,8246 1792,1809 1821,1838 8200,1838 8200,8217 1821,8217 1821,1838 "/>
     <polygon id="79" class="fil49" points="1807,1823 8215,1823 8215,8231 1807,8231 1807,1823 1836,1852 8186,1852 8186,8202 1836,8202 1836,1852 "/>
     <polygon id="80" class="fil49" points="1821,1838 8200,1838 8200,8217 1821,8217 1821,1838 1850,1867 8171,1867 8171,8188 1850,8188 1850,1867 "/>
     <polygon id="81" class="fil49" points="1836,1852 8186,1852 8186,8202 1836,8202 1836,1852 1865,1881 8157,1881 8157,8173 1865,8173 1865,1881 "/>
     <polygon id="82" class="fil49" points="1850,1867 8171,1867 8171,8188 1850,8188 1850,1867 1879,1896 8142,1896 8142,8159 1879,8159 1879,1896 "/>
     <polygon id="83" class="fil49" points="1865,1881 8157,1881 8157,8173 1865,8173 1865,1881 1894,1910 8128,1910 8128,8144 1894,8144 1894,1910 "/>
     <polygon id="84" class="fil49" points="1879,1896 8142,1896 8142,8159 1879,8159 1879,1896 1908,1925 8113,1925 8113,8130 1908,8130 1908,1925 "/>
     <polygon id="85" class="fil49" points="1894,1910 8128,1910 8128,8144 1894,8144 1894,1910 1923,1939 8099,1939 8099,8115 1923,8115 1923,1939 "/>
     <polygon id="86" class="fil49" points="1908,1925 8113,1925 8113,8130 1908,8130 1908,1925 1937,1954 8084,1954 8084,8101 1937,8101 1937,1954 "/>
     <polygon id="87" class="fil49" points="1923,1939 8099,1939 8099,8115 1923,8115 1923,1939 1952,1968 8070,1968 8070,8086 1952,8086 1952,1968 "/>
     <polygon id="88" class="fil49" points="1937,1954 8084,1954 8084,8101 1937,8101 1937,1954 1966,1983 8055,1983 8055,8072 1966,8072 1966,1983 "/>
     <polygon id="89" class="fil49" points="1952,1968 8070,1968 8070,8086 1952,8086 1952,1968 1981,1997 8041,1997 8041,8057 1981,8057 1981,1997 "/>
     <polygon id="90" class="fil49" points="1966,1983 8055,1983 8055,8072 1966,8072 1966,1983 1995,2012 8026,2012 8026,8043 1995,8043 1995,2012 "/>
     <polygon id="91" class="fil49" points="1981,1997 8041,1997 8041,8057 1981,8057 1981,1997 2010,2026 8012,2026 8012,8028 2010,8028 2010,2026 "/>
     <polygon id="92" class="fil49" points="1995,2012 8026,2012 8026,8043 1995,8043 1995,2012 2024,2041 7997,2041 7997,8014 2024,8014 2024,2041 "/>
     <polygon id="93" class="fil49" points="2010,2026 8012,2026 8012,8028 2010,8028 2010,2026 2039,2055 7983,2055 7983,7999 2039,7999 2039,2055 "/>
     <polygon id="94" class="fil49" points="2024,2041 7997,2041 7997,8014 2024,8014 2024,2041 2053,2070 7968,2070 7968,7985 2053,7985 2053,2070 "/>
     <polygon id="95" class="fil49" points="2039,2055 7983,2055 7983,7999 2039,7999 2039,2055 2068,2084 7954,2084 7954,7970 2068,7970 2068,2084 "/>
     <polygon id="96" class="fil49" points="2053,2070 7968,2070 7968,7985 2053,7985 2053,2070 2082,2099 7939,2099 7939,7956 2082,7956 2082,2099 "/>
     <polygon id="97" class="fil49" points="2068,2084 7954,2084 7954,7970 2068,7970 2068,2084 2097,2113 7925,2113 7925,7941 2097,7941 2097,2113 "/>
     <polygon id="98" class="fil49" points="2082,2099 7939,2099 7939,7956 2082,7956 2082,2099 2111,2128 7910,2128 7910,7927 2111,7927 2111,2128 "/>
     <polygon id="99" class="fil49" points="2097,2113 7925,2113 7925,7941 2097,7941 2097,2113 2126,2142 7896,2142 7896,7912 2126,7912 2126,2142 "/>
     <polygon id="100" class="fil49" points="2111,2128 7910,2128 7910,7927 2111,7927 2111,2128 2140,2157 7881,2157 7881,7898 2140,7898 2140,2157 "/>
     <polygon id="101" class="fil49" points="2126,2142 7896,2142 7896,7912 2126,7912 2126,2142 2155,2171 7867,2171 7867,7883 2155,7883 2155,2171 "/>
     <polygon id="102" class="fil49" points="2140,2157 7881,2157 7881,7898 2140,7898 2140,2157 2169,2186 7852,2186 7852,7869 2169,7869 2169,2186 "/>
     <polygon id="103" class="fil49" points="2155,2171 7867,2171 7867,7883 2155,7883 2155,2171 2184,2200 7838,2200 7838,7854 2184,7854 2184,2200 "/>
     <polygon id="104" class="fil49" points="2169,2186 7852,2186 7852,7869 2169,7869 2169,2186 2198,2215 7823,2215 7823,7840 2198,7840 2198,2215 "/>
     <polygon id="105" class="fil49" points="2184,2200 7838,2200 7838,7854 2184,7854 2184,2200 2213,2229 7809,2229 7809,7825 2213,7825 2213,2229 "/>
     <polygon id="106" class="fil49" points="2198,2215 7823,2215 7823,7840 2198,7840 2198,2215 2227,2244 7794,2244 7794,7811 2227,7811 2227,2244 "/>
     <polygon id="107" class="fil49" points="2213,2229 7809,2229 7809,7825 2213,7825 2213,2229 2242,2258 7780,2258 7780,7796 2242,7796 2242,2258 "/>
     <polygon id="108" class="fil49" points="2227,2244 7794,2244 7794,7811 2227,7811 2227,2244 2256,2273 7765,2273 7765,7782 2256,7782 2256,2273 "/>
     <polygon id="109" class="fil49" points="2242,2258 7780,2258 7780,7796 2242,7796 2242,2258 2271,2287 7751,2287 7751,7767 2271,7767 2271,2287 "/>
     <polygon id="110" class="fil49" points="2256,2273 7765,2273 7765,7782 2256,7782 2256,2273 2285,2302 7736,2302 7736,7753 2285,7753 2285,2302 "/>
     <polygon id="111" class="fil49" points="2271,2287 7751,2287 7751,7767 2271,7767 2271,2287 2300,2316 7722,2316 7722,7738 2300,7738 2300,2316 "/>
     <polygon id="112" class="fil49" points="2285,2302 7736,2302 7736,7753 2285,7753 2285,2302 2314,2331 7707,2331 7707,7724 2314,7724 2314,2331 "/>
     <polygon id="113" class="fil49" points="2300,2316 7722,2316 7722,7738 2300,7738 2300,2316 2329,2345 7693,2345 7693,7709 2329,7709 2329,2345 "/>
     <polygon id="114" class="fil49" points="2314,2331 7707,2331 7707,7724 2314,7724 2314,2331 2343,2360 7678,2360 7678,7695 2343,7695 2343,2360 "/>
     <polygon id="115" class="fil49" points="2329,2345 7693,2345 7693,7709 2329,7709 2329,2345 2358,2374 7664,2374 7664,7680 2358,7680 2358,2374 "/>
     <polygon id="116" class="fil49" points="2343,2360 7678,2360 7678,7695 2343,7695 2343,2360 2372,2389 7649,2389 7649,7666 2372,7666 2372,2389 "/>
     <polygon id="117" class="fil49" points="2358,2374 7664,2374 7664,7680 2358,7680 2358,2374 2387,2403 7635,2403 7635,7651 2387,7651 2387,2403 "/>
     <polygon id="118" class="fil49" points="2372,2389 7649,2389 7649,7666 2372,7666 2372,2389 2401,2418 7620,2418 7620,7637 2401,7637 2401,2418 "/>
     <polygon id="119" class="fil49" points="2387,2403 7635,2403 7635,7651 2387,7651 2387,2403 2416,2432 7606,2432 7606,7622 2416,7622 2416,2432 "/>
     <polygon id="120" class="fil49" points="2401,2418 7620,2418 7620,7637 2401,7637 2401,2418 2430,2447 7591,2447 7591,7608 2430,7608 2430,2447 "/>
     <polygon id="121" class="fil49" points="2416,2432 7606,2432 7606,7622 2416,7622 2416,2432 2445,2461 7577,2461 7577,7593 2445,7593 2445,2461 "/>
     <polygon id="122" class="fil49" points="2430,2447 7591,2447 7591,7608 2430,7608 2430,2447 2459,2476 7562,2476 7562,7579 2459,7579 2459,2476 "/>
     <polygon id="123" class="fil49" points="2445,2461 7577,2461 7577,7593 2445,7593 2445,2461 2474,2490 7548,2490 7548,7564 2474,7564 2474,2490 "/>
     <polygon id="124" class="fil49" points="2459,2476 7562,2476 7562,7579 2459,7579 2459,2476 2488,2505 7533,2505 7533,7550 2488,7550 2488,2505 "/>
     <polygon id="125" class="fil49" points="2474,2490 7548,2490 7548,7564 2474,7564 2474,2490 2503,2519 7519,2519 7519,7535 2503,7535 2503,2519 "/>
     <polygon id="126" class="fil49" points="2488,2505 7533,2505 7533,7550 2488,7550 2488,2505 2517,2534 7504,2534 7504,7521 2517,7521 2517,2534 "/>
     <polygon id="127" class="fil49" points="2503,2519 7519,2519 7519,7535 2503,7535 2503,2519 2532,2548 7490,2548 7490,7506 2532,7506 2532,2548 "/>
     <polygon id="128" class="fil49" points="2517,2534 7504,2534 7504,7521 2517,7521 2517,2534 2546,2563 7475,2563 7475,7492 2546,7492 2546,2563 "/>
     <polygon id="129" class="fil49" points="2532,2548 7490,2548 7490,7506 2532,7506 2532,2548 2561,2577 7461,2577 7461,7477 2561,7477 2561,2577 "/>
     <polygon id="130" class="fil49" points="2546,2563 7475,2563 7475,7492 2546,7492 2546,2563 2575,2592 7446,2592 7446,7463 2575,7463 2575,2592 "/>
     <polygon id="131" class="fil49" points="2561,2577 7461,2577 7461,7477 2561,7477 2561,2577 2590,2606 7432,2606 7432,7448 2590,7448 2590,2606 "/>
     <polygon id="132" class="fil49" points="2575,2592 7446,2592 7446,7463 2575,7463 2575,2592 2604,2621 7417,2621 7417,7434 2604,7434 2604,2621 "/>
     <polygon id="133" class="fil49" points="2590,2606 7432,2606 7432,7448 2590,7448 2590,2606 2619,2635 7403,2635 7403,7419 2619,7419 2619,2635 "/>
     <polygon id="134" class="fil49" points="2604,2621 7417,2621 7417,7434 2604,7434 2604,2621 2633,2650 7388,2650 7388,7405 2633,7405 2633,2650 "/>
     <polygon id="135" class="fil49" points="2619,2635 7403,2635 7403,7419 2619,7419 2619,2635 2648,2664 7374,2664 7374,7390 2648,7390 2648,2664 "/>
     <polygon id="136" class="fil49" points="2633,2650 7388,2650 7388,7405 2633,7405 2633,2650 2662,2679 7359,2679 7359,7376 2662,7376 2662,2679 "/>
     <polygon id="137" class="fil49" points="2648,2664 7374,2664 7374,7390 2648,7390 2648,2664 2677,2693 7345,2693 7345,7361 2677,7361 2677,2693 "/>
     <polygon id="138" class="fil49" points="2662,2679 7359,2679 7359,7376 2662,7376 2662,2679 2691,2708 7330,2708 7330,7347 2691,7347 2691,2708 "/>
     <polygon id="139" class="fil49" points="2677,2693 7345,2693 7345,7361 2677,7361 2677,2693 2706,2722 7316,2722 7316,7332 2706,7332 2706,2722 "/>
     <polygon id="140" class="fil49" points="2691,2708 7330,2708 7330,7347 2691,7347 2691,2708 2720,2737 7301,2737 7301,7318 2720,7318 2720,2737 "/>
     <polygon id="141" class="fil49" points="2706,2722 7316,2722 7316,7332 2706,7332 2706,2722 2735,2751 7287,2751 7287,7303 2735,7303 2735,2751 "/>
     <polygon id="142" class="fil49" points="2720,2737 7301,2737 7301,7318 2720,7318 2720,2737 2749,2766 7272,2766 7272,7289 2749,7289 2749,2766 "/>
     <polygon id="143" class="fil49" points="2735,2751 7287,2751 7287,7303 2735,7303 2735,2751 2764,2780 7258,2780 7258,7274 2764,7274 2764,2780 "/>
     <polygon id="144" class="fil49" points="2749,2766 7272,2766 7272,7289 2749,7289 2749,2766 2778,2795 7243,2795 7243,7260 2778,7260 2778,2795 "/>
     <polygon id="145" class="fil49" points="2764,2780 7258,2780 7258,7274 2764,7274 2764,2780 2793,2809 7229,2809 7229,7245 2793,7245 2793,2809 "/>
     <polygon id="146" class="fil49" points="2778,2794 7243,2794 7243,7260 2778,7260 2778,2794 2807,2823 7215,2823 7215,7231 2807,7231 2807,2823 "/>
     <polygon id="147" class="fil49" points="2793,2809 7229,2809 7229,7245 2793,7245 2793,2809 2822,2838 7200,2838 7200,7216 2822,7216 2822,2838 "/>
     <polygon id="148" class="fil49" points="2807,2823 7215,2823 7215,7231 2807,7231 2807,2823 2836,2852 7186,2852 7186,7202 2836,7202 2836,2852 "/>
     <polygon id="149" class="fil49" points="2822,2838 7200,2838 7200,7216 2822,7216 2822,2838 2851,2867 7171,2867 7171,7187 2851,7187 2851,2867 "/>
     <polygon id="150" class="fil49" points="2836,2852 7186,2852 7186,7202 2836,7202 2836,2852 2865,2881 7157,2881 7157,7173 2865,7173 2865,2881 "/>
     <polygon id="151" class="fil49" points="2851,2867 7171,2867 7171,7187 2851,7187 2851,2867 2880,2896 7142,2896 7142,7158 2880,7158 2880,2896 "/>
     <polygon id="152" class="fil49" points="2865,2881 7157,2881 7157,7173 2865,7173 2865,2881 2894,2910 7128,2910 7128,7144 2894,7144 2894,2910 "/>
     <polygon id="153" class="fil49" points="2880,2896 7142,2896 7142,7158 2880,7158 2880,2896 2909,2925 7113,2925 7113,7129 2909,7129 2909,2925 "/>
     <polygon id="154" class="fil49" points="2894,2910 7128,2910 7128,7144 2894,7144 2894,2910 2923,2939 7099,2939 7099,7115 2923,7115 2923,2939 "/>
     <polygon id="155" class="fil49" points="2909,2925 7113,2925 7113,7129 2909,7129 2909,2925 2938,2954 7084,2954 7084,7100 2938,7100 2938,2954 "/>
     <polygon id="156" class="fil49" points="2923,2939 7099,2939 7099,7115 2923,7115 2923,2939 2952,2968 7070,2968 7070,7086 2952,7086 2952,2968 "/>
     <polygon id="157" class="fil49" points="2938,2954 7084,2954 7084,7100 2938,7100 2938,2954 2967,2983 7055,2983 7055,7071 2967,7071 2967,2983 "/>
     <polygon id="158" class="fil49" points="2952,2968 7070,2968 7070,7086 2952,7086 2952,2968 2981,2997 7041,2997 7041,7057 2981,7057 2981,2997 "/>
     <polygon id="159" class="fil49" points="2967,2983 7055,2983 7055,7071 2967,7071 2967,2983 2996,3012 7026,3012 7026,7042 2996,7042 2996,3012 "/>
     <polygon id="160" class="fil49" points="2981,2997 7041,2997 7041,7057 2981,7057 2981,2997 3010,3026 7012,3026 7012,7028 3010,7028 3010,3026 "/>
     <polygon id="161" class="fil49" points="2996,3012 7026,3012 7026,7042 2996,7042 2996,3012 3025,3041 6997,3041 6997,7013 3025,7013 3025,3041 "/>
     <polygon id="162" class="fil49" points="3010,3026 7012,3026 7012,7028 3010,7028 3010,3026 3039,3055 6983,3055 6983,6999 3039,6999 3039,3055 "/>
     <polygon id="163" class="fil49" points="3025,3041 6997,3041 6997,7013 3025,7013 3025,3041 3054,3070 6968,3070 6968,6984 3054,6984 3054,3070 "/>
     <polygon id="164" class="fil49" points="3039,3055 6983,3055 6983,6999 3039,6999 3039,3055 3068,3084 6954,3084 6954,6970 3068,6970 3068,3084 "/>
     <polygon id="165" class="fil49" points="3054,3070 6968,3070 6968,6984 3054,6984 3054,3070 3083,3099 6939,3099 6939,6955 3083,6955 3083,3099 "/>
     <polygon id="166" class="fil49" points="3068,3084 6954,3084 6954,6970 3068,6970 3068,3084 3097,3113 6925,3113 6925,6941 3097,6941 3097,3113 "/>
     <polygon id="167" class="fil49" points="3083,3099 6939,3099 6939,6955 3083,6955 3083,3099 3112,3128 6910,3128 6910,6926 3112,6926 3112,3128 "/>
     <polygon id="168" class="fil49" points="3097,3113 6925,3113 6925,6941 3097,6941 3097,3113 3126,3142 6896,3142 6896,6912 3126,6912 3126,3142 "/>
     <polygon id="169" class="fil49" points="3112,3128 6910,3128 6910,6926 3112,6926 3112,3128 3141,3157 6881,3157 6881,6897 3141,6897 3141,3157 "/>
     <polygon id="170" class="fil49" points="3126,3142 6896,3142 6896,6912 3126,6912 3126,3142 3155,3171 6867,3171 6867,6883 3155,6883 3155,3171 "/>
     <polygon id="171" class="fil49" points="3141,3157 6881,3157 6881,6897 3141,6897 3141,3157 3170,3186 6852,3186 6852,6868 3170,6868 3170,3186 "/>
     <polygon id="172" class="fil49" points="3155,3171 6867,3171 6867,6883 3155,6883 3155,3171 3184,3200 6838,3200 6838,6854 3184,6854 3184,3200 "/>
     <polygon id="173" class="fil49" points="3170,3186 6852,3186 6852,6868 3170,6868 3170,3186 3199,3215 6823,3215 6823,6839 3199,6839 3199,3215 "/>
     <polygon id="174" class="fil49" points="3184,3200 6838,3200 6838,6854 3184,6854 3184,3200 3213,3229 6809,3229 6809,6825 3213,6825 3213,3229 "/>
     <polygon id="175" class="fil49" points="3199,3215 6823,3215 6823,6839 3199,6839 3199,3215 3228,3244 6794,3244 6794,6810 3228,6810 3228,3244 "/>
     <polygon id="176" class="fil49" points="3213,3229 6809,3229 6809,6825 3213,6825 3213,3229 3242,3258 6780,3258 6780,6796 3242,6796 3242,3258 "/>
     <polygon id="177" class="fil49" points="3228,3244 6794,3244 6794,6810 3228,6810 3228,3244 3257,3273 6765,3273 6765,6781 3257,6781 3257,3273 "/>
     <polygon id="178" class="fil49" points="3242,3258 6780,3258 6780,6796 3242,6796 3242,3258 3271,3287 6751,3287 6751,6767 3271,6767 3271,3287 "/>
     <polygon id="179" class="fil49" points="3257,3273 6765,3273 6765,6781 3257,6781 3257,3273 3286,3302 6736,3302 6736,6752 3286,6752 3286,3302 "/>
     <polygon id="180" class="fil49" points="3271,3287 6751,3287 6751,6767 3271,6767 3271,3287 3300,3316 6722,3316 6722,6738 3300,6738 3300,3316 "/>
     <polygon id="181" class="fil49" points="3286,3302 6736,3302 6736,6752 3286,6752 3286,3302 3315,3331 6707,3331 6707,6723 3315,6723 3315,3331 "/>
     <polygon id="182" class="fil49" points="3300,3316 6722,3316 6722,6738 3300,6738 3300,3316 3329,3345 6693,3345 6693,6709 3329,6709 3329,3345 "/>
     <polygon id="183" class="fil49" points="3315,3331 6707,3331 6707,6723 3315,6723 3315,3331 3344,3360 6678,3360 6678,6694 3344,6694 3344,3360 "/>
     <polygon id="184" class="fil49" points="3329,3345 6693,3345 6693,6709 3329,6709 3329,3345 3358,3374 6664,3374 6664,6680 3358,6680 3358,3374 "/>
     <polygon id="185" class="fil49" points="3344,3360 6678,3360 6678,6694 3344,6694 3344,3360 3373,3389 6649,3389 6649,6665 3373,6665 3373,3389 "/>
     <polygon id="186" class="fil49" points="3358,3374 6664,3374 6664,6680 3358,6680 3358,3374 3387,3403 6635,3403 6635,6651 3387,6651 3387,3403 "/>
     <polygon id="187" class="fil49" points="3373,3389 6649,3389 6649,6665 3373,6665 3373,3389 3402,3418 6620,3418 6620,6636 3402,6636 3402,3418 "/>
     <polygon id="188" class="fil49" points="3387,3403 6635,3403 6635,6651 3387,6651 3387,3403 3416,3432 6606,3432 6606,6622 3416,6622 3416,3432 "/>
     <polygon id="189" class="fil49" points="3402,3418 6620,3418 6620,6636 3402,6636 3402,3418 3431,3447 6591,3447 6591,6607 3431,6607 3431,3447 "/>
     <polygon id="190" class="fil49" points="3416,3432 6606,3432 6606,6622 3416,6622 3416,3432 3445,3461 6577,3461 6577,6593 3445,6593 3445,3461 "/>
     <polygon id="191" class="fil49" points="3431,3447 6591,3447 6591,6607 3431,6607 3431,3447 3460,3476 6562,3476 6562,6578 3460,6578 3460,3476 "/>
     <polygon id="192" class="fil49" points="3445,3461 6577,3461 6577,6593 3445,6593 3445,3461 3474,3490 6548,3490 6548,6564 3474,6564 3474,3490 "/>
     <polygon id="193" class="fil49" points="3460,3476 6562,3476 6562,6578 3460,6578 3460,3476 3489,3505 6533,3505 6533,6549 3489,6549 3489,3505 "/>
     <polygon id="194" class="fil49" points="3474,3490 6548,3490 6548,6564 3474,6564 3474,3490 3503,3519 6519,3519 6519,6535 3503,6535 3503,3519 "/>
     <polygon id="195" class="fil49" points="3489,3505 6533,3505 6533,6549 3489,6549 3489,3505 3518,3534 6504,3534 6504,6520 3518,6520 3518,3534 "/>
     <polygon id="196" class="fil49" points="3503,3519 6519,3519 6519,6535 3503,6535 3503,3519 3532,3548 6490,3548 6490,6506 3532,6506 3532,3548 "/>
     <polygon id="197" class="fil49" points="3518,3534 6504,3534 6504,6520 3518,6520 3518,3534 3547,3563 6475,3563 6475,6491 3547,6491 3547,3563 "/>
     <polygon id="198" class="fil49" points="3532,3548 6490,3548 6490,6506 3532,6506 3532,3548 3561,3577 6461,3577 6461,6477 3561,6477 3561,3577 "/>
     <polygon id="199" class="fil49" points="3547,3563 6475,3563 6475,6491 3547,6491 3547,3563 3576,3592 6446,3592 6446,6462 3576,6462 3576,3592 "/>
     <polygon id="200" class="fil49" points="3561,3577 6461,3577 6461,6477 3561,6477 3561,3577 3590,3606 6432,3606 6432,6448 3590,6448 3590,3606 "/>
     <polygon id="201" class="fil49" points="3576,3592 6446,3592 6446,6462 3576,6462 3576,3592 3605,3621 6417,3621 6417,6433 3605,6433 3605,3621 "/>
     <polygon id="202" class="fil49" points="3590,3606 6432,3606 6432,6448 3590,6448 3590,3606 3619,3635 6403,3635 6403,6419 3619,6419 3619,3635 "/>
     <polygon id="203" class="fil49" points="3605,3621 6417,3621 6417,6433 3605,6433 3605,3621 3634,3650 6388,3650 6388,6404 3634,6404 3634,3650 "/>
     <polygon id="204" class="fil49" points="3619,3635 6403,3635 6403,6419 3619,6419 3619,3635 3648,3664 6374,3664 6374,6390 3648,6390 3648,3664 "/>
     <polygon id="205" class="fil49" points="3634,3650 6388,3650 6388,6404 3634,6404 3634,3650 3663,3679 6359,3679 6359,6375 3663,6375 3663,3679 "/>
     <polygon id="206" class="fil49" points="3648,3664 6374,3664 6374,6390 3648,6390 3648,3664 3677,3693 6345,3693 6345,6361 3677,6361 3677,3693 "/>
     <polygon id="207" class="fil49" points="3663,3679 6359,3679 6359,6375 3663,6375 3663,3679 3692,3708 6330,3708 6330,6346 3692,6346 3692,3708 "/>
     <polygon id="208" class="fil49" points="3677,3693 6345,3693 6345,6361 3677,6361 3677,3693 3706,3722 6316,3722 6316,6332 3706,6332 3706,3722 "/>
     <polygon id="209" class="fil49" points="3692,3708 6330,3708 6330,6346 3692,6346 3692,3708 3721,3737 6301,3737 6301,6317 3721,6317 3721,3737 "/>
     <polygon id="210" class="fil49" points="3706,3722 6316,3722 6316,6332 3706,6332 3706,3722 3735,3751 6287,3751 6287,6303 3735,6303 3735,3751 "/>
     <polygon id="211" class="fil49" points="3721,3737 6301,3737 6301,6317 3721,6317 3721,3737 3750,3766 6272,3766 6272,6288 3750,6288 3750,3766 "/>
     <polygon id="212" class="fil49" points="3735,3751 6287,3751 6287,6303 3735,6303 3735,3751 3764,3780 6258,3780 6258,6274 3764,6274 3764,3780 "/>
     <polygon id="213" class="fil49" points="3749,3766 6272,3766 6272,6288 3749,6288 3749,3766 3778,3795 6243,3795 6243,6259 3778,6259 3778,3795 "/>
     <polygon id="214" class="fil49" points="3764,3780 6258,3780 6258,6274 3764,6274 3764,3780 3793,3809 6229,3809 6229,6245 3793,6245 3793,3809 "/>
     <polygon id="215" class="fil49" points="3778,3795 6243,3795 6243,6260 3778,6260 3778,3795 3807,3824 6214,3824 6214,6231 3807,6231 3807,3824 "/>
     <polygon id="216" class="fil49" points="3793,3809 6229,3809 6229,6245 3793,6245 3793,3809 3822,3838 6200,3838 6200,6216 3822,6216 3822,3838 "/>
     <polygon id="217" class="fil49" points="3807,3824 6214,3824 6214,6231 3807,6231 3807,3824 3836,3853 6185,3853 6185,6202 3836,6202 3836,3853 "/>
     <polygon id="218" class="fil49" points="3822,3838 6200,3838 6200,6216 3822,6216 3822,3838 3851,3867 6171,3867 6171,6187 3851,6187 3851,3867 "/>
     <polygon id="219" class="fil49" points="3836,3853 6185,3853 6185,6202 3836,6202 3836,3853 3865,3882 6156,3882 6156,6173 3865,6173 3865,3882 "/>
     <polygon id="220" class="fil49" points="3851,3867 6171,3867 6171,6187 3851,6187 3851,3867 3880,3896 6142,3896 6142,6158 3880,6158 3880,3896 "/>
     <polygon id="221" class="fil49" points="3865,3882 6156,3882 6156,6173 3865,6173 3865,3882 3894,3911 6127,3911 6127,6144 3894,6144 3894,3911 "/>
     <polygon id="222" class="fil49" points="3880,3896 6142,3896 6142,6158 3880,6158 3880,3896 3909,3925 6113,3925 6113,6129 3909,6129 3909,3925 "/>
     <polygon id="223" class="fil49" points="3894,3911 6127,3911 6127,6144 3894,6144 3894,3911 3923,3940 6098,3940 6098,6115 3923,6115 3923,3940 "/>
     <polygon id="224" class="fil49" points="3909,3925 6113,3925 6113,6129 3909,6129 3909,3925 3938,3954 6084,3954 6084,6100 3938,6100 3938,3954 "/>
     <polygon id="225" class="fil49" points="3923,3940 6098,3940 6098,6115 3923,6115 3923,3940 3952,3969 6069,3969 6069,6086 3952,6086 3952,3969 "/>
     <polygon id="226" class="fil49" points="3938,3954 6084,3954 6084,6100 3938,6100 3938,3954 3967,3983 6055,3983 6055,6071 3967,6071 3967,3983 "/>
     <polygon id="227" class="fil49" points="3952,3969 6069,3969 6069,6086 3952,6086 3952,3969 3981,3998 6040,3998 6040,6057 3981,6057 3981,3998 "/>
     <polygon id="228" class="fil49" points="3967,3983 6055,3983 6055,6071 3967,6071 3967,3983 3996,4012 6026,4012 6026,6042 3996,6042 3996,4012 "/>
     <polygon id="229" class="fil49" points="3981,3998 6040,3998 6040,6057 3981,6057 3981,3998 4010,4027 6011,4027 6011,6028 4010,6028 4010,4027 "/>
     <polygon id="230" class="fil49" points="3996,4012 6026,4012 6026,6042 3996,6042 3996,4012 4025,4041 5997,4041 5997,6013 4025,6013 4025,4041 "/>
     <polygon id="231" class="fil49" points="4010,4027 6011,4027 6011,6028 4010,6028 4010,4027 4039,4056 5982,4056 5982,5999 4039,5999 4039,4056 "/>
     <polygon id="232" class="fil49" points="4025,4041 5997,4041 5997,6013 4025,6013 4025,4041 4054,4070 5968,4070 5968,5984 4054,5984 4054,4070 "/>
     <polygon id="233" class="fil49" points="4039,4056 5982,4056 5982,5999 4039,5999 4039,4056 4068,4085 5953,4085 5953,5970 4068,5970 4068,4085 "/>
     <polygon id="234" class="fil49" points="4054,4070 5968,4070 5968,5984 4054,5984 4054,4070 4083,4099 5939,4099 5939,5955 4083,5955 4083,4099 "/>
     <polygon id="235" class="fil49" points="4068,4085 5953,4085 5953,5970 4068,5970 4068,4085 4097,4114 5924,4114 5924,5941 4097,5941 4097,4114 "/>
     <polygon id="236" class="fil49" points="4083,4099 5939,4099 5939,5955 4083,5955 4083,4099 4112,4128 5910,4128 5910,5926 4112,5926 4112,4128 "/>
     <polygon id="237" class="fil49" points="4097,4114 5924,4114 5924,5941 4097,5941 4097,4114 4126,4143 5895,4143 5895,5912 4126,5912 4126,4143 "/>
     <polygon id="238" class="fil49" points="4112,4128 5910,4128 5910,5926 4112,5926 4112,4128 4141,4157 5881,4157 5881,5897 4141,5897 4141,4157 "/>
     <polygon id="239" class="fil49" points="4126,4143 5895,4143 5895,5912 4126,5912 4126,4143 4155,4172 5866,4172 5866,5883 4155,5883 4155,4172 "/>
     <polygon id="240" class="fil49" points="4141,4157 5881,4157 5881,5897 4141,5897 4141,4157 4170,4186 5852,4186 5852,5868 4170,5868 4170,4186 "/>
     <polygon id="241" class="fil49" points="4155,4172 5866,4172 5866,5883 4155,5883 4155,4172 4184,4201 5837,4201 5837,5854 4184,5854 4184,4201 "/>
     <polygon id="242" class="fil49" points="4170,4186 5852,4186 5852,5868 4170,5868 4170,4186 4199,4215 5823,4215 5823,5839 4199,5839 4199,4215 "/>
     <polygon id="243" class="fil49" points="4184,4201 5837,4201 5837,5854 4184,5854 4184,4201 4213,4230 5808,4230 5808,5825 4213,5825 4213,4230 "/>
     <polygon id="244" class="fil49" points="4199,4215 5823,4215 5823,5839 4199,5839 4199,4215 4228,4244 5794,4244 5794,5810 4228,5810 4228,4244 "/>
     <polygon id="245" class="fil49" points="4213,4230 5808,4230 5808,5825 4213,5825 4213,4230 4242,4259 5779,4259 5779,5796 4242,5796 4242,4259 "/>
     <polygon id="246" class="fil49" points="4228,4244 5794,4244 5794,5810 4228,5810 4228,4244 4257,4273 5765,4273 5765,5781 4257,5781 4257,4273 "/>
     <polygon id="247" class="fil49" points="4242,4259 5779,4259 5779,5796 4242,5796 4242,4259 4271,4288 5750,4288 5750,5767 4271,5767 4271,4288 "/>
     <polygon id="248" class="fil49" points="4257,4273 5765,4273 5765,5781 4257,5781 4257,4273 4286,4302 5736,4302 5736,5752 4286,5752 4286,4302 "/>
     <polygon id="249" class="fil49" points="4271,4288 5750,4288 5750,5767 4271,5767 4271,4288 4300,4317 5721,4317 5721,5738 4300,5738 4300,4317 "/>
     <polygon id="250" class="fil49" points="4286,4302 5736,4302 5736,5752 4286,5752 4286,4302 4315,4331 5707,4331 5707,5723 4315,5723 4315,4331 "/>
     <polygon id="251" class="fil49" points="4300,4317 5721,4317 5721,5738 4300,5738 4300,4317 4329,4346 5692,4346 5692,5709 4329,5709 4329,4346 "/>
     <polygon id="252" class="fil49" points="4315,4331 5707,4331 5707,5723 4315,5723 4315,4331 4344,4360 5678,4360 5678,5694 4344,5694 4344,4360 "/>
     <polygon id="253" class="fil49" points="4329,4346 5692,4346 5692,5709 4329,5709 4329,4346 4358,4375 5663,4375 5663,5680 4358,5680 4358,4375 "/>
     <polygon id="254" class="fil49" points="4344,4360 5678,4360 5678,5694 4344,5694 4344,4360 4373,4389 5649,4389 5649,5665 4373,5665 4373,4389 "/>
     <polygon id="255" class="fil49" points="4358,4375 5663,4375 5663,5680 4358,5680 4358,4375 4387,4404 5634,4404 5634,5651 4387,5651 4387,4404 "/>
     <polygon id="256" class="fil49" points="4373,4389 5649,4389 5649,5665 4373,5665 4373,4389 4402,4418 5620,4418 5620,5636 4402,5636 4402,4418 "/>
     <polygon id="257" class="fil49" points="4387,4404 5634,4404 5634,5651 4387,5651 4387,4404 4416,4433 5605,4433 5605,5622 4416,5622 4416,4433 "/>
     <polygon id="258" class="fil49" points="4402,4418 5620,4418 5620,5636 4402,5636 4402,4418 4431,4447 5591,4447 5591,5607 4431,5607 4431,4447 "/>
     <polygon id="259" class="fil49" points="4416,4433 5605,4433 5605,5622 4416,5622 4416,4433 4445,4462 5576,4462 5576,5593 4445,5593 4445,4462 "/>
     <polygon id="260" class="fil49" points="4431,4447 5591,4447 5591,5607 4431,5607 4431,4447 4460,4476 5562,4476 5562,5578 4460,5578 4460,4476 "/>
     <polygon id="261" class="fil49" points="4445,4462 5576,4462 5576,5593 4445,5593 4445,4462 4474,4491 5547,4491 5547,5564 4474,5564 4474,4491 "/>
     <polygon id="262" class="fil49" points="4460,4476 5562,4476 5562,5578 4460,5578 4460,4476 4489,4505 5533,4505 5533,5549 4489,5549 4489,4505 "/>
     <polygon id="263" class="fil49" points="4474,4491 5547,4491 5547,5564 4474,5564 4474,4491 4503,4520 5518,4520 5518,5535 4503,5535 4503,4520 "/>
     <polygon id="264" class="fil49" points="4489,4505 5533,4505 5533,5549 4489,5549 4489,4505 4518,4534 5504,4534 5504,5520 4518,5520 4518,4534 "/>
     <polygon id="265" class="fil49" points="4503,4520 5518,4520 5518,5535 4503,5535 4503,4520 4532,4549 5489,4549 5489,5506 4532,5506 4532,4549 "/>
     <polygon id="266" class="fil49" points="4518,4534 5504,4534 5504,5520 4518,5520 4518,4534 4547,4563 5475,4563 5475,5491 4547,5491 4547,4563 "/>
     <polygon id="267" class="fil49" points="4532,4549 5489,4549 5489,5506 4532,5506 4532,4549 4561,4578 5460,4578 5460,5477 4561,5477 4561,4578 "/>
     <polygon id="268" class="fil49" points="4547,4563 5475,4563 5475,5491 4547,5491 4547,4563 4576,4592 5446,4592 5446,5462 4576,5462 4576,4592 "/>
     <polygon id="269" class="fil49" points="4561,4578 5460,4578 5460,5477 4561,5477 4561,4578 4590,4607 5431,4607 5431,5448 4590,5448 4590,4607 "/>
     <polygon id="270" class="fil49" points="4576,4592 5446,4592 5446,5462 4576,5462 4576,4592 4605,4621 5417,4621 5417,5433 4605,5433 4605,4621 "/>
     <polygon id="271" class="fil49" points="4590,4607 5431,4607 5431,5448 4590,5448 4590,4607 4619,4636 5402,4636 5402,5419 4619,5419 4619,4636 "/>
     <polygon id="272" class="fil49" points="4605,4621 5417,4621 5417,5433 4605,5433 4605,4621 4634,4650 5388,4650 5388,5404 4634,5404 4634,4650 "/>
     <polygon id="273" class="fil49" points="4619,4636 5402,4636 5402,5419 4619,5419 4619,4636 4648,4665 5373,4665 5373,5390 4648,5390 4648,4665 "/>
     <polygon id="274" class="fil49" points="4634,4650 5388,4650 5388,5404 4634,5404 4634,4650 4663,4679 5359,4679 5359,5375 4663,5375 4663,4679 "/>
     <polygon id="275" class="fil49" points="4648,4665 5373,4665 5373,5390 4648,5390 4648,4665 4677,4694 5344,4694 5344,5361 4677,5361 4677,4694 "/>
     <polygon id="276" class="fil49" points="4663,4679 5359,4679 5359,5375 4663,5375 4663,4679 4692,4708 5330,4708 5330,5346 4692,5346 4692,4708 "/>
     <polygon id="277" class="fil49" points="4677,4694 5344,4694 5344,5361 4677,5361 4677,4694 4706,4723 5315,4723 5315,5332 4706,5332 4706,4723 "/>
     <polygon id="278" class="fil49" points="4692,4708 5330,4708 5330,5346 4692,5346 4692,4708 4721,4737 5301,4737 5301,5317 4721,5317 4721,4737 "/>
     <polygon id="279" class="fil49" points="4706,4723 5315,4723 5315,5332 4706,5332 4706,4723 4735,4752 5286,4752 5286,5303 4735,5303 4735,4752 "/>
     <polygon id="280" class="fil49" points="4721,4737 5301,4737 5301,5317 4721,5317 4721,4737 4750,4766 5272,4766 5272,5288 4750,5288 4750,4766 "/>
     <polygon id="281" class="fil49" points="4735,4752 5286,4752 5286,5303 4735,5303 4735,4752 4764,4781 5257,4781 5257,5274 4764,5274 4764,4781 "/>
     <polygon id="282" class="fil49" points="4750,4766 5272,4766 5272,5288 4750,5288 4750,4766 4779,4795 5243,4795 5243,5259 4779,5259 4779,4795 "/>
     <polygon id="283" class="fil49" points="4764,4781 5257,4781 5257,5274 4764,5274 4764,4781 4793,4810 5228,4810 5228,5245 4793,5245 4793,4810 "/>
     <polygon id="284" class="fil49" points="4779,4795 5243,4795 5243,5259 4779,5259 4779,4795 4808,4824 5214,4824 5214,5230 4808,5230 4808,4824 "/>
     <polygon id="285" class="fil49" points="4793,4810 5228,4810 5228,5245 4793,5245 4793,4810 4822,4839 5199,4839 5199,5216 4822,5216 4822,4839 "/>
     <polygon id="286" class="fil49" points="4808,4824 5214,4824 5214,5230 4808,5230 4808,4824 4837,4853 5185,4853 5185,5201 4837,5201 4837,4853 "/>
     <polygon id="287" class="fil49" points="4822,4839 5199,4839 5199,5216 4822,5216 4822,4839 4851,4868 5170,4868 5170,5187 4851,5187 4851,4868 "/>
     <polygon id="288" class="fil49" points="4837,4853 5185,4853 5185,5201 4837,5201 4837,4853 4866,4882 5156,4882 5156,5172 4866,5172 4866,4882 "/>
     <polygon id="289" class="fil49" points="4851,4868 5170,4868 5170,5187 4851,5187 4851,4868 4880,4897 5141,4897 5141,5158 4880,5158 4880,4897 "/>
     <polygon id="290" class="fil49" points="4866,4882 5156,4882 5156,5172 4866,5172 4866,4882 4895,4911 5127,4911 5127,5143 4895,5143 4895,4911 "/>
     <polygon id="291" class="fil49" points="4880,4897 5141,4897 5141,5158 4880,5158 4880,4897 4909,4926 5112,4926 5112,5129 4909,5129 4909,4926 "/>
     <polygon id="292" class="fil49" points="4895,4911 5127,4911 5127,5143 4895,5143 4895,4911 4924,4940 5098,4940 5098,5114 4924,5114 4924,4940 "/>
     <polygon id="293" class="fil49" points="4909,4926 5112,4926 5112,5129 4909,5129 4909,4926 4938,4955 5083,4955 5083,5100 4938,5100 4938,4955 "/>
     <polygon id="294" class="fil49" points="4924,4940 5098,4940 5098,5114 4924,5114 4924,4940 4953,4969 5069,4969 5069,5085 4953,5085 4953,4969 "/>
     <polygon id="295" class="fil49" points="4938,4955 5083,4955 5083,5100 4938,5100 4938,4955 4967,4984 5054,4984 5054,5071 4967,5071 4967,4984 "/>
     <polygon id="296" class="fil49" points="4953,4969 5069,4969 5069,5085 4953,5085 4953,4969 4982,4998 5040,4998 5040,5056 4982,5056 4982,4998 "/>
     <polygon id="297" class="fil49" points="4967,4984 5054,4984 5054,5071 4967,5071 4967,4984 4996,5013 5025,5013 5025,5042 4996,5042 4996,5013 "/>
     <polygon id="298" class="fil49" points="4982,4998 5040,4998 5040,5056 4982,5056 4982,4998 5011,5027 5011,5027 5011,5027 5011,5027 5011,5027 "/>
     <polygon id="299" class="fil49" points="4996,5013 5025,5013 5025,5042 4996,5042 4996,5013 "/>
    </g>
   </g>
  </g>
  <rect class="fil50 str0" x="2893" y="1696" width="4263" height="6724" rx="841" ry="841"/>
  <path class="fil51 str1" d="M5055 7415c514,0 931,-417 931,-931 0,-514 -417,-931 -931,-931 -514,0 -931,417 -931,931 0,514 417,931 931,931z"/>
  <path class="fil52 str2" d="M5055 4488c514,0 931,-417 931,-931 0,-514 -417,-931 -931,-931 -514,0 -931,417 -931,931 0,514 417,931 931,931z"/>
 </g>
</svg>
