<?xml version="1.0" encoding="UTF-8"?>
<!DOCTYPE svg PUBLIC "-//W3C//DTD SVG 1.1//EN" "http://www.w3.org/Graphics/SVG/1.1/DTD/svg11.dtd">
<!-- Creator: CorelDRAW X6 -->
<svg xmlns="http://www.w3.org/2000/svg" xml:space="preserve" width="150px" height="150px" version="1.1" style="shape-rendering:geometricPrecision; text-rendering:geometricPrecision; image-rendering:optimizeQuality; fill-rule:evenodd; clip-rule:evenodd"
viewBox="0 0 15000 15000"
 xmlns:xlink="http://www.w3.org/1999/xlink">
 <defs>
  <style type="text/css">
   <![CDATA[
    .fil4 {fill:#668F29}
    .fil2 {fill:#7FB332}
    .fil1 {fill:url(#id0)}
    .fil3 {fill:url(#id1)}
    .fil0 {fill:url(#id2)}
   ]]>
  </style>
  <linearGradient id="id0" gradientUnits="userSpaceOnUse" x1="3919.18" y1="10075.1" x2="3630.95" y2="8999.4">
   <stop offset="0" style="stop-color:#7FB332"/>
   <stop offset="1" style="stop-color:#668F29"/>
  </linearGradient>
  <linearGradient id="id1" gradientUnits="userSpaceOnUse" xlink:href="#id0" x1="6073.95" y1="4838.88" x2="5785.72" y2="5914.6">
  </linearGradient>
  <radialGradient id="id2" gradientUnits="objectBoundingBox" cx="50%" cy="50%" r="50%" fx="50%" fy="50%">
   <stop offset="0" style="stop-color:yellow"/>
   <stop offset="0.74902" style="stop-color:yellow"/>
   <stop offset="1" style="stop-color:#E6DA33"/>
  </radialGradient>
 </defs>
 <g id="Layer_x0020_1">
  <metadata id="CorelCorpID_0Corel-Layer"/>
  <path class="fil0" d="M2709 184l9430 0c1429,0 2587,1159 2587,2587l0 9430c0,1429 -1159,2587 -2587,2587l-9430 0c-1429,0 -2587,-1159 -2587,-2588l0 -9430c0,-1429 1159,-2587 2588,-2587z"/>
  <path class="fil1" d="M5673 11501c-1620,0 -2694,-313 -3488,-1847 -126,-244 -842,-1969 -365,-1969 202,0 1260,-116 1260,73 0,513 443,2069 1196,2292 446,132 1099,195 1488,283 443,100 369,1173 -91,1169z"/>
  <path class="fil2" d="M5842 10888c-30,-835 -621,-2076 230,-1502 851,575 2285,1358 2292,1539 7,181 -1315,983 -2270,1543 -954,560 -222,-746 -252,-1581z"/>
  <path class="fil2" d="M7894 3944c-30,-835 -621,-2076 230,-1502 851,575 2285,1358 2292,1539 7,181 -1315,983 -2270,1543 -954,560 -222,-746 -252,-1581z"/>
  <path class="fil3" d="M7828 3413c-1620,0 -2694,313 -3488,1847 -126,244 -842,1969 -365,1969 202,0 1260,116 1260,-73 0,-513 443,-2069 1196,-2292 446,-132 1099,-195 1488,-283 443,-100 369,-1173 -91,-1169z"/>
  <path class="fil4" d="M1523 6593l10088 0c-137,-659 -293,-1221 334,-797 851,575 2285,1358 2292,1539 7,181 -1315,983 -2270,1543 -674,396 -506,-140 -361,-783l-10084 0c-413,0 -751,-338 -751,-751l0 0c0,-413 338,-751 751,-751z"/>
 </g>
</svg>
