<?xml version="1.0" encoding="UTF-8"?>
<!DOCTYPE svg PUBLIC "-//W3C//DTD SVG 1.1//EN" "http://www.w3.org/Graphics/SVG/1.1/DTD/svg11.dtd">
<!-- Creator: CorelDRAW X6 -->
<svg xmlns="http://www.w3.org/2000/svg" xml:space="preserve" width="150px" height="150px" version="1.1" style="shape-rendering:geometricPrecision; text-rendering:geometricPrecision; image-rendering:optimizeQuality; fill-rule:evenodd; clip-rule:evenodd"
viewBox="0 0 15000 15000"
 xmlns:xlink="http://www.w3.org/1999/xlink">
 <defs>
  <style type="text/css">
   <![CDATA[
    .fil2 {fill:black}
    .fil3 {fill:#000059}
    .fil1 {fill:#1F1F1F}
    .fil4 {fill:#222323}
    .fil7 {fill:#2B2A29}
    .fil6 {fill:#303030}
    .fil5 {fill:#ACACAC}
    .fil0 {fill:url(#id0)}
   ]]>
  </style>
  <radialGradient id="id0" gradientUnits="objectBoundingBox" cx="50%" cy="50%" r="50%" fx="50%" fy="50%">
   <stop offset="0" style="stop-color:#9CD448"/>
   <stop offset="0.811765" style="stop-color:#9CD448"/>
   <stop offset="1" style="stop-color:#85BA3F"/>
  </radialGradient>
 </defs>
 <g id="Layer_x0020_1">
  <metadata id="CorelCorpID_0Corel-Layer"/>
  <path class="fil0" d="M2817 285l9362 0c1418,0 2569,1150 2569,2569l0 9362c0,1418 -1150,2569 -2569,2569l-9362 0c-1418,0 -2569,-1150 -2569,-2569l0 -9362c0,-1418 1150,-2569 2569,-2569z"/>
  <g id="_125940752">
   <path class="fil1" d="M10848 12929l-6536 0c-303,0 -548,-198 -548,-441l0 -9969c0,-244 245,-441 548,-441l6536 0c303,0 548,198 548,441l0 9969c0,244 -245,441 -548,441z"/>
   <rect class="fil2" x="4162" y="2476" width="6836" height="10055"/>
   <rect class="fil3" x="5775" y="5402" width="3610" height="5099"/>
   <g id="_395079184">
    <path id="_248793704" class="fil4" d="M10483 8363l-366 0c-118,0 -215,-97 -215,-215l0 -366c0,-118 97,-215 215,-215l366 0c118,0 215,97 215,215l0 366c0,118 -97,215 -215,215z"/>
    <path id="_248793464" class="fil5" d="M10579 8270l-366 0c-118,0 -215,-97 -215,-215l0 -366c0,-118 97,-215 215,-215l366 0c118,0 215,97 215,215l0 366c0,118 -97,215 -215,215z"/>
   </g>
   <path class="fil6" d="M10514 8317l-332 0c-128,0 -232,-104 -232,-232l0 -332c0,-128 104,-232 232,-232l332 0c128,0 232,104 232,232l0 332c0,128 -104,232 -232,232z"/>
   <g id="_395078896">
    <path id="_248794832" class="fil4" d="M4937 8363l-366 0c-118,0 -215,-97 -215,-215l0 -366c0,-118 97,-215 215,-215l366 0c118,0 215,97 215,215l0 366c0,118 -97,215 -215,215z"/>
    <path id="_248795072" class="fil5" d="M5034 8270l-366 0c-118,0 -215,-97 -215,-215l0 -366c0,-118 97,-215 215,-215l366 0c118,0 215,97 215,215l0 366c0,118 -97,215 -215,215z"/>
   </g>
   <path class="fil6" d="M4968 8317l-332 0c-128,0 -232,-104 -232,-232l0 -332c0,-128 104,-232 232,-232l332 0c128,0 232,104 232,232l0 332c0,128 -104,232 -232,232z"/>
   <g id="_395078608">
    <path id="_248794520" class="fil4" d="M4937 7368l-366 0c-118,0 -215,-97 -215,-215l0 -366c0,-118 97,-215 215,-215l366 0c118,0 215,97 215,215l0 366c0,118 -97,215 -215,215z"/>
    <path id="_248794760" class="fil5" d="M5034 7275l-366 0c-118,0 -215,-97 -215,-215l0 -366c0,-118 97,-215 215,-215l366 0c118,0 215,97 215,215l0 366c0,118 -97,215 -215,215z"/>
   </g>
   <path class="fil6" d="M4968 7321l-332 0c-128,0 -232,-104 -232,-232l0 -332c0,-128 104,-232 232,-232l332 0c128,0 232,104 232,232l0 332c0,128 -104,232 -232,232z"/>
   <g id="_395078320">
    <path id="_248794208" class="fil4" d="M4937 6372l-366 0c-118,0 -215,-97 -215,-215l0 -366c0,-118 97,-215 215,-215l366 0c118,0 215,97 215,215l0 366c0,118 -97,215 -215,215z"/>
    <path id="_248794448" class="fil5" d="M5034 6279l-366 0c-118,0 -215,-97 -215,-215l0 -366c0,-118 97,-215 215,-215l366 0c118,0 215,97 215,215l0 366c0,118 -97,215 -215,215z"/>
   </g>
   <path class="fil6" d="M4968 6326l-332 0c-128,0 -232,-104 -232,-232l0 -332c0,-128 104,-232 232,-232l332 0c128,0 232,104 232,232l0 332c0,128 -104,232 -232,232z"/>
   <g id="_395078032">
    <path id="_248795144" class="fil4" d="M4937 9890l-366 0c-118,0 -215,-97 -215,-215l0 -366c0,-118 97,-215 215,-215l366 0c118,0 215,97 215,215l0 366c0,118 -97,215 -215,215z"/>
    <path id="_248795384" class="fil5" d="M5034 9797l-366 0c-118,0 -215,-97 -215,-215l0 -366c0,-118 97,-215 215,-215l366 0c118,0 215,97 215,215l0 366c0,118 -97,215 -215,215z"/>
   </g>
   <path class="fil6" d="M4968 9843l-332 0c-128,0 -232,-104 -232,-232l0 -332c0,-128 104,-232 232,-232l332 0c128,0 232,104 232,232l0 332c0,128 -104,232 -232,232z"/>
   <g id="_395077744">
    <path id="_248793320" class="fil4" d="M10483 6372l-366 0c-118,0 -215,-97 -215,-215l0 -366c0,-118 97,-215 215,-215l366 0c118,0 215,97 215,215l0 366c0,118 -97,215 -215,215z"/>
    <path id="_248794088" class="fil5" d="M10579 6279l-366 0c-118,0 -215,-97 -215,-215l0 -366c0,-118 97,-215 215,-215l366 0c118,0 215,97 215,215l0 366c0,118 -97,215 -215,215z"/>
   </g>
   <path class="fil6" d="M10514 6326l-332 0c-128,0 -232,-104 -232,-232l0 -332c0,-128 104,-232 232,-232l332 0c128,0 232,104 232,232l0 332c0,128 -104,232 -232,232z"/>
   <g id="_395077456">
    <path id="_248793920" class="fil4" d="M10483 7368l-366 0c-118,0 -215,-97 -215,-215l0 -366c0,-118 97,-215 215,-215l366 0c118,0 215,97 215,215l0 366c0,118 -97,215 -215,215z"/>
    <path id="_248793776" class="fil5" d="M10579 7275l-366 0c-118,0 -215,-97 -215,-215l0 -366c0,-118 97,-215 215,-215l366 0c118,0 215,97 215,215l0 366c0,118 -97,215 -215,215z"/>
   </g>
   <path class="fil6" d="M10514 7321l-332 0c-128,0 -232,-104 -232,-232l0 -332c0,-128 104,-232 232,-232l332 0c128,0 232,104 232,232l0 332c0,128 -104,232 -232,232z"/>
   <path class="fil6" d="M3482 9648l0 2577c0,388 -315,703 -703,703l-320 0c-388,0 -703,-315 -703,-703l0 -2577c0,-388 315,-703 703,-703l320 0c388,0 703,315 703,703z"/>
   <path class="fil6" d="M13404 9648l0 2577c0,388 -315,703 -703,703l-320 0c-388,0 -703,-315 -703,-703l0 -2577c0,-388 315,-703 703,-703l320 0c388,0 703,315 703,703z"/>
   <rect class="fil7" transform="matrix(3.51545E-014 1.32736 -1.32736 3.51545E-014 11679.7 10770)" width="250" height="215"/>
   <rect class="fil7" transform="matrix(3.51545E-014 1.32736 -1.32736 3.51545E-014 3766.99 10770)" width="250" height="215"/>
  </g>
 </g>
</svg>
