<?xml version="1.0" encoding="UTF-8"?>
<!DOCTYPE svg PUBLIC "-//W3C//DTD SVG 1.1//EN" "http://www.w3.org/Graphics/SVG/1.1/DTD/svg11.dtd">
<!-- Creator: CorelDRAW X6 -->
<svg xmlns="http://www.w3.org/2000/svg" xml:space="preserve" width="150px" height="150px" version="1.1" style="shape-rendering:geometricPrecision; text-rendering:geometricPrecision; image-rendering:optimizeQuality; fill-rule:evenodd; clip-rule:evenodd"
viewBox="0 0 354300 354300"
 xmlns:xlink="http://www.w3.org/1999/xlink">
 <defs>
  <style type="text/css">
   <![CDATA[
    .str0 {stroke:#CCCCCC;stroke-width:937.478}
    .str1 {stroke:#CCCCCC;stroke-width:1874.84}
    .str2 {stroke:#B3B3B3;stroke-width:2999.74}
    .fil5 {fill:#333333}
    .fil4 {fill:#6E4D8B}
    .fil7 {fill:#D40F0F}
    .fil6 {fill:black;fill-rule:nonzero}
    .fil2 {fill:url(#id0)}
    .fil1 {fill:url(#id1)}
    .fil3 {fill:url(#id2)}
    .fil0 {fill:url(#id3)}
   ]]>
  </style>
  <linearGradient id="id0" gradientUnits="userSpaceOnUse" x1="133291" y1="66455.3" x2="228399" y2="202284">
   <stop offset="0" style="stop-color:#4D4D4D"/>
   <stop offset="0.309804" style="stop-color:gray"/>
   <stop offset="0.521569" style="stop-color:#999999"/>
   <stop offset="0.74902" style="stop-color:gray"/>
   <stop offset="1" style="stop-color:#4D4D4D"/>
  </linearGradient>
  <linearGradient id="id1" gradientUnits="userSpaceOnUse" x1="104510" y1="242455" x2="255453" y2="26885.8">
   <stop offset="0" style="stop-color:#CCCCCC"/>
   <stop offset="0.0509804" style="stop-color:#606060"/>
   <stop offset="0.25098" style="stop-color:#B3B3B3"/>
   <stop offset="0.431373" style="stop-color:#E6E6E6"/>
   <stop offset="0.631373" style="stop-color:#CCCCCC"/>
   <stop offset="0.788235" style="stop-color:#999999"/>
   <stop offset="0.94902" style="stop-color:#676767"/>
   <stop offset="1" style="stop-color:#CCCCCC"/>
  </linearGradient>
  <linearGradient id="id2" gradientUnits="userSpaceOnUse" xlink:href="#id1" x1="143369" y1="187472" x2="218322" y2="80428.3">
  </linearGradient>
  <radialGradient id="id3" gradientUnits="objectBoundingBox" cx="50%" cy="50%" r="50%" fx="50%" fy="50%">
   <stop offset="0" style="stop-color:#906BB3"/>
   <stop offset="0.619608" style="stop-color:#906BB3"/>
   <stop offset="1" style="stop-color:#684A83"/>
  </radialGradient>
 </defs>
 <g id="Layer_x0020_1">
  <metadata id="CorelCorpID_0Corel-Layer"/>
  <path class="fil0" d="M66539 6733l221125 0c33504,0 60672,27169 60672,60672l0 221125c0,33501 -27169,60670 -60672,60670l-221125 3c-33501,-3 -60670,-27172 -60670,-60675l-3 -221123c3,-33504 27172,-60672 60675,-60672z"/>
 </g>
 <g id="шестеренка">
  <metadata id="CorelCorpID_1Corel-Layer"/>
  <path class="fil1 str0" d="M194660 211150c11081,-1992 21344,-6337 30255,-12498 155,224 331,436 530,635l13642 13642c1794,1794 4730,1794 6524,0l13049 -13048c1794,-1794 1794,-4730 0,-6524l-13642 -13642c-179,-179 -370,-340 -569,-484 6472,-9247 10980,-19970 12917,-31564 68,3 136,5 204,5l19292 0c2537,0 4613,-2076 4613,-4613l0 -18453c0,-2537 -2076,-4613 -4613,-4613l-19292 0c-184,0 -366,11 -544,33 -2357,-12232 -7587,-23442 -14959,-32899l13237 -13237c1794,-1794 1794,-4730 0,-6524l-13049 -13049c-1794,-1794 -4730,-1794 -6524,0l-13642 13642c-228,228 -427,475 -597,736 -8081,-4981 -17144,-8523 -26832,-10264l0 -18961c0,-2537 -2076,-4613 -4613,-4613l-18453 0c-2537,0 -4614,2076 -4614,4613l0 18970c-11673,2106 -22435,6825 -31665,13527 -207,-385 -473,-747 -797,-1072l-13642 -13642c-1794,-1794 -4730,-1794 -6524,0l-13049 13048c-1794,1794 -1794,4730 0,6524l13642 13642c448,448 968,785 1523,1009 -6019,8928 -10229,19177 -12106,30220 -598,-285 -1266,-444 -1969,-444l-19292 0c-2537,0 -4613,2076 -4613,4613l0 18453c0,2537 2076,4613 4613,4613l19292 0c741,0 1442,-177 2063,-491 1943,10948 6182,21103 12202,29948 -469,220 -908,523 -1294,909l-13642 13642c-1794,1794 -1794,4730 0,6524l13049 13049c1794,1794 4730,1794 6524,0l13642 -13642c300,-300 549,-631 749,-984 9147,6559 19778,11179 31294,13257l0 18733c0,2537 2076,4613 4614,4613l18453 0c2537,0 4613,-2076 4613,-4613l0 -18724z"/>
  <circle class="fil2 str1" cx="180845" cy="134370" r="63329"/>
  <circle class="fil3 str1" cx="180845" cy="133950" r="49908"/>
  <circle class="fil4 str2" cx="180636" cy="134369" r="23647"/>
  <polygon class="fil5" points="80592,163720 182093,131991 184739,140522 95491,167599 "/>
  <polygon class="fil5" points="213269,233547 182280,131818 173742,134440 201669,223426 "/>
  <path class="fil6" d="M108555 317695l8166 2508c-1254,4598 -3344,8010 -6261,10246 -2916,2226 -6611,3344 -11092,3344 -5551,0 -10110,-1896 -13688,-5687 -3568,-3791 -5356,-8973 -5356,-15554 0,-6951 1798,-12356 5386,-16206 3587,-3850 8312,-5774 14164,-5774 5113,0 9264,1517 12453,4540 1905,1789 3325,4355 4277,7709l-8341 1983c-496,-2158 -1526,-3869 -3092,-5123 -1575,-1254 -3480,-1876 -5716,-1876 -3101,0 -5619,1108 -7544,3334 -1935,2217 -2897,5813 -2897,10791 0,5269 953,9031 2848,11267 1905,2246 4375,3363 7418,3363 2246,0 4180,-710 5794,-2139 1614,-1429 2780,-3665 3480,-6727z"/>
  <path id="1" class="fil6" d="M124138 291331l31206 0 0 7058 -22748 0 0 9683 11267 0c3101,0 5687,379 7729,1137 2051,758 3801,2158 5250,4209 1448,2041 2178,4443 2178,7194 0,2819 -729,5240 -2197,7252 -1458,2003 -3121,3383 -4997,4122 -1866,739 -4530,1108 -7981,1108l-19705 0 0 -41763zm8457 34705l8195 0c2615,0 4462,-126 5522,-379 1060,-253 1993,-826 2780,-1730 787,-894 1176,-2003 1176,-3315 0,-1915 -690,-3305 -2061,-4180 -1380,-865 -3723,-1303 -7048,-1303l-8565 0 0 10907z"/>
  <path id="2" class="fil6" d="M165891 333094l0 -41763 13522 0c5123,0 8458,204 10013,622 2392,632 4394,1993 6008,4093 1614,2100 2421,4812 2421,8137 0,2566 -467,4715 -1390,6465 -933,1750 -2110,3121 -3539,4122 -1429,992 -2887,1653 -4365,1973 -2012,399 -4919,603 -8730,603l-5483 0 0 15749 -8458 0zm8458 -34705l0 11899 4598 0c3315,0 5522,-224 6640,-661 1118,-437 1993,-1118 2625,-2061 632,-933 953,-2012 953,-3257 0,-1526 -447,-2780 -1332,-3772 -894,-992 -2012,-1614 -3383,-1867 -1001,-185 -3014,-282 -6047,-282l-4054 0z"/>
  <path id="3" class="fil6" d="M202278 312465c0,-4258 642,-7835 1915,-10732 943,-2129 2246,-4044 3889,-5736 1643,-1692 3441,-2946 5395,-3772 2605,-1098 5609,-1653 9012,-1653 6163,0 11082,1915 14786,5736 3694,3830 5541,9148 5541,15963 0,6756 -1837,12045 -5502,15856 -3665,3821 -8574,5726 -14708,5726 -6212,0 -11160,-1896 -14825,-5697 -3665,-3791 -5502,-9021 -5502,-15690zm8691 -282c0,4734 1098,8321 3286,10771 2187,2440 4968,3665 8331,3665 3373,0 6134,-1215 8302,-3636 2158,-2430 3237,-6066 3237,-10917 0,-4793 -1050,-8370 -3160,-10723 -2100,-2362 -4890,-3539 -8380,-3539 -3480,0 -6290,1196 -8419,3577 -2129,2391 -3198,5988 -3198,10800z"/>
  <path id="4" class="fil6" d="M276112 317695l8166 2508c-1254,4598 -3344,8010 -6261,10246 -2916,2226 -6611,3344 -11092,3344 -5551,0 -10110,-1896 -13688,-5687 -3568,-3791 -5356,-8973 -5356,-15554 0,-6951 1798,-12356 5386,-16206 3587,-3850 8312,-5774 14164,-5774 5113,0 9264,1517 12453,4540 1905,1789 3325,4355 4277,7709l-8341 1983c-496,-2158 -1526,-3869 -3092,-5123 -1575,-1254 -3480,-1876 -5716,-1876 -3101,0 -5619,1108 -7544,3334 -1935,2217 -2897,5813 -2897,10791 0,5269 953,9031 2848,11267 1905,2246 4375,3363 7418,3363 2246,0 4180,-710 5794,-2139 1614,-1429 2780,-3665 3480,-6727z"/>
  <path class="fil7" d="M208811 245325c-45953,69546 -176338,1582 -138129,-69926l-7181 -11500 28665 5758c-1508,9877 -3113,22870 -4621,32747l-6859 -10984c-20271,47330 80214,95368 112178,52829l-15741 838c7539,-6557 16731,-12335 24269,-18893l21125 18611 -13706 520z"/>
 </g>
</svg>
