<?xml version="1.0" encoding="UTF-8"?>
<!DOCTYPE svg PUBLIC "-//W3C//DTD SVG 1.1//EN" "http://www.w3.org/Graphics/SVG/1.1/DTD/svg11.dtd">
<!-- Creator: CorelDRAW X6 -->
<svg xmlns="http://www.w3.org/2000/svg" xml:space="preserve" width="150px" height="150px" version="1.1" style="shape-rendering:geometricPrecision; text-rendering:geometricPrecision; image-rendering:optimizeQuality; fill-rule:evenodd; clip-rule:evenodd"
viewBox="0 0 15000 15000"
 xmlns:xlink="http://www.w3.org/1999/xlink">
 <defs>
  <style type="text/css">
   <![CDATA[
    .str0 {stroke:gray;stroke-width:127}
    .fil0 {fill:url(#id0)}
    .fil1 {fill:url(#id1);fill-rule:nonzero}
   ]]>
  </style>
  <radialGradient id="id0" gradientUnits="objectBoundingBox" cx="50%" cy="50%" r="50%" fx="50%" fy="50%">
   <stop offset="0" style="stop-color:#5C9C7C"/>
   <stop offset="0.701961" style="stop-color:#5C9C7C"/>
   <stop offset="1" style="stop-color:#518068"/>
  </radialGradient>
  <linearGradient id="id1" gradientUnits="userSpaceOnUse" x1="7272.72" y1="9801.77" x2="7272.72" y2="5820.85">
   <stop offset="0" style="stop-color:#B3B3B3"/>
   <stop offset="1" style="stop-color:white"/>
  </linearGradient>
 </defs>
 <g id="Layer_x0020_1">
  <metadata id="CorelCorpID_0Corel-Layer"/>
  <path class="fil0" d="M2817 285l9362 0c1418,0 2569,1150 2569,2569l0 9362c0,1418 -1150,2569 -2569,2569l-9362 0c-1418,0 -2569,-1150 -2569,-2569l0 -9362c0,-1418 1150,-2569 2569,-2569z"/>
  <path class="fil1 str0" d="M4225 9137l-1282 0 -184 604 -1155 0c460,-1221 750,-2332 1156,-3089 446,-831 1476,-801 1766,34l1055 3041 -1172 13 -183 -604zm-240 -793l-400 -1317 -402 1317 802 0zm1971 -2266l2121 0c353,0 624,88 813,263 189,175 284,391 284,650 0,217 -67,402 -203,557 -90,104 -222,185 -395,246 263,63 456,171 581,326 124,154 186,348 186,581 0,190 -44,361 -132,512 -89,152 -210,271 -362,360 -96,55 -239,95 -431,119 -255,33 -424,50 -507,50l-1954 0 0 -3663zm1674 1332c788,0 749,-504 -19,-504 -650,0 -843,504 19,504zm31 1457c773,0 697,-576 -9,-576 -929,0 -916,576 9,576zm5265 -23l0 941c-625,0 -846,18 -1224,18 -399,0 -724,-58 -977,-173 -252,-116 -470,-320 -653,-611 -183,-291 -275,-664 -275,-1118 0,-605 161,-1071 483,-1397 323,-325 779,-488 1369,-488 833,0 978,-8 1292,13 -9,287 -17,437 -17,978 -450,-11 -977,-9 -1272,-9 -554,0 -720,390 -720,896 0,506 5,927 639,940 284,6 1105,2 1354,10z"/>
 </g>
</svg>
