<?xml version="1.0" encoding="UTF-8"?>
<!DOCTYPE svg PUBLIC "-//W3C//DTD SVG 1.1//EN" "http://www.w3.org/Graphics/SVG/1.1/DTD/svg11.dtd">
<!-- Creator: CorelDRAW X6 -->
<svg xmlns="http://www.w3.org/2000/svg" xml:space="preserve" width="150px" height="150px" version="1.1" style="shape-rendering:geometricPrecision; text-rendering:geometricPrecision; image-rendering:optimizeQuality; fill-rule:evenodd; clip-rule:evenodd"
viewBox="0 0 15000 15000"
 xmlns:xlink="http://www.w3.org/1999/xlink">
 <defs>
  <style type="text/css">
   <![CDATA[
    .str0 {stroke:black;stroke-width:127}
    .fil7 {fill:none}
    .fil5 {fill:#253952}
    .fil2 {fill:#98B1D1}
    .fil3 {fill:#D8E1ED}
    .fil4 {fill:#FFF5B3}
    .fil6 {fill:white}
    .fil1 {fill:black;fill-opacity:0.000000}
    .fil0 {fill:url(#id2)}
   ]]>
  </style>
    <clipPath id="id0">
     <path d="M1401 14403l12228 0 0 -13893 -12228 0 0 13893z"/>
    </clipPath>
    <clipPath id="id1">
     <path d="M1401 14403l12228 0 0 -13893 -12228 0 0 13893z"/>
    </clipPath>
  <radialGradient id="id2" gradientUnits="objectBoundingBox" cx="50%" cy="50%" r="50%" fx="50%" fy="50%">
   <stop offset="0" style="stop-color:#9CD448"/>
   <stop offset="0.811765" style="stop-color:#9CD448"/>
   <stop offset="1" style="stop-color:#85BA3F"/>
  </radialGradient>
 </defs>
 <g id="Layer_x0020_1">
  <metadata id="CorelCorpID_0Corel-Layer"/>
  <path class="fil0" d="M2817 285l9362 0c1418,0 2569,1150 2569,2569l0 9362c0,1418 -1150,2569 -2569,2569l-9362 0c-1418,0 -2569,-1150 -2569,-2569l0 -9362c0,-1418 1150,-2569 2569,-2569z"/>
 </g>
 <g id="Слой_x0020_1">
  <metadata id="CorelCorpID_1Corel-Layer"/>
  <g id="_170086424">
   <g style="clip-path:url(#id0)">
    <polygon class="fil1" points="1401,510 13629,510 13629,14403 1401,14403 "/>
   </g>
   <g style="clip-path:url(#id1)">
    <g>
     <polygon id="1" class="fil2" points="12179,5119 12192,5559 12202,5998 12269,6034 12337,6075 12401,6117 12468,6165 12532,6213 12596,6268 12657,6322 12721,6383 12754,6415 12786,6454 12783,6338 12783,6281 12783,6226 12776,6002 12767,5771 12757,5543 12750,5424 12744,5312 12734,5078 12718,4844 12702,4613 12404,4545 12106,4481 11807,4420 11512,4366 11214,4314 10919,4266 10624,4221 10329,4183 10033,4144 9738,4112 9443,4083 9148,4061 8853,4038 8558,4022 7974,4000 7637,3993 7307,3993 6979,3997 6659,4003 6335,4016 6014,4035 5690,4055 5366,4083 5045,4115 4724,4151 4404,4192 4080,4237 3759,4289 3438,4343 3117,4401 2800,4465 2479,4536 2161,4609 2158,4613 2158,4629 2158,4651 2158,4683 2155,4699 2155,4722 2155,4767 2155,4821 2155,4885 2152,4953 2152,5033 2152,5119 2152,5216 2148,5318 2148,5431 2148,5549 2148,5678 2148,5758 2148,5844 2145,5915 2145,5992 2145,6072 2148,6159 2148,6249 2155,6342 2158,6444 2161,6547 2232,6463 2312,6387 2415,6284 2524,6194 2636,6114 2755,6043 2748,5678 2755,5100 3050,5042 3348,4988 3646,4933 3945,4888 4240,4844 4538,4802 4837,4767 5135,4735 5430,4706 5728,4680 6024,4658 6319,4642 6614,4629 6909,4619 7204,4613 7502,4616 7791,4616 8086,4622 8381,4632 8676,4648 8965,4664 9260,4686 9552,4712 9847,4744 10139,4776 10431,4811 10723,4853 11012,4901 11304,4949 11592,5001 11884,5055 12176,5119 "/>
     <polygon id="_1_0" class="fil3" points="12202,5998 12192,5559 12179,5119 12176,5119 11884,5055 11592,5001 11304,4949 11012,4901 10723,4853 10431,4811 10139,4776 9847,4744 9552,4712 9260,4686 8965,4664 8676,4648 8381,4632 8086,4622 7791,4616 7502,4616 7204,4613 6909,4619 6614,4629 6319,4642 6024,4658 5728,4680 5430,4706 5135,4735 4837,4767 4538,4802 4240,4844 3945,4888 3646,4933 3348,4988 3050,5042 2755,5100 2748,5678 2755,6043 2867,5979 2986,5925 3104,5880 3236,5844 3364,5812 3496,5793 3630,5780 3772,5777 3878,5780 3980,5787 4028,5790 4080,5796 4182,5816 4282,5835 4330,5848 4378,5864 4423,5877 4471,5893 4567,5928 4654,5966 4744,6011 4785,6034 4827,6063 4914,6117 4997,6175 5077,6242 5116,6274 5158,6310 5234,6387 5305,6460 5376,6537 5437,6617 5497,6704 5552,6784 5603,6871 5645,6961 5690,7051 5722,7144 5754,7237 5780,7333 5802,7432 5818,7532 5831,7634 5837,7737 5841,7846 5837,7898 5837,7952 5831,8055 5821,8103 5818,8128 5818,8154 5809,8205 5802,8257 5789,8305 5780,8356 5770,8379 5767,8388 5764,8401 5754,8452 5738,8497 5722,8545 5703,8594 5690,8642 5645,8728 5603,8818 5574,8860 5568,8869 5562,8879 5552,8901 5523,8946 5517,8956 5510,8966 5497,8988 5469,9030 5437,9071 5376,9152 5340,9190 5305,9232 5270,9267 5234,9309 5193,9344 5158,9380 5116,9415 5077,9450 4997,9511 4955,9543 4914,9572 4891,9585 4882,9591 4872,9598 4827,9627 4805,9636 4795,9643 4785,9649 4744,9678 4654,9720 4567,9764 4542,9771 4519,9780 4471,9797 4423,9813 4378,9829 4330,9841 4314,9845 4304,9848 4282,9854 4230,9867 4182,9877 4131,9886 4080,9893 4054,9896 4028,9899 3980,9906 3878,9912 3823,9915 3772,9918 3656,9912 3550,9906 3444,9893 3342,9874 3239,9848 3140,9822 3043,9787 2950,9752 2973,10002 3040,10647 3120,11295 3518,11420 4080,11003 4577,11657 4817,11705 4907,11724 5032,11744 5372,11795 5542,11818 5716,11843 6056,11882 6399,11911 6566,11923 6736,11933 7079,11949 7246,11952 7416,11955 7759,11955 8096,11946 8433,11930 8769,11907 9106,11875 9190,11865 9273,11856 9443,11834 9780,11789 9943,11760 10114,11734 10450,11670 10941,11003 11503,11423 11929,11295 11932,11246 11932,11234 11936,11221 11939,11198 11948,11102 11974,10910 11993,10717 12013,10525 12048,10140 12083,9752 12032,9768 11984,9787 11936,9806 11910,9813 11888,9822 11788,9851 11737,9864 11685,9877 11631,9883 11605,9886 11599,9886 11592,9890 11579,9893 11525,9899 11474,9906 11419,9912 11365,9915 11336,9915 11310,9915 11256,9918 11143,9915 11037,9906 10928,9893 10826,9877 10723,9851 10624,9825 10527,9793 10431,9755 10351,9716 10271,9675 10190,9630 10117,9582 10043,9527 9969,9473 9899,9412 9831,9351 9793,9312 9719,9235 9681,9193 9648,9155 9613,9113 9584,9075 9523,8991 9469,8905 9443,8860 9417,8818 9376,8731 9353,8683 9337,8642 9299,8545 9283,8497 9270,8452 9254,8401 9241,8356 9222,8257 9206,8154 9196,8103 9193,8055 9187,7952 9187,7846 9190,7660 9199,7570 9215,7484 9228,7394 9247,7310 9270,7227 9299,7147 9328,7063 9363,6986 9398,6906 9443,6833 9488,6755 9536,6685 9645,6544 9713,6460 9793,6383 9899,6284 10008,6194 10120,6114 10236,6043 10351,5979 10470,5925 10588,5880 10717,5844 10845,5812 10980,5793 11114,5780 11256,5777 11384,5780 11445,5784 11506,5790 11631,5806 11750,5832 11807,5844 11868,5864 11984,5899 12093,5944 12147,5970 "/>
     <path id="_12" class="fil4" d="M12920 6608l-64 -80 -67 -74 -35 -39 -32 -32 -64 -61 -61 -55 -64 -55 -64 -48 -67 -48 -64 -42 -67 -42 -67 -35 -55 -29 -55 -26 -112 -45 -115 -39 -61 -16 -58 -13 -122 -26 -122 -16 -64 -6 -61 -3 -125 -3 -141 3 -135 13 -132 19 -128 32 -128 35 -122 45 -119 55 -112 64 -115 71 -112 80 -109 90 -106 99 -77 77 -71 83 -109 141 -48 74 -45 74 -45 74 -35 77 -35 77 -29 83 -29 80 -22 83 -22 83 -13 87 -13 87 -10 90 -6 186 3 106 6 103 3 51 6 51 16 103 22 96 13 48 16 51 13 45 16 48 35 93 16 45 22 45 45 87 22 42 26 45 55 87 61 83 32 42 35 42 32 39 35 42 74 77 39 35 67 64 71 61 74 55 74 55 74 48 77 45 80 42 83 42 93 35 96 32 96 26 103 26 103 16 106 13 106 6 112 3 55 -3 26 -3 29 0 55 -3 55 -3 51 -6 55 -6 13 -3 6 -3 6 0 26 -3 55 -6 51 -13 51 -13 99 -29 22 -10 26 -6 51 -16 48 -19 51 -16 80 -42 19 -13 3 -3 6 -3 13 -3 42 -22 39 -26 42 -22 39 -26 42 -22 16 -16 19 -13 39 -26 16 -16 19 -13 39 -26 74 -64 74 -64 13 -13 10 -10 35 -42 35 -39 35 -42 35 -39 32 -42 16 -22 16 -19 32 -42 32 -42 13 -22 6 -13 6 -10 26 -42 13 -22 6 -13 6 -10 26 -42 45 -87 22 -45 10 -22 13 -22 6 -26 10 -22 16 -45 16 -48 16 -45 13 -51 3 -13 3 -13 6 -22 13 -51 13 -48 6 -51 6 -51 3 -26 3 -26 6 -51 6 -103 3 -55 3 -51 -3 -87 -6 -87 -10 -83 -10 -83 -16 -83 -16 -80 -22 -80 -22 -77 -29 -77 -32 -74 -32 -74 -35 -71 -42 -74 -42 -67 -45 -71 -48 -64 0 10 0 1zm-712 90l51 45 51 51 51 55 48 55 45 58 45 61 39 61 35 64 32 64 32 67 26 64 22 67 16 71 16 71 13 71 10 74 6 74 3 77 -3 6 0 10 0 19 0 39 -3 35 -3 39 -10 74 -13 74 -16 71 -16 67 -13 32 -10 35 -26 71 -32 64 -32 64 -35 61 -39 64 -45 58 -22 29 -22 32 -26 26 -22 29 -51 58 -22 19 -13 10 -10 13 -42 39 -45 35 -22 16 -22 19 -51 32 -26 16 -22 16 -99 58 -55 26 -51 22 -55 22 -26 10 -26 13 -58 16 -16 3 -13 3 -26 6 -58 13 -55 13 -61 6 -32 3 -29 3 -61 3 -32 0 -16 0 -6 0 -6 3 -77 -3 -74 -6 -74 -10 -71 -13 -74 -16 -67 -16 -71 -22 -64 -26 -67 -32 -64 -32 -64 -35 -61 -39 -61 -45 -58 -45 -55 -48 -55 -51 -55 -58 -48 -55 -48 -61 -42 -58 -42 -64 -35 -61 -32 -64 -26 -64 -29 -71 -22 -67 -19 -67 -13 -71 -13 -74 -6 -74 -6 -74 0 -74 0 -77 6 -74 6 -74 13 -71 32 -141 22 -67 29 -64 26 -67 32 -64 35 -64 42 -61 42 -61 48 -58 48 -55 55 -55 109 -106 58 -48 61 -42 61 -42 64 -35 64 -32 67 -26 64 -29 71 -22 67 -19 74 -13 71 -13 74 -6 74 -6 77 0 64 0 67 3 64 6 64 13 61 10 64 16 61 16 61 22 58 22 58 26 55 26 58 32 55 32 55 35 51 39 55 45 3 0 0 -1z"/>
     <path id="_123" class="fil5" d="M12308 6794l-51 -51 -51 -45 -55 -45 -51 -39 -55 -35 -55 -32 -58 -32 -55 -26 -58 -26 -58 -22 -61 -22 -61 -16 -64 -16 -61 -10 -64 -13 -64 -6 -67 -3 -64 0 -77 0 -74 6 -74 6 -71 13 -74 13 -67 19 -71 22 -64 29 -67 26 -64 32 -64 35 -61 42 -61 42 -58 48 -109 106 -55 55 -48 55 -48 58 -42 61 -42 61 -35 64 -32 64 -26 67 -29 64 -22 67 -32 141 -13 71 -6 74 -6 74 0 77 0 74 6 74 6 74 13 74 13 71 19 67 22 67 29 71 26 64 32 64 35 61 42 64 42 58 48 61 48 55 55 58 55 51 55 48 58 45 61 45 61 39 64 35 64 32 67 32 64 26 71 22 67 16 74 16 71 13 74 10 74 6 77 3 6 -3 6 0 16 0 32 0 61 -3 29 -3 32 -3 61 -6 55 -13 58 -13 26 -6 13 -3 16 -3 58 -16 26 -13 26 -10 55 -22 51 -22 55 -26 99 -58 22 -16 26 -16 51 -32 22 -19 22 -16 45 -35 42 -39 10 -13 13 -10 22 -19 51 -58 22 -29 26 -26 22 -32 22 -29 45 -58 39 -64 35 -61 32 -64 32 -64 26 -71 10 -35 13 -32 16 -67 16 -71 13 -74 10 -74 3 -39 3 -35 0 -39 0 -19 0 -10 3 -6 -3 -77 -6 -74 -10 -74 -13 -71 -16 -71 -16 -71 -22 -67 -26 -64 -32 -67 -32 -64 -35 -64 -39 -61 -45 -61 -45 -58 -48 -55 -51 -55 -3 0 0 1zm-2114 725l-3 -42 6 -39 10 -39 13 -35 13 -35 22 -32 26 -32 29 -29 61 -51 32 -22 35 -13 35 -13 39 -10 39 -6 42 0 39 0 39 6 35 10 35 13 32 13 35 22 32 22 32 29 26 29 26 32 19 32 16 35 13 35 10 39 6 39 3 42 -3 39 -6 39 -3 6 -3 3 0 6 -3 19 -13 35 -10 16 -6 16 -19 35 -26 32 -26 32 -32 26 -32 26 -35 19 -16 6 -16 10 -35 13 -19 3 -6 0 -3 3 -6 3 -39 6 -39 3 -42 -3 -39 -6 -39 -10 -35 -13 -35 -16 -32 -19 -32 -26 -29 -26 -29 -32 -26 -32 -22 -35 -13 -32 -13 -35 -10 -35 -6 -39 3 -39 0 0 0 0z"/>
     <polygon id="_1234" class="fil6" points="10309,7243 10280,7272 10255,7301 10232,7333 10219,7368 10207,7403 10197,7442 10190,7480 10194,7522 10190,7561 10197,7599 10207,7634 10219,7670 10232,7705 10255,7737 10280,7769 10309,7798 10338,7824 10367,7849 10399,7869 10434,7885 10470,7898 10508,7907 10547,7914 10588,7914 10627,7914 10665,7907 10672,7904 10675,7901 10681,7901 10701,7898 10736,7885 10752,7875 10771,7869 10803,7849 10835,7824 10864,7798 10890,7769 10916,7737 10935,7705 10941,7686 10951,7670 10964,7634 10967,7615 10967,7609 10970,7606 10973,7599 10980,7561 10980,7522 10980,7480 10973,7442 10964,7403 10951,7368 10935,7333 10916,7301 10890,7272 10864,7243 10835,7214 10803,7189 10771,7169 10736,7156 10701,7144 10665,7134 10627,7128 10588,7128 10547,7128 10508,7134 10470,7144 10434,7156 10399,7169 10367,7189 "/>
     <polygon id="_12345" class="fil3" points="12417,12584 12439,12485 12452,12437 12452,12424 12455,12411 12465,12388 12484,12289 12507,12190 12634,10963 12218,11134 11916,11234 11490,11359 10928,10939 10438,11609 10101,11670 9931,11699 9767,11724 9430,11772 9260,11792 9177,11801 9094,11814 8757,11843 8420,11869 8083,11882 7746,11894 7403,11894 7233,11891 7066,11885 6723,11872 6553,11859 6386,11849 6043,11818 5703,11779 5530,11756 5360,11734 5019,11679 4894,11660 4808,11644 4564,11596 4067,10939 3313,11047 2415,11728 2440,11872 2466,12013 2498,12158 2527,12292 2562,12430 2598,12562 2636,12696 2675,12825 2720,12953 2764,13081 2813,13207 2880,13232 2999,13267 3117,13306 3361,13376 3480,13409 3599,13444 3842,13508 3897,13521 3958,13537 4076,13566 4314,13623 4372,13636 4400,13643 4429,13649 4548,13675 4789,13726 4901,13749 5019,13771 5254,13816 5369,13832 5485,13851 5719,13890 5744,13890 5773,13893 5831,13903 5947,13919 6177,13947 6290,13957 6405,13970 6633,13992 6758,13999 6886,14008 7137,14024 7262,14028 7390,14031 7640,14037 7765,14037 7891,14037 8138,14031 8259,14028 8320,14021 8352,14021 8385,14021 8506,14012 8571,14008 8599,14008 8632,14008 8859,13986 8972,13973 9087,13963 9312,13938 9427,13922 9539,13909 9764,13874 9873,13854 9902,13848 9931,13845 9988,13835 10210,13793 10431,13752 10649,13697 10867,13646 10976,13614 11028,13598 11057,13591 11086,13585 11304,13527 11519,13460 11734,13389 11836,13351 11945,13312 12160,13239 12208,13219 12234,13207 12253,13142 12276,13084 12346,12838 12381,12709 "/>
     <polygon id="_123456" class="fil2" points="12083,9752 12048,10140 12013,10525 11993,10717 11974,10910 11948,11102 11939,11198 11863,11594 12439,11772 12564,10874 12574,10765 12587,10656 12609,10438 12612,10383 12619,10329 12628,10223 12648,10002 12667,9780 12683,9559 12696,9334 12625,9399 12551,9463 12513,9489 12494,9501 12478,9517 12439,9543 12420,9559 12401,9572 12362,9598 12324,9620 12282,9646 12244,9668 12202,9691 12192,9694 12186,9697 12183,9700 12163,9710 "/>
     <polygon id="_1234567" class="fil3" points="8182,1376 8176,1318 8170,1264 8157,1209 8138,1158 8115,1110 8086,1062 8054,1017 8016,978 7974,936 7948,917 7929,901 7881,872 7855,859 7833,850 7807,840 7782,831 7727,821 7698,815 7672,811 7615,811 7557,811 7502,821 7448,831 7396,850 7348,872 7300,901 7255,936 7217,978 7175,1017 7140,1062 7111,1110 7092,1158 7073,1209 7060,1264 7053,1318 7053,1376 7050,1405 7053,1434 7053,1459 7060,1488 7073,1543 7079,1565 7092,1594 7111,1642 7140,1690 7156,1710 7175,1732 7217,1777 7259,1815 7307,1851 7355,1880 7413,1905 7307,3993 7637,3993 7974,4000 7862,1886 7900,1860 7919,1847 7942,1838 7958,1822 7977,1809 8016,1777 8035,1754 8054,1732 8070,1710 8077,1700 8083,1694 8086,1690 8089,1681 8093,1677 8102,1665 8115,1642 8125,1617 8138,1594 8147,1565 8150,1552 8157,1543 8170,1488 8173,1459 8176,1434 8176,1418 8176,1411 8176,1405 8179,1405 "/>
     <path id="_12345678" class="fil4" d="M3772 5777l-141 3 -135 13 -132 19 -128 32 -128 35 -122 45 -119 55 -112 64 -115 71 -112 80 -109 90 -103 103 -77 77 -71 83 -109 141 -48 74 -45 74 -45 74 -35 77 -35 77 -29 83 -29 80 -22 83 -22 83 -13 87 -13 87 -6 90 -6 90 0 93 3 106 6 103 3 51 6 51 16 103 22 96 13 48 16 51 13 45 16 48 35 93 39 87 45 87 22 42 26 45 55 87 61 83 64 80 32 39 35 42 74 77 35 39 67 64 71 61 74 55 74 55 74 48 77 45 80 42 83 42 93 35 96 35 96 26 103 26 103 16 106 13 106 6 112 6 51 -3 55 -3 103 -6 51 -6 26 -3 26 -3 51 -6 51 -6 48 -13 51 -13 22 -6 13 -3 13 -3 51 -13 45 -16 48 -16 45 -16 22 -10 26 -6 87 -42 87 -45 42 -26 10 -6 13 -6 22 -13 42 -26 10 -6 13 -6 22 -13 42 -32 42 -32 80 -64 39 -35 42 -35 39 -35 42 -35 35 -42 35 -39 35 -42 35 -39 64 -80 32 -42 32 -42 13 -22 6 -13 6 -10 26 -42 13 -22 6 -13 6 -10 26 -42 45 -87 42 -87 16 -48 16 -45 16 -48 16 -45 13 -51 3 -13 3 -13 6 -22 13 -51 13 -48 6 -51 6 -51 3 -26 3 -26 6 -51 6 -103 3 -55 3 -51 -6 -106 -6 -103 -13 -103 -16 -99 -22 -99 -26 -96 -32 -93 -32 -90 -42 -93 -45 -87 -51 -87 -51 -83 -61 -83 -64 -80 -71 -77 -71 -74 -77 -74 -42 -35 -39 -32 -80 -64 -83 -61 -87 -55 -45 -26 -42 -22 -87 -45 -87 -39 -93 -35 -48 -16 -45 -13 -51 -16 -48 -13 -96 -22 -103 -16 -51 -6 -51 -3 -103 -6 -106 -3 0 0 0 0zm1052 3118l-58 51 -29 22 -26 26 -32 22 -29 22 -58 45 -64 39 -61 35 -64 32 -10 3 -6 3 -16 6 -32 16 -71 26 -35 10 -32 13 -71 16 -67 16 -74 13 -74 10 -39 3 -35 3 -74 3 -77 -3 -74 -6 -74 -10 -71 -13 -71 -16 -71 -16 -67 -22 -64 -26 -67 -29 -64 -32 -64 -35 -61 -39 -61 -45 -58 -45 -58 -48 -55 -51 -55 -58 -48 -55 -48 -61 -42 -58 -42 -64 -35 -61 -32 -64 -26 -64 -26 -71 -22 -67 -19 -67 -13 -71 -13 -74 -6 -74 -6 -74 0 -74 0 -77 6 -74 6 -74 13 -71 32 -141 48 -132 26 -67 32 -64 35 -64 42 -61 42 -61 48 -58 48 -55 55 -55 55 -55 58 -48 58 -48 61 -42 61 -42 64 -35 64 -32 67 -26 64 -29 67 -22 141 -32 71 -13 74 -6 74 -6 77 0 74 0 74 6 74 6 74 13 67 13 71 19 67 22 71 29 64 26 64 32 61 35 64 42 58 42 61 48 55 48 58 55 51 55 48 55 45 58 45 61 39 61 35 64 32 64 32 67 26 64 22 67 16 71 16 71 13 71 10 74 6 74 3 77 -3 6 0 10 0 19 0 39 -3 35 -3 39 -10 74 -13 74 -16 71 -16 67 -13 32 -10 35 -26 71 -32 64 -32 64 -35 61 -39 64 -45 58 -22 29 -22 32 -26 26 -22 29 -51 58 0 0 0 -1z"/>
     <path id="_123456789" class="fil5" d="M3772 9331l74 -3 35 -3 39 -3 74 -10 74 -13 67 -16 71 -16 32 -13 35 -10 71 -26 32 -16 16 -6 6 -3 10 -3 64 -32 61 -35 64 -39 58 -45 29 -22 32 -22 26 -26 29 -22 58 -51 51 -58 22 -29 26 -26 22 -32 22 -29 45 -58 39 -64 35 -61 32 -64 32 -64 26 -71 10 -35 13 -32 16 -67 16 -71 13 -74 10 -74 3 -39 3 -35 0 -39 0 -19 0 -10 3 -6 -3 -77 -6 -74 -10 -74 -13 -71 -16 -71 -16 -71 -22 -67 -26 -64 -32 -67 -32 -64 -35 -64 -39 -61 -45 -61 -45 -58 -48 -55 -51 -55 -58 -55 -55 -48 -61 -48 -58 -42 -64 -42 -61 -35 -64 -32 -64 -26 -71 -29 -67 -22 -71 -19 -67 -13 -74 -13 -74 -6 -74 -6 -74 0 -77 0 -74 6 -74 6 -71 13 -141 32 -67 22 -64 29 -67 26 -64 32 -64 35 -61 42 -61 42 -58 48 -58 48 -55 55 -55 55 -48 55 -48 58 -42 61 -42 61 -35 64 -32 64 -26 67 -48 132 -32 141 -13 71 -6 74 -6 74 0 77 0 74 6 74 6 74 13 74 13 71 19 67 22 67 26 71 26 64 32 64 35 61 42 64 42 58 48 61 48 55 55 58 55 51 58 48 58 45 61 45 61 39 64 35 64 32 67 29 64 26 67 22 71 16 71 16 71 13 74 10 74 6 77 3 0 0 0 1zm-273 -1809l-3 39 -6 39 -3 6 -3 3 0 6 -3 19 -13 35 -10 16 -6 16 -19 35 -26 32 -26 32 -16 13 -16 13 -32 26 -35 19 -16 6 -16 10 -35 13 -19 3 -6 0 -3 3 -6 3 -39 6 -39 3 -42 -3 -39 -6 -35 -10 -35 -13 -35 -16 -32 -19 -32 -26 -29 -26 -29 -32 -26 -32 -22 -35 -13 -32 -13 -35 -10 -35 -6 -39 3 -39 -3 -42 6 -39 10 -39 13 -35 13 -35 22 -32 26 -32 29 -29 61 -51 32 -22 35 -13 35 -13 35 -10 39 -6 42 0 39 0 39 6 35 10 35 13 32 13 35 22 32 22 32 29 26 29 26 32 19 32 16 35 13 35 10 39 6 39 3 42 0 0 0 0z"/>
     <polygon id="_12345678910" class="fil6" points="3380,7798 3406,7769 3432,7737 3451,7705 3457,7686 3467,7670 3480,7634 3483,7615 3483,7609 3486,7606 3489,7599 3496,7561 3496,7522 3496,7480 3489,7442 3480,7403 3467,7368 3451,7333 3432,7301 3406,7272 3380,7243 3348,7214 3319,7189 3284,7169 3252,7156 3217,7144 3178,7134 3140,7128 3101,7128 3060,7128 3021,7134 2986,7144 2950,7156 2915,7169 2883,7189 2825,7243 2796,7272 2771,7301 2748,7333 2736,7368 2723,7403 2713,7442 2707,7480 2710,7522 2707,7561 2713,7599 2723,7634 2736,7670 2748,7705 2771,7737 2796,7769 2825,7798 2854,7824 2883,7849 2915,7869 2950,7885 2986,7898 3021,7907 3060,7914 3101,7914 3140,7914 3178,7907 3188,7904 3191,7901 3197,7901 3217,7898 3252,7885 3268,7875 3284,7869 3319,7849 3348,7824 3364,7811 "/>
     <polygon id="_1234567891011" class="fil2" points="3095,11648 3040,10647 2973,10002 2950,9752 2867,9710 2787,9671 2707,9627 2633,9578 2559,9524 2340,9420 2373,9668 2402,10002 2424,10265 2447,10538 2469,10817 2559,11744 "/>
     <polyline id="_123456789101112" class="fil7 str0" points="12202,5998 12192,5559 12179,5119 11884,5055 11592,5001 11304,4949 11012,4901 10723,4853 10431,4811 10139,4776 9847,4744 9552,4712 9260,4686 8965,4664 8676,4648 8381,4632 8086,4622 7791,4616 7502,4616 7204,4613 6909,4619 6614,4629 6319,4642 6024,4658 5728,4680 5430,4706 5135,4735 4837,4767 4538,4802 4240,4844 3945,4888 3646,4933 3348,4988 3050,5042 2755,5100 2748,5678 2755,6043 "/>
     <polyline id="_123456789101112131415" class="fil7 str0" points="2411,11670 2453,11936 2479,12077 2511,12218 2540,12356 2575,12491 2610,12626 2649,12761 2687,12889 2732,13017 2777,13142 2825,13271 2893,13293 3011,13332 3130,13370 3374,13441 3493,13473 3611,13508 3852,13569 3910,13582 3971,13598 4089,13630 4327,13688 4384,13697 4413,13704 4442,13710 4561,13739 4798,13790 4914,13813 5032,13835 5267,13877 5379,13896 5497,13915 5732,13951 5757,13954 5786,13957 5844,13963 5959,13980 6187,14008 6303,14021 6418,14034 6646,14053 6771,14063 6896,14073 7149,14089 7275,14092 7403,14095 7653,14101 7778,14098 7900,14098 8150,14095 8272,14089 8333,14085 8365,14082 8397,14082 8519,14076 8580,14073 8612,14069 8644,14069 8872,14050 8984,14037 9100,14028 9324,14002 9437,13986 9552,13973 9777,13935 9886,13915 9915,13912 9940,13906 9998,13899 10223,13858 10444,13813 10662,13761 10880,13707 10989,13678 11041,13662 11069,13656 11098,13649 11316,13588 11531,13521 11746,13450 11849,13412 11958,13376 12173,13300 12221,13280 12247,13271 12266,13207 12288,13149 12359,12898 12394,12773 12430,12648 12452,12549 12462,12498 12465,12485 12468,12475 12478,12449 12497,12350 12519,12254 12620,11734 "/>
     <polyline id="_12345678910111213141516" class="fil7 str0" points="12083,9752 12048,10140 12013,10525 11993,10717 11974,10910 11872,11629 "/>
     <path id="_123456789101112131415161718" class="fil7 str0" d="M12540 11815l-934 -193 -581 -945 -504 590c-2453,-734 -3651,-686 -5883,64l-497 -606 -552 901 -1150 172"/>
     <polyline id="_12345678910111213141516171819" class="fil7 str0" points="12472,11741 12564,10874 12574,10765 12587,10656 12609,10438 12612,10383 12619,10329 12628,10223 12648,10002 12667,9780 12683,9559 12689,9398 "/>
     <polyline id="_123456789101112131415161718192021" class="fil7 str0" points="7948,4000 8558,4022 8853,4038 9148,4061 9443,4083 9738,4112 10033,4144 10329,4183 10624,4221 10919,4266 11214,4314 11512,4366 11807,4420 12106,4481 12404,4545 12702,4613 12718,4844 12734,5078 12744,5312 12750,5424 12757,5543 12767,5771 12776,6002 12783,6226 12783,6281 12783,6338 12786,6454 "/>
     <polyline id="_12345678910111213141516171819202122" class="fil7 str0" points="7974,4000 7862,1886 7900,1860 7919,1847 7942,1838 7958,1822 7977,1809 8016,1777 8035,1754 8054,1732 8070,1710 8077,1700 8083,1694 8086,1690 8089,1681 8093,1677 8102,1665 8115,1642 8125,1617 8138,1594 8147,1565 8150,1552 8157,1543 8170,1488 8173,1459 8176,1434 8176,1418 8176,1411 8176,1405 8179,1405 8182,1376 8176,1318 8170,1264 8157,1209 8138,1158 8115,1110 8086,1062 8054,1017 8016,978 7974,936 7948,917 7929,901 7881,872 7855,859 7833,850 7807,840 7782,831 7727,821 7698,815 7672,811 7615,811 7557,811 7502,821 7448,831 7396,850 7348,872 7300,901 7255,936 7217,978 7175,1017 7140,1062 7111,1110 7092,1158 7073,1209 7060,1264 7053,1318 7053,1376 7050,1405 7053,1434 7053,1459 7060,1488 7073,1543 7079,1565 7092,1594 7111,1642 7140,1690 7156,1710 7175,1732 7217,1777 7259,1815 7307,1851 7355,1880 7413,1905 7307,3993 "/>
     <polyline id="_1234567891011121314151617181920212223" class="fil7 str0" points="7243,3993 7637,3993 7974,4000 "/>
     <polyline id="_12345678910111213141516171819202122232425" class="fil7 str0" points="2161,6547 2158,6444 2155,6342 2148,6249 2148,6159 2145,6072 2145,5992 2145,5915 2148,5844 2148,5758 2148,5678 2148,5549 2148,5431 2148,5318 2152,5216 2152,5119 2152,5033 2152,4953 2155,4885 2155,4821 2155,4767 2155,4722 2155,4699 2158,4683 2158,4651 2158,4629 2158,4613 2161,4609 2479,4536 2800,4465 3117,4401 3438,4343 3759,4289 4080,4237 4404,4192 4724,4151 5045,4115 5366,4083 5690,4055 6014,4035 6335,4016 6659,4003 6979,3997 7307,3993 "/>
     <polyline id="_1234567891011121314151617181920212223242526272829" class="fil7 str0" points="3169,11699 3040,10647 2973,10002 2950,9752 "/>
     <polyline id="_12345678910111213141516171819202122232425262728293031" class="fil7 str0" points="2347,9391 2373,9668 2402,10002 2424,10265 2447,10538 2469,10817 2572,11782 "/>
    </g>
   </g>
   <polygon class="fil7" points="1401,14403 13629,14403 13629,510 1401,510 "/>
   <circle class="fil7 str0" cx="3769" cy="7865" r="2092"/>
   <circle class="fil7 str0" cx="11262" cy="7865" r="2092"/>
  </g>
 </g>
</svg>
