<?xml version="1.0" encoding="UTF-8"?>
<!DOCTYPE svg PUBLIC "-//W3C//DTD SVG 1.1//EN" "http://www.w3.org/Graphics/SVG/1.1/DTD/svg11.dtd">
<!-- Creator: CorelDRAW X6 -->
<svg xmlns="http://www.w3.org/2000/svg" xml:space="preserve" width="100px" height="100px" version="1.1" style="shape-rendering:geometricPrecision; text-rendering:geometricPrecision; image-rendering:optimizeQuality; fill-rule:evenodd; clip-rule:evenodd"
viewBox="0 0 10000 10000"
 xmlns:xlink="http://www.w3.org/1999/xlink">
 <defs>
  <style type="text/css">
   <![CDATA[
    .str0 {stroke:black;stroke-width:84.6667}
    .fil2 {fill:none}
    .fil44 {fill:#253952}
    .fil0 {fill:#72A036}
    .fil3 {fill:#73A036}
    .fil4 {fill:#73A136}
    .fil5 {fill:#74A136}
    .fil6 {fill:#74A236}
    .fil7 {fill:#75A236}
    .fil8 {fill:#75A336}
    .fil9 {fill:#76A436}
    .fil10 {fill:#76A537}
    .fil11 {fill:#77A537}
    .fil12 {fill:#77A637}
    .fil13 {fill:#78A737}
    .fil14 {fill:#79A837}
    .fil15 {fill:#79A937}
    .fil16 {fill:#7AAA38}
    .fil17 {fill:#7BAB38}
    .fil18 {fill:#7CAC38}
    .fil19 {fill:#7CAD38}
    .fil20 {fill:#7DAE38}
    .fil21 {fill:#7EAF39}
    .fil22 {fill:#7FB039}
    .fil23 {fill:#7FB139}
    .fil24 {fill:#80B239}
    .fil25 {fill:#81B339}
    .fil26 {fill:#81B43A}
    .fil27 {fill:#82B43A}
    .fil28 {fill:#82B53A}
    .fil29 {fill:#83B63A}
    .fil30 {fill:#84B73A}
    .fil31 {fill:#84B83A}
    .fil32 {fill:#85B83A}
    .fil33 {fill:#85B93B}
    .fil34 {fill:#86BA3B}
    .fil35 {fill:#86BB3B}
    .fil36 {fill:#87BB3B}
    .fil37 {fill:#87BC3B}
    .fil38 {fill:#88BC3B}
    .fil39 {fill:#88BD3B}
    .fil40 {fill:#89BE3C}
    .fil41 {fill:#98B1D1}
    .fil42 {fill:#D8E1ED}
    .fil43 {fill:#FFF5B3}
    .fil45 {fill:white}
    .fil1 {fill:black;fill-opacity:0.000000}
   ]]>
  </style>
       <clipPath id="id0">
        <path d="M1578 9394l6833 0c526,0 957,-431 957,-957l0 -6833c0,-526 -431,-957 -957,-957l-6833 0c-526,0 -957,431 -957,957l0 6833c0,526 431,957 957,957z"/>
       </clipPath>
       <clipPath id="id1">
        <path d="M1578 9394l6833 0c526,0 957,-431 957,-957l0 -6833c0,-526 -431,-957 -957,-957l-6833 0c-526,0 -957,431 -957,957l0 6833c0,526 431,957 957,957z"/>
       </clipPath>
       <clipPath id="id2">
        <path d="M1578 9394l6833 0c526,0 957,-431 957,-957l0 -6833c0,-526 -431,-957 -957,-957l-6833 0c-526,0 -957,431 -957,957l0 6833c0,526 431,957 957,957z"/>
       </clipPath>
       <clipPath id="id3">
        <path d="M1578 9394l6833 0c526,0 957,-431 957,-957l0 -6833c0,-526 -431,-957 -957,-957l-6833 0c-526,0 -957,431 -957,957l0 6833c0,526 431,957 957,957z"/>
       </clipPath>
    <clipPath id="id4">
     <path d="M1187 9315l7647 0 0 -8688 -7647 0 0 8688z"/>
    </clipPath>
    <clipPath id="id5">
     <path d="M1187 9315l7647 0 0 -8688 -7647 0 0 8688z"/>
    </clipPath>
 </defs>
 <g id="Layer_x0020_1">
  <metadata id="CorelCorpID_0Corel-Layer"/>
  <g id="_344178488">
   <g id="_343965240">
    <g id="_344506672">
     <path class="fil0" d="M1439 52l7112 0c780,0 1412,632 1412,1412l0 7112c0,780 -632,1412 -1412,1412l-7112 0c-780,0 -1412,-632 -1412,-1412l0 -7112c0,-780 632,-1412 1412,-1412l0 0z"/>
     <g>
      <g style="clip-path:url(#id0)">
       <polygon class="fil1" points="621,647 9369,647 9369,9394 621,9394 "/>
      </g>
      <g style="clip-path:url(#id1)">
       <g>
        <polygon id="1" class="fil1" points="621,647 9369,647 9369,9394 621,9394 "/>
       </g>
      </g>
      <path class="fil2" d="M1578 9394l6833 0c526,0 957,-431 957,-957l0 -6833c0,-526 -431,-957 -957,-957l-6833 0c-526,0 -957,431 -957,957l0 6833c0,526 431,957 957,957z"/>
      <g style="clip-path:url(#id2)">
       <polygon class="fil1" points="621,647 9369,647 9369,9394 621,9394 "/>
      </g>
      <g style="clip-path:url(#id3)">
       <g>
        <polygon id="1" class="fil3" points="621,646 9369,646 9369,9394 621,9394 621,646 651,675 9340,675 9340,9365 651,9365 651,675 "/>
        <polygon id="_1_0" class="fil3" points="636,661 9354,661 9354,9380 636,9380 636,661 665,690 9326,690 9326,9350 665,9350 665,690 "/>
        <polygon id="_2" class="fil4" points="651,675 9340,675 9340,9365 651,9365 651,675 679,705 9311,705 9311,9336 679,9336 679,705 "/>
        <polygon id="_3" class="fil5" points="665,690 9326,690 9326,9350 665,9350 665,690 694,719 9296,719 9296,9321 694,9321 694,719 "/>
        <polygon id="_4" class="fil6" points="679,705 9311,705 9311,9336 679,9336 679,705 709,733 9282,733 9282,9306 709,9306 709,733 "/>
        <polygon id="_5" class="fil7" points="694,719 9296,719 9296,9321 694,9321 694,719 723,748 9267,748 9267,9292 723,9292 723,748 "/>
        <polygon id="_6" class="fil8" points="709,733 9282,733 9282,9306 709,9306 709,733 738,763 9252,763 9252,9278 738,9278 738,763 "/>
        <polygon id="_7" class="fil9" points="723,748 9267,748 9267,9292 723,9292 723,748 753,778 9238,778 9238,9263 753,9263 753,778 "/>
        <polygon id="_8" class="fil9" points="738,763 9252,763 9252,9278 738,9278 738,763 767,792 9223,792 9223,9248 767,9248 767,792 "/>
        <polygon id="_9" class="fil10" points="753,778 9238,778 9238,9263 753,9263 753,778 781,807 9209,807 9209,9234 781,9234 781,807 "/>
        <polygon id="_10" class="fil11" points="767,792 9224,792 9224,9248 767,9248 767,792 796,822 9194,822 9194,9219 796,9219 796,822 "/>
        <polygon id="_11" class="fil12" points="781,807 9209,807 9209,9234 781,9234 781,807 811,836 9180,836 9180,9204 811,9204 811,836 "/>
        <polygon id="_12" class="fil13" points="796,822 9194,822 9194,9219 796,9219 796,822 826,850 9165,850 9165,9190 826,9190 826,850 "/>
        <polygon id="_13" class="fil13" points="811,836 9180,836 9180,9204 811,9204 811,836 840,865 9150,865 9150,9176 840,9176 840,865 "/>
        <polygon id="_14" class="fil14" points="826,850 9165,850 9165,9190 826,9190 826,850 855,880 9136,880 9136,9161 855,9161 855,880 "/>
        <polygon id="_15" class="fil14" points="840,865 9150,865 9150,9176 840,9176 840,865 869,894 9121,894 9121,9146 869,9146 869,894 "/>
        <polygon id="_16" class="fil15" points="855,880 9136,880 9136,9161 855,9161 855,880 884,909 9107,909 9107,9132 884,9132 884,909 "/>
        <polygon id="_17" class="fil16" points="869,894 9121,894 9121,9146 869,9146 869,894 898,924 9092,924 9092,9117 898,9117 898,924 "/>
        <polygon id="_18" class="fil16" points="884,909 9107,909 9107,9132 884,9132 884,909 913,938 9077,938 9077,9102 913,9102 913,938 "/>
        <polygon id="_19" class="fil17" points="898,924 9092,924 9092,9117 898,9117 898,924 928,952 9063,952 9063,9087 928,9087 928,952 "/>
        <polygon id="_20" class="fil17" points="913,938 9077,938 9077,9102 913,9102 913,938 942,967 9048,967 9048,9073 942,9073 942,967 "/>
        <polygon id="_21" class="fil18" points="928,952 9063,952 9063,9087 928,9087 928,952 957,982 9033,982 9033,9059 957,9059 957,982 "/>
        <polygon id="_22" class="fil18" points="942,967 9048,967 9048,9073 942,9073 942,967 971,996 9019,996 9019,9044 971,9044 971,996 "/>
        <polygon id="_23" class="fil19" points="957,982 9033,982 9033,9059 957,9059 957,982 986,1011 9005,1011 9005,9029 986,9029 986,1011 "/>
        <polygon id="_24" class="fil20" points="971,996 9019,996 9019,9044 971,9044 971,996 1000,1026 8990,1026 8990,9015 1000,9015 1000,1026 "/>
        <polygon id="_25" class="fil20" points="986,1011 9005,1011 9005,9029 986,9029 986,1011 1015,1040 8975,1040 8975,9000 1015,9000 1015,1040 "/>
        <polygon id="_26" class="fil21" points="1000,1026 8990,1026 8990,9015 1000,9015 1000,1026 1030,1054 8961,1054 8961,8985 1030,8985 1030,1054 "/>
        <polygon id="_27" class="fil21" points="1015,1040 8975,1040 8975,9000 1015,9000 1015,1040 1044,1069 8946,1069 8946,8971 1044,8971 1044,1069 "/>
        <polygon id="_28" class="fil22" points="1030,1054 8961,1054 8961,8985 1030,8985 1030,1054 1059,1084 8931,1084 8931,8957 1059,8957 1059,1084 "/>
        <polygon id="_29" class="fil23" points="1044,1069 8946,1069 8946,8971 1044,8971 1044,1069 1073,1098 8917,1098 8917,8942 1073,8942 1073,1098 "/>
        <polygon id="_30" class="fil23" points="1059,1084 8931,1084 8931,8957 1059,8957 1059,1084 1088,1113 8903,1113 8903,8927 1088,8927 1088,1113 "/>
        <polygon id="_31" class="fil24" points="1073,1098 8917,1098 8917,8942 1073,8942 1073,1098 1102,1128 8888,1128 8888,8913 1102,8913 1102,1128 "/>
        <polygon id="_32" class="fil24" points="1088,1113 8903,1113 8903,8927 1088,8927 1088,1113 1117,1142 8873,1142 8873,8898 1117,8898 1117,1142 "/>
        <polygon id="_33" class="fil25" points="1102,1128 8888,1128 8888,8913 1102,8913 1102,1128 1132,1156 8859,1156 8859,8883 1132,8883 1132,1156 "/>
        <polygon id="_34" class="fil26" points="1117,1142 8873,1142 8873,8898 1117,8898 1117,1142 1146,1171 8844,1171 8844,8869 1146,8869 1146,1171 "/>
        <polygon id="_35" class="fil27" points="1132,1156 8859,1156 8859,8883 1132,8883 1132,1156 1161,1186 8829,1186 8829,8855 1161,8855 1161,1186 "/>
        <polygon id="_36" class="fil28" points="1146,1171 8844,1171 8844,8869 1146,8869 1146,1171 1176,1200 8815,1200 8815,8840 1176,8840 1176,1200 "/>
        <polygon id="_37" class="fil28" points="1161,1186 8829,1186 8829,8855 1161,8855 1161,1186 1190,1215 8801,1215 8801,8825 1190,8825 1190,1215 "/>
        <polygon id="_38" class="fil29" points="1176,1200 8815,1200 8815,8840 1176,8840 1176,1200 1204,1230 8786,1230 8786,8811 1204,8811 1204,1230 "/>
        <polygon id="_39" class="fil29" points="1190,1215 8801,1215 8801,8825 1190,8825 1190,1215 1219,1244 8771,1244 8771,8796 1219,8796 1219,1244 "/>
        <polygon id="_40" class="fil30" points="1204,1230 8786,1230 8786,8811 1204,8811 1204,1230 1234,1258 8757,1258 8757,8781 1234,8781 1234,1258 "/>
        <polygon id="_41" class="fil31" points="1219,1244 8771,1244 8771,8796 1219,8796 1219,1244 1248,1273 8742,1273 8742,8767 1248,8767 1248,1273 "/>
        <polygon id="_42" class="fil32" points="1234,1258 8757,1258 8757,8781 1234,8781 1234,1258 1263,1288 8727,1288 8727,8753 1263,8753 1263,1288 "/>
        <polygon id="_43" class="fil33" points="1248,1273 8742,1273 8742,8767 1248,8767 1248,1273 1278,1302 8713,1302 8713,8738 1278,8738 1278,1302 "/>
        <polygon id="_44" class="fil33" points="1263,1288 8727,1288 8727,8753 1263,8753 1263,1288 1292,1317 8699,1317 8699,8723 1292,8723 1292,1317 "/>
        <polygon id="_45" class="fil34" points="1278,1302 8713,1302 8713,8738 1278,8738 1278,1302 1306,1332 8684,1332 8684,8709 1306,8709 1306,1332 "/>
        <polygon id="_46" class="fil35" points="1292,1317 8699,1317 8699,8723 1292,8723 1292,1317 1321,1346 8669,1346 8669,8694 1321,8694 1321,1346 "/>
        <polygon id="_47" class="fil36" points="1306,1332 8684,1332 8684,8709 1306,8709 1306,1332 1336,1360 8655,1360 8655,8679 1336,8679 1336,1360 "/>
        <polygon id="_48" class="fil37" points="1321,1346 8669,1346 8669,8694 1321,8694 1321,1346 1350,1375 8640,1375 8640,8665 1350,8665 1350,1375 "/>
        <polygon id="_49" class="fil38" points="1336,1360 8655,1360 8655,8679 1336,8679 1336,1360 1365,1390 8625,1390 8625,8651 1365,8651 1365,1390 "/>
        <polygon id="_50" class="fil39" points="1350,1375 8640,1375 8640,8665 1350,8665 1350,1375 1380,1404 8611,1404 8611,8636 1380,8636 1380,1404 "/>
        <polygon id="_51" class="fil40" points="1365,1390 8625,1390 8625,8651 1365,8651 1365,1390 1394,1419 8596,1419 8596,8621 1394,8621 1394,1419 "/>
        <polygon id="_52" class="fil40" points="1380,1404 8611,1404 8611,8636 1380,8636 1380,1404 1408,1434 8582,1434 8582,8607 1408,8607 1408,1434 "/>
        <polygon id="_53" class="fil40" points="1394,1419 8596,1419 8596,8621 1394,8621 1394,1419 1423,1448 8567,1448 8567,8592 1423,8592 1423,1448 "/>
        <polygon id="_54" class="fil40" points="1408,1434 8582,1434 8582,8607 1408,8607 1408,1434 1438,1462 8553,1462 8553,8577 1438,8577 1438,1462 "/>
        <polygon id="_55" class="fil40" points="1423,1448 8567,1448 8567,8592 1423,8592 1423,1448 1452,1477 8538,1477 8538,8563 1452,8563 1452,1477 "/>
        <polygon id="_56" class="fil40" points="1438,1462 8553,1462 8553,8577 1438,8577 1438,1462 1467,1492 8523,1492 8523,8549 1467,8549 1467,1492 "/>
        <polygon id="_57" class="fil40" points="1452,1477 8538,1477 8538,8563 1452,8563 1452,1477 1482,1506 8509,1506 8509,8534 1482,8534 1482,1506 "/>
        <polygon id="_58" class="fil40" points="1467,1492 8523,1492 8523,8549 1467,8549 1467,1492 1496,1521 8494,1521 8494,8519 1496,8519 1496,1521 "/>
        <polygon id="_59" class="fil40" points="1482,1506 8509,1506 8509,8534 1482,8534 1482,1506 1510,1536 8480,1536 8480,8505 1510,8505 1510,1536 "/>
        <polygon id="_60" class="fil40" points="1496,1521 8494,1521 8494,8519 1496,8519 1496,1521 1525,1550 8465,1550 8465,8490 1525,8490 1525,1550 "/>
        <polygon id="_61" class="fil40" points="1510,1536 8480,1536 8480,8505 1510,8505 1510,1536 1540,1564 8451,1564 8451,8475 1540,8475 1540,1564 "/>
        <polygon id="_62" class="fil40" points="1525,1550 8465,1550 8465,8490 1525,8490 1525,1550 1554,1579 8436,1579 8436,8461 1554,8461 1554,1579 "/>
        <polygon id="_63" class="fil40" points="1540,1564 8451,1564 8451,8475 1540,8475 1540,1564 1569,1594 8421,1594 8421,8447 1569,8447 1569,1594 "/>
        <polygon id="_64" class="fil40" points="1554,1579 8436,1579 8436,8461 1554,8461 1554,1579 1584,1609 8407,1609 8407,8432 1584,8432 1584,1609 "/>
        <polygon id="_65" class="fil40" points="1569,1594 8421,1594 8421,8447 1569,8447 1569,1594 1598,1623 8392,1623 8392,8417 1598,8417 1598,1623 "/>
        <polygon id="_66" class="fil40" points="1584,1609 8407,1609 8407,8432 1584,8432 1584,1609 1612,1638 8378,1638 8378,8403 1612,8403 1612,1638 "/>
        <polygon id="_67" class="fil40" points="1598,1623 8392,1623 8392,8417 1598,8417 1598,1623 1627,1653 8363,1653 8363,8388 1627,8388 1627,1653 "/>
        <polygon id="_68" class="fil40" points="1612,1638 8378,1638 8378,8403 1612,8403 1612,1638 1642,1667 8349,1667 8349,8373 1642,8373 1642,1667 "/>
        <polygon id="_69" class="fil40" points="1627,1653 8363,1653 8363,8388 1627,8388 1627,1653 1657,1681 8334,1681 8334,8359 1657,8359 1657,1681 "/>
        <polygon id="_70" class="fil40" points="1642,1667 8349,1667 8349,8373 1642,8373 1642,1667 1671,1696 8319,1696 8319,8345 1671,8345 1671,1696 "/>
        <polygon id="_71" class="fil40" points="1657,1681 8334,1681 8334,8359 1657,8359 1657,1681 1686,1711 8305,1711 8305,8330 1686,8330 1686,1711 "/>
        <polygon id="_72" class="fil40" points="1671,1696 8319,1696 8319,8345 1671,8345 1671,1696 1701,1725 8290,1725 8290,8315 1701,8315 1701,1725 "/>
        <polygon id="_73" class="fil40" points="1686,1711 8305,1711 8305,8330 1686,8330 1686,1711 1715,1740 8276,1740 8276,8301 1715,8301 1715,1740 "/>
        <polygon id="_74" class="fil40" points="1700,1725 8290,1725 8290,8315 1700,8315 1700,1725 1729,1755 8261,1755 8261,8286 1729,8286 1729,1755 "/>
        <polygon id="_75" class="fil40" points="1715,1740 8276,1740 8276,8301 1715,8301 1715,1740 1744,1769 8246,1769 8246,8271 1744,8271 1744,1769 "/>
        <polygon id="_76" class="fil40" points="1729,1755 8261,1755 8261,8286 1729,8286 1729,1755 1759,1783 8232,1783 8232,8256 1759,8256 1759,1783 "/>
        <polygon id="_77" class="fil40" points="1744,1769 8246,1769 8246,8271 1744,8271 1744,1769 1773,1798 8217,1798 8217,8243 1773,8243 1773,1798 "/>
        <polygon id="_78" class="fil40" points="1759,1783 8232,1783 8232,8256 1759,8256 1759,1783 1788,1813 8202,1813 8202,8228 1788,8228 1788,1813 "/>
        <polygon id="_79" class="fil40" points="1773,1798 8217,1798 8217,8243 1773,8243 1773,1798 1803,1827 8188,1827 8188,8213 1803,8213 1803,1827 "/>
        <polygon id="_80" class="fil40" points="1788,1813 8202,1813 8202,8228 1788,8228 1788,1813 1817,1842 8174,1842 8174,8198 1817,8198 1817,1842 "/>
        <polygon id="_81" class="fil40" points="1803,1827 8188,1827 8188,8213 1803,8213 1803,1827 1831,1857 8159,1857 8159,8184 1831,8184 1831,1857 "/>
        <polygon id="_82" class="fil40" points="1817,1842 8174,1842 8174,8198 1817,8198 1817,1842 1846,1871 8144,1871 8144,8169 1846,8169 1846,1871 "/>
        <polygon id="_83" class="fil40" points="1831,1857 8159,1857 8159,8184 1831,8184 1831,1857 1861,1885 8130,1885 8130,8154 1861,8154 1861,1885 "/>
        <polygon id="_84" class="fil40" points="1846,1871 8144,1871 8144,8169 1846,8169 1846,1871 1875,1900 8115,1900 8115,8140 1875,8140 1875,1900 "/>
        <polygon id="_85" class="fil40" points="1861,1885 8130,1885 8130,8154 1861,8154 1861,1885 1890,1915 8100,1915 8100,8126 1890,8126 1890,1915 "/>
        <polygon id="_86" class="fil40" points="1875,1900 8115,1900 8115,8140 1875,8140 1875,1900 1905,1929 8086,1929 8086,8111 1905,8111 1905,1929 "/>
        <polygon id="_87" class="fil40" points="1890,1915 8100,1915 8100,8126 1890,8126 1890,1915 1919,1944 8072,1944 8072,8096 1919,8096 1919,1944 "/>
        <polygon id="_88" class="fil40" points="1905,1929 8086,1929 8086,8111 1905,8111 1905,1929 1933,1959 8057,1959 8057,8082 1933,8082 1933,1959 "/>
        <polygon id="_89" class="fil40" points="1919,1944 8072,1944 8072,8096 1919,8096 1919,1944 1948,1973 8042,1973 8042,8067 1948,8067 1948,1973 "/>
        <polygon id="_90" class="fil40" points="1933,1959 8057,1959 8057,8082 1933,8082 1933,1959 1963,1987 8028,1987 8028,8052 1963,8052 1963,1987 "/>
        <polygon id="_91" class="fil40" points="1948,1973 8042,1973 8042,8067 1948,8067 1948,1973 1977,2002 8013,2002 8013,8038 1977,8038 1977,2002 "/>
        <polygon id="_92" class="fil40" points="1963,1987 8028,1987 8028,8052 1963,8052 1963,1987 1992,2017 7998,2017 7998,8024 1992,8024 1992,2017 "/>
        <polygon id="_93" class="fil40" points="1977,2002 8013,2002 8013,8038 1977,8038 1977,2002 2007,2031 7984,2031 7984,8009 2007,8009 2007,2031 "/>
        <polygon id="_94" class="fil40" points="1992,2017 7998,2017 7998,8024 1992,8024 1992,2017 2021,2046 7969,2046 7969,7994 2021,7994 2021,2046 "/>
        <polygon id="_95" class="fil40" points="2007,2031 7984,2031 7984,8009 2007,8009 2007,2031 2035,2061 7955,2061 7955,7980 2035,7980 2035,2061 "/>
        <polygon id="_96" class="fil40" points="2021,2046 7969,2046 7969,7994 2021,7994 2021,2046 2050,2075 7940,2075 7940,7965 2050,7965 2050,2075 "/>
        <polygon id="_97" class="fil40" points="2035,2061 7955,2061 7955,7980 2035,7980 2035,2061 2065,2089 7926,2089 7926,7950 2065,7950 2065,2089 "/>
        <polygon id="_98" class="fil40" points="2050,2075 7940,2075 7940,7965 2050,7965 2050,2075 2079,2104 7911,2104 7911,7936 2079,7936 2079,2104 "/>
        <polygon id="_99" class="fil40" points="2065,2089 7926,2089 7926,7950 2065,7950 2065,2089 2094,2119 7896,2119 7896,7922 2094,7922 2094,2119 "/>
        <polygon id="_100" class="fil40" points="2079,2104 7911,2104 7911,7936 2079,7936 2079,2104 2109,2133 7882,2133 7882,7907 2109,7907 2109,2133 "/>
        <polygon id="_101" class="fil40" points="2094,2119 7896,2119 7896,7922 2094,7922 2094,2119 2123,2148 7867,2148 7867,7892 2123,7892 2123,2148 "/>
        <polygon id="_102" class="fil40" points="2109,2133 7882,2133 7882,7907 2109,7907 2109,2133 2137,2163 7853,2163 7853,7878 2137,7878 2137,2163 "/>
        <polygon id="_103" class="fil40" points="2123,2148 7867,2148 7867,7892 2123,7892 2123,2148 2152,2177 7838,2177 7838,7863 2152,7863 2152,2177 "/>
        <polygon id="_104" class="fil40" points="2137,2163 7853,2163 7853,7878 2137,7878 2137,2163 2167,2191 7824,2191 7824,7848 2167,7848 2167,2191 "/>
        <polygon id="_105" class="fil40" points="2152,2177 7838,2177 7838,7863 2152,7863 2152,2177 2181,2206 7809,2206 7809,7834 2181,7834 2181,2206 "/>
        <polygon id="_106" class="fil40" points="2167,2191 7824,2191 7824,7848 2167,7848 2167,2191 2196,2221 7794,2221 7794,7820 2196,7820 2196,2221 "/>
        <polygon id="_107" class="fil40" points="2181,2206 7809,2206 7809,7834 2181,7834 2181,2206 2211,2235 7780,2235 7780,7805 2211,7805 2211,2235 "/>
        <polygon id="_108" class="fil40" points="2196,2221 7794,2221 7794,7820 2196,7820 2196,2221 2225,2250 7765,2250 7765,7790 2225,7790 2225,2250 "/>
        <polygon id="_109" class="fil40" points="2211,2235 7780,2235 7780,7805 2211,7805 2211,2235 2239,2265 7751,2265 7751,7776 2239,7776 2239,2265 "/>
        <polygon id="_110" class="fil40" points="2225,2250 7765,2250 7765,7790 2225,7790 2225,2250 2254,2279 7736,2279 7736,7761 2254,7761 2254,2279 "/>
        <polygon id="_111" class="fil40" points="2239,2265 7751,2265 7751,7776 2239,7776 2239,2265 2269,2293 7722,2293 7722,7746 2269,7746 2269,2293 "/>
        <polygon id="_112" class="fil40" points="2254,2279 7736,2279 7736,7761 2254,7761 2254,2279 2283,2308 7707,2308 7707,7732 2283,7732 2283,2308 "/>
        <polygon id="_113" class="fil40" points="2269,2293 7722,2293 7722,7746 2269,7746 2269,2293 2298,2323 7692,2323 7692,7718 2298,7718 2298,2323 "/>
        <polygon id="_114" class="fil40" points="2283,2308 7707,2308 7707,7732 2283,7732 2283,2308 2313,2337 7678,2337 7678,7703 2313,7703 2313,2337 "/>
        <polygon id="_115" class="fil40" points="2298,2323 7692,2323 7692,7718 2298,7718 2298,2323 2327,2352 7663,2352 7663,7688 2327,7688 2327,2352 "/>
        <polygon id="_116" class="fil40" points="2313,2337 7678,2337 7678,7703 2313,7703 2313,2337 2341,2367 7649,2367 7649,7674 2341,7674 2341,2367 "/>
        <polygon id="_117" class="fil40" points="2327,2352 7663,2352 7663,7688 2327,7688 2327,2352 2356,2381 7634,2381 7634,7659 2356,7659 2356,2381 "/>
        <polygon id="_118" class="fil40" points="2341,2367 7649,2367 7649,7674 2341,7674 2341,2367 2371,2395 7620,2395 7620,7644 2371,7644 2371,2395 "/>
        <polygon id="_119" class="fil40" points="2356,2381 7634,2381 7634,7659 2356,7659 2356,2381 2385,2410 7605,2410 7605,7630 2385,7630 2385,2410 "/>
        <polygon id="_120" class="fil40" points="2371,2395 7620,2395 7620,7644 2371,7644 2371,2395 2400,2425 7590,2425 7590,7616 2400,7616 2400,2425 "/>
        <polygon id="_121" class="fil40" points="2385,2410 7605,2410 7605,7630 2385,7630 2385,2410 2415,2440 7576,2440 7576,7601 2415,7601 2415,2440 "/>
        <polygon id="_122" class="fil40" points="2400,2425 7590,2425 7590,7616 2400,7616 2400,2425 2429,2454 7561,2454 7561,7586 2429,7586 2429,2454 "/>
        <polygon id="_123" class="fil40" points="2415,2440 7576,2440 7576,7601 2415,7601 2415,2440 2443,2469 7547,2469 7547,7572 2443,7572 2443,2469 "/>
        <polygon id="_124" class="fil40" points="2429,2454 7561,2454 7561,7586 2429,7586 2429,2454 2458,2484 7532,2484 7532,7557 2458,7557 2458,2484 "/>
        <polygon id="_125" class="fil40" points="2443,2469 7547,2469 7547,7572 2443,7572 2443,2469 2473,2498 7518,2498 7518,7542 2473,7542 2473,2498 "/>
        <polygon id="_126" class="fil40" points="2458,2484 7532,2484 7532,7557 2458,7557 2458,2484 2487,2512 7503,2512 7503,7528 2487,7528 2487,2512 "/>
        <polygon id="_127" class="fil40" points="2473,2498 7518,2498 7518,7542 2473,7542 2473,2498 2502,2527 7488,2527 7488,7514 2502,7514 2502,2527 "/>
        <polygon id="_128" class="fil40" points="2487,2512 7503,2512 7503,7528 2487,7528 2487,2512 2517,2542 7474,2542 7474,7499 2517,7499 2517,2542 "/>
        <polygon id="_129" class="fil40" points="2502,2527 7488,2527 7488,7514 2502,7514 2502,2527 2532,2556 7459,2556 7459,7484 2532,7484 2532,2556 "/>
        <polygon id="_130" class="fil40" points="2517,2542 7474,2542 7474,7499 2517,7499 2517,2542 2546,2571 7445,2571 7445,7470 2546,7470 2546,2571 "/>
        <polygon id="_131" class="fil40" points="2532,2556 7459,2556 7459,7484 2532,7484 2532,2556 2560,2586 7430,2586 7430,7455 2560,7455 2560,2586 "/>
        <polygon id="_132" class="fil40" points="2546,2571 7445,2571 7445,7470 2546,7470 2546,2571 2575,2600 7415,2600 7415,7440 2575,7440 2575,2600 "/>
        <polygon id="_133" class="fil40" points="2560,2586 7430,2586 7430,7455 2560,7455 2560,2586 2590,2614 7401,2614 7401,7425 2590,7425 2590,2614 "/>
        <polygon id="_134" class="fil40" points="2575,2600 7415,2600 7415,7440 2575,7440 2575,2600 2604,2629 7386,2629 7386,7411 2604,7411 2604,2629 "/>
        <polygon id="_135" class="fil40" points="2590,2614 7401,2614 7401,7425 2590,7425 2590,2614 2619,2644 7371,2644 7371,7397 2619,7397 2619,2644 "/>
        <polygon id="_136" class="fil40" points="2604,2629 7386,2629 7386,7411 2604,7411 2604,2629 2634,2658 7357,2658 7357,7382 2634,7382 2634,2658 "/>
        <polygon id="_137" class="fil40" points="2619,2644 7371,2644 7371,7397 2619,7397 2619,2644 2648,2673 7342,2673 7342,7367 2648,7367 2648,2673 "/>
        <polygon id="_138" class="fil40" points="2634,2658 7357,2658 7357,7382 2634,7382 2634,2658 2662,2688 7328,2688 7328,7353 2662,7353 2662,2688 "/>
        <polygon id="_139" class="fil40" points="2648,2673 7342,2673 7342,7367 2648,7367 2648,2673 2677,2702 7313,2702 7313,7338 2677,7338 2677,2702 "/>
        <polygon id="_140" class="fil40" points="2662,2688 7328,2688 7328,7353 2662,7353 2662,2688 2692,2716 7299,2716 7299,7323 2692,7323 2692,2716 "/>
        <polygon id="_141" class="fil40" points="2677,2702 7313,2702 7313,7338 2677,7338 2677,2702 2706,2731 7284,2731 7284,7309 2706,7309 2706,2731 "/>
        <polygon id="_142" class="fil40" points="2692,2716 7299,2716 7299,7323 2692,7323 2692,2716 2721,2746 7269,2746 7269,7295 2721,7295 2721,2746 "/>
        <polygon id="_143" class="fil40" points="2706,2731 7284,2731 7284,7309 2706,7309 2706,2731 2736,2760 7255,2760 7255,7280 2736,7280 2736,2760 "/>
        <polygon id="_144" class="fil40" points="2721,2746 7269,2746 7269,7295 2721,7295 2721,2746 2750,2775 7240,2775 7240,7265 2750,7265 2750,2775 "/>
        <polygon id="_145" class="fil40" points="2736,2760 7255,2760 7255,7280 2736,7280 2736,2760 2764,2790 7226,2790 7226,7251 2764,7251 2764,2790 "/>
        <polygon id="_146" class="fil40" points="2750,2775 7240,2775 7240,7265 2750,7265 2750,2775 2779,2804 7211,2804 7211,7236 2779,7236 2779,2804 "/>
        <polygon id="_147" class="fil40" points="2764,2790 7226,2790 7226,7251 2764,7251 2764,2790 2794,2818 7197,2818 7197,7221 2794,7221 2794,2818 "/>
        <polygon id="_148" class="fil40" points="2779,2804 7211,2804 7211,7236 2779,7236 2779,2804 2808,2833 7182,2833 7182,7207 2808,7207 2808,2833 "/>
        <polygon id="_149" class="fil40" points="2794,2818 7197,2818 7197,7221 2794,7221 2794,2818 2823,2848 7167,2848 7167,7193 2823,7193 2823,2848 "/>
        <polygon id="_150" class="fil40" points="2808,2833 7182,2833 7182,7207 2808,7207 2808,2833 2838,2862 7153,2862 7153,7178 2838,7178 2838,2862 "/>
        <polygon id="_151" class="fil40" points="2823,2848 7167,2848 7167,7193 2823,7193 2823,2848 2852,2877 7138,2877 7138,7163 2852,7163 2852,2877 "/>
        <polygon id="_152" class="fil40" points="2838,2862 7153,2862 7153,7178 2838,7178 2838,2862 2866,2892 7124,2892 7124,7149 2866,7149 2866,2892 "/>
        <polygon id="_153" class="fil40" points="2852,2877 7138,2877 7138,7163 2852,7163 2852,2877 2881,2906 7109,2906 7109,7134 2881,7134 2881,2906 "/>
        <polygon id="_154" class="fil40" points="2866,2892 7124,2892 7124,7149 2866,7149 2866,2892 2896,2920 7095,2920 7095,7119 2896,7119 2896,2920 "/>
        <polygon id="_155" class="fil40" points="2881,2906 7109,2906 7109,7134 2881,7134 2881,2906 2910,2935 7080,2935 7080,7105 2910,7105 2910,2935 "/>
        <polygon id="_156" class="fil40" points="2896,2920 7095,2920 7095,7119 2896,7119 2896,2920 2925,2950 7065,2950 7065,7091 2925,7091 2925,2950 "/>
        <polygon id="_157" class="fil40" points="2910,2935 7080,2935 7080,7105 2910,7105 2910,2935 2940,2964 7051,2964 7051,7076 2940,7076 2940,2964 "/>
        <polygon id="_158" class="fil40" points="2925,2950 7065,2950 7065,7091 2925,7091 2925,2950 2954,2979 7036,2979 7036,7061 2954,7061 2954,2979 "/>
        <polygon id="_159" class="fil40" points="2940,2964 7051,2964 7051,7076 2940,7076 2940,2964 2968,2994 7022,2994 7022,7047 2968,7047 2968,2994 "/>
        <polygon id="_160" class="fil40" points="2954,2979 7036,2979 7036,7061 2954,7061 2954,2979 2983,3008 7007,3008 7007,7032 2983,7032 2983,3008 "/>
        <polygon id="_161" class="fil40" points="2968,2994 7022,2994 7022,7047 2968,7047 2968,2994 2998,3022 6993,3022 6993,7017 2998,7017 2998,3022 "/>
        <polygon id="_162" class="fil40" points="2983,3008 7007,3008 7007,7032 2983,7032 2983,3008 3012,3037 6978,3037 6978,7003 3012,7003 3012,3037 "/>
        <polygon id="_163" class="fil40" points="2998,3022 6993,3022 6993,7017 2998,7017 2998,3022 3027,3052 6963,3052 6963,6989 3027,6989 3027,3052 "/>
        <polygon id="_164" class="fil40" points="3012,3037 6978,3037 6978,7003 3012,7003 3012,3037 3042,3066 6949,3066 6949,6974 3042,6974 3042,3066 "/>
        <polygon id="_165" class="fil40" points="3027,3052 6963,3052 6963,6989 3027,6989 3027,3052 3056,3081 6934,3081 6934,6959 3056,6959 3056,3081 "/>
        <polygon id="_166" class="fil40" points="3042,3066 6949,3066 6949,6974 3042,6974 3042,3066 3070,3096 6920,3096 6920,6945 3070,6945 3070,3096 "/>
        <polygon id="_167" class="fil40" points="3056,3081 6934,3081 6934,6959 3056,6959 3056,3081 3085,3110 6905,3110 6905,6930 3085,6930 3085,3110 "/>
        <polygon id="_168" class="fil40" points="3070,3096 6920,3096 6920,6945 3070,6945 3070,3096 3100,3125 6891,3125 6891,6915 3100,6915 3100,3125 "/>
        <polygon id="_169" class="fil40" points="3085,3110 6905,3110 6905,6930 3085,6930 3085,3110 3114,3139 6876,3139 6876,6901 3114,6901 3114,3139 "/>
        <polygon id="_170" class="fil40" points="3100,3125 6891,3125 6891,6915 3100,6915 3100,3125 3129,3154 6861,3154 6861,6887 3129,6887 3129,3154 "/>
        <polygon id="_171" class="fil40" points="3114,3139 6876,3139 6876,6901 3114,6901 3114,3139 3144,3168 6847,3168 6847,6872 3144,6872 3144,3168 "/>
        <polygon id="_172" class="fil40" points="3129,3154 6861,3154 6861,6887 3129,6887 3129,3154 3158,3183 6832,3183 6832,6857 3158,6857 3158,3183 "/>
        <polygon id="_173" class="fil40" points="3144,3168 6847,3168 6847,6872 3144,6872 3144,3168 3172,3198 6818,3198 6818,6843 3172,6843 3172,3198 "/>
        <polygon id="_174" class="fil40" points="3158,3183 6832,3183 6832,6857 3158,6857 3158,3183 3187,3212 6803,3212 6803,6828 3187,6828 3187,3212 "/>
        <polygon id="_175" class="fil40" points="3172,3198 6818,3198 6818,6843 3172,6843 3172,3198 3202,3227 6789,3227 6789,6813 3202,6813 3202,3227 "/>
        <polygon id="_176" class="fil40" points="3187,3212 6803,3212 6803,6828 3187,6828 3187,3212 3216,3241 6774,3241 6774,6799 3216,6799 3216,3241 "/>
        <polygon id="_177" class="fil40" points="3202,3227 6789,3227 6789,6813 3202,6813 3202,3227 3231,3256 6759,3256 6759,6784 3231,6784 3231,3256 "/>
        <polygon id="_178" class="fil40" points="3216,3241 6774,3241 6774,6799 3216,6799 3216,3241 3246,3270 6745,3270 6745,6770 3246,6770 3246,3270 "/>
        <polygon id="_179" class="fil40" points="3231,3256 6759,3256 6759,6784 3231,6784 3231,3256 3260,3285 6730,3285 6730,6755 3260,6755 3260,3285 "/>
        <polygon id="_180" class="fil40" points="3246,3270 6745,3270 6745,6770 3246,6770 3246,3270 3274,3300 6715,3300 6715,6741 3274,6741 3274,3300 "/>
        <polygon id="_181" class="fil40" points="3260,3285 6730,3285 6730,6755 3260,6755 3260,3285 3289,3315 6701,3315 6701,6726 3289,6726 3289,3315 "/>
        <polygon id="_182" class="fil40" points="3274,3300 6715,3300 6715,6741 3274,6741 3274,3300 3304,3329 6687,3329 6687,6711 3304,6711 3304,3329 "/>
        <polygon id="_183" class="fil40" points="3289,3315 6701,3315 6701,6726 3289,6726 3289,3315 3318,3343 6672,3343 6672,6697 3318,6697 3318,3343 "/>
        <polygon id="_184" class="fil40" points="3304,3329 6687,3329 6687,6711 3304,6711 3304,3329 3333,3358 6657,3358 6657,6682 3333,6682 3333,3358 "/>
        <polygon id="_185" class="fil40" points="3318,3343 6672,3343 6672,6697 3318,6697 3318,3343 3348,3373 6643,3373 6643,6668 3348,6668 3348,3373 "/>
        <polygon id="_186" class="fil40" points="3333,3358 6657,3358 6657,6682 3333,6682 3333,3358 3363,3387 6628,3387 6628,6653 3363,6653 3363,3387 "/>
        <polygon id="_187" class="fil40" points="3348,3373 6643,3373 6643,6668 3348,6668 3348,3373 3377,3402 6613,3402 6613,6639 3377,6639 3377,3402 "/>
        <polygon id="_188" class="fil40" points="3363,3387 6628,3387 6628,6653 3363,6653 3363,3387 3391,3417 6599,3417 6599,6624 3391,6624 3391,3417 "/>
        <polygon id="_189" class="fil40" points="3377,3402 6613,3402 6613,6639 3377,6639 3377,3402 3406,3431 6584,3431 6584,6609 3406,6609 3406,3431 "/>
        <polygon id="_190" class="fil40" points="3391,3417 6599,3417 6599,6624 3391,6624 3391,3417 3421,3445 6570,3445 6570,6595 3421,6595 3421,3445 "/>
        <polygon id="_191" class="fil40" points="3406,3431 6584,3431 6584,6609 3406,6609 3406,3431 3435,3460 6555,3460 6555,6580 3435,6580 3435,3460 "/>
        <polygon id="_192" class="fil40" points="3421,3445 6570,3445 6570,6595 3421,6595 3421,3445 3450,3475 6540,3475 6540,6566 3450,6566 3450,3475 "/>
        <polygon id="_193" class="fil40" points="3435,3460 6555,3460 6555,6580 3435,6580 3435,3460 3465,3489 6526,3489 6526,6551 3465,6551 3465,3489 "/>
        <polygon id="_194" class="fil40" points="3450,3475 6540,3475 6540,6566 3450,6566 3450,3475 3479,3504 6511,3504 6511,6536 3479,6536 3479,3504 "/>
        <polygon id="_195" class="fil40" points="3465,3489 6526,3489 6526,6551 3465,6551 3465,3489 3493,3519 6497,3519 6497,6522 3493,6522 3493,3519 "/>
        <polygon id="_196" class="fil40" points="3479,3504 6511,3504 6511,6536 3479,6536 3479,3504 3508,3533 6482,3533 6482,6507 3508,6507 3508,3533 "/>
        <polygon id="_197" class="fil40" points="3493,3519 6497,3519 6497,6522 3493,6522 3493,3519 3523,3547 6468,3547 6468,6492 3523,6492 3523,3547 "/>
        <polygon id="_198" class="fil40" points="3508,3533 6482,3533 6482,6507 3508,6507 3508,3533 3537,3562 6453,3562 6453,6478 3537,6478 3537,3562 "/>
        <polygon id="_199" class="fil40" points="3523,3547 6468,3547 6468,6492 3523,6492 3523,3547 3552,3577 6438,3577 6438,6464 3552,6464 3552,3577 "/>
        <polygon id="_200" class="fil40" points="3537,3562 6453,3562 6453,6478 3537,6478 3537,3562 3567,3591 6424,3591 6424,6449 3567,6449 3567,3591 "/>
        <polygon id="_201" class="fil40" points="3552,3577 6438,3577 6438,6464 3552,6464 3552,3577 3581,3606 6409,3606 6409,6434 3581,6434 3581,3606 "/>
        <polygon id="_202" class="fil40" points="3567,3591 6424,3591 6424,6449 3567,6449 3567,3591 3595,3621 6395,3621 6395,6420 3595,6420 3595,3621 "/>
        <polygon id="_203" class="fil40" points="3581,3606 6409,3606 6409,6434 3581,6434 3581,3606 3610,3635 6380,3635 6380,6405 3610,6405 3610,3635 "/>
        <polygon id="_204" class="fil40" points="3595,3621 6395,3621 6395,6420 3595,6420 3595,3621 3625,3649 6366,3649 6366,6390 3625,6390 3625,3649 "/>
        <polygon id="_205" class="fil40" points="3610,3635 6380,3635 6380,6405 3610,6405 3610,3635 3639,3664 6351,3664 6351,6376 3639,6376 3639,3664 "/>
        <polygon id="_206" class="fil40" points="3625,3649 6366,3649 6366,6390 3625,6390 3625,3649 3654,3679 6336,3679 6336,6362 3654,6362 3654,3679 "/>
        <polygon id="_207" class="fil40" points="3639,3664 6351,3664 6351,6376 3639,6376 3639,3664 3669,3693 6322,3693 6322,6347 3669,6347 3669,3693 "/>
        <polygon id="_208" class="fil40" points="3654,3679 6336,3679 6336,6362 3654,6362 3654,3679 3683,3708 6307,3708 6307,6332 3683,6332 3683,3708 "/>
        <polygon id="_209" class="fil40" points="3669,3693 6322,3693 6322,6347 3669,6347 3669,3693 3697,3723 6293,3723 6293,6318 3697,6318 3697,3723 "/>
        <polygon id="_210" class="fil40" points="3683,3708 6307,3708 6307,6332 3683,6332 3683,3708 3712,3737 6278,3737 6278,6303 3712,6303 3712,3737 "/>
        <polygon id="_211" class="fil40" points="3697,3723 6293,3723 6293,6318 3697,6318 3697,3723 3727,3752 6264,3752 6264,6288 3727,6288 3727,3752 "/>
        <polygon id="_212" class="fil40" points="3712,3737 6278,3737 6278,6303 3712,6303 3712,3737 3741,3766 6249,3766 6249,6274 3741,6274 3741,3766 "/>
        <polygon id="_213" class="fil40" points="3727,3752 6264,3752 6264,6288 3727,6288 3727,3752 3756,3781 6234,3781 6234,6260 3756,6260 3756,3781 "/>
        <polygon id="_214" class="fil40" points="3741,3766 6249,3766 6249,6274 3741,6274 3741,3766 3771,3795 6220,3795 6220,6245 3771,6245 3771,3795 "/>
        <polygon id="_215" class="fil40" points="3756,3781 6234,3781 6234,6260 3756,6260 3756,3781 3785,3810 6205,3810 6205,6230 3785,6230 3785,3810 "/>
        <polygon id="_216" class="fil40" points="3771,3795 6220,3795 6220,6245 3771,6245 3771,3795 3799,3825 6191,3825 6191,6216 3799,6216 3799,3825 "/>
        <polygon id="_217" class="fil40" points="3785,3810 6205,3810 6205,6230 3785,6230 3785,3810 3814,3839 6176,3839 6176,6201 3814,6201 3814,3839 "/>
        <polygon id="_218" class="fil40" points="3799,3825 6191,3825 6191,6216 3799,6216 3799,3825 3829,3854 6162,3854 6162,6186 3829,6186 3829,3854 "/>
        <polygon id="_219" class="fil40" points="3814,3839 6176,3839 6176,6201 3814,6201 3814,3839 3843,3868 6147,3868 6147,6172 3843,6172 3843,3868 "/>
        <polygon id="_220" class="fil40" points="3829,3854 6162,3854 6162,6186 3829,6186 3829,3854 3858,3883 6132,3883 6132,6157 3858,6157 3858,3883 "/>
        <polygon id="_221" class="fil40" points="3843,3868 6147,3868 6147,6172 3843,6172 3843,3868 3873,3897 6118,3897 6118,6143 3873,6143 3873,3897 "/>
        <polygon id="_222" class="fil40" points="3858,3883 6132,3883 6132,6157 3858,6157 3858,3883 3887,3912 6103,3912 6103,6128 3887,6128 3887,3912 "/>
        <polygon id="_223" class="fil40" points="3873,3897 6118,3897 6118,6143 3873,6143 3873,3897 3901,3927 6088,3927 6088,6114 3901,6114 3901,3927 "/>
        <polygon id="_224" class="fil40" points="3887,3912 6103,3912 6103,6128 3887,6128 3887,3912 3916,3941 6074,3941 6074,6099 3916,6099 3916,3941 "/>
        <polygon id="_225" class="fil40" points="3901,3927 6088,3927 6088,6114 3901,6114 3901,3927 3931,3956 6060,3956 6060,6084 3931,6084 3931,3956 "/>
        <polygon id="_226" class="fil40" points="3916,3941 6074,3941 6074,6099 3916,6099 3916,3941 3945,3970 6045,3970 6045,6070 3945,6070 3945,3970 "/>
        <polygon id="_227" class="fil40" points="3931,3956 6060,3956 6060,6084 3931,6084 3931,3956 3960,3985 6030,3985 6030,6055 3960,6055 3960,3985 "/>
        <polygon id="_228" class="fil40" points="3945,3970 6045,3970 6045,6070 3945,6070 3945,3970 3975,3999 6016,3999 6016,6041 3975,6041 3975,3999 "/>
        <polygon id="_229" class="fil40" points="3960,3985 6030,3985 6030,6055 3960,6055 3960,3985 3989,4014 6001,4014 6001,6026 3989,6026 3989,4014 "/>
        <polygon id="_230" class="fil40" points="3975,3999 6016,3999 6016,6041 3975,6041 3975,3999 4003,4029 5986,4029 5986,6012 4003,6012 4003,4029 "/>
        <polygon id="_231" class="fil40" points="3989,4014 6001,4014 6001,6026 3989,6026 3989,4014 4018,4043 5972,4043 5972,5997 4018,5997 4018,4043 "/>
        <polygon id="_232" class="fil40" points="4003,4029 5986,4029 5986,6012 4003,6012 4003,4029 4033,4058 5958,4058 5958,5982 4033,5982 4033,4058 "/>
        <polygon id="_233" class="fil40" points="4018,4043 5972,4043 5972,5997 4018,5997 4018,4043 4047,4072 5943,4072 5943,5968 4047,5968 4047,4072 "/>
        <polygon id="_234" class="fil40" points="4033,4058 5958,4058 5958,5982 4033,5982 4033,4058 4062,4087 5928,4087 5928,5953 4062,5953 4062,4087 "/>
        <polygon id="_235" class="fil40" points="4047,4072 5943,4072 5943,5968 4047,5968 4047,4072 4077,4102 5914,4102 5914,5939 4077,5939 4077,4102 "/>
        <polygon id="_236" class="fil40" points="4062,4087 5928,4087 5928,5953 4062,5953 4062,4087 4092,4116 5899,4116 5899,5924 4092,5924 4092,4116 "/>
        <polygon id="_237" class="fil40" points="4077,4102 5914,4102 5914,5939 4077,5939 4077,4102 4105,4131 5884,4131 5884,5910 4105,5910 4105,4131 "/>
        <polygon id="_238" class="fil40" points="4092,4116 5899,4116 5899,5924 4092,5924 4092,4116 4120,4146 5870,4146 5870,5895 4120,5895 4120,4146 "/>
        <polygon id="_239" class="fil40" points="4105,4131 5884,4131 5884,5910 4105,5910 4105,4131 4135,4160 5856,4160 5856,5880 4135,5880 4135,4160 "/>
        <polygon id="_240" class="fil40" points="4120,4146 5870,4146 5870,5895 4120,5895 4120,4146 4149,4174 5841,4174 5841,5866 4149,5866 4149,4174 "/>
        <polygon id="_241" class="fil40" points="4135,4160 5856,4160 5856,5880 4135,5880 4135,4160 4164,4189 5826,4189 5826,5851 4164,5851 4164,4189 "/>
        <polygon id="_242" class="fil40" points="4149,4174 5841,4174 5841,5866 4149,5866 4149,4174 4179,4204 5812,4204 5812,5837 4179,5837 4179,4204 "/>
        <polygon id="_243" class="fil40" points="4164,4189 5826,4189 5826,5851 4164,5851 4164,4189 4194,4218 5797,4218 5797,5822 4194,5822 4194,4218 "/>
        <polygon id="_244" class="fil40" points="4179,4204 5812,4204 5812,5837 4179,5837 4179,4204 4208,4233 5782,4233 5782,5808 4208,5808 4208,4233 "/>
        <polygon id="_245" class="fil40" points="4194,4218 5797,4218 5797,5822 4194,5822 4194,4218 4222,4248 5768,4248 5768,5793 4222,5793 4222,4248 "/>
        <polygon id="_246" class="fil40" points="4208,4233 5782,4233 5782,5808 4208,5808 4208,4233 4237,4262 5753,4262 5753,5778 4237,5778 4237,4262 "/>
        <polygon id="_247" class="fil40" points="4222,4248 5768,4248 5768,5793 4222,5793 4222,4248 4252,4276 5739,4276 5739,5764 4252,5764 4252,4276 "/>
        <polygon id="_248" class="fil40" points="4237,4262 5753,4262 5753,5778 4237,5778 4237,4262 4266,4291 5724,4291 5724,5749 4266,5749 4266,4291 "/>
        <polygon id="_249" class="fil40" points="4252,4276 5739,4276 5739,5764 4252,5764 4252,4276 4281,4306 5709,4306 5709,5735 4281,5735 4281,4306 "/>
        <polygon id="_250" class="fil40" points="4266,4291 5724,4291 5724,5749 4266,5749 4266,4291 4296,4320 5695,4320 5695,5720 4296,5720 4296,4320 "/>
        <polygon id="_251" class="fil40" points="4281,4306 5709,4306 5709,5735 4281,5735 4281,4306 4310,4335 5680,4335 5680,5705 4310,5705 4310,4335 "/>
        <polygon id="_252" class="fil40" points="4296,4320 5695,4320 5695,5720 4296,5720 4296,4320 4324,4350 5666,4350 5666,5691 4324,5691 4324,4350 "/>
        <polygon id="_253" class="fil40" points="4310,4335 5680,4335 5680,5705 4310,5705 4310,4335 4339,4364 5651,4364 5651,5676 4339,5676 4339,4364 "/>
        <polygon id="_254" class="fil40" points="4324,4350 5666,4350 5666,5691 4324,5691 4324,4350 4354,4379 5637,4379 5637,5661 4354,5661 4354,4379 "/>
        <polygon id="_255" class="fil40" points="4339,4364 5651,4364 5651,5676 4339,5676 4339,4364 4368,4393 5622,4393 5622,5647 4368,5647 4368,4393 "/>
        <polygon id="_256" class="fil40" points="4354,4379 5637,4379 5637,5661 4354,5661 4354,4379 4383,4408 5607,4408 5607,5633 4383,5633 4383,4408 "/>
        <polygon id="_257" class="fil40" points="4368,4393 5622,4393 5622,5647 4368,5647 4368,4393 4398,4422 5593,4422 5593,5618 4398,5618 4398,4422 "/>
        <polygon id="_258" class="fil40" points="4383,4408 5607,4408 5607,5633 4383,5633 4383,4408 4412,4437 5578,4437 5578,5603 4412,5603 4412,4437 "/>
        <polygon id="_259" class="fil40" points="4398,4422 5593,4422 5593,5618 4398,5618 4398,4422 4426,4452 5564,4452 5564,5589 4426,5589 4426,4452 "/>
        <polygon id="_260" class="fil40" points="4412,4437 5578,4437 5578,5603 4412,5603 4412,4437 4441,4466 5549,4466 5549,5574 4441,5574 4441,4466 "/>
        <polygon id="_261" class="fil40" points="4426,4452 5564,4452 5564,5589 4426,5589 4426,4452 4456,4481 5535,4481 5535,5559 4456,5559 4456,4481 "/>
        <polygon id="_262" class="fil40" points="4441,4466 5549,4466 5549,5574 4441,5574 4441,4466 4470,4495 5520,4495 5520,5545 4470,5545 4470,4495 "/>
        <polygon id="_263" class="fil40" points="4456,4481 5535,4481 5535,5559 4456,5559 4456,4481 4485,4510 5505,4510 5505,5530 4485,5530 4485,4510 "/>
        <polygon id="_264" class="fil40" points="4470,4495 5520,4495 5520,5545 4470,5545 4470,4495 4500,4524 5491,4524 5491,5516 4500,5516 4500,4524 "/>
        <polygon id="_265" class="fil40" points="4485,4510 5505,4510 5505,5530 4485,5530 4485,4510 4514,4539 5476,4539 5476,5501 4514,5501 4514,4539 "/>
        <polygon id="_266" class="fil40" points="4500,4524 5491,4524 5491,5516 4500,5516 4500,4524 4528,4554 5461,4554 5461,5487 4528,5487 4528,4554 "/>
        <polygon id="_267" class="fil40" points="4514,4539 5476,4539 5476,5501 4514,5501 4514,4539 4543,4568 5447,4568 5447,5472 4543,5472 4543,4568 "/>
        <polygon id="_268" class="fil40" points="4528,4554 5461,4554 5461,5487 4528,5487 4528,4554 4558,4583 5433,4583 5433,5457 4558,5457 4558,4583 "/>
        <polygon id="_269" class="fil40" points="4543,4568 5447,4568 5447,5472 4543,5472 4543,4568 4572,4597 5418,4597 5418,5443 4572,5443 4572,4597 "/>
        <polygon id="_270" class="fil40" points="4558,4583 5433,4583 5433,5457 4558,5457 4558,4583 4587,4612 5403,4612 5403,5428 4587,5428 4587,4612 "/>
        <polygon id="_271" class="fil40" points="4572,4597 5418,4597 5418,5443 4572,5443 4572,4597 4602,4626 5389,4626 5389,5414 4602,5414 4602,4626 "/>
        <polygon id="_272" class="fil40" points="4587,4612 5403,4612 5403,5428 4587,5428 4587,4612 4616,4641 5374,4641 5374,5399 4616,5399 4616,4641 "/>
        <polygon id="_273" class="fil40" points="4602,4626 5389,4626 5389,5414 4602,5414 4602,4626 4630,4656 5359,4656 5359,5385 4630,5385 4630,4656 "/>
        <polygon id="_274" class="fil40" points="4616,4641 5374,4641 5374,5399 4616,5399 4616,4641 4645,4670 5345,4670 5345,5370 4645,5370 4645,4670 "/>
        <polygon id="_275" class="fil40" points="4630,4656 5359,4656 5359,5385 4630,5385 4630,4656 4660,4685 5331,4685 5331,5355 4660,5355 4660,4685 "/>
        <polygon id="_276" class="fil40" points="4645,4670 5345,4670 5345,5370 4645,5370 4645,4670 4674,4699 5316,4699 5316,5341 4674,5341 4674,4699 "/>
        <polygon id="_277" class="fil40" points="4660,4685 5331,4685 5331,5355 4660,5355 4660,4685 4689,4714 5301,4714 5301,5326 4689,5326 4689,4714 "/>
        <polygon id="_278" class="fil40" points="4674,4699 5316,4699 5316,5341 4674,5341 4674,4699 4704,4728 5287,4728 5287,5312 4704,5312 4704,4728 "/>
        <polygon id="_279" class="fil40" points="4689,4714 5301,4714 5301,5326 4689,5326 4689,4714 4718,4743 5272,4743 5272,5297 4718,5297 4718,4743 "/>
        <polygon id="_280" class="fil40" points="4704,4728 5287,4728 5287,5312 4704,5312 4704,4728 4732,4758 5257,4758 5257,5283 4732,5283 4732,4758 "/>
        <polygon id="_281" class="fil40" points="4718,4743 5272,4743 5272,5297 4718,5297 4718,4743 4747,4772 5243,4772 5243,5268 4747,5268 4747,4772 "/>
        <polygon id="_282" class="fil40" points="4732,4758 5257,4758 5257,5283 4732,5283 4732,4758 4762,4787 5229,4787 5229,5253 4762,5253 4762,4787 "/>
        <polygon id="_283" class="fil40" points="4747,4772 5243,4772 5243,5268 4747,5268 4747,4772 4776,4801 5214,4801 5214,5239 4776,5239 4776,4801 "/>
        <polygon id="_284" class="fil40" points="4762,4787 5229,4787 5229,5253 4762,5253 4762,4787 4791,4816 5199,4816 5199,5224 4791,5224 4791,4816 "/>
        <polygon id="_285" class="fil40" points="4776,4801 5214,4801 5214,5239 4776,5239 4776,4801 4806,4830 5185,4830 5185,5210 4806,5210 4806,4830 "/>
        <polygon id="_286" class="fil40" points="4791,4816 5199,4816 5199,5224 4791,5224 4791,4816 4820,4845 5170,4845 5170,5195 4820,5195 4820,4845 "/>
        <polygon id="_287" class="fil40" points="4806,4830 5185,4830 5185,5210 4806,5210 4806,4830 4835,4860 5155,4860 5155,5181 4835,5181 4835,4860 "/>
        <polygon id="_288" class="fil40" points="4820,4845 5170,4845 5170,5195 4820,5195 4820,4845 4849,4874 5141,4874 5141,5166 4849,5166 4849,4874 "/>
        <polygon id="_289" class="fil40" points="4834,4860 5155,4860 5155,5181 4834,5181 4834,4860 4864,4889 5127,4889 5127,5151 4864,5151 4864,4889 "/>
        <polygon id="_290" class="fil40" points="4849,4874 5141,4874 5141,5166 4849,5166 4849,4874 4878,4903 5112,4903 5112,5137 4878,5137 4878,4903 "/>
        <polygon id="_291" class="fil40" points="4864,4889 5127,4889 5127,5151 4864,5151 4864,4889 4893,4918 5097,4918 5097,5122 4893,5122 4893,4918 "/>
        <polygon id="_292" class="fil40" points="4878,4903 5112,4903 5112,5137 4878,5137 4878,4903 4908,4933 5083,4933 5083,5108 4908,5108 4908,4933 "/>
        <polygon id="_293" class="fil40" points="4893,4918 5097,4918 5097,5122 4893,5122 4893,4918 4923,4947 5068,4947 5068,5093 4923,5093 4923,4947 "/>
        <polygon id="_294" class="fil40" points="4908,4933 5083,4933 5083,5108 4908,5108 4908,4933 4937,4962 5053,4962 5053,5079 4937,5079 4937,4962 "/>
        <polygon id="_295" class="fil40" points="4923,4947 5068,4947 5068,5093 4923,5093 4923,4947 4951,4977 5039,4977 5039,5064 4951,5064 4951,4977 "/>
        <polygon id="_296" class="fil40" points="4937,4962 5053,4962 5053,5079 4937,5079 4937,4962 4966,4991 5025,4991 5025,5049 4966,5049 4966,4991 "/>
        <polygon id="_297" class="fil40" points="4951,4977 5039,4977 5039,5064 4951,5064 4951,4977 4981,5006 5010,5006 5010,5035 4981,5035 4981,5006 "/>
        <polygon id="_298" class="fil40" points="4966,4991 5025,4991 5025,5049 4966,5049 4966,4991 4995,5020 4995,5020 4995,5020 4995,5020 4995,5020 "/>
        <polygon id="_299" class="fil40" points="4981,5006 5010,5006 5010,5035 4981,5035 "/>
       </g>
      </g>
      <path class="fil2" d="M1578 9394l6833 0c526,0 957,-431 957,-957l0 -6833c0,-526 -431,-957 -957,-957l-6833 0c-526,0 -957,431 -957,957l0 6833c0,526 431,957 957,957z"/>
      <path class="fil2" d="M1578 9394l6833 0c526,0 957,-431 957,-957l0 -6833c0,-526 -431,-957 -957,-957l-6833 0c-526,0 -957,431 -957,957l0 6833c0,526 431,957 957,957z"/>
     </g>
    </g>
   </g>
  </g>
 </g>
 <g id="Слой_x0020_1">
  <metadata id="CorelCorpID_1Corel-Layer"/>
  <g id="_170086424">
   <g style="clip-path:url(#id4)">
    <polygon class="fil1" points="1187,627 8834,627 8834,9315 1187,9315 "/>
   </g>
   <g style="clip-path:url(#id5)">
    <g>
     <polygon id="1" class="fil41" points="7927,3509 7935,3784 7941,4059 7983,4081 8025,4107 8065,4133 8108,4163 8148,4194 8188,4228 8226,4262 8266,4300 8286,4320 8306,4344 8304,4272 8304,4236 8304,4202 8300,4061 8294,3917 8288,3774 8284,3700 8280,3630 8274,3483 8264,3337 8254,3193 8067,3150 7881,3110 7694,3072 7510,3038 7323,3006 7139,2976 6954,2948 6770,2924 6585,2900 6400,2880 6216,2862 6031,2847 5847,2833 5662,2823 5297,2809 5086,2805 4880,2805 4675,2807 4474,2811 4272,2819 4071,2831 3869,2843 3666,2862 3465,2882 3265,2904 3064,2930 2862,2958 2661,2990 2460,3024 2260,3060 2061,3100 1861,3144 1662,3190 1660,3193 1660,3203 1660,3217 1660,3237 1658,3247 1658,3261 1658,3289 1658,3323 1658,3363 1656,3405 1656,3455 1656,3509 1656,3570 1654,3634 1654,3704 1654,3778 1654,3859 1654,3909 1654,3963 1652,4007 1652,4055 1652,4105 1654,4159 1654,4216 1658,4274 1660,4338 1662,4402 1706,4350 1756,4302 1820,4238 1889,4182 1959,4131 2033,4087 2029,3859 2033,3497 2218,3461 2404,3427 2591,3393 2777,3365 2962,3337 3148,3311 3335,3289 3522,3269 3706,3251 3893,3235 4077,3221 4262,3211 4446,3203 4631,3197 4816,3193 5002,3194 5183,3194 5367,3198 5552,3205 5736,3215 5917,3225 6101,3239 6284,3255 6469,3275 6651,3295 6834,3317 7016,3343 7197,3373 7379,3403 7560,3435 7742,3469 7925,3509 "/>
     <polygon id="_1_0_2" class="fil42" points="7941,4059 7935,3784 7927,3509 7925,3509 7742,3469 7560,3435 7379,3403 7197,3373 7016,3343 6834,3317 6651,3295 6469,3275 6284,3255 6101,3239 5917,3225 5736,3215 5552,3205 5367,3198 5183,3194 5002,3194 4816,3193 4631,3197 4446,3203 4262,3211 4077,3221 3893,3235 3706,3251 3522,3269 3335,3289 3148,3311 2962,3337 2777,3365 2591,3393 2404,3427 2218,3461 2033,3497 2029,3859 2033,4087 2103,4047 2177,4013 2252,3985 2334,3963 2414,3943 2497,3931 2581,3923 2669,3921 2735,3923 2799,3927 2829,3929 2862,3933 2926,3945 2988,3957 3018,3965 3048,3975 3076,3983 3106,3993 3167,4015 3221,4039 3277,4067 3303,4081 3329,4099 3383,4133 3435,4169 3486,4212 3510,4232 3536,4254 3584,4302 3628,4348 3672,4396 3710,4446 3748,4500 3782,4551 3814,4605 3841,4661 3869,4717 3889,4775 3909,4834 3925,4894 3939,4956 3949,5018 3957,5082 3961,5146 3963,5215 3961,5247 3961,5281 3957,5345 3951,5375 3949,5391 3949,5407 3943,5439 3939,5471 3931,5502 3925,5534 3919,5548 3917,5554 3915,5562 3909,5594 3899,5622 3889,5652 3877,5682 3869,5712 3841,5766 3814,5823 3796,5849 3792,5855 3788,5861 3782,5875 3764,5903 3760,5909 3756,5915 3748,5929 3730,5955 3710,5981 3672,6031 3650,6055 3628,6081 3606,6103 3584,6129 3558,6152 3536,6174 3510,6196 3486,6218 3435,6256 3409,6276 3383,6294 3369,6302 3363,6306 3357,6310 3329,6328 3315,6334 3309,6338 3303,6342 3277,6360 3221,6386 3167,6414 3150,6418 3136,6424 3106,6434 3076,6444 3048,6454 3018,6462 3008,6464 3002,6466 2988,6470 2956,6479 2926,6485 2894,6491 2862,6495 2846,6497 2829,6499 2799,6503 2735,6507 2701,6509 2669,6511 2597,6507 2531,6503 2464,6495 2400,6483 2336,6466 2274,6450 2214,6428 2155,6406 2169,6563 2212,6966 2262,7371 2511,7449 2862,7189 3173,7598 3323,7628 3379,7640 3457,7652 3670,7684 3776,7698 3885,7714 4097,7738 4312,7756 4416,7764 4523,7770 4737,7780 4842,7782 4948,7784 5163,7784 5373,7778 5584,7768 5794,7754 6005,7734 6057,7728 6110,7722 6216,7708 6426,7680 6529,7662 6635,7646 6846,7606 7153,7189 7504,7451 7770,7371 7773,7341 7773,7333 7775,7325 7777,7311 7783,7251 7799,7131 7811,7010 7823,6890 7845,6649 7867,6406 7835,6416 7805,6428 7775,6440 7759,6444 7744,6450 7682,6468 7650,6476 7618,6485 7584,6489 7568,6491 7564,6491 7560,6493 7552,6495 7518,6499 7486,6503 7452,6507 7417,6509 7399,6509 7383,6509 7349,6511 7279,6509 7213,6503 7145,6495 7080,6485 7016,6468 6954,6452 6894,6432 6834,6408 6784,6384 6733,6358 6683,6330 6637,6300 6591,6266 6545,6232 6501,6194 6459,6155 6435,6131 6388,6083 6364,6057 6344,6033 6322,6007 6304,5983 6266,5931 6232,5877 6216,5849 6200,5823 6174,5768 6160,5738 6150,5712 6125,5652 6115,5622 6107,5594 6097,5562 6089,5534 6077,5471 6067,5407 6061,5375 6059,5345 6055,5281 6055,5215 6057,5098 6063,5042 6073,4988 6081,4932 6093,4880 6107,4827 6125,4777 6144,4725 6166,4677 6188,4627 6216,4581 6244,4533 6274,4488 6342,4400 6384,4348 6435,4300 6501,4238 6569,4182 6639,4131 6711,4087 6784,4047 6858,4013 6932,3985 7012,3963 7092,3943 7177,3931 7261,3923 7349,3921 7430,3923 7468,3925 7506,3929 7584,3939 7658,3955 7694,3963 7732,3975 7805,3997 7873,4025 7907,4041 "/>
     <path id="_12_3" class="fil43" d="M8390 4440l-40 -50 -42 -46 -22 -24 -20 -20 -40 -38 -38 -34 -40 -34 -40 -30 -42 -30 -40 -26 -42 -26 -42 -22 -34 -18 -34 -16 -70 -28 -72 -24 -38 -10 -36 -8 -76 -16 -76 -10 -40 -4 -38 -2 -78 -2 -88 2 -84 8 -82 12 -80 20 -80 22 -76 28 -74 34 -70 40 -72 44 -70 50 -68 56 -66 62 -48 48 -44 52 -68 88 -30 46 -28 46 -28 46 -22 48 -22 48 -18 52 -18 50 -14 52 -14 52 -8 54 -8 54 -6 56 -4 116 2 66 4 64 2 32 4 32 10 64 14 60 8 30 10 32 8 28 10 30 22 58 10 28 14 28 28 54 14 26 16 28 34 54 38 52 20 26 22 26 20 24 22 26 46 48 24 22 42 40 44 38 46 34 46 34 46 30 48 28 50 26 52 26 58 22 60 20 60 16 64 16 64 10 66 8 66 4 70 2 34 -2 16 -2 18 0 34 -2 34 -2 32 -4 34 -4 8 -2 4 -2 4 0 16 -2 34 -4 32 -8 32 -8 62 -18 14 -6 16 -4 32 -10 30 -12 32 -10 50 -26 12 -8 2 -2 4 -2 8 -2 26 -14 24 -16 26 -14 24 -16 26 -14 10 -10 12 -8 24 -16 10 -10 12 -8 24 -16 46 -40 46 -40 8 -8 6 -6 22 -26 22 -24 22 -26 22 -24 20 -26 10 -14 10 -12 20 -26 20 -26 8 -14 4 -8 4 -6 16 -26 8 -14 4 -8 4 -6 16 -26 28 -54 14 -28 6 -14 8 -14 4 -16 6 -14 10 -28 10 -30 10 -28 8 -32 2 -8 2 -8 4 -14 8 -32 8 -30 4 -32 4 -32 2 -16 2 -16 4 -32 4 -64 2 -34 2 -32 -2 -54 -4 -54 -6 -52 -6 -52 -10 -52 -10 -50 -14 -50 -14 -48 -18 -48 -20 -46 -20 -46 -22 -44 -26 -46 -26 -42 -28 -44 -30 -40 0 6 0 1zm-445 56l32 28 32 32 32 34 30 34 28 36 28 38 24 38 22 40 20 40 20 42 16 40 14 42 10 44 10 44 8 44 6 46 4 46 2 48 -2 4 0 6 0 12 0 24 -2 22 -2 24 -6 46 -8 46 -10 44 -10 42 -8 20 -6 22 -16 44 -20 40 -20 40 -22 38 -24 40 -28 36 -14 18 -14 20 -16 16 -14 18 -32 36 -14 12 -8 6 -6 8 -26 24 -28 22 -14 10 -14 12 -32 20 -16 10 -14 10 -62 36 -34 16 -32 14 -34 14 -16 6 -16 8 -36 10 -10 2 -8 2 -16 4 -36 8 -34 8 -38 4 -20 2 -18 2 -38 2 -20 0 -10 0 -4 0 -4 2 -48 -2 -46 -4 -46 -6 -44 -8 -46 -10 -42 -10 -44 -14 -40 -16 -42 -20 -40 -20 -40 -22 -38 -24 -38 -28 -36 -28 -34 -30 -34 -32 -34 -36 -30 -34 -30 -38 -26 -36 -26 -40 -22 -38 -20 -40 -16 -40 -18 -44 -14 -42 -12 -42 -8 -44 -8 -46 -4 -46 -4 -46 0 -46 0 -48 4 -46 4 -46 8 -44 20 -88 14 -42 18 -40 16 -42 20 -40 22 -40 26 -38 26 -38 30 -36 30 -34 34 -34 68 -66 36 -30 38 -26 38 -26 40 -22 40 -20 42 -16 40 -18 44 -14 42 -12 46 -8 44 -8 46 -4 46 -4 48 0 40 0 42 2 40 4 40 8 38 6 40 10 38 10 38 14 36 14 36 16 34 16 36 20 34 20 34 22 32 24 34 28 2 0 0 0z"/>
     <path id="_123_4" class="fil44" d="M8007 4557l-32 -32 -32 -28 -34 -28 -32 -24 -34 -22 -34 -20 -36 -20 -34 -16 -36 -16 -36 -14 -38 -14 -38 -10 -40 -10 -38 -6 -40 -8 -40 -4 -42 -2 -40 0 -48 0 -46 4 -46 4 -44 8 -46 8 -42 12 -44 14 -40 18 -42 16 -40 20 -40 22 -38 26 -38 26 -36 30 -68 66 -34 34 -30 34 -30 36 -26 38 -26 38 -22 40 -20 40 -16 42 -18 40 -14 42 -20 88 -8 44 -4 46 -4 46 0 48 0 46 4 46 4 46 8 46 8 44 12 42 14 42 18 44 16 40 20 40 22 38 26 40 26 36 30 38 30 34 34 36 34 32 34 30 36 28 38 28 38 24 40 22 40 20 42 20 40 16 44 14 42 10 46 10 44 8 46 6 46 4 48 2 4 -2 4 0 10 0 20 0 38 -2 18 -2 20 -2 38 -4 34 -8 36 -8 16 -4 8 -2 10 -2 36 -10 16 -8 16 -6 34 -14 32 -14 34 -16 62 -36 14 -10 16 -10 32 -20 14 -12 14 -10 28 -22 26 -24 6 -8 8 -6 14 -12 32 -36 14 -18 16 -16 14 -20 14 -18 28 -36 24 -40 22 -38 20 -40 20 -40 16 -44 6 -22 8 -20 10 -42 10 -44 8 -46 6 -46 2 -24 2 -22 0 -24 0 -12 0 -6 2 -4 -2 -48 -4 -46 -6 -46 -8 -44 -10 -44 -10 -44 -14 -42 -16 -40 -20 -42 -20 -40 -22 -40 -24 -38 -28 -38 -28 -36 -30 -34 -32 -34 -2 0 0 0zm-1322 453l-2 -26 4 -24 6 -24 8 -22 8 -22 14 -20 16 -20 18 -18 38 -32 20 -14 22 -8 22 -8 24 -6 24 -4 26 0 24 0 24 4 22 6 22 8 20 8 22 14 20 14 20 18 16 18 16 20 12 20 10 22 8 22 6 24 4 24 2 26 -2 24 -4 24 -2 4 -2 2 0 4 -2 12 -8 22 -6 10 -4 10 -12 22 -16 20 -16 20 -20 16 -20 16 -22 12 -10 4 -10 6 -22 8 -12 2 -4 0 -2 2 -4 2 -24 4 -24 2 -26 -2 -24 -4 -24 -6 -22 -8 -22 -10 -20 -12 -20 -16 -18 -16 -18 -20 -16 -20 -14 -22 -8 -20 -8 -22 -6 -22 -4 -24 2 -24 0 0 0 0z"/>
     <polygon id="_1234" class="fil45" points="6757,4838 6739,4856 6723,4874 6709,4894 6701,4916 6693,4938 6687,4962 6683,4986 6685,5012 6683,5036 6687,5060 6693,5082 6701,5104 6709,5126 6723,5146 6739,5167 6757,5185 6775,5201 6794,5217 6814,5229 6836,5239 6858,5247 6882,5253 6906,5257 6932,5257 6956,5257 6980,5253 6984,5251 6986,5249 6990,5249 7002,5247 7024,5239 7034,5233 7046,5229 7066,5217 7086,5201 7105,5185 7121,5167 7137,5146 7149,5126 7153,5114 7159,5104 7167,5082 7169,5070 7169,5066 7171,5064 7173,5060 7177,5036 7177,5012 7177,4986 7173,4962 7167,4938 7159,4916 7149,4894 7137,4874 7121,4856 7105,4838 7086,4820 7066,4803 7046,4791 7024,4783 7002,4775 6980,4769 6956,4765 6932,4765 6906,4765 6882,4769 6858,4775 6836,4783 6814,4791 6794,4803 "/>
     <polygon id="_12345" class="fil42" points="8075,8178 8090,8116 8098,8085 8098,8077 8100,8069 8106,8055 8118,7993 8132,7931 8211,7164 7951,7271 7763,7333 7496,7411 7145,7149 6838,7568 6627,7606 6521,7624 6418,7640 6208,7670 6101,7682 6049,7688 5997,7696 5786,7714 5576,7730 5365,7738 5155,7746 4940,7746 4834,7744 4729,7740 4515,7732 4408,7724 4304,7718 4089,7698 3877,7674 3768,7660 3662,7646 3449,7612 3371,7600 3317,7590 3165,7560 2854,7149 2382,7217 1820,7642 1837,7732 1852,7821 1873,7911 1891,7995 1913,8081 1935,8164 1959,8248 1983,8328 2011,8408 2039,8489 2069,8567 2111,8583 2186,8605 2260,8629 2412,8673 2486,8693 2561,8715 2713,8755 2747,8763 2785,8773 2860,8791 3008,8828 3044,8836 3062,8840 3080,8844 3154,8860 3305,8892 3375,8906 3449,8920 3596,8948 3668,8958 3740,8970 3887,8994 3903,8994 3921,8996 3957,9002 4029,9012 4174,9030 4244,9036 4316,9044 4459,9058 4537,9062 4617,9068 4773,9078 4852,9080 4932,9082 5088,9086 5167,9086 5245,9086 5399,9082 5476,9080 5514,9076 5534,9076 5554,9076 5630,9070 5670,9068 5688,9068 5708,9068 5851,9054 5921,9046 5993,9040 6134,9024 6206,9014 6276,9006 6416,8984 6485,8972 6503,8968 6521,8966 6557,8960 6695,8934 6834,8908 6970,8874 7106,8842 7175,8822 7207,8812 7225,8808 7243,8804 7379,8767 7514,8725 7648,8681 7712,8657 7781,8633 7915,8587 7945,8575 7961,8567 7973,8527 7987,8491 8031,8336 8053,8256 "/>
     <polygon id="_123456" class="fil41" points="7867,6406 7845,6649 7823,6890 7811,7010 7799,7131 7783,7251 7777,7311 7729,7558 8090,7670 8168,7108 8174,7040 8182,6972 8196,6836 8198,6801 8202,6767 8208,6701 8220,6563 8232,6424 8242,6286 8250,6145 8206,6186 8160,6226 8136,6242 8124,6250 8114,6260 8090,6276 8077,6286 8065,6294 8041,6310 8017,6324 7991,6340 7967,6354 7941,6368 7935,6370 7931,6372 7929,6374 7917,6380 "/>
     <polygon id="_1234567" class="fil42" points="5427,1168 5423,1132 5419,1098 5411,1064 5399,1032 5385,1002 5367,972 5347,944 5323,920 5297,894 5281,882 5269,871 5239,853 5223,845 5209,839 5193,833 5177,827 5143,821 5124,817 5108,815 5072,815 5036,815 5002,821 4968,827 4936,839 4906,853 4876,871 4848,894 4824,920 4798,944 4775,972 4757,1002 4745,1032 4733,1064 4725,1098 4721,1132 4721,1168 4719,1186 4721,1204 4721,1221 4725,1239 4733,1273 4737,1287 4745,1305 4757,1335 4775,1365 4785,1377 4798,1391 4824,1419 4850,1443 4880,1465 4910,1483 4946,1499 4880,2805 5086,2805 5297,2809 5227,1487 5251,1471 5263,1463 5277,1457 5287,1447 5299,1439 5323,1419 5335,1405 5347,1391 5357,1377 5361,1371 5365,1367 5367,1365 5369,1359 5371,1357 5377,1349 5385,1335 5391,1319 5399,1305 5405,1287 5407,1279 5411,1273 5419,1239 5421,1221 5423,1204 5423,1194 5423,1190 5423,1186 5425,1186 "/>
     <path id="_12345678" class="fil43" d="M2669 3921l-88 2 -84 8 -82 12 -80 20 -80 22 -76 28 -74 34 -70 40 -72 44 -70 50 -68 56 -64 64 -48 48 -44 52 -68 88 -30 46 -28 46 -28 46 -22 48 -22 48 -18 52 -18 50 -14 52 -14 52 -8 54 -8 54 -4 56 -4 56 0 58 2 66 4 64 2 32 4 32 10 64 14 60 8 30 10 32 8 28 10 30 22 58 24 54 28 54 14 26 16 28 34 54 38 52 40 50 20 24 22 26 46 48 22 24 42 40 44 38 46 34 46 34 46 30 48 28 50 26 52 26 58 22 60 22 60 16 64 16 64 10 66 8 66 4 70 4 32 -2 34 -2 64 -4 32 -4 16 -2 16 -2 32 -4 32 -4 30 -8 32 -8 14 -4 8 -2 8 -2 32 -8 28 -10 30 -10 28 -10 14 -6 16 -4 54 -26 54 -28 26 -16 6 -4 8 -4 14 -8 26 -16 6 -4 8 -4 14 -8 26 -20 26 -20 50 -40 24 -22 26 -22 24 -22 26 -22 22 -26 22 -24 22 -26 22 -24 40 -50 20 -26 20 -26 8 -14 4 -8 4 -6 16 -26 8 -14 4 -8 4 -6 16 -26 28 -54 26 -54 10 -30 10 -28 10 -30 10 -28 8 -32 2 -8 2 -8 4 -14 8 -32 8 -30 4 -32 4 -32 2 -16 2 -16 4 -32 4 -64 2 -34 2 -32 -4 -66 -4 -64 -8 -64 -10 -62 -14 -62 -16 -60 -20 -58 -20 -56 -26 -58 -28 -54 -32 -54 -32 -52 -38 -52 -40 -50 -44 -48 -44 -46 -48 -46 -26 -22 -24 -20 -50 -40 -52 -38 -54 -34 -28 -16 -26 -14 -54 -28 -54 -24 -58 -22 -30 -10 -28 -8 -32 -10 -30 -8 -60 -14 -64 -10 -32 -4 -32 -2 -64 -4 -66 -2 0 0 0 0zm658 1950l-36 32 -18 14 -16 16 -20 14 -18 14 -36 28 -40 24 -38 22 -40 20 -6 2 -4 2 -10 4 -20 10 -44 16 -22 6 -20 8 -44 10 -42 10 -46 8 -46 6 -24 2 -22 2 -46 2 -48 -2 -46 -4 -46 -6 -44 -8 -44 -10 -44 -10 -42 -14 -40 -16 -42 -18 -40 -20 -40 -22 -38 -24 -38 -28 -36 -28 -36 -30 -34 -32 -34 -36 -30 -34 -30 -38 -26 -36 -26 -40 -22 -38 -20 -40 -16 -40 -16 -44 -14 -42 -12 -42 -8 -44 -8 -46 -4 -46 -4 -46 0 -46 0 -48 4 -46 4 -46 8 -44 20 -88 30 -82 16 -42 20 -40 22 -40 26 -38 26 -38 30 -36 30 -34 34 -34 34 -34 36 -30 36 -30 38 -26 38 -26 40 -22 40 -20 42 -16 40 -18 42 -14 88 -20 44 -8 46 -4 46 -4 48 0 46 0 46 4 46 4 46 8 42 8 44 12 42 14 44 18 40 16 40 20 38 22 40 26 36 26 38 30 34 30 36 34 32 34 30 34 28 36 28 38 24 38 22 40 20 40 20 42 16 40 14 42 10 44 10 44 8 44 6 46 4 46 2 48 -2 4 0 6 0 12 0 24 -2 22 -2 24 -6 46 -8 46 -10 44 -10 42 -8 20 -6 22 -16 44 -20 40 -20 40 -22 38 -24 40 -28 36 -14 18 -14 20 -16 16 -14 18 -32 36 0 0 0 0z"/>
     <path id="_123456789" class="fil44" d="M2669 6144l46 -2 22 -2 24 -2 46 -6 46 -8 42 -10 44 -10 20 -8 22 -6 44 -16 20 -10 10 -4 4 -2 6 -2 40 -20 38 -22 40 -24 36 -28 18 -14 20 -14 16 -16 18 -14 36 -32 32 -36 14 -18 16 -16 14 -20 14 -18 28 -36 24 -40 22 -38 20 -40 20 -40 16 -44 6 -22 8 -20 10 -42 10 -44 8 -46 6 -46 2 -24 2 -22 0 -24 0 -12 0 -6 2 -4 -2 -48 -4 -46 -6 -46 -8 -44 -10 -44 -10 -44 -14 -42 -16 -40 -20 -42 -20 -40 -22 -40 -24 -38 -28 -38 -28 -36 -30 -34 -32 -34 -36 -34 -34 -30 -38 -30 -36 -26 -40 -26 -38 -22 -40 -20 -40 -16 -44 -18 -42 -14 -44 -12 -42 -8 -46 -8 -46 -4 -46 -4 -46 0 -48 0 -46 4 -46 4 -44 8 -88 20 -42 14 -40 18 -42 16 -40 20 -40 22 -38 26 -38 26 -36 30 -36 30 -34 34 -34 34 -30 34 -30 36 -26 38 -26 38 -22 40 -20 40 -16 42 -30 82 -20 88 -8 44 -4 46 -4 46 0 48 0 46 4 46 4 46 8 46 8 44 12 42 14 42 16 44 16 40 20 40 22 38 26 40 26 36 30 38 30 34 34 36 34 32 36 30 36 28 38 28 38 24 40 22 40 20 42 18 40 16 42 14 44 10 44 10 44 8 46 6 46 4 48 2 0 0 0 0zm-171 -1131l-2 24 -4 24 -2 4 -2 2 0 4 -2 12 -8 22 -6 10 -4 10 -12 22 -16 20 -16 20 -10 8 -10 8 -20 16 -22 12 -10 4 -10 6 -22 8 -12 2 -4 0 -2 2 -4 2 -24 4 -24 2 -26 -2 -24 -4 -22 -6 -22 -8 -22 -10 -20 -12 -20 -16 -18 -16 -18 -20 -16 -20 -14 -22 -8 -20 -8 -22 -6 -22 -4 -24 2 -24 -2 -26 4 -24 6 -24 8 -22 8 -22 14 -20 16 -20 18 -18 38 -32 20 -14 22 -8 22 -8 22 -6 24 -4 26 0 24 0 24 4 22 6 22 8 20 8 22 14 20 14 20 18 16 18 16 20 12 20 10 22 8 22 6 24 4 24 2 26 0 0 0 0z"/>
     <polygon id="_12345678910" class="fil45" points="2424,5185 2440,5167 2456,5146 2468,5126 2472,5114 2478,5104 2486,5082 2488,5070 2488,5066 2490,5064 2493,5060 2497,5036 2497,5012 2497,4986 2493,4962 2486,4938 2478,4916 2468,4894 2456,4874 2440,4856 2424,4838 2404,4820 2386,4803 2364,4791 2344,4783 2322,4775 2298,4769 2274,4765 2250,4765 2224,4765 2200,4769 2177,4775 2155,4783 2133,4791 2113,4803 2077,4838 2059,4856 2043,4874 2029,4894 2021,4916 2013,4938 2007,4962 2003,4986 2005,5012 2003,5036 2007,5060 2013,5082 2021,5104 2029,5126 2043,5146 2059,5167 2077,5185 2095,5201 2113,5217 2133,5229 2155,5239 2177,5247 2200,5253 2224,5257 2250,5257 2274,5257 2298,5253 2304,5251 2306,5249 2310,5249 2322,5247 2344,5239 2354,5233 2364,5229 2386,5217 2404,5201 2414,5193 "/>
     <polygon id="_1234567891011" class="fil41" points="2246,7592 2212,6966 2169,6563 2155,6406 2103,6380 2053,6356 2003,6328 1957,6298 1911,6264 1774,6199 1794,6354 1812,6563 1826,6727 1841,6898 1855,7072 1911,7652 "/>
     <polyline id="_123456789101112" class="fil2 str0" points="7941,4059 7935,3784 7927,3509 7742,3469 7560,3435 7379,3403 7197,3373 7016,3343 6834,3317 6651,3295 6469,3275 6284,3255 6101,3239 5917,3225 5736,3215 5552,3205 5367,3198 5183,3194 5002,3194 4816,3193 4631,3197 4446,3203 4262,3211 4077,3221 3893,3235 3706,3251 3522,3269 3335,3289 3148,3311 2962,3337 2777,3365 2591,3393 2404,3427 2218,3461 2033,3497 2029,3859 2033,4087 "/>
     <polyline id="_123456789101112131415" class="fil2 str0" points="1818,7606 1845,7772 1861,7861 1881,7949 1899,8035 1921,8120 1943,8204 1967,8288 1991,8368 2019,8449 2047,8527 2077,8607 2119,8621 2194,8645 2268,8669 2420,8713 2494,8733 2569,8755 2719,8794 2755,8802 2793,8812 2868,8832 3016,8868 3052,8874 3070,8878 3088,8882 3163,8900 3311,8932 3383,8946 3457,8960 3604,8986 3674,8998 3748,9010 3895,9032 3911,9034 3929,9036 3965,9040 4037,9050 4180,9068 4252,9076 4324,9084 4467,9097 4545,9102 4623,9108 4781,9119 4860,9121 4940,9123 5096,9127 5175,9125 5251,9125 5407,9123 5484,9119 5522,9116 5542,9115 5562,9115 5638,9111 5676,9108 5696,9107 5716,9107 5859,9094 5929,9086 6001,9080 6142,9064 6212,9054 6284,9046 6424,9022 6493,9010 6511,9008 6527,9004 6563,9000 6703,8974 6842,8946 6978,8914 7115,8880 7183,8862 7215,8852 7233,8848 7251,8844 7387,8806 7522,8763 7656,8719 7720,8695 7789,8673 7923,8625 7953,8613 7969,8607 7981,8567 7995,8531 8039,8374 8061,8296 8083,8218 8098,8156 8104,8124 8106,8116 8108,8109 8114,8093 8126,8031 8140,7971 8203,7646 "/>
     <polyline id="_12345678910111213141516" class="fil2 str0" points="7867,6406 7845,6649 7823,6890 7811,7010 7799,7131 7735,7581 "/>
     <path id="_123456789101112131415161718" class="fil2 str0" d="M8152 7697l-584 -121 -363 -591 -315 369c-1534,-459 -2283,-429 -3679,40l-311 -379 -345 564 -719 107"/>
     <polyline id="_12345678910111213141516171819" class="fil2 str0" points="8110,7650 8168,7108 8174,7040 8182,6972 8196,6836 8198,6801 8202,6767 8208,6701 8220,6563 8232,6424 8242,6286 8246,6185 "/>
     <polyline id="_123456789101112131415161718192021" class="fil2 str0" points="5281,2809 5662,2823 5847,2833 6031,2847 6216,2862 6400,2880 6585,2900 6770,2924 6954,2948 7139,2976 7323,3006 7510,3038 7694,3072 7881,3110 8067,3150 8254,3193 8264,3337 8274,3483 8280,3630 8284,3700 8288,3774 8294,3917 8300,4061 8304,4202 8304,4236 8304,4272 8306,4344 "/>
     <polyline id="_12345678910111213141516171819202122" class="fil2 str0" points="5297,2809 5227,1487 5251,1471 5263,1463 5277,1457 5287,1447 5299,1439 5323,1419 5335,1405 5347,1391 5357,1377 5361,1371 5365,1367 5367,1365 5369,1359 5371,1357 5377,1349 5385,1335 5391,1319 5399,1305 5405,1287 5407,1279 5411,1273 5419,1239 5421,1221 5423,1204 5423,1194 5423,1190 5423,1186 5425,1186 5427,1168 5423,1132 5419,1098 5411,1064 5399,1032 5385,1002 5367,972 5347,944 5323,920 5297,894 5281,882 5269,871 5239,853 5223,845 5209,839 5193,833 5177,827 5143,821 5124,817 5108,815 5072,815 5036,815 5002,821 4968,827 4936,839 4906,853 4876,871 4848,894 4824,920 4798,944 4775,972 4757,1002 4745,1032 4733,1064 4725,1098 4721,1132 4721,1168 4719,1186 4721,1204 4721,1221 4725,1239 4733,1273 4737,1287 4745,1305 4757,1335 4775,1365 4785,1377 4798,1391 4824,1419 4850,1443 4880,1465 4910,1483 4946,1499 4880,2805 "/>
     <polyline id="_1234567891011121314151617181920212223" class="fil2 str0" points="4840,2805 5086,2805 5297,2809 "/>
     <polyline id="_12345678910111213141516171819202122232425" class="fil2 str0" points="1662,4402 1660,4338 1658,4274 1654,4216 1654,4159 1652,4105 1652,4055 1652,4007 1654,3963 1654,3909 1654,3859 1654,3778 1654,3704 1654,3634 1656,3570 1656,3509 1656,3455 1656,3405 1658,3363 1658,3323 1658,3289 1658,3261 1658,3247 1660,3237 1660,3217 1660,3203 1660,3193 1662,3190 1861,3144 2061,3100 2260,3060 2460,3024 2661,2990 2862,2958 3064,2930 3265,2904 3465,2882 3666,2862 3869,2843 4071,2831 4272,2819 4474,2811 4675,2807 4880,2805 "/>
     <polyline id="_1234567891011121314151617181920212223242526272829" class="fil2 str0" points="2292,7624 2212,6966 2169,6563 2155,6406 "/>
     <polyline id="_12345678910111213141516171819202122232425262728293031" class="fil2 str0" points="1778,6181 1794,6354 1812,6563 1826,6727 1841,6898 1855,7072 1919,7676 "/>
    </g>
   </g>
   <polygon class="fil2" points="1187,9315 8834,9315 8834,627 1187,627 "/>
   <circle class="fil2 str0" cx="2667" cy="5227" r="1308"/>
   <circle class="fil2 str0" cx="7353" cy="5227" r="1308"/>
  </g>
 </g>
</svg>
