<?xml version="1.0" encoding="UTF-8"?>
<!DOCTYPE svg PUBLIC "-//W3C//DTD SVG 1.1//EN" "http://www.w3.org/Graphics/SVG/1.1/DTD/svg11.dtd">
<!-- Creator: CorelDRAW X6 -->
<svg xmlns="http://www.w3.org/2000/svg" xml:space="preserve" width="150px" height="150px" version="1.1" style="shape-rendering:geometricPrecision; text-rendering:geometricPrecision; image-rendering:optimizeQuality; fill-rule:evenodd; clip-rule:evenodd"
viewBox="0 0 15000 15000"
 xmlns:xlink="http://www.w3.org/1999/xlink">
 <defs>
  <style type="text/css">
   <![CDATA[
    .str0 {stroke:black;stroke-width:127}
    .fil7 {fill:none}
    .fil5 {fill:#253952}
    .fil2 {fill:#98B1D1}
    .fil3 {fill:#D8E1ED}
    .fil4 {fill:#FFF5B3}
    .fil6 {fill:white}
    .fil1 {fill:black;fill-opacity:0.000000}
    .fil0 {fill:url(#id2)}
   ]]>
  </style>
    <clipPath id="id0">
     <path d="M1351 14303l12198 0 0 -13859 -12198 0 0 13859z"/>
    </clipPath>
    <clipPath id="id1">
     <path d="M1351 14303l12198 0 0 -13859 -12198 0 0 13859z"/>
    </clipPath>
  <radialGradient id="id2" gradientUnits="objectBoundingBox" cx="50%" cy="50%" r="50%" fx="50%" fy="50%">
   <stop offset="0" style="stop-color:#9CD448"/>
   <stop offset="0.811765" style="stop-color:#9CD448"/>
   <stop offset="1" style="stop-color:#85BA3F"/>
  </radialGradient>
 </defs>
 <g id="Layer_x0020_1">
  <metadata id="CorelCorpID_0Corel-Layer"/>
  <path class="fil0" d="M2817 285l9362 0c1418,0 2569,1150 2569,2569l0 9362c0,1418 -1150,2569 -2569,2569l-9362 0c-1418,0 -2569,-1150 -2569,-2569l0 -9362c0,-1418 1150,-2569 2569,-2569z"/>
  <g id="_277280264">
   <g style="clip-path:url(#id0)">
    <polygon class="fil1" points="1351,445 13549,445 13549,14303 1351,14303 "/>
   </g>
   <g style="clip-path:url(#id1)">
    <g>
     <polygon id="1" class="fil2" points="12102,5042 12114,5482 12125,5920 12192,5956 12259,5996 12324,6038 12391,6086 12454,6134 12517,6187 12578,6243 12641,6304 12674,6336 12708,6374 12704,6260 12702,6202 12702,6147 12697,5922 12687,5692 12679,5465 12672,5348 12666,5234 12655,5002 12639,4769 12624,4536 12326,4469 12030,4406 11732,4347 11437,4291 11139,4240 10845,4192 10550,4148 10256,4108 9960,4072 9666,4039 9371,4010 9077,3986 8783,3965 8490,3947 7905,3926 7571,3919 7240,3921 6915,3922 6594,3930 6271,3943 5950,3961 5627,3982 5306,4008 4985,4041 4666,4077 4345,4117 4024,4163 3703,4213 3384,4268 3063,4328 2745,4391 2426,4459 2109,4534 2105,4538 2105,4553 2105,4576 2105,4607 2103,4624 2103,4645 2103,4691 2103,4744 2103,4809 2099,4878 2099,4956 2099,5042 2099,5138 2096,5241 2096,5352 2096,5470 2096,5599 2096,5681 2096,5767 2094,5837 2094,5914 2094,5994 2097,6080 2097,6170 2101,6264 2105,6363 2109,6468 2180,6384 2258,6306 2361,6204 2470,6115 2583,6034 2699,5964 2696,5599 2699,5025 2996,4966 3294,4911 3590,4859 3888,4811 4183,4767 4481,4727 4777,4691 5075,4658 5369,4630 5666,4605 5960,4584 6256,4567 6550,4553 6845,4544 7139,4538 7435,4540 7726,4542 8020,4547 8313,4557 8607,4572 8897,4589 9192,4610 9482,4635 9776,4668 10067,4700 10357,4737 10648,4777 10938,4825 11227,4872 11518,4924 11808,4979 12099,5042 "/>
     <polygon id="_1" class="fil3" points="12125,5920 12114,5482 12102,5042 12099,5042 11808,4979 11518,4924 11227,4872 10938,4825 10648,4777 10357,4737 10067,4700 9776,4668 9482,4635 9192,4610 8897,4589 8607,4572 8313,4557 8020,4547 7726,4542 7435,4540 7139,4538 6845,4544 6550,4553 6256,4567 5960,4584 5666,4605 5369,4630 5075,4658 4777,4691 4481,4727 4183,4767 3888,4811 3590,4859 3294,4911 2996,4966 2699,5025 2696,5599 2699,5964 2812,5900 2931,5847 3051,5801 3179,5765 3307,5734 3439,5715 3575,5704 3714,5700 3819,5702 3923,5707 3972,5711 4024,5719 4125,5736 4223,5757 4270,5769 4320,5784 4366,5797 4414,5814 4507,5851 4595,5889 4683,5933 4725,5956 4769,5983 4855,6038 4937,6097 5018,6162 5056,6195 5096,6231 5174,6306 5245,6380 5314,6459 5377,6539 5438,6623 5490,6705 5541,6791 5585,6879 5627,6971 5660,7061 5692,7154 5717,7250 5740,7349 5755,7449 5769,7552 5775,7655 5780,7762 5776,7814 5775,7867 5769,7970 5761,8020 5757,8045 5755,8072 5748,8121 5740,8173 5729,8221 5717,8270 5710,8293 5706,8305 5704,8318 5692,8368 5675,8414 5660,8461 5643,8507 5627,8555 5585,8643 5541,8731 5515,8773 5507,8782 5501,8794 5490,8817 5463,8859 5455,8868 5450,8880 5438,8903 5408,8943 5377,8985 5314,9065 5280,9104 5245,9144 5209,9182 5174,9222 5134,9256 5096,9293 5056,9327 5018,9362 4937,9425 4895,9455 4855,9486 4832,9497 4821,9503 4811,9511 4769,9537 4746,9549 4735,9555 4725,9562 4683,9589 4595,9633 4507,9675 4483,9683 4460,9692 4414,9709 4366,9725 4320,9742 4270,9753 4257,9755 4246,9759 4223,9767 4173,9778 4125,9790 4074,9797 4024,9805 3997,9807 3972,9811 3923,9818 3819,9824 3766,9826 3714,9830 3602,9824 3495,9816 3387,9803 3286,9786 3183,9761 3086,9734 2988,9700 2894,9664 2919,9914 2986,10558 3066,11204 3462,11326 4022,10912 4517,11565 4760,11613 4848,11630 4972,11649 5312,11703 5482,11726 5654,11749 5994,11787 6334,11817 6503,11829 6673,11840 7013,11856 7181,11859 7351,11863 7691,11863 8028,11852 8364,11837 8700,11814 9037,11783 9119,11772 9203,11762 9371,11741 9708,11695 9872,11668 10040,11640 10377,11578 10868,10912 11428,11330 11852,11204 11856,11154 11856,11141 11858,11129 11862,11106 11873,11011 11896,10820 11915,10627 11936,10436 11972,10050 12005,9664 11955,9681 11907,9700 11858,9717 11833,9725 11810,9734 11711,9763 11659,9774 11609,9788 11556,9795 11529,9799 11521,9799 11516,9801 11504,9805 11451,9811 11399,9818 11344,9822 11290,9826 11261,9826 11235,9828 11181,9830 11068,9826 10961,9818 10854,9805 10751,9788 10648,9763 10550,9736 10453,9704 10359,9667 10277,9627 10197,9587 10119,9543 10044,9495 9969,9440 9897,9384 9826,9325 9759,9262 9721,9226 9647,9148 9610,9107 9578,9069 9543,9027 9513,8987 9453,8905 9398,8819 9371,8775 9348,8733 9304,8645 9283,8599 9266,8555 9230,8461 9213,8414 9199,8368 9184,8318 9173,8270 9152,8173 9134,8072 9127,8020 9123,7970 9117,7867 9115,7762 9121,7577 9131,7487 9144,7401 9157,7313 9178,7229 9201,7145 9230,7064 9259,6982 9293,6904 9329,6825 9373,6751 9417,6676 9465,6604 9574,6464 9643,6382 9721,6304 9826,6204 9935,6115 10048,6034 10164,5964 10277,5900 10396,5847 10516,5801 10644,5765 10772,5734 10904,5715 11040,5704 11181,5700 11307,5702 11368,5706 11432,5713 11554,5728 11674,5753 11732,5767 11791,5784 11905,5822 12016,5866 12070,5891 "/>
     <path id="_12" class="fil4" d="M12840 6529l-65 -80 -67 -75 -34 -38 -32 -32 -63 -61 -61 -55 -63 -54 -63 -48 -67 -48 -65 -42 -67 -40 -67 -36 -55 -29 -54 -25 -111 -44 -115 -38 -59 -17 -57 -13 -120 -25 -122 -15 -63 -8 -61 -4 -126 -2 -141 4 -136 11 -132 19 -128 31 -128 36 -120 46 -118 54 -113 63 -117 71 -113 80 -109 90 -105 99 -78 78 -69 82 -109 140 -48 73 -44 75 -44 75 -36 78 -34 78 -29 82 -29 80 -23 84 -21 84 -13 88 -13 86 -10 90 -6 185 2 105 6 103 4 50 8 52 17 101 21 97 11 48 15 50 13 46 17 48 36 94 17 44 21 46 44 88 23 42 27 44 55 86 59 82 31 40 34 42 32 38 36 40 75 78 38 36 67 63 71 59 73 55 75 55 75 48 78 44 80 40 82 40 94 36 97 32 97 27 103 25 103 17 107 13 107 8 113 4 54 -2 27 -2 29 0 54 -4 55 -4 52 -8 54 -6 11 -4 6 -2 8 0 27 -4 54 -8 50 -13 52 -11 99 -29 23 -10 25 -8 50 -17 48 -19 50 -17 80 -40 19 -11 4 -4 6 -2 11 -4 42 -21 38 -25 40 -23 38 -25 40 -23 17 -15 19 -13 38 -27 17 -15 19 -13 38 -27 73 -63 73 -63 13 -13 10 -10 34 -40 36 -38 34 -40 34 -38 31 -42 15 -21 17 -19 31 -42 31 -40 11 -23 6 -11 8 -10 27 -42 11 -23 6 -11 8 -10 27 -42 44 -88 21 -46 10 -23 11 -21 8 -25 10 -23 17 -46 15 -48 17 -46 11 -50 2 -13 4 -11 8 -23 11 -50 11 -48 8 -52 8 -50 2 -27 4 -25 8 -50 6 -103 2 -54 4 -52 -4 -88 -6 -86 -10 -84 -10 -82 -15 -82 -17 -80 -21 -80 -23 -76 -29 -78 -31 -75 -32 -75 -36 -71 -40 -73 -42 -69 -46 -69 -48 -65zm-711 90l50 44 52 52 52 54 48 55 44 57 44 59 38 59 36 63 32 63 31 67 25 65 21 67 17 69 17 71 11 71 10 75 6 75 2 78 -2 8 0 10 0 19 0 38 -4 36 -2 38 -10 73 -11 73 -17 69 -17 69 -11 32 -10 34 -25 69 -31 63 -32 65 -36 61 -38 63 -44 57 -23 29 -21 31 -25 27 -23 29 -52 57 -23 19 -11 10 -10 11 -42 38 -46 36 -23 17 -21 19 -50 32 -25 15 -23 17 -99 57 -54 25 -52 23 -54 21 -27 10 -25 11 -57 15 -15 2 -13 4 -27 8 -57 11 -55 11 -61 8 -31 2 -29 4 -61 4 -31 0 -15 0 -8 0 -6 2 -78 -2 -75 -6 -75 -10 -71 -11 -73 -17 -69 -17 -69 -21 -65 -25 -67 -31 -63 -32 -63 -36 -59 -38 -59 -44 -57 -44 -55 -48 -54 -52 -55 -57 -48 -55 -48 -59 -40 -57 -40 -63 -36 -61 -32 -65 -27 -63 -29 -69 -21 -67 -19 -69 -13 -69 -13 -73 -8 -73 -6 -75 0 -75 0 -78 6 -75 8 -75 13 -71 32 -140 21 -67 29 -65 27 -67 32 -63 36 -63 40 -59 40 -59 48 -57 48 -55 55 -54 109 -105 57 -48 59 -40 59 -40 63 -36 63 -32 67 -27 65 -29 69 -21 69 -19 73 -13 71 -13 75 -8 75 -6 78 0 65 0 67 4 65 6 65 11 61 10 63 15 61 17 61 21 57 21 57 27 55 27 57 32 54 32 54 36 52 38 54 44z"/>
     <path id="_123" class="fil5" d="M12230 6715l-52 -52 -50 -44 -54 -44 -52 -38 -54 -36 -54 -32 -57 -32 -55 -27 -57 -27 -57 -21 -61 -21 -61 -17 -63 -15 -61 -10 -65 -11 -65 -6 -67 -4 -65 0 -78 0 -75 6 -75 8 -71 13 -73 13 -69 19 -69 21 -65 29 -67 27 -63 32 -63 36 -59 40 -59 40 -57 48 -109 105 -55 54 -48 55 -48 57 -40 59 -40 59 -36 63 -32 63 -27 67 -29 65 -21 67 -32 140 -13 71 -8 75 -6 75 0 78 0 75 6 75 8 73 13 73 13 69 19 69 21 67 29 69 27 63 32 65 36 61 40 63 40 57 48 59 48 55 55 57 54 52 55 48 57 44 59 44 59 38 63 36 63 32 67 31 65 25 69 21 69 17 73 17 71 11 75 10 75 6 78 2 6 -2 8 0 15 0 31 0 61 -4 29 -4 31 -2 61 -8 55 -11 57 -11 27 -8 13 -4 15 -2 57 -15 25 -11 27 -10 54 -21 52 -23 54 -25 99 -57 23 -17 25 -15 50 -32 21 -19 23 -17 46 -36 42 -38 10 -11 11 -10 23 -19 52 -57 23 -29 25 -27 21 -31 23 -29 44 -57 38 -63 36 -61 32 -65 31 -63 25 -69 10 -34 11 -32 17 -69 17 -69 11 -73 10 -73 2 -38 4 -36 0 -38 0 -19 0 -10 2 -8 -2 -78 -6 -75 -10 -75 -11 -71 -17 -71 -17 -69 -21 -67 -25 -65 -31 -67 -32 -63 -36 -63 -38 -59 -44 -59 -44 -57 -48 -55 -52 -54zm-2110 724l-2 -42 6 -38 10 -38 13 -34 13 -34 21 -32 25 -31 29 -29 59 -52 32 -21 34 -13 34 -13 38 -10 38 -6 42 0 38 0 38 6 36 10 36 13 32 13 34 21 31 23 31 29 25 29 25 31 19 32 17 34 11 34 10 38 6 38 2 42 -2 38 -6 38 -4 8 -2 4 0 6 -4 19 -11 36 -10 15 -8 17 -19 34 -25 31 -25 31 -31 25 -31 25 -34 19 -17 8 -15 10 -36 11 -19 4 -6 0 -4 2 -8 4 -38 6 -38 2 -42 -2 -38 -6 -38 -10 -34 -11 -34 -17 -32 -19 -31 -25 -29 -25 -29 -31 -25 -31 -21 -34 -13 -32 -13 -36 -10 -36 -6 -38 2 -38z"/>
     <polygon id="_1234" class="fil6" points="10235,7160 10206,7189 10182,7219 10161,7252 10147,7286 10134,7320 10124,7359 10119,7397 10120,7439 10119,7477 10124,7515 10134,7552 10147,7588 10161,7621 10182,7655 10206,7685 10235,7716 10264,7741 10294,7766 10327,7785 10361,7802 10396,7814 10434,7823 10472,7829 10514,7831 10552,7829 10591,7823 10598,7819 10602,7817 10608,7817 10627,7814 10663,7802 10679,7793 10696,7785 10730,7766 10761,7741 10791,7716 10816,7685 10841,7655 10860,7621 10868,7603 10877,7588 10889,7552 10893,7533 10893,7527 10894,7523 10898,7515 10904,7477 10906,7439 10904,7397 10898,7359 10889,7320 10877,7286 10860,7252 10841,7219 10816,7189 10791,7160 10761,7131 10730,7108 10696,7087 10663,7074 10627,7061 10591,7051 10552,7045 10514,7045 10472,7045 10434,7051 10396,7061 10361,7074 10327,7087 10294,7108 "/>
     <polygon id="_12345" class="fil3" points="12351,12553 12374,12454 12385,12404 12387,12391 12391,12379 12399,12356 12420,12257 12443,12159 12483,11961 12519,11762 12534,11659 12542,11607 12551,11557 12582,11355 12607,11148 12632,10942 12544,10971 12460,11001 12154,11105 11852,11204 11428,11330 10868,10912 10377,11578 10040,11640 9872,11668 9708,11695 9371,11741 9203,11762 9119,11772 9037,11783 8700,11814 8364,11837 8028,11852 7691,11863 7351,11863 7181,11859 7013,11856 6673,11840 6503,11829 6334,11817 5994,11787 5654,11749 5482,11726 5312,11703 4972,11649 4848,11630 4760,11613 4517,11565 4022,10912 3462,11326 3066,11204 2753,11112 2443,11013 2359,10982 2279,10955 2292,11106 2310,11257 2327,11406 2350,11556 2373,11699 2399,11842 2426,11984 2457,12125 2487,12261 2522,12396 2556,12530 2596,12664 2635,12792 2678,12920 2722,13046 2770,13172 2837,13197 2956,13234 3076,13272 3317,13342 3435,13375 3556,13409 3796,13472 3854,13486 3913,13501 4032,13532 4269,13589 4326,13600 4355,13606 4385,13614 4504,13641 4741,13692 4855,13713 4972,13736 5205,13780 5320,13797 5436,13816 5669,13853 5696,13855 5725,13858 5782,13866 5897,13881 6126,13910 6239,13922 6354,13935 6583,13956 6707,13964 6833,13973 7086,13988 7210,13992 7336,13996 7588,14002 7711,14000 7835,14000 8083,13996 8206,13990 8267,13987 8297,13985 8330,13985 8452,13977 8513,13973 8544,13971 8576,13971 8802,13950 8915,13939 9029,13929 9255,13902 9367,13887 9482,13874 9704,13837 9815,13818 9841,13813 9870,13809 9927,13801 10149,13759 10371,13715 10589,13664 10807,13610 10914,13579 10967,13564 10994,13557 11023,13551 11240,13492 11454,13425 11668,13354 11774,13316 11881,13279 12095,13203 12142,13184 12169,13172 12188,13109 12209,13052 12282,12804 12316,12677 "/>
     <polygon id="_123456" class="fil2" points="12005,9664 11972,10050 11936,10436 11915,10627 11896,10820 11873,11011 11862,11106 11858,11129 11856,11141 11856,11154 11852,11204 12154,11105 12460,11001 12485,10783 12496,10675 12509,10567 12530,10350 12534,10294 12540,10241 12551,10134 12569,9912 12588,9692 12603,9470 12618,9249 12546,9312 12473,9375 12435,9402 12416,9415 12399,9430 12360,9457 12341,9470 12324,9486 12284,9509 12246,9534 12206,9556 12167,9581 12125,9602 12114,9606 12108,9608 12104,9612 12085,9623 "/>
     <polygon id="_1234567" class="fil3" points="8114,1310 8110,1251 8102,1195 8089,1142 8072,1092 8047,1042 8020,996 7986,951 7949,910 7905,870 7883,851 7862,836 7814,807 7789,794 7766,784 7739,773 7714,765 7661,754 7632,748 7605,746 7550,744 7491,746 7435,754 7382,765 7332,784 7282,807 7237,836 7191,870 7151,910 7110,951 7076,996 7047,1042 7026,1092 7007,1142 6996,1195 6988,1251 6988,1310 6986,1337 6988,1365 6990,1392 6996,1421 7007,1474 7015,1499 7026,1526 7047,1574 7076,1621 7091,1642 7110,1665 7151,1709 7193,1748 7240,1784 7290,1813 7345,1837 7240,3921 7571,3919 7905,3926 7797,1816 7835,1793 7854,1780 7875,1769 7892,1753 7911,1740 7949,1709 7967,1686 7986,1665 8003,1642 8011,1631 8014,1625 8020,1621 8022,1614 8026,1608 8034,1597 8047,1574 8058,1549 8072,1526 8079,1499 8083,1486 8089,1474 8102,1421 8106,1392 8110,1365 8110,1350 8110,1342 8110,1339 8112,1337 "/>
     <path id="_12345678" class="fil4" d="M3714 5700l-140 4 -136 11 -132 19 -128 31 -128 36 -120 46 -119 54 -113 63 -117 71 -113 80 -109 90 -103 101 -78 78 -71 84 -109 140 -48 73 -44 75 -44 75 -36 76 -34 78 -29 82 -29 80 -23 84 -21 84 -13 88 -13 86 -8 90 -6 90 0 94 2 105 6 103 4 50 8 52 17 101 21 97 11 48 15 50 13 46 17 48 36 94 38 88 44 88 23 42 27 44 55 86 59 82 65 80 32 38 36 40 75 78 36 38 67 63 71 59 73 55 75 54 75 48 78 44 80 40 82 40 94 36 97 34 97 27 103 25 101 17 107 13 107 8 113 6 52 -4 54 -2 103 -6 50 -8 25 -4 27 -2 50 -8 52 -8 48 -11 50 -11 23 -8 11 -4 13 -2 50 -11 46 -17 48 -15 46 -17 23 -10 25 -8 88 -42 88 -44 42 -27 10 -8 11 -6 23 -11 42 -27 10 -8 11 -6 23 -11 40 -31 42 -31 80 -63 38 -34 40 -34 38 -36 40 -34 34 -40 36 -38 34 -40 34 -38 63 -80 31 -42 31 -40 11 -23 6 -11 8 -10 27 -42 11 -23 6 -11 8 -10 27 -42 44 -88 42 -88 15 -48 17 -46 15 -48 17 -46 11 -50 2 -13 4 -11 8 -23 11 -50 11 -48 8 -52 8 -50 2 -27 4 -25 8 -50 6 -103 2 -54 4 -52 -6 -107 -6 -103 -13 -103 -15 -99 -23 -99 -25 -96 -32 -94 -32 -90 -42 -92 -44 -88 -52 -86 -52 -82 -61 -84 -63 -80 -69 -78 -71 -75 -78 -75 -40 -36 -38 -32 -80 -65 -82 -59 -86 -55 -44 -27 -42 -23 -88 -44 -88 -38 -94 -36 -48 -17 -46 -13 -50 -15 -48 -11 -97 -21 -101 -17 -52 -8 -50 -4 -103 -6 -105 -2zm1049 3111l-57 52 -29 23 -27 25 -31 21 -29 23 -57 44 -63 38 -61 36 -65 32 -10 2 -8 4 -15 8 -31 15 -69 25 -34 10 -32 11 -69 17 -69 17 -73 11 -73 10 -38 2 -36 4 -75 4 -78 -4 -75 -6 -75 -10 -71 -11 -71 -17 -69 -17 -67 -21 -65 -25 -67 -29 -63 -32 -63 -36 -59 -38 -59 -44 -57 -44 -57 -48 -54 -52 -55 -57 -48 -55 -48 -59 -40 -57 -40 -63 -36 -61 -32 -65 -27 -63 -27 -69 -21 -67 -19 -69 -13 -69 -13 -73 -8 -73 -6 -75 0 -75 0 -78 6 -75 8 -75 13 -71 32 -140 48 -132 27 -67 32 -63 36 -63 40 -59 40 -59 48 -57 48 -55 55 -54 54 -55 57 -48 57 -48 59 -40 59 -40 63 -36 63 -32 67 -27 65 -29 67 -21 140 -32 71 -13 75 -8 75 -6 78 0 75 0 75 6 73 8 73 13 69 13 69 19 67 21 69 29 63 27 65 32 61 36 63 40 57 40 59 48 55 48 57 55 52 54 48 55 44 57 44 59 38 59 36 63 32 63 31 67 25 65 21 67 17 69 17 71 11 71 10 75 6 75 2 78 -2 8 0 10 0 19 0 38 -4 36 -2 38 -10 73 -11 73 -17 69 -17 69 -11 32 -10 34 -25 69 -31 63 -32 65 -36 61 -38 63 -44 57 -23 29 -21 31 -25 27 -23 29 -52 57z"/>
     <path id="_123456789" class="fil5" d="M3714 9245l75 -4 36 -4 38 -2 73 -10 73 -11 69 -17 69 -17 32 -11 34 -10 69 -25 31 -15 15 -8 8 -4 10 -2 65 -32 61 -36 63 -38 57 -44 29 -23 31 -21 27 -25 29 -23 57 -52 52 -57 23 -29 25 -27 21 -31 23 -29 44 -57 38 -63 36 -61 32 -65 31 -63 25 -69 10 -34 11 -32 17 -69 17 -69 11 -73 10 -73 2 -38 4 -36 0 -38 0 -19 0 -10 2 -8 -2 -78 -6 -75 -10 -75 -11 -71 -17 -71 -17 -69 -21 -67 -25 -65 -31 -67 -32 -63 -36 -63 -38 -59 -44 -59 -44 -57 -48 -55 -52 -54 -57 -55 -55 -48 -59 -48 -57 -40 -63 -40 -61 -36 -65 -32 -63 -27 -69 -29 -67 -21 -69 -19 -69 -13 -73 -13 -73 -8 -75 -6 -75 0 -78 0 -75 6 -75 8 -71 13 -140 32 -67 21 -65 29 -67 27 -63 32 -63 36 -59 40 -59 40 -57 48 -57 48 -54 55 -55 54 -48 55 -48 57 -40 59 -40 59 -36 63 -32 63 -27 67 -48 132 -32 140 -13 71 -8 75 -6 75 0 78 0 75 6 75 8 73 13 73 13 69 19 69 21 67 27 69 27 63 32 65 36 61 40 63 40 57 48 59 48 55 55 57 54 52 57 48 57 44 59 44 59 38 63 36 63 32 67 29 65 25 67 21 69 17 71 17 71 11 75 10 75 6 78 4zm-273 -1806l-2 38 -6 38 -4 8 -2 4 0 6 -4 19 -11 36 -10 15 -8 17 -19 34 -25 31 -25 31 -17 11 -15 13 -31 25 -34 19 -17 8 -15 10 -36 11 -19 4 -6 0 -4 2 -8 4 -38 6 -38 2 -42 -2 -38 -6 -36 -10 -34 -11 -34 -17 -32 -19 -31 -25 -29 -25 -29 -31 -25 -31 -21 -34 -13 -32 -13 -36 -10 -36 -6 -38 2 -38 -2 -42 6 -38 10 -38 13 -34 13 -34 21 -32 25 -31 29 -29 59 -52 32 -21 34 -13 34 -13 36 -10 38 -6 42 0 38 0 38 6 36 10 36 13 32 13 34 21 31 23 32 29 25 29 25 31 19 32 17 34 11 34 10 38 6 38 2 42z"/>
     <polygon id="_12345678910" class="fil6" points="3326,7716 3351,7685 3376,7655 3395,7621 3403,7603 3412,7588 3424,7552 3428,7533 3428,7527 3430,7523 3433,7515 3439,7477 3441,7439 3439,7397 3433,7359 3424,7320 3412,7286 3395,7252 3376,7219 3351,7189 3326,7160 3294,7131 3263,7108 3229,7087 3196,7074 3160,7061 3124,7051 3086,7045 3047,7045 3005,7045 2967,7051 2931,7061 2896,7074 2862,7087 2829,7108 2770,7160 2742,7189 2717,7219 2696,7252 2682,7286 2669,7320 2659,7359 2654,7397 2656,7439 2654,7477 2659,7515 2669,7552 2682,7588 2696,7621 2717,7655 2742,7685 2770,7716 2799,7741 2829,7766 2862,7785 2896,7802 2931,7814 2967,7823 3005,7829 3047,7831 3086,7829 3124,7823 3131,7819 3135,7817 3141,7817 3160,7814 3196,7802 3212,7793 3229,7785 3263,7766 3294,7741 3309,7728 "/>
     <polygon id="_1234567891011" class="fil2" points="3066,11204 2986,10558 2919,9914 2894,9664 2812,9623 2732,9583 2654,9539 2579,9492 2505,9438 2432,9383 2361,9323 2294,9260 2319,9579 2350,9914 2371,10176 2394,10447 2417,10726 2443,11013 2753,11112 "/>
     <polyline id="_123456789101112" class="fil7 str0" points="12125,5920 12114,5482 12102,5042 12099,5042 11808,4979 11518,4924 11227,4872 10938,4825 10648,4777 10357,4737 10067,4700 9776,4668 9482,4635 9192,4610 8897,4589 8607,4572 8313,4557 8020,4547 7726,4542 7435,4540 7139,4538 6845,4544 6550,4553 6256,4567 5960,4584 5666,4605 5369,4630 5075,4658 4777,4691 4481,4727 4183,4767 3888,4811 3590,4859 3294,4911 2996,4966 2699,5025 2696,5599 2699,5964 "/>
     <polyline id="_12345678910111213" class="fil7 str0" points="12618,9249 12632,9235 12641,9226 12676,9186 12712,9148 12746,9107 12781,9069 12811,9027 12827,9006 12844,8987 12874,8945 12905,8905 12916,8882 12922,8870 12930,8861 12957,8819 12968,8796 12974,8784 12981,8775 13008,8733 13052,8645 13073,8599 13083,8576 13094,8555 13102,8530 13111,8507 13129,8461 13144,8414 13161,8368 13173,8318 13174,8305 13178,8293 13186,8270 13197,8221 13209,8173 13217,8121 13224,8072 13226,8045 13230,8020 13238,7970 13243,7867 13245,7814 13249,7762 13245,7674 13239,7588 13230,7504 13220,7422 13205,7340 13188,7259 13167,7179 13144,7103 13115,7024 13085,6950 13052,6875 13016,6804 12976,6732 12934,6663 12888,6594 12840,6529 12775,6449 12708,6374 "/>
     <polyline id="_1234567891011121314" class="fil7 str0" points="12708,6374 12674,6336 12641,6304 12578,6243 12517,6187 12454,6134 12391,6086 12324,6038 12259,5996 12192,5956 12125,5920 "/>
     <polyline id="_123456789101112131415" class="fil7 str0" points="2443,11013 2359,10982 2279,10955 2292,11106 2310,11257 2327,11406 2350,11556 2373,11699 2399,11842 2426,11984 2457,12125 2487,12261 2522,12396 2556,12530 2596,12664 2635,12792 2678,12920 2722,13046 2770,13172 2837,13197 2956,13234 3076,13272 3317,13342 3435,13375 3556,13409 3796,13472 3854,13486 3913,13501 4032,13532 4269,13589 4326,13600 4355,13606 4385,13614 4504,13641 4741,13692 4855,13713 4972,13736 5205,13780 5320,13797 5436,13816 5669,13853 5696,13855 5725,13858 5782,13866 5897,13881 6126,13910 6239,13922 6354,13935 6583,13956 6707,13964 6833,13973 7086,13988 7210,13992 7336,13996 7588,14002 7711,14000 7835,14000 8083,13996 8206,13990 8267,13987 8297,13985 8330,13985 8452,13977 8513,13973 8544,13971 8576,13971 8802,13950 8915,13939 9029,13929 9255,13902 9367,13887 9482,13874 9704,13837 9815,13818 9841,13813 9870,13809 9927,13801 10149,13759 10371,13715 10589,13664 10807,13610 10914,13579 10967,13564 10994,13557 11023,13551 11240,13492 11454,13425 11668,13354 11774,13316 11881,13279 12095,13203 12142,13184 12169,13172 12188,13109 12209,13052 12282,12804 12316,12677 12351,12553 12374,12454 12385,12404 12387,12391 12391,12379 12399,12356 12420,12257 12443,12159 12483,11961 12519,11762 12534,11659 12542,11607 12551,11557 12582,11355 12607,11148 12632,10942 12544,10971 12460,11001 "/>
     <polyline id="_12345678910111213141516" class="fil7 str0" points="12005,9664 11972,10050 11936,10436 11915,10627 11896,10820 11873,11011 11862,11106 11858,11129 11856,11141 11856,11154 11852,11204 "/>
     <polyline id="_1234567891011121314151617" class="fil7 str0" points="12460,11001 12154,11105 11852,11204 "/>
     <polyline id="_123456789101112131415161718" class="fil7 str0" points="11852,11204 11428,11330 10868,10912 10377,11578 10040,11640 9872,11668 9708,11695 9371,11741 9203,11762 9119,11772 9037,11783 8700,11814 8364,11837 8028,11852 7691,11863 7351,11863 7181,11859 7013,11856 6673,11840 6503,11829 6334,11817 5994,11787 5654,11749 5482,11726 5312,11703 4972,11649 4848,11630 4760,11613 4517,11565 4022,10912 3462,11326 3066,11204 "/>
     <polyline id="_12345678910111213141516171819" class="fil7 str0" points="12460,11001 12485,10783 12496,10675 12509,10567 12530,10350 12534,10294 12540,10241 12551,10134 12569,9912 12588,9692 12603,9470 12618,9249 "/>
     <polyline id="_1234567891011121314151617181920" class="fil7 str0" points="12005,9664 12085,9623 12104,9612 12108,9608 12114,9606 12125,9602 12167,9581 12206,9556 12246,9534 12284,9509 12324,9486 12341,9470 12360,9457 12399,9430 12416,9415 12435,9402 12473,9375 12546,9312 12618,9249 "/>
     <polyline id="_123456789101112131415161718192021" class="fil7 str0" points="7905,3926 8490,3947 8783,3965 9077,3986 9371,4010 9666,4039 9960,4072 10256,4108 10550,4148 10845,4192 11139,4240 11437,4291 11732,4347 12030,4406 12326,4469 12624,4536 12639,4769 12655,5002 12666,5234 12672,5348 12679,5465 12687,5692 12697,5922 12702,6147 12702,6202 12704,6260 12708,6374 "/>
     <polyline id="_12345678910111213141516171819202122" class="fil7 str0" points="7905,3926 7797,1816 7835,1793 7854,1780 7875,1769 7892,1753 7911,1740 7949,1709 7967,1686 7986,1665 8003,1642 8011,1631 8014,1625 8020,1621 8022,1614 8026,1608 8034,1597 8047,1574 8058,1549 8072,1526 8079,1499 8083,1486 8089,1474 8102,1421 8106,1392 8110,1365 8110,1350 8110,1342 8110,1339 8112,1337 8114,1310 8110,1251 8102,1195 8089,1142 8072,1092 8047,1042 8020,996 7986,951 7949,910 7905,870 7883,851 7862,836 7814,807 7789,794 7766,784 7739,773 7714,765 7661,754 7632,748 7605,746 7550,744 7491,746 7435,754 7382,765 7332,784 7282,807 7237,836 7191,870 7151,910 7110,951 7076,996 7047,1042 7026,1092 7007,1142 6996,1195 6988,1251 6988,1310 6986,1337 6988,1365 6990,1392 6996,1421 7007,1474 7015,1499 7026,1526 7047,1574 7076,1621 7091,1642 7110,1665 7151,1709 7193,1748 7240,1784 7290,1813 7345,1837 7240,3921 "/>
     <polyline id="_1234567891011121314151617181920212223" class="fil7 str0" points="7240,3921 7571,3919 7905,3926 "/>
     <polyline id="_123456789101112131415161718192021222324" class="fil7 str0" points="12125,5920 12070,5891 12016,5866 11905,5822 11791,5784 11732,5767 11674,5753 11554,5728 11432,5713 11368,5706 11307,5702 11181,5700 11040,5704 10904,5715 10772,5734 10644,5765 10516,5801 10396,5847 10277,5900 10164,5964 10048,6034 9935,6115 9826,6204 9721,6304 9643,6382 9574,6464 9465,6604 9417,6676 9373,6751 9329,6825 9293,6904 9259,6982 9230,7064 9201,7145 9178,7229 9157,7313 9144,7401 9131,7487 9121,7577 9115,7762 9117,7867 9123,7970 9127,8020 9134,8072 9152,8173 9173,8270 9184,8318 9199,8368 9213,8414 9230,8461 9266,8555 9283,8599 9304,8645 9348,8733 9371,8775 9398,8819 9453,8905 9513,8987 9543,9027 9578,9069 9610,9107 9647,9148 9721,9226 9759,9262 9826,9325 9897,9384 9969,9440 10044,9495 10119,9543 10197,9587 10277,9627 10359,9667 10453,9704 10550,9736 10648,9763 10751,9788 10854,9805 10961,9818 11068,9826 11181,9830 11235,9828 11261,9826 11290,9826 11344,9822 11399,9818 11451,9811 11504,9805 11516,9801 11521,9799 11529,9799 11556,9795 11609,9788 11659,9774 11711,9763 11810,9734 11833,9725 11858,9717 11907,9700 11955,9681 12005,9664 "/>
     <polyline id="_12345678910111213141516171819202122232425" class="fil7 str0" points="2109,6468 2105,6363 2101,6264 2097,6170 2097,6080 2094,5994 2094,5914 2094,5837 2096,5767 2096,5681 2096,5599 2096,5470 2096,5352 2096,5241 2099,5138 2099,5042 2099,4956 2099,4878 2103,4809 2103,4744 2103,4691 2103,4645 2103,4624 2105,4607 2105,4576 2105,4553 2105,4538 2109,4534 2426,4459 2745,4391 3063,4328 3384,4268 3703,4213 4024,4163 4345,4117 4666,4077 4985,4041 5306,4008 5627,3982 5950,3961 6271,3943 6594,3930 6915,3922 7240,3921 "/>
     <polyline id="_1234567891011121314151617181920212223242526" class="fil7 str0" points="2894,9664 2988,9700 3086,9734 3183,9761 3286,9786 3387,9803 3495,9816 3602,9824 3714,9830 3766,9826 3819,9824 3923,9818 3972,9811 3997,9807 4024,9805 4074,9797 4125,9790 4173,9778 4223,9767 4246,9759 4257,9755 4270,9753 4320,9742 4366,9725 4414,9709 4460,9692 4483,9683 4507,9675 4595,9633 4683,9589 4725,9562 4735,9555 4746,9549 4769,9537 4811,9511 4821,9503 4832,9497 4855,9486 4895,9455 4937,9425 5018,9362 5056,9327 5096,9293 5134,9256 5174,9222 5209,9182 5245,9144 5280,9104 5314,9065 5377,8985 5408,8943 5438,8903 5450,8880 5455,8868 5463,8859 5490,8817 5501,8794 5507,8782 5515,8773 5541,8731 5585,8643 5627,8555 5643,8507 5660,8461 5675,8414 5692,8368 5704,8318 5706,8305 5710,8293 5717,8270 5729,8221 5740,8173 5748,8121 5755,8072 5757,8045 5761,8020 5769,7970 5775,7867 5776,7814 5780,7762 5775,7655 5769,7552 5755,7449 5740,7349 5717,7250 5692,7154 5660,7061 5627,6971 5585,6879 5541,6791 5490,6705 5438,6623 5377,6539 5314,6459 5245,6380 5174,6306 5096,6231 5056,6195 5018,6162 4937,6097 4855,6038 4769,5983 4725,5956 4683,5933 4595,5889 4507,5851 4414,5814 4366,5797 4320,5784 4270,5769 4223,5757 4125,5736 4024,5719 3972,5711 3923,5707 3819,5702 3714,5700 3575,5704 3439,5715 3307,5734 3179,5765 3051,5801 2931,5847 2812,5900 2699,5964 "/>
     <polyline id="_123456789101112131415161718192021222324252627" class="fil7 str0" points="2699,5964 2583,6034 2470,6115 2361,6204 2258,6306 2180,6384 2109,6468 "/>
     <polyline id="_12345678910111213141516171819202122232425262728" class="fil7 str0" points="2109,6468 2000,6608 1952,6680 1908,6755 1864,6829 1828,6906 1794,6984 1765,7066 1736,7147 1713,7231 1692,7315 1679,7403 1666,7489 1658,7578 1652,7668 1652,7762 1654,7867 1660,7970 1664,8020 1671,8072 1688,8173 1710,8270 1721,8318 1736,8368 1750,8414 1767,8461 1803,8555 1841,8643 1885,8731 1908,8773 1935,8817 1990,8903 2050,8985 2115,9065 2147,9104 2183,9144 2258,9222 2294,9260 "/>
     <polyline id="_1234567891011121314151617181920212223242526272829" class="fil7 str0" points="3066,11204 2986,10558 2919,9914 2894,9664 "/>
     <polyline id="_123456789101112131415161718192021222324252627282930" class="fil7 str0" points="3066,11204 2753,11112 2443,11013 "/>
     <polyline id="_12345678910111213141516171819202122232425262728293031" class="fil7 str0" points="2294,9260 2319,9579 2350,9914 2371,10176 2394,10447 2417,10726 2443,11013 "/>
     <polyline id="_1234567891011121314151617181920212223242526272829303132" class="fil7 str0" points="2294,9260 2361,9323 2432,9383 2505,9438 2579,9492 2654,9539 2732,9583 2812,9623 2894,9664 "/>
    </g>
   </g>
   <polygon class="fil7" points="1351,14303 13549,14303 13549,445 1351,445 "/>
   <g>
    <polygon class="fil7" points="1415,509 13484,509 13484,14239 1415,14239 "/>
   </g>
  </g>
 </g>
</svg>
