<?xml version="1.0" encoding="UTF-8"?>
<!DOCTYPE svg PUBLIC "-//W3C//DTD SVG 1.1//EN" "http://www.w3.org/Graphics/SVG/1.1/DTD/svg11.dtd">
<!-- Creator: CorelDRAW X6 -->
<svg xmlns="http://www.w3.org/2000/svg" xml:space="preserve" width="100px" height="100px" version="1.1" style="shape-rendering:geometricPrecision; text-rendering:geometricPrecision; image-rendering:optimizeQuality; fill-rule:evenodd; clip-rule:evenodd"
viewBox="0 0 10000 10000"
 xmlns:xlink="http://www.w3.org/1999/xlink">
 <defs>
  <style type="text/css">
   <![CDATA[
    .str0 {stroke:black;stroke-width:84.6667}
    .fil2 {fill:none}
    .fil44 {fill:#253952}
    .fil0 {fill:#72A036}
    .fil3 {fill:#73A036}
    .fil4 {fill:#73A136}
    .fil5 {fill:#74A136}
    .fil6 {fill:#74A236}
    .fil7 {fill:#75A236}
    .fil8 {fill:#75A336}
    .fil9 {fill:#76A436}
    .fil10 {fill:#76A537}
    .fil11 {fill:#77A537}
    .fil12 {fill:#77A637}
    .fil13 {fill:#78A737}
    .fil14 {fill:#79A837}
    .fil15 {fill:#79A937}
    .fil16 {fill:#7AAA38}
    .fil17 {fill:#7BAB38}
    .fil18 {fill:#7CAC38}
    .fil19 {fill:#7CAD38}
    .fil20 {fill:#7DAE38}
    .fil21 {fill:#7EAF39}
    .fil22 {fill:#7FB039}
    .fil23 {fill:#7FB139}
    .fil24 {fill:#80B239}
    .fil25 {fill:#81B339}
    .fil26 {fill:#81B43A}
    .fil27 {fill:#82B43A}
    .fil28 {fill:#82B53A}
    .fil29 {fill:#83B63A}
    .fil30 {fill:#84B73A}
    .fil31 {fill:#84B83A}
    .fil32 {fill:#85B83A}
    .fil33 {fill:#85B93B}
    .fil34 {fill:#86BA3B}
    .fil35 {fill:#86BB3B}
    .fil36 {fill:#87BB3B}
    .fil37 {fill:#87BC3B}
    .fil38 {fill:#88BC3B}
    .fil39 {fill:#88BD3B}
    .fil40 {fill:#89BE3C}
    .fil41 {fill:#98B1D1}
    .fil42 {fill:#D8E1ED}
    .fil43 {fill:#FFF5B3}
    .fil45 {fill:white}
    .fil1 {fill:black;fill-opacity:0.000000}
   ]]>
  </style>
       <clipPath id="id0">
        <path d="M1578 9394l6833 0c526,0 957,-431 957,-957l0 -6833c0,-526 -431,-957 -957,-957l-6833 0c-526,0 -957,431 -957,957l0 6833c0,526 431,957 957,957z"/>
       </clipPath>
       <clipPath id="id1">
        <path d="M1578 9394l6833 0c526,0 957,-431 957,-957l0 -6833c0,-526 -431,-957 -957,-957l-6833 0c-526,0 -957,431 -957,957l0 6833c0,526 431,957 957,957z"/>
       </clipPath>
       <clipPath id="id2">
        <path d="M1578 9394l6833 0c526,0 957,-431 957,-957l0 -6833c0,-526 -431,-957 -957,-957l-6833 0c-526,0 -957,431 -957,957l0 6833c0,526 431,957 957,957z"/>
       </clipPath>
       <clipPath id="id3">
        <path d="M1578 9394l6833 0c526,0 957,-431 957,-957l0 -6833c0,-526 -431,-957 -957,-957l-6833 0c-526,0 -957,431 -957,957l0 6833c0,526 431,957 957,957z"/>
       </clipPath>
    <clipPath id="id4">
     <path d="M1189 9208l7556 0 0 -8584 -7556 0 0 8584 0 0z"/>
    </clipPath>
 </defs>
 <g id="Layer_x0020_1">
  <metadata id="CorelCorpID_0Corel-Layer"/>
  <g id="_344987936">
   <g id="_343965240">
    <g id="_344506672">
     <path class="fil0" d="M1439 52l7112 0c780,0 1412,632 1412,1412l0 7112c0,780 -632,1412 -1412,1412l-7112 0c-780,0 -1412,-632 -1412,-1412l0 -7112c0,-780 632,-1412 1412,-1412l0 0z"/>
     <g>
      <g style="clip-path:url(#id0)">
       <polygon class="fil1" points="621,647 9369,647 9369,9394 621,9394 "/>
      </g>
      <g style="clip-path:url(#id1)">
       <g>
        <polygon id="1" class="fil1" points="621,647 9369,647 9369,9394 621,9394 "/>
       </g>
      </g>
      <path class="fil2" d="M1578 9394l6833 0c526,0 957,-431 957,-957l0 -6833c0,-526 -431,-957 -957,-957l-6833 0c-526,0 -957,431 -957,957l0 6833c0,526 431,957 957,957z"/>
      <g style="clip-path:url(#id2)">
       <polygon class="fil1" points="621,647 9369,647 9369,9394 621,9394 "/>
      </g>
      <g style="clip-path:url(#id3)">
       <g>
        <polygon id="1" class="fil3" points="621,646 9369,646 9369,9394 621,9394 621,646 651,675 9340,675 9340,9365 651,9365 651,675 "/>
        <polygon id="_1_0" class="fil3" points="636,661 9354,661 9354,9380 636,9380 636,661 665,690 9326,690 9326,9350 665,9350 665,690 "/>
        <polygon id="_2" class="fil4" points="651,675 9340,675 9340,9365 651,9365 651,675 679,705 9311,705 9311,9336 679,9336 679,705 "/>
        <polygon id="_3" class="fil5" points="665,690 9326,690 9326,9350 665,9350 665,690 694,719 9296,719 9296,9321 694,9321 694,719 "/>
        <polygon id="_4" class="fil6" points="679,705 9311,705 9311,9336 679,9336 679,705 709,733 9282,733 9282,9306 709,9306 709,733 "/>
        <polygon id="_5" class="fil7" points="694,719 9296,719 9296,9321 694,9321 694,719 723,748 9267,748 9267,9292 723,9292 723,748 "/>
        <polygon id="_6" class="fil8" points="709,733 9282,733 9282,9306 709,9306 709,733 738,763 9252,763 9252,9278 738,9278 738,763 "/>
        <polygon id="_7" class="fil9" points="723,748 9267,748 9267,9292 723,9292 723,748 753,778 9238,778 9238,9263 753,9263 753,778 "/>
        <polygon id="_8" class="fil9" points="738,763 9252,763 9252,9278 738,9278 738,763 767,792 9223,792 9223,9248 767,9248 767,792 "/>
        <polygon id="_9" class="fil10" points="753,778 9238,778 9238,9263 753,9263 753,778 781,807 9209,807 9209,9234 781,9234 781,807 "/>
        <polygon id="_10" class="fil11" points="767,792 9224,792 9224,9248 767,9248 767,792 796,822 9194,822 9194,9219 796,9219 796,822 "/>
        <polygon id="_11" class="fil12" points="781,807 9209,807 9209,9234 781,9234 781,807 811,836 9180,836 9180,9204 811,9204 811,836 "/>
        <polygon id="_12" class="fil13" points="796,822 9194,822 9194,9219 796,9219 796,822 826,850 9165,850 9165,9190 826,9190 826,850 "/>
        <polygon id="_13" class="fil13" points="811,836 9180,836 9180,9204 811,9204 811,836 840,865 9150,865 9150,9176 840,9176 840,865 "/>
        <polygon id="_14" class="fil14" points="826,850 9165,850 9165,9190 826,9190 826,850 855,880 9136,880 9136,9161 855,9161 855,880 "/>
        <polygon id="_15" class="fil14" points="840,865 9150,865 9150,9176 840,9176 840,865 869,894 9121,894 9121,9146 869,9146 869,894 "/>
        <polygon id="_16" class="fil15" points="855,880 9136,880 9136,9161 855,9161 855,880 884,909 9107,909 9107,9132 884,9132 884,909 "/>
        <polygon id="_17" class="fil16" points="869,894 9121,894 9121,9146 869,9146 869,894 898,924 9092,924 9092,9117 898,9117 898,924 "/>
        <polygon id="_18" class="fil16" points="884,909 9107,909 9107,9132 884,9132 884,909 913,938 9077,938 9077,9102 913,9102 913,938 "/>
        <polygon id="_19" class="fil17" points="898,924 9092,924 9092,9117 898,9117 898,924 928,952 9063,952 9063,9087 928,9087 928,952 "/>
        <polygon id="_20" class="fil17" points="913,938 9077,938 9077,9102 913,9102 913,938 942,967 9048,967 9048,9073 942,9073 942,967 "/>
        <polygon id="_21" class="fil18" points="928,952 9063,952 9063,9087 928,9087 928,952 957,982 9033,982 9033,9059 957,9059 957,982 "/>
        <polygon id="_22" class="fil18" points="942,967 9048,967 9048,9073 942,9073 942,967 971,996 9019,996 9019,9044 971,9044 971,996 "/>
        <polygon id="_23" class="fil19" points="957,982 9033,982 9033,9059 957,9059 957,982 986,1011 9005,1011 9005,9029 986,9029 986,1011 "/>
        <polygon id="_24" class="fil20" points="971,996 9019,996 9019,9044 971,9044 971,996 1000,1026 8990,1026 8990,9015 1000,9015 1000,1026 "/>
        <polygon id="_25" class="fil20" points="986,1011 9005,1011 9005,9029 986,9029 986,1011 1015,1040 8975,1040 8975,9000 1015,9000 1015,1040 "/>
        <polygon id="_26" class="fil21" points="1000,1026 8990,1026 8990,9015 1000,9015 1000,1026 1030,1054 8961,1054 8961,8985 1030,8985 1030,1054 "/>
        <polygon id="_27" class="fil21" points="1015,1040 8975,1040 8975,9000 1015,9000 1015,1040 1044,1069 8946,1069 8946,8971 1044,8971 1044,1069 "/>
        <polygon id="_28" class="fil22" points="1030,1054 8961,1054 8961,8985 1030,8985 1030,1054 1059,1084 8931,1084 8931,8957 1059,8957 1059,1084 "/>
        <polygon id="_29" class="fil23" points="1044,1069 8946,1069 8946,8971 1044,8971 1044,1069 1073,1098 8917,1098 8917,8942 1073,8942 1073,1098 "/>
        <polygon id="_30" class="fil23" points="1059,1084 8931,1084 8931,8957 1059,8957 1059,1084 1088,1113 8903,1113 8903,8927 1088,8927 1088,1113 "/>
        <polygon id="_31" class="fil24" points="1073,1098 8917,1098 8917,8942 1073,8942 1073,1098 1102,1128 8888,1128 8888,8913 1102,8913 1102,1128 "/>
        <polygon id="_32" class="fil24" points="1088,1113 8903,1113 8903,8927 1088,8927 1088,1113 1117,1142 8873,1142 8873,8898 1117,8898 1117,1142 "/>
        <polygon id="_33" class="fil25" points="1102,1128 8888,1128 8888,8913 1102,8913 1102,1128 1132,1156 8859,1156 8859,8883 1132,8883 1132,1156 "/>
        <polygon id="_34" class="fil26" points="1117,1142 8873,1142 8873,8898 1117,8898 1117,1142 1146,1171 8844,1171 8844,8869 1146,8869 1146,1171 "/>
        <polygon id="_35" class="fil27" points="1132,1156 8859,1156 8859,8883 1132,8883 1132,1156 1161,1186 8829,1186 8829,8855 1161,8855 1161,1186 "/>
        <polygon id="_36" class="fil28" points="1146,1171 8844,1171 8844,8869 1146,8869 1146,1171 1176,1200 8815,1200 8815,8840 1176,8840 1176,1200 "/>
        <polygon id="_37" class="fil28" points="1161,1186 8829,1186 8829,8855 1161,8855 1161,1186 1190,1215 8801,1215 8801,8825 1190,8825 1190,1215 "/>
        <polygon id="_38" class="fil29" points="1176,1200 8815,1200 8815,8840 1176,8840 1176,1200 1204,1230 8786,1230 8786,8811 1204,8811 1204,1230 "/>
        <polygon id="_39" class="fil29" points="1190,1215 8801,1215 8801,8825 1190,8825 1190,1215 1219,1244 8771,1244 8771,8796 1219,8796 1219,1244 "/>
        <polygon id="_40" class="fil30" points="1204,1230 8786,1230 8786,8811 1204,8811 1204,1230 1234,1258 8757,1258 8757,8781 1234,8781 1234,1258 "/>
        <polygon id="_41" class="fil31" points="1219,1244 8771,1244 8771,8796 1219,8796 1219,1244 1248,1273 8742,1273 8742,8767 1248,8767 1248,1273 "/>
        <polygon id="_42" class="fil32" points="1234,1258 8757,1258 8757,8781 1234,8781 1234,1258 1263,1288 8727,1288 8727,8753 1263,8753 1263,1288 "/>
        <polygon id="_43" class="fil33" points="1248,1273 8742,1273 8742,8767 1248,8767 1248,1273 1278,1302 8713,1302 8713,8738 1278,8738 1278,1302 "/>
        <polygon id="_44" class="fil33" points="1263,1288 8727,1288 8727,8753 1263,8753 1263,1288 1292,1317 8699,1317 8699,8723 1292,8723 1292,1317 "/>
        <polygon id="_45" class="fil34" points="1278,1302 8713,1302 8713,8738 1278,8738 1278,1302 1306,1332 8684,1332 8684,8709 1306,8709 1306,1332 "/>
        <polygon id="_46" class="fil35" points="1292,1317 8699,1317 8699,8723 1292,8723 1292,1317 1321,1346 8669,1346 8669,8694 1321,8694 1321,1346 "/>
        <polygon id="_47" class="fil36" points="1306,1332 8684,1332 8684,8709 1306,8709 1306,1332 1336,1360 8655,1360 8655,8679 1336,8679 1336,1360 "/>
        <polygon id="_48" class="fil37" points="1321,1346 8669,1346 8669,8694 1321,8694 1321,1346 1350,1375 8640,1375 8640,8665 1350,8665 1350,1375 "/>
        <polygon id="_49" class="fil38" points="1336,1360 8655,1360 8655,8679 1336,8679 1336,1360 1365,1390 8625,1390 8625,8651 1365,8651 1365,1390 "/>
        <polygon id="_50" class="fil39" points="1350,1375 8640,1375 8640,8665 1350,8665 1350,1375 1380,1404 8611,1404 8611,8636 1380,8636 1380,1404 "/>
        <polygon id="_51" class="fil40" points="1365,1390 8625,1390 8625,8651 1365,8651 1365,1390 1394,1419 8596,1419 8596,8621 1394,8621 1394,1419 "/>
        <polygon id="_52" class="fil40" points="1380,1404 8611,1404 8611,8636 1380,8636 1380,1404 1408,1434 8582,1434 8582,8607 1408,8607 1408,1434 "/>
        <polygon id="_53" class="fil40" points="1394,1419 8596,1419 8596,8621 1394,8621 1394,1419 1423,1448 8567,1448 8567,8592 1423,8592 1423,1448 "/>
        <polygon id="_54" class="fil40" points="1408,1434 8582,1434 8582,8607 1408,8607 1408,1434 1438,1462 8553,1462 8553,8577 1438,8577 1438,1462 "/>
        <polygon id="_55" class="fil40" points="1423,1448 8567,1448 8567,8592 1423,8592 1423,1448 1452,1477 8538,1477 8538,8563 1452,8563 1452,1477 "/>
        <polygon id="_56" class="fil40" points="1438,1462 8553,1462 8553,8577 1438,8577 1438,1462 1467,1492 8523,1492 8523,8549 1467,8549 1467,1492 "/>
        <polygon id="_57" class="fil40" points="1452,1477 8538,1477 8538,8563 1452,8563 1452,1477 1482,1506 8509,1506 8509,8534 1482,8534 1482,1506 "/>
        <polygon id="_58" class="fil40" points="1467,1492 8523,1492 8523,8549 1467,8549 1467,1492 1496,1521 8494,1521 8494,8519 1496,8519 1496,1521 "/>
        <polygon id="_59" class="fil40" points="1482,1506 8509,1506 8509,8534 1482,8534 1482,1506 1510,1536 8480,1536 8480,8505 1510,8505 1510,1536 "/>
        <polygon id="_60" class="fil40" points="1496,1521 8494,1521 8494,8519 1496,8519 1496,1521 1525,1550 8465,1550 8465,8490 1525,8490 1525,1550 "/>
        <polygon id="_61" class="fil40" points="1510,1536 8480,1536 8480,8505 1510,8505 1510,1536 1540,1564 8451,1564 8451,8475 1540,8475 1540,1564 "/>
        <polygon id="_62" class="fil40" points="1525,1550 8465,1550 8465,8490 1525,8490 1525,1550 1554,1579 8436,1579 8436,8461 1554,8461 1554,1579 "/>
        <polygon id="_63" class="fil40" points="1540,1564 8451,1564 8451,8475 1540,8475 1540,1564 1569,1594 8421,1594 8421,8447 1569,8447 1569,1594 "/>
        <polygon id="_64" class="fil40" points="1554,1579 8436,1579 8436,8461 1554,8461 1554,1579 1584,1609 8407,1609 8407,8432 1584,8432 1584,1609 "/>
        <polygon id="_65" class="fil40" points="1569,1594 8421,1594 8421,8447 1569,8447 1569,1594 1598,1623 8392,1623 8392,8417 1598,8417 1598,1623 "/>
        <polygon id="_66" class="fil40" points="1584,1609 8407,1609 8407,8432 1584,8432 1584,1609 1612,1638 8378,1638 8378,8403 1612,8403 1612,1638 "/>
        <polygon id="_67" class="fil40" points="1598,1623 8392,1623 8392,8417 1598,8417 1598,1623 1627,1653 8363,1653 8363,8388 1627,8388 1627,1653 "/>
        <polygon id="_68" class="fil40" points="1612,1638 8378,1638 8378,8403 1612,8403 1612,1638 1642,1667 8349,1667 8349,8373 1642,8373 1642,1667 "/>
        <polygon id="_69" class="fil40" points="1627,1653 8363,1653 8363,8388 1627,8388 1627,1653 1657,1681 8334,1681 8334,8359 1657,8359 1657,1681 "/>
        <polygon id="_70" class="fil40" points="1642,1667 8349,1667 8349,8373 1642,8373 1642,1667 1671,1696 8319,1696 8319,8345 1671,8345 1671,1696 "/>
        <polygon id="_71" class="fil40" points="1657,1681 8334,1681 8334,8359 1657,8359 1657,1681 1686,1711 8305,1711 8305,8330 1686,8330 1686,1711 "/>
        <polygon id="_72" class="fil40" points="1671,1696 8319,1696 8319,8345 1671,8345 1671,1696 1701,1725 8290,1725 8290,8315 1701,8315 1701,1725 "/>
        <polygon id="_73" class="fil40" points="1686,1711 8305,1711 8305,8330 1686,8330 1686,1711 1715,1740 8276,1740 8276,8301 1715,8301 1715,1740 "/>
        <polygon id="_74" class="fil40" points="1700,1725 8290,1725 8290,8315 1700,8315 1700,1725 1729,1755 8261,1755 8261,8286 1729,8286 1729,1755 "/>
        <polygon id="_75" class="fil40" points="1715,1740 8276,1740 8276,8301 1715,8301 1715,1740 1744,1769 8246,1769 8246,8271 1744,8271 1744,1769 "/>
        <polygon id="_76" class="fil40" points="1729,1755 8261,1755 8261,8286 1729,8286 1729,1755 1759,1783 8232,1783 8232,8256 1759,8256 1759,1783 "/>
        <polygon id="_77" class="fil40" points="1744,1769 8246,1769 8246,8271 1744,8271 1744,1769 1773,1798 8217,1798 8217,8243 1773,8243 1773,1798 "/>
        <polygon id="_78" class="fil40" points="1759,1783 8232,1783 8232,8256 1759,8256 1759,1783 1788,1813 8202,1813 8202,8228 1788,8228 1788,1813 "/>
        <polygon id="_79" class="fil40" points="1773,1798 8217,1798 8217,8243 1773,8243 1773,1798 1803,1827 8188,1827 8188,8213 1803,8213 1803,1827 "/>
        <polygon id="_80" class="fil40" points="1788,1813 8202,1813 8202,8228 1788,8228 1788,1813 1817,1842 8174,1842 8174,8198 1817,8198 1817,1842 "/>
        <polygon id="_81" class="fil40" points="1803,1827 8188,1827 8188,8213 1803,8213 1803,1827 1831,1857 8159,1857 8159,8184 1831,8184 1831,1857 "/>
        <polygon id="_82" class="fil40" points="1817,1842 8174,1842 8174,8198 1817,8198 1817,1842 1846,1871 8144,1871 8144,8169 1846,8169 1846,1871 "/>
        <polygon id="_83" class="fil40" points="1831,1857 8159,1857 8159,8184 1831,8184 1831,1857 1861,1885 8130,1885 8130,8154 1861,8154 1861,1885 "/>
        <polygon id="_84" class="fil40" points="1846,1871 8144,1871 8144,8169 1846,8169 1846,1871 1875,1900 8115,1900 8115,8140 1875,8140 1875,1900 "/>
        <polygon id="_85" class="fil40" points="1861,1885 8130,1885 8130,8154 1861,8154 1861,1885 1890,1915 8100,1915 8100,8126 1890,8126 1890,1915 "/>
        <polygon id="_86" class="fil40" points="1875,1900 8115,1900 8115,8140 1875,8140 1875,1900 1905,1929 8086,1929 8086,8111 1905,8111 1905,1929 "/>
        <polygon id="_87" class="fil40" points="1890,1915 8100,1915 8100,8126 1890,8126 1890,1915 1919,1944 8072,1944 8072,8096 1919,8096 1919,1944 "/>
        <polygon id="_88" class="fil40" points="1905,1929 8086,1929 8086,8111 1905,8111 1905,1929 1933,1959 8057,1959 8057,8082 1933,8082 1933,1959 "/>
        <polygon id="_89" class="fil40" points="1919,1944 8072,1944 8072,8096 1919,8096 1919,1944 1948,1973 8042,1973 8042,8067 1948,8067 1948,1973 "/>
        <polygon id="_90" class="fil40" points="1933,1959 8057,1959 8057,8082 1933,8082 1933,1959 1963,1987 8028,1987 8028,8052 1963,8052 1963,1987 "/>
        <polygon id="_91" class="fil40" points="1948,1973 8042,1973 8042,8067 1948,8067 1948,1973 1977,2002 8013,2002 8013,8038 1977,8038 1977,2002 "/>
        <polygon id="_92" class="fil40" points="1963,1987 8028,1987 8028,8052 1963,8052 1963,1987 1992,2017 7998,2017 7998,8024 1992,8024 1992,2017 "/>
        <polygon id="_93" class="fil40" points="1977,2002 8013,2002 8013,8038 1977,8038 1977,2002 2007,2031 7984,2031 7984,8009 2007,8009 2007,2031 "/>
        <polygon id="_94" class="fil40" points="1992,2017 7998,2017 7998,8024 1992,8024 1992,2017 2021,2046 7969,2046 7969,7994 2021,7994 2021,2046 "/>
        <polygon id="_95" class="fil40" points="2007,2031 7984,2031 7984,8009 2007,8009 2007,2031 2035,2061 7955,2061 7955,7980 2035,7980 2035,2061 "/>
        <polygon id="_96" class="fil40" points="2021,2046 7969,2046 7969,7994 2021,7994 2021,2046 2050,2075 7940,2075 7940,7965 2050,7965 2050,2075 "/>
        <polygon id="_97" class="fil40" points="2035,2061 7955,2061 7955,7980 2035,7980 2035,2061 2065,2089 7926,2089 7926,7950 2065,7950 2065,2089 "/>
        <polygon id="_98" class="fil40" points="2050,2075 7940,2075 7940,7965 2050,7965 2050,2075 2079,2104 7911,2104 7911,7936 2079,7936 2079,2104 "/>
        <polygon id="_99" class="fil40" points="2065,2089 7926,2089 7926,7950 2065,7950 2065,2089 2094,2119 7896,2119 7896,7922 2094,7922 2094,2119 "/>
        <polygon id="_100" class="fil40" points="2079,2104 7911,2104 7911,7936 2079,7936 2079,2104 2109,2133 7882,2133 7882,7907 2109,7907 2109,2133 "/>
        <polygon id="_101" class="fil40" points="2094,2119 7896,2119 7896,7922 2094,7922 2094,2119 2123,2148 7867,2148 7867,7892 2123,7892 2123,2148 "/>
        <polygon id="_102" class="fil40" points="2109,2133 7882,2133 7882,7907 2109,7907 2109,2133 2137,2163 7853,2163 7853,7878 2137,7878 2137,2163 "/>
        <polygon id="_103" class="fil40" points="2123,2148 7867,2148 7867,7892 2123,7892 2123,2148 2152,2177 7838,2177 7838,7863 2152,7863 2152,2177 "/>
        <polygon id="_104" class="fil40" points="2137,2163 7853,2163 7853,7878 2137,7878 2137,2163 2167,2191 7824,2191 7824,7848 2167,7848 2167,2191 "/>
        <polygon id="_105" class="fil40" points="2152,2177 7838,2177 7838,7863 2152,7863 2152,2177 2181,2206 7809,2206 7809,7834 2181,7834 2181,2206 "/>
        <polygon id="_106" class="fil40" points="2167,2191 7824,2191 7824,7848 2167,7848 2167,2191 2196,2221 7794,2221 7794,7820 2196,7820 2196,2221 "/>
        <polygon id="_107" class="fil40" points="2181,2206 7809,2206 7809,7834 2181,7834 2181,2206 2211,2235 7780,2235 7780,7805 2211,7805 2211,2235 "/>
        <polygon id="_108" class="fil40" points="2196,2221 7794,2221 7794,7820 2196,7820 2196,2221 2225,2250 7765,2250 7765,7790 2225,7790 2225,2250 "/>
        <polygon id="_109" class="fil40" points="2211,2235 7780,2235 7780,7805 2211,7805 2211,2235 2239,2265 7751,2265 7751,7776 2239,7776 2239,2265 "/>
        <polygon id="_110" class="fil40" points="2225,2250 7765,2250 7765,7790 2225,7790 2225,2250 2254,2279 7736,2279 7736,7761 2254,7761 2254,2279 "/>
        <polygon id="_111" class="fil40" points="2239,2265 7751,2265 7751,7776 2239,7776 2239,2265 2269,2293 7722,2293 7722,7746 2269,7746 2269,2293 "/>
        <polygon id="_112" class="fil40" points="2254,2279 7736,2279 7736,7761 2254,7761 2254,2279 2283,2308 7707,2308 7707,7732 2283,7732 2283,2308 "/>
        <polygon id="_113" class="fil40" points="2269,2293 7722,2293 7722,7746 2269,7746 2269,2293 2298,2323 7692,2323 7692,7718 2298,7718 2298,2323 "/>
        <polygon id="_114" class="fil40" points="2283,2308 7707,2308 7707,7732 2283,7732 2283,2308 2313,2337 7678,2337 7678,7703 2313,7703 2313,2337 "/>
        <polygon id="_115" class="fil40" points="2298,2323 7692,2323 7692,7718 2298,7718 2298,2323 2327,2352 7663,2352 7663,7688 2327,7688 2327,2352 "/>
        <polygon id="_116" class="fil40" points="2313,2337 7678,2337 7678,7703 2313,7703 2313,2337 2341,2367 7649,2367 7649,7674 2341,7674 2341,2367 "/>
        <polygon id="_117" class="fil40" points="2327,2352 7663,2352 7663,7688 2327,7688 2327,2352 2356,2381 7634,2381 7634,7659 2356,7659 2356,2381 "/>
        <polygon id="_118" class="fil40" points="2341,2367 7649,2367 7649,7674 2341,7674 2341,2367 2371,2395 7620,2395 7620,7644 2371,7644 2371,2395 "/>
        <polygon id="_119" class="fil40" points="2356,2381 7634,2381 7634,7659 2356,7659 2356,2381 2385,2410 7605,2410 7605,7630 2385,7630 2385,2410 "/>
        <polygon id="_120" class="fil40" points="2371,2395 7620,2395 7620,7644 2371,7644 2371,2395 2400,2425 7590,2425 7590,7616 2400,7616 2400,2425 "/>
        <polygon id="_121" class="fil40" points="2385,2410 7605,2410 7605,7630 2385,7630 2385,2410 2415,2440 7576,2440 7576,7601 2415,7601 2415,2440 "/>
        <polygon id="_122" class="fil40" points="2400,2425 7590,2425 7590,7616 2400,7616 2400,2425 2429,2454 7561,2454 7561,7586 2429,7586 2429,2454 "/>
        <polygon id="_123" class="fil40" points="2415,2440 7576,2440 7576,7601 2415,7601 2415,2440 2443,2469 7547,2469 7547,7572 2443,7572 2443,2469 "/>
        <polygon id="_124" class="fil40" points="2429,2454 7561,2454 7561,7586 2429,7586 2429,2454 2458,2484 7532,2484 7532,7557 2458,7557 2458,2484 "/>
        <polygon id="_125" class="fil40" points="2443,2469 7547,2469 7547,7572 2443,7572 2443,2469 2473,2498 7518,2498 7518,7542 2473,7542 2473,2498 "/>
        <polygon id="_126" class="fil40" points="2458,2484 7532,2484 7532,7557 2458,7557 2458,2484 2487,2512 7503,2512 7503,7528 2487,7528 2487,2512 "/>
        <polygon id="_127" class="fil40" points="2473,2498 7518,2498 7518,7542 2473,7542 2473,2498 2502,2527 7488,2527 7488,7514 2502,7514 2502,2527 "/>
        <polygon id="_128" class="fil40" points="2487,2512 7503,2512 7503,7528 2487,7528 2487,2512 2517,2542 7474,2542 7474,7499 2517,7499 2517,2542 "/>
        <polygon id="_129" class="fil40" points="2502,2527 7488,2527 7488,7514 2502,7514 2502,2527 2532,2556 7459,2556 7459,7484 2532,7484 2532,2556 "/>
        <polygon id="_130" class="fil40" points="2517,2542 7474,2542 7474,7499 2517,7499 2517,2542 2546,2571 7445,2571 7445,7470 2546,7470 2546,2571 "/>
        <polygon id="_131" class="fil40" points="2532,2556 7459,2556 7459,7484 2532,7484 2532,2556 2560,2586 7430,2586 7430,7455 2560,7455 2560,2586 "/>
        <polygon id="_132" class="fil40" points="2546,2571 7445,2571 7445,7470 2546,7470 2546,2571 2575,2600 7415,2600 7415,7440 2575,7440 2575,2600 "/>
        <polygon id="_133" class="fil40" points="2560,2586 7430,2586 7430,7455 2560,7455 2560,2586 2590,2614 7401,2614 7401,7425 2590,7425 2590,2614 "/>
        <polygon id="_134" class="fil40" points="2575,2600 7415,2600 7415,7440 2575,7440 2575,2600 2604,2629 7386,2629 7386,7411 2604,7411 2604,2629 "/>
        <polygon id="_135" class="fil40" points="2590,2614 7401,2614 7401,7425 2590,7425 2590,2614 2619,2644 7371,2644 7371,7397 2619,7397 2619,2644 "/>
        <polygon id="_136" class="fil40" points="2604,2629 7386,2629 7386,7411 2604,7411 2604,2629 2634,2658 7357,2658 7357,7382 2634,7382 2634,2658 "/>
        <polygon id="_137" class="fil40" points="2619,2644 7371,2644 7371,7397 2619,7397 2619,2644 2648,2673 7342,2673 7342,7367 2648,7367 2648,2673 "/>
        <polygon id="_138" class="fil40" points="2634,2658 7357,2658 7357,7382 2634,7382 2634,2658 2662,2688 7328,2688 7328,7353 2662,7353 2662,2688 "/>
        <polygon id="_139" class="fil40" points="2648,2673 7342,2673 7342,7367 2648,7367 2648,2673 2677,2702 7313,2702 7313,7338 2677,7338 2677,2702 "/>
        <polygon id="_140" class="fil40" points="2662,2688 7328,2688 7328,7353 2662,7353 2662,2688 2692,2716 7299,2716 7299,7323 2692,7323 2692,2716 "/>
        <polygon id="_141" class="fil40" points="2677,2702 7313,2702 7313,7338 2677,7338 2677,2702 2706,2731 7284,2731 7284,7309 2706,7309 2706,2731 "/>
        <polygon id="_142" class="fil40" points="2692,2716 7299,2716 7299,7323 2692,7323 2692,2716 2721,2746 7269,2746 7269,7295 2721,7295 2721,2746 "/>
        <polygon id="_143" class="fil40" points="2706,2731 7284,2731 7284,7309 2706,7309 2706,2731 2736,2760 7255,2760 7255,7280 2736,7280 2736,2760 "/>
        <polygon id="_144" class="fil40" points="2721,2746 7269,2746 7269,7295 2721,7295 2721,2746 2750,2775 7240,2775 7240,7265 2750,7265 2750,2775 "/>
        <polygon id="_145" class="fil40" points="2736,2760 7255,2760 7255,7280 2736,7280 2736,2760 2764,2790 7226,2790 7226,7251 2764,7251 2764,2790 "/>
        <polygon id="_146" class="fil40" points="2750,2775 7240,2775 7240,7265 2750,7265 2750,2775 2779,2804 7211,2804 7211,7236 2779,7236 2779,2804 "/>
        <polygon id="_147" class="fil40" points="2764,2790 7226,2790 7226,7251 2764,7251 2764,2790 2794,2818 7197,2818 7197,7221 2794,7221 2794,2818 "/>
        <polygon id="_148" class="fil40" points="2779,2804 7211,2804 7211,7236 2779,7236 2779,2804 2808,2833 7182,2833 7182,7207 2808,7207 2808,2833 "/>
        <polygon id="_149" class="fil40" points="2794,2818 7197,2818 7197,7221 2794,7221 2794,2818 2823,2848 7167,2848 7167,7193 2823,7193 2823,2848 "/>
        <polygon id="_150" class="fil40" points="2808,2833 7182,2833 7182,7207 2808,7207 2808,2833 2838,2862 7153,2862 7153,7178 2838,7178 2838,2862 "/>
        <polygon id="_151" class="fil40" points="2823,2848 7167,2848 7167,7193 2823,7193 2823,2848 2852,2877 7138,2877 7138,7163 2852,7163 2852,2877 "/>
        <polygon id="_152" class="fil40" points="2838,2862 7153,2862 7153,7178 2838,7178 2838,2862 2866,2892 7124,2892 7124,7149 2866,7149 2866,2892 "/>
        <polygon id="_153" class="fil40" points="2852,2877 7138,2877 7138,7163 2852,7163 2852,2877 2881,2906 7109,2906 7109,7134 2881,7134 2881,2906 "/>
        <polygon id="_154" class="fil40" points="2866,2892 7124,2892 7124,7149 2866,7149 2866,2892 2896,2920 7095,2920 7095,7119 2896,7119 2896,2920 "/>
        <polygon id="_155" class="fil40" points="2881,2906 7109,2906 7109,7134 2881,7134 2881,2906 2910,2935 7080,2935 7080,7105 2910,7105 2910,2935 "/>
        <polygon id="_156" class="fil40" points="2896,2920 7095,2920 7095,7119 2896,7119 2896,2920 2925,2950 7065,2950 7065,7091 2925,7091 2925,2950 "/>
        <polygon id="_157" class="fil40" points="2910,2935 7080,2935 7080,7105 2910,7105 2910,2935 2940,2964 7051,2964 7051,7076 2940,7076 2940,2964 "/>
        <polygon id="_158" class="fil40" points="2925,2950 7065,2950 7065,7091 2925,7091 2925,2950 2954,2979 7036,2979 7036,7061 2954,7061 2954,2979 "/>
        <polygon id="_159" class="fil40" points="2940,2964 7051,2964 7051,7076 2940,7076 2940,2964 2968,2994 7022,2994 7022,7047 2968,7047 2968,2994 "/>
        <polygon id="_160" class="fil40" points="2954,2979 7036,2979 7036,7061 2954,7061 2954,2979 2983,3008 7007,3008 7007,7032 2983,7032 2983,3008 "/>
        <polygon id="_161" class="fil40" points="2968,2994 7022,2994 7022,7047 2968,7047 2968,2994 2998,3022 6993,3022 6993,7017 2998,7017 2998,3022 "/>
        <polygon id="_162" class="fil40" points="2983,3008 7007,3008 7007,7032 2983,7032 2983,3008 3012,3037 6978,3037 6978,7003 3012,7003 3012,3037 "/>
        <polygon id="_163" class="fil40" points="2998,3022 6993,3022 6993,7017 2998,7017 2998,3022 3027,3052 6963,3052 6963,6989 3027,6989 3027,3052 "/>
        <polygon id="_164" class="fil40" points="3012,3037 6978,3037 6978,7003 3012,7003 3012,3037 3042,3066 6949,3066 6949,6974 3042,6974 3042,3066 "/>
        <polygon id="_165" class="fil40" points="3027,3052 6963,3052 6963,6989 3027,6989 3027,3052 3056,3081 6934,3081 6934,6959 3056,6959 3056,3081 "/>
        <polygon id="_166" class="fil40" points="3042,3066 6949,3066 6949,6974 3042,6974 3042,3066 3070,3096 6920,3096 6920,6945 3070,6945 3070,3096 "/>
        <polygon id="_167" class="fil40" points="3056,3081 6934,3081 6934,6959 3056,6959 3056,3081 3085,3110 6905,3110 6905,6930 3085,6930 3085,3110 "/>
        <polygon id="_168" class="fil40" points="3070,3096 6920,3096 6920,6945 3070,6945 3070,3096 3100,3125 6891,3125 6891,6915 3100,6915 3100,3125 "/>
        <polygon id="_169" class="fil40" points="3085,3110 6905,3110 6905,6930 3085,6930 3085,3110 3114,3139 6876,3139 6876,6901 3114,6901 3114,3139 "/>
        <polygon id="_170" class="fil40" points="3100,3125 6891,3125 6891,6915 3100,6915 3100,3125 3129,3154 6861,3154 6861,6887 3129,6887 3129,3154 "/>
        <polygon id="_171" class="fil40" points="3114,3139 6876,3139 6876,6901 3114,6901 3114,3139 3144,3168 6847,3168 6847,6872 3144,6872 3144,3168 "/>
        <polygon id="_172" class="fil40" points="3129,3154 6861,3154 6861,6887 3129,6887 3129,3154 3158,3183 6832,3183 6832,6857 3158,6857 3158,3183 "/>
        <polygon id="_173" class="fil40" points="3144,3168 6847,3168 6847,6872 3144,6872 3144,3168 3172,3198 6818,3198 6818,6843 3172,6843 3172,3198 "/>
        <polygon id="_174" class="fil40" points="3158,3183 6832,3183 6832,6857 3158,6857 3158,3183 3187,3212 6803,3212 6803,6828 3187,6828 3187,3212 "/>
        <polygon id="_175" class="fil40" points="3172,3198 6818,3198 6818,6843 3172,6843 3172,3198 3202,3227 6789,3227 6789,6813 3202,6813 3202,3227 "/>
        <polygon id="_176" class="fil40" points="3187,3212 6803,3212 6803,6828 3187,6828 3187,3212 3216,3241 6774,3241 6774,6799 3216,6799 3216,3241 "/>
        <polygon id="_177" class="fil40" points="3202,3227 6789,3227 6789,6813 3202,6813 3202,3227 3231,3256 6759,3256 6759,6784 3231,6784 3231,3256 "/>
        <polygon id="_178" class="fil40" points="3216,3241 6774,3241 6774,6799 3216,6799 3216,3241 3246,3270 6745,3270 6745,6770 3246,6770 3246,3270 "/>
        <polygon id="_179" class="fil40" points="3231,3256 6759,3256 6759,6784 3231,6784 3231,3256 3260,3285 6730,3285 6730,6755 3260,6755 3260,3285 "/>
        <polygon id="_180" class="fil40" points="3246,3270 6745,3270 6745,6770 3246,6770 3246,3270 3274,3300 6715,3300 6715,6741 3274,6741 3274,3300 "/>
        <polygon id="_181" class="fil40" points="3260,3285 6730,3285 6730,6755 3260,6755 3260,3285 3289,3315 6701,3315 6701,6726 3289,6726 3289,3315 "/>
        <polygon id="_182" class="fil40" points="3274,3300 6715,3300 6715,6741 3274,6741 3274,3300 3304,3329 6687,3329 6687,6711 3304,6711 3304,3329 "/>
        <polygon id="_183" class="fil40" points="3289,3315 6701,3315 6701,6726 3289,6726 3289,3315 3318,3343 6672,3343 6672,6697 3318,6697 3318,3343 "/>
        <polygon id="_184" class="fil40" points="3304,3329 6687,3329 6687,6711 3304,6711 3304,3329 3333,3358 6657,3358 6657,6682 3333,6682 3333,3358 "/>
        <polygon id="_185" class="fil40" points="3318,3343 6672,3343 6672,6697 3318,6697 3318,3343 3348,3373 6643,3373 6643,6668 3348,6668 3348,3373 "/>
        <polygon id="_186" class="fil40" points="3333,3358 6657,3358 6657,6682 3333,6682 3333,3358 3363,3387 6628,3387 6628,6653 3363,6653 3363,3387 "/>
        <polygon id="_187" class="fil40" points="3348,3373 6643,3373 6643,6668 3348,6668 3348,3373 3377,3402 6613,3402 6613,6639 3377,6639 3377,3402 "/>
        <polygon id="_188" class="fil40" points="3363,3387 6628,3387 6628,6653 3363,6653 3363,3387 3391,3417 6599,3417 6599,6624 3391,6624 3391,3417 "/>
        <polygon id="_189" class="fil40" points="3377,3402 6613,3402 6613,6639 3377,6639 3377,3402 3406,3431 6584,3431 6584,6609 3406,6609 3406,3431 "/>
        <polygon id="_190" class="fil40" points="3391,3417 6599,3417 6599,6624 3391,6624 3391,3417 3421,3445 6570,3445 6570,6595 3421,6595 3421,3445 "/>
        <polygon id="_191" class="fil40" points="3406,3431 6584,3431 6584,6609 3406,6609 3406,3431 3435,3460 6555,3460 6555,6580 3435,6580 3435,3460 "/>
        <polygon id="_192" class="fil40" points="3421,3445 6570,3445 6570,6595 3421,6595 3421,3445 3450,3475 6540,3475 6540,6566 3450,6566 3450,3475 "/>
        <polygon id="_193" class="fil40" points="3435,3460 6555,3460 6555,6580 3435,6580 3435,3460 3465,3489 6526,3489 6526,6551 3465,6551 3465,3489 "/>
        <polygon id="_194" class="fil40" points="3450,3475 6540,3475 6540,6566 3450,6566 3450,3475 3479,3504 6511,3504 6511,6536 3479,6536 3479,3504 "/>
        <polygon id="_195" class="fil40" points="3465,3489 6526,3489 6526,6551 3465,6551 3465,3489 3493,3519 6497,3519 6497,6522 3493,6522 3493,3519 "/>
        <polygon id="_196" class="fil40" points="3479,3504 6511,3504 6511,6536 3479,6536 3479,3504 3508,3533 6482,3533 6482,6507 3508,6507 3508,3533 "/>
        <polygon id="_197" class="fil40" points="3493,3519 6497,3519 6497,6522 3493,6522 3493,3519 3523,3547 6468,3547 6468,6492 3523,6492 3523,3547 "/>
        <polygon id="_198" class="fil40" points="3508,3533 6482,3533 6482,6507 3508,6507 3508,3533 3537,3562 6453,3562 6453,6478 3537,6478 3537,3562 "/>
        <polygon id="_199" class="fil40" points="3523,3547 6468,3547 6468,6492 3523,6492 3523,3547 3552,3577 6438,3577 6438,6464 3552,6464 3552,3577 "/>
        <polygon id="_200" class="fil40" points="3537,3562 6453,3562 6453,6478 3537,6478 3537,3562 3567,3591 6424,3591 6424,6449 3567,6449 3567,3591 "/>
        <polygon id="_201" class="fil40" points="3552,3577 6438,3577 6438,6464 3552,6464 3552,3577 3581,3606 6409,3606 6409,6434 3581,6434 3581,3606 "/>
        <polygon id="_202" class="fil40" points="3567,3591 6424,3591 6424,6449 3567,6449 3567,3591 3595,3621 6395,3621 6395,6420 3595,6420 3595,3621 "/>
        <polygon id="_203" class="fil40" points="3581,3606 6409,3606 6409,6434 3581,6434 3581,3606 3610,3635 6380,3635 6380,6405 3610,6405 3610,3635 "/>
        <polygon id="_204" class="fil40" points="3595,3621 6395,3621 6395,6420 3595,6420 3595,3621 3625,3649 6366,3649 6366,6390 3625,6390 3625,3649 "/>
        <polygon id="_205" class="fil40" points="3610,3635 6380,3635 6380,6405 3610,6405 3610,3635 3639,3664 6351,3664 6351,6376 3639,6376 3639,3664 "/>
        <polygon id="_206" class="fil40" points="3625,3649 6366,3649 6366,6390 3625,6390 3625,3649 3654,3679 6336,3679 6336,6362 3654,6362 3654,3679 "/>
        <polygon id="_207" class="fil40" points="3639,3664 6351,3664 6351,6376 3639,6376 3639,3664 3669,3693 6322,3693 6322,6347 3669,6347 3669,3693 "/>
        <polygon id="_208" class="fil40" points="3654,3679 6336,3679 6336,6362 3654,6362 3654,3679 3683,3708 6307,3708 6307,6332 3683,6332 3683,3708 "/>
        <polygon id="_209" class="fil40" points="3669,3693 6322,3693 6322,6347 3669,6347 3669,3693 3697,3723 6293,3723 6293,6318 3697,6318 3697,3723 "/>
        <polygon id="_210" class="fil40" points="3683,3708 6307,3708 6307,6332 3683,6332 3683,3708 3712,3737 6278,3737 6278,6303 3712,6303 3712,3737 "/>
        <polygon id="_211" class="fil40" points="3697,3723 6293,3723 6293,6318 3697,6318 3697,3723 3727,3752 6264,3752 6264,6288 3727,6288 3727,3752 "/>
        <polygon id="_212" class="fil40" points="3712,3737 6278,3737 6278,6303 3712,6303 3712,3737 3741,3766 6249,3766 6249,6274 3741,6274 3741,3766 "/>
        <polygon id="_213" class="fil40" points="3727,3752 6264,3752 6264,6288 3727,6288 3727,3752 3756,3781 6234,3781 6234,6260 3756,6260 3756,3781 "/>
        <polygon id="_214" class="fil40" points="3741,3766 6249,3766 6249,6274 3741,6274 3741,3766 3771,3795 6220,3795 6220,6245 3771,6245 3771,3795 "/>
        <polygon id="_215" class="fil40" points="3756,3781 6234,3781 6234,6260 3756,6260 3756,3781 3785,3810 6205,3810 6205,6230 3785,6230 3785,3810 "/>
        <polygon id="_216" class="fil40" points="3771,3795 6220,3795 6220,6245 3771,6245 3771,3795 3799,3825 6191,3825 6191,6216 3799,6216 3799,3825 "/>
        <polygon id="_217" class="fil40" points="3785,3810 6205,3810 6205,6230 3785,6230 3785,3810 3814,3839 6176,3839 6176,6201 3814,6201 3814,3839 "/>
        <polygon id="_218" class="fil40" points="3799,3825 6191,3825 6191,6216 3799,6216 3799,3825 3829,3854 6162,3854 6162,6186 3829,6186 3829,3854 "/>
        <polygon id="_219" class="fil40" points="3814,3839 6176,3839 6176,6201 3814,6201 3814,3839 3843,3868 6147,3868 6147,6172 3843,6172 3843,3868 "/>
        <polygon id="_220" class="fil40" points="3829,3854 6162,3854 6162,6186 3829,6186 3829,3854 3858,3883 6132,3883 6132,6157 3858,6157 3858,3883 "/>
        <polygon id="_221" class="fil40" points="3843,3868 6147,3868 6147,6172 3843,6172 3843,3868 3873,3897 6118,3897 6118,6143 3873,6143 3873,3897 "/>
        <polygon id="_222" class="fil40" points="3858,3883 6132,3883 6132,6157 3858,6157 3858,3883 3887,3912 6103,3912 6103,6128 3887,6128 3887,3912 "/>
        <polygon id="_223" class="fil40" points="3873,3897 6118,3897 6118,6143 3873,6143 3873,3897 3901,3927 6088,3927 6088,6114 3901,6114 3901,3927 "/>
        <polygon id="_224" class="fil40" points="3887,3912 6103,3912 6103,6128 3887,6128 3887,3912 3916,3941 6074,3941 6074,6099 3916,6099 3916,3941 "/>
        <polygon id="_225" class="fil40" points="3901,3927 6088,3927 6088,6114 3901,6114 3901,3927 3931,3956 6060,3956 6060,6084 3931,6084 3931,3956 "/>
        <polygon id="_226" class="fil40" points="3916,3941 6074,3941 6074,6099 3916,6099 3916,3941 3945,3970 6045,3970 6045,6070 3945,6070 3945,3970 "/>
        <polygon id="_227" class="fil40" points="3931,3956 6060,3956 6060,6084 3931,6084 3931,3956 3960,3985 6030,3985 6030,6055 3960,6055 3960,3985 "/>
        <polygon id="_228" class="fil40" points="3945,3970 6045,3970 6045,6070 3945,6070 3945,3970 3975,3999 6016,3999 6016,6041 3975,6041 3975,3999 "/>
        <polygon id="_229" class="fil40" points="3960,3985 6030,3985 6030,6055 3960,6055 3960,3985 3989,4014 6001,4014 6001,6026 3989,6026 3989,4014 "/>
        <polygon id="_230" class="fil40" points="3975,3999 6016,3999 6016,6041 3975,6041 3975,3999 4003,4029 5986,4029 5986,6012 4003,6012 4003,4029 "/>
        <polygon id="_231" class="fil40" points="3989,4014 6001,4014 6001,6026 3989,6026 3989,4014 4018,4043 5972,4043 5972,5997 4018,5997 4018,4043 "/>
        <polygon id="_232" class="fil40" points="4003,4029 5986,4029 5986,6012 4003,6012 4003,4029 4033,4058 5958,4058 5958,5982 4033,5982 4033,4058 "/>
        <polygon id="_233" class="fil40" points="4018,4043 5972,4043 5972,5997 4018,5997 4018,4043 4047,4072 5943,4072 5943,5968 4047,5968 4047,4072 "/>
        <polygon id="_234" class="fil40" points="4033,4058 5958,4058 5958,5982 4033,5982 4033,4058 4062,4087 5928,4087 5928,5953 4062,5953 4062,4087 "/>
        <polygon id="_235" class="fil40" points="4047,4072 5943,4072 5943,5968 4047,5968 4047,4072 4077,4102 5914,4102 5914,5939 4077,5939 4077,4102 "/>
        <polygon id="_236" class="fil40" points="4062,4087 5928,4087 5928,5953 4062,5953 4062,4087 4092,4116 5899,4116 5899,5924 4092,5924 4092,4116 "/>
        <polygon id="_237" class="fil40" points="4077,4102 5914,4102 5914,5939 4077,5939 4077,4102 4105,4131 5884,4131 5884,5910 4105,5910 4105,4131 "/>
        <polygon id="_238" class="fil40" points="4092,4116 5899,4116 5899,5924 4092,5924 4092,4116 4120,4146 5870,4146 5870,5895 4120,5895 4120,4146 "/>
        <polygon id="_239" class="fil40" points="4105,4131 5884,4131 5884,5910 4105,5910 4105,4131 4135,4160 5856,4160 5856,5880 4135,5880 4135,4160 "/>
        <polygon id="_240" class="fil40" points="4120,4146 5870,4146 5870,5895 4120,5895 4120,4146 4149,4174 5841,4174 5841,5866 4149,5866 4149,4174 "/>
        <polygon id="_241" class="fil40" points="4135,4160 5856,4160 5856,5880 4135,5880 4135,4160 4164,4189 5826,4189 5826,5851 4164,5851 4164,4189 "/>
        <polygon id="_242" class="fil40" points="4149,4174 5841,4174 5841,5866 4149,5866 4149,4174 4179,4204 5812,4204 5812,5837 4179,5837 4179,4204 "/>
        <polygon id="_243" class="fil40" points="4164,4189 5826,4189 5826,5851 4164,5851 4164,4189 4194,4218 5797,4218 5797,5822 4194,5822 4194,4218 "/>
        <polygon id="_244" class="fil40" points="4179,4204 5812,4204 5812,5837 4179,5837 4179,4204 4208,4233 5782,4233 5782,5808 4208,5808 4208,4233 "/>
        <polygon id="_245" class="fil40" points="4194,4218 5797,4218 5797,5822 4194,5822 4194,4218 4222,4248 5768,4248 5768,5793 4222,5793 4222,4248 "/>
        <polygon id="_246" class="fil40" points="4208,4233 5782,4233 5782,5808 4208,5808 4208,4233 4237,4262 5753,4262 5753,5778 4237,5778 4237,4262 "/>
        <polygon id="_247" class="fil40" points="4222,4248 5768,4248 5768,5793 4222,5793 4222,4248 4252,4276 5739,4276 5739,5764 4252,5764 4252,4276 "/>
        <polygon id="_248" class="fil40" points="4237,4262 5753,4262 5753,5778 4237,5778 4237,4262 4266,4291 5724,4291 5724,5749 4266,5749 4266,4291 "/>
        <polygon id="_249" class="fil40" points="4252,4276 5739,4276 5739,5764 4252,5764 4252,4276 4281,4306 5709,4306 5709,5735 4281,5735 4281,4306 "/>
        <polygon id="_250" class="fil40" points="4266,4291 5724,4291 5724,5749 4266,5749 4266,4291 4296,4320 5695,4320 5695,5720 4296,5720 4296,4320 "/>
        <polygon id="_251" class="fil40" points="4281,4306 5709,4306 5709,5735 4281,5735 4281,4306 4310,4335 5680,4335 5680,5705 4310,5705 4310,4335 "/>
        <polygon id="_252" class="fil40" points="4296,4320 5695,4320 5695,5720 4296,5720 4296,4320 4324,4350 5666,4350 5666,5691 4324,5691 4324,4350 "/>
        <polygon id="_253" class="fil40" points="4310,4335 5680,4335 5680,5705 4310,5705 4310,4335 4339,4364 5651,4364 5651,5676 4339,5676 4339,4364 "/>
        <polygon id="_254" class="fil40" points="4324,4350 5666,4350 5666,5691 4324,5691 4324,4350 4354,4379 5637,4379 5637,5661 4354,5661 4354,4379 "/>
        <polygon id="_255" class="fil40" points="4339,4364 5651,4364 5651,5676 4339,5676 4339,4364 4368,4393 5622,4393 5622,5647 4368,5647 4368,4393 "/>
        <polygon id="_256" class="fil40" points="4354,4379 5637,4379 5637,5661 4354,5661 4354,4379 4383,4408 5607,4408 5607,5633 4383,5633 4383,4408 "/>
        <polygon id="_257" class="fil40" points="4368,4393 5622,4393 5622,5647 4368,5647 4368,4393 4398,4422 5593,4422 5593,5618 4398,5618 4398,4422 "/>
        <polygon id="_258" class="fil40" points="4383,4408 5607,4408 5607,5633 4383,5633 4383,4408 4412,4437 5578,4437 5578,5603 4412,5603 4412,4437 "/>
        <polygon id="_259" class="fil40" points="4398,4422 5593,4422 5593,5618 4398,5618 4398,4422 4426,4452 5564,4452 5564,5589 4426,5589 4426,4452 "/>
        <polygon id="_260" class="fil40" points="4412,4437 5578,4437 5578,5603 4412,5603 4412,4437 4441,4466 5549,4466 5549,5574 4441,5574 4441,4466 "/>
        <polygon id="_261" class="fil40" points="4426,4452 5564,4452 5564,5589 4426,5589 4426,4452 4456,4481 5535,4481 5535,5559 4456,5559 4456,4481 "/>
        <polygon id="_262" class="fil40" points="4441,4466 5549,4466 5549,5574 4441,5574 4441,4466 4470,4495 5520,4495 5520,5545 4470,5545 4470,4495 "/>
        <polygon id="_263" class="fil40" points="4456,4481 5535,4481 5535,5559 4456,5559 4456,4481 4485,4510 5505,4510 5505,5530 4485,5530 4485,4510 "/>
        <polygon id="_264" class="fil40" points="4470,4495 5520,4495 5520,5545 4470,5545 4470,4495 4500,4524 5491,4524 5491,5516 4500,5516 4500,4524 "/>
        <polygon id="_265" class="fil40" points="4485,4510 5505,4510 5505,5530 4485,5530 4485,4510 4514,4539 5476,4539 5476,5501 4514,5501 4514,4539 "/>
        <polygon id="_266" class="fil40" points="4500,4524 5491,4524 5491,5516 4500,5516 4500,4524 4528,4554 5461,4554 5461,5487 4528,5487 4528,4554 "/>
        <polygon id="_267" class="fil40" points="4514,4539 5476,4539 5476,5501 4514,5501 4514,4539 4543,4568 5447,4568 5447,5472 4543,5472 4543,4568 "/>
        <polygon id="_268" class="fil40" points="4528,4554 5461,4554 5461,5487 4528,5487 4528,4554 4558,4583 5433,4583 5433,5457 4558,5457 4558,4583 "/>
        <polygon id="_269" class="fil40" points="4543,4568 5447,4568 5447,5472 4543,5472 4543,4568 4572,4597 5418,4597 5418,5443 4572,5443 4572,4597 "/>
        <polygon id="_270" class="fil40" points="4558,4583 5433,4583 5433,5457 4558,5457 4558,4583 4587,4612 5403,4612 5403,5428 4587,5428 4587,4612 "/>
        <polygon id="_271" class="fil40" points="4572,4597 5418,4597 5418,5443 4572,5443 4572,4597 4602,4626 5389,4626 5389,5414 4602,5414 4602,4626 "/>
        <polygon id="_272" class="fil40" points="4587,4612 5403,4612 5403,5428 4587,5428 4587,4612 4616,4641 5374,4641 5374,5399 4616,5399 4616,4641 "/>
        <polygon id="_273" class="fil40" points="4602,4626 5389,4626 5389,5414 4602,5414 4602,4626 4630,4656 5359,4656 5359,5385 4630,5385 4630,4656 "/>
        <polygon id="_274" class="fil40" points="4616,4641 5374,4641 5374,5399 4616,5399 4616,4641 4645,4670 5345,4670 5345,5370 4645,5370 4645,4670 "/>
        <polygon id="_275" class="fil40" points="4630,4656 5359,4656 5359,5385 4630,5385 4630,4656 4660,4685 5331,4685 5331,5355 4660,5355 4660,4685 "/>
        <polygon id="_276" class="fil40" points="4645,4670 5345,4670 5345,5370 4645,5370 4645,4670 4674,4699 5316,4699 5316,5341 4674,5341 4674,4699 "/>
        <polygon id="_277" class="fil40" points="4660,4685 5331,4685 5331,5355 4660,5355 4660,4685 4689,4714 5301,4714 5301,5326 4689,5326 4689,4714 "/>
        <polygon id="_278" class="fil40" points="4674,4699 5316,4699 5316,5341 4674,5341 4674,4699 4704,4728 5287,4728 5287,5312 4704,5312 4704,4728 "/>
        <polygon id="_279" class="fil40" points="4689,4714 5301,4714 5301,5326 4689,5326 4689,4714 4718,4743 5272,4743 5272,5297 4718,5297 4718,4743 "/>
        <polygon id="_280" class="fil40" points="4704,4728 5287,4728 5287,5312 4704,5312 4704,4728 4732,4758 5257,4758 5257,5283 4732,5283 4732,4758 "/>
        <polygon id="_281" class="fil40" points="4718,4743 5272,4743 5272,5297 4718,5297 4718,4743 4747,4772 5243,4772 5243,5268 4747,5268 4747,4772 "/>
        <polygon id="_282" class="fil40" points="4732,4758 5257,4758 5257,5283 4732,5283 4732,4758 4762,4787 5229,4787 5229,5253 4762,5253 4762,4787 "/>
        <polygon id="_283" class="fil40" points="4747,4772 5243,4772 5243,5268 4747,5268 4747,4772 4776,4801 5214,4801 5214,5239 4776,5239 4776,4801 "/>
        <polygon id="_284" class="fil40" points="4762,4787 5229,4787 5229,5253 4762,5253 4762,4787 4791,4816 5199,4816 5199,5224 4791,5224 4791,4816 "/>
        <polygon id="_285" class="fil40" points="4776,4801 5214,4801 5214,5239 4776,5239 4776,4801 4806,4830 5185,4830 5185,5210 4806,5210 4806,4830 "/>
        <polygon id="_286" class="fil40" points="4791,4816 5199,4816 5199,5224 4791,5224 4791,4816 4820,4845 5170,4845 5170,5195 4820,5195 4820,4845 "/>
        <polygon id="_287" class="fil40" points="4806,4830 5185,4830 5185,5210 4806,5210 4806,4830 4835,4860 5155,4860 5155,5181 4835,5181 4835,4860 "/>
        <polygon id="_288" class="fil40" points="4820,4845 5170,4845 5170,5195 4820,5195 4820,4845 4849,4874 5141,4874 5141,5166 4849,5166 4849,4874 "/>
        <polygon id="_289" class="fil40" points="4834,4860 5155,4860 5155,5181 4834,5181 4834,4860 4864,4889 5127,4889 5127,5151 4864,5151 4864,4889 "/>
        <polygon id="_290" class="fil40" points="4849,4874 5141,4874 5141,5166 4849,5166 4849,4874 4878,4903 5112,4903 5112,5137 4878,5137 4878,4903 "/>
        <polygon id="_291" class="fil40" points="4864,4889 5127,4889 5127,5151 4864,5151 4864,4889 4893,4918 5097,4918 5097,5122 4893,5122 4893,4918 "/>
        <polygon id="_292" class="fil40" points="4878,4903 5112,4903 5112,5137 4878,5137 4878,4903 4908,4933 5083,4933 5083,5108 4908,5108 4908,4933 "/>
        <polygon id="_293" class="fil40" points="4893,4918 5097,4918 5097,5122 4893,5122 4893,4918 4923,4947 5068,4947 5068,5093 4923,5093 4923,4947 "/>
        <polygon id="_294" class="fil40" points="4908,4933 5083,4933 5083,5108 4908,5108 4908,4933 4937,4962 5053,4962 5053,5079 4937,5079 4937,4962 "/>
        <polygon id="_295" class="fil40" points="4923,4947 5068,4947 5068,5093 4923,5093 4923,4947 4951,4977 5039,4977 5039,5064 4951,5064 4951,4977 "/>
        <polygon id="_296" class="fil40" points="4937,4962 5053,4962 5053,5079 4937,5079 4937,4962 4966,4991 5025,4991 5025,5049 4966,5049 4966,4991 "/>
        <polygon id="_297" class="fil40" points="4951,4977 5039,4977 5039,5064 4951,5064 4951,4977 4981,5006 5010,5006 5010,5035 4981,5035 4981,5006 "/>
        <polygon id="_298" class="fil40" points="4966,4991 5025,4991 5025,5049 4966,5049 4966,4991 4995,5020 4995,5020 4995,5020 4995,5020 4995,5020 "/>
        <polygon id="_299" class="fil40" points="4981,5006 5010,5006 5010,5035 4981,5035 "/>
       </g>
      </g>
      <path class="fil2" d="M1578 9394l6833 0c526,0 957,-431 957,-957l0 -6833c0,-526 -431,-957 -957,-957l-6833 0c-526,0 -957,431 -957,957l0 6833c0,526 431,957 957,957z"/>
      <path class="fil2" d="M1578 9394l6833 0c526,0 957,-431 957,-957l0 -6833c0,-526 -431,-957 -957,-957l-6833 0c-526,0 -957,431 -957,957l0 6833c0,526 431,957 957,957z"/>
     </g>
    </g>
   </g>
  </g>
  <g id="_342934792">
   <g style="clip-path:url(#id4)">
    <g>
     <polygon class="fil41" points="7848,3472 7855,3744 7863,4015 7904,4038 7945,4062 7986,4089 8027,4118 8066,4148 8105,4181 8143,4215 8182,4253 8202,4273 8224,4297 8221,4226 8220,4190 8220,4156 8217,4016 8211,3874 8206,3733 8201,3661 8198,3590 8191,3447 8181,3302 8172,3158 7987,3117 7803,3078 7619,3041 7436,3007 7252,2975 7069,2945 6887,2918 6705,2893 6521,2870 6339,2850 6157,2832 5974,2817 5792,2804 5611,2793 5249,2780 5042,2776 4837,2777 4636,2778 4437,2783 4237,2791 4038,2802 3838,2815 3639,2831 3440,2851 3242,2874 3043,2899 2844,2927 2646,2958 2448,2992 2249,3029 2053,3068 1855,3111 1658,3157 1656,3159 1656,3169 1656,3183 1656,3202 1655,3212 1655,3226 1655,3254 1655,3287 1655,3327 1652,3370 1652,3418 1652,3472 1652,3531 1650,3595 1650,3664 1650,3737 1650,3816 1650,3867 1650,3920 1649,3964 1649,4012 1649,4061 1651,4115 1651,4170 1654,4228 1656,4290 1658,4355 1702,4303 1751,4254 1815,4191 1882,4136 1952,4086 2024,4042 2022,3816 2024,3461 2208,3424 2392,3390 2576,3358 2760,3329 2943,3301 3127,3276 3311,3254 3496,3234 3678,3216 3861,3201 4044,3188 4227,3177 4409,3169 4592,3163 4774,3159 4958,3160 5137,3162 5320,3165 5501,3171 5683,3181 5863,3191 6045,3204 6225,3220 6408,3240 6588,3260 6768,3282 6948,3307 7127,3337 7306,3366 7486,3398 7666,3433 7846,3472 "/>
     <polygon id="_1_1" class="fil42" points="7863,4015 7855,3744 7848,3472 7846,3472 7666,3433 7486,3398 7306,3366 7127,3337 6948,3307 6768,3282 6588,3260 6408,3240 6225,3220 6045,3204 5863,3191 5683,3181 5501,3171 5320,3165 5137,3162 4958,3160 4774,3159 4592,3163 4409,3169 4227,3177 4044,3188 3861,3201 3678,3216 3496,3234 3311,3254 3127,3276 2943,3301 2760,3329 2576,3358 2392,3390 2208,3424 2024,3461 2022,3816 2024,4042 2094,4003 2167,3970 2242,3942 2321,3919 2401,3900 2482,3888 2566,3881 2653,3879 2718,3880 2782,3884 2813,3886 2844,3891 2907,3901 2968,3914 2997,3922 3028,3931 3056,3939 3086,3950 3144,3972 3198,3996 3253,4023 3279,4038 3306,4054 3359,4089 3410,4125 3460,4165 3484,4186 3509,4208 3557,4254 3601,4300 3644,4349 3683,4399 3720,4451 3752,4502 3784,4555 3812,4609 3838,4666 3858,4722 3878,4780 3893,4839 3908,4901 3917,4962 3925,5026 3929,5090 3932,5156 3930,5188 3929,5221 3925,5285 3921,5316 3918,5332 3917,5348 3912,5379 3908,5411 3900,5440 3893,5471 3889,5485 3886,5492 3885,5501 3878,5532 3867,5560 3858,5590 3847,5618 3838,5648 3812,5702 3784,5756 3768,5783 3763,5788 3760,5796 3752,5810 3736,5836 3731,5842 3728,5849 3720,5863 3702,5888 3683,5914 3644,5964 3622,5987 3601,6012 3578,6036 3557,6061 3532,6082 3509,6105 3484,6126 3460,6147 3410,6186 3384,6205 3359,6224 3345,6231 3338,6235 3332,6239 3306,6256 3292,6263 3285,6267 3279,6271 3253,6288 3198,6315 3144,6341 3129,6346 3114,6352 3086,6363 3056,6372 3028,6383 2997,6390 2989,6391 2982,6393 2968,6398 2937,6405 2907,6412 2875,6417 2844,6422 2828,6423 2813,6425 2782,6430 2718,6434 2685,6435 2653,6437 2583,6434 2517,6429 2450,6421 2388,6410 2324,6395 2263,6378 2203,6357 2145,6334 2160,6489 2202,6888 2251,7288 2496,7364 2843,7107 3150,7512 3300,7542 3355,7552 3432,7564 3642,7597 3748,7612 3854,7626 4065,7649 4276,7668 4380,7675 4485,7683 4696,7692 4800,7694 4905,7697 5116,7697 5325,7690 5533,7680 5741,7666 5950,7647 6000,7640 6053,7634 6157,7621 6365,7593 6467,7576 6571,7558 6779,7520 7084,7107 7431,7366 7693,7288 7696,7258 7696,7249 7697,7242 7699,7228 7706,7169 7721,7050 7732,6931 7745,6812 7768,6573 7788,6334 7757,6345 7728,6357 7697,6367 7681,6372 7667,6378 7606,6396 7574,6403 7543,6411 7510,6416 7493,6418 7489,6418 7485,6419 7478,6422 7445,6425 7413,6430 7378,6432 7345,6435 7328,6435 7311,6436 7278,6437 7208,6435 7142,6430 7075,6422 7011,6411 6948,6396 6887,6379 6827,6359 6769,6337 6718,6312 6668,6287 6620,6260 6573,6230 6527,6196 6482,6161 6438,6125 6397,6086 6373,6063 6327,6015 6305,5990 6285,5966 6263,5940 6244,5915 6208,5864 6173,5811 6157,5784 6143,5758 6115,5703 6102,5675 6092,5648 6069,5590 6058,5560 6050,5532 6041,5501 6034,5471 6021,5411 6010,5348 6005,5316 6003,5285 5999,5221 5998,5156 6002,5041 6008,4986 6016,4933 6024,4878 6037,4826 6051,4774 6069,4724 6087,4673 6108,4625 6131,4576 6158,4530 6185,4484 6215,4439 6282,4352 6325,4302 6373,4253 6438,4191 6506,4136 6576,4086 6648,4042 6718,4003 6791,3970 6866,3942 6945,3919 7024,3900 7106,3888 7190,3881 7278,3879 7356,3880 7394,3883 7433,3887 7509,3897 7583,3912 7619,3920 7655,3931 7726,3955 7795,3982 7828,3997 "/>
     <path id="_12_2" class="fil43" d="M8305 4393l-40 -50 -41 -46 -21 -24 -20 -20 -39 -38 -38 -34 -39 -33 -39 -30 -41 -30 -40 -26 -41 -25 -41 -22 -34 -18 -33 -15 -69 -27 -71 -24 -37 -11 -36 -8 -75 -15 -76 -9 -39 -5 -38 -2 -78 -1 -88 2 -84 7 -82 12 -79 19 -79 22 -75 28 -73 33 -70 39 -72 44 -70 50 -67 56 -65 62 -49 49 -43 51 -67 86 -30 45 -27 46 -27 46 -22 49 -21 49 -18 51 -18 50 -14 52 -13 52 -8 54 -8 53 -6 56 -4 115 1 65 4 64 2 31 5 32 11 63 13 60 7 30 9 31 8 28 11 30 22 58 11 27 13 28 27 54 14 26 17 27 34 53 37 51 19 25 21 26 20 24 22 25 46 49 24 22 41 39 44 37 45 34 46 34 46 30 49 27 50 25 51 25 58 22 60 20 60 17 64 15 64 11 66 8 66 5 70 2 33 -1 17 -1 18 0 33 -2 34 -2 32 -5 33 -4 7 -2 4 -1 5 0 17 -2 33 -5 31 -8 32 -7 62 -18 14 -6 15 -5 31 -11 30 -12 31 -11 50 -25 12 -7 2 -2 4 -1 7 -2 26 -13 24 -15 25 -14 24 -15 25 -14 11 -9 12 -8 24 -17 11 -9 12 -8 24 -17 45 -39 45 -39 8 -8 6 -6 21 -25 22 -24 21 -25 21 -24 19 -26 9 -13 11 -12 19 -26 19 -25 7 -14 4 -7 5 -6 17 -26 7 -14 4 -7 5 -6 17 -26 27 -54 13 -28 6 -14 7 -13 5 -15 6 -14 11 -28 9 -30 11 -28 7 -31 1 -8 2 -7 5 -14 7 -31 7 -30 5 -32 5 -31 1 -17 2 -15 5 -31 4 -64 1 -33 2 -32 -2 -54 -4 -53 -6 -52 -6 -51 -9 -51 -11 -50 -13 -50 -14 -47 -18 -49 -19 -46 -20 -46 -22 -44 -25 -45 -26 -43 -28 -43 -30 -40zm-440 56l31 27 32 32 32 33 30 34 27 36 27 37 24 37 22 39 20 39 19 41 15 40 13 41 11 43 11 44 7 44 6 46 4 46 1 49 -1 5 0 6 0 12 0 24 -2 22 -1 24 -6 45 -7 45 -11 43 -11 43 -7 20 -6 21 -15 43 -19 39 -20 40 -22 38 -24 39 -27 36 -14 18 -13 19 -15 17 -14 18 -32 36 -14 12 -7 6 -6 7 -26 24 -28 22 -14 11 -13 12 -31 20 -15 9 -14 11 -62 36 -33 15 -32 14 -33 13 -17 6 -15 7 -36 9 -9 1 -8 2 -17 5 -36 7 -34 7 -38 5 -19 1 -18 2 -38 2 -19 0 -9 0 -5 0 -4 1 -49 -1 -46 -4 -46 -6 -44 -7 -45 -11 -43 -11 -43 -13 -40 -15 -41 -19 -39 -20 -39 -22 -37 -24 -37 -27 -36 -27 -34 -30 -33 -32 -34 -36 -30 -34 -30 -37 -25 -36 -25 -39 -22 -38 -20 -40 -17 -39 -18 -43 -13 -41 -12 -43 -8 -43 -8 -45 -5 -45 -4 -46 0 -46 0 -49 4 -46 5 -46 8 -44 20 -86 13 -41 18 -40 17 -41 20 -39 22 -39 25 -37 25 -37 30 -36 30 -34 34 -33 67 -65 36 -30 37 -25 37 -25 39 -22 39 -20 41 -17 40 -18 43 -13 43 -12 45 -8 44 -8 46 -5 46 -4 49 0 40 0 41 2 40 4 40 7 38 6 39 9 38 11 38 13 36 13 36 17 34 17 36 20 33 20 33 22 32 24 33 27z"/>
     <path id="_123_3" class="fil44" d="M7928 4508l-32 -32 -31 -27 -33 -27 -32 -24 -33 -22 -33 -20 -36 -20 -34 -17 -36 -17 -36 -13 -38 -13 -38 -11 -39 -9 -38 -6 -40 -7 -40 -4 -41 -2 -40 0 -49 0 -46 4 -46 5 -44 8 -45 8 -43 12 -43 13 -40 18 -41 17 -39 20 -39 22 -37 25 -37 25 -36 30 -67 65 -34 33 -30 34 -30 36 -25 37 -25 37 -22 39 -20 39 -17 41 -18 40 -13 41 -20 86 -8 44 -5 46 -4 46 0 49 0 46 4 46 5 45 8 45 8 43 12 43 13 41 18 43 17 39 20 40 22 38 25 39 25 36 30 37 30 34 34 36 33 32 34 30 36 27 37 27 37 24 39 22 39 20 41 19 40 15 43 13 43 11 45 11 44 7 46 6 46 4 49 1 4 -1 5 0 9 0 19 0 38 -2 18 -2 19 -1 38 -5 34 -7 36 -7 17 -5 8 -2 9 -1 36 -9 15 -7 17 -6 33 -13 32 -14 33 -15 62 -36 14 -11 15 -9 31 -20 13 -12 14 -11 28 -22 26 -24 6 -7 7 -6 14 -12 32 -36 14 -18 15 -17 13 -19 14 -18 27 -36 24 -39 22 -38 20 -40 19 -39 15 -43 6 -21 7 -20 11 -43 11 -43 7 -45 6 -45 1 -24 2 -22 0 -24 0 -12 0 -6 1 -5 -1 -49 -4 -46 -6 -46 -7 -44 -11 -44 -11 -43 -13 -41 -15 -40 -19 -41 -20 -39 -22 -39 -24 -37 -27 -37 -27 -36 -30 -34 -32 -33zm-1307 449l-1 -26 4 -24 6 -24 8 -21 8 -21 13 -20 15 -19 18 -18 37 -32 20 -13 21 -8 21 -8 24 -6 24 -4 26 0 24 0 24 4 22 6 22 8 20 8 21 13 19 14 19 18 15 18 15 19 12 20 11 21 7 21 6 24 4 24 1 26 -1 24 -4 24 -2 5 -1 2 0 4 -2 12 -7 22 -6 9 -5 11 -12 21 -15 19 -15 19 -19 15 -19 15 -21 12 -11 5 -9 6 -22 7 -12 2 -4 0 -2 1 -5 2 -24 4 -24 1 -26 -1 -24 -4 -24 -6 -21 -7 -21 -11 -20 -12 -19 -15 -18 -15 -18 -19 -15 -19 -13 -21 -8 -20 -8 -22 -6 -22 -4 -24 1 -24z"/>
     <polygon id="_1234" class="fil45" points="6692,4783 6674,4801 6659,4820 6646,4840 6637,4862 6629,4883 6623,4907 6620,4930 6621,4956 6620,4980 6623,5004 6629,5026 6637,5049 6646,5069 6659,5090 6674,5109 6692,5128 6710,5143 6729,5159 6749,5171 6770,5181 6791,5188 6815,5194 6839,5198 6865,5199 6888,5198 6912,5194 6917,5192 6919,5191 6923,5191 6935,5188 6957,5181 6966,5175 6977,5171 6998,5159 7017,5143 7036,5128 7052,5109 7067,5090 7079,5069 7084,5058 7090,5049 7097,5026 7099,5014 7099,5011 7100,5008 7103,5004 7106,4980 7107,4956 7106,4930 7103,4907 7097,4883 7090,4862 7079,4840 7067,4820 7052,4801 7036,4783 7017,4766 6998,4751 6977,4738 6957,4730 6935,4722 6912,4716 6888,4712 6865,4712 6839,4712 6815,4716 6791,4722 6770,4730 6749,4738 6729,4751 "/>
     <polygon id="_12345" class="fil42" points="8002,8124 8016,8063 8024,8032 8025,8023 8027,8016 8032,8002 8045,7941 8059,7880 8084,7757 8106,7634 8116,7570 8121,7538 8127,7507 8146,7382 8161,7254 8176,7126 8122,7144 8070,7163 7880,7227 7693,7288 7431,7366 7084,7107 6779,7520 6571,7558 6467,7576 6365,7593 6157,7621 6053,7634 6000,7640 5950,7647 5741,7666 5533,7680 5325,7690 5116,7697 4905,7697 4800,7694 4696,7692 4485,7683 4380,7675 4276,7668 4065,7649 3854,7626 3748,7612 3642,7597 3432,7564 3355,7552 3300,7542 3150,7512 2843,7107 2496,7364 2251,7288 2057,7232 1865,7170 1813,7151 1764,7134 1772,7228 1783,7321 1793,7414 1807,7506 1822,7595 1838,7684 1855,7771 1874,7859 1893,7943 1914,8027 1935,8110 1960,8193 1984,8272 2011,8351 2038,8430 2068,8508 2109,8523 2183,8546 2257,8569 2406,8613 2480,8633 2554,8654 2704,8693 2739,8702 2776,8711 2849,8730 2996,8766 3032,8773 3049,8776 3068,8781 3142,8798 3288,8830 3359,8843 3432,8857 3576,8884 3647,8895 3719,8907 3864,8929 3880,8930 3898,8933 3934,8937 4005,8947 4147,8965 4216,8972 4288,8980 4430,8993 4507,8998 4585,9004 4741,9013 4818,9015 4896,9018 5052,9021 5128,9020 5205,9020 5359,9018 5435,9014 5473,9012 5491,9011 5512,9011 5587,9006 5625,9004 5644,9002 5664,9002 5804,8989 5874,8982 5945,8976 6085,8960 6154,8950 6225,8942 6363,8920 6431,8908 6448,8904 6466,8902 6501,8897 6639,8871 6776,8844 6911,8812 7046,8779 7112,8760 7145,8750 7162,8746 7180,8742 7315,8705 7447,8664 7580,8620 7645,8596 7711,8574 7844,8527 7873,8515 7890,8508 7902,8469 7915,8433 7960,8279 7981,8201 "/>
     <polygon id="_123456" class="fil41" points="7788,6334 7768,6573 7745,6812 7732,6931 7721,7050 7706,7169 7699,7228 7697,7242 7696,7249 7696,7258 7693,7288 7880,7227 8070,7163 8085,7028 8092,6960 8101,6894 8114,6759 8116,6725 8119,6692 8127,6625 8137,6488 8149,6352 8159,6215 8168,6077 8123,6116 8078,6155 8054,6172 8043,6180 8032,6190 8008,6206 7996,6215 7986,6224 7961,6238 7937,6254 7912,6268 7889,6283 7863,6296 7855,6299 7852,6300 7850,6302 7838,6309 "/>
     <polygon id="_1234567" class="fil42" points="5378,1160 5375,1123 5371,1089 5362,1056 5352,1025 5336,994 5320,966 5298,937 5276,912 5249,888 5235,876 5222,866 5192,848 5177,840 5162,834 5146,827 5130,822 5097,815 5079,812 5063,811 5029,809 4992,811 4958,815 4924,822 4894,834 4863,848 4834,866 4806,888 4781,912 4756,937 4735,966 4717,994 4704,1025 4692,1056 4685,1089 4681,1123 4681,1160 4679,1176 4681,1194 4682,1211 4685,1228 4692,1262 4697,1277 4704,1294 4717,1323 4735,1353 4744,1366 4756,1380 4781,1407 4807,1431 4837,1453 4868,1471 4902,1487 4837,2777 5042,2776 5249,2780 5181,1473 5205,1459 5217,1451 5230,1444 5240,1434 5252,1426 5276,1407 5287,1393 5298,1380 5309,1366 5314,1359 5316,1355 5320,1353 5321,1348 5323,1344 5328,1337 5336,1323 5343,1308 5352,1294 5356,1277 5359,1269 5362,1262 5371,1228 5373,1211 5375,1194 5375,1185 5375,1180 5375,1178 5377,1176 "/>
     <path id="_12345678" class="fil43" d="M2653 3879l-86 2 -84 7 -82 12 -79 19 -79 22 -75 28 -73 33 -70 39 -72 44 -70 50 -67 56 -64 63 -49 49 -44 52 -67 86 -30 45 -27 46 -27 46 -23 47 -21 49 -18 51 -18 50 -14 52 -13 52 -8 54 -8 53 -5 56 -4 56 0 58 1 65 4 64 2 31 5 32 11 63 13 60 7 30 9 31 8 28 11 30 22 58 24 54 27 54 14 26 17 27 34 53 37 51 40 50 20 24 22 25 46 49 22 24 41 39 44 37 45 34 46 33 46 30 49 27 50 25 51 25 58 22 60 21 60 17 64 15 63 11 66 8 66 5 70 4 32 -2 33 -1 64 -4 31 -5 15 -2 17 -1 31 -5 32 -5 30 -7 31 -7 14 -5 7 -2 8 -1 31 -7 28 -11 30 -9 28 -11 14 -6 15 -5 54 -26 54 -27 26 -17 6 -5 7 -4 14 -7 26 -17 6 -5 7 -4 14 -7 25 -19 26 -19 50 -39 24 -21 25 -21 24 -22 25 -21 21 -25 22 -24 21 -25 21 -24 39 -50 19 -26 19 -25 7 -14 4 -7 5 -6 17 -26 7 -14 4 -7 5 -6 17 -26 27 -54 26 -54 9 -30 11 -28 9 -30 11 -28 7 -31 1 -8 2 -7 5 -14 7 -31 7 -30 5 -32 5 -31 1 -17 2 -15 5 -31 4 -64 1 -33 2 -32 -4 -66 -4 -64 -8 -64 -9 -62 -14 -62 -15 -59 -20 -58 -20 -56 -26 -57 -27 -54 -32 -53 -32 -51 -38 -52 -39 -50 -43 -49 -44 -46 -49 -46 -25 -22 -24 -20 -50 -40 -51 -37 -53 -34 -27 -17 -26 -14 -54 -27 -54 -24 -58 -22 -30 -11 -28 -8 -31 -9 -30 -7 -60 -13 -63 -11 -32 -5 -31 -2 -64 -4 -65 -1zm650 1927l-36 32 -18 14 -17 15 -19 13 -18 14 -36 27 -39 24 -38 22 -40 20 -6 1 -5 2 -9 5 -19 9 -43 15 -21 6 -20 7 -43 11 -43 11 -45 7 -45 6 -24 1 -23 2 -46 2 -49 -2 -46 -4 -46 -6 -44 -7 -44 -11 -43 -11 -41 -13 -40 -15 -41 -18 -39 -20 -39 -22 -37 -24 -37 -27 -36 -27 -36 -30 -33 -32 -34 -36 -30 -34 -30 -37 -25 -36 -25 -39 -22 -38 -20 -40 -17 -39 -17 -43 -13 -41 -12 -43 -8 -43 -8 -45 -5 -45 -4 -46 0 -46 0 -49 4 -46 5 -46 8 -44 20 -86 30 -82 17 -41 20 -39 22 -39 25 -37 25 -37 30 -36 30 -34 34 -33 33 -34 36 -30 36 -30 37 -25 37 -25 39 -22 39 -20 41 -17 40 -18 41 -13 86 -20 44 -8 46 -5 46 -4 49 0 46 0 46 4 45 5 45 8 43 8 43 12 41 13 43 18 39 17 40 20 38 22 39 25 36 25 37 30 34 30 36 34 32 33 30 34 27 36 27 37 24 37 22 39 20 39 19 41 15 40 13 41 11 43 11 44 7 44 6 46 4 46 1 49 -1 5 0 6 0 12 0 24 -2 22 -1 24 -6 45 -7 45 -11 43 -11 43 -7 20 -6 21 -15 43 -19 39 -20 40 -22 38 -24 39 -27 36 -14 18 -13 19 -15 17 -14 18 -32 36z"/>
     <path id="_123456789" class="fil44" d="M2653 6075l46 -2 23 -2 24 -1 45 -6 45 -7 43 -11 43 -11 20 -7 21 -6 43 -15 19 -9 9 -5 5 -2 6 -1 40 -20 38 -22 39 -24 36 -27 18 -14 19 -13 17 -15 18 -14 36 -32 32 -36 14 -18 15 -17 13 -19 14 -18 27 -36 24 -39 22 -38 20 -40 19 -39 15 -43 6 -21 7 -20 11 -43 11 -43 7 -45 6 -45 1 -24 2 -22 0 -24 0 -12 0 -6 1 -5 -1 -49 -4 -46 -6 -46 -7 -44 -11 -44 -11 -43 -13 -41 -15 -40 -19 -41 -20 -39 -22 -39 -24 -37 -27 -37 -27 -36 -30 -34 -32 -33 -36 -34 -34 -30 -37 -30 -36 -25 -39 -25 -38 -22 -40 -20 -39 -17 -43 -18 -41 -13 -43 -12 -43 -8 -45 -8 -45 -5 -46 -4 -46 0 -49 0 -46 4 -46 5 -44 8 -86 20 -41 13 -40 18 -41 17 -39 20 -39 22 -37 25 -37 25 -36 30 -36 30 -33 34 -34 33 -30 34 -30 36 -25 37 -25 37 -22 39 -20 39 -17 41 -30 82 -20 86 -8 44 -5 46 -4 46 0 49 0 46 4 46 5 45 8 45 8 43 12 43 13 41 17 43 17 39 20 40 22 38 25 39 25 36 30 37 30 34 34 36 33 32 36 30 36 27 37 27 37 24 39 22 39 20 41 18 40 15 41 13 43 11 44 11 44 7 46 6 46 4 49 2zm-169 -1119l-1 24 -4 24 -2 5 -1 2 0 4 -2 12 -7 22 -6 9 -5 11 -12 21 -15 19 -15 19 -11 7 -9 8 -19 15 -21 12 -11 5 -9 6 -22 7 -12 2 -4 0 -2 1 -5 2 -24 4 -24 1 -26 -1 -24 -4 -22 -6 -21 -7 -21 -11 -20 -12 -19 -15 -18 -15 -18 -19 -15 -19 -13 -21 -8 -20 -8 -22 -6 -22 -4 -24 1 -24 -1 -26 4 -24 6 -24 8 -21 8 -21 13 -20 15 -19 18 -18 37 -32 20 -13 21 -8 21 -8 22 -6 24 -4 26 0 24 0 24 4 22 6 22 8 20 8 21 13 19 14 20 18 15 18 15 19 12 20 11 21 7 21 6 24 4 24 1 26z"/>
     <polygon id="_12345678910" class="fil45" points="2412,5128 2428,5109 2443,5090 2455,5069 2460,5058 2466,5049 2473,5026 2475,5014 2475,5011 2476,5008 2479,5004 2482,4980 2483,4956 2482,4930 2479,4907 2473,4883 2466,4862 2455,4840 2443,4820 2428,4801 2412,4783 2392,4766 2373,4751 2352,4738 2332,4730 2309,4722 2287,4716 2263,4712 2240,4712 2214,4712 2190,4716 2167,4722 2146,4730 2125,4738 2105,4751 2068,4783 2050,4801 2035,4820 2022,4840 2013,4862 2005,4883 1999,4907 1996,4930 1997,4956 1996,4980 1999,5004 2005,5026 2013,5049 2022,5069 2035,5090 2050,5109 2068,5128 2086,5143 2105,5159 2125,5171 2146,5181 2167,5188 2190,5194 2214,5198 2240,5199 2263,5198 2287,5194 2292,5192 2294,5191 2298,5191 2309,5188 2332,5181 2341,5175 2352,5171 2373,5159 2392,5143 2402,5135 "/>
     <polygon id="_1234567891011" class="fil41" points="2251,7288 2202,6888 2160,6489 2145,6334 2094,6309 2044,6284 1996,6257 1950,6228 1903,6194 1858,6160 1815,6123 1773,6084 1789,6282 1807,6489 1820,6651 1835,6820 1849,6992 1865,7170 2057,7232 "/>
     <polyline id="_123456789101112" class="fil2 str0" points="7863,4015 7855,3744 7848,3472 7846,3472 7666,3433 7486,3398 7306,3366 7127,3337 6948,3307 6768,3282 6588,3260 6408,3240 6225,3220 6045,3204 5863,3191 5683,3181 5501,3171 5320,3165 5137,3162 4958,3160 4774,3159 4592,3163 4409,3169 4227,3177 4044,3188 3861,3201 3678,3216 3496,3234 3311,3254 3127,3276 2943,3301 2760,3329 2576,3358 2392,3390 2208,3424 2024,3461 2022,3816 2024,4042 "/>
     <polyline id="_12345678910111213" class="fil2 str0" points="8168,6077 8176,6069 8182,6063 8204,6038 8226,6015 8247,5990 8269,5966 8288,5940 8297,5927 8308,5915 8327,5889 8346,5864 8353,5850 8356,5843 8361,5837 8378,5811 8385,5797 8388,5790 8393,5784 8410,5758 8437,5703 8450,5675 8456,5661 8463,5648 8468,5632 8473,5618 8484,5590 8494,5560 8504,5532 8511,5501 8513,5492 8515,5485 8520,5471 8527,5440 8534,5411 8539,5379 8543,5348 8544,5332 8547,5316 8552,5285 8555,5221 8556,5188 8559,5156 8556,5102 8553,5049 8547,4996 8541,4946 8531,4895 8521,4845 8508,4795 8494,4748 8476,4699 8457,4653 8437,4607 8414,4563 8389,4518 8363,4476 8335,4433 8305,4393 8265,4343 8224,4297 "/>
     <polyline id="_1234567891011121314" class="fil2 str0" points="8224,4297 8202,4273 8182,4253 8143,4215 8105,4181 8066,4148 8027,4118 7986,4089 7945,4062 7904,4038 7863,4015 "/>
     <polyline id="_123456789101112131415" class="fil2 str0" points="1865,7170 1813,7151 1764,7134 1772,7228 1783,7321 1793,7414 1807,7506 1822,7595 1838,7684 1855,7771 1874,7859 1893,7943 1914,8027 1935,8110 1960,8193 1984,8272 2011,8351 2038,8430 2068,8508 2109,8523 2183,8546 2257,8569 2406,8613 2480,8633 2554,8654 2704,8693 2739,8702 2776,8711 2849,8730 2996,8766 3032,8773 3049,8776 3068,8781 3142,8798 3288,8830 3359,8843 3432,8857 3576,8884 3647,8895 3719,8907 3864,8929 3880,8930 3898,8933 3934,8937 4005,8947 4147,8965 4216,8972 4288,8980 4430,8993 4507,8998 4585,9004 4741,9013 4818,9015 4896,9018 5052,9021 5128,9020 5205,9020 5359,9018 5435,9014 5473,9012 5491,9011 5512,9011 5587,9006 5625,9004 5644,9002 5664,9002 5804,8989 5874,8982 5945,8976 6085,8960 6154,8950 6225,8942 6363,8920 6431,8908 6448,8904 6466,8902 6501,8897 6639,8871 6776,8844 6911,8812 7046,8779 7112,8760 7145,8750 7162,8746 7180,8742 7315,8705 7447,8664 7580,8620 7645,8596 7711,8574 7844,8527 7873,8515 7890,8508 7902,8469 7915,8433 7960,8279 7981,8201 8002,8124 8016,8063 8024,8032 8025,8023 8027,8016 8032,8002 8045,7941 8059,7880 8084,7757 8106,7634 8116,7570 8121,7538 8127,7507 8146,7382 8161,7254 8176,7126 8122,7144 8070,7163 "/>
     <polyline id="_12345678910111213141516" class="fil2 str0" points="7788,6334 7768,6573 7745,6812 7732,6931 7721,7050 7706,7169 7699,7228 7697,7242 7696,7249 7696,7258 7693,7288 "/>
     <polyline id="_1234567891011121314151617" class="fil2 str0" points="8070,7163 7880,7227 7693,7288 "/>
     <polyline id="_123456789101112131415161718" class="fil2 str0" points="7693,7288 7431,7366 7084,7107 6779,7520 6571,7558 6467,7576 6365,7593 6157,7621 6053,7634 6000,7640 5950,7647 5741,7666 5533,7680 5325,7690 5116,7697 4905,7697 4800,7694 4696,7692 4485,7683 4380,7675 4276,7668 4065,7649 3854,7626 3748,7612 3642,7597 3432,7564 3355,7552 3300,7542 3150,7512 2843,7107 2496,7364 2251,7288 "/>
     <polyline id="_12345678910111213141516171819" class="fil2 str0" points="8070,7163 8085,7028 8092,6960 8101,6894 8114,6759 8116,6725 8119,6692 8127,6625 8137,6488 8149,6352 8159,6215 8168,6077 "/>
     <polyline id="_1234567891011121314151617181920" class="fil2 str0" points="7788,6334 7838,6309 7850,6302 7852,6300 7855,6299 7863,6296 7889,6283 7912,6268 7937,6254 7961,6238 7986,6224 7996,6215 8008,6206 8032,6190 8043,6180 8054,6172 8078,6155 8123,6116 8168,6077 "/>
     <polyline id="_123456789101112131415161718192021" class="fil2 str0" points="5249,2780 5611,2793 5792,2804 5974,2817 6157,2832 6339,2850 6521,2870 6705,2893 6887,2918 7069,2945 7252,2975 7436,3007 7619,3041 7803,3078 7987,3117 8172,3158 8181,3302 8191,3447 8198,3590 8201,3661 8206,3733 8211,3874 8217,4016 8220,4156 8220,4190 8221,4226 8224,4297 "/>
     <polyline id="_12345678910111213141516171819202122" class="fil2 str0" points="5249,2780 5181,1473 5205,1459 5217,1451 5230,1444 5240,1434 5252,1426 5276,1407 5287,1393 5298,1380 5309,1366 5314,1359 5316,1355 5320,1353 5321,1348 5323,1344 5328,1337 5336,1323 5343,1308 5352,1294 5356,1277 5359,1269 5362,1262 5371,1228 5373,1211 5375,1194 5375,1185 5375,1180 5375,1178 5377,1176 5378,1160 5375,1123 5371,1089 5362,1056 5352,1025 5336,994 5320,966 5298,937 5276,912 5249,888 5235,876 5222,866 5192,848 5177,840 5162,834 5146,827 5130,822 5097,815 5079,812 5063,811 5029,809 4992,811 4958,815 4924,822 4894,834 4863,848 4834,866 4806,888 4781,912 4756,937 4735,966 4717,994 4704,1025 4692,1056 4685,1089 4681,1123 4681,1160 4679,1176 4681,1194 4682,1211 4685,1228 4692,1262 4697,1277 4704,1294 4717,1323 4735,1353 4744,1366 4756,1380 4781,1407 4807,1431 4837,1453 4868,1471 4902,1487 4837,2777 "/>
     <polyline id="_1234567891011121314151617181920212223" class="fil2 str0" points="4837,2777 5042,2776 5249,2780 "/>
     <polyline id="_123456789101112131415161718192021222324" class="fil2 str0" points="7863,4015 7828,3997 7795,3982 7726,3955 7655,3931 7619,3920 7583,3912 7509,3897 7433,3887 7394,3883 7356,3880 7278,3879 7190,3881 7106,3888 7024,3900 6945,3919 6866,3942 6791,3970 6718,4003 6648,4042 6576,4086 6506,4136 6438,4191 6373,4253 6325,4302 6282,4352 6215,4439 6185,4484 6158,4530 6131,4576 6108,4625 6087,4673 6069,4724 6051,4774 6037,4826 6024,4878 6016,4933 6008,4986 6002,5041 5998,5156 5999,5221 6003,5285 6005,5316 6010,5348 6021,5411 6034,5471 6041,5501 6050,5532 6058,5560 6069,5590 6092,5648 6102,5675 6115,5703 6143,5758 6157,5784 6173,5811 6208,5864 6244,5915 6263,5940 6285,5966 6305,5990 6327,6015 6373,6063 6397,6086 6438,6125 6482,6161 6527,6196 6573,6230 6620,6260 6668,6287 6718,6312 6769,6337 6827,6359 6887,6379 6948,6396 7011,6411 7075,6422 7142,6430 7208,6435 7278,6437 7311,6436 7328,6435 7345,6435 7378,6432 7413,6430 7445,6425 7478,6422 7485,6419 7489,6418 7493,6418 7510,6416 7543,6411 7574,6403 7606,6396 7667,6378 7681,6372 7697,6367 7728,6357 7757,6345 7788,6334 "/>
     <polyline id="_12345678910111213141516171819202122232425" class="fil2 str0" points="1658,4355 1656,4290 1654,4228 1651,4170 1651,4115 1649,4061 1649,4012 1649,3964 1650,3920 1650,3867 1650,3816 1650,3737 1650,3664 1650,3595 1652,3531 1652,3472 1652,3418 1652,3370 1655,3327 1655,3287 1655,3254 1655,3226 1655,3212 1656,3202 1656,3183 1656,3169 1656,3159 1658,3157 1855,3111 2053,3068 2249,3029 2448,2992 2646,2958 2844,2927 3043,2899 3242,2874 3440,2851 3639,2831 3838,2815 4038,2802 4237,2791 4437,2783 4636,2778 4837,2777 "/>
     <polyline id="_1234567891011121314151617181920212223242526" class="fil2 str0" points="2145,6334 2203,6357 2263,6378 2324,6395 2388,6410 2450,6421 2517,6429 2583,6434 2653,6437 2685,6435 2718,6434 2782,6430 2813,6425 2828,6423 2844,6422 2875,6417 2907,6412 2937,6405 2968,6398 2982,6393 2989,6391 2997,6390 3028,6383 3056,6372 3086,6363 3114,6352 3129,6346 3144,6341 3198,6315 3253,6288 3279,6271 3285,6267 3292,6263 3306,6256 3332,6239 3338,6235 3345,6231 3359,6224 3384,6205 3410,6186 3460,6147 3484,6126 3509,6105 3532,6082 3557,6061 3578,6036 3601,6012 3622,5987 3644,5964 3683,5914 3702,5888 3720,5863 3728,5849 3731,5842 3736,5836 3752,5810 3760,5796 3763,5788 3768,5783 3784,5756 3812,5702 3838,5648 3847,5618 3858,5590 3867,5560 3878,5532 3885,5501 3886,5492 3889,5485 3893,5471 3900,5440 3908,5411 3912,5379 3917,5348 3918,5332 3921,5316 3925,5285 3929,5221 3930,5188 3932,5156 3929,5090 3925,5026 3917,4962 3908,4901 3893,4839 3878,4780 3858,4722 3838,4666 3812,4609 3784,4555 3752,4502 3720,4451 3683,4399 3644,4349 3601,4300 3557,4254 3509,4208 3484,4186 3460,4165 3410,4125 3359,4089 3306,4054 3279,4038 3253,4023 3198,3996 3144,3972 3086,3950 3056,3939 3028,3931 2997,3922 2968,3914 2907,3901 2844,3891 2813,3886 2782,3884 2718,3880 2653,3879 2566,3881 2482,3888 2401,3900 2321,3919 2242,3942 2167,3970 2094,4003 2024,4042 "/>
     <polyline id="_123456789101112131415161718192021222324252627" class="fil2 str0" points="2024,4042 1952,4086 1882,4136 1815,4191 1751,4254 1702,4303 1658,4355 "/>
     <polyline id="_12345678910111213141516171819202122232425262728" class="fil2 str0" points="1658,4355 1591,4441 1561,4486 1534,4532 1507,4579 1484,4626 1463,4674 1445,4725 1427,4775 1413,4827 1400,4879 1392,4934 1384,4987 1379,5043 1375,5098 1375,5156 1377,5221 1380,5285 1382,5316 1387,5348 1398,5411 1411,5471 1418,5501 1427,5532 1436,5560 1446,5590 1469,5648 1493,5702 1520,5756 1534,5783 1551,5810 1585,5863 1622,5914 1662,5964 1682,5987 1704,6012 1751,6061 1773,6084 "/>
     <polyline id="_1234567891011121314151617181920212223242526272829" class="fil2 str0" points="2251,7288 2202,6888 2160,6489 2145,6334 "/>
     <polyline id="_123456789101112131415161718192021222324252627282930" class="fil2 str0" points="2251,7288 2057,7232 1865,7170 "/>
     <polyline id="_12345678910111213141516171819202122232425262728293031" class="fil2 str0" points="1773,6084 1789,6282 1807,6489 1820,6651 1835,6820 1849,6992 1865,7170 "/>
     <polyline id="_1234567891011121314151617181920212223242526272829303132" class="fil2 str0" points="1773,6084 1815,6123 1858,6160 1903,6194 1950,6228 1996,6257 2044,6284 2094,6309 2145,6334 "/>
    </g>
   </g>
   <polyline class="fil2" points="1189,9208 8744,9208 8744,624 1189,624 1189,9208 "/>
   <g>
    <polygon class="fil2" points="1229,664 8704,664 8704,9168 1229,9168 "/>
   </g>
  </g>
 </g>
</svg>
