<?xml version="1.0" encoding="UTF-8"?>
<!DOCTYPE svg PUBLIC "-//W3C//DTD SVG 1.1//EN" "http://www.w3.org/Graphics/SVG/1.1/DTD/svg11.dtd">
<!-- Creator: CorelDRAW -->
<svg xmlns="http://www.w3.org/2000/svg" xml:space="preserve" width="80mm" height="80mm" style="shape-rendering:geometricPrecision; text-rendering:geometricPrecision; image-rendering:optimizeQuality; fill-rule:evenodd; clip-rule:evenodd"
viewBox="0 0 80 80"
 xmlns:xlink="http://www.w3.org/1999/xlink">
 <defs>
  <style type="text/css">
   <![CDATA[
    .str0 {stroke:black;stroke-width:1.1066}
    .fil6 {fill:none}
    .fil4 {fill:#253952}
    .fil1 {fill:#98B1D1}
    .fil2 {fill:#D8E1ED}
    .fil3 {fill:#FFF5B3}
    .fil5 {fill:white}
    .fil0 {fill:url(#id1)}
   ]]>
  </style>
   <clipPath id="id0">
    <rect x="6.6833" y="2.1472" width="66.6334" height="75.7056"/>
   </clipPath>
  <radialGradient id="id1" gradientUnits="userSpaceOnUse" cx="40" cy="40" r="38.1" fx="40" fy="40">
   <stop offset="0" style="stop-color:#A82682"/>
   <stop offset="1" style="stop-color:#834E98"/>
  </radialGradient>
 </defs>
 <g id="Layer_x0020_1">
  <metadata id="CorelCorpID_0Corel-Layer"/>
  <rect class="fil0" width="80" height="80" rx="10.4987" ry="10.4987"/>
  <g style="clip-path:url(#id0)">
   <polygon class="fil1" points="65.4159,27.2634 65.4785,29.6645 65.5412,32.0553 65.9065,32.2536 66.2719,32.4729 66.6269,32.7025 66.9923,32.9635 67.3368,33.2245 67.6813,33.5168 68.0154,33.8196 68.3599,34.1537 68.5374,34.3312 68.7253,34.54 68.7044,33.9136 68.694,33.6004 68.694,33.2976 68.6627,32.0657 68.6105,30.8129 68.5687,29.5706 68.527,28.9337 68.4956,28.3074 68.433,27.0441 68.3495,25.7705 68.266,24.4968 66.6373,24.1314 65.0192,23.7869 63.3905,23.4633 61.7828,23.1605 60.1542,22.8786 58.5464,22.6176 56.9387,22.3775 55.331,22.1583 53.7128,21.9599 52.105,21.7824 50.4973,21.6258 48.8896,21.4901 47.2818,21.3753 45.6845,21.2813 42.4899,21.1665 40.6629,21.1247 38.8568,21.1352 37.0821,21.1456 35.3282,21.1874 33.5638,21.2604 31.8099,21.3544 30.0456,21.4692 28.2917,21.6154 26.5378,21.7929 24.7943,21.9912 23.0404,22.2105 21.2865,22.461 19.5326,22.7325 17.7892,23.0352 16.0353,23.3589 14.3023,23.7034 12.5588,24.0792 10.8258,24.4864 10.8049,24.5072 10.8049,24.5908 10.8049,24.716 10.8049,24.8831 10.7945,24.977 10.7945,25.0919 10.7945,25.3424 10.7945,25.6347 10.7945,25.9897 10.7736,26.3655 10.7736,26.7936 10.7736,27.2634 10.7736,27.7854 10.7527,28.3491 10.7527,28.9546 10.7527,29.6019 10.7527,30.3014 10.7527,30.7503 10.7527,31.2201 10.7423,31.6063 10.7423,32.0239 10.7423,32.4624 10.7631,32.9322 10.7631,33.4229 10.784,33.9344 10.8049,34.4773 10.8258,35.0515 11.212,34.5922 11.6401,34.1641 12.2038,33.6108 12.7989,33.1201 13.4149,32.6817 14.0517,32.2954 14.0308,30.3014 14.0517,27.1694 15.6699,26.8458 17.2985,26.543 18.9167,26.2611 20.5453,26.0001 22.153,25.76 23.7817,25.5408 25.3998,25.3424 27.0285,25.165 28.6362,25.0084 30.2544,24.8726 31.8621,24.7578 33.4803,24.6638 35.088,24.5908 36.6958,24.5386 38.3035,24.5072 39.9217,24.5177 41.5086,24.5281 43.1163,24.5594 44.7136,24.6116 46.3213,24.6952 47.9082,24.7891 49.5159,24.904 51.1028,25.0397 52.7105,25.2171 54.2974,25.3946 55.8843,25.593 57.4711,25.8122 59.058,26.0732 60.6344,26.3342 62.2213,26.6161 63.8081,26.9188 65.395,27.2634 "/>
   <polygon id="1" class="fil2" points="65.5412,32.0553 65.4785,29.6645 65.4159,27.2634 65.395,27.2634 63.8081,26.9188 62.2213,26.6161 60.6344,26.3342 59.058,26.0732 57.4711,25.8122 55.8843,25.593 54.2974,25.3946 52.7105,25.2171 51.1028,25.0397 49.5159,24.904 47.9082,24.7891 46.3213,24.6952 44.7136,24.6116 43.1163,24.5594 41.5086,24.5281 39.9217,24.5177 38.3035,24.5072 36.6958,24.5386 35.088,24.5908 33.4803,24.6638 31.8621,24.7578 30.2544,24.8726 28.6362,25.0084 27.0285,25.165 25.3998,25.3424 23.7817,25.5408 22.153,25.76 20.5453,26.0001 18.9167,26.2611 17.2985,26.543 15.6699,26.8458 14.0517,27.1694 14.0308,30.3014 14.0517,32.2954 14.6676,31.9509 15.3149,31.6585 15.9726,31.408 16.6721,31.2096 17.3716,31.0426 18.0919,30.9382 18.8332,30.8756 19.5953,30.8547 20.1695,30.8651 20.7332,30.8964 21.0047,30.9173 21.2865,30.9591 21.8398,31.053 22.3723,31.1679 22.6333,31.2305 22.9047,31.314 23.1553,31.3871 23.4163,31.4811 23.9278,31.6794 24.408,31.8882 24.8883,32.1283 25.118,32.2536 25.3581,32.3998 25.8279,32.7025 26.2768,33.0262 26.7153,33.3811 26.9241,33.5586 27.1433,33.757 27.5713,34.1641 27.9576,34.5713 28.3334,34.9993 28.678,35.4378 29.012,35.8971 29.2939,36.346 29.5758,36.8158 29.8159,37.2961 30.0456,37.7972 30.2231,38.2879 30.4005,38.7994 30.5363,39.3214 30.6615,39.8643 30.7451,40.4072 30.8181,40.9709 30.8495,41.5347 30.8808,42.1193 30.8599,42.4012 30.8495,42.6935 30.8181,43.2572 30.7764,43.5287 30.7555,43.6644 30.7451,43.8106 30.7033,44.082 30.6615,44.3639 30.5989,44.6249 30.5363,44.8963 30.4945,45.0216 30.4736,45.0842 30.4632,45.1573 30.4005,45.4287 30.3066,45.6793 30.2231,45.9403 30.1291,46.1908 30.0456,46.4518 29.8159,46.9321 29.5758,47.4123 29.4296,47.642 29.3879,47.6942 29.3565,47.7568 29.2939,47.8821 29.1478,48.1118 29.106,48.164 29.0747,48.2266 29.012,48.3519 28.845,48.5711 28.678,48.8008 28.3334,49.2393 28.1455,49.4481 27.9576,49.6673 27.7592,49.8761 27.5713,50.0954 27.3521,50.2833 27.1433,50.4816 26.9241,50.6695 26.7153,50.8575 26.2768,51.202 26.0471,51.369 25.8279,51.5361 25.7026,51.5987 25.64,51.63 25.5878,51.6718 25.3581,51.8179 25.2328,51.8806 25.1702,51.9119 25.118,51.9536 24.8883,52.0998 24.408,52.3399 23.9278,52.5696 23.7921,52.6114 23.6668,52.6636 23.4163,52.7575 23.1553,52.841 22.9047,52.935 22.6333,52.9976 22.5602,53.0081 22.4976,53.029 22.3723,53.0707 22.1008,53.1334 21.8398,53.196 21.558,53.2378 21.2865,53.2795 21.1404,53.29 21.0047,53.3108 20.7332,53.3526 20.1695,53.3839 19.8771,53.3943 19.5953,53.4152 18.9793,53.3839 18.3947,53.3422 17.81,53.2691 17.2567,53.1751 16.693,53.0394 16.1605,52.8932 15.6281,52.7053 15.1166,52.507 15.2523,53.8746 15.6177,57.3928 16.0562,60.9215 18.2172,61.5896 21.2761,59.3242 23.98,62.8946 25.3059,63.1556 25.7861,63.2496 26.4647,63.354 28.323,63.6463 29.2522,63.7716 30.1917,63.8969 32.05,64.1057 33.9083,64.2727 34.827,64.3353 35.7562,64.398 37.6145,64.4815 38.5332,64.5024 39.4623,64.5232 41.3206,64.5232 43.1581,64.4606 44.9955,64.3771 46.8329,64.2518 48.6703,64.0848 49.1192,64.0221 49.5786,63.9699 50.4973,63.8551 52.3347,63.6045 53.2325,63.4584 54.1512,63.3018 55.9887,62.9677 58.6717,59.3242 61.7306,61.6105 64.0482,60.9215 64.0691,60.6501 64.0691,60.577 64.0796,60.5143 64.1004,60.3891 64.1631,59.8671 64.2884,58.8231 64.3928,57.7687 64.5076,56.7247 64.706,54.6158 64.8834,52.507 64.612,52.6009 64.351,52.7053 64.0796,52.7993 63.9439,52.841 63.8186,52.8932 63.2757,53.0498 62.9938,53.1125 62.7224,53.1856 62.4301,53.2273 62.2839,53.2482 62.2422,53.2482 62.2108,53.2586 62.1482,53.2795 61.8559,53.3108 61.574,53.3526 61.2712,53.3735 60.9789,53.3943 60.8223,53.3943 60.6762,53.4048 60.3839,53.4152 59.7679,53.3943 59.1833,53.3526 58.5986,53.2795 58.0349,53.1856 57.4711,53.0498 56.9387,52.9037 56.4063,52.7262 55.8947,52.5278 55.4458,52.3086 55.0073,52.0894 54.5793,51.8492 54.1721,51.5883 53.765,51.2855 53.3683,50.9827 52.982,50.6591 52.6166,50.3146 52.4078,50.1162 52.0006,49.6882 51.8023,49.469 51.6248,49.2602 51.4369,49.0305 51.2698,48.8112 50.9462,48.3623 50.6435,47.8925 50.4973,47.6524 50.372,47.4227 50.1319,46.9425 50.0171,46.692 49.9231,46.4518 49.7247,45.9403 49.6308,45.6793 49.5577,45.4287 49.4742,45.1573 49.4115,44.8963 49.2967,44.3639 49.2027,43.8106 49.161,43.5287 49.1401,43.2572 49.1088,42.6935 49.0984,42.1193 49.1297,41.1066 49.1819,40.616 49.2549,40.1462 49.328,39.6659 49.4429,39.2066 49.5681,38.7472 49.7247,38.3087 49.8813,37.8598 50.0693,37.4318 50.2676,37.0038 50.5077,36.5966 50.7479,36.1894 51.0088,35.7927 51.6039,35.0306 51.9798,34.5817 52.4078,34.1537 52.982,33.6108 53.5771,33.1201 54.193,32.6817 54.8298,32.2954 55.4458,31.9509 56.0931,31.6585 56.7508,31.408 57.4502,31.2096 58.1497,31.0426 58.8701,30.9382 59.6113,30.8756 60.3839,30.8547 61.0729,30.8651 61.407,30.886 61.7515,30.9278 62.4196,31.0113 63.0773,31.147 63.3905,31.2201 63.7142,31.314 64.3406,31.5228 64.9461,31.7629 65.2384,31.8987 "/>
   <path id="12" class="fil3" d="M69.4457 35.3856l-0.355 -0.4385 -0.3654 -0.4071 -0.1879 -0.2088 -0.1775 -0.1775 -0.3445 -0.3341 -0.3341 -0.3028 -0.3445 -0.2923 -0.3445 -0.261 -0.3654 -0.261 -0.355 -0.2296 -0.3654 -0.2193 -0.3653 -0.1983 -0.3028 -0.1566 -0.2923 -0.1358 -0.6055 -0.2401 -0.6264 -0.2088 -0.3237 -0.0939 -0.3132 -0.0731 -0.6577 -0.1357 -0.6681 -0.0835 -0.3445 -0.0418 -0.3341 -0.0209 -0.689 -0.0104 -0.7726 0.0209 -0.7412 0.0626 -0.7204 0.1044 -0.6995 0.167 -0.6994 0.1984 -0.6577 0.2505 -0.6473 0.2924 -0.616 0.3445 -0.6368 0.3863 -0.6159 0.4384 -0.5951 0.4907 -0.5742 0.5429 -0.428 0.428 -0.3759 0.4489 -0.5951 0.7621 -0.2609 0.3967 -0.2402 0.4072 -0.2401 0.4072 -0.1983 0.428 -0.188 0.428 -0.1566 0.4489 -0.1566 0.4385 -0.1252 0.4594 -0.1149 0.4593 -0.0731 0.4803 -0.073 0.4698 -0.0522 0.4906 -0.0313 1.0127 0.0104 0.5742 0.0313 0.5637 0.0209 0.2715 0.0417 0.2819 0.094 0.5533 0.1148 0.5324 0.0627 0.261 0.0835 0.2714 0.0731 0.2506 0.0939 0.261 0.1984 0.5115 0.094 0.2402 0.1148 0.2505 0.2401 0.4802 0.1253 0.2297 0.1462 0.2401 0.3027 0.4698 0.3236 0.4489 0.1671 0.2193 0.1879 0.2297 0.1775 0.2088 0.1983 0.2192 0.4072 0.428 0.2088 0.1984 0.3654 0.3445 0.3863 0.3236 0.3967 0.3028 0.4071 0.3028 0.4072 0.2609 0.428 0.2402 0.4385 0.2192 0.4489 0.2192 0.5116 0.1984 0.5324 0.1775 0.5324 0.1461 0.5638 0.1358 0.5637 0.0939 0.5847 0.0731 0.5846 0.0417 0.616 0.0209 0.2923 -0.0104 0.1461 -0.0105 0.1566 0 0.2923 -0.0208 0.3028 -0.0209 0.2819 -0.0418 0.2923 -0.0313 0.0626 -0.0209 0.0314 -0.0104 0.0417 0 0.1462 -0.0209 0.2923 -0.0417 0.2714 -0.0731 0.2819 -0.0627 0.5429 -0.1566 0.1253 -0.0522 0.1357 -0.0417 0.2714 -0.094 0.261 -0.1044 0.2714 -0.0939 0.4385 -0.2193 0.1044 -0.0626 0.0209 -0.0209 0.0313 -0.0104 0.0627 -0.0209 0.2296 -0.1149 0.2088 -0.1357 0.2193 -0.1252 0.2088 -0.1358 0.2192 -0.1252 0.094 -0.0836 0.1044 -0.073 0.2088 -0.1462 0.0939 -0.0835 0.1044 -0.0731 0.2088 -0.1462 0.3967 -0.3445 0.3967 -0.3445 0.0731 -0.0731 0.0522 -0.0522 0.1879 -0.2192 0.1984 -0.2088 0.1879 -0.2192 0.1879 -0.2088 0.1671 -0.2297 0.0835 -0.1149 0.0939 -0.1044 0.1671 -0.2296 0.167 -0.2193 0.0627 -0.1252 0.0313 -0.0627 0.0417 -0.0522 0.1462 -0.2297 0.0626 -0.1252 0.0314 -0.0627 0.0417 -0.0522 0.1462 -0.2297 0.2401 -0.4802 0.1148 -0.2505 0.0522 -0.1253 0.0627 -0.1149 0.0417 -0.1357 0.0522 -0.1253 0.094 -0.2505 0.0835 -0.261 0.094 -0.2506 0.0626 -0.2714 0.0104 -0.0731 0.0209 -0.0626 0.0418 -0.1253 0.0626 -0.2714 0.0627 -0.261 0.0417 -0.2819 0.0418 -0.2714 0.0104 -0.1462 0.0209 -0.1357 0.0418 -0.2715 0.0313 -0.5637 0.0104 -0.2923 0.0209 -0.2819 -0.0209 -0.4802 -0.0313 -0.4698 -0.0522 -0.4594 -0.0522 -0.4489 -0.0835 -0.4489 -0.094 -0.4385 -0.1148 -0.4385 -0.1253 -0.4176 -0.1566 -0.428 -0.167 -0.4071 -0.1775 -0.4072 -0.1984 -0.3863 -0.2192 -0.3967 -0.2297 -0.3758 -0.2505 -0.3759 -0.261 -0.3549zm-3.8837 0.4907l0.2715 0.2401 0.2818 0.2818 0.2819 0.2924 0.261 0.3027 0.2401 0.3132 0.2402 0.3237 0.2087 0.3236 0.1984 0.3445 0.1775 0.3445 0.167 0.3654 0.1357 0.355 0.1149 0.3654 0.0939 0.3758 0.094 0.3863 0.0626 0.3862 0.0522 0.4072 0.0314 0.4072 0.0104 0.428 -0.0104 0.0418 0 0.0522 0 0.1044 0 0.2087 -0.0209 0.1984 -0.0105 0.2088 -0.0522 0.3967 -0.0626 0.3967 -0.094 0.3759 -0.0939 0.3758 -0.0627 0.1775 -0.0522 0.1879 -0.1357 0.3758 -0.167 0.3445 -0.1775 0.355 -0.1984 0.3341 -0.2087 0.3445 -0.2402 0.3132 -0.1252 0.1566 -0.1149 0.167 -0.1357 0.1462 -0.1253 0.1566 -0.2819 0.3132 -0.1252 0.1044 -0.0627 0.0522 -0.0522 0.0626 -0.2297 0.2088 -0.2505 0.1984 -0.1253 0.0939 -0.1148 0.1044 -0.2715 0.1775 -0.1357 0.0835 -0.1253 0.094 -0.5428 0.3132 -0.2923 0.1357 -0.2819 0.1253 -0.2923 0.1148 -0.1462 0.0522 -0.1357 0.0627 -0.3132 0.0835 -0.0835 0.0104 -0.0731 0.0209 -0.1462 0.0418 -0.3132 0.0626 -0.3027 0.0626 -0.3341 0.0418 -0.167 0.0104 -0.1566 0.0209 -0.3341 0.0209 -0.167 0 -0.0836 0 -0.0417 0 -0.0313 0.0104 -0.4281 -0.0104 -0.4071 -0.0313 -0.4072 -0.0522 -0.3863 -0.0627 -0.3967 -0.0939 -0.3758 -0.094 -0.3759 -0.1148 -0.3549 -0.1357 -0.3654 -0.1671 -0.3445 -0.1775 -0.3445 -0.1983 -0.3237 -0.2088 -0.3236 -0.2401 -0.3132 -0.2401 -0.3028 -0.261 -0.2923 -0.2819 -0.3027 -0.3132 -0.261 -0.3028 -0.261 -0.3236 -0.2193 -0.3132 -0.2192 -0.3445 -0.1984 -0.3341 -0.1774 -0.355 -0.1462 -0.3445 -0.1566 -0.3758 -0.1148 -0.3654 -0.1044 -0.3758 -0.0731 -0.3759 -0.0731 -0.3967 -0.0417 -0.3967 -0.0314 -0.4072 0 -0.4071 0 -0.428 0.0314 -0.4072 0.0417 -0.4072 0.0731 -0.3862 0.1775 -0.7621 0.1148 -0.3654 0.1566 -0.355 0.1462 -0.3654 0.1774 -0.3445 0.1984 -0.3445 0.2192 -0.3236 0.2193 -0.3237 0.261 -0.3132 0.261 -0.3027 0.3027 -0.2924 0.5951 -0.5741 0.3132 -0.261 0.3236 -0.2193 0.3237 -0.2192 0.3445 -0.1984 0.3445 -0.1775 0.3654 -0.1461 0.3549 -0.1566 0.3759 -0.1148 0.3758 -0.1044 0.3967 -0.0731 0.3863 -0.0731 0.4072 -0.0418 0.4071 -0.0313 0.4281 0 0.3549 0 0.3654 0.0209 0.355 0.0313 0.3549 0.0627 0.3341 0.0522 0.3445 0.0835 0.3341 0.0939 0.3341 0.1149 0.3132 0.1148 0.3132 0.1462 0.3027 0.1461 0.3132 0.1775 0.2923 0.1775 0.2923 0.1983 0.2819 0.2088 0.2923 0.2402z"/>
   <path id="123" class="fil4" d="M66.1153 36.3982l-0.2818 -0.2818 -0.2715 -0.2401 -0.2923 -0.2402 -0.2819 -0.2088 -0.2923 -0.1983 -0.2923 -0.1775 -0.3132 -0.1775 -0.3027 -0.1461 -0.3132 -0.1462 -0.3132 -0.1148 -0.3341 -0.1149 -0.3341 -0.0939 -0.3445 -0.0835 -0.3341 -0.0522 -0.3549 -0.0627 -0.355 -0.0313 -0.3654 -0.0209 -0.3549 0 -0.4281 0 -0.4071 0.0313 -0.4072 0.0418 -0.3863 0.0731 -0.3967 0.0731 -0.3758 0.1044 -0.3759 0.1148 -0.3549 0.1566 -0.3654 0.1461 -0.3445 0.1775 -0.3445 0.1984 -0.3237 0.2192 -0.3236 0.2193 -0.3132 0.261 -0.5951 0.5741 -0.3027 0.2924 -0.261 0.3027 -0.261 0.3132 -0.2193 0.3237 -0.2192 0.3236 -0.1984 0.3445 -0.1774 0.3445 -0.1462 0.3654 -0.1566 0.355 -0.1148 0.3654 -0.1775 0.7621 -0.0731 0.3862 -0.0417 0.4072 -0.0314 0.4072 0 0.428 0 0.4071 0.0314 0.4072 0.0417 0.3967 0.0731 0.3967 0.0731 0.3759 0.1044 0.3758 0.1148 0.3654 0.1566 0.3758 0.1462 0.3445 0.1774 0.355 0.1984 0.3341 0.2192 0.3445 0.2193 0.3132 0.261 0.3236 0.261 0.3028 0.3027 0.3132 0.2923 0.2819 0.3028 0.261 0.3132 0.2401 0.3236 0.2401 0.3237 0.2088 0.3445 0.1983 0.3445 0.1775 0.3654 0.1671 0.3549 0.1357 0.3759 0.1148 0.3758 0.094 0.3967 0.0939 0.3863 0.0627 0.4072 0.0522 0.4071 0.0313 0.4281 0.0104 0.0313 -0.0104 0.0417 0 0.0836 0 0.167 0 0.3341 -0.0209 0.1566 -0.0209 0.167 -0.0104 0.3341 -0.0418 0.3027 -0.0626 0.3132 -0.0626 0.1462 -0.0418 0.0731 -0.0209 0.0835 -0.0104 0.3132 -0.0835 0.1357 -0.0627 0.1462 -0.0522 0.2923 -0.1148 0.2819 -0.1253 0.2923 -0.1357 0.5428 -0.3132 0.1253 -0.094 0.1357 -0.0835 0.2715 -0.1775 0.1148 -0.1044 0.1253 -0.0939 0.2505 -0.1984 0.2297 -0.2088 0.0522 -0.0626 0.0627 -0.0522 0.1252 -0.1044 0.2819 -0.3132 0.1253 -0.1566 0.1357 -0.1462 0.1149 -0.167 0.1252 -0.1566 0.2402 -0.3132 0.2087 -0.3445 0.1984 -0.3341 0.1775 -0.355 0.167 -0.3445 0.1357 -0.3758 0.0522 -0.1879 0.0627 -0.1775 0.0939 -0.3758 0.094 -0.3759 0.0626 -0.3967 0.0522 -0.3967 0.0105 -0.2088 0.0209 -0.1984 0 -0.2087 0 -0.1044 0 -0.0522 0.0104 -0.0418 -0.0104 -0.428 -0.0314 -0.4072 -0.0522 -0.4072 -0.0626 -0.3862 -0.094 -0.3863 -0.0939 -0.3758 -0.1149 -0.3654 -0.1357 -0.355 -0.167 -0.3654 -0.1775 -0.3445 -0.1984 -0.3445 -0.2087 -0.3236 -0.2402 -0.3237 -0.2401 -0.3132 -0.261 -0.3027 -0.2819 -0.2924zm-11.5256 3.9568l-0.0104 -0.2297 0.0313 -0.2088 0.0522 -0.2088 0.0731 -0.1879 0.0731 -0.188 0.1148 -0.1774 0.1357 -0.1671 0.1566 -0.1566 0.3237 -0.2818 0.1774 -0.1149 0.1879 -0.0731 0.188 -0.073 0.2088 -0.0522 0.2088 -0.0314 0.2296 0 0.2088 0 0.2088 0.0314 0.1984 0.0522 0.1983 0.073 0.1775 0.0731 0.1879 0.1149 0.1671 0.1252 0.167 0.1566 0.1357 0.1566 0.1358 0.1671 0.1044 0.1774 0.0939 0.188 0.0627 0.1879 0.0522 0.2088 0.0313 0.2088 0.0104 0.2297 -0.0104 0.2088 -0.0313 0.2088 -0.0209 0.0417 -0.0105 0.0209 0 0.0313 -0.0208 0.1044 -0.0627 0.1984 -0.0522 0.0835 -0.0417 0.0939 -0.1044 0.188 -0.1358 0.167 -0.1357 0.167 -0.167 0.1358 -0.1671 0.1357 -0.1879 0.1044 -0.0939 0.0417 -0.0836 0.0522 -0.1983 0.0627 -0.1044 0.0209 -0.0313 0 -0.0209 0.0104 -0.0418 0.0209 -0.2088 0.0313 -0.2088 0.0104 -0.2296 -0.0104 -0.2088 -0.0313 -0.2088 -0.0522 -0.188 -0.0627 -0.1879 -0.0939 -0.1774 -0.1044 -0.1671 -0.1357 -0.1566 -0.1358 -0.1566 -0.167 -0.1357 -0.167 -0.1148 -0.188 -0.0731 -0.1774 -0.0731 -0.1984 -0.0522 -0.1983 -0.0313 -0.2088 0.0104 -0.2088z"/>
   <polygon id="1234" class="fil5" points="55.2161,38.8307 55.0595,38.9873 54.9238,39.1544 54.809,39.3318 54.7359,39.5198 54.6628,39.7077 54.6106,39.9165 54.5793,40.1253 54.5897,40.355 54.5793,40.5638 54.6106,40.7726 54.6628,40.9709 54.7359,41.1693 54.809,41.3467 54.9238,41.5347 55.0595,41.7017 55.2161,41.8687 55.3727,42.0045 55.5398,42.1402 55.7172,42.2446 55.9051,42.3385 56.0931,42.4012 56.3019,42.4534 56.5107,42.4847 56.7403,42.4951 56.9491,42.4847 57.1579,42.4534 57.1997,42.4325 57.2206,42.4221 57.2519,42.4221 57.3563,42.4012 57.5546,42.3385 57.6382,42.2863 57.7321,42.2446 57.92,42.1402 58.0871,42.0045 58.2541,41.8687 58.3898,41.7017 58.5256,41.5347 58.63,41.3467 58.6717,41.2528 58.7239,41.1693 58.7866,40.9709 58.8074,40.8665 58.8074,40.8352 58.8179,40.8143 58.8388,40.7726 58.8701,40.5638 58.8805,40.355 58.8701,40.1253 58.8388,39.9165 58.7866,39.7077 58.7239,39.5198 58.63,39.3318 58.5256,39.1544 58.3898,38.9873 58.2541,38.8307 58.0871,38.6741 57.92,38.5489 57.7321,38.434 57.5546,38.3609 57.3563,38.2879 57.1579,38.2357 56.9491,38.2043 56.7403,38.2043 56.5107,38.2043 56.3019,38.2357 56.0931,38.2879 55.9051,38.3609 55.7172,38.434 55.5398,38.5489 "/>
   <polygon id="12345" class="fil2" points="66.7731,68.292 66.8983,67.7492 66.961,67.4777 66.9714,67.4047 66.9923,67.342 67.0341,67.2167 67.1489,66.6739 67.2742,66.1414 67.4934,65.0557 67.6918,63.9699 67.7753,63.4062 67.817,63.1243 67.8692,62.8529 68.0363,61.7462 68.172,60.6187 68.3077,59.4912 67.8275,59.6478 67.3681,59.8149 65.6977,60.3786 64.0482,60.9215 61.7306,61.6105 58.6717,59.3242 55.9887,62.9677 54.1512,63.3018 53.2325,63.4584 52.3347,63.6045 50.4973,63.8551 49.5786,63.9699 49.1192,64.0221 48.6703,64.0848 46.8329,64.2518 44.9955,64.3771 43.1581,64.4606 41.3206,64.5232 39.4623,64.5232 38.5332,64.5024 37.6145,64.4815 35.7562,64.398 34.827,64.3353 33.9083,64.2727 32.05,64.1057 30.1917,63.8969 29.2522,63.7716 28.323,63.6463 26.4647,63.354 25.7861,63.2496 25.3059,63.1556 23.98,62.8946 21.2761,59.3242 18.2172,61.5896 16.0562,60.9215 14.344,60.4204 12.6528,59.8775 12.1934,59.7105 11.7549,59.5643 11.828,60.3891 11.922,61.2138 12.0159,62.0281 12.1412,62.8424 12.2665,63.6254 12.4126,64.4084 12.5588,65.181 12.7258,65.9535 12.8929,66.6947 13.0808,67.436 13.2687,68.1668 13.4879,68.8976 13.6967,69.597 13.9369,70.2965 14.177,70.9855 14.438,71.6746 14.8034,71.8103 15.4506,72.0086 16.1084,72.2174 17.4238,72.6037 18.071,72.7812 18.7288,72.9691 20.0442,73.3136 20.3574,73.3867 20.681,73.4702 21.3283,73.6373 22.6228,73.9504 22.936,74.0131 23.0926,74.0444 23.2597,74.0862 23.9069,74.2323 25.2015,74.5142 25.8279,74.629 26.4647,74.7543 27.7384,74.9944 28.3648,75.0884 29.0016,75.1928 30.2753,75.3911 30.4214,75.4016 30.578,75.4225 30.8912,75.4642 31.5176,75.5477 32.7704,75.7043 33.3863,75.767 34.0127,75.8401 35.2655,75.9549 35.9441,75.9967 36.6331,76.0489 38.0112,76.1324 38.6898,76.1533 39.3788,76.1741 40.7569,76.2055 41.425,76.195 42.1036,76.195 43.4608,76.1741 44.129,76.1428 44.463,76.1219 44.6301,76.1115 44.8076,76.1115 45.4757,76.0697 45.8098,76.0489 45.9768,76.0384 46.1543,76.0384 47.3862,75.9236 48.0022,75.8609 48.6286,75.8087 49.8605,75.6626 50.4764,75.5791 51.1028,75.506 52.3138,75.3076 52.9193,75.2032 53.0655,75.1719 53.2221,75.151 53.5353,75.1093 54.7463,74.8796 55.9573,74.6395 57.1475,74.3576 58.3376,74.0653 58.9223,73.8982 59.2146,73.8147 59.3607,73.773 59.5173,73.7416 60.7075,73.418 61.8768,73.0526 63.046,72.6663 63.6202,72.4575 64.2048,72.2592 65.3741,71.8416 65.6351,71.7372 65.7813,71.6746 65.8857,71.33 66.0005,71.0168 66.3972,69.6597 66.5851,68.9706 "/>
   <polygon id="123456" class="fil1" points="64.8834,52.507 64.706,54.6158 64.5076,56.7247 64.3928,57.7687 64.2884,58.8231 64.1631,59.8671 64.1004,60.3891 64.0796,60.5143 64.0691,60.577 64.0691,60.6501 64.0482,60.9215 65.6977,60.3786 67.3681,59.8149 67.5038,58.6247 67.5665,58.0297 67.6396,57.445 67.7544,56.2549 67.7753,55.9521 67.8066,55.6598 67.8692,55.0752 67.9632,53.8641 68.0676,52.6636 68.1511,51.4525 68.2346,50.2415 67.8379,50.586 67.4412,50.9305 67.2324,51.0767 67.128,51.1498 67.0341,51.2333 66.8253,51.3795 66.7209,51.4525 66.6269,51.5361 66.4077,51.6613 66.1989,51.7971 65.9796,51.9223 65.7708,52.058 65.5412,52.1729 65.4785,52.1938 65.4472,52.2042 65.4263,52.2251 65.3219,52.2877 "/>
   <polygon id="1234567" class="fil2" points="43.6279,6.8743 43.607,6.5507 43.5652,6.2479 43.4921,5.9556 43.3982,5.6842 43.2625,5.4127 43.1163,5.1622 42.9284,4.9116 42.73,4.6924 42.4899,4.4731 42.3646,4.3687 42.2498,4.2852 41.9888,4.1286 41.8531,4.0555 41.7278,4.0033 41.5816,3.9407 41.4459,3.8989 41.1536,3.8363 40.997,3.805 40.8509,3.7945 40.5481,3.7841 40.2245,3.7945 39.9217,3.8363 39.6294,3.8989 39.3579,4.0033 39.0865,4.1286 38.836,4.2852 38.5854,4.4731 38.3662,4.6924 38.1469,4.9116 37.959,5.1622 37.8024,5.4127 37.6876,5.6842 37.5832,5.9556 37.5205,6.2479 37.4788,6.5507 37.4788,6.8743 37.4683,7.0205 37.4788,7.1771 37.4892,7.3232 37.5205,7.4798 37.5832,7.7721 37.6249,7.9079 37.6876,8.054 37.8024,8.315 37.959,8.576 38.0425,8.6908 38.1469,8.8161 38.3662,9.0562 38.5958,9.265 38.8568,9.4634 39.1283,9.62 39.431,9.7557 38.8568,21.1352 40.6629,21.1247 42.4899,21.1665 41.8948,9.6409 42.1036,9.5156 42.208,9.4425 42.3229,9.3799 42.4168,9.2964 42.5212,9.2233 42.73,9.0562 42.824,8.931 42.9284,8.8161 43.0223,8.6908 43.0641,8.6282 43.085,8.5969 43.1163,8.576 43.1267,8.5342 43.1476,8.5029 43.1894,8.4403 43.2625,8.315 43.3251,8.1793 43.3982,8.054 43.4399,7.9079 43.4608,7.8348 43.4921,7.7721 43.5652,7.4798 43.5861,7.3232 43.607,7.1771 43.607,7.0935 43.607,7.0518 43.607,7.0309 43.6174,7.0205 "/>
   <path id="12345678" class="fil3" d="M19.5953 30.8547l-0.7621 0.0209 -0.7413 0.0626 -0.7203 0.1044 -0.6995 0.167 -0.6995 0.1984 -0.6577 0.2505 -0.6473 0.2924 -0.6159 0.3445 -0.6368 0.3863 -0.616 0.4384 -0.5951 0.4907 -0.5637 0.5533 -0.4281 0.4281 -0.3862 0.4593 -0.5951 0.7621 -0.261 0.3967 -0.2401 0.4072 -0.2401 0.4071 -0.1984 0.4176 -0.1879 0.4281 -0.1566 0.4489 -0.1566 0.4385 -0.1253 0.4593 -0.1148 0.4594 -0.0731 0.4802 -0.0731 0.4698 -0.0417 0.4907 -0.0314 0.4906 0 0.5116 0.0105 0.5742 0.0313 0.5637 0.0209 0.2715 0.0417 0.2819 0.094 0.5533 0.1148 0.5324 0.0627 0.261 0.0835 0.2714 0.0731 0.2506 0.0939 0.261 0.1984 0.5115 0.2088 0.4803 0.2401 0.4802 0.1253 0.2297 0.1461 0.2401 0.3028 0.4698 0.3236 0.4489 0.355 0.4385 0.1775 0.2088 0.1983 0.2192 0.4072 0.4281 0.1983 0.2087 0.3654 0.3446 0.3863 0.3236 0.3967 0.3028 0.4072 0.2923 0.4071 0.261 0.4281 0.2401 0.4384 0.2192 0.449 0.2193 0.5115 0.1983 0.5324 0.1879 0.5325 0.1462 0.5637 0.1357 0.5533 0.094 0.5847 0.0731 0.5846 0.0417 0.616 0.0313 0.2818 -0.0209 0.2924 -0.0104 0.5637 -0.0313 0.2715 -0.0418 0.1357 -0.0208 0.1461 -0.0105 0.2715 -0.0417 0.2818 -0.0418 0.261 -0.0626 0.2715 -0.0627 0.1253 -0.0417 0.0626 -0.0209 0.0731 -0.0105 0.2714 -0.0626 0.2506 -0.094 0.261 -0.0835 0.2505 -0.0939 0.1253 -0.0522 0.1357 -0.0418 0.4802 -0.2297 0.4803 -0.2401 0.2297 -0.1462 0.0522 -0.0417 0.0626 -0.0313 0.1253 -0.0627 0.2297 -0.1461 0.0522 -0.0418 0.0626 -0.0313 0.1253 -0.0626 0.2192 -0.1671 0.2297 -0.167 0.4385 -0.3445 0.2088 -0.188 0.2192 -0.1879 0.2088 -0.1983 0.2192 -0.1879 0.1879 -0.2193 0.1984 -0.2088 0.1879 -0.2192 0.1879 -0.2088 0.3446 -0.4385 0.167 -0.2297 0.167 -0.2192 0.0627 -0.1253 0.0313 -0.0626 0.0418 -0.0522 0.1461 -0.2297 0.0626 -0.1253 0.0314 -0.0626 0.0417 -0.0522 0.1462 -0.2297 0.2401 -0.4802 0.2297 -0.4803 0.0835 -0.261 0.094 -0.2505 0.0835 -0.261 0.0939 -0.2506 0.0627 -0.2714 0.0104 -0.0731 0.0209 -0.0626 0.0418 -0.1253 0.0626 -0.2714 0.0626 -0.261 0.0418 -0.2819 0.0418 -0.2714 0.0104 -0.1462 0.0209 -0.1357 0.0417 -0.2715 0.0314 -0.5637 0.0104 -0.2923 0.0209 -0.2819 -0.0313 -0.5846 -0.0314 -0.5638 -0.073 -0.5637 -0.0836 -0.5429 -0.1252 -0.5429 -0.1358 -0.522 -0.1774 -0.5115 -0.1775 -0.4907 -0.2297 -0.5011 -0.2401 -0.4803 -0.2819 -0.4698 -0.2819 -0.4489 -0.334 -0.4593 -0.3446 -0.4385 -0.3758 -0.428 -0.3863 -0.4072 -0.428 -0.4071 -0.2192 -0.1984 -0.2088 -0.1775 -0.4385 -0.3549 -0.4489 -0.3237 -0.4698 -0.3027 -0.2401 -0.1462 -0.2297 -0.1253 -0.4803 -0.2401 -0.4802 -0.2088 -0.5115 -0.1983 -0.261 -0.094 -0.2506 -0.0731 -0.2714 -0.0835 -0.261 -0.0626 -0.5325 -0.1149 -0.5533 -0.0939 -0.2818 -0.0418 -0.2715 -0.0209 -0.5637 -0.0313 -0.5742 -0.0104zm5.7315 16.9961l-0.3132 0.2819 -0.1566 0.1252 -0.1462 0.1358 -0.167 0.1148 -0.1566 0.1253 -0.3132 0.2401 -0.3445 0.2088 -0.3341 0.1983 -0.355 0.1775 -0.0522 0.0105 -0.0417 0.0208 -0.0836 0.0418 -0.167 0.0835 -0.3758 0.1357 -0.1879 0.0522 -0.1775 0.0627 -0.3759 0.0939 -0.3758 0.094 -0.3967 0.0626 -0.3967 0.0522 -0.2088 0.0105 -0.1984 0.0209 -0.4071 0.0208 -0.4281 -0.0208 -0.4071 -0.0314 -0.4072 -0.0522 -0.3863 -0.0626 -0.3862 -0.094 -0.3759 -0.0939 -0.3654 -0.1149 -0.3549 -0.1357 -0.3654 -0.1566 -0.3445 -0.1775 -0.3445 -0.1983 -0.3237 -0.2088 -0.3236 -0.2401 -0.3132 -0.2401 -0.3132 -0.261 -0.2923 -0.2819 -0.3028 -0.3132 -0.261 -0.3028 -0.261 -0.3236 -0.2192 -0.3132 -0.2192 -0.3445 -0.1984 -0.3341 -0.1775 -0.355 -0.1461 -0.3445 -0.1462 -0.3758 -0.1148 -0.3654 -0.1044 -0.3758 -0.0731 -0.3759 -0.0731 -0.3967 -0.0418 -0.3967 -0.0313 -0.4072 0 -0.4071 0 -0.428 0.0313 -0.4072 0.0418 -0.4072 0.0731 -0.3862 0.1775 -0.7621 0.261 -0.7204 0.1461 -0.3654 0.1775 -0.3445 0.1984 -0.3445 0.2192 -0.3236 0.2192 -0.3237 0.261 -0.3132 0.261 -0.3027 0.3028 -0.2924 0.2923 -0.3027 0.3132 -0.261 0.3132 -0.261 0.3236 -0.2192 0.3237 -0.2193 0.3445 -0.1983 0.3445 -0.1775 0.3654 -0.1462 0.3549 -0.1566 0.3654 -0.1148 0.7621 -0.1775 0.3863 -0.0731 0.4072 -0.0417 0.4071 -0.0313 0.4281 0 0.4071 0 0.4072 0.0313 0.3967 0.0417 0.3967 0.0731 0.3758 0.0731 0.3759 0.1044 0.3654 0.1148 0.3758 0.1566 0.3445 0.1462 0.355 0.1775 0.3341 0.1983 0.3445 0.2193 0.3132 0.2192 0.3236 0.261 0.3028 0.261 0.3132 0.3027 0.2818 0.2924 0.261 0.3027 0.2401 0.3132 0.2402 0.3237 0.2088 0.3236 0.1983 0.3445 0.1775 0.3445 0.167 0.3654 0.1358 0.355 0.1148 0.3654 0.094 0.3758 0.0939 0.3863 0.0627 0.3862 0.0522 0.4072 0.0313 0.4072 0.0104 0.428 -0.0104 0.0418 0 0.0522 0 0.1044 0 0.2087 -0.0209 0.1984 -0.0104 0.2088 -0.0522 0.3967 -0.0627 0.3967 -0.0939 0.3759 -0.094 0.3758 -0.0626 0.1775 -0.0522 0.1879 -0.1358 0.3758 -0.167 0.3445 -0.1775 0.355 -0.1983 0.3341 -0.2088 0.3445 -0.2402 0.3132 -0.1252 0.1566 -0.1149 0.167 -0.1357 0.1462 -0.1253 0.1566 -0.2818 0.3132z"/>
   <path id="123456789" class="fil4" d="M19.5953 50.2206l0.4071 -0.0208 0.1984 -0.0209 0.2088 -0.0105 0.3967 -0.0522 0.3967 -0.0626 0.3758 -0.094 0.3759 -0.0939 0.1775 -0.0627 0.1879 -0.0522 0.3758 -0.1357 0.167 -0.0835 0.0836 -0.0418 0.0417 -0.0208 0.0522 -0.0105 0.355 -0.1775 0.3341 -0.1983 0.3445 -0.2088 0.3132 -0.2401 0.1566 -0.1253 0.167 -0.1148 0.1462 -0.1358 0.1566 -0.1252 0.3132 -0.2819 0.2818 -0.3132 0.1253 -0.1566 0.1357 -0.1462 0.1149 -0.167 0.1252 -0.1566 0.2402 -0.3132 0.2088 -0.3445 0.1983 -0.3341 0.1775 -0.355 0.167 -0.3445 0.1358 -0.3758 0.0522 -0.1879 0.0626 -0.1775 0.094 -0.3758 0.0939 -0.3759 0.0627 -0.3967 0.0522 -0.3967 0.0104 -0.2088 0.0209 -0.1984 0 -0.2087 0 -0.1044 0 -0.0522 0.0104 -0.0418 -0.0104 -0.428 -0.0313 -0.4072 -0.0522 -0.4072 -0.0627 -0.3862 -0.0939 -0.3863 -0.094 -0.3758 -0.1148 -0.3654 -0.1358 -0.355 -0.167 -0.3654 -0.1775 -0.3445 -0.1983 -0.3445 -0.2088 -0.3236 -0.2402 -0.3237 -0.2401 -0.3132 -0.261 -0.3027 -0.2818 -0.2924 -0.3132 -0.3027 -0.3028 -0.261 -0.3236 -0.261 -0.3132 -0.2192 -0.3445 -0.2193 -0.3341 -0.1983 -0.355 -0.1775 -0.3445 -0.1462 -0.3758 -0.1566 -0.3654 -0.1148 -0.3759 -0.1044 -0.3758 -0.0731 -0.3967 -0.0731 -0.3967 -0.0417 -0.4072 -0.0313 -0.4071 0 -0.4281 0 -0.4071 0.0313 -0.4072 0.0417 -0.3863 0.0731 -0.7621 0.1775 -0.3654 0.1148 -0.3549 0.1566 -0.3654 0.1462 -0.3445 0.1775 -0.3445 0.1983 -0.3237 0.2193 -0.3236 0.2192 -0.3132 0.261 -0.3132 0.261 -0.2923 0.3027 -0.3028 0.2924 -0.261 0.3027 -0.261 0.3132 -0.2192 0.3237 -0.2192 0.3236 -0.1984 0.3445 -0.1775 0.3445 -0.1461 0.3654 -0.261 0.7204 -0.1775 0.7621 -0.0731 0.3862 -0.0418 0.4072 -0.0313 0.4072 0 0.428 0 0.4071 0.0313 0.4072 0.0418 0.3967 0.0731 0.3967 0.0731 0.3759 0.1044 0.3758 0.1148 0.3654 0.1462 0.3758 0.1461 0.3445 0.1775 0.355 0.1984 0.3341 0.2192 0.3445 0.2192 0.3132 0.261 0.3236 0.261 0.3028 0.3028 0.3132 0.2923 0.2819 0.3132 0.261 0.3132 0.2401 0.3236 0.2401 0.3237 0.2088 0.3445 0.1983 0.3445 0.1775 0.3654 0.1566 0.3549 0.1357 0.3654 0.1149 0.3759 0.0939 0.3862 0.094 0.3863 0.0626 0.4072 0.0522 0.4071 0.0314 0.4281 0.0208zm-1.4929 -9.8656l-0.0105 0.2088 -0.0313 0.2088 -0.0209 0.0417 -0.0104 0.0209 0 0.0313 -0.0209 0.1044 -0.0626 0.1984 -0.0522 0.0835 -0.0418 0.0939 -0.1044 0.188 -0.1357 0.167 -0.1357 0.167 -0.094 0.0627 -0.0835 0.0731 -0.167 0.1357 -0.188 0.1044 -0.0939 0.0417 -0.0835 0.0522 -0.1984 0.0627 -0.1044 0.0209 -0.0313 0 -0.0209 0.0104 -0.0418 0.0209 -0.2088 0.0313 -0.2087 0.0104 -0.2297 -0.0104 -0.2088 -0.0313 -0.1984 -0.0522 -0.1879 -0.0627 -0.1879 -0.0939 -0.1775 -0.1044 -0.167 -0.1357 -0.1566 -0.1358 -0.1566 -0.167 -0.1357 -0.167 -0.1149 -0.188 -0.0731 -0.1774 -0.073 -0.1984 -0.0522 -0.1983 -0.0314 -0.2088 0.0105 -0.2088 -0.0105 -0.2297 0.0314 -0.2088 0.0522 -0.2088 0.073 -0.1879 0.0731 -0.188 0.1149 -0.1774 0.1357 -0.1671 0.1566 -0.1566 0.3236 -0.2818 0.1775 -0.1149 0.1879 -0.0731 0.1879 -0.073 0.1984 -0.0522 0.2088 -0.0314 0.2297 0 0.2087 0 0.2088 0.0314 0.1984 0.0522 0.1984 0.073 0.1774 0.0731 0.188 0.1149 0.167 0.1252 0.1775 0.1566 0.1357 0.1566 0.1357 0.1671 0.1044 0.1774 0.094 0.188 0.0626 0.1879 0.0522 0.2088 0.0313 0.2088 0.0105 0.2297z"/>
   <polygon id="12345678910" class="fil5" points="17.476,41.8687 17.6117,41.7017 17.7474,41.5347 17.8518,41.3467 17.8936,41.2528 17.9458,41.1693 18.0084,40.9709 18.0293,40.8665 18.0293,40.8352 18.0397,40.8143 18.0606,40.7726 18.0919,40.5638 18.1024,40.355 18.0919,40.1253 18.0606,39.9165 18.0084,39.7077 17.9458,39.5198 17.8518,39.3318 17.7474,39.1544 17.6117,38.9873 17.476,38.8307 17.2985,38.6741 17.1315,38.5489 16.9435,38.434 16.7661,38.3609 16.5677,38.2879 16.3693,38.2357 16.1605,38.2043 15.9518,38.2043 15.7221,38.2043 15.5133,38.2357 15.3149,38.2879 15.127,38.3609 14.9391,38.434 14.7616,38.5489 14.438,38.8307 14.2814,38.9873 14.1457,39.1544 14.0308,39.3318 13.9577,39.5198 13.8847,39.7077 13.8325,39.9165 13.8011,40.1253 13.8116,40.355 13.8011,40.5638 13.8325,40.7726 13.8847,40.9709 13.9577,41.1693 14.0308,41.3467 14.1457,41.5347 14.2814,41.7017 14.438,41.8687 14.5946,42.0045 14.7616,42.1402 14.9391,42.2446 15.127,42.3385 15.3149,42.4012 15.5133,42.4534 15.7221,42.4847 15.9518,42.4951 16.1605,42.4847 16.3693,42.4534 16.4111,42.4325 16.432,42.4221 16.4633,42.4221 16.5677,42.4012 16.7661,42.3385 16.8496,42.2863 16.9435,42.2446 17.1315,42.1402 17.2985,42.0045 17.382,41.9314 "/>
   <polygon id="1234567891011" class="fil1" points="16.0562,60.9215 15.6177,57.3928 15.2523,53.8746 15.1166,52.507 14.6676,52.2877 14.2292,52.0685 13.8011,51.8284 13.394,51.5674 12.9868,51.2751 12.5901,50.9723 12.2038,50.6487 11.8384,50.3041 11.9742,52.0476 12.1412,53.8746 12.256,55.3048 12.3813,56.7873 12.5066,58.3115 12.6528,59.8775 14.344,60.4204 "/>
   <polyline id="123456789101112" class="fil6 str0" points="65.5412,32.0553 65.4785,29.6645 65.4159,27.2634 65.395,27.2634 63.8081,26.9188 62.2213,26.6161 60.6344,26.3342 59.058,26.0732 57.4711,25.8122 55.8843,25.593 54.2974,25.3946 52.7105,25.2171 51.1028,25.0397 49.5159,24.904 47.9082,24.7891 46.3213,24.6952 44.7136,24.6116 43.1163,24.5594 41.5086,24.5281 39.9217,24.5177 38.3035,24.5072 36.6958,24.5386 35.088,24.5908 33.4803,24.6638 31.8621,24.7578 30.2544,24.8726 28.6362,25.0084 27.0285,25.165 25.3998,25.3424 23.7817,25.5408 22.153,25.76 20.5453,26.0001 18.9167,26.2611 17.2985,26.543 15.6699,26.8458 14.0517,27.1694 14.0308,30.3014 14.0517,32.2954 "/>
   <polyline id="12345678910111213" class="fil6 str0" points="68.2346,50.2415 68.3077,50.1684 68.3599,50.1162 68.5478,49.897 68.7462,49.6882 68.9341,49.469 69.122,49.2602 69.2891,49.0305 69.3726,48.9156 69.4665,48.8112 69.6336,48.5816 69.8006,48.3623 69.8633,48.2371 69.8946,48.1744 69.9363,48.1222 70.0825,47.8925 70.1451,47.7673 70.1765,47.7046 70.2182,47.6524 70.3644,47.4227 70.6045,46.9425 70.7193,46.692 70.7715,46.5667 70.8342,46.4518 70.8759,46.3161 70.9281,46.1908 71.0221,45.9403 71.1056,45.6793 71.1996,45.4287 71.2622,45.1573 71.2726,45.0842 71.2935,45.0216 71.3353,44.8963 71.3979,44.6249 71.4606,44.3639 71.5023,44.082 71.5441,43.8106 71.5545,43.6644 71.5754,43.5287 71.6172,43.2572 71.6485,42.6935 71.6589,42.4012 71.6798,42.1193 71.6589,41.6391 71.6276,41.1693 71.5754,40.7099 71.5232,40.261 71.4397,39.8121 71.3457,39.3736 71.2309,38.9351 71.1056,38.5175 70.949,38.0895 70.782,37.6824 70.6045,37.2752 70.4061,36.8889 70.1869,36.4922 69.9572,36.1164 69.7067,35.7405 69.4457,35.3856 69.0907,34.9471 68.7253,34.54 "/>
   <polyline id="1234567891011121314" class="fil6 str0" points="68.7253,34.54 68.5374,34.3312 68.3599,34.1537 68.0154,33.8196 67.6813,33.5168 67.3368,33.2245 66.9923,32.9635 66.6269,32.7025 66.2719,32.4729 65.9065,32.2536 65.5412,32.0553 "/>
   <polyline id="123456789101112131415" class="fil6 str0" points="12.6528,59.8775 12.1934,59.7105 11.7549,59.5643 11.828,60.3891 11.922,61.2138 12.0159,62.0281 12.1412,62.8424 12.2665,63.6254 12.4126,64.4084 12.5588,65.181 12.7258,65.9535 12.8929,66.6947 13.0808,67.436 13.2687,68.1668 13.4879,68.8976 13.6967,69.597 13.9369,70.2965 14.177,70.9855 14.438,71.6746 14.8034,71.8103 15.4506,72.0086 16.1084,72.2174 17.4238,72.6037 18.071,72.7812 18.7288,72.9691 20.0442,73.3136 20.3574,73.3867 20.681,73.4702 21.3283,73.6373 22.6228,73.9504 22.936,74.0131 23.0926,74.0444 23.2597,74.0862 23.9069,74.2323 25.2015,74.5142 25.8279,74.629 26.4647,74.7543 27.7384,74.9944 28.3648,75.0884 29.0016,75.1928 30.2753,75.3911 30.4214,75.4016 30.578,75.4225 30.8912,75.4642 31.5176,75.5477 32.7704,75.7043 33.3863,75.767 34.0127,75.8401 35.2655,75.9549 35.9441,75.9967 36.6331,76.0489 38.0112,76.1324 38.6898,76.1533 39.3788,76.1741 40.7569,76.2055 41.425,76.195 42.1036,76.195 43.4608,76.1741 44.129,76.1428 44.463,76.1219 44.6301,76.1115 44.8076,76.1115 45.4757,76.0697 45.8098,76.0489 45.9768,76.0384 46.1543,76.0384 47.3862,75.9236 48.0022,75.8609 48.6286,75.8087 49.8605,75.6626 50.4764,75.5791 51.1028,75.506 52.3138,75.3076 52.9193,75.2032 53.0655,75.1719 53.2221,75.151 53.5353,75.1093 54.7463,74.8796 55.9573,74.6395 57.1475,74.3576 58.3376,74.0653 58.9223,73.8982 59.2146,73.8147 59.3607,73.773 59.5173,73.7416 60.7075,73.418 61.8768,73.0526 63.046,72.6663 63.6202,72.4575 64.2048,72.2592 65.3741,71.8416 65.6351,71.7372 65.7813,71.6746 65.8857,71.33 66.0005,71.0168 66.3972,69.6597 66.5851,68.9706 66.7731,68.292 66.8983,67.7492 66.961,67.4777 66.9714,67.4047 66.9923,67.342 67.0341,67.2167 67.1489,66.6739 67.2742,66.1414 67.4934,65.0557 67.6918,63.9699 67.7753,63.4062 67.817,63.1243 67.8692,62.8529 68.0363,61.7462 68.172,60.6187 68.3077,59.4912 67.8275,59.6478 67.3681,59.8149 "/>
   <polyline id="12345678910111213141516" class="fil6 str0" points="64.8834,52.507 64.706,54.6158 64.5076,56.7247 64.3928,57.7687 64.2884,58.8231 64.1631,59.8671 64.1004,60.3891 64.0796,60.5143 64.0691,60.577 64.0691,60.6501 64.0482,60.9215 "/>
   <polyline id="1234567891011121314151617" class="fil6 str0" points="67.3681,59.8149 65.6977,60.3786 64.0482,60.9215 "/>
   <polyline id="123456789101112131415161718" class="fil6 str0" points="64.0482,60.9215 61.7306,61.6105 58.6717,59.3242 55.9887,62.9677 54.1512,63.3018 53.2325,63.4584 52.3347,63.6045 50.4973,63.8551 49.5786,63.9699 49.1192,64.0221 48.6703,64.0848 46.8329,64.2518 44.9955,64.3771 43.1581,64.4606 41.3206,64.5232 39.4623,64.5232 38.5332,64.5024 37.6145,64.4815 35.7562,64.398 34.827,64.3353 33.9083,64.2727 32.05,64.1057 30.1917,63.8969 29.2522,63.7716 28.323,63.6463 26.4647,63.354 25.7861,63.2496 25.3059,63.1556 23.98,62.8946 21.2761,59.3242 18.2172,61.5896 16.0562,60.9215 "/>
   <polyline id="12345678910111213141516171819" class="fil6 str0" points="67.3681,59.8149 67.5038,58.6247 67.5665,58.0297 67.6396,57.445 67.7544,56.2549 67.7753,55.9521 67.8066,55.6598 67.8692,55.0752 67.9632,53.8641 68.0676,52.6636 68.1511,51.4525 68.2346,50.2415 "/>
   <polyline id="1234567891011121314151617181920" class="fil6 str0" points="64.8834,52.507 65.3219,52.2877 65.4263,52.2251 65.4472,52.2042 65.4785,52.1938 65.5412,52.1729 65.7708,52.058 65.9796,51.9223 66.1989,51.7971 66.4077,51.6613 66.6269,51.5361 66.7209,51.4525 66.8253,51.3795 67.0341,51.2333 67.128,51.1498 67.2324,51.0767 67.4412,50.9305 67.8379,50.586 68.2346,50.2415 "/>
   <polyline id="123456789101112131415161718192021" class="fil6 str0" points="42.4899,21.1665 45.6845,21.2813 47.2818,21.3753 48.8896,21.4901 50.4973,21.6258 52.105,21.7824 53.7128,21.9599 55.331,22.1583 56.9387,22.3775 58.5464,22.6176 60.1542,22.8786 61.7828,23.1605 63.3905,23.4633 65.0192,23.7869 66.6373,24.1314 68.266,24.4968 68.3495,25.7705 68.433,27.0441 68.4956,28.3074 68.527,28.9337 68.5687,29.5706 68.6105,30.8129 68.6627,32.0657 68.694,33.2976 68.694,33.6004 68.7044,33.9136 68.7253,34.54 "/>
   <polyline id="12345678910111213141516171819202122" class="fil6 str0" points="42.4899,21.1665 41.8948,9.6409 42.1036,9.5156 42.208,9.4425 42.3229,9.3799 42.4168,9.2964 42.5212,9.2233 42.73,9.0562 42.824,8.931 42.9284,8.8161 43.0223,8.6908 43.0641,8.6282 43.085,8.5969 43.1163,8.576 43.1267,8.5342 43.1476,8.5029 43.1894,8.4403 43.2625,8.315 43.3251,8.1793 43.3982,8.054 43.4399,7.9079 43.4608,7.8348 43.4921,7.7721 43.5652,7.4798 43.5861,7.3232 43.607,7.1771 43.607,7.0935 43.607,7.0518 43.607,7.0309 43.6174,7.0205 43.6279,6.8743 43.607,6.5507 43.5652,6.2479 43.4921,5.9556 43.3982,5.6842 43.2625,5.4127 43.1163,5.1622 42.9284,4.9116 42.73,4.6924 42.4899,4.4731 42.3646,4.3687 42.2498,4.2852 41.9888,4.1286 41.8531,4.0555 41.7278,4.0033 41.5816,3.9407 41.4459,3.8989 41.1536,3.8363 40.997,3.805 40.8509,3.7945 40.5481,3.7841 40.2245,3.7945 39.9217,3.8363 39.6294,3.8989 39.3579,4.0033 39.0865,4.1286 38.836,4.2852 38.5854,4.4731 38.3662,4.6924 38.1469,4.9116 37.959,5.1622 37.8024,5.4127 37.6876,5.6842 37.5832,5.9556 37.5205,6.2479 37.4788,6.5507 37.4788,6.8743 37.4683,7.0205 37.4788,7.1771 37.4892,7.3232 37.5205,7.4798 37.5832,7.7721 37.6249,7.9079 37.6876,8.054 37.8024,8.315 37.959,8.576 38.0425,8.6908 38.1469,8.8161 38.3662,9.0562 38.5958,9.265 38.8568,9.4634 39.1283,9.62 39.431,9.7557 38.8568,21.1352 "/>
   <polyline id="1234567891011121314151617181920212223" class="fil6 str0" points="38.8568,21.1352 40.6629,21.1247 42.4899,21.1665 "/>
   <polyline id="123456789101112131415161718192021222324" class="fil6 str0" points="65.5412,32.0553 65.2384,31.8987 64.9461,31.7629 64.3406,31.5228 63.7142,31.314 63.3905,31.2201 63.0773,31.147 62.4196,31.0113 61.7515,30.9278 61.407,30.886 61.0729,30.8651 60.3839,30.8547 59.6113,30.8756 58.8701,30.9382 58.1497,31.0426 57.4502,31.2096 56.7508,31.408 56.0931,31.6585 55.4458,31.9509 54.8298,32.2954 54.193,32.6817 53.5771,33.1201 52.982,33.6108 52.4078,34.1537 51.9798,34.5817 51.6039,35.0306 51.0088,35.7927 50.7479,36.1894 50.5077,36.5966 50.2676,37.0038 50.0693,37.4318 49.8813,37.8598 49.7247,38.3087 49.5681,38.7472 49.4429,39.2066 49.328,39.6659 49.2549,40.1462 49.1819,40.616 49.1297,41.1066 49.0984,42.1193 49.1088,42.6935 49.1401,43.2572 49.161,43.5287 49.2027,43.8106 49.2967,44.3639 49.4115,44.8963 49.4742,45.1573 49.5577,45.4287 49.6308,45.6793 49.7247,45.9403 49.9231,46.4518 50.0171,46.692 50.1319,46.9425 50.372,47.4227 50.4973,47.6524 50.6435,47.8925 50.9462,48.3623 51.2698,48.8112 51.4369,49.0305 51.6248,49.2602 51.8023,49.469 52.0006,49.6882 52.4078,50.1162 52.6166,50.3146 52.982,50.6591 53.3683,50.9827 53.765,51.2855 54.1721,51.5883 54.5793,51.8492 55.0073,52.0894 55.4458,52.3086 55.8947,52.5278 56.4063,52.7262 56.9387,52.9037 57.4711,53.0498 58.0349,53.1856 58.5986,53.2795 59.1833,53.3526 59.7679,53.3943 60.3839,53.4152 60.6762,53.4048 60.8223,53.3943 60.9789,53.3943 61.2712,53.3735 61.574,53.3526 61.8559,53.3108 62.1482,53.2795 62.2108,53.2586 62.2422,53.2482 62.2839,53.2482 62.4301,53.2273 62.7224,53.1856 62.9938,53.1125 63.2757,53.0498 63.8186,52.8932 63.9439,52.841 64.0796,52.7993 64.351,52.7053 64.612,52.6009 64.8834,52.507 "/>
   <polyline id="12345678910111213141516171819202122232425" class="fil6 str0" points="10.8258,35.0515 10.8049,34.4773 10.784,33.9344 10.7631,33.4229 10.7631,32.9322 10.7423,32.4624 10.7423,32.0239 10.7423,31.6063 10.7527,31.2201 10.7527,30.7503 10.7527,30.3014 10.7527,29.6019 10.7527,28.9546 10.7527,28.3491 10.7736,27.7854 10.7736,27.2634 10.7736,26.7936 10.7736,26.3655 10.7945,25.9897 10.7945,25.6347 10.7945,25.3424 10.7945,25.0919 10.7945,24.977 10.8049,24.8831 10.8049,24.716 10.8049,24.5908 10.8049,24.5072 10.8258,24.4864 12.5588,24.0792 14.3023,23.7034 16.0353,23.3589 17.7892,23.0352 19.5326,22.7325 21.2865,22.461 23.0404,22.2105 24.7943,21.9912 26.5378,21.7929 28.2917,21.6154 30.0456,21.4692 31.8099,21.3544 33.5638,21.2604 35.3282,21.1874 37.0821,21.1456 38.8568,21.1352 "/>
   <polyline id="1234567891011121314151617181920212223242526" class="fil6 str0" points="15.1166,52.507 15.6281,52.7053 16.1605,52.8932 16.693,53.0394 17.2567,53.1751 17.81,53.2691 18.3947,53.3422 18.9793,53.3839 19.5953,53.4152 19.8771,53.3943 20.1695,53.3839 20.7332,53.3526 21.0047,53.3108 21.1404,53.29 21.2865,53.2795 21.558,53.2378 21.8398,53.196 22.1008,53.1334 22.3723,53.0707 22.4976,53.029 22.5602,53.0081 22.6333,52.9976 22.9047,52.935 23.1553,52.841 23.4163,52.7575 23.6668,52.6636 23.7921,52.6114 23.9278,52.5696 24.408,52.3399 24.8883,52.0998 25.118,51.9536 25.1702,51.9119 25.2328,51.8806 25.3581,51.8179 25.5878,51.6718 25.64,51.63 25.7026,51.5987 25.8279,51.5361 26.0471,51.369 26.2768,51.202 26.7153,50.8575 26.9241,50.6695 27.1433,50.4816 27.3521,50.2833 27.5713,50.0954 27.7592,49.8761 27.9576,49.6673 28.1455,49.4481 28.3334,49.2393 28.678,48.8008 28.845,48.5711 29.012,48.3519 29.0747,48.2266 29.106,48.164 29.1478,48.1118 29.2939,47.8821 29.3565,47.7568 29.3879,47.6942 29.4296,47.642 29.5758,47.4123 29.8159,46.9321 30.0456,46.4518 30.1291,46.1908 30.2231,45.9403 30.3066,45.6793 30.4005,45.4287 30.4632,45.1573 30.4736,45.0842 30.4945,45.0216 30.5363,44.8963 30.5989,44.6249 30.6615,44.3639 30.7033,44.082 30.7451,43.8106 30.7555,43.6644 30.7764,43.5287 30.8181,43.2572 30.8495,42.6935 30.8599,42.4012 30.8808,42.1193 30.8495,41.5347 30.8181,40.9709 30.7451,40.4072 30.6615,39.8643 30.5363,39.3214 30.4005,38.7994 30.2231,38.2879 30.0456,37.7972 29.8159,37.2961 29.5758,36.8158 29.2939,36.346 29.012,35.8971 28.678,35.4378 28.3334,34.9993 27.9576,34.5713 27.5713,34.1641 27.1433,33.757 26.9241,33.5586 26.7153,33.3811 26.2768,33.0262 25.8279,32.7025 25.3581,32.3998 25.118,32.2536 24.8883,32.1283 24.408,31.8882 23.9278,31.6794 23.4163,31.4811 23.1553,31.3871 22.9047,31.314 22.6333,31.2305 22.3723,31.1679 21.8398,31.053 21.2865,30.9591 21.0047,30.9173 20.7332,30.8964 20.1695,30.8651 19.5953,30.8547 18.8332,30.8756 18.0919,30.9382 17.3716,31.0426 16.6721,31.2096 15.9726,31.408 15.3149,31.6585 14.6676,31.9509 14.0517,32.2954 "/>
   <polyline id="123456789101112131415161718192021222324252627" class="fil6 str0" points="14.0517,32.2954 13.4149,32.6817 12.7989,33.1201 12.2038,33.6108 11.6401,34.1641 11.212,34.5922 10.8258,35.0515 "/>
   <polyline id="12345678910111213141516171819202122232425262728" class="fil6 str0" points="10.8258,35.0515 10.2307,35.8136 9.9697,36.2103 9.7296,36.6175 9.4895,37.0246 9.2911,37.4422 9.1032,37.8703 8.9466,38.3192 8.79,38.7577 8.6647,39.217 8.5499,39.6764 8.4768,40.1566 8.4037,40.6264 8.362,41.1171 8.3306,41.6077 8.3306,42.1193 8.3411,42.6935 8.3724,43.2572 8.3933,43.5287 8.435,43.8106 8.529,44.3639 8.6438,44.8963 8.7065,45.1573 8.79,45.4287 8.8631,45.6793 8.957,45.9403 9.1554,46.4518 9.3642,46.9321 9.6043,47.4123 9.7296,47.642 9.8757,47.8821 10.1785,48.3519 10.5021,48.8008 10.8571,49.2393 11.0346,49.4481 11.2329,49.6673 11.6401,50.0954 11.8384,50.3041 "/>
   <polyline id="1234567891011121314151617181920212223242526272829" class="fil6 str0" points="16.0562,60.9215 15.6177,57.3928 15.2523,53.8746 15.1166,52.507 "/>
   <polyline id="123456789101112131415161718192021222324252627282930" class="fil6 str0" points="16.0562,60.9215 14.344,60.4204 12.6528,59.8775 "/>
   <polyline id="12345678910111213141516171819202122232425262728293031" class="fil6 str0" points="11.8384,50.3041 11.9742,52.0476 12.1412,53.8746 12.256,55.3048 12.3813,56.7873 12.5066,58.3115 12.6528,59.8775 "/>
   <polyline id="1234567891011121314151617181920212223242526272829303132" class="fil6 str0" points="11.8384,50.3041 12.2038,50.6487 12.5901,50.9723 12.9868,51.2751 13.394,51.5674 13.8011,51.8284 14.2292,52.0685 14.6676,52.2877 15.1166,52.507 "/>
  </g>
  <g>
   <polygon class="fil6" points="7.0361,2.5 72.9639,2.5 72.9639,77.5 7.0361,77.5 "/>
  </g>
 </g>
</svg>
