<?xml version="1.0" encoding="UTF-8"?>
<!DOCTYPE svg PUBLIC "-//W3C//DTD SVG 1.1//EN" "http://www.w3.org/Graphics/SVG/1.1/DTD/svg11.dtd">
<!-- Creator: CorelDRAW -->
<svg xmlns="http://www.w3.org/2000/svg" xml:space="preserve" width="50px" height="50px" style="shape-rendering:geometricPrecision; text-rendering:geometricPrecision; image-rendering:optimizeQuality; fill-rule:evenodd; clip-rule:evenodd"
viewBox="0 0 50 50"
 xmlns:xlink="http://www.w3.org/1999/xlink">
 <defs>
  <style type="text/css">
   <![CDATA[
    .str1 {stroke:#2B2A29;stroke-width:0.5}
    .str2 {stroke:black;stroke-width:0.5}
    .str0 {stroke:#604478;stroke-width:5}
    .fil4 {fill:none;fill-rule:nonzero}
    .fil0 {fill:#413150}
    .fil2 {fill:#6E4D8B}
    .fil1 {fill:#C4B7D0}
    .fil3 {fill:#FEFEFE;fill-rule:nonzero}
   ]]>
  </style>
 </defs>
 <g id="Layer_x0020_1">
  <metadata id="CorelCorpID_0Corel-Layer"/>
  <g id="_256958832">
   <path id="_256958808" class="fil0" d="M10.4718 2.5l29.0564 0c4.3844,0 7.9718,3.5874 7.9718,7.9718l0 29.0564c0,4.3844 -3.5874,7.9718 -7.9718,7.9718l-29.0564 0c-4.3844,0 -7.9718,-3.5874 -7.9718,-7.9718l0 -29.0564c0,-4.3844 3.5874,-7.9718 7.9718,-7.9718z"/>
   <path id="_256959912" class="fil1" d="M10.4718 2.5l29.0564 0c4.3844,0 7.9718,3.5874 7.9718,7.9718l0 29.0564c0,4.3844 -3.5874,7.9718 -7.9718,7.9718l-29.0564 0c-4.3844,0 -7.9718,-3.5874 -7.9718,-7.9718l0 -29.0564c0,-4.3844 3.5874,-7.9718 7.9718,-7.9718z"/>
  </g>
  <rect class="fil2 str0" x="2.5" y="2.5" width="45" height="45" rx="7.9722" ry="7.9722"/>
  <polygon class="fil3" points="10.9748,24.8668 10.9748,20.764 18.8466,16.7602 10.9748,12.801 10.9748,8.7278 22.2564,15.033 22.2564,18.5122 "/>
  <polygon id="1" class="fil4 str1" points="10.9748,24.8668 10.9748,20.764 18.8466,16.7602 10.9748,12.801 10.9748,8.7278 22.2564,15.033 22.2564,18.5122 "/>
  <polygon class="fil3" points="26.0888,25.114 26.0888,21.5922 40.0888,21.5922 40.0888,25.114 "/>
  <polygon id="1" class="fil4 str2" points="26.0888,25.114 26.0888,21.5922 40.0888,21.5922 40.0888,25.114 "/>
 </g>
</svg>
