<?xml version="1.0" encoding="UTF-8"?>
<!DOCTYPE svg PUBLIC "-//W3C//DTD SVG 1.1//EN" "http://www.w3.org/Graphics/SVG/1.1/DTD/svg11.dtd">
<!-- Creator: CorelDRAW X6 -->
<svg xmlns="http://www.w3.org/2000/svg" xml:space="preserve" width="100px" height="100px" version="1.1" style="shape-rendering:geometricPrecision; text-rendering:geometricPrecision; image-rendering:optimizeQuality; fill-rule:evenodd; clip-rule:evenodd"
viewBox="0 0 10000 10000"
 xmlns:xlink="http://www.w3.org/1999/xlink">
 <defs>
  <style type="text/css">
   <![CDATA[
    .str0 {stroke:#E6E6E6;stroke-width:105.833}
    .fil48 {fill:none}
    .fil0 {fill:#5E4377}
    .fil2 {fill:#5E4378}
    .fil3 {fill:#5F4378}
    .fil4 {fill:#5F4479}
    .fil5 {fill:#60447A}
    .fil6 {fill:#61457B}
    .fil7 {fill:#61457C}
    .fil8 {fill:#62457C}
    .fil9 {fill:#62467D}
    .fil10 {fill:#63467D}
    .fil11 {fill:#63467E}
    .fil12 {fill:#64477F}
    .fil13 {fill:#654780}
    .fil14 {fill:#654881}
    .fil15 {fill:#664881}
    .fil16 {fill:#664882}
    .fil17 {fill:#674882}
    .fil18 {fill:#674983}
    .fil19 {fill:#684984}
    .fil20 {fill:#694A85}
    .fil21 {fill:#694A86}
    .fil22 {fill:#6A4A86}
    .fil23 {fill:#6A4B87}
    .fil24 {fill:#6B4B88}
    .fil25 {fill:#6B4C89}
    .fil26 {fill:#6C4C89}
    .fil27 {fill:#6C4C8A}
    .fil28 {fill:#6D4D8B}
    .fil29 {fill:#6E4D8C}
    .fil30 {fill:#6E4E8D}
    .fil31 {fill:#6F4E8D}
    .fil32 {fill:#6F4E8E}
    .fil33 {fill:#704E8E}
    .fil34 {fill:#704F8F}
    .fil35 {fill:#714F90}
    .fil36 {fill:#725091}
    .fil37 {fill:#725092}
    .fil38 {fill:#735092}
    .fil39 {fill:#735193}
    .fil40 {fill:#745193}
    .fil41 {fill:#745194}
    .fil42 {fill:#755295}
    .fil43 {fill:#765296}
    .fil44 {fill:#765397}
    .fil45 {fill:#775397}
    .fil46 {fill:#775398}
    .fil47 {fill:#785499}
    .fil1 {fill:black;fill-opacity:0.000000}
    .fil49 {fill:url(#id2)}
   ]]>
  </style>
      <clipPath id="id0">
       <path d="M1585 9379l6838 0c527,0 958,-431 958,-958l0 -6838c0,-527 -431,-958 -958,-958l-6838 0c-527,0 -958,431 -958,958l0 6838c0,527 431,958 958,958z"/>
      </clipPath>
      <clipPath id="id1">
       <path d="M1585 9379l6838 0c527,0 958,-431 958,-958l0 -6838c0,-527 -431,-958 -958,-958l-6838 0c-527,0 -958,431 -958,958l0 6838c0,527 431,958 958,958z"/>
      </clipPath>
  <radialGradient id="id2" gradientUnits="objectBoundingBox" cx="32%" cy="33%" r="47%" fx="32%" fy="33%">
   <stop offset="0" style="stop-color:#FEFEFE"/>
   <stop offset="0.678431" style="stop-color:#E6E6E6"/>
   <stop offset="1" style="stop-color:#E6E6E6"/>
  </radialGradient>
 </defs>
 <g id="Layer_x0020_1">
  <metadata id="CorelCorpID_0Corel-Layer"/>
  <g id="_353689480">
   <g id="_348901048">
    <path class="fil0" d="M1446 30l7117 0c780,0 1413,633 1413,1413l0 7117c0,780 -633,1413 -1413,1413l-7117 0c-780,0 -1413,-633 -1413,-1413l0 -7117c0,-780 633,-1413 1413,-1413z"/>
    <g>
     <g style="clip-path:url(#id0)">
      <polygon class="fil1" points="627,625 9381,625 9381,9379 627,9379 "/>
     </g>
     <g style="clip-path:url(#id1)">
      <g>
       <polygon id="1" class="fil0" points="627,625 9381,625 9381,9379 627,9379 627,625 656,654 9352,654 9352,9349 656,9349 656,654 "/>
       <polygon id="_1" class="fil0" points="642,639 9366,639 9366,9364 642,9364 642,639 671,669 9337,669 9337,9335 671,9335 671,669 "/>
       <polygon id="_2" class="fil2" points="656,654 9352,654 9352,9349 656,9349 656,654 685,683 9323,683 9323,9320 685,9320 685,683 "/>
       <polygon id="_3" class="fil3" points="671,669 9337,669 9337,9335 671,9335 671,669 700,698 9308,698 9308,9306 700,9306 700,698 "/>
       <polygon id="_4" class="fil4" points="685,683 9323,683 9323,9320 685,9320 685,683 715,712 9293,712 9293,9291 715,9291 715,712 "/>
       <polygon id="_5" class="fil5" points="700,698 9308,698 9308,9306 700,9306 700,698 729,727 9279,727 9279,9277 729,9277 729,727 "/>
       <polygon id="_6" class="fil5" points="715,712 9293,712 9293,9291 715,9291 715,712 744,742 9264,742 9264,9262 744,9262 744,742 "/>
       <polygon id="_7" class="fil6" points="729,727 9279,727 9279,9277 729,9277 729,727 758,756 9250,756 9250,9247 758,9247 758,756 "/>
       <polygon id="_8" class="fil7" points="744,742 9264,742 9264,9262 744,9262 744,742 773,771 9235,771 9235,9233 773,9233 773,771 "/>
       <polygon id="_9" class="fil8" points="758,756 9250,756 9250,9247 758,9247 758,756 788,785 9220,785 9220,9218 788,9218 788,785 "/>
       <polygon id="_10" class="fil9" points="773,771 9235,771 9235,9233 773,9233 773,771 802,800 9206,800 9206,9204 802,9204 802,800 "/>
       <polygon id="_11" class="fil10" points="788,785 9220,785 9220,9218 788,9218 788,785 817,814 9191,814 9191,9189 817,9189 817,814 "/>
       <polygon id="_12" class="fil11" points="802,800 9206,800 9206,9204 802,9204 802,800 831,829 9177,829 9177,9174 831,9174 831,829 "/>
       <polygon id="_13" class="fil12" points="817,814 9191,814 9191,9189 817,9189 817,814 846,844 9162,844 9162,9160 846,9160 846,844 "/>
       <polygon id="_14" class="fil12" points="831,829 9177,829 9177,9174 831,9174 831,829 860,858 9147,858 9147,9145 860,9145 860,858 "/>
       <polygon id="_15" class="fil13" points="846,844 9162,844 9162,9160 846,9160 846,844 875,873 9133,873 9133,9131 875,9131 875,873 "/>
       <polygon id="_16" class="fil14" points="860,858 9147,858 9147,9145 860,9145 860,858 890,887 9118,887 9118,9116 890,9116 890,887 "/>
       <polygon id="_17" class="fil15" points="875,873 9133,873 9133,9131 875,9131 875,873 904,902 9104,902 9104,9101 904,9101 904,902 "/>
       <polygon id="_18" class="fil16" points="890,887 9118,887 9118,9116 890,9116 890,887 919,917 9089,917 9089,9087 919,9087 919,917 "/>
       <polygon id="_19" class="fil17" points="904,902 9104,902 9104,9101 904,9101 904,902 933,931 9075,931 9075,9072 933,9072 933,931 "/>
       <polygon id="_20" class="fil18" points="919,917 9089,917 9089,9087 919,9087 919,917 948,946 9060,946 9060,9058 948,9058 948,946 "/>
       <polygon id="_21" class="fil19" points="933,931 9075,931 9075,9072 933,9072 933,931 963,960 9045,960 9045,9043 963,9043 963,960 "/>
       <polygon id="_22" class="fil19" points="948,946 9060,946 9060,9058 948,9058 948,946 977,975 9031,975 9031,9028 977,9028 977,975 "/>
       <polygon id="_23" class="fil20" points="963,960 9045,960 9045,9043 963,9043 963,960 992,990 9016,990 9016,9014 992,9014 992,990 "/>
       <polygon id="_24" class="fil21" points="977,975 9031,975 9031,9028 977,9028 977,975 1006,1004 9002,1004 9002,8999 1006,8999 1006,1004 "/>
       <polygon id="_25" class="fil22" points="992,990 9016,990 9016,9014 992,9014 992,990 1021,1019 8987,1019 8987,8985 1021,8985 1021,1019 "/>
       <polygon id="_26" class="fil23" points="1006,1004 9002,1004 9002,8999 1006,8999 1006,1004 1036,1033 8972,1033 8972,8970 1036,8970 1036,1033 "/>
       <polygon id="_27" class="fil24" points="1021,1019 8987,1019 8987,8985 1021,8985 1021,1019 1050,1048 8958,1048 8958,8956 1050,8956 1050,1048 "/>
       <polygon id="_28" class="fil24" points="1036,1033 8972,1033 8972,8970 1036,8970 1036,1033 1065,1062 8943,1062 8943,8941 1065,8941 1065,1062 "/>
       <polygon id="_29" class="fil25" points="1050,1048 8958,1048 8958,8956 1050,8956 1050,1048 1079,1077 8929,1077 8929,8926 1079,8926 1079,1077 "/>
       <polygon id="_30" class="fil26" points="1065,1062 8943,1062 8943,8941 1065,8941 1065,1062 1094,1092 8914,1092 8914,8912 1094,8912 1094,1092 "/>
       <polygon id="_31" class="fil27" points="1079,1077 8929,1077 8929,8926 1079,8926 1079,1077 1109,1106 8899,1106 8899,8897 1109,8897 1109,1106 "/>
       <polygon id="_32" class="fil28" points="1094,1092 8914,1092 8914,8912 1094,8912 1094,1092 1123,1121 8885,1121 8885,8883 1123,8883 1123,1121 "/>
       <polygon id="_33" class="fil28" points="1109,1106 8899,1106 8899,8897 1109,8897 1109,1106 1138,1135 8870,1135 8870,8868 1138,8868 1138,1135 "/>
       <polygon id="_34" class="fil29" points="1123,1121 8885,1121 8885,8883 1123,8883 1123,1121 1152,1150 8856,1150 8856,8853 1152,8853 1152,1150 "/>
       <polygon id="_35" class="fil30" points="1138,1135 8870,1135 8870,8868 1138,8868 1138,1135 1167,1165 8841,1165 8841,8839 1167,8839 1167,1165 "/>
       <polygon id="_36" class="fil31" points="1152,1150 8856,1150 8856,8853 1152,8853 1152,1150 1181,1179 8826,1179 8826,8824 1181,8824 1181,1179 "/>
       <polygon id="_37" class="fil32" points="1167,1165 8841,1165 8841,8839 1167,8839 1167,1165 1196,1194 8812,1194 8812,8810 1196,8810 1196,1194 "/>
       <polygon id="_38" class="fil33" points="1181,1179 8827,1179 8827,8824 1181,8824 1181,1179 1211,1208 8797,1208 8797,8795 1211,8795 1211,1208 "/>
       <polygon id="_39" class="fil34" points="1196,1194 8812,1194 8812,8810 1196,8810 1196,1194 1225,1223 8783,1223 8783,8780 1225,8780 1225,1223 "/>
       <polygon id="_40" class="fil35" points="1211,1208 8797,1208 8797,8795 1211,8795 1211,1208 1240,1238 8768,1238 8768,8766 1240,8766 1240,1238 "/>
       <polygon id="_41" class="fil35" points="1225,1223 8783,1223 8783,8780 1225,8780 1225,1223 1254,1252 8754,1252 8754,8751 1254,8751 1254,1252 "/>
       <polygon id="_42" class="fil36" points="1240,1238 8768,1238 8768,8766 1240,8766 1240,1238 1269,1267 8739,1267 8739,8737 1269,8737 1269,1267 "/>
       <polygon id="_43" class="fil37" points="1254,1252 8754,1252 8754,8751 1254,8751 1254,1252 1284,1281 8724,1281 8724,8722 1284,8722 1284,1281 "/>
       <polygon id="_44" class="fil38" points="1269,1267 8739,1267 8739,8737 1269,8737 1269,1267 1298,1296 8710,1296 8710,8708 1298,8708 1298,1296 "/>
       <polygon id="_45" class="fil39" points="1284,1281 8724,1281 8724,8722 1284,8722 1284,1281 1313,1311 8695,1311 8695,8693 1313,8693 1313,1311 "/>
       <polygon id="_46" class="fil40" points="1298,1296 8710,1296 8710,8708 1298,8708 1298,1296 1327,1325 8681,1325 8681,8678 1327,8678 1327,1325 "/>
       <polygon id="_47" class="fil41" points="1313,1310 8695,1310 8695,8693 1313,8693 1313,1310 1342,1340 8666,1340 8666,8664 1342,8664 1342,1340 "/>
       <polygon id="_48" class="fil42" points="1327,1325 8681,1325 8681,8678 1327,8678 1327,1325 1357,1354 8651,1354 8651,8649 1357,8649 1357,1354 "/>
       <polygon id="_49" class="fil42" points="1342,1340 8666,1340 8666,8664 1342,8664 1342,1340 1371,1369 8637,1369 8637,8635 1371,8635 1371,1369 "/>
       <polygon id="_50" class="fil43" points="1357,1354 8651,1354 8651,8649 1357,8649 1357,1354 1386,1383 8622,1383 8622,8620 1386,8620 1386,1383 "/>
       <polygon id="_51" class="fil44" points="1371,1369 8637,1369 8637,8635 1371,8635 1371,1369 1400,1398 8608,1398 8608,8605 1400,8605 1400,1398 "/>
       <polygon id="_52" class="fil45" points="1386,1383 8622,1383 8622,8620 1386,8620 1386,1383 1415,1413 8593,1413 8593,8591 1415,8591 1415,1413 "/>
       <polygon id="_53" class="fil46" points="1400,1398 8608,1398 8608,8605 1400,8605 1400,1398 1429,1427 8578,1427 8578,8576 1429,8576 1429,1427 "/>
       <polygon id="_54" class="fil47" points="1415,1413 8593,1413 8593,8591 1415,8591 1415,1413 1444,1442 8564,1442 8564,8562 1444,8562 1444,1442 "/>
       <polygon id="_55" class="fil47" points="1429,1427 8578,1427 8578,8576 1429,8576 1429,1427 1459,1456 8549,1456 8549,8547 1459,8547 1459,1456 "/>
       <polygon id="_56" class="fil47" points="1444,1442 8564,1442 8564,8562 1444,8562 1444,1442 1473,1471 8535,1471 8535,8532 1473,8532 1473,1471 "/>
       <polygon id="_57" class="fil47" points="1459,1456 8549,1456 8549,8547 1459,8547 1459,1456 1488,1486 8520,1486 8520,8518 1488,8518 1488,1486 "/>
       <polygon id="_58" class="fil47" points="1473,1471 8535,1471 8535,8532 1473,8532 1473,1471 1502,1500 8506,1500 8506,8503 1502,8503 1502,1500 "/>
       <polygon id="_59" class="fil47" points="1488,1486 8520,1486 8520,8518 1488,8518 1488,1486 1517,1515 8491,1515 8491,8489 1517,8489 1517,1515 "/>
       <polygon id="_60" class="fil47" points="1502,1500 8506,1500 8506,8503 1502,8503 1502,1500 1532,1529 8476,1529 8476,8474 1532,8474 1532,1529 "/>
       <polygon id="_61" class="fil47" points="1517,1515 8491,1515 8491,8489 1517,8489 1517,1515 1546,1544 8462,1544 8462,8460 1546,8460 1546,1544 "/>
       <polygon id="_62" class="fil47" points="1532,1529 8476,1529 8476,8474 1532,8474 1532,1529 1561,1559 8447,1559 8447,8445 1561,8445 1561,1559 "/>
       <polygon id="_63" class="fil47" points="1546,1544 8462,1544 8462,8460 1546,8460 1546,1544 1575,1573 8433,1573 8433,8430 1575,8430 1575,1573 "/>
       <polygon id="_64" class="fil47" points="1561,1559 8447,1559 8447,8445 1561,8445 1561,1559 1590,1588 8418,1588 8418,8416 1590,8416 1590,1588 "/>
       <polygon id="_65" class="fil47" points="1575,1573 8433,1573 8433,8430 1575,8430 1575,1573 1605,1602 8403,1602 8403,8401 1605,8401 1605,1602 "/>
       <polygon id="_66" class="fil47" points="1590,1588 8418,1588 8418,8416 1590,8416 1590,1588 1619,1617 8389,1617 8389,8387 1619,8387 1619,1617 "/>
       <polygon id="_67" class="fil47" points="1605,1602 8403,1602 8403,8401 1605,8401 1605,1602 1634,1631 8374,1631 8374,8372 1634,8372 1634,1631 "/>
       <polygon id="_68" class="fil47" points="1619,1617 8389,1617 8389,8387 1619,8387 1619,1617 1648,1646 8360,1646 8360,8357 1648,8357 1648,1646 "/>
       <polygon id="_69" class="fil47" points="1634,1631 8374,1631 8374,8372 1634,8372 1634,1631 1663,1661 8345,1661 8345,8343 1663,8343 1663,1661 "/>
       <polygon id="_70" class="fil47" points="1648,1646 8360,1646 8360,8357 1648,8357 1648,1646 1677,1675 8330,1675 8330,8328 1677,8328 1677,1675 "/>
       <polygon id="_71" class="fil47" points="1663,1661 8345,1661 8345,8343 1663,8343 1663,1661 1692,1690 8316,1690 8316,8314 1692,8314 1692,1690 "/>
       <polygon id="_72" class="fil47" points="1677,1675 8330,1675 8330,8328 1677,8328 1677,1675 1707,1704 8301,1704 8301,8299 1707,8299 1707,1704 "/>
       <polygon id="_73" class="fil47" points="1692,1690 8316,1690 8316,8314 1692,8314 1692,1690 1721,1719 8287,1719 8287,8284 1721,8284 1721,1719 "/>
       <polygon id="_74" class="fil47" points="1707,1704 8301,1704 8301,8299 1707,8299 1707,1704 1736,1734 8272,1734 8272,8270 1736,8270 1736,1734 "/>
       <polygon id="_75" class="fil47" points="1721,1719 8287,1719 8287,8284 1721,8284 1721,1719 1750,1748 8258,1748 8258,8255 1750,8255 1750,1748 "/>
       <polygon id="_76" class="fil47" points="1736,1734 8272,1734 8272,8270 1736,8270 1736,1734 1765,1763 8243,1763 8243,8241 1765,8241 1765,1763 "/>
       <polygon id="_77" class="fil47" points="1750,1748 8258,1748 8258,8255 1750,8255 1750,1748 1780,1777 8228,1777 8228,8226 1780,8226 1780,1777 "/>
       <polygon id="_78" class="fil47" points="1765,1763 8243,1763 8243,8241 1765,8241 1765,1763 1794,1792 8214,1792 8214,8211 1794,8211 1794,1792 "/>
       <polygon id="_79" class="fil47" points="1780,1777 8228,1777 8228,8226 1780,8226 1780,1777 1809,1807 8199,1807 8199,8197 1809,8197 1809,1807 "/>
       <polygon id="_80" class="fil47" points="1794,1792 8214,1792 8214,8211 1794,8211 1794,1792 1823,1821 8185,1821 8185,8182 1823,8182 1823,1821 "/>
       <polygon id="_81" class="fil47" points="1809,1807 8199,1807 8199,8197 1809,8197 1809,1807 1838,1836 8170,1836 8170,8168 1838,8168 1838,1836 "/>
       <polygon id="_82" class="fil47" points="1823,1821 8185,1821 8185,8182 1823,8182 1823,1821 1853,1850 8155,1850 8155,8153 1853,8153 1853,1850 "/>
       <polygon id="_83" class="fil47" points="1838,1836 8170,1836 8170,8168 1838,8168 1838,1836 1867,1865 8141,1865 8141,8139 1867,8139 1867,1865 "/>
       <polygon id="_84" class="fil47" points="1853,1850 8155,1850 8155,8153 1853,8153 1853,1850 1882,1879 8126,1879 8126,8124 1882,8124 1882,1879 "/>
       <polygon id="_85" class="fil47" points="1867,1865 8141,1865 8141,8139 1867,8139 1867,1865 1896,1894 8112,1894 8112,8109 1896,8109 1896,1894 "/>
       <polygon id="_86" class="fil47" points="1882,1879 8126,1879 8126,8124 1882,8124 1882,1879 1911,1909 8097,1909 8097,8095 1911,8095 1911,1909 "/>
       <polygon id="_87" class="fil47" points="1896,1894 8112,1894 8112,8109 1896,8109 1896,1894 1926,1923 8082,1923 8082,8080 1926,8080 1926,1923 "/>
       <polygon id="_88" class="fil47" points="1911,1909 8097,1909 8097,8095 1911,8095 1911,1909 1940,1938 8068,1938 8068,8066 1940,8066 1940,1938 "/>
       <polygon id="_89" class="fil47" points="1926,1923 8082,1923 8082,8080 1926,8080 1926,1923 1955,1952 8053,1952 8053,8051 1955,8051 1955,1952 "/>
       <polygon id="_90" class="fil47" points="1940,1938 8068,1938 8068,8066 1940,8066 1940,1938 1969,1967 8039,1967 8039,8036 1969,8036 1969,1967 "/>
       <polygon id="_91" class="fil47" points="1955,1952 8053,1952 8053,8051 1955,8051 1955,1952 1984,1982 8024,1982 8024,8022 1984,8022 1984,1982 "/>
       <polygon id="_92" class="fil47" points="1969,1967 8039,1967 8039,8036 1969,8036 1969,1967 1998,1996 8009,1996 8009,8007 1998,8007 1998,1996 "/>
       <polygon id="_93" class="fil47" points="1984,1982 8024,1982 8024,8022 1984,8022 1984,1982 2013,2011 7995,2011 7995,7993 2013,7993 2013,2011 "/>
       <polygon id="_94" class="fil47" points="1998,1996 8009,1996 8009,8007 1998,8007 1998,1996 2028,2025 7980,2025 7980,7978 2028,7978 2028,2025 "/>
       <polygon id="_95" class="fil47" points="2013,2011 7995,2011 7995,7993 2013,7993 2013,2011 2042,2040 7966,2040 7966,7963 2042,7963 2042,2040 "/>
       <polygon id="_96" class="fil47" points="2028,2025 7980,2025 7980,7978 2028,7978 2028,2025 2057,2055 7951,2055 7951,7949 2057,7949 2057,2055 "/>
       <polygon id="_97" class="fil47" points="2042,2040 7966,2040 7966,7963 2042,7963 2042,2040 2071,2069 7937,2069 7937,7934 2071,7934 2071,2069 "/>
       <polygon id="_98" class="fil47" points="2057,2055 7951,2055 7951,7949 2057,7949 2057,2055 2086,2084 7922,2084 7922,7920 2086,7920 2086,2084 "/>
       <polygon id="_99" class="fil47" points="2071,2069 7937,2069 7937,7934 2071,7934 2071,2069 2101,2098 7907,2098 7907,7905 2101,7905 2101,2098 "/>
       <polygon id="_100" class="fil47" points="2086,2084 7922,2084 7922,7920 2086,7920 2086,2084 2115,2113 7893,2113 7893,7891 2115,7891 2115,2113 "/>
       <polygon id="_101" class="fil47" points="2101,2098 7907,2098 7907,7905 2101,7905 2101,2098 2130,2128 7878,2128 7878,7876 2130,7876 2130,2128 "/>
       <polygon id="_102" class="fil47" points="2115,2113 7893,2113 7893,7891 2115,7891 2115,2113 2144,2142 7864,2142 7864,7861 2144,7861 2144,2142 "/>
       <polygon id="_103" class="fil47" points="2130,2128 7878,2128 7878,7876 2130,7876 2130,2128 2159,2157 7849,2157 7849,7847 2159,7847 2159,2157 "/>
       <polygon id="_104" class="fil47" points="2144,2142 7864,2142 7864,7861 2144,7861 2144,2142 2174,2171 7834,2171 7834,7832 2174,7832 2174,2171 "/>
       <polygon id="_105" class="fil47" points="2159,2157 7849,2157 7849,7847 2159,7847 2159,2157 2188,2186 7820,2186 7820,7818 2188,7818 2188,2186 "/>
       <polygon id="_106" class="fil47" points="2174,2171 7834,2171 7834,7832 2174,7832 2174,2171 2203,2200 7805,2200 7805,7803 2203,7803 2203,2200 "/>
       <polygon id="_107" class="fil47" points="2188,2186 7820,2186 7820,7818 2188,7818 2188,2186 2217,2215 7791,2215 7791,7788 2217,7788 2217,2215 "/>
       <polygon id="_108" class="fil47" points="2203,2200 7805,2200 7805,7803 2203,7803 2203,2200 2232,2230 7776,2230 7776,7774 2232,7774 2232,2230 "/>
       <polygon id="_109" class="fil47" points="2217,2215 7791,2215 7791,7788 2217,7788 2217,2215 2247,2244 7761,2244 7761,7759 2247,7759 2247,2244 "/>
       <polygon id="_110" class="fil47" points="2232,2230 7776,2230 7776,7774 2232,7774 2232,2230 2261,2259 7747,2259 7747,7745 2261,7745 2261,2259 "/>
       <polygon id="_111" class="fil47" points="2247,2244 7761,2244 7761,7759 2247,7759 2247,2244 2276,2273 7732,2273 7732,7730 2276,7730 2276,2273 "/>
       <polygon id="_112" class="fil47" points="2261,2259 7747,2259 7747,7745 2261,7745 2261,2259 2290,2288 7718,2288 7718,7715 2290,7715 2290,2288 "/>
       <polygon id="_113" class="fil47" points="2276,2273 7732,2273 7732,7730 2276,7730 2276,2273 2305,2303 7703,2303 7703,7701 2305,7701 2305,2303 "/>
       <polygon id="_114" class="fil47" points="2290,2288 7718,2288 7718,7715 2290,7715 2290,2288 2319,2317 7688,2317 7688,7686 2319,7686 2319,2317 "/>
       <polygon id="_115" class="fil47" points="2305,2303 7703,2303 7703,7701 2305,7701 2305,2303 2334,2332 7674,2332 7674,7672 2334,7672 2334,2332 "/>
       <polygon id="_116" class="fil47" points="2319,2317 7688,2317 7688,7686 2319,7686 2319,2317 2349,2346 7659,2346 7659,7657 2349,7657 2349,2346 "/>
       <polygon id="_117" class="fil47" points="2334,2332 7674,2332 7674,7672 2334,7672 2334,2332 2363,2361 7645,2361 7645,7642 2363,7642 2363,2361 "/>
       <polygon id="_118" class="fil47" points="2349,2346 7659,2346 7659,7657 2349,7657 2349,2346 2378,2376 7630,2376 7630,7628 2378,7628 2378,2376 "/>
       <polygon id="_119" class="fil47" points="2363,2361 7645,2361 7645,7642 2363,7642 2363,2361 2392,2390 7616,2390 7616,7613 2392,7613 2392,2390 "/>
       <polygon id="_120" class="fil47" points="2378,2376 7630,2376 7630,7628 2378,7628 2378,2376 2407,2405 7601,2405 7601,7599 2407,7599 2407,2405 "/>
       <polygon id="_121" class="fil47" points="2392,2390 7616,2390 7616,7613 2392,7613 2392,2390 2422,2419 7586,2419 7586,7584 2422,7584 2422,2419 "/>
       <polygon id="_122" class="fil47" points="2407,2405 7601,2405 7601,7599 2407,7599 2407,2405 2436,2434 7572,2434 7572,7570 2436,7570 2436,2434 "/>
       <polygon id="_123" class="fil47" points="2422,2419 7586,2419 7586,7584 2422,7584 2422,2419 2451,2449 7557,2449 7557,7555 2451,7555 2451,2449 "/>
       <polygon id="_124" class="fil47" points="2436,2434 7572,2434 7572,7570 2436,7570 2436,2434 2465,2463 7543,2463 7543,7540 2465,7540 2465,2463 "/>
       <polygon id="_125" class="fil47" points="2451,2449 7557,2449 7557,7555 2451,7555 2451,2449 2480,2478 7528,2478 7528,7526 2480,7526 2480,2478 "/>
       <polygon id="_126" class="fil47" points="2465,2463 7543,2463 7543,7540 2465,7540 2465,2463 2495,2492 7513,2492 7513,7511 2495,7511 2495,2492 "/>
       <polygon id="_127" class="fil47" points="2480,2478 7528,2478 7528,7526 2480,7526 2480,2478 2509,2507 7499,2507 7499,7497 2509,7497 2509,2507 "/>
       <polygon id="_128" class="fil47" points="2495,2492 7513,2492 7513,7511 2495,7511 2495,2492 2524,2521 7484,2521 7484,7482 2524,7482 2524,2521 "/>
       <polygon id="_129" class="fil47" points="2509,2507 7499,2507 7499,7497 2509,7497 2509,2507 2538,2536 7470,2536 7470,7467 2538,7467 2538,2536 "/>
       <polygon id="_130" class="fil47" points="2524,2521 7484,2521 7484,7482 2524,7482 2524,2521 2553,2551 7455,2551 7455,7453 2553,7453 2553,2551 "/>
       <polygon id="_131" class="fil47" points="2538,2536 7470,2536 7470,7467 2538,7467 2538,2536 2567,2565 7440,2565 7440,7438 2567,7438 2567,2565 "/>
       <polygon id="_132" class="fil47" points="2553,2551 7455,2551 7455,7453 2553,7453 2553,2551 2582,2580 7426,2580 7426,7424 2582,7424 2582,2580 "/>
       <polygon id="_133" class="fil47" points="2567,2565 7440,2565 7440,7438 2567,7438 2567,2565 2597,2594 7411,2594 7411,7409 2597,7409 2597,2594 "/>
       <polygon id="_134" class="fil47" points="2582,2580 7426,2580 7426,7424 2582,7424 2582,2580 2611,2609 7397,2609 7397,7394 2611,7394 2611,2609 "/>
       <polygon id="_135" class="fil47" points="2597,2594 7411,2594 7411,7409 2597,7409 2597,2594 2626,2624 7382,2624 7382,7380 2626,7380 2626,2624 "/>
       <polygon id="_136" class="fil47" points="2611,2609 7397,2609 7397,7394 2611,7394 2611,2609 2640,2638 7368,2638 7368,7365 2640,7365 2640,2638 "/>
       <polygon id="_137" class="fil47" points="2626,2624 7382,2624 7382,7380 2626,7380 2626,2624 2655,2653 7353,2653 7353,7351 2655,7351 2655,2653 "/>
       <polygon id="_138" class="fil47" points="2640,2638 7368,2638 7368,7365 2640,7365 2640,2638 2670,2667 7338,2667 7338,7336 2670,7336 2670,2667 "/>
       <polygon id="_139" class="fil47" points="2655,2653 7353,2653 7353,7351 2655,7351 2655,2653 2684,2682 7324,2682 7324,7321 2684,7321 2684,2682 "/>
       <polygon id="_140" class="fil47" points="2670,2667 7338,2667 7338,7336 2670,7336 2670,2667 2699,2697 7309,2697 7309,7307 2699,7307 2699,2697 "/>
       <polygon id="_141" class="fil47" points="2684,2682 7324,2682 7324,7321 2684,7321 2684,2682 2713,2711 7295,2711 7295,7292 2713,7292 2713,2711 "/>
       <polygon id="_142" class="fil47" points="2699,2697 7309,2697 7309,7307 2699,7307 2699,2697 2728,2726 7280,2726 7280,7278 2728,7278 2728,2726 "/>
       <polygon id="_143" class="fil47" points="2713,2711 7295,2711 7295,7292 2713,7292 2713,2711 2743,2740 7265,2740 7265,7263 2743,7263 2743,2740 "/>
       <polygon id="_144" class="fil47" points="2728,2726 7280,2726 7280,7278 2728,7278 2728,2726 2757,2755 7251,2755 7251,7249 2757,7249 2757,2755 "/>
       <polygon id="_145" class="fil47" points="2743,2740 7265,2740 7265,7263 2743,7263 2743,2740 2772,2769 7236,2769 7236,7234 2772,7234 2772,2769 "/>
       <polygon id="_146" class="fil47" points="2757,2755 7251,2755 7251,7249 2757,7249 2757,2755 2786,2784 7222,2784 7222,7219 2786,7219 2786,2784 "/>
       <polygon id="_147" class="fil47" points="2772,2769 7236,2769 7236,7234 2772,7234 2772,2769 2801,2799 7207,2799 7207,7205 2801,7205 2801,2799 "/>
       <polygon id="_148" class="fil47" points="2786,2784 7222,2784 7222,7219 2786,7219 2786,2784 2816,2813 7192,2813 7192,7190 2816,7190 2816,2813 "/>
       <polygon id="_149" class="fil47" points="2801,2799 7207,2799 7207,7205 2801,7205 2801,2799 2830,2828 7178,2828 7178,7176 2830,7176 2830,2828 "/>
       <polygon id="_150" class="fil47" points="2816,2813 7192,2813 7192,7190 2816,7190 2816,2813 2845,2842 7163,2842 7163,7161 2845,7161 2845,2842 "/>
       <polygon id="_151" class="fil47" points="2830,2828 7178,2828 7178,7176 2830,7176 2830,2828 2859,2857 7149,2857 7149,7146 2859,7146 2859,2857 "/>
       <polygon id="_152" class="fil47" points="2845,2842 7163,2842 7163,7161 2845,7161 2845,2842 2874,2872 7134,2872 7134,7132 2874,7132 2874,2872 "/>
       <polygon id="_153" class="fil47" points="2859,2857 7149,2857 7149,7146 2859,7146 2859,2857 2888,2886 7119,2886 7119,7117 2888,7117 2888,2886 "/>
       <polygon id="_154" class="fil47" points="2874,2872 7134,2872 7134,7132 2874,7132 2874,2872 2903,2901 7105,2901 7105,7103 2903,7103 2903,2901 "/>
       <polygon id="_155" class="fil47" points="2888,2886 7119,2886 7119,7117 2888,7117 2888,2886 2918,2915 7090,2915 7090,7088 2918,7088 2918,2915 "/>
       <polygon id="_156" class="fil47" points="2903,2901 7105,2901 7105,7103 2903,7103 2903,2901 2932,2930 7076,2930 7076,7073 2932,7073 2932,2930 "/>
       <polygon id="_157" class="fil47" points="2918,2915 7090,2915 7090,7088 2918,7088 2918,2915 2947,2945 7061,2945 7061,7059 2947,7059 2947,2945 "/>
       <polygon id="_158" class="fil47" points="2932,2930 7076,2930 7076,7073 2932,7073 2932,2930 2961,2959 7047,2959 7047,7044 2961,7044 2961,2959 "/>
       <polygon id="_159" class="fil47" points="2947,2945 7061,2945 7061,7059 2947,7059 2947,2945 2976,2974 7032,2974 7032,7030 2976,7030 2976,2974 "/>
       <polygon id="_160" class="fil47" points="2961,2959 7047,2959 7047,7044 2961,7044 2961,2959 2991,2988 7017,2988 7017,7015 2991,7015 2991,2988 "/>
       <polygon id="_161" class="fil47" points="2976,2974 7032,2974 7032,7030 2976,7030 2976,2974 3005,3003 7003,3003 7003,7001 3005,7001 3005,3003 "/>
       <polygon id="_162" class="fil47" points="2991,2988 7017,2988 7017,7015 2991,7015 2991,2988 3020,3018 6988,3018 6988,6986 3020,6986 3020,3018 "/>
       <polygon id="_163" class="fil47" points="3005,3003 7003,3003 7003,7001 3005,7001 3005,3003 3034,3032 6974,3032 6974,6971 3034,6971 3034,3032 "/>
       <polygon id="_164" class="fil47" points="3020,3018 6988,3018 6988,6986 3020,6986 3020,3018 3049,3047 6959,3047 6959,6957 3049,6957 3049,3047 "/>
       <polygon id="_165" class="fil47" points="3034,3032 6974,3032 6974,6971 3034,6971 3034,3032 3064,3061 6944,3061 6944,6942 3064,6942 3064,3061 "/>
       <polygon id="_166" class="fil47" points="3049,3047 6959,3047 6959,6957 3049,6957 3049,3047 3078,3076 6930,3076 6930,6928 3078,6928 3078,3076 "/>
       <polygon id="_167" class="fil47" points="3064,3061 6944,3061 6944,6942 3064,6942 3064,3061 3093,3090 6915,3090 6915,6913 3093,6913 3093,3090 "/>
       <polygon id="_168" class="fil47" points="3078,3076 6930,3076 6930,6928 3078,6928 3078,3076 3107,3105 6901,3105 6901,6898 3107,6898 3107,3105 "/>
       <polygon id="_169" class="fil47" points="3093,3090 6915,3090 6915,6913 3093,6913 3093,3090 3122,3120 6886,3120 6886,6884 3122,6884 3122,3120 "/>
       <polygon id="_170" class="fil47" points="3107,3105 6901,3105 6901,6898 3107,6898 3107,3105 3136,3134 6871,3134 6871,6869 3136,6869 3136,3134 "/>
       <polygon id="_171" class="fil47" points="3122,3120 6886,3120 6886,6884 3122,6884 3122,3120 3151,3149 6857,3149 6857,6855 3151,6855 3151,3149 "/>
       <polygon id="_172" class="fil47" points="3136,3134 6871,3134 6871,6869 3136,6869 3136,3134 3166,3163 6842,3163 6842,6840 3166,6840 3166,3163 "/>
       <polygon id="_173" class="fil47" points="3151,3149 6857,3149 6857,6855 3151,6855 3151,3149 3180,3178 6828,3178 6828,6825 3180,6825 3180,3178 "/>
       <polygon id="_174" class="fil47" points="3166,3163 6842,3163 6842,6840 3166,6840 3166,3163 3195,3193 6813,3193 6813,6811 3195,6811 3195,3193 "/>
       <polygon id="_175" class="fil47" points="3180,3178 6828,3178 6828,6825 3180,6825 3180,3178 3209,3207 6799,3207 6799,6796 3209,6796 3209,3207 "/>
       <polygon id="_176" class="fil47" points="3195,3193 6813,3193 6813,6811 3195,6811 3195,3193 3224,3222 6784,3222 6784,6782 3224,6782 3224,3222 "/>
       <polygon id="_177" class="fil47" points="3209,3207 6799,3207 6799,6796 3209,6796 3209,3207 3239,3236 6769,3236 6769,6767 3239,6767 3239,3236 "/>
       <polygon id="_178" class="fil47" points="3224,3222 6784,3222 6784,6782 3224,6782 3224,3222 3253,3251 6755,3251 6755,6752 3253,6752 3253,3251 "/>
       <polygon id="_179" class="fil47" points="3239,3236 6769,3236 6769,6767 3239,6767 3239,3236 3268,3266 6740,3266 6740,6738 3268,6738 3268,3266 "/>
       <polygon id="_180" class="fil47" points="3253,3251 6755,3251 6755,6752 3253,6752 3253,3251 3282,3280 6726,3280 6726,6723 3282,6723 3282,3280 "/>
       <polygon id="_181" class="fil47" points="3268,3266 6740,3266 6740,6738 3268,6738 3268,3266 3297,3295 6711,3295 6711,6709 3297,6709 3297,3295 "/>
       <polygon id="_182" class="fil47" points="3282,3280 6726,3280 6726,6723 3282,6723 3282,3280 3312,3309 6696,3309 6696,6694 3312,6694 3312,3309 "/>
       <polygon id="_183" class="fil47" points="3297,3295 6711,3295 6711,6709 3297,6709 3297,3295 3326,3324 6682,3324 6682,6680 3326,6680 3326,3324 "/>
       <polygon id="_184" class="fil47" points="3312,3309 6696,3309 6696,6694 3312,6694 3312,3309 3341,3339 6667,3339 6667,6665 3341,6665 3341,3339 "/>
       <polygon id="_185" class="fil47" points="3326,3324 6682,3324 6682,6680 3326,6680 3326,3324 3355,3353 6653,3353 6653,6650 3355,6650 3355,3353 "/>
       <polygon id="_186" class="fil47" points="3341,3338 6667,3338 6667,6665 3341,6665 3341,3338 3370,3368 6638,3368 6638,6636 3370,6636 3370,3368 "/>
       <polygon id="_187" class="fil47" points="3355,3353 6653,3353 6653,6650 3355,6650 3355,3353 3385,3382 6623,3382 6623,6621 3385,6621 3385,3382 "/>
       <polygon id="_188" class="fil47" points="3370,3368 6638,3368 6638,6636 3370,6636 3370,3368 3399,3397 6609,3397 6609,6607 3399,6607 3399,3397 "/>
       <polygon id="_189" class="fil47" points="3385,3382 6623,3382 6623,6621 3385,6621 3385,3382 3414,3411 6594,3411 6594,6592 3414,6592 3414,3411 "/>
       <polygon id="_190" class="fil47" points="3399,3397 6609,3397 6609,6607 3399,6607 3399,3397 3428,3426 6580,3426 6580,6577 3428,6577 3428,3426 "/>
       <polygon id="_191" class="fil47" points="3414,3411 6594,3411 6594,6592 3414,6592 3414,3411 3443,3441 6565,3441 6565,6563 3443,6563 3443,3441 "/>
       <polygon id="_192" class="fil47" points="3428,3426 6580,3426 6580,6577 3428,6577 3428,3426 3457,3455 6550,3455 6550,6548 3457,6548 3457,3455 "/>
       <polygon id="_193" class="fil47" points="3443,3441 6565,3441 6565,6563 3443,6563 3443,3441 3472,3470 6536,3470 6536,6534 3472,6534 3472,3470 "/>
       <polygon id="_194" class="fil47" points="3457,3455 6550,3455 6550,6548 3457,6548 3457,3455 3487,3484 6521,3484 6521,6519 3487,6519 3487,3484 "/>
       <polygon id="_195" class="fil47" points="3472,3470 6536,3470 6536,6534 3472,6534 3472,3470 3501,3499 6507,3499 6507,6504 3501,6504 3501,3499 "/>
       <polygon id="_196" class="fil47" points="3487,3484 6521,3484 6521,6519 3487,6519 3487,3484 3516,3514 6492,3514 6492,6490 3516,6490 3516,3514 "/>
       <polygon id="_197" class="fil47" points="3501,3499 6507,3499 6507,6504 3501,6504 3501,3499 3530,3528 6478,3528 6478,6475 3530,6475 3530,3528 "/>
       <polygon id="_198" class="fil47" points="3516,3514 6492,3514 6492,6490 3516,6490 3516,3514 3545,3543 6463,3543 6463,6461 3545,6461 3545,3543 "/>
       <polygon id="_199" class="fil47" points="3530,3528 6478,3528 6478,6475 3530,6475 3530,3528 3560,3557 6448,3557 6448,6446 3560,6446 3560,3557 "/>
       <polygon id="_200" class="fil47" points="3545,3543 6463,3543 6463,6461 3545,6461 3545,3543 3574,3572 6434,3572 6434,6432 3574,6432 3574,3572 "/>
       <polygon id="_201" class="fil47" points="3560,3557 6448,3557 6448,6446 3560,6446 3560,3557 3589,3587 6419,3587 6419,6417 3589,6417 3589,3587 "/>
       <polygon id="_202" class="fil47" points="3574,3572 6434,3572 6434,6432 3574,6432 3574,3572 3603,3601 6405,3601 6405,6402 3603,6402 3603,3601 "/>
       <polygon id="_203" class="fil47" points="3589,3587 6419,3587 6419,6417 3589,6417 3589,3587 3618,3616 6390,3616 6390,6388 3618,6388 3618,3616 "/>
       <polygon id="_204" class="fil47" points="3603,3601 6405,3601 6405,6402 3603,6402 3603,3601 3633,3630 6375,3630 6375,6373 3633,6373 3633,3630 "/>
       <polygon id="_205" class="fil47" points="3618,3616 6390,3616 6390,6388 3618,6388 3618,3616 3647,3645 6361,3645 6361,6359 3647,6359 3647,3645 "/>
       <polygon id="_206" class="fil47" points="3633,3630 6375,3630 6375,6373 3633,6373 3633,3630 3662,3659 6346,3659 6346,6344 3662,6344 3662,3659 "/>
       <polygon id="_207" class="fil47" points="3647,3645 6361,3645 6361,6359 3647,6359 3647,3645 3676,3674 6332,3674 6332,6329 3676,6329 3676,3674 "/>
       <polygon id="_208" class="fil47" points="3662,3659 6346,3659 6346,6344 3662,6344 3662,3659 3691,3689 6317,3689 6317,6315 3691,6315 3691,3689 "/>
       <polygon id="_209" class="fil47" points="3676,3674 6332,3674 6332,6329 3676,6329 3676,3674 3705,3703 6302,3703 6302,6300 3705,6300 3705,3703 "/>
       <polygon id="_210" class="fil47" points="3691,3689 6317,3689 6317,6315 3691,6315 3691,3689 3720,3718 6288,3718 6288,6286 3720,6286 3720,3718 "/>
       <polygon id="_211" class="fil47" points="3705,3703 6302,3703 6302,6300 3705,6300 3705,3703 3735,3732 6273,3732 6273,6271 3735,6271 3735,3732 "/>
       <polygon id="_212" class="fil47" points="3720,3718 6288,3718 6288,6286 3720,6286 3720,3718 3749,3747 6259,3747 6259,6256 3749,6256 3749,3747 "/>
       <polygon id="_213" class="fil47" points="3735,3732 6273,3732 6273,6271 3735,6271 3735,3732 3764,3762 6244,3762 6244,6242 3764,6242 3764,3762 "/>
       <polygon id="_214" class="fil47" points="3749,3747 6259,3747 6259,6256 3749,6256 3749,3747 3778,3776 6230,3776 6230,6227 3778,6227 3778,3776 "/>
       <polygon id="_215" class="fil47" points="3764,3762 6244,3762 6244,6242 3764,6242 3764,3762 3793,3791 6215,3791 6215,6213 3793,6213 3793,3791 "/>
       <polygon id="_216" class="fil47" points="3778,3776 6230,3776 6230,6227 3778,6227 3778,3776 3808,3805 6200,3805 6200,6198 3808,6198 3808,3805 "/>
       <polygon id="_217" class="fil47" points="3793,3791 6215,3791 6215,6213 3793,6213 3793,3791 3822,3820 6186,3820 6186,6183 3822,6183 3822,3820 "/>
       <polygon id="_218" class="fil47" points="3808,3805 6200,3805 6200,6198 3808,6198 3808,3805 3837,3835 6171,3835 6171,6169 3837,6169 3837,3835 "/>
       <polygon id="_219" class="fil47" points="3822,3820 6186,3820 6186,6183 3822,6183 3822,3820 3851,3849 6157,3849 6157,6154 3851,6154 3851,3849 "/>
       <polygon id="_220" class="fil47" points="3837,3835 6171,3835 6171,6169 3837,6169 3837,3835 3866,3864 6142,3864 6142,6140 3866,6140 3866,3864 "/>
       <polygon id="_221" class="fil47" points="3851,3849 6157,3849 6157,6154 3851,6154 3851,3849 3881,3878 6127,3878 6127,6125 3881,6125 3881,3878 "/>
       <polygon id="_222" class="fil47" points="3866,3864 6142,3864 6142,6140 3866,6140 3866,3864 3895,3893 6113,3893 6113,6111 3895,6111 3895,3893 "/>
       <polygon id="_223" class="fil47" points="3881,3878 6127,3878 6127,6125 3881,6125 3881,3878 3910,3907 6098,3907 6098,6096 3910,6096 3910,3907 "/>
       <polygon id="_224" class="fil47" points="3895,3893 6113,3893 6113,6111 3895,6111 3895,3893 3924,3922 6084,3922 6084,6081 3924,6081 3924,3922 "/>
       <polygon id="_225" class="fil47" points="3910,3907 6098,3907 6098,6096 3910,6096 3910,3907 3939,3937 6069,3937 6069,6067 3939,6067 3939,3937 "/>
       <polygon id="_226" class="fil47" points="3924,3922 6084,3922 6084,6081 3924,6081 3924,3922 3954,3951 6054,3951 6054,6052 3954,6052 3954,3951 "/>
       <polygon id="_227" class="fil47" points="3939,3937 6069,3937 6069,6067 3939,6067 3939,3937 3968,3966 6040,3966 6040,6038 3968,6038 3968,3966 "/>
       <polygon id="_228" class="fil47" points="3954,3951 6054,3951 6054,6052 3954,6052 3954,3951 3983,3980 6025,3980 6025,6023 3983,6023 3983,3980 "/>
       <polygon id="_229" class="fil47" points="3968,3966 6040,3966 6040,6038 3968,6038 3968,3966 3997,3995 6011,3995 6011,6008 3997,6008 3997,3995 "/>
       <polygon id="_230" class="fil47" points="3983,3980 6025,3980 6025,6023 3983,6023 3983,3980 4012,4010 5996,4010 5996,5994 4012,5994 4012,4010 "/>
       <polygon id="_231" class="fil47" points="3997,3995 6011,3995 6011,6008 3997,6008 3997,3995 4026,4024 5981,4024 5981,5979 4026,5979 4026,4024 "/>
       <polygon id="_232" class="fil47" points="4012,4010 5996,4010 5996,5994 4012,5994 4012,4010 4041,4039 5967,4039 5967,5965 4041,5965 4041,4039 "/>
       <polygon id="_233" class="fil47" points="4026,4024 5982,4024 5982,5979 4026,5979 4026,4024 4056,4053 5952,4053 5952,5950 4056,5950 4056,4053 "/>
       <polygon id="_234" class="fil47" points="4041,4039 5967,4039 5967,5965 4041,5965 4041,4039 4070,4068 5938,4068 5938,5935 4070,5935 4070,4068 "/>
       <polygon id="_235" class="fil47" points="4056,4053 5952,4053 5952,5950 4056,5950 4056,4053 4085,4083 5923,4083 5923,5921 4085,5921 4085,4083 "/>
       <polygon id="_236" class="fil47" points="4070,4068 5938,4068 5938,5935 4070,5935 4070,4068 4099,4097 5909,4097 5909,5906 4099,5906 4099,4097 "/>
       <polygon id="_237" class="fil47" points="4085,4083 5923,4083 5923,5921 4085,5921 4085,4083 4114,4112 5894,4112 5894,5892 4114,5892 4114,4112 "/>
       <polygon id="_238" class="fil47" points="4099,4097 5909,4097 5909,5906 4099,5906 4099,4097 4129,4126 5879,4126 5879,5877 4129,5877 4129,4126 "/>
       <polygon id="_239" class="fil47" points="4114,4112 5894,4112 5894,5892 4114,5892 4114,4112 4143,4141 5865,4141 5865,5863 4143,5863 4143,4141 "/>
       <polygon id="_240" class="fil47" points="4129,4126 5879,4126 5879,5877 4129,5877 4129,4126 4158,4156 5850,4156 5850,5848 4158,5848 4158,4156 "/>
       <polygon id="_241" class="fil47" points="4143,4141 5865,4141 5865,5863 4143,5863 4143,4141 4172,4170 5836,4170 5836,5833 4172,5833 4172,4170 "/>
       <polygon id="_242" class="fil47" points="4158,4155 5850,4155 5850,5848 4158,5848 4158,4155 4187,4185 5821,4185 5821,5819 4187,5819 4187,4185 "/>
       <polygon id="_243" class="fil47" points="4172,4170 5836,4170 5836,5833 4172,5833 4172,4170 4202,4199 5806,4199 5806,5804 4202,5804 4202,4199 "/>
       <polygon id="_244" class="fil47" points="4187,4185 5821,4185 5821,5819 4187,5819 4187,4185 4216,4214 5792,4214 5792,5790 4216,5790 4216,4214 "/>
       <polygon id="_245" class="fil47" points="4202,4199 5806,4199 5806,5804 4202,5804 4202,4199 4231,4228 5777,4228 5777,5775 4231,5775 4231,4228 "/>
       <polygon id="_246" class="fil47" points="4216,4214 5792,4214 5792,5790 4216,5790 4216,4214 4245,4243 5763,4243 5763,5760 4245,5760 4245,4243 "/>
       <polygon id="_247" class="fil47" points="4231,4228 5777,4228 5777,5775 4231,5775 4231,4228 4260,4258 5748,4258 5748,5746 4260,5746 4260,4258 "/>
       <polygon id="_248" class="fil47" points="4245,4243 5763,4243 5763,5760 4245,5760 4245,4243 4274,4272 5733,4272 5733,5731 4274,5731 4274,4272 "/>
       <polygon id="_249" class="fil47" points="4260,4258 5748,4258 5748,5746 4260,5746 4260,4258 4289,4287 5719,4287 5719,5717 4289,5717 4289,4287 "/>
       <polygon id="_250" class="fil47" points="4274,4272 5733,4272 5733,5731 4274,5731 4274,4272 4304,4301 5704,4301 5704,5702 4304,5702 4304,4301 "/>
       <polygon id="_251" class="fil47" points="4289,4287 5719,4287 5719,5717 4289,5717 4289,4287 4318,4316 5690,4316 5690,5687 4318,5687 4318,4316 "/>
       <polygon id="_252" class="fil47" points="4304,4301 5704,4301 5704,5702 4304,5702 4304,4301 4333,4331 5675,4331 5675,5673 4333,5673 4333,4331 "/>
       <polygon id="_253" class="fil47" points="4318,4316 5690,4316 5690,5687 4318,5687 4318,4316 4347,4345 5661,4345 5661,5658 4347,5658 4347,4345 "/>
       <polygon id="_254" class="fil47" points="4333,4331 5675,4331 5675,5673 4333,5673 4333,4331 4362,4360 5646,4360 5646,5644 4362,5644 4362,4360 "/>
       <polygon id="_255" class="fil47" points="4347,4345 5661,4345 5661,5658 4347,5658 4347,4345 4377,4374 5631,4374 5631,5629 4377,5629 4377,4374 "/>
       <polygon id="_256" class="fil47" points="4362,4360 5646,4360 5646,5644 4362,5644 4362,4360 4391,4389 5617,4389 5617,5615 4391,5615 4391,4389 "/>
       <polygon id="_257" class="fil47" points="4377,4374 5631,4374 5631,5629 4377,5629 4377,4374 4406,4404 5602,4404 5602,5600 4406,5600 4406,4404 "/>
       <polygon id="_258" class="fil47" points="4391,4389 5617,4389 5617,5615 4391,5615 4391,4389 4420,4418 5588,4418 5588,5585 4420,5585 4420,4418 "/>
       <polygon id="_259" class="fil47" points="4406,4404 5602,4404 5602,5600 4406,5600 4406,4404 4435,4433 5573,4433 5573,5571 4435,5571 4435,4433 "/>
       <polygon id="_260" class="fil47" points="4420,4418 5588,4418 5588,5585 4420,5585 4420,4418 4450,4447 5558,4447 5558,5556 4450,5556 4450,4447 "/>
       <polygon id="_261" class="fil47" points="4435,4433 5573,4433 5573,5571 4435,5571 4435,4433 4464,4462 5544,4462 5544,5542 4464,5542 4464,4462 "/>
       <polygon id="_262" class="fil47" points="4450,4447 5558,4447 5558,5556 4450,5556 4450,4447 4479,4476 5529,4476 5529,5527 4479,5527 4479,4476 "/>
       <polygon id="_263" class="fil47" points="4464,4462 5544,4462 5544,5542 4464,5542 4464,4462 4493,4491 5515,4491 5515,5512 4493,5512 4493,4491 "/>
       <polygon id="_264" class="fil47" points="4479,4476 5529,4476 5529,5527 4479,5527 4479,4476 4508,4506 5500,4506 5500,5498 4508,5498 4508,4506 "/>
       <polygon id="_265" class="fil47" points="4493,4491 5515,4491 5515,5512 4493,5512 4493,4491 4523,4520 5485,4520 5485,5483 4523,5483 4523,4520 "/>
       <polygon id="_266" class="fil47" points="4508,4506 5500,4506 5500,5498 4508,5498 4508,4506 4537,4535 5471,4535 5471,5469 4537,5469 4537,4535 "/>
       <polygon id="_267" class="fil47" points="4523,4520 5485,4520 5485,5483 4523,5483 4523,4520 4552,4549 5456,4549 5456,5454 4552,5454 4552,4549 "/>
       <polygon id="_268" class="fil47" points="4537,4535 5471,4535 5471,5469 4537,5469 4537,4535 4566,4564 5442,4564 5442,5439 4566,5439 4566,4564 "/>
       <polygon id="_269" class="fil47" points="4552,4549 5456,4549 5456,5454 4552,5454 4552,4549 4581,4579 5427,4579 5427,5425 4581,5425 4581,4579 "/>
       <polygon id="_270" class="fil47" points="4566,4564 5442,4564 5442,5439 4566,5439 4566,4564 4595,4593 5412,4593 5412,5410 4595,5410 4595,4593 "/>
       <polygon id="_271" class="fil47" points="4581,4579 5427,4579 5427,5425 4581,5425 4581,4579 4610,4608 5398,4608 5398,5396 4610,5396 4610,4608 "/>
       <polygon id="_272" class="fil47" points="4595,4593 5412,4593 5412,5410 4595,5410 4595,4593 4625,4622 5383,4622 5383,5381 4625,5381 4625,4622 "/>
       <polygon id="_273" class="fil47" points="4610,4608 5398,4608 5398,5396 4610,5396 4610,4608 4639,4637 5369,4637 5369,5366 4639,5366 4639,4637 "/>
       <polygon id="_274" class="fil47" points="4625,4622 5383,4622 5383,5381 4625,5381 4625,4622 4654,4652 5354,4652 5354,5352 4654,5352 4654,4652 "/>
       <polygon id="_275" class="fil47" points="4639,4637 5369,4637 5369,5366 4639,5366 4639,4637 4668,4666 5340,4666 5340,5337 4668,5337 4668,4666 "/>
       <polygon id="_276" class="fil47" points="4654,4652 5354,4652 5354,5352 4654,5352 4654,4652 4683,4681 5325,4681 5325,5323 4683,5323 4683,4681 "/>
       <polygon id="_277" class="fil47" points="4668,4666 5340,4666 5340,5337 4668,5337 4668,4666 4698,4695 5310,4695 5310,5308 4698,5308 4698,4695 "/>
       <polygon id="_278" class="fil47" points="4683,4681 5325,4681 5325,5323 4683,5323 4683,4681 4712,4710 5296,4710 5296,5294 4712,5294 4712,4710 "/>
       <polygon id="_279" class="fil47" points="4698,4695 5310,4695 5310,5308 4698,5308 4698,4695 4727,4725 5281,4725 5281,5279 4727,5279 4727,4725 "/>
       <polygon id="_280" class="fil47" points="4712,4710 5296,4710 5296,5294 4712,5294 4712,4710 4741,4739 5267,4739 5267,5264 4741,5264 4741,4739 "/>
       <polygon id="_281" class="fil47" points="4727,4725 5281,4725 5281,5279 4727,5279 4727,4725 4756,4754 5252,4754 5252,5250 4756,5250 4756,4754 "/>
       <polygon id="_282" class="fil47" points="4741,4739 5267,4739 5267,5264 4741,5264 4741,4739 4771,4768 5237,4768 5237,5235 4771,5235 4771,4768 "/>
       <polygon id="_283" class="fil47" points="4756,4754 5252,4754 5252,5250 4756,5250 4756,4754 4785,4783 5223,4783 5223,5221 4785,5221 4785,4783 "/>
       <polygon id="_284" class="fil47" points="4771,4768 5237,4768 5237,5235 4771,5235 4771,4768 4800,4797 5208,4797 5208,5206 4800,5206 4800,4797 "/>
       <polygon id="_285" class="fil47" points="4785,4783 5223,4783 5223,5221 4785,5221 4785,4783 4814,4812 5194,4812 5194,5191 4814,5191 4814,4812 "/>
       <polygon id="_286" class="fil47" points="4800,4797 5208,4797 5208,5206 4800,5206 4800,4797 4829,4827 5179,4827 5179,5177 4829,5177 4829,4827 "/>
       <polygon id="_287" class="fil47" points="4814,4812 5194,4812 5194,5191 4814,5191 4814,4812 4843,4841 5164,4841 5164,5162 4843,5162 4843,4841 "/>
       <polygon id="_288" class="fil47" points="4829,4827 5179,4827 5179,5177 4829,5177 4829,4827 4858,4856 5150,4856 5150,5148 4858,5148 4858,4856 "/>
       <polygon id="_289" class="fil47" points="4843,4841 5164,4841 5164,5162 4843,5162 4843,4841 4873,4870 5135,4870 5135,5133 4873,5133 4873,4870 "/>
       <polygon id="_290" class="fil47" points="4858,4856 5150,4856 5150,5148 4858,5148 4858,4856 4887,4885 5121,4885 5121,5118 4887,5118 4887,4885 "/>
       <polygon id="_291" class="fil47" points="4873,4870 5135,4870 5135,5133 4873,5133 4873,4870 4902,4900 5106,4900 5106,5104 4902,5104 4902,4900 "/>
       <polygon id="_292" class="fil47" points="4887,4885 5121,4885 5121,5118 4887,5118 4887,4885 4916,4914 5092,4914 5092,5089 4916,5089 4916,4914 "/>
       <polygon id="_293" class="fil47" points="4902,4900 5106,4900 5106,5104 4902,5104 4902,4900 4931,4929 5077,4929 5077,5075 4931,5075 4931,4929 "/>
       <polygon id="_294" class="fil47" points="4916,4914 5092,4914 5092,5089 4916,5089 4916,4914 4946,4943 5062,4943 5062,5060 4946,5060 4946,4943 "/>
       <polygon id="_295" class="fil47" points="4931,4929 5077,4929 5077,5075 4931,5075 4931,4929 4960,4958 5048,4958 5048,5045 4960,5045 4960,4958 "/>
       <polygon id="_296" class="fil47" points="4946,4943 5062,4943 5062,5060 4946,5060 4946,4943 4975,4973 5033,4973 5033,5031 4975,5031 4975,4973 "/>
       <polygon id="_297" class="fil47" points="4960,4958 5048,4958 5048,5045 4960,5045 4960,4958 4989,4987 5019,4987 5019,5016 4989,5016 4989,4987 "/>
       <polygon id="_298" class="fil47" points="4975,4973 5033,4973 5033,5031 4975,5031 4975,4973 5004,5002 5004,5002 5004,5002 5004,5002 5004,5002 "/>
       <polygon id="_299" class="fil47" points="4989,4987 5019,4987 5019,5016 4989,5016 "/>
      </g>
     </g>
     <path class="fil48" d="M1585 9379l6838 0c527,0 958,-431 958,-958l0 -6838c0,-527 -431,-958 -958,-958l-6838 0c-527,0 -958,431 -958,958l0 6838c0,527 431,958 958,958z"/>
    </g>
   </g>
  </g>
 </g>
 <g id="Слой_x0020_1">
  <metadata id="CorelCorpID_1Corel-Layer"/>
  <path class="fil49 str0" d="M5326 7061c1932,-260 3519,-1462 3185,-2967 -335,-1505 -2298,-2010 -3342,-2052 -1044,-41 -3229,264 -3609,1857 -380,1594 1356,2397 2180,2576 94,238 386,498 -316,1215 -519,530 1420,163 1902,-628z"/>
 </g>
</svg>
