<?xml version="1.0" encoding="UTF-8"?>
<!DOCTYPE svg PUBLIC "-//W3C//DTD SVG 1.1//EN" "http://www.w3.org/Graphics/SVG/1.1/DTD/svg11.dtd">
<!-- Creator: CorelDRAW X6 -->
<svg xmlns="http://www.w3.org/2000/svg" xml:space="preserve" width="150px" height="150px" version="1.1" style="shape-rendering:geometricPrecision; text-rendering:geometricPrecision; image-rendering:optimizeQuality; fill-rule:evenodd; clip-rule:evenodd"
viewBox="0 0 15000 15000"
 xmlns:xlink="http://www.w3.org/1999/xlink">
 <defs>
  <style type="text/css">
   <![CDATA[
    .str3 {stroke:#4D4D4D;stroke-width:12.7}
    .str0 {stroke:#666666;stroke-width:79.375}
    .str2 {stroke:#2E4269;stroke-width:127}
    .str1 {stroke:#666666;stroke-width:127}
    .fil8 {fill:gray}
    .fil7 {fill:#CCCCCC}
    .fil3 {fill:url(#id0)}
    .fil1 {fill:url(#id1)}
    .fil2 {fill:url(#id2)}
    .fil6 {fill:url(#id3)}
    .fil4 {fill:url(#id4)}
    .fil5 {fill:url(#id5)}
    .fil0 {fill:url(#id6)}
   ]]>
  </style>
  <linearGradient id="id0" gradientUnits="userSpaceOnUse" x1="6865.01" y1="3113.81" x2="8510.36" y2="3113.81">
   <stop offset="0" style="stop-color:#4D4D4D"/>
   <stop offset="0.4" style="stop-color:#E6E6E6"/>
   <stop offset="0.658824" style="stop-color:#E6E6E6"/>
   <stop offset="1" style="stop-color:#4D4D4D"/>
  </linearGradient>
  <linearGradient id="id1" gradientUnits="userSpaceOnUse" x1="3666.35" y1="4721.96" x2="4829.71" y2="3745.78">
   <stop offset="0" style="stop-color:#4D4D4D"/>
   <stop offset="0.4" style="stop-color:#E6E6E6"/>
   <stop offset="0.611765" style="stop-color:#E6E6E6"/>
   <stop offset="1" style="stop-color:#333333"/>
  </linearGradient>
  <linearGradient id="id2" gradientUnits="userSpaceOnUse" xlink:href="#id1" x1="11461.9" y1="4545.57" x2="10298.6" y2="3569.4">
  </linearGradient>
  <linearGradient id="id3" gradientUnits="userSpaceOnUse" x1="5943.4" y1="8642.18" x2="8282.9" y2="6302.69">
   <stop offset="0" style="stop-color:red"/>
   <stop offset="1" style="stop-color:#EEB5B5"/>
  </linearGradient>
  <linearGradient id="id4" gradientUnits="userSpaceOnUse" x1="5424.1" y1="4135.27" x2="10056.7" y2="12159.1">
   <stop offset="0" style="stop-color:#999999"/>
   <stop offset="0.521569" style="stop-color:#CCCCCC"/>
   <stop offset="1" style="stop-color:#FEFEFE"/>
  </linearGradient>
  <linearGradient id="id5" gradientUnits="userSpaceOnUse" x1="7705.11" y1="10251.2" x2="7705.11" y2="5902.08">
   <stop offset="0" style="stop-color:#E1F0F6"/>
   <stop offset="0.568627" style="stop-color:#6299BD"/>
   <stop offset="1" style="stop-color:#4464A3"/>
  </linearGradient>
  <radialGradient id="id6" gradientUnits="objectBoundingBox" cx="50%" cy="50%" r="50%" fx="50%" fy="50%">
   <stop offset="0" style="stop-color:#FAA032"/>
   <stop offset="0.74902" style="stop-color:#F29322"/>
   <stop offset="1" style="stop-color:#CE7F22"/>
  </radialGradient>
 </defs>
 <g id="Layer_x0020_1">
  <metadata id="CorelCorpID_0Corel-Layer"/>
  <path class="fil0" d="M2824 264l9430 0c1429,0 2587,1159 2587,2587l0 9430c0,1429 -1159,2587 -2587,2587l-9430 0c-1429,0 -2587,-1159 -2587,-2588l0 -9430c0,-1429 1159,-2587 2588,-2587z"/>
 </g>
 <g id="Слой_x0020_1">
  <metadata id="CorelCorpID_1Corel-Layer"/>
  <path class="fil1 str0" d="M3730 3936l345 -274c99,-78 244,-62 322,37l406 511c78,99 62,244 -37,322l-345 274c-99,78 -244,62 -322,-37l-406 -511c-78,-99 -62,-244 37,-322z"/>
  <path class="fil2 str0" d="M11399 3760l-345 -274c-99,-78 -244,-62 -322,37l-406 511c-78,99 -62,244 37,322l345 274c99,78 244,62 322,-37l406 -511c78,-99 62,-244 -37,-322z"/>
  <rect class="fil3 str0" x="6753" y="2382" width="1870" height="1464" rx="670" ry="670"/>
  <circle class="fil4 str1" cx="7740" cy="8147" r="4845"/>
  <circle class="fil5 str2" cx="7705" cy="8077" r="3624"/>
  <path class="fil6" d="M5828 5982l16 -14c96,-82 242,-71 325,26l2255 2644c82,96 71,242 -26,325l-16 14c-96,82 -242,71 -325,-26l-2255 -2644c-82,-96 -71,-242 26,-325z"/>
  <circle class="fil7 str3" cx="7703" cy="8184" r="666"/>
  <circle class="fil8 str3" cx="7706" cy="8163" r="412"/>
  <circle class="fil7 str3" cx="10508" cy="8008" r="577"/>
  <circle class="fil8 str3" cx="10506" cy="8000" r="357"/>
  <circle class="fil7 str3" cx="7615" cy="5115" r="577"/>
  <circle class="fil8 str3" cx="7620" cy="5114" r="357"/>
  <circle class="fil7 str3" cx="4793" cy="8008" r="577"/>
  <circle class="fil8 str3" cx="4782" cy="8007" r="357"/>
  <circle class="fil7 str3" cx="7650" cy="10901" r="577"/>
  <circle class="fil8 str3" cx="7649" cy="10908" r="357"/>
 </g>
</svg>
