<?xml version="1.0" encoding="UTF-8"?>
<!DOCTYPE svg PUBLIC "-//W3C//DTD SVG 1.1//EN" "http://www.w3.org/Graphics/SVG/1.1/DTD/svg11.dtd">
<!-- Creator: CorelDRAW X6 -->
<svg xmlns="http://www.w3.org/2000/svg" xml:space="preserve" width="150px" height="150px" version="1.1" style="shape-rendering:geometricPrecision; text-rendering:geometricPrecision; image-rendering:optimizeQuality; fill-rule:evenodd; clip-rule:evenodd"
viewBox="0 0 15000 15000"
 xmlns:xlink="http://www.w3.org/1999/xlink">
 <defs>
  <style type="text/css">
   <![CDATA[
    .fil56 {fill:#C70A17}
    .fil0 {fill:#D1C313}
    .fil1 {fill:#D2C413}
    .fil2 {fill:#D3C513}
    .fil3 {fill:#D4C513}
    .fil4 {fill:#D4C612}
    .fil5 {fill:#D5C712}
    .fil6 {fill:#D6C712}
    .fil7 {fill:#D7C812}
    .fil8 {fill:#D7C912}
    .fil9 {fill:#D8CA11}
    .fil10 {fill:#D9CA11}
    .fil11 {fill:#DACB11}
    .fil12 {fill:#DACC11}
    .fil13 {fill:#DBCC11}
    .fil14 {fill:#DCCD10}
    .fil15 {fill:#DDCE10}
    .fil16 {fill:#DECF10}
    .fil17 {fill:#DFD010}
    .fil18 {fill:#E0D10F}
    .fil19 {fill:#E1D20F}
    .fil20 {fill:#E2D30F}
    .fil21 {fill:#E3D30F}
    .fil22 {fill:#E3D40E}
    .fil23 {fill:#E4D50E}
    .fil24 {fill:#E5D60E}
    .fil25 {fill:#E6D60E}
    .fil26 {fill:#E7D70E}
    .fil27 {fill:#E7D80D}
    .fil28 {fill:#E8D80D}
    .fil29 {fill:#E9D90D}
    .fil30 {fill:#EADA0D}
    .fil31 {fill:#EBDB0C}
    .fil32 {fill:#ECDC0C}
    .fil33 {fill:#EDDD0C}
    .fil34 {fill:#EEDE0C}
    .fil35 {fill:#EFDF0B}
    .fil36 {fill:#F0DF0B}
    .fil37 {fill:#F0E00B}
    .fil38 {fill:#F1E10B}
    .fil39 {fill:#F2E10B}
    .fil40 {fill:#F3E20A}
    .fil41 {fill:#F3E30A}
    .fil42 {fill:#F4E40A}
    .fil43 {fill:#F5E40A}
    .fil44 {fill:#F6E50A}
    .fil45 {fill:#F6E609}
    .fil46 {fill:#F7E609}
    .fil47 {fill:#F8E709}
    .fil48 {fill:#F9E809}
    .fil49 {fill:#FAE908}
    .fil50 {fill:url(#id1)}
    .fil52 {fill:url(#id2)}
    .fil53 {fill:url(#id3)}
    .fil51 {fill:url(#id4)}
    .fil55 {fill:url(#id5)}
    .fil54 {fill:url(#id6)}
   ]]>
  </style>
     <clipPath id="id0">
      <path d="M2420 14065l10192 0c785,0 1428,-643 1428,-1428l0 -10192c0,-785 -643,-1428 -1428,-1428l-10192 0c-785,0 -1428,643 -1428,1428l0 10192c0,785 643,1428 1428,1428z"/>
     </clipPath>
  <linearGradient id="id1" gradientUnits="userSpaceOnUse" x1="7478.42" y1="8616.2" x2="7478.42" y2="6764.11">
   <stop offset="0" style="stop-color:#666666"/>
   <stop offset="1" style="stop-color:#999999"/>
  </linearGradient>
  <linearGradient id="id2" gradientUnits="userSpaceOnUse" x1="6511.11" y1="12800.8" x2="6511.11" y2="8607.13">
   <stop offset="0" style="stop-color:gray"/>
   <stop offset="1" style="stop-color:#CCCCCC"/>
  </linearGradient>
  <linearGradient id="id3" gradientUnits="userSpaceOnUse" x1="5955.44" y1="10084.3" x2="5955.44" y2="8610.14">
   <stop offset="0" style="stop-color:#CCCCCC"/>
   <stop offset="1" style="stop-color:#E6E6E6"/>
  </linearGradient>
  <linearGradient id="id4" gradientUnits="userSpaceOnUse" x1="8887.35" y1="6757.49" x2="8887.35" y2="5222.92">
   <stop offset="0" style="stop-color:#CCCCCC"/>
   <stop offset="1" style="stop-color:white"/>
  </linearGradient>
  <linearGradient id="id5" gradientUnits="userSpaceOnUse" x1="12450.5" y1="9812.08" x2="9846.99" y2="6709.33">
   <stop offset="0" style="stop-color:#999999"/>
   <stop offset="1" style="stop-color:#CCCCCC"/>
  </linearGradient>
  <linearGradient id="id6" gradientUnits="userSpaceOnUse" xlink:href="#id1" x1="12337" y1="11786.8" x2="9084.67" y2="7910.85">
  </linearGradient>
 </defs>
 <g id="Layer_x0020_1">
  <metadata id="CorelCorpID_0Corel-Layer"/>
  <g id="_335251184">
   <rect class="fil0" x="106" y="131" width="14820" height="14820" rx="2106" ry="2106"/>
   <g>
    <g style="clip-path:url(#id0)">
     <polygon class="fil0" points="992,1017 14040,1017 14040,14065 992,14065 992,1017 1036,1060 13997,1060 13997,14021 1036,14021 1036,1060 "/>
     <polygon id="1" class="fil0" points="1014,1038 14019,1038 14019,14043 1014,14043 1014,1038 1057,1082 13975,1082 13975,14000 1057,14000 1057,1082 "/>
     <polygon id="2" class="fil1" points="1036,1060 13997,1060 13997,14021 1036,14021 1036,1060 1079,1104 13953,1104 13953,13978 1079,13978 1079,1104 "/>
     <polygon id="3" class="fil2" points="1057,1082 13975,1082 13975,14000 1057,14000 1057,1082 1101,1125 13932,1125 13932,13956 1101,13956 1101,1125 "/>
     <polygon id="4" class="fil3" points="1079,1104 13953,1104 13953,13978 1079,13978 1079,1104 1123,1147 13910,1147 13910,13934 1123,13934 1123,1147 "/>
     <polygon id="5" class="fil4" points="1101,1125 13932,1125 13932,13956 1101,13956 1101,1125 1144,1169 13888,1169 13888,13913 1144,13913 1144,1169 "/>
     <polygon id="6" class="fil5" points="1123,1147 13910,1147 13910,13934 1123,13934 1123,1147 1166,1191 13866,1191 13866,13891 1166,13891 1166,1191 "/>
     <polygon id="7" class="fil6" points="1144,1169 13888,1169 13888,13913 1144,13913 1144,1169 1188,1212 13845,1212 13845,13869 1188,13869 1188,1212 "/>
     <polygon id="8" class="fil7" points="1166,1191 13866,1191 13866,13891 1166,13891 1166,1191 1210,1234 13823,1234 13823,13847 1210,13847 1210,1234 "/>
     <polygon id="9" class="fil8" points="1188,1212 13845,1212 13845,13869 1188,13869 1188,1212 1231,1256 13801,1256 13801,13826 1231,13826 1231,1256 "/>
     <polygon id="10" class="fil9" points="1210,1234 13823,1234 13823,13847 1210,13847 1210,1234 1253,1278 13779,1278 13779,13804 1253,13804 1253,1278 "/>
     <polygon id="11" class="fil10" points="1231,1256 13801,1256 13801,13826 1231,13826 1231,1256 1275,1299 13758,1299 13758,13782 1275,13782 1275,1299 "/>
     <polygon id="12" class="fil11" points="1253,1278 13779,1278 13779,13804 1253,13804 1253,1278 1297,1321 13736,1321 13736,13760 1297,13760 1297,1321 "/>
     <polygon id="13" class="fil12" points="1275,1299 13758,1299 13758,13782 1275,13782 1275,1299 1318,1343 13714,1343 13714,13739 1318,13739 1318,1343 "/>
     <polygon id="14" class="fil13" points="1297,1321 13736,1321 13736,13760 1297,13760 1297,1321 1340,1365 13692,1365 13692,13717 1340,13717 1340,1365 "/>
     <polygon id="15" class="fil14" points="1318,1343 13714,1343 13714,13739 1318,13739 1318,1343 1362,1386 13671,1386 13671,13695 1362,13695 1362,1386 "/>
     <polygon id="16" class="fil15" points="1340,1365 13692,1365 13692,13717 1340,13717 1340,1365 1384,1408 13649,1408 13649,13673 1384,13673 1384,1408 "/>
     <polygon id="17" class="fil15" points="1362,1386 13671,1386 13671,13695 1362,13695 1362,1386 1405,1430 13627,1430 13627,13652 1405,13652 1405,1430 "/>
     <polygon id="18" class="fil16" points="1384,1408 13649,1408 13649,13673 1384,13673 1384,1408 1427,1452 13605,1452 13605,13630 1427,13630 1427,1452 "/>
     <polygon id="19" class="fil17" points="1405,1430 13627,1430 13627,13652 1405,13652 1405,1430 1449,1473 13584,1473 13584,13608 1449,13608 1449,1473 "/>
     <polygon id="20" class="fil18" points="1427,1452 13605,1452 13605,13630 1427,13630 1427,1452 1471,1495 13562,1495 13562,13586 1471,13586 1471,1495 "/>
     <polygon id="21" class="fil18" points="1449,1473 13584,1473 13584,13608 1449,13608 1449,1473 1492,1517 13540,1517 13540,13565 1492,13565 1492,1517 "/>
     <polygon id="22" class="fil19" points="1471,1495 13562,1495 13562,13586 1471,13586 1471,1495 1514,1539 13518,1539 13518,13543 1514,13543 1514,1539 "/>
     <polygon id="23" class="fil20" points="1492,1517 13540,1517 13540,13565 1492,13565 1492,1517 1536,1560 13497,1560 13497,13521 1536,13521 1536,1560 "/>
     <polygon id="24" class="fil21" points="1514,1539 13518,1539 13518,13543 1514,13543 1514,1539 1558,1582 13475,1582 13475,13499 1558,13499 1558,1582 "/>
     <polygon id="25" class="fil22" points="1536,1560 13497,1560 13497,13521 1536,13521 1536,1560 1579,1604 13453,1604 13453,13478 1579,13478 1579,1604 "/>
     <polygon id="26" class="fil23" points="1558,1582 13475,1582 13475,13499 1558,13499 1558,1582 1601,1626 13431,1626 13431,13456 1601,13456 1601,1626 "/>
     <polygon id="27" class="fil24" points="1579,1604 13453,1604 13453,13478 1579,13478 1579,1604 1623,1647 13410,1647 13410,13434 1623,13434 1623,1647 "/>
     <polygon id="28" class="fil25" points="1601,1626 13431,1626 13431,13456 1601,13456 1601,1626 1645,1669 13388,1669 13388,13412 1645,13412 1645,1669 "/>
     <polygon id="29" class="fil26" points="1623,1647 13410,1647 13410,13434 1623,13434 1623,1647 1666,1691 13366,1691 13366,13391 1666,13391 1666,1691 "/>
     <polygon id="30" class="fil27" points="1645,1669 13388,1669 13388,13412 1645,13412 1645,1669 1688,1713 13344,1713 13344,13369 1688,13369 1688,1713 "/>
     <polygon id="31" class="fil28" points="1666,1691 13366,1691 13366,13391 1666,13391 1666,1691 1710,1734 13323,1734 13323,13347 1710,13347 1710,1734 "/>
     <polygon id="32" class="fil29" points="1688,1713 13344,1713 13344,13369 1688,13369 1688,1713 1732,1756 13301,1756 13301,13325 1732,13325 1732,1756 "/>
     <polygon id="33" class="fil30" points="1710,1734 13323,1734 13323,13347 1710,13347 1710,1734 1753,1778 13279,1778 13279,13304 1753,13304 1753,1778 "/>
     <polygon id="34" class="fil30" points="1732,1756 13301,1756 13301,13325 1732,13325 1732,1756 1775,1800 13257,1800 13257,13282 1775,13282 1775,1800 "/>
     <polygon id="35" class="fil31" points="1753,1778 13279,1778 13279,13304 1753,13304 1753,1778 1797,1821 13236,1821 13236,13260 1797,13260 1797,1821 "/>
     <polygon id="36" class="fil32" points="1775,1800 13257,1800 13257,13282 1775,13282 1775,1800 1819,1843 13214,1843 13214,13238 1819,13238 1819,1843 "/>
     <polygon id="37" class="fil33" points="1797,1821 13236,1821 13236,13260 1797,13260 1797,1821 1840,1865 13192,1865 13192,13217 1840,13217 1840,1865 "/>
     <polygon id="38" class="fil33" points="1819,1843 13214,1843 13214,13238 1819,13238 1819,1843 1862,1887 13170,1887 13170,13195 1862,13195 1862,1887 "/>
     <polygon id="39" class="fil34" points="1840,1865 13192,1865 13192,13217 1840,13217 1840,1865 1884,1908 13149,1908 13149,13173 1884,13173 1884,1908 "/>
     <polygon id="40" class="fil35" points="1862,1887 13170,1887 13170,13195 1862,13195 1862,1887 1906,1930 13127,1930 13127,13151 1906,13151 1906,1930 "/>
     <polygon id="41" class="fil36" points="1884,1908 13149,1908 13149,13173 1884,13173 1884,1908 1927,1952 13105,1952 13105,13130 1927,13130 1927,1952 "/>
     <polygon id="42" class="fil37" points="1906,1930 13127,1930 13127,13151 1906,13151 1906,1930 1949,1974 13083,1974 13083,13108 1949,13108 1949,1974 "/>
     <polygon id="43" class="fil38" points="1927,1952 13105,1952 13105,13130 1927,13130 1927,1952 1971,1995 13062,1995 13062,13086 1971,13086 1971,1995 "/>
     <polygon id="44" class="fil39" points="1949,1974 13083,1974 13083,13108 1949,13108 1949,1974 1993,2017 13040,2017 13040,13064 1993,13064 1993,2017 "/>
     <polygon id="45" class="fil40" points="1971,1995 13062,1995 13062,13086 1971,13086 1971,1995 2014,2039 13018,2039 13018,13043 2014,13043 2014,2039 "/>
     <polygon id="46" class="fil41" points="1993,2017 13040,2017 13040,13064 1993,13064 1993,2017 2036,2061 12996,2061 12996,13021 2036,13021 2036,2061 "/>
     <polygon id="47" class="fil42" points="2014,2039 13018,2039 13018,13043 2014,13043 2014,2039 2058,2082 12975,2082 12975,12999 2058,12999 2058,2082 "/>
     <polygon id="48" class="fil43" points="2036,2061 12996,2061 12996,13021 2036,13021 2036,2061 2080,2104 12953,2104 12953,12977 2080,12977 2080,2104 "/>
     <polygon id="49" class="fil44" points="2058,2082 12975,2082 12975,12999 2058,12999 2058,2082 2101,2126 12931,2126 12931,12956 2101,12956 2101,2126 "/>
     <polygon id="50" class="fil45" points="2080,2104 12953,2104 12953,12977 2080,12977 2080,2104 2123,2148 12909,2148 12909,12934 2123,12934 2123,2148 "/>
     <polygon id="51" class="fil46" points="2101,2126 12931,2126 12931,12956 2101,12956 2101,2126 2145,2169 12888,2169 12888,12912 2145,12912 2145,2169 "/>
     <polygon id="52" class="fil47" points="2123,2148 12909,2148 12909,12934 2123,12934 2123,2148 2166,2191 12866,2191 12866,12890 2166,12890 2166,2191 "/>
     <polygon id="53" class="fil48" points="2145,2169 12888,2169 12888,12912 2145,12912 2145,2169 2188,2213 12844,2213 12844,12869 2188,12869 2188,2213 "/>
     <polygon id="54" class="fil49" points="2166,2191 12866,2191 12866,12891 2166,12891 2166,2191 2210,2235 12822,2235 12822,12847 2210,12847 2210,2235 "/>
     <polygon id="55" class="fil49" points="2188,2213 12844,2213 12844,12869 2188,12869 2188,2213 2232,2256 12801,2256 12801,12825 2232,12825 2232,2256 "/>
     <polygon id="56" class="fil49" points="2210,2235 12822,2235 12822,12847 2210,12847 2210,2235 2253,2278 12779,2278 12779,12804 2253,12804 2253,2278 "/>
     <polygon id="57" class="fil49" points="2232,2256 12801,2256 12801,12825 2232,12825 2232,2256 2275,2300 12757,2300 12757,12782 2275,12782 2275,2300 "/>
     <polygon id="58" class="fil49" points="2253,2278 12779,2278 12779,12804 2253,12804 2253,2278 2297,2322 12735,2322 12735,12760 2297,12760 2297,2322 "/>
     <polygon id="59" class="fil49" points="2275,2300 12757,2300 12757,12782 2275,12782 2275,2300 2319,2343 12714,2343 12714,12738 2319,12738 2319,2343 "/>
     <polygon id="60" class="fil49" points="2297,2322 12735,2322 12735,12760 2297,12760 2297,2322 2340,2365 12692,2365 12692,12717 2340,12717 2340,2365 "/>
     <polygon id="61" class="fil49" points="2319,2343 12714,2343 12714,12738 2319,12738 2319,2343 2362,2387 12670,2387 12670,12695 2362,12695 2362,2387 "/>
     <polygon id="62" class="fil49" points="2340,2365 12692,2365 12692,12717 2340,12717 2340,2365 2384,2409 12648,2409 12648,12673 2384,12673 2384,2409 "/>
     <polygon id="63" class="fil49" points="2362,2387 12670,2387 12670,12695 2362,12695 2362,2387 2406,2430 12627,2430 12627,12651 2406,12651 2406,2430 "/>
     <polygon id="64" class="fil49" points="2384,2409 12648,2409 12648,12673 2384,12673 2384,2409 2427,2452 12605,2452 12605,12630 2427,12630 2427,2452 "/>
     <polygon id="65" class="fil49" points="2406,2430 12627,2430 12627,12651 2406,12651 2406,2430 2449,2474 12583,2474 12583,12608 2449,12608 2449,2474 "/>
     <polygon id="66" class="fil49" points="2427,2452 12605,2452 12605,12630 2427,12630 2427,2452 2471,2495 12562,2495 12562,12586 2471,12586 2471,2495 "/>
     <polygon id="67" class="fil49" points="2449,2474 12583,2474 12583,12608 2449,12608 2449,2474 2493,2517 12540,2517 12540,12564 2493,12564 2493,2517 "/>
     <polygon id="68" class="fil49" points="2471,2495 12562,2495 12562,12586 2471,12586 2471,2495 2514,2539 12518,2539 12518,12543 2514,12543 2514,2539 "/>
     <polygon id="69" class="fil49" points="2493,2517 12540,2517 12540,12564 2493,12564 2493,2517 2536,2561 12496,2561 12496,12521 2536,12521 2536,2561 "/>
     <polygon id="70" class="fil49" points="2514,2539 12518,2539 12518,12543 2514,12543 2514,2539 2558,2582 12475,2582 12475,12499 2558,12499 2558,2582 "/>
     <polygon id="71" class="fil49" points="2536,2561 12496,2561 12496,12521 2536,12521 2536,2561 2580,2604 12453,2604 12453,12477 2580,12477 2580,2604 "/>
     <polygon id="72" class="fil49" points="2558,2582 12475,2582 12475,12499 2558,12499 2558,2582 2601,2626 12431,2626 12431,12456 2601,12456 2601,2626 "/>
     <polygon id="73" class="fil49" points="2580,2604 12453,2604 12453,12477 2580,12477 2580,2604 2623,2648 12409,2648 12409,12434 2623,12434 2623,2648 "/>
     <polygon id="74" class="fil49" points="2601,2626 12431,2626 12431,12456 2601,12456 2601,2626 2645,2669 12388,2669 12388,12412 2645,12412 2645,2669 "/>
     <polygon id="75" class="fil49" points="2623,2648 12409,2648 12409,12434 2623,12434 2623,2648 2667,2691 12366,2691 12366,12390 2667,12390 2667,2691 "/>
     <polygon id="76" class="fil49" points="2645,2669 12388,2669 12388,12412 2645,12412 2645,2669 2688,2713 12344,2713 12344,12369 2688,12369 2688,2713 "/>
     <polygon id="77" class="fil49" points="2667,2691 12366,2691 12366,12390 2667,12390 2667,2691 2710,2735 12322,2735 12322,12347 2710,12347 2710,2735 "/>
     <polygon id="78" class="fil49" points="2688,2713 12344,2713 12344,12369 2688,12369 2688,2713 2732,2756 12301,2756 12301,12325 2732,12325 2732,2756 "/>
     <polygon id="79" class="fil49" points="2710,2735 12322,2735 12322,12347 2710,12347 2710,2735 2754,2778 12279,2778 12279,12303 2754,12303 2754,2778 "/>
     <polygon id="80" class="fil49" points="2732,2756 12301,2756 12301,12325 2732,12325 2732,2756 2775,2800 12257,2800 12257,12282 2775,12282 2775,2800 "/>
     <polygon id="81" class="fil49" points="2754,2778 12279,2778 12279,12303 2754,12303 2754,2778 2797,2822 12235,2822 12235,12260 2797,12260 2797,2822 "/>
     <polygon id="82" class="fil49" points="2775,2800 12257,2800 12257,12282 2775,12282 2775,2800 2819,2843 12214,2843 12214,12238 2819,12238 2819,2843 "/>
     <polygon id="83" class="fil49" points="2797,2822 12235,2822 12235,12260 2797,12260 2797,2822 2841,2865 12192,2865 12192,12216 2841,12216 2841,2865 "/>
     <polygon id="84" class="fil49" points="2819,2843 12214,2843 12214,12238 2819,12238 2819,2843 2862,2887 12170,2887 12170,12195 2862,12195 2862,2887 "/>
     <polygon id="85" class="fil49" points="2841,2865 12192,2865 12192,12216 2841,12216 2841,2865 2884,2909 12148,2909 12148,12173 2884,12173 2884,2909 "/>
     <polygon id="86" class="fil49" points="2862,2887 12170,2887 12170,12195 2862,12195 2862,2887 2906,2930 12127,2930 12127,12151 2906,12151 2906,2930 "/>
     <polygon id="87" class="fil49" points="2884,2909 12148,2909 12148,12173 2884,12173 2884,2909 2928,2952 12105,2952 12105,12129 2928,12129 2928,2952 "/>
     <polygon id="88" class="fil49" points="2906,2930 12127,2930 12127,12151 2906,12151 2906,2930 2949,2974 12083,2974 12083,12108 2949,12108 2949,2974 "/>
     <polygon id="89" class="fil49" points="2928,2952 12105,2952 12105,12129 2928,12129 2928,2952 2971,2996 12061,2996 12061,12086 2971,12086 2971,2996 "/>
     <polygon id="90" class="fil49" points="2949,2974 12083,2974 12083,12108 2949,12108 2949,2974 2993,3017 12040,3017 12040,12064 2993,12064 2993,3017 "/>
     <polygon id="91" class="fil49" points="2971,2996 12061,2996 12061,12086 2971,12086 2971,2996 3015,3039 12018,3039 12018,12042 3015,12042 3015,3039 "/>
     <polygon id="92" class="fil49" points="2993,3017 12040,3017 12040,12064 2993,12064 2993,3017 3036,3061 11996,3061 11996,12021 3036,12021 3036,3061 "/>
     <polygon id="93" class="fil49" points="3015,3039 12018,3039 12018,12042 3015,12042 3015,3039 3058,3083 11974,3083 11974,11999 3058,11999 3058,3083 "/>
     <polygon id="94" class="fil49" points="3036,3061 11996,3061 11996,12021 3036,12021 3036,3061 3080,3104 11953,3104 11953,11977 3080,11977 3080,3104 "/>
     <polygon id="95" class="fil49" points="3058,3083 11974,3083 11974,11999 3058,11999 3058,3083 3102,3126 11931,3126 11931,11955 3102,11955 3102,3126 "/>
     <polygon id="96" class="fil49" points="3080,3104 11953,3104 11953,11977 3080,11977 3080,3104 3123,3148 11909,3148 11909,11934 3123,11934 3123,3148 "/>
     <polygon id="97" class="fil49" points="3102,3126 11931,3126 11931,11955 3102,11955 3102,3126 3145,3170 11887,3170 11887,11912 3145,11912 3145,3170 "/>
     <polygon id="98" class="fil49" points="3123,3148 11909,3148 11909,11934 3123,11934 3123,3148 3167,3191 11866,3191 11866,11890 3167,11890 3167,3191 "/>
     <polygon id="99" class="fil49" points="3145,3170 11887,3170 11887,11912 3145,11912 3145,3170 3189,3213 11844,3213 11844,11868 3189,11868 3189,3213 "/>
     <polygon id="100" class="fil49" points="3167,3191 11866,3191 11866,11890 3167,11890 3167,3191 3210,3235 11822,3235 11822,11847 3210,11847 3210,3235 "/>
     <polygon id="101" class="fil49" points="3189,3213 11844,3213 11844,11868 3189,11868 3189,3213 3232,3257 11800,3257 11800,11825 3232,11825 3232,3257 "/>
     <polygon id="102" class="fil49" points="3210,3235 11822,3235 11822,11847 3210,11847 3210,3235 3254,3278 11779,3278 11779,11803 3254,11803 3254,3278 "/>
     <polygon id="103" class="fil49" points="3232,3257 11800,3257 11800,11825 3232,11825 3232,3257 3276,3300 11757,3300 11757,11781 3276,11781 3276,3300 "/>
     <polygon id="104" class="fil49" points="3254,3278 11779,3278 11779,11803 3254,11803 3254,3278 3297,3322 11735,3322 11735,11760 3297,11760 3297,3322 "/>
     <polygon id="105" class="fil49" points="3276,3300 11757,3300 11757,11781 3276,11781 3276,3300 3319,3344 11713,3344 11713,11738 3319,11738 3319,3344 "/>
     <polygon id="106" class="fil49" points="3297,3322 11735,3322 11735,11760 3297,11760 3297,3322 3341,3365 11692,3365 11692,11716 3341,11716 3341,3365 "/>
     <polygon id="107" class="fil49" points="3319,3344 11713,3344 11713,11738 3319,11738 3319,3344 3363,3387 11670,3387 11670,11694 3363,11694 3363,3387 "/>
     <polygon id="108" class="fil49" points="3341,3365 11692,3365 11692,11716 3341,11716 3341,3365 3384,3409 11648,3409 11648,11673 3384,11673 3384,3409 "/>
     <polygon id="109" class="fil49" points="3363,3387 11670,3387 11670,11694 3363,11694 3363,3387 3406,3431 11626,3431 11626,11651 3406,11651 3406,3431 "/>
     <polygon id="110" class="fil49" points="3384,3409 11648,3409 11648,11673 3384,11673 3384,3409 3428,3452 11605,3452 11605,11629 3428,11629 3428,3452 "/>
     <polygon id="111" class="fil49" points="3406,3431 11626,3431 11626,11651 3406,11651 3406,3431 3450,3474 11583,3474 11583,11607 3450,11607 3450,3474 "/>
     <polygon id="112" class="fil49" points="3428,3452 11605,3452 11605,11629 3428,11629 3428,3452 3471,3496 11561,3496 11561,11586 3471,11586 3471,3496 "/>
     <polygon id="113" class="fil49" points="3450,3474 11583,3474 11583,11607 3450,11607 3450,3474 3493,3518 11539,3518 11539,11564 3493,11564 3493,3518 "/>
     <polygon id="114" class="fil49" points="3471,3496 11561,3496 11561,11586 3471,11586 3471,3496 3515,3539 11518,3539 11518,11542 3515,11542 3515,3539 "/>
     <polygon id="115" class="fil49" points="3493,3518 11539,3518 11539,11564 3493,11564 3493,3518 3537,3561 11496,3561 11496,11520 3537,11520 3537,3561 "/>
     <polygon id="116" class="fil49" points="3515,3539 11518,3539 11518,11542 3515,11542 3515,3539 3558,3583 11474,3583 11474,11499 3558,11499 3558,3583 "/>
     <polygon id="117" class="fil49" points="3537,3561 11496,3561 11496,11520 3537,11520 3537,3561 3580,3605 11452,3605 11452,11477 3580,11477 3580,3605 "/>
     <polygon id="118" class="fil49" points="3558,3583 11474,3583 11474,11499 3558,11499 3558,3583 3602,3626 11431,3626 11431,11455 3602,11455 3602,3626 "/>
     <polygon id="119" class="fil49" points="3580,3605 11452,3605 11452,11477 3580,11477 3580,3605 3624,3648 11409,3648 11409,11433 3624,11433 3624,3648 "/>
     <polygon id="120" class="fil49" points="3602,3626 11431,3626 11431,11455 3602,11455 3602,3626 3645,3670 11387,3670 11387,11412 3645,11412 3645,3670 "/>
     <polygon id="121" class="fil49" points="3624,3648 11409,3648 11409,11433 3624,11433 3624,3648 3667,3692 11365,3692 11365,11390 3667,11390 3667,3692 "/>
     <polygon id="122" class="fil49" points="3645,3670 11387,3670 11387,11412 3645,11412 3645,3670 3689,3713 11344,3713 11344,11368 3689,11368 3689,3713 "/>
     <polygon id="123" class="fil49" points="3667,3692 11365,3692 11365,11390 3667,11390 3667,3692 3711,3735 11322,3735 11322,11346 3711,11346 3711,3735 "/>
     <polygon id="124" class="fil49" points="3689,3713 11344,3713 11344,11368 3689,11368 3689,3713 3732,3757 11300,3757 11300,11325 3732,11325 3732,3757 "/>
     <polygon id="125" class="fil49" points="3711,3735 11322,3735 11322,11346 3711,11346 3711,3735 3754,3779 11278,3779 11278,11303 3754,11303 3754,3779 "/>
     <polygon id="126" class="fil49" points="3732,3757 11300,3757 11300,11325 3732,11325 3732,3757 3776,3800 11257,3800 11257,11281 3776,11281 3776,3800 "/>
     <polygon id="127" class="fil49" points="3754,3779 11278,3779 11278,11303 3754,11303 3754,3779 3798,3822 11235,3822 11235,11259 3798,11259 3798,3822 "/>
     <polygon id="128" class="fil49" points="3776,3800 11257,3800 11257,11281 3776,11281 3776,3800 3819,3844 11213,3844 11213,11238 3819,11238 3819,3844 "/>
     <polygon id="129" class="fil49" points="3798,3822 11235,3822 11235,11259 3798,11259 3798,3822 3841,3866 11191,3866 11191,11216 3841,11216 3841,3866 "/>
     <polygon id="130" class="fil49" points="3819,3844 11213,3844 11213,11238 3819,11238 3819,3844 3863,3887 11170,3887 11170,11194 3863,11194 3863,3887 "/>
     <polygon id="131" class="fil49" points="3841,3866 11191,3866 11191,11216 3841,11216 3841,3866 3885,3909 11148,3909 11148,11172 3885,11172 3885,3909 "/>
     <polygon id="132" class="fil49" points="3863,3887 11170,3887 11170,11194 3863,11194 3863,3887 3906,3931 11126,3931 11126,11151 3906,11151 3906,3931 "/>
     <polygon id="133" class="fil49" points="3884,3909 11148,3909 11148,11172 3884,11172 3884,3909 3928,3953 11104,3953 11104,11129 3928,11129 3928,3953 "/>
     <polygon id="134" class="fil49" points="3906,3931 11126,3931 11126,11151 3906,11151 3906,3931 3950,3974 11083,3974 11083,11107 3950,11107 3950,3974 "/>
     <polygon id="135" class="fil49" points="3928,3953 11104,3953 11104,11129 3928,11129 3928,3953 3971,3996 11061,3996 11061,11086 3971,11086 3971,3996 "/>
     <polygon id="136" class="fil49" points="3950,3974 11083,3974 11083,11107 3950,11107 3950,3974 3993,4018 11039,4018 11039,11064 3993,11064 3993,4018 "/>
     <polygon id="137" class="fil49" points="3971,3996 11061,3996 11061,11086 3971,11086 3971,3996 4015,4040 11017,4040 11017,11042 4015,11042 4015,4040 "/>
     <polygon id="138" class="fil49" points="3993,4018 11039,4018 11039,11064 3993,11064 3993,4018 4037,4061 10996,4061 10996,11020 4037,11020 4037,4061 "/>
     <polygon id="139" class="fil49" points="4015,4040 11017,4040 11017,11042 4015,11042 4015,4040 4058,4083 10974,4083 10974,10999 4058,10999 4058,4083 "/>
     <polygon id="140" class="fil49" points="4037,4061 10996,4061 10996,11020 4037,11020 4037,4061 4080,4105 10952,4105 10952,10977 4080,10977 4080,4105 "/>
     <polygon id="141" class="fil49" points="4058,4083 10974,4083 10974,10999 4058,10999 4058,4083 4102,4127 10930,4127 10930,10955 4102,10955 4102,4127 "/>
     <polygon id="142" class="fil49" points="4080,4105 10952,4105 10952,10977 4080,10977 4080,4105 4124,4148 10909,4148 10909,10933 4124,10933 4124,4148 "/>
     <polygon id="143" class="fil49" points="4102,4127 10930,4127 10930,10955 4102,10955 4102,4127 4145,4170 10887,4170 10887,10912 4145,10912 4145,4170 "/>
     <polygon id="144" class="fil49" points="4124,4148 10909,4148 10909,10933 4124,10933 4124,4148 4167,4192 10865,4192 10865,10890 4167,10890 4167,4192 "/>
     <polygon id="145" class="fil49" points="4145,4170 10887,4170 10887,10912 4145,10912 4145,4170 4189,4213 10843,4213 10843,10868 4189,10868 4189,4213 "/>
     <polygon id="146" class="fil49" points="4167,4192 10865,4192 10865,10890 4167,10890 4167,4192 4211,4235 10822,4235 10822,10846 4211,10846 4211,4235 "/>
     <polygon id="147" class="fil49" points="4189,4213 10844,4213 10844,10868 4189,10868 4189,4213 4232,4257 10800,4257 10800,10825 4232,10825 4232,4257 "/>
     <polygon id="148" class="fil49" points="4211,4235 10822,4235 10822,10846 4211,10846 4211,4235 4254,4279 10778,4279 10778,10803 4254,10803 4254,4279 "/>
     <polygon id="149" class="fil49" points="4232,4257 10800,4257 10800,10825 4232,10825 4232,4257 4276,4300 10757,4300 10757,10781 4276,10781 4276,4300 "/>
     <polygon id="150" class="fil49" points="4254,4279 10778,4279 10778,10803 4254,10803 4254,4279 4298,4322 10735,4322 10735,10759 4298,10759 4298,4322 "/>
     <polygon id="151" class="fil49" points="4276,4300 10757,4300 10757,10781 4276,10781 4276,4300 4319,4344 10713,4344 10713,10738 4319,10738 4319,4344 "/>
     <polygon id="152" class="fil49" points="4298,4322 10735,4322 10735,10759 4298,10759 4298,4322 4341,4366 10691,4366 10691,10716 4341,10716 4341,4366 "/>
     <polygon id="153" class="fil49" points="4319,4344 10713,4344 10713,10738 4319,10738 4319,4344 4363,4387 10670,4387 10670,10694 4363,10694 4363,4387 "/>
     <polygon id="154" class="fil49" points="4341,4366 10691,4366 10691,10716 4341,10716 4341,4366 4385,4409 10648,4409 10648,10672 4385,10672 4385,4409 "/>
     <polygon id="155" class="fil49" points="4363,4387 10670,4387 10670,10694 4363,10694 4363,4387 4406,4431 10626,4431 10626,10651 4406,10651 4406,4431 "/>
     <polygon id="156" class="fil49" points="4385,4409 10648,4409 10648,10672 4385,10672 4385,4409 4428,4453 10604,4453 10604,10629 4428,10629 4428,4453 "/>
     <polygon id="157" class="fil49" points="4406,4431 10626,4431 10626,10651 4406,10651 4406,4431 4450,4474 10583,4474 10583,10607 4450,10607 4450,4474 "/>
     <polygon id="158" class="fil49" points="4428,4453 10604,4453 10604,10629 4428,10629 4428,4453 4472,4496 10561,4496 10561,10585 4472,10585 4472,4496 "/>
     <polygon id="159" class="fil49" points="4450,4474 10583,4474 10583,10607 4450,10607 4450,4474 4493,4518 10539,4518 10539,10564 4493,10564 4493,4518 "/>
     <polygon id="160" class="fil49" points="4472,4496 10561,4496 10561,10585 4472,10585 4472,4496 4515,4540 10517,4540 10517,10542 4515,10542 4515,4540 "/>
     <polygon id="161" class="fil49" points="4493,4518 10539,4518 10539,10564 4493,10564 4493,4518 4537,4561 10496,4561 10496,10520 4537,10520 4537,4561 "/>
     <polygon id="162" class="fil49" points="4515,4540 10517,4540 10517,10542 4515,10542 4515,4540 4559,4583 10474,4583 10474,10498 4559,10498 4559,4583 "/>
     <polygon id="163" class="fil49" points="4537,4561 10496,4561 10496,10520 4537,10520 4537,4561 4580,4605 10452,4605 10452,10477 4580,10477 4580,4605 "/>
     <polygon id="164" class="fil49" points="4559,4583 10474,4583 10474,10498 4559,10498 4559,4583 4602,4627 10430,4627 10430,10455 4602,10455 4602,4627 "/>
     <polygon id="165" class="fil49" points="4580,4605 10452,4605 10452,10477 4580,10477 4580,4605 4624,4648 10409,4648 10409,10433 4624,10433 4624,4648 "/>
     <polygon id="166" class="fil49" points="4602,4627 10430,4627 10430,10455 4602,10455 4602,4627 4646,4670 10387,4670 10387,10411 4646,10411 4646,4670 "/>
     <polygon id="167" class="fil49" points="4624,4648 10409,4648 10409,10433 4624,10433 4624,4648 4667,4692 10365,4692 10365,10390 4667,10390 4667,4692 "/>
     <polygon id="168" class="fil49" points="4646,4670 10387,4670 10387,10411 4646,10411 4646,4670 4689,4714 10343,4714 10343,10368 4689,10368 4689,4714 "/>
     <polygon id="169" class="fil49" points="4667,4692 10365,4692 10365,10390 4667,10390 4667,4692 4711,4735 10322,4735 10322,10346 4711,10346 4711,4735 "/>
     <polygon id="170" class="fil49" points="4689,4714 10343,4714 10343,10368 4689,10368 4689,4714 4733,4757 10300,4757 10300,10324 4733,10324 4733,4757 "/>
     <polygon id="171" class="fil49" points="4711,4735 10322,4735 10322,10346 4711,10346 4711,4735 4754,4779 10278,4779 10278,10303 4754,10303 4754,4779 "/>
     <polygon id="172" class="fil49" points="4733,4757 10300,4757 10300,10324 4733,10324 4733,4757 4776,4801 10256,4801 10256,10281 4776,10281 4776,4801 "/>
     <polygon id="173" class="fil49" points="4754,4779 10278,4779 10278,10303 4754,10303 4754,4779 4798,4822 10235,4822 10235,10259 4798,10259 4798,4822 "/>
     <polygon id="174" class="fil49" points="4776,4801 10256,4801 10256,10281 4776,10281 4776,4801 4820,4844 10213,4844 10213,10237 4820,10237 4820,4844 "/>
     <polygon id="175" class="fil49" points="4798,4822 10235,4822 10235,10259 4798,10259 4798,4822 4841,4866 10191,4866 10191,10216 4841,10216 4841,4866 "/>
     <polygon id="176" class="fil49" points="4820,4844 10213,4844 10213,10237 4820,10237 4820,4844 4863,4888 10169,4888 10169,10194 4863,10194 4863,4888 "/>
     <polygon id="177" class="fil49" points="4841,4866 10191,4866 10191,10216 4841,10216 4841,4866 4885,4909 10148,4909 10148,10172 4885,10172 4885,4909 "/>
     <polygon id="178" class="fil49" points="4863,4888 10169,4888 10169,10194 4863,10194 4863,4888 4907,4931 10126,4931 10126,10150 4907,10150 4907,4931 "/>
     <polygon id="179" class="fil49" points="4885,4909 10148,4909 10148,10172 4885,10172 4885,4909 4928,4953 10104,4953 10104,10129 4928,10129 4928,4953 "/>
     <polygon id="180" class="fil49" points="4907,4931 10126,4931 10126,10150 4907,10150 4907,4931 4950,4975 10082,4975 10082,10107 4950,10107 4950,4975 "/>
     <polygon id="181" class="fil49" points="4928,4953 10104,4953 10104,10129 4928,10129 4928,4953 4972,4996 10061,4996 10061,10085 4972,10085 4972,4996 "/>
     <polygon id="182" class="fil49" points="4950,4975 10082,4975 10082,10107 4950,10107 4950,4975 4994,5018 10039,5018 10039,10063 4994,10063 4994,5018 "/>
     <polygon id="183" class="fil49" points="4972,4996 10061,4996 10061,10085 4972,10085 4972,4996 5015,5040 10017,5040 10017,10042 5015,10042 5015,5040 "/>
     <polygon id="184" class="fil49" points="4994,5018 10039,5018 10039,10063 4994,10063 4994,5018 5037,5062 9995,5062 9995,10020 5037,10020 5037,5062 "/>
     <polygon id="185" class="fil49" points="5015,5040 10017,5040 10017,10042 5015,10042 5015,5040 5059,5083 9974,5083 9974,9998 5059,9998 5059,5083 "/>
     <polygon id="186" class="fil49" points="5037,5062 9995,5062 9995,10020 5037,10020 5037,5062 5081,5105 9952,5105 9952,9976 5081,9976 5081,5105 "/>
     <polygon id="187" class="fil49" points="5059,5083 9974,5083 9974,9998 5059,9998 5059,5083 5102,5127 9930,5127 9930,9955 5102,9955 5102,5127 "/>
     <polygon id="188" class="fil49" points="5081,5105 9952,5105 9952,9976 5081,9976 5081,5105 5124,5149 9908,5149 9908,9933 5124,9933 5124,5149 "/>
     <polygon id="189" class="fil49" points="5102,5127 9930,5127 9930,9955 5102,9955 5102,5127 5146,5170 9887,5170 9887,9911 5146,9911 5146,5170 "/>
     <polygon id="190" class="fil49" points="5124,5149 9908,5149 9908,9933 5124,9933 5124,5149 5168,5192 9865,5192 9865,9889 5168,9889 5168,5192 "/>
     <polygon id="191" class="fil49" points="5146,5170 9887,5170 9887,9911 5146,9911 5146,5170 5189,5214 9843,5214 9843,9868 5189,9868 5189,5214 "/>
     <polygon id="192" class="fil49" points="5168,5192 9865,5192 9865,9889 5168,9889 5168,5192 5211,5236 9821,5236 9821,9846 5211,9846 5211,5236 "/>
     <polygon id="193" class="fil49" points="5189,5214 9843,5214 9843,9868 5189,9868 5189,5214 5233,5257 9800,5257 9800,9824 5233,9824 5233,5257 "/>
     <polygon id="194" class="fil49" points="5211,5236 9821,5236 9821,9846 5211,9846 5211,5236 5255,5279 9778,5279 9778,9802 5255,9802 5255,5279 "/>
     <polygon id="195" class="fil49" points="5233,5257 9800,5257 9800,9824 5233,9824 5233,5257 5276,5301 9756,5301 9756,9781 5276,9781 5276,5301 "/>
     <polygon id="196" class="fil49" points="5255,5279 9778,5279 9778,9802 5255,9802 5255,5279 5298,5323 9734,5323 9734,9759 5298,9759 5298,5323 "/>
     <polygon id="197" class="fil49" points="5276,5301 9756,5301 9756,9781 5276,9781 5276,5301 5320,5344 9713,5344 9713,9737 5320,9737 5320,5344 "/>
     <polygon id="198" class="fil49" points="5298,5323 9734,5323 9734,9759 5298,9759 5298,5323 5342,5366 9691,5366 9691,9715 5342,9715 5342,5366 "/>
     <polygon id="199" class="fil49" points="5320,5344 9713,5344 9713,9737 5320,9737 5320,5344 5363,5388 9669,5388 9669,9694 5363,9694 5363,5388 "/>
     <polygon id="200" class="fil49" points="5342,5366 9691,5366 9691,9715 5342,9715 5342,5366 5385,5410 9647,5410 9647,9672 5385,9672 5385,5410 "/>
     <polygon id="201" class="fil49" points="5363,5388 9669,5388 9669,9694 5363,9694 5363,5388 5407,5431 9626,5431 9626,9650 5407,9650 5407,5431 "/>
     <polygon id="202" class="fil49" points="5385,5410 9647,5410 9647,9672 5385,9672 5385,5410 5429,5453 9604,5453 9604,9628 5429,9628 5429,5453 "/>
     <polygon id="203" class="fil49" points="5407,5431 9626,5431 9626,9650 5407,9650 5407,5431 5450,5475 9582,5475 9582,9607 5450,9607 5450,5475 "/>
     <polygon id="204" class="fil49" points="5429,5453 9604,5453 9604,9628 5429,9628 5429,5453 5472,5497 9560,5497 9560,9585 5472,9585 5472,5497 "/>
     <polygon id="205" class="fil49" points="5450,5475 9582,5475 9582,9607 5450,9607 5450,5475 5494,5518 9539,5518 9539,9563 5494,9563 5494,5518 "/>
     <polygon id="206" class="fil49" points="5472,5497 9560,5497 9560,9585 5472,9585 5472,5497 5516,5540 9517,5540 9517,9541 5516,9541 5516,5540 "/>
     <polygon id="207" class="fil49" points="5494,5518 9539,5518 9539,9563 5494,9563 5494,5518 5537,5562 9495,5562 9495,9520 5537,9520 5537,5562 "/>
     <polygon id="208" class="fil49" points="5516,5540 9517,5540 9517,9541 5516,9541 5516,5540 5559,5584 9473,5584 9473,9498 5559,9498 5559,5584 "/>
     <polygon id="209" class="fil49" points="5537,5562 9495,5562 9495,9520 5537,9520 5537,5562 5581,5605 9452,5605 9452,9476 5581,9476 5581,5605 "/>
     <polygon id="210" class="fil49" points="5559,5584 9473,5584 9473,9498 5559,9498 5559,5584 5603,5627 9430,5627 9430,9454 5603,9454 5603,5627 "/>
     <polygon id="211" class="fil49" points="5581,5605 9452,5605 9452,9476 5581,9476 5581,5605 5624,5649 9408,5649 9408,9433 5624,9433 5624,5649 "/>
     <polygon id="212" class="fil49" points="5603,5627 9430,5627 9430,9454 5603,9454 5603,5627 5646,5671 9386,5671 9386,9411 5646,9411 5646,5671 "/>
     <polygon id="213" class="fil49" points="5624,5649 9408,5649 9408,9433 5624,9433 5624,5649 5668,5692 9365,5692 9365,9389 5668,9389 5668,5692 "/>
     <polygon id="214" class="fil49" points="5646,5671 9386,5671 9386,9411 5646,9411 5646,5671 5689,5714 9343,5714 9343,9368 5689,9368 5689,5714 "/>
     <polygon id="215" class="fil49" points="5668,5692 9365,5692 9365,9389 5668,9389 5668,5692 5711,5736 9321,5736 9321,9346 5711,9346 5711,5736 "/>
     <polygon id="216" class="fil49" points="5689,5714 9343,5714 9343,9368 5689,9368 5689,5714 5733,5758 9299,5758 9299,9324 5733,9324 5733,5758 "/>
     <polygon id="217" class="fil49" points="5711,5736 9321,5736 9321,9346 5711,9346 5711,5736 5755,5779 9278,5779 9278,9302 5755,9302 5755,5779 "/>
     <polygon id="218" class="fil49" points="5733,5758 9299,5758 9299,9324 5733,9324 5733,5758 5776,5801 9256,5801 9256,9281 5776,9281 5776,5801 "/>
     <polygon id="219" class="fil49" points="5755,5779 9278,5779 9278,9302 5755,9302 5755,5779 5798,5823 9234,5823 9234,9259 5798,9259 5798,5823 "/>
     <polygon id="220" class="fil49" points="5776,5801 9256,5801 9256,9281 5776,9281 5776,5801 5820,5845 9212,5845 9212,9237 5820,9237 5820,5845 "/>
     <polygon id="221" class="fil49" points="5798,5823 9234,5823 9234,9259 5798,9259 5798,5823 5842,5866 9191,5866 9191,9215 5842,9215 5842,5866 "/>
     <polygon id="222" class="fil49" points="5820,5845 9212,5845 9212,9237 5820,9237 5820,5845 5863,5888 9169,5888 9169,9194 5863,9194 5863,5888 "/>
     <polygon id="223" class="fil49" points="5842,5866 9191,5866 9191,9215 5842,9215 5842,5866 5885,5910 9147,5910 9147,9172 5885,9172 5885,5910 "/>
     <polygon id="224" class="fil49" points="5863,5888 9169,5888 9169,9194 5863,9194 5863,5888 5907,5932 9125,5932 9125,9150 5907,9150 5907,5932 "/>
     <polygon id="225" class="fil49" points="5885,5910 9147,5910 9147,9172 5885,9172 5885,5910 5929,5953 9104,5953 9104,9128 5929,9128 5929,5953 "/>
     <polygon id="226" class="fil49" points="5907,5931 9125,5931 9125,9150 5907,9150 5907,5931 5950,5975 9082,5975 9082,9107 5950,9107 5950,5975 "/>
     <polygon id="227" class="fil49" points="5929,5953 9104,5953 9104,9128 5929,9128 5929,5953 5972,5997 9060,5997 9060,9085 5972,9085 5972,5997 "/>
     <polygon id="228" class="fil49" points="5950,5975 9082,5975 9082,9107 5950,9107 5950,5975 5994,6018 9039,6018 9039,9063 5994,9063 5994,6018 "/>
     <polygon id="229" class="fil49" points="5972,5997 9060,5997 9060,9085 5972,9085 5972,5997 6016,6040 9017,6040 9017,9041 6016,9041 6016,6040 "/>
     <polygon id="230" class="fil49" points="5994,6018 9039,6018 9039,9063 5994,9063 5994,6018 6037,6062 8995,6062 8995,9020 6037,9020 6037,6062 "/>
     <polygon id="231" class="fil49" points="6016,6040 9017,6040 9017,9041 6016,9041 6016,6040 6059,6084 8973,6084 8973,8998 6059,8998 6059,6084 "/>
     <polygon id="232" class="fil49" points="6037,6062 8995,6062 8995,9020 6037,9020 6037,6062 6081,6105 8952,6105 8952,8976 6081,8976 6081,6105 "/>
     <polygon id="233" class="fil49" points="6059,6084 8973,6084 8973,8998 6059,8998 6059,6084 6103,6127 8930,6127 8930,8954 6103,8954 6103,6127 "/>
     <polygon id="234" class="fil49" points="6081,6105 8952,6105 8952,8976 6081,8976 6081,6105 6124,6149 8908,6149 8908,8933 6124,8933 6124,6149 "/>
     <polygon id="235" class="fil49" points="6103,6127 8930,6127 8930,8954 6103,8954 6103,6127 6146,6171 8886,6171 8886,8911 6146,8911 6146,6171 "/>
     <polygon id="236" class="fil49" points="6124,6149 8908,6149 8908,8933 6124,8933 6124,6149 6168,6192 8865,6192 8865,8889 6168,8889 6168,6192 "/>
     <polygon id="237" class="fil49" points="6146,6171 8886,6171 8886,8911 6146,8911 6146,6171 6190,6214 8843,6214 8843,8867 6190,8867 6190,6214 "/>
     <polygon id="238" class="fil49" points="6168,6192 8865,6192 8865,8889 6168,8889 6168,6192 6211,6236 8821,6236 8821,8846 6211,8846 6211,6236 "/>
     <polygon id="239" class="fil49" points="6190,6214 8843,6214 8843,8867 6190,8867 6190,6214 6233,6258 8799,6258 8799,8824 6233,8824 6233,6258 "/>
     <polygon id="240" class="fil49" points="6211,6236 8821,6236 8821,8846 6211,8846 6211,6236 6255,6279 8778,6279 8778,8802 6255,8802 6255,6279 "/>
     <polygon id="241" class="fil49" points="6233,6258 8799,6258 8799,8824 6233,8824 6233,6258 6277,6301 8756,6301 8756,8780 6277,8780 6277,6301 "/>
     <polygon id="242" class="fil49" points="6255,6279 8778,6279 8778,8802 6255,8802 6255,6279 6298,6323 8734,6323 8734,8759 6298,8759 6298,6323 "/>
     <polygon id="243" class="fil49" points="6277,6301 8756,6301 8756,8780 6277,8780 6277,6301 6320,6345 8712,6345 8712,8737 6320,8737 6320,6345 "/>
     <polygon id="244" class="fil49" points="6298,6323 8734,6323 8734,8759 6298,8759 6298,6323 6342,6366 8691,6366 8691,8715 6342,8715 6342,6366 "/>
     <polygon id="245" class="fil49" points="6320,6345 8712,6345 8712,8737 6320,8737 6320,6345 6364,6388 8669,6388 8669,8693 6364,8693 6364,6388 "/>
     <polygon id="246" class="fil49" points="6342,6366 8691,6366 8691,8715 6342,8715 6342,6366 6385,6410 8647,6410 8647,8672 6385,8672 6385,6410 "/>
     <polygon id="247" class="fil49" points="6364,6388 8669,6388 8669,8693 6364,8693 6364,6388 6407,6432 8625,6432 8625,8650 6407,8650 6407,6432 "/>
     <polygon id="248" class="fil49" points="6385,6410 8647,6410 8647,8672 6385,8672 6385,6410 6429,6453 8604,6453 8604,8628 6429,8628 6429,6453 "/>
     <polygon id="249" class="fil49" points="6407,6432 8625,6432 8625,8650 6407,8650 6407,6432 6451,6475 8582,6475 8582,8606 6451,8606 6451,6475 "/>
     <polygon id="250" class="fil49" points="6429,6453 8604,6453 8604,8628 6429,8628 6429,6453 6472,6497 8560,6497 8560,8585 6472,8585 6472,6497 "/>
     <polygon id="251" class="fil49" points="6451,6475 8582,6475 8582,8606 6451,8606 6451,6475 6494,6519 8538,6519 8538,8563 6494,8563 6494,6519 "/>
     <polygon id="252" class="fil49" points="6472,6497 8560,6497 8560,8585 6472,8585 6472,6497 6516,6540 8517,6540 8517,8541 6516,8541 6516,6540 "/>
     <polygon id="253" class="fil49" points="6494,6519 8538,6519 8538,8563 6494,8563 6494,6519 6538,6562 8495,6562 8495,8519 6538,8519 6538,6562 "/>
     <polygon id="254" class="fil49" points="6516,6540 8517,6540 8517,8541 6516,8541 6516,6540 6559,6584 8473,6584 8473,8498 6559,8498 6559,6584 "/>
     <polygon id="255" class="fil49" points="6538,6562 8495,6562 8495,8519 6538,8519 6538,6562 6581,6606 8451,6606 8451,8476 6581,8476 6581,6606 "/>
     <polygon id="256" class="fil49" points="6559,6584 8473,6584 8473,8498 6559,8498 6559,6584 6603,6627 8430,6627 8430,8454 6603,8454 6603,6627 "/>
     <polygon id="257" class="fil49" points="6581,6606 8451,6606 8451,8476 6581,8476 6581,6606 6625,6649 8408,6649 8408,8432 6625,8432 6625,6649 "/>
     <polygon id="258" class="fil49" points="6603,6627 8430,6627 8430,8454 6603,8454 6603,6627 6646,6671 8386,6671 8386,8411 6646,8411 6646,6671 "/>
     <polygon id="259" class="fil49" points="6625,6649 8408,6649 8408,8432 6625,8432 6625,6649 6668,6693 8364,6693 8364,8389 6668,8389 6668,6693 "/>
     <polygon id="260" class="fil49" points="6646,6671 8386,6671 8386,8411 6646,8411 6646,6671 6690,6714 8343,6714 8343,8367 6690,8367 6690,6714 "/>
     <polygon id="261" class="fil49" points="6668,6693 8364,6693 8364,8389 6668,8389 6668,6693 6712,6736 8321,6736 8321,8345 6712,8345 6712,6736 "/>
     <polygon id="262" class="fil49" points="6690,6714 8343,6714 8343,8367 6690,8367 6690,6714 6733,6758 8299,6758 8299,8324 6733,8324 6733,6758 "/>
     <polygon id="263" class="fil49" points="6712,6736 8321,6736 8321,8345 6712,8345 6712,6736 6755,6780 8277,6780 8277,8302 6755,8302 6755,6780 "/>
     <polygon id="264" class="fil49" points="6733,6758 8299,6758 8299,8324 6733,8324 6733,6758 6777,6801 8256,6801 8256,8280 6777,8280 6777,6801 "/>
     <polygon id="265" class="fil49" points="6755,6780 8277,6780 8277,8302 6755,8302 6755,6780 6799,6823 8234,6823 8234,8258 6799,8258 6799,6823 "/>
     <polygon id="266" class="fil49" points="6777,6801 8256,6801 8256,8280 6777,8280 6777,6801 6820,6845 8212,6845 8212,8237 6820,8237 6820,6845 "/>
     <polygon id="267" class="fil49" points="6799,6823 8234,6823 8234,8258 6799,8258 6799,6823 6842,6867 8190,6867 8190,8215 6842,8215 6842,6867 "/>
     <polygon id="268" class="fil49" points="6820,6845 8212,6845 8212,8237 6820,8237 6820,6845 6864,6888 8169,6888 8169,8193 6864,8193 6864,6888 "/>
     <polygon id="269" class="fil49" points="6842,6867 8190,6867 8190,8215 6842,8215 6842,6867 6886,6910 8147,6910 8147,8171 6886,8171 6886,6910 "/>
     <polygon id="270" class="fil49" points="6864,6888 8169,6888 8169,8193 6864,8193 6864,6888 6907,6932 8125,6932 8125,8150 6907,8150 6907,6932 "/>
     <polygon id="271" class="fil49" points="6886,6910 8147,6910 8147,8171 6886,8171 6886,6910 6929,6954 8103,6954 8103,8128 6929,8128 6929,6954 "/>
     <polygon id="272" class="fil49" points="6907,6932 8125,6932 8125,8150 6907,8150 6907,6932 6951,6975 8082,6975 8082,8106 6951,8106 6951,6975 "/>
     <polygon id="273" class="fil49" points="6929,6954 8103,6954 8103,8128 6929,8128 6929,6954 6973,6997 8060,6997 8060,8084 6973,8084 6973,6997 "/>
     <polygon id="274" class="fil49" points="6951,6975 8082,6975 8082,8106 6951,8106 6951,6975 6994,7019 8038,7019 8038,8063 6994,8063 6994,7019 "/>
     <polygon id="275" class="fil49" points="6973,6997 8060,6997 8060,8084 6973,8084 6973,6997 7016,7041 8016,7041 8016,8041 7016,8041 7016,7041 "/>
     <polygon id="276" class="fil49" points="6994,7019 8038,7019 8038,8063 6994,8063 6994,7019 7038,7062 7995,7062 7995,8019 7038,8019 7038,7062 "/>
     <polygon id="277" class="fil49" points="7016,7041 8016,7041 8016,8041 7016,8041 7016,7041 7060,7084 7973,7084 7973,7997 7060,7997 7060,7084 "/>
     <polygon id="278" class="fil49" points="7038,7062 7995,7062 7995,8019 7038,8019 7038,7062 7081,7106 7951,7106 7951,7976 7081,7976 7081,7106 "/>
     <polygon id="279" class="fil49" points="7060,7084 7973,7084 7973,7997 7060,7997 7060,7084 7103,7128 7929,7128 7929,7954 7103,7954 7103,7128 "/>
     <polygon id="280" class="fil49" points="7081,7106 7951,7106 7951,7976 7081,7976 7081,7106 7125,7149 7908,7149 7908,7932 7125,7932 7125,7149 "/>
     <polygon id="281" class="fil49" points="7103,7128 7929,7128 7929,7954 7103,7954 7103,7128 7147,7171 7886,7171 7886,7910 7147,7910 7147,7171 "/>
     <polygon id="282" class="fil49" points="7125,7149 7908,7149 7908,7932 7125,7932 7125,7149 7168,7193 7864,7193 7864,7889 7168,7889 7168,7193 "/>
     <polygon id="283" class="fil49" points="7147,7171 7886,7171 7886,7910 7147,7910 7147,7171 7190,7215 7842,7215 7842,7867 7190,7867 7190,7215 "/>
     <polygon id="284" class="fil49" points="7168,7193 7864,7193 7864,7889 7168,7889 7168,7193 7212,7236 7821,7236 7821,7845 7212,7845 7212,7236 "/>
     <polygon id="285" class="fil49" points="7190,7215 7842,7215 7842,7867 7190,7867 7190,7215 7234,7258 7799,7258 7799,7823 7234,7823 7234,7258 "/>
     <polygon id="286" class="fil49" points="7212,7236 7821,7236 7821,7845 7212,7845 7212,7236 7255,7280 7777,7280 7777,7802 7255,7802 7255,7280 "/>
     <polygon id="287" class="fil49" points="7234,7258 7799,7258 7799,7823 7234,7823 7234,7258 7277,7302 7755,7302 7755,7780 7277,7780 7277,7302 "/>
     <polygon id="288" class="fil49" points="7255,7280 7777,7280 7777,7802 7255,7802 7255,7280 7299,7323 7734,7323 7734,7758 7299,7758 7299,7323 "/>
     <polygon id="289" class="fil49" points="7277,7302 7755,7302 7755,7780 7277,7780 7277,7302 7321,7345 7712,7345 7712,7736 7321,7736 7321,7345 "/>
     <polygon id="290" class="fil49" points="7299,7323 7734,7323 7734,7758 7299,7758 7299,7323 7342,7367 7690,7367 7690,7715 7342,7715 7342,7367 "/>
     <polygon id="291" class="fil49" points="7321,7345 7712,7345 7712,7736 7321,7736 7321,7345 7364,7389 7668,7389 7668,7693 7364,7693 7364,7389 "/>
     <polygon id="292" class="fil49" points="7342,7367 7690,7367 7690,7715 7342,7715 7342,7367 7386,7410 7647,7410 7647,7671 7386,7671 7386,7410 "/>
     <polygon id="293" class="fil49" points="7364,7389 7668,7389 7668,7693 7364,7693 7364,7389 7407,7432 7625,7432 7625,7649 7407,7649 7407,7432 "/>
     <polygon id="294" class="fil49" points="7386,7410 7647,7410 7647,7671 7386,7671 7386,7410 7429,7454 7603,7454 7603,7628 7429,7628 7429,7454 "/>
     <polygon id="295" class="fil49" points="7407,7432 7625,7432 7625,7649 7407,7649 7407,7432 7451,7476 7581,7476 7581,7606 7451,7606 7451,7476 "/>
     <polygon id="296" class="fil49" points="7429,7454 7603,7454 7603,7628 7429,7628 7429,7454 7473,7497 7560,7497 7560,7584 7473,7584 7473,7497 "/>
     <polygon id="297" class="fil49" points="7451,7476 7581,7476 7581,7606 7451,7606 7451,7476 7494,7519 7538,7519 7538,7563 7494,7563 7494,7519 "/>
     <polygon id="298" class="fil49" points="7473,7497 7560,7497 7560,7584 7473,7584 7473,7497 7516,7541 7516,7541 7516,7541 7516,7541 7516,7541 "/>
     <polygon id="299" class="fil49" points="7494,7519 7538,7519 7538,7563 7494,7563 7494,7519 "/>
    </g>
   </g>
  </g>
  <g>
   <polygon class="fil50" points="5408,6764 11692,6764 9655,8616 3265,8616 "/>
   <polygon class="fil51" points="5408,6757 11700,6757 12367,5223 6387,5223 "/>
   <polygon class="fil52" points="3376,12801 9646,12801 9646,8607 3376,8607 "/>
   <polygon class="fil53" points="2255,10084 9008,10084 9656,8610 3255,8617 "/>
   <polygon class="fil54" points="9648,8618 11753,6901 11774,10897 9648,12797 "/>
   <polygon class="fil55" points="10477,9758 12646,7450 11697,6763 9651,8619 "/>
  </g>
  <path class="fil56" d="M9843 5266l-1214 374c7,-778 -18,-2217 -452,-2712 -1634,-1870 -5417,353 -5043,337 257,-11 2520,716 3515,2985l-1185 365 2791 1521 1588 -2871z"/>
 </g>
</svg>
