<?xml version="1.0" encoding="UTF-8"?>
<!DOCTYPE svg PUBLIC "-//W3C//DTD SVG 1.1//EN" "http://www.w3.org/Graphics/SVG/1.1/DTD/svg11.dtd">
<!-- Creator: CorelDRAW X6 -->
<svg xmlns="http://www.w3.org/2000/svg" xml:space="preserve" width="100px" height="100px" version="1.1" style="shape-rendering:geometricPrecision; text-rendering:geometricPrecision; image-rendering:optimizeQuality; fill-rule:evenodd; clip-rule:evenodd"
viewBox="0 0 10000 10000"
 xmlns:xlink="http://www.w3.org/1999/xlink">
 <defs>
  <style type="text/css">
   <![CDATA[
    .fil56 {fill:none}
    .fil0 {fill:#579AC5}
    .fil2 {fill:#579BC6}
    .fil3 {fill:#589BC6}
    .fil4 {fill:#589CC7}
    .fil5 {fill:#599CC8}
    .fil6 {fill:#599DC8}
    .fil7 {fill:#599DC9}
    .fil8 {fill:#5A9ECA}
    .fil9 {fill:#5A9FCA}
    .fil10 {fill:#5B9FCB}
    .fil11 {fill:#5BA0CB}
    .fil12 {fill:#5CA0CC}
    .fil13 {fill:#5CA1CD}
    .fil14 {fill:#5DA2CE}
    .fil15 {fill:#5DA3CF}
    .fil16 {fill:#5EA3CF}
    .fil17 {fill:#5EA4D0}
    .fil18 {fill:#5EA4D1}
    .fil19 {fill:#5FA5D1}
    .fil20 {fill:#5FA5D2}
    .fil21 {fill:#60A6D2}
    .fil22 {fill:#60A7D3}
    .fil23 {fill:#61A7D4}
    .fil24 {fill:#61A8D4}
    .fil25 {fill:#61A8D5}
    .fil26 {fill:#62A9D6}
    .fil27 {fill:#63AAD7}
    .fil28 {fill:#63ABD8}
    .fil29 {fill:#64ACD9}
    .fil30 {fill:#65ADDA}
    .fil31 {fill:#65ADDB}
    .fil32 {fill:#66AEDB}
    .fil33 {fill:#66AEDC}
    .fil34 {fill:#66AFDD}
    .fil35 {fill:#67B0DD}
    .fil36 {fill:#67B0DE}
    .fil37 {fill:#68B1DE}
    .fil38 {fill:#68B1DF}
    .fil39 {fill:#68B2E0}
    .fil40 {fill:#69B2E0}
    .fil41 {fill:#69B3E1}
    .fil42 {fill:#6AB4E2}
    .fil43 {fill:#6BB5E3}
    .fil44 {fill:#6BB5E4}
    .fil45 {fill:#6BB6E4}
    .fil46 {fill:#6CB6E5}
    .fil47 {fill:#6CB7E5}
    .fil48 {fill:#6DB8E6}
    .fil49 {fill:#6DB8E7}
    .fil50 {fill:#6DB9E7}
    .fil51 {fill:#6EB9E8}
    .fil52 {fill:#6EBAE9}
    .fil53 {fill:#6FBAE9}
    .fil54 {fill:#6FBBEA}
    .fil55 {fill:#70BCEB}
    .fil63 {fill:#C70A17}
    .fil1 {fill:black;fill-opacity:0.000000}
    .fil57 {fill:url(#id2)}
    .fil59 {fill:url(#id3)}
    .fil60 {fill:url(#id4)}
    .fil58 {fill:url(#id5)}
    .fil62 {fill:url(#id6)}
    .fil61 {fill:url(#id7)}
   ]]>
  </style>
      <clipPath id="id0">
       <path d="M1583 9403l6859 0c528,0 961,-432 961,-961l0 -6859c0,-528 -432,-961 -961,-961l-6859 0c-528,0 -961,432 -961,961l0 6859c0,528 432,961 961,961z"/>
      </clipPath>
      <clipPath id="id1">
       <path d="M1583 9403l6859 0c528,0 961,-432 961,-961l0 -6859c0,-528 -432,-961 -961,-961l-6859 0c-528,0 -961,432 -961,961l0 6859c0,528 432,961 961,961z"/>
      </clipPath>
  <linearGradient id="id2" gradientUnits="userSpaceOnUse" x1="4985.61" y1="5744.14" x2="4985.61" y2="4509.41">
   <stop offset="0" style="stop-color:#666666"/>
   <stop offset="1" style="stop-color:#999999"/>
  </linearGradient>
  <linearGradient id="id3" gradientUnits="userSpaceOnUse" x1="4340.74" y1="8533.85" x2="4340.74" y2="5738.09">
   <stop offset="0" style="stop-color:gray"/>
   <stop offset="1" style="stop-color:#CCCCCC"/>
  </linearGradient>
  <linearGradient id="id4" gradientUnits="userSpaceOnUse" x1="3970.29" y1="6722.84" x2="3970.29" y2="5740.09">
   <stop offset="0" style="stop-color:#CCCCCC"/>
   <stop offset="1" style="stop-color:#E6E6E6"/>
  </linearGradient>
  <linearGradient id="id5" gradientUnits="userSpaceOnUse" x1="5924.9" y1="4505" x2="5924.9" y2="3481.94">
   <stop offset="0" style="stop-color:#CCCCCC"/>
   <stop offset="1" style="stop-color:white"/>
  </linearGradient>
  <linearGradient id="id6" gradientUnits="userSpaceOnUse" x1="8300.34" y1="6541.39" x2="6564.66" y2="4472.89">
   <stop offset="0" style="stop-color:#999999"/>
   <stop offset="1" style="stop-color:#CCCCCC"/>
  </linearGradient>
  <linearGradient id="id7" gradientUnits="userSpaceOnUse" xlink:href="#id2" x1="8224.66" y1="7857.87" x2="6056.45" y2="5273.9">
  </linearGradient>
 </defs>
 <g id="Layer_x0020_1">
  <metadata id="CorelCorpID_0Corel-Layer"/>
  <g id="_122779824">
   <g id="_343350824">
    <path class="fil0" d="M1443 26l7138 0c783,0 1417,635 1417,1417l0 7138c0,783 -635,1417 -1417,1417l-7138 0c-783,0 -1417,-635 -1417,-1417l0 -7138c0,-783 635,-1417 1417,-1417z"/>
    <g>
     <g style="clip-path:url(#id0)">
      <polygon class="fil1" points="622,623 9402,623 9402,9403 622,9403 "/>
     </g>
     <g style="clip-path:url(#id1)">
      <g>
       <polygon id="1" class="fil0" points="622,622 9402,622 9402,9403 622,9403 622,622 652,652 9373,652 9373,9373 652,9373 652,652 "/>
       <polygon id="_1" class="fil0" points="637,637 9387,637 9387,9388 637,9388 637,637 666,667 9359,667 9359,9359 666,9359 666,667 "/>
       <polygon id="_2" class="fil2" points="652,652 9373,652 9373,9373 652,9373 652,652 681,681 9344,681 9344,9344 681,9344 681,681 "/>
       <polygon id="_3" class="fil3" points="666,667 9359,667 9359,9359 666,9359 666,667 695,696 9329,696 9329,9329 695,9329 695,696 "/>
       <polygon id="_4" class="fil4" points="681,681 9344,681 9344,9344 681,9344 681,681 710,710 9314,710 9314,9314 710,9314 710,710 "/>
       <polygon id="_5" class="fil5" points="695,696 9329,696 9329,9329 695,9329 695,696 725,725 9300,725 9300,9300 725,9300 725,725 "/>
       <polygon id="_6" class="fil6" points="710,710 9314,710 9314,9314 710,9314 710,710 740,740 9285,740 9285,9286 740,9286 740,740 "/>
       <polygon id="_7" class="fil7" points="725,725 9300,725 9300,9300 725,9300 725,725 754,754 9270,754 9270,9271 754,9271 754,754 "/>
       <polygon id="_8" class="fil8" points="740,740 9285,740 9285,9286 740,9286 740,740 768,769 9256,769 9256,9256 768,9256 768,769 "/>
       <polygon id="_9" class="fil9" points="754,754 9270,754 9270,9271 754,9271 754,754 783,784 9242,784 9242,9242 783,9242 783,784 "/>
       <polygon id="_10" class="fil10" points="768,769 9256,769 9256,9256 768,9256 768,769 798,799 9227,799 9227,9227 798,9227 798,799 "/>
       <polygon id="_11" class="fil11" points="783,784 9242,784 9242,9242 783,9242 783,784 813,813 9212,813 9212,9212 813,9212 813,813 "/>
       <polygon id="_12" class="fil12" points="798,799 9227,799 9227,9227 798,9227 798,799 827,827 9197,827 9197,9197 827,9197 827,827 "/>
       <polygon id="_13" class="fil13" points="813,813 9212,813 9212,9212 813,9212 813,813 842,842 9183,842 9183,9183 842,9183 842,842 "/>
       <polygon id="_14" class="fil13" points="827,827 9197,827 9197,9197 827,9197 827,827 857,857 9168,857 9168,9169 857,9169 857,857 "/>
       <polygon id="_15" class="fil14" points="842,842 9183,842 9183,9183 842,9183 842,842 871,871 9153,871 9153,9154 871,9154 871,871 "/>
       <polygon id="_16" class="fil15" points="857,857 9168,857 9168,9169 857,9169 857,857 886,886 9139,886 9139,9139 886,9139 886,886 "/>
       <polygon id="_17" class="fil16" points="871,871 9153,871 9153,9154 871,9154 871,871 900,901 9124,901 9124,9124 900,9124 900,901 "/>
       <polygon id="_18" class="fil17" points="886,886 9139,886 9139,9139 886,9139 886,886 915,915 9110,915 9110,9110 915,9110 915,915 "/>
       <polygon id="_19" class="fil18" points="900,901 9124,901 9124,9124 900,9124 900,901 930,930 9095,930 9095,9095 930,9095 930,930 "/>
       <polygon id="_20" class="fil19" points="915,915 9110,915 9110,9110 915,9110 915,915 944,944 9080,944 9080,9081 944,9081 944,944 "/>
       <polygon id="_21" class="fil20" points="930,930 9095,930 9095,9095 930,9095 930,930 959,959 9065,959 9065,9066 959,9066 959,959 "/>
       <polygon id="_22" class="fil21" points="944,944 9080,944 9080,9081 944,9081 944,944 973,974 9051,974 9051,9051 973,9051 973,974 "/>
       <polygon id="_23" class="fil22" points="959,959 9065,959 9065,9066 959,9066 959,959 988,989 9037,989 9037,9037 988,9037 988,989 "/>
       <polygon id="_24" class="fil23" points="973,974 9051,974 9051,9051 973,9051 973,974 1003,1003 9022,1003 9022,9022 1003,9022 1003,1003 "/>
       <polygon id="_25" class="fil24" points="988,989 9037,989 9037,9037 988,9037 988,989 1017,1017 9007,1017 9007,9007 1017,9007 1017,1017 "/>
       <polygon id="_26" class="fil25" points="1003,1003 9022,1003 9022,9022 1003,9022 1003,1003 1032,1032 8993,1032 8993,8993 1032,8993 1032,1032 "/>
       <polygon id="_27" class="fil26" points="1017,1017 9007,1017 9007,9007 1017,9007 1017,1017 1047,1047 8978,1047 8978,8978 1047,8978 1047,1047 "/>
       <polygon id="_28" class="fil26" points="1032,1032 8993,1032 8993,8993 1032,8993 1032,1032 1062,1062 8963,1062 8963,8964 1062,8964 1062,1062 "/>
       <polygon id="_29" class="fil27" points="1047,1047 8978,1047 8978,8978 1047,8978 1047,1047 1076,1076 8948,1076 8948,8949 1076,8949 1076,1076 "/>
       <polygon id="_30" class="fil28" points="1062,1062 8963,1062 8963,8964 1062,8964 1062,1062 1090,1091 8934,1091 8934,8934 1090,8934 1090,1091 "/>
       <polygon id="_31" class="fil28" points="1076,1076 8948,1076 8948,8949 1076,8949 1076,1076 1105,1106 8920,1106 8920,8920 1105,8920 1105,1106 "/>
       <polygon id="_32" class="fil29" points="1090,1091 8934,1091 8934,8934 1090,8934 1090,1091 1120,1120 8905,1120 8905,8905 1120,8905 1120,1120 "/>
       <polygon id="_33" class="fil29" points="1105,1106 8920,1106 8920,8920 1105,8920 1105,1106 1135,1135 8890,1135 8890,8890 1135,8890 1135,1135 "/>
       <polygon id="_34" class="fil30" points="1120,1120 8905,1120 8905,8905 1120,8905 1120,1120 1149,1149 8875,1149 8875,8876 1149,8876 1149,1149 "/>
       <polygon id="_35" class="fil31" points="1135,1135 8890,1135 8890,8890 1135,8890 1135,1135 1164,1164 8861,1164 8861,8861 1164,8861 1164,1164 "/>
       <polygon id="_36" class="fil32" points="1149,1149 8875,1149 8875,8876 1149,8876 1149,1149 1179,1179 8846,1179 8846,8847 1179,8847 1179,1179 "/>
       <polygon id="_37" class="fil33" points="1164,1164 8861,1164 8861,8861 1164,8861 1164,1164 1193,1193 8832,1193 8832,8832 1193,8832 1193,1193 "/>
       <polygon id="_38" class="fil34" points="1179,1179 8846,1179 8846,8847 1179,8847 1179,1179 1208,1208 8817,1208 8817,8817 1208,8817 1208,1208 "/>
       <polygon id="_39" class="fil35" points="1193,1193 8832,1193 8832,8832 1193,8832 1193,1193 1222,1223 8802,1223 8802,8802 1222,8802 1222,1223 "/>
       <polygon id="_40" class="fil36" points="1208,1208 8817,1208 8817,8817 1208,8817 1208,1208 1237,1237 8788,1237 8788,8788 1237,8788 1237,1237 "/>
       <polygon id="_41" class="fil37" points="1222,1223 8802,1223 8802,8802 1222,8802 1222,1223 1252,1252 8773,1252 8773,8774 1252,8774 1252,1252 "/>
       <polygon id="_42" class="fil38" points="1237,1237 8788,1237 8788,8788 1237,8788 1237,1237 1266,1266 8758,1266 8758,8759 1266,8759 1266,1266 "/>
       <polygon id="_43" class="fil39" points="1252,1252 8773,1252 8773,8774 1252,8774 1252,1252 1281,1281 8743,1281 8743,8744 1281,8744 1281,1281 "/>
       <polygon id="_44" class="fil40" points="1266,1266 8758,1266 8758,8759 1266,8759 1266,1266 1295,1296 8729,1296 8729,8729 1295,8729 1295,1296 "/>
       <polygon id="_45" class="fil41" points="1281,1281 8743,1281 8743,8744 1281,8744 1281,1281 1310,1311 8715,1311 8715,8715 1310,8715 1310,1311 "/>
       <polygon id="_46" class="fil42" points="1295,1296 8729,1296 8729,8729 1295,8729 1295,1296 1325,1325 8700,1325 8700,8700 1325,8700 1325,1325 "/>
       <polygon id="_47" class="fil42" points="1310,1311 8715,1311 8715,8715 1310,8715 1310,1311 1339,1339 8685,1339 8685,8685 1339,8685 1339,1339 "/>
       <polygon id="_48" class="fil43" points="1325,1325 8700,1325 8700,8700 1325,8700 1325,1325 1354,1354 8671,1354 8671,8671 1354,8671 1354,1354 "/>
       <polygon id="_49" class="fil44" points="1339,1339 8685,1339 8685,8685 1339,8685 1339,1339 1369,1369 8656,1369 8656,8656 1369,8656 1369,1369 "/>
       <polygon id="_50" class="fil45" points="1354,1354 8671,1354 8671,8671 1354,8671 1354,1354 1384,1384 8641,1384 8641,8642 1384,8642 1384,1384 "/>
       <polygon id="_51" class="fil46" points="1369,1369 8656,1369 8656,8656 1369,8656 1369,1369 1398,1398 8626,1398 8626,8627 1398,8627 1398,1398 "/>
       <polygon id="_52" class="fil47" points="1384,1384 8641,1384 8641,8642 1384,8642 1384,1384 1412,1413 8612,1413 8612,8612 1412,8612 1412,1413 "/>
       <polygon id="_53" class="fil48" points="1398,1398 8626,1398 8626,8627 1398,8627 1398,1398 1427,1428 8598,1428 8598,8598 1427,8598 1427,1428 "/>
       <polygon id="_54" class="fil49" points="1412,1413 8612,1413 8612,8612 1412,8612 1412,1413 1442,1442 8583,1442 8583,8583 1442,8583 1442,1442 "/>
       <polygon id="_55" class="fil50" points="1427,1428 8598,1428 8598,8598 1427,8598 1427,1428 1457,1457 8568,1457 8568,8568 1457,8568 1457,1457 "/>
       <polygon id="_56" class="fil51" points="1442,1442 8583,1442 8583,8583 1442,8583 1442,1442 1471,1471 8553,1471 8553,8554 1471,8554 1471,1471 "/>
       <polygon id="_57" class="fil52" points="1457,1457 8568,1457 8568,8568 1457,8568 1457,1457 1486,1486 8539,1486 8539,8539 1486,8539 1486,1486 "/>
       <polygon id="_58" class="fil53" points="1471,1471 8553,1471 8553,8554 1471,8554 1471,1471 1500,1501 8524,1501 8524,8525 1500,8525 1500,1501 "/>
       <polygon id="_59" class="fil54" points="1486,1486 8539,1486 8539,8539 1486,8539 1486,1486 1515,1515 8510,1515 8510,8510 1515,8510 1515,1515 "/>
       <polygon id="_60" class="fil55" points="1500,1501 8524,1501 8524,8525 1500,8525 1500,1501 1530,1530 8495,1530 8495,8495 1530,8495 1530,1530 "/>
       <polygon id="_61" class="fil55" points="1515,1515 8510,1515 8510,8510 1515,8510 1515,1515 1544,1544 8480,1544 8480,8480 1544,8480 1544,1544 "/>
       <polygon id="_62" class="fil55" points="1530,1530 8495,1530 8495,8495 1530,8495 1530,1530 1559,1559 8466,1559 8466,8466 1559,8466 1559,1559 "/>
       <polygon id="_63" class="fil55" points="1544,1544 8480,1544 8480,8480 1544,8480 1544,1544 1574,1574 8451,1574 8451,8452 1574,8452 1574,1574 "/>
       <polygon id="_64" class="fil55" points="1559,1559 8466,1559 8466,8466 1559,8466 1559,1559 1588,1588 8436,1588 8436,8437 1588,8437 1588,1588 "/>
       <polygon id="_65" class="fil55" points="1574,1574 8451,1574 8451,8452 1574,8452 1574,1574 1602,1603 8422,1603 8422,8422 1602,8422 1602,1603 "/>
       <polygon id="_66" class="fil55" points="1588,1588 8436,1588 8436,8437 1588,8437 1588,1588 1617,1618 8407,1618 8407,8407 1617,8407 1617,1618 "/>
       <polygon id="_67" class="fil55" points="1602,1603 8422,1603 8422,8422 1602,8422 1602,1603 1632,1633 8393,1633 8393,8393 1632,8393 1632,1633 "/>
       <polygon id="_68" class="fil55" points="1617,1618 8407,1618 8407,8407 1617,8407 1617,1618 1647,1647 8378,1647 8378,8378 1647,8378 1647,1647 "/>
       <polygon id="_69" class="fil55" points="1632,1633 8393,1633 8393,8393 1632,8393 1632,1633 1661,1661 8363,1661 8363,8363 1661,8363 1661,1661 "/>
       <polygon id="_70" class="fil55" points="1647,1647 8378,1647 8378,8378 1647,8378 1647,1647 1676,1676 8349,1676 8349,8349 1676,8349 1676,1676 "/>
       <polygon id="_71" class="fil55" points="1661,1661 8363,1661 8363,8363 1661,8363 1661,1661 1691,1691 8334,1691 8334,8334 1691,8334 1691,1691 "/>
       <polygon id="_72" class="fil55" points="1676,1676 8349,1676 8349,8349 1676,8349 1676,1676 1706,1706 8319,1706 8319,8320 1706,8320 1706,1706 "/>
       <polygon id="_73" class="fil55" points="1691,1691 8334,1691 8334,8334 1691,8334 1691,1691 1720,1720 8305,1720 8305,8305 1720,8305 1720,1720 "/>
       <polygon id="_74" class="fil55" points="1705,1706 8319,1706 8319,8320 1705,8320 1705,1706 1734,1735 8290,1735 8290,8290 1734,8290 1734,1735 "/>
       <polygon id="_75" class="fil55" points="1720,1720 8305,1720 8305,8305 1720,8305 1720,1720 1749,1749 8276,1749 8276,8276 1749,8276 1749,1749 "/>
       <polygon id="_76" class="fil55" points="1734,1735 8290,1735 8290,8290 1734,8290 1734,1735 1764,1764 8261,1764 8261,8261 1764,8261 1764,1764 "/>
       <polygon id="_77" class="fil55" points="1749,1749 8276,1749 8276,8276 1749,8276 1749,1749 1779,1779 8246,1779 8246,8247 1779,8247 1779,1779 "/>
       <polygon id="_78" class="fil55" points="1764,1764 8261,1764 8261,8261 1764,8261 1764,1764 1793,1793 8231,1793 8231,8232 1793,8232 1793,1793 "/>
       <polygon id="_79" class="fil55" points="1779,1779 8246,1779 8246,8247 1779,8247 1779,1779 1808,1808 8217,1808 8217,8217 1808,8217 1808,1808 "/>
       <polygon id="_80" class="fil55" points="1793,1793 8231,1793 8231,8232 1793,8232 1793,1793 1822,1823 8203,1823 8203,8203 1822,8203 1822,1823 "/>
       <polygon id="_81" class="fil55" points="1808,1808 8217,1808 8217,8217 1808,8217 1808,1808 1837,1837 8188,1837 8188,8188 1837,8188 1837,1837 "/>
       <polygon id="_82" class="fil55" points="1822,1823 8203,1823 8203,8203 1822,8203 1822,1823 1851,1852 8173,1852 8173,8173 1851,8173 1851,1852 "/>
       <polygon id="_83" class="fil55" points="1837,1837 8188,1837 8188,8188 1837,8188 1837,1837 1866,1866 8158,1866 8158,8158 1866,8158 1866,1866 "/>
       <polygon id="_84" class="fil55" points="1851,1852 8173,1852 8173,8173 1851,8173 1851,1852 1881,1881 8144,1881 8144,8144 1881,8144 1881,1881 "/>
       <polygon id="_85" class="fil55" points="1866,1866 8158,1866 8158,8158 1866,8158 1866,1866 1896,1896 8129,1896 8129,8130 1896,8130 1896,1896 "/>
       <polygon id="_86" class="fil55" points="1881,1881 8144,1881 8144,8144 1881,8144 1881,1881 1910,1910 8114,1910 8114,8115 1910,8115 1910,1910 "/>
       <polygon id="_87" class="fil55" points="1896,1896 8129,1896 8129,8130 1896,8130 1896,1896 1924,1925 8100,1925 8100,8100 1924,8100 1924,1925 "/>
       <polygon id="_88" class="fil55" points="1910,1910 8114,1910 8114,8115 1910,8115 1910,1910 1939,1940 8085,1940 8085,8085 1939,8085 1939,1940 "/>
       <polygon id="_89" class="fil55" points="1924,1925 8100,1925 8100,8100 1924,8100 1924,1925 1954,1955 8071,1955 8071,8071 1954,8071 1954,1955 "/>
       <polygon id="_90" class="fil55" points="1939,1940 8085,1940 8085,8085 1939,8085 1939,1940 1969,1969 8056,1969 8056,8056 1969,8056 1969,1969 "/>
       <polygon id="_91" class="fil55" points="1954,1955 8071,1955 8071,8071 1954,8071 1954,1955 1983,1983 8041,1983 8041,8041 1983,8041 1983,1983 "/>
       <polygon id="_92" class="fil55" points="1969,1969 8056,1969 8056,8056 1969,8056 1969,1969 1998,1998 8027,1998 8027,8027 1998,8027 1998,1998 "/>
       <polygon id="_93" class="fil55" points="1983,1983 8041,1983 8041,8041 1983,8041 1983,1983 2013,2013 8012,2013 8012,8013 2013,8013 2013,2013 "/>
       <polygon id="_94" class="fil55" points="1998,1998 8027,1998 8027,8027 1998,8027 1998,1998 2027,2028 7997,2028 7997,7998 2027,7998 2027,2028 "/>
       <polygon id="_95" class="fil55" points="2013,2013 8012,2013 8012,8013 2013,8013 2013,2013 2042,2042 7983,2042 7983,7983 2042,7983 2042,2042 "/>
       <polygon id="_96" class="fil55" points="2027,2028 7997,2028 7997,7998 2027,7998 2027,2028 2056,2057 7968,2057 7968,7968 2056,7968 2056,2057 "/>
       <polygon id="_97" class="fil55" points="2042,2042 7983,2042 7983,7983 2042,7983 2042,2042 2071,2071 7954,2071 7954,7954 2071,7954 2071,2071 "/>
       <polygon id="_98" class="fil55" points="2056,2057 7968,2057 7968,7968 2056,7968 2056,2057 2086,2086 7939,2086 7939,7939 2086,7939 2086,2086 "/>
       <polygon id="_99" class="fil55" points="2071,2071 7954,2071 7954,7954 2071,7954 2071,2071 2100,2100 7924,2100 7924,7925 2100,7925 2100,2100 "/>
       <polygon id="_100" class="fil55" points="2086,2086 7939,2086 7939,7939 2086,7939 2086,2086 2115,2115 7909,2115 7909,7910 2115,7910 2115,2115 "/>
       <polygon id="_101" class="fil55" points="2100,2100 7924,2100 7924,7925 2100,7925 2100,2100 2129,2130 7895,2130 7895,7895 2129,7895 2129,2130 "/>
       <polygon id="_102" class="fil55" points="2115,2115 7909,2115 7909,7910 2115,7910 2115,2115 2144,2145 7881,2145 7881,7881 2144,7881 2144,2145 "/>
       <polygon id="_103" class="fil55" points="2129,2130 7895,2130 7895,7895 2129,7895 2129,2130 2159,2159 7866,2159 7866,7866 2159,7866 2159,2159 "/>
       <polygon id="_104" class="fil55" points="2144,2145 7881,2145 7881,7881 2144,7881 2144,2145 2173,2173 7851,2173 7851,7851 2173,7851 2173,2173 "/>
       <polygon id="_105" class="fil55" points="2159,2159 7866,2159 7866,7866 2159,7866 2159,2159 2188,2188 7836,2188 7836,7836 2188,7836 2188,2188 "/>
       <polygon id="_106" class="fil55" points="2173,2173 7851,2173 7851,7851 2173,7851 2173,2173 2203,2203 7822,2203 7822,7822 2203,7822 2203,2203 "/>
       <polygon id="_107" class="fil55" points="2188,2188 7836,2188 7836,7836 2188,7836 2188,2188 2218,2218 7807,2218 7807,7808 2218,7808 2218,2218 "/>
       <polygon id="_108" class="fil55" points="2203,2203 7822,2203 7822,7822 2203,7822 2203,2203 2232,2232 7792,2232 7792,7793 2232,7793 2232,2232 "/>
       <polygon id="_109" class="fil55" points="2218,2218 7807,2218 7807,7808 2218,7808 2218,2218 2246,2247 7778,2247 7778,7778 2246,7778 2246,2247 "/>
       <polygon id="_110" class="fil55" points="2232,2232 7792,2232 7792,7793 2232,7793 2232,2232 2261,2262 7764,2262 7764,7764 2261,7764 2261,2262 "/>
       <polygon id="_111" class="fil55" points="2246,2247 7778,2247 7778,7778 2246,7778 2246,2247 2276,2276 7749,2276 7749,7749 2276,7749 2276,2276 "/>
       <polygon id="_112" class="fil55" points="2261,2262 7764,2262 7764,7764 2261,7764 2261,2262 2291,2291 7734,2291 7734,7734 2291,7734 2291,2291 "/>
       <polygon id="_113" class="fil55" points="2276,2276 7749,2276 7749,7749 2276,7749 2276,2276 2305,2305 7719,2305 7719,7720 2305,7720 2305,2305 "/>
       <polygon id="_114" class="fil55" points="2291,2291 7734,2291 7734,7734 2291,7734 2291,2291 2320,2320 7705,2320 7705,7705 2320,7705 2320,2320 "/>
       <polygon id="_115" class="fil55" points="2305,2305 7719,2305 7719,7720 2305,7720 2305,2305 2335,2335 7690,2335 7690,7691 2335,7691 2335,2335 "/>
       <polygon id="_116" class="fil55" points="2320,2320 7705,2320 7705,7705 2320,7705 2320,2320 2349,2349 7676,2349 7676,7676 2349,7676 2349,2349 "/>
       <polygon id="_117" class="fil55" points="2334,2335 7690,2335 7690,7691 2334,7691 2334,2335 2364,2364 7661,2364 7661,7661 2364,7661 2364,2364 "/>
       <polygon id="_118" class="fil55" points="2349,2349 7676,2349 7676,7676 2349,7676 2349,2349 2378,2378 7646,2378 7646,7646 2378,7646 2378,2378 "/>
       <polygon id="_119" class="fil55" points="2364,2364 7661,2364 7661,7661 2364,7661 2364,2364 2393,2393 7632,2393 7632,7632 2393,7632 2393,2393 "/>
       <polygon id="_120" class="fil55" points="2378,2378 7646,2378 7646,7646 2378,7646 2378,2378 2408,2408 7617,2408 7617,7618 2408,7618 2408,2408 "/>
       <polygon id="_121" class="fil55" points="2393,2393 7632,2393 7632,7632 2393,7632 2393,2393 2422,2422 7602,2422 7602,7603 2422,7603 2422,2422 "/>
       <polygon id="_122" class="fil55" points="2408,2408 7617,2408 7617,7618 2408,7618 2408,2408 2437,2437 7587,2437 7587,7588 2437,7588 2437,2437 "/>
       <polygon id="_123" class="fil55" points="2422,2422 7602,2422 7602,7603 2422,7603 2422,2422 2451,2452 7573,2452 7573,7573 2451,7573 2451,2452 "/>
       <polygon id="_124" class="fil55" points="2437,2437 7587,2437 7587,7588 2437,7588 2437,2437 2466,2467 7559,2467 7559,7559 2466,7559 2466,2467 "/>
       <polygon id="_125" class="fil55" points="2451,2452 7573,2452 7573,7573 2451,7573 2451,2452 2481,2481 7544,2481 7544,7544 2481,7544 2481,2481 "/>
       <polygon id="_126" class="fil55" points="2466,2467 7559,2467 7559,7559 2466,7559 2466,2467 2495,2495 7529,2495 7529,7529 2495,7529 2495,2495 "/>
       <polygon id="_127" class="fil55" points="2481,2481 7544,2481 7544,7544 2481,7544 2481,2481 2510,2510 7515,2510 7515,7515 2510,7515 2510,2510 "/>
       <polygon id="_128" class="fil55" points="2495,2495 7529,2495 7529,7529 2495,7529 2495,2495 2525,2525 7500,2525 7500,7500 2525,7500 2525,2525 "/>
       <polygon id="_129" class="fil55" points="2510,2510 7515,2510 7515,7515 2510,7515 2510,2510 2540,2540 7485,2540 7485,7486 2540,7486 2540,2540 "/>
       <polygon id="_130" class="fil55" points="2525,2525 7500,2525 7500,7500 2525,7500 2525,2525 2554,2554 7471,2554 7471,7471 2554,7471 2554,2554 "/>
       <polygon id="_131" class="fil55" points="2540,2540 7485,2540 7485,7486 2540,7486 2540,2540 2568,2569 7456,2569 7456,7456 2568,7456 2568,2569 "/>
       <polygon id="_132" class="fil55" points="2554,2554 7471,2554 7471,7471 2554,7471 2554,2554 2583,2584 7442,2584 7442,7442 2583,7442 2583,2584 "/>
       <polygon id="_133" class="fil55" points="2568,2569 7456,2569 7456,7456 2568,7456 2568,2569 2598,2598 7427,2598 7427,7427 2598,7427 2598,2598 "/>
       <polygon id="_134" class="fil55" points="2583,2584 7442,2584 7442,7442 2583,7442 2583,2584 2613,2613 7412,2613 7412,7412 2613,7412 2613,2613 "/>
       <polygon id="_135" class="fil55" points="2598,2598 7427,2598 7427,7427 2598,7427 2598,2598 2627,2627 7397,2627 7397,7398 2627,7398 2627,2627 "/>
       <polygon id="_136" class="fil55" points="2613,2613 7412,2613 7412,7412 2613,7412 2613,2613 2642,2642 7383,2642 7383,7383 2642,7383 2642,2642 "/>
       <polygon id="_137" class="fil55" points="2627,2627 7397,2627 7397,7398 2627,7398 2627,2627 2656,2657 7368,2657 7368,7369 2656,7369 2656,2657 "/>
       <polygon id="_138" class="fil55" points="2642,2642 7383,2642 7383,7383 2642,7383 2642,2642 2671,2671 7354,2671 7354,7354 2671,7354 2671,2671 "/>
       <polygon id="_139" class="fil55" points="2656,2657 7368,2657 7368,7369 2656,7369 2656,2657 2686,2686 7339,2686 7339,7339 2686,7339 2686,2686 "/>
       <polygon id="_140" class="fil55" points="2671,2671 7354,2671 7354,7354 2671,7354 2671,2671 2700,2700 7324,2700 7324,7324 2700,7324 2700,2700 "/>
       <polygon id="_141" class="fil55" points="2686,2686 7339,2686 7339,7339 2686,7339 2686,2686 2715,2715 7310,2715 7310,7310 2715,7310 2715,2715 "/>
       <polygon id="_142" class="fil55" points="2700,2700 7324,2700 7324,7324 2700,7324 2700,2700 2730,2730 7295,2730 7295,7296 2730,7296 2730,2730 "/>
       <polygon id="_143" class="fil55" points="2715,2715 7310,2715 7310,7310 2715,7310 2715,2715 2744,2744 7280,2744 7280,7281 2744,7281 2744,2744 "/>
       <polygon id="_144" class="fil55" points="2730,2730 7295,2730 7295,7296 2730,7296 2730,2730 2758,2759 7265,2759 7265,7266 2758,7266 2758,2759 "/>
       <polygon id="_145" class="fil55" points="2744,2744 7280,2744 7280,7281 2744,7281 2744,2744 2773,2774 7251,2774 7251,7251 2773,7251 2773,2774 "/>
       <polygon id="_146" class="fil55" points="2758,2759 7265,2759 7265,7266 2758,7266 2758,2759 2788,2789 7237,2789 7237,7237 2788,7237 2788,2789 "/>
       <polygon id="_147" class="fil55" points="2773,2774 7251,2774 7251,7251 2773,7251 2773,2774 2803,2803 7222,2803 7222,7222 2803,7222 2803,2803 "/>
       <polygon id="_148" class="fil55" points="2788,2789 7237,2789 7237,7237 2788,7237 2788,2789 2817,2817 7207,2817 7207,7207 2817,7207 2817,2817 "/>
       <polygon id="_149" class="fil55" points="2803,2803 7222,2803 7222,7222 2803,7222 2803,2803 2832,2832 7193,2832 7193,7193 2832,7193 2832,2832 "/>
       <polygon id="_150" class="fil55" points="2817,2817 7207,2817 7207,7207 2817,7207 2817,2817 2847,2847 7178,2847 7178,7178 2847,7178 2847,2847 "/>
       <polygon id="_151" class="fil55" points="2832,2832 7193,2832 7193,7193 2832,7193 2832,2832 2861,2862 7163,2862 7163,7164 2861,7164 2861,2862 "/>
       <polygon id="_152" class="fil55" points="2847,2847 7178,2847 7178,7178 2847,7178 2847,2847 2876,2876 7149,2876 7149,7149 2876,7149 2876,2876 "/>
       <polygon id="_153" class="fil55" points="2861,2862 7163,2862 7163,7164 2861,7164 2861,2862 2890,2891 7134,2891 7134,7134 2890,7134 2890,2891 "/>
       <polygon id="_154" class="fil55" points="2876,2876 7149,2876 7149,7149 2876,7149 2876,2876 2905,2905 7120,2905 7120,7120 2905,7120 2905,2905 "/>
       <polygon id="_155" class="fil55" points="2890,2891 7134,2891 7134,7134 2890,7134 2890,2891 2920,2920 7105,2920 7105,7105 2920,7105 2920,2920 "/>
       <polygon id="_156" class="fil55" points="2905,2905 7120,2905 7120,7120 2905,7120 2905,2905 2935,2935 7090,2935 7090,7091 2935,7091 2935,2935 "/>
       <polygon id="_157" class="fil55" points="2920,2920 7105,2920 7105,7105 2920,7105 2920,2920 2949,2949 7075,2949 7075,7076 2949,7076 2949,2949 "/>
       <polygon id="_158" class="fil55" points="2935,2935 7090,2935 7090,7091 2935,7091 2935,2935 2964,2964 7061,2964 7061,7061 2964,7061 2964,2964 "/>
       <polygon id="_159" class="fil55" points="2949,2949 7075,2949 7075,7076 2949,7076 2949,2949 2978,2979 7047,2979 7047,7047 2978,7047 2978,2979 "/>
       <polygon id="_160" class="fil55" points="2963,2964 7061,2964 7061,7061 2963,7061 2963,2964 2993,2993 7032,2993 7032,7032 2993,7032 2993,2993 "/>
       <polygon id="_161" class="fil55" points="2978,2979 7047,2979 7047,7047 2978,7047 2978,2979 3008,3008 7017,3008 7017,7017 3008,7017 3008,3008 "/>
       <polygon id="_162" class="fil55" points="2993,2993 7032,2993 7032,7032 2993,7032 2993,2993 3022,3022 7002,3022 7002,7002 3022,7002 3022,3022 "/>
       <polygon id="_163" class="fil55" points="3008,3008 7017,3008 7017,7017 3008,7017 3008,3008 3037,3037 6988,3037 6988,6988 3037,6988 3037,3037 "/>
       <polygon id="_164" class="fil55" points="3022,3022 7002,3022 7002,7002 3022,7002 3022,3022 3052,3052 6973,3052 6973,6974 3052,6974 3052,3052 "/>
       <polygon id="_165" class="fil55" points="3037,3037 6988,3037 6988,6988 3037,6988 3037,3037 3066,3066 6958,3066 6958,6959 3066,6959 3066,3066 "/>
       <polygon id="_166" class="fil55" points="3052,3052 6973,3052 6973,6974 3052,6974 3052,3052 3080,3081 6944,3081 6944,6944 3080,6944 3080,3081 "/>
       <polygon id="_167" class="fil55" points="3066,3066 6958,3066 6958,6959 3066,6959 3066,3066 3095,3096 6929,3096 6929,6929 3095,6929 3095,3096 "/>
       <polygon id="_168" class="fil55" points="3080,3081 6944,3081 6944,6944 3080,6944 3080,3081 3110,3111 6915,3111 6915,6915 3110,6915 3110,3111 "/>
       <polygon id="_169" class="fil55" points="3095,3096 6929,3096 6929,6929 3095,6929 3095,3096 3125,3125 6900,3125 6900,6900 3125,6900 3125,3125 "/>
       <polygon id="_170" class="fil55" points="3110,3111 6915,3111 6915,6915 3110,6915 3110,3111 3139,3139 6885,3139 6885,6886 3139,6886 3139,3139 "/>
       <polygon id="_171" class="fil55" points="3125,3125 6900,3125 6900,6900 3125,6900 3125,3125 3154,3154 6871,3154 6871,6871 3154,6871 3154,3154 "/>
       <polygon id="_172" class="fil55" points="3139,3139 6885,3139 6885,6886 3139,6886 3139,3139 3169,3169 6856,3169 6856,6856 3169,6856 3169,3169 "/>
       <polygon id="_173" class="fil55" points="3154,3154 6871,3154 6871,6871 3154,6871 3154,3154 3183,3184 6842,3184 6842,6842 3183,6842 3183,3184 "/>
       <polygon id="_174" class="fil55" points="3169,3169 6856,3169 6856,6856 3169,6856 3169,3169 3198,3198 6827,3198 6827,6827 3198,6827 3198,3198 "/>
       <polygon id="_175" class="fil55" points="3183,3184 6842,3184 6842,6842 3183,6842 3183,3184 3212,3213 6812,3213 6812,6812 3212,6812 3212,3213 "/>
       <polygon id="_176" class="fil55" points="3198,3198 6827,3198 6827,6827 3198,6827 3198,3198 3227,3227 6798,3227 6798,6798 3227,6798 3227,3227 "/>
       <polygon id="_177" class="fil55" points="3212,3213 6812,3213 6812,6812 3212,6812 3212,3213 3242,3242 6783,3242 6783,6783 3242,6783 3242,3242 "/>
       <polygon id="_178" class="fil55" points="3227,3227 6798,3227 6798,6798 3227,6798 3227,3227 3257,3257 6768,3257 6768,6769 3257,6769 3257,3257 "/>
       <polygon id="_179" class="fil55" points="3242,3242 6783,3242 6783,6783 3242,6783 3242,3242 3271,3271 6753,3271 6753,6754 3271,6754 3271,3271 "/>
       <polygon id="_180" class="fil55" points="3257,3257 6768,3257 6768,6769 3257,6769 3257,3257 3285,3286 6739,3286 6739,6739 3285,6739 3285,3286 "/>
       <polygon id="_181" class="fil55" points="3271,3271 6753,3271 6753,6754 3271,6754 3271,3271 3300,3301 6725,3301 6725,6725 3300,6725 3300,3301 "/>
       <polygon id="_182" class="fil55" points="3285,3286 6739,3286 6739,6739 3285,6739 3285,3286 3315,3315 6710,3315 6710,6710 3315,6710 3315,3315 "/>
       <polygon id="_183" class="fil55" points="3300,3301 6725,3301 6725,6725 3300,6725 3300,3301 3329,3329 6695,3329 6695,6695 3329,6695 3329,3329 "/>
       <polygon id="_184" class="fil55" points="3315,3315 6710,3315 6710,6710 3315,6710 3315,3315 3344,3344 6680,3344 6680,6680 3344,6680 3344,3344 "/>
       <polygon id="_185" class="fil55" points="3329,3329 6695,3329 6695,6695 3329,6695 3329,3329 3359,3359 6666,3359 6666,6666 3359,6666 3359,3359 "/>
       <polygon id="_186" class="fil55" points="3344,3344 6680,3344 6680,6680 3344,6680 3344,3344 3374,3374 6651,3374 6651,6652 3374,6652 3374,3374 "/>
       <polygon id="_187" class="fil55" points="3359,3359 6666,3359 6666,6666 3359,6666 3359,3359 3388,3388 6636,3388 6636,6637 3388,6637 3388,3388 "/>
       <polygon id="_188" class="fil55" points="3374,3374 6651,3374 6651,6652 3374,6652 3374,3374 3402,3403 6622,3403 6622,6622 3402,6622 3402,3403 "/>
       <polygon id="_189" class="fil55" points="3388,3388 6636,3388 6636,6637 3388,6637 3388,3388 3417,3418 6607,3418 6607,6607 3417,6607 3417,3418 "/>
       <polygon id="_190" class="fil55" points="3402,3403 6622,3403 6622,6622 3402,6622 3402,3403 3432,3432 6593,3432 6593,6593 3432,6593 3432,3432 "/>
       <polygon id="_191" class="fil55" points="3417,3418 6607,3418 6607,6607 3417,6607 3417,3418 3447,3447 6578,3447 6578,6578 3447,6578 3447,3447 "/>
       <polygon id="_192" class="fil55" points="3432,3432 6593,3432 6593,6593 3432,6593 3432,3432 3461,3461 6563,3461 6563,6564 3461,6564 3461,3461 "/>
       <polygon id="_193" class="fil55" points="3447,3447 6578,3447 6578,6578 3447,6578 3447,3447 3476,3476 6549,3476 6549,6549 3476,6549 3476,3476 "/>
       <polygon id="_194" class="fil55" points="3461,3461 6563,3461 6563,6564 3461,6564 3461,3461 3490,3491 6534,3491 6534,6535 3490,6535 3490,3491 "/>
       <polygon id="_195" class="fil55" points="3476,3476 6549,3476 6549,6549 3476,6549 3476,3476 3505,3506 6520,3506 6520,6520 3505,6520 3505,3506 "/>
       <polygon id="_196" class="fil55" points="3490,3491 6534,3491 6534,6535 3490,6535 3490,3491 3520,3520 6505,3520 6505,6505 3520,6505 3520,3520 "/>
       <polygon id="_197" class="fil55" points="3505,3506 6520,3506 6520,6520 3505,6520 3505,3506 3534,3534 6490,3534 6490,6490 3534,6490 3534,3534 "/>
       <polygon id="_198" class="fil55" points="3520,3520 6505,3520 6505,6505 3520,6505 3520,3520 3549,3549 6476,3549 6476,6476 3549,6476 3549,3549 "/>
       <polygon id="_199" class="fil55" points="3534,3534 6490,3534 6490,6490 3534,6490 3534,3534 3564,3564 6461,3564 6461,6462 3564,6462 3564,3564 "/>
       <polygon id="_200" class="fil55" points="3549,3549 6476,3549 6476,6476 3549,6476 3549,3549 3578,3578 6446,3578 6446,6447 3578,6447 3578,3578 "/>
       <polygon id="_201" class="fil55" points="3564,3564 6461,3564 6461,6462 3564,6462 3564,3564 3593,3593 6431,3593 6431,6432 3593,6432 3593,3593 "/>
       <polygon id="_202" class="fil55" points="3578,3578 6446,3578 6446,6447 3578,6447 3578,3578 3607,3608 6417,3608 6417,6417 3607,6417 3607,3608 "/>
       <polygon id="_203" class="fil55" points="3593,3593 6431,3593 6431,6432 3593,6432 3593,3593 3622,3623 6403,3623 6403,6403 3622,6403 3622,3623 "/>
       <polygon id="_204" class="fil55" points="3607,3608 6417,3608 6417,6417 3607,6417 3607,3608 3637,3637 6388,3637 6388,6388 3637,6388 3637,3637 "/>
       <polygon id="_205" class="fil55" points="3622,3623 6403,3623 6403,6403 3622,6403 3622,3623 3651,3651 6373,3651 6373,6373 3651,6373 3651,3651 "/>
       <polygon id="_206" class="fil55" points="3637,3637 6388,3637 6388,6388 3637,6388 3637,3637 3666,3666 6358,3666 6358,6359 3666,6359 3666,3666 "/>
       <polygon id="_207" class="fil55" points="3651,3651 6373,3651 6373,6373 3651,6373 3651,3651 3681,3681 6344,3681 6344,6344 3681,6344 3681,3681 "/>
       <polygon id="_208" class="fil55" points="3666,3666 6358,3666 6358,6359 3666,6359 3666,3666 3696,3696 6329,3696 6329,6330 3696,6330 3696,3696 "/>
       <polygon id="_209" class="fil55" points="3681,3681 6344,3681 6344,6344 3681,6344 3681,3681 3710,3710 6315,3710 6315,6315 3710,6315 3710,3710 "/>
       <polygon id="_210" class="fil55" points="3696,3696 6329,3696 6329,6330 3696,6330 3696,3696 3724,3725 6300,3725 6300,6300 3724,6300 3724,3725 "/>
       <polygon id="_211" class="fil55" points="3710,3710 6315,3710 6315,6315 3710,6315 3710,3710 3739,3740 6286,3740 6286,6286 3739,6286 3739,3740 "/>
       <polygon id="_212" class="fil55" points="3724,3725 6300,3725 6300,6300 3724,6300 3724,3725 3754,3754 6271,3754 6271,6271 3754,6271 3754,3754 "/>
       <polygon id="_213" class="fil55" points="3739,3740 6286,3740 6286,6286 3739,6286 3739,3740 3769,3769 6256,3769 6256,6257 3769,6257 3769,3769 "/>
       <polygon id="_214" class="fil55" points="3754,3754 6271,3754 6271,6271 3754,6271 3754,3754 3783,3783 6241,3783 6241,6242 3783,6242 3783,3783 "/>
       <polygon id="_215" class="fil55" points="3769,3769 6256,3769 6256,6257 3769,6257 3769,3769 3798,3798 6227,3798 6227,6227 3798,6227 3798,3798 "/>
       <polygon id="_216" class="fil55" points="3783,3783 6241,3783 6241,6242 3783,6242 3783,3783 3812,3813 6213,3813 6213,6213 3812,6213 3812,3813 "/>
       <polygon id="_217" class="fil55" points="3798,3798 6227,3798 6227,6227 3798,6227 3798,3798 3827,3828 6198,3828 6198,6198 3827,6198 3827,3828 "/>
       <polygon id="_218" class="fil55" points="3812,3813 6213,3813 6213,6213 3812,6213 3812,3813 3842,3842 6183,3842 6183,6183 3842,6183 3842,3842 "/>
       <polygon id="_219" class="fil55" points="3827,3828 6198,3828 6198,6198 3827,6198 3827,3828 3856,3856 6168,3856 6168,6168 3856,6168 3856,3856 "/>
       <polygon id="_220" class="fil55" points="3842,3842 6183,3842 6183,6183 3842,6183 3842,3842 3871,3871 6154,3871 6154,6154 3871,6154 3871,3871 "/>
       <polygon id="_221" class="fil55" points="3856,3856 6168,3856 6168,6168 3856,6168 3856,3856 3886,3886 6139,3886 6139,6140 3886,6140 3886,3886 "/>
       <polygon id="_222" class="fil55" points="3871,3871 6154,3871 6154,6154 3871,6154 3871,3871 3900,3900 6124,3900 6124,6125 3900,6125 3900,3900 "/>
       <polygon id="_223" class="fil55" points="3886,3886 6139,3886 6139,6140 3886,6140 3886,3886 3915,3915 6109,3915 6109,6110 3915,6110 3915,3915 "/>
       <polygon id="_224" class="fil55" points="3900,3900 6124,3900 6124,6125 3900,6125 3900,3900 3929,3930 6095,3930 6095,6095 3929,6095 3929,3930 "/>
       <polygon id="_225" class="fil55" points="3915,3915 6109,3915 6109,6110 3915,6110 3915,3915 3944,3945 6081,3945 6081,6081 3944,6081 3944,3945 "/>
       <polygon id="_226" class="fil55" points="3929,3930 6095,3930 6095,6095 3929,6095 3929,3930 3959,3959 6066,3959 6066,6066 3959,6066 3959,3959 "/>
       <polygon id="_227" class="fil55" points="3944,3945 6081,3945 6081,6081 3944,6081 3944,3945 3973,3973 6051,3973 6051,6051 3973,6051 3973,3973 "/>
       <polygon id="_228" class="fil55" points="3959,3959 6066,3959 6066,6066 3959,6066 3959,3959 3988,3988 6036,3988 6036,6037 3988,6037 3988,3988 "/>
       <polygon id="_229" class="fil55" points="3973,3973 6051,3973 6051,6051 3973,6051 3973,3973 4003,4003 6022,4003 6022,6022 4003,6022 4003,4003 "/>
       <polygon id="_230" class="fil55" points="3988,3988 6036,3988 6036,6037 3988,6037 3988,3988 4017,4018 6007,4018 6007,6008 4017,6008 4017,4018 "/>
       <polygon id="_231" class="fil55" points="4003,4003 6022,4003 6022,6022 4003,6022 4003,4003 4032,4032 5993,4032 5993,5993 4032,5993 4032,4032 "/>
       <polygon id="_232" class="fil55" points="4017,4018 6007,4018 6007,6008 4017,6008 4017,4018 4046,4047 5978,4047 5978,5978 4046,5978 4046,4047 "/>
       <polygon id="_233" class="fil55" points="4032,4032 5993,4032 5993,5993 4032,5993 4032,4032 4061,4061 5964,4061 5964,5964 4061,5964 4061,4061 "/>
       <polygon id="_234" class="fil55" points="4046,4047 5978,4047 5978,5978 4046,5978 4046,4047 4076,4076 5949,4076 5949,5949 4076,5949 4076,4076 "/>
       <polygon id="_235" class="fil55" points="4061,4061 5964,4061 5964,5964 4061,5964 4061,4061 4091,4091 5934,4091 5934,5935 4091,5935 4091,4091 "/>
       <polygon id="_236" class="fil55" points="4076,4076 5949,4076 5949,5949 4076,5949 4076,4076 4105,4105 5919,4105 5919,5920 4105,5920 4105,4105 "/>
       <polygon id="_237" class="fil55" points="4091,4091 5934,4091 5934,5935 4091,5935 4091,4091 4119,4120 5905,4120 5905,5905 4119,5905 4119,4120 "/>
       <polygon id="_238" class="fil55" points="4105,4105 5919,4105 5919,5920 4105,5920 4105,4105 4134,4135 5891,4135 5891,5891 4134,5891 4134,4135 "/>
       <polygon id="_239" class="fil55" points="4119,4120 5905,4120 5905,5905 4119,5905 4119,4120 4149,4149 5876,4149 5876,5876 4149,5876 4149,4149 "/>
       <polygon id="_240" class="fil55" points="4134,4135 5891,4135 5891,5891 4134,5891 4134,4135 4164,4164 5861,4164 5861,5861 4164,5861 4164,4164 "/>
       <polygon id="_241" class="fil55" points="4149,4149 5876,4149 5876,5876 4149,5876 4149,4149 4178,4178 5846,4178 5846,5846 4178,5846 4178,4178 "/>
       <polygon id="_242" class="fil55" points="4164,4164 5861,4164 5861,5861 4164,5861 4164,4164 4193,4193 5832,4193 5832,5832 4193,5832 4193,4193 "/>
       <polygon id="_243" class="fil55" points="4178,4178 5846,4178 5846,5846 4178,5846 4178,4178 4208,4208 5817,4208 5817,5818 4208,5818 4208,4208 "/>
       <polygon id="_244" class="fil55" points="4193,4193 5832,4193 5832,5832 4193,5832 4193,4193 4222,4222 5802,4222 5802,5803 4222,5803 4222,4222 "/>
       <polygon id="_245" class="fil55" points="4208,4208 5817,4208 5817,5818 4208,5818 4208,4208 4237,4237 5788,4237 5788,5788 4237,5788 4237,4237 "/>
       <polygon id="_246" class="fil55" points="4222,4222 5802,4222 5802,5803 4222,5803 4222,4222 4251,4252 5773,4252 5773,5773 4251,5773 4251,4252 "/>
       <polygon id="_247" class="fil55" points="4237,4237 5788,4237 5788,5788 4237,5788 4237,4237 4266,4266 5759,4266 5759,5759 4266,5759 4266,4266 "/>
       <polygon id="_248" class="fil55" points="4251,4252 5773,4252 5773,5773 4251,5773 4251,4252 4281,4281 5744,4281 5744,5744 4281,5744 4281,4281 "/>
       <polygon id="_249" class="fil55" points="4266,4266 5759,4266 5759,5759 4266,5759 4266,4266 4295,4295 5729,4295 5729,5730 4295,5730 4295,4295 "/>
       <polygon id="_250" class="fil55" points="4281,4281 5744,4281 5744,5744 4281,5744 4281,4281 4310,4310 5715,4310 5715,5715 4310,5715 4310,4310 "/>
       <polygon id="_251" class="fil55" points="4295,4295 5729,4295 5729,5730 4295,5730 4295,4295 4325,4325 5700,4325 5700,5700 4325,5700 4325,4325 "/>
       <polygon id="_252" class="fil55" points="4310,4310 5715,4310 5715,5715 4310,5715 4310,4310 4339,4340 5686,4340 5686,5686 4339,5686 4339,4340 "/>
       <polygon id="_253" class="fil55" points="4325,4325 5700,4325 5700,5700 4325,5700 4325,4325 4354,4354 5671,4354 5671,5671 4354,5671 4354,4354 "/>
       <polygon id="_254" class="fil55" points="4339,4340 5686,4340 5686,5686 4339,5686 4339,4340 4368,4369 5656,4369 5656,5656 4368,5656 4368,4369 "/>
       <polygon id="_255" class="fil55" points="4354,4354 5671,4354 5671,5671 4354,5671 4354,4354 4383,4383 5642,4383 5642,5642 4383,5642 4383,4383 "/>
       <polygon id="_256" class="fil55" points="4368,4369 5656,4369 5656,5656 4368,5656 4368,4369 4398,4398 5627,4398 5627,5627 4398,5627 4398,4398 "/>
       <polygon id="_257" class="fil55" points="4383,4383 5642,4383 5642,5642 4383,5642 4383,4383 4413,4413 5612,4413 5612,5613 4413,5613 4413,4413 "/>
       <polygon id="_258" class="fil55" points="4398,4398 5627,4398 5627,5627 4398,5627 4398,4398 4427,4427 5597,4427 5597,5598 4427,5598 4427,4427 "/>
       <polygon id="_259" class="fil55" points="4413,4413 5612,4413 5612,5613 4413,5613 4413,4413 4441,4442 5583,4442 5583,5583 4441,5583 4441,4442 "/>
       <polygon id="_260" class="fil55" points="4427,4427 5597,4427 5597,5598 4427,5598 4427,4427 4456,4457 5569,4457 5569,5569 4456,5569 4456,4457 "/>
       <polygon id="_261" class="fil55" points="4441,4442 5583,4442 5583,5583 4441,5583 4441,4442 4471,4471 5554,4471 5554,5554 4471,5554 4471,4471 "/>
       <polygon id="_262" class="fil55" points="4456,4457 5569,4457 5569,5569 4456,5569 4456,4457 4486,4486 5539,4486 5539,5539 4486,5539 4486,4486 "/>
       <polygon id="_263" class="fil55" points="4471,4471 5554,4471 5554,5554 4471,5554 4471,4471 4500,4500 5524,4500 5524,5524 4500,5524 4500,4500 "/>
       <polygon id="_264" class="fil55" points="4486,4486 5539,4486 5539,5539 4486,5539 4486,4486 4515,4515 5510,4515 5510,5510 4515,5510 4515,4515 "/>
       <polygon id="_265" class="fil55" points="4500,4500 5524,4500 5524,5524 4500,5524 4500,4500 4530,4530 5495,4530 5495,5496 4530,5496 4530,4530 "/>
       <polygon id="_266" class="fil55" points="4515,4515 5510,4515 5510,5510 4515,5510 4515,4515 4544,4544 5480,4544 5480,5481 4544,5481 4544,4544 "/>
       <polygon id="_267" class="fil55" points="4530,4530 5495,4530 5495,5496 4530,5496 4530,4530 4558,4559 5466,4559 5466,5466 4558,5466 4558,4559 "/>
       <polygon id="_268" class="fil55" points="4544,4544 5480,4544 5480,5481 4544,5481 4544,4544 4573,4574 5451,4574 5451,5451 4573,5451 4573,4574 "/>
       <polygon id="_269" class="fil55" points="4558,4559 5466,4559 5466,5466 4558,5466 4558,4559 4588,4588 5437,4588 5437,5437 4588,5437 4588,4588 "/>
       <polygon id="_270" class="fil55" points="4573,4574 5451,4574 5451,5451 4573,5451 4573,4574 4603,4603 5422,4603 5422,5422 4603,5422 4603,4603 "/>
       <polygon id="_271" class="fil55" points="4588,4588 5437,4588 5437,5437 4588,5437 4588,4588 4617,4617 5407,4617 5407,5408 4617,5408 4617,4617 "/>
       <polygon id="_272" class="fil55" points="4603,4603 5422,4603 5422,5422 4603,5422 4603,4603 4632,4632 5393,4632 5393,5393 4632,5393 4632,4632 "/>
       <polygon id="_273" class="fil55" points="4617,4617 5407,4617 5407,5408 4617,5408 4617,4617 4646,4647 5378,4647 5378,5378 4646,5378 4646,4647 "/>
       <polygon id="_274" class="fil55" points="4632,4632 5393,4632 5393,5393 4632,5393 4632,4632 4661,4662 5364,4662 5364,5364 4661,5364 4661,4662 "/>
       <polygon id="_275" class="fil55" points="4646,4647 5378,4647 5378,5378 4646,5378 4646,4647 4676,4676 5349,4676 5349,5349 4676,5349 4676,4676 "/>
       <polygon id="_276" class="fil55" points="4661,4662 5364,4662 5364,5364 4661,5364 4661,4662 4690,4690 5334,4690 5334,5334 4690,5334 4690,4690 "/>
       <polygon id="_277" class="fil55" points="4676,4676 5349,4676 5349,5349 4676,5349 4676,4676 4705,4705 5320,4705 5320,5320 4705,5320 4705,4705 "/>
       <polygon id="_278" class="fil55" points="4690,4690 5334,4690 5334,5334 4690,5334 4690,4690 4720,4720 5305,4720 5305,5306 4720,5306 4720,4720 "/>
       <polygon id="_279" class="fil55" points="4705,4705 5320,4705 5320,5320 4705,5320 4705,4705 4735,4735 5290,4735 5290,5291 4735,5291 4735,4735 "/>
       <polygon id="_280" class="fil55" points="4720,4720 5305,4720 5305,5306 4720,5306 4720,4720 4749,4749 5275,4749 5275,5276 4749,5276 4749,4749 "/>
       <polygon id="_281" class="fil55" points="4735,4735 5290,4735 5290,5291 4735,5291 4735,4735 4763,4764 5261,4764 5261,5261 4763,5261 4763,4764 "/>
       <polygon id="_282" class="fil55" points="4749,4749 5275,4749 5275,5276 4749,5276 4749,4749 4778,4779 5247,4779 5247,5247 4778,5247 4778,4779 "/>
       <polygon id="_283" class="fil55" points="4763,4764 5261,4764 5261,5261 4763,5261 4763,4764 4793,4793 5232,4793 5232,5232 4793,5232 4793,4793 "/>
       <polygon id="_284" class="fil55" points="4778,4779 5247,4779 5247,5247 4778,5247 4778,4779 4807,4807 5217,4807 5217,5217 4807,5217 4807,4807 "/>
       <polygon id="_285" class="fil55" points="4793,4793 5232,4793 5232,5232 4793,5232 4793,4793 4822,4822 5202,4822 5202,5203 4822,5203 4822,4822 "/>
       <polygon id="_286" class="fil55" points="4807,4807 5217,4807 5217,5217 4807,5217 4807,4807 4837,4837 5188,4837 5188,5188 4837,5188 4837,4837 "/>
       <polygon id="_287" class="fil55" points="4822,4822 5202,4822 5202,5203 4822,5203 4822,4822 4852,4852 5173,4852 5173,5174 4852,5174 4852,4852 "/>
       <polygon id="_288" class="fil55" points="4837,4837 5188,4837 5188,5188 4837,5188 4837,4837 4866,4866 5159,4866 5159,5159 4866,5159 4866,4866 "/>
       <polygon id="_289" class="fil55" points="4851,4852 5173,4852 5173,5174 4851,5174 4851,4852 4880,4881 5144,4881 5144,5144 4880,5144 4880,4881 "/>
       <polygon id="_290" class="fil55" points="4866,4866 5159,4866 5159,5159 4866,5159 4866,4866 4895,4895 5129,4895 5129,5129 4895,5129 4895,4895 "/>
       <polygon id="_291" class="fil55" points="4880,4881 5144,4881 5144,5144 4880,5144 4880,4881 4910,4910 5115,4910 5115,5115 4910,5115 4910,4910 "/>
       <polygon id="_292" class="fil55" points="4895,4895 5129,4895 5129,5129 4895,5129 4895,4895 4925,4925 5100,4925 5100,5101 4925,5101 4925,4925 "/>
       <polygon id="_293" class="fil55" points="4910,4910 5115,4910 5115,5115 4910,5115 4910,4910 4939,4939 5085,4939 5085,5086 4939,5086 4939,4939 "/>
       <polygon id="_294" class="fil55" points="4925,4925 5100,4925 5100,5101 4925,5101 4925,4925 4954,4954 5071,4954 5071,5071 4954,5071 4954,4954 "/>
       <polygon id="_295" class="fil55" points="4939,4939 5085,4939 5085,5086 4939,5086 4939,4939 4968,4969 5057,4969 5057,5057 4968,5057 4968,4969 "/>
       <polygon id="_296" class="fil55" points="4954,4954 5071,4954 5071,5071 4954,5071 4954,4954 4983,4984 5042,4984 5042,5042 4983,5042 4983,4984 "/>
       <polygon id="_297" class="fil55" points="4968,4969 5057,4969 5057,5057 4968,5057 4968,4969 4998,4998 5027,4998 5027,5027 4998,5027 4998,4998 "/>
       <polygon id="_298" class="fil55" points="4983,4984 5042,4984 5042,5042 4983,5042 4983,4984 5012,5012 5012,5012 5012,5012 5012,5012 5012,5012 "/>
       <polygon id="_299" class="fil55" points="4998,4998 5027,4998 5027,5027 4998,5027 "/>
      </g>
     </g>
     <path class="fil56" d="M1583 9403l6859 0c528,0 961,-432 961,-961l0 -6859c0,-528 -432,-961 -961,-961l-6859 0c-528,0 -961,432 -961,961l0 6859c0,528 432,961 961,961z"/>
    </g>
   </g>
  </g>
  <g id="_122781648">
   <polygon class="fil57" points="3605,4509 7795,4509 6436,5744 2177,5744 "/>
   <polygon class="fil58" points="3605,4505 7800,4505 8244,3482 4258,3482 "/>
   <polygon class="fil59" points="2251,8534 6431,8534 6431,5738 2251,5738 "/>
   <polygon class="fil60" points="1503,6723 6005,6723 6438,5740 2170,5745 "/>
   <polygon class="fil61" points="6432,5745 7835,4601 7849,7264 6432,8531 "/>
   <polygon class="fil62" points="6984,6505 8431,4966 7798,4509 6434,5746 "/>
  </g>
  <path class="fil63" d="M6562 3511l-809 249c4,-519 -12,-1478 -301,-1808 -1090,-1247 -3611,235 -3362,225 171,-7 1680,477 2343,1990l-790 243 1861 1014 1058 -1914z"/>
 </g>
 <g id="">
  <metadata id="CorelCorpID_1Corel-Layer"/>
 </g>
</svg>
