<?xml version="1.0" encoding="UTF-8"?>
<!DOCTYPE svg PUBLIC "-//W3C//DTD SVG 1.1//EN" "http://www.w3.org/Graphics/SVG/1.1/DTD/svg11.dtd">
<!-- Creator: CorelDRAW X6 -->
<svg xmlns="http://www.w3.org/2000/svg" xml:space="preserve" width="150px" height="150px" version="1.1" style="shape-rendering:geometricPrecision; text-rendering:geometricPrecision; image-rendering:optimizeQuality; fill-rule:evenodd; clip-rule:evenodd"
viewBox="0 0 15000 15000"
 xmlns:xlink="http://www.w3.org/1999/xlink">
 <defs>
  <style type="text/css">
   <![CDATA[
    .str0 {stroke:#FF002F;stroke-width:165.1}
    .fil11 {fill:none}
    .fil8 {fill:#BDBFC1}
    .fil10 {fill:#FF002F}
    .fil3 {fill:url(#id0)}
    .fil7 {fill:url(#id1)}
    .fil1 {fill:url(#id2)}
    .fil9 {fill:url(#id3)}
    .fil4 {fill:url(#id4)}
    .fil2 {fill:url(#id5)}
    .fil5 {fill:url(#id6)}
    .fil6 {fill:url(#id7)}
    .fil0 {fill:url(#id8)}
   ]]>
  </style>
  <linearGradient id="id0" gradientUnits="userSpaceOnUse" x1="7512.36" y1="10823.1" x2="12287" y2="10823.1">
   <stop offset="0" style="stop-color:blue"/>
   <stop offset="1" style="stop-color:#000066"/>
  </linearGradient>
  <linearGradient id="id1" gradientUnits="userSpaceOnUse" x1="5273.6" y1="7507.1" x2="9555.84" y2="7507.1">
   <stop offset="0" style="stop-color:#F89E2F"/>
   <stop offset="1" style="stop-color:#BA721F"/>
  </linearGradient>
  <linearGradient id="id2" gradientUnits="userSpaceOnUse" x1="7522.94" y1="4365.97" x2="12297.6" y2="4365.97">
   <stop offset="0" style="stop-color:#FFCF27"/>
   <stop offset="1" style="stop-color:#FFEE15"/>
  </linearGradient>
  <linearGradient id="id3" gradientUnits="userSpaceOnUse" x1="11156.3" y1="13203.7" x2="11156.3" y2="10536.7">
   <stop offset="0" style="stop-color:#CCCCCC"/>
   <stop offset="1" style="stop-color:#E6E6E6"/>
  </linearGradient>
  <linearGradient id="id4" gradientUnits="userSpaceOnUse" x1="2745.89" y1="10821.8" x2="7520.55" y2="10821.8">
   <stop offset="0" style="stop-color:#009933"/>
   <stop offset="1" style="stop-color:#003333"/>
  </linearGradient>
  <linearGradient id="id5" gradientUnits="userSpaceOnUse" x1="2756.47" y1="4367.3" x2="7531.13" y2="4367.3">
   <stop offset="0" style="stop-color:#CCCCCC"/>
   <stop offset="1" style="stop-color:white"/>
  </linearGradient>
  <linearGradient id="id6" gradientUnits="userSpaceOnUse" x1="121.06" y1="7067.38" x2="5685.39" y2="7067.38">
   <stop offset="0" style="stop-color:#333333"/>
   <stop offset="1" style="stop-color:#666666"/>
  </linearGradient>
  <linearGradient id="id7" gradientUnits="userSpaceOnUse" x1="9369.63" y1="7066.06" x2="14934" y2="7066.06">
   <stop offset="0" style="stop-color:#C93A44"/>
   <stop offset="1" style="stop-color:#AF333F"/>
  </linearGradient>
  <radialGradient id="id8" gradientUnits="objectBoundingBox" cx="50%" cy="50%" r="50%" fx="50%" fy="50%">
   <stop offset="0" style="stop-color:#FAA032"/>
   <stop offset="0.74902" style="stop-color:#F29322"/>
   <stop offset="1" style="stop-color:#CE7F22"/>
  </radialGradient>
 </defs>
 <g id="Layer_x0020_1">
  <metadata id="CorelCorpID_0Corel-Layer"/>
  <path class="fil0" d="M2824 264l9430 0c1429,0 2587,1159 2587,2587l0 9430c0,1429 -1159,2587 -2587,2587l-9430 0c-1429,0 -2587,-1159 -2587,-2588l0 -9430c0,-1429 1159,-2587 2588,-2587z"/>
 </g>
 <g id="Слой_x0020_1">
  <metadata id="CorelCorpID_1Corel-Layer"/>
  <path class="fil1" d="M7523 2045l0 3515 1543 1127 3232 -1865c-891,-1533 -2536,-2752 -4775,-2777z"/>
  <path class="fil2" d="M7531 2046l0 3515 -1543 1127 -3232 -1865c891,-1533 2536,-2752 4775,-2777z"/>
  <path class="fil3" d="M7512 13144l0 -3515 1543 -1127 3232 1865c-891,1533 -2536,2752 -4775,2777z"/>
  <path class="fil4" d="M7521 13143l0 -3515 -1543 -1127 -3232 1865c891,1533 2536,2752 4775,2777z"/>
  <path class="fil5" d="M2747 10367l3032 -1751 215 -1924 -3238 -1868c-882,1539 -1108,3592 -10,5543z"/>
  <path class="fil6" d="M12286 10368l-3024 -1746 -201 -1931 3238 -1868c882,1539 1086,3594 -12,5546z"/>
  <circle class="fil7" cx="7415" cy="7507" r="2141"/>
  <g id="_125907608">
   <circle class="fil8" cx="11156" cy="11870" r="1736"/>
   <circle class="fil9" cx="11156" cy="11870" r="1334"/>
   <rect class="fil10" x="10986" y="10811" width="251" height="1240"/>
   <rect class="fil10" transform="matrix(3.52292E-014 1.18582 -1.14746 2.70918E-014 12229.3 11794.7)" width="212" height="1080"/>
   <line class="fil11 str0" x1="10742" y1="11027" x2="11171" y2= "10660" />
   <line class="fil11 str0" x1="11491" y1="11026" x2="11062" y2= "10660" />
   <line class="fil11 str0" x1="11982" y1="11549" x2="12348" y2= "11978" />
   <line class="fil11 str0" x1="11981" y1="12298" x2="12347" y2= "11869" />
  </g>
 </g>
</svg>
