<?xml version="1.0" encoding="UTF-8"?>
<!DOCTYPE svg PUBLIC "-//W3C//DTD SVG 1.1//EN" "http://www.w3.org/Graphics/SVG/1.1/DTD/svg11.dtd">
<!-- Creator: CorelDRAW X6 -->
<svg xmlns="http://www.w3.org/2000/svg" xml:space="preserve" width="150px" height="150px" version="1.1" style="shape-rendering:geometricPrecision; text-rendering:geometricPrecision; image-rendering:optimizeQuality; fill-rule:evenodd; clip-rule:evenodd"
viewBox="0 0 15000 15000"
 xmlns:xlink="http://www.w3.org/1999/xlink">
 <defs>
  <style type="text/css">
   <![CDATA[
    .fil9 {fill:#4D4D4D}
    .fil1 {fill:gray}
    .fil10 {fill:#D4C259}
    .fil5 {fill:#F99F30}
    .fil11 {fill:#FFFF99}
    .fil4 {fill:url(#id0)}
    .fil7 {fill:url(#id1)}
    .fil6 {fill:url(#id2)}
    .fil3 {fill:url(#id3)}
    .fil2 {fill:url(#id4)}
    .fil13 {fill:url(#id5)}
    .fil8 {fill:url(#id6)}
    .fil12 {fill:url(#id7)}
    .fil0 {fill:url(#id8)}
   ]]>
  </style>
  <linearGradient id="id0" gradientUnits="userSpaceOnUse" x1="3052.1" y1="6849.14" x2="12403.1" y2="6849.14">
   <stop offset="0" style="stop-color:#666666"/>
   <stop offset="1" style="stop-color:#999999"/>
  </linearGradient>
  <linearGradient id="id1" gradientUnits="userSpaceOnUse" x1="3663.12" y1="6412.85" x2="11772.6" y2="6412.85">
   <stop offset="0" style="stop-color:gray"/>
   <stop offset="0.509804" style="stop-color:#E6E6E6"/>
   <stop offset="1" style="stop-color:gray"/>
  </linearGradient>
  <linearGradient id="id2" gradientUnits="userSpaceOnUse" x1="3689.58" y1="6359.93" x2="11799.1" y2="6359.93">
   <stop offset="0" style="stop-color:#E6E6E6"/>
   <stop offset="0.509804" style="stop-color:white"/>
   <stop offset="1" style="stop-color:#E6E6E6"/>
  </linearGradient>
  <linearGradient id="id3" gradientUnits="userSpaceOnUse" x1="7933.69" y1="11730.7" x2="7933.69" y2="1967.56">
   <stop offset="0" style="stop-color:#B3B3B3"/>
   <stop offset="1" style="stop-color:#E6E6E6"/>
  </linearGradient>
  <linearGradient id="id4" gradientUnits="userSpaceOnUse" x1="7946.98" y1="13516.6" x2="7946.98" y2="11704.2">
   <stop offset="0" style="stop-color:#B3B3B3"/>
   <stop offset="0.329412" style="stop-color:#E6E6E6"/>
   <stop offset="1" style="stop-color:#B3B3B3"/>
  </linearGradient>
  <linearGradient id="id5" gradientUnits="userSpaceOnUse" x1="7268.03" y1="11138.4" x2="7268.03" y2="2639.23">
   <stop offset="0" style="stop-color:#999999"/>
   <stop offset="1" style="stop-color:#E6E6E6"/>
  </linearGradient>
  <linearGradient id="id6" gradientUnits="userSpaceOnUse" x1="8809.02" y1="10958.7" x2="8809.02" y2="2852.55">
   <stop offset="0" style="stop-color:#CCCCCC"/>
   <stop offset="1" style="stop-color:#999999"/>
  </linearGradient>
  <linearGradient id="id7" gradientUnits="userSpaceOnUse" x1="11938" y1="7518.44" x2="3451.46" y2="7518.44">
   <stop offset="0" style="stop-color:#E6E6E6"/>
   <stop offset="0.470588" style="stop-color:#CCCCCC"/>
   <stop offset="1" style="stop-color:#E6E6E6"/>
  </linearGradient>
  <radialGradient id="id8" gradientUnits="objectBoundingBox" cx="50%" cy="50%" r="50%" fx="50%" fy="50%">
   <stop offset="0" style="stop-color:#FAA032"/>
   <stop offset="0.74902" style="stop-color:#F29322"/>
   <stop offset="1" style="stop-color:#CE7F22"/>
  </radialGradient>
 </defs>
 <g id="Layer_x0020_1">
  <metadata id="CorelCorpID_0Corel-Layer"/>
  <path class="fil0" d="M2824 264l9430 0c1429,0 2587,1159 2587,2587l0 9430c0,1429 -1159,2587 -2587,2587l-9430 0c-1429,0 -2587,-1159 -2587,-2588l0 -9430c0,-1429 1159,-2587 2588,-2587z"/>
  <path class="fil1" d="M7960 13609c338,0 1865,-23 1839,-582 -13,-278 -816,-423 -1839,-423 -1023,0 -1859,126 -1859,403 0,596 1483,602 1859,602z"/>
  <path class="fil2" d="M7947 13517c1023,0 1852,-225 1852,-503 0,-188 -379,-351 -941,-438l-733 -859 -278 -13 -652 850c-648,78 -1101,255 -1101,460 0,278 829,503 1852,503z"/>
  <circle class="fil3" cx="7934" cy="6849" r="4882"/>
  <circle class="fil4" cx="7728" cy="6849" r="4676"/>
  <circle class="fil5" cx="7753" cy="6875" r="4225"/>
  <path class="fil6" d="M3954 7238l-265 -648c543,-1544 7098,-1508 8109,-79l-165 774c-749,-1448 -6865,-1675 -7680,-46z"/>
  <path class="fil7" d="M3928 7291l-246 -643c543,-1544 7079,-1513 8091,-84l-165 774c-749,-1448 -6865,-1675 -7680,-46z"/>
  <path class="fil8" d="M7736 3115l653 -263c1539,541 1503,7056 88,8099 -4,3 -11,4 -16,7l-772 -164c1448,-749 1675,-6865 46,-7680z"/>
  <rect class="fil9" x="7828" y="7100" width="450" height="3466" rx="225" ry="225"/>
  <g id="_124368096">
   <path class="fil10" d="M7867 7498c342,0 2901,4 2901,-617 0,-218 -1312,-407 -2908,-407 -1596,0 -2862,297 -2862,396 0,533 2509,628 2869,628z"/>
   <ellipse class="fil11" cx="7874" cy="6860" rx="2890" ry="421"/>
  </g>
  <rect class="fil9" x="7828" y="3277" width="450" height="3598" rx="225" ry="233"/>
  <path class="fil12" d="M3700 6565c-148,363 -140,936 195,1139 1602,971 6233,1113 7715,-47 337,-264 362,-797 189,-1148 -732,1602 -7267,1849 -8100,56z"/>
  <path class="fil13" d="M8520 2915c-191,-121 -389,-231 -637,-276 -1799,508 -1867,7438 -165,8487 319,13 546,-67 759,-174 -1602,-732 -1749,-7204 44,-8037z"/>
 </g>
</svg>
