<?xml version="1.0" encoding="UTF-8"?>
<!DOCTYPE svg PUBLIC "-//W3C//DTD SVG 1.1//EN" "http://www.w3.org/Graphics/SVG/1.1/DTD/svg11.dtd">
<!-- Creator: CorelDRAW X6 -->
<svg xmlns="http://www.w3.org/2000/svg" xml:space="preserve" width="150px" height="150px" version="1.1" style="shape-rendering:geometricPrecision; text-rendering:geometricPrecision; image-rendering:optimizeQuality; fill-rule:evenodd; clip-rule:evenodd"
viewBox="0 0 15000 15000"
 xmlns:xlink="http://www.w3.org/1999/xlink">
 <defs>
  <style type="text/css">
   <![CDATA[
    .str1 {stroke:black;stroke-width:10}
    .str0 {stroke:#B3B3B3;stroke-width:127}
    .fil8 {fill:none}
    .fil9 {fill:black}
    .fil1 {fill:#1A1A1A}
    .fil4 {fill:#666666}
    .fil3 {fill:url(#id0)}
    .fil6 {fill:url(#id1)}
    .fil5 {fill:url(#id2)}
    .fil2 {fill:url(#id3)}
    .fil7 {fill:url(#id4)}
    .fil0 {fill:url(#id5)}
   ]]>
  </style>
  <linearGradient id="id0" gradientUnits="objectBoundingBox" x1="50%" y1="100%" x2="50%" y2="0%">
   <stop offset="0" style="stop-color:#B3B3B3"/>
   <stop offset="1" style="stop-color:gray"/>
  </linearGradient>
  <linearGradient id="id1" gradientUnits="userSpaceOnUse" xlink:href="#id0" x1="7623.01" y1="6356.65" x2="7623.01" y2="5602.57">
  </linearGradient>
  <linearGradient id="id2" gradientUnits="userSpaceOnUse" x1="7397.98" y1="8203.76" x2="7397.98" y2="6351.68">
   <stop offset="0" style="stop-color:#B3B3B3"/>
   <stop offset="1" style="stop-color:#E6E6E6"/>
  </linearGradient>
  <linearGradient id="id3" gradientUnits="objectBoundingBox" xlink:href="#id2" x1="50%" y1="99.9997%" x2="50%" y2="0%">
  </linearGradient>
  <linearGradient id="id4" gradientUnits="userSpaceOnUse" x1="7531.9" y1="10836.8" x2="7531.9" y2="8828.59">
   <stop offset="0" style="stop-color:#D7CC75"/>
   <stop offset="0.929412" style="stop-color:#D7CC75"/>
   <stop offset="1" style="stop-color:#FFF8AF"/>
  </linearGradient>
  <radialGradient id="id5" gradientUnits="objectBoundingBox" cx="50%" cy="50%" r="50%" fx="50%" fy="50%">
   <stop offset="0" style="stop-color:#FAA032"/>
   <stop offset="0.74902" style="stop-color:#F29322"/>
   <stop offset="1" style="stop-color:#CE7F22"/>
  </radialGradient>
 </defs>
 <g id="Layer_x0020_1">
  <metadata id="CorelCorpID_0Corel-Layer"/>
  <path class="fil0" d="M2824 264l9430 0c1429,0 2587,1159 2587,2587l0 9430c0,1429 -1159,2587 -2587,2587l-9430 0c-1429,0 -2587,-1159 -2587,-2588l0 -9430c0,-1429 1159,-2587 2588,-2587z"/>
  <rect class="fil1" x="7300" y="4349" width="397" height="6985"/>
  <g id="_307817752">
   <polygon class="fil2" points="4393,2578 10188,2578 10188,4430 4393,4430 "/>
   <polygon class="fil3" points="4393,2580 10188,2580 10783,1826 4976,1826 "/>
   <polygon class="fil4" points="10187,4416 10795,3742 10777,1819 10181,2581 "/>
  </g>
  <g id="_307816720">
   <polygon class="fil2" points="4341,11296 10135,11296 10135,13148 4341,13148 "/>
   <polygon class="fil3" points="4341,11304 10135,11304 10730,10550 4923,10550 "/>
   <polygon class="fil4" points="10134,13148 10742,12473 10724,10551 10128,11312 "/>
  </g>
  <g id="_307815688">
   <polygon class="fil5" points="6163,6352 8633,6352 8633,8204 6163,8204 "/>
   <polygon class="fil6" points="6166,6357 8623,6357 9080,5603 6676,5603 "/>
   <polygon class="fil4" points="8631,8183 9080,7509 9071,5586 8628,6348 "/>
  </g>
  <rect class="fil7" x="6970" y="8741" width="1124" height="2183"/>
  <rect class="fil1" x="7300" y="4428" width="397" height="1679"/>
  <g id="_307813840">
   <path class="fil8 str0" d="M6483 4405c31,169 376,377 1068,416 749,42 1566,-308 315,-372 -372,-19 -828,110 -1124,182"/>
   <path class="fil8 str0" d="M7089 4546c-1209,241 -410,665 528,685 652,14 1064,-164 916,-267 -268,-187 -914,-97 -1422,-25 -164,23 -246,89 -366,118"/>
   <path class="fil8 str0" d="M7127 4939c-930,208 -979,685 429,746 761,33 1574,-335 315,-372 -372,-11 -828,110 -1124,182"/>
   <path class="fil8 str0" d="M7094 5410c-770,139 -726,364 -375,567 342,197 2172,103 1818,-149 -266,-190 -1494,-58 -1955,69"/>
  </g>
  <rect class="fil1" x="7300" y="4430" width="397" height="165"/>
  <polygon class="fil1" points="7300,4860 7697,4892 7697,4989 7300,4989 "/>
  <polygon class="fil1" points="7300,5272 7696,5297 7697,5478 7300,5500 "/>
  <polygon class="fil1" points="7300,5732 7698,5750 7697,5887 7300,5871 "/>
  <rect class="fil9 str1" x="4430" y="5298" width="370" height="3651" rx="185" ry="185"/>
  <path class="fil9 str1" d="M5354 8516l-22 -25c-49,-54 -134,-59 -188,-10l-524 473 -540 -488c-54,-49 -139,-45 -188,10l-22 25c-49,54 -45,139 10,188l618 558c54,49 171,69 230,15l618 -558c54,-49 59,-134 10,-188z"/>
 </g>
</svg>
