<?xml version="1.0" encoding="UTF-8"?>
<!DOCTYPE svg PUBLIC "-//W3C//DTD SVG 1.1//EN" "http://www.w3.org/Graphics/SVG/1.1/DTD/svg11.dtd">
<!-- Creator: CorelDRAW X6 -->
<svg xmlns="http://www.w3.org/2000/svg" xml:space="preserve" width="150px" height="150px" version="1.1" style="shape-rendering:geometricPrecision; text-rendering:geometricPrecision; image-rendering:optimizeQuality; fill-rule:evenodd; clip-rule:evenodd"
viewBox="0 0 15000 15000"
 xmlns:xlink="http://www.w3.org/1999/xlink">
 <defs>
  <style type="text/css">
   <![CDATA[
    .str1 {stroke:#E6E6E6;stroke-width:79.375}
    .str0 {stroke:#FF002F;stroke-width:165.1}
    .fil4 {fill:none}
    .fil1 {fill:#BDBFC1}
    .fil3 {fill:#FF002F}
    .fil7 {fill:white}
    .fil6 {fill:url(#id0)}
    .fil5 {fill:url(#id1)}
    .fil2 {fill:url(#id2)}
    .fil0 {fill:url(#id3)}
   ]]>
  </style>
  <linearGradient id="id0" gradientUnits="userSpaceOnUse" x1="11704.3" y1="7117.93" x2="13609.3" y2="7117.93">
   <stop offset="0" style="stop-color:gray"/>
   <stop offset="1" style="stop-color:#666666"/>
  </linearGradient>
  <linearGradient id="id1" gradientUnits="userSpaceOnUse" x1="6558.05" y1="9957.73" x2="6558.05" y2="4658.76">
   <stop offset="0" style="stop-color:#B3B3B3"/>
   <stop offset="1" style="stop-color:#E6E6E6"/>
  </linearGradient>
  <linearGradient id="id2" gradientUnits="userSpaceOnUse" x1="7507.27" y1="13361" x2="7507.27" y2="10434.3">
   <stop offset="0" style="stop-color:#CCCCCC"/>
   <stop offset="1" style="stop-color:#E6E6E6"/>
  </linearGradient>
  <radialGradient id="id3" gradientUnits="objectBoundingBox" cx="50%" cy="50%" r="50%" fx="50%" fy="50%">
   <stop offset="0" style="stop-color:#FAA032"/>
   <stop offset="0.74902" style="stop-color:#F29322"/>
   <stop offset="1" style="stop-color:#CE7F22"/>
  </radialGradient>
 </defs>
 <g id="Layer_x0020_1">
  <metadata id="CorelCorpID_0Corel-Layer"/>
  <path class="fil0" d="M2824 264l9430 0c1429,0 2587,1159 2587,2587l0 9430c0,1429 -1159,2587 -2587,2587l-9430 0c-1429,0 -2587,-1159 -2587,-2588l0 -9430c0,-1429 1159,-2587 2588,-2587z"/>
  <g id="часы">
   <circle class="fil1" cx="7507" cy="11898" r="1905"/>
   <circle class="fil2" cx="7507" cy="11898" r="1463"/>
   <rect class="fil3" x="7320" y="10735" width="275" height="1360"/>
   <rect class="fil3" transform="matrix(3.86591E-014 1.30127 -1.25918 2.97294E-014 8684.7 11814.7)" width="212" height="1080"/>
   <line class="fil4 str0" x1="7053" y1="10972" x2="7523" y2= "10570" />
   <line class="fil4 str0" x1="7874" y1="10971" x2="7404" y2= "10569" />
   <line class="fil4 str0" x1="8413" y1="11545" x2="8815" y2= "12015" />
   <line class="fil4 str0" x1="8412" y1="12367" x2="8814" y2= "11897" />
  </g>
  <path class="fil5 str1" d="M2188 9958l18 -3316c1972,247 2073,-1983 3033,-1848 561,79 442,572 1165,575l3766 12c218,1 758,-17 758,459 0,378 -266,480 -450,483l-2160 29c0,0 326,573 185,891 -141,318 -679,335 -679,335 0,0 141,485 -35,785 -176,300 -935,256 -935,256 0,0 287,229 88,600 -136,254 -827,290 -1526,272 -909,-24 -1918,-104 -2275,11 -499,161 -953,459 -953,459z"/>
  <rect class="fil6" x="11704" y="2602" width="1905" height="9031" rx="423" ry="423"/>
  <rect class="fil7" x="11158" y="2320" width="494" height="494"/>
  <rect class="fil7" x="11158" y="3255" width="494" height="494"/>
  <rect class="fil7" x="11158" y="4155" width="494" height="494"/>
  <rect class="fil7" x="11158" y="5054" width="494" height="494"/>
  <rect class="fil7" x="11158" y="5919" width="494" height="494"/>
  <rect class="fil7" x="11158" y="6800" width="494" height="494"/>
  <rect class="fil7" x="11158" y="7700" width="494" height="494"/>
  <rect class="fil7" x="11158" y="8635" width="494" height="494"/>
  <rect class="fil7" x="11158" y="9499" width="494" height="494"/>
  <rect class="fil7" x="11158" y="10399" width="494" height="494"/>
  <rect class="fil7" x="11158" y="11281" width="494" height="494"/>
 </g>
</svg>
