<?xml version="1.0" encoding="UTF-8"?>
<!DOCTYPE svg PUBLIC "-//W3C//DTD SVG 1.1//EN" "http://www.w3.org/Graphics/SVG/1.1/DTD/svg11.dtd">
<!-- Creator: CorelDRAW X6 -->
<svg xmlns="http://www.w3.org/2000/svg" xml:space="preserve" width="150px" height="150px" version="1.1" style="shape-rendering:geometricPrecision; text-rendering:geometricPrecision; image-rendering:optimizeQuality; fill-rule:evenodd; clip-rule:evenodd"
viewBox="0 0 15000 15000"
 xmlns:xlink="http://www.w3.org/1999/xlink">
 <defs>
  <style type="text/css">
   <![CDATA[
    .str0 {stroke:white;stroke-width:317.5}
    .fil56 {fill:none}
    .fil0 {fill:#579AC5}
    .fil2 {fill:#579BC6}
    .fil3 {fill:#589BC6}
    .fil4 {fill:#589CC7}
    .fil5 {fill:#599CC8}
    .fil6 {fill:#599DC8}
    .fil7 {fill:#599DC9}
    .fil8 {fill:#5A9ECA}
    .fil9 {fill:#5A9FCA}
    .fil10 {fill:#5B9FCB}
    .fil11 {fill:#5BA0CB}
    .fil12 {fill:#5CA0CC}
    .fil13 {fill:#5CA1CD}
    .fil14 {fill:#5DA2CE}
    .fil15 {fill:#5DA3CF}
    .fil16 {fill:#5EA3CF}
    .fil17 {fill:#5EA4D0}
    .fil18 {fill:#5EA4D1}
    .fil19 {fill:#5FA5D1}
    .fil20 {fill:#5FA5D2}
    .fil21 {fill:#60A6D2}
    .fil22 {fill:#60A7D3}
    .fil23 {fill:#61A7D4}
    .fil24 {fill:#61A8D4}
    .fil25 {fill:#61A8D5}
    .fil26 {fill:#62A9D6}
    .fil27 {fill:#63AAD7}
    .fil28 {fill:#63ABD8}
    .fil29 {fill:#64ACD9}
    .fil30 {fill:#65ADDA}
    .fil31 {fill:#65ADDB}
    .fil32 {fill:#66AEDB}
    .fil33 {fill:#66AEDC}
    .fil34 {fill:#66AFDD}
    .fil35 {fill:#67B0DD}
    .fil36 {fill:#67B0DE}
    .fil37 {fill:#68B1DE}
    .fil38 {fill:#68B1DF}
    .fil39 {fill:#68B2E0}
    .fil40 {fill:#69B2E0}
    .fil41 {fill:#69B3E1}
    .fil42 {fill:#6AB4E2}
    .fil43 {fill:#6BB5E3}
    .fil44 {fill:#6BB5E4}
    .fil45 {fill:#6BB6E4}
    .fil46 {fill:#6CB6E5}
    .fil47 {fill:#6CB7E5}
    .fil48 {fill:#6DB8E6}
    .fil49 {fill:#6DB8E7}
    .fil50 {fill:#6DB9E7}
    .fil51 {fill:#6EB9E8}
    .fil52 {fill:#6EBAE9}
    .fil53 {fill:#6FBAE9}
    .fil54 {fill:#6FBBEA}
    .fil55 {fill:#70BCEB}
    .fil1 {fill:black;fill-opacity:0.000000}
    .fil57 {fill:url(#id2)}
    .fil58 {fill:url(#id3)}
   ]]>
  </style>
      <clipPath id="id0">
       <path d="M2375 14104l10288 0c792,0 1441,-649 1441,-1441l0 -10288c0,-792 -649,-1441 -1441,-1441l-10288 0c-792,0 -1441,649 -1441,1441l0 10288c0,792 649,1441 1441,1441z"/>
      </clipPath>
      <clipPath id="id1">
       <path d="M2375 14104l10288 0c792,0 1441,-649 1441,-1441l0 -10288c0,-792 -649,-1441 -1441,-1441l-10288 0c-792,0 -1441,649 -1441,1441l0 10288c0,792 649,1441 1441,1441z"/>
      </clipPath>
  <linearGradient id="id2" gradientUnits="userSpaceOnUse" x1="6952.14" y1="10943.5" x2="6952.14" y2="4769.89">
   <stop offset="0" style="stop-color:#B3B3B3"/>
   <stop offset="1" style="stop-color:#E6E6E6"/>
  </linearGradient>
  <linearGradient id="id3" gradientUnits="userSpaceOnUse" x1="11749.1" y1="11447.5" x2="11749.1" y2="4406.55">
   <stop offset="0" style="stop-color:#AD0000"/>
   <stop offset="1" style="stop-color:red"/>
  </linearGradient>
 </defs>
 <g id="Layer_x0020_1">
  <metadata id="CorelCorpID_0Corel-Layer"/>
  <g id="_129085824">
   <g id="_343350824">
    <path class="fil0" d="M2165 39l10708 0c1174,0 2126,952 2126,2126l0 10708c0,1174 -952,2126 -2126,2126l-10708 0c-1174,0 -2126,-952 -2126,-2126l0 -10708c0,-1174 952,-2126 2126,-2126z"/>
    <g>
     <g style="clip-path:url(#id0)">
      <polygon class="fil1" points="934,935 14103,935 14103,14104 934,14104 "/>
     </g>
     <g style="clip-path:url(#id1)">
      <g>
       <polygon id="1" class="fil0" points="934,934 14103,934 14103,14104 934,14104 934,934 978,978 14059,978 14059,14060 978,14060 978,978 "/>
       <polygon id="_1" class="fil0" points="956,956 14081,956 14081,14082 956,14082 956,956 999,1000 14038,1000 14038,14038 999,14038 999,1000 "/>
       <polygon id="_2" class="fil2" points="978,978 14059,978 14059,14060 978,14060 978,978 1021,1022 14016,1022 14016,14016 1021,14016 1021,1022 "/>
       <polygon id="_3" class="fil3" points="999,1000 14038,1000 14038,14038 999,14038 999,1000 1043,1044 13994,1044 13994,13994 1043,13994 1043,1044 "/>
       <polygon id="_4" class="fil4" points="1021,1022 14016,1022 14016,14016 1021,14016 1021,1022 1065,1065 13972,1065 13972,13972 1065,13972 1065,1065 "/>
       <polygon id="_5" class="fil5" points="1043,1044 13994,1044 13994,13994 1043,13994 1043,1044 1087,1087 13950,1087 13950,13950 1087,13950 1087,1087 "/>
       <polygon id="_6" class="fil6" points="1065,1065 13972,1065 13972,13972 1065,13972 1065,1065 1109,1109 13928,1109 13928,13929 1109,13929 1109,1109 "/>
       <polygon id="_7" class="fil7" points="1087,1087 13950,1087 13950,13950 1087,13950 1087,1087 1132,1132 13905,1132 13905,13906 1132,13906 1132,1132 "/>
       <polygon id="_8" class="fil8" points="1109,1109 13928,1109 13928,13929 1109,13929 1109,1109 1153,1154 13883,1154 13883,13884 1153,13884 1153,1154 "/>
       <polygon id="_9" class="fil9" points="1132,1132 13905,1132 13905,13906 1132,13906 1132,1132 1175,1176 13862,1176 13862,13862 1175,13862 1175,1176 "/>
       <polygon id="_10" class="fil10" points="1153,1154 13884,1154 13884,13884 1153,13884 1153,1154 1197,1198 13840,1198 13840,13840 1197,13840 1197,1198 "/>
       <polygon id="_11" class="fil11" points="1175,1176 13862,1176 13862,13862 1175,13862 1175,1176 1219,1219 13818,1219 13818,13818 1219,13818 1219,1219 "/>
       <polygon id="_12" class="fil12" points="1197,1198 13840,1198 13840,13840 1197,13840 1197,1198 1241,1241 13796,1241 13796,13796 1241,13796 1241,1241 "/>
       <polygon id="_13" class="fil13" points="1219,1219 13818,1219 13818,13818 1219,13818 1219,1219 1263,1263 13774,1263 13774,13775 1263,13775 1263,1263 "/>
       <polygon id="_14" class="fil13" points="1241,1241 13796,1241 13796,13796 1241,13796 1241,1241 1285,1285 13752,1285 13752,13753 1285,13753 1285,1285 "/>
       <polygon id="_15" class="fil14" points="1263,1263 13774,1263 13774,13775 1263,13775 1263,1263 1306,1307 13730,1307 13730,13731 1306,13731 1306,1307 "/>
       <polygon id="_16" class="fil15" points="1285,1285 13752,1285 13752,13753 1285,13753 1285,1285 1328,1329 13709,1329 13709,13709 1328,13709 1328,1329 "/>
       <polygon id="_17" class="fil16" points="1306,1307 13730,1307 13730,13731 1306,13731 1306,1307 1350,1351 13687,1351 13687,13687 1350,13687 1350,1351 "/>
       <polygon id="_18" class="fil17" points="1328,1329 13709,1329 13709,13709 1328,13709 1328,1329 1373,1373 13664,1373 13664,13664 1373,13664 1373,1373 "/>
       <polygon id="_19" class="fil18" points="1350,1351 13687,1351 13687,13687 1350,13687 1350,1351 1395,1395 13642,1395 13642,13642 1395,13642 1395,1395 "/>
       <polygon id="_20" class="fil19" points="1373,1373 13664,1373 13664,13664 1373,13664 1373,1373 1417,1417 13620,1417 13620,13621 1417,13621 1417,1417 "/>
       <polygon id="_21" class="fil20" points="1395,1395 13642,1395 13642,13642 1395,13642 1395,1395 1439,1439 13598,1439 13598,13599 1439,13599 1439,1439 "/>
       <polygon id="_22" class="fil21" points="1417,1417 13620,1417 13620,13621 1417,13621 1417,1417 1460,1461 13576,1461 13576,13577 1460,13577 1460,1461 "/>
       <polygon id="_23" class="fil22" points="1439,1439 13598,1439 13598,13599 1439,13599 1439,1439 1482,1483 13555,1483 13555,13555 1482,13555 1482,1483 "/>
       <polygon id="_24" class="fil23" points="1460,1461 13576,1461 13576,13577 1460,13577 1460,1461 1504,1505 13533,1505 13533,13533 1504,13533 1504,1505 "/>
       <polygon id="_25" class="fil24" points="1482,1483 13555,1483 13555,13555 1482,13555 1482,1483 1526,1526 13511,1526 13511,13511 1526,13511 1526,1526 "/>
       <polygon id="_26" class="fil25" points="1504,1505 13533,1505 13533,13533 1504,13533 1504,1505 1548,1548 13489,1548 13489,13489 1548,13489 1548,1548 "/>
       <polygon id="_27" class="fil26" points="1526,1526 13511,1526 13511,13511 1526,13511 1526,1526 1570,1570 13467,1570 13467,13468 1570,13468 1570,1570 "/>
       <polygon id="_28" class="fil26" points="1548,1548 13489,1548 13489,13489 1548,13489 1548,1548 1592,1592 13445,1592 13445,13446 1592,13446 1592,1592 "/>
       <polygon id="_29" class="fil27" points="1570,1570 13467,1570 13467,13468 1570,13468 1570,1570 1613,1614 13422,1614 13422,13423 1613,13423 1613,1614 "/>
       <polygon id="_30" class="fil28" points="1592,1592 13445,1592 13445,13446 1592,13446 1592,1592 1636,1637 13401,1637 13401,13401 1636,13401 1636,1637 "/>
       <polygon id="_31" class="fil28" points="1613,1614 13422,1614 13422,13423 1613,13423 1613,1614 1658,1659 13379,1659 13379,13379 1658,13379 1658,1659 "/>
       <polygon id="_32" class="fil29" points="1636,1637 13401,1637 13401,13401 1636,13401 1636,1637 1680,1680 13357,1680 13357,13357 1680,13357 1680,1680 "/>
       <polygon id="_33" class="fil29" points="1658,1659 13379,1659 13379,13379 1658,13379 1658,1659 1702,1702 13335,1702 13335,13335 1702,13335 1702,1702 "/>
       <polygon id="_34" class="fil30" points="1680,1680 13357,1680 13357,13357 1680,13357 1680,1680 1724,1724 13313,1724 13313,13314 1724,13314 1724,1724 "/>
       <polygon id="_35" class="fil31" points="1702,1702 13335,1702 13335,13335 1702,13335 1702,1702 1746,1746 13291,1746 13291,13292 1746,13292 1746,1746 "/>
       <polygon id="_36" class="fil32" points="1724,1724 13313,1724 13313,13314 1724,13314 1724,1724 1768,1768 13269,1768 13269,13270 1768,13270 1768,1768 "/>
       <polygon id="_37" class="fil33" points="1746,1746 13291,1746 13291,13292 1746,13292 1746,1746 1789,1790 13248,1790 13248,13248 1789,13248 1789,1790 "/>
       <polygon id="_38" class="fil34" points="1768,1768 13269,1768 13269,13270 1768,13270 1768,1768 1811,1812 13226,1812 13226,13226 1811,13226 1811,1812 "/>
       <polygon id="_39" class="fil35" points="1789,1790 13248,1790 13248,13248 1789,13248 1789,1790 1833,1834 13204,1834 13204,13204 1833,13204 1833,1834 "/>
       <polygon id="_40" class="fil36" points="1811,1812 13226,1812 13226,13226 1811,13226 1811,1812 1855,1855 13182,1855 13182,13182 1855,13182 1855,1855 "/>
       <polygon id="_41" class="fil37" points="1833,1834 13204,1834 13204,13204 1833,13204 1833,1834 1878,1878 13159,1878 13159,13160 1878,13160 1878,1878 "/>
       <polygon id="_42" class="fil38" points="1855,1855 13182,1855 13182,13182 1855,13182 1855,1855 1900,1900 13137,1900 13137,13138 1900,13138 1900,1900 "/>
       <polygon id="_43" class="fil39" points="1878,1878 13159,1878 13159,13160 1878,13160 1878,1878 1922,1922 13115,1922 13115,13116 1922,13116 1922,1922 "/>
       <polygon id="_44" class="fil40" points="1900,1900 13137,1900 13137,13138 1900,13138 1900,1900 1943,1944 13094,1944 13094,13094 1943,13094 1943,1944 "/>
       <polygon id="_45" class="fil41" points="1922,1922 13115,1922 13115,13116 1922,13116 1922,1922 1965,1966 13072,1966 13072,13072 1965,13072 1965,1966 "/>
       <polygon id="_46" class="fil42" points="1943,1944 13094,1944 13094,13094 1943,13094 1943,1944 1987,1988 13050,1988 13050,13050 1987,13050 1987,1988 "/>
       <polygon id="_47" class="fil42" points="1965,1966 13072,1966 13072,13072 1965,13072 1965,1966 2009,2009 13028,2009 13028,13028 2009,13028 2009,2009 "/>
       <polygon id="_48" class="fil43" points="1987,1988 13050,1988 13050,13050 1987,13050 1987,1988 2031,2031 13006,2031 13006,13006 2031,13006 2031,2031 "/>
       <polygon id="_49" class="fil44" points="2009,2009 13028,2009 13028,13028 2009,13028 2009,2009 2053,2053 12984,2053 12984,12985 2053,12985 2053,2053 "/>
       <polygon id="_50" class="fil45" points="2031,2031 13006,2031 13006,13006 2031,13006 2031,2031 2075,2075 12962,2075 12962,12963 2075,12963 2075,2075 "/>
       <polygon id="_51" class="fil46" points="2053,2053 12984,2053 12984,12985 2053,12985 2053,2053 2096,2097 12940,2097 12940,12941 2096,12941 2096,2097 "/>
       <polygon id="_52" class="fil47" points="2075,2075 12962,2075 12962,12963 2075,12963 2075,2075 2119,2120 12918,2120 12918,12918 2119,12918 2119,2120 "/>
       <polygon id="_53" class="fil48" points="2096,2097 12940,2097 12940,12941 2096,12941 2096,2097 2141,2142 12896,2142 12896,12896 2141,12896 2141,2142 "/>
       <polygon id="_54" class="fil49" points="2119,2120 12918,2120 12918,12918 2119,12918 2119,2120 2163,2163 12874,2163 12874,12874 2163,12874 2163,2163 "/>
       <polygon id="_55" class="fil50" points="2141,2142 12896,2142 12896,12896 2141,12896 2141,2142 2185,2185 12852,2185 12852,12852 2185,12852 2185,2185 "/>
       <polygon id="_56" class="fil51" points="2163,2163 12874,2163 12874,12874 2163,12874 2163,2163 2207,2207 12830,2207 12830,12831 2207,12831 2207,2207 "/>
       <polygon id="_57" class="fil52" points="2185,2185 12852,2185 12852,12852 2185,12852 2185,2185 2229,2229 12808,2229 12808,12809 2229,12809 2229,2229 "/>
       <polygon id="_58" class="fil53" points="2207,2207 12830,2207 12830,12831 2207,12831 2207,2207 2250,2251 12786,2251 12786,12787 2250,12787 2250,2251 "/>
       <polygon id="_59" class="fil54" points="2229,2229 12808,2229 12808,12809 2229,12809 2229,2229 2272,2273 12765,2273 12765,12765 2272,12765 2272,2273 "/>
       <polygon id="_60" class="fil55" points="2250,2251 12786,2251 12786,12787 2250,12787 2250,2251 2294,2295 12743,2295 12743,12743 2294,12743 2294,2295 "/>
       <polygon id="_61" class="fil55" points="2272,2273 12765,2273 12765,12765 2272,12765 2272,2273 2316,2316 12721,2316 12721,12721 2316,12721 2316,2316 "/>
       <polygon id="_62" class="fil55" points="2294,2295 12743,2295 12743,12743 2294,12743 2294,2295 2338,2338 12699,2338 12699,12699 2338,12699 2338,2338 "/>
       <polygon id="_63" class="fil55" points="2316,2316 12721,2316 12721,12721 2316,12721 2316,2316 2361,2361 12676,2361 12676,12677 2361,12677 2361,2361 "/>
       <polygon id="_64" class="fil55" points="2338,2338 12699,2338 12699,12699 2338,12699 2338,2338 2383,2383 12654,2383 12654,12655 2383,12655 2383,2383 "/>
       <polygon id="_65" class="fil55" points="2361,2361 12676,2361 12676,12677 2361,12677 2361,2361 2404,2405 12632,2405 12632,12633 2404,12633 2404,2405 "/>
       <polygon id="_66" class="fil55" points="2383,2383 12654,2383 12654,12655 2383,12655 2383,2383 2426,2427 12611,2427 12611,12611 2426,12611 2426,2427 "/>
       <polygon id="_67" class="fil55" points="2404,2405 12632,2405 12632,12633 2404,12633 2404,2405 2448,2449 12589,2449 12589,12589 2448,12589 2448,2449 "/>
       <polygon id="_68" class="fil55" points="2426,2427 12611,2427 12611,12611 2426,12611 2426,2427 2470,2470 12567,2470 12567,12567 2470,12567 2470,2470 "/>
       <polygon id="_69" class="fil55" points="2448,2449 12589,2449 12589,12589 2448,12589 2448,2449 2492,2492 12545,2492 12545,12545 2492,12545 2492,2492 "/>
       <polygon id="_70" class="fil55" points="2470,2470 12567,2470 12567,12567 2470,12567 2470,2470 2514,2514 12523,2514 12523,12524 2514,12524 2514,2514 "/>
       <polygon id="_71" class="fil55" points="2492,2492 12545,2492 12545,12545 2492,12545 2492,2492 2536,2536 12501,2536 12501,12502 2536,12502 2536,2536 "/>
       <polygon id="_72" class="fil55" points="2514,2514 12523,2514 12523,12524 2514,12524 2514,2514 2558,2558 12479,2558 12479,12480 2558,12480 2558,2558 "/>
       <polygon id="_73" class="fil55" points="2536,2536 12501,2536 12501,12502 2536,12502 2536,2536 2579,2580 12458,2580 12458,12458 2579,12458 2579,2580 "/>
       <polygon id="_74" class="fil55" points="2557,2558 12479,2558 12479,12480 2557,12480 2557,2558 2601,2603 12435,2603 12435,12435 2601,12435 2601,2603 "/>
       <polygon id="_75" class="fil55" points="2579,2580 12458,2580 12458,12458 2579,12458 2579,2580 2624,2624 12413,2624 12413,12413 2624,12413 2624,2624 "/>
       <polygon id="_76" class="fil55" points="2601,2603 12435,2603 12435,12435 2601,12435 2601,2603 2646,2646 12391,2646 12391,12391 2646,12391 2646,2646 "/>
       <polygon id="_77" class="fil55" points="2624,2624 12413,2624 12413,12413 2624,12413 2624,2624 2668,2668 12369,2668 12369,12370 2668,12370 2668,2668 "/>
       <polygon id="_78" class="fil55" points="2646,2646 12391,2646 12391,12391 2646,12391 2646,2646 2690,2690 12347,2690 12347,12348 2690,12348 2690,2690 "/>
       <polygon id="_79" class="fil55" points="2668,2668 12369,2668 12369,12370 2668,12370 2668,2668 2712,2712 12325,2712 12325,12326 2712,12326 2712,2712 "/>
       <polygon id="_80" class="fil55" points="2690,2690 12347,2690 12347,12348 2690,12348 2690,2690 2733,2734 12304,2734 12304,12304 2733,12304 2733,2734 "/>
       <polygon id="_81" class="fil55" points="2712,2712 12325,2712 12325,12326 2712,12326 2712,2712 2755,2756 12282,2756 12282,12282 2755,12282 2755,2756 "/>
       <polygon id="_82" class="fil55" points="2733,2734 12304,2734 12304,12304 2733,12304 2733,2734 2777,2778 12260,2778 12260,12260 2777,12260 2777,2778 "/>
       <polygon id="_83" class="fil55" points="2755,2756 12282,2756 12282,12282 2755,12282 2755,2756 2799,2799 12238,2799 12238,12238 2799,12238 2799,2799 "/>
       <polygon id="_84" class="fil55" points="2777,2778 12260,2778 12260,12260 2777,12260 2777,2778 2821,2821 12216,2821 12216,12217 2821,12217 2821,2821 "/>
       <polygon id="_85" class="fil55" points="2799,2799 12238,2799 12238,12238 2799,12238 2799,2799 2843,2843 12193,2843 12193,12195 2843,12195 2843,2843 "/>
       <polygon id="_86" class="fil55" points="2821,2821 12216,2821 12216,12217 2821,12217 2821,2821 2866,2866 12171,2866 12171,12172 2866,12172 2866,2866 "/>
       <polygon id="_87" class="fil55" points="2843,2843 12193,2843 12193,12195 2843,12195 2843,2843 2887,2888 12150,2888 12150,12150 2887,12150 2887,2888 "/>
       <polygon id="_88" class="fil55" points="2866,2866 12171,2866 12171,12172 2866,12172 2866,2866 2909,2910 12128,2910 12128,12128 2909,12128 2909,2910 "/>
       <polygon id="_89" class="fil55" points="2887,2888 12150,2888 12150,12150 2887,12150 2887,2888 2931,2932 12106,2932 12106,12106 2931,12106 2931,2932 "/>
       <polygon id="_90" class="fil55" points="2909,2910 12128,2910 12128,12128 2909,12128 2909,2910 2953,2953 12084,2953 12084,12084 2953,12084 2953,2953 "/>
       <polygon id="_91" class="fil55" points="2931,2932 12106,2932 12106,12106 2931,12106 2931,2932 2975,2975 12062,2975 12062,12062 2975,12062 2975,2975 "/>
       <polygon id="_92" class="fil55" points="2953,2953 12084,2953 12084,12084 2953,12084 2953,2953 2997,2997 12040,2997 12040,12041 2997,12041 2997,2997 "/>
       <polygon id="_93" class="fil55" points="2975,2975 12062,2975 12062,12062 2975,12062 2975,2975 3019,3019 12018,3019 12018,12019 3019,12019 3019,3019 "/>
       <polygon id="_94" class="fil55" points="2997,2997 12040,2997 12040,12041 2997,12041 2997,2997 3040,3041 11996,3041 11996,11997 3040,11997 3040,3041 "/>
       <polygon id="_95" class="fil55" points="3019,3019 12018,3019 12018,12019 3019,12019 3019,3019 3062,3063 11975,3063 11975,11975 3062,11975 3062,3063 "/>
       <polygon id="_96" class="fil55" points="3040,3041 11996,3041 11996,11997 3040,11997 3040,3041 3084,3085 11953,3085 11953,11953 3084,11953 3084,3085 "/>
       <polygon id="_97" class="fil55" points="3062,3063 11975,3063 11975,11975 3062,11975 3062,3063 3107,3107 11930,3107 11930,11930 3107,11930 3107,3107 "/>
       <polygon id="_98" class="fil55" points="3084,3085 11953,3085 11953,11953 3084,11953 3084,3085 3129,3129 11908,3129 11908,11908 3129,11908 3129,3129 "/>
       <polygon id="_99" class="fil55" points="3107,3107 11930,3107 11930,11930 3107,11930 3107,3107 3151,3151 11886,3151 11886,11887 3151,11887 3151,3151 "/>
       <polygon id="_100" class="fil55" points="3129,3129 11908,3129 11908,11908 3129,11908 3129,3129 3173,3173 11864,3173 11864,11865 3173,11865 3173,3173 "/>
       <polygon id="_101" class="fil55" points="3151,3151 11886,3151 11886,11887 3151,11887 3151,3151 3194,3195 11842,3195 11842,11843 3194,11843 3194,3195 "/>
       <polygon id="_102" class="fil55" points="3173,3173 11864,3173 11864,11865 3173,11865 3173,3173 3216,3217 11821,3217 11821,11821 3216,11821 3216,3217 "/>
       <polygon id="_103" class="fil55" points="3194,3195 11842,3195 11842,11843 3194,11843 3194,3195 3238,3239 11799,3239 11799,11799 3238,11799 3238,3239 "/>
       <polygon id="_104" class="fil55" points="3216,3217 11821,3217 11821,11821 3216,11821 3216,3217 3260,3260 11777,3260 11777,11777 3260,11777 3260,3260 "/>
       <polygon id="_105" class="fil55" points="3238,3239 11799,3239 11799,11799 3238,11799 3238,3239 3282,3282 11755,3282 11755,11755 3282,11755 3282,3282 "/>
       <polygon id="_106" class="fil55" points="3260,3260 11777,3260 11777,11777 3260,11777 3260,3260 3304,3304 11733,3304 11733,11734 3304,11734 3304,3304 "/>
       <polygon id="_107" class="fil55" points="3282,3282 11755,3282 11755,11755 3282,11755 3282,3282 3326,3326 11711,3326 11711,11712 3326,11712 3326,3326 "/>
       <polygon id="_108" class="fil55" points="3304,3304 11733,3304 11733,11734 3304,11734 3304,3304 3348,3349 11688,3349 11688,11689 3348,11689 3348,3349 "/>
       <polygon id="_109" class="fil55" points="3326,3326 11711,3326 11711,11712 3326,11712 3326,3326 3370,3371 11667,3371 11667,11667 3370,11667 3370,3371 "/>
       <polygon id="_110" class="fil55" points="3348,3349 11688,3349 11688,11689 3348,11689 3348,3349 3392,3393 11645,3393 11645,11645 3392,11645 3392,3393 "/>
       <polygon id="_111" class="fil55" points="3370,3371 11667,3371 11667,11667 3370,11667 3370,3371 3414,3414 11623,3414 11623,11623 3414,11623 3414,3414 "/>
       <polygon id="_112" class="fil55" points="3392,3393 11645,3393 11645,11645 3392,11645 3392,3393 3436,3436 11601,3436 11601,11601 3436,11601 3436,3436 "/>
       <polygon id="_113" class="fil55" points="3414,3414 11623,3414 11623,11623 3414,11623 3414,3414 3458,3458 11579,3458 11579,11580 3458,11580 3458,3458 "/>
       <polygon id="_114" class="fil55" points="3436,3436 11601,3436 11601,11601 3436,11601 3436,3436 3480,3480 11557,3480 11557,11558 3480,11558 3480,3480 "/>
       <polygon id="_115" class="fil55" points="3458,3458 11579,3458 11579,11580 3458,11580 3458,3458 3502,3502 11535,3502 11535,11536 3502,11536 3502,3502 "/>
       <polygon id="_116" class="fil55" points="3480,3480 11557,3480 11557,11558 3480,11558 3480,3480 3523,3524 11514,3524 11514,11514 3523,11514 3523,3524 "/>
       <polygon id="_117" class="fil55" points="3501,3502 11535,3502 11535,11536 3501,11536 3501,3502 3545,3546 11492,3546 11492,11492 3545,11492 3545,3546 "/>
       <polygon id="_118" class="fil55" points="3523,3524 11514,3524 11514,11514 3523,11514 3523,3524 3567,3567 11470,3567 11470,11470 3567,11470 3567,3567 "/>
       <polygon id="_119" class="fil55" points="3545,3546 11492,3546 11492,11492 3545,11492 3545,3546 3590,3590 11447,3590 11447,11447 3590,11447 3590,3590 "/>
       <polygon id="_120" class="fil55" points="3567,3567 11470,3567 11470,11470 3567,11470 3567,3567 3612,3612 11425,3612 11425,11426 3612,11426 3612,3612 "/>
       <polygon id="_121" class="fil55" points="3590,3590 11447,3590 11447,11447 3590,11447 3590,3590 3634,3634 11403,3634 11403,11404 3634,11404 3634,3634 "/>
       <polygon id="_122" class="fil55" points="3612,3612 11425,3612 11425,11426 3612,11426 3612,3612 3656,3656 11381,3656 11381,11382 3656,11382 3656,3656 "/>
       <polygon id="_123" class="fil55" points="3634,3634 11403,3634 11403,11404 3634,11404 3634,3634 3677,3678 11360,3678 11360,11360 3677,11360 3677,3678 "/>
       <polygon id="_124" class="fil55" points="3656,3656 11381,3656 11381,11382 3656,11382 3656,3656 3699,3700 11338,3700 11338,11338 3699,11338 3699,3700 "/>
       <polygon id="_125" class="fil55" points="3677,3678 11360,3678 11360,11360 3677,11360 3677,3678 3721,3722 11316,3722 11316,11316 3721,11316 3721,3722 "/>
       <polygon id="_126" class="fil55" points="3699,3700 11338,3700 11338,11338 3699,11338 3699,3700 3743,3743 11294,3743 11294,11294 3743,11294 3743,3743 "/>
       <polygon id="_127" class="fil55" points="3721,3722 11316,3722 11316,11316 3721,11316 3721,3722 3765,3765 11272,3765 11272,11273 3765,11273 3765,3765 "/>
       <polygon id="_128" class="fil55" points="3743,3743 11294,3743 11294,11294 3743,11294 3743,3743 3787,3787 11250,3787 11250,11251 3787,11251 3787,3787 "/>
       <polygon id="_129" class="fil55" points="3765,3765 11272,3765 11272,11273 3765,11273 3765,3765 3809,3809 11228,3809 11228,11229 3809,11229 3809,3809 "/>
       <polygon id="_130" class="fil55" points="3787,3787 11250,3787 11250,11251 3787,11251 3787,3787 3830,3831 11206,3831 11206,11206 3830,11206 3830,3831 "/>
       <polygon id="_131" class="fil55" points="3809,3809 11228,3809 11228,11229 3809,11229 3809,3809 3853,3854 11184,3854 11184,11184 3853,11184 3853,3854 "/>
       <polygon id="_132" class="fil55" points="3830,3831 11206,3831 11206,11206 3830,11206 3830,3831 3875,3876 11162,3876 11162,11162 3875,11162 3875,3876 "/>
       <polygon id="_133" class="fil55" points="3853,3854 11184,3854 11184,11184 3853,11184 3853,3854 3897,3897 11140,3897 11140,11140 3897,11140 3897,3897 "/>
       <polygon id="_134" class="fil55" points="3875,3876 11162,3876 11162,11162 3875,11162 3875,3876 3919,3919 11118,3919 11118,11118 3919,11118 3919,3919 "/>
       <polygon id="_135" class="fil55" points="3897,3897 11140,3897 11140,11140 3897,11140 3897,3897 3941,3941 11096,3941 11096,11097 3941,11097 3941,3941 "/>
       <polygon id="_136" class="fil55" points="3919,3919 11118,3919 11118,11118 3919,11118 3919,3919 3963,3963 11074,3963 11074,11075 3963,11075 3963,3963 "/>
       <polygon id="_137" class="fil55" points="3941,3941 11096,3941 11096,11097 3941,11097 3941,3941 3984,3985 11052,3985 11052,11053 3984,11053 3984,3985 "/>
       <polygon id="_138" class="fil55" points="3963,3963 11074,3963 11074,11075 3963,11075 3963,3963 4006,4007 11031,4007 11031,11031 4006,11031 4006,4007 "/>
       <polygon id="_139" class="fil55" points="3984,3985 11052,3985 11052,11053 3984,11053 3984,3985 4028,4029 11009,4029 11009,11009 4028,11009 4028,4029 "/>
       <polygon id="_140" class="fil55" points="4006,4007 11031,4007 11031,11031 4006,11031 4006,4007 4050,4050 10987,4050 10987,10987 4050,10987 4050,4050 "/>
       <polygon id="_141" class="fil55" points="4028,4029 11009,4029 11009,11009 4028,11009 4028,4029 4072,4072 10965,4072 10965,10964 4072,10964 4072,4072 "/>
       <polygon id="_142" class="fil55" points="4050,4050 10987,4050 10987,10987 4050,10987 4050,4050 4095,4095 10942,4095 10942,10943 4095,10943 4095,4095 "/>
       <polygon id="_143" class="fil55" points="4072,4072 10965,4072 10965,10964 4072,10964 4072,4072 4117,4117 10920,4117 10920,10921 4117,10921 4117,4117 "/>
       <polygon id="_144" class="fil55" points="4095,4095 10942,4095 10942,10943 4095,10943 4095,4095 4138,4139 10898,4139 10898,10899 4138,10899 4138,4139 "/>
       <polygon id="_145" class="fil55" points="4117,4117 10920,4117 10920,10921 4117,10921 4117,4117 4160,4161 10877,4161 10877,10877 4160,10877 4160,4161 "/>
       <polygon id="_146" class="fil55" points="4138,4139 10898,4139 10898,10899 4138,10899 4138,4139 4182,4183 10855,4183 10855,10855 4182,10855 4182,4183 "/>
       <polygon id="_147" class="fil55" points="4160,4161 10877,4161 10877,10877 4160,10877 4160,4161 4204,4204 10833,4204 10833,10833 4204,10833 4204,4204 "/>
       <polygon id="_148" class="fil55" points="4182,4183 10855,4183 10855,10855 4182,10855 4182,4183 4226,4226 10811,4226 10811,10811 4226,10811 4226,4226 "/>
       <polygon id="_149" class="fil55" points="4204,4204 10833,4204 10833,10833 4204,10833 4204,4204 4248,4248 10789,4248 10789,10790 4248,10790 4248,4248 "/>
       <polygon id="_150" class="fil55" points="4226,4226 10811,4226 10811,10811 4226,10811 4226,4226 4270,4270 10767,4270 10767,10768 4270,10768 4270,4270 "/>
       <polygon id="_151" class="fil55" points="4248,4248 10789,4248 10789,10790 4248,10790 4248,4248 4291,4292 10745,4292 10745,10746 4291,10746 4291,4292 "/>
       <polygon id="_152" class="fil55" points="4270,4270 10767,4270 10767,10768 4270,10768 4270,4270 4313,4314 10724,4314 10724,10724 4313,10724 4313,4314 "/>
       <polygon id="_153" class="fil55" points="4291,4292 10745,4292 10745,10746 4291,10746 4291,4292 4336,4337 10701,4337 10701,10701 4336,10701 4336,4337 "/>
       <polygon id="_154" class="fil55" points="4313,4314 10724,4314 10724,10724 4313,10724 4313,4314 4358,4358 10679,4358 10679,10679 4358,10679 4358,4358 "/>
       <polygon id="_155" class="fil55" points="4336,4337 10701,4337 10701,10701 4336,10701 4336,4337 4380,4380 10657,4380 10657,10657 4380,10657 4380,4380 "/>
       <polygon id="_156" class="fil55" points="4358,4358 10679,4358 10679,10679 4358,10679 4358,4358 4402,4402 10635,4402 10635,10636 4402,10636 4402,4402 "/>
       <polygon id="_157" class="fil55" points="4380,4380 10657,4380 10657,10657 4380,10657 4380,4380 4424,4424 10613,4424 10613,10614 4424,10614 4424,4424 "/>
       <polygon id="_158" class="fil55" points="4402,4402 10635,4402 10635,10636 4402,10636 4402,4402 4446,4446 10591,4446 10591,10592 4446,10592 4446,4446 "/>
       <polygon id="_159" class="fil55" points="4424,4424 10613,4424 10613,10614 4424,10614 4424,4424 4467,4468 10570,4468 10570,10570 4467,10570 4467,4468 "/>
       <polygon id="_160" class="fil55" points="4445,4446 10591,4446 10591,10592 4445,10592 4445,4446 4489,4490 10548,4490 10548,10548 4489,10548 4489,4490 "/>
       <polygon id="_161" class="fil55" points="4467,4468 10570,4468 10570,10570 4467,10570 4467,4468 4511,4511 10526,4511 10526,10526 4511,10526 4511,4511 "/>
       <polygon id="_162" class="fil55" points="4489,4490 10548,4490 10548,10548 4489,10548 4489,4490 4533,4533 10504,4533 10504,10504 4533,10504 4533,4533 "/>
       <polygon id="_163" class="fil55" points="4511,4511 10526,4511 10526,10526 4511,10526 4511,4511 4555,4555 10482,4555 10482,10483 4555,10483 4555,4555 "/>
       <polygon id="_164" class="fil55" points="4533,4533 10504,4533 10504,10504 4533,10504 4533,4533 4578,4578 10459,4578 10459,10460 4578,10460 4578,4578 "/>
       <polygon id="_165" class="fil55" points="4555,4555 10482,4555 10482,10483 4555,10483 4555,4555 4600,4600 10437,4600 10437,10438 4600,10438 4600,4600 "/>
       <polygon id="_166" class="fil55" points="4578,4578 10459,4578 10459,10460 4578,10460 4578,4578 4621,4622 10416,4622 10416,10416 4621,10416 4621,4622 "/>
       <polygon id="_167" class="fil55" points="4600,4600 10437,4600 10437,10438 4600,10438 4600,4600 4643,4644 10394,4644 10394,10394 4643,10394 4643,4644 "/>
       <polygon id="_168" class="fil55" points="4621,4622 10416,4622 10416,10416 4621,10416 4621,4622 4665,4666 10372,4666 10372,10372 4665,10372 4665,4666 "/>
       <polygon id="_169" class="fil55" points="4643,4644 10394,4644 10394,10394 4643,10394 4643,4644 4687,4687 10350,4687 10350,10350 4687,10350 4687,4687 "/>
       <polygon id="_170" class="fil55" points="4665,4666 10372,4666 10372,10372 4665,10372 4665,4666 4709,4709 10328,4709 10328,10329 4709,10329 4709,4709 "/>
       <polygon id="_171" class="fil55" points="4687,4687 10350,4687 10350,10350 4687,10350 4687,4687 4731,4731 10306,4731 10306,10307 4731,10307 4731,4731 "/>
       <polygon id="_172" class="fil55" points="4709,4709 10328,4709 10328,10329 4709,10329 4709,4709 4753,4753 10284,4753 10284,10285 4753,10285 4753,4753 "/>
       <polygon id="_173" class="fil55" points="4731,4731 10306,4731 10306,10307 4731,10307 4731,4731 4774,4775 10263,4775 10263,10263 4774,10263 4774,4775 "/>
       <polygon id="_174" class="fil55" points="4753,4753 10284,4753 10284,10285 4753,10285 4753,4753 4796,4797 10241,4797 10241,10241 4796,10241 4796,4797 "/>
       <polygon id="_175" class="fil55" points="4774,4775 10263,4775 10263,10263 4774,10263 4774,4775 4819,4820 10218,4820 10218,10218 4819,10218 4819,4820 "/>
       <polygon id="_176" class="fil55" points="4796,4797 10241,4797 10241,10241 4796,10241 4796,4797 4841,4841 10196,4841 10196,10196 4841,10196 4841,4841 "/>
       <polygon id="_177" class="fil55" points="4819,4820 10218,4820 10218,10218 4819,10218 4819,4820 4863,4863 10174,4863 10174,10174 4863,10174 4863,4863 "/>
       <polygon id="_178" class="fil55" points="4841,4841 10196,4841 10196,10196 4841,10196 4841,4841 4885,4885 10152,4885 10152,10153 4885,10153 4885,4885 "/>
       <polygon id="_179" class="fil55" points="4863,4863 10174,4863 10174,10174 4863,10174 4863,4863 4907,4907 10130,4907 10130,10131 4907,10131 4907,4907 "/>
       <polygon id="_180" class="fil55" points="4885,4885 10152,4885 10152,10153 4885,10153 4885,4885 4928,4929 10108,4929 10108,10109 4928,10109 4928,4929 "/>
       <polygon id="_181" class="fil55" points="4907,4907 10130,4907 10130,10131 4907,10131 4907,4907 4950,4951 10087,4951 10087,10087 4950,10087 4950,4951 "/>
       <polygon id="_182" class="fil55" points="4928,4929 10108,4929 10108,10109 4928,10109 4928,4929 4972,4973 10065,4973 10065,10065 4972,10065 4972,4973 "/>
       <polygon id="_183" class="fil55" points="4950,4951 10087,4951 10087,10087 4950,10087 4950,4951 4994,4994 10043,4994 10043,10043 4994,10043 4994,4994 "/>
       <polygon id="_184" class="fil55" points="4972,4973 10065,4973 10065,10065 4972,10065 4972,4973 5016,5016 10021,5016 10021,10021 5016,10021 5016,5016 "/>
       <polygon id="_185" class="fil55" points="4994,4994 10043,4994 10043,10043 4994,10043 4994,4994 5038,5038 9999,5038 9999,10000 5038,10000 5038,5038 "/>
       <polygon id="_186" class="fil55" points="5016,5016 10021,5016 10021,10021 5016,10021 5016,5016 5060,5060 9976,5060 9976,9977 5060,9977 5060,5060 "/>
       <polygon id="_187" class="fil55" points="5038,5038 9999,5038 9999,10000 5038,10000 5038,5038 5082,5083 9954,5083 9954,9955 5082,9955 5082,5083 "/>
       <polygon id="_188" class="fil55" points="5060,5060 9976,5060 9976,9977 5060,9977 5060,5060 5104,5105 9933,5105 9933,9933 5104,9933 5104,5105 "/>
       <polygon id="_189" class="fil55" points="5082,5083 9954,5083 9954,9955 5082,9955 5082,5083 5126,5127 9911,5127 9911,9911 5126,9911 5126,5127 "/>
       <polygon id="_190" class="fil55" points="5104,5105 9933,5105 9933,9933 5104,9933 5104,5105 5148,5148 9889,5148 9889,9889 5148,9889 5148,5148 "/>
       <polygon id="_191" class="fil55" points="5126,5127 9911,5127 9911,9911 5126,9911 5126,5127 5170,5170 9867,5170 9867,9867 5170,9867 5170,5170 "/>
       <polygon id="_192" class="fil55" points="5148,5148 9889,5148 9889,9889 5148,9889 5148,5148 5192,5192 9845,5192 9845,9846 5192,9846 5192,5192 "/>
       <polygon id="_193" class="fil55" points="5170,5170 9867,5170 9867,9867 5170,9867 5170,5170 5214,5214 9823,5214 9823,9824 5214,9824 5214,5214 "/>
       <polygon id="_194" class="fil55" points="5192,5192 9845,5192 9845,9846 5192,9846 5192,5192 5235,5236 9801,5236 9801,9802 5235,9802 5235,5236 "/>
       <polygon id="_195" class="fil55" points="5214,5214 9823,5214 9823,9824 5214,9824 5214,5214 5257,5258 9780,5258 9780,9780 5257,9780 5257,5258 "/>
       <polygon id="_196" class="fil55" points="5235,5236 9801,5236 9801,9802 5235,9802 5235,5236 5279,5280 9758,5280 9758,9758 5279,9758 5279,5280 "/>
       <polygon id="_197" class="fil55" points="5257,5258 9780,5258 9780,9780 5257,9780 5257,5258 5301,5301 9736,5301 9736,9736 5301,9736 5301,5301 "/>
       <polygon id="_198" class="fil55" points="5279,5280 9758,5280 9758,9758 5279,9758 5279,5280 5324,5324 9713,5324 9713,9713 5324,9713 5324,5324 "/>
       <polygon id="_199" class="fil55" points="5301,5301 9736,5301 9736,9736 5301,9736 5301,5301 5346,5346 9691,5346 9691,9692 5346,9692 5346,5346 "/>
       <polygon id="_200" class="fil55" points="5324,5324 9713,5324 9713,9713 5324,9713 5324,5324 5368,5368 9669,5368 9669,9670 5368,9670 5368,5368 "/>
       <polygon id="_201" class="fil55" points="5346,5346 9691,5346 9691,9692 5346,9692 5346,5346 5390,5390 9647,5390 9647,9648 5390,9648 5390,5390 "/>
       <polygon id="_202" class="fil55" points="5368,5368 9669,5368 9669,9670 5368,9670 5368,5368 5411,5412 9626,5412 9626,9626 5411,9626 5411,5412 "/>
       <polygon id="_203" class="fil55" points="5389,5390 9647,5390 9647,9648 5389,9648 5389,5390 5433,5434 9604,5434 9604,9604 5433,9604 5433,5434 "/>
       <polygon id="_204" class="fil55" points="5411,5412 9626,5412 9626,9626 5411,9626 5411,5412 5455,5455 9582,5455 9582,9582 5455,9582 5455,5455 "/>
       <polygon id="_205" class="fil55" points="5433,5434 9604,5434 9604,9604 5433,9604 5433,5434 5477,5477 9560,5477 9560,9560 5477,9560 5477,5477 "/>
       <polygon id="_206" class="fil55" points="5455,5455 9582,5455 9582,9582 5455,9582 5455,5455 5499,5499 9538,5499 9538,9539 5499,9539 5499,5499 "/>
       <polygon id="_207" class="fil55" points="5477,5477 9560,5477 9560,9560 5477,9560 5477,5477 5521,5521 9516,5521 9516,9517 5521,9517 5521,5521 "/>
       <polygon id="_208" class="fil55" points="5499,5499 9538,5499 9538,9539 5499,9539 5499,5499 5543,5543 9494,5543 9494,9495 5543,9495 5543,5543 "/>
       <polygon id="_209" class="fil55" points="5521,5521 9516,5521 9516,9517 5521,9517 5521,5521 5565,5566 9472,5566 9472,9472 5565,9472 5565,5566 "/>
       <polygon id="_210" class="fil55" points="5543,5543 9494,5543 9494,9495 5543,9495 5543,5543 5587,5588 9450,5588 9450,9450 5587,9450 5587,5588 "/>
       <polygon id="_211" class="fil55" points="5565,5566 9472,5566 9472,9472 5565,9472 5565,5566 5609,5610 9428,5610 9428,9428 5609,9428 5609,5610 "/>
       <polygon id="_212" class="fil55" points="5587,5588 9450,5588 9450,9450 5587,9450 5587,5588 5631,5631 9406,5631 9406,9406 5631,9406 5631,5631 "/>
       <polygon id="_213" class="fil55" points="5609,5610 9428,5610 9428,9428 5609,9428 5609,5610 5653,5653 9384,5653 9384,9385 5653,9385 5653,5653 "/>
       <polygon id="_214" class="fil55" points="5631,5631 9406,5631 9406,9406 5631,9406 5631,5631 5675,5675 9362,5675 9362,9363 5675,9363 5675,5675 "/>
       <polygon id="_215" class="fil55" points="5653,5653 9384,5653 9384,9385 5653,9385 5653,5653 5697,5697 9340,5697 9340,9341 5697,9341 5697,5697 "/>
       <polygon id="_216" class="fil55" points="5675,5675 9362,5675 9362,9363 5675,9363 5675,5675 5718,5719 9319,5719 9319,9319 5718,9319 5718,5719 "/>
       <polygon id="_217" class="fil55" points="5697,5697 9340,5697 9340,9341 5697,9341 5697,5697 5740,5741 9297,5741 9297,9297 5740,9297 5740,5741 "/>
       <polygon id="_218" class="fil55" points="5718,5719 9319,5719 9319,9319 5718,9319 5718,5719 5762,5763 9275,5763 9275,9275 5762,9275 5762,5763 "/>
       <polygon id="_219" class="fil55" points="5740,5741 9297,5741 9297,9297 5740,9297 5740,5741 5784,5784 9253,5784 9253,9253 5784,9253 5784,5784 "/>
       <polygon id="_220" class="fil55" points="5762,5763 9275,5763 9275,9275 5762,9275 5762,5763 5807,5807 9230,5807 9230,9230 5807,9230 5807,5807 "/>
       <polygon id="_221" class="fil55" points="5784,5784 9253,5784 9253,9253 5784,9253 5784,5784 5829,5829 9208,5829 9208,9209 5829,9209 5829,5829 "/>
       <polygon id="_222" class="fil55" points="5807,5807 9230,5807 9230,9230 5807,9230 5807,5807 5851,5851 9186,5851 9186,9187 5851,9187 5851,5851 "/>
       <polygon id="_223" class="fil55" points="5829,5829 9208,5829 9208,9209 5829,9209 5829,5829 5872,5873 9164,5873 9164,9165 5872,9165 5872,5873 "/>
       <polygon id="_224" class="fil55" points="5851,5851 9186,5851 9186,9187 5851,9187 5851,5851 5894,5895 9143,5895 9143,9143 5894,9143 5894,5895 "/>
       <polygon id="_225" class="fil55" points="5872,5873 9164,5873 9164,9165 5872,9165 5872,5873 5916,5917 9121,5917 9121,9121 5916,9121 5916,5917 "/>
       <polygon id="_226" class="fil55" points="5894,5895 9143,5895 9143,9143 5894,9143 5894,5895 5938,5938 9099,5938 9099,9099 5938,9099 5938,5938 "/>
       <polygon id="_227" class="fil55" points="5916,5917 9121,5917 9121,9121 5916,9121 5916,5917 5960,5960 9077,5960 9077,9077 5960,9077 5960,5960 "/>
       <polygon id="_228" class="fil55" points="5938,5938 9099,5938 9099,9099 5938,9099 5938,5938 5982,5982 9055,5982 9055,9056 5982,9056 5982,5982 "/>
       <polygon id="_229" class="fil55" points="5960,5960 9077,5960 9077,9077 5960,9077 5960,5960 6004,6004 9033,6004 9033,9034 6004,9034 6004,6004 "/>
       <polygon id="_230" class="fil55" points="5982,5982 9055,5982 9055,9056 5982,9056 5982,5982 6025,6026 9011,6026 9011,9012 6025,9012 6025,6026 "/>
       <polygon id="_231" class="fil55" points="6004,6004 9033,6004 9033,9034 6004,9034 6004,6004 6048,6049 8989,6049 8989,8989 6048,8989 6048,6049 "/>
       <polygon id="_232" class="fil55" points="6025,6026 9011,6026 9011,9012 6025,9012 6025,6026 6070,6071 8967,6071 8967,8967 6070,8967 6070,6071 "/>
       <polygon id="_233" class="fil55" points="6048,6049 8989,6049 8989,8989 6048,8989 6048,6049 6092,6092 8945,6092 8945,8945 6092,8945 6092,6092 "/>
       <polygon id="_234" class="fil55" points="6070,6071 8967,6071 8967,8967 6070,8967 6070,6071 6114,6114 8923,6114 8923,8923 6114,8923 6114,6114 "/>
       <polygon id="_235" class="fil55" points="6092,6092 8945,6092 8945,8945 6092,8945 6092,6092 6136,6136 8901,6136 8901,8902 6136,8902 6136,6136 "/>
       <polygon id="_236" class="fil55" points="6114,6114 8923,6114 8923,8923 6114,8923 6114,6114 6158,6158 8879,6158 8879,8880 6158,8880 6158,6158 "/>
       <polygon id="_237" class="fil55" points="6136,6136 8901,6136 8901,8902 6136,8902 6136,6136 6179,6180 8857,6180 8857,8858 6179,8858 6179,6180 "/>
       <polygon id="_238" class="fil55" points="6158,6158 8879,6158 8879,8880 6158,8880 6158,6158 6201,6202 8836,6202 8836,8836 6201,8836 6201,6202 "/>
       <polygon id="_239" class="fil55" points="6179,6180 8857,6180 8857,8858 6179,8858 6179,6180 6223,6224 8814,6224 8814,8814 6223,8814 6223,6224 "/>
       <polygon id="_240" class="fil55" points="6201,6202 8836,6202 8836,8836 6201,8836 6201,6202 6245,6245 8792,6245 8792,8792 6245,8792 6245,6245 "/>
       <polygon id="_241" class="fil55" points="6223,6224 8814,6224 8814,8814 6223,8814 6223,6224 6267,6267 8770,6267 8770,8770 6267,8770 6267,6267 "/>
       <polygon id="_242" class="fil55" points="6245,6245 8792,6245 8792,8792 6245,8792 6245,6245 6289,6289 8747,6289 8747,8748 6289,8748 6289,6289 "/>
       <polygon id="_243" class="fil55" points="6267,6267 8770,6267 8770,8770 6267,8770 6267,6267 6312,6312 8725,6312 8725,8726 6312,8726 6312,6312 "/>
       <polygon id="_244" class="fil55" points="6289,6289 8747,6289 8747,8748 6289,8748 6289,6289 6334,6334 8703,6334 8703,8704 6334,8704 6334,6334 "/>
       <polygon id="_245" class="fil55" points="6312,6312 8725,6312 8725,8726 6312,8726 6312,6312 6355,6356 8682,6356 8682,8682 6355,8682 6355,6356 "/>
       <polygon id="_246" class="fil55" points="6333,6334 8703,6334 8703,8704 6333,8704 6333,6334 6377,6378 8660,6378 8660,8660 6377,8660 6377,6378 "/>
       <polygon id="_247" class="fil55" points="6355,6356 8682,6356 8682,8682 6355,8682 6355,6356 6399,6399 8638,6399 8638,8638 6399,8638 6399,6399 "/>
       <polygon id="_248" class="fil55" points="6377,6378 8660,6378 8660,8660 6377,8660 6377,6378 6421,6421 8616,6421 8616,8616 6421,8616 6421,6421 "/>
       <polygon id="_249" class="fil55" points="6399,6399 8638,6399 8638,8638 6399,8638 6399,6399 6443,6443 8594,6443 8594,8595 6443,8595 6443,6443 "/>
       <polygon id="_250" class="fil55" points="6421,6421 8616,6421 8616,8616 6421,8616 6421,6421 6465,6465 8572,6465 8572,8573 6465,8573 6465,6465 "/>
       <polygon id="_251" class="fil55" points="6443,6443 8594,6443 8594,8595 6443,8595 6443,6443 6487,6487 8550,6487 8550,8551 6487,8551 6487,6487 "/>
       <polygon id="_252" class="fil55" points="6465,6465 8572,6465 8572,8573 6465,8573 6465,6465 6508,6509 8529,6509 8529,8529 6508,8529 6508,6509 "/>
       <polygon id="_253" class="fil55" points="6487,6487 8550,6487 8550,8551 6487,8551 6487,6487 6530,6531 8507,6531 8507,8507 6530,8507 6530,6531 "/>
       <polygon id="_254" class="fil55" points="6508,6509 8529,6509 8529,8529 6508,8529 6508,6509 6553,6554 8484,6554 8484,8484 6553,8484 6553,6554 "/>
       <polygon id="_255" class="fil55" points="6530,6531 8507,6531 8507,8507 6530,8507 6530,6531 6575,6575 8462,6575 8462,8462 6575,8462 6575,6575 "/>
       <polygon id="_256" class="fil55" points="6553,6554 8484,6554 8484,8484 6553,8484 6553,6554 6597,6597 8440,6597 8440,8441 6597,8441 6597,6597 "/>
       <polygon id="_257" class="fil55" points="6575,6575 8462,6575 8462,8462 6575,8462 6575,6575 6619,6619 8418,6619 8418,8419 6619,8419 6619,6619 "/>
       <polygon id="_258" class="fil55" points="6597,6597 8440,6597 8440,8441 6597,8441 6597,6597 6641,6641 8396,6641 8396,8397 6641,8397 6641,6641 "/>
       <polygon id="_259" class="fil55" points="6619,6619 8418,6619 8418,8419 6619,8419 6619,6619 6662,6663 8375,6663 8375,8375 6662,8375 6662,6663 "/>
       <polygon id="_260" class="fil55" points="6641,6641 8396,6641 8396,8397 6641,8397 6641,6641 6684,6685 8353,6685 8353,8353 6684,8353 6684,6685 "/>
       <polygon id="_261" class="fil55" points="6662,6663 8375,6663 8375,8375 6662,8375 6662,6663 6706,6707 8331,6707 8331,8331 6706,8331 6706,6707 "/>
       <polygon id="_262" class="fil55" points="6684,6685 8353,6685 8353,8353 6684,8353 6684,6685 6728,6728 8309,6728 8309,8309 6728,8309 6728,6728 "/>
       <polygon id="_263" class="fil55" points="6706,6707 8331,6707 8331,8331 6706,8331 6706,6707 6750,6750 8287,6750 8287,8287 6750,8287 6750,6750 "/>
       <polygon id="_264" class="fil55" points="6728,6728 8309,6728 8309,8309 6728,8309 6728,6728 6772,6772 8265,6772 8265,8266 6772,8266 6772,6772 "/>
       <polygon id="_265" class="fil55" points="6750,6750 8287,6750 8287,8287 6750,8287 6750,6750 6795,6795 8242,6795 8242,8243 6795,8243 6795,6795 "/>
       <polygon id="_266" class="fil55" points="6772,6772 8265,6772 8265,8266 6772,8266 6772,6772 6816,6817 8220,6817 8220,8221 6816,8221 6816,6817 "/>
       <polygon id="_267" class="fil55" points="6795,6795 8242,6795 8242,8243 6795,8243 6795,6795 6838,6839 8199,6839 8199,8199 6838,8199 6838,6839 "/>
       <polygon id="_268" class="fil55" points="6816,6817 8220,6817 8220,8221 6816,8221 6816,6817 6860,6861 8177,6861 8177,8177 6860,8177 6860,6861 "/>
       <polygon id="_269" class="fil55" points="6838,6839 8199,6839 8199,8199 6838,8199 6838,6839 6882,6882 8155,6882 8155,8155 6882,8155 6882,6882 "/>
       <polygon id="_270" class="fil55" points="6860,6861 8177,6861 8177,8177 6860,8177 6860,6861 6904,6904 8133,6904 8133,8133 6904,8133 6904,6904 "/>
       <polygon id="_271" class="fil55" points="6882,6882 8155,6882 8155,8155 6882,8155 6882,6882 6926,6926 8111,6926 8111,8112 6926,8112 6926,6926 "/>
       <polygon id="_272" class="fil55" points="6904,6904 8133,6904 8133,8133 6904,8133 6904,6904 6948,6948 8089,6948 8089,8090 6948,8090 6948,6948 "/>
       <polygon id="_273" class="fil55" points="6926,6926 8111,6926 8111,8112 6926,8112 6926,6926 6969,6970 8067,6970 8067,8068 6969,8068 6969,6970 "/>
       <polygon id="_274" class="fil55" points="6948,6948 8089,6948 8089,8090 6948,8090 6948,6948 6991,6992 8046,6992 8046,8046 6991,8046 6991,6992 "/>
       <polygon id="_275" class="fil55" points="6969,6970 8067,6970 8067,8068 6969,8068 6969,6970 7013,7014 8024,7014 8024,8024 7013,8024 7013,7014 "/>
       <polygon id="_276" class="fil55" points="6991,6992 8046,6992 8046,8046 6991,8046 6991,6992 7036,7036 8001,7036 8001,8001 7036,8001 7036,7036 "/>
       <polygon id="_277" class="fil55" points="7013,7014 8024,7014 8024,8024 7013,8024 7013,7014 7058,7058 7979,7058 7979,7979 7058,7979 7058,7058 "/>
       <polygon id="_278" class="fil55" points="7036,7036 8001,7036 8001,8001 7036,8001 7036,7036 7080,7080 7957,7080 7957,7958 7080,7958 7080,7080 "/>
       <polygon id="_279" class="fil55" points="7058,7058 7979,7058 7979,7979 7058,7979 7058,7058 7102,7102 7935,7102 7935,7936 7102,7936 7102,7102 "/>
       <polygon id="_280" class="fil55" points="7080,7080 7957,7080 7957,7958 7080,7958 7080,7080 7123,7124 7913,7124 7913,7914 7123,7914 7123,7124 "/>
       <polygon id="_281" class="fil55" points="7102,7102 7935,7102 7935,7936 7102,7936 7102,7102 7145,7146 7892,7146 7892,7892 7145,7892 7145,7146 "/>
       <polygon id="_282" class="fil55" points="7123,7124 7913,7124 7913,7914 7123,7914 7123,7124 7167,7168 7870,7168 7870,7870 7167,7870 7167,7168 "/>
       <polygon id="_283" class="fil55" points="7145,7146 7892,7146 7892,7892 7145,7892 7145,7146 7189,7189 7848,7189 7848,7848 7189,7848 7189,7189 "/>
       <polygon id="_284" class="fil55" points="7167,7168 7870,7168 7870,7870 7167,7870 7167,7168 7211,7211 7826,7211 7826,7826 7211,7826 7211,7211 "/>
       <polygon id="_285" class="fil55" points="7189,7189 7848,7189 7848,7848 7189,7848 7189,7189 7233,7233 7804,7233 7804,7805 7233,7805 7233,7233 "/>
       <polygon id="_286" class="fil55" points="7211,7211 7826,7211 7826,7826 7211,7826 7211,7211 7255,7255 7782,7255 7782,7783 7255,7783 7255,7255 "/>
       <polygon id="_287" class="fil55" points="7233,7233 7804,7233 7804,7805 7233,7805 7233,7233 7278,7278 7759,7278 7759,7760 7278,7760 7278,7278 "/>
       <polygon id="_288" class="fil55" points="7255,7255 7782,7255 7782,7783 7255,7783 7255,7255 7299,7300 7738,7300 7738,7738 7299,7738 7299,7300 "/>
       <polygon id="_289" class="fil55" points="7277,7278 7759,7278 7759,7760 7277,7760 7277,7278 7321,7322 7716,7322 7716,7716 7321,7716 7321,7322 "/>
       <polygon id="_290" class="fil55" points="7299,7300 7738,7300 7738,7738 7299,7738 7299,7300 7343,7343 7694,7343 7694,7694 7343,7694 7343,7343 "/>
       <polygon id="_291" class="fil55" points="7321,7322 7716,7322 7716,7716 7321,7716 7321,7322 7365,7365 7672,7365 7672,7672 7365,7672 7365,7365 "/>
       <polygon id="_292" class="fil55" points="7343,7343 7694,7343 7694,7694 7343,7694 7343,7343 7387,7387 7650,7387 7650,7651 7387,7651 7387,7387 "/>
       <polygon id="_293" class="fil55" points="7365,7365 7672,7365 7672,7672 7365,7672 7365,7365 7409,7409 7628,7409 7628,7629 7409,7629 7409,7409 "/>
       <polygon id="_294" class="fil55" points="7387,7387 7650,7387 7650,7651 7387,7651 7387,7387 7431,7431 7606,7431 7606,7607 7431,7607 7431,7431 "/>
       <polygon id="_295" class="fil55" points="7409,7409 7628,7409 7628,7629 7409,7629 7409,7409 7452,7453 7585,7453 7585,7585 7452,7585 7452,7453 "/>
       <polygon id="_296" class="fil55" points="7431,7431 7606,7431 7606,7607 7431,7607 7431,7431 7474,7475 7563,7475 7563,7563 7474,7563 7474,7475 "/>
       <polygon id="_297" class="fil55" points="7452,7453 7585,7453 7585,7585 7452,7585 7452,7453 7496,7497 7541,7497 7541,7541 7496,7541 7496,7497 "/>
       <polygon id="_298" class="fil55" points="7474,7475 7563,7475 7563,7563 7474,7563 7474,7475 7518,7518 7518,7518 7518,7518 7518,7518 7518,7518 "/>
       <polygon id="_299" class="fil55" points="7496,7497 7541,7497 7541,7541 7496,7541 "/>
      </g>
     </g>
     <path class="fil56" d="M2375 14104l10288 0c792,0 1441,-649 1441,-1441l0 -10288c0,-792 -649,-1441 -1441,-1441l-10288 0c-792,0 -1441,649 -1441,1441l0 10288c0,792 649,1441 1441,1441z"/>
    </g>
   </g>
  </g>
  <rect class="fil57" x="1988" y="4770" width="9927" height="6174" rx="714" ry="714"/>
  <polyline class="fil56 str0" points="2199,5055 7009,7632 11692,5044 "/>
  <path class="fil58" d="M14513 8622l0 -1260c0,-112 -91,-203 -203,-203l-3283 0 10 -1087c0,-111 -181,-180 -268,-87 -500,536 -981,1091 -1500,1609 -297,297 -300,356 -17,662 508,549 998,1118 1529,1648 137,137 243,-54 243,-148l-1 -930 3288 0c112,0 203,-91 203,-203z"/>
 </g>
 <g id="">
  <metadata id="CorelCorpID_1Corel-Layer"/>
 </g>
</svg>
